<?xml version="1.0" encoding="UTF-8" standalone="no"?>
<!DOCTYPE svg PUBLIC "-//W3C//DTD SVG 1.1//EN"
 "http://www.w3.org/Graphics/SVG/1.1/DTD/svg11.dtd">
<!-- Generated by graphviz version 2.40.1 (20161225.0304)
 -->
<!-- Title: /home/kpenev/projects/git/poet/poet_src/StellarEvolution/AllowedGridGrowth.h Pages: 1 -->
<!--zoomable 670 -->
<svg id="main" version="1.1" xmlns="http://www.w3.org/2000/svg" xmlns:xlink="http://www.w3.org/1999/xlink" xml:space="preserve" onload="init(evt)">
<style type="text/css"><![CDATA[
.edge:hover path { stroke: red; }
.edge:hover polygon { stroke: red; fill: red; }
]]></style>
<script type="text/javascript"><![CDATA[
var edges = document.getElementsByTagName('g');
if (edges && edges.length) {
  for (var i=0;i<edges.length;i++) {
    if (edges[i].id.substr(0,4)=='edge') {
      edges[i].setAttribute('class','edge');
    }
  }
}
]]></script>
        <defs>
                <circle id="rim" cx="0" cy="0" r="7"/>
                <circle id="rim2" cx="0" cy="0" r="3.5"/>
                <g id="zoomPlus">
                        <use xlink:href="#rim" fill="#404040">
                                <set attributeName="fill" to="#808080" begin="zoomplus.mouseover" end="zoomplus.mouseout"/>
                        </use>
                        <path d="M-4,0h8M0,-4v8" fill="none" stroke="white" stroke-width="1.5" pointer-events="none"/>
                </g>
                <g id="zoomMin">
                        <use xlink:href="#rim" fill="#404040">
                                <set attributeName="fill" to="#808080" begin="zoomminus.mouseover" end="zoomminus.mouseout"/>
                        </use>
                        <path d="M-4,0h8" fill="none" stroke="white" stroke-width="1.5" pointer-events="none"/>
                </g>
                <g id="dirArrow">
                        <path fill="none" stroke="white" stroke-width="1.5" d="M0,-3.0v7 M-2.5,-0.5L0,-3.0L2.5,-0.5"/>
                </g>
               <g id="resetDef">
                       <use xlink:href="#rim2" fill="#404040">
                               <set attributeName="fill" to="#808080" begin="reset.mouseover" end="reset.mouseout"/>
                       </use>
               </g>
        </defs>

<script type="text/javascript">
var viewWidth = 1356;
var viewHeight = 670;
var sectionId = 'dynsection-1';
</script>
<script xlink:href="svgpan.js"/>
<svg id="graph" class="graph">
<g id="viewport">
<title>/home/kpenev/projects/git/poet/poet_src/StellarEvolution/AllowedGridGrowth.h</title>
<polygon fill="#ffffff" stroke="transparent" points="-4,4 -4,-666 1352,-666 1352,4 -4,4"/>
<!-- Node2 -->
<g id="node1" class="node">
<title>Node2</title>
<polygon fill="#bfbfbf" stroke="#000000" points="720,-614.5 720,-661.5 915,-661.5 915,-614.5 720,-614.5"/>
<text text-anchor="start" x="728" y="-647.9" font-family="Helvetica,sans-Serif" font-size="12.00" fill="#000000">/home/kpenev/projects</text>
<text text-anchor="start" x="728" y="-634.9" font-family="Helvetica,sans-Serif" font-size="12.00" fill="#000000">/git/poet/poet_src/StellarEvolution</text>
<text text-anchor="middle" x="817.5" y="-621.9" font-family="Helvetica,sans-Serif" font-size="12.00" fill="#000000">/AllowedGridGrowth.h</text>
</g>
<!-- Node3 -->
<g id="node2" class="node">
<title>Node3</title>
<g id="a_node2"><a xlink:href="EvolvingStellarQuantity_8h.html" target="_top" xlink:title="Declares a class implementing the intepolation of a single stellar quantity from stellar evolution tr...">
<polygon fill="#ffffff" stroke="#000000" points="720,-530.5 720,-577.5 915,-577.5 915,-530.5 720,-530.5"/>
<text text-anchor="start" x="728" y="-563.9" font-family="Helvetica,sans-Serif" font-size="12.00" fill="#000000">/home/kpenev/projects</text>
<text text-anchor="start" x="728" y="-550.9" font-family="Helvetica,sans-Serif" font-size="12.00" fill="#000000">/git/poet/poet_src/StellarEvolution</text>
<text text-anchor="middle" x="817.5" y="-537.9" font-family="Helvetica,sans-Serif" font-size="12.00" fill="#000000">/EvolvingStellarQuantity.h</text>
</a>
</g>
</g>
<!-- Node2&#45;&gt;Node3 -->
<g id="edge1" class="edge">
<title>Node2&#45;&gt;Node3</title>
<path fill="none" stroke="#191970" d="M817.5,-604.0664C817.5,-595.1933 817.5,-585.821 817.5,-577.6152"/>
<polygon fill="#191970" stroke="#191970" points="814.0001,-604.1536 817.5,-614.1537 821.0001,-604.1537 814.0001,-604.1536"/>
</g>
<!-- Node4 -->
<g id="node3" class="node">
<title>Node4</title>
<g id="a_node3"><a xlink:href="Interpolator_8h.html" target="_top" xlink:title="Defines the StellarEvolution class needed for interpolating among stellar evolution tracks...">
<polygon fill="#ffffff" stroke="#000000" points="320,-446.5 320,-493.5 515,-493.5 515,-446.5 320,-446.5"/>
<text text-anchor="start" x="328" y="-479.9" font-family="Helvetica,sans-Serif" font-size="12.00" fill="#000000">/home/kpenev/projects</text>
<text text-anchor="start" x="328" y="-466.9" font-family="Helvetica,sans-Serif" font-size="12.00" fill="#000000">/git/poet/poet_src/StellarEvolution</text>
<text text-anchor="middle" x="417.5" y="-453.9" font-family="Helvetica,sans-Serif" font-size="12.00" fill="#000000">/Interpolator.h</text>
</a>
</g>
</g>
<!-- Node3&#45;&gt;Node4 -->
<g id="edge2" class="edge">
<title>Node3&#45;&gt;Node4</title>
<path fill="none" stroke="#191970" d="M709.8439,-532.6022C654.157,-521.3888 585.1152,-507.261 523.5,-494 520.7331,-493.4045 517.9265,-492.7964 515.0943,-492.1792"/>
<polygon fill="#191970" stroke="#191970" points="709.2316,-536.0491 719.7255,-534.5896 710.612,-529.1865 709.2316,-536.0491"/>
</g>
<!-- Node23 -->
<g id="node22" class="node">
<title>Node23</title>
<g id="a_node22"><a xlink:href="EvolvingStellarZone_8h.html" target="_top" xlink:title="Declares a base class for all stellar zones. ">
<polygon fill="#ffffff" stroke="#000000" points="996.5,-446.5 996.5,-493.5 1134.5,-493.5 1134.5,-446.5 996.5,-446.5"/>
<text text-anchor="start" x="1004.5" y="-479.9" font-family="Helvetica,sans-Serif" font-size="12.00" fill="#000000">/home/kpenev/projects</text>
<text text-anchor="start" x="1004.5" y="-466.9" font-family="Helvetica,sans-Serif" font-size="12.00" fill="#000000">/git/poet/poet_src/Star</text>
<text text-anchor="middle" x="1065.5" y="-453.9" font-family="Helvetica,sans-Serif" font-size="12.00" fill="#000000">/EvolvingStellarZone.h</text>
</a>
</g>
</g>
<!-- Node3&#45;&gt;Node23 -->
<g id="edge25" class="edge">
<title>Node3&#45;&gt;Node23</title>
<path fill="none" stroke="#191970" d="M896.6736,-527.1831C928.6405,-516.3556 965.2002,-503.9725 996.1052,-493.5047"/>
<polygon fill="#191970" stroke="#191970" points="895.2602,-523.9665 886.9116,-530.4896 897.5059,-530.5965 895.2602,-523.9665"/>
</g>
<!-- Node24 -->
<g id="node23" class="node">
<title>Node24</title>
<g id="a_node23"><a xlink:href="EvolvingStellarCore_8h.html" target="_top" xlink:title="Declaration of the class representing stellar cores. ">
<polygon fill="#ffffff" stroke="#000000" points="720,-362.5 720,-409.5 857,-409.5 857,-362.5 720,-362.5"/>
<text text-anchor="start" x="728" y="-395.9" font-family="Helvetica,sans-Serif" font-size="12.00" fill="#000000">/home/kpenev/projects</text>
<text text-anchor="start" x="728" y="-382.9" font-family="Helvetica,sans-Serif" font-size="12.00" fill="#000000">/git/poet/poet_src/Star</text>
<text text-anchor="middle" x="788.5" y="-369.9" font-family="Helvetica,sans-Serif" font-size="12.00" fill="#000000">/EvolvingStellarCore.h</text>
</a>
</g>
</g>
<!-- Node3&#45;&gt;Node24 -->
<g id="edge31" class="edge">
<title>Node3&#45;&gt;Node24</title>
<path fill="none" stroke="#191970" d="M789.1424,-522.074C783.1466,-513.5185 777.6757,-503.8829 774.5,-494 765.4768,-465.9194 772.6493,-431.9575 779.6297,-409.7096"/>
<polygon fill="#191970" stroke="#191970" points="786.456,-524.3259 795.2476,-530.2385 792.062,-520.1339 786.456,-524.3259"/>
</g>
<!-- Node27 -->
<g id="node26" class="node">
<title>Node27</title>
<g id="a_node26"><a xlink:href="EvolvingStellarQuantity_8cpp.html" target="_top" xlink:title="Defines some of the methods of the EvolvingStellarQuantity class used for interpolating among stellar...">
<polygon fill="#ffffff" stroke="#000000" points="783,-446.5 783,-493.5 978,-493.5 978,-446.5 783,-446.5"/>
<text text-anchor="start" x="791" y="-479.9" font-family="Helvetica,sans-Serif" font-size="12.00" fill="#000000">/home/kpenev/projects</text>
<text text-anchor="start" x="791" y="-466.9" font-family="Helvetica,sans-Serif" font-size="12.00" fill="#000000">/git/poet/poet_src/StellarEvolution</text>
<text text-anchor="middle" x="880.5" y="-453.9" font-family="Helvetica,sans-Serif" font-size="12.00" fill="#000000">/EvolvingStellarQuantity.cpp</text>
</a>
</g>
</g>
<!-- Node3&#45;&gt;Node27 -->
<g id="edge32" class="edge">
<title>Node3&#45;&gt;Node27</title>
<path fill="none" stroke="#191970" d="M841.4382,-522.0824C848.5303,-512.6262 856.166,-502.4454 862.7886,-493.6152"/>
<polygon fill="#191970" stroke="#191970" points="838.5848,-520.0536 835.3848,-530.1537 844.1848,-524.2537 838.5848,-520.0536"/>
</g>
<!-- Node28 -->
<g id="node27" class="node">
<title>Node28</title>
<g id="a_node27"><a xlink:href="SumQuantity_8h.html" target="_top" xlink:title="Declare a class for a stellar evolution quantity which is the sum of two other quantities. ">
<polygon fill="#ffffff" stroke="#000000" points="533,-446.5 533,-493.5 728,-493.5 728,-446.5 533,-446.5"/>
<text text-anchor="start" x="541" y="-479.9" font-family="Helvetica,sans-Serif" font-size="12.00" fill="#000000">/home/kpenev/projects</text>
<text text-anchor="start" x="541" y="-466.9" font-family="Helvetica,sans-Serif" font-size="12.00" fill="#000000">/git/poet/poet_src/StellarEvolution</text>
<text text-anchor="middle" x="630.5" y="-453.9" font-family="Helvetica,sans-Serif" font-size="12.00" fill="#000000">/SumQuantity.h</text>
</a>
</g>
</g>
<!-- Node3&#45;&gt;Node28 -->
<g id="edge33" class="edge">
<title>Node3&#45;&gt;Node28</title>
<path fill="none" stroke="#191970" d="M755.718,-526.2476C732.1847,-515.6766 705.6104,-503.7394 683.0165,-493.5903"/>
<polygon fill="#191970" stroke="#191970" points="754.3563,-529.4728 764.9124,-530.3778 757.2246,-523.0875 754.3563,-529.4728"/>
</g>
<!-- Node29 -->
<g id="node28" class="node">
<title>Node29</title>
<g id="a_node28"><a xlink:href="ZeroQuantity_8h.html" target="_top" xlink:title="Declare a class for an identically zero stellar evolution quantity. ">
<polygon fill="#ffffff" stroke="#000000" points="1153,-446.5 1153,-493.5 1348,-493.5 1348,-446.5 1153,-446.5"/>
<text text-anchor="start" x="1161" y="-479.9" font-family="Helvetica,sans-Serif" font-size="12.00" fill="#000000">/home/kpenev/projects</text>
<text text-anchor="start" x="1161" y="-466.9" font-family="Helvetica,sans-Serif" font-size="12.00" fill="#000000">/git/poet/poet_src/StellarEvolution</text>
<text text-anchor="middle" x="1250.5" y="-453.9" font-family="Helvetica,sans-Serif" font-size="12.00" fill="#000000">/ZeroQuantity.h</text>
</a>
</g>
</g>
<!-- Node3&#45;&gt;Node29 -->
<g id="edge35" class="edge">
<title>Node3&#45;&gt;Node29</title>
<path fill="none" stroke="#191970" d="M925.0986,-535.2743C988.7356,-523.9309 1070.8437,-508.8288 1143.5,-494 1146.5778,-493.3718 1149.7034,-492.7249 1152.8577,-492.0643"/>
<polygon fill="#191970" stroke="#191970" points="924.2807,-531.8648 915.0482,-537.062 925.5066,-538.7566 924.2807,-531.8648"/>
</g>
<!-- Node5 -->
<g id="node4" class="node">
<title>Node5</title>
<g id="a_node4"><a xlink:href="MESAIO_8h.html" target="_top" xlink:title="Defines the classes for generating stellar evolution interpolators from the MESA tracks. ">
<polygon fill="#ffffff" stroke="#000000" points="213,-362.5 213,-409.5 408,-409.5 408,-362.5 213,-362.5"/>
<text text-anchor="start" x="221" y="-395.9" font-family="Helvetica,sans-Serif" font-size="12.00" fill="#000000">/home/kpenev/projects</text>
<text text-anchor="start" x="221" y="-382.9" font-family="Helvetica,sans-Serif" font-size="12.00" fill="#000000">/git/poet/poet_src/StellarEvolution</text>
<text text-anchor="middle" x="310.5" y="-369.9" font-family="Helvetica,sans-Serif" font-size="12.00" fill="#000000">/MESAIO.h</text>
</a>
</g>
</g>
<!-- Node4&#45;&gt;Node5 -->
<g id="edge3" class="edge">
<title>Node4&#45;&gt;Node5</title>
<path fill="none" stroke="#191970" d="M379.2994,-440.0107C366.6329,-430.067 352.7172,-419.1425 340.7351,-409.736"/>
<polygon fill="#191970" stroke="#191970" points="377.3828,-442.9558 387.4098,-446.3778 381.7053,-437.4498 377.3828,-442.9558"/>
</g>
<!-- Node14 -->
<g id="node13" class="node">
<title>Node14</title>
<g id="a_node13"><a xlink:href="EvolvingStar_8h.html" target="_top" xlink:title="Declares the class for stars that user pre&#45;tabulated stellar evolution tracks. ">
<polygon fill="#ffffff" stroke="#000000" points="720,-278.5 720,-325.5 857,-325.5 857,-278.5 720,-278.5"/>
<text text-anchor="start" x="728" y="-311.9" font-family="Helvetica,sans-Serif" font-size="12.00" fill="#000000">/home/kpenev/projects</text>
<text text-anchor="start" x="728" y="-298.9" font-family="Helvetica,sans-Serif" font-size="12.00" fill="#000000">/git/poet/poet_src/Star</text>
<text text-anchor="middle" x="788.5" y="-285.9" font-family="Helvetica,sans-Serif" font-size="12.00" fill="#000000">/EvolvingStar.h</text>
</a>
</g>
</g>
<!-- Node4&#45;&gt;Node14 -->
<g id="edge13" class="edge">
<title>Node4&#45;&gt;Node14</title>
<path fill="none" stroke="#191970" d="M431.7276,-436.8434C443.9881,-412.3259 464.0593,-380.1636 491.5,-362 528.2371,-337.683 644.0472,-319.5008 719.7287,-309.8357"/>
<polygon fill="#191970" stroke="#191970" points="428.4313,-435.6225 427.259,-446.1522 434.7419,-438.6518 428.4313,-435.6225"/>
</g>
<!-- Node22 -->
<g id="node21" class="node">
<title>Node22</title>
<g id="a_node21"><a xlink:href="Interpolator_8cpp.html" target="_top" xlink:title="Defines some of the methods of the StellarEvolution class. ">
<polygon fill="#ffffff" stroke="#000000" points="501,-362.5 501,-409.5 696,-409.5 696,-362.5 501,-362.5"/>
<text text-anchor="start" x="509" y="-395.9" font-family="Helvetica,sans-Serif" font-size="12.00" fill="#000000">/home/kpenev/projects</text>
<text text-anchor="start" x="509" y="-382.9" font-family="Helvetica,sans-Serif" font-size="12.00" fill="#000000">/git/poet/poet_src/StellarEvolution</text>
<text text-anchor="middle" x="598.5" y="-369.9" font-family="Helvetica,sans-Serif" font-size="12.00" fill="#000000">/Interpolator.cpp</text>
</a>
</g>
</g>
<!-- Node4&#45;&gt;Node22 -->
<g id="edge24" class="edge">
<title>Node4&#45;&gt;Node22</title>
<path fill="none" stroke="#191970" d="M477.6023,-442.1072C500.3055,-431.5709 525.8964,-419.6945 547.6685,-409.5903"/>
<polygon fill="#191970" stroke="#191970" points="475.9977,-438.9933 468.4003,-446.3778 478.9444,-445.3429 475.9977,-438.9933"/>
</g>
<!-- Node6 -->
<g id="node5" class="node">
<title>Node6</title>
<g id="a_node5"><a xlink:href="StellarEvolution_2CInterface_8h.html" target="_top" xlink:title="Declare C&#45;style functions for accessing the functionality of the StellarEvolution library...">
<polygon fill="#ffffff" stroke="#000000" points="213,-278.5 213,-325.5 408,-325.5 408,-278.5 213,-278.5"/>
<text text-anchor="start" x="221" y="-311.9" font-family="Helvetica,sans-Serif" font-size="12.00" fill="#000000">/home/kpenev/projects</text>
<text text-anchor="start" x="221" y="-298.9" font-family="Helvetica,sans-Serif" font-size="12.00" fill="#000000">/git/poet/poet_src/StellarEvolution</text>
<text text-anchor="middle" x="310.5" y="-285.9" font-family="Helvetica,sans-Serif" font-size="12.00" fill="#000000">/CInterface.h</text>
</a>
</g>
</g>
<!-- Node5&#45;&gt;Node6 -->
<g id="edge4" class="edge">
<title>Node5&#45;&gt;Node6</title>
<path fill="none" stroke="#191970" d="M310.5,-352.0664C310.5,-343.1933 310.5,-333.821 310.5,-325.6152"/>
<polygon fill="#191970" stroke="#191970" points="307.0001,-352.1536 310.5,-362.1537 314.0001,-352.1537 307.0001,-352.1536"/>
</g>
<!-- Node13 -->
<g id="node12" class="node">
<title>Node13</title>
<g id="a_node12"><a xlink:href="MESAIO_8cpp_source.html" target="_top" xlink:title="/home/kpenev/projects\l/git/poet/poet_src/StellarEvolution\l/MESAIO.cpp">
<polygon fill="#ffffff" stroke="#000000" points="0,-278.5 0,-325.5 195,-325.5 195,-278.5 0,-278.5"/>
<text text-anchor="start" x="8" y="-311.9" font-family="Helvetica,sans-Serif" font-size="12.00" fill="#000000">/home/kpenev/projects</text>
<text text-anchor="start" x="8" y="-298.9" font-family="Helvetica,sans-Serif" font-size="12.00" fill="#000000">/git/poet/poet_src/StellarEvolution</text>
<text text-anchor="middle" x="97.5" y="-285.9" font-family="Helvetica,sans-Serif" font-size="12.00" fill="#000000">/MESAIO.cpp</text>
</a>
</g>
</g>
<!-- Node5&#45;&gt;Node13 -->
<g id="edge12" class="edge">
<title>Node5&#45;&gt;Node13</title>
<path fill="none" stroke="#191970" d="M241.4331,-358.7623C214.2334,-348.0357 183.3013,-335.8371 157.1012,-325.5047"/>
<polygon fill="#191970" stroke="#191970" points="240.2976,-362.0768 250.8844,-362.4896 242.8657,-355.5649 240.2976,-362.0768"/>
</g>
<!-- Node7 -->
<g id="node6" class="node">
<title>Node7</title>
<g id="a_node6"><a xlink:href="Star_2CInterface_8h.html" target="_top" xlink:title="Declare C&#45;style functions for accessing the functionality of the Star library. ">
<polygon fill="#ffffff" stroke="#000000" points="242,-194.5 242,-241.5 379,-241.5 379,-194.5 242,-194.5"/>
<text text-anchor="start" x="250" y="-227.9" font-family="Helvetica,sans-Serif" font-size="12.00" fill="#000000">/home/kpenev/projects</text>
<text text-anchor="start" x="250" y="-214.9" font-family="Helvetica,sans-Serif" font-size="12.00" fill="#000000">/git/poet/poet_src/Star</text>
<text text-anchor="middle" x="310.5" y="-201.9" font-family="Helvetica,sans-Serif" font-size="12.00" fill="#000000">/CInterface.h</text>
</a>
</g>
</g>
<!-- Node6&#45;&gt;Node7 -->
<g id="edge5" class="edge">
<title>Node6&#45;&gt;Node7</title>
<path fill="none" stroke="#191970" d="M310.5,-268.0664C310.5,-259.1933 310.5,-249.821 310.5,-241.6152"/>
<polygon fill="#191970" stroke="#191970" points="307.0001,-268.1536 310.5,-278.1537 314.0001,-268.1537 307.0001,-268.1536"/>
</g>
<!-- Node12 -->
<g id="node11" class="node">
<title>Node12</title>
<g id="a_node11"><a xlink:href="StellarEvolution_2CInterface_8cpp.html" target="_top" xlink:title="The definitions of the functions declared in CInterface.h. ">
<polygon fill="#ffffff" stroke="#000000" points="29,-194.5 29,-241.5 224,-241.5 224,-194.5 29,-194.5"/>
<text text-anchor="start" x="37" y="-227.9" font-family="Helvetica,sans-Serif" font-size="12.00" fill="#000000">/home/kpenev/projects</text>
<text text-anchor="start" x="37" y="-214.9" font-family="Helvetica,sans-Serif" font-size="12.00" fill="#000000">/git/poet/poet_src/StellarEvolution</text>
<text text-anchor="middle" x="126.5" y="-201.9" font-family="Helvetica,sans-Serif" font-size="12.00" fill="#000000">/CInterface.cpp</text>
</a>
</g>
</g>
<!-- Node6&#45;&gt;Node12 -->
<g id="edge11" class="edge">
<title>Node6&#45;&gt;Node12</title>
<path fill="none" stroke="#191970" d="M249.4016,-274.1072C226.3221,-263.5709 200.307,-251.6945 178.174,-241.5903"/>
<polygon fill="#191970" stroke="#191970" points="248.2057,-277.4087 258.7561,-278.3778 251.1127,-271.0409 248.2057,-277.4087"/>
</g>
<!-- Node8 -->
<g id="node7" class="node">
<title>Node8</title>
<g id="a_node7"><a xlink:href="Evolve_2CInterface_8h.html" target="_top" xlink:title="Declare C&#45;style functions for accessing the functionality of the Evolve library. ">
<polygon fill="#ffffff" stroke="#000000" points="236,-104 236,-151 383,-151 383,-104 236,-104"/>
<text text-anchor="start" x="244" y="-137.4" font-family="Helvetica,sans-Serif" font-size="12.00" fill="#000000">/home/kpenev/projects</text>
<text text-anchor="start" x="244" y="-124.4" font-family="Helvetica,sans-Serif" font-size="12.00" fill="#000000">/git/poet/poet_src/Evolve</text>
<text text-anchor="middle" x="309.5" y="-111.4" font-family="Helvetica,sans-Serif" font-size="12.00" fill="#000000">/CInterface.h</text>
</a>
</g>
</g>
<!-- Node7&#45;&gt;Node8 -->
<g id="edge6" class="edge">
<title>Node7&#45;&gt;Node8</title>
<path fill="none" stroke="#191970" d="M310.1252,-184.0822C310.0039,-173.1065 309.8722,-161.1799 309.761,-151.119"/>
<polygon fill="#191970" stroke="#191970" points="306.6269,-184.2615 310.2373,-194.2222 313.6265,-184.1841 306.6269,-184.2615"/>
</g>
<!-- Node11 -->
<g id="node10" class="node">
<title>Node11</title>
<g id="a_node10"><a xlink:href="Star_2CInterface_8cpp.html" target="_top" xlink:title="The definitions of the functions declared in CInterface.h. ">
<polygon fill="#ffffff" stroke="#000000" points="79,-7 79,-54 216,-54 216,-7 79,-7"/>
<text text-anchor="start" x="87" y="-40.4" font-family="Helvetica,sans-Serif" font-size="12.00" fill="#000000">/home/kpenev/projects</text>
<text text-anchor="start" x="87" y="-27.4" font-family="Helvetica,sans-Serif" font-size="12.00" fill="#000000">/git/poet/poet_src/Star</text>
<text text-anchor="middle" x="147.5" y="-14.4" font-family="Helvetica,sans-Serif" font-size="12.00" fill="#000000">/CInterface.cpp</text>
</a>
</g>
</g>
<!-- Node7&#45;&gt;Node11 -->
<g id="edge10" class="edge">
<title>Node7&#45;&gt;Node11</title>
<path fill="none" stroke="#191970" d="M262.2069,-188.4321C249.7653,-179.5446 236.9512,-169.1596 226.5,-158 196.5961,-126.0691 171.9186,-81.1378 158.4864,-54.0207"/>
<polygon fill="#191970" stroke="#191970" points="260.5144,-191.5174 270.7272,-194.3368 264.5016,-185.764 260.5144,-191.5174"/>
</g>
<!-- Node9 -->
<g id="node8" class="node">
<title>Node9</title>
<g id="a_node8"><a xlink:href="Evolve_2CInterface_8cpp.html" target="_top" xlink:title="The definitions of the functions declared in CInterface.h. ">
<polygon fill="#ffffff" stroke="#000000" points="234,-7 234,-54 381,-54 381,-7 234,-7"/>
<text text-anchor="start" x="242" y="-40.4" font-family="Helvetica,sans-Serif" font-size="12.00" fill="#000000">/home/kpenev/projects</text>
<text text-anchor="start" x="242" y="-27.4" font-family="Helvetica,sans-Serif" font-size="12.00" fill="#000000">/git/poet/poet_src/Evolve</text>
<text text-anchor="middle" x="307.5" y="-14.4" font-family="Helvetica,sans-Serif" font-size="12.00" fill="#000000">/CInterface.cpp</text>
</a>
</g>
</g>
<!-- Node8&#45;&gt;Node9 -->
<g id="edge7" class="edge">
<title>Node8&#45;&gt;Node9</title>
<path fill="none" stroke="#191970" d="M308.7994,-93.5189C308.5317,-80.536 308.2325,-66.0241 307.9887,-54.2017"/>
<polygon fill="#191970" stroke="#191970" points="305.3001,-93.5968 309.0056,-103.5225 312.2986,-93.4524 305.3001,-93.5968"/>
</g>
<!-- Node10 -->
<g id="node9" class="node">
<title>Node10</title>
<g id="a_node9"><a xlink:href="Planet_2CInterface_8cpp.html" target="_top" xlink:title="The definitions of the functions declared in CInterface.h. ">
<polygon fill="#ffffff" stroke="#000000" points="399,-7 399,-54 544,-54 544,-7 399,-7"/>
<text text-anchor="start" x="407" y="-40.4" font-family="Helvetica,sans-Serif" font-size="12.00" fill="#000000">/home/kpenev/projects</text>
<text text-anchor="start" x="407" y="-27.4" font-family="Helvetica,sans-Serif" font-size="12.00" fill="#000000">/git/poet/poet_src/Planet</text>
<text text-anchor="middle" x="471.5" y="-14.4" font-family="Helvetica,sans-Serif" font-size="12.00" fill="#000000">/CInterface.cpp</text>
</a>
</g>
</g>
<!-- Node8&#45;&gt;Node10 -->
<g id="edge8" class="edge">
<title>Node8&#45;&gt;Node10</title>
<path fill="none" stroke="#191970" d="M357.9527,-98.4882C381.5964,-84.3312 409.6779,-67.5169 431.999,-54.1518"/>
<polygon fill="#191970" stroke="#191970" points="355.9112,-95.6311 349.1297,-103.7711 359.5073,-101.6368 355.9112,-95.6311"/>
</g>
<!-- Node8&#45;&gt;Node11 -->
<g id="edge9" class="edge">
<title>Node8&#45;&gt;Node11</title>
<path fill="none" stroke="#191970" d="M261.0473,-98.4882C237.4036,-84.3312 209.3221,-67.5169 187.001,-54.1518"/>
<polygon fill="#191970" stroke="#191970" points="259.4927,-101.6368 269.8703,-103.7711 263.0888,-95.6311 259.4927,-101.6368"/>
</g>
<!-- Node14&#45;&gt;Node7 -->
<g id="edge14" class="edge">
<title>Node14&#45;&gt;Node7</title>
<path fill="none" stroke="#191970" d="M709.6557,-288.1445C617.5496,-271.9585 466.6576,-245.4419 379.1663,-230.0669"/>
<polygon fill="#191970" stroke="#191970" points="709.305,-291.6364 719.7599,-289.9201 710.5166,-284.7421 709.305,-291.6364"/>
</g>
<!-- Node15 -->
<g id="node14" class="node">
<title>Node15</title>
<g id="a_node14"><a xlink:href="MakeStar_8h.html" target="_top" xlink:title="Declares functions for creating stars used by unit tests. ">
<polygon fill="#ffffff" stroke="#000000" points="762.5,-194.5 762.5,-241.5 914.5,-241.5 914.5,-194.5 762.5,-194.5"/>
<text text-anchor="start" x="770.5" y="-227.9" font-family="Helvetica,sans-Serif" font-size="12.00" fill="#000000">/home/kpenev/projects</text>
<text text-anchor="start" x="770.5" y="-214.9" font-family="Helvetica,sans-Serif" font-size="12.00" fill="#000000">/git/poet/poet_src/unit</text>
<text text-anchor="middle" x="838.5" y="-201.9" font-family="Helvetica,sans-Serif" font-size="12.00" fill="#000000">_tests/shared/MakeStar.h</text>
</a>
</g>
</g>
<!-- Node14&#45;&gt;Node15 -->
<g id="edge15" class="edge">
<title>Node14&#45;&gt;Node15</title>
<path fill="none" stroke="#191970" d="M807.8402,-269.5084C813.3718,-260.2154 819.2935,-250.267 824.4433,-241.6152"/>
<polygon fill="#191970" stroke="#191970" points="804.8016,-267.7705 802.6943,-278.1537 810.8167,-271.3509 804.8016,-267.7705"/>
</g>
<!-- Node20 -->
<g id="node19" class="node">
<title>Node20</title>
<g id="a_node19"><a xlink:href="testOrbitSolver_8h.html" target="_top" xlink:title="Declares the test suite that exercises the OrbitSolver class and some other clasess necessary to acco...">
<polygon fill="#ffffff" stroke="#000000" points="945.5,-104 945.5,-151 1143.5,-151 1143.5,-104 945.5,-104"/>
<text text-anchor="start" x="953.5" y="-137.4" font-family="Helvetica,sans-Serif" font-size="12.00" fill="#000000">/home/kpenev/projects</text>
<text text-anchor="start" x="953.5" y="-124.4" font-family="Helvetica,sans-Serif" font-size="12.00" fill="#000000">/git/poet/poet_src/unit</text>
<text text-anchor="middle" x="1044.5" y="-111.4" font-family="Helvetica,sans-Serif" font-size="12.00" fill="#000000">_tests/testEvolve/testOrbitSolver.h</text>
</a>
</g>
</g>
<!-- Node14&#45;&gt;Node20 -->
<g id="edge23" class="edge">
<title>Node14&#45;&gt;Node20</title>
<path fill="none" stroke="#191970" d="M862.6379,-274.4431C883.1051,-265.4187 904.8089,-254.4611 923.5,-242 962.9647,-215.6895 1001.5237,-176.0985 1024.1411,-151.0405"/>
<polygon fill="#191970" stroke="#191970" points="861.1345,-271.2797 853.3364,-278.4519 863.9051,-277.7082 861.1345,-271.2797"/>
</g>
<!-- Node16 -->
<g id="node15" class="node">
<title>Node16</title>
<g id="a_node15"><a xlink:href="MakeStar_8cpp.html" target="_top" xlink:title="Implement the functions defined in MakeStar.h. ">
<polygon fill="#ffffff" stroke="#000000" points="763.5,-104 763.5,-151 927.5,-151 927.5,-104 763.5,-104"/>
<text text-anchor="start" x="771.5" y="-137.4" font-family="Helvetica,sans-Serif" font-size="12.00" fill="#000000">/home/kpenev/projects</text>
<text text-anchor="start" x="771.5" y="-124.4" font-family="Helvetica,sans-Serif" font-size="12.00" fill="#000000">/git/poet/poet_src/unit</text>
<text text-anchor="middle" x="845.5" y="-111.4" font-family="Helvetica,sans-Serif" font-size="12.00" fill="#000000">_tests/shared/MakeStar.cpp</text>
</a>
</g>
</g>
<!-- Node15&#45;&gt;Node16 -->
<g id="edge16" class="edge">
<title>Node15&#45;&gt;Node16</title>
<path fill="none" stroke="#191970" d="M841.1235,-184.0822C841.9724,-173.1065 842.8949,-161.1799 843.6731,-151.119"/>
<polygon fill="#191970" stroke="#191970" points="837.6209,-183.982 840.3392,-194.2222 844.6,-184.5219 837.6209,-183.982"/>
</g>
<!-- Node17 -->
<g id="node16" class="node">
<title>Node17</title>
<g id="a_node16"><a xlink:href="testDifferentialEquations_8h.html" target="_top" xlink:title="Unit tests that check the differential equations for eccentricity and semimajor against analytic expr...">
<polygon fill="#ffffff" stroke="#000000" points="559.5,-97.5 559.5,-157.5 745.5,-157.5 745.5,-97.5 559.5,-97.5"/>
<text text-anchor="start" x="567.5" y="-143.9" font-family="Helvetica,sans-Serif" font-size="12.00" fill="#000000">/home/kpenev/projects</text>
<text text-anchor="start" x="567.5" y="-130.9" font-family="Helvetica,sans-Serif" font-size="12.00" fill="#000000">/git/poet/poet_src/unit</text>
<text text-anchor="start" x="567.5" y="-117.9" font-family="Helvetica,sans-Serif" font-size="12.00" fill="#000000">_tests/testEvolve/testDifferential</text>
<text text-anchor="middle" x="652.5" y="-104.9" font-family="Helvetica,sans-Serif" font-size="12.00" fill="#000000">Equations.h</text>
</a>
</g>
</g>
<!-- Node15&#45;&gt;Node17 -->
<g id="edge17" class="edge">
<title>Node15&#45;&gt;Node17</title>
<path fill="none" stroke="#191970" d="M780.9433,-189.9953C759.8171,-179.7161 735.8215,-168.0408 714.3354,-157.5866"/>
<polygon fill="#191970" stroke="#191970" points="779.5928,-193.2304 790.1162,-194.4584 782.6555,-186.936 779.5928,-193.2304"/>
</g>
<!-- Node15&#45;&gt;Node20 -->
<g id="edge20" class="edge">
<title>Node15&#45;&gt;Node20</title>
<path fill="none" stroke="#191970" d="M901.5657,-190.2939C930.1116,-177.7532 963.4995,-163.0852 990.8245,-151.0807"/>
<polygon fill="#191970" stroke="#191970" points="899.834,-187.2318 892.0863,-194.4584 902.6495,-193.6406 899.834,-187.2318"/>
</g>
<!-- Node18 -->
<g id="node17" class="node">
<title>Node18</title>
<g id="a_node17"><a xlink:href="testDifferentialEquations_8cpp.html" target="_top" xlink:title="Implement the non&#45;inline methods of test_DifferentialEquations. ">
<polygon fill="#ffffff" stroke="#000000" points="562.5,-.5 562.5,-60.5 748.5,-60.5 748.5,-.5 562.5,-.5"/>
<text text-anchor="start" x="570.5" y="-46.9" font-family="Helvetica,sans-Serif" font-size="12.00" fill="#000000">/home/kpenev/projects</text>
<text text-anchor="start" x="570.5" y="-33.9" font-family="Helvetica,sans-Serif" font-size="12.00" fill="#000000">/git/poet/poet_src/unit</text>
<text text-anchor="start" x="570.5" y="-20.9" font-family="Helvetica,sans-Serif" font-size="12.00" fill="#000000">_tests/testEvolve/testDifferential</text>
<text text-anchor="middle" x="655.5" y="-7.9" font-family="Helvetica,sans-Serif" font-size="12.00" fill="#000000">Equations.cpp</text>
</a>
</g>
</g>
<!-- Node17&#45;&gt;Node18 -->
<g id="edge18" class="edge">
<title>Node17&#45;&gt;Node18</title>
<path fill="none" stroke="#191970" d="M653.7475,-87.1653C654.022,-78.2876 654.3082,-69.0341 654.5678,-60.641"/>
<polygon fill="#191970" stroke="#191970" points="650.2437,-87.2369 653.4328,-97.3403 657.2403,-87.4533 650.2437,-87.2369"/>
</g>
<!-- Node19 -->
<g id="node18" class="node">
<title>Node19</title>
<g id="a_node18"><a xlink:href="testEvolve_8cpp_source.html" target="_top" xlink:title="/home/kpenev/projects\l/git/poet/poet_src/unit\l_tests/testEvolve/testEvolve.cpp">
<polygon fill="#ffffff" stroke="#000000" points="766.5,-7 766.5,-54 954.5,-54 954.5,-7 766.5,-7"/>
<text text-anchor="start" x="774.5" y="-40.4" font-family="Helvetica,sans-Serif" font-size="12.00" fill="#000000">/home/kpenev/projects</text>
<text text-anchor="start" x="774.5" y="-27.4" font-family="Helvetica,sans-Serif" font-size="12.00" fill="#000000">/git/poet/poet_src/unit</text>
<text text-anchor="middle" x="860.5" y="-14.4" font-family="Helvetica,sans-Serif" font-size="12.00" fill="#000000">_tests/testEvolve/testEvolve.cpp</text>
</a>
</g>
</g>
<!-- Node17&#45;&gt;Node19 -->
<g id="edge19" class="edge">
<title>Node17&#45;&gt;Node19</title>
<path fill="none" stroke="#191970" d="M726.1592,-93.1493C753.8915,-80.2164 784.7784,-65.8125 809.9369,-54.0799"/>
<polygon fill="#191970" stroke="#191970" points="724.4717,-90.0743 716.888,-97.4729 727.4303,-96.4184 724.4717,-90.0743"/>
</g>
<!-- Node20&#45;&gt;Node19 -->
<g id="edge21" class="edge">
<title>Node20&#45;&gt;Node19</title>
<path fill="none" stroke="#191970" d="M990.5293,-99.0481C963.457,-84.7762 931.0528,-67.6936 905.3653,-54.1518"/>
<polygon fill="#191970" stroke="#191970" points="989.0103,-102.2038 999.4885,-103.7711 992.2747,-96.0115 989.0103,-102.2038"/>
</g>
<!-- Node21 -->
<g id="node20" class="node">
<title>Node21</title>
<g id="a_node20"><a xlink:href="testOrbitSolver_8cpp.html" target="_top" xlink:title="Defines some of the methods of the test suite that exercises the OrbitSolver class and the other clas...">
<polygon fill="#ffffff" stroke="#000000" points="973,-7 973,-54 1184,-54 1184,-7 973,-7"/>
<text text-anchor="start" x="981" y="-40.4" font-family="Helvetica,sans-Serif" font-size="12.00" fill="#000000">/home/kpenev/projects</text>
<text text-anchor="start" x="981" y="-27.4" font-family="Helvetica,sans-Serif" font-size="12.00" fill="#000000">/git/poet/poet_src/unit</text>
<text text-anchor="middle" x="1078.5" y="-14.4" font-family="Helvetica,sans-Serif" font-size="12.00" fill="#000000">_tests/testEvolve/testOrbitSolver.cpp</text>
</a>
</g>
</g>
<!-- Node20&#45;&gt;Node21 -->
<g id="edge22" class="edge">
<title>Node20&#45;&gt;Node21</title>
<path fill="none" stroke="#191970" d="M1056.2759,-93.904C1060.8608,-80.8236 1066.0072,-66.1412 1070.1922,-54.2017"/>
<polygon fill="#191970" stroke="#191970" points="1052.9094,-92.9276 1052.9045,-103.5225 1059.5154,-95.2432 1052.9094,-92.9276"/>
</g>
<!-- Node23&#45;&gt;Node24 -->
<g id="edge26" class="edge">
<title>Node23&#45;&gt;Node24</title>
<path fill="none" stroke="#191970" d="M986.3751,-445.6713C932.1905,-429.3288 917.2658,-425.3617 866.5,-410 863.5166,-409.0972 860.4699,-408.1724 857.3929,-407.2359"/>
<polygon fill="#191970" stroke="#191970" points="985.6028,-449.0942 996.1877,-448.6365 987.6277,-442.3934 985.6028,-449.0942"/>
</g>
<!-- Node25 -->
<g id="node24" class="node">
<title>Node25</title>
<g id="a_node24"><a xlink:href="EvolvingStellarEnvelope_8h.html" target="_top" xlink:title="Declares a class representing convective zones in low mass evolving stars or the whole star for high ...">
<polygon fill="#ffffff" stroke="#000000" points="875,-362.5 875,-409.5 1036,-409.5 1036,-362.5 875,-362.5"/>
<text text-anchor="start" x="883" y="-395.9" font-family="Helvetica,sans-Serif" font-size="12.00" fill="#000000">/home/kpenev/projects</text>
<text text-anchor="start" x="883" y="-382.9" font-family="Helvetica,sans-Serif" font-size="12.00" fill="#000000">/git/poet/poet_src/Star</text>
<text text-anchor="middle" x="955.5" y="-369.9" font-family="Helvetica,sans-Serif" font-size="12.00" fill="#000000">/EvolvingStellarEnvelope.h</text>
</a>
</g>
</g>
<!-- Node23&#45;&gt;Node25 -->
<g id="edge28" class="edge">
<title>Node23&#45;&gt;Node25</title>
<path fill="none" stroke="#191970" d="M1026.6,-440.2946C1013.4794,-430.2752 999.0182,-419.2321 986.5828,-409.736"/>
<polygon fill="#191970" stroke="#191970" points="1024.4942,-443.0903 1034.5661,-446.3778 1028.7426,-437.5269 1024.4942,-443.0903"/>
</g>
<!-- Node26 -->
<g id="node25" class="node">
<title>Node26</title>
<g id="a_node25"><a xlink:href="EvolvingStellarZone_8cpp.html" target="_top" xlink:title="Definitions of some of the methods of EvolvingStellarZone. ">
<polygon fill="#ffffff" stroke="#000000" points="1054,-362.5 1054,-409.5 1205,-409.5 1205,-362.5 1054,-362.5"/>
<text text-anchor="start" x="1062" y="-395.9" font-family="Helvetica,sans-Serif" font-size="12.00" fill="#000000">/home/kpenev/projects</text>
<text text-anchor="start" x="1062" y="-382.9" font-family="Helvetica,sans-Serif" font-size="12.00" fill="#000000">/git/poet/poet_src/Star</text>
<text text-anchor="middle" x="1129.5" y="-369.9" font-family="Helvetica,sans-Serif" font-size="12.00" fill="#000000">/EvolvingStellarZone.cpp</text>
</a>
</g>
</g>
<!-- Node23&#45;&gt;Node26 -->
<g id="edge30" class="edge">
<title>Node23&#45;&gt;Node26</title>
<path fill="none" stroke="#191970" d="M1089.8182,-438.0824C1097.0229,-428.6262 1104.7797,-418.4454 1111.5074,-409.6152"/>
<polygon fill="#191970" stroke="#191970" points="1086.9451,-436.0782 1083.6686,-446.1537 1092.5131,-440.3205 1086.9451,-436.0782"/>
</g>
<!-- Node24&#45;&gt;Node14 -->
<g id="edge27" class="edge">
<title>Node24&#45;&gt;Node14</title>
<path fill="none" stroke="#191970" d="M788.5,-352.0664C788.5,-343.1933 788.5,-333.821 788.5,-325.6152"/>
<polygon fill="#191970" stroke="#191970" points="785.0001,-352.1536 788.5,-362.1537 792.0001,-352.1537 785.0001,-352.1536"/>
</g>
<!-- Node25&#45;&gt;Node14 -->
<g id="edge29" class="edge">
<title>Node25&#45;&gt;Node14</title>
<path fill="none" stroke="#191970" d="M899.4873,-357.826C878.6799,-347.36 855.3093,-335.6047 835.3998,-325.5903"/>
<polygon fill="#191970" stroke="#191970" points="898.0305,-361.0109 908.5368,-362.3778 901.176,-354.7575 898.0305,-361.0109"/>
</g>
<!-- Node28&#45;&gt;Node22 -->
<g id="edge34" class="edge">
<title>Node28&#45;&gt;Node22</title>
<path fill="none" stroke="#191970" d="M617.7931,-436.6444C614.3481,-427.6013 610.6902,-417.9994 607.4963,-409.6152"/>
<polygon fill="#191970" stroke="#191970" points="614.585,-438.0548 621.4157,-446.1537 621.1264,-435.5628 614.585,-438.0548"/>
</g>
</g>
</svg>
        <g id="navigator" transform="translate(0 0)" fill="#404254">
                <rect fill="#f2f5e9" fill-opacity="0.5" stroke="#606060" stroke-width=".5" x="0" y="0" width="60" height="60"/>
                <use id="zoomplus" xlink:href="#zoomPlus" x="17" y="9" onmousedown="handleZoom(evt,'in')"/>
                <use id="zoomminus" xlink:href="#zoomMin" x="42" y="9" onmousedown="handleZoom(evt,'out')"/>
                <use id="reset" xlink:href="#resetDef" x="30" y="36" onmousedown="handleReset()"/>
                <g id="arrowUp" xlink:href="#dirArrow" transform="translate(30 24)" onmousedown="handlePan(0,-1)">
                  <use xlink:href="#rim" fill="#404040">
                        <set attributeName="fill" to="#808080" begin="arrowUp.mouseover" end="arrowUp.mouseout"/>
                  </use>
                  <path fill="none" stroke="white" stroke-width="1.5" d="M0,-3.0v7 M-2.5,-0.5L0,-3.0L2.5,-0.5"/>
                </g>
                <g id="arrowRight" xlink:href="#dirArrow" transform="rotate(90) translate(36 -43)" onmousedown="handlePan(1,0)">
                  <use xlink:href="#rim" fill="#404040">
                        <set attributeName="fill" to="#808080" begin="arrowRight.mouseover" end="arrowRight.mouseout"/>
                  </use>
                  <path fill="none" stroke="white" stroke-width="1.5" d="M0,-3.0v7 M-2.5,-0.5L0,-3.0L2.5,-0.5"/>
                </g>
                <g id="arrowDown" xlink:href="#dirArrow" transform="rotate(180) translate(-30 -48)" onmousedown="handlePan(0,1)">
                  <use xlink:href="#rim" fill="#404040">
                        <set attributeName="fill" to="#808080" begin="arrowDown.mouseover" end="arrowDown.mouseout"/>
                  </use>
                  <path fill="none" stroke="white" stroke-width="1.5" d="M0,-3.0v7 M-2.5,-0.5L0,-3.0L2.5,-0.5"/>
                </g>
                <g id="arrowLeft" xlink:href="#dirArrow" transform="rotate(270) translate(-36 17)" onmousedown="handlePan(-1,0)">
                  <use xlink:href="#rim" fill="#404040">
                        <set attributeName="fill" to="#808080" begin="arrowLeft.mouseover" end="arrowLeft.mouseout"/>
                  </use>
                  <path fill="none" stroke="white" stroke-width="1.5" d="M0,-3.0v7 M-2.5,-0.5L0,-3.0L2.5,-0.5"/>
                </g>
        </g>
        <svg viewBox="0 0 15 15" width="100%" height="30px" preserveAspectRatio="xMaxYMin meet">
         <g id="arrow_out" transform="scale(0.3 0.3)">
          <a xlink:href="AllowedGridGrowth_8h__dep__incl_org.svg" target="_base">
           <rect id="button" ry="5" rx="5" y="6" x="6" height="38" width="38"
                fill="#f2f5e9" fill-opacity="0.5" stroke="#606060" stroke-width="1.0"/>
           <path id="arrow"
             d="M 11.500037,31.436501 C 11.940474,20.09759 22.043105,11.32322 32.158766,21.979434 L 37.068811,17.246167 C 37.068811,17.246167 37.088388,32 37.088388,32 L 22.160133,31.978069 C 22.160133,31.978069 26.997745,27.140456 26.997745,27.140456 C 18.528582,18.264221 13.291696,25.230495 11.500037,31.436501 z"
             style="fill:#404040;"/>
          </a>
         </g>
        </svg>
</svg>
