<?xml version="1.0" encoding="UTF-8" standalone="no"?>
<!DOCTYPE svg PUBLIC "-//W3C//DTD SVG 1.1//EN"
 "http://www.w3.org/Graphics/SVG/1.1/DTD/svg11.dtd">
<!-- Generated by graphviz version 2.40.1 (20161225.0304)
 -->
<!-- Title: /Users/kpenev/projects/git/poet/poet_src/StellarEvolution/AllowedGridGrowth.h Pages: 1 -->
<svg width="203pt" height="122pt"
 viewBox="0.00 0.00 202.77 122.00" xmlns="http://www.w3.org/2000/svg" xmlns:xlink="http://www.w3.org/1999/xlink">
<g id="graph0" class="graph" transform="scale(1 1) rotate(0) translate(4 118)">
<title>/Users/kpenev/projects/git/poet/poet_src/StellarEvolution/AllowedGridGrowth.h</title>
<polygon fill="#ffffff" stroke="transparent" points="-4,4 -4,-118 198.7695,-118 198.7695,4 -4,4"/>
<!-- Node0 -->
<g id="node1" class="node">
<title>Node0</title>
<polygon fill="#bfbfbf" stroke="#000000" points="0,-69.5 0,-113.5 194.7695,-113.5 194.7695,-69.5 0,-69.5"/>
<text text-anchor="start" x="8" y="-99.9" font-family="Helvetica,sans-Serif" font-size="12.00" fill="#000000">/Users/kpenev/projects</text>
<text text-anchor="start" x="8" y="-87.9" font-family="Helvetica,sans-Serif" font-size="12.00" fill="#000000">/git/poet/poet_src/StellarEvolution</text>
<text text-anchor="middle" x="97.3848" y="-75.9" font-family="Helvetica,sans-Serif" font-size="12.00" fill="#000000">/AllowedGridGrowth.h</text>
</g>
<!-- Node1 -->
<g id="node2" class="node">
<title>Node1</title>
<g id="a_node2"><a xlink:href="SharedLibraryExportMacros_8h_source.html" target="_top" xlink:title="../Core/SharedLibraryExport\lMacros.h">
<polygon fill="#ffffff" stroke="#000000" points="14.6836,-.5 14.6836,-32.5 180.0859,-32.5 180.0859,-.5 14.6836,-.5"/>
<text text-anchor="start" x="22.6836" y="-18.9" font-family="Helvetica,sans-Serif" font-size="12.00" fill="#000000">../Core/SharedLibraryExport</text>
<text text-anchor="middle" x="97.3848" y="-6.9" font-family="Helvetica,sans-Serif" font-size="12.00" fill="#000000">Macros.h</text>
</a>
</g>
</g>
<!-- Node0&#45;&gt;Node1 -->
<g id="edge1" class="edge">
<title>Node0&#45;&gt;Node1</title>
<path fill="none" stroke="#191970" d="M97.3848,-69.4032C97.3848,-61.0476 97.3848,-51.4571 97.3848,-42.7565"/>
<polygon fill="#191970" stroke="#191970" points="100.8849,-42.7277 97.3848,-32.7277 93.8849,-42.7277 100.8849,-42.7277"/>
</g>
</g>
</svg>
