<?xml version="1.0" encoding="UTF-8" standalone="no"?>
<!DOCTYPE svg PUBLIC "-//W3C//DTD SVG 1.1//EN"
 "http://www.w3.org/Graphics/SVG/1.1/DTD/svg11.dtd">
<!-- Generated by graphviz version 2.40.1 (20161225.0304)
 -->
<!-- Title: ConservedLERadObliquityEvolution Pages: 1 -->
<!--zoomable 941 -->
<svg id="main" version="1.1" xmlns="http://www.w3.org/2000/svg" xmlns:xlink="http://www.w3.org/1999/xlink" xml:space="preserve" onload="init(evt)">
<style type="text/css"><![CDATA[
.edge:hover path { stroke: red; }
.edge:hover polygon { stroke: red; fill: red; }
]]></style>
<script type="text/javascript"><![CDATA[
var edges = document.getElementsByTagName('g');
if (edges && edges.length) {
  for (var i=0;i<edges.length;i++) {
    if (edges[i].id.substr(0,4)=='edge') {
      edges[i].setAttribute('class','edge');
    }
  }
}
]]></script>
        <defs>
                <circle id="rim" cx="0" cy="0" r="7"/>
                <circle id="rim2" cx="0" cy="0" r="3.5"/>
                <g id="zoomPlus">
                        <use xlink:href="#rim" fill="#404040">
                                <set attributeName="fill" to="#808080" begin="zoomplus.mouseover" end="zoomplus.mouseout"/>
                        </use>
                        <path d="M-4,0h8M0,-4v8" fill="none" stroke="white" stroke-width="1.5" pointer-events="none"/>
                </g>
                <g id="zoomMin">
                        <use xlink:href="#rim" fill="#404040">
                                <set attributeName="fill" to="#808080" begin="zoomminus.mouseover" end="zoomminus.mouseout"/>
                        </use>
                        <path d="M-4,0h8" fill="none" stroke="white" stroke-width="1.5" pointer-events="none"/>
                </g>
                <g id="dirArrow">
                        <path fill="none" stroke="white" stroke-width="1.5" d="M0,-3.0v7 M-2.5,-0.5L0,-3.0L2.5,-0.5"/>
                </g>
               <g id="resetDef">
                       <use xlink:href="#rim2" fill="#404040">
                               <set attributeName="fill" to="#808080" begin="reset.mouseover" end="reset.mouseout"/>
                       </use>
               </g>
        </defs>

<script type="text/javascript">
var viewWidth = 395;
var viewHeight = 941;
var sectionId = 'dynsection-1';
</script>
<script xlink:href="svgpan.js"/>
<svg id="graph" class="graph">
<g id="viewport">
<title>ConservedLERadObliquityEvolution</title>
<polygon fill="#ffffff" stroke="transparent" points="-4,4 -4,-937 390.5,-937 390.5,4 -4,4"/>
<!-- Node4 -->
<g id="node1" class="node">
<title>Node4</title>
<polygon fill="#bfbfbf" stroke="#000000" points="0,-.5 0,-180.5 227,-180.5 227,-.5 0,-.5"/>
<text text-anchor="middle" x="113.5" y="-166.9" font-family="Helvetica,sans-Serif" font-size="12.00" fill="#000000">ConservedLERadObliquityEvolution</text>
<polyline fill="none" stroke="#000000" points="0,-159.5 227,-159.5 "/>
<text text-anchor="start" x="8" y="-145.9" font-family="Helvetica,sans-Serif" font-size="12.00" fill="#000000">&#45; __orbital_angmom</text>
<text text-anchor="start" x="8" y="-132.9" font-family="Helvetica,sans-Serif" font-size="12.00" fill="#000000">&#45; __initial_obliquity</text>
<text text-anchor="start" x="8" y="-119.9" font-family="Helvetica,sans-Serif" font-size="12.00" fill="#000000">&#45; __initial_lconv_perp</text>
<text text-anchor="start" x="8" y="-106.9" font-family="Helvetica,sans-Serif" font-size="12.00" fill="#000000">&#45; __disk_lifetime</text>
<polyline fill="none" stroke="#000000" points="0,-99.5 227,-99.5 "/>
<text text-anchor="start" x="8" y="-85.9" font-family="Helvetica,sans-Serif" font-size="12.00" fill="#000000">+ ConservedLERadObliquityEvolution()</text>
<text text-anchor="start" x="8" y="-72.9" font-family="Helvetica,sans-Serif" font-size="12.00" fill="#000000">+ operator()()</text>
<text text-anchor="start" x="8" y="-59.9" font-family="Helvetica,sans-Serif" font-size="12.00" fill="#000000">+ range_high()</text>
<text text-anchor="start" x="8" y="-46.9" font-family="Helvetica,sans-Serif" font-size="12.00" fill="#000000">+ range_low()</text>
<text text-anchor="start" x="8" y="-33.9" font-family="Helvetica,sans-Serif" font-size="12.00" fill="#000000">+ crossings()</text>
<text text-anchor="start" x="8" y="-20.9" font-family="Helvetica,sans-Serif" font-size="12.00" fill="#000000">+ deriv()</text>
<text text-anchor="start" x="8" y="-7.9" font-family="Helvetica,sans-Serif" font-size="12.00" fill="#000000">&#45; value()</text>
</g>
<!-- Node5 -->
<g id="node2" class="node">
<title>Node5</title>
<g id="a_node2"><a xlink:href="classCore_1_1OneArgumentDiffFunction.html" target="_top" xlink:title="A class representing a once differentiable function of a single argument. ">
<polygon fill="#ffffff" stroke="#000000" points="63.5,-473.5 63.5,-562.5 251.5,-562.5 251.5,-473.5 63.5,-473.5"/>
<text text-anchor="middle" x="157.5" y="-548.9" font-family="Helvetica,sans-Serif" font-size="12.00" fill="#000000">Core::OneArgumentDiffFunction</text>
<polyline fill="none" stroke="#000000" points="63.5,-541.5 251.5,-541.5 "/>
<text text-anchor="middle" x="157.5" y="-527.9" font-family="Helvetica,sans-Serif" font-size="12.00" fill="#000000"> </text>
<polyline fill="none" stroke="#000000" points="63.5,-520.5 251.5,-520.5 "/>
<text text-anchor="start" x="71.5" y="-506.9" font-family="Helvetica,sans-Serif" font-size="12.00" fill="#000000">+ deriv()</text>
<text text-anchor="start" x="71.5" y="-493.9" font-family="Helvetica,sans-Serif" font-size="12.00" fill="#000000">+ ~OneArgumentDiffFunction()</text>
<text text-anchor="start" x="71.5" y="-480.9" font-family="Helvetica,sans-Serif" font-size="12.00" fill="#000000">&#45; serialize()</text>
</a>
</g>
</g>
<!-- Node5&#45;&gt;Node4 -->
<g id="edge1" class="edge">
<title>Node5&#45;&gt;Node4</title>
<path fill="none" stroke="#191970" d="M105.7114,-465.1343C103.4578,-461.8153 101.3652,-458.4279 99.5,-455 92.6991,-442.5013 93.292,-438.1159 91.5,-424 80.641,-338.4643 84.7635,-315.9587 91.5,-230 92.7547,-213.9898 94.8076,-197.04 97.168,-180.6796"/>
<polygon fill="none" stroke="#191970" points="102.8904,-467.206 111.6074,-473.228 108.5483,-463.0844 102.8904,-467.206"/>
</g>
<!-- Node5&#45;&gt;Node4 -->
<g id="edge7" class="edge">
<title>Node5&#45;&gt;Node4</title>
<path fill="none" stroke="#404040" d="M137.4915,-473.4496C131.5229,-458.0937 125.7185,-440.5821 122.5,-424 107.6433,-347.4554 105.923,-259.1912 107.6316,-192.7004"/>
<polygon fill="none" stroke="#404040" points="107.6361,-192.541 103.8138,-186.4263 107.9881,-180.5462 111.8104,-186.6609 107.6361,-192.541"/>
<text text-anchor="middle" x="162" y="-323.9" font-family="Helvetica,sans-Serif" font-size="12.00" fill="#000000"> &#45;__lconv_evol</text>
</g>
<!-- Node8 -->
<g id="node5" class="node">
<title>Node8</title>
<g id="a_node5"><a xlink:href="classConservedLEConvObliquityEvolution.html" target="_top" xlink:title="{ConservedLEConvObliquity\lEvolution\n|&#45; __orbital_angmom\l&#45; __total2_minus_orbital2\l&#45; __disk_lifetime\l|+ ConservedLEConvObliquity\lEvolution()\l+ operator()()\l+ range_high()\l+ range_low()\l+ crossings()\l+ deriv()\l&#45; value()\l}">
<polygon fill="#ffffff" stroke="#000000" points="210.5,-230.5 210.5,-423.5 386.5,-423.5 386.5,-230.5 210.5,-230.5"/>
<text text-anchor="start" x="218.5" y="-409.9" font-family="Helvetica,sans-Serif" font-size="12.00" fill="#000000">ConservedLEConvObliquity</text>
<text text-anchor="middle" x="298.5" y="-396.9" font-family="Helvetica,sans-Serif" font-size="12.00" fill="#000000">Evolution</text>
<polyline fill="none" stroke="#000000" points="210.5,-389.5 386.5,-389.5 "/>
<text text-anchor="start" x="218.5" y="-375.9" font-family="Helvetica,sans-Serif" font-size="12.00" fill="#000000">&#45; __orbital_angmom</text>
<text text-anchor="start" x="218.5" y="-362.9" font-family="Helvetica,sans-Serif" font-size="12.00" fill="#000000">&#45; __total2_minus_orbital2</text>
<text text-anchor="start" x="218.5" y="-349.9" font-family="Helvetica,sans-Serif" font-size="12.00" fill="#000000">&#45; __disk_lifetime</text>
<polyline fill="none" stroke="#000000" points="210.5,-342.5 386.5,-342.5 "/>
<text text-anchor="start" x="218.5" y="-328.9" font-family="Helvetica,sans-Serif" font-size="12.00" fill="#000000">+ ConservedLEConvObliquity</text>
<text text-anchor="start" x="218.5" y="-315.9" font-family="Helvetica,sans-Serif" font-size="12.00" fill="#000000">Evolution()</text>
<text text-anchor="start" x="218.5" y="-302.9" font-family="Helvetica,sans-Serif" font-size="12.00" fill="#000000">+ operator()()</text>
<text text-anchor="start" x="218.5" y="-289.9" font-family="Helvetica,sans-Serif" font-size="12.00" fill="#000000">+ range_high()</text>
<text text-anchor="start" x="218.5" y="-276.9" font-family="Helvetica,sans-Serif" font-size="12.00" fill="#000000">+ range_low()</text>
<text text-anchor="start" x="218.5" y="-263.9" font-family="Helvetica,sans-Serif" font-size="12.00" fill="#000000">+ crossings()</text>
<text text-anchor="start" x="218.5" y="-250.9" font-family="Helvetica,sans-Serif" font-size="12.00" fill="#000000">+ deriv()</text>
<text text-anchor="start" x="218.5" y="-237.9" font-family="Helvetica,sans-Serif" font-size="12.00" fill="#000000">&#45; value()</text>
</a>
</g>
</g>
<!-- Node5&#45;&gt;Node8 -->
<g id="edge5" class="edge">
<title>Node5&#45;&gt;Node8</title>
<path fill="none" stroke="#191970" d="M196.6377,-464.9836C206.1117,-452.1501 216.5348,-438.0309 226.9875,-423.8716"/>
<polygon fill="none" stroke="#191970" points="193.6816,-463.095 190.5582,-473.219 199.3133,-467.2524 193.6816,-463.095"/>
</g>
<!-- Node5&#45;&gt;Node8 -->
<g id="edge6" class="edge">
<title>Node5&#45;&gt;Node8</title>
<path fill="none" stroke="#404040" d="M206.5701,-473.2503C212.1832,-467.3279 217.6302,-461.1668 222.5,-455 227.8406,-448.237 233.0793,-441.0643 238.152,-433.7033"/>
<polygon fill="none" stroke="#404040" points="238.2683,-433.5303 238.2942,-426.3192 244.9606,-423.5696 244.9346,-430.7807 238.2683,-433.5303"/>
<text text-anchor="middle" x="271" y="-445.4" font-family="Helvetica,sans-Serif" font-size="12.00" fill="#000000"> &#45;__lconv_evol</text>
</g>
<!-- Node6 -->
<g id="node3" class="node">
<title>Node6</title>
<g id="a_node3"><a xlink:href="classCore_1_1OneArgumentFunction.html" target="_top" xlink:title="{Core::OneArgumentFunction\l\&lt; double, double \&gt;\n||+ operator()()\l+ range_high()\l+ range_low()\l+ crossings()\l+ ~OneArgumentFunction()\l&#45; serialize()\l}">
<polygon fill="#ffffff" stroke="#000000" points="72.5,-600.5 72.5,-741.5 242.5,-741.5 242.5,-600.5 72.5,-600.5"/>
<text text-anchor="start" x="80.5" y="-727.9" font-family="Helvetica,sans-Serif" font-size="12.00" fill="#000000">Core::OneArgumentFunction</text>
<text text-anchor="middle" x="157.5" y="-714.9" font-family="Helvetica,sans-Serif" font-size="12.00" fill="#000000">&lt; double, double &gt;</text>
<polyline fill="none" stroke="#000000" points="72.5,-707.5 242.5,-707.5 "/>
<text text-anchor="middle" x="157.5" y="-693.9" font-family="Helvetica,sans-Serif" font-size="12.00" fill="#000000"> </text>
<polyline fill="none" stroke="#000000" points="72.5,-686.5 242.5,-686.5 "/>
<text text-anchor="start" x="80.5" y="-672.9" font-family="Helvetica,sans-Serif" font-size="12.00" fill="#000000">+ operator()()</text>
<text text-anchor="start" x="80.5" y="-659.9" font-family="Helvetica,sans-Serif" font-size="12.00" fill="#000000">+ range_high()</text>
<text text-anchor="start" x="80.5" y="-646.9" font-family="Helvetica,sans-Serif" font-size="12.00" fill="#000000">+ range_low()</text>
<text text-anchor="start" x="80.5" y="-633.9" font-family="Helvetica,sans-Serif" font-size="12.00" fill="#000000">+ crossings()</text>
<text text-anchor="start" x="80.5" y="-620.9" font-family="Helvetica,sans-Serif" font-size="12.00" fill="#000000">+ ~OneArgumentFunction()</text>
<text text-anchor="start" x="80.5" y="-607.9" font-family="Helvetica,sans-Serif" font-size="12.00" fill="#000000">&#45; serialize()</text>
</a>
</g>
</g>
<!-- Node6&#45;&gt;Node5 -->
<g id="edge2" class="edge">
<title>Node6&#45;&gt;Node5</title>
<path fill="none" stroke="#191970" d="M157.5,-590.0703C157.5,-580.63 157.5,-571.2799 157.5,-562.5977"/>
<polygon fill="none" stroke="#191970" points="154.0001,-590.3221 157.5,-600.3221 161.0001,-590.3222 154.0001,-590.3221"/>
</g>
<!-- Node7 -->
<g id="node4" class="node">
<title>Node7</title>
<g id="a_node4"><a xlink:href="classCore_1_1OneArgumentFunction.html" target="_top" xlink:title="The base class for functions which take a single argument and return a single value. ">
<polygon fill="#ffffff" stroke="#000000" points="53,-791.5 53,-932.5 262,-932.5 262,-791.5 53,-791.5"/>
<text text-anchor="start" x="61" y="-918.9" font-family="Helvetica,sans-Serif" font-size="12.00" fill="#000000">Core::OneArgumentFunction</text>
<text text-anchor="middle" x="157.5" y="-905.9" font-family="Helvetica,sans-Serif" font-size="12.00" fill="#000000">&lt; InputDataType, OutputDataType &gt;</text>
<polyline fill="none" stroke="#000000" points="53,-898.5 262,-898.5 "/>
<text text-anchor="middle" x="157.5" y="-884.9" font-family="Helvetica,sans-Serif" font-size="12.00" fill="#000000"> </text>
<polyline fill="none" stroke="#000000" points="53,-877.5 262,-877.5 "/>
<text text-anchor="start" x="61" y="-863.9" font-family="Helvetica,sans-Serif" font-size="12.00" fill="#000000">+ operator()()</text>
<text text-anchor="start" x="61" y="-850.9" font-family="Helvetica,sans-Serif" font-size="12.00" fill="#000000">+ range_high()</text>
<text text-anchor="start" x="61" y="-837.9" font-family="Helvetica,sans-Serif" font-size="12.00" fill="#000000">+ range_low()</text>
<text text-anchor="start" x="61" y="-824.9" font-family="Helvetica,sans-Serif" font-size="12.00" fill="#000000">+ crossings()</text>
<text text-anchor="start" x="61" y="-811.9" font-family="Helvetica,sans-Serif" font-size="12.00" fill="#000000">+ ~OneArgumentFunction()</text>
<text text-anchor="start" x="61" y="-798.9" font-family="Helvetica,sans-Serif" font-size="12.00" fill="#000000">&#45; serialize()</text>
</a>
</g>
</g>
<!-- Node7&#45;&gt;Node6 -->
<g id="edge3" class="edge">
<title>Node7&#45;&gt;Node6</title>
<path fill="none" stroke="#ffa500" d="M157.5,-781.4027C157.5,-768.179 157.5,-754.5645 157.5,-741.6073"/>
<polygon fill="#ffa500" stroke="#ffa500" points="154.0001,-781.4213 157.5,-791.4213 161.0001,-781.4213 154.0001,-781.4213"/>
<text text-anchor="middle" x="209" y="-763.4" font-family="Helvetica,sans-Serif" font-size="12.00" fill="#000000"> &lt; double, double &gt;</text>
</g>
<!-- Node8&#45;&gt;Node4 -->
<g id="edge4" class="edge">
<title>Node8&#45;&gt;Node4</title>
<path fill="none" stroke="#404040" d="M222.9866,-230.4653C212.6153,-217.2069 201.9491,-203.5714 191.5337,-190.2566"/>
<polygon fill="none" stroke="#404040" points="191.3954,-190.0798 184.548,-187.8184 184.0018,-180.628 190.8492,-182.8894 191.3954,-190.0798"/>
<text text-anchor="middle" x="260" y="-202.4" font-family="Helvetica,sans-Serif" font-size="12.00" fill="#000000"> &#45;__conv_obliq_evol</text>
</g>
</g>
</svg>
        <g id="navigator" transform="translate(0 0)" fill="#404254">
                <rect fill="#f2f5e9" fill-opacity="0.5" stroke="#606060" stroke-width=".5" x="0" y="0" width="60" height="60"/>
                <use id="zoomplus" xlink:href="#zoomPlus" x="17" y="9" onmousedown="handleZoom(evt,'in')"/>
                <use id="zoomminus" xlink:href="#zoomMin" x="42" y="9" onmousedown="handleZoom(evt,'out')"/>
                <use id="reset" xlink:href="#resetDef" x="30" y="36" onmousedown="handleReset()"/>
                <g id="arrowUp" xlink:href="#dirArrow" transform="translate(30 24)" onmousedown="handlePan(0,-1)">
                  <use xlink:href="#rim" fill="#404040">
                        <set attributeName="fill" to="#808080" begin="arrowUp.mouseover" end="arrowUp.mouseout"/>
                  </use>
                  <path fill="none" stroke="white" stroke-width="1.5" d="M0,-3.0v7 M-2.5,-0.5L0,-3.0L2.5,-0.5"/>
                </g>
                <g id="arrowRight" xlink:href="#dirArrow" transform="rotate(90) translate(36 -43)" onmousedown="handlePan(1,0)">
                  <use xlink:href="#rim" fill="#404040">
                        <set attributeName="fill" to="#808080" begin="arrowRight.mouseover" end="arrowRight.mouseout"/>
                  </use>
                  <path fill="none" stroke="white" stroke-width="1.5" d="M0,-3.0v7 M-2.5,-0.5L0,-3.0L2.5,-0.5"/>
                </g>
                <g id="arrowDown" xlink:href="#dirArrow" transform="rotate(180) translate(-30 -48)" onmousedown="handlePan(0,1)">
                  <use xlink:href="#rim" fill="#404040">
                        <set attributeName="fill" to="#808080" begin="arrowDown.mouseover" end="arrowDown.mouseout"/>
                  </use>
                  <path fill="none" stroke="white" stroke-width="1.5" d="M0,-3.0v7 M-2.5,-0.5L0,-3.0L2.5,-0.5"/>
                </g>
                <g id="arrowLeft" xlink:href="#dirArrow" transform="rotate(270) translate(-36 17)" onmousedown="handlePan(-1,0)">
                  <use xlink:href="#rim" fill="#404040">
                        <set attributeName="fill" to="#808080" begin="arrowLeft.mouseover" end="arrowLeft.mouseout"/>
                  </use>
                  <path fill="none" stroke="white" stroke-width="1.5" d="M0,-3.0v7 M-2.5,-0.5L0,-3.0L2.5,-0.5"/>
                </g>
        </g>
        <svg viewBox="0 0 15 15" width="100%" height="30px" preserveAspectRatio="xMaxYMin meet">
         <g id="arrow_out" transform="scale(0.3 0.3)">
          <a xlink:href="classConservedLERadObliquityEvolution__coll__graph_org.svg" target="_base">
           <rect id="button" ry="5" rx="5" y="6" x="6" height="38" width="38"
                fill="#f2f5e9" fill-opacity="0.5" stroke="#606060" stroke-width="1.0"/>
           <path id="arrow"
             d="M 11.500037,31.436501 C 11.940474,20.09759 22.043105,11.32322 32.158766,21.979434 L 37.068811,17.246167 C 37.068811,17.246167 37.088388,32 37.088388,32 L 22.160133,31.978069 C 22.160133,31.978069 26.997745,27.140456 26.997745,27.140456 C 18.528582,18.264221 13.291696,25.230495 11.500037,31.436501 z"
             style="fill:#404040;"/>
          </a>
         </g>
        </svg>
</svg>
