<?xml version="1.0" encoding="UTF-8" standalone="no"?>
<!DOCTYPE svg PUBLIC "-//W3C//DTD SVG 1.1//EN"
 "http://www.w3.org/Graphics/SVG/1.1/DTD/svg11.dtd">
<!-- Generated by graphviz version 2.40.1 (20161225.0304)
 -->
<!-- Title: YRECEvolution Pages: 1 -->
<svg width="127pt" height="341pt"
 viewBox="0.00 0.00 127.00 341.00" xmlns="http://www.w3.org/2000/svg" xmlns:xlink="http://www.w3.org/1999/xlink">
<g id="graph0" class="graph" transform="scale(1 1) rotate(0) translate(4 337)">
<title>YRECEvolution</title>
<polygon fill="#ffffff" stroke="transparent" points="-4,4 -4,-337 123,-337 123,4 -4,4"/>
<!-- Node2 -->
<g id="node1" class="node">
<title>Node2</title>
<polygon fill="#bfbfbf" stroke="#000000" points="0,-.5 0,-232.5 119,-232.5 119,-.5 0,-.5"/>
<text text-anchor="middle" x="59.5" y="-218.9" font-family="Helvetica,sans-Serif" font-size="12.00" fill="#000000">YRECEvolution</text>
<polyline fill="none" stroke="#000000" points="0,-211.5 119,-211.5 "/>
<text text-anchor="start" x="8" y="-197.9" font-family="Helvetica,sans-Serif" font-size="12.00" fill="#000000">&#45; mass_list</text>
<text text-anchor="start" x="8" y="-184.9" font-family="Helvetica,sans-Serif" font-size="12.00" fill="#000000">&#45; ages</text>
<text text-anchor="start" x="8" y="-171.9" font-family="Helvetica,sans-Serif" font-size="12.00" fill="#000000">&#45; radii</text>
<text text-anchor="start" x="8" y="-158.9" font-family="Helvetica,sans-Serif" font-size="12.00" fill="#000000">&#45; luminosities</text>
<text text-anchor="start" x="8" y="-145.9" font-family="Helvetica,sans-Serif" font-size="12.00" fill="#000000">&#45; rad_masses</text>
<text text-anchor="start" x="8" y="-132.9" font-family="Helvetica,sans-Serif" font-size="12.00" fill="#000000">&#45; core_boundaries</text>
<text text-anchor="start" x="8" y="-119.9" font-family="Helvetica,sans-Serif" font-size="12.00" fill="#000000">&#45; conv_inertias</text>
<text text-anchor="start" x="8" y="-106.9" font-family="Helvetica,sans-Serif" font-size="12.00" fill="#000000">&#45; rad_inertias</text>
<polyline fill="none" stroke="#000000" points="0,-99.5 119,-99.5 "/>
<text text-anchor="start" x="8" y="-85.9" font-family="Helvetica,sans-Serif" font-size="12.00" fill="#000000">+ YRECEvolution()</text>
<text text-anchor="start" x="8" y="-72.9" font-family="Helvetica,sans-Serif" font-size="12.00" fill="#000000">+ YRECEvolution()</text>
<text text-anchor="start" x="8" y="-59.9" font-family="Helvetica,sans-Serif" font-size="12.00" fill="#000000">&#45; read_model_file()</text>
<text text-anchor="start" x="8" y="-46.9" font-family="Helvetica,sans-Serif" font-size="12.00" fill="#000000">&#45; begin()</text>
<text text-anchor="start" x="8" y="-33.9" font-family="Helvetica,sans-Serif" font-size="12.00" fill="#000000">&#45; end()</text>
<text text-anchor="start" x="8" y="-20.9" font-family="Helvetica,sans-Serif" font-size="12.00" fill="#000000">&#45; move()</text>
<text text-anchor="start" x="8" y="-7.9" font-family="Helvetica,sans-Serif" font-size="12.00" fill="#000000">&#45; sort_masses()</text>
</g>
<!-- Node3 -->
<g id="node2" class="node">
<title>Node3</title>
<polygon fill="#ffffff" stroke="#bfbfbf" points="9,-269.5 9,-332.5 110,-332.5 110,-269.5 9,-269.5"/>
<text text-anchor="middle" x="59.5" y="-318.9" font-family="Helvetica,sans-Serif" font-size="12.00" fill="#000000">StellarEvolution</text>
<polyline fill="none" stroke="#bfbfbf" points="9,-311.5 110,-311.5 "/>
<text text-anchor="middle" x="59.5" y="-297.9" font-family="Helvetica,sans-Serif" font-size="12.00" fill="#000000"> </text>
<polyline fill="none" stroke="#bfbfbf" points="9,-290.5 110,-290.5 "/>
<text text-anchor="middle" x="59.5" y="-276.9" font-family="Helvetica,sans-Serif" font-size="12.00" fill="#000000"> </text>
</g>
<!-- Node3&#45;&gt;Node2 -->
<g id="edge1" class="edge">
<title>Node3&#45;&gt;Node2</title>
<path fill="none" stroke="#191970" d="M59.5,-259.2567C59.5,-250.9847 59.5,-241.9295 59.5,-232.5202"/>
<polygon fill="none" stroke="#191970" points="56.0001,-259.2833 59.5,-269.2833 63.0001,-259.2834 56.0001,-259.2833"/>
</g>
</g>
</svg>
