<?xml version="1.0" encoding="UTF-8" standalone="no"?>
<!DOCTYPE svg PUBLIC "-//W3C//DTD SVG 1.1//EN"
 "http://www.w3.org/Graphics/SVG/1.1/DTD/svg11.dtd">
<!-- Generated by graphviz version 2.40.1 (20161225.0304)
 -->
<!-- Title: StellarEvolution::RemoveLogDeriv Pages: 1 -->
<svg width="350pt" height="443pt"
 viewBox="0.00 0.00 349.50 443.00" xmlns="http://www.w3.org/2000/svg" xmlns:xlink="http://www.w3.org/1999/xlink">
<g id="graph0" class="graph" transform="scale(1 1) rotate(0) translate(4 439)">
<title>StellarEvolution::RemoveLogDeriv</title>
<polygon fill="#ffffff" stroke="transparent" points="-4,4 -4,-439 345.5,-439 345.5,4 -4,4"/>
<!-- Node3 -->
<g id="node1" class="node">
<title>Node3</title>
<polygon fill="#bfbfbf" stroke="#000000" points="40.5,-.5 40.5,-102.5 192.5,-102.5 192.5,-.5 40.5,-.5"/>
<text text-anchor="start" x="48.5" y="-88.9" font-family="Helvetica,sans-Serif" font-size="12.00" fill="#000000">StellarEvolution::Remove</text>
<text text-anchor="middle" x="116.5" y="-75.9" font-family="Helvetica,sans-Serif" font-size="12.00" fill="#000000">LogDeriv</text>
<polyline fill="none" stroke="#000000" points="40.5,-68.5 192.5,-68.5 "/>
<text text-anchor="start" x="48.5" y="-54.9" font-family="Helvetica,sans-Serif" font-size="12.00" fill="#000000">&#45; __delete_deriv</text>
<polyline fill="none" stroke="#000000" points="40.5,-47.5 192.5,-47.5 "/>
<text text-anchor="start" x="48.5" y="-33.9" font-family="Helvetica,sans-Serif" font-size="12.00" fill="#000000">+ RemoveLogDeriv()</text>
<text text-anchor="start" x="48.5" y="-20.9" font-family="Helvetica,sans-Serif" font-size="12.00" fill="#000000">+ ~RemoveLogDeriv()</text>
<text text-anchor="start" x="48.5" y="-7.9" font-family="Helvetica,sans-Serif" font-size="12.00" fill="#000000"># calc_deriv()</text>
</g>
<!-- Node4 -->
<g id="node2" class="node">
<title>Node4</title>
<g id="a_node2"><a xlink:href="classStellarEvolution_1_1LogDerivatives.html" target="_top" xlink:title="Calculate dy/dx given dy/dx, dy/dln(x), dln(y)/dx or dln(y)/dln(x). ">
<polygon fill="#ffffff" stroke="#000000" points="153.5,-140.5 153.5,-320.5 341.5,-320.5 341.5,-140.5 153.5,-140.5"/>
<text text-anchor="middle" x="247.5" y="-306.9" font-family="Helvetica,sans-Serif" font-size="12.00" fill="#000000">StellarEvolution::LogDerivatives</text>
<polyline fill="none" stroke="#000000" points="153.5,-299.5 341.5,-299.5 "/>
<text text-anchor="start" x="161.5" y="-285.9" font-family="Helvetica,sans-Serif" font-size="12.00" fill="#000000">&#45; __x</text>
<text text-anchor="start" x="161.5" y="-272.9" font-family="Helvetica,sans-Serif" font-size="12.00" fill="#000000">&#45; __log_x</text>
<text text-anchor="start" x="161.5" y="-259.9" font-family="Helvetica,sans-Serif" font-size="12.00" fill="#000000">&#45; __log_y</text>
<text text-anchor="start" x="161.5" y="-246.9" font-family="Helvetica,sans-Serif" font-size="12.00" fill="#000000">&#45; __underlying_deriv</text>
<text text-anchor="start" x="161.5" y="-233.9" font-family="Helvetica,sans-Serif" font-size="12.00" fill="#000000">_values</text>
<text text-anchor="start" x="161.5" y="-220.9" font-family="Helvetica,sans-Serif" font-size="12.00" fill="#000000">&#45; __deriv_values</text>
<polyline fill="none" stroke="#000000" points="153.5,-213.5 341.5,-213.5 "/>
<text text-anchor="start" x="161.5" y="-199.9" font-family="Helvetica,sans-Serif" font-size="12.00" fill="#000000">+ LogDerivatives()</text>
<text text-anchor="start" x="161.5" y="-186.9" font-family="Helvetica,sans-Serif" font-size="12.00" fill="#000000">+ order()</text>
<text text-anchor="start" x="161.5" y="-173.9" font-family="Helvetica,sans-Serif" font-size="12.00" fill="#000000"># calc_deriv()</text>
<text text-anchor="start" x="161.5" y="-160.9" font-family="Helvetica,sans-Serif" font-size="12.00" fill="#000000">&#45; transform_log_x_deriv()</text>
<text text-anchor="start" x="161.5" y="-147.9" font-family="Helvetica,sans-Serif" font-size="12.00" fill="#000000">&#45; transform_log_y_deriv()</text>
</a>
</g>
</g>
<!-- Node4&#45;&gt;Node3 -->
<g id="edge1" class="edge">
<title>Node4&#45;&gt;Node3</title>
<path fill="none" stroke="#191970" d="M175.6578,-132.3339C168.2481,-122.2093 160.9478,-112.234 154.1408,-102.9328"/>
<polygon fill="none" stroke="#191970" points="172.8859,-134.4728 181.6162,-140.4756 178.5348,-130.3387 172.8859,-134.4728"/>
</g>
<!-- Node5 -->
<g id="node3" class="node">
<title>Node5</title>
<g id="a_node3"><a xlink:href="classCore_1_1FunctionDerivatives.html" target="_top" xlink:title="A class representing arbitrary order derivatives of a function. ">
<polygon fill="#ffffff" stroke="#000000" points="0,-358.5 0,-434.5 155,-434.5 155,-358.5 0,-358.5"/>
<text text-anchor="middle" x="77.5" y="-420.9" font-family="Helvetica,sans-Serif" font-size="12.00" fill="#000000">Core::FunctionDerivatives</text>
<polyline fill="none" stroke="#000000" points="0,-413.5 155,-413.5 "/>
<text text-anchor="middle" x="77.5" y="-399.9" font-family="Helvetica,sans-Serif" font-size="12.00" fill="#000000"> </text>
<polyline fill="none" stroke="#000000" points="0,-392.5 155,-392.5 "/>
<text text-anchor="start" x="8" y="-378.9" font-family="Helvetica,sans-Serif" font-size="12.00" fill="#000000">+ order()</text>
<text text-anchor="start" x="8" y="-365.9" font-family="Helvetica,sans-Serif" font-size="12.00" fill="#000000">+ ~FunctionDerivatives()</text>
</a>
</g>
</g>
<!-- Node5&#45;&gt;Node3 -->
<g id="edge3" class="edge">
<title>Node5&#45;&gt;Node3</title>
<path fill="none" stroke="#404040" d="M71.5891,-358.1134C65.0208,-307.4501 57.4232,-215.8129 74.5,-140 76.4749,-131.2325 79.424,-122.3137 82.8611,-113.6795"/>
<polygon fill="none" stroke="#404040" points="82.9092,-113.5666 81.5855,-106.478 87.6197,-102.5297 88.9434,-109.6183 82.9092,-113.5666"/>
<text text-anchor="middle" x="109.5" y="-227.4" font-family="Helvetica,sans-Serif" font-size="12.00" fill="#000000"> &#45;__log_deriv</text>
</g>
<!-- Node5&#45;&gt;Node4 -->
<g id="edge2" class="edge">
<title>Node5&#45;&gt;Node4</title>
<path fill="none" stroke="#191970" d="M123.8029,-351.2865C133.5881,-341.7316 144.2432,-331.3273 155.0601,-320.7648"/>
<polygon fill="none" stroke="#191970" points="121.211,-348.9257 116.5014,-358.4162 126.1015,-353.934 121.211,-348.9257"/>
</g>
</g>
</svg>
