<?xml version="1.0" encoding="UTF-8" standalone="no"?>
<!DOCTYPE svg PUBLIC "-//W3C//DTD SVG 1.1//EN"
 "http://www.w3.org/Graphics/SVG/1.1/DTD/svg11.dtd">
<!-- Generated by graphviz version 2.40.1 (20161225.0304)
 -->
<!-- Title: Core::Error::ALGLIB Pages: 1 -->
<svg width="133pt" height="311pt"
 viewBox="0.00 0.00 132.70 311.00" xmlns="http://www.w3.org/2000/svg" xmlns:xlink="http://www.w3.org/1999/xlink">
<g id="graph0" class="graph" transform="scale(1 1) rotate(0) translate(4 307)">
<title>Core::Error::ALGLIB</title>
<polygon fill="#ffffff" stroke="transparent" points="-4,4 -4,-307 128.7031,-307 128.7031,4 -4,4"/>
<!-- Node3 -->
<g id="node1" class="node">
<title>Node3</title>
<polygon fill="#bfbfbf" stroke="#000000" points=".334,-.5 .334,-72.5 124.3691,-72.5 124.3691,-.5 .334,-.5"/>
<text text-anchor="middle" x="62.3516" y="-58.9" font-family="Helvetica,sans-Serif" font-size="12.00" fill="#000000">Core::Error::ALGLIB</text>
<polyline fill="none" stroke="#000000" points=".334,-52.5 124.3691,-52.5 "/>
<text text-anchor="middle" x="62.3516" y="-38.9" font-family="Helvetica,sans-Serif" font-size="12.00" fill="#000000"> </text>
<polyline fill="none" stroke="#000000" points=".334,-32.5 124.3691,-32.5 "/>
<text text-anchor="start" x="8.334" y="-18.9" font-family="Helvetica,sans-Serif" font-size="12.00" fill="#000000">+ ALGLIB()</text>
<text text-anchor="start" x="8.334" y="-6.9" font-family="Helvetica,sans-Serif" font-size="12.00" fill="#000000">+ what()</text>
</g>
<!-- Node4 -->
<g id="node2" class="node">
<title>Node4</title>
<g id="a_node2"><a xlink:href="classCore_1_1Error_1_1General.html" target="_top" xlink:title="The base class of all exceptions. ">
<polygon fill="#ffffff" stroke="#000000" points="0,-109.5 0,-205.5 124.7031,-205.5 124.7031,-109.5 0,-109.5"/>
<text text-anchor="middle" x="62.3516" y="-191.9" font-family="Helvetica,sans-Serif" font-size="12.00" fill="#000000">Core::Error::General</text>
<polyline fill="none" stroke="#000000" points="0,-185.5 124.7031,-185.5 "/>
<text text-anchor="start" x="8" y="-171.9" font-family="Helvetica,sans-Serif" font-size="12.00" fill="#000000">&#45; message</text>
<polyline fill="none" stroke="#000000" points="0,-165.5 124.7031,-165.5 "/>
<text text-anchor="start" x="8" y="-151.9" font-family="Helvetica,sans-Serif" font-size="12.00" fill="#000000">+ General()</text>
<text text-anchor="start" x="8" y="-139.9" font-family="Helvetica,sans-Serif" font-size="12.00" fill="#000000">+ what()</text>
<text text-anchor="start" x="8" y="-127.9" font-family="Helvetica,sans-Serif" font-size="12.00" fill="#000000">+ get_message()</text>
<text text-anchor="start" x="8" y="-115.9" font-family="Helvetica,sans-Serif" font-size="12.00" fill="#000000">+ ~General()</text>
</a>
</g>
</g>
<!-- Node4&#45;&gt;Node3 -->
<g id="edge1" class="edge">
<title>Node4&#45;&gt;Node3</title>
<path fill="none" stroke="#191970" d="M62.3516,-99.1597C62.3516,-90.0889 62.3516,-80.9532 62.3516,-72.5697"/>
<polygon fill="none" stroke="#191970" points="58.8517,-99.3299 62.3516,-109.3299 65.8517,-99.33 58.8517,-99.3299"/>
</g>
<!-- Node5 -->
<g id="node3" class="node">
<title>Node5</title>
<polygon fill="#ffffff" stroke="#bfbfbf" points="17.3291,-242.5 17.3291,-302.5 107.374,-302.5 107.374,-242.5 17.3291,-242.5"/>
<text text-anchor="middle" x="62.3516" y="-288.9" font-family="Helvetica,sans-Serif" font-size="12.00" fill="#000000">std::exception</text>
<polyline fill="none" stroke="#bfbfbf" points="17.3291,-282.5 107.374,-282.5 "/>
<text text-anchor="middle" x="62.3516" y="-268.9" font-family="Helvetica,sans-Serif" font-size="12.00" fill="#000000"> </text>
<polyline fill="none" stroke="#bfbfbf" points="17.3291,-262.5 107.374,-262.5 "/>
<text text-anchor="middle" x="62.3516" y="-248.9" font-family="Helvetica,sans-Serif" font-size="12.00" fill="#000000"> </text>
</g>
<!-- Node5&#45;&gt;Node4 -->
<g id="edge2" class="edge">
<title>Node5&#45;&gt;Node4</title>
<path fill="none" stroke="#191970" d="M62.3516,-232.1983C62.3516,-223.655 62.3516,-214.5538 62.3516,-205.7497"/>
<polygon fill="none" stroke="#191970" points="58.8517,-232.2851 62.3516,-242.2851 65.8517,-232.2851 58.8517,-232.2851"/>
</g>
</g>
</svg>
