<?xml version="1.0" encoding="UTF-8" standalone="no"?>
<!DOCTYPE svg PUBLIC "-//W3C//DTD SVG 1.1//EN"
 "http://www.w3.org/Graphics/SVG/1.1/DTD/svg11.dtd">
<!-- Generated by graphviz version 2.40.1 (20161225.0304)
 -->
<!-- Title: StellarEvolution::SumDerivatives Pages: 1 -->
<svg width="198pt" height="226pt"
 viewBox="0.00 0.00 198.07 226.00" xmlns="http://www.w3.org/2000/svg" xmlns:xlink="http://www.w3.org/1999/xlink">
<g id="graph0" class="graph" transform="scale(1 1) rotate(0) translate(4 222)">
<title>StellarEvolution::SumDerivatives</title>
<polygon fill="#ffffff" stroke="transparent" points="-4,4 -4,-222 194.0703,-222 194.0703,4 -4,4"/>
<!-- Node0 -->
<g id="node1" class="node">
<title>Node0</title>
<polygon fill="#bfbfbf" stroke="#000000" points="0,-.5 0,-108.5 190.0703,-108.5 190.0703,-.5 0,-.5"/>
<text text-anchor="middle" x="95.0352" y="-94.9" font-family="Helvetica,sans-Serif" font-size="12.00" fill="#000000">StellarEvolution::SumDerivatives</text>
<polyline fill="none" stroke="#000000" points="0,-88.5 190.0703,-88.5 "/>
<text text-anchor="start" x="8" y="-74.9" font-family="Helvetica,sans-Serif" font-size="12.00" fill="#000000">&#45; q1_deriv</text>
<text text-anchor="start" x="8" y="-62.9" font-family="Helvetica,sans-Serif" font-size="12.00" fill="#000000">&#45; q2_deriv</text>
<text text-anchor="start" x="8" y="-50.9" font-family="Helvetica,sans-Serif" font-size="12.00" fill="#000000">&#45; destroy_derivs</text>
<polyline fill="none" stroke="#000000" points="0,-44.5 190.0703,-44.5 "/>
<text text-anchor="start" x="8" y="-30.9" font-family="Helvetica,sans-Serif" font-size="12.00" fill="#000000">+ SumDerivatives()</text>
<text text-anchor="start" x="8" y="-18.9" font-family="Helvetica,sans-Serif" font-size="12.00" fill="#000000">+ order()</text>
<text text-anchor="start" x="8" y="-6.9" font-family="Helvetica,sans-Serif" font-size="12.00" fill="#000000">+ ~SumDerivatives()</text>
</g>
<!-- Node1 -->
<g id="node2" class="node">
<title>Node1</title>
<g id="a_node2"><a xlink:href="classCore_1_1FunctionDerivatives.html" target="_top" xlink:title="A class representing arbitrary order derivatives of a function. ">
<polygon fill="#ffffff" stroke="#000000" points="18.0088,-145.5 18.0088,-217.5 172.0615,-217.5 172.0615,-145.5 18.0088,-145.5"/>
<text text-anchor="middle" x="95.0352" y="-203.9" font-family="Helvetica,sans-Serif" font-size="12.00" fill="#000000">Core::FunctionDerivatives</text>
<polyline fill="none" stroke="#000000" points="18.0088,-197.5 172.0615,-197.5 "/>
<text text-anchor="middle" x="95.0352" y="-183.9" font-family="Helvetica,sans-Serif" font-size="12.00" fill="#000000"> </text>
<polyline fill="none" stroke="#000000" points="18.0088,-177.5 172.0615,-177.5 "/>
<text text-anchor="start" x="26.0088" y="-163.9" font-family="Helvetica,sans-Serif" font-size="12.00" fill="#000000">+ order()</text>
<text text-anchor="start" x="26.0088" y="-151.9" font-family="Helvetica,sans-Serif" font-size="12.00" fill="#000000">+ ~FunctionDerivatives()</text>
</a>
</g>
</g>
<!-- Node1&#45;&gt;Node0 -->
<g id="edge1" class="edge">
<title>Node1&#45;&gt;Node0</title>
<path fill="none" stroke="#191970" d="M95.0352,-135.2044C95.0352,-126.5827 95.0352,-117.5033 95.0352,-108.6702"/>
<polygon fill="none" stroke="#191970" points="91.5353,-135.4466 95.0352,-145.4466 98.5353,-135.4466 91.5353,-135.4466"/>
</g>
</g>
</svg>
