<?xml version="1.0" encoding="UTF-8" standalone="no"?>
<!DOCTYPE svg PUBLIC "-//W3C//DTD SVG 1.1//EN"
 "http://www.w3.org/Graphics/SVG/1.1/DTD/svg11.dtd">
<!-- Generated by graphviz version 2.40.1 (20161225.0304)
 -->
<!-- Title: Core::Error::BadFunctionArguments Pages: 1 -->
<!--zoomable 541 -->
<svg id="main" version="1.1" xmlns="http://www.w3.org/2000/svg" xmlns:xlink="http://www.w3.org/1999/xlink" xml:space="preserve" onload="init(evt)">
<style type="text/css"><![CDATA[
.edge:hover path { stroke: red; }
.edge:hover polygon { stroke: red; fill: red; }
]]></style>
<script type="text/javascript"><![CDATA[
var edges = document.getElementsByTagName('g');
if (edges && edges.length) {
  for (var i=0;i<edges.length;i++) {
    if (edges[i].id.substr(0,4)=='edge') {
      edges[i].setAttribute('class','edge');
    }
  }
}
]]></script>
        <defs>
                <circle id="rim" cx="0" cy="0" r="7"/>
                <circle id="rim2" cx="0" cy="0" r="3.5"/>
                <g id="zoomPlus">
                        <use xlink:href="#rim" fill="#404040">
                                <set attributeName="fill" to="#808080" begin="zoomplus.mouseover" end="zoomplus.mouseout"/>
                        </use>
                        <path d="M-4,0h8M0,-4v8" fill="none" stroke="white" stroke-width="1.5" pointer-events="none"/>
                </g>
                <g id="zoomMin">
                        <use xlink:href="#rim" fill="#404040">
                                <set attributeName="fill" to="#808080" begin="zoomminus.mouseover" end="zoomminus.mouseout"/>
                        </use>
                        <path d="M-4,0h8" fill="none" stroke="white" stroke-width="1.5" pointer-events="none"/>
                </g>
                <g id="dirArrow">
                        <path fill="none" stroke="white" stroke-width="1.5" d="M0,-3.0v7 M-2.5,-0.5L0,-3.0L2.5,-0.5"/>
                </g>
               <g id="resetDef">
                       <use xlink:href="#rim2" fill="#404040">
                               <set attributeName="fill" to="#808080" begin="reset.mouseover" end="reset.mouseout"/>
                       </use>
               </g>
        </defs>

<script type="text/javascript">
var viewWidth = 173;
var viewHeight = 541;
var sectionId = 'dynsection-0';
</script>
<script xlink:href="svgpan.js"/>
<svg id="graph" class="graph">
<g id="viewport">
<title>Core::Error::BadFunctionArguments</title>
<polygon fill="#ffffff" stroke="transparent" points="-4,4 -4,-537 168.7285,-537 168.7285,4 -4,4"/>
<!-- Node0 -->
<g id="node1" class="node">
<title>Node0</title>
<polygon fill="#bfbfbf" stroke="#000000" points="2.4961,-109.5 2.4961,-193.5 162.2324,-193.5 162.2324,-109.5 2.4961,-109.5"/>
<text text-anchor="start" x="10.4961" y="-179.9" font-family="Helvetica,sans-Serif" font-size="12.00" fill="#000000">Core::Error::BadFunction</text>
<text text-anchor="middle" x="82.3643" y="-167.9" font-family="Helvetica,sans-Serif" font-size="12.00" fill="#000000">Arguments</text>
<polyline fill="none" stroke="#000000" points="2.4961,-161.5 162.2324,-161.5 "/>
<text text-anchor="middle" x="82.3643" y="-147.9" font-family="Helvetica,sans-Serif" font-size="12.00" fill="#000000"> </text>
<polyline fill="none" stroke="#000000" points="2.4961,-141.5 162.2324,-141.5 "/>
<text text-anchor="start" x="10.4961" y="-127.9" font-family="Helvetica,sans-Serif" font-size="12.00" fill="#000000">+ BadFunctionArguments()</text>
<text text-anchor="start" x="10.4961" y="-115.9" font-family="Helvetica,sans-Serif" font-size="12.00" fill="#000000">+ what()</text>
</g>
<!-- Node4 -->
<g id="node5" class="node">
<title>Node4</title>
<g id="a_node5"><a xlink:href="classCore_1_1Error_1_1BadStellarZone.html" target="_top" xlink:title="Exception indicating unrecognized or unsuitable stellar zone. ">
<polygon fill="#ffffff" stroke="#000000" points="0,-.5 0,-72.5 164.7285,-72.5 164.7285,-.5 0,-.5"/>
<text text-anchor="middle" x="82.3643" y="-58.9" font-family="Helvetica,sans-Serif" font-size="12.00" fill="#000000">Core::Error::BadStellarZone</text>
<polyline fill="none" stroke="#000000" points="0,-52.5 164.7285,-52.5 "/>
<text text-anchor="middle" x="82.3643" y="-38.9" font-family="Helvetica,sans-Serif" font-size="12.00" fill="#000000"> </text>
<polyline fill="none" stroke="#000000" points="0,-32.5 164.7285,-32.5 "/>
<text text-anchor="start" x="8" y="-18.9" font-family="Helvetica,sans-Serif" font-size="12.00" fill="#000000">+ BadStellarZone()</text>
<text text-anchor="start" x="8" y="-6.9" font-family="Helvetica,sans-Serif" font-size="12.00" fill="#000000">+ what()</text>
</a>
</g>
</g>
<!-- Node0&#45;&gt;Node4 -->
<g id="edge4" class="edge">
<title>Node0&#45;&gt;Node4</title>
<path fill="none" stroke="#191970" d="M82.3643,-99.2757C82.3643,-90.2613 82.3643,-81.0726 82.3643,-72.6057"/>
<polygon fill="none" stroke="#191970" points="78.8644,-99.3312 82.3643,-109.3312 85.8644,-99.3313 78.8644,-99.3312"/>
</g>
<!-- Node1 -->
<g id="node2" class="node">
<title>Node1</title>
<g id="a_node2"><a xlink:href="classCore_1_1Error_1_1Runtime.html" target="_top" xlink:title="Any runtime error. ">
<polygon fill="#ffffff" stroke="#000000" points="19.0166,-230.5 19.0166,-302.5 145.7119,-302.5 145.7119,-230.5 19.0166,-230.5"/>
<text text-anchor="middle" x="82.3643" y="-288.9" font-family="Helvetica,sans-Serif" font-size="12.00" fill="#000000">Core::Error::Runtime</text>
<polyline fill="none" stroke="#000000" points="19.0166,-282.5 145.7119,-282.5 "/>
<text text-anchor="middle" x="82.3643" y="-268.9" font-family="Helvetica,sans-Serif" font-size="12.00" fill="#000000"> </text>
<polyline fill="none" stroke="#000000" points="19.0166,-262.5 145.7119,-262.5 "/>
<text text-anchor="start" x="27.0166" y="-248.9" font-family="Helvetica,sans-Serif" font-size="12.00" fill="#000000">+ Runtime()</text>
<text text-anchor="start" x="27.0166" y="-236.9" font-family="Helvetica,sans-Serif" font-size="12.00" fill="#000000">+ what()</text>
</a>
</g>
</g>
<!-- Node1&#45;&gt;Node0 -->
<g id="edge1" class="edge">
<title>Node1&#45;&gt;Node0</title>
<path fill="none" stroke="#191970" d="M82.3643,-220.3764C82.3643,-211.6264 82.3643,-202.5102 82.3643,-193.8828"/>
<polygon fill="none" stroke="#191970" points="78.8644,-220.4288 82.3643,-230.4288 85.8644,-220.4288 78.8644,-220.4288"/>
</g>
<!-- Node2 -->
<g id="node3" class="node">
<title>Node2</title>
<g id="a_node3"><a xlink:href="classCore_1_1Error_1_1General.html" target="_top" xlink:title="The base class of all exceptions. ">
<polygon fill="#ffffff" stroke="#000000" points="20.0127,-339.5 20.0127,-435.5 144.7158,-435.5 144.7158,-339.5 20.0127,-339.5"/>
<text text-anchor="middle" x="82.3643" y="-421.9" font-family="Helvetica,sans-Serif" font-size="12.00" fill="#000000">Core::Error::General</text>
<polyline fill="none" stroke="#000000" points="20.0127,-415.5 144.7158,-415.5 "/>
<text text-anchor="start" x="28.0127" y="-401.9" font-family="Helvetica,sans-Serif" font-size="12.00" fill="#000000">&#45; message</text>
<polyline fill="none" stroke="#000000" points="20.0127,-395.5 144.7158,-395.5 "/>
<text text-anchor="start" x="28.0127" y="-381.9" font-family="Helvetica,sans-Serif" font-size="12.00" fill="#000000">+ General()</text>
<text text-anchor="start" x="28.0127" y="-369.9" font-family="Helvetica,sans-Serif" font-size="12.00" fill="#000000">+ what()</text>
<text text-anchor="start" x="28.0127" y="-357.9" font-family="Helvetica,sans-Serif" font-size="12.00" fill="#000000">+ get_message()</text>
<text text-anchor="start" x="28.0127" y="-345.9" font-family="Helvetica,sans-Serif" font-size="12.00" fill="#000000">+ ~General()</text>
</a>
</g>
</g>
<!-- Node2&#45;&gt;Node1 -->
<g id="edge2" class="edge">
<title>Node2&#45;&gt;Node1</title>
<path fill="none" stroke="#191970" d="M82.3643,-329.1597C82.3643,-320.0889 82.3643,-310.9532 82.3643,-302.5697"/>
<polygon fill="none" stroke="#191970" points="78.8644,-329.3299 82.3643,-339.3299 85.8644,-329.33 78.8644,-329.3299"/>
</g>
<!-- Node3 -->
<g id="node4" class="node">
<title>Node3</title>
<polygon fill="#ffffff" stroke="#bfbfbf" points="37.3418,-472.5 37.3418,-532.5 127.3867,-532.5 127.3867,-472.5 37.3418,-472.5"/>
<text text-anchor="middle" x="82.3643" y="-518.9" font-family="Helvetica,sans-Serif" font-size="12.00" fill="#000000">std::exception</text>
<polyline fill="none" stroke="#bfbfbf" points="37.3418,-512.5 127.3867,-512.5 "/>
<text text-anchor="middle" x="82.3643" y="-498.9" font-family="Helvetica,sans-Serif" font-size="12.00" fill="#000000"> </text>
<polyline fill="none" stroke="#bfbfbf" points="37.3418,-492.5 127.3867,-492.5 "/>
<text text-anchor="middle" x="82.3643" y="-478.9" font-family="Helvetica,sans-Serif" font-size="12.00" fill="#000000"> </text>
</g>
<!-- Node3&#45;&gt;Node2 -->
<g id="edge3" class="edge">
<title>Node3&#45;&gt;Node2</title>
<path fill="none" stroke="#191970" d="M82.3643,-462.1983C82.3643,-453.655 82.3643,-444.5538 82.3643,-435.7497"/>
<polygon fill="none" stroke="#191970" points="78.8644,-462.2851 82.3643,-472.2851 85.8644,-462.2851 78.8644,-462.2851"/>
</g>
</g>
</svg>
        <g id="navigator" transform="translate(0 0)" fill="#404254">
                <rect fill="#f2f5e9" fill-opacity="0.5" stroke="#606060" stroke-width=".5" x="0" y="0" width="60" height="60"/>
                <use id="zoomplus" xlink:href="#zoomPlus" x="17" y="9" onmousedown="handleZoom(evt,'in')"/>
                <use id="zoomminus" xlink:href="#zoomMin" x="42" y="9" onmousedown="handleZoom(evt,'out')"/>
                <use id="reset" xlink:href="#resetDef" x="30" y="36" onmousedown="handleReset()"/>
                <g id="arrowUp" xlink:href="#dirArrow" transform="translate(30 24)" onmousedown="handlePan(0,-1)">
                  <use xlink:href="#rim" fill="#404040">
                        <set attributeName="fill" to="#808080" begin="arrowUp.mouseover" end="arrowUp.mouseout"/>
                  </use>
                  <path fill="none" stroke="white" stroke-width="1.5" d="M0,-3.0v7 M-2.5,-0.5L0,-3.0L2.5,-0.5"/>
                </g>
                <g id="arrowRight" xlink:href="#dirArrow" transform="rotate(90) translate(36 -43)" onmousedown="handlePan(1,0)">
                  <use xlink:href="#rim" fill="#404040">
                        <set attributeName="fill" to="#808080" begin="arrowRight.mouseover" end="arrowRight.mouseout"/>
                  </use>
                  <path fill="none" stroke="white" stroke-width="1.5" d="M0,-3.0v7 M-2.5,-0.5L0,-3.0L2.5,-0.5"/>
                </g>
                <g id="arrowDown" xlink:href="#dirArrow" transform="rotate(180) translate(-30 -48)" onmousedown="handlePan(0,1)">
                  <use xlink:href="#rim" fill="#404040">
                        <set attributeName="fill" to="#808080" begin="arrowDown.mouseover" end="arrowDown.mouseout"/>
                  </use>
                  <path fill="none" stroke="white" stroke-width="1.5" d="M0,-3.0v7 M-2.5,-0.5L0,-3.0L2.5,-0.5"/>
                </g>
                <g id="arrowLeft" xlink:href="#dirArrow" transform="rotate(270) translate(-36 17)" onmousedown="handlePan(-1,0)">
                  <use xlink:href="#rim" fill="#404040">
                        <set attributeName="fill" to="#808080" begin="arrowLeft.mouseover" end="arrowLeft.mouseout"/>
                  </use>
                  <path fill="none" stroke="white" stroke-width="1.5" d="M0,-3.0v7 M-2.5,-0.5L0,-3.0L2.5,-0.5"/>
                </g>
        </g>
        <svg viewBox="0 0 15 15" width="100%" height="30px" preserveAspectRatio="xMaxYMin meet">
         <g id="arrow_out" transform="scale(0.3 0.3)">
          <a xlink:href="classCore_1_1Error_1_1BadFunctionArguments__inherit__graph_org.svg" target="_base">
           <rect id="button" ry="5" rx="5" y="6" x="6" height="38" width="38"
                fill="#f2f5e9" fill-opacity="0.5" stroke="#606060" stroke-width="1.0"/>
           <path id="arrow"
             d="M 11.500037,31.436501 C 11.940474,20.09759 22.043105,11.32322 32.158766,21.979434 L 37.068811,17.246167 C 37.068811,17.246167 37.088388,32 37.088388,32 L 22.160133,31.978069 C 22.160133,31.978069 26.997745,27.140456 26.997745,27.140456 C 18.528582,18.264221 13.291696,25.230495 11.500037,31.436501 z"
             style="fill:#404040;"/>
          </a>
         </g>
        </svg>
</svg>
