<?xml version="1.0" encoding="UTF-8" standalone="no"?>
<!DOCTYPE svg PUBLIC "-//W3C//DTD SVG 1.1//EN"
 "http://www.w3.org/Graphics/SVG/1.1/DTD/svg11.dtd">
<!-- Generated by graphviz version 2.40.1 (20161225.0304)
 -->
<!-- Title: Core::Error::General Pages: 1 -->
<svg width="1192pt" height="563pt"
 viewBox="0.00 0.00 1192.00 563.00" xmlns="http://www.w3.org/2000/svg" xmlns:xlink="http://www.w3.org/1999/xlink">
<g id="graph0" class="graph" transform="scale(1 1) rotate(0) translate(4 559)">
<title>Core::Error::General</title>
<polygon fill="#ffffff" stroke="transparent" points="-4,4 -4,-559 1188,-559 1188,4 -4,4"/>
<!-- Node0 -->
<g id="node1" class="node">
<title>Node0</title>
<polygon fill="#bfbfbf" stroke="#000000" points="444.5,-352.5 444.5,-454.5 568.5,-454.5 568.5,-352.5 444.5,-352.5"/>
<text text-anchor="middle" x="506.5" y="-440.9" font-family="Helvetica,sans-Serif" font-size="12.00" fill="#000000">Core::Error::General</text>
<polyline fill="none" stroke="#000000" points="444.5,-433.5 568.5,-433.5 "/>
<text text-anchor="start" x="452.5" y="-419.9" font-family="Helvetica,sans-Serif" font-size="12.00" fill="#000000">&#45; message</text>
<polyline fill="none" stroke="#000000" points="444.5,-412.5 568.5,-412.5 "/>
<text text-anchor="start" x="452.5" y="-398.9" font-family="Helvetica,sans-Serif" font-size="12.00" fill="#000000">+ General()</text>
<text text-anchor="start" x="452.5" y="-385.9" font-family="Helvetica,sans-Serif" font-size="12.00" fill="#000000">+ what()</text>
<text text-anchor="start" x="452.5" y="-372.9" font-family="Helvetica,sans-Serif" font-size="12.00" fill="#000000">+ get_message()</text>
<text text-anchor="start" x="452.5" y="-359.9" font-family="Helvetica,sans-Serif" font-size="12.00" fill="#000000">+ ~General()</text>
</g>
<!-- Node2 -->
<g id="node3" class="node">
<title>Node2</title>
<g id="a_node3"><a xlink:href="classCore_1_1Error_1_1ALGLIB.html" target="_top" xlink:title="Error detected by the ALGLIB library. ">
<polygon fill="#ffffff" stroke="#000000" points="374,-239.5 374,-315.5 497,-315.5 497,-239.5 374,-239.5"/>
<text text-anchor="middle" x="435.5" y="-301.9" font-family="Helvetica,sans-Serif" font-size="12.00" fill="#000000">Core::Error::ALGLIB</text>
<polyline fill="none" stroke="#000000" points="374,-294.5 497,-294.5 "/>
<text text-anchor="middle" x="435.5" y="-280.9" font-family="Helvetica,sans-Serif" font-size="12.00" fill="#000000"> </text>
<polyline fill="none" stroke="#000000" points="374,-273.5 497,-273.5 "/>
<text text-anchor="start" x="382" y="-259.9" font-family="Helvetica,sans-Serif" font-size="12.00" fill="#000000">+ ALGLIB()</text>
<text text-anchor="start" x="382" y="-246.9" font-family="Helvetica,sans-Serif" font-size="12.00" fill="#000000">+ what()</text>
</a>
</g>
</g>
<!-- Node0&#45;&gt;Node2 -->
<g id="edge2" class="edge">
<title>Node0&#45;&gt;Node2</title>
<path fill="none" stroke="#191970" d="M472.5551,-343.2598C467.2396,-333.8267 461.8776,-324.3109 456.9468,-315.5605"/>
<polygon fill="none" stroke="#191970" points="469.6631,-345.2571 477.6216,-352.251 475.7616,-341.8207 469.6631,-345.2571"/>
</g>
<!-- Node3 -->
<g id="node4" class="node">
<title>Node3</title>
<g id="a_node4"><a xlink:href="classCore_1_1Error_1_1Runtime.html" target="_top" xlink:title="Any runtime error. ">
<polygon fill="#ffffff" stroke="#000000" points="515.5,-239.5 515.5,-315.5 641.5,-315.5 641.5,-239.5 515.5,-239.5"/>
<text text-anchor="middle" x="578.5" y="-301.9" font-family="Helvetica,sans-Serif" font-size="12.00" fill="#000000">Core::Error::Runtime</text>
<polyline fill="none" stroke="#000000" points="515.5,-294.5 641.5,-294.5 "/>
<text text-anchor="middle" x="578.5" y="-280.9" font-family="Helvetica,sans-Serif" font-size="12.00" fill="#000000"> </text>
<polyline fill="none" stroke="#000000" points="515.5,-273.5 641.5,-273.5 "/>
<text text-anchor="start" x="523.5" y="-259.9" font-family="Helvetica,sans-Serif" font-size="12.00" fill="#000000">+ Runtime()</text>
<text text-anchor="start" x="523.5" y="-246.9" font-family="Helvetica,sans-Serif" font-size="12.00" fill="#000000">+ what()</text>
</a>
</g>
</g>
<!-- Node0&#45;&gt;Node3 -->
<g id="edge3" class="edge">
<title>Node0&#45;&gt;Node3</title>
<path fill="none" stroke="#191970" d="M540.7563,-343.5516C546.2012,-334.023 551.6994,-324.4011 556.7511,-315.5605"/>
<polygon fill="none" stroke="#191970" points="537.7077,-341.832 535.7852,-352.251 543.7855,-345.305 537.7077,-341.832"/>
</g>
<!-- Node1 -->
<g id="node2" class="node">
<title>Node1</title>
<polygon fill="#ffffff" stroke="#bfbfbf" points="461.5,-491.5 461.5,-554.5 551.5,-554.5 551.5,-491.5 461.5,-491.5"/>
<text text-anchor="middle" x="506.5" y="-540.9" font-family="Helvetica,sans-Serif" font-size="12.00" fill="#000000">std::exception</text>
<polyline fill="none" stroke="#bfbfbf" points="461.5,-533.5 551.5,-533.5 "/>
<text text-anchor="middle" x="506.5" y="-519.9" font-family="Helvetica,sans-Serif" font-size="12.00" fill="#000000"> </text>
<polyline fill="none" stroke="#bfbfbf" points="461.5,-512.5 551.5,-512.5 "/>
<text text-anchor="middle" x="506.5" y="-498.9" font-family="Helvetica,sans-Serif" font-size="12.00" fill="#000000"> </text>
</g>
<!-- Node1&#45;&gt;Node0 -->
<g id="edge1" class="edge">
<title>Node1&#45;&gt;Node0</title>
<path fill="none" stroke="#191970" d="M506.5,-481.2029C506.5,-472.6709 506.5,-463.6006 506.5,-454.7815"/>
<polygon fill="none" stroke="#191970" points="503.0001,-481.2899 506.5,-491.2899 510.0001,-481.29 503.0001,-481.2899"/>
</g>
<!-- Node4 -->
<g id="node5" class="node">
<title>Node4</title>
<g id="a_node5"><a xlink:href="classCore_1_1Error_1_1BadFunctionArguments.html" target="_top" xlink:title="Function arguments do not satisfy some requirement. ">
<polygon fill="#ffffff" stroke="#000000" points="2.5,-113.5 2.5,-202.5 162.5,-202.5 162.5,-113.5 2.5,-113.5"/>
<text text-anchor="start" x="10.5" y="-188.9" font-family="Helvetica,sans-Serif" font-size="12.00" fill="#000000">Core::Error::BadFunction</text>
<text text-anchor="middle" x="82.5" y="-175.9" font-family="Helvetica,sans-Serif" font-size="12.00" fill="#000000">Arguments</text>
<polyline fill="none" stroke="#000000" points="2.5,-168.5 162.5,-168.5 "/>
<text text-anchor="middle" x="82.5" y="-154.9" font-family="Helvetica,sans-Serif" font-size="12.00" fill="#000000"> </text>
<polyline fill="none" stroke="#000000" points="2.5,-147.5 162.5,-147.5 "/>
<text text-anchor="start" x="10.5" y="-133.9" font-family="Helvetica,sans-Serif" font-size="12.00" fill="#000000">+ BadFunctionArguments()</text>
<text text-anchor="start" x="10.5" y="-120.9" font-family="Helvetica,sans-Serif" font-size="12.00" fill="#000000">+ what()</text>
</a>
</g>
</g>
<!-- Node3&#45;&gt;Node4 -->
<g id="edge4" class="edge">
<title>Node3&#45;&gt;Node4</title>
<path fill="none" stroke="#191970" d="M505.8135,-239.1968C361.2803,-197.0145 312.0109,-244.562 171.5,-203 168.5945,-202.1406 165.6703,-201.1883 162.7435,-200.16"/>
<polygon fill="none" stroke="#191970" points="504.8889,-242.5736 515.4734,-242.1069 506.9081,-235.8711 504.8889,-242.5736"/>
</g>
<!-- Node6 -->
<g id="node7" class="node">
<title>Node6</title>
<g id="a_node7"><a xlink:href="classCore_1_1Error_1_1CommandLine.html" target="_top" xlink:title="Error related to parsing the command line. ">
<polygon fill="#ffffff" stroke="#000000" points="180.5,-120 180.5,-196 340.5,-196 340.5,-120 180.5,-120"/>
<text text-anchor="middle" x="260.5" y="-182.4" font-family="Helvetica,sans-Serif" font-size="12.00" fill="#000000">Core::Error::CommandLine</text>
<polyline fill="none" stroke="#000000" points="180.5,-175 340.5,-175 "/>
<text text-anchor="middle" x="260.5" y="-161.4" font-family="Helvetica,sans-Serif" font-size="12.00" fill="#000000"> </text>
<polyline fill="none" stroke="#000000" points="180.5,-154 340.5,-154 "/>
<text text-anchor="start" x="188.5" y="-140.4" font-family="Helvetica,sans-Serif" font-size="12.00" fill="#000000">+ CommandLine()</text>
<text text-anchor="start" x="188.5" y="-127.4" font-family="Helvetica,sans-Serif" font-size="12.00" fill="#000000">+ what()</text>
</a>
</g>
</g>
<!-- Node3&#45;&gt;Node6 -->
<g id="edge6" class="edge">
<title>Node3&#45;&gt;Node6</title>
<path fill="none" stroke="#191970" d="M505.8314,-239.079C437.4285,-214.9848 413.9345,-226.2846 349.5,-203 343.8008,-200.9405 337.9963,-198.6029 332.2219,-196.1019"/>
<polygon fill="none" stroke="#191970" points="504.7303,-242.4029 515.3242,-242.5447 507.131,-235.8274 504.7303,-242.4029"/>
</g>
<!-- Node7 -->
<g id="node8" class="node">
<title>Node7</title>
<g id="a_node8"><a xlink:href="classCore_1_1Error_1_1GSLZeroStep.html" target="_top" xlink:title="GSL step size decreased below machine precision. ">
<polygon fill="#ffffff" stroke="#000000" points="359,-120 359,-196 514,-196 514,-120 359,-120"/>
<text text-anchor="middle" x="436.5" y="-182.4" font-family="Helvetica,sans-Serif" font-size="12.00" fill="#000000">Core::Error::GSLZeroStep</text>
<polyline fill="none" stroke="#000000" points="359,-175 514,-175 "/>
<text text-anchor="middle" x="436.5" y="-161.4" font-family="Helvetica,sans-Serif" font-size="12.00" fill="#000000"> </text>
<polyline fill="none" stroke="#000000" points="359,-154 514,-154 "/>
<text text-anchor="start" x="367" y="-140.4" font-family="Helvetica,sans-Serif" font-size="12.00" fill="#000000">+ GSLZeroStep()</text>
<text text-anchor="start" x="367" y="-127.4" font-family="Helvetica,sans-Serif" font-size="12.00" fill="#000000">+ what()</text>
</a>
</g>
</g>
<!-- Node3&#45;&gt;Node7 -->
<g id="edge7" class="edge">
<title>Node3&#45;&gt;Node7</title>
<path fill="none" stroke="#191970" d="M525.3559,-232.7766C511.0522,-220.7393 495.7145,-207.8319 481.8766,-196.1866"/>
<polygon fill="none" stroke="#191970" points="523.275,-235.5999 533.1799,-239.3609 527.7823,-230.2441 523.275,-235.5999"/>
</g>
<!-- Node8 -->
<g id="node9" class="node">
<title>Node8</title>
<g id="a_node9"><a xlink:href="classCore_1_1Error_1_1IO.html" target="_top" xlink:title="Input/Output exception. ">
<polygon fill="#ffffff" stroke="#000000" points="532,-120 532,-196 625,-196 625,-120 532,-120"/>
<text text-anchor="middle" x="578.5" y="-182.4" font-family="Helvetica,sans-Serif" font-size="12.00" fill="#000000">Core::Error::IO</text>
<polyline fill="none" stroke="#000000" points="532,-175 625,-175 "/>
<text text-anchor="middle" x="578.5" y="-161.4" font-family="Helvetica,sans-Serif" font-size="12.00" fill="#000000"> </text>
<polyline fill="none" stroke="#000000" points="532,-154 625,-154 "/>
<text text-anchor="start" x="540" y="-140.4" font-family="Helvetica,sans-Serif" font-size="12.00" fill="#000000">+ IO()</text>
<text text-anchor="start" x="540" y="-127.4" font-family="Helvetica,sans-Serif" font-size="12.00" fill="#000000">+ what()</text>
</a>
</g>
</g>
<!-- Node3&#45;&gt;Node8 -->
<g id="edge8" class="edge">
<title>Node3&#45;&gt;Node8</title>
<path fill="none" stroke="#191970" d="M578.5,-229.0737C578.5,-218.1232 578.5,-206.6458 578.5,-196.1866"/>
<polygon fill="none" stroke="#191970" points="575.0001,-229.3609 578.5,-239.3609 582.0001,-229.3609 575.0001,-229.3609"/>
</g>
<!-- Node9 -->
<g id="node10" class="node">
<title>Node9</title>
<g id="a_node10"><a xlink:href="classCore_1_1Error_1_1NonGSLZeroStep.html" target="_top" xlink:title="Maximum allowed step size decreased below machine precision. ">
<polygon fill="#ffffff" stroke="#000000" points="643,-120 643,-196 820,-196 820,-120 643,-120"/>
<text text-anchor="middle" x="731.5" y="-182.4" font-family="Helvetica,sans-Serif" font-size="12.00" fill="#000000">Core::Error::NonGSLZeroStep</text>
<polyline fill="none" stroke="#000000" points="643,-175 820,-175 "/>
<text text-anchor="middle" x="731.5" y="-161.4" font-family="Helvetica,sans-Serif" font-size="12.00" fill="#000000"> </text>
<polyline fill="none" stroke="#000000" points="643,-154 820,-154 "/>
<text text-anchor="start" x="651" y="-140.4" font-family="Helvetica,sans-Serif" font-size="12.00" fill="#000000">+ NonGSLZeroStep()</text>
<text text-anchor="start" x="651" y="-127.4" font-family="Helvetica,sans-Serif" font-size="12.00" fill="#000000">+ what()</text>
</a>
</g>
</g>
<!-- Node3&#45;&gt;Node9 -->
<g id="edge9" class="edge">
<title>Node3&#45;&gt;Node9</title>
<path fill="none" stroke="#191970" d="M635.3331,-233.1107C650.8665,-220.9785 667.5604,-207.9398 682.6083,-196.1866"/>
<polygon fill="none" stroke="#191970" points="633.0574,-230.4471 627.3308,-239.3609 637.3663,-235.9638 633.0574,-230.4471"/>
</g>
<!-- Node10 -->
<g id="node11" class="node">
<title>Node10</title>
<g id="a_node11"><a xlink:href="classCore_1_1Error_1_1NotImplemented.html" target="_top" xlink:title="Encountered an unimplemented feature. ">
<polygon fill="#ffffff" stroke="#000000" points="838,-120 838,-196 1007,-196 1007,-120 838,-120"/>
<text text-anchor="middle" x="922.5" y="-182.4" font-family="Helvetica,sans-Serif" font-size="12.00" fill="#000000">Core::Error::NotImplemented</text>
<polyline fill="none" stroke="#000000" points="838,-175 1007,-175 "/>
<text text-anchor="middle" x="922.5" y="-161.4" font-family="Helvetica,sans-Serif" font-size="12.00" fill="#000000"> </text>
<polyline fill="none" stroke="#000000" points="838,-154 1007,-154 "/>
<text text-anchor="start" x="846" y="-140.4" font-family="Helvetica,sans-Serif" font-size="12.00" fill="#000000">+ NotImplemented()</text>
<text text-anchor="start" x="846" y="-127.4" font-family="Helvetica,sans-Serif" font-size="12.00" fill="#000000">+ what()</text>
</a>
</g>
</g>
<!-- Node3&#45;&gt;Node10 -->
<g id="edge10" class="edge">
<title>Node3&#45;&gt;Node10</title>
<path fill="none" stroke="#191970" d="M651.4739,-259.2007C702.1284,-245.687 770.7889,-225.7446 829.5,-203 835.0194,-200.8618 840.6612,-198.5271 846.3021,-196.0821"/>
<polygon fill="none" stroke="#191970" points="650.3627,-255.8742 641.5913,-261.8167 652.154,-262.6412 650.3627,-255.8742"/>
</g>
<!-- Node11 -->
<g id="node12" class="node">
<title>Node11</title>
<g id="a_node12"><a xlink:href="classCore_1_1Error_1_1PathNotFound.html" target="_top" xlink:title="Exception indicating that a file or a directory was not found. ">
<polygon fill="#ffffff" stroke="#000000" points="1025,-120 1025,-196 1184,-196 1184,-120 1025,-120"/>
<text text-anchor="middle" x="1104.5" y="-182.4" font-family="Helvetica,sans-Serif" font-size="12.00" fill="#000000">Core::Error::PathNotFound</text>
<polyline fill="none" stroke="#000000" points="1025,-175 1184,-175 "/>
<text text-anchor="start" x="1033" y="-161.4" font-family="Helvetica,sans-Serif" font-size="12.00" fill="#000000">&#45; directory</text>
<polyline fill="none" stroke="#000000" points="1025,-154 1184,-154 "/>
<text text-anchor="start" x="1033" y="-140.4" font-family="Helvetica,sans-Serif" font-size="12.00" fill="#000000">+ PathNotFound()</text>
<text text-anchor="start" x="1033" y="-127.4" font-family="Helvetica,sans-Serif" font-size="12.00" fill="#000000">+ what()</text>
</a>
</g>
</g>
<!-- Node3&#45;&gt;Node11 -->
<g id="edge11" class="edge">
<title>Node3&#45;&gt;Node11</title>
<path fill="none" stroke="#191970" d="M651.793,-271.8833C740.1367,-263.5654 892.2161,-244.2675 1016.5,-203 1022.5255,-200.9993 1028.6475,-198.6369 1034.7123,-196.0591"/>
<polygon fill="none" stroke="#191970" points="651.2421,-268.4191 641.6048,-272.8204 651.8833,-275.3897 651.2421,-268.4191"/>
</g>
<!-- Node5 -->
<g id="node6" class="node">
<title>Node5</title>
<g id="a_node6"><a xlink:href="classCore_1_1Error_1_1BadStellarZone.html" target="_top" xlink:title="Exception indicating unrecognized or unsuitable stellar zone. ">
<polygon fill="#ffffff" stroke="#000000" points="0,-.5 0,-76.5 165,-76.5 165,-.5 0,-.5"/>
<text text-anchor="middle" x="82.5" y="-62.9" font-family="Helvetica,sans-Serif" font-size="12.00" fill="#000000">Core::Error::BadStellarZone</text>
<polyline fill="none" stroke="#000000" points="0,-55.5 165,-55.5 "/>
<text text-anchor="middle" x="82.5" y="-41.9" font-family="Helvetica,sans-Serif" font-size="12.00" fill="#000000"> </text>
<polyline fill="none" stroke="#000000" points="0,-34.5 165,-34.5 "/>
<text text-anchor="start" x="8" y="-20.9" font-family="Helvetica,sans-Serif" font-size="12.00" fill="#000000">+ BadStellarZone()</text>
<text text-anchor="start" x="8" y="-7.9" font-family="Helvetica,sans-Serif" font-size="12.00" fill="#000000">+ what()</text>
</a>
</g>
</g>
<!-- Node4&#45;&gt;Node5 -->
<g id="edge5" class="edge">
<title>Node4&#45;&gt;Node5</title>
<path fill="none" stroke="#191970" d="M82.5,-103.1247C82.5,-94.1396 82.5,-85.0065 82.5,-76.5453"/>
<polygon fill="none" stroke="#191970" points="79.0001,-103.1626 82.5,-113.1626 86.0001,-103.1627 79.0001,-103.1626"/>
</g>
</g>
</svg>
