<?xml version="1.0" encoding="UTF-8" standalone="no"?>
<!DOCTYPE svg PUBLIC "-//W3C//DTD SVG 1.1//EN"
 "http://www.w3.org/Graphics/SVG/1.1/DTD/svg11.dtd">
<!-- Generated by graphviz version 2.40.1 (20161225.0304)
 -->
<!-- Title: Core::Error::General Pages: 1 -->
<svg width="133pt" height="202pt"
 viewBox="0.00 0.00 132.70 202.00" xmlns="http://www.w3.org/2000/svg" xmlns:xlink="http://www.w3.org/1999/xlink">
<g id="graph0" class="graph" transform="scale(1 1) rotate(0) translate(4 198)">
<title>Core::Error::General</title>
<polygon fill="#ffffff" stroke="transparent" points="-4,4 -4,-198 128.7031,-198 128.7031,4 -4,4"/>
<!-- Node12 -->
<g id="node1" class="node">
<title>Node12</title>
<polygon fill="#bfbfbf" stroke="#000000" points="0,-.5 0,-96.5 124.7031,-96.5 124.7031,-.5 0,-.5"/>
<text text-anchor="middle" x="62.3516" y="-82.9" font-family="Helvetica,sans-Serif" font-size="12.00" fill="#000000">Core::Error::General</text>
<polyline fill="none" stroke="#000000" points="0,-76.5 124.7031,-76.5 "/>
<text text-anchor="start" x="8" y="-62.9" font-family="Helvetica,sans-Serif" font-size="12.00" fill="#000000">&#45; message</text>
<polyline fill="none" stroke="#000000" points="0,-56.5 124.7031,-56.5 "/>
<text text-anchor="start" x="8" y="-42.9" font-family="Helvetica,sans-Serif" font-size="12.00" fill="#000000">+ General()</text>
<text text-anchor="start" x="8" y="-30.9" font-family="Helvetica,sans-Serif" font-size="12.00" fill="#000000">+ what()</text>
<text text-anchor="start" x="8" y="-18.9" font-family="Helvetica,sans-Serif" font-size="12.00" fill="#000000">+ get_message()</text>
<text text-anchor="start" x="8" y="-6.9" font-family="Helvetica,sans-Serif" font-size="12.00" fill="#000000">+ ~General()</text>
</g>
<!-- Node13 -->
<g id="node2" class="node">
<title>Node13</title>
<polygon fill="#ffffff" stroke="#bfbfbf" points="17.3291,-133.5 17.3291,-193.5 107.374,-193.5 107.374,-133.5 17.3291,-133.5"/>
<text text-anchor="middle" x="62.3516" y="-179.9" font-family="Helvetica,sans-Serif" font-size="12.00" fill="#000000">std::exception</text>
<polyline fill="none" stroke="#bfbfbf" points="17.3291,-173.5 107.374,-173.5 "/>
<text text-anchor="middle" x="62.3516" y="-159.9" font-family="Helvetica,sans-Serif" font-size="12.00" fill="#000000"> </text>
<polyline fill="none" stroke="#bfbfbf" points="17.3291,-153.5 107.374,-153.5 "/>
<text text-anchor="middle" x="62.3516" y="-139.9" font-family="Helvetica,sans-Serif" font-size="12.00" fill="#000000"> </text>
</g>
<!-- Node13&#45;&gt;Node12 -->
<g id="edge1" class="edge">
<title>Node13&#45;&gt;Node12</title>
<path fill="none" stroke="#191970" d="M62.3516,-123.1983C62.3516,-114.655 62.3516,-105.5538 62.3516,-96.7497"/>
<polygon fill="none" stroke="#191970" points="58.8517,-123.2851 62.3516,-133.2851 65.8517,-123.2851 58.8517,-123.2851"/>
</g>
</g>
</svg>
