<?xml version="1.0" encoding="UTF-8" standalone="no"?>
<!DOCTYPE svg PUBLIC "-//W3C//DTD SVG 1.1//EN"
 "http://www.w3.org/Graphics/SVG/1.1/DTD/svg11.dtd">
<!-- Generated by graphviz version 2.40.1 (20161225.0304)
 -->
<!-- Title: Core::Error::CommandLine Pages: 1 -->
<svg width="168pt" height="420pt"
 viewBox="0.00 0.00 168.05 420.00" xmlns="http://www.w3.org/2000/svg" xmlns:xlink="http://www.w3.org/1999/xlink">
<g id="graph0" class="graph" transform="scale(1 1) rotate(0) translate(4 416)">
<title>Core::Error::CommandLine</title>
<polygon fill="#ffffff" stroke="transparent" points="-4,4 -4,-416 164.0527,-416 164.0527,4 -4,4"/>
<!-- Node0 -->
<g id="node1" class="node">
<title>Node0</title>
<polygon fill="#bfbfbf" stroke="#000000" points="0,-.5 0,-72.5 160.0527,-72.5 160.0527,-.5 0,-.5"/>
<text text-anchor="middle" x="80.0264" y="-58.9" font-family="Helvetica,sans-Serif" font-size="12.00" fill="#000000">Core::Error::CommandLine</text>
<polyline fill="none" stroke="#000000" points="0,-52.5 160.0527,-52.5 "/>
<text text-anchor="middle" x="80.0264" y="-38.9" font-family="Helvetica,sans-Serif" font-size="12.00" fill="#000000"> </text>
<polyline fill="none" stroke="#000000" points="0,-32.5 160.0527,-32.5 "/>
<text text-anchor="start" x="8" y="-18.9" font-family="Helvetica,sans-Serif" font-size="12.00" fill="#000000">+ CommandLine()</text>
<text text-anchor="start" x="8" y="-6.9" font-family="Helvetica,sans-Serif" font-size="12.00" fill="#000000">+ what()</text>
</g>
<!-- Node1 -->
<g id="node2" class="node">
<title>Node1</title>
<g id="a_node2"><a xlink:href="classCore_1_1Error_1_1Runtime.html" target="_top" xlink:title="Any runtime error. ">
<polygon fill="#ffffff" stroke="#000000" points="16.6787,-109.5 16.6787,-181.5 143.374,-181.5 143.374,-109.5 16.6787,-109.5"/>
<text text-anchor="middle" x="80.0264" y="-167.9" font-family="Helvetica,sans-Serif" font-size="12.00" fill="#000000">Core::Error::Runtime</text>
<polyline fill="none" stroke="#000000" points="16.6787,-161.5 143.374,-161.5 "/>
<text text-anchor="middle" x="80.0264" y="-147.9" font-family="Helvetica,sans-Serif" font-size="12.00" fill="#000000"> </text>
<polyline fill="none" stroke="#000000" points="16.6787,-141.5 143.374,-141.5 "/>
<text text-anchor="start" x="24.6787" y="-127.9" font-family="Helvetica,sans-Serif" font-size="12.00" fill="#000000">+ Runtime()</text>
<text text-anchor="start" x="24.6787" y="-115.9" font-family="Helvetica,sans-Serif" font-size="12.00" fill="#000000">+ what()</text>
</a>
</g>
</g>
<!-- Node1&#45;&gt;Node0 -->
<g id="edge1" class="edge">
<title>Node1&#45;&gt;Node0</title>
<path fill="none" stroke="#191970" d="M80.0264,-99.0301C80.0264,-90.2017 80.0264,-81.0859 80.0264,-72.6369"/>
<polygon fill="none" stroke="#191970" points="76.5265,-99.2045 80.0264,-109.2046 83.5265,-99.2046 76.5265,-99.2045"/>
</g>
<!-- Node2 -->
<g id="node3" class="node">
<title>Node2</title>
<g id="a_node3"><a xlink:href="classCore_1_1Error_1_1General.html" target="_top" xlink:title="The base class of all exceptions. ">
<polygon fill="#ffffff" stroke="#000000" points="17.6748,-218.5 17.6748,-314.5 142.3779,-314.5 142.3779,-218.5 17.6748,-218.5"/>
<text text-anchor="middle" x="80.0264" y="-300.9" font-family="Helvetica,sans-Serif" font-size="12.00" fill="#000000">Core::Error::General</text>
<polyline fill="none" stroke="#000000" points="17.6748,-294.5 142.3779,-294.5 "/>
<text text-anchor="start" x="25.6748" y="-280.9" font-family="Helvetica,sans-Serif" font-size="12.00" fill="#000000">&#45; message</text>
<polyline fill="none" stroke="#000000" points="17.6748,-274.5 142.3779,-274.5 "/>
<text text-anchor="start" x="25.6748" y="-260.9" font-family="Helvetica,sans-Serif" font-size="12.00" fill="#000000">+ General()</text>
<text text-anchor="start" x="25.6748" y="-248.9" font-family="Helvetica,sans-Serif" font-size="12.00" fill="#000000">+ what()</text>
<text text-anchor="start" x="25.6748" y="-236.9" font-family="Helvetica,sans-Serif" font-size="12.00" fill="#000000">+ get_message()</text>
<text text-anchor="start" x="25.6748" y="-224.9" font-family="Helvetica,sans-Serif" font-size="12.00" fill="#000000">+ ~General()</text>
</a>
</g>
</g>
<!-- Node2&#45;&gt;Node1 -->
<g id="edge2" class="edge">
<title>Node2&#45;&gt;Node1</title>
<path fill="none" stroke="#191970" d="M80.0264,-208.1597C80.0264,-199.0889 80.0264,-189.9532 80.0264,-181.5697"/>
<polygon fill="none" stroke="#191970" points="76.5265,-208.3299 80.0264,-218.3299 83.5265,-208.33 76.5265,-208.3299"/>
</g>
<!-- Node3 -->
<g id="node4" class="node">
<title>Node3</title>
<polygon fill="#ffffff" stroke="#bfbfbf" points="35.0039,-351.5 35.0039,-411.5 125.0488,-411.5 125.0488,-351.5 35.0039,-351.5"/>
<text text-anchor="middle" x="80.0264" y="-397.9" font-family="Helvetica,sans-Serif" font-size="12.00" fill="#000000">std::exception</text>
<polyline fill="none" stroke="#bfbfbf" points="35.0039,-391.5 125.0488,-391.5 "/>
<text text-anchor="middle" x="80.0264" y="-377.9" font-family="Helvetica,sans-Serif" font-size="12.00" fill="#000000"> </text>
<polyline fill="none" stroke="#bfbfbf" points="35.0039,-371.5 125.0488,-371.5 "/>
<text text-anchor="middle" x="80.0264" y="-357.9" font-family="Helvetica,sans-Serif" font-size="12.00" fill="#000000"> </text>
</g>
<!-- Node3&#45;&gt;Node2 -->
<g id="edge3" class="edge">
<title>Node3&#45;&gt;Node2</title>
<path fill="none" stroke="#191970" d="M80.0264,-341.1983C80.0264,-332.655 80.0264,-323.5538 80.0264,-314.7497"/>
<polygon fill="none" stroke="#191970" points="76.5265,-341.2851 80.0264,-351.2851 83.5265,-341.2851 76.5265,-341.2851"/>
</g>
</g>
</svg>
