<?xml version="1.0" encoding="UTF-8" standalone="no"?>
<!DOCTYPE svg PUBLIC "-//W3C//DTD SVG 1.1//EN"
 "http://www.w3.org/Graphics/SVG/1.1/DTD/svg11.dtd">
<!-- Generated by graphviz version 2.40.1 (20161225.0304)
 -->
<!-- Title: Evolve::ExternalStoppingCondition Pages: 1 -->
<svg width="205pt" height="428pt"
 viewBox="0.00 0.00 205.00 428.00" xmlns="http://www.w3.org/2000/svg" xmlns:xlink="http://www.w3.org/1999/xlink">
<g id="graph0" class="graph" transform="scale(1 1) rotate(0) translate(4 424)">
<title>Evolve::ExternalStoppingCondition</title>
<polygon fill="#ffffff" stroke="transparent" points="-4,4 -4,-424 201,-424 201,4 -4,4"/>
<!-- Node0 -->
<g id="node1" class="node">
<title>Node0</title>
<polygon fill="#bfbfbf" stroke="#000000" points="22.5,-139.5 22.5,-215.5 174.5,-215.5 174.5,-139.5 22.5,-139.5"/>
<text text-anchor="start" x="30.5" y="-201.9" font-family="Helvetica,sans-Serif" font-size="12.00" fill="#000000">Evolve::ExternalStopping</text>
<text text-anchor="middle" x="98.5" y="-188.9" font-family="Helvetica,sans-Serif" font-size="12.00" fill="#000000">Condition</text>
<polyline fill="none" stroke="#000000" points="22.5,-181.5 174.5,-181.5 "/>
<text text-anchor="middle" x="98.5" y="-167.9" font-family="Helvetica,sans-Serif" font-size="12.00" fill="#000000"> </text>
<polyline fill="none" stroke="#000000" points="22.5,-160.5 174.5,-160.5 "/>
<text text-anchor="start" x="30.5" y="-146.9" font-family="Helvetica,sans-Serif" font-size="12.00" fill="#000000">+ type()</text>
</g>
<!-- Node2 -->
<g id="node3" class="node">
<title>Node2</title>
<g id="a_node3"><a xlink:href="classEvolve_1_1RotFastCondition.html" target="_top" xlink:title="Satisfied when a zone is rotating faster than a threshold. ">
<polygon fill="#ffffff" stroke="#000000" points="22,-.5 22,-102.5 175,-102.5 175,-.5 22,-.5"/>
<text text-anchor="middle" x="98.5" y="-88.9" font-family="Helvetica,sans-Serif" font-size="12.00" fill="#000000">Evolve::RotFastCondition</text>
<polyline fill="none" stroke="#000000" points="22,-81.5 175,-81.5 "/>
<text text-anchor="start" x="30" y="-67.9" font-family="Helvetica,sans-Serif" font-size="12.00" fill="#000000">&#45; __spin_thres</text>
<text text-anchor="start" x="30" y="-54.9" font-family="Helvetica,sans-Serif" font-size="12.00" fill="#000000">&#45; __zone</text>
<polyline fill="none" stroke="#000000" points="22,-47.5 175,-47.5 "/>
<text text-anchor="start" x="30" y="-33.9" font-family="Helvetica,sans-Serif" font-size="12.00" fill="#000000">+ RotFastCondition()</text>
<text text-anchor="start" x="30" y="-20.9" font-family="Helvetica,sans-Serif" font-size="12.00" fill="#000000">+ operator()()</text>
<text text-anchor="start" x="30" y="-7.9" font-family="Helvetica,sans-Serif" font-size="12.00" fill="#000000">+ describe()</text>
</a>
</g>
</g>
<!-- Node0&#45;&gt;Node2 -->
<g id="edge2" class="edge">
<title>Node0&#45;&gt;Node2</title>
<path fill="none" stroke="#191970" d="M98.5,-129.3023C98.5,-120.5442 98.5,-111.3815 98.5,-102.5447"/>
<polygon fill="none" stroke="#191970" points="95.0001,-129.3539 98.5,-139.3539 102.0001,-129.3539 95.0001,-129.3539"/>
</g>
<!-- Node1 -->
<g id="node2" class="node">
<title>Node1</title>
<g id="a_node2"><a xlink:href="classEvolve_1_1StoppingCondition.html" target="_top" xlink:title="A base class for all stopping conditions. ">
<polygon fill="#ffffff" stroke="#000000" points="0,-252.5 0,-419.5 197,-419.5 197,-252.5 0,-252.5"/>
<text text-anchor="middle" x="98.5" y="-405.9" font-family="Helvetica,sans-Serif" font-size="12.00" fill="#000000">Evolve::StoppingCondition</text>
<polyline fill="none" stroke="#000000" points="0,-398.5 197,-398.5 "/>
<text text-anchor="start" x="8" y="-384.9" font-family="Helvetica,sans-Serif" font-size="12.00" fill="#000000">&#45; __expected_crossing</text>
<text text-anchor="start" x="8" y="-371.9" font-family="Helvetica,sans-Serif" font-size="12.00" fill="#000000">_deriv_sign</text>
<polyline fill="none" stroke="#000000" points="0,-364.5 197,-364.5 "/>
<text text-anchor="start" x="8" y="-350.9" font-family="Helvetica,sans-Serif" font-size="12.00" fill="#000000">+ StoppingCondition()</text>
<text text-anchor="start" x="8" y="-337.9" font-family="Helvetica,sans-Serif" font-size="12.00" fill="#000000">+ operator()()</text>
<text text-anchor="start" x="8" y="-324.9" font-family="Helvetica,sans-Serif" font-size="12.00" fill="#000000">+ num_subconditions()</text>
<text text-anchor="start" x="8" y="-311.9" font-family="Helvetica,sans-Serif" font-size="12.00" fill="#000000">+ type()</text>
<text text-anchor="start" x="8" y="-298.9" font-family="Helvetica,sans-Serif" font-size="12.00" fill="#000000">+ reached()</text>
<text text-anchor="start" x="8" y="-285.9" font-family="Helvetica,sans-Serif" font-size="12.00" fill="#000000">+ expected_crossing_deriv_sign()</text>
<text text-anchor="start" x="8" y="-272.9" font-family="Helvetica,sans-Serif" font-size="12.00" fill="#000000">+ describe()</text>
<text text-anchor="start" x="8" y="-259.9" font-family="Helvetica,sans-Serif" font-size="12.00" fill="#000000">+ ~StoppingCondition()</text>
</a>
</g>
</g>
<!-- Node1&#45;&gt;Node0 -->
<g id="edge1" class="edge">
<title>Node1&#45;&gt;Node0</title>
<path fill="none" stroke="#191970" d="M98.5,-241.9902C98.5,-232.7428 98.5,-223.7733 98.5,-215.6096"/>
<polygon fill="none" stroke="#191970" points="95.0001,-242.1088 98.5,-252.1088 102.0001,-242.1088 95.0001,-242.1088"/>
</g>
</g>
</svg>
