<?xml version="1.0" encoding="UTF-8" standalone="no"?>
<!DOCTYPE svg PUBLIC "-//W3C//DTD SVG 1.1//EN"
 "http://www.w3.org/Graphics/SVG/1.1/DTD/svg11.dtd">
<!-- Generated by graphviz version 2.40.1 (20161225.0304)
 -->
<!-- Title: Core::Error::NotImplemented Pages: 1 -->
<svg width="178pt" height="420pt"
 viewBox="0.00 0.00 178.05 420.00" xmlns="http://www.w3.org/2000/svg" xmlns:xlink="http://www.w3.org/1999/xlink">
<g id="graph0" class="graph" transform="scale(1 1) rotate(0) translate(4 416)">
<title>Core::Error::NotImplemented</title>
<polygon fill="#ffffff" stroke="transparent" points="-4,4 -4,-416 174.0547,-416 174.0547,4 -4,4"/>
<!-- Node4 -->
<g id="node1" class="node">
<title>Node4</title>
<polygon fill="#bfbfbf" stroke="#000000" points="0,-.5 0,-72.5 170.0547,-72.5 170.0547,-.5 0,-.5"/>
<text text-anchor="middle" x="85.0273" y="-58.9" font-family="Helvetica,sans-Serif" font-size="12.00" fill="#000000">Core::Error::NotImplemented</text>
<polyline fill="none" stroke="#000000" points="0,-52.5 170.0547,-52.5 "/>
<text text-anchor="middle" x="85.0273" y="-38.9" font-family="Helvetica,sans-Serif" font-size="12.00" fill="#000000"> </text>
<polyline fill="none" stroke="#000000" points="0,-32.5 170.0547,-32.5 "/>
<text text-anchor="start" x="8" y="-18.9" font-family="Helvetica,sans-Serif" font-size="12.00" fill="#000000">+ NotImplemented()</text>
<text text-anchor="start" x="8" y="-6.9" font-family="Helvetica,sans-Serif" font-size="12.00" fill="#000000">+ what()</text>
</g>
<!-- Node5 -->
<g id="node2" class="node">
<title>Node5</title>
<g id="a_node2"><a xlink:href="classCore_1_1Error_1_1Runtime.html" target="_top" xlink:title="Any runtime error. ">
<polygon fill="#ffffff" stroke="#000000" points="21.6797,-109.5 21.6797,-181.5 148.375,-181.5 148.375,-109.5 21.6797,-109.5"/>
<text text-anchor="middle" x="85.0273" y="-167.9" font-family="Helvetica,sans-Serif" font-size="12.00" fill="#000000">Core::Error::Runtime</text>
<polyline fill="none" stroke="#000000" points="21.6797,-161.5 148.375,-161.5 "/>
<text text-anchor="middle" x="85.0273" y="-147.9" font-family="Helvetica,sans-Serif" font-size="12.00" fill="#000000"> </text>
<polyline fill="none" stroke="#000000" points="21.6797,-141.5 148.375,-141.5 "/>
<text text-anchor="start" x="29.6797" y="-127.9" font-family="Helvetica,sans-Serif" font-size="12.00" fill="#000000">+ Runtime()</text>
<text text-anchor="start" x="29.6797" y="-115.9" font-family="Helvetica,sans-Serif" font-size="12.00" fill="#000000">+ what()</text>
</a>
</g>
</g>
<!-- Node5&#45;&gt;Node4 -->
<g id="edge1" class="edge">
<title>Node5&#45;&gt;Node4</title>
<path fill="none" stroke="#191970" d="M85.0273,-99.0301C85.0273,-90.2017 85.0273,-81.0859 85.0273,-72.6369"/>
<polygon fill="none" stroke="#191970" points="81.5274,-99.2045 85.0273,-109.2046 88.5274,-99.2046 81.5274,-99.2045"/>
</g>
<!-- Node6 -->
<g id="node3" class="node">
<title>Node6</title>
<g id="a_node3"><a xlink:href="classCore_1_1Error_1_1General.html" target="_top" xlink:title="The base class of all exceptions. ">
<polygon fill="#ffffff" stroke="#000000" points="22.6758,-218.5 22.6758,-314.5 147.3789,-314.5 147.3789,-218.5 22.6758,-218.5"/>
<text text-anchor="middle" x="85.0273" y="-300.9" font-family="Helvetica,sans-Serif" font-size="12.00" fill="#000000">Core::Error::General</text>
<polyline fill="none" stroke="#000000" points="22.6758,-294.5 147.3789,-294.5 "/>
<text text-anchor="start" x="30.6758" y="-280.9" font-family="Helvetica,sans-Serif" font-size="12.00" fill="#000000">&#45; message</text>
<polyline fill="none" stroke="#000000" points="22.6758,-274.5 147.3789,-274.5 "/>
<text text-anchor="start" x="30.6758" y="-260.9" font-family="Helvetica,sans-Serif" font-size="12.00" fill="#000000">+ General()</text>
<text text-anchor="start" x="30.6758" y="-248.9" font-family="Helvetica,sans-Serif" font-size="12.00" fill="#000000">+ what()</text>
<text text-anchor="start" x="30.6758" y="-236.9" font-family="Helvetica,sans-Serif" font-size="12.00" fill="#000000">+ get_message()</text>
<text text-anchor="start" x="30.6758" y="-224.9" font-family="Helvetica,sans-Serif" font-size="12.00" fill="#000000">+ ~General()</text>
</a>
</g>
</g>
<!-- Node6&#45;&gt;Node5 -->
<g id="edge2" class="edge">
<title>Node6&#45;&gt;Node5</title>
<path fill="none" stroke="#191970" d="M85.0273,-208.1597C85.0273,-199.0889 85.0273,-189.9532 85.0273,-181.5697"/>
<polygon fill="none" stroke="#191970" points="81.5274,-208.3299 85.0273,-218.3299 88.5274,-208.33 81.5274,-208.3299"/>
</g>
<!-- Node7 -->
<g id="node4" class="node">
<title>Node7</title>
<polygon fill="#ffffff" stroke="#bfbfbf" points="40.0049,-351.5 40.0049,-411.5 130.0498,-411.5 130.0498,-351.5 40.0049,-351.5"/>
<text text-anchor="middle" x="85.0273" y="-397.9" font-family="Helvetica,sans-Serif" font-size="12.00" fill="#000000">std::exception</text>
<polyline fill="none" stroke="#bfbfbf" points="40.0049,-391.5 130.0498,-391.5 "/>
<text text-anchor="middle" x="85.0273" y="-377.9" font-family="Helvetica,sans-Serif" font-size="12.00" fill="#000000"> </text>
<polyline fill="none" stroke="#bfbfbf" points="40.0049,-371.5 130.0498,-371.5 "/>
<text text-anchor="middle" x="85.0273" y="-357.9" font-family="Helvetica,sans-Serif" font-size="12.00" fill="#000000"> </text>
</g>
<!-- Node7&#45;&gt;Node6 -->
<g id="edge3" class="edge">
<title>Node7&#45;&gt;Node6</title>
<path fill="none" stroke="#191970" d="M85.0273,-341.1983C85.0273,-332.655 85.0273,-323.5538 85.0273,-314.7497"/>
<polygon fill="none" stroke="#191970" points="81.5274,-341.2851 85.0273,-351.2851 88.5274,-341.2851 81.5274,-341.2851"/>
</g>
</g>
</svg>
