<?xml version="1.0" encoding="UTF-8" standalone="no"?>
<!DOCTYPE svg PUBLIC "-//W3C//DTD SVG 1.1//EN"
 "http://www.w3.org/Graphics/SVG/1.1/DTD/svg11.dtd">
<!-- Generated by graphviz version 2.40.1 (20161225.0304)
 -->
<!-- Title: InverseFunction Pages: 1 -->
<svg width="217pt" height="737pt"
 viewBox="0.00 0.00 217.00 737.00" xmlns="http://www.w3.org/2000/svg" xmlns:xlink="http://www.w3.org/1999/xlink">
<g id="graph0" class="graph" transform="scale(1 1) rotate(0) translate(4 733)">
<title>InverseFunction</title>
<polygon fill="#ffffff" stroke="transparent" points="-4,4 -4,-733 213,-733 213,4 -4,4"/>
<!-- Node4 -->
<g id="node1" class="node">
<title>Node4</title>
<polygon fill="#bfbfbf" stroke="#000000" points="41.5,-.5 41.5,-219.5 167.5,-219.5 167.5,-.5 41.5,-.5"/>
<text text-anchor="middle" x="104.5" y="-205.9" font-family="Helvetica,sans-Serif" font-size="12.00" fill="#000000">InverseFunction</text>
<polyline fill="none" stroke="#000000" points="41.5,-198.5 167.5,-198.5 "/>
<text text-anchor="start" x="49.5" y="-184.9" font-family="Helvetica,sans-Serif" font-size="12.00" fill="#000000">&#45; __tolerance</text>
<text text-anchor="start" x="49.5" y="-171.9" font-family="Helvetica,sans-Serif" font-size="12.00" fill="#000000">&#45; __solver</text>
<text text-anchor="start" x="49.5" y="-158.9" font-family="Helvetica,sans-Serif" font-size="12.00" fill="#000000">&#45; __solver_fdf</text>
<text text-anchor="start" x="49.5" y="-145.9" font-family="Helvetica,sans-Serif" font-size="12.00" fill="#000000">&#45; __solver_f</text>
<text text-anchor="start" x="49.5" y="-132.9" font-family="Helvetica,sans-Serif" font-size="12.00" fill="#000000">&#45; __target</text>
<text text-anchor="start" x="49.5" y="-119.9" font-family="Helvetica,sans-Serif" font-size="12.00" fill="#000000">&#45; __search_min</text>
<text text-anchor="start" x="49.5" y="-106.9" font-family="Helvetica,sans-Serif" font-size="12.00" fill="#000000">&#45; __search_max</text>
<polyline fill="none" stroke="#000000" points="41.5,-99.5 167.5,-99.5 "/>
<text text-anchor="start" x="49.5" y="-85.9" font-family="Helvetica,sans-Serif" font-size="12.00" fill="#000000">+ InverseFunction()</text>
<text text-anchor="start" x="49.5" y="-72.9" font-family="Helvetica,sans-Serif" font-size="12.00" fill="#000000">+ operator()()</text>
<text text-anchor="start" x="49.5" y="-59.9" font-family="Helvetica,sans-Serif" font-size="12.00" fill="#000000">+ range_high()</text>
<text text-anchor="start" x="49.5" y="-46.9" font-family="Helvetica,sans-Serif" font-size="12.00" fill="#000000">+ range_low()</text>
<text text-anchor="start" x="49.5" y="-33.9" font-family="Helvetica,sans-Serif" font-size="12.00" fill="#000000">+ crossings()</text>
<text text-anchor="start" x="49.5" y="-20.9" font-family="Helvetica,sans-Serif" font-size="12.00" fill="#000000">+ deriv()</text>
<text text-anchor="start" x="49.5" y="-7.9" font-family="Helvetica,sans-Serif" font-size="12.00" fill="#000000">+ ~InverseFunction()</text>
</g>
<!-- Node5 -->
<g id="node2" class="node">
<title>Node5</title>
<g id="a_node2"><a xlink:href="classCore_1_1OneArgumentDiffFunction.html" target="_top" xlink:title="A class representing a once differentiable function of a single argument. ">
<polygon fill="#ffffff" stroke="#000000" points="10.5,-269.5 10.5,-358.5 198.5,-358.5 198.5,-269.5 10.5,-269.5"/>
<text text-anchor="middle" x="104.5" y="-344.9" font-family="Helvetica,sans-Serif" font-size="12.00" fill="#000000">Core::OneArgumentDiffFunction</text>
<polyline fill="none" stroke="#000000" points="10.5,-337.5 198.5,-337.5 "/>
<text text-anchor="middle" x="104.5" y="-323.9" font-family="Helvetica,sans-Serif" font-size="12.00" fill="#000000"> </text>
<polyline fill="none" stroke="#000000" points="10.5,-316.5 198.5,-316.5 "/>
<text text-anchor="start" x="18.5" y="-302.9" font-family="Helvetica,sans-Serif" font-size="12.00" fill="#000000">+ deriv()</text>
<text text-anchor="start" x="18.5" y="-289.9" font-family="Helvetica,sans-Serif" font-size="12.00" fill="#000000">+ ~OneArgumentDiffFunction()</text>
<text text-anchor="start" x="18.5" y="-276.9" font-family="Helvetica,sans-Serif" font-size="12.00" fill="#000000">&#45; serialize()</text>
</a>
</g>
</g>
<!-- Node5&#45;&gt;Node4 -->
<g id="edge1" class="edge">
<title>Node5&#45;&gt;Node4</title>
<path fill="none" stroke="#191970" d="M102.6556,-259.1865C102.5951,-256.4183 102.5425,-253.6773 102.5,-251 102.3388,-240.8414 102.2824,-230.271 102.3011,-219.6893"/>
<polygon fill="none" stroke="#191970" points="99.1585,-259.3526 102.9046,-269.2631 106.1564,-259.1797 99.1585,-259.3526"/>
</g>
<!-- Node5&#45;&gt;Node4 -->
<g id="edge4" class="edge">
<title>Node5&#45;&gt;Node4</title>
<path fill="none" stroke="#404040" d="M104.5,-269.4834C104.5,-258.0841 104.5,-245.2625 104.5,-231.97"/>
<polygon fill="none" stroke="#404040" points="104.5001,-231.6575 100.5,-225.6575 104.5,-219.6575 108.5,-225.6574 104.5001,-231.6575"/>
<text text-anchor="middle" x="138" y="-241.4" font-family="Helvetica,sans-Serif" font-size="12.00" fill="#000000"> &#45;__to_invert</text>
</g>
<!-- Node6 -->
<g id="node3" class="node">
<title>Node6</title>
<g id="a_node3"><a xlink:href="classCore_1_1OneArgumentFunction.html" target="_top" xlink:title="{Core::OneArgumentFunction\l\&lt; double, double \&gt;\n||+ operator()()\l+ range_high()\l+ range_low()\l+ crossings()\l+ ~OneArgumentFunction()\l&#45; serialize()\l}">
<polygon fill="#ffffff" stroke="#000000" points="19.5,-396.5 19.5,-537.5 189.5,-537.5 189.5,-396.5 19.5,-396.5"/>
<text text-anchor="start" x="27.5" y="-523.9" font-family="Helvetica,sans-Serif" font-size="12.00" fill="#000000">Core::OneArgumentFunction</text>
<text text-anchor="middle" x="104.5" y="-510.9" font-family="Helvetica,sans-Serif" font-size="12.00" fill="#000000">&lt; double, double &gt;</text>
<polyline fill="none" stroke="#000000" points="19.5,-503.5 189.5,-503.5 "/>
<text text-anchor="middle" x="104.5" y="-489.9" font-family="Helvetica,sans-Serif" font-size="12.00" fill="#000000"> </text>
<polyline fill="none" stroke="#000000" points="19.5,-482.5 189.5,-482.5 "/>
<text text-anchor="start" x="27.5" y="-468.9" font-family="Helvetica,sans-Serif" font-size="12.00" fill="#000000">+ operator()()</text>
<text text-anchor="start" x="27.5" y="-455.9" font-family="Helvetica,sans-Serif" font-size="12.00" fill="#000000">+ range_high()</text>
<text text-anchor="start" x="27.5" y="-442.9" font-family="Helvetica,sans-Serif" font-size="12.00" fill="#000000">+ range_low()</text>
<text text-anchor="start" x="27.5" y="-429.9" font-family="Helvetica,sans-Serif" font-size="12.00" fill="#000000">+ crossings()</text>
<text text-anchor="start" x="27.5" y="-416.9" font-family="Helvetica,sans-Serif" font-size="12.00" fill="#000000">+ ~OneArgumentFunction()</text>
<text text-anchor="start" x="27.5" y="-403.9" font-family="Helvetica,sans-Serif" font-size="12.00" fill="#000000">&#45; serialize()</text>
</a>
</g>
</g>
<!-- Node6&#45;&gt;Node5 -->
<g id="edge2" class="edge">
<title>Node6&#45;&gt;Node5</title>
<path fill="none" stroke="#191970" d="M104.5,-386.0703C104.5,-376.63 104.5,-367.2799 104.5,-358.5977"/>
<polygon fill="none" stroke="#191970" points="101.0001,-386.3221 104.5,-396.3221 108.0001,-386.3222 101.0001,-386.3221"/>
</g>
<!-- Node7 -->
<g id="node4" class="node">
<title>Node7</title>
<g id="a_node4"><a xlink:href="classCore_1_1OneArgumentFunction.html" target="_top" xlink:title="The base class for functions which take a single argument and return a single value. ">
<polygon fill="#ffffff" stroke="#000000" points="0,-587.5 0,-728.5 209,-728.5 209,-587.5 0,-587.5"/>
<text text-anchor="start" x="8" y="-714.9" font-family="Helvetica,sans-Serif" font-size="12.00" fill="#000000">Core::OneArgumentFunction</text>
<text text-anchor="middle" x="104.5" y="-701.9" font-family="Helvetica,sans-Serif" font-size="12.00" fill="#000000">&lt; InputDataType, OutputDataType &gt;</text>
<polyline fill="none" stroke="#000000" points="0,-694.5 209,-694.5 "/>
<text text-anchor="middle" x="104.5" y="-680.9" font-family="Helvetica,sans-Serif" font-size="12.00" fill="#000000"> </text>
<polyline fill="none" stroke="#000000" points="0,-673.5 209,-673.5 "/>
<text text-anchor="start" x="8" y="-659.9" font-family="Helvetica,sans-Serif" font-size="12.00" fill="#000000">+ operator()()</text>
<text text-anchor="start" x="8" y="-646.9" font-family="Helvetica,sans-Serif" font-size="12.00" fill="#000000">+ range_high()</text>
<text text-anchor="start" x="8" y="-633.9" font-family="Helvetica,sans-Serif" font-size="12.00" fill="#000000">+ range_low()</text>
<text text-anchor="start" x="8" y="-620.9" font-family="Helvetica,sans-Serif" font-size="12.00" fill="#000000">+ crossings()</text>
<text text-anchor="start" x="8" y="-607.9" font-family="Helvetica,sans-Serif" font-size="12.00" fill="#000000">+ ~OneArgumentFunction()</text>
<text text-anchor="start" x="8" y="-594.9" font-family="Helvetica,sans-Serif" font-size="12.00" fill="#000000">&#45; serialize()</text>
</a>
</g>
</g>
<!-- Node7&#45;&gt;Node6 -->
<g id="edge3" class="edge">
<title>Node7&#45;&gt;Node6</title>
<path fill="none" stroke="#ffa500" d="M104.5,-577.4027C104.5,-564.179 104.5,-550.5645 104.5,-537.6073"/>
<polygon fill="#ffa500" stroke="#ffa500" points="101.0001,-577.4213 104.5,-587.4213 108.0001,-577.4213 101.0001,-577.4213"/>
<text text-anchor="middle" x="156" y="-559.4" font-family="Helvetica,sans-Serif" font-size="12.00" fill="#000000"> &lt; double, double &gt;</text>
</g>
</g>
</svg>
