<?xml version="1.0" encoding="UTF-8" standalone="no"?>
<!DOCTYPE svg PUBLIC "-//W3C//DTD SVG 1.1//EN"
 "http://www.w3.org/Graphics/SVG/1.1/DTD/svg11.dtd">
<!-- Generated by graphviz version 2.40.1 (20161225.0304)
 -->
<!-- Title: Core::Error::BadFunctionArguments Pages: 1 -->
<svg width="168pt" height="450pt"
 viewBox="0.00 0.00 168.00 450.00" xmlns="http://www.w3.org/2000/svg" xmlns:xlink="http://www.w3.org/1999/xlink">
<g id="graph0" class="graph" transform="scale(1 1) rotate(0) translate(4 446)">
<title>Core::Error::BadFunctionArguments</title>
<polygon fill="#ffffff" stroke="transparent" points="-4,4 -4,-446 164,-446 164,4 -4,4"/>
<!-- Node5 -->
<g id="node1" class="node">
<title>Node5</title>
<polygon fill="#bfbfbf" stroke="#000000" points="0,-.5 0,-89.5 160,-89.5 160,-.5 0,-.5"/>
<text text-anchor="start" x="8" y="-75.9" font-family="Helvetica,sans-Serif" font-size="12.00" fill="#000000">Core::Error::BadFunction</text>
<text text-anchor="middle" x="80" y="-62.9" font-family="Helvetica,sans-Serif" font-size="12.00" fill="#000000">Arguments</text>
<polyline fill="none" stroke="#000000" points="0,-55.5 160,-55.5 "/>
<text text-anchor="middle" x="80" y="-41.9" font-family="Helvetica,sans-Serif" font-size="12.00" fill="#000000"> </text>
<polyline fill="none" stroke="#000000" points="0,-34.5 160,-34.5 "/>
<text text-anchor="start" x="8" y="-20.9" font-family="Helvetica,sans-Serif" font-size="12.00" fill="#000000">+ BadFunctionArguments()</text>
<text text-anchor="start" x="8" y="-7.9" font-family="Helvetica,sans-Serif" font-size="12.00" fill="#000000">+ what()</text>
</g>
<!-- Node6 -->
<g id="node2" class="node">
<title>Node6</title>
<g id="a_node2"><a xlink:href="classCore_1_1Error_1_1Runtime.html" target="_top" xlink:title="Any runtime error. ">
<polygon fill="#ffffff" stroke="#000000" points="17,-126.5 17,-202.5 143,-202.5 143,-126.5 17,-126.5"/>
<text text-anchor="middle" x="80" y="-188.9" font-family="Helvetica,sans-Serif" font-size="12.00" fill="#000000">Core::Error::Runtime</text>
<polyline fill="none" stroke="#000000" points="17,-181.5 143,-181.5 "/>
<text text-anchor="middle" x="80" y="-167.9" font-family="Helvetica,sans-Serif" font-size="12.00" fill="#000000"> </text>
<polyline fill="none" stroke="#000000" points="17,-160.5 143,-160.5 "/>
<text text-anchor="start" x="25" y="-146.9" font-family="Helvetica,sans-Serif" font-size="12.00" fill="#000000">+ Runtime()</text>
<text text-anchor="start" x="25" y="-133.9" font-family="Helvetica,sans-Serif" font-size="12.00" fill="#000000">+ what()</text>
</a>
</g>
</g>
<!-- Node6&#45;&gt;Node5 -->
<g id="edge1" class="edge">
<title>Node6&#45;&gt;Node5</title>
<path fill="none" stroke="#191970" d="M80,-116.3117C80,-107.5771 80,-98.4997 80,-89.8653"/>
<polygon fill="none" stroke="#191970" points="76.5001,-116.3609 80,-126.3609 83.5001,-116.3609 76.5001,-116.3609"/>
</g>
<!-- Node7 -->
<g id="node3" class="node">
<title>Node7</title>
<g id="a_node3"><a xlink:href="classCore_1_1Error_1_1General.html" target="_top" xlink:title="The base class of all exceptions. ">
<polygon fill="#ffffff" stroke="#000000" points="18,-239.5 18,-341.5 142,-341.5 142,-239.5 18,-239.5"/>
<text text-anchor="middle" x="80" y="-327.9" font-family="Helvetica,sans-Serif" font-size="12.00" fill="#000000">Core::Error::General</text>
<polyline fill="none" stroke="#000000" points="18,-320.5 142,-320.5 "/>
<text text-anchor="start" x="26" y="-306.9" font-family="Helvetica,sans-Serif" font-size="12.00" fill="#000000">&#45; message</text>
<polyline fill="none" stroke="#000000" points="18,-299.5 142,-299.5 "/>
<text text-anchor="start" x="26" y="-285.9" font-family="Helvetica,sans-Serif" font-size="12.00" fill="#000000">+ General()</text>
<text text-anchor="start" x="26" y="-272.9" font-family="Helvetica,sans-Serif" font-size="12.00" fill="#000000">+ what()</text>
<text text-anchor="start" x="26" y="-259.9" font-family="Helvetica,sans-Serif" font-size="12.00" fill="#000000">+ get_message()</text>
<text text-anchor="start" x="26" y="-246.9" font-family="Helvetica,sans-Serif" font-size="12.00" fill="#000000">+ ~General()</text>
</a>
</g>
</g>
<!-- Node7&#45;&gt;Node6 -->
<g id="edge2" class="edge">
<title>Node7&#45;&gt;Node6</title>
<path fill="none" stroke="#191970" d="M80,-229.0925C80,-220.0432 80,-210.95 80,-202.5605"/>
<polygon fill="none" stroke="#191970" points="76.5001,-229.2509 80,-239.251 83.5001,-229.251 76.5001,-229.2509"/>
</g>
<!-- Node8 -->
<g id="node4" class="node">
<title>Node8</title>
<polygon fill="#ffffff" stroke="#bfbfbf" points="35,-378.5 35,-441.5 125,-441.5 125,-378.5 35,-378.5"/>
<text text-anchor="middle" x="80" y="-427.9" font-family="Helvetica,sans-Serif" font-size="12.00" fill="#000000">std::exception</text>
<polyline fill="none" stroke="#bfbfbf" points="35,-420.5 125,-420.5 "/>
<text text-anchor="middle" x="80" y="-406.9" font-family="Helvetica,sans-Serif" font-size="12.00" fill="#000000"> </text>
<polyline fill="none" stroke="#bfbfbf" points="35,-399.5 125,-399.5 "/>
<text text-anchor="middle" x="80" y="-385.9" font-family="Helvetica,sans-Serif" font-size="12.00" fill="#000000"> </text>
</g>
<!-- Node8&#45;&gt;Node7 -->
<g id="edge3" class="edge">
<title>Node8&#45;&gt;Node7</title>
<path fill="none" stroke="#191970" d="M80,-368.2029C80,-359.6709 80,-350.6006 80,-341.7815"/>
<polygon fill="none" stroke="#191970" points="76.5001,-368.2899 80,-378.2899 83.5001,-368.29 76.5001,-368.2899"/>
</g>
</g>
</svg>
