<?xml version="1.0" encoding="UTF-8" standalone="no"?>
<!DOCTYPE svg PUBLIC "-//W3C//DTD SVG 1.1//EN"
 "http://www.w3.org/Graphics/SVG/1.1/DTD/svg11.dtd">
<!-- Generated by graphviz version 2.40.1 (20161225.0304)
 -->
<!-- Title: Core::Error::GSLZeroStep Pages: 1 -->
<svg width="163pt" height="420pt"
 viewBox="0.00 0.00 163.38 420.00" xmlns="http://www.w3.org/2000/svg" xmlns:xlink="http://www.w3.org/1999/xlink">
<g id="graph0" class="graph" transform="scale(1 1) rotate(0) translate(4 416)">
<title>Core::Error::GSLZeroStep</title>
<polygon fill="#ffffff" stroke="transparent" points="-4,4 -4,-416 159.3828,-416 159.3828,4 -4,4"/>
<!-- Node0 -->
<g id="node1" class="node">
<title>Node0</title>
<polygon fill="#bfbfbf" stroke="#000000" points="0,-.5 0,-72.5 155.3828,-72.5 155.3828,-.5 0,-.5"/>
<text text-anchor="middle" x="77.6914" y="-58.9" font-family="Helvetica,sans-Serif" font-size="12.00" fill="#000000">Core::Error::GSLZeroStep</text>
<polyline fill="none" stroke="#000000" points="0,-52.5 155.3828,-52.5 "/>
<text text-anchor="middle" x="77.6914" y="-38.9" font-family="Helvetica,sans-Serif" font-size="12.00" fill="#000000"> </text>
<polyline fill="none" stroke="#000000" points="0,-32.5 155.3828,-32.5 "/>
<text text-anchor="start" x="8" y="-18.9" font-family="Helvetica,sans-Serif" font-size="12.00" fill="#000000">+ GSLZeroStep()</text>
<text text-anchor="start" x="8" y="-6.9" font-family="Helvetica,sans-Serif" font-size="12.00" fill="#000000">+ what()</text>
</g>
<!-- Node1 -->
<g id="node2" class="node">
<title>Node1</title>
<g id="a_node2"><a xlink:href="classCore_1_1Error_1_1Runtime.html" target="_top" xlink:title="Any runtime error. ">
<polygon fill="#ffffff" stroke="#000000" points="14.3438,-109.5 14.3438,-181.5 141.0391,-181.5 141.0391,-109.5 14.3438,-109.5"/>
<text text-anchor="middle" x="77.6914" y="-167.9" font-family="Helvetica,sans-Serif" font-size="12.00" fill="#000000">Core::Error::Runtime</text>
<polyline fill="none" stroke="#000000" points="14.3438,-161.5 141.0391,-161.5 "/>
<text text-anchor="middle" x="77.6914" y="-147.9" font-family="Helvetica,sans-Serif" font-size="12.00" fill="#000000"> </text>
<polyline fill="none" stroke="#000000" points="14.3438,-141.5 141.0391,-141.5 "/>
<text text-anchor="start" x="22.3438" y="-127.9" font-family="Helvetica,sans-Serif" font-size="12.00" fill="#000000">+ Runtime()</text>
<text text-anchor="start" x="22.3438" y="-115.9" font-family="Helvetica,sans-Serif" font-size="12.00" fill="#000000">+ what()</text>
</a>
</g>
</g>
<!-- Node1&#45;&gt;Node0 -->
<g id="edge1" class="edge">
<title>Node1&#45;&gt;Node0</title>
<path fill="none" stroke="#191970" d="M77.6914,-99.0301C77.6914,-90.2017 77.6914,-81.0859 77.6914,-72.6369"/>
<polygon fill="none" stroke="#191970" points="74.1915,-99.2045 77.6914,-109.2046 81.1915,-99.2046 74.1915,-99.2045"/>
</g>
<!-- Node2 -->
<g id="node3" class="node">
<title>Node2</title>
<g id="a_node3"><a xlink:href="classCore_1_1Error_1_1General.html" target="_top" xlink:title="The base class of all exceptions. ">
<polygon fill="#ffffff" stroke="#000000" points="15.3398,-218.5 15.3398,-314.5 140.043,-314.5 140.043,-218.5 15.3398,-218.5"/>
<text text-anchor="middle" x="77.6914" y="-300.9" font-family="Helvetica,sans-Serif" font-size="12.00" fill="#000000">Core::Error::General</text>
<polyline fill="none" stroke="#000000" points="15.3398,-294.5 140.043,-294.5 "/>
<text text-anchor="start" x="23.3398" y="-280.9" font-family="Helvetica,sans-Serif" font-size="12.00" fill="#000000">&#45; message</text>
<polyline fill="none" stroke="#000000" points="15.3398,-274.5 140.043,-274.5 "/>
<text text-anchor="start" x="23.3398" y="-260.9" font-family="Helvetica,sans-Serif" font-size="12.00" fill="#000000">+ General()</text>
<text text-anchor="start" x="23.3398" y="-248.9" font-family="Helvetica,sans-Serif" font-size="12.00" fill="#000000">+ what()</text>
<text text-anchor="start" x="23.3398" y="-236.9" font-family="Helvetica,sans-Serif" font-size="12.00" fill="#000000">+ get_message()</text>
<text text-anchor="start" x="23.3398" y="-224.9" font-family="Helvetica,sans-Serif" font-size="12.00" fill="#000000">+ ~General()</text>
</a>
</g>
</g>
<!-- Node2&#45;&gt;Node1 -->
<g id="edge2" class="edge">
<title>Node2&#45;&gt;Node1</title>
<path fill="none" stroke="#191970" d="M77.6914,-208.1597C77.6914,-199.0889 77.6914,-189.9532 77.6914,-181.5697"/>
<polygon fill="none" stroke="#191970" points="74.1915,-208.3299 77.6914,-218.3299 81.1915,-208.33 74.1915,-208.3299"/>
</g>
<!-- Node3 -->
<g id="node4" class="node">
<title>Node3</title>
<polygon fill="#ffffff" stroke="#bfbfbf" points="32.6689,-351.5 32.6689,-411.5 122.7139,-411.5 122.7139,-351.5 32.6689,-351.5"/>
<text text-anchor="middle" x="77.6914" y="-397.9" font-family="Helvetica,sans-Serif" font-size="12.00" fill="#000000">std::exception</text>
<polyline fill="none" stroke="#bfbfbf" points="32.6689,-391.5 122.7139,-391.5 "/>
<text text-anchor="middle" x="77.6914" y="-377.9" font-family="Helvetica,sans-Serif" font-size="12.00" fill="#000000"> </text>
<polyline fill="none" stroke="#bfbfbf" points="32.6689,-371.5 122.7139,-371.5 "/>
<text text-anchor="middle" x="77.6914" y="-357.9" font-family="Helvetica,sans-Serif" font-size="12.00" fill="#000000"> </text>
</g>
<!-- Node3&#45;&gt;Node2 -->
<g id="edge3" class="edge">
<title>Node3&#45;&gt;Node2</title>
<path fill="none" stroke="#191970" d="M77.6914,-341.1983C77.6914,-332.655 77.6914,-323.5538 77.6914,-314.7497"/>
<polygon fill="none" stroke="#191970" points="74.1915,-341.2851 77.6914,-351.2851 81.1915,-341.2851 74.1915,-341.2851"/>
</g>
</g>
</svg>
