<?xml version="1.0" encoding="UTF-8" standalone="no"?>
<!DOCTYPE svg PUBLIC "-//W3C//DTD SVG 1.1//EN"
 "http://www.w3.org/Graphics/SVG/1.1/DTD/svg11.dtd">
<!-- Generated by graphviz version 2.40.1 (20161225.0304)
 -->
<!-- Title: InverseLinearLconvEvolution&lt; LINEAR_QUANTITY_TYPE &gt; Pages: 1 -->
<svg width="249pt" height="967pt"
 viewBox="0.00 0.00 249.00 967.00" xmlns="http://www.w3.org/2000/svg" xmlns:xlink="http://www.w3.org/1999/xlink">
<g id="graph0" class="graph" transform="scale(1 1) rotate(0) translate(4 963)">
<title>InverseLinearLconvEvolution&lt; LINEAR_QUANTITY_TYPE &gt;</title>
<polygon fill="#ffffff" stroke="transparent" points="-4,4 -4,-963 245,-963 245,4 -4,4"/>
<!-- Node4 -->
<g id="node1" class="node">
<title>Node4</title>
<polygon fill="#bfbfbf" stroke="#000000" points="0,-.5 0,-180.5 189,-180.5 189,-.5 0,-.5"/>
<text text-anchor="start" x="8" y="-166.9" font-family="Helvetica,sans-Serif" font-size="12.00" fill="#000000">InverseLinearLconvEvolution</text>
<text text-anchor="middle" x="94.5" y="-153.9" font-family="Helvetica,sans-Serif" font-size="12.00" fill="#000000">&lt; LINEAR_QUANTITY_TYPE &gt;</text>
<polyline fill="none" stroke="#000000" points="0,-146.5 189,-146.5 "/>
<text text-anchor="start" x="8" y="-132.9" font-family="Helvetica,sans-Serif" font-size="12.00" fill="#000000">&#45; __disk_lifetime</text>
<text text-anchor="start" x="8" y="-119.9" font-family="Helvetica,sans-Serif" font-size="12.00" fill="#000000">&#45; __evolution_rate</text>
<text text-anchor="start" x="8" y="-106.9" font-family="Helvetica,sans-Serif" font-size="12.00" fill="#000000">&#45; __linear_quantity</text>
<polyline fill="none" stroke="#000000" points="0,-99.5 189,-99.5 "/>
<text text-anchor="start" x="8" y="-85.9" font-family="Helvetica,sans-Serif" font-size="12.00" fill="#000000">+ InverseLinearLconvEvolution()</text>
<text text-anchor="start" x="8" y="-72.9" font-family="Helvetica,sans-Serif" font-size="12.00" fill="#000000">+ operator()()</text>
<text text-anchor="start" x="8" y="-59.9" font-family="Helvetica,sans-Serif" font-size="12.00" fill="#000000">+ disk_lifetime()</text>
<text text-anchor="start" x="8" y="-46.9" font-family="Helvetica,sans-Serif" font-size="12.00" fill="#000000">+ range_high()</text>
<text text-anchor="start" x="8" y="-33.9" font-family="Helvetica,sans-Serif" font-size="12.00" fill="#000000">+ range_low()</text>
<text text-anchor="start" x="8" y="-20.9" font-family="Helvetica,sans-Serif" font-size="12.00" fill="#000000">+ crossings()</text>
<text text-anchor="start" x="8" y="-7.9" font-family="Helvetica,sans-Serif" font-size="12.00" fill="#000000">+ deriv()</text>
</g>
<!-- Node5 -->
<g id="node2" class="node">
<title>Node5</title>
<g id="a_node2"><a xlink:href="classCore_1_1OneArgumentDiffFunction.html" target="_top" xlink:title="A class representing a once differentiable function of a single argument. ">
<polygon fill="#ffffff" stroke="#000000" points="42.5,-499.5 42.5,-588.5 230.5,-588.5 230.5,-499.5 42.5,-499.5"/>
<text text-anchor="middle" x="136.5" y="-574.9" font-family="Helvetica,sans-Serif" font-size="12.00" fill="#000000">Core::OneArgumentDiffFunction</text>
<polyline fill="none" stroke="#000000" points="42.5,-567.5 230.5,-567.5 "/>
<text text-anchor="middle" x="136.5" y="-553.9" font-family="Helvetica,sans-Serif" font-size="12.00" fill="#000000"> </text>
<polyline fill="none" stroke="#000000" points="42.5,-546.5 230.5,-546.5 "/>
<text text-anchor="start" x="50.5" y="-532.9" font-family="Helvetica,sans-Serif" font-size="12.00" fill="#000000">+ deriv()</text>
<text text-anchor="start" x="50.5" y="-519.9" font-family="Helvetica,sans-Serif" font-size="12.00" fill="#000000">+ ~OneArgumentDiffFunction()</text>
<text text-anchor="start" x="50.5" y="-506.9" font-family="Helvetica,sans-Serif" font-size="12.00" fill="#000000">&#45; serialize()</text>
</a>
</g>
</g>
<!-- Node5&#45;&gt;Node4 -->
<g id="edge1" class="edge">
<title>Node5&#45;&gt;Node4</title>
<path fill="none" stroke="#191970" d="M109.8429,-489.7002C104.7634,-476.9676 100.196,-463.2446 97.5,-450 79.1056,-359.6344 80.9445,-253.828 85.7886,-180.5048"/>
<polygon fill="none" stroke="#191970" points="106.7309,-491.332 113.8046,-499.2196 113.1936,-488.6424 106.7309,-491.332"/>
</g>
<!-- Node8 -->
<g id="node5" class="node">
<title>Node8</title>
<g id="a_node5"><a xlink:href="classInverseFunction.html" target="_top" xlink:title="The invrse of an existing function. ">
<polygon fill="#ffffff" stroke="#000000" points="106.5,-230.5 106.5,-449.5 232.5,-449.5 232.5,-230.5 106.5,-230.5"/>
<text text-anchor="middle" x="169.5" y="-435.9" font-family="Helvetica,sans-Serif" font-size="12.00" fill="#000000">InverseFunction</text>
<polyline fill="none" stroke="#000000" points="106.5,-428.5 232.5,-428.5 "/>
<text text-anchor="start" x="114.5" y="-414.9" font-family="Helvetica,sans-Serif" font-size="12.00" fill="#000000">&#45; __tolerance</text>
<text text-anchor="start" x="114.5" y="-401.9" font-family="Helvetica,sans-Serif" font-size="12.00" fill="#000000">&#45; __solver</text>
<text text-anchor="start" x="114.5" y="-388.9" font-family="Helvetica,sans-Serif" font-size="12.00" fill="#000000">&#45; __solver_fdf</text>
<text text-anchor="start" x="114.5" y="-375.9" font-family="Helvetica,sans-Serif" font-size="12.00" fill="#000000">&#45; __solver_f</text>
<text text-anchor="start" x="114.5" y="-362.9" font-family="Helvetica,sans-Serif" font-size="12.00" fill="#000000">&#45; __target</text>
<text text-anchor="start" x="114.5" y="-349.9" font-family="Helvetica,sans-Serif" font-size="12.00" fill="#000000">&#45; __search_min</text>
<text text-anchor="start" x="114.5" y="-336.9" font-family="Helvetica,sans-Serif" font-size="12.00" fill="#000000">&#45; __search_max</text>
<polyline fill="none" stroke="#000000" points="106.5,-329.5 232.5,-329.5 "/>
<text text-anchor="start" x="114.5" y="-315.9" font-family="Helvetica,sans-Serif" font-size="12.00" fill="#000000">+ InverseFunction()</text>
<text text-anchor="start" x="114.5" y="-302.9" font-family="Helvetica,sans-Serif" font-size="12.00" fill="#000000">+ operator()()</text>
<text text-anchor="start" x="114.5" y="-289.9" font-family="Helvetica,sans-Serif" font-size="12.00" fill="#000000">+ range_high()</text>
<text text-anchor="start" x="114.5" y="-276.9" font-family="Helvetica,sans-Serif" font-size="12.00" fill="#000000">+ range_low()</text>
<text text-anchor="start" x="114.5" y="-263.9" font-family="Helvetica,sans-Serif" font-size="12.00" fill="#000000">+ crossings()</text>
<text text-anchor="start" x="114.5" y="-250.9" font-family="Helvetica,sans-Serif" font-size="12.00" fill="#000000">+ deriv()</text>
<text text-anchor="start" x="114.5" y="-237.9" font-family="Helvetica,sans-Serif" font-size="12.00" fill="#000000">+ ~InverseFunction()</text>
</a>
</g>
</g>
<!-- Node5&#45;&gt;Node8 -->
<g id="edge5" class="edge">
<title>Node5&#45;&gt;Node8</title>
<path fill="none" stroke="#191970" d="M145.3345,-489.3864C147.3375,-477.0044 149.5343,-463.4245 151.7613,-449.6575"/>
<polygon fill="none" stroke="#191970" points="141.8431,-489.0528 143.7012,-499.4834 148.7533,-490.1707 141.8431,-489.0528"/>
</g>
<!-- Node5&#45;&gt;Node8 -->
<g id="edge6" class="edge">
<title>Node5&#45;&gt;Node8</title>
<path fill="none" stroke="#404040" d="M144.4117,-499.2759C145.4674,-493.1383 146.5222,-486.9153 147.5,-481 148.548,-474.6599 149.6095,-468.1572 150.671,-461.5898"/>
<polygon fill="none" stroke="#404040" points="150.6745,-461.5678 147.6773,-455.009 152.5787,-449.7198 155.5759,-456.2785 150.6745,-461.5678"/>
<text text-anchor="middle" x="182" y="-471.4" font-family="Helvetica,sans-Serif" font-size="12.00" fill="#000000"> &#45;__to_invert</text>
</g>
<!-- Node6 -->
<g id="node3" class="node">
<title>Node6</title>
<g id="a_node3"><a xlink:href="classCore_1_1OneArgumentFunction.html" target="_top" xlink:title="{Core::OneArgumentFunction\l\&lt; double, double \&gt;\n||+ operator()()\l+ range_high()\l+ range_low()\l+ crossings()\l+ ~OneArgumentFunction()\l&#45; serialize()\l}">
<polygon fill="#ffffff" stroke="#000000" points="51.5,-626.5 51.5,-767.5 221.5,-767.5 221.5,-626.5 51.5,-626.5"/>
<text text-anchor="start" x="59.5" y="-753.9" font-family="Helvetica,sans-Serif" font-size="12.00" fill="#000000">Core::OneArgumentFunction</text>
<text text-anchor="middle" x="136.5" y="-740.9" font-family="Helvetica,sans-Serif" font-size="12.00" fill="#000000">&lt; double, double &gt;</text>
<polyline fill="none" stroke="#000000" points="51.5,-733.5 221.5,-733.5 "/>
<text text-anchor="middle" x="136.5" y="-719.9" font-family="Helvetica,sans-Serif" font-size="12.00" fill="#000000"> </text>
<polyline fill="none" stroke="#000000" points="51.5,-712.5 221.5,-712.5 "/>
<text text-anchor="start" x="59.5" y="-698.9" font-family="Helvetica,sans-Serif" font-size="12.00" fill="#000000">+ operator()()</text>
<text text-anchor="start" x="59.5" y="-685.9" font-family="Helvetica,sans-Serif" font-size="12.00" fill="#000000">+ range_high()</text>
<text text-anchor="start" x="59.5" y="-672.9" font-family="Helvetica,sans-Serif" font-size="12.00" fill="#000000">+ range_low()</text>
<text text-anchor="start" x="59.5" y="-659.9" font-family="Helvetica,sans-Serif" font-size="12.00" fill="#000000">+ crossings()</text>
<text text-anchor="start" x="59.5" y="-646.9" font-family="Helvetica,sans-Serif" font-size="12.00" fill="#000000">+ ~OneArgumentFunction()</text>
<text text-anchor="start" x="59.5" y="-633.9" font-family="Helvetica,sans-Serif" font-size="12.00" fill="#000000">&#45; serialize()</text>
</a>
</g>
</g>
<!-- Node6&#45;&gt;Node5 -->
<g id="edge2" class="edge">
<title>Node6&#45;&gt;Node5</title>
<path fill="none" stroke="#191970" d="M136.5,-616.0703C136.5,-606.63 136.5,-597.2799 136.5,-588.5977"/>
<polygon fill="none" stroke="#191970" points="133.0001,-616.3221 136.5,-626.3221 140.0001,-616.3222 133.0001,-616.3221"/>
</g>
<!-- Node7 -->
<g id="node4" class="node">
<title>Node7</title>
<g id="a_node4"><a xlink:href="classCore_1_1OneArgumentFunction.html" target="_top" xlink:title="The base class for functions which take a single argument and return a single value. ">
<polygon fill="#ffffff" stroke="#000000" points="32,-817.5 32,-958.5 241,-958.5 241,-817.5 32,-817.5"/>
<text text-anchor="start" x="40" y="-944.9" font-family="Helvetica,sans-Serif" font-size="12.00" fill="#000000">Core::OneArgumentFunction</text>
<text text-anchor="middle" x="136.5" y="-931.9" font-family="Helvetica,sans-Serif" font-size="12.00" fill="#000000">&lt; InputDataType, OutputDataType &gt;</text>
<polyline fill="none" stroke="#000000" points="32,-924.5 241,-924.5 "/>
<text text-anchor="middle" x="136.5" y="-910.9" font-family="Helvetica,sans-Serif" font-size="12.00" fill="#000000"> </text>
<polyline fill="none" stroke="#000000" points="32,-903.5 241,-903.5 "/>
<text text-anchor="start" x="40" y="-889.9" font-family="Helvetica,sans-Serif" font-size="12.00" fill="#000000">+ operator()()</text>
<text text-anchor="start" x="40" y="-876.9" font-family="Helvetica,sans-Serif" font-size="12.00" fill="#000000">+ range_high()</text>
<text text-anchor="start" x="40" y="-863.9" font-family="Helvetica,sans-Serif" font-size="12.00" fill="#000000">+ range_low()</text>
<text text-anchor="start" x="40" y="-850.9" font-family="Helvetica,sans-Serif" font-size="12.00" fill="#000000">+ crossings()</text>
<text text-anchor="start" x="40" y="-837.9" font-family="Helvetica,sans-Serif" font-size="12.00" fill="#000000">+ ~OneArgumentFunction()</text>
<text text-anchor="start" x="40" y="-824.9" font-family="Helvetica,sans-Serif" font-size="12.00" fill="#000000">&#45; serialize()</text>
</a>
</g>
</g>
<!-- Node7&#45;&gt;Node6 -->
<g id="edge3" class="edge">
<title>Node7&#45;&gt;Node6</title>
<path fill="none" stroke="#ffa500" d="M136.5,-807.4027C136.5,-794.179 136.5,-780.5645 136.5,-767.6073"/>
<polygon fill="#ffa500" stroke="#ffa500" points="133.0001,-807.4213 136.5,-817.4213 140.0001,-807.4213 133.0001,-807.4213"/>
<text text-anchor="middle" x="188" y="-789.4" font-family="Helvetica,sans-Serif" font-size="12.00" fill="#000000"> &lt; double, double &gt;</text>
</g>
<!-- Node8&#45;&gt;Node4 -->
<g id="edge4" class="edge">
<title>Node8&#45;&gt;Node4</title>
<path fill="none" stroke="#404040" d="M136.4948,-230.2026C132.7124,-217.6201 128.8682,-204.8317 125.1191,-192.3594"/>
<polygon fill="none" stroke="#404040" points="125.0133,-192.0073 119.4553,-187.4128 121.5587,-180.5153 127.1167,-185.1098 125.0133,-192.0073"/>
<text text-anchor="middle" x="168.5" y="-202.4" font-family="Helvetica,sans-Serif" font-size="12.00" fill="#000000"> &#45;__find_lconv</text>
</g>
</g>
</svg>
