<?xml version="1.0" encoding="UTF-8" standalone="no"?>
<!DOCTYPE svg PUBLIC "-//W3C//DTD SVG 1.1//EN"
 "http://www.w3.org/Graphics/SVG/1.1/DTD/svg11.dtd">
<!-- Generated by graphviz version 2.40.1 (20161225.0304)
 -->
<!-- Title: Core::Error::Runtime Pages: 1 -->
<svg width="134pt" height="324pt"
 viewBox="0.00 0.00 134.00 324.00" xmlns="http://www.w3.org/2000/svg" xmlns:xlink="http://www.w3.org/1999/xlink">
<g id="graph0" class="graph" transform="scale(1 1) rotate(0) translate(4 320)">
<title>Core::Error::Runtime</title>
<polygon fill="#ffffff" stroke="transparent" points="-4,4 -4,-320 130,-320 130,4 -4,4"/>
<!-- Node11 -->
<g id="node1" class="node">
<title>Node11</title>
<polygon fill="#bfbfbf" stroke="#000000" points="0,-.5 0,-76.5 126,-76.5 126,-.5 0,-.5"/>
<text text-anchor="middle" x="63" y="-62.9" font-family="Helvetica,sans-Serif" font-size="12.00" fill="#000000">Core::Error::Runtime</text>
<polyline fill="none" stroke="#000000" points="0,-55.5 126,-55.5 "/>
<text text-anchor="middle" x="63" y="-41.9" font-family="Helvetica,sans-Serif" font-size="12.00" fill="#000000"> </text>
<polyline fill="none" stroke="#000000" points="0,-34.5 126,-34.5 "/>
<text text-anchor="start" x="8" y="-20.9" font-family="Helvetica,sans-Serif" font-size="12.00" fill="#000000">+ Runtime()</text>
<text text-anchor="start" x="8" y="-7.9" font-family="Helvetica,sans-Serif" font-size="12.00" fill="#000000">+ what()</text>
</g>
<!-- Node12 -->
<g id="node2" class="node">
<title>Node12</title>
<g id="a_node2"><a xlink:href="classCore_1_1Error_1_1General.html" target="_top" xlink:title="The base class of all exceptions. ">
<polygon fill="#ffffff" stroke="#000000" points="1,-113.5 1,-215.5 125,-215.5 125,-113.5 1,-113.5"/>
<text text-anchor="middle" x="63" y="-201.9" font-family="Helvetica,sans-Serif" font-size="12.00" fill="#000000">Core::Error::General</text>
<polyline fill="none" stroke="#000000" points="1,-194.5 125,-194.5 "/>
<text text-anchor="start" x="9" y="-180.9" font-family="Helvetica,sans-Serif" font-size="12.00" fill="#000000">&#45; message</text>
<polyline fill="none" stroke="#000000" points="1,-173.5 125,-173.5 "/>
<text text-anchor="start" x="9" y="-159.9" font-family="Helvetica,sans-Serif" font-size="12.00" fill="#000000">+ General()</text>
<text text-anchor="start" x="9" y="-146.9" font-family="Helvetica,sans-Serif" font-size="12.00" fill="#000000">+ what()</text>
<text text-anchor="start" x="9" y="-133.9" font-family="Helvetica,sans-Serif" font-size="12.00" fill="#000000">+ get_message()</text>
<text text-anchor="start" x="9" y="-120.9" font-family="Helvetica,sans-Serif" font-size="12.00" fill="#000000">+ ~General()</text>
</a>
</g>
</g>
<!-- Node12&#45;&gt;Node11 -->
<g id="edge1" class="edge">
<title>Node12&#45;&gt;Node11</title>
<path fill="none" stroke="#191970" d="M63,-103.0925C63,-94.0432 63,-84.95 63,-76.5605"/>
<polygon fill="none" stroke="#191970" points="59.5001,-103.2509 63,-113.251 66.5001,-103.251 59.5001,-103.2509"/>
</g>
<!-- Node13 -->
<g id="node3" class="node">
<title>Node13</title>
<polygon fill="#ffffff" stroke="#bfbfbf" points="18,-252.5 18,-315.5 108,-315.5 108,-252.5 18,-252.5"/>
<text text-anchor="middle" x="63" y="-301.9" font-family="Helvetica,sans-Serif" font-size="12.00" fill="#000000">std::exception</text>
<polyline fill="none" stroke="#bfbfbf" points="18,-294.5 108,-294.5 "/>
<text text-anchor="middle" x="63" y="-280.9" font-family="Helvetica,sans-Serif" font-size="12.00" fill="#000000"> </text>
<polyline fill="none" stroke="#bfbfbf" points="18,-273.5 108,-273.5 "/>
<text text-anchor="middle" x="63" y="-259.9" font-family="Helvetica,sans-Serif" font-size="12.00" fill="#000000"> </text>
</g>
<!-- Node13&#45;&gt;Node12 -->
<g id="edge2" class="edge">
<title>Node13&#45;&gt;Node12</title>
<path fill="none" stroke="#191970" d="M63,-242.2029C63,-233.6709 63,-224.6006 63,-215.7815"/>
<polygon fill="none" stroke="#191970" points="59.5001,-242.2899 63,-252.2899 66.5001,-242.29 59.5001,-242.2899"/>
</g>
</g>
</svg>
