<?xml version="1.0" encoding="UTF-8" standalone="no"?>
<!DOCTYPE svg PUBLIC "-//W3C//DTD SVG 1.1//EN"
 "http://www.w3.org/Graphics/SVG/1.1/DTD/svg11.dtd">
<!-- Generated by graphviz version 2.40.1 (20161225.0304)
 -->
<!-- Title: Evolve::ExternalStoppingCondition Pages: 1 -->
<svg width="205pt" height="289pt"
 viewBox="0.00 0.00 205.00 289.00" xmlns="http://www.w3.org/2000/svg" xmlns:xlink="http://www.w3.org/1999/xlink">
<g id="graph0" class="graph" transform="scale(1 1) rotate(0) translate(4 285)">
<title>Evolve::ExternalStoppingCondition</title>
<polygon fill="#ffffff" stroke="transparent" points="-4,4 -4,-285 201,-285 201,4 -4,4"/>
<!-- Node3 -->
<g id="node1" class="node">
<title>Node3</title>
<polygon fill="#bfbfbf" stroke="#000000" points="22.5,-.5 22.5,-76.5 174.5,-76.5 174.5,-.5 22.5,-.5"/>
<text text-anchor="start" x="30.5" y="-62.9" font-family="Helvetica,sans-Serif" font-size="12.00" fill="#000000">Evolve::ExternalStopping</text>
<text text-anchor="middle" x="98.5" y="-49.9" font-family="Helvetica,sans-Serif" font-size="12.00" fill="#000000">Condition</text>
<polyline fill="none" stroke="#000000" points="22.5,-42.5 174.5,-42.5 "/>
<text text-anchor="middle" x="98.5" y="-28.9" font-family="Helvetica,sans-Serif" font-size="12.00" fill="#000000"> </text>
<polyline fill="none" stroke="#000000" points="22.5,-21.5 174.5,-21.5 "/>
<text text-anchor="start" x="30.5" y="-7.9" font-family="Helvetica,sans-Serif" font-size="12.00" fill="#000000">+ type()</text>
</g>
<!-- Node4 -->
<g id="node2" class="node">
<title>Node4</title>
<g id="a_node2"><a xlink:href="classEvolve_1_1StoppingCondition.html" target="_top" xlink:title="A base class for all stopping conditions. ">
<polygon fill="#ffffff" stroke="#000000" points="0,-113.5 0,-280.5 197,-280.5 197,-113.5 0,-113.5"/>
<text text-anchor="middle" x="98.5" y="-266.9" font-family="Helvetica,sans-Serif" font-size="12.00" fill="#000000">Evolve::StoppingCondition</text>
<polyline fill="none" stroke="#000000" points="0,-259.5 197,-259.5 "/>
<text text-anchor="start" x="8" y="-245.9" font-family="Helvetica,sans-Serif" font-size="12.00" fill="#000000">&#45; __expected_crossing</text>
<text text-anchor="start" x="8" y="-232.9" font-family="Helvetica,sans-Serif" font-size="12.00" fill="#000000">_deriv_sign</text>
<polyline fill="none" stroke="#000000" points="0,-225.5 197,-225.5 "/>
<text text-anchor="start" x="8" y="-211.9" font-family="Helvetica,sans-Serif" font-size="12.00" fill="#000000">+ StoppingCondition()</text>
<text text-anchor="start" x="8" y="-198.9" font-family="Helvetica,sans-Serif" font-size="12.00" fill="#000000">+ operator()()</text>
<text text-anchor="start" x="8" y="-185.9" font-family="Helvetica,sans-Serif" font-size="12.00" fill="#000000">+ num_subconditions()</text>
<text text-anchor="start" x="8" y="-172.9" font-family="Helvetica,sans-Serif" font-size="12.00" fill="#000000">+ type()</text>
<text text-anchor="start" x="8" y="-159.9" font-family="Helvetica,sans-Serif" font-size="12.00" fill="#000000">+ reached()</text>
<text text-anchor="start" x="8" y="-146.9" font-family="Helvetica,sans-Serif" font-size="12.00" fill="#000000">+ expected_crossing_deriv_sign()</text>
<text text-anchor="start" x="8" y="-133.9" font-family="Helvetica,sans-Serif" font-size="12.00" fill="#000000">+ describe()</text>
<text text-anchor="start" x="8" y="-120.9" font-family="Helvetica,sans-Serif" font-size="12.00" fill="#000000">+ ~StoppingCondition()</text>
</a>
</g>
</g>
<!-- Node4&#45;&gt;Node3 -->
<g id="edge1" class="edge">
<title>Node4&#45;&gt;Node3</title>
<path fill="none" stroke="#191970" d="M98.5,-102.9902C98.5,-93.7428 98.5,-84.7733 98.5,-76.6096"/>
<polygon fill="none" stroke="#191970" points="95.0001,-103.1088 98.5,-113.1088 102.0001,-103.1088 95.0001,-103.1088"/>
</g>
</g>
</svg>
