<?xml version="1.0" encoding="UTF-8" standalone="no"?>
<!DOCTYPE svg PUBLIC "-//W3C//DTD SVG 1.1//EN"
 "http://www.w3.org/Graphics/SVG/1.1/DTD/svg11.dtd">
<!-- Generated by graphviz version 2.40.1 (20161225.0304)
 -->
<!-- Title: Core::Error::BadFunctionArguments Pages: 1 -->
<svg width="168pt" height="432pt"
 viewBox="0.00 0.00 167.74 432.00" xmlns="http://www.w3.org/2000/svg" xmlns:xlink="http://www.w3.org/1999/xlink">
<g id="graph0" class="graph" transform="scale(1 1) rotate(0) translate(4 428)">
<title>Core::Error::BadFunctionArguments</title>
<polygon fill="#ffffff" stroke="transparent" points="-4,4 -4,-428 163.7363,-428 163.7363,4 -4,4"/>
<!-- Node5 -->
<g id="node1" class="node">
<title>Node5</title>
<polygon fill="#bfbfbf" stroke="#000000" points="0,-.5 0,-84.5 159.7363,-84.5 159.7363,-.5 0,-.5"/>
<text text-anchor="start" x="8" y="-70.9" font-family="Helvetica,sans-Serif" font-size="12.00" fill="#000000">Core::Error::BadFunction</text>
<text text-anchor="middle" x="79.8682" y="-58.9" font-family="Helvetica,sans-Serif" font-size="12.00" fill="#000000">Arguments</text>
<polyline fill="none" stroke="#000000" points="0,-52.5 159.7363,-52.5 "/>
<text text-anchor="middle" x="79.8682" y="-38.9" font-family="Helvetica,sans-Serif" font-size="12.00" fill="#000000"> </text>
<polyline fill="none" stroke="#000000" points="0,-32.5 159.7363,-32.5 "/>
<text text-anchor="start" x="8" y="-18.9" font-family="Helvetica,sans-Serif" font-size="12.00" fill="#000000">+ BadFunctionArguments()</text>
<text text-anchor="start" x="8" y="-6.9" font-family="Helvetica,sans-Serif" font-size="12.00" fill="#000000">+ what()</text>
</g>
<!-- Node6 -->
<g id="node2" class="node">
<title>Node6</title>
<g id="a_node2"><a xlink:href="classCore_1_1Error_1_1Runtime.html" target="_top" xlink:title="Any runtime error. ">
<polygon fill="#ffffff" stroke="#000000" points="16.5205,-121.5 16.5205,-193.5 143.2158,-193.5 143.2158,-121.5 16.5205,-121.5"/>
<text text-anchor="middle" x="79.8682" y="-179.9" font-family="Helvetica,sans-Serif" font-size="12.00" fill="#000000">Core::Error::Runtime</text>
<polyline fill="none" stroke="#000000" points="16.5205,-173.5 143.2158,-173.5 "/>
<text text-anchor="middle" x="79.8682" y="-159.9" font-family="Helvetica,sans-Serif" font-size="12.00" fill="#000000"> </text>
<polyline fill="none" stroke="#000000" points="16.5205,-153.5 143.2158,-153.5 "/>
<text text-anchor="start" x="24.5205" y="-139.9" font-family="Helvetica,sans-Serif" font-size="12.00" fill="#000000">+ Runtime()</text>
<text text-anchor="start" x="24.5205" y="-127.9" font-family="Helvetica,sans-Serif" font-size="12.00" fill="#000000">+ what()</text>
</a>
</g>
</g>
<!-- Node6&#45;&gt;Node5 -->
<g id="edge1" class="edge">
<title>Node6&#45;&gt;Node5</title>
<path fill="none" stroke="#191970" d="M79.8682,-111.3764C79.8682,-102.6264 79.8682,-93.5102 79.8682,-84.8828"/>
<polygon fill="none" stroke="#191970" points="76.3683,-111.4288 79.8682,-121.4288 83.3683,-111.4288 76.3683,-111.4288"/>
</g>
<!-- Node7 -->
<g id="node3" class="node">
<title>Node7</title>
<g id="a_node3"><a xlink:href="classCore_1_1Error_1_1General.html" target="_top" xlink:title="The base class of all exceptions. ">
<polygon fill="#ffffff" stroke="#000000" points="17.5166,-230.5 17.5166,-326.5 142.2197,-326.5 142.2197,-230.5 17.5166,-230.5"/>
<text text-anchor="middle" x="79.8682" y="-312.9" font-family="Helvetica,sans-Serif" font-size="12.00" fill="#000000">Core::Error::General</text>
<polyline fill="none" stroke="#000000" points="17.5166,-306.5 142.2197,-306.5 "/>
<text text-anchor="start" x="25.5166" y="-292.9" font-family="Helvetica,sans-Serif" font-size="12.00" fill="#000000">&#45; message</text>
<polyline fill="none" stroke="#000000" points="17.5166,-286.5 142.2197,-286.5 "/>
<text text-anchor="start" x="25.5166" y="-272.9" font-family="Helvetica,sans-Serif" font-size="12.00" fill="#000000">+ General()</text>
<text text-anchor="start" x="25.5166" y="-260.9" font-family="Helvetica,sans-Serif" font-size="12.00" fill="#000000">+ what()</text>
<text text-anchor="start" x="25.5166" y="-248.9" font-family="Helvetica,sans-Serif" font-size="12.00" fill="#000000">+ get_message()</text>
<text text-anchor="start" x="25.5166" y="-236.9" font-family="Helvetica,sans-Serif" font-size="12.00" fill="#000000">+ ~General()</text>
</a>
</g>
</g>
<!-- Node7&#45;&gt;Node6 -->
<g id="edge2" class="edge">
<title>Node7&#45;&gt;Node6</title>
<path fill="none" stroke="#191970" d="M79.8682,-220.1597C79.8682,-211.0889 79.8682,-201.9532 79.8682,-193.5697"/>
<polygon fill="none" stroke="#191970" points="76.3683,-220.3299 79.8682,-230.3299 83.3683,-220.33 76.3683,-220.3299"/>
</g>
<!-- Node8 -->
<g id="node4" class="node">
<title>Node8</title>
<polygon fill="#ffffff" stroke="#bfbfbf" points="34.8457,-363.5 34.8457,-423.5 124.8906,-423.5 124.8906,-363.5 34.8457,-363.5"/>
<text text-anchor="middle" x="79.8682" y="-409.9" font-family="Helvetica,sans-Serif" font-size="12.00" fill="#000000">std::exception</text>
<polyline fill="none" stroke="#bfbfbf" points="34.8457,-403.5 124.8906,-403.5 "/>
<text text-anchor="middle" x="79.8682" y="-389.9" font-family="Helvetica,sans-Serif" font-size="12.00" fill="#000000"> </text>
<polyline fill="none" stroke="#bfbfbf" points="34.8457,-383.5 124.8906,-383.5 "/>
<text text-anchor="middle" x="79.8682" y="-369.9" font-family="Helvetica,sans-Serif" font-size="12.00" fill="#000000"> </text>
</g>
<!-- Node8&#45;&gt;Node7 -->
<g id="edge3" class="edge">
<title>Node8&#45;&gt;Node7</title>
<path fill="none" stroke="#191970" d="M79.8682,-353.1983C79.8682,-344.655 79.8682,-335.5538 79.8682,-326.7497"/>
<polygon fill="none" stroke="#191970" points="76.3683,-353.2851 79.8682,-363.2851 83.3683,-353.2851 76.3683,-353.2851"/>
</g>
</g>
</svg>
