<?xml version="1.0" encoding="UTF-8" standalone="no"?>
<!DOCTYPE svg PUBLIC "-//W3C//DTD SVG 1.1//EN"
 "http://www.w3.org/Graphics/SVG/1.1/DTD/svg11.dtd">
<!-- Generated by graphviz version 2.40.1 (20161225.0304)
 -->
<!-- Title: Core::Error::Runtime Pages: 1 -->
<!--zoomable 541 -->
<svg id="main" version="1.1" xmlns="http://www.w3.org/2000/svg" xmlns:xlink="http://www.w3.org/1999/xlink" xml:space="preserve" onload="init(evt)">
<style type="text/css"><![CDATA[
.edge:hover path { stroke: red; }
.edge:hover polygon { stroke: red; fill: red; }
]]></style>
<script type="text/javascript"><![CDATA[
var edges = document.getElementsByTagName('g');
if (edges && edges.length) {
  for (var i=0;i<edges.length;i++) {
    if (edges[i].id.substr(0,4)=='edge') {
      edges[i].setAttribute('class','edge');
    }
  }
}
]]></script>
        <defs>
                <circle id="rim" cx="0" cy="0" r="7"/>
                <circle id="rim2" cx="0" cy="0" r="3.5"/>
                <g id="zoomPlus">
                        <use xlink:href="#rim" fill="#404040">
                                <set attributeName="fill" to="#808080" begin="zoomplus.mouseover" end="zoomplus.mouseout"/>
                        </use>
                        <path d="M-4,0h8M0,-4v8" fill="none" stroke="white" stroke-width="1.5" pointer-events="none"/>
                </g>
                <g id="zoomMin">
                        <use xlink:href="#rim" fill="#404040">
                                <set attributeName="fill" to="#808080" begin="zoomminus.mouseover" end="zoomminus.mouseout"/>
                        </use>
                        <path d="M-4,0h8" fill="none" stroke="white" stroke-width="1.5" pointer-events="none"/>
                </g>
                <g id="dirArrow">
                        <path fill="none" stroke="white" stroke-width="1.5" d="M0,-3.0v7 M-2.5,-0.5L0,-3.0L2.5,-0.5"/>
                </g>
               <g id="resetDef">
                       <use xlink:href="#rim2" fill="#404040">
                               <set attributeName="fill" to="#808080" begin="reset.mouseover" end="reset.mouseout"/>
                       </use>
               </g>
        </defs>

<script type="text/javascript">
var viewWidth = 1196;
var viewHeight = 541;
var sectionId = 'dynsection-0';
</script>
<script xlink:href="svgpan.js"/>
<svg id="graph" class="graph">
<g id="viewport">
<title>Core::Error::Runtime</title>
<polygon fill="#ffffff" stroke="transparent" points="-4,4 -4,-537 1192.0625,-537 1192.0625,4 -4,4"/>
<!-- Node0 -->
<g id="node1" class="node">
<title>Node0</title>
<polygon fill="#bfbfbf" stroke="#000000" points="516.0166,-230.5 516.0166,-302.5 642.7119,-302.5 642.7119,-230.5 516.0166,-230.5"/>
<text text-anchor="middle" x="579.3643" y="-288.9" font-family="Helvetica,sans-Serif" font-size="12.00" fill="#000000">Core::Error::Runtime</text>
<polyline fill="none" stroke="#000000" points="516.0166,-282.5 642.7119,-282.5 "/>
<text text-anchor="middle" x="579.3643" y="-268.9" font-family="Helvetica,sans-Serif" font-size="12.00" fill="#000000"> </text>
<polyline fill="none" stroke="#000000" points="516.0166,-262.5 642.7119,-262.5 "/>
<text text-anchor="start" x="524.0166" y="-248.9" font-family="Helvetica,sans-Serif" font-size="12.00" fill="#000000">+ Runtime()</text>
<text text-anchor="start" x="524.0166" y="-236.9" font-family="Helvetica,sans-Serif" font-size="12.00" fill="#000000">+ what()</text>
</g>
<!-- Node3 -->
<g id="node4" class="node">
<title>Node3</title>
<g id="a_node4"><a xlink:href="classCore_1_1Error_1_1BadFunctionArguments.html" target="_top" xlink:title="Function arguments do not satisfy some requirement. ">
<polygon fill="#ffffff" stroke="#000000" points="2.4961,-109.5 2.4961,-193.5 162.2324,-193.5 162.2324,-109.5 2.4961,-109.5"/>
<text text-anchor="start" x="10.4961" y="-179.9" font-family="Helvetica,sans-Serif" font-size="12.00" fill="#000000">Core::Error::BadFunction</text>
<text text-anchor="middle" x="82.3643" y="-167.9" font-family="Helvetica,sans-Serif" font-size="12.00" fill="#000000">Arguments</text>
<polyline fill="none" stroke="#000000" points="2.4961,-161.5 162.2324,-161.5 "/>
<text text-anchor="middle" x="82.3643" y="-147.9" font-family="Helvetica,sans-Serif" font-size="12.00" fill="#000000"> </text>
<polyline fill="none" stroke="#000000" points="2.4961,-141.5 162.2324,-141.5 "/>
<text text-anchor="start" x="10.4961" y="-127.9" font-family="Helvetica,sans-Serif" font-size="12.00" fill="#000000">+ BadFunctionArguments()</text>
<text text-anchor="start" x="10.4961" y="-115.9" font-family="Helvetica,sans-Serif" font-size="12.00" fill="#000000">+ what()</text>
</a>
</g>
</g>
<!-- Node0&#45;&gt;Node3 -->
<g id="edge3" class="edge">
<title>Node0&#45;&gt;Node3</title>
<path fill="none" stroke="#191970" d="M505.8103,-259.468C422.9889,-250.1723 285.1222,-230.5257 171.3643,-194 168.4297,-193.0578 165.4679,-192.0379 162.497,-190.9561"/>
<polygon fill="none" stroke="#191970" points="505.5573,-262.9612 515.8805,-260.5776 506.324,-256.0033 505.5573,-262.9612"/>
</g>
<!-- Node5 -->
<g id="node6" class="node">
<title>Node5</title>
<g id="a_node6"><a xlink:href="classCore_1_1Error_1_1CommandLine.html" target="_top" xlink:title="Error related to parsing the command line. ">
<polygon fill="#ffffff" stroke="#000000" points="180.3379,-115.5 180.3379,-187.5 340.3906,-187.5 340.3906,-115.5 180.3379,-115.5"/>
<text text-anchor="middle" x="260.3643" y="-173.9" font-family="Helvetica,sans-Serif" font-size="12.00" fill="#000000">Core::Error::CommandLine</text>
<polyline fill="none" stroke="#000000" points="180.3379,-167.5 340.3906,-167.5 "/>
<text text-anchor="middle" x="260.3643" y="-153.9" font-family="Helvetica,sans-Serif" font-size="12.00" fill="#000000"> </text>
<polyline fill="none" stroke="#000000" points="180.3379,-147.5 340.3906,-147.5 "/>
<text text-anchor="start" x="188.3379" y="-133.9" font-family="Helvetica,sans-Serif" font-size="12.00" fill="#000000">+ CommandLine()</text>
<text text-anchor="start" x="188.3379" y="-121.9" font-family="Helvetica,sans-Serif" font-size="12.00" fill="#000000">+ what()</text>
</a>
</g>
</g>
<!-- Node0&#45;&gt;Node5 -->
<g id="edge5" class="edge">
<title>Node0&#45;&gt;Node5</title>
<path fill="none" stroke="#191970" d="M505.7631,-246.1596C460.1671,-232.8578 400.7126,-214.2378 349.3643,-194 344.2666,-191.9909 339.0528,-189.82 333.8314,-187.5591"/>
<polygon fill="none" stroke="#191970" points="504.9885,-249.579 515.5675,-249.0003 506.9366,-242.8555 504.9885,-249.579"/>
</g>
<!-- Node6 -->
<g id="node7" class="node">
<title>Node6</title>
<g id="a_node7"><a xlink:href="classCore_1_1Error_1_1GSLZeroStep.html" target="_top" xlink:title="GSL step size decreased below machine precision. ">
<polygon fill="#ffffff" stroke="#000000" points="358.6729,-115.5 358.6729,-187.5 514.0557,-187.5 514.0557,-115.5 358.6729,-115.5"/>
<text text-anchor="middle" x="436.3643" y="-173.9" font-family="Helvetica,sans-Serif" font-size="12.00" fill="#000000">Core::Error::GSLZeroStep</text>
<polyline fill="none" stroke="#000000" points="358.6729,-167.5 514.0557,-167.5 "/>
<text text-anchor="middle" x="436.3643" y="-153.9" font-family="Helvetica,sans-Serif" font-size="12.00" fill="#000000"> </text>
<polyline fill="none" stroke="#000000" points="358.6729,-147.5 514.0557,-147.5 "/>
<text text-anchor="start" x="366.6729" y="-133.9" font-family="Helvetica,sans-Serif" font-size="12.00" fill="#000000">+ GSLZeroStep()</text>
<text text-anchor="start" x="366.6729" y="-121.9" font-family="Helvetica,sans-Serif" font-size="12.00" fill="#000000">+ what()</text>
</a>
</g>
</g>
<!-- Node0&#45;&gt;Node6 -->
<g id="edge6" class="edge">
<title>Node0&#45;&gt;Node6</title>
<path fill="none" stroke="#191970" d="M526.4495,-223.9462C511.6982,-212.0832 495.8127,-199.3082 481.5505,-187.8386"/>
<polygon fill="none" stroke="#191970" points="524.5244,-226.8894 534.5105,-230.4288 528.9112,-221.4344 524.5244,-226.8894"/>
</g>
<!-- Node7 -->
<g id="node8" class="node">
<title>Node7</title>
<g id="a_node8"><a xlink:href="classCore_1_1Error_1_1IO.html" target="_top" xlink:title="Input/Output exception. ">
<polygon fill="#ffffff" stroke="#000000" points="532.0244,-115.5 532.0244,-187.5 626.7041,-187.5 626.7041,-115.5 532.0244,-115.5"/>
<text text-anchor="middle" x="579.3643" y="-173.9" font-family="Helvetica,sans-Serif" font-size="12.00" fill="#000000">Core::Error::IO</text>
<polyline fill="none" stroke="#000000" points="532.0244,-167.5 626.7041,-167.5 "/>
<text text-anchor="middle" x="579.3643" y="-153.9" font-family="Helvetica,sans-Serif" font-size="12.00" fill="#000000"> </text>
<polyline fill="none" stroke="#000000" points="532.0244,-147.5 626.7041,-147.5 "/>
<text text-anchor="start" x="540.0244" y="-133.9" font-family="Helvetica,sans-Serif" font-size="12.00" fill="#000000">+ IO()</text>
<text text-anchor="start" x="540.0244" y="-121.9" font-family="Helvetica,sans-Serif" font-size="12.00" fill="#000000">+ what()</text>
</a>
</g>
</g>
<!-- Node0&#45;&gt;Node7 -->
<g id="edge7" class="edge">
<title>Node0&#45;&gt;Node7</title>
<path fill="none" stroke="#191970" d="M579.3643,-220.2953C579.3643,-209.4944 579.3643,-198.14 579.3643,-187.8386"/>
<polygon fill="none" stroke="#191970" points="575.8644,-220.4288 579.3643,-230.4288 582.8644,-220.4288 575.8644,-220.4288"/>
</g>
<!-- Node8 -->
<g id="node9" class="node">
<title>Node8</title>
<g id="a_node9"><a xlink:href="classCore_1_1Error_1_1NonGSLZeroStep.html" target="_top" xlink:title="Maximum allowed step size decreased below machine precision. ">
<polygon fill="#ffffff" stroke="#000000" points="644.666,-115.5 644.666,-187.5 822.0625,-187.5 822.0625,-115.5 644.666,-115.5"/>
<text text-anchor="middle" x="733.3643" y="-173.9" font-family="Helvetica,sans-Serif" font-size="12.00" fill="#000000">Core::Error::NonGSLZeroStep</text>
<polyline fill="none" stroke="#000000" points="644.666,-167.5 822.0625,-167.5 "/>
<text text-anchor="middle" x="733.3643" y="-153.9" font-family="Helvetica,sans-Serif" font-size="12.00" fill="#000000"> </text>
<polyline fill="none" stroke="#000000" points="644.666,-147.5 822.0625,-147.5 "/>
<text text-anchor="start" x="652.666" y="-133.9" font-family="Helvetica,sans-Serif" font-size="12.00" fill="#000000">+ NonGSLZeroStep()</text>
<text text-anchor="start" x="652.666" y="-121.9" font-family="Helvetica,sans-Serif" font-size="12.00" fill="#000000">+ what()</text>
</a>
</g>
</g>
<!-- Node0&#45;&gt;Node8 -->
<g id="edge8" class="edge">
<title>Node0&#45;&gt;Node8</title>
<path fill="none" stroke="#191970" d="M635.9491,-224.2451C652.039,-212.2299 669.4108,-199.2574 684.967,-187.6408"/>
<polygon fill="none" stroke="#191970" points="633.5866,-221.6411 627.6683,-230.4288 637.775,-227.2498 633.5866,-221.6411"/>
</g>
<!-- Node9 -->
<g id="node10" class="node">
<title>Node9</title>
<g id="a_node10"><a xlink:href="classCore_1_1Error_1_1NotImplemented.html" target="_top" xlink:title="Encountered an unimplemented feature. ">
<polygon fill="#ffffff" stroke="#000000" points="840.3369,-115.5 840.3369,-187.5 1010.3916,-187.5 1010.3916,-115.5 840.3369,-115.5"/>
<text text-anchor="middle" x="925.3643" y="-173.9" font-family="Helvetica,sans-Serif" font-size="12.00" fill="#000000">Core::Error::NotImplemented</text>
<polyline fill="none" stroke="#000000" points="840.3369,-167.5 1010.3916,-167.5 "/>
<text text-anchor="middle" x="925.3643" y="-153.9" font-family="Helvetica,sans-Serif" font-size="12.00" fill="#000000"> </text>
<polyline fill="none" stroke="#000000" points="840.3369,-147.5 1010.3916,-147.5 "/>
<text text-anchor="start" x="848.3369" y="-133.9" font-family="Helvetica,sans-Serif" font-size="12.00" fill="#000000">+ NotImplemented()</text>
<text text-anchor="start" x="848.3369" y="-121.9" font-family="Helvetica,sans-Serif" font-size="12.00" fill="#000000">+ what()</text>
</a>
</g>
</g>
<!-- Node0&#45;&gt;Node9 -->
<g id="edge9" class="edge">
<title>Node0&#45;&gt;Node9</title>
<path fill="none" stroke="#191970" d="M652.7358,-248.3905C703.499,-235.1351 772.2804,-215.7266 831.3643,-194 836.8273,-191.9911 842.4183,-189.8073 848.0167,-187.5254"/>
<polygon fill="none" stroke="#191970" points="651.6331,-245.0606 642.8316,-250.9584 653.39,-251.8366 651.6331,-245.0606"/>
</g>
<!-- Node10 -->
<g id="node11" class="node">
<title>Node10</title>
<g id="a_node11"><a xlink:href="classCore_1_1Error_1_1PathNotFound.html" target="_top" xlink:title="Exception indicating that a file or a directory was not found. ">
<polygon fill="#ffffff" stroke="#000000" points="1028.666,-115.5 1028.666,-187.5 1188.0625,-187.5 1188.0625,-115.5 1028.666,-115.5"/>
<text text-anchor="middle" x="1108.3643" y="-173.9" font-family="Helvetica,sans-Serif" font-size="12.00" fill="#000000">Core::Error::PathNotFound</text>
<polyline fill="none" stroke="#000000" points="1028.666,-167.5 1188.0625,-167.5 "/>
<text text-anchor="start" x="1036.666" y="-153.9" font-family="Helvetica,sans-Serif" font-size="12.00" fill="#000000">&#45; directory</text>
<polyline fill="none" stroke="#000000" points="1028.666,-147.5 1188.0625,-147.5 "/>
<text text-anchor="start" x="1036.666" y="-133.9" font-family="Helvetica,sans-Serif" font-size="12.00" fill="#000000">+ PathNotFound()</text>
<text text-anchor="start" x="1036.666" y="-121.9" font-family="Helvetica,sans-Serif" font-size="12.00" fill="#000000">+ what()</text>
</a>
</g>
</g>
<!-- Node0&#45;&gt;Node10 -->
<g id="edge10" class="edge">
<title>Node0&#45;&gt;Node10</title>
<path fill="none" stroke="#191970" d="M653.1829,-260.7387C741.8037,-252.3713 894.1447,-233.3405 1019.3643,-194 1025.245,-192.1524 1031.2319,-189.984 1037.1786,-187.6216"/>
<polygon fill="none" stroke="#191970" points="652.5972,-257.2779 642.9617,-261.6831 653.2413,-264.2482 652.5972,-257.2779"/>
</g>
<!-- Node1 -->
<g id="node2" class="node">
<title>Node1</title>
<g id="a_node2"><a xlink:href="classCore_1_1Error_1_1General.html" target="_top" xlink:title="The base class of all exceptions. ">
<polygon fill="#ffffff" stroke="#000000" points="517.0127,-339.5 517.0127,-435.5 641.7158,-435.5 641.7158,-339.5 517.0127,-339.5"/>
<text text-anchor="middle" x="579.3643" y="-421.9" font-family="Helvetica,sans-Serif" font-size="12.00" fill="#000000">Core::Error::General</text>
<polyline fill="none" stroke="#000000" points="517.0127,-415.5 641.7158,-415.5 "/>
<text text-anchor="start" x="525.0127" y="-401.9" font-family="Helvetica,sans-Serif" font-size="12.00" fill="#000000">&#45; message</text>
<polyline fill="none" stroke="#000000" points="517.0127,-395.5 641.7158,-395.5 "/>
<text text-anchor="start" x="525.0127" y="-381.9" font-family="Helvetica,sans-Serif" font-size="12.00" fill="#000000">+ General()</text>
<text text-anchor="start" x="525.0127" y="-369.9" font-family="Helvetica,sans-Serif" font-size="12.00" fill="#000000">+ what()</text>
<text text-anchor="start" x="525.0127" y="-357.9" font-family="Helvetica,sans-Serif" font-size="12.00" fill="#000000">+ get_message()</text>
<text text-anchor="start" x="525.0127" y="-345.9" font-family="Helvetica,sans-Serif" font-size="12.00" fill="#000000">+ ~General()</text>
</a>
</g>
</g>
<!-- Node1&#45;&gt;Node0 -->
<g id="edge1" class="edge">
<title>Node1&#45;&gt;Node0</title>
<path fill="none" stroke="#191970" d="M579.3643,-329.1597C579.3643,-320.0889 579.3643,-310.9532 579.3643,-302.5697"/>
<polygon fill="none" stroke="#191970" points="575.8644,-329.3299 579.3643,-339.3299 582.8644,-329.33 575.8644,-329.3299"/>
</g>
<!-- Node2 -->
<g id="node3" class="node">
<title>Node2</title>
<polygon fill="#ffffff" stroke="#bfbfbf" points="534.3418,-472.5 534.3418,-532.5 624.3867,-532.5 624.3867,-472.5 534.3418,-472.5"/>
<text text-anchor="middle" x="579.3643" y="-518.9" font-family="Helvetica,sans-Serif" font-size="12.00" fill="#000000">std::exception</text>
<polyline fill="none" stroke="#bfbfbf" points="534.3418,-512.5 624.3867,-512.5 "/>
<text text-anchor="middle" x="579.3643" y="-498.9" font-family="Helvetica,sans-Serif" font-size="12.00" fill="#000000"> </text>
<polyline fill="none" stroke="#bfbfbf" points="534.3418,-492.5 624.3867,-492.5 "/>
<text text-anchor="middle" x="579.3643" y="-478.9" font-family="Helvetica,sans-Serif" font-size="12.00" fill="#000000"> </text>
</g>
<!-- Node2&#45;&gt;Node1 -->
<g id="edge2" class="edge">
<title>Node2&#45;&gt;Node1</title>
<path fill="none" stroke="#191970" d="M579.3643,-462.1983C579.3643,-453.655 579.3643,-444.5538 579.3643,-435.7497"/>
<polygon fill="none" stroke="#191970" points="575.8644,-462.2851 579.3643,-472.2851 582.8644,-462.2851 575.8644,-462.2851"/>
</g>
<!-- Node4 -->
<g id="node5" class="node">
<title>Node4</title>
<g id="a_node5"><a xlink:href="classCore_1_1Error_1_1BadStellarZone.html" target="_top" xlink:title="Exception indicating unrecognized or unsuitable stellar zone. ">
<polygon fill="#ffffff" stroke="#000000" points="0,-.5 0,-72.5 164.7285,-72.5 164.7285,-.5 0,-.5"/>
<text text-anchor="middle" x="82.3643" y="-58.9" font-family="Helvetica,sans-Serif" font-size="12.00" fill="#000000">Core::Error::BadStellarZone</text>
<polyline fill="none" stroke="#000000" points="0,-52.5 164.7285,-52.5 "/>
<text text-anchor="middle" x="82.3643" y="-38.9" font-family="Helvetica,sans-Serif" font-size="12.00" fill="#000000"> </text>
<polyline fill="none" stroke="#000000" points="0,-32.5 164.7285,-32.5 "/>
<text text-anchor="start" x="8" y="-18.9" font-family="Helvetica,sans-Serif" font-size="12.00" fill="#000000">+ BadStellarZone()</text>
<text text-anchor="start" x="8" y="-6.9" font-family="Helvetica,sans-Serif" font-size="12.00" fill="#000000">+ what()</text>
</a>
</g>
</g>
<!-- Node3&#45;&gt;Node4 -->
<g id="edge4" class="edge">
<title>Node3&#45;&gt;Node4</title>
<path fill="none" stroke="#191970" d="M82.3643,-99.2757C82.3643,-90.2613 82.3643,-81.0726 82.3643,-72.6057"/>
<polygon fill="none" stroke="#191970" points="78.8644,-99.3312 82.3643,-109.3312 85.8644,-99.3313 78.8644,-99.3312"/>
</g>
</g>
</svg>
        <g id="navigator" transform="translate(0 0)" fill="#404254">
                <rect fill="#f2f5e9" fill-opacity="0.5" stroke="#606060" stroke-width=".5" x="0" y="0" width="60" height="60"/>
                <use id="zoomplus" xlink:href="#zoomPlus" x="17" y="9" onmousedown="handleZoom(evt,'in')"/>
                <use id="zoomminus" xlink:href="#zoomMin" x="42" y="9" onmousedown="handleZoom(evt,'out')"/>
                <use id="reset" xlink:href="#resetDef" x="30" y="36" onmousedown="handleReset()"/>
                <g id="arrowUp" xlink:href="#dirArrow" transform="translate(30 24)" onmousedown="handlePan(0,-1)">
                  <use xlink:href="#rim" fill="#404040">
                        <set attributeName="fill" to="#808080" begin="arrowUp.mouseover" end="arrowUp.mouseout"/>
                  </use>
                  <path fill="none" stroke="white" stroke-width="1.5" d="M0,-3.0v7 M-2.5,-0.5L0,-3.0L2.5,-0.5"/>
                </g>
                <g id="arrowRight" xlink:href="#dirArrow" transform="rotate(90) translate(36 -43)" onmousedown="handlePan(1,0)">
                  <use xlink:href="#rim" fill="#404040">
                        <set attributeName="fill" to="#808080" begin="arrowRight.mouseover" end="arrowRight.mouseout"/>
                  </use>
                  <path fill="none" stroke="white" stroke-width="1.5" d="M0,-3.0v7 M-2.5,-0.5L0,-3.0L2.5,-0.5"/>
                </g>
                <g id="arrowDown" xlink:href="#dirArrow" transform="rotate(180) translate(-30 -48)" onmousedown="handlePan(0,1)">
                  <use xlink:href="#rim" fill="#404040">
                        <set attributeName="fill" to="#808080" begin="arrowDown.mouseover" end="arrowDown.mouseout"/>
                  </use>
                  <path fill="none" stroke="white" stroke-width="1.5" d="M0,-3.0v7 M-2.5,-0.5L0,-3.0L2.5,-0.5"/>
                </g>
                <g id="arrowLeft" xlink:href="#dirArrow" transform="rotate(270) translate(-36 17)" onmousedown="handlePan(-1,0)">
                  <use xlink:href="#rim" fill="#404040">
                        <set attributeName="fill" to="#808080" begin="arrowLeft.mouseover" end="arrowLeft.mouseout"/>
                  </use>
                  <path fill="none" stroke="white" stroke-width="1.5" d="M0,-3.0v7 M-2.5,-0.5L0,-3.0L2.5,-0.5"/>
                </g>
        </g>
        <svg viewBox="0 0 15 15" width="100%" height="30px" preserveAspectRatio="xMaxYMin meet">
         <g id="arrow_out" transform="scale(0.3 0.3)">
          <a xlink:href="classCore_1_1Error_1_1Runtime__inherit__graph_org.svg" target="_base">
           <rect id="button" ry="5" rx="5" y="6" x="6" height="38" width="38"
                fill="#f2f5e9" fill-opacity="0.5" stroke="#606060" stroke-width="1.0"/>
           <path id="arrow"
             d="M 11.500037,31.436501 C 11.940474,20.09759 22.043105,11.32322 32.158766,21.979434 L 37.068811,17.246167 C 37.068811,17.246167 37.088388,32 37.088388,32 L 22.160133,31.978069 C 22.160133,31.978069 26.997745,27.140456 26.997745,27.140456 C 18.528582,18.264221 13.291696,25.230495 11.500037,31.436501 z"
             style="fill:#404040;"/>
          </a>
         </g>
        </svg>
</svg>
