<?xml version="1.0" encoding="UTF-8" standalone="no"?>
<!DOCTYPE svg PUBLIC "-//W3C//DTD SVG 1.1//EN"
 "http://www.w3.org/Graphics/SVG/1.1/DTD/svg11.dtd">
<!-- Generated by graphviz version 2.40.1 (20161225.0304)
 -->
<!-- Title: /home/kpenev/projects/git/poet/poet_src/unit_tests/testEvolve/ConstPhaseLagZone.h Pages: 1 -->
<!--zoomable 514 -->
<svg id="main" version="1.1" xmlns="http://www.w3.org/2000/svg" xmlns:xlink="http://www.w3.org/1999/xlink" xml:space="preserve" onload="init(evt)">
<style type="text/css"><![CDATA[
.edge:hover path { stroke: red; }
.edge:hover polygon { stroke: red; fill: red; }
]]></style>
<script type="text/javascript"><![CDATA[
var edges = document.getElementsByTagName('g');
if (edges && edges.length) {
  for (var i=0;i<edges.length;i++) {
    if (edges[i].id.substr(0,4)=='edge') {
      edges[i].setAttribute('class','edge');
    }
  }
}
]]></script>
        <defs>
                <circle id="rim" cx="0" cy="0" r="7"/>
                <circle id="rim2" cx="0" cy="0" r="3.5"/>
                <g id="zoomPlus">
                        <use xlink:href="#rim" fill="#404040">
                                <set attributeName="fill" to="#808080" begin="zoomplus.mouseover" end="zoomplus.mouseout"/>
                        </use>
                        <path d="M-4,0h8M0,-4v8" fill="none" stroke="white" stroke-width="1.5" pointer-events="none"/>
                </g>
                <g id="zoomMin">
                        <use xlink:href="#rim" fill="#404040">
                                <set attributeName="fill" to="#808080" begin="zoomminus.mouseover" end="zoomminus.mouseout"/>
                        </use>
                        <path d="M-4,0h8" fill="none" stroke="white" stroke-width="1.5" pointer-events="none"/>
                </g>
                <g id="dirArrow">
                        <path fill="none" stroke="white" stroke-width="1.5" d="M0,-3.0v7 M-2.5,-0.5L0,-3.0L2.5,-0.5"/>
                </g>
               <g id="resetDef">
                       <use xlink:href="#rim2" fill="#404040">
                               <set attributeName="fill" to="#808080" begin="reset.mouseover" end="reset.mouseout"/>
                       </use>
               </g>
        </defs>

<script type="text/javascript">
var viewWidth = 2373;
var viewHeight = 514;
var sectionId = 'dynsection-0';
</script>
<script xlink:href="svgpan.js"/>
<svg id="graph" class="graph">
<g id="viewport">
<title>/home/kpenev/projects/git/poet/poet_src/unit_tests/testEvolve/ConstPhaseLagZone.h</title>
<polygon fill="#ffffff" stroke="transparent" points="-4,4 -4,-510 2369.0054,-510 2369.0054,4 -4,4"/>
<!-- Node0 -->
<g id="node1" class="node">
<title>Node0</title>
<polygon fill="#bfbfbf" stroke="#000000" points="1304,-445.5 1304,-505.5 1500,-505.5 1500,-445.5 1304,-445.5"/>
<text text-anchor="start" x="1312" y="-491.9" font-family="Helvetica,sans-Serif" font-size="12.00" fill="#000000">/home/kpenev/projects</text>
<text text-anchor="start" x="1312" y="-478.9" font-family="Helvetica,sans-Serif" font-size="12.00" fill="#000000">/git/poet/poet_src/unit</text>
<text text-anchor="start" x="1312" y="-465.9" font-family="Helvetica,sans-Serif" font-size="12.00" fill="#000000">_tests/testEvolve/ConstPhaseLag</text>
<text text-anchor="middle" x="1402" y="-452.9" font-family="Helvetica,sans-Serif" font-size="12.00" fill="#000000">Zone.h</text>
</g>
<!-- Node1 -->
<g id="node2" class="node">
<title>Node1</title>
<g id="a_node2"><a xlink:href="PolynomialEvolutionZone_8h.html" target="_top" xlink:title="Declare a dissipative zone class where the mass and radius evolution are given by a polynomial...">
<polygon fill="#ffffff" stroke="#000000" points="1320,-387.5 1320,-408.5 1484,-408.5 1484,-387.5 1320,-387.5"/>
<text text-anchor="middle" x="1402" y="-394.9" font-family="Helvetica,sans-Serif" font-size="12.00" fill="#000000">PolynomialEvolutionZone.h</text>
</a>
</g>
</g>
<!-- Node0&#45;&gt;Node1 -->
<g id="edge1" class="edge">
<title>Node0&#45;&gt;Node1</title>
<path fill="none" stroke="#191970" d="M1402,-445.3146C1402,-436.4318 1402,-426.9169 1402,-418.7662"/>
<polygon fill="#191970" stroke="#191970" points="1405.5001,-418.6845 1402,-408.6845 1398.5001,-418.6846 1405.5001,-418.6845"/>
</g>
<!-- Node2 -->
<g id="node3" class="node">
<title>Node2</title>
<g id="a_node3"><a xlink:href="DissipatingZone_8h.html" target="_top" xlink:title="Declares a class representing one zone of a body dissipative to tidal distortions. ">
<polygon fill="#ffffff" stroke="#000000" points="1115,-316.5 1115,-350.5 1249,-350.5 1249,-316.5 1115,-316.5"/>
<text text-anchor="start" x="1123" y="-336.9" font-family="Helvetica,sans-Serif" font-size="12.00" fill="#000000">../../Evolve/Dissipating</text>
<text text-anchor="middle" x="1182" y="-323.9" font-family="Helvetica,sans-Serif" font-size="12.00" fill="#000000">Zone.h</text>
</a>
</g>
</g>
<!-- Node1&#45;&gt;Node2 -->
<g id="edge2" class="edge">
<title>Node1&#45;&gt;Node2</title>
<path fill="none" stroke="#191970" d="M1366.1636,-387.4934C1334.8682,-378.3182 1288.5817,-364.7478 1250.2426,-353.5075"/>
<polygon fill="#191970" stroke="#191970" points="1250.752,-350.0096 1240.1712,-350.5547 1248.7826,-356.7268 1250.752,-350.0096"/>
</g>
<!-- Node19 -->
<g id="node20" class="node">
<title>Node19</title>
<polygon fill="#ffffff" stroke="#bfbfbf" points="2261,-71.5 2261,-92.5 2351,-92.5 2351,-71.5 2261,-71.5"/>
<text text-anchor="middle" x="2306" y="-78.9" font-family="Helvetica,sans-Serif" font-size="12.00" fill="#000000">gsl/gsl_poly.h</text>
</g>
<!-- Node1&#45;&gt;Node19 -->
<g id="edge69" class="edge">
<title>Node1&#45;&gt;Node19</title>
<path fill="none" stroke="#191970" d="M1484.231,-393.9608C1633.0981,-384.3857 1932,-353.7932 1932,-262.5 1932,-262.5 1932,-262.5 1932,-198 1932,-165.0222 2146.8661,-115.3934 2250.8771,-93.3013"/>
<polygon fill="#191970" stroke="#191970" points="2251.8258,-96.6782 2260.8869,-91.1875 2250.3795,-89.8292 2251.8258,-96.6782"/>
</g>
<!-- Node3 -->
<g id="node4" class="node">
<title>Node3</title>
<g id="a_node4"><a xlink:href="ZoneOrientation_8h.html" target="_top" xlink:title="Declares a class for orientations of zones of DissipatingBody objects. ">
<polygon fill="#ffffff" stroke="#000000" points="1481.5,-187.5 1481.5,-208.5 1594.5,-208.5 1594.5,-187.5 1481.5,-187.5"/>
<text text-anchor="middle" x="1538" y="-194.9" font-family="Helvetica,sans-Serif" font-size="12.00" fill="#000000">ZoneOrientation.h</text>
</a>
</g>
</g>
<!-- Node2&#45;&gt;Node3 -->
<g id="edge3" class="edge">
<title>Node2&#45;&gt;Node3</title>
<path fill="none" stroke="#191970" d="M1249.3602,-331.488C1336.2929,-327.4686 1480.9203,-315.4944 1519,-280 1535.632,-264.4972 1539.0654,-237.549 1539.2001,-218.7943"/>
<polygon fill="#191970" stroke="#191970" points="1542.6945,-218.5139 1538.9597,-208.5992 1535.6965,-218.6789 1542.6945,-218.5139"/>
</g>
<!-- Node4 -->
<g id="node5" class="node">
<title>Node4</title>
<g id="a_node5"><a xlink:href="SharedLibraryExportMacros_8h_source.html" target="_top" xlink:title="../Core/SharedLibraryExport\lMacros.h">
<polygon fill="#ffffff" stroke="#000000" points="880.5,-.5 880.5,-34.5 1045.5,-34.5 1045.5,-.5 880.5,-.5"/>
<text text-anchor="start" x="888.5" y="-20.9" font-family="Helvetica,sans-Serif" font-size="12.00" fill="#000000">../Core/SharedLibraryExport</text>
<text text-anchor="middle" x="963" y="-7.9" font-family="Helvetica,sans-Serif" font-size="12.00" fill="#000000">Macros.h</text>
</a>
</g>
</g>
<!-- Node2&#45;&gt;Node4 -->
<g id="edge32" class="edge">
<title>Node2&#45;&gt;Node4</title>
<path fill="none" stroke="#191970" d="M1226.5946,-316.3462C1242.2603,-307.9076 1258.15,-296.0274 1267,-280 1274.5193,-266.3825 1273.7239,-259.0273 1267,-245 1238.1673,-184.8497 1201.5146,-193.3748 1150,-151 1107.3704,-115.9338 1100.1388,-102.7711 1055,-71 1038.9371,-59.6941 1020.3491,-48.5518 1004.1036,-39.3872"/>
<polygon fill="#191970" stroke="#191970" points="1005.7894,-36.3199 995.3502,-34.5107 1002.3827,-42.435 1005.7894,-36.3199"/>
</g>
<!-- Node5 -->
<g id="node6" class="node">
<title>Node5</title>
<g id="a_node6"><a xlink:href="DissipationQuantities_8h.html" target="_top" xlink:title="Declaration of enumerations of dissipation quantities and derivatives. ">
<polygon fill="#ffffff" stroke="#000000" points="1159,-129.5 1159,-150.5 1299,-150.5 1299,-129.5 1159,-129.5"/>
<text text-anchor="middle" x="1229" y="-136.9" font-family="Helvetica,sans-Serif" font-size="12.00" fill="#000000">DissipationQuantities.h</text>
</a>
</g>
</g>
<!-- Node2&#45;&gt;Node5 -->
<g id="edge49" class="edge">
<title>Node2&#45;&gt;Node5</title>
<path fill="none" stroke="#191970" d="M1249.2639,-318.0719C1268.9854,-310.0848 1288.3618,-298.0552 1300,-280 1326.9925,-238.1247 1279.2269,-184.663 1249.7094,-157.5173"/>
<polygon fill="#191970" stroke="#191970" points="1251.7372,-154.6359 1241.9452,-150.5902 1247.077,-159.8592 1251.7372,-154.6359"/>
</g>
<!-- Node8 -->
<g id="node9" class="node">
<title>Node8</title>
<g id="a_node9"><a xlink:href="Core_2Common_8h.html" target="_top" xlink:title="Declaration of some general purpose utilities. ">
<polygon fill="#ffffff" stroke="#000000" points="1328.5,-129.5 1328.5,-150.5 1441.5,-150.5 1441.5,-129.5 1328.5,-129.5"/>
<text text-anchor="middle" x="1385" y="-136.9" font-family="Helvetica,sans-Serif" font-size="12.00" fill="#000000">../Core/Common.h</text>
</a>
</g>
</g>
<!-- Node2&#45;&gt;Node8 -->
<g id="edge66" class="edge">
<title>Node2&#45;&gt;Node8</title>
<path fill="none" stroke="#191970" d="M1249.1709,-318.0935C1273.1197,-309.9446 1298.8715,-297.8062 1318,-280 1353.6583,-246.8066 1372.3678,-190.67 1380.283,-160.5529"/>
<polygon fill="#191970" stroke="#191970" points="1383.7102,-161.2736 1382.7221,-150.725 1376.9163,-159.5875 1383.7102,-161.2736"/>
</g>
<!-- Node10 -->
<g id="node11" class="node">
<title>Node10</title>
<polygon fill="#ffffff" stroke="#bfbfbf" points="799.5,-71.5 799.5,-92.5 858.5,-92.5 858.5,-71.5 799.5,-71.5"/>
<text text-anchor="middle" x="829" y="-78.9" font-family="Helvetica,sans-Serif" font-size="12.00" fill="#000000">valarray</text>
</g>
<!-- Node2&#45;&gt;Node10 -->
<g id="edge67" class="edge">
<title>Node2&#45;&gt;Node10</title>
<path fill="none" stroke="#191970" d="M1114.7907,-330.1358C997.8925,-323.5912 767.21,-307.3395 743,-280 694.0563,-224.7295 771.3568,-137.2813 809.5953,-99.9021"/>
<polygon fill="#191970" stroke="#191970" points="812.2993,-102.1588 817.1026,-92.7153 807.4587,-97.1023 812.2993,-102.1588"/>
</g>
<!-- Node20 -->
<g id="node21" class="node">
<title>Node20</title>
<g id="a_node21"><a xlink:href="Error_8h.html" target="_top" xlink:title="Defines the exception hierarchy used by this code. ">
<polygon fill="#ffffff" stroke="#000000" points="64.5,-71.5 64.5,-92.5 117.5,-92.5 117.5,-71.5 64.5,-71.5"/>
<text text-anchor="middle" x="91" y="-78.9" font-family="Helvetica,sans-Serif" font-size="12.00" fill="#000000">Error.h</text>
</a>
</g>
</g>
<!-- Node2&#45;&gt;Node20 -->
<g id="edge33" class="edge">
<title>Node2&#45;&gt;Node20</title>
<path fill="none" stroke="#191970" d="M1114.9364,-330.4215C976.228,-323.6178 662.0783,-305.8305 558,-280 383.3113,-236.6451 189.8856,-136.309 118.9915,-97.6129"/>
<polygon fill="#191970" stroke="#191970" points="120.266,-94.3198 109.816,-92.5741 116.8966,-100.4555 120.266,-94.3198"/>
</g>
<!-- Node26 -->
<g id="node27" class="node">
<title>Node26</title>
<g id="a_node27"><a xlink:href="TidalPotentialTerms_8h.html" target="_top" xlink:title="Declare an interface for evaluating the expansion of the tidal potential. ">
<polygon fill="#ffffff" stroke="#000000" points="563,-187.5 563,-208.5 697,-208.5 697,-187.5 563,-187.5"/>
<text text-anchor="middle" x="630" y="-194.9" font-family="Helvetica,sans-Serif" font-size="12.00" fill="#000000">TidalPotentialTerms.h</text>
</a>
</g>
</g>
<!-- Node2&#45;&gt;Node26 -->
<g id="edge34" class="edge">
<title>Node2&#45;&gt;Node26</title>
<path fill="none" stroke="#191970" d="M1114.9713,-331.4142C1002.1308,-326.9968 779.7163,-314.1341 710,-280 680.8551,-265.7302 656.3642,-236.3409 642.4339,-216.9013"/>
<polygon fill="#191970" stroke="#191970" points="645.2,-214.7477 636.6334,-208.5135 639.4425,-218.7292 645.2,-214.7477"/>
</g>
<!-- Node33 -->
<g id="node34" class="node">
<title>Node33</title>
<g id="a_node34"><a xlink:href="SpinOrbitLockInfo_8h.html" target="_top" xlink:title="Defines the SpinOrbitLockInfo class. ">
<polygon fill="#ffffff" stroke="#000000" points="174,-71.5 174,-92.5 296,-92.5 296,-71.5 174,-71.5"/>
<text text-anchor="middle" x="235" y="-78.9" font-family="Helvetica,sans-Serif" font-size="12.00" fill="#000000">SpinOrbitLockInfo.h</text>
</a>
</g>
</g>
<!-- Node2&#45;&gt;Node33 -->
<g id="edge50" class="edge">
<title>Node2&#45;&gt;Node33</title>
<path fill="none" stroke="#191970" d="M1114.747,-329.3348C994.2647,-321.4139 746.4172,-302.9076 663,-280 502.3454,-235.8818 326.6639,-136.7952 261.355,-98.0042"/>
<polygon fill="#191970" stroke="#191970" points="262.9143,-94.8587 252.5351,-92.7322 259.3228,-100.8671 262.9143,-94.8587"/>
</g>
<!-- Node34 -->
<g id="node35" class="node">
<title>Node34</title>
<g id="a_node35"><a xlink:href="CombinedStoppingCondition_8h.html" target="_top" xlink:title="Declares a class for a stopping condition that combines other stopping conditions. ">
<polygon fill="#ffffff" stroke="#000000" points="752,-252 752,-273 934,-273 934,-252 752,-252"/>
<text text-anchor="middle" x="843" y="-259.4" font-family="Helvetica,sans-Serif" font-size="12.00" fill="#000000">CombinedStoppingCondition.h</text>
</a>
</g>
</g>
<!-- Node2&#45;&gt;Node34 -->
<g id="edge53" class="edge">
<title>Node2&#45;&gt;Node34</title>
<path fill="none" stroke="#191970" d="M1114.6192,-319.3878C1052.9236,-306.4663 962.4505,-287.5176 903.1442,-275.0966"/>
<polygon fill="#191970" stroke="#191970" points="903.6811,-271.6331 893.1759,-273.0088 902.2461,-278.4845 903.6811,-271.6331"/>
</g>
<!-- Node36 -->
<g id="node37" class="node">
<title>Node36</title>
<g id="a_node37"><a xlink:href="BreakLockCondition_8h.html" target="_top" xlink:title="Declares a class for a stopping condition monitoring when a locked zone loses the lock...">
<polygon fill="#ffffff" stroke="#000000" points="952.5,-252 952.5,-273 1087.5,-273 1087.5,-252 952.5,-252"/>
<text text-anchor="middle" x="1020" y="-259.4" font-family="Helvetica,sans-Serif" font-size="12.00" fill="#000000">BreakLockCondition.h</text>
</a>
</g>
</g>
<!-- Node2&#45;&gt;Node36 -->
<g id="edge60" class="edge">
<title>Node2&#45;&gt;Node36</title>
<path fill="none" stroke="#191970" d="M1143.197,-316.4937C1115.9722,-304.5619 1079.9239,-288.7629 1053.8615,-277.3405"/>
<polygon fill="#191970" stroke="#191970" points="1054.9649,-274.0028 1044.401,-273.1943 1052.155,-280.4141 1054.9649,-274.0028"/>
</g>
<!-- Node37 -->
<g id="node38" class="node">
<title>Node37</title>
<g id="a_node38"><a xlink:href="SynchronizedCondition_8h.html" target="_top" xlink:title="Declares a stopping condition monitoring spin&#45;orbit synchronization. ">
<polygon fill="#ffffff" stroke="#000000" points="1106,-252 1106,-273 1258,-273 1258,-252 1106,-252"/>
<text text-anchor="middle" x="1182" y="-259.4" font-family="Helvetica,sans-Serif" font-size="12.00" fill="#000000">SynchronizedCondition.h</text>
</a>
</g>
</g>
<!-- Node2&#45;&gt;Node37 -->
<g id="edge63" class="edge">
<title>Node2&#45;&gt;Node37</title>
<path fill="none" stroke="#191970" d="M1182,-316.3129C1182,-306.4273 1182,-293.9327 1182,-283.472"/>
<polygon fill="#191970" stroke="#191970" points="1185.5001,-283.139 1182,-273.139 1178.5001,-283.139 1185.5001,-283.139"/>
</g>
<!-- Node38 -->
<g id="node39" class="node">
<title>Node38</title>
<polygon fill="#ffffff" stroke="#bfbfbf" points="1390,-245.5 1390,-279.5 1510,-279.5 1510,-245.5 1390,-245.5"/>
<text text-anchor="start" x="1398" y="-265.9" font-family="Helvetica,sans-Serif" font-size="12.00" fill="#000000">boost/math/special</text>
<text text-anchor="middle" x="1450" y="-252.9" font-family="Helvetica,sans-Serif" font-size="12.00" fill="#000000">_functions/sign.hpp</text>
</g>
<!-- Node2&#45;&gt;Node38 -->
<g id="edge68" class="edge">
<title>Node2&#45;&gt;Node38</title>
<path fill="none" stroke="#191970" d="M1246.1927,-316.4937C1286.4772,-305.8213 1338.44,-292.0551 1379.8138,-281.0941"/>
<polygon fill="#191970" stroke="#191970" points="1380.7787,-284.4593 1389.5488,-278.515 1378.986,-277.6927 1380.7787,-284.4593"/>
</g>
<!-- Node3&#45;&gt;Node4 -->
<g id="edge4" class="edge">
<title>Node3&#45;&gt;Node4</title>
<path fill="none" stroke="#191970" d="M1594.5597,-195.0273C1772.0561,-185.1271 2309.2878,-150.6021 2360,-93 2366.4611,-85.6611 2366.7804,-78.045 2360,-71 2337.3516,-47.4677 1364.6491,-25.6757 1055.9672,-19.342"/>
<polygon fill="#191970" stroke="#191970" points="1055.778,-15.8375 1045.7085,-19.1322 1055.6348,-22.8361 1055.778,-15.8375"/>
</g>
<!-- Node3&#45;&gt;Node5 -->
<g id="edge5" class="edge">
<title>Node3&#45;&gt;Node5</title>
<path fill="none" stroke="#191970" d="M1482.0424,-187.4966C1429.4863,-177.6317 1350.8202,-162.8659 1295.1736,-152.4209"/>
<polygon fill="#191970" stroke="#191970" points="1295.5366,-148.928 1285.0625,-150.5231 1294.2452,-155.8079 1295.5366,-148.928"/>
</g>
<!-- Node3&#45;&gt;Node8 -->
<g id="edge9" class="edge">
<title>Node3&#45;&gt;Node8</title>
<path fill="none" stroke="#191970" d="M1510.2929,-187.4966C1485.6737,-178.1639 1449.4833,-164.4447 1422.3201,-154.1475"/>
<polygon fill="#191970" stroke="#191970" points="1423.3505,-150.7951 1412.7591,-150.5231 1420.8691,-157.3406 1423.3505,-150.7951"/>
</g>
<!-- Node24 -->
<g id="node25" class="node">
<title>Node24</title>
<g id="a_node25"><a xlink:href="IncludeEigen_8h_source.html" target="_top" xlink:title="IncludeEigen.h">
<polygon fill="#ffffff" stroke="#000000" points="2145.5,-71.5 2145.5,-92.5 2242.5,-92.5 2242.5,-71.5 2145.5,-71.5"/>
<text text-anchor="middle" x="2194" y="-78.9" font-family="Helvetica,sans-Serif" font-size="12.00" fill="#000000">IncludeEigen.h</text>
</a>
</g>
</g>
<!-- Node3&#45;&gt;Node24 -->
<g id="edge31" class="edge">
<title>Node3&#45;&gt;Node24</title>
<path fill="none" stroke="#191970" d="M1594.7624,-189.6536C1652.2235,-180.9587 1743.548,-166.4658 1822,-151 1864.9461,-142.5337 1875.0684,-137.5398 1918,-129 2012.1644,-110.2691 2036.3771,-109.2569 2131,-93 2132.2926,-92.7779 2133.6,-92.5529 2134.9182,-92.3257"/>
<polygon fill="#191970" stroke="#191970" points="2135.9083,-95.7066 2145.1656,-90.5536 2134.7154,-88.8089 2135.9083,-95.7066"/>
</g>
<!-- Node5&#45;&gt;Node4 -->
<g id="edge6" class="edge">
<title>Node5&#45;&gt;Node4</title>
<path fill="none" stroke="#191970" d="M1223.0029,-129.3343C1213.8288,-114.0218 1194.8392,-86.005 1171,-71 1136.5288,-49.3029 1093.6029,-36.3812 1055.7143,-28.6964"/>
<polygon fill="#191970" stroke="#191970" points="1056.1696,-25.2198 1045.6872,-26.7592 1054.8417,-32.0927 1056.1696,-25.2198"/>
</g>
<!-- Node6 -->
<g id="node7" class="node">
<title>Node6</title>
<polygon fill="#ffffff" stroke="#bfbfbf" points="1103.5,-71.5 1103.5,-92.5 1162.5,-92.5 1162.5,-71.5 1103.5,-71.5"/>
<text text-anchor="middle" x="1133" y="-78.9" font-family="Helvetica,sans-Serif" font-size="12.00" fill="#000000">ostream</text>
</g>
<!-- Node5&#45;&gt;Node6 -->
<g id="edge7" class="edge">
<title>Node5&#45;&gt;Node6</title>
<path fill="none" stroke="#191970" d="M1211.3921,-129.3619C1196.7771,-120.532 1175.7762,-107.844 1159.1888,-97.8224"/>
<polygon fill="#191970" stroke="#191970" points="1160.8653,-94.7461 1150.4963,-92.5707 1157.2455,-100.7376 1160.8653,-94.7461"/>
</g>
<!-- Node7 -->
<g id="node8" class="node">
<title>Node7</title>
<polygon fill="#ffffff" stroke="#bfbfbf" points="991.5,-71.5 991.5,-92.5 1046.5,-92.5 1046.5,-71.5 991.5,-71.5"/>
<text text-anchor="middle" x="1019" y="-78.9" font-family="Helvetica,sans-Serif" font-size="12.00" fill="#000000">cassert</text>
</g>
<!-- Node5&#45;&gt;Node7 -->
<g id="edge8" class="edge">
<title>Node5&#45;&gt;Node7</title>
<path fill="none" stroke="#191970" d="M1190.9706,-129.4966C1152.7786,-118.9484 1094.2983,-102.7967 1056.3494,-92.3155"/>
<polygon fill="#191970" stroke="#191970" points="1057.2677,-88.9382 1046.6968,-89.6496 1055.4041,-95.6856 1057.2677,-88.9382"/>
</g>
<!-- Node8&#45;&gt;Node4 -->
<g id="edge22" class="edge">
<title>Node8&#45;&gt;Node4</title>
<path fill="none" stroke="#191970" d="M1441.6441,-138.1379C1600.3214,-132.6486 2039.0165,-115.4954 2060,-93 2066.6695,-85.85 2066.7434,-78.0803 2060,-71 2025.5904,-34.8714 1313.9822,-22.0558 1055.6581,-18.5838"/>
<polygon fill="#191970" stroke="#191970" points="1055.5957,-15.0827 1045.5501,-18.4496 1055.5028,-22.0821 1055.5957,-15.0827"/>
</g>
<!-- Node8&#45;&gt;Node7 -->
<g id="edge21" class="edge">
<title>Node8&#45;&gt;Node7</title>
<path fill="none" stroke="#191970" d="M1328.2141,-131.0011C1252.7055,-119.0353 1121.3008,-98.2116 1056.8477,-87.9977"/>
<polygon fill="#191970" stroke="#191970" points="1057.1516,-84.5023 1046.727,-86.3939 1056.0559,-91.416 1057.1516,-84.5023"/>
</g>
<!-- Node9 -->
<g id="node10" class="node">
<title>Node9</title>
<polygon fill="#ffffff" stroke="#bfbfbf" points="1257,-71.5 1257,-92.5 1289,-92.5 1289,-71.5 1257,-71.5"/>
<text text-anchor="middle" x="1273" y="-78.9" font-family="Helvetica,sans-Serif" font-size="12.00" fill="#000000">list</text>
</g>
<!-- Node8&#45;&gt;Node9 -->
<g id="edge10" class="edge">
<title>Node8&#45;&gt;Node9</title>
<path fill="none" stroke="#191970" d="M1364.7176,-129.4966C1345.9974,-119.8022 1318.1377,-105.3749 1298.0384,-94.9663"/>
<polygon fill="#191970" stroke="#191970" points="1299.6295,-91.8488 1289.14,-90.3582 1296.4105,-98.0648 1299.6295,-91.8488"/>
</g>
<!-- Node8&#45;&gt;Node10 -->
<g id="edge11" class="edge">
<title>Node8&#45;&gt;Node10</title>
<path fill="none" stroke="#191970" d="M1328.2687,-131.6065C1321.4449,-130.6824 1314.5694,-129.7911 1308,-129 1145.4716,-109.4267 951.1732,-92.2857 868.9171,-85.3175"/>
<polygon fill="#191970" stroke="#191970" points="869.0173,-81.8136 858.7585,-84.4604 868.4288,-88.7888 869.0173,-81.8136"/>
</g>
<!-- Node11 -->
<g id="node12" class="node">
<title>Node11</title>
<polygon fill="#ffffff" stroke="#bfbfbf" points="1307,-71.5 1307,-92.5 1351,-92.5 1351,-71.5 1307,-71.5"/>
<text text-anchor="middle" x="1329" y="-78.9" font-family="Helvetica,sans-Serif" font-size="12.00" fill="#000000">limits</text>
</g>
<!-- Node8&#45;&gt;Node11 -->
<g id="edge12" class="edge">
<title>Node8&#45;&gt;Node11</title>
<path fill="none" stroke="#191970" d="M1374.7287,-129.3619C1366.7559,-121.1043 1355.5252,-109.4725 1346.189,-99.8029"/>
<polygon fill="#191970" stroke="#191970" points="1348.67,-97.3336 1339.2061,-92.5707 1343.6342,-102.1958 1348.67,-97.3336"/>
</g>
<!-- Node12 -->
<g id="node13" class="node">
<title>Node12</title>
<polygon fill="#ffffff" stroke="#bfbfbf" points="722.5,-71.5 722.5,-92.5 781.5,-92.5 781.5,-71.5 722.5,-71.5"/>
<text text-anchor="middle" x="752" y="-78.9" font-family="Helvetica,sans-Serif" font-size="12.00" fill="#000000">sstream</text>
</g>
<!-- Node8&#45;&gt;Node12 -->
<g id="edge13" class="edge">
<title>Node8&#45;&gt;Node12</title>
<path fill="none" stroke="#191970" d="M1328.2895,-131.4233C1321.462,-130.5313 1314.58,-129.6977 1308,-129 1081.7587,-105.0102 1018.9986,-132.5112 791.6299,-92.9978"/>
<polygon fill="#191970" stroke="#191970" points="792.1852,-89.5419 781.7296,-91.2534 790.9704,-96.4357 792.1852,-89.5419"/>
</g>
<!-- Node13 -->
<g id="node14" class="node">
<title>Node13</title>
<polygon fill="#ffffff" stroke="#bfbfbf" points="186,-7 186,-28 248,-28 248,-7 186,-7"/>
<text text-anchor="middle" x="217" y="-14.4" font-family="Helvetica,sans-Serif" font-size="12.00" fill="#000000">iostream</text>
</g>
<!-- Node8&#45;&gt;Node13 -->
<g id="edge14" class="edge">
<title>Node8&#45;&gt;Node13</title>
<path fill="none" stroke="#191970" d="M1353.7304,-129.4283C1298.8543,-110.9487 1189.2773,-74.4008 1171,-71 992.0476,-37.7029 418.8283,-22.1776 258.8273,-18.4237"/>
<polygon fill="#191970" stroke="#191970" points="258.541,-14.9163 248.4625,-18.1836 258.3787,-21.9144 258.541,-14.9163"/>
</g>
<!-- Node14 -->
<g id="node15" class="node">
<title>Node14</title>
<polygon fill="#ffffff" stroke="#bfbfbf" points="1369.5,-71.5 1369.5,-92.5 1422.5,-92.5 1422.5,-71.5 1369.5,-71.5"/>
<text text-anchor="middle" x="1396" y="-78.9" font-family="Helvetica,sans-Serif" font-size="12.00" fill="#000000">iterator</text>
</g>
<!-- Node8&#45;&gt;Node14 -->
<g id="edge15" class="edge">
<title>Node8&#45;&gt;Node14</title>
<path fill="none" stroke="#191970" d="M1387.0176,-129.3619C1388.4441,-121.8401 1390.4016,-111.5187 1392.1252,-102.4308"/>
<polygon fill="#191970" stroke="#191970" points="1395.5705,-103.0477 1393.9952,-92.5707 1388.6931,-101.7433 1395.5705,-103.0477"/>
</g>
<!-- Node15 -->
<g id="node16" class="node">
<title>Node15</title>
<polygon fill="#ffffff" stroke="#bfbfbf" points="1441,-71.5 1441,-92.5 1541,-92.5 1541,-71.5 1441,-71.5"/>
<text text-anchor="middle" x="1491" y="-78.9" font-family="Helvetica,sans-Serif" font-size="12.00" fill="#000000">gsl/gsl_vector.h</text>
</g>
<!-- Node8&#45;&gt;Node15 -->
<g id="edge16" class="edge">
<title>Node8&#45;&gt;Node15</title>
<path fill="none" stroke="#191970" d="M1404.442,-129.3619C1420.8036,-120.4094 1444.4134,-107.4908 1462.8435,-97.4064"/>
<polygon fill="#191970" stroke="#191970" points="1464.5886,-100.4412 1471.6812,-92.5707 1461.2285,-94.3004 1464.5886,-100.4412"/>
</g>
<!-- Node16 -->
<g id="node17" class="node">
<title>Node16</title>
<polygon fill="#ffffff" stroke="#bfbfbf" points="1559,-71.5 1559,-92.5 1659,-92.5 1659,-71.5 1559,-71.5"/>
<text text-anchor="middle" x="1609" y="-78.9" font-family="Helvetica,sans-Serif" font-size="12.00" fill="#000000">gsl/gsl_matrix.h</text>
</g>
<!-- Node8&#45;&gt;Node16 -->
<g id="edge17" class="edge">
<title>Node8&#45;&gt;Node16</title>
<path fill="none" stroke="#191970" d="M1425.5647,-129.4966C1462.8732,-119.8364 1518.3321,-105.4765 1558.4975,-95.0765"/>
<polygon fill="#191970" stroke="#191970" points="1559.5558,-98.418 1568.3592,-92.5231 1557.8011,-91.6415 1559.5558,-98.418"/>
</g>
<!-- Node17 -->
<g id="node18" class="node">
<title>Node17</title>
<polygon fill="#ffffff" stroke="#bfbfbf" points="1677.5,-71.5 1677.5,-92.5 1774.5,-92.5 1774.5,-71.5 1677.5,-71.5"/>
<text text-anchor="middle" x="1726" y="-78.9" font-family="Helvetica,sans-Serif" font-size="12.00" fill="#000000">gsl/gsl_linalg.h</text>
</g>
<!-- Node8&#45;&gt;Node17 -->
<g id="edge18" class="edge">
<title>Node8&#45;&gt;Node17</title>
<path fill="none" stroke="#191970" d="M1441.7122,-130.9722C1496.7168,-122.1278 1582.8003,-108.0538 1667.2582,-93.1032"/>
<polygon fill="#191970" stroke="#191970" points="1668.0466,-96.518 1677.2806,-91.3235 1666.8227,-89.6259 1668.0466,-96.518"/>
</g>
<!-- Node18 -->
<g id="node19" class="node">
<title>Node18</title>
<polygon fill="#ffffff" stroke="#bfbfbf" points="1793,-71.5 1793,-92.5 1883,-92.5 1883,-71.5 1793,-71.5"/>
<text text-anchor="middle" x="1838" y="-78.9" font-family="Helvetica,sans-Serif" font-size="12.00" fill="#000000">gsl/gsl_blas.h</text>
</g>
<!-- Node8&#45;&gt;Node18 -->
<g id="edge19" class="edge">
<title>Node8&#45;&gt;Node18</title>
<path fill="none" stroke="#191970" d="M1441.7006,-134.8288C1517.2788,-127.6013 1655.3806,-113.2305 1783.0173,-93.0548"/>
<polygon fill="#191970" stroke="#191970" points="1783.647,-96.4987 1792.9703,-91.4662 1782.5436,-89.5862 1783.647,-96.4987"/>
</g>
<!-- Node8&#45;&gt;Node19 -->
<g id="edge20" class="edge">
<title>Node8&#45;&gt;Node19</title>
<path fill="none" stroke="#191970" d="M1441.6239,-138.0185C1604.8839,-132.136 2075.4819,-113.9481 2250.5987,-92.9846"/>
<polygon fill="#191970" stroke="#191970" points="2251.2152,-96.435 2260.7073,-91.7285 2250.352,-89.4884 2251.2152,-96.435"/>
</g>
<!-- Node8&#45;&gt;Node20 -->
<g id="edge23" class="edge">
<title>Node8&#45;&gt;Node20</title>
<path fill="none" stroke="#191970" d="M1328.3131,-131.1785C1321.4815,-130.3295 1314.592,-129.5729 1308,-129 801.6568,-84.9941 671.2164,-138.4414 165,-93 152.7933,-91.9042 139.5316,-90.1218 127.651,-88.3078"/>
<polygon fill="#191970" stroke="#191970" points="128.0513,-84.8276 117.6272,-86.7219 126.9574,-91.7417 128.0513,-84.8276"/>
</g>
<!-- Node23 -->
<g id="node24" class="node">
<title>Node23</title>
<g id="a_node24"><a xlink:href="AstronomicalConstants_8h.html" target="_top" xlink:title="Defines various astronomical constants. ">
<polygon fill="#ffffff" stroke="#000000" points="1901,-71.5 1901,-92.5 2051,-92.5 2051,-71.5 1901,-71.5"/>
<text text-anchor="middle" x="1976" y="-78.9" font-family="Helvetica,sans-Serif" font-size="12.00" fill="#000000">AstronomicalConstants.h</text>
</a>
</g>
</g>
<!-- Node8&#45;&gt;Node23 -->
<g id="edge28" class="edge">
<title>Node8&#45;&gt;Node23</title>
<path fill="none" stroke="#191970" d="M1441.7178,-135.4457C1533.6856,-127.9061 1721.3039,-111.8835 1890.8042,-93.1016"/>
<polygon fill="#191970" stroke="#191970" points="1891.3602,-96.5614 1900.9113,-91.9759 1890.5853,-89.6044 1891.3602,-96.5614"/>
</g>
<!-- Node8&#45;&gt;Node24 -->
<g id="edge29" class="edge">
<title>Node8&#45;&gt;Node24</title>
<path fill="none" stroke="#191970" d="M1441.504,-137.0608C1561.5714,-130.6365 1850.9404,-114.2064 2093,-93 2106.7858,-91.7923 2121.6081,-90.2916 2135.5368,-88.791"/>
<polygon fill="#191970" stroke="#191970" points="2135.9331,-92.2687 2145.4935,-87.7026 2135.1723,-85.3101 2135.9331,-92.2687"/>
</g>
<!-- Node20&#45;&gt;Node4 -->
<g id="edge24" class="edge">
<title>Node20&#45;&gt;Node4</title>
<path fill="none" stroke="#191970" d="M117.6499,-77.5078C131.7004,-75.274 149.2452,-72.6963 165,-71 419.5569,-43.5923 721.4059,-27.9113 870.361,-21.2831"/>
<polygon fill="#191970" stroke="#191970" points="870.5482,-24.7783 880.384,-20.8405 870.2393,-17.7851 870.5482,-24.7783"/>
</g>
<!-- Node20&#45;&gt;Node13 -->
<g id="edge25" class="edge">
<title>Node20&#45;&gt;Node13</title>
<path fill="none" stroke="#191970" d="M111.5245,-71.4934C132.1177,-60.9517 164.0447,-44.6081 187.3803,-32.6625"/>
<polygon fill="#191970" stroke="#191970" points="189.1777,-35.6744 196.4843,-28.0021 185.9879,-29.4433 189.1777,-35.6744"/>
</g>
<!-- Node21 -->
<g id="node22" class="node">
<title>Node21</title>
<polygon fill="#ffffff" stroke="#bfbfbf" points="0,-7 0,-28 68,-28 68,-7 0,-7"/>
<text text-anchor="middle" x="34" y="-14.4" font-family="Helvetica,sans-Serif" font-size="12.00" fill="#000000">exception</text>
</g>
<!-- Node20&#45;&gt;Node21 -->
<g id="edge26" class="edge">
<title>Node20&#45;&gt;Node21</title>
<path fill="none" stroke="#191970" d="M81.5876,-71.3491C73.14,-61.7901 60.5518,-47.5454 50.4439,-36.1076"/>
<polygon fill="#191970" stroke="#191970" points="52.8616,-33.5579 43.6169,-28.3823 47.6162,-38.1933 52.8616,-33.5579"/>
</g>
<!-- Node22 -->
<g id="node23" class="node">
<title>Node22</title>
<polygon fill="#ffffff" stroke="#bfbfbf" points="86,-7 86,-28 132,-28 132,-7 86,-7"/>
<text text-anchor="middle" x="109" y="-14.4" font-family="Helvetica,sans-Serif" font-size="12.00" fill="#000000">string</text>
</g>
<!-- Node20&#45;&gt;Node22 -->
<g id="edge27" class="edge">
<title>Node20&#45;&gt;Node22</title>
<path fill="none" stroke="#191970" d="M93.9723,-71.3491C96.4846,-62.3469 100.1565,-49.1891 103.2418,-38.1335"/>
<polygon fill="#191970" stroke="#191970" points="106.6462,-38.9551 105.9631,-28.3823 99.9038,-37.0734 106.6462,-38.9551"/>
</g>
<!-- Node25 -->
<g id="node26" class="node">
<title>Node25</title>
<polygon fill="#ffffff" stroke="#bfbfbf" points="2151,-7 2151,-28 2237,-28 2237,-7 2151,-7"/>
<text text-anchor="middle" x="2194" y="-14.4" font-family="Helvetica,sans-Serif" font-size="12.00" fill="#000000">Eigen/Dense</text>
</g>
<!-- Node24&#45;&gt;Node25 -->
<g id="edge30" class="edge">
<title>Node24&#45;&gt;Node25</title>
<path fill="none" stroke="#191970" d="M2194,-71.3491C2194,-62.4397 2194,-49.4599 2194,-38.4761"/>
<polygon fill="#191970" stroke="#191970" points="2197.5001,-38.3822 2194,-28.3823 2190.5001,-38.3823 2197.5001,-38.3822"/>
</g>
<!-- Node26&#45;&gt;Node8 -->
<g id="edge48" class="edge">
<title>Node26&#45;&gt;Node8</title>
<path fill="none" stroke="#191970" d="M697.0232,-194.9718C818.8794,-189.1064 1084.7718,-174.6505 1308,-151 1311.29,-150.6514 1314.6555,-150.2688 1318.052,-149.8619"/>
<polygon fill="#191970" stroke="#191970" points="1318.803,-153.2952 1328.2896,-148.5779 1317.9317,-146.3496 1318.803,-153.2952"/>
</g>
<!-- Node26&#45;&gt;Node10 -->
<g id="edge36" class="edge">
<title>Node26&#45;&gt;Node10</title>
<path fill="none" stroke="#191970" d="M648.3647,-187.2949C683.6989,-166.6981 761.2716,-121.4799 802.3155,-97.5548"/>
<polygon fill="#191970" stroke="#191970" points="804.0903,-100.5715 810.9671,-92.5117 800.5651,-94.5239 804.0903,-100.5715"/>
</g>
<!-- Node27 -->
<g id="node28" class="node">
<title>Node27</title>
<polygon fill="#ffffff" stroke="#bfbfbf" points="588.5,-71.5 588.5,-92.5 637.5,-92.5 637.5,-71.5 588.5,-71.5"/>
<text text-anchor="middle" x="613" y="-78.9" font-family="Helvetica,sans-Serif" font-size="12.00" fill="#000000">cmath</text>
</g>
<!-- Node26&#45;&gt;Node27 -->
<g id="edge35" class="edge">
<title>Node26&#45;&gt;Node27</title>
<path fill="none" stroke="#191970" d="M628.4312,-187.2949C625.6227,-168.1314 619.6907,-127.654 616.0546,-102.8434"/>
<polygon fill="#191970" stroke="#191970" points="619.4782,-102.066 614.5651,-92.6792 612.5522,-103.0811 619.4782,-102.066"/>
</g>
<!-- Node28 -->
<g id="node29" class="node">
<title>Node28</title>
<g id="a_node29"><a xlink:href="EccentricityExpansionCoefficients_8h.html" target="_top" xlink:title="Declares a class which provides the [ &#160;coefficients]{InclinationEccentricity_pms1}. ">
<polygon fill="#ffffff" stroke="#000000" points="395,-129.5 395,-150.5 603,-150.5 603,-129.5 395,-129.5"/>
<text text-anchor="middle" x="499" y="-136.9" font-family="Helvetica,sans-Serif" font-size="12.00" fill="#000000">EccentricityExpansionCoefficients.h</text>
</a>
</g>
</g>
<!-- Node26&#45;&gt;Node28 -->
<g id="edge37" class="edge">
<title>Node26&#45;&gt;Node28</title>
<path fill="none" stroke="#191970" d="M606.2769,-187.4966C585.632,-178.3562 555.4839,-165.0082 532.4011,-154.7883"/>
<polygon fill="#191970" stroke="#191970" points="533.5501,-151.4694 522.9893,-150.6212 530.7162,-157.8701 533.5501,-151.4694"/>
</g>
<!-- Node28&#45;&gt;Node4 -->
<g id="edge38" class="edge">
<title>Node28&#45;&gt;Node4</title>
<path fill="none" stroke="#191970" d="M507.5661,-129.4875C520.9844,-113.8332 548.5895,-84.7658 579,-71 629.415,-48.1788 773.4891,-32.6021 870.107,-24.3787"/>
<polygon fill="#191970" stroke="#191970" points="870.508,-27.8574 880.1802,-23.5332 869.9224,-20.8819 870.508,-27.8574"/>
</g>
<!-- Node28&#45;&gt;Node7 -->
<g id="edge46" class="edge">
<title>Node28&#45;&gt;Node7</title>
<path fill="none" stroke="#191970" d="M593.1681,-129.4966C709.1292,-116.5625 900.6239,-95.2035 981.3064,-86.2043"/>
<polygon fill="#191970" stroke="#191970" points="981.9365,-89.6558 991.4869,-85.0688 981.1605,-82.6989 981.9365,-89.6558"/>
</g>
<!-- Node28&#45;&gt;Node12 -->
<g id="edge45" class="edge">
<title>Node28&#45;&gt;Node12</title>
<path fill="none" stroke="#191970" d="M551.0912,-129.4521C592.3412,-120.8967 651.628,-108.1532 712.4632,-93.0352"/>
<polygon fill="#191970" stroke="#191970" points="713.3867,-96.4121 722.2376,-90.5887 711.687,-89.6216 713.3867,-96.4121"/>
</g>
<!-- Node28&#45;&gt;Node13 -->
<g id="edge44" class="edge">
<title>Node28&#45;&gt;Node13</title>
<path fill="none" stroke="#191970" d="M394.9878,-132.171C302.6728,-124.1383 180.1012,-110.375 165,-93 148.5744,-74.1012 171.9762,-49.9168 192.4572,-34.0808"/>
<polygon fill="#191970" stroke="#191970" points="194.6713,-36.7969 200.6445,-28.0464 190.5181,-31.162 194.6713,-36.7969"/>
</g>
<!-- Node28&#45;&gt;Node20 -->
<g id="edge39" class="edge">
<title>Node28&#45;&gt;Node20</title>
<path fill="none" stroke="#191970" d="M394.7834,-130.4321C320.9932,-122.739 219.9148,-110.3408 132,-93 130.5539,-92.7148 129.0835,-92.407 127.6015,-92.0818"/>
<polygon fill="#191970" stroke="#191970" points="128.324,-88.6561 117.7848,-89.741 126.7002,-95.4652 128.324,-88.6561"/>
</g>
<!-- Node28&#45;&gt;Node27 -->
<g id="edge43" class="edge">
<title>Node28&#45;&gt;Node27</title>
<path fill="none" stroke="#191970" d="M519.6445,-129.4966C537.3697,-120.4786 563.1448,-107.3649 583.123,-97.2006"/>
<polygon fill="#191970" stroke="#191970" points="584.7981,-100.2753 592.1238,-92.6212 581.6239,-94.0364 584.7981,-100.2753"/>
</g>
<!-- Node29 -->
<g id="node30" class="node">
<title>Node29</title>
<polygon fill="#ffffff" stroke="#bfbfbf" points="655.5,-71.5 655.5,-92.5 704.5,-92.5 704.5,-71.5 655.5,-71.5"/>
<text text-anchor="middle" x="680" y="-78.9" font-family="Helvetica,sans-Serif" font-size="12.00" fill="#000000">vector</text>
</g>
<!-- Node28&#45;&gt;Node29 -->
<g id="edge40" class="edge">
<title>Node28&#45;&gt;Node29</title>
<path fill="none" stroke="#191970" d="M531.9966,-129.4858C559.8172,-120.613 600.9311,-107.4822 645.8497,-93.0414"/>
<polygon fill="#191970" stroke="#191970" points="647.0411,-96.3349 655.4892,-89.9411 644.8978,-89.671 647.0411,-96.3349"/>
</g>
<!-- Node30 -->
<g id="node31" class="node">
<title>Node30</title>
<polygon fill="#ffffff" stroke="#bfbfbf" points="314,-71.5 314,-92.5 370,-92.5 370,-71.5 314,-71.5"/>
<text text-anchor="middle" x="342" y="-78.9" font-family="Helvetica,sans-Serif" font-size="12.00" fill="#000000">fstream</text>
</g>
<!-- Node28&#45;&gt;Node30 -->
<g id="edge41" class="edge">
<title>Node28&#45;&gt;Node30</title>
<path fill="none" stroke="#191970" d="M470.5685,-129.4966C445.1158,-120.0937 407.6104,-106.2382 379.6689,-95.9159"/>
<polygon fill="#191970" stroke="#191970" points="380.8133,-92.6075 370.22,-92.4252 378.3875,-99.1738 380.8133,-92.6075"/>
</g>
<!-- Node31 -->
<g id="node32" class="node">
<title>Node31</title>
<polygon fill="#ffffff" stroke="#bfbfbf" points="388.5,-71.5 388.5,-92.5 447.5,-92.5 447.5,-71.5 388.5,-71.5"/>
<text text-anchor="middle" x="418" y="-78.9" font-family="Helvetica,sans-Serif" font-size="12.00" fill="#000000">iomanip</text>
</g>
<!-- Node28&#45;&gt;Node31 -->
<g id="edge42" class="edge">
<title>Node28&#45;&gt;Node31</title>
<path fill="none" stroke="#191970" d="M484.1434,-129.3619C472.1545,-120.7773 455.0727,-108.5459 441.2715,-98.6636"/>
<polygon fill="#191970" stroke="#191970" points="442.9307,-95.5469 432.7625,-92.5707 438.8554,-101.2383 442.9307,-95.5469"/>
</g>
<!-- Node32 -->
<g id="node33" class="node">
<title>Node32</title>
<polygon fill="#ffffff" stroke="#bfbfbf" points="466,-71.5 466,-92.5 532,-92.5 532,-71.5 466,-71.5"/>
<text text-anchor="middle" x="499" y="-78.9" font-family="Helvetica,sans-Serif" font-size="12.00" fill="#000000">algorithm</text>
</g>
<!-- Node28&#45;&gt;Node32 -->
<g id="edge47" class="edge">
<title>Node28&#45;&gt;Node32</title>
<path fill="none" stroke="#191970" d="M499,-129.3619C499,-121.9219 499,-111.7427 499,-102.7276"/>
<polygon fill="#191970" stroke="#191970" points="502.5001,-102.5706 499,-92.5707 495.5001,-102.5707 502.5001,-102.5706"/>
</g>
<!-- Node33&#45;&gt;Node4 -->
<g id="edge51" class="edge">
<title>Node33&#45;&gt;Node4</title>
<path fill="none" stroke="#191970" d="M296.0462,-72.1319C299.071,-71.7293 302.0682,-71.349 305,-71 505.9789,-47.0722 742.7872,-30.6982 870.3587,-22.8425"/>
<polygon fill="#191970" stroke="#191970" points="870.7124,-26.3275 880.4799,-22.223 870.2847,-19.3406 870.7124,-26.3275"/>
</g>
<!-- Node33&#45;&gt;Node13 -->
<g id="edge52" class="edge">
<title>Node33&#45;&gt;Node13</title>
<path fill="none" stroke="#191970" d="M232.0277,-71.3491C229.5154,-62.3469 225.8435,-49.1891 222.7582,-38.1335"/>
<polygon fill="#191970" stroke="#191970" points="226.0962,-37.0734 220.0369,-28.3823 219.3538,-38.9551 226.0962,-37.0734"/>
</g>
<!-- Node34&#45;&gt;Node4 -->
<g id="edge54" class="edge">
<title>Node34&#45;&gt;Node4</title>
<path fill="none" stroke="#191970" d="M848.1862,-251.6739C862.1991,-222.454 902.0531,-139.5629 936,-71 940.3603,-62.1934 945.1786,-52.6024 949.5233,-44.0047"/>
<polygon fill="#191970" stroke="#191970" points="952.782,-45.3168 954.1778,-34.8143 946.5372,-42.1541 952.782,-45.3168"/>
</g>
<!-- Node34&#45;&gt;Node29 -->
<g id="edge59" class="edge">
<title>Node34&#45;&gt;Node29</title>
<path fill="none" stroke="#191970" d="M833.2917,-251.7495C806.4028,-221.9737 730.7147,-138.1596 696.8019,-100.6058"/>
<polygon fill="#191970" stroke="#191970" points="699.1632,-97.9984 689.8635,-92.9224 693.968,-102.6899 699.1632,-97.9984"/>
</g>
<!-- Node35 -->
<g id="node36" class="node">
<title>Node35</title>
<g id="a_node36"><a xlink:href="StoppingCondition_8h.html" target="_top" xlink:title="Defines the various stopping conditions needed by OrbitSolver. ">
<polygon fill="#ffffff" stroke="#000000" points="957,-187.5 957,-208.5 1083,-208.5 1083,-187.5 957,-187.5"/>
<text text-anchor="middle" x="1020" y="-194.9" font-family="Helvetica,sans-Serif" font-size="12.00" fill="#000000">StoppingCondition.h</text>
</a>
</g>
</g>
<!-- Node34&#45;&gt;Node35 -->
<g id="edge55" class="edge">
<title>Node34&#45;&gt;Node35</title>
<path fill="none" stroke="#191970" d="M871.832,-251.9934C901.6606,-241.1237 948.4164,-224.0855 981.415,-212.0606"/>
<polygon fill="#191970" stroke="#191970" points="982.983,-215.2144 991.1803,-208.5021 980.5863,-208.6375 982.983,-215.2144"/>
</g>
<!-- Node35&#45;&gt;Node4 -->
<g id="edge56" class="edge">
<title>Node35&#45;&gt;Node4</title>
<path fill="none" stroke="#191970" d="M1015.7564,-187.3879C1008.3229,-168.5709 992.7189,-128.037 982,-93 977.1318,-77.0871 972.5515,-59.0177 969.1083,-44.5464"/>
<polygon fill="#191970" stroke="#191970" points="972.4976,-43.6688 966.8141,-34.7274 965.6811,-45.2615 972.4976,-43.6688"/>
</g>
<!-- Node35&#45;&gt;Node7 -->
<g id="edge58" class="edge">
<title>Node35&#45;&gt;Node7</title>
<path fill="none" stroke="#191970" d="M1019.9077,-187.2949C1019.7425,-168.1314 1019.3936,-127.654 1019.1797,-102.8434"/>
<polygon fill="#191970" stroke="#191970" points="1022.6782,-102.6486 1019.0921,-92.6792 1015.6785,-102.709 1022.6782,-102.6486"/>
</g>
<!-- Node35&#45;&gt;Node8 -->
<g id="edge57" class="edge">
<title>Node35&#45;&gt;Node8</title>
<path fill="none" stroke="#191970" d="M1083.1615,-187.9634C1148.8561,-177.5242 1251.2896,-161.2471 1318.2762,-150.6027"/>
<polygon fill="#191970" stroke="#191970" points="1318.9756,-154.0355 1328.3024,-149.0095 1317.877,-147.1223 1318.9756,-154.0355"/>
</g>
<!-- Node36&#45;&gt;Node4 -->
<g id="edge61" class="edge">
<title>Node36&#45;&gt;Node4</title>
<path fill="none" stroke="#191970" d="M995.7923,-251.8748C979,-243.0569 957.9337,-228.7571 948,-209 921.0471,-155.3934 939.3896,-82.5459 952.672,-43.9825"/>
<polygon fill="#191970" stroke="#191970" points="955.9901,-45.0982 956.0757,-34.5037 949.402,-42.7325 955.9901,-45.0982"/>
</g>
<!-- Node36&#45;&gt;Node35 -->
<g id="edge62" class="edge">
<title>Node36&#45;&gt;Node35</title>
<path fill="none" stroke="#191970" d="M1020,-251.8491C1020,-242.9397 1020,-229.9599 1020,-218.9761"/>
<polygon fill="#191970" stroke="#191970" points="1023.5001,-218.8822 1020,-208.8823 1016.5001,-218.8823 1023.5001,-218.8822"/>
</g>
<!-- Node37&#45;&gt;Node4 -->
<g id="edge64" class="edge">
<title>Node37&#45;&gt;Node4</title>
<path fill="none" stroke="#191970" d="M1218.5007,-251.9098C1273.385,-236.2414 1380.5908,-206.6257 1473,-187 1626.8081,-154.3346 1666.5921,-152.9232 1822,-129 1936.4465,-111.3823 2155.8894,-154.8217 2076,-71 2041.0358,-34.3147 1317.3944,-21.8392 1056.0837,-18.5208"/>
<polygon fill="#191970" stroke="#191970" points="1055.904,-15.0184 1045.8609,-18.3927 1055.8162,-22.0178 1055.904,-15.0184"/>
</g>
<!-- Node37&#45;&gt;Node35 -->
<g id="edge65" class="edge">
<title>Node37&#45;&gt;Node35</title>
<path fill="none" stroke="#191970" d="M1155.6114,-251.9934C1128.4283,-241.1705 1085.8858,-224.2323 1055.7063,-212.2164"/>
<polygon fill="#191970" stroke="#191970" points="1056.9627,-208.9495 1046.3774,-208.5021 1054.3734,-215.453 1056.9627,-208.9495"/>
</g>
</g>
</svg>
        <g id="navigator" transform="translate(0 0)" fill="#404254">
                <rect fill="#f2f5e9" fill-opacity="0.5" stroke="#606060" stroke-width=".5" x="0" y="0" width="60" height="60"/>
                <use id="zoomplus" xlink:href="#zoomPlus" x="17" y="9" onmousedown="handleZoom(evt,'in')"/>
                <use id="zoomminus" xlink:href="#zoomMin" x="42" y="9" onmousedown="handleZoom(evt,'out')"/>
                <use id="reset" xlink:href="#resetDef" x="30" y="36" onmousedown="handleReset()"/>
                <g id="arrowUp" xlink:href="#dirArrow" transform="translate(30 24)" onmousedown="handlePan(0,-1)">
                  <use xlink:href="#rim" fill="#404040">
                        <set attributeName="fill" to="#808080" begin="arrowUp.mouseover" end="arrowUp.mouseout"/>
                  </use>
                  <path fill="none" stroke="white" stroke-width="1.5" d="M0,-3.0v7 M-2.5,-0.5L0,-3.0L2.5,-0.5"/>
                </g>
                <g id="arrowRight" xlink:href="#dirArrow" transform="rotate(90) translate(36 -43)" onmousedown="handlePan(1,0)">
                  <use xlink:href="#rim" fill="#404040">
                        <set attributeName="fill" to="#808080" begin="arrowRight.mouseover" end="arrowRight.mouseout"/>
                  </use>
                  <path fill="none" stroke="white" stroke-width="1.5" d="M0,-3.0v7 M-2.5,-0.5L0,-3.0L2.5,-0.5"/>
                </g>
                <g id="arrowDown" xlink:href="#dirArrow" transform="rotate(180) translate(-30 -48)" onmousedown="handlePan(0,1)">
                  <use xlink:href="#rim" fill="#404040">
                        <set attributeName="fill" to="#808080" begin="arrowDown.mouseover" end="arrowDown.mouseout"/>
                  </use>
                  <path fill="none" stroke="white" stroke-width="1.5" d="M0,-3.0v7 M-2.5,-0.5L0,-3.0L2.5,-0.5"/>
                </g>
                <g id="arrowLeft" xlink:href="#dirArrow" transform="rotate(270) translate(-36 17)" onmousedown="handlePan(-1,0)">
                  <use xlink:href="#rim" fill="#404040">
                        <set attributeName="fill" to="#808080" begin="arrowLeft.mouseover" end="arrowLeft.mouseout"/>
                  </use>
                  <path fill="none" stroke="white" stroke-width="1.5" d="M0,-3.0v7 M-2.5,-0.5L0,-3.0L2.5,-0.5"/>
                </g>
        </g>
        <svg viewBox="0 0 15 15" width="100%" height="30px" preserveAspectRatio="xMaxYMin meet">
         <g id="arrow_out" transform="scale(0.3 0.3)">
          <a xlink:href="ConstPhaseLagZone_8h__incl_org.svg" target="_base">
           <rect id="button" ry="5" rx="5" y="6" x="6" height="38" width="38"
                fill="#f2f5e9" fill-opacity="0.5" stroke="#606060" stroke-width="1.0"/>
           <path id="arrow"
             d="M 11.500037,31.436501 C 11.940474,20.09759 22.043105,11.32322 32.158766,21.979434 L 37.068811,17.246167 C 37.068811,17.246167 37.088388,32 37.088388,32 L 22.160133,31.978069 C 22.160133,31.978069 26.997745,27.140456 26.997745,27.140456 C 18.528582,18.264221 13.291696,25.230495 11.500037,31.436501 z"
             style="fill:#404040;"/>
          </a>
         </g>
        </svg>
</svg>
