<?xml version="1.0" encoding="UTF-8" standalone="no"?>
<!DOCTYPE svg PUBLIC "-//W3C//DTD SVG 1.1//EN"
 "http://www.w3.org/Graphics/SVG/1.1/DTD/svg11.dtd">
<!-- Generated by graphviz version 2.40.1 (20161225.0304)
 -->
<!-- Title: /home/kpenev/projects/git/poet/poet_src/StellarEvolution/CustomStellarEvolution.cpp Pages: 1 -->
<svg width="577pt" height="243pt"
 viewBox="0.00 0.00 576.50 243.00" xmlns="http://www.w3.org/2000/svg" xmlns:xlink="http://www.w3.org/1999/xlink">
<g id="graph0" class="graph" transform="scale(1 1) rotate(0) translate(4 239)">
<title>/home/kpenev/projects/git/poet/poet_src/StellarEvolution/CustomStellarEvolution.cpp</title>
<polygon fill="#ffffff" stroke="transparent" points="-4,4 -4,-239 572.5,-239 572.5,4 -4,4"/>
<!-- Node0 -->
<g id="node1" class="node">
<title>Node0</title>
<polygon fill="#bfbfbf" stroke="#000000" points="280,-187.5 280,-234.5 475,-234.5 475,-187.5 280,-187.5"/>
<text text-anchor="start" x="288" y="-220.9" font-family="Helvetica,sans-Serif" font-size="12.00" fill="#000000">/home/kpenev/projects</text>
<text text-anchor="start" x="288" y="-207.9" font-family="Helvetica,sans-Serif" font-size="12.00" fill="#000000">/git/poet/poet_src/StellarEvolution</text>
<text text-anchor="middle" x="377.5" y="-194.9" font-family="Helvetica,sans-Serif" font-size="12.00" fill="#000000">/CustomStellarEvolution.cpp</text>
</g>
<!-- Node1 -->
<g id="node2" class="node">
<title>Node1</title>
<g id="a_node2"><a xlink:href="CustomStellarEvolution_8h.html" target="_top" xlink:title="Defines the class which implements a custom single track stellar evolution. ">
<polygon fill="#ffffff" stroke="#000000" points="301.5,-129.5 301.5,-150.5 453.5,-150.5 453.5,-129.5 301.5,-129.5"/>
<text text-anchor="middle" x="377.5" y="-136.9" font-family="Helvetica,sans-Serif" font-size="12.00" fill="#000000">CustomStellarEvolution.h</text>
</a>
</g>
</g>
<!-- Node0&#45;&gt;Node1 -->
<g id="edge1" class="edge">
<title>Node0&#45;&gt;Node1</title>
<path fill="none" stroke="#191970" d="M377.5,-187.358C377.5,-178.719 377.5,-169.0215 377.5,-160.6624"/>
<polygon fill="#191970" stroke="#191970" points="381.0001,-160.6462 377.5,-150.6462 374.0001,-160.6463 381.0001,-160.6462"/>
</g>
<!-- Node2 -->
<g id="node3" class="node">
<title>Node2</title>
<g id="a_node3"><a xlink:href="SharedLibraryExportMacros_8h_source.html" target="_top" xlink:title="../Core/SharedLibraryExport\lMacros.h">
<polygon fill="#ffffff" stroke="#000000" points="0,-58.5 0,-92.5 165,-92.5 165,-58.5 0,-58.5"/>
<text text-anchor="start" x="8" y="-78.9" font-family="Helvetica,sans-Serif" font-size="12.00" fill="#000000">../Core/SharedLibraryExport</text>
<text text-anchor="middle" x="82.5" y="-65.9" font-family="Helvetica,sans-Serif" font-size="12.00" fill="#000000">Macros.h</text>
</a>
</g>
</g>
<!-- Node1&#45;&gt;Node2 -->
<g id="edge2" class="edge">
<title>Node1&#45;&gt;Node2</title>
<path fill="none" stroke="#191970" d="M329.4466,-129.4934C286.5002,-120.1034 222.5001,-106.1102 170.4154,-94.7222"/>
<polygon fill="#191970" stroke="#191970" points="171.0191,-91.2716 160.5023,-92.5547 169.5239,-98.11 171.0191,-91.2716"/>
</g>
<!-- Node3 -->
<g id="node4" class="node">
<title>Node3</title>
<polygon fill="#ffffff" stroke="#bfbfbf" points="183,-65 183,-86 294,-86 294,-65 183,-65"/>
<text text-anchor="middle" x="238.5" y="-72.4" font-family="Helvetica,sans-Serif" font-size="12.00" fill="#000000">StellarEvolution.h</text>
</g>
<!-- Node1&#45;&gt;Node3 -->
<g id="edge3" class="edge">
<title>Node1&#45;&gt;Node3</title>
<path fill="none" stroke="#191970" d="M354.8579,-129.4934C331.9381,-118.8579 296.2918,-102.3171 270.4915,-90.345"/>
<polygon fill="#191970" stroke="#191970" points="271.6766,-87.0365 261.1324,-86.0021 268.7302,-93.3862 271.6766,-87.0365"/>
</g>
<!-- Node4 -->
<g id="node5" class="node">
<title>Node4</title>
<g id="a_node5"><a xlink:href="IOUtil_8h_source.html" target="_top" xlink:title="IOUtil.h">
<polygon fill="#ffffff" stroke="#000000" points="312.5,-65 312.5,-86 368.5,-86 368.5,-65 312.5,-65"/>
<text text-anchor="middle" x="340.5" y="-72.4" font-family="Helvetica,sans-Serif" font-size="12.00" fill="#000000">IOUtil.h</text>
</a>
</g>
</g>
<!-- Node1&#45;&gt;Node4 -->
<g id="edge4" class="edge">
<title>Node1&#45;&gt;Node4</title>
<path fill="none" stroke="#191970" d="M371.3902,-129.3491C366.0664,-120.0685 358.2091,-106.3712 351.7514,-95.114"/>
<polygon fill="#191970" stroke="#191970" points="354.7544,-93.3149 346.7425,-86.3823 348.6825,-96.798 354.7544,-93.3149"/>
</g>
<!-- Node8 -->
<g id="node9" class="node">
<title>Node8</title>
<polygon fill="#ffffff" stroke="#bfbfbf" points="386.5,-65 386.5,-86 442.5,-86 442.5,-65 386.5,-65"/>
<text text-anchor="middle" x="414.5" y="-72.4" font-family="Helvetica,sans-Serif" font-size="12.00" fill="#000000">fstream</text>
</g>
<!-- Node1&#45;&gt;Node8 -->
<g id="edge8" class="edge">
<title>Node1&#45;&gt;Node8</title>
<path fill="none" stroke="#191970" d="M383.6098,-129.3491C388.9336,-120.0685 396.7909,-106.3712 403.2486,-95.114"/>
<polygon fill="#191970" stroke="#191970" points="406.3175,-96.798 408.2575,-86.3823 400.2456,-93.3149 406.3175,-96.798"/>
</g>
<!-- Node9 -->
<g id="node10" class="node">
<title>Node9</title>
<polygon fill="#ffffff" stroke="#bfbfbf" points="460.5,-65 460.5,-86 506.5,-86 506.5,-65 460.5,-65"/>
<text text-anchor="middle" x="483.5" y="-72.4" font-family="Helvetica,sans-Serif" font-size="12.00" fill="#000000">string</text>
</g>
<!-- Node1&#45;&gt;Node9 -->
<g id="edge9" class="edge">
<title>Node1&#45;&gt;Node9</title>
<path fill="none" stroke="#191970" d="M395.0037,-129.3491C411.9587,-119.0322 437.8832,-103.2574 457.2976,-91.4439"/>
<polygon fill="#191970" stroke="#191970" points="459.2469,-94.3549 465.9703,-86.1667 455.6081,-88.375 459.2469,-94.3549"/>
</g>
<!-- Node10 -->
<g id="node11" class="node">
<title>Node10</title>
<polygon fill="#ffffff" stroke="#bfbfbf" points="524.5,-65 524.5,-86 568.5,-86 568.5,-65 524.5,-65"/>
<text text-anchor="middle" x="546.5" y="-72.4" font-family="Helvetica,sans-Serif" font-size="12.00" fill="#000000">limits</text>
</g>
<!-- Node1&#45;&gt;Node10 -->
<g id="edge10" class="edge">
<title>Node1&#45;&gt;Node10</title>
<path fill="none" stroke="#191970" d="M414.5301,-129.4377C442.7315,-120.9064 482.2377,-107.8975 515.5,-93 517.0511,-92.3053 518.6267,-91.5579 520.2036,-90.7771"/>
<polygon fill="#191970" stroke="#191970" points="521.8867,-93.8464 529.0883,-86.0755 518.6125,-87.6593 521.8867,-93.8464"/>
</g>
<!-- Node5 -->
<g id="node6" class="node">
<title>Node5</title>
<polygon fill="#ffffff" stroke="#bfbfbf" points="230.5,-.5 230.5,-21.5 292.5,-21.5 292.5,-.5 230.5,-.5"/>
<text text-anchor="middle" x="261.5" y="-7.9" font-family="Helvetica,sans-Serif" font-size="12.00" fill="#000000">iostream</text>
</g>
<!-- Node4&#45;&gt;Node5 -->
<g id="edge5" class="edge">
<title>Node4&#45;&gt;Node5</title>
<path fill="none" stroke="#191970" d="M327.4548,-64.8491C315.2188,-54.859 296.7147,-39.7512 282.4174,-28.0781"/>
<polygon fill="#191970" stroke="#191970" points="284.5243,-25.2799 274.5646,-21.6667 280.0972,-30.7022 284.5243,-25.2799"/>
</g>
<!-- Node6 -->
<g id="node7" class="node">
<title>Node6</title>
<polygon fill="#ffffff" stroke="#bfbfbf" points="311,-.5 311,-21.5 370,-21.5 370,-.5 311,-.5"/>
<text text-anchor="middle" x="340.5" y="-7.9" font-family="Helvetica,sans-Serif" font-size="12.00" fill="#000000">valarray</text>
</g>
<!-- Node4&#45;&gt;Node6 -->
<g id="edge6" class="edge">
<title>Node4&#45;&gt;Node6</title>
<path fill="none" stroke="#191970" d="M340.5,-64.8491C340.5,-55.9397 340.5,-42.9599 340.5,-31.9761"/>
<polygon fill="#191970" stroke="#191970" points="344.0001,-31.8822 340.5,-21.8823 337.0001,-31.8823 344.0001,-31.8822"/>
</g>
<!-- Node7 -->
<g id="node8" class="node">
<title>Node7</title>
<polygon fill="#ffffff" stroke="#bfbfbf" points="388.5,-.5 388.5,-21.5 420.5,-21.5 420.5,-.5 388.5,-.5"/>
<text text-anchor="middle" x="404.5" y="-7.9" font-family="Helvetica,sans-Serif" font-size="12.00" fill="#000000">list</text>
</g>
<!-- Node4&#45;&gt;Node7 -->
<g id="edge7" class="edge">
<title>Node4&#45;&gt;Node7</title>
<path fill="none" stroke="#191970" d="M351.0683,-64.8491C360.6454,-55.1972 374.9624,-40.7684 386.3664,-29.2753"/>
<polygon fill="#191970" stroke="#191970" points="389.1431,-31.4461 393.7021,-21.8823 384.1741,-26.5156 389.1431,-31.4461"/>
</g>
</g>
</svg>
