<?xml version="1.0" encoding="UTF-8" standalone="no"?>
<!DOCTYPE svg PUBLIC "-//W3C//DTD SVG 1.1//EN"
 "http://www.w3.org/Graphics/SVG/1.1/DTD/svg11.dtd">
<!-- Generated by graphviz version 2.40.1 (20161225.0304)
 -->
<!-- Title: /Users/kpenev/projects/git/poet/poet_src/StellarEvolution/CustomStellarEvolution.h Pages: 1 -->
<svg width="573pt" height="179pt"
 viewBox="0.00 0.00 573.37 179.00" xmlns="http://www.w3.org/2000/svg" xmlns:xlink="http://www.w3.org/1999/xlink">
<g id="graph0" class="graph" transform="scale(1 1) rotate(0) translate(4 175)">
<title>/Users/kpenev/projects/git/poet/poet_src/StellarEvolution/CustomStellarEvolution.h</title>
<polygon fill="#ffffff" stroke="transparent" points="-4,4 -4,-175 569.3652,-175 569.3652,4 -4,4"/>
<!-- Node0 -->
<g id="node1" class="node">
<title>Node0</title>
<polygon fill="#bfbfbf" stroke="#000000" points="278.3164,-126.5 278.3164,-170.5 473.0859,-170.5 473.0859,-126.5 278.3164,-126.5"/>
<text text-anchor="start" x="286.3164" y="-156.9" font-family="Helvetica,sans-Serif" font-size="12.00" fill="#000000">/Users/kpenev/projects</text>
<text text-anchor="start" x="286.3164" y="-144.9" font-family="Helvetica,sans-Serif" font-size="12.00" fill="#000000">/git/poet/poet_src/StellarEvolution</text>
<text text-anchor="middle" x="375.7012" y="-132.9" font-family="Helvetica,sans-Serif" font-size="12.00" fill="#000000">/CustomStellarEvolution.h</text>
</g>
<!-- Node1 -->
<g id="node2" class="node">
<title>Node1</title>
<g id="a_node2"><a xlink:href="SharedLibraryExportMacros_8h_source.html" target="_top" xlink:title="../Core/SharedLibraryExport\lMacros.h">
<polygon fill="#ffffff" stroke="#000000" points="0,-57.5 0,-89.5 165.4023,-89.5 165.4023,-57.5 0,-57.5"/>
<text text-anchor="start" x="8" y="-75.9" font-family="Helvetica,sans-Serif" font-size="12.00" fill="#000000">../Core/SharedLibraryExport</text>
<text text-anchor="middle" x="82.7012" y="-63.9" font-family="Helvetica,sans-Serif" font-size="12.00" fill="#000000">Macros.h</text>
</a>
</g>
</g>
<!-- Node0&#45;&gt;Node1 -->
<g id="edge1" class="edge">
<title>Node0&#45;&gt;Node1</title>
<path fill="none" stroke="#191970" d="M289.3762,-126.4032C246.803,-115.5056 196.0236,-102.5074 155.4527,-92.1224"/>
<polygon fill="#191970" stroke="#191970" points="156.1913,-88.6987 145.6357,-89.6095 154.4554,-95.4801 156.1913,-88.6987"/>
</g>
<!-- Node2 -->
<g id="node3" class="node">
<title>Node2</title>
<polygon fill="#ffffff" stroke="#bfbfbf" points="183.0078,-63.5 183.0078,-83.5 292.3945,-83.5 292.3945,-63.5 183.0078,-63.5"/>
<text text-anchor="middle" x="237.7012" y="-69.9" font-family="Helvetica,sans-Serif" font-size="12.00" fill="#000000">StellarEvolution.h</text>
</g>
<!-- Node0&#45;&gt;Node2 -->
<g id="edge2" class="edge">
<title>Node0&#45;&gt;Node2</title>
<path fill="none" stroke="#191970" d="M335.043,-126.4032C312.5307,-114.1682 285.1465,-99.2855 265.1646,-88.4258"/>
<polygon fill="#191970" stroke="#191970" points="266.7342,-85.2954 256.2766,-83.5954 263.3916,-91.4457 266.7342,-85.2954"/>
</g>
<!-- Node3 -->
<g id="node4" class="node">
<title>Node3</title>
<g id="a_node4"><a xlink:href="IOUtil_8h_source.html" target="_top" xlink:title="IOUtil.h">
<polygon fill="#ffffff" stroke="#000000" points="310.6973,-63.5 310.6973,-83.5 366.7051,-83.5 366.7051,-63.5 310.6973,-63.5"/>
<text text-anchor="middle" x="338.7012" y="-69.9" font-family="Helvetica,sans-Serif" font-size="12.00" fill="#000000">IOUtil.h</text>
</a>
</g>
</g>
<!-- Node0&#45;&gt;Node3 -->
<g id="edge3" class="edge">
<title>Node0&#45;&gt;Node3</title>
<path fill="none" stroke="#191970" d="M364.8001,-126.4032C359.5016,-115.663 353.1965,-102.8825 348.111,-92.574"/>
<polygon fill="#191970" stroke="#191970" points="351.2447,-91.0149 343.6815,-83.5954 344.967,-94.1119 351.2447,-91.0149"/>
</g>
<!-- Node7 -->
<g id="node8" class="node">
<title>Node7</title>
<polygon fill="#ffffff" stroke="#bfbfbf" points="384.6973,-63.5 384.6973,-83.5 440.7051,-83.5 440.7051,-63.5 384.6973,-63.5"/>
<text text-anchor="middle" x="412.7012" y="-69.9" font-family="Helvetica,sans-Serif" font-size="12.00" fill="#000000">fstream</text>
</g>
<!-- Node0&#45;&gt;Node7 -->
<g id="edge7" class="edge">
<title>Node0&#45;&gt;Node7</title>
<path fill="none" stroke="#191970" d="M386.6023,-126.4032C391.9008,-115.663 398.2058,-102.8825 403.2913,-92.574"/>
<polygon fill="#191970" stroke="#191970" points="406.4353,-94.1119 407.7208,-83.5954 400.1577,-91.0149 406.4353,-94.1119"/>
</g>
<!-- Node8 -->
<g id="node9" class="node">
<title>Node8</title>
<polygon fill="#ffffff" stroke="#bfbfbf" points="459.0293,-63.5 459.0293,-83.5 504.373,-83.5 504.373,-63.5 459.0293,-63.5"/>
<text text-anchor="middle" x="481.7012" y="-69.9" font-family="Helvetica,sans-Serif" font-size="12.00" fill="#000000">string</text>
</g>
<!-- Node0&#45;&gt;Node8 -->
<g id="edge8" class="edge">
<title>Node0&#45;&gt;Node8</title>
<path fill="none" stroke="#191970" d="M406.9314,-126.4032C423.6757,-114.5557 443.9289,-100.2256 459.1308,-89.4696"/>
<polygon fill="#191970" stroke="#191970" points="461.2914,-92.2284 467.4331,-83.5954 457.2482,-86.5141 461.2914,-92.2284"/>
</g>
<!-- Node9 -->
<g id="node10" class="node">
<title>Node9</title>
<polygon fill="#ffffff" stroke="#bfbfbf" points="522.0371,-63.5 522.0371,-83.5 565.3652,-83.5 565.3652,-63.5 522.0371,-63.5"/>
<text text-anchor="middle" x="543.7012" y="-69.9" font-family="Helvetica,sans-Serif" font-size="12.00" fill="#000000">limits</text>
</g>
<!-- Node0&#45;&gt;Node9 -->
<g id="edge9" class="edge">
<title>Node0&#45;&gt;Node9</title>
<path fill="none" stroke="#191970" d="M431.3429,-126.4273C456.7289,-115.9716 487.0137,-102.954 513.7012,-90 514.8442,-89.4452 516.0055,-88.868 517.174,-88.276"/>
<polygon fill="#191970" stroke="#191970" points="518.8773,-91.3347 526.091,-83.575 515.6128,-85.1425 518.8773,-91.3347"/>
</g>
<!-- Node4 -->
<g id="node5" class="node">
<title>Node4</title>
<polygon fill="#ffffff" stroke="#bfbfbf" points="229.6943,-.5 229.6943,-20.5 291.708,-20.5 291.708,-.5 229.6943,-.5"/>
<text text-anchor="middle" x="260.7012" y="-6.9" font-family="Helvetica,sans-Serif" font-size="12.00" fill="#000000">iostream</text>
</g>
<!-- Node3&#45;&gt;Node4 -->
<g id="edge4" class="edge">
<title>Node3&#45;&gt;Node4</title>
<path fill="none" stroke="#191970" d="M326.1691,-63.378C314.0015,-53.5503 295.3258,-38.4661 281.0305,-26.9198"/>
<polygon fill="#191970" stroke="#191970" points="283.1807,-24.1575 273.2021,-20.5969 278.7824,-29.6031 283.1807,-24.1575"/>
</g>
<!-- Node5 -->
<g id="node6" class="node">
<title>Node5</title>
<polygon fill="#ffffff" stroke="#bfbfbf" points="309.3613,-.5 309.3613,-20.5 368.041,-20.5 368.041,-.5 309.3613,-.5"/>
<text text-anchor="middle" x="338.7012" y="-6.9" font-family="Helvetica,sans-Serif" font-size="12.00" fill="#000000">valarray</text>
</g>
<!-- Node3&#45;&gt;Node5 -->
<g id="edge5" class="edge">
<title>Node3&#45;&gt;Node5</title>
<path fill="none" stroke="#191970" d="M338.7012,-63.378C338.7012,-54.7041 338.7012,-41.9355 338.7012,-31.1186"/>
<polygon fill="#191970" stroke="#191970" points="342.2013,-30.8062 338.7012,-20.8062 335.2013,-30.8062 342.2013,-30.8062"/>
</g>
<!-- Node6 -->
<g id="node7" class="node">
<title>Node6</title>
<polygon fill="#ffffff" stroke="#bfbfbf" points="386.3682,-.5 386.3682,-20.5 417.0342,-20.5 417.0342,-.5 386.3682,-.5"/>
<text text-anchor="middle" x="401.7012" y="-6.9" font-family="Helvetica,sans-Serif" font-size="12.00" fill="#000000">list</text>
</g>
<!-- Node3&#45;&gt;Node6 -->
<g id="edge6" class="edge">
<title>Node3&#45;&gt;Node6</title>
<path fill="none" stroke="#191970" d="M348.8232,-63.378C358.3188,-53.8823 372.7218,-39.4794 384.0992,-28.102"/>
<polygon fill="#191970" stroke="#191970" points="386.7987,-30.3522 391.395,-20.8062 381.849,-25.4024 386.7987,-30.3522"/>
</g>
</g>
</svg>
