<?xml version="1.0" encoding="UTF-8" standalone="no"?>
<!DOCTYPE svg PUBLIC "-//W3C//DTD SVG 1.1//EN"
 "http://www.w3.org/Graphics/SVG/1.1/DTD/svg11.dtd">
<!-- Generated by graphviz version 2.40.1 (20161225.0304)
 -->
<!-- Title: /Users/kpenev/projects/git/poet/poet_src/StellarEvolution/CustomStellarEvolution.cpp Pages: 1 -->
<!--zoomable 236 -->
<svg id="main" version="1.1" xmlns="http://www.w3.org/2000/svg" xmlns:xlink="http://www.w3.org/1999/xlink" xml:space="preserve" onload="init(evt)">
<style type="text/css"><![CDATA[
.edge:hover path { stroke: red; }
.edge:hover polygon { stroke: red; fill: red; }
]]></style>
<script type="text/javascript"><![CDATA[
var edges = document.getElementsByTagName('g');
if (edges && edges.length) {
  for (var i=0;i<edges.length;i++) {
    if (edges[i].id.substr(0,4)=='edge') {
      edges[i].setAttribute('class','edge');
    }
  }
}
]]></script>
        <defs>
                <circle id="rim" cx="0" cy="0" r="7"/>
                <circle id="rim2" cx="0" cy="0" r="3.5"/>
                <g id="zoomPlus">
                        <use xlink:href="#rim" fill="#404040">
                                <set attributeName="fill" to="#808080" begin="zoomplus.mouseover" end="zoomplus.mouseout"/>
                        </use>
                        <path d="M-4,0h8M0,-4v8" fill="none" stroke="white" stroke-width="1.5" pointer-events="none"/>
                </g>
                <g id="zoomMin">
                        <use xlink:href="#rim" fill="#404040">
                                <set attributeName="fill" to="#808080" begin="zoomminus.mouseover" end="zoomminus.mouseout"/>
                        </use>
                        <path d="M-4,0h8" fill="none" stroke="white" stroke-width="1.5" pointer-events="none"/>
                </g>
                <g id="dirArrow">
                        <path fill="none" stroke="white" stroke-width="1.5" d="M0,-3.0v7 M-2.5,-0.5L0,-3.0L2.5,-0.5"/>
                </g>
               <g id="resetDef">
                       <use xlink:href="#rim2" fill="#404040">
                               <set attributeName="fill" to="#808080" begin="reset.mouseover" end="reset.mouseout"/>
                       </use>
               </g>
        </defs>

<script type="text/javascript">
var viewWidth = 573;
var viewHeight = 236;
var sectionId = 'dynsection-0';
</script>
<script xlink:href="svgpan.js"/>
<svg id="graph" class="graph">
<g id="viewport">
<title>/Users/kpenev/projects/git/poet/poet_src/StellarEvolution/CustomStellarEvolution.cpp</title>
<polygon fill="#ffffff" stroke="transparent" points="-4,4 -4,-232 569.3652,-232 569.3652,4 -4,4"/>
<!-- Node0 -->
<g id="node1" class="node">
<title>Node0</title>
<polygon fill="#bfbfbf" stroke="#000000" points="278.3164,-183.5 278.3164,-227.5 473.0859,-227.5 473.0859,-183.5 278.3164,-183.5"/>
<text text-anchor="start" x="286.3164" y="-213.9" font-family="Helvetica,sans-Serif" font-size="12.00" fill="#000000">/Users/kpenev/projects</text>
<text text-anchor="start" x="286.3164" y="-201.9" font-family="Helvetica,sans-Serif" font-size="12.00" fill="#000000">/git/poet/poet_src/StellarEvolution</text>
<text text-anchor="middle" x="375.7012" y="-189.9" font-family="Helvetica,sans-Serif" font-size="12.00" fill="#000000">/CustomStellarEvolution.cpp</text>
</g>
<!-- Node1 -->
<g id="node2" class="node">
<title>Node1</title>
<g id="a_node2"><a xlink:href="CustomStellarEvolution_8h.html" target="_top" xlink:title="Defines the class which implements a custom single track stellar evolution. ">
<polygon fill="#ffffff" stroke="#000000" points="300.3359,-126.5 300.3359,-146.5 451.0664,-146.5 451.0664,-126.5 300.3359,-126.5"/>
<text text-anchor="middle" x="375.7012" y="-132.9" font-family="Helvetica,sans-Serif" font-size="12.00" fill="#000000">CustomStellarEvolution.h</text>
</a>
</g>
</g>
<!-- Node0&#45;&gt;Node1 -->
<g id="edge1" class="edge">
<title>Node0&#45;&gt;Node1</title>
<path fill="none" stroke="#191970" d="M375.7012,-183.2882C375.7012,-174.8377 375.7012,-165.2557 375.7012,-156.9736"/>
<polygon fill="#191970" stroke="#191970" points="379.2013,-156.7136 375.7012,-146.7137 372.2013,-156.7137 379.2013,-156.7136"/>
</g>
<!-- Node2 -->
<g id="node3" class="node">
<title>Node2</title>
<g id="a_node3"><a xlink:href="SharedLibraryExportMacros_8h_source.html" target="_top" xlink:title="../Core/SharedLibraryExport\lMacros.h">
<polygon fill="#ffffff" stroke="#000000" points="0,-57.5 0,-89.5 165.4023,-89.5 165.4023,-57.5 0,-57.5"/>
<text text-anchor="start" x="8" y="-75.9" font-family="Helvetica,sans-Serif" font-size="12.00" fill="#000000">../Core/SharedLibraryExport</text>
<text text-anchor="middle" x="82.7012" y="-63.9" font-family="Helvetica,sans-Serif" font-size="12.00" fill="#000000">Macros.h</text>
</a>
</g>
</g>
<!-- Node1&#45;&gt;Node2 -->
<g id="edge2" class="edge">
<title>Node1&#45;&gt;Node2</title>
<path fill="none" stroke="#191970" d="M328.9505,-126.4478C285.5403,-117.1139 219.8774,-102.9952 167.2715,-91.6841"/>
<polygon fill="#191970" stroke="#191970" points="167.7848,-88.2145 157.2725,-89.5341 166.3133,-95.0581 167.7848,-88.2145"/>
</g>
<!-- Node3 -->
<g id="node4" class="node">
<title>Node3</title>
<polygon fill="#ffffff" stroke="#bfbfbf" points="183.0078,-63.5 183.0078,-83.5 292.3945,-83.5 292.3945,-63.5 183.0078,-63.5"/>
<text text-anchor="middle" x="237.7012" y="-69.9" font-family="Helvetica,sans-Serif" font-size="12.00" fill="#000000">StellarEvolution.h</text>
</g>
<!-- Node1&#45;&gt;Node3 -->
<g id="edge3" class="edge">
<title>Node1&#45;&gt;Node3</title>
<path fill="none" stroke="#191970" d="M353.5291,-126.378C330.694,-115.9533 294.9033,-99.614 269.1493,-87.8568"/>
<polygon fill="#191970" stroke="#191970" points="270.3687,-84.566 259.8182,-83.5969 267.4616,-90.9338 270.3687,-84.566"/>
</g>
<!-- Node4 -->
<g id="node5" class="node">
<title>Node4</title>
<g id="a_node5"><a xlink:href="IOUtil_8h_source.html" target="_top" xlink:title="IOUtil.h">
<polygon fill="#ffffff" stroke="#000000" points="310.6973,-63.5 310.6973,-83.5 366.7051,-83.5 366.7051,-63.5 310.6973,-63.5"/>
<text text-anchor="middle" x="338.7012" y="-69.9" font-family="Helvetica,sans-Serif" font-size="12.00" fill="#000000">IOUtil.h</text>
</a>
</g>
</g>
<!-- Node1&#45;&gt;Node4 -->
<g id="edge4" class="edge">
<title>Node1&#45;&gt;Node4</title>
<path fill="none" stroke="#191970" d="M369.7565,-126.378C364.4478,-117.3389 356.5275,-103.853 350.0144,-92.7631"/>
<polygon fill="#191970" stroke="#191970" points="352.8363,-90.6566 344.754,-83.8062 346.8003,-94.2016 352.8363,-90.6566"/>
</g>
<!-- Node8 -->
<g id="node9" class="node">
<title>Node8</title>
<polygon fill="#ffffff" stroke="#bfbfbf" points="384.6973,-63.5 384.6973,-83.5 440.7051,-83.5 440.7051,-63.5 384.6973,-63.5"/>
<text text-anchor="middle" x="412.7012" y="-69.9" font-family="Helvetica,sans-Serif" font-size="12.00" fill="#000000">fstream</text>
</g>
<!-- Node1&#45;&gt;Node8 -->
<g id="edge8" class="edge">
<title>Node1&#45;&gt;Node8</title>
<path fill="none" stroke="#191970" d="M381.6459,-126.378C386.9545,-117.3389 394.8748,-103.853 401.3879,-92.7631"/>
<polygon fill="#191970" stroke="#191970" points="404.6021,-94.2016 406.6483,-83.8062 398.566,-90.6566 404.6021,-94.2016"/>
</g>
<!-- Node9 -->
<g id="node10" class="node">
<title>Node9</title>
<polygon fill="#ffffff" stroke="#bfbfbf" points="459.0293,-63.5 459.0293,-83.5 504.373,-83.5 504.373,-63.5 459.0293,-63.5"/>
<text text-anchor="middle" x="481.7012" y="-69.9" font-family="Helvetica,sans-Serif" font-size="12.00" fill="#000000">string</text>
</g>
<!-- Node1&#45;&gt;Node9 -->
<g id="edge9" class="edge">
<title>Node1&#45;&gt;Node9</title>
<path fill="none" stroke="#191970" d="M392.7319,-126.378C409.8083,-116.2288 436.317,-100.4736 455.9609,-88.7985"/>
<polygon fill="#191970" stroke="#191970" points="457.9046,-91.7148 464.7127,-83.5969 454.3282,-85.6974 457.9046,-91.7148"/>
</g>
<!-- Node10 -->
<g id="node11" class="node">
<title>Node10</title>
<polygon fill="#ffffff" stroke="#bfbfbf" points="522.0371,-63.5 522.0371,-83.5 565.3652,-83.5 565.3652,-63.5 522.0371,-63.5"/>
<text text-anchor="middle" x="543.7012" y="-69.9" font-family="Helvetica,sans-Serif" font-size="12.00" fill="#000000">limits</text>
</g>
<!-- Node1&#45;&gt;Node10 -->
<g id="edge10" class="edge">
<title>Node1&#45;&gt;Node10</title>
<path fill="none" stroke="#191970" d="M411.2341,-126.4319C439.4988,-117.972 479.7911,-104.8969 513.7012,-90 514.895,-89.4755 516.1046,-88.9198 517.3184,-88.342"/>
<polygon fill="#191970" stroke="#191970" points="519.2094,-91.3059 526.5158,-83.6335 516.0195,-85.075 519.2094,-91.3059"/>
</g>
<!-- Node5 -->
<g id="node6" class="node">
<title>Node5</title>
<polygon fill="#ffffff" stroke="#bfbfbf" points="229.6943,-.5 229.6943,-20.5 291.708,-20.5 291.708,-.5 229.6943,-.5"/>
<text text-anchor="middle" x="260.7012" y="-6.9" font-family="Helvetica,sans-Serif" font-size="12.00" fill="#000000">iostream</text>
</g>
<!-- Node4&#45;&gt;Node5 -->
<g id="edge5" class="edge">
<title>Node4&#45;&gt;Node5</title>
<path fill="none" stroke="#191970" d="M326.1691,-63.378C314.0015,-53.5503 295.3258,-38.4661 281.0305,-26.9198"/>
<polygon fill="#191970" stroke="#191970" points="283.1807,-24.1575 273.2021,-20.5969 278.7824,-29.6031 283.1807,-24.1575"/>
</g>
<!-- Node6 -->
<g id="node7" class="node">
<title>Node6</title>
<polygon fill="#ffffff" stroke="#bfbfbf" points="309.3613,-.5 309.3613,-20.5 368.041,-20.5 368.041,-.5 309.3613,-.5"/>
<text text-anchor="middle" x="338.7012" y="-6.9" font-family="Helvetica,sans-Serif" font-size="12.00" fill="#000000">valarray</text>
</g>
<!-- Node4&#45;&gt;Node6 -->
<g id="edge6" class="edge">
<title>Node4&#45;&gt;Node6</title>
<path fill="none" stroke="#191970" d="M338.7012,-63.378C338.7012,-54.7041 338.7012,-41.9355 338.7012,-31.1186"/>
<polygon fill="#191970" stroke="#191970" points="342.2013,-30.8062 338.7012,-20.8062 335.2013,-30.8062 342.2013,-30.8062"/>
</g>
<!-- Node7 -->
<g id="node8" class="node">
<title>Node7</title>
<polygon fill="#ffffff" stroke="#bfbfbf" points="386.3682,-.5 386.3682,-20.5 417.0342,-20.5 417.0342,-.5 386.3682,-.5"/>
<text text-anchor="middle" x="401.7012" y="-6.9" font-family="Helvetica,sans-Serif" font-size="12.00" fill="#000000">list</text>
</g>
<!-- Node4&#45;&gt;Node7 -->
<g id="edge7" class="edge">
<title>Node4&#45;&gt;Node7</title>
<path fill="none" stroke="#191970" d="M348.8232,-63.378C358.3188,-53.8823 372.7218,-39.4794 384.0992,-28.102"/>
<polygon fill="#191970" stroke="#191970" points="386.7987,-30.3522 391.395,-20.8062 381.849,-25.4024 386.7987,-30.3522"/>
</g>
</g>
</svg>
        <g id="navigator" transform="translate(0 0)" fill="#404254">
                <rect fill="#f2f5e9" fill-opacity="0.5" stroke="#606060" stroke-width=".5" x="0" y="0" width="60" height="60"/>
                <use id="zoomplus" xlink:href="#zoomPlus" x="17" y="9" onmousedown="handleZoom(evt,'in')"/>
                <use id="zoomminus" xlink:href="#zoomMin" x="42" y="9" onmousedown="handleZoom(evt,'out')"/>
                <use id="reset" xlink:href="#resetDef" x="30" y="36" onmousedown="handleReset()"/>
                <g id="arrowUp" xlink:href="#dirArrow" transform="translate(30 24)" onmousedown="handlePan(0,-1)">
                  <use xlink:href="#rim" fill="#404040">
                        <set attributeName="fill" to="#808080" begin="arrowUp.mouseover" end="arrowUp.mouseout"/>
                  </use>
                  <path fill="none" stroke="white" stroke-width="1.5" d="M0,-3.0v7 M-2.5,-0.5L0,-3.0L2.5,-0.5"/>
                </g>
                <g id="arrowRight" xlink:href="#dirArrow" transform="rotate(90) translate(36 -43)" onmousedown="handlePan(1,0)">
                  <use xlink:href="#rim" fill="#404040">
                        <set attributeName="fill" to="#808080" begin="arrowRight.mouseover" end="arrowRight.mouseout"/>
                  </use>
                  <path fill="none" stroke="white" stroke-width="1.5" d="M0,-3.0v7 M-2.5,-0.5L0,-3.0L2.5,-0.5"/>
                </g>
                <g id="arrowDown" xlink:href="#dirArrow" transform="rotate(180) translate(-30 -48)" onmousedown="handlePan(0,1)">
                  <use xlink:href="#rim" fill="#404040">
                        <set attributeName="fill" to="#808080" begin="arrowDown.mouseover" end="arrowDown.mouseout"/>
                  </use>
                  <path fill="none" stroke="white" stroke-width="1.5" d="M0,-3.0v7 M-2.5,-0.5L0,-3.0L2.5,-0.5"/>
                </g>
                <g id="arrowLeft" xlink:href="#dirArrow" transform="rotate(270) translate(-36 17)" onmousedown="handlePan(-1,0)">
                  <use xlink:href="#rim" fill="#404040">
                        <set attributeName="fill" to="#808080" begin="arrowLeft.mouseover" end="arrowLeft.mouseout"/>
                  </use>
                  <path fill="none" stroke="white" stroke-width="1.5" d="M0,-3.0v7 M-2.5,-0.5L0,-3.0L2.5,-0.5"/>
                </g>
        </g>
        <svg viewBox="0 0 15 15" width="100%" height="30px" preserveAspectRatio="xMaxYMin meet">
         <g id="arrow_out" transform="scale(0.3 0.3)">
          <a xlink:href="CustomStellarEvolution_8cpp__incl_org.svg" target="_base">
           <rect id="button" ry="5" rx="5" y="6" x="6" height="38" width="38"
                fill="#f2f5e9" fill-opacity="0.5" stroke="#606060" stroke-width="1.0"/>
           <path id="arrow"
             d="M 11.500037,31.436501 C 11.940474,20.09759 22.043105,11.32322 32.158766,21.979434 L 37.068811,17.246167 C 37.068811,17.246167 37.088388,32 37.088388,32 L 22.160133,31.978069 C 22.160133,31.978069 26.997745,27.140456 26.997745,27.140456 C 18.528582,18.264221 13.291696,25.230495 11.500037,31.436501 z"
             style="fill:#404040;"/>
          </a>
         </g>
        </svg>
</svg>
