<?xml version="1.0" encoding="UTF-8" standalone="no"?>
<!DOCTYPE svg PUBLIC "-//W3C//DTD SVG 1.1//EN"
 "http://www.w3.org/Graphics/SVG/1.1/DTD/svg11.dtd">
<!-- Generated by graphviz version 2.40.1 (20161225.0304)
 -->
<!-- Title: /Users/kpenev/projects/git/poet/poet_src/Evolve Pages: 1 -->
<svg width="222pt" height="170pt"
 viewBox="0.00 0.00 222.00 170.30" xmlns="http://www.w3.org/2000/svg" xmlns:xlink="http://www.w3.org/1999/xlink">
<g id="graph0" class="graph" transform="scale(1 1) rotate(0) translate(4 166.2959)">
<title>/Users/kpenev/projects/git/poet/poet_src/Evolve</title>
<polygon fill="#ffffff" stroke="transparent" points="-4,4 -4,-166.2959 218,-166.2959 218,4 -4,4"/>
<g id="clust1" class="cluster">
<title>clusterdir_e247b8950c2da2f51dd8497aec65ce0d</title>
<g id="a_clust1"><a xlink:href="dir_e247b8950c2da2f51dd8497aec65ce0d.html" target="_top" xlink:title="poet_src">
<polygon fill="#ddddee" stroke="#000000" points="8,-64 8,-136 78,-136 78,-64 8,-64"/>
<text text-anchor="middle" x="43" y="-122.4" font-family="Helvetica,sans-Serif" font-size="12.00" fill="#000000">poet_src</text>
</a>
</g>
</g>
<!-- dir_bace5b3272c3045fbaf2ba9e016347ef -->
<g id="node1" class="node">
<title>dir_bace5b3272c3045fbaf2ba9e016347ef</title>
<g id="a_node1"><a xlink:href="dir_bace5b3272c3045fbaf2ba9e016347ef.html" target="_top" xlink:title="Evolve">
<polygon fill="#eeeeff" stroke="#000000" points="70,-108 16,-108 16,-72 70,-72 70,-108"/>
<text text-anchor="middle" x="43" y="-86.4" font-family="Helvetica,sans-Serif" font-size="12.00" fill="#000000">Evolve</text>
</a>
</g>
</g>
<!-- dir_4676ceff05f71a508bb4cf796d7af063 -->
<g id="node2" class="node">
<title>dir_4676ceff05f71a508bb4cf796d7af063</title>
<g id="a_node2"><a xlink:href="dir_4676ceff05f71a508bb4cf796d7af063.html" target="_top" xlink:title="Planet">
<polygon fill="none" stroke="#000000" points="142,-108 88,-108 88,-72 142,-72 142,-108"/>
<text text-anchor="middle" x="115" y="-86.4" font-family="Helvetica,sans-Serif" font-size="12.00" fill="#000000">Planet</text>
</a>
</g>
</g>
<!-- dir_bace5b3272c3045fbaf2ba9e016347ef&#45;&gt;dir_4676ceff05f71a508bb4cf796d7af063 -->
<g id="edge3" class="edge">
<title>dir_bace5b3272c3045fbaf2ba9e016347ef&#45;&gt;dir_4676ceff05f71a508bb4cf796d7af063</title>
<path fill="none" stroke="#000000" d="M70.2813,-90C72.7377,-90 75.1942,-90 77.6507,-90"/>
<polygon fill="#000000" stroke="#000000" points="77.7495,-93.5001 87.7495,-90 77.7495,-86.5001 77.7495,-93.5001"/>
<g id="a_edge3&#45;headlabel"><a xlink:href="dir_000005_000006.html" target="_top" xlink:title="1">
<text text-anchor="middle" x="74.1549" y="-92.7393" font-family="Helvetica,sans-Serif" font-size="12.00" fill="#000000">1</text>
</a>
</g>
</g>
<!-- dir_08389f9c72fab3fa939892ce5a81a233 -->
<g id="node3" class="node">
<title>dir_08389f9c72fab3fa939892ce5a81a233</title>
<g id="a_node3"><a xlink:href="dir_08389f9c72fab3fa939892ce5a81a233.html" target="_top" xlink:title="Core">
<polygon fill="none" stroke="#000000" points="142,-36 88,-36 88,0 142,0 142,-36"/>
<text text-anchor="middle" x="115" y="-14.4" font-family="Helvetica,sans-Serif" font-size="12.00" fill="#000000">Core</text>
</a>
</g>
</g>
<!-- dir_bace5b3272c3045fbaf2ba9e016347ef&#45;&gt;dir_08389f9c72fab3fa939892ce5a81a233 -->
<g id="edge4" class="edge">
<title>dir_bace5b3272c3045fbaf2ba9e016347ef&#45;&gt;dir_08389f9c72fab3fa939892ce5a81a233</title>
<path fill="none" stroke="#000000" d="M61.1686,-71.8314C69.7152,-63.2848 80.0557,-52.9443 89.3802,-43.6198"/>
<polygon fill="#000000" stroke="#000000" points="91.9905,-45.9592 96.5867,-36.4133 87.0408,-41.0095 91.9905,-45.9592"/>
<g id="a_edge4&#45;headlabel"><a xlink:href="dir_000005_000002.html" target="_top" xlink:title="21">
<text text-anchor="middle" x="91.4564" y="-46.9087" font-family="Helvetica,sans-Serif" font-size="12.00" fill="#000000">21</text>
</a>
</g>
</g>
<!-- dir_933c94a385a94813ee58c302720c091a -->
<g id="node4" class="node">
<title>dir_933c94a385a94813ee58c302720c091a</title>
<g id="a_node4"><a xlink:href="dir_933c94a385a94813ee58c302720c091a.html" target="_top" xlink:title="Star">
<polygon fill="none" stroke="#000000" points="214,-108 160,-108 160,-72 214,-72 214,-108"/>
<text text-anchor="middle" x="187" y="-86.4" font-family="Helvetica,sans-Serif" font-size="12.00" fill="#000000">Star</text>
</a>
</g>
</g>
<!-- dir_bace5b3272c3045fbaf2ba9e016347ef&#45;&gt;dir_933c94a385a94813ee58c302720c091a -->
<g id="edge5" class="edge">
<title>dir_bace5b3272c3045fbaf2ba9e016347ef&#45;&gt;dir_933c94a385a94813ee58c302720c091a</title>
<path fill="none" stroke="#000000" d="M50.0354,-108.0928C57.0855,-123.4325 69.5571,-144.4221 88,-154 109.2991,-165.0612 120.7009,-165.0612 142,-154 156.9849,-146.218 168.0277,-130.9024 175.4235,-117.2048"/>
<polygon fill="#000000" stroke="#000000" points="178.6367,-118.6041 179.9646,-108.0928 172.3716,-115.4817 178.6367,-118.6041"/>
<g id="a_edge5&#45;headlabel"><a xlink:href="dir_000005_000007.html" target="_top" xlink:title="1">
<text text-anchor="middle" x="179.5745" y="-119.4877" font-family="Helvetica,sans-Serif" font-size="12.00" fill="#000000">1</text>
</a>
</g>
</g>
<!-- dir_4676ceff05f71a508bb4cf796d7af063&#45;&gt;dir_bace5b3272c3045fbaf2ba9e016347ef -->
<g id="edge1" class="edge">
<title>dir_4676ceff05f71a508bb4cf796d7af063&#45;&gt;dir_bace5b3272c3045fbaf2ba9e016347ef</title>
<path fill="none" stroke="#000000" d="M87.7495,-90C85.293,-90 82.8366,-90 80.3801,-90"/>
<polygon fill="#000000" stroke="#000000" points="80.2813,-86.5001 70.2813,-90 80.2812,-93.5001 80.2813,-86.5001"/>
<g id="a_edge1&#45;headlabel"><a xlink:href="dir_000006_000005.html" target="_top" xlink:title="4">
<text text-anchor="middle" x="83.8759" y="-80.0607" font-family="Helvetica,sans-Serif" font-size="12.00" fill="#000000">4</text>
</a>
</g>
</g>
<!-- dir_4676ceff05f71a508bb4cf796d7af063&#45;&gt;dir_08389f9c72fab3fa939892ce5a81a233 -->
<g id="edge2" class="edge">
<title>dir_4676ceff05f71a508bb4cf796d7af063&#45;&gt;dir_08389f9c72fab3fa939892ce5a81a233</title>
<path fill="none" stroke="#000000" d="M115,-71.8314C115,-64.131 115,-54.9743 115,-46.4166"/>
<polygon fill="#000000" stroke="#000000" points="118.5001,-46.4132 115,-36.4133 111.5001,-46.4133 118.5001,-46.4132"/>
<g id="a_edge2&#45;headlabel"><a xlink:href="dir_000006_000002.html" target="_top" xlink:title="1">
<text text-anchor="middle" x="121.3393" y="-46.4079" font-family="Helvetica,sans-Serif" font-size="12.00" fill="#000000">1</text>
</a>
</g>
</g>
<!-- dir_933c94a385a94813ee58c302720c091a&#45;&gt;dir_bace5b3272c3045fbaf2ba9e016347ef -->
<g id="edge6" class="edge">
<title>dir_933c94a385a94813ee58c302720c091a&#45;&gt;dir_bace5b3272c3045fbaf2ba9e016347ef</title>
<path fill="none" stroke="#000000" d="M179.9646,-108.0928C172.9145,-123.4325 160.4429,-144.4221 142,-154 120.7009,-165.0612 109.2991,-165.0612 88,-154 73.0151,-146.218 61.9723,-130.9024 54.5765,-117.2048"/>
<polygon fill="#000000" stroke="#000000" points="57.6284,-115.4817 50.0354,-108.0928 51.3633,-118.6041 57.6284,-115.4817"/>
<g id="a_edge6&#45;headlabel"><a xlink:href="dir_000007_000005.html" target="_top" xlink:title="8">
<text text-anchor="middle" x="61.7729" y="-113.8325" font-family="Helvetica,sans-Serif" font-size="12.00" fill="#000000">8</text>
</a>
</g>
</g>
<!-- dir_933c94a385a94813ee58c302720c091a&#45;&gt;dir_08389f9c72fab3fa939892ce5a81a233 -->
<g id="edge7" class="edge">
<title>dir_933c94a385a94813ee58c302720c091a&#45;&gt;dir_08389f9c72fab3fa939892ce5a81a233</title>
<path fill="none" stroke="#000000" d="M168.8314,-71.8314C160.2848,-63.2848 149.9443,-52.9443 140.6198,-43.6198"/>
<polygon fill="#000000" stroke="#000000" points="142.9592,-41.0095 133.4133,-36.4133 138.0095,-45.9592 142.9592,-41.0095"/>
<g id="a_edge7&#45;headlabel"><a xlink:href="dir_000007_000002.html" target="_top" xlink:title="2">
<text text-anchor="middle" x="147.5087" y="-37.9436" font-family="Helvetica,sans-Serif" font-size="12.00" fill="#000000">2</text>
</a>
</g>
</g>
</g>
</svg>
