<?xml version="1.0" encoding="UTF-8" standalone="no"?>
<!DOCTYPE svg PUBLIC "-//W3C//DTD SVG 1.1//EN"
 "http://www.w3.org/Graphics/SVG/1.1/DTD/svg11.dtd">
<!-- Generated by graphviz version 2.40.1 (20161225.0304)
 -->
<!-- Title: /home/kpenev/projects/git/poet/poet_src/Planet Pages: 1 -->
<svg width="150pt" height="153pt"
 viewBox="0.00 0.00 150.00 153.00" xmlns="http://www.w3.org/2000/svg" xmlns:xlink="http://www.w3.org/1999/xlink">
<g id="graph0" class="graph" transform="scale(1 1) rotate(0) translate(4 149)">
<title>/home/kpenev/projects/git/poet/poet_src/Planet</title>
<polygon fill="#ffffff" stroke="transparent" points="-4,4 -4,-149 146,-149 146,4 -4,4"/>
<g id="clust1" class="cluster">
<title>clusterdir_e247b8950c2da2f51dd8497aec65ce0d</title>
<g id="a_clust1"><a xlink:href="dir_e247b8950c2da2f51dd8497aec65ce0d.html" target="_top" xlink:title="poet_src">
<polygon fill="#ddddee" stroke="#000000" points="8,-64 8,-137 78,-137 78,-64 8,-64"/>
<text text-anchor="middle" x="43" y="-123.4" font-family="Helvetica,sans-Serif" font-size="12.00" fill="#000000">poet_src</text>
</a>
</g>
</g>
<!-- dir_4676ceff05f71a508bb4cf796d7af063 -->
<g id="node1" class="node">
<title>dir_4676ceff05f71a508bb4cf796d7af063</title>
<g id="a_node1"><a xlink:href="dir_4676ceff05f71a508bb4cf796d7af063.html" target="_top" xlink:title="Planet">
<polygon fill="#eeeeff" stroke="#000000" points="70,-108 16,-108 16,-72 70,-72 70,-108"/>
<text text-anchor="middle" x="43" y="-86.9" font-family="Helvetica,sans-Serif" font-size="12.00" fill="#000000">Planet</text>
</a>
</g>
</g>
<!-- dir_bace5b3272c3045fbaf2ba9e016347ef -->
<g id="node2" class="node">
<title>dir_bace5b3272c3045fbaf2ba9e016347ef</title>
<g id="a_node2"><a xlink:href="dir_bace5b3272c3045fbaf2ba9e016347ef.html" target="_top" xlink:title="Evolve">
<polygon fill="none" stroke="#000000" points="142,-108 88,-108 88,-72 142,-72 142,-108"/>
<text text-anchor="middle" x="115" y="-86.9" font-family="Helvetica,sans-Serif" font-size="12.00" fill="#000000">Evolve</text>
</a>
</g>
</g>
<!-- dir_4676ceff05f71a508bb4cf796d7af063&#45;&gt;dir_bace5b3272c3045fbaf2ba9e016347ef -->
<g id="edge1" class="edge">
<title>dir_4676ceff05f71a508bb4cf796d7af063&#45;&gt;dir_bace5b3272c3045fbaf2ba9e016347ef</title>
<path fill="none" stroke="#000000" d="M70.2813,-90C72.7377,-90 75.1942,-90 77.6507,-90"/>
<polygon fill="#000000" stroke="#000000" points="77.7495,-93.5001 87.7495,-90 77.7495,-86.5001 77.7495,-93.5001"/>
<g id="a_edge1&#45;headlabel"><a xlink:href="dir_000006_000005.html" target="_top" xlink:title="4">
<text text-anchor="middle" x="74.1549" y="-93.2393" font-family="Helvetica,sans-Serif" font-size="12.00" fill="#000000">4</text>
</a>
</g>
</g>
<!-- dir_08389f9c72fab3fa939892ce5a81a233 -->
<g id="node3" class="node">
<title>dir_08389f9c72fab3fa939892ce5a81a233</title>
<g id="a_node3"><a xlink:href="dir_08389f9c72fab3fa939892ce5a81a233.html" target="_top" xlink:title="Core">
<polygon fill="none" stroke="#000000" points="106,-36 52,-36 52,0 106,0 106,-36"/>
<text text-anchor="middle" x="79" y="-14.9" font-family="Helvetica,sans-Serif" font-size="12.00" fill="#000000">Core</text>
</a>
</g>
</g>
<!-- dir_4676ceff05f71a508bb4cf796d7af063&#45;&gt;dir_08389f9c72fab3fa939892ce5a81a233 -->
<g id="edge2" class="edge">
<title>dir_4676ceff05f71a508bb4cf796d7af063&#45;&gt;dir_08389f9c72fab3fa939892ce5a81a233</title>
<path fill="none" stroke="#000000" d="M52.0843,-71.8314C56.0615,-63.8771 60.8155,-54.369 65.2139,-45.5723"/>
<polygon fill="#000000" stroke="#000000" points="68.4517,-46.9228 69.7934,-36.4133 62.1907,-43.7923 68.4517,-46.9228"/>
<g id="a_edge2&#45;headlabel"><a xlink:href="dir_000006_000002.html" target="_top" xlink:title="1">
<text text-anchor="middle" x="69.3837" y="-48.3077" font-family="Helvetica,sans-Serif" font-size="12.00" fill="#000000">1</text>
</a>
</g>
</g>
<!-- dir_bace5b3272c3045fbaf2ba9e016347ef&#45;&gt;dir_4676ceff05f71a508bb4cf796d7af063 -->
<g id="edge3" class="edge">
<title>dir_bace5b3272c3045fbaf2ba9e016347ef&#45;&gt;dir_4676ceff05f71a508bb4cf796d7af063</title>
<path fill="none" stroke="#000000" d="M87.7495,-90C85.293,-90 82.8366,-90 80.3801,-90"/>
<polygon fill="#000000" stroke="#000000" points="80.2813,-86.5001 70.2813,-90 80.2812,-93.5001 80.2813,-86.5001"/>
<g id="a_edge3&#45;headlabel"><a xlink:href="dir_000005_000006.html" target="_top" xlink:title="1">
<text text-anchor="middle" x="83.8759" y="-80.5607" font-family="Helvetica,sans-Serif" font-size="12.00" fill="#000000">1</text>
</a>
</g>
</g>
<!-- dir_bace5b3272c3045fbaf2ba9e016347ef&#45;&gt;dir_08389f9c72fab3fa939892ce5a81a233 -->
<g id="edge4" class="edge">
<title>dir_bace5b3272c3045fbaf2ba9e016347ef&#45;&gt;dir_08389f9c72fab3fa939892ce5a81a233</title>
<path fill="none" stroke="#000000" d="M105.9157,-71.8314C101.9385,-63.8771 97.1845,-54.369 92.7861,-45.5723"/>
<polygon fill="#000000" stroke="#000000" points="95.8093,-43.7923 88.2066,-36.4133 89.5483,-46.9228 95.8093,-43.7923"/>
<g id="a_edge4&#45;headlabel"><a xlink:href="dir_000005_000002.html" target="_top" xlink:title="21">
<text text-anchor="middle" x="99.9563" y="-42.6377" font-family="Helvetica,sans-Serif" font-size="12.00" fill="#000000">21</text>
</a>
</g>
</g>
</g>
</svg>
