<?xml version="1.0" encoding="UTF-8" standalone="no"?>
<!DOCTYPE svg PUBLIC "-//W3C//DTD SVG 1.1//EN"
 "http://www.w3.org/Graphics/SVG/1.1/DTD/svg11.dtd">
<!-- Generated by graphviz version 2.40.1 (20161225.0304)
 -->
<!-- Title: /Users/kpenev/projects/git/poet/poet_src/Evolve/DiskBinarySystem.h Pages: 1 -->
<svg width="2694pt" height="521pt"
 viewBox="0.00 0.00 2693.83 521.00" xmlns="http://www.w3.org/2000/svg" xmlns:xlink="http://www.w3.org/1999/xlink">
<g id="graph0" class="graph" transform="scale(1 1) rotate(0) translate(4 517)">
<title>/Users/kpenev/projects/git/poet/poet_src/Evolve/DiskBinarySystem.h</title>
<polygon fill="#ffffff" stroke="transparent" points="-4,4 -4,-517 2689.8268,-517 2689.8268,4 -4,4"/>
<!-- Node0 -->
<g id="node1" class="node">
<title>Node0</title>
<polygon fill="#bfbfbf" stroke="#000000" points="2427.1227,-468.5 2427.1227,-512.5 2574.5309,-512.5 2574.5309,-468.5 2427.1227,-468.5"/>
<text text-anchor="start" x="2435.1227" y="-498.9" font-family="Helvetica,sans-Serif" font-size="12.00" fill="#000000">/Users/kpenev/projects</text>
<text text-anchor="start" x="2435.1227" y="-486.9" font-family="Helvetica,sans-Serif" font-size="12.00" fill="#000000">/git/poet/poet_src/Evolve</text>
<text text-anchor="middle" x="2500.8268" y="-474.9" font-family="Helvetica,sans-Serif" font-size="12.00" fill="#000000">/DiskBinarySystem.h</text>
</g>
<!-- Node1 -->
<g id="node2" class="node">
<title>Node1</title>
<g id="a_node2"><a xlink:href="SharedLibraryExportMacros_8h_source.html" target="_top" xlink:title="../Core/SharedLibraryExport\lMacros.h">
<polygon fill="#ffffff" stroke="#000000" points="533.1256,-.5 533.1256,-32.5 698.528,-32.5 698.528,-.5 533.1256,-.5"/>
<text text-anchor="start" x="541.1256" y="-18.9" font-family="Helvetica,sans-Serif" font-size="12.00" fill="#000000">../Core/SharedLibraryExport</text>
<text text-anchor="middle" x="615.8268" y="-6.9" font-family="Helvetica,sans-Serif" font-size="12.00" fill="#000000">Macros.h</text>
</a>
</g>
</g>
<!-- Node0&#45;&gt;Node1 -->
<g id="edge1" class="edge">
<title>Node0&#45;&gt;Node1</title>
<path fill="none" stroke="#191970" d="M2574.7412,-471.85C2626.271,-453.8995 2685.8268,-420.9439 2685.8268,-364.5 2685.8268,-364.5 2685.8268,-364.5 2685.8268,-136.5 2685.8268,-84.7051 2640.0178,-85.216 2590.8268,-69 2394.9008,-4.4121 957.6222,-52.1406 708.9612,-32.8948"/>
<polygon fill="#191970" stroke="#191970" points="709.2558,-29.4073 698.9891,-32.0235 708.6465,-36.3808 709.2558,-29.4073"/>
</g>
<!-- Node2 -->
<g id="node3" class="node">
<title>Node2</title>
<g id="a_node3"><a xlink:href="BinarySystem_8h.html" target="_top" xlink:title="Defines the BinarySystem class. ">
<polygon fill="#ffffff" stroke="#000000" points="2015.8121,-411.5 2015.8121,-431.5 2115.8414,-431.5 2115.8414,-411.5 2015.8121,-411.5"/>
<text text-anchor="middle" x="2065.8268" y="-417.9" font-family="Helvetica,sans-Serif" font-size="12.00" fill="#000000">BinarySystem.h</text>
</a>
</g>
</g>
<!-- Node0&#45;&gt;Node2 -->
<g id="edge2" class="edge">
<title>Node0&#45;&gt;Node2</title>
<path fill="none" stroke="#191970" d="M2427.035,-478.7951C2342.2456,-465.3457 2204.7163,-443.5307 2126.0859,-431.0583"/>
<polygon fill="#191970" stroke="#191970" points="2126.286,-427.5464 2115.8611,-429.4365 2125.1893,-434.46 2126.286,-427.5464"/>
</g>
<!-- Node13 -->
<g id="node14" class="node">
<title>Node13</title>
<polygon fill="#ffffff" stroke="#bfbfbf" points="2041.4899,-69.5 2041.4899,-89.5 2100.1637,-89.5 2100.1637,-69.5 2041.4899,-69.5"/>
<text text-anchor="middle" x="2070.8268" y="-75.9" font-family="Helvetica,sans-Serif" font-size="12.00" fill="#000000">sstream</text>
</g>
<!-- Node0&#45;&gt;Node13 -->
<g id="edge95" class="edge">
<title>Node0&#45;&gt;Node13</title>
<path fill="none" stroke="#191970" d="M2477.7081,-468.4029C2401.2689,-395.3411 2157.6467,-162.4837 2088.9918,-96.8624"/>
<polygon fill="#191970" stroke="#191970" points="2091.157,-94.0903 2081.5096,-89.7108 2086.3203,-99.1506 2091.157,-94.0903"/>
</g>
<!-- Node21 -->
<g id="node22" class="node">
<title>Node21</title>
<g id="a_node22"><a xlink:href="Error_8h.html" target="_top" xlink:title="Defines the exception hierarchy used by this code. ">
<polygon fill="#ffffff" stroke="#000000" points="2529.818,-69.5 2529.818,-89.5 2581.8356,-89.5 2581.8356,-69.5 2529.818,-69.5"/>
<text text-anchor="middle" x="2555.8268" y="-75.9" font-family="Helvetica,sans-Serif" font-size="12.00" fill="#000000">Error.h</text>
</a>
</g>
</g>
<!-- Node0&#45;&gt;Node21 -->
<g id="edge94" class="edge">
<title>Node0&#45;&gt;Node21</title>
<path fill="none" stroke="#191970" d="M2509.7933,-468.1458C2518.9487,-443.2686 2531.8268,-401.6701 2531.8268,-364.5 2531.8268,-364.5 2531.8268,-364.5 2531.8268,-193.5 2531.8268,-159.9541 2541.901,-122.0236 2548.9955,-99.4712"/>
<polygon fill="#191970" stroke="#191970" points="2552.402,-100.3145 2552.1817,-89.722 2545.7483,-98.14 2552.402,-100.3145"/>
</g>
<!-- Node2&#45;&gt;Node1 -->
<g id="edge3" class="edge">
<title>Node2&#45;&gt;Node1</title>
<path fill="none" stroke="#191970" d="M2015.6397,-419.7115C1787.3071,-411.3218 845.2687,-373.9116 555.8268,-318 475.097,-302.4054 451.1641,-301.8837 379.8268,-261 290.6314,-209.8818 183.5059,-146.6968 250.8268,-69 268.4756,-48.6311 420.8341,-32.3432 523.0464,-23.5807"/>
<polygon fill="#191970" stroke="#191970" points="523.4148,-27.0621 533.0837,-22.7304 522.8239,-20.0871 523.4148,-27.0621"/>
</g>
<!-- Node3 -->
<g id="node4" class="node">
<title>Node3</title>
<g id="a_node4"><a xlink:href="DissipatingBody_8h.html" target="_top" xlink:title="Declares the DissipatingBody class. ">
<polygon fill="#ffffff" stroke="#000000" points="1556.2428,-354.5 1556.2428,-374.5 1667.4108,-374.5 1667.4108,-354.5 1556.2428,-354.5"/>
<text text-anchor="middle" x="1611.8268" y="-360.9" font-family="Helvetica,sans-Serif" font-size="12.00" fill="#000000">DissipatingBody.h</text>
</a>
</g>
</g>
<!-- Node2&#45;&gt;Node3 -->
<g id="edge4" class="edge">
<title>Node2&#45;&gt;Node3</title>
<path fill="none" stroke="#191970" d="M2015.5062,-415.1822C1933.0602,-404.8311 1769.2394,-384.2633 1677.6683,-372.7664"/>
<polygon fill="#191970" stroke="#191970" points="1678.0408,-369.2858 1667.6827,-371.5127 1677.1687,-376.2313 1678.0408,-369.2858"/>
</g>
<!-- Node9 -->
<g id="node10" class="node">
<title>Node9</title>
<g id="a_node10"><a xlink:href="Core_2Common_8h.html" target="_top" xlink:title="Declaration of some general purpose utilities. ">
<polygon fill="#ffffff" stroke="#000000" points="1187.8102,-126.5 1187.8102,-146.5 1301.8434,-146.5 1301.8434,-126.5 1187.8102,-126.5"/>
<text text-anchor="middle" x="1244.8268" y="-132.9" font-family="Helvetica,sans-Serif" font-size="12.00" fill="#000000">../Core/Common.h</text>
</a>
</g>
</g>
<!-- Node2&#45;&gt;Node9 -->
<g id="edge85" class="edge">
<title>Node2&#45;&gt;Node9</title>
<path fill="none" stroke="#191970" d="M2024.135,-411.4466C1989.0928,-402.7068 1937.8246,-389.2405 1893.8268,-375 1664.5853,-300.8028 1614.0449,-263.1797 1386.8268,-183 1353.2371,-171.147 1314.8281,-158.6315 1286.4331,-149.5742"/>
<polygon fill="#191970" stroke="#191970" points="1287.4219,-146.216 1276.8314,-146.5215 1285.3009,-152.8869 1287.4219,-146.216"/>
</g>
<!-- Node12 -->
<g id="node13" class="node">
<title>Node12</title>
<polygon fill="#ffffff" stroke="#bfbfbf" points="280.1627,-69.5 280.1627,-89.5 323.4908,-89.5 323.4908,-69.5 280.1627,-69.5"/>
<text text-anchor="middle" x="301.8268" y="-75.9" font-family="Helvetica,sans-Serif" font-size="12.00" fill="#000000">limits</text>
</g>
<!-- Node2&#45;&gt;Node12 -->
<g id="edge92" class="edge">
<title>Node2&#45;&gt;Node12</title>
<path fill="none" stroke="#191970" d="M2015.7324,-421.1184C1724.2742,-418.792 256.7875,-405.5909 166.8268,-375 80.0181,-345.481 -35.7931,-318.9538 10.8268,-240 40.185,-190.2799 201.5251,-120.1936 270.5174,-91.9823"/>
<polygon fill="#191970" stroke="#191970" points="272.0518,-95.1369 279.9999,-88.1313 269.4178,-88.6513 272.0518,-95.1369"/>
</g>
<!-- Node14 -->
<g id="node15" class="node">
<title>Node14</title>
<polygon fill="#ffffff" stroke="#bfbfbf" points="2214.8199,-6.5 2214.8199,-26.5 2276.8336,-26.5 2276.8336,-6.5 2214.8199,-6.5"/>
<text text-anchor="middle" x="2245.8268" y="-12.9" font-family="Helvetica,sans-Serif" font-size="12.00" fill="#000000">iostream</text>
</g>
<!-- Node2&#45;&gt;Node14 -->
<g id="edge93" class="edge">
<title>Node2&#45;&gt;Node14</title>
<path fill="none" stroke="#191970" d="M2116.0299,-416.2717C2250.7018,-401.5745 2609.8268,-357.6779 2609.8268,-307.5 2609.8268,-307.5 2609.8268,-307.5 2609.8268,-136.5 2609.8268,-105.3342 2614.1809,-89.6372 2590.8268,-69 2546.5089,-29.8379 2369.1319,-19.874 2287.4224,-17.3502"/>
<polygon fill="#191970" stroke="#191970" points="2287.1117,-13.84 2277.0159,-17.0533 2286.912,-20.8372 2287.1117,-13.84"/>
</g>
<!-- Node2&#45;&gt;Node21 -->
<g id="edge87" class="edge">
<title>Node2&#45;&gt;Node21</title>
<path fill="none" stroke="#191970" d="M2116.0993,-415.4363C2179.716,-407.2311 2285.2865,-391.6882 2320.8268,-375 2448.5598,-315.0221 2433.7387,-239.3238 2517.8268,-126 2525.0023,-116.3297 2533.4381,-105.92 2540.5365,-97.4065"/>
<polygon fill="#191970" stroke="#191970" points="2543.3274,-99.5259 2547.0927,-89.6227 2537.9735,-95.0163 2543.3274,-99.5259"/>
</g>
<!-- Node23 -->
<g id="node24" class="node">
<title>Node23</title>
<polygon fill="#ffffff" stroke="#bfbfbf" points="2616.1549,-6.5 2616.1549,-26.5 2661.4987,-26.5 2661.4987,-6.5 2616.1549,-6.5"/>
<text text-anchor="middle" x="2638.8268" y="-12.9" font-family="Helvetica,sans-Serif" font-size="12.00" fill="#000000">string</text>
</g>
<!-- Node2&#45;&gt;Node23 -->
<g id="edge91" class="edge">
<title>Node2&#45;&gt;Node23</title>
<path fill="none" stroke="#191970" d="M2116.106,-419.9812C2194.1626,-416.6923 2348.7432,-406.4462 2475.8268,-375 2555.5429,-355.2746 2647.8268,-389.6204 2647.8268,-307.5 2647.8268,-307.5 2647.8268,-307.5 2647.8268,-136.5 2647.8268,-101.3307 2643.9351,-60.5255 2641.2699,-36.704"/>
<polygon fill="#191970" stroke="#191970" points="2644.7448,-36.2842 2640.1163,-26.7538 2637.7914,-37.0904 2644.7448,-36.2842"/>
</g>
<!-- Node24 -->
<g id="node25" class="node">
<title>Node24</title>
<g id="a_node25"><a xlink:href="AstronomicalConstants_8h.html" target="_top" xlink:title="Defines various astronomical constants. ">
<polygon fill="#ffffff" stroke="#000000" points="2324.1295,-69.5 2324.1295,-89.5 2473.524,-89.5 2473.524,-69.5 2324.1295,-69.5"/>
<text text-anchor="middle" x="2398.8268" y="-75.9" font-family="Helvetica,sans-Serif" font-size="12.00" fill="#000000">AstronomicalConstants.h</text>
</a>
</g>
</g>
<!-- Node2&#45;&gt;Node24 -->
<g id="edge84" class="edge">
<title>Node2&#45;&gt;Node24</title>
<path fill="none" stroke="#191970" d="M2115.9782,-413.7163C2203.7149,-398.6724 2375.8268,-362.1911 2375.8268,-307.5 2375.8268,-307.5 2375.8268,-307.5 2375.8268,-193.5 2375.8268,-160.0122 2385.4812,-122.0646 2392.2801,-99.4929"/>
<polygon fill="#191970" stroke="#191970" points="2395.6876,-100.3232 2395.3336,-89.7343 2389.007,-98.2328 2395.6876,-100.3232"/>
</g>
<!-- Node35 -->
<g id="node36" class="node">
<title>Node35</title>
<g id="a_node36"><a xlink:href="CombinedStoppingCondition_8h.html" target="_top" xlink:title="Declares a class for a stopping condition that combines other stopping conditions. ">
<polygon fill="#ffffff" stroke="#000000" points="825.4371,-240.5 825.4371,-260.5 1004.2164,-260.5 1004.2164,-240.5 825.4371,-240.5"/>
<text text-anchor="middle" x="914.8268" y="-246.9" font-family="Helvetica,sans-Serif" font-size="12.00" fill="#000000">CombinedStoppingCondition.h</text>
</a>
</g>
</g>
<!-- Node2&#45;&gt;Node35 -->
<g id="edge80" class="edge">
<title>Node2&#45;&gt;Node35</title>
<path fill="none" stroke="#191970" d="M2015.7469,-418.5413C1880.6522,-409.9309 1497.8867,-381.3734 1185.8268,-318 1106.1458,-301.8183 1014.5717,-277.8727 960.8757,-263.2781"/>
<polygon fill="#191970" stroke="#191970" points="961.5478,-259.8336 950.9791,-260.5774 959.7049,-266.5866 961.5478,-259.8336"/>
</g>
<!-- Node39 -->
<g id="node40" class="node">
<title>Node39</title>
<g id="a_node40"><a xlink:href="OrbitalExpressions_8h.html" target="_top" xlink:title="A collection of functions which calculate various quantities for two body orbits. ...">
<polygon fill="#ffffff" stroke="#000000" points="2181.7975,-126.5 2181.7975,-146.5 2347.8561,-146.5 2347.8561,-126.5 2181.7975,-126.5"/>
<text text-anchor="middle" x="2264.8268" y="-132.9" font-family="Helvetica,sans-Serif" font-size="12.00" fill="#000000">../Core/OrbitalExpressions.h</text>
</a>
</g>
</g>
<!-- Node2&#45;&gt;Node39 -->
<g id="edge86" class="edge">
<title>Node2&#45;&gt;Node39</title>
<path fill="none" stroke="#191970" d="M2116.042,-416.342C2153.0987,-410.6897 2203.5272,-398.992 2241.8268,-375 2275.3467,-354.0021 2299.8268,-347.0537 2299.8268,-307.5 2299.8268,-307.5 2299.8268,-307.5 2299.8268,-250.5 2299.8268,-215.8492 2284.8669,-177.7797 2274.508,-155.5723"/>
<polygon fill="#191970" stroke="#191970" points="2277.65,-154.0302 2270.1425,-146.5544 2271.3495,-157.0803 2277.65,-154.0302"/>
</g>
<!-- Node40 -->
<g id="node41" class="node">
<title>Node40</title>
<g id="a_node41"><a xlink:href="SecondaryDeathCondition_8h.html" target="_top" xlink:title="Declares a stopping condition class monitoring for the death of the secondary object. ">
<polygon fill="#ffffff" stroke="#000000" points="19.777,-240.5 19.777,-260.5 185.8766,-260.5 185.8766,-240.5 19.777,-240.5"/>
<text text-anchor="middle" x="102.8268" y="-246.9" font-family="Helvetica,sans-Serif" font-size="12.00" fill="#000000">SecondaryDeathCondition.h</text>
</a>
</g>
</g>
<!-- Node2&#45;&gt;Node40 -->
<g id="edge81" class="edge">
<title>Node2&#45;&gt;Node40</title>
<path fill="none" stroke="#191970" d="M2015.6903,-420.8397C1722.509,-416.9068 241.537,-396.0259 199.8268,-375 155.1774,-352.4925 124.8946,-298.8113 111.184,-269.8362"/>
<polygon fill="#191970" stroke="#191970" points="114.3579,-268.3604 107.0292,-260.7092 107.987,-271.2607 114.3579,-268.3604"/>
</g>
<!-- Node41 -->
<g id="node42" class="node">
<title>Node41</title>
<polygon fill="#ffffff" stroke="#bfbfbf" points="1902.4723,-354.5 1902.4723,-374.5 1997.1813,-374.5 1997.1813,-354.5 1902.4723,-354.5"/>
<text text-anchor="middle" x="1949.8268" y="-360.9" font-family="Helvetica,sans-Serif" font-size="12.00" fill="#000000">gsl/gsl_errno.h</text>
</g>
<!-- Node2&#45;&gt;Node41 -->
<g id="edge88" class="edge">
<title>Node2&#45;&gt;Node41</title>
<path fill="none" stroke="#191970" d="M2045.3553,-411.4408C2027.0807,-402.461 2000.0951,-389.2008 1979.4625,-379.0624"/>
<polygon fill="#191970" stroke="#191970" points="1981.0023,-375.9193 1970.4838,-374.6504 1977.9152,-382.2019 1981.0023,-375.9193"/>
</g>
<!-- Node42 -->
<g id="node43" class="node">
<title>Node42</title>
<polygon fill="#ffffff" stroke="#bfbfbf" points="2014.7985,-354.5 2014.7985,-374.5 2116.8551,-374.5 2116.8551,-354.5 2014.7985,-354.5"/>
<text text-anchor="middle" x="2065.8268" y="-360.9" font-family="Helvetica,sans-Serif" font-size="12.00" fill="#000000">gsl/gsl_odeiv2.h</text>
</g>
<!-- Node2&#45;&gt;Node42 -->
<g id="edge89" class="edge">
<title>Node2&#45;&gt;Node42</title>
<path fill="none" stroke="#191970" d="M2065.8268,-411.3095C2065.8268,-403.9335 2065.8268,-393.72 2065.8268,-384.715"/>
<polygon fill="#191970" stroke="#191970" points="2069.3269,-384.6022 2065.8268,-374.6022 2062.3269,-384.6023 2069.3269,-384.6022"/>
</g>
<!-- Node43 -->
<g id="node44" class="node">
<title>Node43</title>
<polygon fill="#ffffff" stroke="#bfbfbf" points="2134.4742,-354.5 2134.4742,-374.5 2233.1793,-374.5 2233.1793,-354.5 2134.4742,-354.5"/>
<text text-anchor="middle" x="2183.8268" y="-360.9" font-family="Helvetica,sans-Serif" font-size="12.00" fill="#000000">gsl/gsl_siman.h</text>
</g>
<!-- Node2&#45;&gt;Node43 -->
<g id="edge90" class="edge">
<title>Node2&#45;&gt;Node43</title>
<path fill="none" stroke="#191970" d="M2086.6512,-411.4408C2105.2409,-402.461 2132.6918,-389.2008 2153.6801,-379.0624"/>
<polygon fill="#191970" stroke="#191970" points="2155.3315,-382.1517 2162.8136,-374.6504 2152.2868,-375.8485 2155.3315,-382.1517"/>
</g>
<!-- Node3&#45;&gt;Node1 -->
<g id="edge5" class="edge">
<title>Node3&#45;&gt;Node1</title>
<path fill="none" stroke="#191970" d="M1556.2229,-363.8232C1382.3892,-361.3766 850.7442,-351.2971 681.8268,-318 494.5384,-281.0816 402.8092,-299.3776 287.8268,-147 265.9795,-118.0474 240.1467,-96.4738 263.8268,-69 280.621,-49.5152 424.5194,-33.1644 523.05,-24.1155"/>
<polygon fill="#191970" stroke="#191970" points="523.3915,-27.599 533.0341,-23.2092 522.7586,-20.6276 523.3915,-27.599"/>
</g>
<!-- Node4 -->
<g id="node5" class="node">
<title>Node4</title>
<g id="a_node5"><a xlink:href="DissipatingZone_8h.html" target="_top" xlink:title="Declares a class representing one zone of a body dissipative to tidal distortions. ">
<polygon fill="#ffffff" stroke="#000000" points="1390.8004,-297.5 1390.8004,-317.5 1502.8531,-317.5 1502.8531,-297.5 1390.8004,-297.5"/>
<text text-anchor="middle" x="1446.8268" y="-303.9" font-family="Helvetica,sans-Serif" font-size="12.00" fill="#000000">DissipatingZone.h</text>
</a>
</g>
</g>
<!-- Node3&#45;&gt;Node4 -->
<g id="edge6" class="edge">
<title>Node3&#45;&gt;Node4</title>
<path fill="none" stroke="#191970" d="M1582.7079,-354.4408C1555.6939,-345.1087 1515.2981,-331.1537 1485.5697,-320.8839"/>
<polygon fill="#191970" stroke="#191970" points="1486.5263,-317.5115 1475.9316,-317.5544 1484.2407,-324.1278 1486.5263,-317.5115"/>
</g>
<!-- Node8 -->
<g id="node9" class="node">
<title>Node8</title>
<polygon fill="#ffffff" stroke="#bfbfbf" points="533.4879,-69.5 533.4879,-89.5 588.1656,-89.5 588.1656,-69.5 533.4879,-69.5"/>
<text text-anchor="middle" x="560.8268" y="-75.9" font-family="Helvetica,sans-Serif" font-size="12.00" fill="#000000">cassert</text>
</g>
<!-- Node3&#45;&gt;Node8 -->
<g id="edge79" class="edge">
<title>Node3&#45;&gt;Node8</title>
<path fill="none" stroke="#191970" d="M1556.1655,-361.919C1326.6648,-350.9167 465.8268,-305.9522 465.8268,-250.5 465.8268,-250.5 465.8268,-250.5 465.8268,-193.5 465.8268,-150.2605 506.66,-114.7175 534.7852,-95.3646"/>
<polygon fill="#191970" stroke="#191970" points="536.9954,-98.099 543.4023,-89.6609 533.1317,-92.2619 536.9954,-98.099"/>
</g>
<!-- Node3&#45;&gt;Node9 -->
<g id="edge77" class="edge">
<title>Node3&#45;&gt;Node9</title>
<path fill="none" stroke="#191970" d="M1556.2267,-358.4984C1457.3955,-346.5177 1257.8234,-315.9491 1218.8268,-261 1196.0636,-228.925 1217.5653,-181.2103 1232.7533,-155.1489"/>
<polygon fill="#191970" stroke="#191970" points="1235.7508,-156.9561 1237.9696,-146.5962 1229.7745,-153.3112 1235.7508,-156.9561"/>
</g>
<!-- Node11 -->
<g id="node12" class="node">
<title>Node11</title>
<polygon fill="#ffffff" stroke="#bfbfbf" points="1588.4869,-69.5 1588.4869,-89.5 1647.1666,-89.5 1647.1666,-69.5 1588.4869,-69.5"/>
<text text-anchor="middle" x="1617.8268" y="-75.9" font-family="Helvetica,sans-Serif" font-size="12.00" fill="#000000">valarray</text>
</g>
<!-- Node3&#45;&gt;Node11 -->
<g id="edge78" class="edge">
<title>Node3&#45;&gt;Node11</title>
<path fill="none" stroke="#191970" d="M1625.2329,-354.2969C1654.1975,-331.2981 1722.0045,-272.0732 1746.8268,-204 1765.5023,-152.7838 1698.2392,-113.3715 1653.8894,-93.5852"/>
<polygon fill="#191970" stroke="#191970" points="1655.1083,-90.2993 1644.54,-89.5499 1652.3343,-96.7262 1655.1083,-90.2993"/>
</g>
<!-- Node3&#45;&gt;Node24 -->
<g id="edge76" class="edge">
<title>Node3&#45;&gt;Node24</title>
<path fill="none" stroke="#191970" d="M1667.5358,-358.6249C1805.845,-343.2906 2153.8268,-299.8101 2153.8268,-250.5 2153.8268,-250.5 2153.8268,-250.5 2153.8268,-193.5 2153.8268,-162.3342 2150.016,-147.2362 2172.8268,-126 2183.9707,-115.6253 2261.5898,-101.1726 2322.7955,-91.1449"/>
<polygon fill="#191970" stroke="#191970" points="2323.5405,-94.5699 2332.8505,-89.5128 2322.4189,-87.6603 2323.5405,-94.5699"/>
</g>
<!-- Node3&#45;&gt;Node39 -->
<g id="edge72" class="edge">
<title>Node3&#45;&gt;Node39</title>
<path fill="none" stroke="#191970" d="M1667.6808,-362.8354C1800.4051,-358.4562 2126.7028,-345.0438 2167.8268,-318 2225.6983,-279.9428 2251.5468,-195.4405 2260.6853,-156.6615"/>
<polygon fill="#191970" stroke="#191970" points="2264.1678,-157.1237 2262.9178,-146.6028 2257.3341,-155.6069 2264.1678,-157.1237"/>
</g>
<!-- Node4&#45;&gt;Node1 -->
<g id="edge36" class="edge">
<title>Node4&#45;&gt;Node1</title>
<path fill="none" stroke="#191970" d="M1390.583,-306.4237C1201.1646,-302.1011 588.3848,-282.2497 409.8268,-204 336.6478,-171.9307 304.9989,-162.221 270.8268,-90 266.8349,-81.5634 264.7438,-76.0787 270.8268,-69 287.1541,-50.0001 426.394,-33.6365 522.9082,-24.4337"/>
<polygon fill="#191970" stroke="#191970" points="523.3596,-27.9068 532.987,-23.4838 522.7027,-20.9377 523.3596,-27.9068"/>
</g>
<!-- Node5 -->
<g id="node6" class="node">
<title>Node5</title>
<g id="a_node6"><a xlink:href="ZoneOrientation_8h.html" target="_top" xlink:title="Declares a class for orientations of zones of DissipatingBody objects. ">
<polygon fill="#ffffff" stroke="#000000" points="1059.7975,-183.5 1059.7975,-203.5 1171.8561,-203.5 1171.8561,-183.5 1059.7975,-183.5"/>
<text text-anchor="middle" x="1115.8268" y="-189.9" font-family="Helvetica,sans-Serif" font-size="12.00" fill="#000000">ZoneOrientation.h</text>
</a>
</g>
</g>
<!-- Node4&#45;&gt;Node5 -->
<g id="edge7" class="edge">
<title>Node4&#45;&gt;Node5</title>
<path fill="none" stroke="#191970" d="M1443.4211,-297.324C1437.7745,-282.151 1424.9539,-253.8972 1403.8268,-240 1368.3138,-216.6399 1255.5542,-203.9222 1182.1144,-197.9337"/>
<polygon fill="#191970" stroke="#191970" points="1182.2704,-194.4352 1172.0248,-197.133 1181.7165,-201.4132 1182.2704,-194.4352"/>
</g>
<!-- Node6 -->
<g id="node7" class="node">
<title>Node6</title>
<g id="a_node7"><a xlink:href="DissipationQuantities_8h.html" target="_top" xlink:title="Declaration of enumerations of dissipation quantities and derivatives. ">
<polygon fill="#ffffff" stroke="#000000" points="539.4615,-126.5 539.4615,-146.5 678.192,-146.5 678.192,-126.5 539.4615,-126.5"/>
<text text-anchor="middle" x="608.8268" y="-132.9" font-family="Helvetica,sans-Serif" font-size="12.00" fill="#000000">DissipationQuantities.h</text>
</a>
</g>
</g>
<!-- Node4&#45;&gt;Node6 -->
<g id="edge53" class="edge">
<title>Node4&#45;&gt;Node6</title>
<path fill="none" stroke="#191970" d="M1439.0077,-297.3702C1426.4866,-281.9881 1400.3258,-253.1427 1370.8268,-240 1240.0954,-181.7551 1190.7342,-234.151 1050.8268,-204 1021.149,-197.6042 1015.47,-189.5544 985.8268,-183 884.4532,-160.5855 765.1868,-148.1538 688.3726,-141.9035"/>
<polygon fill="#191970" stroke="#191970" points="688.5351,-138.4054 678.2883,-141.0986 687.9782,-145.3832 688.5351,-138.4054"/>
</g>
<!-- Node4&#45;&gt;Node9 -->
<g id="edge70" class="edge">
<title>Node4&#45;&gt;Node9</title>
<path fill="none" stroke="#191970" d="M1446.1549,-297.2654C1444.7379,-283.0176 1440.352,-257.0406 1426.8268,-240 1390.6344,-194.4005 1328.4916,-165.3468 1287.0349,-149.9839"/>
<polygon fill="#191970" stroke="#191970" points="1288.0816,-146.6409 1277.4872,-146.5515 1285.7135,-153.2282 1288.0816,-146.6409"/>
</g>
<!-- Node4&#45;&gt;Node11 -->
<g id="edge71" class="edge">
<title>Node4&#45;&gt;Node11</title>
<path fill="none" stroke="#191970" d="M1460.3465,-297.2708C1482.5057,-279.9807 1526.9705,-243.0286 1555.8268,-204 1580.823,-170.1921 1600.4992,-124.7763 1610.5282,-99.1842"/>
<polygon fill="#191970" stroke="#191970" points="1613.9206,-100.1121 1614.2231,-89.5215 1607.3823,-97.6119 1613.9206,-100.1121"/>
</g>
<!-- Node4&#45;&gt;Node21 -->
<g id="edge37" class="edge">
<title>Node4&#45;&gt;Node21</title>
<path fill="none" stroke="#191970" d="M1502.8536,-300.646C1646.3539,-282.4404 2038.2452,-228.6181 2356.8268,-147 2415.4702,-131.976 2481.6998,-108.0685 2521.0417,-93.1063"/>
<polygon fill="#191970" stroke="#191970" points="2522.3566,-96.3507 2530.4436,-89.506 2519.8532,-89.8136 2522.3566,-96.3507"/>
</g>
<!-- Node27 -->
<g id="node28" class="node">
<title>Node27</title>
<g id="a_node28"><a xlink:href="TidalPotentialTerms_8h.html" target="_top" xlink:title="Declare an interface for evaluating the expansion of the tidal potential. ">
<polygon fill="#ffffff" stroke="#000000" points="1607.3551,-183.5 1607.3551,-203.5 1738.2985,-203.5 1738.2985,-183.5 1607.3551,-183.5"/>
<text text-anchor="middle" x="1672.8268" y="-189.9" font-family="Helvetica,sans-Serif" font-size="12.00" fill="#000000">TidalPotentialTerms.h</text>
</a>
</g>
</g>
<!-- Node4&#45;&gt;Node27 -->
<g id="edge38" class="edge">
<title>Node4&#45;&gt;Node27</title>
<path fill="none" stroke="#191970" d="M1494.8014,-297.493C1524.5276,-290.0638 1562.8168,-278.2122 1593.8268,-261 1618.0039,-247.5804 1641.5508,-226.0317 1656.5545,-210.8995"/>
<polygon fill="#191970" stroke="#191970" points="1659.1351,-213.2658 1663.5798,-203.6483 1654.1077,-208.395 1659.1351,-213.2658"/>
</g>
<!-- Node34 -->
<g id="node35" class="node">
<title>Node34</title>
<g id="a_node35"><a xlink:href="SpinOrbitLockInfo_8h.html" target="_top" xlink:title="Defines the SpinOrbitLockInfo class. ">
<polygon fill="#ffffff" stroke="#000000" points="2185.1305,-69.5 2185.1305,-89.5 2306.5231,-89.5 2306.5231,-69.5 2185.1305,-69.5"/>
<text text-anchor="middle" x="2245.8268" y="-75.9" font-family="Helvetica,sans-Serif" font-size="12.00" fill="#000000">SpinOrbitLockInfo.h</text>
</a>
</g>
</g>
<!-- Node4&#45;&gt;Node34 -->
<g id="edge54" class="edge">
<title>Node4&#45;&gt;Node34</title>
<path fill="none" stroke="#191970" d="M1490.0806,-297.47C1590.4301,-273.9072 1846.5581,-212.0791 2056.8268,-147 2110.9077,-130.2617 2172.4744,-107.5796 2210.2392,-93.2413"/>
<polygon fill="#191970" stroke="#191970" points="2211.6736,-96.4402 2219.7708,-89.6075 2209.18,-89.8994 2211.6736,-96.4402"/>
</g>
<!-- Node4&#45;&gt;Node35 -->
<g id="edge57" class="edge">
<title>Node4&#45;&gt;Node35</title>
<path fill="none" stroke="#191970" d="M1390.6483,-301.4809C1301.2898,-291.9068 1125.5489,-273.0774 1014.4685,-261.1759"/>
<polygon fill="#191970" stroke="#191970" points="1014.5748,-257.6673 1004.2588,-260.082 1013.829,-264.6275 1014.5748,-257.6673"/>
</g>
<!-- Node37 -->
<g id="node38" class="node">
<title>Node37</title>
<g id="a_node38"><a xlink:href="BreakLockCondition_8h.html" target="_top" xlink:title="Declares a class for a stopping condition monitoring when a locked zone loses the lock...">
<polygon fill="#ffffff" stroke="#000000" points="1228.1246,-240.5 1228.1246,-260.5 1361.5289,-260.5 1361.5289,-240.5 1228.1246,-240.5"/>
<text text-anchor="middle" x="1294.8268" y="-246.9" font-family="Helvetica,sans-Serif" font-size="12.00" fill="#000000">BreakLockCondition.h</text>
</a>
</g>
</g>
<!-- Node4&#45;&gt;Node37 -->
<g id="edge64" class="edge">
<title>Node4&#45;&gt;Node37</title>
<path fill="none" stroke="#191970" d="M1420.0021,-297.4408C1395.3329,-288.1898 1358.5497,-274.3961 1331.2339,-264.1527"/>
<polygon fill="#191970" stroke="#191970" points="1332.2307,-260.7885 1321.6385,-260.5544 1329.7728,-267.3428 1332.2307,-260.7885"/>
</g>
<!-- Node38 -->
<g id="node39" class="node">
<title>Node38</title>
<g id="a_node39"><a xlink:href="SynchronizedCondition_8h.html" target="_top" xlink:title="Declares a stopping condition monitoring spin&#45;orbit synchronization. ">
<polygon fill="#ffffff" stroke="#000000" points="1022.1178,-240.5 1022.1178,-260.5 1171.5358,-260.5 1171.5358,-240.5 1022.1178,-240.5"/>
<text text-anchor="middle" x="1096.8268" y="-246.9" font-family="Helvetica,sans-Serif" font-size="12.00" fill="#000000">SynchronizedCondition.h</text>
</a>
</g>
</g>
<!-- Node4&#45;&gt;Node38 -->
<g id="edge67" class="edge">
<title>Node4&#45;&gt;Node38</title>
<path fill="none" stroke="#191970" d="M1390.5932,-298.342C1330.2147,-288.5089 1234.1225,-272.8596 1168.3938,-262.1552"/>
<polygon fill="#191970" stroke="#191970" points="1168.9529,-258.7002 1158.5203,-260.5472 1167.8277,-265.6092 1168.9529,-258.7002"/>
</g>
<!-- Node5&#45;&gt;Node1 -->
<g id="edge8" class="edge">
<title>Node5&#45;&gt;Node1</title>
<path fill="none" stroke="#191970" d="M1061.0053,-183.4885C1014.0652,-174.672 944.7638,-161.075 884.8268,-147 789.8421,-124.6948 754.0676,-144.0327 672.8268,-90 654.506,-77.815 639.54,-57.7787 629.5478,-41.701"/>
<polygon fill="#191970" stroke="#191970" points="632.3666,-39.5928 624.2515,-32.7813 626.3477,-43.1667 632.3666,-39.5928"/>
</g>
<!-- Node5&#45;&gt;Node6 -->
<g id="edge9" class="edge">
<title>Node5&#45;&gt;Node6</title>
<path fill="none" stroke="#191970" d="M1059.6953,-184.8403C1055.0076,-184.1901 1050.3381,-183.5674 1045.8268,-183 888.9182,-163.2648 848.9524,-164.9254 691.8268,-147 690.7445,-146.8765 689.6543,-146.7513 688.5577,-146.6245"/>
<polygon fill="#191970" stroke="#191970" points="688.8929,-143.1398 678.5522,-145.4464 688.0744,-150.0918 688.8929,-143.1398"/>
</g>
<!-- Node5&#45;&gt;Node9 -->
<g id="edge13" class="edge">
<title>Node5&#45;&gt;Node9</title>
<path fill="none" stroke="#191970" d="M1138.5924,-183.4408C1159.0982,-174.3801 1189.4664,-160.9615 1212.4883,-150.7891"/>
<polygon fill="#191970" stroke="#191970" points="1214.1225,-153.8935 1221.8548,-146.6504 1211.2933,-147.4907 1214.1225,-153.8935"/>
</g>
<!-- Node25 -->
<g id="node26" class="node">
<title>Node25</title>
<g id="a_node26"><a xlink:href="IncludeEigen_8h_source.html" target="_top" xlink:title="IncludeEigen.h">
<polygon fill="#ffffff" stroke="#000000" points="682.1295,-69.5 682.1295,-89.5 777.524,-89.5 777.524,-69.5 682.1295,-69.5"/>
<text text-anchor="middle" x="729.8268" y="-75.9" font-family="Helvetica,sans-Serif" font-size="12.00" fill="#000000">IncludeEigen.h</text>
</a>
</g>
</g>
<!-- Node5&#45;&gt;Node25 -->
<g id="edge35" class="edge">
<title>Node5&#45;&gt;Node25</title>
<path fill="none" stroke="#191970" d="M1081.9102,-183.4832C1011.9254,-162.8141 851.5678,-115.4546 773.7686,-92.4776"/>
<polygon fill="#191970" stroke="#191970" points="774.3863,-89.0107 763.8044,-89.5348 772.4035,-95.724 774.3863,-89.0107"/>
</g>
<!-- Node6&#45;&gt;Node1 -->
<g id="edge10" class="edge">
<title>Node6&#45;&gt;Node1</title>
<path fill="none" stroke="#191970" d="M609.4236,-126.2689C610.493,-107.9369 612.7665,-68.9614 614.2961,-42.7396"/>
<polygon fill="#191970" stroke="#191970" points="617.7925,-42.9018 614.8809,-32.7149 610.8044,-42.4941 617.7925,-42.9018"/>
</g>
<!-- Node7 -->
<g id="node8" class="node">
<title>Node7</title>
<polygon fill="#ffffff" stroke="#bfbfbf" points="456.153,-69.5 456.153,-89.5 515.5006,-89.5 515.5006,-69.5 456.153,-69.5"/>
<text text-anchor="middle" x="485.8268" y="-75.9" font-family="Helvetica,sans-Serif" font-size="12.00" fill="#000000">ostream</text>
</g>
<!-- Node6&#45;&gt;Node7 -->
<g id="edge11" class="edge">
<title>Node6&#45;&gt;Node7</title>
<path fill="none" stroke="#191970" d="M587.12,-126.4408C567.6553,-117.4205 538.8706,-104.0813 516.9556,-93.9255"/>
<polygon fill="#191970" stroke="#191970" points="518.2751,-90.6795 507.7303,-89.6504 515.3318,-97.0307 518.2751,-90.6795"/>
</g>
<!-- Node6&#45;&gt;Node8 -->
<g id="edge12" class="edge">
<title>Node6&#45;&gt;Node8</title>
<path fill="none" stroke="#191970" d="M600.2453,-126.3095C593.4879,-118.2851 583.9024,-106.9022 575.8759,-97.3708"/>
<polygon fill="#191970" stroke="#191970" points="578.4525,-94.9969 569.3339,-89.6022 573.0981,-99.5059 578.4525,-94.9969"/>
</g>
<!-- Node9&#45;&gt;Node1 -->
<g id="edge26" class="edge">
<title>Node9&#45;&gt;Node1</title>
<path fill="none" stroke="#191970" d="M1302.0895,-132.4727C1360.5673,-127.0272 1445.568,-114.965 1465.8268,-90 1471.7079,-82.7527 1472.268,-75.7544 1465.8268,-69 1438.0104,-39.8312 808.8305,-37.8553 709.2635,-32.657"/>
<polygon fill="#191970" stroke="#191970" points="709.2263,-29.1453 699.0004,-31.9168 708.7227,-36.1272 709.2263,-29.1453"/>
</g>
<!-- Node9&#45;&gt;Node8 -->
<g id="edge25" class="edge">
<title>Node9&#45;&gt;Node8</title>
<path fill="none" stroke="#191970" d="M1187.5697,-132.0809C1084.5575,-124.0779 861.1608,-106.4827 672.8268,-90 648.082,-87.8344 620.2793,-85.2288 598.565,-83.1551"/>
<polygon fill="#191970" stroke="#191970" points="598.7229,-79.6543 588.4345,-82.184 598.0549,-86.6223 598.7229,-79.6543"/>
</g>
<!-- Node10 -->
<g id="node11" class="node">
<title>Node10</title>
<polygon fill="#ffffff" stroke="#bfbfbf" points="1120.4938,-69.5 1120.4938,-89.5 1151.1598,-89.5 1151.1598,-69.5 1120.4938,-69.5"/>
<text text-anchor="middle" x="1135.8268" y="-75.9" font-family="Helvetica,sans-Serif" font-size="12.00" fill="#000000">list</text>
</g>
<!-- Node9&#45;&gt;Node10 -->
<g id="edge14" class="edge">
<title>Node9&#45;&gt;Node10</title>
<path fill="none" stroke="#191970" d="M1225.5907,-126.4408C1207.418,-116.9376 1180.0782,-102.6407 1160.348,-92.323"/>
<polygon fill="#191970" stroke="#191970" points="1161.8305,-89.1486 1151.347,-87.6161 1158.5866,-95.3517 1161.8305,-89.1486"/>
</g>
<!-- Node9&#45;&gt;Node11 -->
<g id="edge15" class="edge">
<title>Node9&#45;&gt;Node11</title>
<path fill="none" stroke="#191970" d="M1301.8835,-127.7809C1378.2074,-116.1174 1511.6046,-95.7323 1577.9728,-85.5903"/>
<polygon fill="#191970" stroke="#191970" points="1578.6734,-89.0239 1588.0299,-84.0534 1577.6159,-82.1043 1578.6734,-89.0239"/>
</g>
<!-- Node9&#45;&gt;Node12 -->
<g id="edge16" class="edge">
<title>Node9&#45;&gt;Node12</title>
<path fill="none" stroke="#191970" d="M1187.7195,-133.449C1056.7152,-126.3896 724.482,-108.1417 446.8268,-90 408.0209,-87.4645 363.4016,-84.1775 334.0238,-81.9621"/>
<polygon fill="#191970" stroke="#191970" points="334.1648,-78.4628 323.9291,-81.1977 333.6362,-85.4428 334.1648,-78.4628"/>
</g>
<!-- Node9&#45;&gt;Node13 -->
<g id="edge17" class="edge">
<title>Node9&#45;&gt;Node13</title>
<path fill="none" stroke="#191970" d="M1302.0841,-133.2794C1423.0587,-126.3607 1713.5462,-109.1445 1956.8268,-90 1981.5171,-88.057 2009.1812,-85.5178 2031.0743,-83.4231"/>
<polygon fill="#191970" stroke="#191970" points="2031.702,-86.8789 2041.3198,-82.4351 2031.03,-79.9112 2031.702,-86.8789"/>
</g>
<!-- Node9&#45;&gt;Node14 -->
<g id="edge18" class="edge">
<title>Node9&#45;&gt;Node14</title>
<path fill="none" stroke="#191970" d="M1297.5925,-126.4191C1345.656,-117.172 1418.5724,-102.9816 1481.8268,-90 1525.4617,-81.0449 1535.7491,-75.431 1579.8268,-69 1814.7801,-34.7198 2099.8602,-21.6928 2204.6444,-17.8493"/>
<polygon fill="#191970" stroke="#191970" points="2204.9249,-21.3416 2214.793,-17.4853 2204.674,-14.3461 2204.9249,-21.3416"/>
</g>
<!-- Node15 -->
<g id="node16" class="node">
<title>Node15</title>
<polygon fill="#ffffff" stroke="#bfbfbf" points="1169.153,-69.5 1169.153,-89.5 1222.5006,-89.5 1222.5006,-69.5 1169.153,-69.5"/>
<text text-anchor="middle" x="1195.8268" y="-75.9" font-family="Helvetica,sans-Serif" font-size="12.00" fill="#000000">iterator</text>
</g>
<!-- Node9&#45;&gt;Node15 -->
<g id="edge19" class="edge">
<title>Node9&#45;&gt;Node15</title>
<path fill="none" stroke="#191970" d="M1236.0666,-126.3095C1229.1683,-118.2851 1219.3831,-106.9022 1211.1894,-97.3708"/>
<polygon fill="#191970" stroke="#191970" points="1213.6842,-94.9038 1204.5112,-89.6022 1208.3759,-99.467 1213.6842,-94.9038"/>
</g>
<!-- Node16 -->
<g id="node17" class="node">
<title>Node16</title>
<polygon fill="#ffffff" stroke="#bfbfbf" points="1240.4684,-69.5 1240.4684,-89.5 1339.1852,-89.5 1339.1852,-69.5 1240.4684,-69.5"/>
<text text-anchor="middle" x="1289.8268" y="-75.9" font-family="Helvetica,sans-Serif" font-size="12.00" fill="#000000">gsl/gsl_vector.h</text>
</g>
<!-- Node9&#45;&gt;Node16 -->
<g id="edge20" class="edge">
<title>Node9&#45;&gt;Node16</title>
<path fill="none" stroke="#191970" d="M1252.8719,-126.3095C1259.143,-118.3661 1268.0122,-107.1319 1275.4898,-97.6602"/>
<polygon fill="#191970" stroke="#191970" points="1278.4019,-99.6199 1281.8513,-89.6022 1272.9078,-95.2823 1278.4019,-99.6199"/>
</g>
<!-- Node17 -->
<g id="node18" class="node">
<title>Node17</title>
<polygon fill="#ffffff" stroke="#bfbfbf" points="1357.1461,-69.5 1357.1461,-89.5 1456.5074,-89.5 1456.5074,-69.5 1357.1461,-69.5"/>
<text text-anchor="middle" x="1406.8268" y="-75.9" font-family="Helvetica,sans-Serif" font-size="12.00" fill="#000000">gsl/gsl_matrix.h</text>
</g>
<!-- Node9&#45;&gt;Node17 -->
<g id="edge21" class="edge">
<title>Node9&#45;&gt;Node17</title>
<path fill="none" stroke="#191970" d="M1273.4162,-126.4408C1299.939,-117.1087 1339.6004,-103.1537 1368.7883,-92.8839"/>
<polygon fill="#191970" stroke="#191970" points="1369.9797,-96.1751 1378.2511,-89.5544 1367.6563,-89.5719 1369.9797,-96.1751"/>
</g>
<!-- Node18 -->
<g id="node19" class="node">
<title>Node18</title>
<polygon fill="#ffffff" stroke="#bfbfbf" points="795.4694,-69.5 795.4694,-89.5 890.1842,-89.5 890.1842,-69.5 795.4694,-69.5"/>
<text text-anchor="middle" x="842.8268" y="-75.9" font-family="Helvetica,sans-Serif" font-size="12.00" fill="#000000">gsl/gsl_linalg.h</text>
</g>
<!-- Node9&#45;&gt;Node18 -->
<g id="edge22" class="edge">
<title>Node9&#45;&gt;Node18</title>
<path fill="none" stroke="#191970" d="M1187.6253,-129.6469C1121.1614,-121.4924 1007.9556,-107.0122 900.4347,-90.0347"/>
<polygon fill="#191970" stroke="#191970" points="900.8084,-86.5502 890.383,-88.4375 899.7098,-93.4635 900.8084,-86.5502"/>
</g>
<!-- Node19 -->
<g id="node20" class="node">
<title>Node19</title>
<polygon fill="#ffffff" stroke="#bfbfbf" points="908.4723,-69.5 908.4723,-89.5 997.1813,-89.5 997.1813,-69.5 908.4723,-69.5"/>
<text text-anchor="middle" x="952.8268" y="-75.9" font-family="Helvetica,sans-Serif" font-size="12.00" fill="#000000">gsl/gsl_blas.h</text>
</g>
<!-- Node9&#45;&gt;Node19 -->
<g id="edge23" class="edge">
<title>Node9&#45;&gt;Node19</title>
<path fill="none" stroke="#191970" d="M1193.0668,-126.4825C1146.8261,-117.5212 1076.9522,-103.9505 1007.1971,-90.265"/>
<polygon fill="#191970" stroke="#191970" points="1007.8445,-86.8254 997.3576,-88.3336 1006.4962,-93.6943 1007.8445,-86.8254"/>
</g>
<!-- Node20 -->
<g id="node21" class="node">
<title>Node20</title>
<polygon fill="#ffffff" stroke="#bfbfbf" points="1014.9147,-69.5 1014.9147,-89.5 1102.7389,-89.5 1102.7389,-69.5 1014.9147,-69.5"/>
<text text-anchor="middle" x="1058.8268" y="-75.9" font-family="Helvetica,sans-Serif" font-size="12.00" fill="#000000">gsl/gsl_poly.h</text>
</g>
<!-- Node9&#45;&gt;Node20 -->
<g id="edge24" class="edge">
<title>Node9&#45;&gt;Node20</title>
<path fill="none" stroke="#191970" d="M1212.0019,-126.4408C1181.285,-117.0275 1135.2196,-102.9107 1101.6291,-92.6169"/>
<polygon fill="#191970" stroke="#191970" points="1102.2225,-89.1381 1091.6358,-89.5544 1100.1714,-95.8309 1102.2225,-89.1381"/>
</g>
<!-- Node9&#45;&gt;Node21 -->
<g id="edge27" class="edge">
<title>Node9&#45;&gt;Node21</title>
<path fill="none" stroke="#191970" d="M1302.0354,-135.1528C1513.2388,-130.0541 2248.9387,-111.154 2482.8268,-90 2494.8595,-88.9117 2507.9396,-87.1992 2519.6603,-85.4704"/>
<polygon fill="#191970" stroke="#191970" points="2520.1918,-88.9299 2529.5498,-83.9623 2519.1365,-82.0099 2520.1918,-88.9299"/>
</g>
<!-- Node9&#45;&gt;Node24 -->
<g id="edge32" class="edge">
<title>Node9&#45;&gt;Node24</title>
<path fill="none" stroke="#191970" d="M1302.113,-135.6738C1461.1003,-133.0255 1921.4445,-122.9494 2313.6301,-90.1322"/>
<polygon fill="#191970" stroke="#191970" points="2314.0843,-93.6065 2323.7549,-89.2786 2313.4962,-86.6312 2314.0843,-93.6065"/>
</g>
<!-- Node9&#45;&gt;Node25 -->
<g id="edge33" class="edge">
<title>Node9&#45;&gt;Node25</title>
<path fill="none" stroke="#191970" d="M1187.5245,-132.1819C1102.5796,-125.4499 938.0365,-111.144 787.9932,-90.0681"/>
<polygon fill="#191970" stroke="#191970" points="788.0671,-86.5436 777.6747,-88.6046 787.0841,-93.4743 788.0671,-86.5436"/>
</g>
<!-- Node21&#45;&gt;Node1 -->
<g id="edge28" class="edge">
<title>Node21&#45;&gt;Node1</title>
<path fill="none" stroke="#191970" d="M2529.7568,-71.7097C2525.1535,-70.6065 2520.3779,-69.6335 2515.8268,-69 2121.0136,-14.0431 1123.9649,-71.6498 708.9851,-32.9819"/>
<polygon fill="#191970" stroke="#191970" points="709.2786,-29.4941 698.9894,-32.0206 708.6084,-36.4619 709.2786,-29.4941"/>
</g>
<!-- Node21&#45;&gt;Node14 -->
<g id="edge29" class="edge">
<title>Node21&#45;&gt;Node14</title>
<path fill="none" stroke="#191970" d="M2529.6365,-72.3659C2525.0465,-71.1898 2520.3066,-70.0224 2515.8268,-69 2435.2997,-50.622 2340.3312,-33.1115 2287.1981,-23.686"/>
<polygon fill="#191970" stroke="#191970" points="2287.6023,-20.2033 2277.1459,-21.9109 2286.3849,-27.0967 2287.6023,-20.2033"/>
</g>
<!-- Node22 -->
<g id="node23" class="node">
<title>Node22</title>
<polygon fill="#ffffff" stroke="#bfbfbf" points="2522.1422,-6.5 2522.1422,-26.5 2589.5113,-26.5 2589.5113,-6.5 2522.1422,-6.5"/>
<text text-anchor="middle" x="2555.8268" y="-12.9" font-family="Helvetica,sans-Serif" font-size="12.00" fill="#000000">exception</text>
</g>
<!-- Node21&#45;&gt;Node22 -->
<g id="edge30" class="edge">
<title>Node21&#45;&gt;Node22</title>
<path fill="none" stroke="#191970" d="M2555.8268,-69.378C2555.8268,-60.7041 2555.8268,-47.9355 2555.8268,-37.1186"/>
<polygon fill="#191970" stroke="#191970" points="2559.3269,-36.8062 2555.8268,-26.8062 2552.3269,-36.8062 2559.3269,-36.8062"/>
</g>
<!-- Node21&#45;&gt;Node23 -->
<g id="edge31" class="edge">
<title>Node21&#45;&gt;Node23</title>
<path fill="none" stroke="#191970" d="M2569.1622,-69.378C2582.1098,-59.5503 2601.9826,-44.4661 2617.1943,-32.9198"/>
<polygon fill="#191970" stroke="#191970" points="2619.6752,-35.4308 2625.5245,-26.5969 2615.443,-29.8551 2619.6752,-35.4308"/>
</g>
<!-- Node26 -->
<g id="node27" class="node">
<title>Node26</title>
<polygon fill="#ffffff" stroke="#bfbfbf" points="716.4703,-6.5 716.4703,-26.5 801.1832,-26.5 801.1832,-6.5 716.4703,-6.5"/>
<text text-anchor="middle" x="758.8268" y="-12.9" font-family="Helvetica,sans-Serif" font-size="12.00" fill="#000000">Eigen/Dense</text>
</g>
<!-- Node25&#45;&gt;Node26 -->
<g id="edge34" class="edge">
<title>Node25&#45;&gt;Node26</title>
<path fill="none" stroke="#191970" d="M734.4861,-69.378C738.605,-60.4302 744.7296,-47.125 749.8046,-36.0999"/>
<polygon fill="#191970" stroke="#191970" points="753.0805,-37.3536 754.0826,-26.8062 746.7218,-34.4265 753.0805,-37.3536"/>
</g>
<!-- Node27&#45;&gt;Node9 -->
<g id="edge52" class="edge">
<title>Node27&#45;&gt;Node9</title>
<path fill="none" stroke="#191970" d="M1606.8898,-184.7187C1526.8362,-174.0573 1392.5628,-156.1751 1311.9694,-145.4419"/>
<polygon fill="#191970" stroke="#191970" points="1312.3061,-141.9559 1301.9315,-144.1051 1311.3819,-148.8946 1312.3061,-141.9559"/>
</g>
<!-- Node27&#45;&gt;Node11 -->
<g id="edge40" class="edge">
<title>Node27&#45;&gt;Node11</title>
<path fill="none" stroke="#191970" d="M1667.9459,-183.3833C1658.7957,-164.4174 1638.9257,-123.2323 1627.1384,-98.8004"/>
<polygon fill="#191970" stroke="#191970" points="1630.2734,-97.2437 1622.7758,-89.7579 1623.9688,-100.2854 1630.2734,-97.2437"/>
</g>
<!-- Node28 -->
<g id="node29" class="node">
<title>Node28</title>
<polygon fill="#ffffff" stroke="#bfbfbf" points="2118.4879,-69.5 2118.4879,-89.5 2167.1656,-89.5 2167.1656,-69.5 2118.4879,-69.5"/>
<text text-anchor="middle" x="2142.8268" y="-75.9" font-family="Helvetica,sans-Serif" font-size="12.00" fill="#000000">cmath</text>
</g>
<!-- Node27&#45;&gt;Node28 -->
<g id="edge39" class="edge">
<title>Node27&#45;&gt;Node28</title>
<path fill="none" stroke="#191970" d="M1738.4979,-184.7632C1839.1159,-171.3718 2019.9914,-147.276 2020.8268,-147 2057.9196,-134.7451 2096.7292,-111.1163 2120.3502,-95.324"/>
<polygon fill="#191970" stroke="#191970" points="2122.3248,-98.2139 2128.6242,-89.6952 2118.3874,-92.4262 2122.3248,-98.2139"/>
</g>
<!-- Node29 -->
<g id="node30" class="node">
<title>Node29</title>
<g id="a_node30"><a xlink:href="EccentricityExpansionCoefficients_8h.html" target="_top" xlink:title="Declares a class which provides the [ &#160;coefficients]{InclinationEccentricity_pms1}. ">
<polygon fill="#ffffff" stroke="#000000" points="1805.7819,-126.5 1805.7819,-146.5 2011.8717,-146.5 2011.8717,-126.5 1805.7819,-126.5"/>
<text text-anchor="middle" x="1908.8268" y="-132.9" font-family="Helvetica,sans-Serif" font-size="12.00" fill="#000000">EccentricityExpansionCoefficients.h</text>
</a>
</g>
</g>
<!-- Node27&#45;&gt;Node29 -->
<g id="edge41" class="edge">
<title>Node27&#45;&gt;Node29</title>
<path fill="none" stroke="#191970" d="M1714.4756,-183.4408C1754.2897,-173.8246 1814.4267,-159.3 1857.2516,-148.9567"/>
<polygon fill="#191970" stroke="#191970" points="1858.2993,-152.3044 1867.1981,-146.5544 1856.6558,-145.5 1858.2993,-152.3044"/>
</g>
<!-- Node29&#45;&gt;Node1 -->
<g id="edge42" class="edge">
<title>Node29&#45;&gt;Node1</title>
<path fill="none" stroke="#191970" d="M1924.7857,-126.3984C1944.8272,-112.5344 1974.5629,-87.2547 1956.8268,-69 1909.965,-20.7681 846.5414,-38.9076 709.3161,-32.6698"/>
<polygon fill="#191970" stroke="#191970" points="709.202,-29.1547 698.9928,-31.987 708.74,-36.1394 709.202,-29.1547"/>
</g>
<!-- Node29&#45;&gt;Node8 -->
<g id="edge50" class="edge">
<title>Node29&#45;&gt;Node8</title>
<path fill="none" stroke="#191970" d="M1805.7705,-134.5685C1593.5721,-130.1624 1092.5362,-117.5473 672.8268,-90 648.0408,-88.3732 620.2378,-85.7711 598.5337,-83.5643"/>
<polygon fill="#191970" stroke="#191970" points="598.7155,-80.0646 588.4089,-82.5188 597.9964,-87.0276 598.7155,-80.0646"/>
</g>
<!-- Node29&#45;&gt;Node13 -->
<g id="edge49" class="edge">
<title>Node29&#45;&gt;Node13</title>
<path fill="none" stroke="#191970" d="M1937.4162,-126.4408C1963.939,-117.1087 2003.6004,-103.1537 2032.7883,-92.8839"/>
<polygon fill="#191970" stroke="#191970" points="2033.9797,-96.1751 2042.2511,-89.5544 2031.6563,-89.5719 2033.9797,-96.1751"/>
</g>
<!-- Node29&#45;&gt;Node14 -->
<g id="edge48" class="edge">
<title>Node29&#45;&gt;Node14</title>
<path fill="none" stroke="#191970" d="M1926.339,-126.2389C1955.1447,-109.4853 2011.4608,-77.289 2032.8268,-69 2090.6817,-46.5549 2161.1765,-31.4135 2204.7843,-23.3711"/>
<polygon fill="#191970" stroke="#191970" points="2205.515,-26.7958 2214.7334,-21.5736 2204.2705,-19.9073 2205.515,-26.7958"/>
</g>
<!-- Node29&#45;&gt;Node21 -->
<g id="edge43" class="edge">
<title>Node29&#45;&gt;Node21</title>
<path fill="none" stroke="#191970" d="M2011.9241,-130.0817C2126.9592,-122.4705 2318.5192,-108.454 2482.8268,-90 2494.8331,-88.6515 2507.9063,-86.8706 2519.6288,-85.1592"/>
<polygon fill="#191970" stroke="#191970" points="2520.1465,-88.6208 2529.5218,-83.6858 2519.1153,-81.6972 2520.1465,-88.6208"/>
</g>
<!-- Node29&#45;&gt;Node28 -->
<g id="edge47" class="edge">
<title>Node29&#45;&gt;Node28</title>
<path fill="none" stroke="#191970" d="M1956.3429,-126.4498C1994.8708,-118.0757 2050.7583,-105.4214 2108.6829,-89.8984"/>
<polygon fill="#191970" stroke="#191970" points="2109.6328,-93.2673 2118.3732,-87.2795 2107.8064,-86.5098 2109.6328,-93.2673"/>
</g>
<!-- Node30 -->
<g id="node31" class="node">
<title>Node30</title>
<polygon fill="#ffffff" stroke="#bfbfbf" points="1665.4879,-69.5 1665.4879,-89.5 1714.1656,-89.5 1714.1656,-69.5 1665.4879,-69.5"/>
<text text-anchor="middle" x="1689.8268" y="-75.9" font-family="Helvetica,sans-Serif" font-size="12.00" fill="#000000">vector</text>
</g>
<!-- Node29&#45;&gt;Node30 -->
<g id="edge44" class="edge">
<title>Node29&#45;&gt;Node30</title>
<path fill="none" stroke="#191970" d="M1865.4009,-126.4629C1829.7163,-118.0311 1777.65,-105.31 1723.967,-90.2149"/>
<polygon fill="#191970" stroke="#191970" points="1724.8586,-86.8298 1714.2831,-87.4707 1722.95,-93.5646 1724.8586,-86.8298"/>
</g>
<!-- Node31 -->
<g id="node32" class="node">
<title>Node31</title>
<polygon fill="#ffffff" stroke="#bfbfbf" points="1731.8229,-69.5 1731.8229,-89.5 1787.8307,-89.5 1787.8307,-69.5 1731.8229,-69.5"/>
<text text-anchor="middle" x="1759.8268" y="-75.9" font-family="Helvetica,sans-Serif" font-size="12.00" fill="#000000">fstream</text>
</g>
<!-- Node29&#45;&gt;Node31 -->
<g id="edge45" class="edge">
<title>Node29&#45;&gt;Node31</title>
<path fill="none" stroke="#191970" d="M1882.5316,-126.4408C1858.3492,-117.1898 1822.292,-103.3961 1795.5153,-93.1527"/>
<polygon fill="#191970" stroke="#191970" points="1796.6998,-89.8585 1786.1093,-89.5544 1794.1986,-96.3964 1796.6998,-89.8585"/>
</g>
<!-- Node32 -->
<g id="node33" class="node">
<title>Node32</title>
<polygon fill="#ffffff" stroke="#bfbfbf" points="1805.8151,-69.5 1805.8151,-89.5 1863.8385,-89.5 1863.8385,-69.5 1805.8151,-69.5"/>
<text text-anchor="middle" x="1834.8268" y="-75.9" font-family="Helvetica,sans-Serif" font-size="12.00" fill="#000000">iomanip</text>
</g>
<!-- Node29&#45;&gt;Node32 -->
<g id="edge46" class="edge">
<title>Node29&#45;&gt;Node32</title>
<path fill="none" stroke="#191970" d="M1895.5971,-126.3095C1884.6532,-117.8798 1868.8978,-105.7439 1856.1719,-95.9415"/>
<polygon fill="#191970" stroke="#191970" points="1858,-92.9318 1847.942,-89.6022 1853.7284,-98.4773 1858,-92.9318"/>
</g>
<!-- Node33 -->
<g id="node34" class="node">
<title>Node33</title>
<polygon fill="#ffffff" stroke="#bfbfbf" points="1882.15,-69.5 1882.15,-89.5 1947.5035,-89.5 1947.5035,-69.5 1882.15,-69.5"/>
<text text-anchor="middle" x="1914.8268" y="-75.9" font-family="Helvetica,sans-Serif" font-size="12.00" fill="#000000">algorithm</text>
</g>
<!-- Node29&#45;&gt;Node33 -->
<g id="edge51" class="edge">
<title>Node29&#45;&gt;Node33</title>
<path fill="none" stroke="#191970" d="M1909.8995,-126.3095C1910.6759,-118.9335 1911.751,-108.72 1912.6989,-99.715"/>
<polygon fill="#191970" stroke="#191970" points="1916.1972,-99.9137 1913.7634,-89.6022 1909.2357,-99.1809 1916.1972,-99.9137"/>
</g>
<!-- Node34&#45;&gt;Node1 -->
<g id="edge55" class="edge">
<title>Node34&#45;&gt;Node1</title>
<path fill="none" stroke="#191970" d="M2184.7965,-69.8888C2181.7675,-69.5552 2178.765,-69.2554 2175.8268,-69 1528.9713,-12.774 1358.8825,-97.9167 709.0756,-33.0185"/>
<polygon fill="#191970" stroke="#191970" points="709.2915,-29.5226 698.9911,-32.0032 708.5902,-36.4874 709.2915,-29.5226"/>
</g>
<!-- Node34&#45;&gt;Node14 -->
<g id="edge56" class="edge">
<title>Node34&#45;&gt;Node14</title>
<path fill="none" stroke="#191970" d="M2245.8268,-69.378C2245.8268,-60.7041 2245.8268,-47.9355 2245.8268,-37.1186"/>
<polygon fill="#191970" stroke="#191970" points="2249.3269,-36.8062 2245.8268,-26.8062 2242.3269,-36.8062 2249.3269,-36.8062"/>
</g>
<!-- Node35&#45;&gt;Node1 -->
<g id="edge58" class="edge">
<title>Node35&#45;&gt;Node1</title>
<path fill="none" stroke="#191970" d="M825.0498,-244.4185C719.3872,-236.6063 550.6167,-221.8967 489.8268,-204 435.4857,-188.0019 405.6079,-195.1869 375.8268,-147 357.6014,-117.5108 354.0902,-96.0055 375.8268,-69 394.4083,-45.9144 463.533,-32.4222 522.8545,-24.9106"/>
<polygon fill="#191970" stroke="#191970" points="523.5381,-28.3532 533.0398,-23.6663 522.6892,-21.4049 523.5381,-28.3532"/>
</g>
<!-- Node35&#45;&gt;Node30 -->
<g id="edge63" class="edge">
<title>Node35&#45;&gt;Node30</title>
<path fill="none" stroke="#191970" d="M978.7286,-240.4796C1032.7442,-231.7345 1112.0828,-218.2434 1180.8268,-204 1390.1996,-160.619 1444.8026,-147.7812 1655.5391,-89.9568"/>
<polygon fill="#191970" stroke="#191970" points="1656.651,-93.2811 1665.3675,-87.2585 1654.7977,-86.5309 1656.651,-93.2811"/>
</g>
<!-- Node36 -->
<g id="node37" class="node">
<title>Node36</title>
<g id="a_node37"><a xlink:href="StoppingCondition_8h.html" target="_top" xlink:title="Defines the various stopping conditions needed by OrbitSolver. ">
<polygon fill="#ffffff" stroke="#000000" points="852.7858,-183.5 852.7858,-203.5 976.8678,-203.5 976.8678,-183.5 852.7858,-183.5"/>
<text text-anchor="middle" x="914.8268" y="-189.9" font-family="Helvetica,sans-Serif" font-size="12.00" fill="#000000">StoppingCondition.h</text>
</a>
</g>
</g>
<!-- Node35&#45;&gt;Node36 -->
<g id="edge59" class="edge">
<title>Node35&#45;&gt;Node36</title>
<path fill="none" stroke="#191970" d="M914.8268,-240.3095C914.8268,-232.9335 914.8268,-222.72 914.8268,-213.715"/>
<polygon fill="#191970" stroke="#191970" points="918.3269,-213.6022 914.8268,-203.6022 911.3269,-213.6023 918.3269,-213.6022"/>
</g>
<!-- Node36&#45;&gt;Node1 -->
<g id="edge60" class="edge">
<title>Node36&#45;&gt;Node1</title>
<path fill="none" stroke="#191970" d="M852.5725,-190.1275C757.3373,-184.2989 580.3568,-170.6374 521.8268,-147 483.0055,-131.322 465.4311,-127.5069 446.8268,-90 427.9393,-51.9224 474.1654,-33.5713 523.0118,-24.7272"/>
<polygon fill="#191970" stroke="#191970" points="523.8409,-28.1372 533.1243,-23.0314 522.6831,-21.2336 523.8409,-28.1372"/>
</g>
<!-- Node36&#45;&gt;Node8 -->
<g id="edge62" class="edge">
<title>Node36&#45;&gt;Node8</title>
<path fill="none" stroke="#191970" d="M852.7818,-190.4232C749.5664,-184.6638 551.7881,-170.6527 530.8268,-147 518.0526,-132.5857 530.5924,-111.852 543.1408,-97.1749"/>
<polygon fill="#191970" stroke="#191970" points="545.7891,-99.4652 549.9523,-89.7226 540.6222,-94.7425 545.7891,-99.4652"/>
</g>
<!-- Node36&#45;&gt;Node9 -->
<g id="edge61" class="edge">
<title>Node36&#45;&gt;Node9</title>
<path fill="none" stroke="#191970" d="M973.0645,-183.4408C1030.2611,-173.5613 1117.4528,-158.501 1177.5723,-148.1167"/>
<polygon fill="#191970" stroke="#191970" points="1178.465,-151.5144 1187.7234,-146.3633 1177.2735,-144.6165 1178.465,-151.5144"/>
</g>
<!-- Node37&#45;&gt;Node1 -->
<g id="edge65" class="edge">
<title>Node37&#45;&gt;Node1</title>
<path fill="none" stroke="#191970" d="M1320.3332,-240.3465C1385.0986,-213.2307 1546.3361,-136.5795 1481.8268,-69 1453.381,-39.2004 809.6486,-37.8717 709.1469,-32.6503"/>
<polygon fill="#191970" stroke="#191970" points="709.2253,-29.147 699,-31.9205 708.7231,-36.1289 709.2253,-29.147"/>
</g>
<!-- Node37&#45;&gt;Node36 -->
<g id="edge66" class="edge">
<title>Node37&#45;&gt;Node36</title>
<path fill="none" stroke="#191970" d="M1227.7651,-240.4408C1160.2411,-230.3121 1056.4129,-214.7379 987.0934,-204.34"/>
<polygon fill="#191970" stroke="#191970" points="987.5334,-200.8669 977.1248,-202.8447 986.4949,-207.7895 987.5334,-200.8669"/>
</g>
<!-- Node38&#45;&gt;Node1 -->
<g id="edge68" class="edge">
<title>Node38&#45;&gt;Node1</title>
<path fill="none" stroke="#191970" d="M1026.416,-240.4824C867.8134,-217.6951 494.5829,-162.7378 471.8268,-147 440.8677,-125.5892 416.3104,-99.1646 438.8268,-69 449.7389,-54.3813 485.941,-42.3832 522.7858,-33.5654"/>
<polygon fill="#191970" stroke="#191970" points="523.7088,-36.9444 532.6611,-31.2781 522.1292,-30.1249 523.7088,-36.9444"/>
</g>
<!-- Node38&#45;&gt;Node36 -->
<g id="edge69" class="edge">
<title>Node38&#45;&gt;Node36</title>
<path fill="none" stroke="#191970" d="M1064.7078,-240.4408C1034.6514,-231.0275 989.5767,-216.9107 956.7087,-206.6169"/>
<polygon fill="#191970" stroke="#191970" points="957.5193,-203.2032 946.9303,-203.5544 955.4271,-209.8832 957.5193,-203.2032"/>
</g>
<!-- Node39&#45;&gt;Node1 -->
<g id="edge73" class="edge">
<title>Node39&#45;&gt;Node1</title>
<path fill="none" stroke="#191970" d="M2348.0474,-129.4811C2402.1864,-122.9909 2465.7866,-111.0582 2482.8268,-90 2488.6978,-82.7445 2489.3592,-75.6662 2482.8268,-69 2449.3893,-34.8775 860.9966,-37.6506 709.104,-32.5399"/>
<polygon fill="#191970" stroke="#191970" points="709.1563,-29.038 698.9895,-32.0192 708.7963,-36.0288 709.1563,-29.038"/>
</g>
<!-- Node39&#45;&gt;Node24 -->
<g id="edge75" class="edge">
<title>Node39&#45;&gt;Node24</title>
<path fill="none" stroke="#191970" d="M2288.4748,-126.4408C2309.8705,-117.3396 2341.6026,-103.8416 2365.5546,-93.6531"/>
<polygon fill="#191970" stroke="#191970" points="2367.1323,-96.7855 2374.9644,-89.6504 2364.3923,-90.3441 2367.1323,-96.7855"/>
</g>
<!-- Node39&#45;&gt;Node28 -->
<g id="edge74" class="edge">
<title>Node39&#45;&gt;Node28</title>
<path fill="none" stroke="#191970" d="M2243.2965,-126.4408C2223.99,-117.4205 2195.4393,-104.0813 2173.7025,-93.9255"/>
<polygon fill="#191970" stroke="#191970" points="2175.0937,-90.7124 2164.5522,-89.6504 2172.1306,-97.0544 2175.0937,-90.7124"/>
</g>
<!-- Node40&#45;&gt;Node1 -->
<g id="edge82" class="edge">
<title>Node40&#45;&gt;Node1</title>
<path fill="none" stroke="#191970" d="M102.6388,-240.2004C102.6784,-208.7628 107.4655,-113.4851 161.8268,-69 189.1515,-46.6396 397.9596,-29.9929 522.6714,-21.9244"/>
<polygon fill="#191970" stroke="#191970" points="523.228,-25.396 532.984,-21.2643 522.7808,-18.4103 523.228,-25.396"/>
</g>
<!-- Node40&#45;&gt;Node36 -->
<g id="edge83" class="edge">
<title>Node40&#45;&gt;Node36</title>
<path fill="none" stroke="#191970" d="M185.9091,-244.6679C345.4401,-233.4693 692.1619,-209.1304 842.68,-198.5645"/>
<polygon fill="#191970" stroke="#191970" points="843.0097,-202.0501 852.74,-197.8583 842.5194,-195.0672 843.0097,-202.0501"/>
</g>
</g>
</svg>
