<?xml version="1.0" encoding="UTF-8" standalone="no"?>
<!DOCTYPE svg PUBLIC "-//W3C//DTD SVG 1.1//EN"
 "http://www.w3.org/Graphics/SVG/1.1/DTD/svg11.dtd">
<!-- Generated by graphviz version 2.40.1 (20161225.0304)
 -->
<!-- Title: /home/kpenev/projects/git/poet/poet_src/Evolve/DissipatingZone.h Pages: 1 -->
<!--zoomable 372 -->
<svg id="main" version="1.1" xmlns="http://www.w3.org/2000/svg" xmlns:xlink="http://www.w3.org/1999/xlink" xml:space="preserve" onload="init(evt)">
<style type="text/css"><![CDATA[
.edge:hover path { stroke: red; }
.edge:hover polygon { stroke: red; fill: red; }
]]></style>
<script type="text/javascript"><![CDATA[
var edges = document.getElementsByTagName('g');
if (edges && edges.length) {
  for (var i=0;i<edges.length;i++) {
    if (edges[i].id.substr(0,4)=='edge') {
      edges[i].setAttribute('class','edge');
    }
  }
}
]]></script>
        <defs>
                <circle id="rim" cx="0" cy="0" r="7"/>
                <circle id="rim2" cx="0" cy="0" r="3.5"/>
                <g id="zoomPlus">
                        <use xlink:href="#rim" fill="#404040">
                                <set attributeName="fill" to="#808080" begin="zoomplus.mouseover" end="zoomplus.mouseout"/>
                        </use>
                        <path d="M-4,0h8M0,-4v8" fill="none" stroke="white" stroke-width="1.5" pointer-events="none"/>
                </g>
                <g id="zoomMin">
                        <use xlink:href="#rim" fill="#404040">
                                <set attributeName="fill" to="#808080" begin="zoomminus.mouseover" end="zoomminus.mouseout"/>
                        </use>
                        <path d="M-4,0h8" fill="none" stroke="white" stroke-width="1.5" pointer-events="none"/>
                </g>
                <g id="dirArrow">
                        <path fill="none" stroke="white" stroke-width="1.5" d="M0,-3.0v7 M-2.5,-0.5L0,-3.0L2.5,-0.5"/>
                </g>
               <g id="resetDef">
                       <use xlink:href="#rim2" fill="#404040">
                               <set attributeName="fill" to="#808080" begin="reset.mouseover" end="reset.mouseout"/>
                       </use>
               </g>
        </defs>

<script type="text/javascript">
var viewWidth = 2472;
var viewHeight = 372;
var sectionId = 'dynsection-0';
</script>
<script xlink:href="svgpan.js"/>
<svg id="graph" class="graph">
<g id="viewport">
<title>/home/kpenev/projects/git/poet/poet_src/Evolve/DissipatingZone.h</title>
<polygon fill="#ffffff" stroke="transparent" points="-4,4 -4,-368 2467.5,-368 2467.5,4 -4,4"/>
<!-- Node0 -->
<g id="node1" class="node">
<title>Node0</title>
<polygon fill="#bfbfbf" stroke="#000000" points="1432,-316.5 1432,-363.5 1579,-363.5 1579,-316.5 1432,-316.5"/>
<text text-anchor="start" x="1440" y="-349.9" font-family="Helvetica,sans-Serif" font-size="12.00" fill="#000000">/home/kpenev/projects</text>
<text text-anchor="start" x="1440" y="-336.9" font-family="Helvetica,sans-Serif" font-size="12.00" fill="#000000">/git/poet/poet_src/Evolve</text>
<text text-anchor="middle" x="1505.5" y="-323.9" font-family="Helvetica,sans-Serif" font-size="12.00" fill="#000000">/DissipatingZone.h</text>
</g>
<!-- Node1 -->
<g id="node2" class="node">
<title>Node1</title>
<g id="a_node2"><a xlink:href="ZoneOrientation_8h.html" target="_top" xlink:title="Declares a class for orientations of zones of DissipatingBody objects. ">
<polygon fill="#ffffff" stroke="#000000" points="927,-187.5 927,-208.5 1040,-208.5 1040,-187.5 927,-187.5"/>
<text text-anchor="middle" x="983.5" y="-194.9" font-family="Helvetica,sans-Serif" font-size="12.00" fill="#000000">ZoneOrientation.h</text>
</a>
</g>
</g>
<!-- Node0&#45;&gt;Node1 -->
<g id="edge1" class="edge">
<title>Node0&#45;&gt;Node1</title>
<path fill="none" stroke="#191970" d="M1431.9198,-330.294C1366.8433,-320.7262 1269.738,-304.0349 1187.5,-280 1124.6771,-261.6394 1054.4909,-231.0868 1014.9896,-212.9118"/>
<polygon fill="#191970" stroke="#191970" points="1016.1757,-209.6039 1005.6311,-208.5727 1013.2311,-215.9545 1016.1757,-209.6039"/>
</g>
<!-- Node2 -->
<g id="node3" class="node">
<title>Node2</title>
<g id="a_node3"><a xlink:href="SharedLibraryExportMacros_8h_source.html" target="_top" xlink:title="../Core/SharedLibraryExport\lMacros.h">
<polygon fill="#ffffff" stroke="#000000" points="1482,-.5 1482,-34.5 1647,-34.5 1647,-.5 1482,-.5"/>
<text text-anchor="start" x="1490" y="-20.9" font-family="Helvetica,sans-Serif" font-size="12.00" fill="#000000">../Core/SharedLibraryExport</text>
<text text-anchor="middle" x="1564.5" y="-7.9" font-family="Helvetica,sans-Serif" font-size="12.00" fill="#000000">Macros.h</text>
</a>
</g>
</g>
<!-- Node0&#45;&gt;Node2 -->
<g id="edge30" class="edge">
<title>Node0&#45;&gt;Node2</title>
<path fill="none" stroke="#191970" d="M1579.2258,-337.7418C1730.7497,-332.4055 2072.1909,-316.6097 2182.5,-280 2248.408,-258.1263 2315.5,-267.4429 2315.5,-198 2315.5,-198 2315.5,-198 2315.5,-140 2315.5,-105.2025 2307.6698,-89.9733 2278.5,-71 2227.6213,-37.9062 1838.7935,-24.1687 1657.2869,-19.5151"/>
<polygon fill="#191970" stroke="#191970" points="1657.3037,-16.0145 1647.2185,-19.2608 1657.1269,-23.0122 1657.3037,-16.0145"/>
</g>
<!-- Node3 -->
<g id="node4" class="node">
<title>Node3</title>
<g id="a_node4"><a xlink:href="DissipationQuantities_8h.html" target="_top" xlink:title="Declaration of enumerations of dissipation quantities and derivatives. ">
<polygon fill="#ffffff" stroke="#000000" points="1476.5,-129.5 1476.5,-150.5 1616.5,-150.5 1616.5,-129.5 1476.5,-129.5"/>
<text text-anchor="middle" x="1546.5" y="-136.9" font-family="Helvetica,sans-Serif" font-size="12.00" fill="#000000">DissipationQuantities.h</text>
</a>
</g>
</g>
<!-- Node0&#45;&gt;Node3 -->
<g id="edge47" class="edge">
<title>Node0&#45;&gt;Node3</title>
<path fill="none" stroke="#191970" d="M1500.5063,-316.2839C1495.1067,-285.407 1489.2763,-230.2777 1505.5,-187 1509.605,-176.0498 1517.5435,-165.9738 1525.3504,-157.9834"/>
<polygon fill="#191970" stroke="#191970" points="1528.137,-160.163 1532.9666,-150.7329 1523.3105,-155.093 1528.137,-160.163"/>
</g>
<!-- Node6 -->
<g id="node7" class="node">
<title>Node6</title>
<g id="a_node7"><a xlink:href="Core_2Common_8h.html" target="_top" xlink:title="Declaration of some general purpose utilities. ">
<polygon fill="#ffffff" stroke="#000000" points="927,-129.5 927,-150.5 1040,-150.5 1040,-129.5 927,-129.5"/>
<text text-anchor="middle" x="983.5" y="-136.9" font-family="Helvetica,sans-Serif" font-size="12.00" fill="#000000">../Core/Common.h</text>
</a>
</g>
</g>
<!-- Node0&#45;&gt;Node6 -->
<g id="edge64" class="edge">
<title>Node0&#45;&gt;Node6</title>
<path fill="none" stroke="#191970" d="M1444.085,-316.4693C1334.5932,-274.5185 1108.8631,-188.0318 1020.304,-154.1011"/>
<polygon fill="#191970" stroke="#191970" points="1021.5264,-150.8214 1010.9361,-150.5119 1019.0219,-157.3581 1021.5264,-150.8214"/>
</g>
<!-- Node8 -->
<g id="node9" class="node">
<title>Node8</title>
<polygon fill="#ffffff" stroke="#bfbfbf" points="1361,-71.5 1361,-92.5 1420,-92.5 1420,-71.5 1361,-71.5"/>
<text text-anchor="middle" x="1390.5" y="-78.9" font-family="Helvetica,sans-Serif" font-size="12.00" fill="#000000">valarray</text>
</g>
<!-- Node0&#45;&gt;Node8 -->
<g id="edge65" class="edge">
<title>Node0&#45;&gt;Node8</title>
<path fill="none" stroke="#191970" d="M1494.8872,-316.1904C1472.4002,-265.7413 1420.31,-148.8782 1399.4117,-101.9931"/>
<polygon fill="#191970" stroke="#191970" points="1402.4997,-100.3239 1395.2316,-92.6152 1396.106,-103.1739 1402.4997,-100.3239"/>
</g>
<!-- Node18 -->
<g id="node19" class="node">
<title>Node18</title>
<g id="a_node19"><a xlink:href="Error_8h.html" target="_top" xlink:title="Defines the exception hierarchy used by this code. ">
<polygon fill="#ffffff" stroke="#000000" points="115,-71.5 115,-92.5 168,-92.5 168,-71.5 115,-71.5"/>
<text text-anchor="middle" x="141.5" y="-78.9" font-family="Helvetica,sans-Serif" font-size="12.00" fill="#000000">Error.h</text>
</a>
</g>
</g>
<!-- Node0&#45;&gt;Node18 -->
<g id="edge31" class="edge">
<title>Node0&#45;&gt;Node18</title>
<path fill="none" stroke="#191970" d="M1431.7781,-337.026C1310.5765,-331.2836 1061.9567,-315.9128 854.5,-280 729.2716,-258.3217 700.313,-241.6965 577.5,-209 483.9315,-184.0893 460.4795,-178.0264 367.5,-151 300.4366,-131.5067 222.6251,-107.4261 178.0174,-93.4796"/>
<polygon fill="#191970" stroke="#191970" points="178.8074,-90.0595 168.2184,-90.412 176.716,-96.7398 178.8074,-90.0595"/>
</g>
<!-- Node24 -->
<g id="node25" class="node">
<title>Node24</title>
<g id="a_node25"><a xlink:href="TidalPotentialTerms_8h.html" target="_top" xlink:title="Declare an interface for evaluating the expansion of the tidal potential. ">
<polygon fill="#ffffff" stroke="#000000" points="1514.5,-187.5 1514.5,-208.5 1648.5,-208.5 1648.5,-187.5 1514.5,-187.5"/>
<text text-anchor="middle" x="1581.5" y="-194.9" font-family="Helvetica,sans-Serif" font-size="12.00" fill="#000000">TidalPotentialTerms.h</text>
</a>
</g>
</g>
<!-- Node0&#45;&gt;Node24 -->
<g id="edge32" class="edge">
<title>Node0&#45;&gt;Node24</title>
<path fill="none" stroke="#191970" d="M1512.7191,-316.4487C1519.2948,-296.6518 1530.0251,-267.987 1543.5,-245 1549.4698,-234.8161 1557.5312,-224.5063 1564.693,-216.1479"/>
<polygon fill="#191970" stroke="#191970" points="1567.4394,-218.3258 1571.4442,-208.517 1562.1967,-213.6875 1567.4394,-218.3258"/>
</g>
<!-- Node31 -->
<g id="node32" class="node">
<title>Node31</title>
<g id="a_node32"><a xlink:href="SpinOrbitLockInfo_8h.html" target="_top" xlink:title="Defines the SpinOrbitLockInfo class. ">
<polygon fill="#ffffff" stroke="#000000" points="186.5,-71.5 186.5,-92.5 308.5,-92.5 308.5,-71.5 186.5,-71.5"/>
<text text-anchor="middle" x="247.5" y="-78.9" font-family="Helvetica,sans-Serif" font-size="12.00" fill="#000000">SpinOrbitLockInfo.h</text>
</a>
</g>
</g>
<!-- Node0&#45;&gt;Node31 -->
<g id="edge48" class="edge">
<title>Node0&#45;&gt;Node31</title>
<path fill="none" stroke="#191970" d="M1431.9703,-331.9198C1257.2844,-311.6595 804.6021,-252.889 438.5,-151 382.8438,-135.5104 320.1848,-111.5812 282.2893,-96.3621"/>
<polygon fill="#191970" stroke="#191970" points="283.3288,-93.0072 272.7459,-92.503 280.7045,-99.4967 283.3288,-93.0072"/>
</g>
<!-- Node32 -->
<g id="node33" class="node">
<title>Node32</title>
<g id="a_node33"><a xlink:href="CombinedStoppingCondition_8h.html" target="_top" xlink:title="Declares a class for a stopping condition that combines other stopping conditions. ">
<polygon fill="#ffffff" stroke="#000000" points="1991.5,-252 1991.5,-273 2173.5,-273 2173.5,-252 1991.5,-252"/>
<text text-anchor="middle" x="2082.5" y="-259.4" font-family="Helvetica,sans-Serif" font-size="12.00" fill="#000000">CombinedStoppingCondition.h</text>
</a>
</g>
</g>
<!-- Node0&#45;&gt;Node32 -->
<g id="edge51" class="edge">
<title>Node0&#45;&gt;Node32</title>
<path fill="none" stroke="#191970" d="M1579.1635,-330.1059C1685.1843,-315.8656 1880.5063,-289.6309 1994.1463,-274.3673"/>
<polygon fill="#191970" stroke="#191970" points="1994.7627,-277.816 2004.2078,-273.0159 1993.8308,-270.8783 1994.7627,-277.816"/>
</g>
<!-- Node34 -->
<g id="node35" class="node">
<title>Node34</title>
<g id="a_node35"><a xlink:href="BreakLockCondition_8h.html" target="_top" xlink:title="Declares a class for a stopping condition monitoring when a locked zone loses the lock...">
<polygon fill="#ffffff" stroke="#000000" points="1723,-252 1723,-273 1858,-273 1858,-252 1723,-252"/>
<text text-anchor="middle" x="1790.5" y="-259.4" font-family="Helvetica,sans-Serif" font-size="12.00" fill="#000000">BreakLockCondition.h</text>
</a>
</g>
</g>
<!-- Node0&#45;&gt;Node34 -->
<g id="edge58" class="edge">
<title>Node0&#45;&gt;Node34</title>
<path fill="none" stroke="#191970" d="M1579.2652,-319.941C1630.4787,-306.0146 1697.2676,-287.8527 1741.9027,-275.7151"/>
<polygon fill="#191970" stroke="#191970" points="1742.9023,-279.0704 1751.6335,-273.069 1741.0655,-272.3157 1742.9023,-279.0704"/>
</g>
<!-- Node35 -->
<g id="node36" class="node">
<title>Node35</title>
<g id="a_node36"><a xlink:href="SynchronizedCondition_8h.html" target="_top" xlink:title="Declares a stopping condition monitoring spin&#45;orbit synchronization. ">
<polygon fill="#ffffff" stroke="#000000" points="1552.5,-252 1552.5,-273 1704.5,-273 1704.5,-252 1552.5,-252"/>
<text text-anchor="middle" x="1628.5" y="-259.4" font-family="Helvetica,sans-Serif" font-size="12.00" fill="#000000">SynchronizedCondition.h</text>
</a>
</g>
</g>
<!-- Node0&#45;&gt;Node35 -->
<g id="edge61" class="edge">
<title>Node0&#45;&gt;Node35</title>
<path fill="none" stroke="#191970" d="M1543.0724,-316.3263C1562.5648,-304.0446 1585.8565,-289.3689 1603.1923,-278.4459"/>
<polygon fill="#191970" stroke="#191970" points="1605.0685,-281.4006 1611.6633,-273.1085 1601.3369,-275.4782 1605.0685,-281.4006"/>
</g>
<!-- Node36 -->
<g id="node37" class="node">
<title>Node36</title>
<polygon fill="#ffffff" stroke="#bfbfbf" points="2343.5,-245.5 2343.5,-279.5 2463.5,-279.5 2463.5,-245.5 2343.5,-245.5"/>
<text text-anchor="start" x="2351.5" y="-265.9" font-family="Helvetica,sans-Serif" font-size="12.00" fill="#000000">boost/math/special</text>
<text text-anchor="middle" x="2403.5" y="-252.9" font-family="Helvetica,sans-Serif" font-size="12.00" fill="#000000">_functions/sign.hpp</text>
</g>
<!-- Node0&#45;&gt;Node36 -->
<g id="edge66" class="edge">
<title>Node0&#45;&gt;Node36</title>
<path fill="none" stroke="#191970" d="M1579.2468,-338.5685C1723.9273,-334.8928 2054.8193,-322.2036 2329.5,-280 2330.7845,-279.8026 2332.0795,-279.5946 2333.3826,-279.377"/>
<polygon fill="#191970" stroke="#191970" points="2334.2702,-282.773 2343.4821,-277.5393 2333.017,-275.8861 2334.2702,-282.773"/>
</g>
<!-- Node1&#45;&gt;Node2 -->
<g id="edge2" class="edge">
<title>Node1&#45;&gt;Node2</title>
<path fill="none" stroke="#191970" d="M926.9925,-194.9471C765.3324,-185.2115 317.3223,-150.7376 393.5,-71 430.5631,-32.2049 1201.4021,-21.0202 1471.7748,-18.2838"/>
<polygon fill="#191970" stroke="#191970" points="1471.9891,-21.782 1481.9537,-18.1824 1471.9193,-14.7823 1471.9891,-21.782"/>
</g>
<!-- Node1&#45;&gt;Node3 -->
<g id="edge3" class="edge">
<title>Node1&#45;&gt;Node3</title>
<path fill="none" stroke="#191970" d="M1040.0603,-192.1732C1140.6167,-181.8139 1350.7575,-160.1653 1466.2321,-148.2692"/>
<polygon fill="#191970" stroke="#191970" points="1466.8345,-151.7257 1476.4232,-147.2193 1466.1171,-144.7626 1466.8345,-151.7257"/>
</g>
<!-- Node1&#45;&gt;Node6 -->
<g id="edge7" class="edge">
<title>Node1&#45;&gt;Node6</title>
<path fill="none" stroke="#191970" d="M983.5,-187.3619C983.5,-179.9219 983.5,-169.7427 983.5,-160.7276"/>
<polygon fill="#191970" stroke="#191970" points="987.0001,-160.5706 983.5,-150.5707 980.0001,-160.5707 987.0001,-160.5706"/>
</g>
<!-- Node22 -->
<g id="node23" class="node">
<title>Node22</title>
<g id="a_node23"><a xlink:href="IncludeEigen_8h_source.html" target="_top" xlink:title="IncludeEigen.h">
<polygon fill="#ffffff" stroke="#000000" points="0,-71.5 0,-92.5 97,-92.5 97,-71.5 0,-71.5"/>
<text text-anchor="middle" x="48.5" y="-78.9" font-family="Helvetica,sans-Serif" font-size="12.00" fill="#000000">IncludeEigen.h</text>
</a>
</g>
</g>
<!-- Node1&#45;&gt;Node22 -->
<g id="edge29" class="edge">
<title>Node1&#45;&gt;Node22</title>
<path fill="none" stroke="#191970" d="M926.968,-197.3185C812.2752,-195.2031 544.3009,-186.5302 322.5,-151 239.9096,-137.7699 145.7838,-111.5531 92.1288,-95.5188"/>
<polygon fill="#191970" stroke="#191970" points="92.8575,-92.083 82.273,-92.5517 90.8395,-98.7859 92.8575,-92.083"/>
</g>
<!-- Node3&#45;&gt;Node2 -->
<g id="edge4" class="edge">
<title>Node3&#45;&gt;Node2</title>
<path fill="none" stroke="#191970" d="M1548.0974,-129.1289C1550.85,-110.3958 1556.5668,-71.4896 1560.4688,-44.9346"/>
<polygon fill="#191970" stroke="#191970" points="1563.9747,-45.1495 1561.9658,-34.7469 1557.0491,-44.1318 1563.9747,-45.1495"/>
</g>
<!-- Node4 -->
<g id="node5" class="node">
<title>Node4</title>
<polygon fill="#ffffff" stroke="#bfbfbf" points="1477,-71.5 1477,-92.5 1536,-92.5 1536,-71.5 1477,-71.5"/>
<text text-anchor="middle" x="1506.5" y="-78.9" font-family="Helvetica,sans-Serif" font-size="12.00" fill="#000000">ostream</text>
</g>
<!-- Node3&#45;&gt;Node4 -->
<g id="edge5" class="edge">
<title>Node3&#45;&gt;Node4</title>
<path fill="none" stroke="#191970" d="M1539.1634,-129.3619C1533.694,-121.4313 1526.0783,-110.3885 1519.5763,-100.9606"/>
<polygon fill="#191970" stroke="#191970" points="1522.3487,-98.8157 1513.7901,-92.5707 1516.5862,-102.7899 1522.3487,-98.8157"/>
</g>
<!-- Node5 -->
<g id="node6" class="node">
<title>Node5</title>
<polygon fill="#ffffff" stroke="#bfbfbf" points="1593,-71.5 1593,-92.5 1648,-92.5 1648,-71.5 1593,-71.5"/>
<text text-anchor="middle" x="1620.5" y="-78.9" font-family="Helvetica,sans-Serif" font-size="12.00" fill="#000000">cassert</text>
</g>
<!-- Node3&#45;&gt;Node5 -->
<g id="edge6" class="edge">
<title>Node3&#45;&gt;Node5</title>
<path fill="none" stroke="#191970" d="M1560.0727,-129.3619C1570.9212,-120.859 1586.3343,-108.7785 1598.8785,-98.9466"/>
<polygon fill="#191970" stroke="#191970" points="1601.3018,-101.4942 1607.0133,-92.5707 1596.9836,-95.9848 1601.3018,-101.4942"/>
</g>
<!-- Node6&#45;&gt;Node2 -->
<g id="edge20" class="edge">
<title>Node6&#45;&gt;Node2</title>
<path fill="none" stroke="#191970" d="M1040.135,-134.5698C1120.7312,-126.3938 1264.2122,-110.0551 1313.5,-93 1331.9422,-86.6184 1333.4166,-78.337 1351.5,-71 1389.7701,-55.4725 1433.7887,-43.5068 1471.8393,-34.8687"/>
<polygon fill="#191970" stroke="#191970" points="1472.8878,-38.221 1481.8888,-32.6325 1471.3673,-31.3882 1472.8878,-38.221"/>
</g>
<!-- Node6&#45;&gt;Node5 -->
<g id="edge19" class="edge">
<title>Node6&#45;&gt;Node5</title>
<path fill="none" stroke="#191970" d="M1040.1475,-136.3856C1141.4994,-129.6668 1360.4834,-114.0061 1544.5,-93 1556.8963,-91.5849 1570.3859,-89.7344 1582.5128,-87.9559"/>
<polygon fill="#191970" stroke="#191970" points="1583.3848,-91.3646 1592.7573,-86.4243 1582.3497,-84.4415 1583.3848,-91.3646"/>
</g>
<!-- Node7 -->
<g id="node8" class="node">
<title>Node7</title>
<polygon fill="#ffffff" stroke="#bfbfbf" points="402.5,-71.5 402.5,-92.5 434.5,-92.5 434.5,-71.5 402.5,-71.5"/>
<text text-anchor="middle" x="418.5" y="-78.9" font-family="Helvetica,sans-Serif" font-size="12.00" fill="#000000">list</text>
</g>
<!-- Node6&#45;&gt;Node7 -->
<g id="edge8" class="edge">
<title>Node6&#45;&gt;Node7</title>
<path fill="none" stroke="#191970" d="M926.8025,-137.4141C811.1569,-131.7689 550.7058,-117.0667 444.4264,-92.4265"/>
<polygon fill="#191970" stroke="#191970" points="445.1798,-89.0076 434.6326,-90.011 443.5035,-95.8039 445.1798,-89.0076"/>
</g>
<!-- Node6&#45;&gt;Node8 -->
<g id="edge9" class="edge">
<title>Node6&#45;&gt;Node8</title>
<path fill="none" stroke="#191970" d="M1040.0985,-134.73C1111.7871,-127.5839 1238.9461,-113.3358 1346.5,-93 1347.9507,-92.7257 1349.4249,-92.4326 1350.9114,-92.1249"/>
<polygon fill="#191970" stroke="#191970" points="1351.7813,-95.517 1360.7814,-89.927 1350.2597,-88.6843 1351.7813,-95.517"/>
</g>
<!-- Node9 -->
<g id="node10" class="node">
<title>Node9</title>
<polygon fill="#ffffff" stroke="#bfbfbf" points="452.5,-71.5 452.5,-92.5 496.5,-92.5 496.5,-71.5 452.5,-71.5"/>
<text text-anchor="middle" x="474.5" y="-78.9" font-family="Helvetica,sans-Serif" font-size="12.00" fill="#000000">limits</text>
</g>
<!-- Node6&#45;&gt;Node9 -->
<g id="edge10" class="edge">
<title>Node6&#45;&gt;Node9</title>
<path fill="none" stroke="#191970" d="M926.8731,-138.8657C838.5196,-136.1293 662.6523,-126.8011 506.4458,-92.7618"/>
<polygon fill="#191970" stroke="#191970" points="507.1818,-89.34 496.6611,-90.591 505.6656,-96.1739 507.1818,-89.34"/>
</g>
<!-- Node10 -->
<g id="node11" class="node">
<title>Node10</title>
<polygon fill="#ffffff" stroke="#bfbfbf" points="1666,-71.5 1666,-92.5 1725,-92.5 1725,-71.5 1666,-71.5"/>
<text text-anchor="middle" x="1695.5" y="-78.9" font-family="Helvetica,sans-Serif" font-size="12.00" fill="#000000">sstream</text>
</g>
<!-- Node6&#45;&gt;Node10 -->
<g id="edge11" class="edge">
<title>Node6&#45;&gt;Node10</title>
<path fill="none" stroke="#191970" d="M1040.0185,-137.6043C1176.3383,-131.5836 1521.2939,-114.8437 1655.7016,-92.9724"/>
<polygon fill="#191970" stroke="#191970" points="1656.5024,-96.3864 1665.7703,-91.2527 1655.3238,-89.4863 1656.5024,-96.3864"/>
</g>
<!-- Node11 -->
<g id="node12" class="node">
<title>Node11</title>
<polygon fill="#ffffff" stroke="#bfbfbf" points="300.5,-7 300.5,-28 362.5,-28 362.5,-7 300.5,-7"/>
<text text-anchor="middle" x="331.5" y="-14.4" font-family="Helvetica,sans-Serif" font-size="12.00" fill="#000000">iostream</text>
</g>
<!-- Node6&#45;&gt;Node11 -->
<g id="edge12" class="edge">
<title>Node6&#45;&gt;Node11</title>
<path fill="none" stroke="#191970" d="M926.8741,-138.0025C788.3029,-132.7593 440.035,-117.3083 393.5,-93 369.907,-80.6758 351.9402,-55.088 341.5682,-37.1304"/>
<polygon fill="#191970" stroke="#191970" points="344.4774,-35.1563 336.5997,-28.0716 338.3399,-38.5225 344.4774,-35.1563"/>
</g>
<!-- Node12 -->
<g id="node13" class="node">
<title>Node12</title>
<polygon fill="#ffffff" stroke="#bfbfbf" points="515,-71.5 515,-92.5 568,-92.5 568,-71.5 515,-71.5"/>
<text text-anchor="middle" x="541.5" y="-78.9" font-family="Helvetica,sans-Serif" font-size="12.00" fill="#000000">iterator</text>
</g>
<!-- Node6&#45;&gt;Node12 -->
<g id="edge13" class="edge">
<title>Node6&#45;&gt;Node12</title>
<path fill="none" stroke="#191970" d="M926.8298,-136.6933C849.8828,-131.4869 708.0486,-119.3505 578.2177,-92.8179"/>
<polygon fill="#191970" stroke="#191970" points="578.5993,-89.3225 568.0964,-90.7147 577.1752,-96.1761 578.5993,-89.3225"/>
</g>
<!-- Node13 -->
<g id="node14" class="node">
<title>Node13</title>
<polygon fill="#ffffff" stroke="#bfbfbf" points="586.5,-71.5 586.5,-92.5 686.5,-92.5 686.5,-71.5 586.5,-71.5"/>
<text text-anchor="middle" x="636.5" y="-78.9" font-family="Helvetica,sans-Serif" font-size="12.00" fill="#000000">gsl/gsl_vector.h</text>
</g>
<!-- Node6&#45;&gt;Node13 -->
<g id="edge14" class="edge">
<title>Node6&#45;&gt;Node13</title>
<path fill="none" stroke="#191970" d="M926.8766,-131.1459C870.9105,-122.3072 782.5786,-108.1236 696.6235,-93.1706"/>
<polygon fill="#191970" stroke="#191970" points="697.1509,-89.7098 686.6981,-91.4386 695.9476,-96.6056 697.1509,-89.7098"/>
</g>
<!-- Node14 -->
<g id="node15" class="node">
<title>Node14</title>
<polygon fill="#ffffff" stroke="#bfbfbf" points="704.5,-71.5 704.5,-92.5 804.5,-92.5 804.5,-71.5 704.5,-71.5"/>
<text text-anchor="middle" x="754.5" y="-78.9" font-family="Helvetica,sans-Serif" font-size="12.00" fill="#000000">gsl/gsl_matrix.h</text>
</g>
<!-- Node6&#45;&gt;Node14 -->
<g id="edge15" class="edge">
<title>Node6&#45;&gt;Node14</title>
<path fill="none" stroke="#191970" d="M942.0298,-129.4966C903.8077,-119.8159 846.9514,-105.4156 805.869,-95.0105"/>
<polygon fill="#191970" stroke="#191970" points="806.6012,-91.5855 796.0479,-92.5231 804.8825,-98.3712 806.6012,-91.5855"/>
</g>
<!-- Node15 -->
<g id="node16" class="node">
<title>Node15</title>
<polygon fill="#ffffff" stroke="#bfbfbf" points="823,-71.5 823,-92.5 920,-92.5 920,-71.5 823,-71.5"/>
<text text-anchor="middle" x="871.5" y="-78.9" font-family="Helvetica,sans-Serif" font-size="12.00" fill="#000000">gsl/gsl_linalg.h</text>
</g>
<!-- Node6&#45;&gt;Node15 -->
<g id="edge16" class="edge">
<title>Node6&#45;&gt;Node15</title>
<path fill="none" stroke="#191970" d="M963.2176,-129.4966C945.8823,-120.5194 920.7096,-107.4835 901.1196,-97.3387"/>
<polygon fill="#191970" stroke="#191970" points="902.4994,-94.1118 892.0099,-92.6212 899.2804,-100.3278 902.4994,-94.1118"/>
</g>
<!-- Node16 -->
<g id="node17" class="node">
<title>Node16</title>
<polygon fill="#ffffff" stroke="#bfbfbf" points="938.5,-71.5 938.5,-92.5 1028.5,-92.5 1028.5,-71.5 938.5,-71.5"/>
<text text-anchor="middle" x="983.5" y="-78.9" font-family="Helvetica,sans-Serif" font-size="12.00" fill="#000000">gsl/gsl_blas.h</text>
</g>
<!-- Node6&#45;&gt;Node16 -->
<g id="edge17" class="edge">
<title>Node6&#45;&gt;Node16</title>
<path fill="none" stroke="#191970" d="M983.5,-129.3619C983.5,-121.9219 983.5,-111.7427 983.5,-102.7276"/>
<polygon fill="#191970" stroke="#191970" points="987.0001,-102.5706 983.5,-92.5707 980.0001,-102.5707 987.0001,-102.5706"/>
</g>
<!-- Node17 -->
<g id="node18" class="node">
<title>Node17</title>
<polygon fill="#ffffff" stroke="#bfbfbf" points="1046.5,-71.5 1046.5,-92.5 1136.5,-92.5 1136.5,-71.5 1046.5,-71.5"/>
<text text-anchor="middle" x="1091.5" y="-78.9" font-family="Helvetica,sans-Serif" font-size="12.00" fill="#000000">gsl/gsl_poly.h</text>
</g>
<!-- Node6&#45;&gt;Node17 -->
<g id="edge18" class="edge">
<title>Node6&#45;&gt;Node17</title>
<path fill="none" stroke="#191970" d="M1003.058,-129.4966C1019.6983,-120.5602 1043.8274,-107.602 1062.6803,-97.4772"/>
<polygon fill="#191970" stroke="#191970" points="1064.5686,-100.436 1071.7226,-92.6212 1061.2566,-94.2691 1064.5686,-100.436"/>
</g>
<!-- Node6&#45;&gt;Node18 -->
<g id="edge21" class="edge">
<title>Node6&#45;&gt;Node18</title>
<path fill="none" stroke="#191970" d="M926.8369,-138.4511C771.5965,-133.9346 340.8128,-119.5022 178.3687,-92.6737"/>
<polygon fill="#191970" stroke="#191970" points="178.5133,-89.1467 168.0627,-90.8885 177.3186,-96.044 178.5133,-89.1467"/>
</g>
<!-- Node21 -->
<g id="node22" class="node">
<title>Node21</title>
<g id="a_node22"><a xlink:href="AstronomicalConstants_8h.html" target="_top" xlink:title="Defines various astronomical constants. ">
<polygon fill="#ffffff" stroke="#000000" points="1154.5,-71.5 1154.5,-92.5 1304.5,-92.5 1304.5,-71.5 1154.5,-71.5"/>
<text text-anchor="middle" x="1229.5" y="-78.9" font-family="Helvetica,sans-Serif" font-size="12.00" fill="#000000">AstronomicalConstants.h</text>
</a>
</g>
</g>
<!-- Node6&#45;&gt;Node21 -->
<g id="edge26" class="edge">
<title>Node6&#45;&gt;Node21</title>
<path fill="none" stroke="#191970" d="M1028.0487,-129.4966C1069.2819,-119.775 1130.7022,-105.2938 1174.8765,-94.8787"/>
<polygon fill="#191970" stroke="#191970" points="1175.9378,-98.2245 1184.8677,-92.5231 1174.3314,-91.4113 1175.9378,-98.2245"/>
</g>
<!-- Node6&#45;&gt;Node22 -->
<g id="edge27" class="edge">
<title>Node6&#45;&gt;Node22</title>
<path fill="none" stroke="#191970" d="M926.7657,-137.9823C761.9372,-131.962 284.1107,-113.3473 107.2057,-93.0474"/>
<polygon fill="#191970" stroke="#191970" points="107.5912,-89.5687 97.2479,-91.8634 106.7646,-96.5197 107.5912,-89.5687"/>
</g>
<!-- Node18&#45;&gt;Node2 -->
<g id="edge22" class="edge">
<title>Node18&#45;&gt;Node2</title>
<path fill="none" stroke="#191970" d="M168.0522,-73.0512C171.2083,-72.2368 174.407,-71.5231 177.5,-71 427.3348,-28.7441 1202.6687,-19.8096 1471.5488,-17.9663"/>
<polygon fill="#191970" stroke="#191970" points="1471.6913,-21.4655 1481.6676,-17.8986 1471.6444,-14.4657 1471.6913,-21.4655"/>
</g>
<!-- Node18&#45;&gt;Node11 -->
<g id="edge23" class="edge">
<title>Node18&#45;&gt;Node11</title>
<path fill="none" stroke="#191970" d="M168.3194,-72.8955C200.2457,-62.0574 253.8859,-43.848 290.903,-31.2816"/>
<polygon fill="#191970" stroke="#191970" points="292.0571,-34.5861 300.4012,-28.0572 289.8068,-27.9576 292.0571,-34.5861"/>
</g>
<!-- Node19 -->
<g id="node20" class="node">
<title>Node19</title>
<polygon fill="#ffffff" stroke="#bfbfbf" points="107.5,-7 107.5,-28 175.5,-28 175.5,-7 107.5,-7"/>
<text text-anchor="middle" x="141.5" y="-14.4" font-family="Helvetica,sans-Serif" font-size="12.00" fill="#000000">exception</text>
</g>
<!-- Node18&#45;&gt;Node19 -->
<g id="edge24" class="edge">
<title>Node18&#45;&gt;Node19</title>
<path fill="none" stroke="#191970" d="M141.5,-71.3491C141.5,-62.4397 141.5,-49.4599 141.5,-38.4761"/>
<polygon fill="#191970" stroke="#191970" points="145.0001,-38.3822 141.5,-28.3823 138.0001,-38.3823 145.0001,-38.3822"/>
</g>
<!-- Node20 -->
<g id="node21" class="node">
<title>Node20</title>
<polygon fill="#ffffff" stroke="#bfbfbf" points="193.5,-7 193.5,-28 239.5,-28 239.5,-7 193.5,-7"/>
<text text-anchor="middle" x="216.5" y="-14.4" font-family="Helvetica,sans-Serif" font-size="12.00" fill="#000000">string</text>
</g>
<!-- Node18&#45;&gt;Node20 -->
<g id="edge25" class="edge">
<title>Node18&#45;&gt;Node20</title>
<path fill="none" stroke="#191970" d="M153.8847,-71.3491C165.3926,-61.4524 182.7405,-46.5332 196.2601,-34.9063"/>
<polygon fill="#191970" stroke="#191970" points="198.7972,-37.3408 204.0969,-28.1667 194.2329,-32.0335 198.7972,-37.3408"/>
</g>
<!-- Node23 -->
<g id="node24" class="node">
<title>Node23</title>
<polygon fill="#ffffff" stroke="#bfbfbf" points="3.5,-7 3.5,-28 89.5,-28 89.5,-7 3.5,-7"/>
<text text-anchor="middle" x="46.5" y="-14.4" font-family="Helvetica,sans-Serif" font-size="12.00" fill="#000000">Eigen/Dense</text>
</g>
<!-- Node22&#45;&gt;Node23 -->
<g id="edge28" class="edge">
<title>Node22&#45;&gt;Node23</title>
<path fill="none" stroke="#191970" d="M48.1697,-71.3491C47.8935,-62.4397 47.491,-49.4599 47.1504,-38.4761"/>
<polygon fill="#191970" stroke="#191970" points="50.6458,-38.269 46.8374,-28.3823 43.6491,-38.486 50.6458,-38.269"/>
</g>
<!-- Node24&#45;&gt;Node6 -->
<g id="edge46" class="edge">
<title>Node24&#45;&gt;Node6</title>
<path fill="none" stroke="#191970" d="M1514.3536,-191.4875C1399.1406,-180.313 1165.1284,-157.6161 1050.2137,-146.4706"/>
<polygon fill="#191970" stroke="#191970" points="1050.4321,-142.9754 1040.1409,-145.4936 1049.7563,-149.9427 1050.4321,-142.9754"/>
</g>
<!-- Node24&#45;&gt;Node8 -->
<g id="edge34" class="edge">
<title>Node24&#45;&gt;Node8</title>
<path fill="none" stroke="#191970" d="M1547.6195,-187.4401C1524.1415,-179.324 1492.6981,-166.8279 1467.5,-151 1444.4599,-136.5276 1421.7089,-115.0031 1406.9822,-99.8515"/>
<polygon fill="#191970" stroke="#191970" points="1409.4859,-97.4053 1400.0535,-92.5801 1404.4181,-102.2342 1409.4859,-97.4053"/>
</g>
<!-- Node25 -->
<g id="node26" class="node">
<title>Node25</title>
<polygon fill="#ffffff" stroke="#bfbfbf" points="2056,-71.5 2056,-92.5 2105,-92.5 2105,-71.5 2056,-71.5"/>
<text text-anchor="middle" x="2080.5" y="-78.9" font-family="Helvetica,sans-Serif" font-size="12.00" fill="#000000">cmath</text>
</g>
<!-- Node24&#45;&gt;Node25 -->
<g id="edge33" class="edge">
<title>Node24&#45;&gt;Node25</title>
<path fill="none" stroke="#191970" d="M1648.8401,-190.0442C1728.9072,-180.2619 1857.5981,-163.4299 1904.5,-151 1956.842,-137.1284 2014.8203,-112.4769 2049.429,-96.7023"/>
<polygon fill="#191970" stroke="#191970" points="2050.9267,-99.8659 2058.5467,-92.5047 2047.9994,-93.5074 2050.9267,-99.8659"/>
</g>
<!-- Node26 -->
<g id="node27" class="node">
<title>Node26</title>
<g id="a_node27"><a xlink:href="EccentricityExpansionCoefficients_8h.html" target="_top" xlink:title="Declares a class which provides the [ &#160;coefficients]{InclinationEccentricity_pms1}. ">
<polygon fill="#ffffff" stroke="#000000" points="1687.5,-129.5 1687.5,-150.5 1895.5,-150.5 1895.5,-129.5 1687.5,-129.5"/>
<text text-anchor="middle" x="1791.5" y="-136.9" font-family="Helvetica,sans-Serif" font-size="12.00" fill="#000000">EccentricityExpansionCoefficients.h</text>
</a>
</g>
</g>
<!-- Node24&#45;&gt;Node26 -->
<g id="edge35" class="edge">
<title>Node24&#45;&gt;Node26</title>
<path fill="none" stroke="#191970" d="M1619.5294,-187.4966C1654.3579,-177.8773 1706.0585,-163.5981 1743.6745,-153.209"/>
<polygon fill="#191970" stroke="#191970" points="1744.692,-156.5591 1753.3993,-150.5231 1742.8283,-149.8117 1744.692,-156.5591"/>
</g>
<!-- Node26&#45;&gt;Node2 -->
<g id="edge36" class="edge">
<title>Node26&#45;&gt;Node2</title>
<path fill="none" stroke="#191970" d="M1790.8397,-129.4676C1789.3122,-114.3212 1784.2527,-86.5092 1767.5,-71 1750.8681,-55.6026 1702.4815,-42.5385 1657.1211,-33.1748"/>
<polygon fill="#191970" stroke="#191970" points="1657.6933,-29.7198 1647.1987,-31.1739 1656.3095,-36.5817 1657.6933,-29.7198"/>
</g>
<!-- Node26&#45;&gt;Node5 -->
<g id="edge44" class="edge">
<title>Node26&#45;&gt;Node5</title>
<path fill="none" stroke="#191970" d="M1760.5332,-129.4966C1731.6134,-119.6876 1688.4076,-105.033 1657.6446,-94.5988"/>
<polygon fill="#191970" stroke="#191970" points="1658.7221,-91.2684 1648.1277,-91.3708 1656.4736,-97.8975 1658.7221,-91.2684"/>
</g>
<!-- Node26&#45;&gt;Node10 -->
<g id="edge43" class="edge">
<title>Node26&#45;&gt;Node10</title>
<path fill="none" stroke="#191970" d="M1773.8921,-129.3619C1759.2771,-120.532 1738.2762,-107.844 1721.6888,-97.8224"/>
<polygon fill="#191970" stroke="#191970" points="1723.3653,-94.7461 1712.9963,-92.5707 1719.7455,-100.7376 1723.3653,-94.7461"/>
</g>
<!-- Node26&#45;&gt;Node11 -->
<g id="edge42" class="edge">
<title>Node26&#45;&gt;Node11</title>
<path fill="none" stroke="#191970" d="M1786.4563,-129.4424C1778.1635,-113.4472 1759.9884,-83.6038 1734.5,-71 1671.9237,-40.0565 597.5835,-21.6479 372.6059,-18.1225"/>
<polygon fill="#191970" stroke="#191970" points="372.5955,-14.622 362.5422,-17.9659 372.4865,-21.6211 372.5955,-14.622"/>
</g>
<!-- Node26&#45;&gt;Node18 -->
<g id="edge37" class="edge">
<title>Node26&#45;&gt;Node18</title>
<path fill="none" stroke="#191970" d="M1687.4893,-132.4461C1666.9522,-131.1414 1645.5527,-129.9133 1625.5,-129 1307.2532,-114.5058 511.7639,-143.8902 178.2608,-92.6107"/>
<polygon fill="#191970" stroke="#191970" points="178.47,-89.1002 168.0452,-90.9908 177.3736,-96.0138 178.47,-89.1002"/>
</g>
<!-- Node26&#45;&gt;Node25 -->
<g id="edge41" class="edge">
<title>Node26&#45;&gt;Node25</title>
<path fill="none" stroke="#191970" d="M1862.3884,-129.4846C1911.4428,-121.6199 1978.3391,-109.7338 2045.775,-92.9416"/>
<polygon fill="#191970" stroke="#191970" points="2046.8879,-96.2705 2055.7265,-90.4283 2045.1738,-89.4836 2046.8879,-96.2705"/>
</g>
<!-- Node27 -->
<g id="node28" class="node">
<title>Node27</title>
<polygon fill="#ffffff" stroke="#bfbfbf" points="2200,-71.5 2200,-92.5 2249,-92.5 2249,-71.5 2200,-71.5"/>
<text text-anchor="middle" x="2224.5" y="-78.9" font-family="Helvetica,sans-Serif" font-size="12.00" fill="#000000">vector</text>
</g>
<!-- Node26&#45;&gt;Node27 -->
<g id="edge38" class="edge">
<title>Node26&#45;&gt;Node27</title>
<path fill="none" stroke="#191970" d="M1869.913,-129.4966C1964.7594,-116.792 2120.2894,-95.9589 2189.4498,-86.695"/>
<polygon fill="#191970" stroke="#191970" points="2190.3387,-90.1072 2199.7855,-85.3105 2189.4093,-83.1692 2190.3387,-90.1072"/>
</g>
<!-- Node28 -->
<g id="node29" class="node">
<title>Node28</title>
<polygon fill="#ffffff" stroke="#bfbfbf" points="1981.5,-71.5 1981.5,-92.5 2037.5,-92.5 2037.5,-71.5 1981.5,-71.5"/>
<text text-anchor="middle" x="2009.5" y="-78.9" font-family="Helvetica,sans-Serif" font-size="12.00" fill="#000000">fstream</text>
</g>
<!-- Node26&#45;&gt;Node28 -->
<g id="edge39" class="edge">
<title>Node26&#45;&gt;Node28</title>
<path fill="none" stroke="#191970" d="M1833.6706,-129.4931C1868.2716,-120.7727 1918.7688,-107.82 1971.3989,-93.2488"/>
<polygon fill="#191970" stroke="#191970" points="1972.551,-96.5613 1981.2476,-90.5099 1970.6754,-89.8172 1972.551,-96.5613"/>
</g>
<!-- Node29 -->
<g id="node30" class="node">
<title>Node29</title>
<polygon fill="#ffffff" stroke="#bfbfbf" points="1820,-71.5 1820,-92.5 1879,-92.5 1879,-71.5 1820,-71.5"/>
<text text-anchor="middle" x="1849.5" y="-78.9" font-family="Helvetica,sans-Serif" font-size="12.00" fill="#000000">iomanip</text>
</g>
<!-- Node26&#45;&gt;Node29 -->
<g id="edge40" class="edge">
<title>Node26&#45;&gt;Node29</title>
<path fill="none" stroke="#191970" d="M1802.1381,-129.3619C1810.3957,-121.1043 1822.0275,-109.4725 1831.6971,-99.8029"/>
<polygon fill="#191970" stroke="#191970" points="1834.3331,-102.1166 1838.9293,-92.5707 1829.3834,-97.1669 1834.3331,-102.1166"/>
</g>
<!-- Node30 -->
<g id="node31" class="node">
<title>Node30</title>
<polygon fill="#ffffff" stroke="#bfbfbf" points="1897.5,-71.5 1897.5,-92.5 1963.5,-92.5 1963.5,-71.5 1897.5,-71.5"/>
<text text-anchor="middle" x="1930.5" y="-78.9" font-family="Helvetica,sans-Serif" font-size="12.00" fill="#000000">algorithm</text>
</g>
<!-- Node26&#45;&gt;Node30 -->
<g id="edge45" class="edge">
<title>Node26&#45;&gt;Node30</title>
<path fill="none" stroke="#191970" d="M1816.6719,-129.4966C1838.7731,-120.2746 1871.1387,-106.7695 1895.7134,-96.5153"/>
<polygon fill="#191970" stroke="#191970" points="1897.1647,-99.7022 1905.0457,-92.6212 1894.4691,-93.2421 1897.1647,-99.7022"/>
</g>
<!-- Node31&#45;&gt;Node2 -->
<g id="edge49" class="edge">
<title>Node31&#45;&gt;Node2</title>
<path fill="none" stroke="#191970" d="M308.8329,-72.4814C313.4512,-71.925 318.0455,-71.4215 322.5,-71 750.6429,-30.4893 1264.7498,-20.6297 1471.6078,-18.2493"/>
<polygon fill="#191970" stroke="#191970" points="1471.8594,-21.7468 1481.8196,-18.135 1471.781,-14.7472 1471.8594,-21.7468"/>
</g>
<!-- Node31&#45;&gt;Node11 -->
<g id="edge50" class="edge">
<title>Node31&#45;&gt;Node11</title>
<path fill="none" stroke="#191970" d="M261.3709,-71.3491C274.3813,-61.359 294.0565,-46.2512 309.2587,-34.5781"/>
<polygon fill="#191970" stroke="#191970" points="311.8086,-37.033 317.6085,-28.1667 307.5454,-31.481 311.8086,-37.033"/>
</g>
<!-- Node32&#45;&gt;Node2 -->
<g id="edge52" class="edge">
<title>Node32&#45;&gt;Node2</title>
<path fill="none" stroke="#191970" d="M2127.2738,-251.9293C2153.1589,-243.8619 2184.7961,-230.4 2206.5,-209 2253.1715,-162.9818 2303.0293,-119.0941 2258.5,-71 2238.3811,-49.2704 1842.0846,-29.447 1657.5595,-21.3534"/>
<polygon fill="#191970" stroke="#191970" points="1657.468,-17.8462 1647.325,-20.907 1657.1629,-24.8395 1657.468,-17.8462"/>
</g>
<!-- Node32&#45;&gt;Node27 -->
<g id="edge57" class="edge">
<title>Node32&#45;&gt;Node27</title>
<path fill="none" stroke="#191970" d="M2118.1065,-251.9469C2140.3921,-243.6312 2168.083,-229.8961 2185.5,-209 2211.3288,-178.0119 2220.0689,-130.0858 2223.0143,-102.8307"/>
<polygon fill="#191970" stroke="#191970" points="2226.5025,-103.119 2223.9313,-92.8409 2219.5318,-102.479 2226.5025,-103.119"/>
</g>
<!-- Node33 -->
<g id="node34" class="node">
<title>Node33</title>
<g id="a_node34"><a xlink:href="StoppingCondition_8h.html" target="_top" xlink:title="Defines the various stopping conditions needed by OrbitSolver. ">
<polygon fill="#ffffff" stroke="#000000" points="1696.5,-187.5 1696.5,-208.5 1822.5,-208.5 1822.5,-187.5 1696.5,-187.5"/>
<text text-anchor="middle" x="1759.5" y="-194.9" font-family="Helvetica,sans-Serif" font-size="12.00" fill="#000000">StoppingCondition.h</text>
</a>
</g>
</g>
<!-- Node32&#45;&gt;Node33 -->
<g id="edge53" class="edge">
<title>Node32&#45;&gt;Node33</title>
<path fill="none" stroke="#191970" d="M2029.8856,-251.9934C1973.1065,-240.6552 1882.7171,-222.6053 1822.2698,-210.5345"/>
<polygon fill="#191970" stroke="#191970" points="1822.5837,-207.0282 1812.0919,-208.5021 1821.2129,-213.8927 1822.5837,-207.0282"/>
</g>
<!-- Node33&#45;&gt;Node2 -->
<g id="edge54" class="edge">
<title>Node33&#45;&gt;Node2</title>
<path fill="none" stroke="#191970" d="M1822.5962,-196.0211C1946.1709,-190.0416 2200.8257,-166.1302 2114.5,-71 2084.4267,-37.8594 1806.0127,-24.6074 1657.2444,-19.8574"/>
<polygon fill="#191970" stroke="#191970" points="1657.3041,-16.3577 1647.1996,-19.5433 1657.0853,-23.3543 1657.3041,-16.3577"/>
</g>
<!-- Node33&#45;&gt;Node5 -->
<g id="edge56" class="edge">
<title>Node33&#45;&gt;Node5</title>
<path fill="none" stroke="#191970" d="M1736.4912,-187.354C1719.4886,-178.8687 1696.3004,-165.9561 1678.5,-151 1661.0372,-136.3276 1644.6585,-115.9963 1633.7899,-101.2058"/>
<polygon fill="#191970" stroke="#191970" points="1636.4446,-98.9017 1627.7743,-92.8127 1630.7551,-102.9796 1636.4446,-98.9017"/>
</g>
<!-- Node33&#45;&gt;Node6 -->
<g id="edge55" class="edge">
<title>Node33&#45;&gt;Node6</title>
<path fill="none" stroke="#191970" d="M1696.42,-190.8206C1683.5514,-189.462 1670.0963,-188.118 1657.5,-187 1435.5492,-167.3005 1171.8685,-150.9572 1050.6016,-143.8363"/>
<polygon fill="#191970" stroke="#191970" points="1050.5532,-140.3276 1040.3658,-143.2374 1050.1442,-147.3157 1050.5532,-140.3276"/>
</g>
<!-- Node34&#45;&gt;Node2 -->
<g id="edge59" class="edge">
<title>Node34&#45;&gt;Node2</title>
<path fill="none" stroke="#191970" d="M1854.6011,-251.9372C1977.0383,-229.2309 2224.3519,-169.6802 2134.5,-71 2103.0807,-36.4936 1810.9791,-23.8227 1657.595,-19.5207"/>
<polygon fill="#191970" stroke="#191970" points="1657.3388,-16.0124 1647.2466,-19.2372 1657.147,-23.0098 1657.3388,-16.0124"/>
</g>
<!-- Node34&#45;&gt;Node33 -->
<g id="edge60" class="edge">
<title>Node34&#45;&gt;Node33</title>
<path fill="none" stroke="#191970" d="M1785.381,-251.8491C1780.9651,-242.6613 1774.4688,-229.1447 1769.0895,-217.9524"/>
<polygon fill="#191970" stroke="#191970" points="1772.2167,-216.3792 1764.7302,-208.8823 1765.9076,-219.4115 1772.2167,-216.3792"/>
</g>
<!-- Node35&#45;&gt;Node2 -->
<g id="edge62" class="edge">
<title>Node35&#45;&gt;Node2</title>
<path fill="none" stroke="#191970" d="M1589.569,-251.9903C1563.6457,-243.5426 1529.9786,-229.6404 1505.5,-209 1481.94,-189.1341 1476.3124,-180.5308 1467.5,-151 1457.3328,-116.9291 1449.4218,-101.6166 1467.5,-71 1475.4813,-57.4832 1488.2336,-47.1471 1501.9034,-39.3375"/>
<polygon fill="#191970" stroke="#191970" points="1503.7583,-42.3165 1510.9779,-34.5623 1500.4984,-36.1218 1503.7583,-42.3165"/>
</g>
<!-- Node35&#45;&gt;Node33 -->
<g id="edge63" class="edge">
<title>Node35&#45;&gt;Node33</title>
<path fill="none" stroke="#191970" d="M1649.839,-251.9934C1671.3445,-241.4048 1704.7386,-224.9627 1729.0278,-213.0035"/>
<polygon fill="#191970" stroke="#191970" points="1730.7447,-216.0594 1738.1702,-208.5021 1727.6526,-209.7794 1730.7447,-216.0594"/>
</g>
</g>
</svg>
        <g id="navigator" transform="translate(0 0)" fill="#404254">
                <rect fill="#f2f5e9" fill-opacity="0.5" stroke="#606060" stroke-width=".5" x="0" y="0" width="60" height="60"/>
                <use id="zoomplus" xlink:href="#zoomPlus" x="17" y="9" onmousedown="handleZoom(evt,'in')"/>
                <use id="zoomminus" xlink:href="#zoomMin" x="42" y="9" onmousedown="handleZoom(evt,'out')"/>
                <use id="reset" xlink:href="#resetDef" x="30" y="36" onmousedown="handleReset()"/>
                <g id="arrowUp" xlink:href="#dirArrow" transform="translate(30 24)" onmousedown="handlePan(0,-1)">
                  <use xlink:href="#rim" fill="#404040">
                        <set attributeName="fill" to="#808080" begin="arrowUp.mouseover" end="arrowUp.mouseout"/>
                  </use>
                  <path fill="none" stroke="white" stroke-width="1.5" d="M0,-3.0v7 M-2.5,-0.5L0,-3.0L2.5,-0.5"/>
                </g>
                <g id="arrowRight" xlink:href="#dirArrow" transform="rotate(90) translate(36 -43)" onmousedown="handlePan(1,0)">
                  <use xlink:href="#rim" fill="#404040">
                        <set attributeName="fill" to="#808080" begin="arrowRight.mouseover" end="arrowRight.mouseout"/>
                  </use>
                  <path fill="none" stroke="white" stroke-width="1.5" d="M0,-3.0v7 M-2.5,-0.5L0,-3.0L2.5,-0.5"/>
                </g>
                <g id="arrowDown" xlink:href="#dirArrow" transform="rotate(180) translate(-30 -48)" onmousedown="handlePan(0,1)">
                  <use xlink:href="#rim" fill="#404040">
                        <set attributeName="fill" to="#808080" begin="arrowDown.mouseover" end="arrowDown.mouseout"/>
                  </use>
                  <path fill="none" stroke="white" stroke-width="1.5" d="M0,-3.0v7 M-2.5,-0.5L0,-3.0L2.5,-0.5"/>
                </g>
                <g id="arrowLeft" xlink:href="#dirArrow" transform="rotate(270) translate(-36 17)" onmousedown="handlePan(-1,0)">
                  <use xlink:href="#rim" fill="#404040">
                        <set attributeName="fill" to="#808080" begin="arrowLeft.mouseover" end="arrowLeft.mouseout"/>
                  </use>
                  <path fill="none" stroke="white" stroke-width="1.5" d="M0,-3.0v7 M-2.5,-0.5L0,-3.0L2.5,-0.5"/>
                </g>
        </g>
        <svg viewBox="0 0 15 15" width="100%" height="30px" preserveAspectRatio="xMaxYMin meet">
         <g id="arrow_out" transform="scale(0.3 0.3)">
          <a xlink:href="DissipatingZone_8h__incl_org.svg" target="_base">
           <rect id="button" ry="5" rx="5" y="6" x="6" height="38" width="38"
                fill="#f2f5e9" fill-opacity="0.5" stroke="#606060" stroke-width="1.0"/>
           <path id="arrow"
             d="M 11.500037,31.436501 C 11.940474,20.09759 22.043105,11.32322 32.158766,21.979434 L 37.068811,17.246167 C 37.068811,17.246167 37.088388,32 37.088388,32 L 22.160133,31.978069 C 22.160133,31.978069 26.997745,27.140456 26.997745,27.140456 C 18.528582,18.264221 13.291696,25.230495 11.500037,31.436501 z"
             style="fill:#404040;"/>
          </a>
         </g>
        </svg>
</svg>
