<?xml version="1.0" encoding="UTF-8" standalone="no"?>
<!DOCTYPE svg PUBLIC "-//W3C//DTD SVG 1.1//EN"
 "http://www.w3.org/Graphics/SVG/1.1/DTD/svg11.dtd">
<!-- Generated by graphviz version 2.40.1 (20161225.0304)
 -->
<!-- Title: /Users/kpenev/projects/git/poet/poet_src/Evolve/DissipatingZone.h Pages: 1 -->
<!--zoomable 350 -->
<svg id="main" version="1.1" xmlns="http://www.w3.org/2000/svg" xmlns:xlink="http://www.w3.org/1999/xlink" xml:space="preserve" onload="init(evt)">
<style type="text/css"><![CDATA[
.edge:hover path { stroke: red; }
.edge:hover polygon { stroke: red; fill: red; }
]]></style>
<script type="text/javascript"><![CDATA[
var edges = document.getElementsByTagName('g');
if (edges && edges.length) {
  for (var i=0;i<edges.length;i++) {
    if (edges[i].id.substr(0,4)=='edge') {
      edges[i].setAttribute('class','edge');
    }
  }
}
]]></script>
        <defs>
                <circle id="rim" cx="0" cy="0" r="7"/>
                <circle id="rim2" cx="0" cy="0" r="3.5"/>
                <g id="zoomPlus">
                        <use xlink:href="#rim" fill="#404040">
                                <set attributeName="fill" to="#808080" begin="zoomplus.mouseover" end="zoomplus.mouseout"/>
                        </use>
                        <path d="M-4,0h8M0,-4v8" fill="none" stroke="white" stroke-width="1.5" pointer-events="none"/>
                </g>
                <g id="zoomMin">
                        <use xlink:href="#rim" fill="#404040">
                                <set attributeName="fill" to="#808080" begin="zoomminus.mouseover" end="zoomminus.mouseout"/>
                        </use>
                        <path d="M-4,0h8" fill="none" stroke="white" stroke-width="1.5" pointer-events="none"/>
                </g>
                <g id="dirArrow">
                        <path fill="none" stroke="white" stroke-width="1.5" d="M0,-3.0v7 M-2.5,-0.5L0,-3.0L2.5,-0.5"/>
                </g>
               <g id="resetDef">
                       <use xlink:href="#rim2" fill="#404040">
                               <set attributeName="fill" to="#808080" begin="reset.mouseover" end="reset.mouseout"/>
                       </use>
               </g>
        </defs>

<script type="text/javascript">
var viewWidth = 2299;
var viewHeight = 350;
var sectionId = 'dynsection-0';
</script>
<script xlink:href="svgpan.js"/>
<svg id="graph" class="graph">
<g id="viewport">
<title>/Users/kpenev/projects/git/poet/poet_src/Evolve/DissipatingZone.h</title>
<polygon fill="#ffffff" stroke="transparent" points="-4,4 -4,-346 2294.6973,-346 2294.6973,4 -4,4"/>
<!-- Node0 -->
<g id="node1" class="node">
<title>Node0</title>
<polygon fill="#bfbfbf" stroke="#000000" points="1395.9932,-297.5 1395.9932,-341.5 1543.4014,-341.5 1543.4014,-297.5 1395.9932,-297.5"/>
<text text-anchor="start" x="1403.9932" y="-327.9" font-family="Helvetica,sans-Serif" font-size="12.00" fill="#000000">/Users/kpenev/projects</text>
<text text-anchor="start" x="1403.9932" y="-315.9" font-family="Helvetica,sans-Serif" font-size="12.00" fill="#000000">/git/poet/poet_src/Evolve</text>
<text text-anchor="middle" x="1469.6973" y="-303.9" font-family="Helvetica,sans-Serif" font-size="12.00" fill="#000000">/DissipatingZone.h</text>
</g>
<!-- Node1 -->
<g id="node2" class="node">
<title>Node1</title>
<g id="a_node2"><a xlink:href="ZoneOrientation_8h.html" target="_top" xlink:title="Declares a class for orientations of zones of DissipatingBody objects. ">
<polygon fill="#ffffff" stroke="#000000" points="915.668,-183.5 915.668,-203.5 1027.7266,-203.5 1027.7266,-183.5 915.668,-183.5"/>
<text text-anchor="middle" x="971.6973" y="-189.9" font-family="Helvetica,sans-Serif" font-size="12.00" fill="#000000">ZoneOrientation.h</text>
</a>
</g>
</g>
<!-- Node0&#45;&gt;Node1 -->
<g id="edge1" class="edge">
<title>Node0&#45;&gt;Node1</title>
<path fill="none" stroke="#191970" d="M1395.8599,-307.6952C1335.3962,-297.3749 1247.8772,-280.9378 1172.6973,-261 1113.9831,-245.4289 1047.447,-221.8856 1007.5685,-207.1176"/>
<polygon fill="#191970" stroke="#191970" points="1008.618,-203.7736 998.0253,-203.5622 1006.1742,-210.3332 1008.618,-203.7736"/>
</g>
<!-- Node2 -->
<g id="node3" class="node">
<title>Node2</title>
<g id="a_node3"><a xlink:href="SharedLibraryExportMacros_8h_source.html" target="_top" xlink:title="../Core/SharedLibraryExport\lMacros.h">
<polygon fill="#ffffff" stroke="#000000" points="1464.9961,-.5 1464.9961,-32.5 1630.3984,-32.5 1630.3984,-.5 1464.9961,-.5"/>
<text text-anchor="start" x="1472.9961" y="-18.9" font-family="Helvetica,sans-Serif" font-size="12.00" fill="#000000">../Core/SharedLibraryExport</text>
<text text-anchor="middle" x="1547.6973" y="-6.9" font-family="Helvetica,sans-Serif" font-size="12.00" fill="#000000">Macros.h</text>
</a>
</g>
</g>
<!-- Node0&#45;&gt;Node2 -->
<g id="edge30" class="edge">
<title>Node0&#45;&gt;Node2</title>
<path fill="none" stroke="#191970" d="M1543.6882,-316.7504C1696.6991,-310.4856 2043.102,-293.1474 2156.6973,-261 2220.8621,-242.8414 2290.6973,-260.1848 2290.6973,-193.5 2290.6973,-193.5 2290.6973,-193.5 2290.6973,-136.5 2290.6973,-102.2886 2282.4666,-87.5134 2253.6973,-69 2203.3516,-36.6019 1820.6714,-23.1083 1640.7031,-18.5101"/>
<polygon fill="#191970" stroke="#191970" points="1640.5401,-15.005 1630.4552,-18.2523 1640.364,-22.0028 1640.5401,-15.005"/>
</g>
<!-- Node3 -->
<g id="node4" class="node">
<title>Node3</title>
<g id="a_node4"><a xlink:href="DissipationQuantities_8h.html" target="_top" xlink:title="Declaration of enumerations of dissipation quantities and derivatives. ">
<polygon fill="#ffffff" stroke="#000000" points="1459.332,-126.5 1459.332,-146.5 1598.0625,-146.5 1598.0625,-126.5 1459.332,-126.5"/>
<text text-anchor="middle" x="1528.6973" y="-132.9" font-family="Helvetica,sans-Serif" font-size="12.00" fill="#000000">DissipationQuantities.h</text>
</a>
</g>
</g>
<!-- Node0&#45;&gt;Node3 -->
<g id="edge47" class="edge">
<title>Node0&#45;&gt;Node3</title>
<path fill="none" stroke="#191970" d="M1469.0189,-297.1688C1469.0008,-269.2299 1471.7532,-220.5034 1488.6973,-183 1493.564,-172.2282 1501.7305,-162.0554 1509.4203,-153.9873"/>
<polygon fill="#191970" stroke="#191970" points="1512.163,-156.1973 1516.8113,-146.6765 1507.2404,-151.2206 1512.163,-156.1973"/>
</g>
<!-- Node6 -->
<g id="node7" class="node">
<title>Node6</title>
<g id="a_node7"><a xlink:href="Core_2Common_8h.html" target="_top" xlink:title="Declaration of some general purpose utilities. ">
<polygon fill="#ffffff" stroke="#000000" points="914.6807,-126.5 914.6807,-146.5 1028.7139,-146.5 1028.7139,-126.5 914.6807,-126.5"/>
<text text-anchor="middle" x="971.6973" y="-132.9" font-family="Helvetica,sans-Serif" font-size="12.00" fill="#000000">../Core/Common.h</text>
</a>
</g>
</g>
<!-- Node0&#45;&gt;Node6 -->
<g id="edge64" class="edge">
<title>Node0&#45;&gt;Node6</title>
<path fill="none" stroke="#191970" d="M1409.6268,-297.4259C1305.3611,-259.1114 1093.8776,-181.3976 1008.5885,-150.0564"/>
<polygon fill="#191970" stroke="#191970" points="1009.6593,-146.7211 999.0657,-146.5571 1007.2448,-153.2916 1009.6593,-146.7211"/>
</g>
<!-- Node8 -->
<g id="node9" class="node">
<title>Node8</title>
<polygon fill="#ffffff" stroke="#bfbfbf" points="1345.3574,-69.5 1345.3574,-89.5 1404.0371,-89.5 1404.0371,-69.5 1345.3574,-69.5"/>
<text text-anchor="middle" x="1374.6973" y="-75.9" font-family="Helvetica,sans-Serif" font-size="12.00" fill="#000000">valarray</text>
</g>
<!-- Node0&#45;&gt;Node8 -->
<g id="edge65" class="edge">
<title>Node0&#45;&gt;Node8</title>
<path fill="none" stroke="#191970" d="M1460.9302,-297.3516C1442.4745,-250.7267 1399.8805,-143.1209 1382.3985,-98.9557"/>
<polygon fill="#191970" stroke="#191970" points="1385.6384,-97.6309 1378.7035,-89.621 1379.1297,-100.2073 1385.6384,-97.6309"/>
</g>
<!-- Node18 -->
<g id="node19" class="node">
<title>Node18</title>
<g id="a_node19"><a xlink:href="Error_8h.html" target="_top" xlink:title="Defines the exception hierarchy used by this code. ">
<polygon fill="#ffffff" stroke="#000000" points="113.6885,-69.5 113.6885,-89.5 165.7061,-89.5 165.7061,-69.5 113.6885,-69.5"/>
<text text-anchor="middle" x="139.6973" y="-75.9" font-family="Helvetica,sans-Serif" font-size="12.00" fill="#000000">Error.h</text>
</a>
</g>
</g>
<!-- Node0&#45;&gt;Node18 -->
<g id="edge31" class="edge">
<title>Node0&#45;&gt;Node18</title>
<path fill="none" stroke="#191970" d="M1395.6897,-314.1987C1284.5805,-305.7629 1068.2179,-287.486 885.6973,-261 751.8175,-241.5724 718.739,-233.4316 586.6973,-204 486.85,-181.7444 462.2486,-174.4305 363.6973,-147 296.9032,-128.4087 219.5888,-104.5983 175.4832,-90.7954"/>
<polygon fill="#191970" stroke="#191970" points="176.3907,-87.412 165.8015,-87.7592 174.296,-94.0912 176.3907,-87.412"/>
</g>
<!-- Node24 -->
<g id="node25" class="node">
<title>Node24</title>
<g id="a_node25"><a xlink:href="TidalPotentialTerms_8h.html" target="_top" xlink:title="Declare an interface for evaluating the expansion of the tidal potential. ">
<polygon fill="#ffffff" stroke="#000000" points="1497.2256,-183.5 1497.2256,-203.5 1628.1689,-203.5 1628.1689,-183.5 1497.2256,-183.5"/>
<text text-anchor="middle" x="1562.6973" y="-189.9" font-family="Helvetica,sans-Serif" font-size="12.00" fill="#000000">TidalPotentialTerms.h</text>
</a>
</g>
</g>
<!-- Node0&#45;&gt;Node24 -->
<g id="edge32" class="edge">
<title>Node0&#45;&gt;Node24</title>
<path fill="none" stroke="#191970" d="M1485.2081,-297.409C1496.5504,-281.3681 1512.3887,-259.2011 1526.6973,-240 1533.67,-230.6431 1541.5926,-220.3722 1548.227,-211.8687"/>
<polygon fill="#191970" stroke="#191970" points="1551.1683,-213.7895 1554.5806,-203.7592 1545.6581,-209.4724 1551.1683,-213.7895"/>
</g>
<!-- Node31 -->
<g id="node32" class="node">
<title>Node31</title>
<g id="a_node32"><a xlink:href="SpinOrbitLockInfo_8h.html" target="_top" xlink:title="Defines the SpinOrbitLockInfo class. ">
<polygon fill="#ffffff" stroke="#000000" points="184.001,-69.5 184.001,-89.5 305.3936,-89.5 305.3936,-69.5 184.001,-69.5"/>
<text text-anchor="middle" x="244.6973" y="-75.9" font-family="Helvetica,sans-Serif" font-size="12.00" fill="#000000">SpinOrbitLockInfo.h</text>
</a>
</g>
</g>
<!-- Node0&#45;&gt;Node31 -->
<g id="edge48" class="edge">
<title>Node0&#45;&gt;Node31</title>
<path fill="none" stroke="#191970" d="M1395.7263,-311.758C1224.7021,-292.8647 789.493,-239.0805 435.6973,-147 379.4586,-132.3631 316.2472,-108.5003 278.4932,-93.419"/>
<polygon fill="#191970" stroke="#191970" points="279.5885,-90.087 269.0049,-89.5991 276.9743,-96.5805 279.5885,-90.087"/>
</g>
<!-- Node32 -->
<g id="node33" class="node">
<title>Node32</title>
<g id="a_node33"><a xlink:href="CombinedStoppingCondition_8h.html" target="_top" xlink:title="Declares a class for a stopping condition that combines other stopping conditions. ">
<polygon fill="#ffffff" stroke="#000000" points="1969.3076,-240.5 1969.3076,-260.5 2148.0869,-260.5 2148.0869,-240.5 1969.3076,-240.5"/>
<text text-anchor="middle" x="2058.6973" y="-246.9" font-family="Helvetica,sans-Serif" font-size="12.00" fill="#000000">CombinedStoppingCondition.h</text>
</a>
</g>
</g>
<!-- Node0&#45;&gt;Node32 -->
<g id="edge51" class="edge">
<title>Node0&#45;&gt;Node32</title>
<path fill="none" stroke="#191970" d="M1543.6981,-310.831C1649.9764,-298.3807 1845.8983,-275.4289 1963.0455,-261.7054"/>
<polygon fill="#191970" stroke="#191970" points="1963.5588,-265.1693 1973.0836,-260.5294 1962.7443,-258.2168 1963.5588,-265.1693"/>
</g>
<!-- Node34 -->
<g id="node35" class="node">
<title>Node34</title>
<g id="a_node35"><a xlink:href="BreakLockCondition_8h.html" target="_top" xlink:title="Declares a class for a stopping condition monitoring when a locked zone loses the lock...">
<polygon fill="#ffffff" stroke="#000000" points="1702.9951,-240.5 1702.9951,-260.5 1836.3994,-260.5 1836.3994,-240.5 1702.9951,-240.5"/>
<text text-anchor="middle" x="1769.6973" y="-246.9" font-family="Helvetica,sans-Serif" font-size="12.00" fill="#000000">BreakLockCondition.h</text>
</a>
</g>
</g>
<!-- Node0&#45;&gt;Node34 -->
<g id="edge58" class="edge">
<title>Node0&#45;&gt;Node34</title>
<path fill="none" stroke="#191970" d="M1543.4698,-302.5323C1596.9198,-290.2388 1667.9571,-273.9002 1716.063,-262.8359"/>
<polygon fill="#191970" stroke="#191970" points="1717.0046,-266.2108 1725.9656,-260.5583 1715.4355,-259.3889 1717.0046,-266.2108"/>
</g>
<!-- Node35 -->
<g id="node36" class="node">
<title>Node35</title>
<g id="a_node36"><a xlink:href="SynchronizedCondition_8h.html" target="_top" xlink:title="Declares a stopping condition monitoring spin&#45;orbit synchronization. ">
<polygon fill="#ffffff" stroke="#000000" points="1535.9883,-240.5 1535.9883,-260.5 1685.4063,-260.5 1685.4063,-240.5 1535.9883,-240.5"/>
<text text-anchor="middle" x="1610.6973" y="-246.9" font-family="Helvetica,sans-Serif" font-size="12.00" fill="#000000">SynchronizedCondition.h</text>
</a>
</g>
</g>
<!-- Node0&#45;&gt;Node35 -->
<g id="edge61" class="edge">
<title>Node0&#45;&gt;Node35</title>
<path fill="none" stroke="#191970" d="M1514.6982,-297.4783C1536.3474,-286.884 1561.7042,-274.4753 1580.9193,-265.0722"/>
<polygon fill="#191970" stroke="#191970" points="1582.6413,-268.1262 1590.085,-260.5869 1579.5644,-261.8387 1582.6413,-268.1262"/>
</g>
<!-- Node1&#45;&gt;Node2 -->
<g id="edge2" class="edge">
<title>Node1&#45;&gt;Node2</title>
<path fill="none" stroke="#191970" d="M915.4836,-190.5043C755.8115,-180.9993 315.7734,-147.4007 390.6973,-69 427.2584,-30.7423 1186.2707,-19.9026 1454.6697,-17.2593"/>
<polygon fill="#191970" stroke="#191970" points="1454.8119,-20.7582 1464.7775,-17.1614 1454.744,-13.7585 1454.8119,-20.7582"/>
</g>
<!-- Node1&#45;&gt;Node3 -->
<g id="edge3" class="edge">
<title>Node1&#45;&gt;Node3</title>
<path fill="none" stroke="#191970" d="M1027.9125,-187.7473C1127.3895,-177.5674 1334.6865,-156.3539 1448.9108,-144.6649"/>
<polygon fill="#191970" stroke="#191970" points="1449.4015,-148.133 1458.9932,-143.6331 1448.6888,-141.1694 1449.4015,-148.133"/>
</g>
<!-- Node1&#45;&gt;Node6 -->
<g id="edge7" class="edge">
<title>Node1&#45;&gt;Node6</title>
<path fill="none" stroke="#191970" d="M971.6973,-183.3095C971.6973,-175.9335 971.6973,-165.72 971.6973,-156.715"/>
<polygon fill="#191970" stroke="#191970" points="975.1974,-156.6022 971.6973,-146.6022 968.1974,-156.6023 975.1974,-156.6022"/>
</g>
<!-- Node22 -->
<g id="node23" class="node">
<title>Node22</title>
<g id="a_node23"><a xlink:href="IncludeEigen_8h_source.html" target="_top" xlink:title="IncludeEigen.h">
<polygon fill="#ffffff" stroke="#000000" points="0,-69.5 0,-89.5 95.3945,-89.5 95.3945,-69.5 0,-69.5"/>
<text text-anchor="middle" x="47.6973" y="-75.9" font-family="Helvetica,sans-Serif" font-size="12.00" fill="#000000">IncludeEigen.h</text>
</a>
</g>
</g>
<!-- Node1&#45;&gt;Node22 -->
<g id="edge29" class="edge">
<title>Node1&#45;&gt;Node22</title>
<path fill="none" stroke="#191970" d="M915.5098,-192.7395C802.1554,-190.4923 538.2577,-181.6487 319.6973,-147 237.3078,-133.9387 143.2739,-108.0963 90.1472,-92.451"/>
<polygon fill="#191970" stroke="#191970" points="90.9816,-89.0478 80.3991,-89.5592 88.9908,-95.7588 90.9816,-89.0478"/>
</g>
<!-- Node3&#45;&gt;Node2 -->
<g id="edge4" class="edge">
<title>Node3&#45;&gt;Node2</title>
<path fill="none" stroke="#191970" d="M1530.3172,-126.2689C1533.2198,-107.9369 1539.3909,-68.9614 1543.5427,-42.7396"/>
<polygon fill="#191970" stroke="#191970" points="1547.0229,-43.1393 1545.1299,-32.7149 1540.109,-42.0445 1547.0229,-43.1393"/>
</g>
<!-- Node4 -->
<g id="node5" class="node">
<title>Node4</title>
<polygon fill="#ffffff" stroke="#bfbfbf" points="1460.0234,-69.5 1460.0234,-89.5 1519.3711,-89.5 1519.3711,-69.5 1460.0234,-69.5"/>
<text text-anchor="middle" x="1489.6973" y="-75.9" font-family="Helvetica,sans-Serif" font-size="12.00" fill="#000000">ostream</text>
</g>
<!-- Node3&#45;&gt;Node4 -->
<g id="edge5" class="edge">
<title>Node3&#45;&gt;Node4</title>
<path fill="none" stroke="#191970" d="M1521.7248,-126.3095C1516.3453,-118.4472 1508.7599,-107.3608 1502.3214,-97.9507"/>
<polygon fill="#191970" stroke="#191970" points="1505.1448,-95.8789 1496.6093,-89.6022 1499.3676,-99.8317 1505.1448,-95.8789"/>
</g>
<!-- Node5 -->
<g id="node6" class="node">
<title>Node5</title>
<polygon fill="#ffffff" stroke="#bfbfbf" points="1575.3584,-69.5 1575.3584,-89.5 1630.0361,-89.5 1630.0361,-69.5 1575.3584,-69.5"/>
<text text-anchor="middle" x="1602.6973" y="-75.9" font-family="Helvetica,sans-Serif" font-size="12.00" fill="#000000">cassert</text>
</g>
<!-- Node3&#45;&gt;Node5 -->
<g id="edge6" class="edge">
<title>Node3&#45;&gt;Node5</title>
<path fill="none" stroke="#191970" d="M1541.927,-126.3095C1552.8709,-117.8798 1568.6262,-105.7439 1581.3522,-95.9415"/>
<polygon fill="#191970" stroke="#191970" points="1583.7956,-98.4773 1589.5821,-89.6022 1579.524,-92.9318 1583.7956,-98.4773"/>
</g>
<!-- Node6&#45;&gt;Node2 -->
<g id="edge20" class="edge">
<title>Node6&#45;&gt;Node2</title>
<path fill="none" stroke="#191970" d="M1028.7731,-130.9015C1108.7635,-122.626 1249.8952,-106.3383 1298.6973,-90 1316.9953,-83.8741 1318.7374,-76.0562 1336.6973,-69 1374.4324,-54.1742 1417.6437,-42.5477 1455.0943,-34.0456"/>
<polygon fill="#191970" stroke="#191970" points="1455.9888,-37.4322 1464.9882,-31.8411 1454.4664,-30.5998 1455.9888,-37.4322"/>
</g>
<!-- Node6&#45;&gt;Node5 -->
<g id="edge19" class="edge">
<title>Node6&#45;&gt;Node5</title>
<path fill="none" stroke="#191970" d="M1028.7342,-132.8286C1129.7029,-126.0862 1346.4474,-110.52 1528.6973,-90 1540.6649,-88.6525 1553.6815,-86.902 1565.4135,-85.2177"/>
<polygon fill="#191970" stroke="#191970" points="1565.9459,-88.6772 1575.334,-83.7665 1564.9326,-81.7509 1565.9459,-88.6772"/>
</g>
<!-- Node7 -->
<g id="node8" class="node">
<title>Node7</title>
<polygon fill="#ffffff" stroke="#bfbfbf" points="399.3643,-69.5 399.3643,-89.5 430.0303,-89.5 430.0303,-69.5 399.3643,-69.5"/>
<text text-anchor="middle" x="414.6973" y="-75.9" font-family="Helvetica,sans-Serif" font-size="12.00" fill="#000000">list</text>
</g>
<!-- Node6&#45;&gt;Node7 -->
<g id="edge8" class="edge">
<title>Node6&#45;&gt;Node7</title>
<path fill="none" stroke="#191970" d="M914.3928,-133.8541C799.6923,-128.186 544.6089,-113.6192 440.1149,-89.5787"/>
<polygon fill="#191970" stroke="#191970" points="440.7335,-86.1268 430.1878,-87.1455 439.0671,-92.9255 440.7335,-86.1268"/>
</g>
<!-- Node6&#45;&gt;Node8 -->
<g id="edge9" class="edge">
<title>Node6&#45;&gt;Node8</title>
<path fill="none" stroke="#191970" d="M1028.7423,-131.1083C1099.9867,-123.9215 1225.4432,-109.7719 1331.6973,-90 1332.7927,-89.7962 1333.9021,-89.5817 1335.0201,-89.3585"/>
<polygon fill="#191970" stroke="#191970" points="1336.1466,-92.696 1345.1825,-87.164 1334.669,-85.8537 1336.1466,-92.696"/>
</g>
<!-- Node9 -->
<g id="node10" class="node">
<title>Node9</title>
<polygon fill="#ffffff" stroke="#bfbfbf" points="448.0332,-69.5 448.0332,-89.5 491.3613,-89.5 491.3613,-69.5 448.0332,-69.5"/>
<text text-anchor="middle" x="469.6973" y="-75.9" font-family="Helvetica,sans-Serif" font-size="12.00" fill="#000000">limits</text>
</g>
<!-- Node6&#45;&gt;Node9 -->
<g id="edge10" class="edge">
<title>Node6&#45;&gt;Node9</title>
<path fill="none" stroke="#191970" d="M914.338,-135.2429C826.7272,-132.3638 654.4398,-122.9245 501.521,-90.0013"/>
<polygon fill="#191970" stroke="#191970" points="501.9953,-86.5222 491.4776,-87.7986 500.4956,-93.3597 501.9953,-86.5222"/>
</g>
<!-- Node10 -->
<g id="node11" class="node">
<title>Node10</title>
<polygon fill="#ffffff" stroke="#bfbfbf" points="1648.3604,-69.5 1648.3604,-89.5 1707.0342,-89.5 1707.0342,-69.5 1648.3604,-69.5"/>
<text text-anchor="middle" x="1677.6973" y="-75.9" font-family="Helvetica,sans-Serif" font-size="12.00" fill="#000000">sstream</text>
</g>
<!-- Node6&#45;&gt;Node10 -->
<g id="edge11" class="edge">
<title>Node6&#45;&gt;Node10</title>
<path fill="none" stroke="#191970" d="M1028.8804,-133.9378C1164.6069,-127.6325 1504.17,-110.488 1637.9851,-89.7531"/>
<polygon fill="#191970" stroke="#191970" points="1638.7071,-93.1818 1648.0175,-88.1254 1637.586,-86.2722 1638.7071,-93.1818"/>
</g>
<!-- Node11 -->
<g id="node12" class="node">
<title>Node11</title>
<polygon fill="#ffffff" stroke="#bfbfbf" points="297.6904,-6.5 297.6904,-26.5 359.7041,-26.5 359.7041,-6.5 297.6904,-6.5"/>
<text text-anchor="middle" x="328.6973" y="-12.9" font-family="Helvetica,sans-Serif" font-size="12.00" fill="#000000">iostream</text>
</g>
<!-- Node6&#45;&gt;Node11 -->
<g id="edge12" class="edge">
<title>Node6&#45;&gt;Node11</title>
<path fill="none" stroke="#191970" d="M914.4438,-134.4154C777.0275,-129.0585 436.5076,-113.557 390.6973,-90 367.2729,-77.9545 349.1712,-52.8369 338.7293,-35.3364"/>
<polygon fill="#191970" stroke="#191970" points="341.7107,-33.4986 333.7311,-26.529 335.6227,-36.9536 341.7107,-33.4986"/>
</g>
<!-- Node12 -->
<g id="node13" class="node">
<title>Node12</title>
<polygon fill="#ffffff" stroke="#bfbfbf" points="509.0234,-69.5 509.0234,-89.5 562.3711,-89.5 562.3711,-69.5 509.0234,-69.5"/>
<text text-anchor="middle" x="535.6973" y="-75.9" font-family="Helvetica,sans-Serif" font-size="12.00" fill="#000000">iterator</text>
</g>
<!-- Node6&#45;&gt;Node12 -->
<g id="edge13" class="edge">
<title>Node6&#45;&gt;Node12</title>
<path fill="none" stroke="#191970" d="M914.5879,-132.8924C838.5241,-127.418 699.7407,-115.0979 572.6132,-89.9007"/>
<polygon fill="#191970" stroke="#191970" points="573.1966,-86.448 562.7025,-87.9051 571.8148,-93.3103 573.1966,-86.448"/>
</g>
<!-- Node13 -->
<g id="node14" class="node">
<title>Node13</title>
<polygon fill="#ffffff" stroke="#bfbfbf" points="580.3389,-69.5 580.3389,-89.5 679.0557,-89.5 679.0557,-69.5 580.3389,-69.5"/>
<text text-anchor="middle" x="629.6973" y="-75.9" font-family="Helvetica,sans-Serif" font-size="12.00" fill="#000000">gsl/gsl_vector.h</text>
</g>
<!-- Node6&#45;&gt;Node13 -->
<g id="edge14" class="edge">
<title>Node6&#45;&gt;Node13</title>
<path fill="none" stroke="#191970" d="M914.5335,-127.4296C859.3334,-118.6054 773.1055,-104.6497 689.3024,-90.2587"/>
<polygon fill="#191970" stroke="#191970" points="689.8105,-86.7948 679.3616,-88.5476 688.6229,-93.6933 689.8105,-86.7948"/>
</g>
<!-- Node14 -->
<g id="node15" class="node">
<title>Node14</title>
<polygon fill="#ffffff" stroke="#bfbfbf" points="697.0166,-69.5 697.0166,-89.5 796.3779,-89.5 796.3779,-69.5 697.0166,-69.5"/>
<text text-anchor="middle" x="746.6973" y="-75.9" font-family="Helvetica,sans-Serif" font-size="12.00" fill="#000000">gsl/gsl_matrix.h</text>
</g>
<!-- Node6&#45;&gt;Node14 -->
<g id="edge15" class="edge">
<title>Node6&#45;&gt;Node14</title>
<path fill="none" stroke="#191970" d="M931.9897,-126.4408C894.1114,-116.8449 836.9392,-102.3613 796.1271,-92.0222"/>
<polygon fill="#191970" stroke="#191970" points="796.939,-88.6174 786.3856,-89.5544 795.2199,-95.403 796.939,-88.6174"/>
</g>
<!-- Node15 -->
<g id="node16" class="node">
<title>Node15</title>
<polygon fill="#ffffff" stroke="#bfbfbf" points="814.3398,-69.5 814.3398,-89.5 909.0547,-89.5 909.0547,-69.5 814.3398,-69.5"/>
<text text-anchor="middle" x="861.6973" y="-75.9" font-family="Helvetica,sans-Serif" font-size="12.00" fill="#000000">gsl/gsl_linalg.h</text>
</g>
<!-- Node6&#45;&gt;Node15 -->
<g id="edge16" class="edge">
<title>Node6&#45;&gt;Node15</title>
<path fill="none" stroke="#191970" d="M952.2847,-126.4408C935.1114,-117.5419 909.8259,-104.4394 890.3303,-94.3371"/>
<polygon fill="#191970" stroke="#191970" points="891.7749,-91.1437 881.2858,-89.6504 888.5543,-97.3589 891.7749,-91.1437"/>
</g>
<!-- Node16 -->
<g id="node17" class="node">
<title>Node16</title>
<polygon fill="#ffffff" stroke="#bfbfbf" points="927.3428,-69.5 927.3428,-89.5 1016.0518,-89.5 1016.0518,-69.5 927.3428,-69.5"/>
<text text-anchor="middle" x="971.6973" y="-75.9" font-family="Helvetica,sans-Serif" font-size="12.00" fill="#000000">gsl/gsl_blas.h</text>
</g>
<!-- Node6&#45;&gt;Node16 -->
<g id="edge17" class="edge">
<title>Node6&#45;&gt;Node16</title>
<path fill="none" stroke="#191970" d="M971.6973,-126.3095C971.6973,-118.9335 971.6973,-108.72 971.6973,-99.715"/>
<polygon fill="#191970" stroke="#191970" points="975.1974,-99.6022 971.6973,-89.6022 968.1974,-99.6023 975.1974,-99.6022"/>
</g>
<!-- Node17 -->
<g id="node18" class="node">
<title>Node17</title>
<polygon fill="#ffffff" stroke="#bfbfbf" points="1033.7852,-69.5 1033.7852,-89.5 1121.6094,-89.5 1121.6094,-69.5 1033.7852,-69.5"/>
<text text-anchor="middle" x="1077.6973" y="-75.9" font-family="Helvetica,sans-Serif" font-size="12.00" fill="#000000">gsl/gsl_poly.h</text>
</g>
<!-- Node6&#45;&gt;Node17 -->
<g id="edge18" class="edge">
<title>Node6&#45;&gt;Node17</title>
<path fill="none" stroke="#191970" d="M990.6479,-126.3095C1007.1534,-117.434 1031.2991,-104.4499 1049.9759,-94.4068"/>
<polygon fill="#191970" stroke="#191970" points="1051.7609,-97.4209 1058.9107,-89.6022 1048.4456,-91.2557 1051.7609,-97.4209"/>
</g>
<!-- Node6&#45;&gt;Node18 -->
<g id="edge21" class="edge">
<title>Node6&#45;&gt;Node18</title>
<path fill="none" stroke="#191970" d="M914.5433,-134.8963C760.0953,-130.2929 335.8333,-115.7952 176.0485,-89.8082"/>
<polygon fill="#191970" stroke="#191970" points="176.358,-86.3105 165.9119,-88.0799 175.1814,-93.2109 176.358,-86.3105"/>
</g>
<!-- Node21 -->
<g id="node22" class="node">
<title>Node21</title>
<g id="a_node22"><a xlink:href="AstronomicalConstants_8h.html" target="_top" xlink:title="Defines various astronomical constants. ">
<polygon fill="#ffffff" stroke="#000000" points="1140,-69.5 1140,-89.5 1289.3945,-89.5 1289.3945,-69.5 1140,-69.5"/>
<text text-anchor="middle" x="1214.6973" y="-75.9" font-family="Helvetica,sans-Serif" font-size="12.00" fill="#000000">AstronomicalConstants.h</text>
</a>
</g>
</g>
<!-- Node6&#45;&gt;Node21 -->
<g id="edge26" class="edge">
<title>Node6&#45;&gt;Node21</title>
<path fill="none" stroke="#191970" d="M1014.5814,-126.4408C1055.6629,-116.8043 1117.7585,-102.2387 1161.8712,-91.8913"/>
<polygon fill="#191970" stroke="#191970" points="1162.8974,-95.2457 1171.8338,-89.5544 1161.2987,-88.4306 1162.8974,-95.2457"/>
</g>
<!-- Node6&#45;&gt;Node22 -->
<g id="edge27" class="edge">
<title>Node6&#45;&gt;Node22</title>
<path fill="none" stroke="#191970" d="M914.6742,-135.9733C777.1818,-134.1593 416.4313,-126.1603 105.6302,-89.9604"/>
<polygon fill="#191970" stroke="#191970" points="105.864,-86.4639 95.5234,-88.7712 105.0459,-93.4159 105.864,-86.4639"/>
</g>
<!-- Node18&#45;&gt;Node2 -->
<g id="edge22" class="edge">
<title>Node18&#45;&gt;Node2</title>
<path fill="none" stroke="#191970" d="M165.9019,-70.8619C168.8444,-70.1246 171.8186,-69.4789 174.6973,-69 421.8292,-27.8903 1187.7564,-18.8975 1454.7556,-16.9937"/>
<polygon fill="#191970" stroke="#191970" points="1454.8302,-20.4934 1464.8056,-16.9237 1454.7814,-13.4935 1454.8302,-20.4934"/>
</g>
<!-- Node18&#45;&gt;Node11 -->
<g id="edge23" class="edge">
<title>Node18&#45;&gt;Node11</title>
<path fill="none" stroke="#191970" d="M165.9769,-70.7401C197.7775,-60.1399 251.6476,-42.1832 288.6344,-29.8543"/>
<polygon fill="#191970" stroke="#191970" points="290.2064,-33.0197 298.5864,-26.5369 287.9928,-26.3789 290.2064,-33.0197"/>
</g>
<!-- Node19 -->
<g id="node20" class="node">
<title>Node19</title>
<polygon fill="#ffffff" stroke="#bfbfbf" points="106.0127,-6.5 106.0127,-26.5 173.3818,-26.5 173.3818,-6.5 106.0127,-6.5"/>
<text text-anchor="middle" x="139.6973" y="-12.9" font-family="Helvetica,sans-Serif" font-size="12.00" fill="#000000">exception</text>
</g>
<!-- Node18&#45;&gt;Node19 -->
<g id="edge24" class="edge">
<title>Node18&#45;&gt;Node19</title>
<path fill="none" stroke="#191970" d="M139.6973,-69.378C139.6973,-60.7041 139.6973,-47.9355 139.6973,-37.1186"/>
<polygon fill="#191970" stroke="#191970" points="143.1974,-36.8062 139.6973,-26.8062 136.1974,-36.8062 143.1974,-36.8062"/>
</g>
<!-- Node20 -->
<g id="node21" class="node">
<title>Node20</title>
<polygon fill="#ffffff" stroke="#bfbfbf" points="191.0254,-6.5 191.0254,-26.5 236.3691,-26.5 236.3691,-6.5 191.0254,-6.5"/>
<text text-anchor="middle" x="213.6973" y="-12.9" font-family="Helvetica,sans-Serif" font-size="12.00" fill="#000000">string</text>
</g>
<!-- Node18&#45;&gt;Node20 -->
<g id="edge25" class="edge">
<title>Node18&#45;&gt;Node20</title>
<path fill="none" stroke="#191970" d="M151.5866,-69.378C162.9547,-59.6997 180.3108,-44.9236 193.7889,-33.449"/>
<polygon fill="#191970" stroke="#191970" points="196.2461,-35.9537 201.5916,-26.8062 191.7083,-30.6237 196.2461,-35.9537"/>
</g>
<!-- Node23 -->
<g id="node24" class="node">
<title>Node23</title>
<polygon fill="#ffffff" stroke="#bfbfbf" points="3.3408,-6.5 3.3408,-26.5 88.0537,-26.5 88.0537,-6.5 3.3408,-6.5"/>
<text text-anchor="middle" x="45.6973" y="-12.9" font-family="Helvetica,sans-Serif" font-size="12.00" fill="#000000">Eigen/Dense</text>
</g>
<!-- Node22&#45;&gt;Node23 -->
<g id="edge28" class="edge">
<title>Node22&#45;&gt;Node23</title>
<path fill="none" stroke="#191970" d="M47.3759,-69.378C47.1006,-60.7041 46.6952,-47.9355 46.3518,-37.1186"/>
<polygon fill="#191970" stroke="#191970" points="49.8401,-36.6901 46.0244,-26.8062 42.8436,-36.9123 49.8401,-36.6901"/>
</g>
<!-- Node24&#45;&gt;Node6 -->
<g id="edge46" class="edge">
<title>Node24&#45;&gt;Node6</title>
<path fill="none" stroke="#191970" d="M1497.1918,-187.1822C1384.0004,-176.2653 1152.9812,-153.9842 1038.7356,-142.9656"/>
<polygon fill="#191970" stroke="#191970" points="1039.0068,-139.4756 1028.717,-141.9994 1038.3348,-146.4433 1039.0068,-139.4756"/>
</g>
<!-- Node24&#45;&gt;Node8 -->
<g id="edge34" class="edge">
<title>Node24&#45;&gt;Node8</title>
<path fill="none" stroke="#191970" d="M1530.9182,-183.4949C1507.7183,-175.4478 1476.029,-162.8774 1450.6973,-147 1428.24,-132.9243 1405.975,-112.1319 1391.406,-97.3484"/>
<polygon fill="#191970" stroke="#191970" points="1393.6152,-94.5976 1384.1515,-89.8343 1388.5792,-99.4596 1393.6152,-94.5976"/>
</g>
<!-- Node25 -->
<g id="node26" class="node">
<title>Node25</title>
<polygon fill="#ffffff" stroke="#bfbfbf" points="2034.3584,-69.5 2034.3584,-89.5 2083.0361,-89.5 2083.0361,-69.5 2034.3584,-69.5"/>
<text text-anchor="middle" x="2058.6973" y="-75.9" font-family="Helvetica,sans-Serif" font-size="12.00" fill="#000000">cmath</text>
</g>
<!-- Node24&#45;&gt;Node25 -->
<g id="edge33" class="edge">
<title>Node24&#45;&gt;Node25</title>
<path fill="none" stroke="#191970" d="M1628.4287,-185.7922C1708.133,-176.1341 1837.646,-159.3525 1884.6973,-147 1936.4684,-133.4084 1993.8778,-109.2511 2028.0916,-93.8234"/>
<polygon fill="#191970" stroke="#191970" points="2029.8691,-96.8597 2037.5178,-89.5284 2026.9667,-90.4898 2029.8691,-96.8597"/>
</g>
<!-- Node26 -->
<g id="node27" class="node">
<title>Node26</title>
<g id="a_node27"><a xlink:href="EccentricityExpansionCoefficients_8h.html" target="_top" xlink:title="Declares a class which provides the [ &#160;coefficients]{InclinationEccentricity_pms1}. ">
<polygon fill="#ffffff" stroke="#000000" points="1669.6523,-126.5 1669.6523,-146.5 1875.7422,-146.5 1875.7422,-126.5 1669.6523,-126.5"/>
<text text-anchor="middle" x="1772.6973" y="-132.9" font-family="Helvetica,sans-Serif" font-size="12.00" fill="#000000">EccentricityExpansionCoefficients.h</text>
</a>
</g>
</g>
<!-- Node24&#45;&gt;Node26 -->
<g id="edge35" class="edge">
<title>Node24&#45;&gt;Node26</title>
<path fill="none" stroke="#191970" d="M1599.7576,-183.4408C1634.8865,-173.9058 1687.7953,-159.5448 1725.8361,-149.2195"/>
<polygon fill="#191970" stroke="#191970" points="1726.9208,-152.5518 1735.6548,-146.5544 1725.0871,-145.7962 1726.9208,-152.5518"/>
</g>
<!-- Node26&#45;&gt;Node2 -->
<g id="edge36" class="edge">
<title>Node26&#45;&gt;Node2</title>
<path fill="none" stroke="#191970" d="M1771.9694,-126.1865C1770.3577,-111.3568 1765.1944,-84.1341 1748.6973,-69 1732.3279,-53.9831 1685.1724,-41.2622 1640.6487,-32.1047"/>
<polygon fill="#191970" stroke="#191970" points="1641.0996,-28.6255 1630.6063,-30.0887 1639.7218,-35.4885 1641.0996,-28.6255"/>
</g>
<!-- Node26&#45;&gt;Node5 -->
<g id="edge44" class="edge">
<title>Node26&#45;&gt;Node5</title>
<path fill="none" stroke="#191970" d="M1742.696,-126.4408C1713.9683,-116.8085 1670.5522,-102.2514 1639.694,-91.9048"/>
<polygon fill="#191970" stroke="#191970" points="1640.7448,-88.5657 1630.1509,-88.705 1638.5195,-95.2025 1640.7448,-88.5657"/>
</g>
<!-- Node26&#45;&gt;Node10 -->
<g id="edge43" class="edge">
<title>Node26&#45;&gt;Node10</title>
<path fill="none" stroke="#191970" d="M1755.7132,-126.3095C1741.1232,-117.5556 1719.8721,-104.8049 1703.2325,-94.8211"/>
<polygon fill="#191970" stroke="#191970" points="1704.91,-91.746 1694.5343,-89.6022 1701.3085,-97.7485 1704.91,-91.746"/>
</g>
<!-- Node26&#45;&gt;Node11 -->
<g id="edge42" class="edge">
<title>Node26&#45;&gt;Node11</title>
<path fill="none" stroke="#191970" d="M1767.7268,-126.4206C1759.4125,-110.8283 1741.0643,-81.3692 1715.6973,-69 1653.7332,-38.7858 593.9912,-20.6343 370.0484,-17.126"/>
<polygon fill="#191970" stroke="#191970" points="370.0768,-13.6261 360.0235,-16.97 369.9678,-20.6253 370.0768,-13.6261"/>
</g>
<!-- Node26&#45;&gt;Node18 -->
<g id="edge37" class="edge">
<title>Node26&#45;&gt;Node18</title>
<path fill="none" stroke="#191970" d="M1669.5682,-129.3658C1648.7616,-128.0985 1627.0357,-126.8986 1606.6973,-126 1291.9456,-112.0942 505.3885,-139.6044 175.9855,-89.7506"/>
<polygon fill="#191970" stroke="#191970" points="176.3158,-86.2599 165.8957,-88.1761 175.2365,-93.1762 176.3158,-86.2599"/>
</g>
<!-- Node26&#45;&gt;Node25 -->
<g id="edge41" class="edge">
<title>Node26&#45;&gt;Node25</title>
<path fill="none" stroke="#191970" d="M1840.0436,-126.4978C1888.9028,-118.6961 1956.7007,-106.7509 2024.3152,-90.1313"/>
<polygon fill="#191970" stroke="#191970" points="2025.4311,-93.4603 2034.2875,-87.6452 2023.7378,-86.6682 2025.4311,-93.4603"/>
</g>
<!-- Node27 -->
<g id="node28" class="node">
<title>Node27</title>
<polygon fill="#ffffff" stroke="#bfbfbf" points="2176.3584,-69.5 2176.3584,-89.5 2225.0361,-89.5 2225.0361,-69.5 2176.3584,-69.5"/>
<text text-anchor="middle" x="2200.6973" y="-75.9" font-family="Helvetica,sans-Serif" font-size="12.00" fill="#000000">vector</text>
</g>
<!-- Node26&#45;&gt;Node27 -->
<g id="edge38" class="edge">
<title>Node26&#45;&gt;Node27</title>
<path fill="none" stroke="#191970" d="M1848.2299,-126.4408C1941.6256,-114.0025 2096.6857,-93.352 2165.704,-84.1603"/>
<polygon fill="#191970" stroke="#191970" points="2166.5692,-87.5761 2176.0196,-82.7865 2165.6451,-80.6373 2166.5692,-87.5761"/>
</g>
<!-- Node28 -->
<g id="node29" class="node">
<title>Node28</title>
<polygon fill="#ffffff" stroke="#bfbfbf" points="1960.6934,-69.5 1960.6934,-89.5 2016.7012,-89.5 2016.7012,-69.5 1960.6934,-69.5"/>
<text text-anchor="middle" x="1988.6973" y="-75.9" font-family="Helvetica,sans-Serif" font-size="12.00" fill="#000000">fstream</text>
</g>
<!-- Node26&#45;&gt;Node28 -->
<g id="edge39" class="edge">
<title>Node26&#45;&gt;Node28</title>
<path fill="none" stroke="#191970" d="M1812.5778,-126.4119C1846.7696,-117.702 1897.5909,-104.6128 1950.528,-90.2808"/>
<polygon fill="#191970" stroke="#191970" points="1951.7003,-93.5893 1960.4336,-87.591 1949.8659,-86.8339 1951.7003,-93.5893"/>
</g>
<!-- Node29 -->
<g id="node30" class="node">
<title>Node29</title>
<polygon fill="#ffffff" stroke="#bfbfbf" points="1800.6855,-69.5 1800.6855,-89.5 1858.709,-89.5 1858.709,-69.5 1800.6855,-69.5"/>
<text text-anchor="middle" x="1829.6973" y="-75.9" font-family="Helvetica,sans-Serif" font-size="12.00" fill="#000000">iomanip</text>
</g>
<!-- Node26&#45;&gt;Node29 -->
<g id="edge40" class="edge">
<title>Node26&#45;&gt;Node29</title>
<path fill="none" stroke="#191970" d="M1782.8877,-126.3095C1791.0743,-118.1229 1802.7563,-106.441 1812.4018,-96.7955"/>
<polygon fill="#191970" stroke="#191970" points="1814.9988,-99.1482 1819.595,-89.6022 1810.0491,-94.1984 1814.9988,-99.1482"/>
</g>
<!-- Node30 -->
<g id="node31" class="node">
<title>Node30</title>
<polygon fill="#ffffff" stroke="#bfbfbf" points="1877.0205,-69.5 1877.0205,-89.5 1942.374,-89.5 1942.374,-69.5 1877.0205,-69.5"/>
<text text-anchor="middle" x="1909.6973" y="-75.9" font-family="Helvetica,sans-Serif" font-size="12.00" fill="#000000">algorithm</text>
</g>
<!-- Node26&#45;&gt;Node30 -->
<g id="edge45" class="edge">
<title>Node26&#45;&gt;Node30</title>
<path fill="none" stroke="#191970" d="M1796.8748,-126.4408C1818.8466,-117.2992 1851.4805,-103.7216 1876.0063,-93.5174"/>
<polygon fill="#191970" stroke="#191970" points="1877.4124,-96.7233 1885.3007,-89.6504 1874.7234,-90.2604 1877.4124,-96.7233"/>
</g>
<!-- Node31&#45;&gt;Node2 -->
<g id="edge49" class="edge">
<title>Node31&#45;&gt;Node2</title>
<path fill="none" stroke="#191970" d="M305.629,-70.4692C310.383,-69.9176 315.1145,-69.4178 319.6973,-69 742.3594,-30.4691 1249.5021,-20.1198 1454.7327,-17.4198"/>
<polygon fill="#191970" stroke="#191970" points="1454.9125,-20.9179 1464.8667,-17.2895 1454.8225,-13.9185 1454.9125,-20.9179"/>
</g>
<!-- Node31&#45;&gt;Node11 -->
<g id="edge50" class="edge">
<title>Node31&#45;&gt;Node11</title>
<path fill="none" stroke="#191970" d="M258.1933,-69.378C271.4194,-59.4584 291.7857,-44.1837 307.2345,-32.597"/>
<polygon fill="#191970" stroke="#191970" points="309.3347,-35.397 315.2347,-26.5969 305.1347,-29.797 309.3347,-35.397"/>
</g>
<!-- Node32&#45;&gt;Node2 -->
<g id="edge52" class="edge">
<title>Node32&#45;&gt;Node2</title>
<path fill="none" stroke="#191970" d="M2112.7538,-240.4476C2136.9107,-233.6204 2164.254,-222.3619 2183.6973,-204 2230.2152,-160.0693 2277.1797,-115.9373 2233.6973,-69 2213.8425,-47.5677 1823.5492,-28.2265 1640.7127,-20.3014"/>
<polygon fill="#191970" stroke="#191970" points="1640.7107,-16.7982 1630.5692,-19.8642 1640.4092,-23.7917 1640.7107,-16.7982"/>
</g>
<!-- Node32&#45;&gt;Node27 -->
<g id="edge57" class="edge">
<title>Node32&#45;&gt;Node27</title>
<path fill="none" stroke="#191970" d="M2101.224,-240.4841C2122.3589,-233.4967 2146.7271,-222.0881 2162.6973,-204 2189.0034,-174.2052 2197.0997,-126.587 2199.5908,-99.6979"/>
<polygon fill="#191970" stroke="#191970" points="2203.0937,-99.7894 2200.352,-89.5555 2196.1133,-99.2655 2203.0937,-99.7894"/>
</g>
<!-- Node33 -->
<g id="node34" class="node">
<title>Node33</title>
<g id="a_node34"><a xlink:href="StoppingCondition_8h.html" target="_top" xlink:title="Defines the various stopping conditions needed by OrbitSolver. ">
<polygon fill="#ffffff" stroke="#000000" points="1676.6563,-183.5 1676.6563,-203.5 1800.7383,-203.5 1800.7383,-183.5 1676.6563,-183.5"/>
<text text-anchor="middle" x="1738.6973" y="-189.9" font-family="Helvetica,sans-Serif" font-size="12.00" fill="#000000">StoppingCondition.h</text>
</a>
</g>
</g>
<!-- Node32&#45;&gt;Node33 -->
<g id="edge53" class="edge">
<title>Node32&#45;&gt;Node33</title>
<path fill="none" stroke="#191970" d="M2002.2243,-240.4408C1947.1294,-230.627 1863.3336,-215.7008 1805.0792,-205.3243"/>
<polygon fill="#191970" stroke="#191970" points="1805.3329,-201.8145 1794.8741,-203.5065 1804.1053,-208.706 1805.3329,-201.8145"/>
</g>
<!-- Node33&#45;&gt;Node2 -->
<g id="edge54" class="edge">
<title>Node33&#45;&gt;Node2</title>
<path fill="none" stroke="#191970" d="M1800.9527,-191.7696C1923.6238,-186.2947 2177.5448,-163.5313 2091.6973,-69 2062.0494,-36.3531 1788.5579,-23.4356 1641.0288,-18.8095"/>
<polygon fill="#191970" stroke="#191970" points="1640.7321,-15.2989 1630.6295,-18.4906 1640.5175,-22.2956 1640.7321,-15.2989"/>
</g>
<!-- Node33&#45;&gt;Node5 -->
<g id="edge56" class="edge">
<title>Node33&#45;&gt;Node5</title>
<path fill="none" stroke="#191970" d="M1717.6268,-183.3281C1701.2057,-174.8564 1678.3129,-161.8154 1660.6973,-147 1643.2671,-132.3405 1626.6797,-112.1833 1615.7435,-97.72"/>
<polygon fill="#191970" stroke="#191970" points="1618.4649,-95.5134 1609.7075,-89.5504 1612.8349,-99.6731 1618.4649,-95.5134"/>
</g>
<!-- Node33&#45;&gt;Node6 -->
<g id="edge55" class="edge">
<title>Node33&#45;&gt;Node6</title>
<path fill="none" stroke="#191970" d="M1676.426,-186.7621C1663.3119,-185.435 1649.5557,-184.1111 1636.6973,-183 1418.5029,-164.1459 1159.5212,-147.7574 1039.2764,-140.4915"/>
<polygon fill="#191970" stroke="#191970" points="1039.3129,-136.9874 1029.1205,-139.8796 1038.8919,-143.9748 1039.3129,-136.9874"/>
</g>
<!-- Node34&#45;&gt;Node2 -->
<g id="edge59" class="edge">
<title>Node34&#45;&gt;Node2</title>
<path fill="none" stroke="#191970" d="M1836.5632,-240.5187C1959.0809,-219.6382 2199.303,-165.1393 2111.6973,-69 2080.6585,-34.9379 1792.7033,-22.6102 1640.7003,-18.4503"/>
<polygon fill="#191970" stroke="#191970" points="1640.5325,-14.9447 1630.4426,-18.1763 1640.3456,-21.9422 1640.5325,-14.9447"/>
</g>
<!-- Node34&#45;&gt;Node33 -->
<g id="edge60" class="edge">
<title>Node34&#45;&gt;Node33</title>
<path fill="none" stroke="#191970" d="M1764.1551,-240.3095C1759.9672,-232.6093 1754.0975,-221.8166 1749.0496,-212.5349"/>
<polygon fill="#191970" stroke="#191970" points="1752.0439,-210.7149 1744.1915,-203.6022 1745.8945,-214.0593 1752.0439,-210.7149"/>
</g>
<!-- Node35&#45;&gt;Node2 -->
<g id="edge62" class="edge">
<title>Node35&#45;&gt;Node2</title>
<path fill="none" stroke="#191970" d="M1565.5384,-240.4857C1540.9249,-233.356 1511.0217,-221.8131 1488.6973,-204 1464.8981,-185.0102 1459.5203,-176.1405 1450.6973,-147 1440.6514,-113.8208 1432.9527,-98.781 1450.6973,-69 1458.8582,-55.3035 1471.9714,-44.9628 1485.9522,-37.2438"/>
<polygon fill="#191970" stroke="#191970" points="1487.8873,-40.1868 1495.2216,-32.541 1484.7201,-33.9443 1487.8873,-40.1868"/>
</g>
<!-- Node35&#45;&gt;Node33 -->
<g id="edge63" class="edge">
<title>Node35&#45;&gt;Node33</title>
<path fill="none" stroke="#191970" d="M1633.2865,-240.4408C1653.6333,-231.3801 1683.7661,-217.9615 1706.6094,-207.7891"/>
<polygon fill="#191970" stroke="#191970" points="1708.192,-210.9158 1715.9034,-203.6504 1705.3443,-204.5212 1708.192,-210.9158"/>
</g>
</g>
</svg>
        <g id="navigator" transform="translate(0 0)" fill="#404254">
                <rect fill="#f2f5e9" fill-opacity="0.5" stroke="#606060" stroke-width=".5" x="0" y="0" width="60" height="60"/>
                <use id="zoomplus" xlink:href="#zoomPlus" x="17" y="9" onmousedown="handleZoom(evt,'in')"/>
                <use id="zoomminus" xlink:href="#zoomMin" x="42" y="9" onmousedown="handleZoom(evt,'out')"/>
                <use id="reset" xlink:href="#resetDef" x="30" y="36" onmousedown="handleReset()"/>
                <g id="arrowUp" xlink:href="#dirArrow" transform="translate(30 24)" onmousedown="handlePan(0,-1)">
                  <use xlink:href="#rim" fill="#404040">
                        <set attributeName="fill" to="#808080" begin="arrowUp.mouseover" end="arrowUp.mouseout"/>
                  </use>
                  <path fill="none" stroke="white" stroke-width="1.5" d="M0,-3.0v7 M-2.5,-0.5L0,-3.0L2.5,-0.5"/>
                </g>
                <g id="arrowRight" xlink:href="#dirArrow" transform="rotate(90) translate(36 -43)" onmousedown="handlePan(1,0)">
                  <use xlink:href="#rim" fill="#404040">
                        <set attributeName="fill" to="#808080" begin="arrowRight.mouseover" end="arrowRight.mouseout"/>
                  </use>
                  <path fill="none" stroke="white" stroke-width="1.5" d="M0,-3.0v7 M-2.5,-0.5L0,-3.0L2.5,-0.5"/>
                </g>
                <g id="arrowDown" xlink:href="#dirArrow" transform="rotate(180) translate(-30 -48)" onmousedown="handlePan(0,1)">
                  <use xlink:href="#rim" fill="#404040">
                        <set attributeName="fill" to="#808080" begin="arrowDown.mouseover" end="arrowDown.mouseout"/>
                  </use>
                  <path fill="none" stroke="white" stroke-width="1.5" d="M0,-3.0v7 M-2.5,-0.5L0,-3.0L2.5,-0.5"/>
                </g>
                <g id="arrowLeft" xlink:href="#dirArrow" transform="rotate(270) translate(-36 17)" onmousedown="handlePan(-1,0)">
                  <use xlink:href="#rim" fill="#404040">
                        <set attributeName="fill" to="#808080" begin="arrowLeft.mouseover" end="arrowLeft.mouseout"/>
                  </use>
                  <path fill="none" stroke="white" stroke-width="1.5" d="M0,-3.0v7 M-2.5,-0.5L0,-3.0L2.5,-0.5"/>
                </g>
        </g>
        <svg viewBox="0 0 15 15" width="100%" height="30px" preserveAspectRatio="xMaxYMin meet">
         <g id="arrow_out" transform="scale(0.3 0.3)">
          <a xlink:href="DissipatingZone_8h__incl_org.svg" target="_base">
           <rect id="button" ry="5" rx="5" y="6" x="6" height="38" width="38"
                fill="#f2f5e9" fill-opacity="0.5" stroke="#606060" stroke-width="1.0"/>
           <path id="arrow"
             d="M 11.500037,31.436501 C 11.940474,20.09759 22.043105,11.32322 32.158766,21.979434 L 37.068811,17.246167 C 37.068811,17.246167 37.088388,32 37.088388,32 L 22.160133,31.978069 C 22.160133,31.978069 26.997745,27.140456 26.997745,27.140456 C 18.528582,18.264221 13.291696,25.230495 11.500037,31.436501 z"
             style="fill:#404040;"/>
          </a>
         </g>
        </svg>
</svg>
