<?xml version="1.0" encoding="UTF-8" standalone="no"?>
<!DOCTYPE svg PUBLIC "-//W3C//DTD SVG 1.1//EN"
 "http://www.w3.org/Graphics/SVG/1.1/DTD/svg11.dtd">
<!-- Generated by graphviz version 2.40.1 (20161225.0304)
 -->
<!-- Title: /Users/kpenev/projects/git/poet/poet_src/unit_tests/testEvolve/EccentricOrbit.h Pages: 1 -->
<!--zoomable 236 -->
<svg id="main" version="1.1" xmlns="http://www.w3.org/2000/svg" xmlns:xlink="http://www.w3.org/1999/xlink" xml:space="preserve" onload="init(evt)">
<style type="text/css"><![CDATA[
.edge:hover path { stroke: red; }
.edge:hover polygon { stroke: red; fill: red; }
]]></style>
<script type="text/javascript"><![CDATA[
var edges = document.getElementsByTagName('g');
if (edges && edges.length) {
  for (var i=0;i<edges.length;i++) {
    if (edges[i].id.substr(0,4)=='edge') {
      edges[i].setAttribute('class','edge');
    }
  }
}
]]></script>
        <defs>
                <circle id="rim" cx="0" cy="0" r="7"/>
                <circle id="rim2" cx="0" cy="0" r="3.5"/>
                <g id="zoomPlus">
                        <use xlink:href="#rim" fill="#404040">
                                <set attributeName="fill" to="#808080" begin="zoomplus.mouseover" end="zoomplus.mouseout"/>
                        </use>
                        <path d="M-4,0h8M0,-4v8" fill="none" stroke="white" stroke-width="1.5" pointer-events="none"/>
                </g>
                <g id="zoomMin">
                        <use xlink:href="#rim" fill="#404040">
                                <set attributeName="fill" to="#808080" begin="zoomminus.mouseover" end="zoomminus.mouseout"/>
                        </use>
                        <path d="M-4,0h8" fill="none" stroke="white" stroke-width="1.5" pointer-events="none"/>
                </g>
                <g id="dirArrow">
                        <path fill="none" stroke="white" stroke-width="1.5" d="M0,-3.0v7 M-2.5,-0.5L0,-3.0L2.5,-0.5"/>
                </g>
               <g id="resetDef">
                       <use xlink:href="#rim2" fill="#404040">
                               <set attributeName="fill" to="#808080" begin="reset.mouseover" end="reset.mouseout"/>
                       </use>
               </g>
        </defs>

<script type="text/javascript">
var viewWidth = 1760;
var viewHeight = 236;
var sectionId = 'dynsection-0';
</script>
<script xlink:href="svgpan.js"/>
<svg id="graph" class="graph">
<g id="viewport">
<title>/Users/kpenev/projects/git/poet/poet_src/unit_tests/testEvolve/EccentricOrbit.h</title>
<polygon fill="#ffffff" stroke="transparent" points="-4,4 -4,-232 1756.0186,-232 1756.0186,4 -4,4"/>
<!-- Node0 -->
<g id="node1" class="node">
<title>Node0</title>
<polygon fill="#bfbfbf" stroke="#000000" points="1344.3057,-183.5 1344.3057,-227.5 1539.708,-227.5 1539.708,-183.5 1344.3057,-183.5"/>
<text text-anchor="start" x="1352.3057" y="-213.9" font-family="Helvetica,sans-Serif" font-size="12.00" fill="#000000">/Users/kpenev/projects</text>
<text text-anchor="start" x="1352.3057" y="-201.9" font-family="Helvetica,sans-Serif" font-size="12.00" fill="#000000">/git/poet/poet_src/unit</text>
<text text-anchor="middle" x="1442.0068" y="-189.9" font-family="Helvetica,sans-Serif" font-size="12.00" fill="#000000">_tests/testEvolve/EccentricOrbit.h</text>
</g>
<!-- Node1 -->
<g id="node2" class="node">
<title>Node1</title>
<g id="a_node2"><a xlink:href="Core_2Common_8h.html" target="_top" xlink:title="Declaration of some general purpose utilities. ">
<polygon fill="#ffffff" stroke="#000000" points="661.9893,-126.5 661.9893,-146.5 786.0244,-146.5 786.0244,-126.5 661.9893,-126.5"/>
<text text-anchor="middle" x="724.0068" y="-132.9" font-family="Helvetica,sans-Serif" font-size="12.00" fill="#000000">../../Core/Common.h</text>
</a>
</g>
</g>
<!-- Node0&#45;&gt;Node1 -->
<g id="edge1" class="edge">
<title>Node0&#45;&gt;Node1</title>
<path fill="none" stroke="#191970" d="M1344.0525,-196.0866C1197.9634,-182.0474 926.3297,-155.9433 796.61,-143.4772"/>
<polygon fill="#191970" stroke="#191970" points="796.6776,-139.9676 786.3886,-142.4949 796.0079,-146.9355 796.6776,-139.9676"/>
</g>
<!-- Node6 -->
<g id="node7" class="node">
<title>Node6</title>
<polygon fill="#ffffff" stroke="#bfbfbf" points="0,-6.5 0,-26.5 62.0137,-26.5 62.0137,-6.5 0,-6.5"/>
<text text-anchor="middle" x="31.0068" y="-12.9" font-family="Helvetica,sans-Serif" font-size="12.00" fill="#000000">iostream</text>
</g>
<!-- Node0&#45;&gt;Node6 -->
<g id="edge27" class="edge">
<title>Node0&#45;&gt;Node6</title>
<path fill="none" stroke="#191970" d="M1344.0408,-201.1177C1031.2538,-186.6561 74.36,-138.5964 30.0068,-90 17.0218,-75.7727 19.6964,-52.7716 24.0787,-36.2885"/>
<polygon fill="#191970" stroke="#191970" points="27.4776,-37.1423 27.0576,-26.5558 20.7841,-35.0935 27.4776,-37.1423"/>
</g>
<!-- Node18 -->
<g id="node19" class="node">
<title>Node18</title>
<g id="a_node19"><a xlink:href="AstronomicalConstants_8h.html" target="_top" xlink:title="Defines various astronomical constants. ">
<polygon fill="#ffffff" stroke="#000000" points="1264.3096,-69.5 1264.3096,-89.5 1413.7041,-89.5 1413.7041,-69.5 1264.3096,-69.5"/>
<text text-anchor="middle" x="1339.0068" y="-75.9" font-family="Helvetica,sans-Serif" font-size="12.00" fill="#000000">AstronomicalConstants.h</text>
</a>
</g>
</g>
<!-- Node0&#45;&gt;Node18 -->
<g id="edge23" class="edge">
<title>Node0&#45;&gt;Node18</title>
<path fill="none" stroke="#191970" d="M1423.8296,-183.2638C1403.8576,-158.832 1372.1683,-120.0665 1353.7015,-97.476"/>
<polygon fill="#191970" stroke="#191970" points="1356.3622,-95.2008 1347.3234,-89.6736 1350.9426,-99.6311 1356.3622,-95.2008"/>
</g>
<!-- Node20 -->
<g id="node21" class="node">
<title>Node20</title>
<polygon fill="#ffffff" stroke="#bfbfbf" points="1184.6504,-6.5 1184.6504,-26.5 1269.3633,-26.5 1269.3633,-6.5 1184.6504,-6.5"/>
<text text-anchor="middle" x="1227.0068" y="-12.9" font-family="Helvetica,sans-Serif" font-size="12.00" fill="#000000">Eigen/Dense</text>
</g>
<!-- Node0&#45;&gt;Node20 -->
<g id="edge24" class="edge">
<title>Node0&#45;&gt;Node20</title>
<path fill="none" stroke="#191970" d="M1445.738,-183.3398C1449.406,-153.5396 1450.9698,-100.6457 1423.0068,-69 1404.1455,-47.6546 1330.8979,-32.3268 1279.504,-23.932"/>
<polygon fill="#191970" stroke="#191970" points="1279.9651,-20.4614 1269.5391,-22.3457 1278.8645,-27.3743 1279.9651,-20.4614"/>
</g>
<!-- Node21 -->
<g id="node22" class="node">
<title>Node21</title>
<polygon fill="#ffffff" stroke="#bfbfbf" points="1469.6523,-126.5 1469.6523,-146.5 1564.3613,-146.5 1564.3613,-126.5 1469.6523,-126.5"/>
<text text-anchor="middle" x="1517.0068" y="-132.9" font-family="Helvetica,sans-Serif" font-size="12.00" fill="#000000">gsl/gsl_errno.h</text>
</g>
<!-- Node0&#45;&gt;Node21 -->
<g id="edge25" class="edge">
<title>Node0&#45;&gt;Node21</title>
<path fill="none" stroke="#191970" d="M1466.1501,-183.2882C1476.588,-173.6853 1488.614,-162.6214 1498.3502,-153.6641"/>
<polygon fill="#191970" stroke="#191970" points="1500.9154,-156.06 1505.905,-146.7137 1496.176,-150.9085 1500.9154,-156.06"/>
</g>
<!-- Node22 -->
<g id="node23" class="node">
<title>Node22</title>
<polygon fill="#ffffff" stroke="#bfbfbf" points="1582.3203,-126.5 1582.3203,-146.5 1675.6934,-146.5 1675.6934,-126.5 1582.3203,-126.5"/>
<text text-anchor="middle" x="1629.0068" y="-132.9" font-family="Helvetica,sans-Serif" font-size="12.00" fill="#000000">gsl/gsl_roots.h</text>
</g>
<!-- Node0&#45;&gt;Node22 -->
<g id="edge26" class="edge">
<title>Node0&#45;&gt;Node22</title>
<path fill="none" stroke="#191970" d="M1501.6889,-183.4783C1531.4498,-172.497 1566.4937,-159.5664 1592.2735,-150.054"/>
<polygon fill="#191970" stroke="#191970" points="1593.4999,-153.3322 1601.67,-146.5869 1591.0766,-146.765 1593.4999,-153.3322"/>
</g>
<!-- Node23 -->
<g id="node24" class="node">
<title>Node23</title>
<polygon fill="#ffffff" stroke="#bfbfbf" points="1693.9951,-126.5 1693.9951,-146.5 1752.0186,-146.5 1752.0186,-126.5 1693.9951,-126.5"/>
<text text-anchor="middle" x="1723.0068" y="-132.9" font-family="Helvetica,sans-Serif" font-size="12.00" fill="#000000">iomanip</text>
</g>
<!-- Node0&#45;&gt;Node23 -->
<g id="edge28" class="edge">
<title>Node0&#45;&gt;Node23</title>
<path fill="none" stroke="#191970" d="M1536.8175,-183.4496C1579.262,-173.3915 1630.1334,-161.0818 1684.2128,-147.1521"/>
<polygon fill="#191970" stroke="#191970" points="1685.1815,-150.5169 1693.9874,-144.6257 1683.4297,-143.7396 1685.1815,-150.5169"/>
</g>
<!-- Node2 -->
<g id="node3" class="node">
<title>Node2</title>
<polygon fill="#ffffff" stroke="#bfbfbf" points="1077.6738,-69.5 1077.6738,-89.5 1108.3398,-89.5 1108.3398,-69.5 1077.6738,-69.5"/>
<text text-anchor="middle" x="1093.0068" y="-75.9" font-family="Helvetica,sans-Serif" font-size="12.00" fill="#000000">list</text>
</g>
<!-- Node1&#45;&gt;Node2 -->
<g id="edge2" class="edge">
<title>Node1&#45;&gt;Node2</title>
<path fill="none" stroke="#191970" d="M786.127,-133.3361C853.8344,-128.7331 965.1728,-117.7819 1067.6034,-89.796"/>
<polygon fill="#191970" stroke="#191970" points="1068.7975,-93.0965 1077.4865,-87.0341 1066.9135,-86.3548 1068.7975,-93.0965"/>
</g>
<!-- Node3 -->
<g id="node4" class="node">
<title>Node3</title>
<polygon fill="#ffffff" stroke="#bfbfbf" points="1126.667,-69.5 1126.667,-89.5 1185.3467,-89.5 1185.3467,-69.5 1126.667,-69.5"/>
<text text-anchor="middle" x="1156.0068" y="-75.9" font-family="Helvetica,sans-Serif" font-size="12.00" fill="#000000">valarray</text>
</g>
<!-- Node1&#45;&gt;Node3 -->
<g id="edge3" class="edge">
<title>Node1&#45;&gt;Node3</title>
<path fill="none" stroke="#191970" d="M786.0368,-131.9615C861.7987,-125.7946 993.9395,-113.0264 1116.3754,-89.8784"/>
<polygon fill="#191970" stroke="#191970" points="1117.1383,-93.296 1126.2999,-87.9749 1115.8196,-86.4213 1117.1383,-93.296"/>
</g>
<!-- Node4 -->
<g id="node5" class="node">
<title>Node4</title>
<polygon fill="#ffffff" stroke="#bfbfbf" points="1203.3428,-69.5 1203.3428,-89.5 1246.6709,-89.5 1246.6709,-69.5 1203.3428,-69.5"/>
<text text-anchor="middle" x="1225.0068" y="-75.9" font-family="Helvetica,sans-Serif" font-size="12.00" fill="#000000">limits</text>
</g>
<!-- Node1&#45;&gt;Node4 -->
<g id="edge4" class="edge">
<title>Node1&#45;&gt;Node4</title>
<path fill="none" stroke="#191970" d="M786.292,-134.8442C875.0035,-131.4954 1042.7349,-121.4977 1193.2753,-89.7116"/>
<polygon fill="#191970" stroke="#191970" points="1194.1239,-93.1092 1203.1653,-87.5862 1192.6531,-86.2654 1194.1239,-93.1092"/>
</g>
<!-- Node5 -->
<g id="node6" class="node">
<title>Node5</title>
<polygon fill="#ffffff" stroke="#bfbfbf" points="38.6699,-69.5 38.6699,-89.5 97.3438,-89.5 97.3438,-69.5 38.6699,-69.5"/>
<text text-anchor="middle" x="68.0068" y="-75.9" font-family="Helvetica,sans-Serif" font-size="12.00" fill="#000000">sstream</text>
</g>
<!-- Node1&#45;&gt;Node5 -->
<g id="edge5" class="edge">
<title>Node1&#45;&gt;Node5</title>
<path fill="none" stroke="#191970" d="M661.8398,-135.1431C550.6723,-131.9716 310.7523,-121.7442 111.0068,-90 109.9064,-89.8251 108.7926,-89.6363 107.6706,-89.4358"/>
<polygon fill="#191970" stroke="#191970" points="107.9817,-85.9278 97.4857,-87.3719 106.5913,-92.7884 107.9817,-85.9278"/>
</g>
<!-- Node1&#45;&gt;Node6 -->
<g id="edge6" class="edge">
<title>Node1&#45;&gt;Node6</title>
<path fill="none" stroke="#191970" d="M661.8211,-134.5838C536.2323,-130.1824 256.5102,-117.5396 165.0068,-90 122.5052,-77.2084 78.3334,-49.7515 52.8209,-32.2563"/>
<polygon fill="#191970" stroke="#191970" points="54.8117,-29.3775 44.6084,-26.5238 50.8051,-35.1175 54.8117,-29.3775"/>
</g>
<!-- Node7 -->
<g id="node8" class="node">
<title>Node7</title>
<polygon fill="#ffffff" stroke="#bfbfbf" points="261.333,-69.5 261.333,-89.5 314.6807,-89.5 314.6807,-69.5 261.333,-69.5"/>
<text text-anchor="middle" x="288.0068" y="-75.9" font-family="Helvetica,sans-Serif" font-size="12.00" fill="#000000">iterator</text>
</g>
<!-- Node1&#45;&gt;Node7 -->
<g id="edge7" class="edge">
<title>Node1&#45;&gt;Node7</title>
<path fill="none" stroke="#191970" d="M661.827,-132.524C584.8172,-126.8773 449.5748,-114.6009 325.0998,-89.9363"/>
<polygon fill="#191970" stroke="#191970" points="325.5062,-86.448 315.012,-87.9051 324.1244,-93.3102 325.5062,-86.448"/>
</g>
<!-- Node8 -->
<g id="node9" class="node">
<title>Node8</title>
<polygon fill="#ffffff" stroke="#bfbfbf" points="332.6484,-69.5 332.6484,-89.5 431.3652,-89.5 431.3652,-69.5 332.6484,-69.5"/>
<text text-anchor="middle" x="382.0068" y="-75.9" font-family="Helvetica,sans-Serif" font-size="12.00" fill="#000000">gsl/gsl_vector.h</text>
</g>
<!-- Node1&#45;&gt;Node8 -->
<g id="edge8" class="edge">
<title>Node1&#45;&gt;Node8</title>
<path fill="none" stroke="#191970" d="M661.9069,-126.6401C606.5858,-117.7863 523.1523,-104.2619 441.6047,-90.2575"/>
<polygon fill="#191970" stroke="#191970" points="442.12,-86.7948 431.6712,-88.5476 440.9325,-93.6934 442.12,-86.7948"/>
</g>
<!-- Node9 -->
<g id="node10" class="node">
<title>Node9</title>
<polygon fill="#ffffff" stroke="#bfbfbf" points="449.3262,-69.5 449.3262,-89.5 548.6875,-89.5 548.6875,-69.5 449.3262,-69.5"/>
<text text-anchor="middle" x="499.0068" y="-75.9" font-family="Helvetica,sans-Serif" font-size="12.00" fill="#000000">gsl/gsl_matrix.h</text>
</g>
<!-- Node1&#45;&gt;Node9 -->
<g id="edge9" class="edge">
<title>Node1&#45;&gt;Node9</title>
<path fill="none" stroke="#191970" d="M684.2993,-126.4408C646.421,-116.8449 589.2488,-102.3613 548.4367,-92.0222"/>
<polygon fill="#191970" stroke="#191970" points="549.2485,-88.6174 538.6952,-89.5544 547.5295,-95.403 549.2485,-88.6174"/>
</g>
<!-- Node10 -->
<g id="node11" class="node">
<title>Node10</title>
<polygon fill="#ffffff" stroke="#bfbfbf" points="566.6494,-69.5 566.6494,-89.5 661.3643,-89.5 661.3643,-69.5 566.6494,-69.5"/>
<text text-anchor="middle" x="614.0068" y="-75.9" font-family="Helvetica,sans-Serif" font-size="12.00" fill="#000000">gsl/gsl_linalg.h</text>
</g>
<!-- Node1&#45;&gt;Node10 -->
<g id="edge10" class="edge">
<title>Node1&#45;&gt;Node10</title>
<path fill="none" stroke="#191970" d="M704.5943,-126.4408C687.421,-117.5419 662.1355,-104.4394 642.6399,-94.3371"/>
<polygon fill="#191970" stroke="#191970" points="644.0844,-91.1437 633.5954,-89.6504 640.8638,-97.3589 644.0844,-91.1437"/>
</g>
<!-- Node11 -->
<g id="node12" class="node">
<title>Node11</title>
<polygon fill="#ffffff" stroke="#bfbfbf" points="679.6523,-69.5 679.6523,-89.5 768.3613,-89.5 768.3613,-69.5 679.6523,-69.5"/>
<text text-anchor="middle" x="724.0068" y="-75.9" font-family="Helvetica,sans-Serif" font-size="12.00" fill="#000000">gsl/gsl_blas.h</text>
</g>
<!-- Node1&#45;&gt;Node11 -->
<g id="edge11" class="edge">
<title>Node1&#45;&gt;Node11</title>
<path fill="none" stroke="#191970" d="M724.0068,-126.3095C724.0068,-118.9335 724.0068,-108.72 724.0068,-99.715"/>
<polygon fill="#191970" stroke="#191970" points="727.5069,-99.6022 724.0068,-89.6022 720.5069,-99.6023 727.5069,-99.6022"/>
</g>
<!-- Node12 -->
<g id="node13" class="node">
<title>Node12</title>
<polygon fill="#ffffff" stroke="#bfbfbf" points="786.0947,-69.5 786.0947,-89.5 873.9189,-89.5 873.9189,-69.5 786.0947,-69.5"/>
<text text-anchor="middle" x="830.0068" y="-75.9" font-family="Helvetica,sans-Serif" font-size="12.00" fill="#000000">gsl/gsl_poly.h</text>
</g>
<!-- Node1&#45;&gt;Node12 -->
<g id="edge12" class="edge">
<title>Node1&#45;&gt;Node12</title>
<path fill="none" stroke="#191970" d="M742.9575,-126.3095C759.463,-117.434 783.6087,-104.4499 802.2855,-94.4068"/>
<polygon fill="#191970" stroke="#191970" points="804.0705,-97.4209 811.2202,-89.6022 800.7552,-91.2557 804.0705,-97.4209"/>
</g>
<!-- Node13 -->
<g id="node14" class="node">
<title>Node13</title>
<polygon fill="#ffffff" stroke="#bfbfbf" points="891.668,-69.5 891.668,-89.5 946.3457,-89.5 946.3457,-69.5 891.668,-69.5"/>
<text text-anchor="middle" x="919.0068" y="-75.9" font-family="Helvetica,sans-Serif" font-size="12.00" fill="#000000">cassert</text>
</g>
<!-- Node1&#45;&gt;Node13 -->
<g id="edge13" class="edge">
<title>Node1&#45;&gt;Node13</title>
<path fill="none" stroke="#191970" d="M758.42,-126.4408C792.9514,-116.347 845.9846,-100.845 881.555,-90.4475"/>
<polygon fill="#191970" stroke="#191970" points="882.9273,-93.6929 891.5437,-87.5277 880.9633,-86.974 882.9273,-93.6929"/>
</g>
<!-- Node14 -->
<g id="node15" class="node">
<title>Node14</title>
<g id="a_node15"><a xlink:href="SharedLibraryExportMacros_8h_source.html" target="_top" xlink:title="../Core/SharedLibraryExport\lMacros.h">
<polygon fill="#ffffff" stroke="#000000" points="80.3057,-.5 80.3057,-32.5 245.708,-32.5 245.708,-.5 80.3057,-.5"/>
<text text-anchor="start" x="88.3057" y="-18.9" font-family="Helvetica,sans-Serif" font-size="12.00" fill="#000000">../Core/SharedLibraryExport</text>
<text text-anchor="middle" x="163.0068" y="-6.9" font-family="Helvetica,sans-Serif" font-size="12.00" fill="#000000">Macros.h</text>
</a>
</g>
</g>
<!-- Node1&#45;&gt;Node14 -->
<g id="edge14" class="edge">
<title>Node1&#45;&gt;Node14</title>
<path fill="none" stroke="#191970" d="M661.968,-135.1546C527.4323,-131.6752 218.0042,-120.4253 182.0068,-90 168.5939,-78.6632 163.9964,-59.215 162.6713,-43.1709"/>
<polygon fill="#191970" stroke="#191970" points="166.1487,-42.5837 162.2086,-32.7488 159.1556,-42.8942 166.1487,-42.5837"/>
</g>
<!-- Node15 -->
<g id="node16" class="node">
<title>Node15</title>
<g id="a_node16"><a xlink:href="Error_8h.html" target="_top" xlink:title="Defines the exception hierarchy used by this code. ">
<polygon fill="#ffffff" stroke="#000000" points="190.998,-69.5 190.998,-89.5 243.0156,-89.5 243.0156,-69.5 190.998,-69.5"/>
<text text-anchor="middle" x="217.0068" y="-75.9" font-family="Helvetica,sans-Serif" font-size="12.00" fill="#000000">Error.h</text>
</a>
</g>
</g>
<!-- Node1&#45;&gt;Node15 -->
<g id="edge15" class="edge">
<title>Node1&#45;&gt;Node15</title>
<path fill="none" stroke="#191970" d="M661.9766,-134.2078C573.1596,-130.085 404.6528,-119.1381 253.1938,-89.9157"/>
<polygon fill="#191970" stroke="#191970" points="253.7298,-86.4542 243.2431,-87.9643 252.3826,-93.3233 253.7298,-86.4542"/>
</g>
<!-- Node1&#45;&gt;Node18 -->
<g id="edge20" class="edge">
<title>Node1&#45;&gt;Node18</title>
<path fill="none" stroke="#191970" d="M786.3288,-131.838C883.8669,-124.3683 1078.7771,-108.7453 1253.7539,-90.2134"/>
<polygon fill="#191970" stroke="#191970" points="1254.3476,-93.6701 1263.9208,-89.1309 1253.6064,-86.7094 1254.3476,-93.6701"/>
</g>
<!-- Node19 -->
<g id="node20" class="node">
<title>Node19</title>
<g id="a_node20"><a xlink:href="IncludeEigen_8h_source.html" target="_top" xlink:title="IncludeEigen.h">
<polygon fill="#ffffff" stroke="#000000" points="964.3096,-69.5 964.3096,-89.5 1059.7041,-89.5 1059.7041,-69.5 964.3096,-69.5"/>
<text text-anchor="middle" x="1012.0068" y="-75.9" font-family="Helvetica,sans-Serif" font-size="12.00" fill="#000000">IncludeEigen.h</text>
</a>
</g>
</g>
<!-- Node1&#45;&gt;Node19 -->
<g id="edge21" class="edge">
<title>Node1&#45;&gt;Node19</title>
<path fill="none" stroke="#191970" d="M774.8325,-126.4408C825.047,-116.5025 901.7518,-101.3213 954.2473,-90.9316"/>
<polygon fill="#191970" stroke="#191970" points="954.9518,-94.3601 964.0819,-88.9851 953.5927,-87.4933 954.9518,-94.3601"/>
</g>
<!-- Node15&#45;&gt;Node6 -->
<g id="edge17" class="edge">
<title>Node15&#45;&gt;Node6</title>
<path fill="none" stroke="#191970" d="M190.9418,-71.9105C161.5647,-63.1924 112.4918,-48.1331 71.0068,-33 68.7441,-32.1746 66.4208,-31.2971 64.0874,-30.3936"/>
<polygon fill="#191970" stroke="#191970" points="65.1542,-27.051 54.569,-26.599 62.5619,-33.5534 65.1542,-27.051"/>
</g>
<!-- Node15&#45;&gt;Node14 -->
<g id="edge16" class="edge">
<title>Node15&#45;&gt;Node14</title>
<path fill="none" stroke="#191970" d="M208.3308,-69.378C201.6498,-61.5834 192.1345,-50.4823 183.5459,-40.4623"/>
<polygon fill="#191970" stroke="#191970" points="186.0939,-38.0568 176.9285,-32.742 180.7791,-42.6123 186.0939,-38.0568"/>
</g>
<!-- Node16 -->
<g id="node17" class="node">
<title>Node16</title>
<polygon fill="#ffffff" stroke="#bfbfbf" points="326.3223,-6.5 326.3223,-26.5 393.6914,-26.5 393.6914,-6.5 326.3223,-6.5"/>
<text text-anchor="middle" x="360.0068" y="-12.9" font-family="Helvetica,sans-Serif" font-size="12.00" fill="#000000">exception</text>
</g>
<!-- Node15&#45;&gt;Node16 -->
<g id="edge18" class="edge">
<title>Node15&#45;&gt;Node16</title>
<path fill="none" stroke="#191970" d="M239.9823,-69.378C263.7489,-58.9073 301.0592,-42.4699 327.7713,-30.7016"/>
<polygon fill="#191970" stroke="#191970" points="329.3483,-33.8316 337.0884,-26.5969 326.5261,-27.4257 329.3483,-33.8316"/>
</g>
<!-- Node17 -->
<g id="node18" class="node">
<title>Node17</title>
<polygon fill="#ffffff" stroke="#bfbfbf" points="263.335,-6.5 263.335,-26.5 308.6787,-26.5 308.6787,-6.5 263.335,-6.5"/>
<text text-anchor="middle" x="286.0068" y="-12.9" font-family="Helvetica,sans-Serif" font-size="12.00" fill="#000000">string</text>
</g>
<!-- Node15&#45;&gt;Node17 -->
<g id="edge19" class="edge">
<title>Node15&#45;&gt;Node17</title>
<path fill="none" stroke="#191970" d="M228.0929,-69.378C238.5928,-59.791 254.5713,-45.202 267.087,-33.7747"/>
<polygon fill="#191970" stroke="#191970" points="269.6942,-36.1336 274.7191,-26.8062 264.9742,-30.9642 269.6942,-36.1336"/>
</g>
<!-- Node19&#45;&gt;Node20 -->
<g id="edge22" class="edge">
<title>Node19&#45;&gt;Node20</title>
<path fill="none" stroke="#191970" d="M1046.5503,-69.378C1083.5372,-58.54 1142.3409,-41.3091 1182.708,-29.4806"/>
<polygon fill="#191970" stroke="#191970" points="1183.9368,-32.7678 1192.5491,-26.5969 1181.9684,-26.0502 1183.9368,-32.7678"/>
</g>
</g>
</svg>
        <g id="navigator" transform="translate(0 0)" fill="#404254">
                <rect fill="#f2f5e9" fill-opacity="0.5" stroke="#606060" stroke-width=".5" x="0" y="0" width="60" height="60"/>
                <use id="zoomplus" xlink:href="#zoomPlus" x="17" y="9" onmousedown="handleZoom(evt,'in')"/>
                <use id="zoomminus" xlink:href="#zoomMin" x="42" y="9" onmousedown="handleZoom(evt,'out')"/>
                <use id="reset" xlink:href="#resetDef" x="30" y="36" onmousedown="handleReset()"/>
                <g id="arrowUp" xlink:href="#dirArrow" transform="translate(30 24)" onmousedown="handlePan(0,-1)">
                  <use xlink:href="#rim" fill="#404040">
                        <set attributeName="fill" to="#808080" begin="arrowUp.mouseover" end="arrowUp.mouseout"/>
                  </use>
                  <path fill="none" stroke="white" stroke-width="1.5" d="M0,-3.0v7 M-2.5,-0.5L0,-3.0L2.5,-0.5"/>
                </g>
                <g id="arrowRight" xlink:href="#dirArrow" transform="rotate(90) translate(36 -43)" onmousedown="handlePan(1,0)">
                  <use xlink:href="#rim" fill="#404040">
                        <set attributeName="fill" to="#808080" begin="arrowRight.mouseover" end="arrowRight.mouseout"/>
                  </use>
                  <path fill="none" stroke="white" stroke-width="1.5" d="M0,-3.0v7 M-2.5,-0.5L0,-3.0L2.5,-0.5"/>
                </g>
                <g id="arrowDown" xlink:href="#dirArrow" transform="rotate(180) translate(-30 -48)" onmousedown="handlePan(0,1)">
                  <use xlink:href="#rim" fill="#404040">
                        <set attributeName="fill" to="#808080" begin="arrowDown.mouseover" end="arrowDown.mouseout"/>
                  </use>
                  <path fill="none" stroke="white" stroke-width="1.5" d="M0,-3.0v7 M-2.5,-0.5L0,-3.0L2.5,-0.5"/>
                </g>
                <g id="arrowLeft" xlink:href="#dirArrow" transform="rotate(270) translate(-36 17)" onmousedown="handlePan(-1,0)">
                  <use xlink:href="#rim" fill="#404040">
                        <set attributeName="fill" to="#808080" begin="arrowLeft.mouseover" end="arrowLeft.mouseout"/>
                  </use>
                  <path fill="none" stroke="white" stroke-width="1.5" d="M0,-3.0v7 M-2.5,-0.5L0,-3.0L2.5,-0.5"/>
                </g>
        </g>
        <svg viewBox="0 0 15 15" width="100%" height="30px" preserveAspectRatio="xMaxYMin meet">
         <g id="arrow_out" transform="scale(0.3 0.3)">
          <a xlink:href="EccentricOrbit_8h__incl_org.svg" target="_base">
           <rect id="button" ry="5" rx="5" y="6" x="6" height="38" width="38"
                fill="#f2f5e9" fill-opacity="0.5" stroke="#606060" stroke-width="1.0"/>
           <path id="arrow"
             d="M 11.500037,31.436501 C 11.940474,20.09759 22.043105,11.32322 32.158766,21.979434 L 37.068811,17.246167 C 37.068811,17.246167 37.088388,32 37.088388,32 L 22.160133,31.978069 C 22.160133,31.978069 26.997745,27.140456 26.997745,27.140456 C 18.528582,18.264221 13.291696,25.230495 11.500037,31.436501 z"
             style="fill:#404040;"/>
          </a>
         </g>
        </svg>
</svg>
