<?xml version="1.0" encoding="UTF-8" standalone="no"?>
<!DOCTYPE svg PUBLIC "-//W3C//DTD SVG 1.1//EN"
 "http://www.w3.org/Graphics/SVG/1.1/DTD/svg11.dtd">
<!-- Generated by graphviz version 2.40.1 (20161225.0304)
 -->
<!-- Title: /home/kpenev/projects/git/poet/poet_src/Evolve/EccentricityExpansionCoefficients.h Pages: 1 -->
<svg width="826pt" height="185pt"
 viewBox="0.00 0.00 825.50 185.00" xmlns="http://www.w3.org/2000/svg" xmlns:xlink="http://www.w3.org/1999/xlink">
<g id="graph0" class="graph" transform="scale(1 1) rotate(0) translate(4 181)">
<title>/home/kpenev/projects/git/poet/poet_src/Evolve/EccentricityExpansionCoefficients.h</title>
<polygon fill="#ffffff" stroke="transparent" points="-4,4 -4,-181 821.5,-181 821.5,4 -4,4"/>
<!-- Node0 -->
<g id="node1" class="node">
<title>Node0</title>
<polygon fill="#bfbfbf" stroke="#000000" points="343,-129.5 343,-176.5 554,-176.5 554,-129.5 343,-129.5"/>
<text text-anchor="start" x="351" y="-162.9" font-family="Helvetica,sans-Serif" font-size="12.00" fill="#000000">/home/kpenev/projects</text>
<text text-anchor="start" x="351" y="-149.9" font-family="Helvetica,sans-Serif" font-size="12.00" fill="#000000">/git/poet/poet_src/Evolve</text>
<text text-anchor="middle" x="448.5" y="-136.9" font-family="Helvetica,sans-Serif" font-size="12.00" fill="#000000">/EccentricityExpansionCoefficients.h</text>
</g>
<!-- Node1 -->
<g id="node2" class="node">
<title>Node1</title>
<g id="a_node2"><a xlink:href="SharedLibraryExportMacros_8h_source.html" target="_top" xlink:title="../Core/SharedLibraryExport\lMacros.h">
<polygon fill="#ffffff" stroke="#000000" points="0,-.5 0,-34.5 165,-34.5 165,-.5 0,-.5"/>
<text text-anchor="start" x="8" y="-20.9" font-family="Helvetica,sans-Serif" font-size="12.00" fill="#000000">../Core/SharedLibraryExport</text>
<text text-anchor="middle" x="82.5" y="-7.9" font-family="Helvetica,sans-Serif" font-size="12.00" fill="#000000">Macros.h</text>
</a>
</g>
</g>
<!-- Node0&#45;&gt;Node1 -->
<g id="edge1" class="edge">
<title>Node0&#45;&gt;Node1</title>
<path fill="none" stroke="#191970" d="M342.7109,-138.7686C293.6911,-129.6887 235.5677,-115.2978 186.5,-93 157.5782,-79.857 128.6567,-57.9787 108.6818,-41.1476"/>
<polygon fill="#191970" stroke="#191970" points="110.825,-38.3746 100.9585,-34.5142 106.2641,-43.6849 110.825,-38.3746"/>
</g>
<!-- Node2 -->
<g id="node3" class="node">
<title>Node2</title>
<g id="a_node3"><a xlink:href="Error_8h.html" target="_top" xlink:title="Defines the exception hierarchy used by this code. ">
<polygon fill="#ffffff" stroke="#000000" points="206,-71.5 206,-92.5 297,-92.5 297,-71.5 206,-71.5"/>
<text text-anchor="middle" x="251.5" y="-78.9" font-family="Helvetica,sans-Serif" font-size="12.00" fill="#000000">../Core/Error.h</text>
</a>
</g>
</g>
<!-- Node0&#45;&gt;Node2 -->
<g id="edge2" class="edge">
<title>Node0&#45;&gt;Node2</title>
<path fill="none" stroke="#191970" d="M383.1755,-129.4566C352.4874,-118.3965 316.935,-105.5832 290.513,-96.0605"/>
<polygon fill="#191970" stroke="#191970" points="291.4572,-92.6805 280.8628,-92.5825 289.0837,-99.2658 291.4572,-92.6805"/>
</g>
<!-- Node3 -->
<g id="node4" class="node">
<title>Node3</title>
<polygon fill="#ffffff" stroke="#bfbfbf" points="183.5,-7 183.5,-28 245.5,-28 245.5,-7 183.5,-7"/>
<text text-anchor="middle" x="214.5" y="-14.4" font-family="Helvetica,sans-Serif" font-size="12.00" fill="#000000">iostream</text>
</g>
<!-- Node0&#45;&gt;Node3 -->
<g id="edge11" class="edge">
<title>Node0&#45;&gt;Node3</title>
<path fill="none" stroke="#191970" d="M342.7171,-141.0105C282.3312,-131.7471 215.0373,-116.4691 196.5,-93 183.8627,-77.0006 192.4513,-53.5398 201.5899,-37.0264"/>
<polygon fill="#191970" stroke="#191970" points="204.7329,-38.5908 206.8777,-28.2154 198.7308,-34.9887 204.7329,-38.5908"/>
</g>
<!-- Node6 -->
<g id="node7" class="node">
<title>Node6</title>
<polygon fill="#ffffff" stroke="#bfbfbf" points="315,-71.5 315,-92.5 364,-92.5 364,-71.5 315,-71.5"/>
<text text-anchor="middle" x="339.5" y="-78.9" font-family="Helvetica,sans-Serif" font-size="12.00" fill="#000000">vector</text>
</g>
<!-- Node0&#45;&gt;Node6 -->
<g id="edge7" class="edge">
<title>Node0&#45;&gt;Node6</title>
<path fill="none" stroke="#191970" d="M412.2046,-129.358C396.5576,-119.1659 378.6488,-107.5006 364.5207,-98.2979"/>
<polygon fill="#191970" stroke="#191970" points="366.1337,-95.1715 355.8442,-92.6462 362.3131,-101.037 366.1337,-95.1715"/>
</g>
<!-- Node7 -->
<g id="node8" class="node">
<title>Node7</title>
<polygon fill="#ffffff" stroke="#bfbfbf" points="382.5,-71.5 382.5,-92.5 438.5,-92.5 438.5,-71.5 382.5,-71.5"/>
<text text-anchor="middle" x="410.5" y="-78.9" font-family="Helvetica,sans-Serif" font-size="12.00" fill="#000000">fstream</text>
</g>
<!-- Node0&#45;&gt;Node7 -->
<g id="edge8" class="edge">
<title>Node0&#45;&gt;Node7</title>
<path fill="none" stroke="#191970" d="M435.8466,-129.358C431.0151,-120.3308 425.565,-110.1477 420.96,-101.5437"/>
<polygon fill="#191970" stroke="#191970" points="424.0026,-99.8113 416.198,-92.6462 417.831,-103.1145 424.0026,-99.8113"/>
</g>
<!-- Node8 -->
<g id="node9" class="node">
<title>Node8</title>
<polygon fill="#ffffff" stroke="#bfbfbf" points="457,-71.5 457,-92.5 516,-92.5 516,-71.5 457,-71.5"/>
<text text-anchor="middle" x="486.5" y="-78.9" font-family="Helvetica,sans-Serif" font-size="12.00" fill="#000000">iomanip</text>
</g>
<!-- Node0&#45;&gt;Node8 -->
<g id="edge9" class="edge">
<title>Node0&#45;&gt;Node8</title>
<path fill="none" stroke="#191970" d="M461.1534,-129.358C465.9849,-120.3308 471.435,-110.1477 476.04,-101.5437"/>
<polygon fill="#191970" stroke="#191970" points="479.169,-103.1145 480.802,-92.6462 472.9974,-99.8113 479.169,-103.1145"/>
</g>
<!-- Node9 -->
<g id="node10" class="node">
<title>Node9</title>
<polygon fill="#ffffff" stroke="#bfbfbf" points="534,-71.5 534,-92.5 583,-92.5 583,-71.5 534,-71.5"/>
<text text-anchor="middle" x="558.5" y="-78.9" font-family="Helvetica,sans-Serif" font-size="12.00" fill="#000000">cmath</text>
</g>
<!-- Node0&#45;&gt;Node9 -->
<g id="edge10" class="edge">
<title>Node0&#45;&gt;Node9</title>
<path fill="none" stroke="#191970" d="M485.1284,-129.358C500.919,-119.1659 518.9921,-107.5006 533.2498,-98.2979"/>
<polygon fill="#191970" stroke="#191970" points="535.5021,-101.0099 542.0059,-92.6462 531.7059,-95.1286 535.5021,-101.0099"/>
</g>
<!-- Node10 -->
<g id="node11" class="node">
<title>Node10</title>
<polygon fill="#ffffff" stroke="#bfbfbf" points="601,-71.5 601,-92.5 660,-92.5 660,-71.5 601,-71.5"/>
<text text-anchor="middle" x="630.5" y="-78.9" font-family="Helvetica,sans-Serif" font-size="12.00" fill="#000000">sstream</text>
</g>
<!-- Node0&#45;&gt;Node10 -->
<g id="edge12" class="edge">
<title>Node0&#45;&gt;Node10</title>
<path fill="none" stroke="#191970" d="M508.8506,-129.4566C536.8612,-118.5294 569.2585,-105.8909 593.5738,-96.4053"/>
<polygon fill="#191970" stroke="#191970" points="595.087,-99.5719 603.1312,-92.6768 592.543,-93.0506 595.087,-99.5719"/>
</g>
<!-- Node11 -->
<g id="node12" class="node">
<title>Node11</title>
<polygon fill="#ffffff" stroke="#bfbfbf" points="678,-71.5 678,-92.5 733,-92.5 733,-71.5 678,-71.5"/>
<text text-anchor="middle" x="705.5" y="-78.9" font-family="Helvetica,sans-Serif" font-size="12.00" fill="#000000">cassert</text>
</g>
<!-- Node0&#45;&gt;Node11 -->
<g id="edge13" class="edge">
<title>Node0&#45;&gt;Node11</title>
<path fill="none" stroke="#191970" d="M537.6612,-129.4775C575.4034,-119.3559 620.0539,-107.1677 667.7236,-93.4671"/>
<polygon fill="#191970" stroke="#191970" points="668.979,-96.7478 677.6178,-90.6142 667.0395,-90.0219 668.979,-96.7478"/>
</g>
<!-- Node12 -->
<g id="node13" class="node">
<title>Node12</title>
<polygon fill="#ffffff" stroke="#bfbfbf" points="751.5,-71.5 751.5,-92.5 817.5,-92.5 817.5,-71.5 751.5,-71.5"/>
<text text-anchor="middle" x="784.5" y="-78.9" font-family="Helvetica,sans-Serif" font-size="12.00" fill="#000000">algorithm</text>
</g>
<!-- Node0&#45;&gt;Node12 -->
<g id="edge14" class="edge">
<title>Node0&#45;&gt;Node12</title>
<path fill="none" stroke="#191970" d="M554.2622,-132.8725C607.7279,-122.3477 673.8162,-108.8087 741.1312,-93.2431"/>
<polygon fill="#191970" stroke="#191970" points="742.123,-96.6059 751.0704,-90.932 740.5375,-89.7878 742.123,-96.6059"/>
</g>
<!-- Node2&#45;&gt;Node1 -->
<g id="edge3" class="edge">
<title>Node2&#45;&gt;Node1</title>
<path fill="none" stroke="#191970" d="M223.9711,-71.4934C200.4421,-62.5134 165.8819,-49.3233 136.8107,-38.2281"/>
<polygon fill="#191970" stroke="#191970" points="137.7768,-34.8506 127.1861,-34.5547 135.2807,-41.3904 137.7768,-34.8506"/>
</g>
<!-- Node2&#45;&gt;Node3 -->
<g id="edge4" class="edge">
<title>Node2&#45;&gt;Node3</title>
<path fill="none" stroke="#191970" d="M245.3902,-71.3491C240.0664,-62.0685 232.2091,-48.3712 225.7514,-37.114"/>
<polygon fill="#191970" stroke="#191970" points="228.7544,-35.3149 220.7425,-28.3823 222.6825,-38.798 228.7544,-35.3149"/>
</g>
<!-- Node4 -->
<g id="node5" class="node">
<title>Node4</title>
<polygon fill="#ffffff" stroke="#bfbfbf" points="263.5,-7 263.5,-28 331.5,-28 331.5,-7 263.5,-7"/>
<text text-anchor="middle" x="297.5" y="-14.4" font-family="Helvetica,sans-Serif" font-size="12.00" fill="#000000">exception</text>
</g>
<!-- Node2&#45;&gt;Node4 -->
<g id="edge5" class="edge">
<title>Node2&#45;&gt;Node4</title>
<path fill="none" stroke="#191970" d="M259.096,-71.3491C265.7809,-61.9757 275.679,-48.0969 283.7521,-36.777"/>
<polygon fill="#191970" stroke="#191970" points="286.7821,-38.5561 289.739,-28.3823 281.083,-34.4916 286.7821,-38.5561"/>
</g>
<!-- Node5 -->
<g id="node6" class="node">
<title>Node5</title>
<polygon fill="#ffffff" stroke="#bfbfbf" points="349.5,-7 349.5,-28 395.5,-28 395.5,-7 349.5,-7"/>
<text text-anchor="middle" x="372.5" y="-14.4" font-family="Helvetica,sans-Serif" font-size="12.00" fill="#000000">string</text>
</g>
<!-- Node2&#45;&gt;Node5 -->
<g id="edge6" class="edge">
<title>Node2&#45;&gt;Node5</title>
<path fill="none" stroke="#191970" d="M271.6923,-71.4437C289.7602,-61.9725 316.951,-47.6563 340.5,-35 341.7898,-34.3068 343.1077,-33.596 344.4381,-32.8765"/>
<polygon fill="#191970" stroke="#191970" points="346.1198,-35.9461 353.234,-28.0951 342.7766,-29.7961 346.1198,-35.9461"/>
</g>
</g>
</svg>
