<?xml version="1.0" encoding="UTF-8" standalone="no"?>
<!DOCTYPE svg PUBLIC "-//W3C//DTD SVG 1.1//EN"
 "http://www.w3.org/Graphics/SVG/1.1/DTD/svg11.dtd">
<!-- Generated by graphviz version 2.40.1 (20161225.0304)
 -->
<!-- Title: /home/kpenev/projects/git/poet/poet_src/Core/Error.h Pages: 1 -->
<svg width="404pt" height="127pt"
 viewBox="0.00 0.00 403.50 127.00" xmlns="http://www.w3.org/2000/svg" xmlns:xlink="http://www.w3.org/1999/xlink">
<g id="graph0" class="graph" transform="scale(1 1) rotate(0) translate(4 123)">
<title>/home/kpenev/projects/git/poet/poet_src/Core/Error.h</title>
<polygon fill="#ffffff" stroke="transparent" points="-4,4 -4,-123 399.5,-123 399.5,4 -4,4"/>
<!-- Node0 -->
<g id="node1" class="node">
<title>Node0</title>
<polygon fill="#bfbfbf" stroke="#000000" points="187,-71.5 187,-118.5 324,-118.5 324,-71.5 187,-71.5"/>
<text text-anchor="start" x="195" y="-104.9" font-family="Helvetica,sans-Serif" font-size="12.00" fill="#000000">/home/kpenev/projects</text>
<text text-anchor="start" x="195" y="-91.9" font-family="Helvetica,sans-Serif" font-size="12.00" fill="#000000">/git/poet/poet_src/Core</text>
<text text-anchor="middle" x="255.5" y="-78.9" font-family="Helvetica,sans-Serif" font-size="12.00" fill="#000000">/Error.h</text>
</g>
<!-- Node1 -->
<g id="node2" class="node">
<title>Node1</title>
<g id="a_node2"><a xlink:href="SharedLibraryExportMacros_8h_source.html" target="_top" xlink:title="../Core/SharedLibraryExport\lMacros.h">
<polygon fill="#ffffff" stroke="#000000" points="0,-.5 0,-34.5 165,-34.5 165,-.5 0,-.5"/>
<text text-anchor="start" x="8" y="-20.9" font-family="Helvetica,sans-Serif" font-size="12.00" fill="#000000">../Core/SharedLibraryExport</text>
<text text-anchor="middle" x="82.5" y="-7.9" font-family="Helvetica,sans-Serif" font-size="12.00" fill="#000000">Macros.h</text>
</a>
</g>
</g>
<!-- Node0&#45;&gt;Node1 -->
<g id="edge1" class="edge">
<title>Node0&#45;&gt;Node1</title>
<path fill="none" stroke="#191970" d="M202.6543,-71.3263C179.4395,-60.9267 152.3934,-48.8106 129.8458,-38.7098"/>
<polygon fill="#191970" stroke="#191970" points="131.0393,-35.4094 120.4823,-34.5152 128.1775,-41.7977 131.0393,-35.4094"/>
</g>
<!-- Node2 -->
<g id="node3" class="node">
<title>Node2</title>
<polygon fill="#ffffff" stroke="#bfbfbf" points="183.5,-7 183.5,-28 245.5,-28 245.5,-7 183.5,-7"/>
<text text-anchor="middle" x="214.5" y="-14.4" font-family="Helvetica,sans-Serif" font-size="12.00" fill="#000000">iostream</text>
</g>
<!-- Node0&#45;&gt;Node2 -->
<g id="edge2" class="edge">
<title>Node0&#45;&gt;Node2</title>
<path fill="none" stroke="#191970" d="M242.9759,-71.3263C237.1937,-60.3967 230.4086,-47.5712 224.9123,-37.1817"/>
<polygon fill="#191970" stroke="#191970" points="227.8823,-35.3111 220.1122,-28.1085 221.6948,-38.5845 227.8823,-35.3111"/>
</g>
<!-- Node3 -->
<g id="node4" class="node">
<title>Node3</title>
<polygon fill="#ffffff" stroke="#bfbfbf" points="263.5,-7 263.5,-28 331.5,-28 331.5,-7 263.5,-7"/>
<text text-anchor="middle" x="297.5" y="-14.4" font-family="Helvetica,sans-Serif" font-size="12.00" fill="#000000">exception</text>
</g>
<!-- Node0&#45;&gt;Node3 -->
<g id="edge3" class="edge">
<title>Node0&#45;&gt;Node3</title>
<path fill="none" stroke="#191970" d="M268.3296,-71.3263C274.2528,-60.3967 281.2033,-47.5712 286.8338,-37.1817"/>
<polygon fill="#191970" stroke="#191970" points="290.0634,-38.5681 291.7509,-28.1085 283.909,-35.2328 290.0634,-38.5681"/>
</g>
<!-- Node4 -->
<g id="node5" class="node">
<title>Node4</title>
<polygon fill="#ffffff" stroke="#bfbfbf" points="349.5,-7 349.5,-28 395.5,-28 395.5,-7 349.5,-7"/>
<text text-anchor="middle" x="372.5" y="-14.4" font-family="Helvetica,sans-Serif" font-size="12.00" fill="#000000">string</text>
</g>
<!-- Node0&#45;&gt;Node4 -->
<g id="edge4" class="edge">
<title>Node0&#45;&gt;Node4</title>
<path fill="none" stroke="#191970" d="M291.2396,-71.3263C309.611,-59.1572 331.5304,-44.638 347.9716,-33.7475"/>
<polygon fill="#191970" stroke="#191970" points="350.0805,-36.5488 356.4846,-28.1085 346.2149,-30.7129 350.0805,-36.5488"/>
</g>
</g>
</svg>
