<?xml version="1.0" encoding="UTF-8" standalone="no"?>
<!DOCTYPE svg PUBLIC "-//W3C//DTD SVG 1.1//EN"
 "http://www.w3.org/Graphics/SVG/1.1/DTD/svg11.dtd">
<!-- Generated by graphviz version 2.40.1 (20161225.0304)
 -->
<!-- Title: /home/kpenev/projects/git/poet/poet_src/Evolve/CInterface.h Pages: 1 -->
<svg width="2571pt" height="604pt"
 viewBox="0.00 0.00 2571.00 604.00" xmlns="http://www.w3.org/2000/svg" xmlns:xlink="http://www.w3.org/1999/xlink">
<g id="graph0" class="graph" transform="scale(1 1) rotate(0) translate(4 600)">
<title>/home/kpenev/projects/git/poet/poet_src/Evolve/CInterface.h</title>
<polygon fill="#ffffff" stroke="transparent" points="-4,4 -4,-600 2567,-600 2567,4 -4,4"/>
<!-- Node0 -->
<g id="node1" class="node">
<title>Node0</title>
<polygon fill="#bfbfbf" stroke="#000000" points="175.5,-548.5 175.5,-595.5 322.5,-595.5 322.5,-548.5 175.5,-548.5"/>
<text text-anchor="start" x="183.5" y="-581.9" font-family="Helvetica,sans-Serif" font-size="12.00" fill="#000000">/home/kpenev/projects</text>
<text text-anchor="start" x="183.5" y="-568.9" font-family="Helvetica,sans-Serif" font-size="12.00" fill="#000000">/git/poet/poet_src/Evolve</text>
<text text-anchor="middle" x="249" y="-555.9" font-family="Helvetica,sans-Serif" font-size="12.00" fill="#000000">/CInterface.h</text>
</g>
<!-- Node1 -->
<g id="node2" class="node">
<title>Node1</title>
<g id="a_node2"><a xlink:href="SharedLibraryExportMacros_8h_source.html" target="_top" xlink:title="../Core/SharedLibraryExport\lMacros.h">
<polygon fill="#ffffff" stroke="#000000" points="929.5,-.5 929.5,-34.5 1094.5,-34.5 1094.5,-.5 929.5,-.5"/>
<text text-anchor="start" x="937.5" y="-20.9" font-family="Helvetica,sans-Serif" font-size="12.00" fill="#000000">../Core/SharedLibraryExport</text>
<text text-anchor="middle" x="1012" y="-7.9" font-family="Helvetica,sans-Serif" font-size="12.00" fill="#000000">Macros.h</text>
</a>
</g>
</g>
<!-- Node0&#45;&gt;Node1 -->
<g id="edge1" class="edge">
<title>Node0&#45;&gt;Node1</title>
<path fill="none" stroke="#191970" d="M175.2917,-558.5061C121.2855,-547.3714 53.7656,-530.4506 32,-512 6.214,-490.1413 0,-476.8041 0,-443 0,-443 0,-443 0,-140 0,-87.0943 47.0939,-88.561 97,-71 106.6254,-67.613 688.7068,-35.2821 919.3437,-22.584"/>
<polygon fill="#191970" stroke="#191970" points="919.6013,-26.0752 929.3938,-22.0308 919.2165,-19.0858 919.6013,-26.0752"/>
</g>
<!-- Node2 -->
<g id="node3" class="node">
<title>Node2</title>
<g id="a_node3"><a xlink:href="DiskBinarySystem_8h.html" target="_top" xlink:title="Declares a class of binary systems which start with a disk&#45;locked star which is then released and at ...">
<polygon fill="#ffffff" stroke="#000000" points="41.5,-490.5 41.5,-511.5 166.5,-511.5 166.5,-490.5 41.5,-490.5"/>
<text text-anchor="middle" x="104" y="-497.9" font-family="Helvetica,sans-Serif" font-size="12.00" fill="#000000">DiskBinarySystem.h</text>
</a>
</g>
</g>
<!-- Node0&#45;&gt;Node2 -->
<g id="edge2" class="edge">
<title>Node0&#45;&gt;Node2</title>
<path fill="none" stroke="#191970" d="M200.7171,-548.358C179.0102,-537.7291 154.0311,-525.498 134.8963,-516.1285"/>
<polygon fill="#191970" stroke="#191970" points="136.2626,-512.9005 125.7423,-511.6462 133.1842,-519.1873 136.2626,-512.9005"/>
</g>
<!-- Node46 -->
<g id="node36" class="node">
<title>Node46</title>
<g id="a_node36"><a xlink:href="OrbitSolver_8h.html" target="_top" xlink:title="Defines the OrbitSolver class, the various stopping conditions and a number of other classes used whi...">
<polygon fill="#ffffff" stroke="#000000" points="1380,-490.5 1380,-511.5 1466,-511.5 1466,-490.5 1380,-490.5"/>
<text text-anchor="middle" x="1423" y="-497.9" font-family="Helvetica,sans-Serif" font-size="12.00" fill="#000000">OrbitSolver.h</text>
</a>
</g>
</g>
<!-- Node0&#45;&gt;Node46 -->
<g id="edge68" class="edge">
<title>Node0&#45;&gt;Node46</title>
<path fill="none" stroke="#191970" d="M322.8837,-567.5317C541.3382,-554.3203 1180.7088,-515.653 1369.7615,-504.2197"/>
<polygon fill="#191970" stroke="#191970" points="1370.2247,-507.6982 1379.9951,-503.6008 1369.802,-500.7109 1370.2247,-507.6982"/>
</g>
<!-- Node53 -->
<g id="node45" class="node">
<title>Node53</title>
<g id="a_node45"><a xlink:href="Star_2CInterface_8h.html" target="_top" xlink:title="Declare C&#45;style functions for accessing the functionality of the Star library. ">
<polygon fill="#ffffff" stroke="#000000" points="2357.5,-316.5 2357.5,-337.5 2472.5,-337.5 2472.5,-316.5 2357.5,-316.5"/>
<text text-anchor="middle" x="2415" y="-323.9" font-family="Helvetica,sans-Serif" font-size="12.00" fill="#000000">../Star/CInterface.h</text>
</a>
</g>
</g>
<!-- Node0&#45;&gt;Node53 -->
<g id="edge102" class="edge">
<title>Node0&#45;&gt;Node53</title>
<path fill="none" stroke="#191970" d="M322.6963,-570.4749C663.7936,-563.0415 2080.4373,-527.9256 2263,-454 2321.8904,-430.1534 2374.9503,-374.5754 2399.9205,-345.4902"/>
<polygon fill="#191970" stroke="#191970" points="2402.7097,-347.6116 2406.4725,-337.7074 2397.3547,-343.1034 2402.7097,-347.6116"/>
</g>
<!-- Node92 -->
<g id="node49" class="node">
<title>Node92</title>
<g id="a_node49"><a xlink:href="Planet_2CInterface_8h.html" target="_top" xlink:title="Declare C&#45;style functions for working with LockedPlanet instances. ">
<polygon fill="#ffffff" stroke="#000000" points="185,-490.5 185,-511.5 313,-511.5 313,-490.5 185,-490.5"/>
<text text-anchor="middle" x="249" y="-497.9" font-family="Helvetica,sans-Serif" font-size="12.00" fill="#000000">../Planet/CInterface.h</text>
</a>
</g>
</g>
<!-- Node0&#45;&gt;Node92 -->
<g id="edge120" class="edge">
<title>Node0&#45;&gt;Node92</title>
<path fill="none" stroke="#191970" d="M249,-548.358C249,-539.719 249,-530.0215 249,-521.6624"/>
<polygon fill="#191970" stroke="#191970" points="252.5001,-521.6462 249,-511.6462 245.5001,-521.6463 252.5001,-521.6462"/>
</g>
<!-- Node2&#45;&gt;Node1 -->
<g id="edge3" class="edge">
<title>Node2&#45;&gt;Node1</title>
<path fill="none" stroke="#191970" d="M92.804,-490.321C73.9739,-471.1493 38,-428.7921 38,-385 38,-385 38,-385 38,-262.5 38,-168.458 50.1694,-123.7855 128,-71 132.0632,-68.2443 692.9661,-35.7955 919.0938,-22.8163"/>
<polygon fill="#191970" stroke="#191970" points="919.4966,-26.2991 929.2797,-22.2319 919.0956,-19.3106 919.4966,-26.2991"/>
</g>
<!-- Node3 -->
<g id="node4" class="node">
<title>Node3</title>
<g id="a_node4"><a xlink:href="BinarySystem_8h.html" target="_top" xlink:title="Defines the BinarySystem class. ">
<polygon fill="#ffffff" stroke="#000000" points="752.5,-432.5 752.5,-453.5 853.5,-453.5 853.5,-432.5 752.5,-432.5"/>
<text text-anchor="middle" x="803" y="-439.9" font-family="Helvetica,sans-Serif" font-size="12.00" fill="#000000">BinarySystem.h</text>
</a>
</g>
</g>
<!-- Node2&#45;&gt;Node3 -->
<g id="edge4" class="edge">
<title>Node2&#45;&gt;Node3</title>
<path fill="none" stroke="#191970" d="M166.7907,-491.1166C169.9018,-490.7181 172.9846,-490.3428 176,-490 383.1992,-466.4416 630.3152,-451.8707 742.391,-445.9926"/>
<polygon fill="#191970" stroke="#191970" points="742.6827,-449.4822 752.4874,-445.4675 742.3191,-442.4917 742.6827,-449.4822"/>
</g>
<!-- Node22 -->
<g id="node7" class="node">
<title>Node22</title>
<g id="a_node7"><a xlink:href="Error_8h.html" target="_top" xlink:title="Defines the exception hierarchy used by this code. ">
<polygon fill="#ffffff" stroke="#000000" points="614.5,-71.5 614.5,-92.5 667.5,-92.5 667.5,-71.5 614.5,-71.5"/>
<text text-anchor="middle" x="641" y="-78.9" font-family="Helvetica,sans-Serif" font-size="12.00" fill="#000000">Error.h</text>
</a>
</g>
</g>
<!-- Node2&#45;&gt;Node22 -->
<g id="edge66" class="edge">
<title>Node2&#45;&gt;Node22</title>
<path fill="none" stroke="#191970" d="M112.1826,-490.4749C151.0474,-441.2369 323.024,-231.7126 513,-129 542.452,-113.0765 578.4296,-100.402 604.7332,-92.2469"/>
<polygon fill="#191970" stroke="#191970" points="605.7519,-95.5954 614.3068,-89.3452 603.7215,-88.8963 605.7519,-95.5954"/>
</g>
<!-- Node14 -->
<g id="node20" class="node">
<title>Node14</title>
<polygon fill="#ffffff" stroke="#bfbfbf" points="189.5,-71.5 189.5,-92.5 248.5,-92.5 248.5,-71.5 189.5,-71.5"/>
<text text-anchor="middle" x="219" y="-78.9" font-family="Helvetica,sans-Serif" font-size="12.00" fill="#000000">sstream</text>
</g>
<!-- Node2&#45;&gt;Node14 -->
<g id="edge67" class="edge">
<title>Node2&#45;&gt;Node14</title>
<path fill="none" stroke="#191970" d="M105.368,-490.4461C109.18,-461.9815 120.7853,-381.3691 138,-316 159.3058,-235.0957 195.0279,-141.9701 210.9355,-101.9584"/>
<polygon fill="#191970" stroke="#191970" points="214.2343,-103.1354 214.701,-92.5509 207.7355,-100.5342 214.2343,-103.1354"/>
</g>
<!-- Node3&#45;&gt;Node1 -->
<g id="edge5" class="edge">
<title>Node3&#45;&gt;Node1</title>
<path fill="none" stroke="#191970" d="M752.4603,-440.8317C660.5002,-436.2534 469.7924,-423.6614 410,-396 330.7931,-359.3569 266,-349.7722 266,-262.5 266,-262.5 266,-262.5 266,-198 266,-131.2904 288.9345,-105.5499 346,-71 370.1217,-56.3957 741.939,-33.1057 919.2657,-22.7545"/>
<polygon fill="#191970" stroke="#191970" points="919.5893,-26.2417 929.369,-22.1665 919.1825,-19.2535 919.5893,-26.2417"/>
</g>
<!-- Node4 -->
<g id="node5" class="node">
<title>Node4</title>
<g id="a_node5"><a xlink:href="DissipatingBody_8h.html" target="_top" xlink:title="Declares the DissipatingBody class. ">
<polygon fill="#ffffff" stroke="#000000" points="703,-374.5 703,-395.5 817,-395.5 817,-374.5 703,-374.5"/>
<text text-anchor="middle" x="760" y="-381.9" font-family="Helvetica,sans-Serif" font-size="12.00" fill="#000000">DissipatingBody.h</text>
</a>
</g>
</g>
<!-- Node3&#45;&gt;Node4 -->
<g id="edge6" class="edge">
<title>Node3&#45;&gt;Node4</title>
<path fill="none" stroke="#191970" d="M795.1131,-432.3619C789.173,-424.3496 780.8776,-413.1605 773.8412,-403.6696"/>
<polygon fill="#191970" stroke="#191970" points="776.6041,-401.5193 767.8369,-395.5707 770.9809,-405.6883 776.6041,-401.5193"/>
</g>
<!-- Node3&#45;&gt;Node22 -->
<g id="edge59" class="edge">
<title>Node3&#45;&gt;Node22</title>
<path fill="none" stroke="#191970" d="M752.2876,-439.3136C645.6336,-430.3244 404.3507,-403.062 361,-338 340.1388,-306.6909 379.8945,-267.0541 400,-245 462.6603,-176.2668 559.8622,-122.0812 609.4991,-97.0749"/>
<polygon fill="#191970" stroke="#191970" points="611.0864,-100.1945 618.4816,-92.6076 607.9692,-93.9269 611.0864,-100.1945"/>
</g>
<!-- Node15 -->
<g id="node8" class="node">
<title>Node15</title>
<polygon fill="#ffffff" stroke="#bfbfbf" points="2418,-7 2418,-28 2480,-28 2480,-7 2418,-7"/>
<text text-anchor="middle" x="2449" y="-14.4" font-family="Helvetica,sans-Serif" font-size="12.00" fill="#000000">iostream</text>
</g>
<!-- Node3&#45;&gt;Node15 -->
<g id="edge65" class="edge">
<title>Node3&#45;&gt;Node15</title>
<path fill="none" stroke="#191970" d="M853.5952,-440.6919C1130.4675,-427.9571 2450.79,-365.8425 2482,-338 2569.6128,-259.8402 2491.3716,-94.3908 2460.3496,-37.3347"/>
<polygon fill="#191970" stroke="#191970" points="2463.2324,-35.3165 2455.3185,-28.2722 2457.1122,-38.7141 2463.2324,-35.3165"/>
</g>
<!-- Node24 -->
<g id="node10" class="node">
<title>Node24</title>
<polygon fill="#ffffff" stroke="#bfbfbf" points="553,-7 553,-28 599,-28 599,-7 553,-7"/>
<text text-anchor="middle" x="576" y="-14.4" font-family="Helvetica,sans-Serif" font-size="12.00" fill="#000000">string</text>
</g>
<!-- Node3&#45;&gt;Node24 -->
<g id="edge63" class="edge">
<title>Node3&#45;&gt;Node24</title>
<path fill="none" stroke="#191970" d="M752.2423,-440.0861C651.5126,-433.905 429.7965,-418.204 357,-396 251.6475,-363.8659 207.692,-365.2923 138,-280 100.182,-233.7167 108.5318,-210.157 100,-151 94.9246,-115.8086 76.304,-97.5085 100,-71 129.5068,-37.991 439.331,-22.8776 542.6672,-18.729"/>
<polygon fill="#191970" stroke="#191970" points="542.9859,-22.2192 552.8408,-18.3294 542.7112,-15.2246 542.9859,-22.2192"/>
</g>
<!-- Node36 -->
<g id="node14" class="node">
<title>Node36</title>
<g id="a_node14"><a xlink:href="CombinedStoppingCondition_8h.html" target="_top" xlink:title="Declares a class for a stopping condition that combines other stopping conditions. ">
<polygon fill="#ffffff" stroke="#000000" points="1156,-252 1156,-273 1338,-273 1338,-252 1156,-252"/>
<text text-anchor="middle" x="1247" y="-259.4" font-family="Helvetica,sans-Serif" font-size="12.00" fill="#000000">CombinedStoppingCondition.h</text>
</a>
</g>
</g>
<!-- Node3&#45;&gt;Node36 -->
<g id="edge52" class="edge">
<title>Node3&#45;&gt;Node36</title>
<path fill="none" stroke="#191970" d="M853.6862,-436.8446C919.4741,-428.3698 1030.3136,-412.2979 1068,-396 1134.3074,-367.3246 1198.9282,-309.6586 1229.1836,-280.4019"/>
<polygon fill="#191970" stroke="#191970" points="1231.7574,-282.7801 1236.4481,-273.2802 1226.857,-277.7815 1231.7574,-282.7801"/>
</g>
<!-- Node10 -->
<g id="node16" class="node">
<title>Node10</title>
<g id="a_node16"><a xlink:href="Core_2Common_8h.html" target="_top" xlink:title="Declaration of some general purpose utilities. ">
<polygon fill="#ffffff" stroke="#000000" points="1172.5,-129.5 1172.5,-150.5 1285.5,-150.5 1285.5,-129.5 1172.5,-129.5"/>
<text text-anchor="middle" x="1229" y="-136.9" font-family="Helvetica,sans-Serif" font-size="12.00" fill="#000000">../Core/Common.h</text>
</a>
</g>
</g>
<!-- Node3&#45;&gt;Node10 -->
<g id="edge57" class="edge">
<title>Node3&#45;&gt;Node10</title>
<path fill="none" stroke="#191970" d="M837.4037,-432.4518C884.6245,-416.8794 970.7406,-384.4768 1033,-338 1076.9239,-305.2107 1075.6983,-284.21 1114,-245 1145.7704,-212.4762 1185.4273,-177.3713 1208.8986,-157.1119"/>
<polygon fill="#191970" stroke="#191970" points="1211.1816,-159.7649 1216.4863,-150.5936 1206.6202,-154.4551 1211.1816,-159.7649"/>
</g>
<!-- Node13 -->
<g id="node19" class="node">
<title>Node13</title>
<polygon fill="#ffffff" stroke="#bfbfbf" points="1601,-71.5 1601,-92.5 1645,-92.5 1645,-71.5 1601,-71.5"/>
<text text-anchor="middle" x="1623" y="-78.9" font-family="Helvetica,sans-Serif" font-size="12.00" fill="#000000">limits</text>
</g>
<!-- Node3&#45;&gt;Node13 -->
<g id="edge64" class="edge">
<title>Node3&#45;&gt;Node13</title>
<path fill="none" stroke="#191970" d="M853.4526,-432.4599C886.5692,-424.6007 930.3682,-412.394 967,-396 1011.1195,-376.255 1021.6519,-368.6841 1059,-338 1069.9921,-328.9692 1135.8821,-253.8755 1147,-245 1186.5541,-213.4238 1295.2927,-145.8995 1343,-129 1446.3272,-92.3982 1480.06,-117.084 1587,-93 1588.2552,-92.7173 1589.5302,-92.4131 1590.8147,-92.0922"/>
<polygon fill="#191970" stroke="#191970" points="1591.9517,-95.4097 1600.6708,-89.3907 1590.1012,-88.6587 1591.9517,-95.4097"/>
</g>
<!-- Node25 -->
<g id="node27" class="node">
<title>Node25</title>
<g id="a_node27"><a xlink:href="AstronomicalConstants_8h.html" target="_top" xlink:title="Defines various astronomical constants. ">
<polygon fill="#ffffff" stroke="#000000" points="408,-71.5 408,-92.5 558,-92.5 558,-71.5 408,-71.5"/>
<text text-anchor="middle" x="483" y="-78.9" font-family="Helvetica,sans-Serif" font-size="12.00" fill="#000000">AstronomicalConstants.h</text>
</a>
</g>
</g>
<!-- Node3&#45;&gt;Node25 -->
<g id="edge56" class="edge">
<title>Node3&#45;&gt;Node25</title>
<path fill="none" stroke="#191970" d="M764.1487,-432.4225C741.8484,-424.9299 714.3298,-413.1294 694,-396 585.6824,-304.7338 602.5558,-244.0946 520,-129 513.0998,-119.3802 505.0079,-109.0077 498.1539,-100.4606"/>
<polygon fill="#191970" stroke="#191970" points="500.8159,-98.1863 491.8027,-92.6175 495.3759,-102.5916 500.8159,-98.1863"/>
</g>
<!-- Node41 -->
<g id="node30" class="node">
<title>Node41</title>
<g id="a_node30"><a xlink:href="OrbitalExpressions_8h.html" target="_top" xlink:title="A collection of functions which calculate various quantities for two body orbits. ...">
<polygon fill="#ffffff" stroke="#000000" points="370,-316.5 370,-337.5 536,-337.5 536,-316.5 370,-316.5"/>
<text text-anchor="middle" x="453" y="-323.9" font-family="Helvetica,sans-Serif" font-size="12.00" fill="#000000">../Core/OrbitalExpressions.h</text>
</a>
</g>
</g>
<!-- Node3&#45;&gt;Node41 -->
<g id="edge58" class="edge">
<title>Node3&#45;&gt;Node41</title>
<path fill="none" stroke="#191970" d="M765.952,-432.4408C736.9607,-423.7724 695.8556,-410.5837 661,-396 641.1964,-387.7141 637.9738,-381.8669 618,-374 582.4621,-360.003 541.126,-348.2356 508.7175,-339.9761"/>
<polygon fill="#191970" stroke="#191970" points="509.5139,-336.5675 498.9626,-337.5269 507.8092,-343.3568 509.5139,-336.5675"/>
</g>
<!-- Node42 -->
<g id="node32" class="node">
<title>Node42</title>
<g id="a_node32"><a xlink:href="SecondaryDeathCondition_8h.html" target="_top" xlink:title="Declares a stopping condition class monitoring for the death of the secondary object. ">
<polygon fill="#ffffff" stroke="#000000" points="780,-252 780,-273 948,-273 948,-252 780,-252"/>
<text text-anchor="middle" x="864" y="-259.4" font-family="Helvetica,sans-Serif" font-size="12.00" fill="#000000">SecondaryDeathCondition.h</text>
</a>
</g>
</g>
<!-- Node3&#45;&gt;Node42 -->
<g id="edge53" class="edge">
<title>Node3&#45;&gt;Node42</title>
<path fill="none" stroke="#191970" d="M808.8555,-432.4153C813.8743,-423.0446 821.0556,-408.8926 826,-396 840.9494,-357.019 853.0686,-309.6562 859.3415,-283.1099"/>
<polygon fill="#191970" stroke="#191970" points="862.8149,-283.6245 861.6631,-273.0925 855.9956,-282.044 862.8149,-283.6245"/>
</g>
<!-- Node43 -->
<g id="node33" class="node">
<title>Node43</title>
<polygon fill="#ffffff" stroke="#bfbfbf" points="1120.5,-374.5 1120.5,-395.5 1215.5,-395.5 1215.5,-374.5 1120.5,-374.5"/>
<text text-anchor="middle" x="1168" y="-381.9" font-family="Helvetica,sans-Serif" font-size="12.00" fill="#000000">gsl/gsl_errno.h</text>
</g>
<!-- Node3&#45;&gt;Node43 -->
<g id="edge60" class="edge">
<title>Node3&#45;&gt;Node43</title>
<path fill="none" stroke="#191970" d="M853.7169,-435.4768C913.9376,-426.4643 1017.3851,-410.732 1106,-396 1107.4491,-395.7591 1108.9169,-395.5132 1110.3974,-395.2634"/>
<polygon fill="#191970" stroke="#191970" points="1111.0234,-398.7073 1120.2906,-393.5722 1109.8437,-391.8074 1111.0234,-398.7073"/>
</g>
<!-- Node44 -->
<g id="node34" class="node">
<title>Node44</title>
<polygon fill="#ffffff" stroke="#bfbfbf" points="1234,-374.5 1234,-395.5 1338,-395.5 1338,-374.5 1234,-374.5"/>
<text text-anchor="middle" x="1286" y="-381.9" font-family="Helvetica,sans-Serif" font-size="12.00" fill="#000000">gsl/gsl_odeiv2.h</text>
</g>
<!-- Node3&#45;&gt;Node44 -->
<g id="edge61" class="edge">
<title>Node3&#45;&gt;Node44</title>
<path fill="none" stroke="#191970" d="M853.8091,-438.4584C931.3634,-431.2805 1084.1311,-416.177 1223.7647,-396.1068"/>
<polygon fill="#191970" stroke="#191970" points="1224.3999,-399.5514 1233.7945,-394.6532 1223.3958,-392.6238 1224.3999,-399.5514"/>
</g>
<!-- Node45 -->
<g id="node35" class="node">
<title>Node45</title>
<polygon fill="#ffffff" stroke="#bfbfbf" points="509,-374.5 509,-395.5 609,-395.5 609,-374.5 509,-374.5"/>
<text text-anchor="middle" x="559" y="-381.9" font-family="Helvetica,sans-Serif" font-size="12.00" fill="#000000">gsl/gsl_siman.h</text>
</g>
<!-- Node3&#45;&gt;Node45 -->
<g id="edge62" class="edge">
<title>Node3&#45;&gt;Node45</title>
<path fill="none" stroke="#191970" d="M758.8134,-432.4966C717.9155,-422.775 656.9945,-408.2938 613.1794,-397.8787"/>
<polygon fill="#191970" stroke="#191970" points="613.8078,-394.4306 603.2694,-395.5231 612.1889,-401.2409 613.8078,-394.4306"/>
</g>
<!-- Node4&#45;&gt;Node1 -->
<g id="edge7" class="edge">
<title>Node4&#45;&gt;Node1</title>
<path fill="none" stroke="#191970" d="M740.9899,-374.4114C658.2334,-327.7093 336.2812,-139.431 399,-71 416.3191,-52.1035 752.312,-31.4657 919.346,-22.322"/>
<polygon fill="#191970" stroke="#191970" points="919.5722,-25.815 929.367,-21.7762 919.1914,-18.8254 919.5722,-25.815"/>
</g>
<!-- Node5 -->
<g id="node6" class="node">
<title>Node5</title>
<g id="a_node6"><a xlink:href="DissipatingZone_8h.html" target="_top" xlink:title="Declares a class representing one zone of a body dissipative to tidal distortions. ">
<polygon fill="#ffffff" stroke="#ff0000" points="910,-316.5 910,-337.5 1024,-337.5 1024,-316.5 910,-316.5"/>
<text text-anchor="middle" x="967" y="-323.9" font-family="Helvetica,sans-Serif" font-size="12.00" fill="#000000">DissipatingZone.h</text>
</a>
</g>
</g>
<!-- Node4&#45;&gt;Node5 -->
<g id="edge8" class="edge">
<title>Node4&#45;&gt;Node5</title>
<path fill="none" stroke="#191970" d="M797.4861,-374.4966C831.671,-364.9183 882.3457,-350.7196 919.3836,-340.3418"/>
<polygon fill="#191970" stroke="#191970" points="920.7587,-343.5914 929.4436,-337.5231 918.8701,-336.8509 920.7587,-343.5914"/>
</g>
<!-- Node9 -->
<g id="node13" class="node">
<title>Node9</title>
<polygon fill="#ffffff" stroke="#bfbfbf" points="1847.5,-71.5 1847.5,-92.5 1902.5,-92.5 1902.5,-71.5 1847.5,-71.5"/>
<text text-anchor="middle" x="1875" y="-78.9" font-family="Helvetica,sans-Serif" font-size="12.00" fill="#000000">cassert</text>
</g>
<!-- Node4&#45;&gt;Node9 -->
<g id="edge51" class="edge">
<title>Node4&#45;&gt;Node9</title>
<path fill="none" stroke="#191970" d="M817.0284,-375.3895C872.2828,-366.029 958.4311,-351.3054 1033,-338 1253.4277,-298.669 1331.7659,-330.2569 1520,-209 1563.6126,-180.9056 1558.6005,-152.2043 1605,-129 1615.3429,-123.8275 1765.7302,-99.3992 1837.4619,-87.9494"/>
<polygon fill="#191970" stroke="#191970" points="1838.1238,-91.3882 1847.4485,-86.3581 1837.0223,-84.4754 1838.1238,-91.3882"/>
</g>
<!-- Node4&#45;&gt;Node10 -->
<g id="edge49" class="edge">
<title>Node4&#45;&gt;Node10</title>
<path fill="none" stroke="#191970" d="M757.0617,-374.3009C750.6954,-348.5473 738.6672,-282.471 771,-245 783.9752,-229.9628 1042.3306,-177.0256 1165.1662,-152.5645"/>
<polygon fill="#191970" stroke="#191970" points="1166.0705,-155.9533 1175.196,-150.5705 1164.7055,-149.0877 1166.0705,-155.9533"/>
</g>
<!-- Node12 -->
<g id="node18" class="node">
<title>Node12</title>
<polygon fill="#ffffff" stroke="#bfbfbf" points="800.5,-71.5 800.5,-92.5 859.5,-92.5 859.5,-71.5 800.5,-71.5"/>
<text text-anchor="middle" x="830" y="-78.9" font-family="Helvetica,sans-Serif" font-size="12.00" fill="#000000">valarray</text>
</g>
<!-- Node4&#45;&gt;Node12 -->
<g id="edge50" class="edge">
<title>Node4&#45;&gt;Node12</title>
<path fill="none" stroke="#191970" d="M755.5764,-374.4012C751.9155,-365.0214 747.003,-350.8641 745,-338 741.519,-315.6436 743.6313,-265.2847 749,-245 763.6641,-189.5943 798.2073,-130.8793 817.1011,-101.3548"/>
<polygon fill="#191970" stroke="#191970" points="820.1234,-103.1273 822.6405,-92.8358 814.2549,-99.3113 820.1234,-103.1273"/>
</g>
<!-- Node4&#45;&gt;Node25 -->
<g id="edge48" class="edge">
<title>Node4&#45;&gt;Node25</title>
<path fill="none" stroke="#191970" d="M753.5727,-374.4429C730.6266,-337.3546 649.2313,-210.8548 558,-129 544.4895,-116.8781 527.4787,-105.9359 513.0743,-97.6657"/>
<polygon fill="#191970" stroke="#191970" points="514.4864,-94.4457 504.048,-92.6313 511.0766,-100.5592 514.4864,-94.4457"/>
</g>
<!-- Node4&#45;&gt;Node41 -->
<g id="edge44" class="edge">
<title>Node4&#45;&gt;Node41</title>
<path fill="none" stroke="#191970" d="M704.4046,-374.4966C652.1887,-364.6317 574.0318,-349.8659 518.7453,-339.4209"/>
<polygon fill="#191970" stroke="#191970" points="519.1756,-335.9404 508.6996,-337.5231 517.8761,-342.8187 519.1756,-335.9404"/>
</g>
<!-- Node5&#45;&gt;Node1 -->
<g id="edge9" class="edge">
<title>Node5&#45;&gt;Node1</title>
<path fill="none" stroke="#191970" d="M968.2152,-316.3499C969.57,-299.8785 970.0806,-267.7531 957,-245 902.492,-150.1856 715.0301,-156.6796 783,-71 800.2344,-49.2751 863.6598,-35.5419 919.4017,-27.4363"/>
<polygon fill="#191970" stroke="#191970" points="919.9328,-30.8961 929.3475,-26.0366 918.9573,-23.9645 919.9328,-30.8961"/>
</g>
<!-- Node5&#45;&gt;Node22 -->
<g id="edge10" class="edge">
<title>Node5&#45;&gt;Node22</title>
<path fill="none" stroke="#191970" d="M909.9089,-318.1067C860.3598,-309.5338 793.1879,-295.5931 771,-280 705.2157,-233.7685 664.0842,-142.6534 648.3227,-102.1865"/>
<polygon fill="#191970" stroke="#191970" points="651.5159,-100.7354 644.7055,-92.6194 644.9683,-103.211 651.5159,-100.7354"/>
</g>
<!-- Node7 -->
<g id="node11" class="node">
<title>Node7</title>
<g id="a_node11"><a xlink:href="DissipationQuantities_8h.html" target="_top" xlink:title="Declaration of enumerations of dissipation quantities and derivatives. ">
<polygon fill="#ffffff" stroke="#000000" points="1831,-129.5 1831,-150.5 1971,-150.5 1971,-129.5 1831,-129.5"/>
<text text-anchor="middle" x="1901" y="-136.9" font-family="Helvetica,sans-Serif" font-size="12.00" fill="#000000">DissipationQuantities.h</text>
</a>
</g>
</g>
<!-- Node5&#45;&gt;Node7 -->
<g id="edge15" class="edge">
<title>Node5&#45;&gt;Node7</title>
<path fill="none" stroke="#191970" d="M1024.0798,-322.5107C1188.2892,-309.0355 1659.2548,-266.3028 1802,-209 1832.654,-196.6944 1863.1018,-173.3735 1881.9696,-157.2734"/>
<polygon fill="#191970" stroke="#191970" points="1884.3154,-159.8717 1889.5483,-150.6594 1879.7127,-154.5977 1884.3154,-159.8717"/>
</g>
<!-- Node5&#45;&gt;Node36 -->
<g id="edge19" class="edge">
<title>Node5&#45;&gt;Node36</title>
<path fill="none" stroke="#191970" d="M1012.61,-316.4934C1061.5252,-305.2254 1139.2162,-287.3288 1191.6092,-275.2597"/>
<polygon fill="#191970" stroke="#191970" points="1192.4504,-278.6576 1201.4095,-273.0021 1190.879,-271.8363 1192.4504,-278.6576"/>
</g>
<!-- Node5&#45;&gt;Node10 -->
<g id="edge42" class="edge">
<title>Node5&#45;&gt;Node10</title>
<path fill="none" stroke="#191970" d="M984.7285,-316.3711C997.9068,-307.8049 1015.6658,-294.7815 1028,-280 1057.8008,-244.2863 1040.31,-216.8292 1076,-187 1100.2221,-166.7555 1133.0768,-155.223 1162.1322,-148.6571"/>
<polygon fill="#191970" stroke="#191970" points="1163.1638,-152.0168 1172.2306,-146.5356 1161.7246,-145.1664 1163.1638,-152.0168"/>
</g>
<!-- Node5&#45;&gt;Node12 -->
<g id="edge43" class="edge">
<title>Node5&#45;&gt;Node12</title>
<path fill="none" stroke="#191970" d="M974.1574,-316.2672C983.7486,-300.4893 998.6221,-270.1785 990,-245 968.8598,-183.2661 947.6952,-173.5325 900,-129 887.3949,-117.2307 871.5665,-106.34 858.1511,-98.0117"/>
<polygon fill="#191970" stroke="#191970" points="859.6875,-94.8508 849.3183,-92.6761 856.0681,-100.8425 859.6875,-94.8508"/>
</g>
<!-- Node22&#45;&gt;Node1 -->
<g id="edge11" class="edge">
<title>Node22&#45;&gt;Node1</title>
<path fill="none" stroke="#191970" d="M667.8116,-74.389C672.52,-73.1722 677.3884,-71.9898 682,-71 761.4804,-53.9412 852.7703,-39.5344 919.1568,-29.9839"/>
<polygon fill="#191970" stroke="#191970" points="919.7745,-33.4313 929.1788,-28.5518 918.7842,-26.5017 919.7745,-33.4313"/>
</g>
<!-- Node22&#45;&gt;Node15 -->
<g id="edge12" class="edge">
<title>Node22&#45;&gt;Node15</title>
<path fill="none" stroke="#191970" d="M667.7104,-79.7262C697.8719,-77.235 748.4274,-73.2896 792,-71 1435.5589,-37.1836 2220.9223,-21.5948 2407.7393,-18.2174"/>
<polygon fill="#191970" stroke="#191970" points="2408.0014,-21.7133 2417.937,-18.0344 2407.8758,-14.7144 2408.0014,-21.7133"/>
</g>
<!-- Node23 -->
<g id="node9" class="node">
<title>Node23</title>
<polygon fill="#ffffff" stroke="#bfbfbf" points="617,-7 617,-28 685,-28 685,-7 617,-7"/>
<text text-anchor="middle" x="651" y="-14.4" font-family="Helvetica,sans-Serif" font-size="12.00" fill="#000000">exception</text>
</g>
<!-- Node22&#45;&gt;Node23 -->
<g id="edge13" class="edge">
<title>Node22&#45;&gt;Node23</title>
<path fill="none" stroke="#191970" d="M642.6513,-71.3491C644.0326,-62.4397 646.045,-49.4599 647.7479,-38.4761"/>
<polygon fill="#191970" stroke="#191970" points="651.2393,-38.8005 649.3128,-28.3823 644.322,-37.728 651.2393,-38.8005"/>
</g>
<!-- Node22&#45;&gt;Node24 -->
<g id="edge14" class="edge">
<title>Node22&#45;&gt;Node24</title>
<path fill="none" stroke="#191970" d="M630.2666,-71.3491C620.4463,-61.6044 605.7191,-46.9905 594.0836,-35.4445"/>
<polygon fill="#191970" stroke="#191970" points="596.5303,-32.9416 586.9666,-28.3823 591.5997,-37.9104 596.5303,-32.9416"/>
</g>
<!-- Node7&#45;&gt;Node1 -->
<g id="edge16" class="edge">
<title>Node7&#45;&gt;Node1</title>
<path fill="none" stroke="#191970" d="M1907.4284,-129.317C1915.58,-114.2409 1926.8912,-86.8027 1912,-71 1884.628,-41.9526 1329.4263,-25.2276 1104.9612,-19.6306"/>
<polygon fill="#191970" stroke="#191970" points="1104.9325,-16.1289 1094.849,-19.3804 1104.7593,-23.1268 1104.9325,-16.1289"/>
</g>
<!-- Node8 -->
<g id="node12" class="node">
<title>Node8</title>
<polygon fill="#ffffff" stroke="#bfbfbf" points="1959.5,-71.5 1959.5,-92.5 2018.5,-92.5 2018.5,-71.5 1959.5,-71.5"/>
<text text-anchor="middle" x="1989" y="-78.9" font-family="Helvetica,sans-Serif" font-size="12.00" fill="#000000">ostream</text>
</g>
<!-- Node7&#45;&gt;Node8 -->
<g id="edge17" class="edge">
<title>Node7&#45;&gt;Node8</title>
<path fill="none" stroke="#191970" d="M1917.1406,-129.3619C1930.4136,-120.6138 1949.4325,-108.0786 1964.5702,-98.1015"/>
<polygon fill="#191970" stroke="#191970" points="1966.5383,-100.9962 1972.9618,-92.5707 1962.6861,-95.1515 1966.5383,-100.9962"/>
</g>
<!-- Node7&#45;&gt;Node9 -->
<g id="edge18" class="edge">
<title>Node7&#45;&gt;Node9</title>
<path fill="none" stroke="#191970" d="M1896.2312,-129.3619C1892.7861,-121.6766 1888.0308,-111.0686 1883.8937,-101.8399"/>
<polygon fill="#191970" stroke="#191970" points="1887.023,-100.264 1879.7386,-92.5707 1880.6354,-103.1275 1887.023,-100.264"/>
</g>
<!-- Node36&#45;&gt;Node1 -->
<g id="edge20" class="edge">
<title>Node36&#45;&gt;Node1</title>
<path fill="none" stroke="#191970" d="M1199.3134,-251.9333C1092.6321,-227.2278 840.2702,-162.4927 792,-93 786.4219,-84.9694 785.9579,-78.6875 792,-71 808.116,-50.4952 866.6358,-36.873 919.2691,-28.5075"/>
<polygon fill="#191970" stroke="#191970" points="920.0078,-31.9351 929.3593,-26.9552 918.9433,-25.0165 920.0078,-31.9351"/>
</g>
<!-- Node37 -->
<g id="node15" class="node">
<title>Node37</title>
<g id="a_node15"><a xlink:href="StoppingCondition_8h.html" target="_top" xlink:title="Defines the various stopping conditions needed by OrbitSolver. ">
<polygon fill="#ffffff" stroke="#000000" points="1385,-187.5 1385,-208.5 1511,-208.5 1511,-187.5 1385,-187.5"/>
<text text-anchor="middle" x="1448" y="-194.9" font-family="Helvetica,sans-Serif" font-size="12.00" fill="#000000">StoppingCondition.h</text>
</a>
</g>
</g>
<!-- Node36&#45;&gt;Node37 -->
<g id="edge21" class="edge">
<title>Node36&#45;&gt;Node37</title>
<path fill="none" stroke="#191970" d="M1279.7415,-251.9934C1314.0526,-240.9831 1368.0866,-223.6439 1405.6289,-211.5967"/>
<polygon fill="#191970" stroke="#191970" points="1406.8202,-214.8903 1415.2725,-208.5021 1404.6813,-208.225 1406.8202,-214.8903"/>
</g>
<!-- Node31 -->
<g id="node29" class="node">
<title>Node31</title>
<polygon fill="#ffffff" stroke="#bfbfbf" points="1613.5,-129.5 1613.5,-150.5 1662.5,-150.5 1662.5,-129.5 1613.5,-129.5"/>
<text text-anchor="middle" x="1638" y="-136.9" font-family="Helvetica,sans-Serif" font-size="12.00" fill="#000000">vector</text>
</g>
<!-- Node36&#45;&gt;Node31 -->
<g id="edge41" class="edge">
<title>Node36&#45;&gt;Node31</title>
<path fill="none" stroke="#191970" d="M1306.3975,-251.9502C1380.6057,-238.6005 1500.2907,-216.4484 1520,-209 1555.2758,-195.6688 1592.224,-172.3018 1615.1765,-156.4945"/>
<polygon fill="#191970" stroke="#191970" points="1617.3548,-159.2421 1623.5404,-150.6404 1613.3408,-153.5073 1617.3548,-159.2421"/>
</g>
<!-- Node37&#45;&gt;Node1 -->
<g id="edge22" class="edge">
<title>Node37&#45;&gt;Node1</title>
<path fill="none" stroke="#191970" d="M1456.2411,-187.4243C1468.6509,-172.224 1493.6164,-144.3457 1521,-129 1577.2561,-97.4743 1697.665,-118.4551 1654,-71 1617.5883,-31.4278 1273.5513,-21.1187 1104.6491,-18.4385"/>
<polygon fill="#191970" stroke="#191970" points="1104.5736,-14.937 1094.5212,-18.2836 1104.4665,-21.9362 1104.5736,-14.937"/>
</g>
<!-- Node37&#45;&gt;Node9 -->
<g id="edge40" class="edge">
<title>Node37&#45;&gt;Node9</title>
<path fill="none" stroke="#191970" d="M1462.6986,-187.4259C1484.9666,-171.9639 1529.1072,-143.4576 1571,-129 1577.2733,-126.835 1757.1721,-99.683 1837.2188,-87.6623"/>
<polygon fill="#191970" stroke="#191970" points="1838.0023,-91.084 1847.372,-86.1384 1836.9632,-84.1616 1838.0023,-91.084"/>
</g>
<!-- Node37&#45;&gt;Node10 -->
<g id="edge23" class="edge">
<title>Node37&#45;&gt;Node10</title>
<path fill="none" stroke="#191970" d="M1408.3408,-187.4966C1371.9423,-177.8569 1317.8738,-163.5373 1278.625,-153.1427"/>
<polygon fill="#191970" stroke="#191970" points="1279.2964,-149.6999 1268.7336,-150.5231 1277.5043,-156.4666 1279.2964,-149.6999"/>
</g>
<!-- Node10&#45;&gt;Node1 -->
<g id="edge36" class="edge">
<title>Node10&#45;&gt;Node1</title>
<path fill="none" stroke="#191970" d="M1228.8067,-129.2668C1227.9383,-114.1296 1224.0769,-86.6177 1208,-71 1192.6259,-56.065 1147.6753,-43.2528 1104.6953,-33.9138"/>
<polygon fill="#191970" stroke="#191970" points="1105.2108,-30.4454 1094.7024,-31.7953 1103.759,-37.2932 1105.2108,-30.4454"/>
</g>
<!-- Node10&#45;&gt;Node22 -->
<g id="edge37" class="edge">
<title>Node10&#45;&gt;Node22</title>
<path fill="none" stroke="#191970" d="M1172.3532,-134.4124C1052.7986,-122.6196 777.5173,-95.466 677.8631,-85.6362"/>
<polygon fill="#191970" stroke="#191970" points="677.9806,-82.1308 667.6853,-84.6322 677.2934,-89.097 677.9806,-82.1308"/>
</g>
<!-- Node10&#45;&gt;Node15 -->
<g id="edge28" class="edge">
<title>Node10&#45;&gt;Node15</title>
<path fill="none" stroke="#191970" d="M1285.5848,-131.4298C1291.1308,-130.603 1296.674,-129.7817 1302,-129 1413.9379,-112.571 1447.0908,-130.0193 1554,-93 1572.4409,-86.6145 1573.3198,-76.6471 1592,-71 1670.4639,-47.2799 2246.7082,-24.827 2407.4624,-18.9731"/>
<polygon fill="#191970" stroke="#191970" points="2408.0074,-22.4558 2417.8742,-18.5961 2407.754,-15.4603 2408.0074,-22.4558"/>
</g>
<!-- Node10&#45;&gt;Node9 -->
<g id="edge35" class="edge">
<title>Node10&#45;&gt;Node9</title>
<path fill="none" stroke="#191970" d="M1285.8486,-136.5211C1388.6535,-129.9626 1612.2364,-114.475 1800,-93 1812.1351,-91.6121 1825.3292,-89.7847 1837.2194,-88.0189"/>
<polygon fill="#191970" stroke="#191970" points="1837.9104,-91.4542 1847.2733,-86.4956 1836.8618,-84.5332 1837.9104,-91.4542"/>
</g>
<!-- Node11 -->
<g id="node17" class="node">
<title>Node11</title>
<polygon fill="#ffffff" stroke="#bfbfbf" points="2037,-71.5 2037,-92.5 2069,-92.5 2069,-71.5 2037,-71.5"/>
<text text-anchor="middle" x="2053" y="-78.9" font-family="Helvetica,sans-Serif" font-size="12.00" fill="#000000">list</text>
</g>
<!-- Node10&#45;&gt;Node11 -->
<g id="edge24" class="edge">
<title>Node10&#45;&gt;Node11</title>
<path fill="none" stroke="#191970" d="M1285.6525,-137.8302C1450.0432,-131.3774 1921.6708,-111.7057 2026.8766,-92.2104"/>
<polygon fill="#191970" stroke="#191970" points="2027.8322,-95.5855 2036.8847,-90.0807 2026.3752,-88.7388 2027.8322,-95.5855"/>
</g>
<!-- Node10&#45;&gt;Node12 -->
<g id="edge25" class="edge">
<title>Node10&#45;&gt;Node12</title>
<path fill="none" stroke="#191970" d="M1172.4592,-135.1779C1103.2215,-128.7046 982.293,-115.5613 869.538,-92.8657"/>
<polygon fill="#191970" stroke="#191970" points="870.1994,-89.4286 859.7013,-90.8569 868.7987,-96.2871 870.1994,-89.4286"/>
</g>
<!-- Node10&#45;&gt;Node13 -->
<g id="edge26" class="edge">
<title>Node10&#45;&gt;Node13</title>
<path fill="none" stroke="#191970" d="M1285.5719,-131.339C1291.1204,-130.5306 1296.6679,-129.7384 1302,-129 1428.4663,-111.4869 1462.161,-119.7518 1587,-93 1588.2581,-92.7304 1589.5355,-92.4372 1590.822,-92.1257"/>
<polygon fill="#191970" stroke="#191970" points="1591.9437,-95.4483 1600.687,-89.4644 1590.1205,-88.6899 1591.9437,-95.4483"/>
</g>
<!-- Node10&#45;&gt;Node14 -->
<g id="edge27" class="edge">
<title>Node10&#45;&gt;Node14</title>
<path fill="none" stroke="#191970" d="M1172.3883,-136.8817C1038.125,-129.4672 689.8587,-110.1224 399,-93 350.7837,-90.1616 295.3121,-86.7495 258.8396,-84.4859"/>
<polygon fill="#191970" stroke="#191970" points="258.8172,-80.9778 248.6194,-83.8508 258.383,-87.9643 258.8172,-80.9778"/>
</g>
<!-- Node16 -->
<g id="node21" class="node">
<title>Node16</title>
<polygon fill="#ffffff" stroke="#bfbfbf" points="1255.5,-71.5 1255.5,-92.5 1308.5,-92.5 1308.5,-71.5 1255.5,-71.5"/>
<text text-anchor="middle" x="1282" y="-78.9" font-family="Helvetica,sans-Serif" font-size="12.00" fill="#000000">iterator</text>
</g>
<!-- Node10&#45;&gt;Node16 -->
<g id="edge29" class="edge">
<title>Node10&#45;&gt;Node16</title>
<path fill="none" stroke="#191970" d="M1238.721,-129.3619C1246.192,-121.1861 1256.6857,-109.7025 1265.4689,-100.0907"/>
<polygon fill="#191970" stroke="#191970" points="1268.1786,-102.3138 1272.3406,-92.5707 1263.0111,-97.5918 1268.1786,-102.3138"/>
</g>
<!-- Node17 -->
<g id="node22" class="node">
<title>Node17</title>
<polygon fill="#ffffff" stroke="#bfbfbf" points="1327,-71.5 1327,-92.5 1427,-92.5 1427,-71.5 1327,-71.5"/>
<text text-anchor="middle" x="1377" y="-78.9" font-family="Helvetica,sans-Serif" font-size="12.00" fill="#000000">gsl/gsl_vector.h</text>
</g>
<!-- Node10&#45;&gt;Node17 -->
<g id="edge30" class="edge">
<title>Node10&#45;&gt;Node17</title>
<path fill="none" stroke="#191970" d="M1255.8017,-129.4966C1279.438,-120.2337 1314.1003,-106.6499 1340.3079,-96.3793"/>
<polygon fill="#191970" stroke="#191970" points="1341.8641,-99.5287 1349.8976,-92.6212 1339.3099,-93.0113 1341.8641,-99.5287"/>
</g>
<!-- Node18 -->
<g id="node23" class="node">
<title>Node18</title>
<polygon fill="#ffffff" stroke="#bfbfbf" points="1445,-71.5 1445,-92.5 1545,-92.5 1545,-71.5 1445,-71.5"/>
<text text-anchor="middle" x="1495" y="-78.9" font-family="Helvetica,sans-Serif" font-size="12.00" fill="#000000">gsl/gsl_matrix.h</text>
</g>
<!-- Node10&#45;&gt;Node18 -->
<g id="edge31" class="edge">
<title>Node10&#45;&gt;Node18</title>
<path fill="none" stroke="#191970" d="M1277.1706,-129.4966C1322.0376,-119.7136 1389.0097,-105.1107 1436.8384,-94.6819"/>
<polygon fill="#191970" stroke="#191970" points="1437.7143,-98.0732 1446.7391,-92.5231 1436.223,-91.2339 1437.7143,-98.0732"/>
</g>
<!-- Node19 -->
<g id="node24" class="node">
<title>Node19</title>
<polygon fill="#ffffff" stroke="#bfbfbf" points="877.5,-71.5 877.5,-92.5 974.5,-92.5 974.5,-71.5 877.5,-71.5"/>
<text text-anchor="middle" x="926" y="-78.9" font-family="Helvetica,sans-Serif" font-size="12.00" fill="#000000">gsl/gsl_linalg.h</text>
</g>
<!-- Node10&#45;&gt;Node19 -->
<g id="edge32" class="edge">
<title>Node10&#45;&gt;Node19</title>
<path fill="none" stroke="#191970" d="M1174.129,-129.4966C1120.6668,-119.263 1039.6516,-103.7551 984.8663,-93.2681"/>
<polygon fill="#191970" stroke="#191970" points="985.4342,-89.8134 974.9544,-91.3708 984.1181,-96.6885 985.4342,-89.8134"/>
</g>
<!-- Node20 -->
<g id="node25" class="node">
<title>Node20</title>
<polygon fill="#ffffff" stroke="#bfbfbf" points="993,-71.5 993,-92.5 1083,-92.5 1083,-71.5 993,-71.5"/>
<text text-anchor="middle" x="1038" y="-78.9" font-family="Helvetica,sans-Serif" font-size="12.00" fill="#000000">gsl/gsl_blas.h</text>
</g>
<!-- Node10&#45;&gt;Node20 -->
<g id="edge33" class="edge">
<title>Node10&#45;&gt;Node20</title>
<path fill="none" stroke="#191970" d="M1194.4113,-129.4966C1163.0036,-119.9592 1116.5103,-105.8408 1082.3747,-95.475"/>
<polygon fill="#191970" stroke="#191970" points="1083.2391,-92.0798 1072.6535,-92.5231 1081.2051,-98.7778 1083.2391,-92.0798"/>
</g>
<!-- Node21 -->
<g id="node26" class="node">
<title>Node21</title>
<polygon fill="#ffffff" stroke="#bfbfbf" points="1701,-71.5 1701,-92.5 1791,-92.5 1791,-71.5 1701,-71.5"/>
<text text-anchor="middle" x="1746" y="-78.9" font-family="Helvetica,sans-Serif" font-size="12.00" fill="#000000">gsl/gsl_poly.h</text>
</g>
<!-- Node10&#45;&gt;Node21 -->
<g id="edge34" class="edge">
<title>Node10&#45;&gt;Node21</title>
<path fill="none" stroke="#191970" d="M1285.732,-133.8877C1367.2366,-125.0696 1522.1757,-108.1696 1654,-93 1665.8605,-91.6352 1678.5767,-90.1371 1690.6555,-88.6978"/>
<polygon fill="#191970" stroke="#191970" points="1691.1051,-92.1691 1700.619,-87.5069 1690.2742,-85.2186 1691.1051,-92.1691"/>
</g>
<!-- Node10&#45;&gt;Node25 -->
<g id="edge38" class="edge">
<title>Node10&#45;&gt;Node25</title>
<path fill="none" stroke="#191970" d="M1172.2856,-135.9864C1062.7844,-128.1783 814.6338,-110.1981 606,-93 593.7766,-91.9924 580.874,-90.8858 568.2062,-89.7748"/>
<polygon fill="#191970" stroke="#191970" points="568.3835,-86.277 558.1146,-88.8847 567.7684,-93.2499 568.3835,-86.277"/>
</g>
<!-- Node26 -->
<g id="node28" class="node">
<title>Node26</title>
<g id="a_node28"><a xlink:href="IncludeEigen_8h_source.html" target="_top" xlink:title="IncludeEigen.h">
<polygon fill="#ffffff" stroke="#ff0000" points="1101.5,-71.5 1101.5,-92.5 1198.5,-92.5 1198.5,-71.5 1101.5,-71.5"/>
<text text-anchor="middle" x="1150" y="-78.9" font-family="Helvetica,sans-Serif" font-size="12.00" fill="#000000">IncludeEigen.h</text>
</a>
</g>
</g>
<!-- Node10&#45;&gt;Node26 -->
<g id="edge39" class="edge">
<title>Node10&#45;&gt;Node26</title>
<path fill="none" stroke="#191970" d="M1214.5102,-129.3619C1202.8173,-120.7773 1186.1573,-108.5459 1172.6969,-98.6636"/>
<polygon fill="#191970" stroke="#191970" points="1174.5301,-95.6675 1164.398,-92.5707 1170.3874,-101.31 1174.5301,-95.6675"/>
</g>
<!-- Node41&#45;&gt;Node1 -->
<g id="edge45" class="edge">
<title>Node41&#45;&gt;Node1</title>
<path fill="none" stroke="#191970" d="M435.9256,-316.394C423.9349,-308.0153 408.5647,-295.219 400,-280 353.8451,-197.9853 302.2595,-140.2375 366,-71 375.2586,-60.943 742.7918,-35.3207 919.2678,-23.5636"/>
<polygon fill="#191970" stroke="#191970" points="919.5796,-27.0507 929.3253,-22.8948 919.1151,-20.0661 919.5796,-27.0507"/>
</g>
<!-- Node41&#45;&gt;Node25 -->
<g id="edge47" class="edge">
<title>Node41&#45;&gt;Node25</title>
<path fill="none" stroke="#191970" d="M456.8753,-316.33C460.1296,-306.9046 464.6186,-292.7203 467,-280 478.9108,-216.3774 481.9569,-139.6172 482.7345,-103.1812"/>
<polygon fill="#191970" stroke="#191970" points="486.2399,-102.8958 482.9156,-92.8361 479.241,-102.7732 486.2399,-102.8958"/>
</g>
<!-- Node29 -->
<g id="node31" class="node">
<title>Node29</title>
<polygon fill="#ffffff" stroke="#bfbfbf" points="408.5,-252 408.5,-273 457.5,-273 457.5,-252 408.5,-252"/>
<text text-anchor="middle" x="433" y="-259.4" font-family="Helvetica,sans-Serif" font-size="12.00" fill="#000000">cmath</text>
</g>
<!-- Node41&#45;&gt;Node29 -->
<g id="edge46" class="edge">
<title>Node41&#45;&gt;Node29</title>
<path fill="none" stroke="#191970" d="M449.6974,-316.3491C446.906,-307.3469 442.8261,-294.1891 439.398,-283.1335"/>
<polygon fill="#191970" stroke="#191970" points="442.6791,-281.897 436.3743,-273.3823 435.9931,-283.9702 442.6791,-281.897"/>
</g>
<!-- Node42&#45;&gt;Node1 -->
<g id="edge54" class="edge">
<title>Node42&#45;&gt;Node1</title>
<path fill="none" stroke="#191970" d="M837.3784,-251.9968C801.9174,-236.2702 741.1917,-202.797 720,-151 706.5364,-118.0921 697.2364,-98.3133 720,-71 745.1048,-40.8776 843.5338,-27.6625 919.2482,-21.8979"/>
<polygon fill="#191970" stroke="#191970" points="919.5812,-25.3831 929.3004,-21.1657 919.0725,-18.4016 919.5812,-25.3831"/>
</g>
<!-- Node42&#45;&gt;Node37 -->
<g id="edge55" class="edge">
<title>Node42&#45;&gt;Node37</title>
<path fill="none" stroke="#191970" d="M948.2949,-253.19C1062.8931,-240.5332 1265.9857,-218.1026 1374.6213,-206.1043"/>
<polygon fill="#191970" stroke="#191970" points="1375.2781,-209.5532 1384.8334,-204.9764 1374.5096,-202.5955 1375.2781,-209.5532"/>
</g>
<!-- Node46&#45;&gt;Node1 -->
<g id="edge69" class="edge">
<title>Node46&#45;&gt;Node1</title>
<path fill="none" stroke="#191970" d="M1466.2683,-499.8678C1629.4809,-495.4193 2200.096,-478.1889 2230,-454 2254.7304,-433.996 2249,-416.8081 2249,-385 2249,-385 2249,-385 2249,-327 2249,-213.0002 2314.3574,-150.8556 2233,-71 2192.8943,-31.6346 1382.7608,-20.7829 1104.7192,-18.2117"/>
<polygon fill="#191970" stroke="#191970" points="1104.6889,-14.7114 1094.6574,-18.1202 1104.6251,-21.7111 1104.6889,-14.7114"/>
</g>
<!-- Node46&#45;&gt;Node3 -->
<g id="edge73" class="edge">
<title>Node46&#45;&gt;Node3</title>
<path fill="none" stroke="#191970" d="M1379.895,-496.9676C1271.8512,-486.8603 989.2036,-460.419 864.0954,-448.7154"/>
<polygon fill="#191970" stroke="#191970" points="864.2075,-445.2107 853.925,-447.7639 863.5555,-452.1802 864.2075,-445.2107"/>
</g>
<!-- Node46&#45;&gt;Node15 -->
<g id="edge95" class="edge">
<title>Node46&#45;&gt;Node15</title>
<path fill="none" stroke="#191970" d="M1466.0977,-499.4789C1613.6301,-494.1277 2097.7819,-475.3367 2252,-454 2392.2474,-434.5962 2563,-526.5833 2563,-385 2563,-385 2563,-385 2563,-140 2563,-90.8728 2513.2584,-53.1974 2479.489,-33.2804"/>
<polygon fill="#191970" stroke="#191970" points="2480.8659,-30.0372 2470.4425,-28.139 2477.4071,-36.123 2480.8659,-30.0372"/>
</g>
<!-- Node46&#45;&gt;Node36 -->
<g id="edge74" class="edge">
<title>Node46&#45;&gt;Node36</title>
<path fill="none" stroke="#191970" d="M1415.0252,-490.4182C1408.0978,-481.0494 1397.9557,-466.8985 1390,-454 1368.8091,-419.6433 1370.1951,-407.0366 1347,-374 1321.8493,-338.1782 1286.5386,-301.2575 1265.3028,-280.1706"/>
<polygon fill="#191970" stroke="#191970" points="1267.7456,-277.664 1258.1607,-273.1494 1262.8383,-282.6558 1267.7456,-277.664"/>
</g>
<!-- Node46&#45;&gt;Node10 -->
<g id="edge71" class="edge">
<title>Node46&#45;&gt;Node10</title>
<path fill="none" stroke="#191970" d="M1420.0313,-490.2216C1414.6875,-469.841 1404,-424.1819 1404,-385 1404,-385 1404,-385 1404,-327 1404,-243.8738 1310.6715,-182.4299 1260.3259,-155.3317"/>
<polygon fill="#191970" stroke="#191970" points="1261.6451,-152.0714 1251.1639,-150.5237 1258.3923,-158.2697 1261.6451,-152.0714"/>
</g>
<!-- Node46&#45;&gt;Node11 -->
<g id="edge91" class="edge">
<title>Node46&#45;&gt;Node11</title>
<path fill="none" stroke="#191970" d="M1466.1105,-498.8597C1577.0423,-493.097 1870.2779,-476.1784 1965,-454 2046.0012,-435.0343 2139,-468.1919 2139,-385 2139,-385 2139,-385 2139,-327 2139,-238.8105 2170.7473,-204.9938 2126,-129 2115.4862,-111.1445 2095.214,-98.9127 2078.6954,-91.4135"/>
<polygon fill="#191970" stroke="#191970" points="2079.5912,-87.9937 2069.0161,-87.3479 2076.8804,-94.4475 2079.5912,-87.9937"/>
</g>
<!-- Node46&#45;&gt;Node13 -->
<g id="edge100" class="edge">
<title>Node46&#45;&gt;Node13</title>
<path fill="none" stroke="#191970" d="M1425.9688,-490.2216C1431.3125,-469.841 1442,-424.1819 1442,-385 1442,-385 1442,-385 1442,-327 1442,-285.4284 1417.4751,-281.1797 1397,-245 1387.8768,-228.8793 1380.8342,-226.8813 1376,-209 1373.4482,-199.5611 1370.9496,-195.3725 1376,-187 1404.5475,-139.675 1435.2649,-150.9218 1486,-129 1505.1707,-120.7166 1557.1403,-103.3957 1591.2755,-92.2523"/>
<polygon fill="#191970" stroke="#191970" points="1592.3884,-95.5708 1600.8141,-89.1475 1590.2218,-88.9146 1592.3884,-95.5708"/>
</g>
<!-- Node46&#45;&gt;Node14 -->
<g id="edge99" class="edge">
<title>Node46&#45;&gt;Node14</title>
<path fill="none" stroke="#191970" d="M1379.855,-500.1174C1202.9317,-496.3357 538.0854,-480.4764 448,-454 339.6811,-422.1647 228,-439.9003 228,-327 228,-327 228,-327 228,-198 228,-164.4974 224.2222,-125.7146 221.5617,-102.5566"/>
<polygon fill="#191970" stroke="#191970" points="225.0262,-102.0502 220.3669,-92.5349 218.0755,-102.8789 225.0262,-102.0502"/>
</g>
<!-- Node46&#45;&gt;Node21 -->
<g id="edge98" class="edge">
<title>Node46&#45;&gt;Node21</title>
<path fill="none" stroke="#191970" d="M1466.1225,-498.1477C1508.008,-493.7347 1572.1149,-482.5118 1620,-454 1649.7472,-436.2879 1656.7016,-427.0576 1672,-396 1713.7543,-311.2334 1687.3371,-278.4815 1711,-187 1718.7801,-156.922 1730.6938,-122.9538 1738.4164,-102.0071"/>
<polygon fill="#191970" stroke="#191970" points="1741.7146,-103.1795 1741.9316,-92.5869 1735.1563,-100.7322 1741.7146,-103.1795"/>
</g>
<!-- Node46&#45;&gt;Node25 -->
<g id="edge70" class="edge">
<title>Node46&#45;&gt;Node25</title>
<path fill="none" stroke="#191970" d="M1379.9494,-499.6006C1205.1753,-493.4619 555.3368,-466.0326 500,-396 473.6979,-362.7129 543.7379,-340.626 545,-338 549.2356,-329.1873 546.2627,-325.6959 545,-316 534.4603,-235.0693 504.2338,-142.2705 490.2533,-102.1798"/>
<polygon fill="#191970" stroke="#191970" points="493.4762,-100.795 486.8453,-92.5317 486.8758,-103.1265 493.4762,-100.795"/>
</g>
<!-- Node46&#45;&gt;Node31 -->
<g id="edge92" class="edge">
<title>Node46&#45;&gt;Node31</title>
<path fill="none" stroke="#191970" d="M1466.3256,-495.48C1521.1079,-485.9202 1613.3003,-460.6443 1655,-396 1679.9085,-357.386 1653.6242,-214.7264 1642.4856,-160.8153"/>
<polygon fill="#191970" stroke="#191970" points="1645.8471,-159.7924 1640.3625,-150.7277 1638.9972,-161.2342 1645.8471,-159.7924"/>
</g>
<!-- Node46&#45;&gt;Node41 -->
<g id="edge72" class="edge">
<title>Node46&#45;&gt;Node41</title>
<path fill="none" stroke="#191970" d="M1379.9014,-500.4233C1197.9761,-497.7937 500.6564,-485.674 467,-454 438.3361,-427.0244 442.6824,-376.4275 448.0487,-347.9159"/>
<polygon fill="#191970" stroke="#191970" points="451.5355,-348.3418 450.1649,-337.836 444.6849,-346.9036 451.5355,-348.3418"/>
</g>
<!-- Node46&#45;&gt;Node43 -->
<g id="edge97" class="edge">
<title>Node46&#45;&gt;Node43</title>
<path fill="none" stroke="#191970" d="M1399.4673,-490.2949C1353.6191,-469.4385 1252.2731,-423.336 1200.2274,-399.6603"/>
<polygon fill="#191970" stroke="#191970" points="1201.6593,-396.4666 1191.1075,-395.5117 1198.7607,-402.8383 1201.6593,-396.4666"/>
</g>
<!-- Node46&#45;&gt;Node44 -->
<g id="edge96" class="edge">
<title>Node46&#45;&gt;Node44</title>
<path fill="none" stroke="#191970" d="M1404.7157,-490.4542C1389.8942,-481.5467 1368.7869,-468.0302 1352,-454 1333.2866,-438.3597 1314.2836,-417.9067 1301.5047,-403.3386"/>
<polygon fill="#191970" stroke="#191970" points="1303.9362,-400.7993 1294.7492,-395.522 1298.64,-405.3765 1303.9362,-400.7993"/>
</g>
<!-- Node47 -->
<g id="node37" class="node">
<title>Node47</title>
<g id="a_node37"><a xlink:href="ExternalStoppingConditions_8h.html" target="_top" xlink:title="Users can define any stopping condition they wish the evolution to search for in this file...">
<polygon fill="#ffffff" stroke="#000000" points="1470,-374.5 1470,-395.5 1646,-395.5 1646,-374.5 1470,-374.5"/>
<text text-anchor="middle" x="1558" y="-381.9" font-family="Helvetica,sans-Serif" font-size="12.00" fill="#000000">ExternalStoppingConditions.h</text>
</a>
</g>
</g>
<!-- Node46&#45;&gt;Node47 -->
<g id="edge75" class="edge">
<title>Node46&#45;&gt;Node47</title>
<path fill="none" stroke="#191970" d="M1435.4585,-490.2949C1458.8659,-470.1819 1509.5974,-426.5904 1537.8952,-402.2752"/>
<polygon fill="#191970" stroke="#191970" points="1540.268,-404.851 1545.5716,-395.6792 1535.7059,-399.5418 1540.268,-404.851"/>
</g>
<!-- Node48 -->
<g id="node38" class="node">
<title>Node48</title>
<g id="a_node38"><a xlink:href="StopInformation_8h.html" target="_top" xlink:title="Declares the StopInformation class. ">
<polygon fill="#ffffff" stroke="#000000" points="1719,-252 1719,-273 1829,-273 1829,-252 1719,-252"/>
<text text-anchor="middle" x="1774" y="-259.4" font-family="Helvetica,sans-Serif" font-size="12.00" fill="#000000">StopInformation.h</text>
</a>
</g>
</g>
<!-- Node46&#45;&gt;Node48 -->
<g id="edge79" class="edge">
<title>Node46&#45;&gt;Node48</title>
<path fill="none" stroke="#191970" d="M1466.148,-498.0913C1553.3745,-491.7823 1744.1143,-475.6477 1764,-454 1807.4374,-406.7138 1791.1004,-321.9833 1780.4007,-283.0679"/>
<polygon fill="#191970" stroke="#191970" points="1783.7363,-282.0034 1777.5867,-273.3758 1777.0139,-283.9552 1783.7363,-282.0034"/>
</g>
<!-- Node49 -->
<g id="node39" class="node">
<title>Node49</title>
<g id="a_node39"><a xlink:href="StopHistoryInterval_8h.html" target="_top" xlink:title="Declares the StopHistoryInterval class. ">
<polygon fill="#ffffff" stroke="#000000" points="1989,-129.5 1989,-150.5 2117,-150.5 2117,-129.5 1989,-129.5"/>
<text text-anchor="middle" x="2053" y="-136.9" font-family="Helvetica,sans-Serif" font-size="12.00" fill="#000000">StopHistoryInterval.h</text>
</a>
</g>
</g>
<!-- Node46&#45;&gt;Node49 -->
<g id="edge82" class="edge">
<title>Node46&#45;&gt;Node49</title>
<path fill="none" stroke="#191970" d="M1466.1845,-498.2014C1615.525,-487.9551 2101,-449.6727 2101,-385 2101,-385 2101,-385 2101,-327 2101,-264.4266 2075.4735,-193.6691 2061.6508,-159.9408"/>
<polygon fill="#191970" stroke="#191970" points="2064.8749,-158.5787 2057.7779,-150.7122 2058.4203,-161.2875 2064.8749,-158.5787"/>
</g>
<!-- Node50 -->
<g id="node41" class="node">
<title>Node50</title>
<polygon fill="#ffffff" stroke="#bfbfbf" points="2167.5,-432.5 2167.5,-453.5 2220.5,-453.5 2220.5,-432.5 2167.5,-432.5"/>
<text text-anchor="middle" x="2194" y="-439.9" font-family="Helvetica,sans-Serif" font-size="12.00" fill="#000000">math.h</text>
</g>
<!-- Node46&#45;&gt;Node50 -->
<g id="edge90" class="edge">
<title>Node46&#45;&gt;Node50</title>
<path fill="none" stroke="#191970" d="M1466.0943,-499.3465C1601.827,-493.9618 2019.3873,-476.0023 2153,-454 2154.4544,-453.7605 2155.9317,-453.4913 2157.4196,-453.1985"/>
<polygon fill="#191970" stroke="#191970" points="2158.2701,-456.5947 2167.2598,-450.988 2156.7359,-449.7649 2158.2701,-456.5947"/>
</g>
<!-- Node51 -->
<g id="node42" class="node">
<title>Node51</title>
<polygon fill="#ffffff" stroke="#bfbfbf" points="1143.5,-432.5 1143.5,-453.5 1198.5,-453.5 1198.5,-432.5 1143.5,-432.5"/>
<text text-anchor="middle" x="1171" y="-439.9" font-family="Helvetica,sans-Serif" font-size="12.00" fill="#000000">stdlib.h</text>
</g>
<!-- Node46&#45;&gt;Node51 -->
<g id="edge93" class="edge">
<title>Node46&#45;&gt;Node51</title>
<path fill="none" stroke="#191970" d="M1379.9478,-492.5619C1338.5117,-484.2239 1273.8955,-470.6555 1208.8384,-454.0852"/>
<polygon fill="#191970" stroke="#191970" points="1209.3755,-450.6095 1198.819,-451.5099 1207.6329,-457.3892 1209.3755,-450.6095"/>
</g>
<!-- Node32 -->
<g id="node43" class="node">
<title>Node32</title>
<polygon fill="#ffffff" stroke="#bfbfbf" points="1757,-129.5 1757,-150.5 1813,-150.5 1813,-129.5 1757,-129.5"/>
<text text-anchor="middle" x="1785" y="-136.9" font-family="Helvetica,sans-Serif" font-size="12.00" fill="#000000">fstream</text>
</g>
<!-- Node46&#45;&gt;Node32 -->
<g id="edge94" class="edge">
<title>Node46&#45;&gt;Node32</title>
<path fill="none" stroke="#191970" d="M1466.0138,-498.7747C1549.3301,-493.9205 1729.4134,-480.6199 1785,-454 1824.9746,-434.8565 1857,-429.3221 1857,-385 1857,-385 1857,-385 1857,-327 1857,-262.0908 1818.7535,-192.4632 1798.0113,-159.4749"/>
<polygon fill="#191970" stroke="#191970" points="1800.7918,-157.3282 1792.4341,-150.8167 1794.907,-161.1189 1800.7918,-157.3282"/>
</g>
<!-- Node52 -->
<g id="node44" class="node">
<title>Node52</title>
<polygon fill="#ffffff" stroke="#bfbfbf" points="1216.5,-432.5 1216.5,-453.5 1261.5,-453.5 1261.5,-432.5 1216.5,-432.5"/>
<text text-anchor="middle" x="1239" y="-439.9" font-family="Helvetica,sans-Serif" font-size="12.00" fill="#000000">ctime</text>
</g>
<!-- Node46&#45;&gt;Node52 -->
<g id="edge101" class="edge">
<title>Node46&#45;&gt;Node52</title>
<path fill="none" stroke="#191970" d="M1389.679,-490.4966C1356.0796,-479.9055 1304.5591,-463.6654 1271.3209,-453.1881"/>
<polygon fill="#191970" stroke="#191970" points="1272.2222,-449.8025 1261.6326,-450.1342 1270.1177,-456.4787 1272.2222,-449.8025"/>
</g>
<!-- Node47&#45;&gt;Node1 -->
<g id="edge76" class="edge">
<title>Node47&#45;&gt;Node1</title>
<path fill="none" stroke="#191970" d="M1556.1973,-374.3593C1550.2487,-335.3299 1535.3786,-198.6903 1605,-129 1668.9043,-65.0325 1861.7325,-137.0659 1800,-71 1776.5814,-45.9375 1308.2347,-27.3655 1104.8936,-20.4519"/>
<polygon fill="#191970" stroke="#191970" points="1104.9377,-16.9515 1094.8252,-20.1117 1104.7013,-23.9475 1104.9377,-16.9515"/>
</g>
<!-- Node47&#45;&gt;Node5 -->
<g id="edge78" class="edge">
<title>Node47&#45;&gt;Node5</title>
<path fill="none" stroke="#191970" d="M1469.8406,-376.3481C1350.7614,-364.6619 1141.1297,-344.0889 1034.0523,-333.5804"/>
<polygon fill="#191970" stroke="#191970" points="1034.3106,-330.0891 1024.0166,-332.5955 1033.6269,-337.0556 1034.3106,-330.0891"/>
</g>
<!-- Node47&#45;&gt;Node37 -->
<g id="edge77" class="edge">
<title>Node47&#45;&gt;Node37</title>
<path fill="none" stroke="#191970" d="M1551.7708,-374.4103C1534.0059,-344.2101 1482.8856,-257.3055 1459.6925,-217.8772"/>
<polygon fill="#191970" stroke="#191970" points="1462.5219,-215.7841 1454.4349,-208.9394 1456.4884,-219.3333 1462.5219,-215.7841"/>
</g>
<!-- Node48&#45;&gt;Node1 -->
<g id="edge80" class="edge">
<title>Node48&#45;&gt;Node1</title>
<path fill="none" stroke="#191970" d="M1829.0479,-257.7836C1971.0804,-243.7342 2330.7402,-195.152 2212,-71 2173.9101,-31.1741 1380.3812,-20.6405 1105.0827,-18.1792"/>
<polygon fill="#191970" stroke="#191970" points="1104.7531,-14.6763 1094.7227,-18.0882 1104.6915,-21.676 1104.7531,-14.6763"/>
</g>
<!-- Node48&#45;&gt;Node37 -->
<g id="edge81" class="edge">
<title>Node48&#45;&gt;Node37</title>
<path fill="none" stroke="#191970" d="M1720.8969,-251.9934C1663.472,-240.6317 1571.9844,-222.5307 1510.975,-210.4598"/>
<polygon fill="#191970" stroke="#191970" points="1511.5695,-207.0096 1501.0804,-208.5021 1510.2108,-213.8765 1511.5695,-207.0096"/>
</g>
<!-- Node49&#45;&gt;Node1 -->
<g id="edge83" class="edge">
<title>Node49&#45;&gt;Node1</title>
<path fill="none" stroke="#191970" d="M2062.9012,-129.2635C2075.4378,-114.373 2093.6296,-87.4337 2078,-71 2044.7199,-36.0078 1358.6332,-22.5272 1105.0973,-18.7286"/>
<polygon fill="#191970" stroke="#191970" points="1104.8572,-15.2247 1094.8065,-18.5762 1104.7535,-22.224 1104.8572,-15.2247"/>
</g>
<!-- Node49&#45;&gt;Node22 -->
<g id="edge84" class="edge">
<title>Node49&#45;&gt;Node22</title>
<path fill="none" stroke="#191970" d="M1988.9581,-129.9083C1985.9336,-129.5707 1982.9359,-129.2647 1980,-129 1453.8921,-81.5609 1319.5418,-120.1959 792,-93 753.021,-90.9905 708.4566,-87.6112 677.9011,-85.1273"/>
<polygon fill="#191970" stroke="#191970" points="677.9627,-81.6207 667.7096,-84.2898 677.3893,-88.5972 677.9627,-81.6207"/>
</g>
<!-- Node49&#45;&gt;Node8 -->
<g id="edge87" class="edge">
<title>Node49&#45;&gt;Node8</title>
<path fill="none" stroke="#191970" d="M2041.2614,-129.3619C2032.0594,-121.0226 2019.0599,-109.2418 2008.3283,-99.5162"/>
<polygon fill="#191970" stroke="#191970" points="2010.4244,-96.6924 2000.6642,-92.5707 2005.7237,-101.8793 2010.4244,-96.6924"/>
</g>
<!-- Node49&#45;&gt;Node9 -->
<g id="edge88" class="edge">
<title>Node49&#45;&gt;Node9</title>
<path fill="none" stroke="#191970" d="M2020.7655,-129.4966C1990.3003,-119.5698 1944.6048,-104.6802 1912.5169,-94.2246"/>
<polygon fill="#191970" stroke="#191970" points="1913.2057,-90.768 1902.6134,-90.9976 1911.037,-97.4236 1913.2057,-90.768"/>
</g>
<!-- Node49&#45;&gt;Node11 -->
<g id="edge86" class="edge">
<title>Node49&#45;&gt;Node11</title>
<path fill="none" stroke="#191970" d="M2053,-129.3619C2053,-121.9219 2053,-111.7427 2053,-102.7276"/>
<polygon fill="#191970" stroke="#191970" points="2056.5001,-102.5706 2053,-92.5707 2049.5001,-102.5707 2056.5001,-102.5706"/>
</g>
<!-- Node49&#45;&gt;Node12 -->
<g id="edge85" class="edge">
<title>Node49&#45;&gt;Node12</title>
<path fill="none" stroke="#191970" d="M1988.9574,-129.916C1985.933,-129.5763 1982.9356,-129.2678 1980,-129 1491.3694,-84.4234 1359.0217,-167.4617 869.7993,-92.7279"/>
<polygon fill="#191970" stroke="#191970" points="870.063,-89.2273 859.6464,-91.1622 868.9961,-96.1455 870.063,-89.2273"/>
</g>
<!-- Node33 -->
<g id="node40" class="node">
<title>Node33</title>
<polygon fill="#ffffff" stroke="#bfbfbf" points="2125.5,-71.5 2125.5,-92.5 2184.5,-92.5 2184.5,-71.5 2125.5,-71.5"/>
<text text-anchor="middle" x="2155" y="-78.9" font-family="Helvetica,sans-Serif" font-size="12.00" fill="#000000">iomanip</text>
</g>
<!-- Node49&#45;&gt;Node33 -->
<g id="edge89" class="edge">
<title>Node49&#45;&gt;Node33</title>
<path fill="none" stroke="#191970" d="M2071.7084,-129.3619C2087.3806,-120.4502 2109.9641,-107.6087 2127.6627,-97.5447"/>
<polygon fill="#191970" stroke="#191970" points="2129.4474,-100.5562 2136.4102,-92.5707 2125.9872,-94.4712 2129.4474,-100.5562"/>
</g>
<!-- Node53&#45;&gt;Node1 -->
<g id="edge116" class="edge">
<title>Node53&#45;&gt;Node1</title>
<path fill="none" stroke="#191970" d="M2413.2927,-316.2218C2405.9477,-271.3923 2375.4755,-100.6532 2333,-71 2282.7808,-35.9407 1397.7873,-22.1507 1105.1119,-18.5363"/>
<polygon fill="#191970" stroke="#191970" points="1104.9948,-15.0347 1094.9527,-18.412 1104.9091,-22.0342 1104.9948,-15.0347"/>
</g>
<!-- Node53&#45;&gt;Node7 -->
<g id="edge119" class="edge">
<title>Node53&#45;&gt;Node7</title>
<path fill="none" stroke="#191970" d="M2380.0703,-316.4248C2350.1726,-307.2319 2306.0568,-293.3314 2268,-280 2145.2605,-237.0041 2001.7205,-180.3734 1936.4874,-154.284"/>
<polygon fill="#191970" stroke="#191970" points="1937.6582,-150.9826 1927.0738,-150.5135 1935.0555,-157.4808 1937.6582,-150.9826"/>
</g>
<!-- Node54 -->
<g id="node46" class="node">
<title>Node54</title>
<g id="a_node46"><a xlink:href="StellarEvolution_2CInterface_8h.html" target="_top" xlink:title="Declare C&#45;style functions for accessing the functionality of the StellarEvolution library...">
<polygon fill="#ffffff" stroke="#000000" points="2277,-245.5 2277,-279.5 2387,-279.5 2387,-245.5 2277,-245.5"/>
<text text-anchor="start" x="2285" y="-265.9" font-family="Helvetica,sans-Serif" font-size="12.00" fill="#000000">../StellarEvolution</text>
<text text-anchor="middle" x="2332" y="-252.9" font-family="Helvetica,sans-Serif" font-size="12.00" fill="#000000">/CInterface.h</text>
</a>
</g>
</g>
<!-- Node53&#45;&gt;Node54 -->
<g id="edge103" class="edge">
<title>Node53&#45;&gt;Node54</title>
<path fill="none" stroke="#191970" d="M2401.2942,-316.3491C2390.6941,-308.1117 2375.6166,-296.3948 2362.2313,-285.993"/>
<polygon fill="#191970" stroke="#191970" points="2364.2147,-283.1017 2354.1709,-279.7292 2359.9194,-288.629 2364.2147,-283.1017"/>
</g>
<!-- Node82 -->
<g id="node48" class="node">
<title>Node82</title>
<g id="a_node48"><a xlink:href="EvolvingStar_8h.html" target="_top" xlink:title="Declares the class for stars that user pre&#45;tabulated stellar evolution tracks. ">
<polygon fill="#ffffff" stroke="#ff0000" points="2401.5,-187.5 2401.5,-208.5 2496.5,-208.5 2496.5,-187.5 2401.5,-187.5"/>
<text text-anchor="middle" x="2449" y="-194.9" font-family="Helvetica,sans-Serif" font-size="12.00" fill="#000000">EvolvingStar.h</text>
</a>
</g>
</g>
<!-- Node53&#45;&gt;Node82 -->
<g id="edge117" class="edge">
<title>Node53&#45;&gt;Node82</title>
<path fill="none" stroke="#191970" d="M2418.3801,-316.2168C2421.3169,-306.7189 2425.6184,-292.4917 2429,-280 2434.6537,-259.115 2440.439,-235.0426 2444.3233,-218.4077"/>
<polygon fill="#191970" stroke="#191970" points="2447.7346,-219.1902 2446.5808,-208.6584 2440.9151,-217.611 2447.7346,-219.1902"/>
</g>
<!-- Node54&#45;&gt;Node1 -->
<g id="edge104" class="edge">
<title>Node54&#45;&gt;Node1</title>
<path fill="none" stroke="#191970" d="M2336.508,-245.2896C2345.276,-207.4041 2359.7593,-116.5487 2311,-71 2267.0389,-29.9336 1395.1686,-20.1615 1105.0122,-18.0423"/>
<polygon fill="#191970" stroke="#191970" points="1104.963,-14.5419 1094.9382,-17.9701 1104.9128,-21.5418 1104.963,-14.5419"/>
</g>
<!-- Node55 -->
<g id="node47" class="node">
<title>Node55</title>
<g id="a_node47"><a xlink:href="MESAIO_8h.html" target="_top" xlink:title="Defines the classes for generating stellar evolution interpolators from the MESA tracks. ">
<polygon fill="#ffffff" stroke="#ff0000" points="1719.5,-187.5 1719.5,-208.5 1792.5,-208.5 1792.5,-187.5 1719.5,-187.5"/>
<text text-anchor="middle" x="1756" y="-194.9" font-family="Helvetica,sans-Serif" font-size="12.00" fill="#000000">MESAIO.h</text>
</a>
</g>
</g>
<!-- Node54&#45;&gt;Node55 -->
<g id="edge105" class="edge">
<title>Node54&#45;&gt;Node55</title>
<path fill="none" stroke="#191970" d="M2276.7707,-256.3155C2163.8177,-243.6671 1908.1868,-215.0418 1802.784,-203.2388"/>
<polygon fill="#191970" stroke="#191970" points="1803.0924,-199.7516 1792.7649,-202.1169 1802.3133,-206.7081 1803.0924,-199.7516"/>
</g>
<!-- Node55&#45;&gt;Node1 -->
<g id="edge106" class="edge">
<title>Node55&#45;&gt;Node1</title>
<path fill="none" stroke="#191970" d="M1792.5845,-197.1277C1877.9232,-194.5397 2087.4998,-184.8256 2148,-151 2183.799,-130.9849 2222.3382,-100.6499 2194,-71 2156.5593,-31.8263 1377.5952,-20.8821 1105.117,-18.2461"/>
<polygon fill="#191970" stroke="#191970" points="1104.8928,-14.7439 1094.8599,-18.1485 1104.8261,-21.7436 1104.8928,-14.7439"/>
</g>
<!-- Node55&#45;&gt;Node22 -->
<g id="edge109" class="edge">
<title>Node55&#45;&gt;Node22</title>
<path fill="none" stroke="#191970" d="M1719.2214,-195.747C1626.1328,-189.8997 1373.6763,-173.1396 1164,-151 980.8292,-131.6591 762.681,-100.1226 677.5564,-87.4884"/>
<polygon fill="#191970" stroke="#191970" points="678.0178,-84.0185 667.6115,-86.0084 676.9873,-90.9423 678.0178,-84.0185"/>
</g>
<!-- Node55&#45;&gt;Node15 -->
<g id="edge110" class="edge">
<title>Node55&#45;&gt;Node15</title>
<path fill="none" stroke="#191970" d="M1792.5476,-195.8942C1884.1371,-190.3315 2121.5267,-174.0718 2197,-151 2287.174,-123.4342 2382.6519,-62.9953 2425.6331,-33.8527"/>
<polygon fill="#191970" stroke="#191970" points="2427.7137,-36.6699 2433.9872,-28.1321 2423.7587,-30.8942 2427.7137,-36.6699"/>
</g>
<!-- Node55&#45;&gt;Node24 -->
<g id="edge113" class="edge">
<title>Node55&#45;&gt;Node24</title>
<path fill="none" stroke="#191970" d="M1719.3258,-196.1982C1586.6417,-189.611 1131.8087,-166.4158 987,-151 944.4196,-146.467 639.5155,-119.6524 606,-93 589.3374,-79.7494 581.8945,-55.878 578.5918,-38.5161"/>
<polygon fill="#191970" stroke="#191970" points="581.9833,-37.5544 576.964,-28.224 575.0692,-38.648 581.9833,-37.5544"/>
</g>
<!-- Node55&#45;&gt;Node9 -->
<g id="edge114" class="edge">
<title>Node55&#45;&gt;Node9</title>
<path fill="none" stroke="#191970" d="M1750.5917,-187.0998C1744.2018,-172.5001 1735.8729,-146.4189 1748,-129 1753.4026,-121.24 1802.1684,-104.6723 1837.6636,-93.4313"/>
<polygon fill="#191970" stroke="#191970" points="1838.7834,-96.7482 1847.276,-90.4137 1836.6868,-90.0695 1838.7834,-96.7482"/>
</g>
<!-- Node55&#45;&gt;Node10 -->
<g id="edge107" class="edge">
<title>Node55&#45;&gt;Node10</title>
<path fill="none" stroke="#191970" d="M1719.3608,-193.9676C1631.6482,-184.3142 1408.5543,-159.7612 1296.0441,-147.3787"/>
<polygon fill="#191970" stroke="#191970" points="1296.1606,-143.8704 1285.8377,-146.2554 1295.3948,-150.8284 1296.1606,-143.8704"/>
</g>
<!-- Node55&#45;&gt;Node25 -->
<g id="edge108" class="edge">
<title>Node55&#45;&gt;Node25</title>
<path fill="none" stroke="#191970" d="M1719.418,-196.2893C1539.9444,-187.8953 761.0365,-151.4479 758,-151 674.5105,-138.6851 579.5044,-111.9165 525.8555,-95.578"/>
<polygon fill="#191970" stroke="#191970" points="526.5991,-92.1451 516.0122,-92.5556 524.5444,-98.8368 526.5991,-92.1451"/>
</g>
<!-- Node55&#45;&gt;Node31 -->
<g id="edge115" class="edge">
<title>Node55&#45;&gt;Node31</title>
<path fill="none" stroke="#191970" d="M1734.6311,-187.4966C1716.201,-178.4378 1689.3629,-165.2462 1668.6449,-155.0628"/>
<polygon fill="#191970" stroke="#191970" points="1670.1271,-151.8914 1659.6087,-150.6212 1667.0392,-158.1735 1670.1271,-151.8914"/>
</g>
<!-- Node55&#45;&gt;Node33 -->
<g id="edge111" class="edge">
<title>Node55&#45;&gt;Node33</title>
<path fill="none" stroke="#191970" d="M1792.6657,-195.4189C1880.9006,-188.9166 2099.7353,-170.9514 2126,-151 2141.217,-139.4407 2148.521,-118.3916 2151.9818,-102.5705"/>
<polygon fill="#191970" stroke="#191970" points="2155.4426,-103.1024 2153.8137,-92.6335 2148.5586,-101.8333 2155.4426,-103.1024"/>
</g>
<!-- Node55&#45;&gt;Node32 -->
<g id="edge112" class="edge">
<title>Node55&#45;&gt;Node32</title>
<path fill="none" stroke="#191970" d="M1761.319,-187.3619C1765.2026,-179.5949 1770.5787,-168.8426 1775.2271,-159.5458"/>
<polygon fill="#191970" stroke="#191970" points="1778.373,-161.0802 1779.7147,-150.5707 1772.112,-157.9497 1778.373,-161.0802"/>
</g>
<!-- Node82&#45;&gt;Node1 -->
<g id="edge118" class="edge">
<title>Node82&#45;&gt;Node1</title>
<path fill="none" stroke="#191970" d="M2447.493,-187.4214C2443.2615,-162.1211 2428.723,-98.2026 2387,-71 2333.3846,-36.0438 1405.7118,-22.1191 1105.1564,-18.5124"/>
<polygon fill="#191970" stroke="#191970" points="1104.7727,-15.0077 1094.7318,-18.3884 1104.6894,-22.0072 1104.7727,-15.0077"/>
</g>
<!-- Node92&#45;&gt;Node1 -->
<g id="edge121" class="edge">
<title>Node92&#45;&gt;Node1</title>
<path fill="none" stroke="#191970" d="M237.957,-490.3662C229.2357,-481.4076 217.3491,-467.8653 210,-454 195.0472,-425.7888 190,-416.9289 190,-385 190,-385 190,-385 190,-198 190,-141.414 142.2943,-112.2777 181,-71 187.2588,-64.3253 703.7563,-34.7251 919.2212,-22.6525"/>
<polygon fill="#191970" stroke="#191970" points="919.462,-26.1445 929.2507,-22.091 919.0706,-19.1555 919.462,-26.1445"/>
</g>
<!-- Node93 -->
<g id="node50" class="node">
<title>Node93</title>
<g id="a_node50"><a xlink:href="Planet_8h.html" target="_top" xlink:title="Declares a class for planets that are always locked to the orbit. ">
<polygon fill="#ffffff" stroke="#ff0000" points="218.5,-432.5 218.5,-453.5 279.5,-453.5 279.5,-432.5 218.5,-432.5"/>
<text text-anchor="middle" x="249" y="-439.9" font-family="Helvetica,sans-Serif" font-size="12.00" fill="#000000">Planet.h</text>
</a>
</g>
</g>
<!-- Node92&#45;&gt;Node93 -->
<g id="edge122" class="edge">
<title>Node92&#45;&gt;Node93</title>
<path fill="none" stroke="#191970" d="M249,-490.3619C249,-482.9219 249,-472.7427 249,-463.7276"/>
<polygon fill="#191970" stroke="#191970" points="252.5001,-463.5706 249,-453.5707 245.5001,-463.5707 252.5001,-463.5706"/>
</g>
<!-- Node93&#45;&gt;Node1 -->
<g id="edge123" class="edge">
<title>Node93&#45;&gt;Node1</title>
<path fill="none" stroke="#191970" d="M230.755,-432.3884C202.6565,-414.518 152,-375.5663 152,-327 152,-327 152,-327 152,-262.5 152,-177.3599 88.6847,-133.0336 147,-71 150.2827,-67.5079 696.9029,-35.6491 919.4004,-22.8181"/>
<polygon fill="#191970" stroke="#191970" points="919.6445,-26.3099 929.4265,-22.2401 919.2416,-19.3215 919.6445,-26.3099"/>
</g>
<!-- Node93&#45;&gt;Node4 -->
<g id="edge124" class="edge">
<title>Node93&#45;&gt;Node4</title>
<path fill="none" stroke="#191970" d="M279.8146,-439.5025C360.6883,-430.323 580.474,-405.3767 692.4585,-392.6662"/>
<polygon fill="#191970" stroke="#191970" points="693.0824,-396.1179 702.6238,-391.5124 692.2929,-389.1626 693.0824,-396.1179"/>
</g>
</g>
</svg>
