<?xml version="1.0" encoding="UTF-8" standalone="no"?>
<!DOCTYPE svg PUBLIC "-//W3C//DTD SVG 1.1//EN"
 "http://www.w3.org/Graphics/SVG/1.1/DTD/svg11.dtd">
<!-- Generated by graphviz version 2.40.1 (20161225.0304)
 -->
<!-- Title: /home/kpenev/projects/git/poet/poet_src/StellarEvolution/EvolvingStellarQuantity.h Pages: 1 -->
<svg width="2411pt" height="443pt"
 viewBox="0.00 0.00 2411.00 443.00" xmlns="http://www.w3.org/2000/svg" xmlns:xlink="http://www.w3.org/1999/xlink">
<g id="graph0" class="graph" transform="scale(1 1) rotate(0) translate(4 439)">
<title>/home/kpenev/projects/git/poet/poet_src/StellarEvolution/EvolvingStellarQuantity.h</title>
<polygon fill="#ffffff" stroke="transparent" points="-4,4 -4,-439 2407,-439 2407,4 -4,4"/>
<!-- Node0 -->
<g id="node1" class="node">
<title>Node0</title>
<polygon fill="#bfbfbf" stroke="#000000" points="1477.5,-387.5 1477.5,-434.5 1672.5,-434.5 1672.5,-387.5 1477.5,-387.5"/>
<text text-anchor="start" x="1485.5" y="-420.9" font-family="Helvetica,sans-Serif" font-size="12.00" fill="#000000">/home/kpenev/projects</text>
<text text-anchor="start" x="1485.5" y="-407.9" font-family="Helvetica,sans-Serif" font-size="12.00" fill="#000000">/git/poet/poet_src/StellarEvolution</text>
<text text-anchor="middle" x="1575" y="-394.9" font-family="Helvetica,sans-Serif" font-size="12.00" fill="#000000">/EvolvingStellarQuantity.h</text>
</g>
<!-- Node1 -->
<g id="node2" class="node">
<title>Node1</title>
<g id="a_node2"><a xlink:href="SharedLibraryExportMacros_8h_source.html" target="_top" xlink:title="../Core/SharedLibraryExport\lMacros.h">
<polygon fill="#ffffff" stroke="#000000" points="1599.5,-.5 1599.5,-34.5 1764.5,-34.5 1764.5,-.5 1599.5,-.5"/>
<text text-anchor="start" x="1607.5" y="-20.9" font-family="Helvetica,sans-Serif" font-size="12.00" fill="#000000">../Core/SharedLibraryExport</text>
<text text-anchor="middle" x="1682" y="-7.9" font-family="Helvetica,sans-Serif" font-size="12.00" fill="#000000">Macros.h</text>
</a>
</g>
</g>
<!-- Node0&#45;&gt;Node1 -->
<g id="edge1" class="edge">
<title>Node0&#45;&gt;Node1</title>
<path fill="none" stroke="#191970" d="M1672.8047,-409.295C1829.2898,-405.3498 2128.184,-392.4688 2225,-351 2275.9618,-329.1717 2319,-324.4399 2319,-269 2319,-269 2319,-269 2319,-146.5 2319,-77.366 2248.9102,-91.8649 2183,-71 2109.2365,-47.649 1898.1837,-31.0232 1774.8047,-22.9785"/>
<polygon fill="#191970" stroke="#191970" points="1774.8169,-19.4721 1764.6121,-22.3204 1774.3658,-26.4575 1774.8169,-19.4721"/>
</g>
<!-- Node2 -->
<g id="node3" class="node">
<title>Node2</title>
<g id="a_node3"><a xlink:href="AllowedGridGrowth_8h.html" target="_top" xlink:title="Declares &amp; defines a class describing how the mass&#45;[Fe/H] interpolation grid is allowed to grow...">
<polygon fill="#ffffff" stroke="#000000" points="2159.5,-258.5 2159.5,-279.5 2290.5,-279.5 2290.5,-258.5 2159.5,-258.5"/>
<text text-anchor="middle" x="2225" y="-265.9" font-family="Helvetica,sans-Serif" font-size="12.00" fill="#000000">AllowedGridGrowth.h</text>
</a>
</g>
</g>
<!-- Node0&#45;&gt;Node2 -->
<g id="edge2" class="edge">
<title>Node0&#45;&gt;Node2</title>
<path fill="none" stroke="#191970" d="M1672.5576,-407.6583C1838.6448,-401.0961 2162.3087,-384.1859 2202,-351 2219.8264,-336.0954 2224.4337,-308.5876 2225.334,-289.5677"/>
<polygon fill="#191970" stroke="#191970" points="2228.8344,-289.5682 2225.5076,-279.5093 2221.8354,-289.4473 2228.8344,-289.5682"/>
</g>
<!-- Node3 -->
<g id="node4" class="node">
<title>Node3</title>
<g id="a_node4"><a xlink:href="RemoveLogDeriv_8h.html" target="_top" xlink:title="Declares a class to switch from logarithmic to linear derivative. ">
<polygon fill="#ffffff" stroke="#000000" points="2073,-323 2073,-344 2193,-344 2193,-323 2073,-323"/>
<text text-anchor="middle" x="2133" y="-330.4" font-family="Helvetica,sans-Serif" font-size="12.00" fill="#000000">RemoveLogDeriv.h</text>
</a>
</g>
</g>
<!-- Node0&#45;&gt;Node3 -->
<g id="edge4" class="edge">
<title>Node0&#45;&gt;Node3</title>
<path fill="none" stroke="#191970" d="M1672.8094,-402.0314C1770.9068,-392.2966 1926.0783,-374.8828 2059,-351 2066.4987,-349.6527 2074.3771,-348.0235 2082.0831,-346.3079"/>
<polygon fill="#191970" stroke="#191970" points="2083.1023,-349.6652 2092.0675,-344.0194 2081.5383,-342.8421 2083.1023,-349.6652"/>
</g>
<!-- Node5 -->
<g id="node6" class="node">
<title>Node5</title>
<g id="a_node6"><a xlink:href="Functions_8h.html" target="_top" xlink:title="A hierarchy of classes representing functions. ">
<polygon fill="#ffffff" stroke="#000000" points="1012.5,-200.5 1012.5,-221.5 1091.5,-221.5 1091.5,-200.5 1012.5,-200.5"/>
<text text-anchor="middle" x="1052" y="-207.9" font-family="Helvetica,sans-Serif" font-size="12.00" fill="#000000">Functions.h</text>
</a>
</g>
</g>
<!-- Node0&#45;&gt;Node5 -->
<g id="edge58" class="edge">
<title>Node0&#45;&gt;Node5</title>
<path fill="none" stroke="#191970" d="M1494.4806,-387.3694C1460.4572,-376.9215 1420.5564,-364.057 1385,-351 1272.911,-309.8387 1143.3503,-252.4617 1084.311,-225.7589"/>
<polygon fill="#191970" stroke="#191970" points="1085.6746,-222.5343 1075.1217,-221.5926 1082.7841,-228.9096 1085.6746,-222.5343"/>
</g>
<!-- Node7 -->
<g id="node8" class="node">
<title>Node7</title>
<polygon fill="#ffffff" stroke="#bfbfbf" points="1465,-71.5 1465,-92.5 1497,-92.5 1497,-71.5 1465,-71.5"/>
<text text-anchor="middle" x="1481" y="-78.9" font-family="Helvetica,sans-Serif" font-size="12.00" fill="#000000">list</text>
</g>
<!-- Node0&#45;&gt;Node7 -->
<g id="edge77" class="edge">
<title>Node0&#45;&gt;Node7</title>
<path fill="none" stroke="#191970" d="M1672.6237,-401.8182C1765.4895,-391.8921 1897.694,-374.3097 1944,-351 1990.9349,-327.3737 2030.8232,-308.6952 2017,-258 1999.4945,-193.8003 1997.0192,-164.9151 1941,-129 1904.3491,-105.5024 1599.5019,-88.0788 1507.3095,-83.308"/>
<polygon fill="#191970" stroke="#191970" points="1507.3186,-79.804 1497.153,-82.7894 1506.9615,-86.7949 1507.3186,-79.804"/>
</g>
<!-- Node8 -->
<g id="node9" class="node">
<title>Node8</title>
<polygon fill="#ffffff" stroke="#bfbfbf" points="143.5,-71.5 143.5,-92.5 202.5,-92.5 202.5,-71.5 143.5,-71.5"/>
<text text-anchor="middle" x="173" y="-78.9" font-family="Helvetica,sans-Serif" font-size="12.00" fill="#000000">valarray</text>
</g>
<!-- Node0&#45;&gt;Node8 -->
<g id="edge76" class="edge">
<title>Node0&#45;&gt;Node8</title>
<path fill="none" stroke="#191970" d="M1477.4372,-406.5029C1153.6408,-390.941 135,-336.6115 135,-269 135,-269 135,-269 135,-211 135,-170.9858 152.0317,-126.7308 163.2904,-101.8478"/>
<polygon fill="#191970" stroke="#191970" points="166.4896,-103.2688 167.5555,-92.7277 160.1487,-100.3033 166.4896,-103.2688"/>
</g>
<!-- Node10 -->
<g id="node11" class="node">
<title>Node10</title>
<polygon fill="#ffffff" stroke="#bfbfbf" points="66.5,-71.5 66.5,-92.5 125.5,-92.5 125.5,-71.5 66.5,-71.5"/>
<text text-anchor="middle" x="96" y="-78.9" font-family="Helvetica,sans-Serif" font-size="12.00" fill="#000000">sstream</text>
</g>
<!-- Node0&#45;&gt;Node10 -->
<g id="edge81" class="edge">
<title>Node0&#45;&gt;Node10</title>
<path fill="none" stroke="#191970" d="M1477.2564,-410.3707C1220.6814,-408.0789 532.4492,-397.6367 310,-351 210.3128,-330.1005 96,-370.8544 96,-269 96,-269 96,-269 96,-211 96,-172.9341 96,-128.5498 96,-103.0173"/>
<polygon fill="#191970" stroke="#191970" points="99.5001,-102.7031 96,-92.7031 92.5001,-102.7031 99.5001,-102.7031"/>
</g>
<!-- Node11 -->
<g id="node12" class="node">
<title>Node11</title>
<polygon fill="#ffffff" stroke="#bfbfbf" points="211,-7 211,-28 273,-28 273,-7 211,-7"/>
<text text-anchor="middle" x="242" y="-14.4" font-family="Helvetica,sans-Serif" font-size="12.00" fill="#000000">iostream</text>
</g>
<!-- Node0&#45;&gt;Node11 -->
<g id="edge79" class="edge">
<title>Node0&#45;&gt;Node11</title>
<path fill="none" stroke="#191970" d="M1477.246,-409.1479C1159.0037,-402.8379 169.5016,-380.9008 108,-351 64.9056,-330.0484 38,-316.9176 38,-269 38,-269 38,-269 38,-146.5 38,-111.8982 32.9644,-95.8912 57,-71 76.8392,-50.4545 152.5948,-33.5038 200.7964,-24.5005"/>
<polygon fill="#191970" stroke="#191970" points="201.4266,-27.9434 210.6338,-22.7015 200.1673,-21.0576 201.4266,-27.9434"/>
</g>
<!-- Node19 -->
<g id="node20" class="node">
<title>Node19</title>
<g id="a_node20"><a xlink:href="Error_8h.html" target="_top" xlink:title="Defines the exception hierarchy used by this code. ">
<polygon fill="#ffffff" stroke="#000000" points="1393.5,-71.5 1393.5,-92.5 1446.5,-92.5 1446.5,-71.5 1393.5,-71.5"/>
<text text-anchor="middle" x="1420" y="-78.9" font-family="Helvetica,sans-Serif" font-size="12.00" fill="#000000">Error.h</text>
</a>
</g>
</g>
<!-- Node0&#45;&gt;Node19 -->
<g id="edge75" class="edge">
<title>Node0&#45;&gt;Node19</title>
<path fill="none" stroke="#191970" d="M1477.4779,-404.2303C1259.7386,-387.8085 753,-341.7731 753,-269 753,-269 753,-269 753,-211 753,-146.404 811.9926,-150.2307 873,-129 1084.8759,-55.2669 1158.0023,-132.2097 1383.2816,-92.6921"/>
<polygon fill="#191970" stroke="#191970" points="1384.2157,-96.0799 1393.4306,-90.8516 1382.9665,-89.1923 1384.2157,-96.0799"/>
</g>
<!-- Node21 -->
<g id="node22" class="node">
<title>Node21</title>
<polygon fill="#ffffff" stroke="#bfbfbf" points="68,-7 68,-28 114,-28 114,-7 68,-7"/>
<text text-anchor="middle" x="91" y="-14.4" font-family="Helvetica,sans-Serif" font-size="12.00" fill="#000000">string</text>
</g>
<!-- Node0&#45;&gt;Node21 -->
<g id="edge78" class="edge">
<title>Node0&#45;&gt;Node21</title>
<path fill="none" stroke="#191970" d="M1477.2689,-409.663C1150.4477,-404.8654 112.6543,-386.8656 51,-351 13.9021,-329.4194 0,-311.9182 0,-269 0,-269 0,-269 0,-146.5 0,-99.0594 41.603,-56.7968 68.5494,-34.3988"/>
<polygon fill="#191970" stroke="#191970" points="70.7802,-37.0962 76.3793,-28.1017 66.3932,-31.6414 70.7802,-37.0962"/>
</g>
<!-- Node31 -->
<g id="node32" class="node">
<title>Node31</title>
<g id="a_node32"><a xlink:href="SumDerivatives_8h.html" target="_top" xlink:title="Declares &amp; defines a class for the derivative of a quantity which is the sum of two other quantities...">
<polygon fill="#ffffff" stroke="#000000" points="1580.5,-258.5 1580.5,-279.5 1691.5,-279.5 1691.5,-258.5 1580.5,-258.5"/>
<text text-anchor="middle" x="1636" y="-265.9" font-family="Helvetica,sans-Serif" font-size="12.00" fill="#000000">SumDerivatives.h</text>
</a>
</g>
</g>
<!-- Node0&#45;&gt;Node31 -->
<g id="edge45" class="edge">
<title>Node0&#45;&gt;Node31</title>
<path fill="none" stroke="#191970" d="M1588.0719,-387.394C1593.8901,-376.4749 1600.6254,-363.2382 1606,-351 1615.0503,-330.3923 1623.694,-306.1054 1629.3584,-289.3393"/>
<polygon fill="#191970" stroke="#191970" points="1632.7888,-290.1154 1632.6248,-279.5218 1626.1467,-287.9054 1632.7888,-290.1154"/>
</g>
<!-- Node32 -->
<g id="node33" class="node">
<title>Node32</title>
<g id="a_node33"><a xlink:href="InterpolatedDerivatives_8h_source.html" target="_top" xlink:title="InterpolatedDerivatives.h">
<polygon fill="#ffffff" stroke="#000000" points="1785.5,-323 1785.5,-344 1934.5,-344 1934.5,-323 1785.5,-323"/>
<text text-anchor="middle" x="1860" y="-330.4" font-family="Helvetica,sans-Serif" font-size="12.00" fill="#000000">InterpolatedDerivatives.h</text>
</a>
</g>
</g>
<!-- Node0&#45;&gt;Node32 -->
<g id="edge48" class="edge">
<title>Node0&#45;&gt;Node32</title>
<path fill="none" stroke="#191970" d="M1661.6702,-387.4318C1710.8402,-374.061 1770.5442,-357.8257 1811.519,-346.6834"/>
<polygon fill="#191970" stroke="#191970" points="1812.5248,-350.0371 1821.256,-344.0356 1810.688,-343.2824 1812.5248,-350.0371"/>
</g>
<!-- Node33 -->
<g id="node34" class="node">
<title>Node33</title>
<g id="a_node34"><a xlink:href="mass__feh__interp_8h.html" target="_top" xlink:title="Define a single function performing mass&#45;[Fe/H] interpolations. ">
<polygon fill="#ffffff" stroke="#000000" points="1742.5,-200.5 1742.5,-221.5 1857.5,-221.5 1857.5,-200.5 1742.5,-200.5"/>
<text text-anchor="middle" x="1800" y="-207.9" font-family="Helvetica,sans-Serif" font-size="12.00" fill="#000000">mass_feh_interp.h</text>
</a>
</g>
</g>
<!-- Node0&#45;&gt;Node33 -->
<g id="edge57" class="edge">
<title>Node0&#45;&gt;Node33</title>
<path fill="none" stroke="#191970" d="M1601.694,-387.272C1647.4336,-346.6146 1739.7637,-264.5434 1780.2344,-228.5695"/>
<polygon fill="#191970" stroke="#191970" points="1782.6794,-231.079 1787.8282,-221.8193 1778.0288,-225.8471 1782.6794,-231.079"/>
</g>
<!-- Node35 -->
<g id="node36" class="node">
<title>Node35</title>
<g id="a_node36"><a xlink:href="InterpSolutionIterator_8h_source.html" target="_top" xlink:title="../Core/InterpSolutionIterator.h">
<polygon fill="#ffffff" stroke="#000000" points="1272,-258.5 1272,-279.5 1448,-279.5 1448,-258.5 1272,-258.5"/>
<text text-anchor="middle" x="1360" y="-265.9" font-family="Helvetica,sans-Serif" font-size="12.00" fill="#000000">../Core/InterpSolutionIterator.h</text>
</a>
</g>
</g>
<!-- Node0&#45;&gt;Node35 -->
<g id="edge59" class="edge">
<title>Node0&#45;&gt;Node35</title>
<path fill="none" stroke="#191970" d="M1489.8249,-387.4793C1466.1098,-378.4518 1441.3088,-366.4826 1421,-351 1398.7529,-334.0398 1380.7713,-306.8675 1370.2395,-288.495"/>
<polygon fill="#191970" stroke="#191970" points="1373.1992,-286.6144 1365.3014,-279.5521 1367.0713,-289.9981 1373.1992,-286.6144"/>
</g>
<!-- Node37 -->
<g id="node38" class="node">
<title>Node37</title>
<g id="a_node38"><a xlink:href="InterpolatingFunctionALGLIB_8h_source.html" target="_top" xlink:title="../Core/InterpolatingFunction\lALGLIB.h">
<polygon fill="#ffffff" stroke="#000000" points="1430.5,-316.5 1430.5,-350.5 1597.5,-350.5 1597.5,-316.5 1430.5,-316.5"/>
<text text-anchor="start" x="1438.5" y="-336.9" font-family="Helvetica,sans-Serif" font-size="12.00" fill="#000000">../Core/InterpolatingFunction</text>
<text text-anchor="middle" x="1514" y="-323.9" font-family="Helvetica,sans-Serif" font-size="12.00" fill="#000000">ALGLIB.h</text>
</a>
</g>
</g>
<!-- Node0&#45;&gt;Node37 -->
<g id="edge70" class="edge">
<title>Node0&#45;&gt;Node37</title>
<path fill="none" stroke="#191970" d="M1556.3665,-387.3263C1549.2847,-378.3289 1541.1916,-368.0467 1533.9894,-358.8963"/>
<polygon fill="#191970" stroke="#191970" points="1536.6153,-356.5736 1527.6801,-350.8804 1531.1148,-360.9031 1536.6153,-356.5736"/>
</g>
<!-- Node38 -->
<g id="node39" class="node">
<title>Node38</title>
<polygon fill="#ffffff" stroke="#bfbfbf" points="2347,-323 2347,-344 2403,-344 2403,-323 2347,-323"/>
<text text-anchor="middle" x="2375" y="-330.4" font-family="Helvetica,sans-Serif" font-size="12.00" fill="#000000">fstream</text>
</g>
<!-- Node0&#45;&gt;Node38 -->
<g id="edge80" class="edge">
<title>Node0&#45;&gt;Node38</title>
<path fill="none" stroke="#191970" d="M1672.7397,-407.0971C1848.3502,-399.4481 2210.3722,-380.6053 2333,-351 2336.4842,-350.1588 2340.0528,-349.0661 2343.5663,-347.8373"/>
<polygon fill="#191970" stroke="#191970" points="2345.1418,-350.9808 2353.207,-344.1103 2342.6177,-344.4517 2345.1418,-350.9808"/>
</g>
<!-- Node2&#45;&gt;Node1 -->
<g id="edge3" class="edge">
<title>Node2&#45;&gt;Node1</title>
<path fill="none" stroke="#191970" d="M2225.1759,-258.232C2225.0868,-224.4 2219.7995,-119.6082 2160,-71 2130.7723,-47.2422 1905.311,-30.3981 1774.7384,-22.5233"/>
<polygon fill="#191970" stroke="#191970" points="1774.9225,-19.0282 1764.7317,-21.9262 1774.5054,-26.0158 1774.9225,-19.0282"/>
</g>
<!-- Node3&#45;&gt;Node1 -->
<g id="edge5" class="edge">
<title>Node3&#45;&gt;Node1</title>
<path fill="none" stroke="#191970" d="M2128.4961,-322.8094C2110.8606,-282.3608 2042.2455,-137.6162 1937,-71 1910.2076,-54.0415 1836.2839,-39.6122 1774.8859,-30.0279"/>
<polygon fill="#191970" stroke="#191970" points="1775.174,-26.5312 1764.7586,-28.4726 1774.1114,-33.4501 1775.174,-26.5312"/>
</g>
<!-- Node4 -->
<g id="node5" class="node">
<title>Node4</title>
<g id="a_node5"><a xlink:href="LogDerivatives_8h.html" target="_top" xlink:title="Declares a class for differentiating functions of log(arg) w.r.t. arg. ">
<polygon fill="#ffffff" stroke="#000000" points="1862.5,-258.5 1862.5,-279.5 2007.5,-279.5 2007.5,-258.5 1862.5,-258.5"/>
<text text-anchor="middle" x="1935" y="-265.9" font-family="Helvetica,sans-Serif" font-size="12.00" fill="#000000">../Core/LogDerivatives.h</text>
</a>
</g>
</g>
<!-- Node3&#45;&gt;Node4 -->
<g id="edge6" class="edge">
<title>Node3&#45;&gt;Node4</title>
<path fill="none" stroke="#191970" d="M2100.7472,-322.9934C2067.092,-312.03 2014.1734,-294.7913 1977.2117,-282.7508"/>
<polygon fill="#191970" stroke="#191970" points="1977.8313,-279.2717 1967.239,-279.5021 1975.6631,-285.9274 1977.8313,-279.2717"/>
</g>
<!-- Node4&#45;&gt;Node1 -->
<g id="edge7" class="edge">
<title>Node4&#45;&gt;Node1</title>
<path fill="none" stroke="#191970" d="M1941.6826,-258.284C1947.0167,-249.0605 1954.0654,-235.1916 1957,-222 1959.1233,-212.4555 1958.5866,-209.6482 1957,-200 1946.2748,-134.7791 1939.0101,-106.095 1883,-71 1850.5543,-50.6701 1810.5043,-38.003 1774.7152,-30.1386"/>
<polygon fill="#191970" stroke="#191970" points="1775.2495,-26.6745 1764.7437,-28.0454 1773.8114,-33.5252 1775.2495,-26.6745"/>
</g>
<!-- Node4&#45;&gt;Node5 -->
<g id="edge8" class="edge">
<title>Node4&#45;&gt;Node5</title>
<path fill="none" stroke="#191970" d="M1862.3652,-264.229C1688.1226,-252.7838 1249.8964,-223.9989 1101.7949,-214.2708"/>
<polygon fill="#191970" stroke="#191970" points="1101.8485,-210.7669 1091.6406,-213.6038 1101.3896,-217.7518 1101.8485,-210.7669"/>
</g>
<!-- Node4&#45;&gt;Node19 -->
<g id="edge43" class="edge">
<title>Node4&#45;&gt;Node19</title>
<path fill="none" stroke="#191970" d="M1937.6664,-258.3426C1943.6716,-231.484 1954.8714,-160.8969 1916,-129 1839.0577,-65.8631 1572.9747,-109.3717 1456.6845,-92.523"/>
<polygon fill="#191970" stroke="#191970" points="1457.0149,-89.0296 1446.5738,-90.8279 1455.8575,-95.9332 1457.0149,-89.0296"/>
</g>
<!-- Node30 -->
<g id="node31" class="node">
<title>Node30</title>
<polygon fill="#ffffff" stroke="#bfbfbf" points="1877.5,-200.5 1877.5,-221.5 1926.5,-221.5 1926.5,-200.5 1877.5,-200.5"/>
<text text-anchor="middle" x="1902" y="-207.9" font-family="Helvetica,sans-Serif" font-size="12.00" fill="#000000">vector</text>
</g>
<!-- Node4&#45;&gt;Node30 -->
<g id="edge44" class="edge">
<title>Node4&#45;&gt;Node30</title>
<path fill="none" stroke="#191970" d="M1928.9473,-258.3619C1924.5281,-250.5949 1918.4104,-239.8426 1913.1209,-230.5458"/>
<polygon fill="#191970" stroke="#191970" points="1916.0017,-228.5315 1908.0143,-221.5707 1909.9176,-231.9932 1916.0017,-228.5315"/>
</g>
<!-- Node5&#45;&gt;Node1 -->
<g id="edge9" class="edge">
<title>Node5&#45;&gt;Node1</title>
<path fill="none" stroke="#191970" d="M1043.7837,-200.4692C1031.4197,-183.2813 1011.3596,-149.1035 1030,-129 1066.063,-90.1066 1454.4848,-105.6263 1506,-93 1554.7636,-81.0481 1607.2371,-56.9266 1642.0768,-39.1509"/>
<polygon fill="#191970" stroke="#191970" points="1643.7019,-42.2509 1650.9792,-34.5508 1640.4884,-36.0321 1643.7019,-42.2509"/>
</g>
<!-- Node6 -->
<g id="node7" class="node">
<title>Node6</title>
<g id="a_node7"><a xlink:href="Core_2Common_8h.html" target="_top" xlink:title="Declaration of some general purpose utilities. ">
<polygon fill="#ffffff" stroke="#000000" points="649.5,-136 649.5,-157 724.5,-157 724.5,-136 649.5,-136"/>
<text text-anchor="middle" x="687" y="-143.4" font-family="Helvetica,sans-Serif" font-size="12.00" fill="#000000">Common.h</text>
</a>
</g>
</g>
<!-- Node5&#45;&gt;Node6 -->
<g id="edge10" class="edge">
<title>Node5&#45;&gt;Node6</title>
<path fill="none" stroke="#191970" d="M1012.3301,-204.5114C958.8325,-195.6944 860.6206,-179.2735 777,-164 763.2743,-161.493 748.3963,-158.651 734.7643,-155.9975"/>
<polygon fill="#191970" stroke="#191970" points="735.1085,-152.4985 724.6225,-154.0137 733.7646,-159.3683 735.1085,-152.4985"/>
</g>
<!-- Node5&#45;&gt;Node7 -->
<g id="edge36" class="edge">
<title>Node5&#45;&gt;Node7</title>
<path fill="none" stroke="#191970" d="M1032.615,-200.4577C1019.894,-192.3496 1004.3071,-179.8559 997,-164 990.4894,-149.8725 986.4403,-140.4223 997,-129 1031.6518,-91.5176 1405.4092,-105.1011 1455,-93 1455.1012,-92.9753 1455.2025,-92.9503 1455.3039,-92.9249"/>
<polygon fill="#191970" stroke="#191970" points="1456.3657,-96.2602 1464.7674,-89.8056 1454.1744,-89.612 1456.3657,-96.2602"/>
</g>
<!-- Node5&#45;&gt;Node8 -->
<g id="edge35" class="edge">
<title>Node5&#45;&gt;Node8</title>
<path fill="none" stroke="#191970" d="M1012.4267,-210.6593C858.3915,-209.0715 303.9697,-200.8261 235,-164 209.6613,-150.4705 191.6773,-121.5419 181.8156,-101.9245"/>
<polygon fill="#191970" stroke="#191970" points="184.8584,-100.1731 177.403,-92.6454 178.5368,-103.1794 184.8584,-100.1731"/>
</g>
<!-- Node9 -->
<g id="node10" class="node">
<title>Node9</title>
<polygon fill="#ffffff" stroke="#bfbfbf" points="1187,-71.5 1187,-92.5 1231,-92.5 1231,-71.5 1187,-71.5"/>
<text text-anchor="middle" x="1209" y="-78.9" font-family="Helvetica,sans-Serif" font-size="12.00" fill="#000000">limits</text>
</g>
<!-- Node5&#45;&gt;Node9 -->
<g id="edge34" class="edge">
<title>Node5&#45;&gt;Node9</title>
<path fill="none" stroke="#191970" d="M1012.1158,-209.0154C951.2106,-205.0565 839.4907,-193.8244 815,-164 805.1282,-151.9782 804.5653,-140.5366 815,-129 868.635,-69.701 1094.6115,-108.7583 1173,-93 1174.2614,-92.7464 1175.5417,-92.4668 1176.8305,-92.1666"/>
<polygon fill="#191970" stroke="#191970" points="1177.9332,-95.4954 1186.7057,-89.5546 1176.1431,-88.7281 1177.9332,-95.4954"/>
</g>
<!-- Node5&#45;&gt;Node11 -->
<g id="edge38" class="edge">
<title>Node5&#45;&gt;Node11</title>
<path fill="none" stroke="#191970" d="M1012.3909,-207.6678C860.245,-194.5232 319.0446,-144.4652 263,-93 247.8745,-79.1104 243.2848,-55.3535 242.0651,-38.1932"/>
<polygon fill="#191970" stroke="#191970" points="245.5564,-37.8967 241.6734,-28.0391 238.5616,-38.1666 245.5564,-37.8967"/>
</g>
<!-- Node12 -->
<g id="node13" class="node">
<title>Node12</title>
<polygon fill="#ffffff" stroke="#bfbfbf" points="1249.5,-71.5 1249.5,-92.5 1302.5,-92.5 1302.5,-71.5 1249.5,-71.5"/>
<text text-anchor="middle" x="1276" y="-78.9" font-family="Helvetica,sans-Serif" font-size="12.00" fill="#000000">iterator</text>
</g>
<!-- Node5&#45;&gt;Node12 -->
<g id="edge37" class="edge">
<title>Node5&#45;&gt;Node12</title>
<path fill="none" stroke="#191970" d="M1012.3994,-208.1807C941.4855,-201.741 804.5499,-182.1663 853,-129 909.2449,-67.2801 1139.2561,-106.8677 1239.555,-92.4645"/>
<polygon fill="#191970" stroke="#191970" points="1240.1479,-95.914 1249.4175,-90.7832 1238.9715,-89.0135 1240.1479,-95.914"/>
</g>
<!-- Node5&#45;&gt;Node19 -->
<g id="edge32" class="edge">
<title>Node5&#45;&gt;Node19</title>
<path fill="none" stroke="#191970" d="M1012.4186,-205.7786C951.3595,-196.226 845.2764,-172.7737 886,-129 922.1643,-90.127 1295.279,-102.0012 1383.3474,-92.291"/>
<polygon fill="#191970" stroke="#191970" points="1384.0273,-95.7294 1393.4296,-90.846 1383.0341,-88.8002 1384.0273,-95.7294"/>
</g>
<!-- Node25 -->
<g id="node26" class="node">
<title>Node25</title>
<polygon fill="#ffffff" stroke="#bfbfbf" points="895.5,-136 895.5,-157 944.5,-157 944.5,-136 895.5,-136"/>
<text text-anchor="middle" x="920" y="-143.4" font-family="Helvetica,sans-Serif" font-size="12.00" fill="#000000">cmath</text>
</g>
<!-- Node5&#45;&gt;Node25 -->
<g id="edge33" class="edge">
<title>Node5&#45;&gt;Node25</title>
<path fill="none" stroke="#191970" d="M1030.4981,-200.4934C1008.8284,-189.9048 975.1795,-173.4627 950.7048,-161.5035"/>
<polygon fill="#191970" stroke="#191970" points="952.014,-158.2478 941.4927,-157.0021 948.9408,-164.5371 952.014,-158.2478"/>
</g>
<!-- Node26 -->
<g id="node27" class="node">
<title>Node26</title>
<polygon fill="#ffffff" stroke="#bfbfbf" points="1167.5,-129.5 1167.5,-163.5 1280.5,-163.5 1280.5,-129.5 1167.5,-129.5"/>
<text text-anchor="start" x="1175.5" y="-149.9" font-family="Helvetica,sans-Serif" font-size="12.00" fill="#000000">boost/serialization</text>
<text text-anchor="middle" x="1224" y="-136.9" font-family="Helvetica,sans-Serif" font-size="12.00" fill="#000000">/base_object.hpp</text>
</g>
<!-- Node5&#45;&gt;Node26 -->
<g id="edge39" class="edge">
<title>Node5&#45;&gt;Node26</title>
<path fill="none" stroke="#191970" d="M1080.0176,-200.4934C1104.0684,-191.4744 1139.444,-178.2085 1169.1108,-167.0835"/>
<polygon fill="#191970" stroke="#191970" points="1170.3864,-170.3432 1178.5207,-163.5547 1167.9284,-163.7889 1170.3864,-170.3432"/>
</g>
<!-- Node27 -->
<g id="node28" class="node">
<title>Node27</title>
<polygon fill="#ffffff" stroke="#bfbfbf" points="1430,-129.5 1430,-163.5 1540,-163.5 1540,-129.5 1430,-129.5"/>
<text text-anchor="start" x="1438" y="-149.9" font-family="Helvetica,sans-Serif" font-size="12.00" fill="#000000">boost/archive/text</text>
<text text-anchor="middle" x="1485" y="-136.9" font-family="Helvetica,sans-Serif" font-size="12.00" fill="#000000">_oarchive.hpp</text>
</g>
<!-- Node5&#45;&gt;Node27 -->
<g id="edge40" class="edge">
<title>Node5&#45;&gt;Node27</title>
<path fill="none" stroke="#191970" d="M1091.7672,-207.708C1159.566,-201.698 1301.6823,-187.3704 1420,-164 1420.1003,-163.9802 1420.2007,-163.9603 1420.3012,-163.9403"/>
<polygon fill="#191970" stroke="#191970" points="1420.7548,-167.4226 1429.8018,-161.9088 1419.291,-160.5773 1420.7548,-167.4226"/>
</g>
<!-- Node28 -->
<g id="node29" class="node">
<title>Node28</title>
<polygon fill="#ffffff" stroke="#bfbfbf" points="1039,-129.5 1039,-163.5 1149,-163.5 1149,-129.5 1039,-129.5"/>
<text text-anchor="start" x="1047" y="-149.9" font-family="Helvetica,sans-Serif" font-size="12.00" fill="#000000">boost/archive/text</text>
<text text-anchor="middle" x="1094" y="-136.9" font-family="Helvetica,sans-Serif" font-size="12.00" fill="#000000">_iarchive.hpp</text>
</g>
<!-- Node5&#45;&gt;Node28 -->
<g id="edge41" class="edge">
<title>Node5&#45;&gt;Node28</title>
<path fill="none" stroke="#191970" d="M1058.9354,-200.3491C1063.8945,-192.7334 1070.7902,-182.1436 1077.1554,-172.3685"/>
<polygon fill="#191970" stroke="#191970" points="1080.2572,-174.0191 1082.781,-163.7292 1074.3912,-170.1993 1080.2572,-174.0191"/>
</g>
<!-- Node29 -->
<g id="node30" class="node">
<title>Node29</title>
<polygon fill="#ffffff" stroke="#bfbfbf" points="1298.5,-129.5 1298.5,-163.5 1411.5,-163.5 1411.5,-129.5 1298.5,-129.5"/>
<text text-anchor="start" x="1306.5" y="-149.9" font-family="Helvetica,sans-Serif" font-size="12.00" fill="#000000">boost/serialization</text>
<text text-anchor="middle" x="1355" y="-136.9" font-family="Helvetica,sans-Serif" font-size="12.00" fill="#000000">/export.hpp</text>
</g>
<!-- Node5&#45;&gt;Node29 -->
<g id="edge42" class="edge">
<title>Node5&#45;&gt;Node29</title>
<path fill="none" stroke="#191970" d="M1091.5821,-203.9442C1136.7441,-195.7187 1213.0234,-181.2951 1288.0765,-164.139"/>
<polygon fill="#191970" stroke="#191970" points="1289.2166,-167.4681 1298.1753,-161.8119 1287.6448,-160.6468 1289.2166,-167.4681"/>
</g>
<!-- Node6&#45;&gt;Node1 -->
<g id="edge23" class="edge">
<title>Node6&#45;&gt;Node1</title>
<path fill="none" stroke="#191970" d="M714.4618,-135.9173C722.2866,-133.2708 730.89,-130.7039 739,-129 914.1159,-92.2089 969.4364,-147.1037 1140,-93 1158.6017,-87.0994 1159.4468,-77.0512 1178,-71 1216.0136,-58.6017 1454.1259,-36.8387 1589.0259,-25.2595"/>
<polygon fill="#191970" stroke="#191970" points="1589.6885,-28.7157 1599.3536,-24.3756 1589.0916,-21.7412 1589.6885,-28.7157"/>
</g>
<!-- Node6&#45;&gt;Node7 -->
<g id="edge11" class="edge">
<title>Node6&#45;&gt;Node7</title>
<path fill="none" stroke="#191970" d="M724.7569,-142.902C764.7667,-139.1544 829.8022,-133.2482 886,-129 1138.6736,-109.8997 1208.3776,-151.1907 1455,-93 1455.1014,-92.9761 1455.2028,-92.9518 1455.3044,-92.9272"/>
<polygon fill="#191970" stroke="#191970" points="1456.3503,-96.2676 1464.777,-89.8456 1454.1848,-89.6109 1456.3503,-96.2676"/>
</g>
<!-- Node6&#45;&gt;Node8 -->
<g id="edge12" class="edge">
<title>Node6&#45;&gt;Node8</title>
<path fill="none" stroke="#191970" d="M649.4238,-141.9764C574.4128,-132.9175 400.7816,-111.8045 255,-93 241.1506,-91.2136 225.9942,-89.1975 212.5209,-87.384"/>
<polygon fill="#191970" stroke="#191970" points="212.9738,-83.9135 202.5953,-86.0437 212.037,-90.8505 212.9738,-83.9135"/>
</g>
<!-- Node6&#45;&gt;Node9 -->
<g id="edge13" class="edge">
<title>Node6&#45;&gt;Node9</title>
<path fill="none" stroke="#191970" d="M714.1848,-135.9727C722.0812,-133.2934 730.791,-130.6957 739,-129 928.5498,-89.8464 982.9191,-129.4879 1173,-93 1174.2636,-92.7574 1175.5457,-92.4871 1176.836,-92.1948"/>
<polygon fill="#191970" stroke="#191970" points="1177.9254,-95.5278 1186.7179,-89.6167 1176.1582,-88.7546 1177.9254,-95.5278"/>
</g>
<!-- Node6&#45;&gt;Node10 -->
<g id="edge14" class="edge">
<title>Node6&#45;&gt;Node10</title>
<path fill="none" stroke="#191970" d="M649.4419,-145.2648C561.1108,-141.8496 333.3331,-130.0719 135.7253,-93.0709"/>
<polygon fill="#191970" stroke="#191970" points="136.2214,-89.6026 125.7439,-91.1753 134.9153,-96.4797 136.2214,-89.6026"/>
</g>
<!-- Node6&#45;&gt;Node11 -->
<g id="edge15" class="edge">
<title>Node6&#45;&gt;Node11</title>
<path fill="none" stroke="#191970" d="M649.4446,-145.5252C561.8911,-142.6186 347.1791,-131.6404 288,-93 268.1248,-80.0227 255.4758,-55.1721 248.5754,-37.5293"/>
<polygon fill="#191970" stroke="#191970" points="251.863,-36.3282 245.1657,-28.1186 245.2816,-38.7128 251.863,-36.3282"/>
</g>
<!-- Node6&#45;&gt;Node12 -->
<g id="edge16" class="edge">
<title>Node6&#45;&gt;Node12</title>
<path fill="none" stroke="#191970" d="M714.1729,-135.9142C722.0691,-133.234 730.7818,-130.6504 739,-129 954.6649,-85.6904 1018.664,-132.4649 1239.4769,-92.6797"/>
<polygon fill="#191970" stroke="#191970" points="1240.2288,-96.1001 1249.4298,-90.8473 1238.9614,-89.2158 1240.2288,-96.1001"/>
</g>
<!-- Node13 -->
<g id="node14" class="node">
<title>Node13</title>
<polygon fill="#ffffff" stroke="#bfbfbf" points="1031,-71.5 1031,-92.5 1131,-92.5 1131,-71.5 1031,-71.5"/>
<text text-anchor="middle" x="1081" y="-78.9" font-family="Helvetica,sans-Serif" font-size="12.00" fill="#000000">gsl/gsl_vector.h</text>
</g>
<!-- Node6&#45;&gt;Node13 -->
<g id="edge17" class="edge">
<title>Node6&#45;&gt;Node13</title>
<path fill="none" stroke="#191970" d="M715.0457,-135.9307C722.7249,-133.3486 731.1086,-130.811 739,-129 859.4413,-101.3604 894.9448,-112.0448 1020.7986,-93.1014"/>
<polygon fill="#191970" stroke="#191970" points="1021.4704,-96.5393 1030.8219,-91.5593 1020.4059,-89.6207 1021.4704,-96.5393"/>
</g>
<!-- Node14 -->
<g id="node15" class="node">
<title>Node14</title>
<polygon fill="#ffffff" stroke="#bfbfbf" points="413,-71.5 413,-92.5 513,-92.5 513,-71.5 413,-71.5"/>
<text text-anchor="middle" x="463" y="-78.9" font-family="Helvetica,sans-Serif" font-size="12.00" fill="#000000">gsl/gsl_matrix.h</text>
</g>
<!-- Node6&#45;&gt;Node14 -->
<g id="edge18" class="edge">
<title>Node6&#45;&gt;Node14</title>
<path fill="none" stroke="#191970" d="M650.512,-135.9934C611.9493,-124.8894 551.0312,-107.3483 509.1553,-95.2903"/>
<polygon fill="#191970" stroke="#191970" points="510.0504,-91.9059 499.4724,-92.5021 508.1135,-98.6325 510.0504,-91.9059"/>
</g>
<!-- Node15 -->
<g id="node16" class="node">
<title>Node15</title>
<polygon fill="#ffffff" stroke="#bfbfbf" points="531.5,-71.5 531.5,-92.5 628.5,-92.5 628.5,-71.5 531.5,-71.5"/>
<text text-anchor="middle" x="580" y="-78.9" font-family="Helvetica,sans-Serif" font-size="12.00" fill="#000000">gsl/gsl_linalg.h</text>
</g>
<!-- Node6&#45;&gt;Node15 -->
<g id="edge19" class="edge">
<title>Node6&#45;&gt;Node15</title>
<path fill="none" stroke="#191970" d="M669.3311,-135.8491C652.2162,-125.5322 626.0472,-109.7574 606.4496,-97.9439"/>
<polygon fill="#191970" stroke="#191970" points="608.0664,-94.8318 597.6951,-92.6667 604.4525,-100.8269 608.0664,-94.8318"/>
</g>
<!-- Node16 -->
<g id="node17" class="node">
<title>Node16</title>
<polygon fill="#ffffff" stroke="#bfbfbf" points="647,-71.5 647,-92.5 737,-92.5 737,-71.5 647,-71.5"/>
<text text-anchor="middle" x="692" y="-78.9" font-family="Helvetica,sans-Serif" font-size="12.00" fill="#000000">gsl/gsl_blas.h</text>
</g>
<!-- Node6&#45;&gt;Node16 -->
<g id="edge20" class="edge">
<title>Node6&#45;&gt;Node16</title>
<path fill="none" stroke="#191970" d="M687.8256,-135.8491C688.5163,-126.9397 689.5225,-113.9599 690.3739,-102.9761"/>
<polygon fill="#191970" stroke="#191970" points="693.873,-103.1229 691.1564,-92.8823 686.8939,-102.5818 693.873,-103.1229"/>
</g>
<!-- Node17 -->
<g id="node18" class="node">
<title>Node17</title>
<polygon fill="#ffffff" stroke="#bfbfbf" points="755,-71.5 755,-92.5 845,-92.5 845,-71.5 755,-71.5"/>
<text text-anchor="middle" x="800" y="-78.9" font-family="Helvetica,sans-Serif" font-size="12.00" fill="#000000">gsl/gsl_poly.h</text>
</g>
<!-- Node6&#45;&gt;Node17 -->
<g id="edge21" class="edge">
<title>Node6&#45;&gt;Node17</title>
<path fill="none" stroke="#191970" d="M705.4069,-135.9934C723.7112,-125.5454 752.0001,-109.3982 772.8764,-97.4821"/>
<polygon fill="#191970" stroke="#191970" points="774.6512,-100.4991 781.601,-92.5021 771.1811,-94.4197 774.6512,-100.4991"/>
</g>
<!-- Node18 -->
<g id="node19" class="node">
<title>Node18</title>
<polygon fill="#ffffff" stroke="#bfbfbf" points="1320.5,-71.5 1320.5,-92.5 1375.5,-92.5 1375.5,-71.5 1320.5,-71.5"/>
<text text-anchor="middle" x="1348" y="-78.9" font-family="Helvetica,sans-Serif" font-size="12.00" fill="#000000">cassert</text>
</g>
<!-- Node6&#45;&gt;Node18 -->
<g id="edge22" class="edge">
<title>Node6&#45;&gt;Node18</title>
<path fill="none" stroke="#191970" d="M713.8947,-135.9585C721.8615,-133.2447 730.6811,-130.6322 739,-129 985.6641,-80.6034 1058.2964,-136.0784 1310.0931,-92.7625"/>
<polygon fill="#191970" stroke="#191970" points="1311.0379,-96.1502 1320.2817,-90.973 1309.827,-89.2557 1311.0379,-96.1502"/>
</g>
<!-- Node6&#45;&gt;Node19 -->
<g id="edge24" class="edge">
<title>Node6&#45;&gt;Node19</title>
<path fill="none" stroke="#191970" d="M713.8874,-135.9208C721.854,-133.2061 730.6754,-130.6027 739,-129 1017.6315,-75.3575 1099.4182,-141.7233 1383.2558,-92.6895"/>
<polygon fill="#191970" stroke="#191970" points="1384.1974,-96.0776 1393.4387,-90.8962 1382.9832,-89.1837 1384.1974,-96.0776"/>
</g>
<!-- Node22 -->
<g id="node23" class="node">
<title>Node22</title>
<g id="a_node23"><a xlink:href="AstronomicalConstants_8h.html" target="_top" xlink:title="Defines various astronomical constants. ">
<polygon fill="#ffffff" stroke="#000000" points="863,-71.5 863,-92.5 1013,-92.5 1013,-71.5 863,-71.5"/>
<text text-anchor="middle" x="938" y="-78.9" font-family="Helvetica,sans-Serif" font-size="12.00" fill="#000000">AstronomicalConstants.h</text>
</a>
</g>
</g>
<!-- Node6&#45;&gt;Node22 -->
<g id="edge29" class="edge">
<title>Node6&#45;&gt;Node22</title>
<path fill="none" stroke="#191970" d="M716.8238,-135.9356C724.0427,-133.525 731.7645,-131.0671 739,-129 785.2561,-115.7849 838.3039,-103.3905 877.991,-94.651"/>
<polygon fill="#191970" stroke="#191970" points="878.7597,-98.0657 887.7808,-92.5096 877.2639,-91.2274 878.7597,-98.0657"/>
</g>
<!-- Node23 -->
<g id="node24" class="node">
<title>Node23</title>
<g id="a_node24"><a xlink:href="IncludeEigen_8h_source.html" target="_top" xlink:title="IncludeEigen.h">
<polygon fill="#ffffff" stroke="#000000" points="297.5,-71.5 297.5,-92.5 394.5,-92.5 394.5,-71.5 297.5,-71.5"/>
<text text-anchor="middle" x="346" y="-78.9" font-family="Helvetica,sans-Serif" font-size="12.00" fill="#000000">IncludeEigen.h</text>
</a>
</g>
</g>
<!-- Node6&#45;&gt;Node23 -->
<g id="edge30" class="edge">
<title>Node6&#45;&gt;Node23</title>
<path fill="none" stroke="#191970" d="M649.4612,-139.4107C597.1153,-129.5235 498.9469,-110.9754 404.7206,-93.1357"/>
<polygon fill="#191970" stroke="#191970" points="405.2104,-89.6663 394.7338,-91.2448 403.9081,-96.5441 405.2104,-89.6663"/>
</g>
<!-- Node19&#45;&gt;Node1 -->
<g id="edge25" class="edge">
<title>Node19&#45;&gt;Node1</title>
<path fill="none" stroke="#191970" d="M1446.6812,-73.6392C1449.8141,-72.7193 1452.9722,-71.8201 1456,-71 1501.4877,-58.68 1552.5489,-46.4577 1594.6125,-36.8119"/>
<polygon fill="#191970" stroke="#191970" points="1595.5783,-40.1816 1604.5481,-34.543 1594.0198,-33.3573 1595.5783,-40.1816"/>
</g>
<!-- Node19&#45;&gt;Node11 -->
<g id="edge26" class="edge">
<title>Node19&#45;&gt;Node11</title>
<path fill="none" stroke="#191970" d="M1393.4507,-73.0342C1390.2941,-72.2229 1387.0944,-71.5146 1384,-71 905.8571,8.5096 770.9792,-121.2163 294,-35 288.8022,-34.0605 283.4162,-32.7068 278.1676,-31.1626"/>
<polygon fill="#191970" stroke="#191970" points="278.92,-27.7287 268.3291,-28.0168 276.7881,-34.3961 278.92,-27.7287"/>
</g>
<!-- Node20 -->
<g id="node21" class="node">
<title>Node20</title>
<polygon fill="#ffffff" stroke="#bfbfbf" points="1386,-7 1386,-28 1454,-28 1454,-7 1386,-7"/>
<text text-anchor="middle" x="1420" y="-14.4" font-family="Helvetica,sans-Serif" font-size="12.00" fill="#000000">exception</text>
</g>
<!-- Node19&#45;&gt;Node20 -->
<g id="edge27" class="edge">
<title>Node19&#45;&gt;Node20</title>
<path fill="none" stroke="#191970" d="M1420,-71.3491C1420,-62.4397 1420,-49.4599 1420,-38.4761"/>
<polygon fill="#191970" stroke="#191970" points="1423.5001,-38.3822 1420,-28.3823 1416.5001,-38.3823 1423.5001,-38.3822"/>
</g>
<!-- Node19&#45;&gt;Node21 -->
<g id="edge28" class="edge">
<title>Node19&#45;&gt;Node21</title>
<path fill="none" stroke="#191970" d="M1393.452,-73.0264C1390.2951,-72.2164 1387.0951,-71.5106 1384,-71 1124.716,-28.2261 463.6429,-59.5111 202,-35 175.793,-32.5449 146.3778,-27.8167 124.4156,-23.8934"/>
<polygon fill="#191970" stroke="#191970" points="124.7451,-20.3958 114.2795,-22.0455 123.4896,-27.2823 124.7451,-20.3958"/>
</g>
<!-- Node24 -->
<g id="node25" class="node">
<title>Node24</title>
<polygon fill="#ffffff" stroke="#bfbfbf" points="303,-7 303,-28 389,-28 389,-7 303,-7"/>
<text text-anchor="middle" x="346" y="-14.4" font-family="Helvetica,sans-Serif" font-size="12.00" fill="#000000">Eigen/Dense</text>
</g>
<!-- Node23&#45;&gt;Node24 -->
<g id="edge31" class="edge">
<title>Node23&#45;&gt;Node24</title>
<path fill="none" stroke="#191970" d="M346,-71.3491C346,-62.4397 346,-49.4599 346,-38.4761"/>
<polygon fill="#191970" stroke="#191970" points="349.5001,-38.3822 346,-28.3823 342.5001,-38.3823 349.5001,-38.3822"/>
</g>
<!-- Node31&#45;&gt;Node1 -->
<g id="edge46" class="edge">
<title>Node31&#45;&gt;Node1</title>
<path fill="none" stroke="#191970" d="M1642.2891,-258.1843C1647.3831,-248.9 1654.3003,-234.9978 1658,-222 1675.5777,-160.2464 1680.3042,-84.4795 1681.5598,-44.7621"/>
<polygon fill="#191970" stroke="#191970" points="1685.064,-44.6465 1681.8297,-34.5574 1678.0664,-44.4613 1685.064,-44.6465"/>
</g>
<!-- Node31&#45;&gt;Node5 -->
<g id="edge47" class="edge">
<title>Node31&#45;&gt;Node5</title>
<path fill="none" stroke="#191970" d="M1580.2682,-263.465C1466.6137,-252.1774 1209.6993,-226.6619 1101.5064,-215.9167"/>
<polygon fill="#191970" stroke="#191970" points="1101.8072,-212.4295 1091.5102,-214.924 1101.1153,-219.3952 1101.8072,-212.4295"/>
</g>
<!-- Node32&#45;&gt;Node1 -->
<g id="edge49" class="edge">
<title>Node32&#45;&gt;Node1</title>
<path fill="none" stroke="#191970" d="M1910.3743,-322.9967C1951.3025,-313.3206 2004.2629,-297.7966 2017,-280 2045.2443,-240.5362 2057.3807,-289.2938 1958,-129 1940.5169,-100.801 1939.1173,-88.6142 1911,-71 1888.1252,-56.67 1827.7862,-42.8702 1774.7875,-32.8759"/>
<polygon fill="#191970" stroke="#191970" points="1775.1148,-29.3769 1764.6438,-30.9918 1773.8364,-36.2592 1775.1148,-29.3769"/>
</g>
<!-- Node32&#45;&gt;Node4 -->
<g id="edge54" class="edge">
<title>Node32&#45;&gt;Node4</title>
<path fill="none" stroke="#191970" d="M1872.3847,-322.8491C1883.8926,-312.9524 1901.2405,-298.0332 1914.7601,-286.4063"/>
<polygon fill="#191970" stroke="#191970" points="1917.2972,-288.8408 1922.5969,-279.6667 1912.7329,-283.5335 1917.2972,-288.8408"/>
</g>
<!-- Node32&#45;&gt;Node5 -->
<g id="edge55" class="edge">
<title>Node32&#45;&gt;Node5</title>
<path fill="none" stroke="#191970" d="M1843.1646,-322.9026C1814.9911,-305.7809 1755.9597,-272.4915 1701,-258 1643.6529,-242.8791 1243.6896,-220.94 1101.7888,-213.543"/>
<polygon fill="#191970" stroke="#191970" points="1101.798,-210.0389 1091.6299,-213.0154 1101.4348,-217.0295 1101.798,-210.0389"/>
</g>
<!-- Node32&#45;&gt;Node30 -->
<g id="edge56" class="edge">
<title>Node32&#45;&gt;Node30</title>
<path fill="none" stroke="#191970" d="M1856.1423,-322.7531C1851.3735,-307.6491 1844.9296,-279.5761 1854,-258 1858.9641,-246.1918 1868.5035,-235.8648 1877.7787,-227.9215"/>
<polygon fill="#191970" stroke="#191970" points="1880.1007,-230.5466 1885.7401,-221.5773 1875.7382,-225.0721 1880.1007,-230.5466"/>
</g>
<!-- Node32&#45;&gt;Node33 -->
<g id="edge50" class="edge">
<title>Node32&#45;&gt;Node33</title>
<path fill="none" stroke="#191970" d="M1854.6754,-322.6289C1844.5984,-302.055 1822.6033,-257.1485 1809.7934,-230.9948"/>
<polygon fill="#191970" stroke="#191970" points="1812.7689,-229.1129 1805.227,-221.6718 1806.4825,-232.192 1812.7689,-229.1129"/>
</g>
<!-- Node33&#45;&gt;Node1 -->
<g id="edge51" class="edge">
<title>Node33&#45;&gt;Node1</title>
<path fill="none" stroke="#191970" d="M1857.7277,-201.7356C1879.7712,-195.0783 1902.7653,-183.6421 1916,-164 1924.6922,-151.0996 1924.3032,-142.1541 1916,-129 1884.9713,-79.8437 1825.6773,-51.9059 1774.5429,-36.2889"/>
<polygon fill="#191970" stroke="#191970" points="1775.3486,-32.8778 1764.7677,-33.4206 1773.3777,-39.5946 1775.3486,-32.8778"/>
</g>
<!-- Node33&#45;&gt;Node18 -->
<g id="edge53" class="edge">
<title>Node33&#45;&gt;Node18</title>
<path fill="none" stroke="#191970" d="M1847.1484,-200.4906C1866.6928,-193.559 1887.4602,-182.2527 1899,-164 1907.3126,-150.8518 1909.609,-140.3765 1899,-129 1861.5216,-88.8103 1474.9611,-102.1738 1385.72,-92.5634"/>
<polygon fill="#191970" stroke="#191970" points="1386.1433,-89.0886 1375.7531,-91.1608 1385.1677,-96.0203 1386.1433,-89.0886"/>
</g>
<!-- Node34 -->
<g id="node35" class="node">
<title>Node34</title>
<polygon fill="#ffffff" stroke="#bfbfbf" points="1710.5,-129.5 1710.5,-163.5 1889.5,-163.5 1889.5,-129.5 1710.5,-129.5"/>
<text text-anchor="start" x="1718.5" y="-149.9" font-family="Helvetica,sans-Serif" font-size="12.00" fill="#000000">../third_party_libs</text>
<text text-anchor="middle" x="1800" y="-136.9" font-family="Helvetica,sans-Serif" font-size="12.00" fill="#000000">/alglib/alglib/src/interpolation.h</text>
</g>
<!-- Node33&#45;&gt;Node34 -->
<g id="edge52" class="edge">
<title>Node33&#45;&gt;Node34</title>
<path fill="none" stroke="#191970" d="M1800,-200.3491C1800,-193.122 1800,-183.2164 1800,-173.8706"/>
<polygon fill="#191970" stroke="#191970" points="1803.5001,-173.7292 1800,-163.7292 1796.5001,-173.7292 1803.5001,-173.7292"/>
</g>
<!-- Node35&#45;&gt;Node1 -->
<g id="edge60" class="edge">
<title>Node35&#45;&gt;Node1</title>
<path fill="none" stroke="#191970" d="M1433.575,-258.4419C1464.2832,-251.5548 1499.1985,-240.2966 1527,-222 1594.8601,-177.3401 1580.4111,-135.3463 1630,-71 1637.7052,-61.0018 1647.0796,-50.8628 1655.7357,-42.1391"/>
<polygon fill="#191970" stroke="#191970" points="1658.4368,-44.3909 1663.0977,-34.8763 1653.5208,-39.4077 1658.4368,-44.3909"/>
</g>
<!-- Node35&#45;&gt;Node6 -->
<g id="edge68" class="edge">
<title>Node35&#45;&gt;Node6</title>
<path fill="none" stroke="#191970" d="M1271.9403,-259.9797C1199.4396,-251.9371 1094.1343,-238.8393 1003,-222 906.8493,-204.2338 796.0201,-175.9094 734.4791,-159.472"/>
<polygon fill="#191970" stroke="#191970" points="735.2358,-156.0513 724.6705,-156.8412 733.4224,-162.8123 735.2358,-156.0513"/>
</g>
<!-- Node35&#45;&gt;Node8 -->
<g id="edge69" class="edge">
<title>Node35&#45;&gt;Node8</title>
<path fill="none" stroke="#191970" d="M1271.8054,-266.7862C1014.3743,-259.5396 276.9332,-232.9108 195,-164 177.2724,-149.09 173.0194,-121.5835 172.3781,-102.5653"/>
<polygon fill="#191970" stroke="#191970" points="175.878,-102.4957 172.3432,-92.5079 168.878,-102.52 175.878,-102.4957"/>
</g>
<!-- Node36 -->
<g id="node37" class="node">
<title>Node36</title>
<g id="a_node37"><a xlink:href="SerializableSpline1dInterpolant_8h_source.html" target="_top" xlink:title="SerializableSpline1dInterpolant.h">
<polygon fill="#ffffff" stroke="#000000" points="1324,-200.5 1324,-221.5 1518,-221.5 1518,-200.5 1324,-200.5"/>
<text text-anchor="middle" x="1421" y="-207.9" font-family="Helvetica,sans-Serif" font-size="12.00" fill="#000000">SerializableSpline1dInterpolant.h</text>
</a>
</g>
</g>
<!-- Node35&#45;&gt;Node36 -->
<g id="edge61" class="edge">
<title>Node35&#45;&gt;Node36</title>
<path fill="none" stroke="#191970" d="M1371.1883,-258.3619C1379.959,-250.0226 1392.3491,-238.2418 1402.5778,-228.5162"/>
<polygon fill="#191970" stroke="#191970" points="1405.0473,-230.9978 1409.8826,-221.5707 1400.2238,-225.9248 1405.0473,-230.9978"/>
</g>
<!-- Node36&#45;&gt;Node1 -->
<g id="edge62" class="edge">
<title>Node36&#45;&gt;Node1</title>
<path fill="none" stroke="#191970" d="M1477.4658,-200.4532C1501.8471,-193.5142 1529.2455,-182.2124 1549,-164 1582.4802,-133.1333 1561.5042,-104.8185 1592,-71 1603.3912,-58.3676 1618.4803,-47.8219 1633.0417,-39.5252"/>
<polygon fill="#191970" stroke="#191970" points="1634.8899,-42.5042 1642.0023,-34.6515 1631.5453,-36.355 1634.8899,-42.5042"/>
</g>
<!-- Node36&#45;&gt;Node26 -->
<g id="edge64" class="edge">
<title>Node36&#45;&gt;Node26</title>
<path fill="none" stroke="#191970" d="M1388.9101,-200.4934C1361.125,-191.3963 1320.1436,-177.9785 1285.9862,-166.795"/>
<polygon fill="#191970" stroke="#191970" points="1286.6823,-163.3401 1276.0897,-163.5547 1284.5042,-169.9926 1286.6823,-163.3401"/>
</g>
<!-- Node36&#45;&gt;Node27 -->
<g id="edge65" class="edge">
<title>Node36&#45;&gt;Node27</title>
<path fill="none" stroke="#191970" d="M1431.5683,-200.3491C1439.5105,-192.3448 1450.7126,-181.0553 1460.8098,-170.8792"/>
<polygon fill="#191970" stroke="#191970" points="1463.3453,-173.293 1467.9044,-163.7292 1458.3763,-168.3625 1463.3453,-173.293"/>
</g>
<!-- Node36&#45;&gt;Node28 -->
<g id="edge66" class="edge">
<title>Node36&#45;&gt;Node28</title>
<path fill="none" stroke="#191970" d="M1352.2704,-200.4572C1301.3998,-192.2536 1230.2332,-179.942 1159.112,-164.1504"/>
<polygon fill="#191970" stroke="#191970" points="1159.6027,-160.6736 1149.079,-161.8992 1158.07,-167.5037 1159.6027,-160.6736"/>
</g>
<!-- Node36&#45;&gt;Node29 -->
<g id="edge67" class="edge">
<title>Node36&#45;&gt;Node29</title>
<path fill="none" stroke="#191970" d="M1410.1014,-200.3491C1401.911,-192.3448 1390.3589,-181.0553 1379.9462,-170.8792"/>
<polygon fill="#191970" stroke="#191970" points="1382.2281,-168.2154 1372.6299,-163.7292 1377.3355,-173.2217 1382.2281,-168.2154"/>
</g>
<!-- Node36&#45;&gt;Node34 -->
<g id="edge63" class="edge">
<title>Node36&#45;&gt;Node34</title>
<path fill="none" stroke="#191970" d="M1482.7364,-200.4934C1541.6134,-190.4734 1631.2904,-175.2118 1700.3001,-163.4674"/>
<polygon fill="#191970" stroke="#191970" points="1701.0548,-166.8894 1710.3258,-161.7612 1699.8803,-159.9886 1701.0548,-166.8894"/>
</g>
<!-- Node37&#45;&gt;Node1 -->
<g id="edge71" class="edge">
<title>Node37&#45;&gt;Node1</title>
<path fill="none" stroke="#191970" d="M1523.2717,-316.0604C1551.2178,-263.495 1634.7531,-106.3693 1668.0634,-43.7142"/>
<polygon fill="#191970" stroke="#191970" points="1671.3581,-44.9728 1672.962,-34.5 1665.1773,-41.6867 1671.3581,-44.9728"/>
</g>
<!-- Node37&#45;&gt;Node5 -->
<g id="edge72" class="edge">
<title>Node37&#45;&gt;Node5</title>
<path fill="none" stroke="#191970" d="M1506.2638,-316.4397C1497.195,-298.6017 1480.3769,-271.3794 1457,-258 1397.5636,-223.9826 1196.5994,-214.5378 1102.0097,-211.9536"/>
<polygon fill="#191970" stroke="#191970" points="1101.9205,-208.4502 1091.8335,-211.691 1101.7398,-215.4479 1101.9205,-208.4502"/>
</g>
<!-- Node37&#45;&gt;Node35 -->
<g id="edge74" class="edge">
<title>Node37&#45;&gt;Node35</title>
<path fill="none" stroke="#191970" d="M1473.1351,-316.3845C1448.6527,-306.1305 1417.8672,-293.2366 1394.5934,-283.4888"/>
<polygon fill="#191970" stroke="#191970" points="1395.6949,-280.1556 1385.1191,-279.5206 1392.9906,-286.6122 1395.6949,-280.1556"/>
</g>
<!-- Node37&#45;&gt;Node36 -->
<g id="edge73" class="edge">
<title>Node37&#45;&gt;Node36</title>
<path fill="none" stroke="#191970" d="M1511.8493,-316.4398C1509.0823,-300.1017 1502.9831,-275.4266 1490,-258 1480.2907,-244.9676 1465.8499,-234.3351 1452.685,-226.5003"/>
<polygon fill="#191970" stroke="#191970" points="1454.2799,-223.3817 1443.8485,-221.528 1450.8472,-229.4822 1454.2799,-223.3817"/>
</g>
</g>
</svg>
