<?xml version="1.0" encoding="UTF-8" standalone="no"?>
<!DOCTYPE svg PUBLIC "-//W3C//DTD SVG 1.1//EN"
 "http://www.w3.org/Graphics/SVG/1.1/DTD/svg11.dtd">
<!-- Generated by graphviz version 2.40.1 (20161225.0304)
 -->
<!-- Title: /Users/kpenev/projects/git/poet/poet_src/Star/EvolvingStellarCore.h Pages: 1 -->
<!--zoomable 626 -->
<svg id="main" version="1.1" xmlns="http://www.w3.org/2000/svg" xmlns:xlink="http://www.w3.org/1999/xlink" xml:space="preserve" onload="init(evt)">
<style type="text/css"><![CDATA[
.edge:hover path { stroke: red; }
.edge:hover polygon { stroke: red; fill: red; }
]]></style>
<script type="text/javascript"><![CDATA[
var edges = document.getElementsByTagName('g');
if (edges && edges.length) {
  for (var i=0;i<edges.length;i++) {
    if (edges[i].id.substr(0,4)=='edge') {
      edges[i].setAttribute('class','edge');
    }
  }
}
]]></script>
        <defs>
                <circle id="rim" cx="0" cy="0" r="7"/>
                <circle id="rim2" cx="0" cy="0" r="3.5"/>
                <g id="zoomPlus">
                        <use xlink:href="#rim" fill="#404040">
                                <set attributeName="fill" to="#808080" begin="zoomplus.mouseover" end="zoomplus.mouseout"/>
                        </use>
                        <path d="M-4,0h8M0,-4v8" fill="none" stroke="white" stroke-width="1.5" pointer-events="none"/>
                </g>
                <g id="zoomMin">
                        <use xlink:href="#rim" fill="#404040">
                                <set attributeName="fill" to="#808080" begin="zoomminus.mouseover" end="zoomminus.mouseout"/>
                        </use>
                        <path d="M-4,0h8" fill="none" stroke="white" stroke-width="1.5" pointer-events="none"/>
                </g>
                <g id="dirArrow">
                        <path fill="none" stroke="white" stroke-width="1.5" d="M0,-3.0v7 M-2.5,-0.5L0,-3.0L2.5,-0.5"/>
                </g>
               <g id="resetDef">
                       <use xlink:href="#rim2" fill="#404040">
                               <set attributeName="fill" to="#808080" begin="reset.mouseover" end="reset.mouseout"/>
                       </use>
               </g>
        </defs>

<script type="text/javascript">
var viewWidth = 3320;
var viewHeight = 626;
var sectionId = 'dynsection-0';
</script>
<script xlink:href="svgpan.js"/>
<svg id="graph" class="graph">
<g id="viewport">
<title>/Users/kpenev/projects/git/poet/poet_src/Star/EvolvingStellarCore.h</title>
<polygon fill="#ffffff" stroke="transparent" points="-4,4 -4,-622 3316,-622 3316,4 -4,4"/>
<!-- Node0 -->
<g id="node1" class="node">
<title>Node0</title>
<polygon fill="#bfbfbf" stroke="#000000" points="2069.9746,-573.5 2069.9746,-617.5 2208.0254,-617.5 2208.0254,-573.5 2069.9746,-573.5"/>
<text text-anchor="start" x="2077.9746" y="-603.9" font-family="Helvetica,sans-Serif" font-size="12.00" fill="#000000">/Users/kpenev/projects</text>
<text text-anchor="start" x="2077.9746" y="-591.9" font-family="Helvetica,sans-Serif" font-size="12.00" fill="#000000">/git/poet/poet_src/Star</text>
<text text-anchor="middle" x="2139" y="-579.9" font-family="Helvetica,sans-Serif" font-size="12.00" fill="#000000">/EvolvingStellarCore.h</text>
</g>
<!-- Node1 -->
<g id="node2" class="node">
<title>Node1</title>
<g id="a_node2"><a xlink:href="SharedLibraryExportMacros_8h_source.html" target="_top" xlink:title="../Core/SharedLibraryExport\lMacros.h">
<polygon fill="#ffffff" stroke="#000000" points="1495.2988,-.5 1495.2988,-32.5 1660.7012,-32.5 1660.7012,-.5 1495.2988,-.5"/>
<text text-anchor="start" x="1503.2988" y="-18.9" font-family="Helvetica,sans-Serif" font-size="12.00" fill="#000000">../Core/SharedLibraryExport</text>
<text text-anchor="middle" x="1578" y="-6.9" font-family="Helvetica,sans-Serif" font-size="12.00" fill="#000000">Macros.h</text>
</a>
</g>
</g>
<!-- Node0&#45;&gt;Node1 -->
<g id="edge1" class="edge">
<title>Node0&#45;&gt;Node1</title>
<path fill="none" stroke="#191970" d="M2069.9535,-594.9337C1703.2,-591.4833 0,-569.7407 0,-463.5 0,-463.5 0,-463.5 0,-142.5 0,-100.6107 21.5485,-87.7644 59,-69 122.8339,-37.0171 1164.7459,-21.5852 1485.0602,-17.5814"/>
<polygon fill="#191970" stroke="#191970" points="1485.2818,-21.079 1495.2375,-17.455 1485.1948,-14.0795 1485.2818,-21.079"/>
</g>
<!-- Node2 -->
<g id="node3" class="node">
<title>Node2</title>
<g id="a_node3"><a xlink:href="EvolvingStellarZone_8h.html" target="_top" xlink:title="Declares a base class for all stellar zones. ">
<polygon fill="#ffffff" stroke="#000000" points="2142.6348,-516.5 2142.6348,-536.5 2275.3652,-536.5 2275.3652,-516.5 2142.6348,-516.5"/>
<text text-anchor="middle" x="2209" y="-522.9" font-family="Helvetica,sans-Serif" font-size="12.00" fill="#000000">EvolvingStellarZone.h</text>
</a>
</g>
</g>
<!-- Node0&#45;&gt;Node2 -->
<g id="edge2" class="edge">
<title>Node0&#45;&gt;Node2</title>
<path fill="none" stroke="#191970" d="M2161.5338,-573.2882C2171.1783,-563.7813 2182.2757,-552.8426 2191.3139,-543.9334"/>
<polygon fill="#191970" stroke="#191970" points="2193.9735,-546.2263 2198.6383,-536.7137 2189.0595,-541.2411 2193.9735,-546.2263"/>
</g>
<!-- Node48 -->
<g id="node33" class="node">
<title>Node48</title>
<g id="a_node33"><a xlink:href="Functions_8h.html" target="_top" xlink:title="A hierarchy of classes representing functions. ">
<polygon fill="#ffffff" stroke="#000000" points="1995.3105,-195.5 1995.3105,-215.5 2112.6895,-215.5 2112.6895,-195.5 1995.3105,-195.5"/>
<text text-anchor="middle" x="2054" y="-201.9" font-family="Helvetica,sans-Serif" font-size="12.00" fill="#000000">../Core/Functions.h</text>
</a>
</g>
</g>
<!-- Node0&#45;&gt;Node48 -->
<g id="edge132" class="edge">
<title>Node0&#45;&gt;Node48</title>
<path fill="none" stroke="#191970" d="M2125.9079,-573.4608C2112.001,-547.9196 2092,-504.1244 2092,-463.5 2092,-463.5 2092,-463.5 2092,-325.5 2092,-288.5702 2075.4409,-248.1051 2064.1849,-224.865"/>
<polygon fill="#191970" stroke="#191970" points="2067.2217,-223.1131 2059.607,-215.7465 2060.9658,-226.2538 2067.2217,-223.1131"/>
</g>
<!-- Node53 -->
<g id="node38" class="node">
<title>Node53</title>
<g id="a_node38"><a xlink:href="EvolvingStellarQuantity_8h.html" target="_top" xlink:title="Declares a class implementing the intepolation of a single stellar quantity from stellar evolution tr...">
<polygon fill="#ffffff" stroke="#000000" points="2361.7412,-378.5 2361.7412,-410.5 2514.2588,-410.5 2514.2588,-378.5 2361.7412,-378.5"/>
<text text-anchor="start" x="2369.7412" y="-396.9" font-family="Helvetica,sans-Serif" font-size="12.00" fill="#000000">../StellarEvolution</text>
<text text-anchor="middle" x="2438" y="-384.9" font-family="Helvetica,sans-Serif" font-size="12.00" fill="#000000">/EvolvingStellarQuantity.h</text>
</a>
</g>
</g>
<!-- Node0&#45;&gt;Node53 -->
<g id="edge133" class="edge">
<title>Node0&#45;&gt;Node53</title>
<path fill="none" stroke="#191970" d="M2208.2664,-573.417C2233.1189,-564.0038 2260.7304,-551.7532 2284,-537 2337.6569,-502.9809 2389.6835,-449.1714 2417.3951,-418.329"/>
<polygon fill="#191970" stroke="#191970" points="2420.1999,-420.4416 2424.2254,-410.6413 2414.967,-415.7923 2420.1999,-420.4416"/>
</g>
<!-- Node2&#45;&gt;Node1 -->
<g id="edge3" class="edge">
<title>Node2&#45;&gt;Node1</title>
<path fill="none" stroke="#191970" d="M2275.5136,-525.5715C2513.9834,-521.3749 3312,-499.4879 3312,-394.5 3312,-394.5 3312,-394.5 3312,-262.5 3312,-100.0847 3157.2838,-116.5989 3002,-69 2875.6258,-30.2627 1967.8148,-19.6141 1671.3716,-17.1533"/>
<polygon fill="#191970" stroke="#191970" points="1671.1148,-13.6511 1661.0864,-17.0691 1671.0574,-20.6509 1671.1148,-13.6511"/>
</g>
<!-- Node3 -->
<g id="node4" class="node">
<title>Node3</title>
<g id="a_node4"><a xlink:href="BrokenPowerlawPhaseLagZone_8h.html" target="_top" xlink:title="Declares the class that provides the phase lag function to DissipatingZone objects. ">
<polygon fill="#ffffff" stroke="#000000" points="785.3027,-447.5 785.3027,-479.5 940.6973,-479.5 940.6973,-447.5 785.3027,-447.5"/>
<text text-anchor="start" x="793.3027" y="-465.9" font-family="Helvetica,sans-Serif" font-size="12.00" fill="#000000">../Evolve/BrokenPowerlaw</text>
<text text-anchor="middle" x="863" y="-453.9" font-family="Helvetica,sans-Serif" font-size="12.00" fill="#000000">PhaseLagZone.h</text>
</a>
</g>
</g>
<!-- Node2&#45;&gt;Node3 -->
<g id="edge4" class="edge">
<title>Node2&#45;&gt;Node3</title>
<path fill="none" stroke="#191970" d="M2142.2517,-523.3758C1919.6273,-512.9558 1202.446,-479.3879 951.0575,-467.6216"/>
<polygon fill="#191970" stroke="#191970" points="951.0275,-464.1164 940.8748,-467.145 950.7001,-471.1088 951.0275,-464.1164"/>
</g>
<!-- Node2&#45;&gt;Node48 -->
<g id="edge69" class="edge">
<title>Node2&#45;&gt;Node48</title>
<path fill="none" stroke="#191970" d="M2212.0068,-516.336C2218.2413,-494.3335 2232,-440.5587 2232,-394.5 2232,-394.5 2232,-394.5 2232,-325.5 2232,-265.9781 2162.7231,-234.0189 2110.6069,-218.3977"/>
<polygon fill="#191970" stroke="#191970" points="2111.3447,-214.9683 2100.7674,-215.578 2109.4163,-221.6974 2111.3447,-214.9683"/>
</g>
<!-- Node2&#45;&gt;Node53 -->
<g id="edge83" class="edge">
<title>Node2&#45;&gt;Node53</title>
<path fill="none" stroke="#191970" d="M2226.589,-516.3614C2263.7597,-494.9354 2350.982,-444.6589 2401.0052,-415.8245"/>
<polygon fill="#191970" stroke="#191970" points="2402.9765,-418.7281 2409.8923,-410.7018 2399.4807,-412.6635 2402.9765,-418.7281"/>
</g>
<!-- Node64 -->
<g id="node50" class="node">
<title>Node64</title>
<polygon fill="#ffffff" stroke="#bfbfbf" points="2119.9893,-453.5 2119.9893,-473.5 2204.0107,-473.5 2204.0107,-453.5 2119.9893,-453.5"/>
<text text-anchor="middle" x="2162" y="-459.9" font-family="Helvetica,sans-Serif" font-size="12.00" fill="#000000">initializer_list</text>
</g>
<!-- Node2&#45;&gt;Node64 -->
<g id="edge131" class="edge">
<title>Node2&#45;&gt;Node64</title>
<path fill="none" stroke="#191970" d="M2201.4486,-516.378C2194.5689,-507.1563 2184.2364,-493.3063 2175.8717,-482.094"/>
<polygon fill="#191970" stroke="#191970" points="2178.4738,-479.7286 2169.6888,-473.8062 2172.8631,-483.9144 2178.4738,-479.7286"/>
</g>
<!-- Node3&#45;&gt;Node1 -->
<g id="edge5" class="edge">
<title>Node3&#45;&gt;Node1</title>
<path fill="none" stroke="#191970" d="M785.0145,-458.6037C579.3608,-444.6552 38,-400.787 38,-325.5 38,-325.5 38,-325.5 38,-142.5 38,-100.0486 60.9007,-87.7235 99,-69 161.2325,-38.4165 1170.4936,-22.0773 1485.1061,-17.7094"/>
<polygon fill="#191970" stroke="#191970" points="1485.1565,-21.2092 1495.1072,-17.5714 1485.0598,-14.2098 1485.1565,-21.2092"/>
</g>
<!-- Node4 -->
<g id="node5" class="node">
<title>Node4</title>
<g id="a_node5"><a xlink:href="DissipatingZone_8h.html" target="_top" xlink:title="Declares a class representing one zone of a body dissipative to tidal distortions. ">
<polygon fill="#ffffff" stroke="#ff0000" points="615.9736,-252.5 615.9736,-272.5 728.0264,-272.5 728.0264,-252.5 615.9736,-252.5"/>
<text text-anchor="middle" x="672" y="-258.9" font-family="Helvetica,sans-Serif" font-size="12.00" fill="#000000">DissipatingZone.h</text>
</a>
</g>
</g>
<!-- Node3&#45;&gt;Node4 -->
<g id="edge6" class="edge">
<title>Node3&#45;&gt;Node4</title>
<path fill="none" stroke="#191970" d="M824.1166,-447.4059C805.7104,-438.5109 784.2563,-426.1713 768,-411 726.663,-372.4222 695.1153,-312.4889 680.6675,-281.8969"/>
<polygon fill="#191970" stroke="#191970" points="683.8013,-280.3344 676.434,-272.7203 677.4451,-283.2668 683.8013,-280.3344"/>
</g>
<!-- Node39 -->
<g id="node28" class="node">
<title>Node39</title>
<g id="a_node28"><a xlink:href="DissipatingBody_8h.html" target="_top" xlink:title="Declares the DissipatingBody class. ">
<polygon fill="#ffffff" stroke="#ff0000" points="738.416,-315.5 738.416,-335.5 849.584,-335.5 849.584,-315.5 738.416,-315.5"/>
<text text-anchor="middle" x="794" y="-321.9" font-family="Helvetica,sans-Serif" font-size="12.00" fill="#000000">DissipatingBody.h</text>
</a>
</g>
</g>
<!-- Node3&#45;&gt;Node39 -->
<g id="edge43" class="edge">
<title>Node3&#45;&gt;Node39</title>
<path fill="none" stroke="#191970" d="M819.3219,-447.3204C803.3722,-439.0394 787.0398,-427.2085 778,-411 766.4561,-390.3017 775.0789,-362.8489 783.4809,-344.7019"/>
<polygon fill="#191970" stroke="#191970" points="786.6507,-346.1886 787.9965,-335.6795 780.3909,-343.0556 786.6507,-346.1886"/>
</g>
<!-- Node41 -->
<g id="node29" class="node">
<title>Node41</title>
<g id="a_node29"><a xlink:href="BinarySystem_8h.html" target="_top" xlink:title="Defines the BinarySystem class. ">
<polygon fill="#ffffff" stroke="#ff0000" points="1138.9854,-384.5 1138.9854,-404.5 1239.0146,-404.5 1239.0146,-384.5 1138.9854,-384.5"/>
<text text-anchor="middle" x="1189" y="-390.9" font-family="Helvetica,sans-Serif" font-size="12.00" fill="#000000">BinarySystem.h</text>
</a>
</g>
</g>
<!-- Node3&#45;&gt;Node41 -->
<g id="edge50" class="edge">
<title>Node3&#45;&gt;Node41</title>
<path fill="none" stroke="#191970" d="M940.7513,-449.8785C994.2056,-440.1067 1066.6893,-426.0526 1130,-411 1134.9184,-409.8306 1140.0442,-408.5267 1145.131,-407.1784"/>
<polygon fill="#191970" stroke="#191970" points="1146.0657,-410.5515 1154.8002,-404.5549 1144.2326,-403.7957 1146.0657,-410.5515"/>
</g>
<!-- Node46 -->
<g id="node30" class="node">
<title>Node46</title>
<g id="a_node30"><a xlink:href="LagForcingFrequencyBreakCondition_8h.html" target="_top" xlink:title="Declares a stopping condition satisfied when a forcing frequency reaches a critical value...">
<polygon fill="#ffffff" stroke="#ff0000" points="956.9609,-378.5 956.9609,-410.5 1121.0391,-410.5 1121.0391,-378.5 956.9609,-378.5"/>
<text text-anchor="start" x="964.9609" y="-396.9" font-family="Helvetica,sans-Serif" font-size="12.00" fill="#000000">LagForcingFrequencyBreak</text>
<text text-anchor="middle" x="1039" y="-384.9" font-family="Helvetica,sans-Serif" font-size="12.00" fill="#000000">Condition.h</text>
</a>
</g>
</g>
<!-- Node3&#45;&gt;Node46 -->
<g id="edge59" class="edge">
<title>Node3&#45;&gt;Node46</title>
<path fill="none" stroke="#191970" d="M903.8203,-447.4966C929.0532,-437.6041 961.6338,-424.8311 988.4867,-414.3035"/>
<polygon fill="#191970" stroke="#191970" points="990.064,-417.4446 998.0966,-410.536 987.509,-410.9275 990.064,-417.4446"/>
</g>
<!-- Node47 -->
<g id="node32" class="node">
<title>Node47</title>
<g id="a_node32"><a xlink:href="LagSpinBreakCondition_8h.html" target="_top" xlink:title="Declares a stopping condition monitoring for critical spin frequencies. ">
<polygon fill="#ffffff" stroke="#ff0000" points="786.9521,-384.5 786.9521,-404.5 939.0479,-404.5 939.0479,-384.5 786.9521,-384.5"/>
<text text-anchor="middle" x="863" y="-390.9" font-family="Helvetica,sans-Serif" font-size="12.00" fill="#000000">LagSpinBreakCondition.h</text>
</a>
</g>
</g>
<!-- Node3&#45;&gt;Node47 -->
<g id="edge64" class="edge">
<title>Node3&#45;&gt;Node47</title>
<path fill="none" stroke="#191970" d="M863,-447.4966C863,-437.7901 863,-425.3104 863,-414.8996"/>
<polygon fill="#191970" stroke="#191970" points="866.5001,-414.6441 863,-404.6441 859.5001,-414.6441 866.5001,-414.6441"/>
</g>
<!-- Node4&#45;&gt;Node1 -->
<g id="edge34" class="edge">
<title>Node4&#45;&gt;Node1</title>
<path fill="none" stroke="#191970" d="M615.8879,-260.3642C546.6576,-256.5028 425.9737,-245.7492 327,-216 271.2226,-199.2346 241.7211,-207.1822 209,-159 186.4931,-125.8582 176.2182,-97.8636 204,-69 226.2381,-45.896 1179.6715,-24.5801 1484.9891,-18.3359"/>
<polygon fill="#191970" stroke="#191970" points="1485.2129,-21.8322 1495.1394,-18.129 1485.0701,-14.8336 1485.2129,-21.8322"/>
</g>
<!-- Node5 -->
<g id="node6" class="node">
<title>Node5</title>
<g id="a_node6"><a xlink:href="ZoneOrientation_8h.html" target="_top" xlink:title="Declares a class for orientations of zones of DissipatingBody objects. ">
<polygon fill="#ffffff" stroke="#000000" points="365.9707,-195.5 365.9707,-215.5 478.0293,-215.5 478.0293,-195.5 365.9707,-195.5"/>
<text text-anchor="middle" x="422" y="-201.9" font-family="Helvetica,sans-Serif" font-size="12.00" fill="#000000">ZoneOrientation.h</text>
</a>
</g>
</g>
<!-- Node4&#45;&gt;Node5 -->
<g id="edge7" class="edge">
<title>Node4&#45;&gt;Node5</title>
<path fill="none" stroke="#191970" d="M627.8805,-252.4408C585.5266,-242.7841 521.4621,-228.1774 476.0615,-217.826"/>
<polygon fill="#191970" stroke="#191970" points="476.6261,-214.365 466.0982,-215.5544 475.0699,-221.1898 476.6261,-214.365"/>
</g>
<!-- Node6 -->
<g id="node7" class="node">
<title>Node6</title>
<g id="a_node7"><a xlink:href="DissipationQuantities_8h.html" target="_top" xlink:title="Declaration of enumerations of dissipation quantities and derivatives. ">
<polygon fill="#ffffff" stroke="#ff0000" points="217.6348,-132.5 217.6348,-152.5 356.3652,-152.5 356.3652,-132.5 217.6348,-132.5"/>
<text text-anchor="middle" x="287" y="-138.9" font-family="Helvetica,sans-Serif" font-size="12.00" fill="#000000">DissipationQuantities.h</text>
</a>
</g>
</g>
<!-- Node4&#45;&gt;Node6 -->
<g id="edge40" class="edge">
<title>Node4&#45;&gt;Node6</title>
<path fill="none" stroke="#191970" d="M615.8987,-258.615C537.8116,-252.4679 400.9878,-238.7984 357,-216 332.447,-203.2745 311.6908,-178.529 299.3036,-161.2834"/>
<polygon fill="#191970" stroke="#191970" points="301.8714,-158.8419 293.3119,-152.598 296.1095,-162.8169 301.8714,-158.8419"/>
</g>
<!-- Node9 -->
<g id="node9" class="node">
<title>Node9</title>
<g id="a_node9"><a xlink:href="Core_2Common_8h.html" target="_top" xlink:title="Declaration of some general purpose utilities. ">
<polygon fill="#ffffff" stroke="#000000" points="910.9834,-132.5 910.9834,-152.5 1025.0166,-152.5 1025.0166,-132.5 910.9834,-132.5"/>
<text text-anchor="middle" x="968" y="-138.9" font-family="Helvetica,sans-Serif" font-size="12.00" fill="#000000">../Core/Common.h</text>
</a>
</g>
</g>
<!-- Node4&#45;&gt;Node9 -->
<g id="edge41" class="edge">
<title>Node4&#45;&gt;Node9</title>
<path fill="none" stroke="#191970" d="M692.0417,-252.4847C719.9314,-238.7209 772.1883,-213.5568 818,-195 854.1859,-180.3423 896.1981,-165.8482 926.5397,-155.8153"/>
<polygon fill="#191970" stroke="#191970" points="927.9488,-159.0365 936.3568,-152.5901 925.7639,-152.3862 927.9488,-159.0365"/>
</g>
<!-- Node11 -->
<g id="node11" class="node">
<title>Node11</title>
<polygon fill="#ffffff" stroke="#bfbfbf" points="1315.6602,-69.5 1315.6602,-89.5 1374.3398,-89.5 1374.3398,-69.5 1315.6602,-69.5"/>
<text text-anchor="middle" x="1345" y="-75.9" font-family="Helvetica,sans-Serif" font-size="12.00" fill="#000000">valarray</text>
</g>
<!-- Node4&#45;&gt;Node11 -->
<g id="edge42" class="edge">
<title>Node4&#45;&gt;Node11</title>
<path fill="none" stroke="#191970" d="M713.5227,-252.4509C781.3795,-235.624 919.9105,-199.5743 1034,-159 1069.0803,-146.5242 1075.357,-136.7634 1111,-126 1192.806,-101.2964 1218.8523,-109.1947 1305.8484,-90.095"/>
<polygon fill="#191970" stroke="#191970" points="1306.6202,-93.5089 1315.6065,-87.8967 1305.0818,-86.68 1306.6202,-93.5089"/>
</g>
<!-- Node21 -->
<g id="node21" class="node">
<title>Node21</title>
<g id="a_node21"><a xlink:href="Error_8h.html" target="_top" xlink:title="Defines the exception hierarchy used by this code. ">
<polygon fill="#ffffff" stroke="#000000" points="2820.9912,-69.5 2820.9912,-89.5 2873.0088,-89.5 2873.0088,-69.5 2820.9912,-69.5"/>
<text text-anchor="middle" x="2847" y="-75.9" font-family="Helvetica,sans-Serif" font-size="12.00" fill="#000000">Error.h</text>
</a>
</g>
</g>
<!-- Node4&#45;&gt;Node21 -->
<g id="edge35" class="edge">
<title>Node4&#45;&gt;Node21</title>
<path fill="none" stroke="#191970" d="M728.1896,-261.4104C1021.5989,-255.673 2367.6742,-228.7481 2455,-216 2551.1205,-201.968 2574.3843,-191.2895 2666,-159 2720.7374,-139.7081 2782.1367,-111.2146 2817.5132,-94.0934"/>
<polygon fill="#191970" stroke="#191970" points="2819.3161,-97.1084 2826.774,-89.583 2816.251,-90.8151 2819.3161,-97.1084"/>
</g>
<!-- Node27 -->
<g id="node26" class="node">
<title>Node27</title>
<g id="a_node26"><a xlink:href="TidalPotentialTerms_8h.html" target="_top" xlink:title="Declare an interface for evaluating the expansion of the tidal potential. ">
<polygon fill="#ffffff" stroke="#ff0000" points="1011.5283,-195.5 1011.5283,-215.5 1142.4717,-215.5 1142.4717,-195.5 1011.5283,-195.5"/>
<text text-anchor="middle" x="1077" y="-201.9" font-family="Helvetica,sans-Serif" font-size="12.00" fill="#000000">TidalPotentialTerms.h</text>
</a>
</g>
</g>
<!-- Node4&#45;&gt;Node27 -->
<g id="edge36" class="edge">
<title>Node4&#45;&gt;Node27</title>
<path fill="none" stroke="#191970" d="M728.3135,-254.5744C799.494,-244.5564 922.2746,-227.2762 1001.5225,-216.1228"/>
<polygon fill="#191970" stroke="#191970" points="1002.0298,-219.5859 1011.4444,-214.7263 1001.0542,-212.6543 1002.0298,-219.5859"/>
</g>
<!-- Node5&#45;&gt;Node1 -->
<g id="edge8" class="edge">
<title>Node5&#45;&gt;Node1</title>
<path fill="none" stroke="#191970" d="M417.4329,-195.3223C409.3234,-178.4011 390.8023,-144.5157 365,-126 317.6803,-92.0435 206.636,-110.9875 247,-69 268.4569,-46.6801 1185.9228,-24.9543 1484.8896,-18.456"/>
<polygon fill="#191970" stroke="#191970" points="1485.3395,-21.9471 1495.2614,-18.2312 1485.1878,-14.9488 1485.3395,-21.9471"/>
</g>
<!-- Node5&#45;&gt;Node6 -->
<g id="edge9" class="edge">
<title>Node5&#45;&gt;Node6</title>
<path fill="none" stroke="#191970" d="M400.3099,-195.378C377.9713,-184.9533 342.9586,-168.614 317.7645,-156.8568"/>
<polygon fill="#191970" stroke="#191970" points="319.1782,-153.6542 308.6363,-152.5969 316.218,-159.9975 319.1782,-153.6542"/>
</g>
<!-- Node5&#45;&gt;Node9 -->
<g id="edge12" class="edge">
<title>Node5&#45;&gt;Node9</title>
<path fill="none" stroke="#191970" d="M478.1201,-199.0246C579.2202,-187.3592 791.5317,-162.8617 900.4298,-150.2966"/>
<polygon fill="#191970" stroke="#191970" points="901.1054,-153.7419 910.6383,-149.1187 900.303,-146.7881 901.1054,-153.7419"/>
</g>
<!-- Node25 -->
<g id="node25" class="node">
<title>Node25</title>
<g id="a_node25"><a xlink:href="IncludeEigen_8h_source.html" target="_top" xlink:title="IncludeEigen.h">
<polygon fill="#ffffff" stroke="#ff0000" points="328.3027,-69.5 328.3027,-89.5 423.6973,-89.5 423.6973,-69.5 328.3027,-69.5"/>
<text text-anchor="middle" x="376" y="-75.9" font-family="Helvetica,sans-Serif" font-size="12.00" fill="#000000">IncludeEigen.h</text>
</a>
</g>
</g>
<!-- Node5&#45;&gt;Node25 -->
<g id="edge33" class="edge">
<title>Node5&#45;&gt;Node25</title>
<path fill="none" stroke="#191970" d="M419.4416,-195.2981C415.4917,-180.0105 407.3768,-150.3524 398,-126 394.4865,-116.8752 389.9544,-107.0502 385.9175,-98.7929"/>
<polygon fill="#191970" stroke="#191970" points="388.9472,-97.026 381.3408,-89.6507 382.6877,-100.1596 388.9472,-97.026"/>
</g>
<!-- Node6&#45;&gt;Node1 -->
<g id="edge10" class="edge">
<title>Node6&#45;&gt;Node1</title>
<path fill="none" stroke="#191970" d="M264.1294,-132.3749C235.2745,-118.2932 191.9279,-91.938 214,-69 236.0606,-46.074 1181.4813,-24.6577 1485.1423,-18.3595"/>
<polygon fill="#191970" stroke="#191970" points="1485.3131,-21.8568 1495.2386,-18.1507 1485.1684,-14.8583 1485.3131,-21.8568"/>
</g>
<!-- Node8 -->
<g id="node8" class="node">
<title>Node8</title>
<polygon fill="#ffffff" stroke="#bfbfbf" points="255.6611,-69.5 255.6611,-89.5 310.3389,-89.5 310.3389,-69.5 255.6611,-69.5"/>
<text text-anchor="middle" x="283" y="-75.9" font-family="Helvetica,sans-Serif" font-size="12.00" fill="#000000">cassert</text>
</g>
<!-- Node6&#45;&gt;Node8 -->
<g id="edge11" class="edge">
<title>Node6&#45;&gt;Node8</title>
<path fill="none" stroke="#191970" d="M286.3573,-132.378C285.8066,-123.7041 284.9959,-110.9355 284.3091,-100.1186"/>
<polygon fill="#191970" stroke="#191970" points="287.7811,-99.5643 283.6544,-89.8062 280.7951,-100.0079 287.7811,-99.5643"/>
</g>
<!-- Node9&#45;&gt;Node1 -->
<g id="edge25" class="edge">
<title>Node9&#45;&gt;Node1</title>
<path fill="none" stroke="#191970" d="M1008.0904,-132.4173C1055.5141,-120.3262 1131.495,-100.393 1159,-90 1178.8955,-82.4823 1181.6597,-75.2144 1202,-69 1295.8072,-40.3397 1407.6136,-27.2595 1484.7918,-21.3307"/>
<polygon fill="#191970" stroke="#191970" points="1485.2598,-24.8056 1494.9731,-20.5746 1484.7413,-17.8249 1485.2598,-24.8056"/>
</g>
<!-- Node9&#45;&gt;Node8 -->
<g id="edge24" class="edge">
<title>Node9&#45;&gt;Node8</title>
<path fill="none" stroke="#191970" d="M910.8276,-139.3693C777.8352,-131.852 449.8158,-111.8986 320.4449,-89.8995"/>
<polygon fill="#191970" stroke="#191970" points="320.8379,-86.4145 310.3792,-88.1079 319.6112,-93.3062 320.8379,-86.4145"/>
</g>
<!-- Node10 -->
<g id="node10" class="node">
<title>Node10</title>
<polygon fill="#ffffff" stroke="#bfbfbf" points="1833.667,-69.5 1833.667,-89.5 1864.333,-89.5 1864.333,-69.5 1833.667,-69.5"/>
<text text-anchor="middle" x="1849" y="-75.9" font-family="Helvetica,sans-Serif" font-size="12.00" fill="#000000">list</text>
</g>
<!-- Node9&#45;&gt;Node10 -->
<g id="edge13" class="edge">
<title>Node9&#45;&gt;Node10</title>
<path fill="none" stroke="#191970" d="M1025.1261,-138.4149C1196.8775,-126.133 1704.0907,-89.8624 1823.5806,-81.3177"/>
<polygon fill="#191970" stroke="#191970" points="1823.891,-84.8046 1833.6159,-80.6001 1823.3917,-77.8224 1823.891,-84.8046"/>
</g>
<!-- Node9&#45;&gt;Node11 -->
<g id="edge14" class="edge">
<title>Node9&#45;&gt;Node11</title>
<path fill="none" stroke="#191970" d="M1008.0385,-132.4962C1018.1065,-130.1737 1028.9169,-127.8446 1039,-126 1154.102,-104.9437 1187.5029,-113.5708 1305.8335,-90.0235"/>
<polygon fill="#191970" stroke="#191970" points="1306.5308,-93.4534 1315.6372,-88.0384 1305.1415,-86.5926 1306.5308,-93.4534"/>
</g>
<!-- Node12 -->
<g id="node12" class="node">
<title>Node12</title>
<polygon fill="#ffffff" stroke="#bfbfbf" points="1468.3359,-69.5 1468.3359,-89.5 1511.6641,-89.5 1511.6641,-69.5 1468.3359,-69.5"/>
<text text-anchor="middle" x="1490" y="-75.9" font-family="Helvetica,sans-Serif" font-size="12.00" fill="#000000">limits</text>
</g>
<!-- Node9&#45;&gt;Node12 -->
<g id="edge15" class="edge">
<title>Node9&#45;&gt;Node12</title>
<path fill="none" stroke="#191970" d="M1025.3563,-135.5777C1135.2043,-122.3202 1371.9937,-93.7421 1457.9738,-83.3652"/>
<polygon fill="#191970" stroke="#191970" points="1458.648,-86.8094 1468.1565,-82.1363 1457.8092,-79.8598 1458.648,-86.8094"/>
</g>
<!-- Node13 -->
<g id="node13" class="node">
<title>Node13</title>
<polygon fill="#ffffff" stroke="#bfbfbf" points="2912.6631,-69.5 2912.6631,-89.5 2971.3369,-89.5 2971.3369,-69.5 2912.6631,-69.5"/>
<text text-anchor="middle" x="2942" y="-75.9" font-family="Helvetica,sans-Serif" font-size="12.00" fill="#000000">sstream</text>
</g>
<!-- Node9&#45;&gt;Node13 -->
<g id="edge16" class="edge">
<title>Node9&#45;&gt;Node13</title>
<path fill="none" stroke="#191970" d="M1025.0596,-138.1763C1077.5141,-134.3653 1157.4512,-128.9705 1227,-126 1962.0594,-94.6051 2149.7645,-161.618 2882,-90 2888.5615,-89.3582 2895.4856,-88.4063 2902.2065,-87.3334"/>
<polygon fill="#191970" stroke="#191970" points="2903.25,-90.7061 2912.5194,-85.5749 2902.0733,-83.8057 2903.25,-90.7061"/>
</g>
<!-- Node14 -->
<g id="node14" class="node">
<title>Node14</title>
<polygon fill="#ffffff" stroke="#bfbfbf" points="2856.9932,-6.5 2856.9932,-26.5 2919.0068,-26.5 2919.0068,-6.5 2856.9932,-6.5"/>
<text text-anchor="middle" x="2888" y="-12.9" font-family="Helvetica,sans-Serif" font-size="12.00" fill="#000000">iostream</text>
</g>
<!-- Node9&#45;&gt;Node14 -->
<g id="edge17" class="edge">
<title>Node9&#45;&gt;Node14</title>
<path fill="none" stroke="#191970" d="M1011.1781,-132.4647C1020.3618,-130.3305 1030.0016,-128.0906 1039,-126 1107.8879,-109.9955 1127.5842,-114.3027 1194,-90 1213.2267,-82.9646 1215.1521,-74.0223 1235,-69 1582.5789,18.9505 2497.1038,-106.6087 2848,-33 2851.4118,-32.2843 2854.9011,-31.2859 2858.3276,-30.1307"/>
<polygon fill="#191970" stroke="#191970" points="2859.5996,-33.3916 2867.702,-26.565 2857.1109,-26.8489 2859.5996,-33.3916"/>
</g>
<!-- Node15 -->
<g id="node15" class="node">
<title>Node15</title>
<polygon fill="#ffffff" stroke="#bfbfbf" points="1244.3262,-69.5 1244.3262,-89.5 1297.6738,-89.5 1297.6738,-69.5 1244.3262,-69.5"/>
<text text-anchor="middle" x="1271" y="-75.9" font-family="Helvetica,sans-Serif" font-size="12.00" fill="#000000">iterator</text>
</g>
<!-- Node9&#45;&gt;Node15 -->
<g id="edge18" class="edge">
<title>Node9&#45;&gt;Node15</title>
<path fill="none" stroke="#191970" d="M1009.9836,-132.4354C1019.5072,-130.2381 1029.5882,-127.9797 1039,-126 1123.5338,-108.2191 1145.6703,-108.7252 1230,-90 1231.4346,-89.6814 1232.8953,-89.3486 1234.3693,-89.0056"/>
<polygon fill="#191970" stroke="#191970" points="1235.2562,-92.3921 1244.1532,-86.6392 1233.6106,-85.5882 1235.2562,-92.3921"/>
</g>
<!-- Node16 -->
<g id="node16" class="node">
<title>Node16</title>
<polygon fill="#ffffff" stroke="#bfbfbf" points="608.6416,-69.5 608.6416,-89.5 707.3584,-89.5 707.3584,-69.5 608.6416,-69.5"/>
<text text-anchor="middle" x="658" y="-75.9" font-family="Helvetica,sans-Serif" font-size="12.00" fill="#000000">gsl/gsl_vector.h</text>
</g>
<!-- Node9&#45;&gt;Node16 -->
<g id="edge19" class="edge">
<title>Node9&#45;&gt;Node16</title>
<path fill="none" stroke="#191970" d="M918.5368,-132.4478C863.7571,-121.3152 775.4851,-103.376 717.1064,-91.512"/>
<polygon fill="#191970" stroke="#191970" points="717.7838,-88.0781 707.287,-89.5164 716.3896,-94.9379 717.7838,-88.0781"/>
</g>
<!-- Node17 -->
<g id="node17" class="node">
<title>Node17</title>
<polygon fill="#ffffff" stroke="#bfbfbf" points="725.3193,-69.5 725.3193,-89.5 824.6807,-89.5 824.6807,-69.5 725.3193,-69.5"/>
<text text-anchor="middle" x="775" y="-75.9" font-family="Helvetica,sans-Serif" font-size="12.00" fill="#000000">gsl/gsl_matrix.h</text>
</g>
<!-- Node9&#45;&gt;Node17 -->
<g id="edge20" class="edge">
<title>Node9&#45;&gt;Node17</title>
<path fill="none" stroke="#191970" d="M936.9912,-132.378C904.0704,-121.6318 851.8957,-104.6007 815.6907,-92.7825"/>
<polygon fill="#191970" stroke="#191970" points="816.5243,-89.3729 805.9318,-89.5969 814.3521,-96.0273 816.5243,-89.3729"/>
</g>
<!-- Node18 -->
<g id="node18" class="node">
<title>Node18</title>
<polygon fill="#ffffff" stroke="#bfbfbf" points="842.6426,-69.5 842.6426,-89.5 937.3574,-89.5 937.3574,-69.5 842.6426,-69.5"/>
<text text-anchor="middle" x="890" y="-75.9" font-family="Helvetica,sans-Serif" font-size="12.00" fill="#000000">gsl/gsl_linalg.h</text>
</g>
<!-- Node9&#45;&gt;Node18 -->
<g id="edge21" class="edge">
<title>Node9&#45;&gt;Node18</title>
<path fill="none" stroke="#191970" d="M955.468,-132.378C943.3003,-122.5503 924.6246,-107.4661 910.3293,-95.9198"/>
<polygon fill="#191970" stroke="#191970" points="912.4796,-93.1575 902.5009,-89.5969 908.0812,-98.6031 912.4796,-93.1575"/>
</g>
<!-- Node19 -->
<g id="node19" class="node">
<title>Node19</title>
<polygon fill="#ffffff" stroke="#bfbfbf" points="955.6455,-69.5 955.6455,-89.5 1044.3545,-89.5 1044.3545,-69.5 955.6455,-69.5"/>
<text text-anchor="middle" x="1000" y="-75.9" font-family="Helvetica,sans-Serif" font-size="12.00" fill="#000000">gsl/gsl_blas.h</text>
</g>
<!-- Node9&#45;&gt;Node19 -->
<g id="edge22" class="edge">
<title>Node9&#45;&gt;Node19</title>
<path fill="none" stroke="#191970" d="M973.1414,-132.378C977.7326,-123.3389 984.5826,-109.853 990.2156,-98.7631"/>
<polygon fill="#191970" stroke="#191970" points="993.3569,-100.3071 994.7651,-89.8062 987.1159,-97.137 993.3569,-100.3071"/>
</g>
<!-- Node20 -->
<g id="node20" class="node">
<title>Node20</title>
<polygon fill="#ffffff" stroke="#bfbfbf" points="1062.0879,-69.5 1062.0879,-89.5 1149.9121,-89.5 1149.9121,-69.5 1062.0879,-69.5"/>
<text text-anchor="middle" x="1106" y="-75.9" font-family="Helvetica,sans-Serif" font-size="12.00" fill="#000000">gsl/gsl_poly.h</text>
</g>
<!-- Node9&#45;&gt;Node20 -->
<g id="edge23" class="edge">
<title>Node9&#45;&gt;Node20</title>
<path fill="none" stroke="#191970" d="M990.1721,-132.378C1013.0071,-121.9533 1048.7979,-105.614 1074.5519,-93.8568"/>
<polygon fill="#191970" stroke="#191970" points="1076.2396,-96.9338 1083.8829,-89.5969 1073.3325,-90.566 1076.2396,-96.9338"/>
</g>
<!-- Node9&#45;&gt;Node21 -->
<g id="edge26" class="edge">
<title>Node9&#45;&gt;Node21</title>
<path fill="none" stroke="#191970" d="M1025.0646,-138.2902C1077.5226,-134.5569 1157.462,-129.212 1227,-126 1860.8831,-96.7203 2635.1959,-82.9407 2810.5492,-80.0751"/>
<polygon fill="#191970" stroke="#191970" points="2810.827,-83.5712 2820.7689,-79.9094 2810.7135,-76.5721 2810.827,-83.5712"/>
</g>
<!-- Node24 -->
<g id="node24" class="node">
<title>Node24</title>
<g id="a_node24"><a xlink:href="AstronomicalConstants_8h.html" target="_top" xlink:title="Defines various astronomical constants. ">
<polygon fill="#ffffff" stroke="#000000" points="441.3027,-69.5 441.3027,-89.5 590.6973,-89.5 590.6973,-69.5 441.3027,-69.5"/>
<text text-anchor="middle" x="516" y="-75.9" font-family="Helvetica,sans-Serif" font-size="12.00" fill="#000000">AstronomicalConstants.h</text>
</a>
</g>
</g>
<!-- Node9&#45;&gt;Node24 -->
<g id="edge31" class="edge">
<title>Node9&#45;&gt;Node24</title>
<path fill="none" stroke="#191970" d="M919.6844,-132.4238C908.028,-130.1551 895.5914,-127.8685 884,-126 877.0423,-124.8784 707.4364,-103.5364 600.937,-90.1599"/>
<polygon fill="#191970" stroke="#191970" points="601.1935,-86.6647 590.8352,-88.8912 600.3211,-93.6101 601.1935,-86.6647"/>
</g>
<!-- Node9&#45;&gt;Node25 -->
<g id="edge32" class="edge">
<title>Node9&#45;&gt;Node25</title>
<path fill="none" stroke="#191970" d="M910.6879,-138.5452C814.2391,-131.5265 613.201,-115.3383 434.0518,-90.2052"/>
<polygon fill="#191970" stroke="#191970" points="434.3073,-86.7065 423.9154,-88.7701 433.326,-93.6374 434.3073,-86.7065"/>
</g>
<!-- Node21&#45;&gt;Node1 -->
<g id="edge27" class="edge">
<title>Node21&#45;&gt;Node1</title>
<path fill="none" stroke="#191970" d="M2820.9259,-73.2955C2812.9683,-71.6284 2804.1641,-70.0098 2796,-69 2578.6958,-42.1225 1917.0365,-24.397 1671.237,-18.5866"/>
<polygon fill="#191970" stroke="#191970" points="1670.9849,-15.0798 1660.9053,-18.3436 1670.8202,-22.0779 1670.9849,-15.0798"/>
</g>
<!-- Node21&#45;&gt;Node14 -->
<g id="edge28" class="edge">
<title>Node21&#45;&gt;Node14</title>
<path fill="none" stroke="#191970" d="M2853.5874,-69.378C2859.5294,-60.2476 2868.4241,-46.5801 2875.6819,-35.4278"/>
<polygon fill="#191970" stroke="#191970" points="2878.7717,-37.0967 2881.2928,-26.8062 2872.9047,-33.2785 2878.7717,-37.0967"/>
</g>
<!-- Node22 -->
<g id="node22" class="node">
<title>Node22</title>
<polygon fill="#ffffff" stroke="#bfbfbf" points="2771.3154,-6.5 2771.3154,-26.5 2838.6846,-26.5 2838.6846,-6.5 2771.3154,-6.5"/>
<text text-anchor="middle" x="2805" y="-12.9" font-family="Helvetica,sans-Serif" font-size="12.00" fill="#000000">exception</text>
</g>
<!-- Node21&#45;&gt;Node22 -->
<g id="edge29" class="edge">
<title>Node21&#45;&gt;Node22</title>
<path fill="none" stroke="#191970" d="M2840.252,-69.378C2834.165,-60.2476 2825.0534,-46.5801 2817.6185,-35.4278"/>
<polygon fill="#191970" stroke="#191970" points="2820.33,-33.1853 2811.8708,-26.8062 2814.5057,-37.0682 2820.33,-33.1853"/>
</g>
<!-- Node23 -->
<g id="node23" class="node">
<title>Node23</title>
<polygon fill="#ffffff" stroke="#bfbfbf" points="3177.3281,-6.5 3177.3281,-26.5 3222.6719,-26.5 3222.6719,-6.5 3177.3281,-6.5"/>
<text text-anchor="middle" x="3200" y="-12.9" font-family="Helvetica,sans-Serif" font-size="12.00" fill="#000000">string</text>
</g>
<!-- Node21&#45;&gt;Node23 -->
<g id="edge30" class="edge">
<title>Node21&#45;&gt;Node23</title>
<path fill="none" stroke="#191970" d="M2873.0994,-74.6547C2882.7997,-72.8637 2893.9001,-70.8259 2904,-69 2999.334,-51.765 3112.042,-31.9214 3166.8049,-22.3137"/>
<polygon fill="#191970" stroke="#191970" points="3167.7174,-25.7072 3176.9625,-20.5325 3166.5083,-18.8124 3167.7174,-25.7072"/>
</g>
<!-- Node27&#45;&gt;Node9 -->
<g id="edge39" class="edge">
<title>Node27&#45;&gt;Node9</title>
<path fill="none" stroke="#191970" d="M1059.4873,-195.378C1041.8482,-185.1829 1014.4218,-169.3309 994.195,-157.6402"/>
<polygon fill="#191970" stroke="#191970" points="995.8786,-154.5708 985.4693,-152.5969 992.3757,-160.6313 995.8786,-154.5708"/>
</g>
<!-- Node27&#45;&gt;Node11 -->
<g id="edge38" class="edge">
<title>Node27&#45;&gt;Node11</title>
<path fill="none" stroke="#191970" d="M1084.008,-195.4409C1096.4466,-178.3839 1124.0976,-143.8993 1156,-126 1213.4658,-93.7581 1237.9533,-105.9455 1305.7129,-90.1634"/>
<polygon fill="#191970" stroke="#191970" points="1306.6923,-93.527 1315.5692,-87.7433 1305.023,-86.7289 1306.6923,-93.527"/>
</g>
<!-- Node28 -->
<g id="node27" class="node">
<title>Node28</title>
<polygon fill="#ffffff" stroke="#bfbfbf" points="1235.6611,-132.5 1235.6611,-152.5 1284.3389,-152.5 1284.3389,-132.5 1235.6611,-132.5"/>
<text text-anchor="middle" x="1260" y="-138.9" font-family="Helvetica,sans-Serif" font-size="12.00" fill="#000000">cmath</text>
</g>
<!-- Node27&#45;&gt;Node28 -->
<g id="edge37" class="edge">
<title>Node27&#45;&gt;Node28</title>
<path fill="none" stroke="#191970" d="M1106.4021,-195.378C1139.047,-184.1395 1191.6592,-166.0272 1226.0366,-154.1923"/>
<polygon fill="#191970" stroke="#191970" points="1227.3312,-157.4483 1235.6473,-150.8837 1225.0526,-150.8295 1227.3312,-157.4483"/>
</g>
<!-- Node39&#45;&gt;Node1 -->
<g id="edge44" class="edge">
<title>Node39&#45;&gt;Node1</title>
<path fill="none" stroke="#191970" d="M738.3527,-321.5417C575.9489,-309.252 114,-268.7365 114,-205.5 114,-205.5 114,-205.5 114,-142.5 114,-96.4592 144.8352,-87.4902 187,-69 246.3589,-42.9698 1183.3561,-23.6935 1485.1319,-18.1352"/>
<polygon fill="#191970" stroke="#191970" points="1485.2325,-21.6341 1495.1666,-17.9512 1485.104,-14.6352 1485.2325,-21.6341"/>
</g>
<!-- Node39&#45;&gt;Node4 -->
<g id="edge45" class="edge">
<title>Node39&#45;&gt;Node4</title>
<path fill="none" stroke="#191970" d="M774.3986,-315.378C754.4779,-305.091 723.4043,-289.0448 700.7093,-277.3253"/>
<polygon fill="#191970" stroke="#191970" points="702.0439,-274.0754 691.5528,-272.5969 698.8321,-280.2951 702.0439,-274.0754"/>
</g>
<!-- Node39&#45;&gt;Node8 -->
<g id="edge49" class="edge">
<title>Node39&#45;&gt;Node8</title>
<path fill="none" stroke="#191970" d="M737.9848,-318.911C602.9115,-301.6662 266.1793,-250.1214 209,-159 201.2043,-146.5767 201.9056,-138.8367 209,-126 217.0675,-111.4024 231.8503,-100.7676 246.094,-93.3837"/>
<polygon fill="#191970" stroke="#191970" points="247.7817,-96.4566 255.3004,-88.992 244.7678,-90.1386 247.7817,-96.4566"/>
</g>
<!-- Node39&#45;&gt;Node9 -->
<g id="edge47" class="edge">
<title>Node39&#45;&gt;Node9</title>
<path fill="none" stroke="#191970" d="M800.3616,-315.1853C814.9827,-291.9832 852.8981,-234.6167 894,-195 908.5577,-180.9683 927.1209,-167.8089 942.0129,-158.1747"/>
<polygon fill="#191970" stroke="#191970" points="944.1605,-160.9578 950.7422,-152.6553 940.4195,-155.0412 944.1605,-160.9578"/>
</g>
<!-- Node39&#45;&gt;Node11 -->
<g id="edge48" class="edge">
<title>Node39&#45;&gt;Node11</title>
<path fill="none" stroke="#191970" d="M849.853,-322.0864C926.3051,-314.6481 1063.958,-291.0194 1151,-216 1184.5799,-187.0583 1160.4363,-154.9605 1194,-126 1198.3832,-122.2179 1262.6726,-103.1964 1305.9378,-90.6834"/>
<polygon fill="#191970" stroke="#191970" points="1306.9893,-94.0229 1315.6272,-87.8881 1305.0489,-87.2972 1306.9893,-94.0229"/>
</g>
<!-- Node39&#45;&gt;Node24 -->
<g id="edge46" class="edge">
<title>Node39&#45;&gt;Node24</title>
<path fill="none" stroke="#191970" d="M787.3375,-315.3553C777.3641,-300.5597 757.5207,-272.5852 737,-252 672.0127,-186.8086 582.4307,-123.7939 540.0613,-95.3192"/>
<polygon fill="#191970" stroke="#191970" points="541.7862,-92.2624 531.5257,-89.6218 537.9,-98.0846 541.7862,-92.2624"/>
</g>
<!-- Node41&#45;&gt;Node1 -->
<g id="edge51" class="edge">
<title>Node41&#45;&gt;Node1</title>
<path fill="none" stroke="#191970" d="M1193.6055,-384.2795C1201.2757,-367.7403 1217.6484,-334.4007 1236,-309 1321.2707,-190.9759 1340.3935,-153.4588 1459,-69 1477.5786,-55.7703 1500.0213,-44.8076 1520.3869,-36.3824"/>
<polygon fill="#191970" stroke="#191970" points="1521.906,-39.5441 1529.883,-32.5714 1519.2989,-33.0477 1521.906,-39.5441"/>
</g>
<!-- Node41&#45;&gt;Node9 -->
<g id="edge54" class="edge">
<title>Node41&#45;&gt;Node9</title>
<path fill="none" stroke="#191970" d="M1183.0714,-384.4197C1167.5861,-358.882 1123.4018,-290.9115 1070,-252 1035.5147,-226.8722 1007.8545,-249.1583 981,-216 968.8736,-201.027 966.448,-178.6524 966.5453,-162.5251"/>
<polygon fill="#191970" stroke="#191970" points="970.0429,-162.6522 966.9276,-152.5258 963.0481,-162.3848 970.0429,-162.6522"/>
</g>
<!-- Node41&#45;&gt;Node12 -->
<g id="edge57" class="edge">
<title>Node41&#45;&gt;Node12</title>
<path fill="none" stroke="#191970" d="M1198.8734,-384.0998C1226.9871,-354.4933 1309.8956,-267.232 1379,-195 1412.218,-160.2786 1451.16,-119.8127 1472.9677,-97.1731"/>
<polygon fill="#191970" stroke="#191970" points="1475.7669,-99.3123 1480.1846,-89.6824 1470.7258,-94.4555 1475.7669,-99.3123"/>
</g>
<!-- Node41&#45;&gt;Node14 -->
<g id="edge58" class="edge">
<title>Node41&#45;&gt;Node14</title>
<path fill="none" stroke="#191970" d="M1239.1944,-393.6145C1518.3975,-388.6095 2868.9203,-363.3307 2906,-342 2961.7429,-309.933 3036.6818,-123.1547 3002,-69 2986.0238,-44.0536 2954.8648,-30.797 2929.155,-23.8497"/>
<polygon fill="#191970" stroke="#191970" points="2929.8004,-20.404 2919.2529,-21.404 2928.1219,-27.1997 2929.8004,-20.404"/>
</g>
<!-- Node41&#45;&gt;Node21 -->
<g id="edge55" class="edge">
<title>Node41&#45;&gt;Node21</title>
<path fill="none" stroke="#191970" d="M1239.1038,-393.5932C1514.7905,-388.5238 2835.8529,-363.1605 2872,-342 2928.4388,-308.9607 2930.4696,-279.0049 2948,-216 2958.7223,-177.4639 2969.574,-159.6833 2948,-126 2933.761,-103.7688 2905.9106,-92.0196 2883.0557,-85.8976"/>
<polygon fill="#191970" stroke="#191970" points="2883.8407,-82.4866 2873.2978,-83.5337 2882.1926,-89.2898 2883.8407,-82.4866"/>
</g>
<!-- Node41&#45;&gt;Node23 -->
<g id="edge56" class="edge">
<title>Node41&#45;&gt;Node23</title>
<path fill="none" stroke="#191970" d="M1239.2301,-394.1671C1517.2745,-392.1766 2858.0311,-380.6 2936,-342 3074.0987,-273.6316 3164.3847,-95.6124 3191.453,-36.1576"/>
<polygon fill="#191970" stroke="#191970" points="3194.759,-37.3381 3195.6416,-26.7801 3188.3676,-34.4832 3194.759,-37.3381"/>
</g>
<!-- Node41&#45;&gt;Node24 -->
<g id="edge53" class="edge">
<title>Node41&#45;&gt;Node24</title>
<path fill="none" stroke="#191970" d="M1168.1466,-384.471C1093.867,-348.7879 835.1377,-224.8428 620,-126 595.9518,-114.9513 568.6298,-102.7487 548.0265,-93.617"/>
<polygon fill="#191970" stroke="#191970" points="549.3438,-90.3726 538.7828,-89.5262 546.5109,-96.7737 549.3438,-90.3726"/>
</g>
<!-- Node41&#45;&gt;Node39 -->
<g id="edge52" class="edge">
<title>Node41&#45;&gt;Node39</title>
<path fill="none" stroke="#191970" d="M1155.7848,-384.4734C1147.417,-382.1515 1138.419,-379.8283 1130,-378 1036.98,-357.7992 927.859,-342.2198 859.8111,-333.453"/>
<polygon fill="#191970" stroke="#191970" points="860.0267,-329.9522 849.6638,-332.157 859.1398,-336.8958 860.0267,-329.9522"/>
</g>
<!-- Node46&#45;&gt;Node1 -->
<g id="edge60" class="edge">
<title>Node46&#45;&gt;Node1</title>
<path fill="none" stroke="#191970" d="M1051.9894,-378.1353C1076.4093,-347.1421 1130.4437,-277.4717 1172,-216 1198.2542,-177.1638 1188.9707,-153.4099 1227,-126 1284.7244,-84.3946 1315.9309,-113.7664 1383,-90 1403.047,-82.8962 1406.3565,-77.1535 1426,-69 1455.4092,-56.793 1488.7836,-45.0423 1516.7529,-35.7643"/>
<polygon fill="#191970" stroke="#191970" points="1517.9997,-39.0387 1526.4052,-32.589 1515.8122,-32.3893 1517.9997,-39.0387"/>
</g>
<!-- Node46&#45;&gt;Node21 -->
<g id="edge62" class="edge">
<title>Node46&#45;&gt;Node21</title>
<path fill="none" stroke="#191970" d="M1121.2573,-378.9832C1124.2033,-378.6194 1127.1244,-378.2892 1130,-378 1224.2124,-368.5237 2752.0447,-389.4247 2834,-342 2862.3022,-325.6225 2901.2348,-247.5025 2910,-216 2920.7223,-177.4639 2928.0255,-161.7083 2910,-126 2903.2465,-112.6215 2890.6266,-102.1422 2878.4451,-94.5462"/>
<polygon fill="#191970" stroke="#191970" points="2880.1535,-91.4911 2869.7428,-89.5244 2876.6548,-97.554 2880.1535,-91.4911"/>
</g>
<!-- Node46&#45;&gt;Node39 -->
<g id="edge61" class="edge">
<title>Node46&#45;&gt;Node39</title>
<path fill="none" stroke="#191970" d="M982.1763,-378.4966C938.7815,-366.2752 879.7755,-349.6572 839.4788,-338.3083"/>
<polygon fill="#191970" stroke="#191970" points="840.2322,-334.8844 829.6579,-335.5424 838.3346,-341.6223 840.2322,-334.8844"/>
</g>
<!-- Node30 -->
<g id="node31" class="node">
<title>Node30</title>
<polygon fill="#ffffff" stroke="#bfbfbf" points="1387.6611,-195.5 1387.6611,-215.5 1436.3389,-215.5 1436.3389,-195.5 1387.6611,-195.5"/>
<text text-anchor="middle" x="1412" y="-201.9" font-family="Helvetica,sans-Serif" font-size="12.00" fill="#000000">vector</text>
</g>
<!-- Node46&#45;&gt;Node30 -->
<g id="edge63" class="edge">
<title>Node46&#45;&gt;Node30</title>
<path fill="none" stroke="#191970" d="M1070.8018,-378.386C1142.1446,-342.2364 1314.0742,-255.1193 1382.8483,-220.2713"/>
<polygon fill="#191970" stroke="#191970" points="1384.5085,-223.3537 1391.8467,-215.7117 1381.3445,-217.1096 1384.5085,-223.3537"/>
</g>
<!-- Node47&#45;&gt;Node1 -->
<g id="edge65" class="edge">
<title>Node47&#45;&gt;Node1</title>
<path fill="none" stroke="#191970" d="M786.824,-392.3348C589.3172,-384.6651 76,-350.7592 76,-205.5 76,-205.5 76,-205.5 76,-142.5 76,-99.1849 100.9115,-87.6624 140,-69 200.6561,-40.0404 1175.881,-22.6649 1484.8707,-17.8663"/>
<polygon fill="#191970" stroke="#191970" points="1485.1944,-21.3618 1495.1391,-17.7077 1485.0862,-14.3627 1485.1944,-21.3618"/>
</g>
<!-- Node47&#45;&gt;Node21 -->
<g id="edge67" class="edge">
<title>Node47&#45;&gt;Node21</title>
<path fill="none" stroke="#191970" d="M907.3414,-384.4313C920.3723,-381.8697 934.6986,-379.4375 948,-378 1285.4627,-341.5304 2139.0338,-390.3507 2475,-342 2592.0613,-325.1531 2636.7785,-343.1429 2732,-273 2793.3895,-227.7787 2828.0035,-139.0887 2840.9963,-99.4576"/>
<polygon fill="#191970" stroke="#191970" points="2844.3516,-100.4554 2844.0287,-89.8655 2837.6771,-98.3453 2844.3516,-100.4554"/>
</g>
<!-- Node47&#45;&gt;Node39 -->
<g id="edge66" class="edge">
<title>Node47&#45;&gt;Node39</title>
<path fill="none" stroke="#191970" d="M852.8188,-384.3188C841.9135,-373.4135 824.4123,-355.9123 811.331,-342.831"/>
<polygon fill="#191970" stroke="#191970" points="813.7689,-340.3192 804.223,-335.723 808.8192,-345.2689 813.7689,-340.3192"/>
</g>
<!-- Node47&#45;&gt;Node30 -->
<g id="edge68" class="edge">
<title>Node47&#45;&gt;Node30</title>
<path fill="none" stroke="#191970" d="M892.032,-384.4517C959.4415,-361.1273 1131.8109,-301.5251 1276,-252 1310.6807,-240.0881 1350.3597,-226.5294 1377.8709,-217.1397"/>
<polygon fill="#191970" stroke="#191970" points="1379.0904,-220.4218 1387.4242,-213.8797 1376.8297,-213.7969 1379.0904,-220.4218"/>
</g>
<!-- Node48&#45;&gt;Node1 -->
<g id="edge70" class="edge">
<title>Node48&#45;&gt;Node1</title>
<path fill="none" stroke="#191970" d="M1996.3117,-195.4553C1944.6271,-185.9293 1873.0716,-171.287 1847,-159 1787.9735,-131.182 1788.4146,-100.0087 1731,-69 1705.4722,-55.2128 1675.6304,-44.0033 1649.1141,-35.5364"/>
<polygon fill="#191970" stroke="#191970" points="1650.0981,-32.1771 1639.5095,-32.5414 1648.0142,-38.8597 1650.0981,-32.1771"/>
</g>
<!-- Node48&#45;&gt;Node9 -->
<g id="edge71" class="edge">
<title>Node48&#45;&gt;Node9</title>
<path fill="none" stroke="#191970" d="M1995.0769,-196.0113C1992.0109,-195.6398 1988.9714,-195.299 1986,-195 1649.9847,-161.1847 1564.1924,-177.7361 1227,-159 1161.8391,-155.3793 1087.5014,-150.5737 1035.2309,-147.0831"/>
<polygon fill="#191970" stroke="#191970" points="1035.2918,-143.5794 1025.0802,-146.4033 1034.824,-150.5638 1035.2918,-143.5794"/>
</g>
<!-- Node48&#45;&gt;Node10 -->
<g id="edge76" class="edge">
<title>Node48&#45;&gt;Node10</title>
<path fill="none" stroke="#191970" d="M2002.4459,-195.462C1950.7858,-184.9558 1877.5704,-168.6703 1868,-159 1852.5417,-143.3803 1848.8328,-117.5667 1848.3151,-99.6078"/>
<polygon fill="#191970" stroke="#191970" points="1851.815,-99.6071 1848.3286,-89.6023 1844.815,-99.5975 1851.815,-99.6071"/>
</g>
<!-- Node48&#45;&gt;Node11 -->
<g id="edge75" class="edge">
<title>Node48&#45;&gt;Node11</title>
<path fill="none" stroke="#191970" d="M1995.0514,-196.2309C1991.9921,-195.802 1988.9609,-195.3889 1986,-195 1838.8436,-175.6703 1800.0248,-185.5594 1654,-159 1555.8032,-141.1397 1442.7616,-109.0378 1384.4169,-91.5895"/>
<polygon fill="#191970" stroke="#191970" points="1385.0985,-88.1397 1374.5141,-88.6114 1383.0824,-94.8431 1385.0985,-88.1397"/>
</g>
<!-- Node48&#45;&gt;Node12 -->
<g id="edge74" class="edge">
<title>Node48&#45;&gt;Node12</title>
<path fill="none" stroke="#191970" d="M1995.1968,-196.4744C1941.9184,-187.9626 1861.3693,-174.2597 1792,-159 1692.5104,-137.1146 1576.38,-104.5297 1521.6287,-88.7402"/>
<polygon fill="#191970" stroke="#191970" points="1522.4073,-85.322 1511.8285,-85.904 1520.4613,-92.0461 1522.4073,-85.322"/>
</g>
<!-- Node48&#45;&gt;Node14 -->
<g id="edge78" class="edge">
<title>Node48&#45;&gt;Node14</title>
<path fill="none" stroke="#191970" d="M2011.8978,-195.4774C1979.2621,-186.7561 1937.9652,-173.2998 1928,-159 1919.6145,-146.967 1918.1644,-136.8799 1928,-126 2065.8004,26.4325 2648.6995,-83.0394 2848,-33 2851.035,-32.238 2854.1415,-31.2871 2857.2157,-30.2289"/>
<polygon fill="#191970" stroke="#191970" points="2858.6967,-33.4103 2866.7989,-26.5836 2856.2079,-26.8677 2858.6967,-33.4103"/>
</g>
<!-- Node48&#45;&gt;Node15 -->
<g id="edge77" class="edge">
<title>Node48&#45;&gt;Node15</title>
<path fill="none" stroke="#191970" d="M1995.0662,-196.1103C1992.003,-195.713 1988.967,-195.3396 1986,-195 1773.0147,-170.624 1715.0552,-201.8224 1505,-159 1430.9342,-143.9008 1347.988,-111.9324 1303.4617,-93.4642"/>
<polygon fill="#191970" stroke="#191970" points="1304.6148,-90.1526 1294.0389,-89.5187 1301.9112,-96.6094 1304.6148,-90.1526"/>
</g>
<!-- Node48&#45;&gt;Node21 -->
<g id="edge72" class="edge">
<title>Node48&#45;&gt;Node21</title>
<path fill="none" stroke="#191970" d="M1995.268,-195.9028C1973.8795,-189.258 1951.8227,-178.0161 1939,-159 1930.8002,-146.8396 1928.8594,-136.5962 1939,-126 1970.4894,-93.0961 2712.6042,-93.6706 2758,-90 2775.4283,-88.5908 2794.7065,-86.3953 2810.8517,-84.3755"/>
<polygon fill="#191970" stroke="#191970" points="2811.4826,-87.8234 2820.958,-83.0836 2810.5949,-80.8799 2811.4826,-87.8234"/>
</g>
<!-- Node48&#45;&gt;Node28 -->
<g id="edge73" class="edge">
<title>Node48&#45;&gt;Node28</title>
<path fill="none" stroke="#191970" d="M1995.0726,-196.0525C1992.0077,-195.6702 1988.9696,-195.3159 1986,-195 1715.0585,-166.178 1645.0748,-186.5397 1374,-159 1347.2064,-156.2779 1317.0545,-151.8536 1294.4925,-148.2713"/>
<polygon fill="#191970" stroke="#191970" points="1294.8171,-144.7785 1284.3876,-146.6427 1293.7033,-151.6893 1294.8171,-144.7785"/>
</g>
<!-- Node49 -->
<g id="node34" class="node">
<title>Node49</title>
<polygon fill="#ffffff" stroke="#bfbfbf" points="2141.9736,-126.5 2141.9736,-158.5 2254.0264,-158.5 2254.0264,-126.5 2141.9736,-126.5"/>
<text text-anchor="start" x="2149.9736" y="-144.9" font-family="Helvetica,sans-Serif" font-size="12.00" fill="#000000">boost/serialization</text>
<text text-anchor="middle" x="2198" y="-132.9" font-family="Helvetica,sans-Serif" font-size="12.00" fill="#000000">/base_object.hpp</text>
</g>
<!-- Node48&#45;&gt;Node49 -->
<g id="edge79" class="edge">
<title>Node48&#45;&gt;Node49</title>
<path fill="none" stroke="#191970" d="M2077.1361,-195.378C2097.2276,-186.5879 2126.9309,-173.5927 2151.8627,-162.685"/>
<polygon fill="#191970" stroke="#191970" points="2153.3958,-165.8347 2161.1545,-158.6199 2150.59,-159.4216 2153.3958,-165.8347"/>
</g>
<!-- Node50 -->
<g id="node35" class="node">
<title>Node50</title>
<polygon fill="#ffffff" stroke="#bfbfbf" points="2399.9756,-126.5 2399.9756,-158.5 2510.0244,-158.5 2510.0244,-126.5 2399.9756,-126.5"/>
<text text-anchor="start" x="2407.9756" y="-144.9" font-family="Helvetica,sans-Serif" font-size="12.00" fill="#000000">boost/archive/text</text>
<text text-anchor="middle" x="2455" y="-132.9" font-family="Helvetica,sans-Serif" font-size="12.00" fill="#000000">_oarchive.hpp</text>
</g>
<!-- Node48&#45;&gt;Node50 -->
<g id="edge80" class="edge">
<title>Node48&#45;&gt;Node50</title>
<path fill="none" stroke="#191970" d="M2112.7856,-199.467C2178.1946,-192.2893 2287.1565,-178.9512 2390.0022,-159.0705"/>
<polygon fill="#191970" stroke="#191970" points="2390.793,-162.4822 2399.9342,-157.1261 2389.4481,-155.6126 2390.793,-162.4822"/>
</g>
<!-- Node51 -->
<g id="node36" class="node">
<title>Node51</title>
<polygon fill="#ffffff" stroke="#bfbfbf" points="2271.9756,-126.5 2271.9756,-158.5 2382.0244,-158.5 2382.0244,-126.5 2271.9756,-126.5"/>
<text text-anchor="start" x="2279.9756" y="-144.9" font-family="Helvetica,sans-Serif" font-size="12.00" fill="#000000">boost/archive/text</text>
<text text-anchor="middle" x="2327" y="-132.9" font-family="Helvetica,sans-Serif" font-size="12.00" fill="#000000">_iarchive.hpp</text>
</g>
<!-- Node48&#45;&gt;Node51 -->
<g id="edge81" class="edge">
<title>Node48&#45;&gt;Node51</title>
<path fill="none" stroke="#191970" d="M2101.4173,-195.4227C2141.6915,-186.7568 2201.2686,-173.6877 2262.1001,-159.1781"/>
<polygon fill="#191970" stroke="#191970" points="2262.9617,-162.5708 2271.8712,-156.8375 2261.3309,-155.7634 2262.9617,-162.5708"/>
</g>
<!-- Node52 -->
<g id="node37" class="node">
<title>Node52</title>
<polygon fill="#ffffff" stroke="#bfbfbf" points="2527.9736,-126.5 2527.9736,-158.5 2640.0264,-158.5 2640.0264,-126.5 2527.9736,-126.5"/>
<text text-anchor="start" x="2535.9736" y="-144.9" font-family="Helvetica,sans-Serif" font-size="12.00" fill="#000000">boost/serialization</text>
<text text-anchor="middle" x="2584" y="-132.9" font-family="Helvetica,sans-Serif" font-size="12.00" fill="#000000">/export.hpp</text>
</g>
<!-- Node48&#45;&gt;Node52 -->
<g id="edge82" class="edge">
<title>Node48&#45;&gt;Node52</title>
<path fill="none" stroke="#191970" d="M2112.7407,-202.4381C2199.4268,-197.3003 2366.7845,-185.0198 2517.8172,-159.0569"/>
<polygon fill="#191970" stroke="#191970" points="2518.4906,-162.4924 2527.7409,-157.3269 2517.2883,-155.5964 2518.4906,-162.4924"/>
</g>
<!-- Node53&#45;&gt;Node1 -->
<g id="edge84" class="edge">
<title>Node53&#45;&gt;Node1</title>
<path fill="none" stroke="#191970" d="M2514.2716,-386.257C2641.4448,-370.9541 2888.8222,-334.0415 2949,-273 3013.3833,-207.6926 3043.6222,-135.0492 2980,-69 2957.2547,-45.3871 1980.5233,-24.3475 1671.0326,-18.2634"/>
<polygon fill="#191970" stroke="#191970" points="1670.8143,-14.7586 1660.7476,-18.0619 1670.6771,-21.7572 1670.8143,-14.7586"/>
</g>
<!-- Node53&#45;&gt;Node10 -->
<g id="edge126" class="edge">
<title>Node53&#45;&gt;Node10</title>
<path fill="none" stroke="#191970" d="M2514.4237,-379.3746C2609.3043,-358.8641 2762.7378,-319.4143 2796,-273 2801.4367,-265.4136 2799.9,-260.4795 2796,-252 2760.0438,-173.8233 2728.8036,-158.1843 2649,-126 2575.736,-96.453 2002.7381,-82.7323 1874.4326,-80.0134"/>
<polygon fill="#191970" stroke="#191970" points="1874.4414,-76.5129 1864.3705,-79.8036 1874.2954,-83.5114 1874.4414,-76.5129"/>
</g>
<!-- Node53&#45;&gt;Node11 -->
<g id="edge125" class="edge">
<title>Node53&#45;&gt;Node11</title>
<path fill="none" stroke="#191970" d="M2361.4939,-392.7504C2173.9932,-388.0254 1695.4859,-373.2049 1539,-342 1447.609,-323.7757 1394.975,-348.968 1341,-273 1303.4487,-220.1478 1324.7764,-137.0404 1337.559,-99.3111"/>
<polygon fill="#191970" stroke="#191970" points="1340.9815,-100.1321 1341.0297,-89.5373 1334.3851,-97.7896 1340.9815,-100.1321"/>
</g>
<!-- Node53&#45;&gt;Node13 -->
<g id="edge130" class="edge">
<title>Node53&#45;&gt;Node13</title>
<path fill="none" stroke="#191970" d="M2514.5781,-391.6849C2695.3982,-384.6671 3135.3628,-365.2747 3157,-342 3240.274,-252.4238 3047.0593,-135.4845 2971.0562,-94.4844"/>
<polygon fill="#191970" stroke="#191970" points="2972.4497,-91.2611 2961.9783,-89.6485 2969.1586,-97.4392 2972.4497,-91.2611"/>
</g>
<!-- Node53&#45;&gt;Node14 -->
<g id="edge128" class="edge">
<title>Node53&#45;&gt;Node14</title>
<path fill="none" stroke="#191970" d="M2514.2995,-391.5195C2698.6237,-383.9958 3154.8947,-363.3115 3180,-342 3272.5095,-263.4702 3265.3012,-151.1598 3176,-69 3140.6463,-36.4735 3000.4546,-23.3566 2929.5411,-18.7203"/>
<polygon fill="#191970" stroke="#191970" points="2929.3907,-15.2041 2919.1913,-18.0719 2928.9529,-22.1904 2929.3907,-15.2041"/>
</g>
<!-- Node53&#45;&gt;Node21 -->
<g id="edge124" class="edge">
<title>Node53&#45;&gt;Node21</title>
<path fill="none" stroke="#191970" d="M2514.5153,-391.5548C2692.3204,-384.3403 3119.9256,-364.7069 3141,-342 3150.9773,-331.2499 3146.0481,-322.7705 3141,-309 3122.657,-258.9627 3030.1218,-155.8909 2986,-126 2954.6227,-104.743 2912.7062,-92.4809 2883.1346,-85.9425"/>
<polygon fill="#191970" stroke="#191970" points="2883.7329,-82.4918 2873.2272,-83.8631 2882.295,-89.3426 2883.7329,-82.4918"/>
</g>
<!-- Node53&#45;&gt;Node23 -->
<g id="edge127" class="edge">
<title>Node53&#45;&gt;Node23</title>
<path fill="none" stroke="#191970" d="M2514.3048,-393.299C2697.4003,-389.8541 3150.8215,-377.7752 3209,-342 3291.8427,-291.0582 3272.5606,-218.9638 3244,-126 3234.0723,-93.6858 3218.6635,-57.5381 3208.9633,-35.9225"/>
<polygon fill="#191970" stroke="#191970" points="3212.0321,-34.2155 3204.709,-26.559 3205.6591,-37.1112 3212.0321,-34.2155"/>
</g>
<!-- Node53&#45;&gt;Node48 -->
<g id="edge107" class="edge">
<title>Node53&#45;&gt;Node48</title>
<path fill="none" stroke="#191970" d="M2361.4057,-379.9568C2336.0579,-372.1088 2309.1985,-360.1461 2289,-342 2256.0227,-312.3735 2280.4329,-279.9214 2246,-252 2227.0364,-236.6225 2169.7808,-223.967 2122.6904,-215.7619"/>
<polygon fill="#191970" stroke="#191970" points="2123.2593,-212.3085 2112.8135,-214.0793 2122.0836,-219.2091 2123.2593,-212.3085"/>
</g>
<!-- Node54 -->
<g id="node39" class="node">
<title>Node54</title>
<g id="a_node39"><a xlink:href="AllowedGridGrowth_8h.html" target="_top" xlink:title="Declares &amp; defines a class describing how the mass&#45;[Fe/H] interpolation grid is allowed to grow...">
<polygon fill="#ffffff" stroke="#000000" points="1350.3105,-252.5 1350.3105,-272.5 1479.6895,-272.5 1479.6895,-252.5 1350.3105,-252.5"/>
<text text-anchor="middle" x="1415" y="-258.9" font-family="Helvetica,sans-Serif" font-size="12.00" fill="#000000">AllowedGridGrowth.h</text>
</a>
</g>
</g>
<!-- Node53&#45;&gt;Node54 -->
<g id="edge85" class="edge">
<title>Node53&#45;&gt;Node54</title>
<path fill="none" stroke="#191970" d="M2361.4835,-391.7746C2192.3654,-385.3565 1791.237,-367.8585 1658,-342 1581.0705,-327.0696 1494.6781,-294.9226 1448.4617,-276.406"/>
<polygon fill="#191970" stroke="#191970" points="1449.5397,-273.0666 1438.9569,-272.5623 1446.9154,-279.556 1449.5397,-273.0666"/>
</g>
<!-- Node55 -->
<g id="node40" class="node">
<title>Node55</title>
<g id="a_node40"><a xlink:href="RemoveLogDeriv_8h.html" target="_top" xlink:title="Declares a class to switch from logarithmic to linear derivative. ">
<polygon fill="#ffffff" stroke="#000000" points="1717.085,-315.5 1717.085,-335.5 1834.915,-335.5 1834.915,-315.5 1717.085,-315.5"/>
<text text-anchor="middle" x="1776" y="-321.9" font-family="Helvetica,sans-Serif" font-size="12.00" fill="#000000">RemoveLogDeriv.h</text>
</a>
</g>
</g>
<!-- Node53&#45;&gt;Node55 -->
<g id="edge87" class="edge">
<title>Node53&#45;&gt;Node55</title>
<path fill="none" stroke="#191970" d="M2361.5913,-391.4119C2248.0574,-385.9972 2028.3863,-372.343 1844,-342 1837.1544,-340.8735 1829.9789,-339.4284 1822.9615,-337.863"/>
<polygon fill="#191970" stroke="#191970" points="1823.3835,-334.3676 1812.85,-335.5065 1821.7946,-341.1849 1823.3835,-334.3676"/>
</g>
<!-- Node57 -->
<g id="node42" class="node">
<title>Node57</title>
<g id="a_node42"><a xlink:href="SumDerivatives_8h.html" target="_top" xlink:title="Declares &amp; defines a class for the derivative of a quantity which is the sum of two other quantities...">
<polygon fill="#ffffff" stroke="#000000" points="2438.9844,-252.5 2438.9844,-272.5 2549.0156,-272.5 2549.0156,-252.5 2438.9844,-252.5"/>
<text text-anchor="middle" x="2494" y="-258.9" font-family="Helvetica,sans-Serif" font-size="12.00" fill="#000000">SumDerivatives.h</text>
</a>
</g>
</g>
<!-- Node53&#45;&gt;Node57 -->
<g id="edge94" class="edge">
<title>Node53&#45;&gt;Node57</title>
<path fill="none" stroke="#191970" d="M2451.7299,-378.4661C2459.5848,-368.5427 2469.0329,-355.2108 2475,-342 2483.6381,-322.8757 2488.6365,-299.3189 2491.3178,-282.8315"/>
<polygon fill="#191970" stroke="#191970" points="2494.8172,-283.0927 2492.8201,-272.6878 2487.8927,-282.0671 2494.8172,-283.0927"/>
</g>
<!-- Node58 -->
<g id="node43" class="node">
<title>Node58</title>
<g id="a_node43"><a xlink:href="InterpolatedDerivatives_8h_source.html" target="_top" xlink:title="InterpolatedDerivatives.h">
<polygon fill="#ffffff" stroke="#000000" points="1852.6309,-315.5 1852.6309,-335.5 2001.3691,-335.5 2001.3691,-315.5 1852.6309,-315.5"/>
<text text-anchor="middle" x="1927" y="-321.9" font-family="Helvetica,sans-Serif" font-size="12.00" fill="#000000">InterpolatedDerivatives.h</text>
</a>
</g>
</g>
<!-- Node53&#45;&gt;Node58 -->
<g id="edge97" class="edge">
<title>Node53&#45;&gt;Node58</title>
<path fill="none" stroke="#191970" d="M2361.3857,-386.4336C2276.4966,-377.1606 2135.6488,-360.7795 2015,-342 2006.0893,-340.613 1996.6979,-339.0073 1987.5012,-337.3531"/>
<polygon fill="#191970" stroke="#191970" points="1988.0968,-333.9041 1977.6302,-335.5473 1986.8371,-340.7898 1988.0968,-333.9041"/>
</g>
<!-- Node59 -->
<g id="node44" class="node">
<title>Node59</title>
<g id="a_node44"><a xlink:href="mass__feh__interp_8h.html" target="_top" xlink:title="Define a single function performing mass&#45;[Fe/H] interpolations. ">
<polygon fill="#ffffff" stroke="#000000" points="1862.6377,-195.5 1862.6377,-215.5 1977.3623,-215.5 1977.3623,-195.5 1862.6377,-195.5"/>
<text text-anchor="middle" x="1920" y="-201.9" font-family="Helvetica,sans-Serif" font-size="12.00" fill="#000000">mass_feh_interp.h</text>
</a>
</g>
</g>
<!-- Node53&#45;&gt;Node59 -->
<g id="edge106" class="edge">
<title>Node53&#45;&gt;Node59</title>
<path fill="none" stroke="#191970" d="M2381.4724,-378.4767C2347.7369,-368.6092 2304.1704,-355.331 2266,-342 2149.6358,-301.3597 2014.4453,-245.439 1953.1918,-219.617"/>
<polygon fill="#191970" stroke="#191970" points="1954.239,-216.2599 1943.6652,-215.5921 1951.5147,-222.708 1954.239,-216.2599"/>
</g>
<!-- Node61 -->
<g id="node46" class="node">
<title>Node61</title>
<g id="a_node46"><a xlink:href="InterpSolutionIterator_8h_source.html" target="_top" xlink:title="../Core/InterpSolutionIterator.h">
<polygon fill="#ffffff" stroke="#000000" points="1535.6182,-252.5 1535.6182,-272.5 1712.3818,-272.5 1712.3818,-252.5 1535.6182,-252.5"/>
<text text-anchor="middle" x="1624" y="-258.9" font-family="Helvetica,sans-Serif" font-size="12.00" fill="#000000">../Core/InterpSolutionIterator.h</text>
</a>
</g>
</g>
<!-- Node53&#45;&gt;Node61 -->
<g id="edge108" class="edge">
<title>Node53&#45;&gt;Node61</title>
<path fill="none" stroke="#191970" d="M2361.4483,-391.9062C2186.2463,-385.5541 1766.6518,-367.83 1708,-342 1677.859,-328.726 1651.8582,-299.8256 1637.0656,-280.7722"/>
<polygon fill="#191970" stroke="#191970" points="1639.7084,-278.4625 1630.9089,-272.5618 1634.1081,-282.6621 1639.7084,-278.4625"/>
</g>
<!-- Node63 -->
<g id="node48" class="node">
<title>Node63</title>
<g id="a_node48"><a xlink:href="InterpolatingFunctionALGLIB_8h_source.html" target="_top" xlink:title="../Core/InterpolatingFunction\lALGLIB.h">
<polygon fill="#ffffff" stroke="#000000" points="2298.291,-309.5 2298.291,-341.5 2465.709,-341.5 2465.709,-309.5 2298.291,-309.5"/>
<text text-anchor="start" x="2306.291" y="-327.9" font-family="Helvetica,sans-Serif" font-size="12.00" fill="#000000">../Core/InterpolatingFunction</text>
<text text-anchor="middle" x="2382" y="-315.9" font-family="Helvetica,sans-Serif" font-size="12.00" fill="#000000">ALGLIB.h</text>
</a>
</g>
</g>
<!-- Node53&#45;&gt;Node63 -->
<g id="edge119" class="edge">
<title>Node53&#45;&gt;Node63</title>
<path fill="none" stroke="#191970" d="M2425.0117,-378.4966C2418.1144,-369.9981 2409.4917,-359.3738 2401.7814,-349.8735"/>
<polygon fill="#191970" stroke="#191970" points="2404.3261,-347.4548 2395.3067,-341.8958 2398.8908,-351.866 2404.3261,-347.4548"/>
</g>
<!-- Node31 -->
<g id="node49" class="node">
<title>Node31</title>
<polygon fill="#ffffff" stroke="#bfbfbf" points="3075.9961,-315.5 3075.9961,-335.5 3132.0039,-335.5 3132.0039,-315.5 3075.9961,-315.5"/>
<text text-anchor="middle" x="3104" y="-321.9" font-family="Helvetica,sans-Serif" font-size="12.00" fill="#000000">fstream</text>
</g>
<!-- Node53&#45;&gt;Node31 -->
<g id="edge129" class="edge">
<title>Node53&#45;&gt;Node31</title>
<path fill="none" stroke="#191970" d="M2514.4872,-390.8416C2657.4401,-383.545 2959.8972,-365.8136 3062,-342 3065.3832,-341.2109 3068.8545,-340.2002 3072.2819,-339.0682"/>
<polygon fill="#191970" stroke="#191970" points="3073.5118,-342.3452 3081.7152,-335.6403 3071.1211,-335.7661 3073.5118,-342.3452"/>
</g>
<!-- Node54&#45;&gt;Node1 -->
<g id="edge86" class="edge">
<title>Node54&#45;&gt;Node1</title>
<path fill="none" stroke="#191970" d="M1421.7964,-252.2429C1445.7752,-216.0539 1526.8537,-93.6902 1561.7771,-40.9837"/>
<polygon fill="#191970" stroke="#191970" points="1564.7488,-42.8352 1567.3547,-32.5658 1558.9135,-38.9687 1564.7488,-42.8352"/>
</g>
<!-- Node55&#45;&gt;Node1 -->
<g id="edge88" class="edge">
<title>Node55&#45;&gt;Node1</title>
<path fill="none" stroke="#191970" d="M1768.3074,-315.1775C1742.1771,-280.1022 1658.1573,-167.2193 1653,-159 1628.1692,-119.4265 1603.7978,-70.7972 1589.8667,-41.7975"/>
<polygon fill="#191970" stroke="#191970" points="1593.0195,-40.2774 1585.5569,-32.7568 1586.7007,-43.2897 1593.0195,-40.2774"/>
</g>
<!-- Node56 -->
<g id="node41" class="node">
<title>Node56</title>
<g id="a_node41"><a xlink:href="LogDerivatives_8h.html" target="_top" xlink:title="Declares a class for differentiating functions of log(arg) w.r.t. arg. ">
<polygon fill="#ffffff" stroke="#000000" points="1767.6377,-252.5 1767.6377,-272.5 1912.3623,-272.5 1912.3623,-252.5 1767.6377,-252.5"/>
<text text-anchor="middle" x="1840" y="-258.9" font-family="Helvetica,sans-Serif" font-size="12.00" fill="#000000">../Core/LogDerivatives.h</text>
</a>
</g>
</g>
<!-- Node55&#45;&gt;Node56 -->
<g id="edge89" class="edge">
<title>Node55&#45;&gt;Node56</title>
<path fill="none" stroke="#191970" d="M1786.2827,-315.378C1795.9291,-305.8823 1810.5606,-291.4794 1822.1186,-280.102"/>
<polygon fill="#191970" stroke="#191970" points="1824.859,-282.3157 1829.5302,-272.8062 1819.9483,-277.3271 1824.859,-282.3157"/>
</g>
<!-- Node56&#45;&gt;Node1 -->
<g id="edge90" class="edge">
<title>Node56&#45;&gt;Node1</title>
<path fill="none" stroke="#191970" d="M1817.5132,-252.3693C1798.8922,-243.6336 1772.0158,-230.2131 1750,-216 1715.7108,-193.8634 1704.1541,-190.3327 1678,-159 1648.9498,-124.1978 1656.9011,-105.4889 1630,-69 1622.4635,-58.7774 1612.9793,-48.6099 1604.181,-39.9837"/>
<polygon fill="#191970" stroke="#191970" points="1606.3428,-37.2087 1596.6918,-32.8372 1601.5102,-42.273 1606.3428,-37.2087"/>
</g>
<!-- Node56&#45;&gt;Node21 -->
<g id="edge92" class="edge">
<title>Node56&#45;&gt;Node21</title>
<path fill="none" stroke="#191970" d="M1912.5641,-260.8998C2103.6168,-256.3472 2610.7694,-241.9476 2682,-216 2748.0954,-191.9231 2806.6235,-128.8702 2832.664,-97.6086"/>
<polygon fill="#191970" stroke="#191970" points="2835.5134,-99.6528 2839.1266,-89.6931 2830.0911,-95.2258 2835.5134,-99.6528"/>
</g>
<!-- Node56&#45;&gt;Node30 -->
<g id="edge93" class="edge">
<title>Node56&#45;&gt;Node30</title>
<path fill="none" stroke="#191970" d="M1767.3956,-252.8307C1674.1597,-240.4138 1516.1098,-219.3651 1446.5775,-210.105"/>
<polygon fill="#191970" stroke="#191970" points="1446.9644,-206.6256 1436.5898,-208.7748 1446.0402,-213.5644 1446.9644,-206.6256"/>
</g>
<!-- Node56&#45;&gt;Node48 -->
<g id="edge91" class="edge">
<title>Node56&#45;&gt;Node48</title>
<path fill="none" stroke="#191970" d="M1877.7663,-252.4408C1913.5643,-242.9058 1967.4809,-228.5448 2006.2462,-218.2195"/>
<polygon fill="#191970" stroke="#191970" points="2007.4897,-221.5104 2016.2519,-215.5544 2005.688,-214.7462 2007.4897,-221.5104"/>
</g>
<!-- Node57&#45;&gt;Node1 -->
<g id="edge95" class="edge">
<title>Node57&#45;&gt;Node1</title>
<path fill="none" stroke="#191970" d="M2528.7626,-252.4026C2590.2837,-232.7299 2708.0674,-185.8974 2666,-126 2623.0946,-64.9094 2581.1446,-83.9269 2508,-69 2349.941,-36.7443 1873.4086,-22.8782 1670.7873,-18.3292"/>
<polygon fill="#191970" stroke="#191970" points="1670.8377,-14.8295 1660.7624,-18.1067 1670.6823,-21.8278 1670.8377,-14.8295"/>
</g>
<!-- Node57&#45;&gt;Node48 -->
<g id="edge96" class="edge">
<title>Node57&#45;&gt;Node48</title>
<path fill="none" stroke="#191970" d="M2438.7192,-255.3386C2358.5701,-244.9557 2210.1727,-225.7315 2122.9701,-214.4348"/>
<polygon fill="#191970" stroke="#191970" points="2123.2747,-210.9451 2112.9078,-213.1312 2122.3753,-217.887 2123.2747,-210.9451"/>
</g>
<!-- Node58&#45;&gt;Node1 -->
<g id="edge98" class="edge">
<title>Node58&#45;&gt;Node1</title>
<path fill="none" stroke="#191970" d="M1929.0248,-315.2632C1931.4359,-300.1027 1933.6917,-271.3886 1921,-252 1902.4859,-223.7167 1883.6102,-232.308 1854,-216 1808.8507,-191.1337 1795.0709,-188.7796 1753,-159 1703.3812,-123.8777 1697.495,-106.9451 1650,-69 1637.0373,-58.6437 1622.2988,-47.7503 1609.5476,-38.5875"/>
<polygon fill="#191970" stroke="#191970" points="1611.2568,-35.5075 1601.0836,-32.5484 1607.1911,-41.2057 1611.2568,-35.5075"/>
</g>
<!-- Node58&#45;&gt;Node30 -->
<g id="edge105" class="edge">
<title>Node58&#45;&gt;Node30</title>
<path fill="none" stroke="#191970" d="M1880.1537,-315.4802C1868.3851,-313.1581 1855.7582,-310.8332 1844,-309 1703.8979,-287.1576 1661.5102,-317.8631 1527,-273 1522.2029,-271.4 1470.3688,-240.5317 1437.9496,-221.0987"/>
<polygon fill="#191970" stroke="#191970" points="1439.3562,-217.861 1428.9805,-215.7173 1435.7547,-223.8635 1439.3562,-217.861"/>
</g>
<!-- Node58&#45;&gt;Node48 -->
<g id="edge104" class="edge">
<title>Node58&#45;&gt;Node48</title>
<path fill="none" stroke="#191970" d="M1937.8279,-315.2689C1959.5724,-294.7229 2008.7605,-248.246 2035.6317,-222.8559"/>
<polygon fill="#191970" stroke="#191970" points="2038.3347,-225.1172 2043.1995,-215.7052 2033.5271,-220.0292 2038.3347,-225.1172"/>
</g>
<!-- Node58&#45;&gt;Node56 -->
<g id="edge103" class="edge">
<title>Node58&#45;&gt;Node56</title>
<path fill="none" stroke="#191970" d="M1913.0219,-315.378C1899.3235,-305.4584 1878.2298,-290.1837 1862.2293,-278.597"/>
<polygon fill="#191970" stroke="#191970" points="1864.0956,-275.6273 1853.9434,-272.5969 1859.99,-281.2969 1864.0956,-275.6273"/>
</g>
<!-- Node58&#45;&gt;Node59 -->
<g id="edge99" class="edge">
<title>Node58&#45;&gt;Node59</title>
<path fill="none" stroke="#191970" d="M1935.4384,-315.116C1945.8807,-300.9549 1961.4279,-274.7435 1954,-252 1950.5896,-241.5576 1943.8462,-231.5154 1937.2579,-223.4525"/>
<polygon fill="#191970" stroke="#191970" points="1939.8121,-221.0565 1930.5946,-215.8328 1934.5427,-225.6645 1939.8121,-221.0565"/>
</g>
<!-- Node59&#45;&gt;Node1 -->
<g id="edge100" class="edge">
<title>Node59&#45;&gt;Node1</title>
<path fill="none" stroke="#191970" d="M1877.6895,-195.4309C1851.6006,-187.978 1818.2334,-176.1232 1792,-159 1745.6703,-128.7594 1751.7036,-100.1788 1706,-69 1686.1236,-55.4404 1662.203,-44.4538 1640.4468,-36.1029"/>
<polygon fill="#191970" stroke="#191970" points="1641.5433,-32.7765 1630.9505,-32.5688 1639.1018,-39.3369 1641.5433,-32.7765"/>
</g>
<!-- Node59&#45;&gt;Node8 -->
<g id="edge102" class="edge">
<title>Node59&#45;&gt;Node8</title>
<path fill="none" stroke="#191970" d="M1862.507,-204.3273C1707.3203,-200.8476 1267.0029,-188.8967 902,-159 645.2527,-137.9703 576.4162,-141.9351 320.3708,-90.0307"/>
<polygon fill="#191970" stroke="#191970" points="320.8973,-86.5662 310.4,-88.0006 319.5007,-93.4255 320.8973,-86.5662"/>
</g>
<!-- Node60 -->
<g id="node45" class="node">
<title>Node60</title>
<polygon fill="#ffffff" stroke="#bfbfbf" points="1947.6211,-126.5 1947.6211,-158.5 2124.3789,-158.5 2124.3789,-126.5 1947.6211,-126.5"/>
<text text-anchor="start" x="1955.6211" y="-144.9" font-family="Helvetica,sans-Serif" font-size="12.00" fill="#000000">../third_party_libs</text>
<text text-anchor="middle" x="2036" y="-132.9" font-family="Helvetica,sans-Serif" font-size="12.00" fill="#000000">/alglib/alglib/src/interpolation.h</text>
</g>
<!-- Node59&#45;&gt;Node60 -->
<g id="edge101" class="edge">
<title>Node59&#45;&gt;Node60</title>
<path fill="none" stroke="#191970" d="M1938.6374,-195.378C1954.4102,-186.8117 1977.5366,-174.2517 1997.2927,-163.5221"/>
<polygon fill="#191970" stroke="#191970" points="1998.9769,-166.5903 2006.0941,-158.742 1995.6361,-160.4389 1998.9769,-166.5903"/>
</g>
<!-- Node61&#45;&gt;Node1 -->
<g id="edge109" class="edge">
<title>Node61&#45;&gt;Node1</title>
<path fill="none" stroke="#191970" d="M1617.9202,-252.1703C1612.8126,-242.9906 1605.7622,-229.0432 1602,-216 1584.6209,-155.7483 1579.815,-81.7482 1578.4938,-43.014"/>
<polygon fill="#191970" stroke="#191970" points="1581.9811,-42.5169 1578.1957,-32.6214 1574.984,-42.7177 1581.9811,-42.5169"/>
</g>
<!-- Node61&#45;&gt;Node9 -->
<g id="edge117" class="edge">
<title>Node61&#45;&gt;Node9</title>
<path fill="none" stroke="#191970" d="M1535.4098,-255.5628C1519.9407,-254.3648 1504.0021,-253.139 1489,-252 1435.0075,-247.9006 1047.6854,-246.5813 1003,-216 985.2041,-203.821 976.1883,-180.0505 971.8081,-162.832"/>
<polygon fill="#191970" stroke="#191970" points="975.1329,-161.6575 969.5535,-152.6508 968.2985,-163.1711 975.1329,-161.6575"/>
</g>
<!-- Node61&#45;&gt;Node11 -->
<g id="edge118" class="edge">
<title>Node61&#45;&gt;Node11</title>
<path fill="none" stroke="#191970" d="M1608.6023,-252.4005C1562.3955,-222.0928 1424.6797,-131.763 1368.878,-95.1619"/>
<polygon fill="#191970" stroke="#191970" points="1370.6315,-92.1263 1360.3501,-89.5683 1366.7922,-97.9796 1370.6315,-92.1263"/>
</g>
<!-- Node62 -->
<g id="node47" class="node">
<title>Node62</title>
<g id="a_node47"><a xlink:href="SerializableSpline1dInterpolant_8h_source.html" target="_top" xlink:title="SerializableSpline1dInterpolant.h">
<polygon fill="#ffffff" stroke="#000000" points="2254.2734,-195.5 2254.2734,-215.5 2445.7266,-215.5 2445.7266,-195.5 2254.2734,-195.5"/>
<text text-anchor="middle" x="2350" y="-201.9" font-family="Helvetica,sans-Serif" font-size="12.00" fill="#000000">SerializableSpline1dInterpolant.h</text>
</a>
</g>
</g>
<!-- Node61&#45;&gt;Node62 -->
<g id="edge110" class="edge">
<title>Node61&#45;&gt;Node62</title>
<path fill="none" stroke="#191970" d="M1712.6586,-255.5392C1846.6585,-245.0185 2100.3353,-225.1018 2243.9349,-213.8274"/>
<polygon fill="#191970" stroke="#191970" points="2244.3853,-217.3029 2254.0806,-213.0309 2243.8373,-210.3244 2244.3853,-217.3029"/>
</g>
<!-- Node62&#45;&gt;Node1 -->
<g id="edge111" class="edge">
<title>Node62&#45;&gt;Node1</title>
<path fill="none" stroke="#191970" d="M2445.9202,-196.7989C2528.2497,-188.3351 2635.715,-174.5108 2649,-159 2658.5408,-147.8607 2658.8293,-136.8855 2649,-126 2583.9437,-53.9531 1919.1772,-26.7289 1670.8787,-19.0255"/>
<polygon fill="#191970" stroke="#191970" points="1670.8988,-15.5245 1660.7962,-18.7163 1670.6842,-22.5212 1670.8988,-15.5245"/>
</g>
<!-- Node62&#45;&gt;Node49 -->
<g id="edge113" class="edge">
<title>Node62&#45;&gt;Node49</title>
<path fill="none" stroke="#191970" d="M2325.5786,-195.378C2304.2774,-186.5492 2272.7409,-173.4781 2246.3529,-162.541"/>
<polygon fill="#191970" stroke="#191970" points="2247.4706,-159.2156 2236.8925,-158.6199 2244.7903,-165.6821 2247.4706,-159.2156"/>
</g>
<!-- Node62&#45;&gt;Node50 -->
<g id="edge114" class="edge">
<title>Node62&#45;&gt;Node50</title>
<path fill="none" stroke="#191970" d="M2366.8701,-195.378C2380.8899,-186.966 2401.3284,-174.703 2418.9937,-164.1038"/>
<polygon fill="#191970" stroke="#191970" points="2421.1558,-166.8882 2427.93,-158.742 2417.5543,-160.8858 2421.1558,-166.8882"/>
</g>
<!-- Node62&#45;&gt;Node51 -->
<g id="edge115" class="edge">
<title>Node62&#45;&gt;Node51</title>
<path fill="none" stroke="#191970" d="M2346.3047,-195.378C2343.6281,-188.0465 2339.8835,-177.7896 2336.4039,-168.2585"/>
<polygon fill="#191970" stroke="#191970" points="2339.6468,-166.9352 2332.9296,-158.742 2333.0713,-169.3359 2339.6468,-166.9352"/>
</g>
<!-- Node62&#45;&gt;Node52 -->
<g id="edge116" class="edge">
<title>Node62&#45;&gt;Node52</title>
<path fill="none" stroke="#191970" d="M2387.3367,-195.4478C2422.4111,-186.0047 2475.6755,-171.6643 2517.929,-160.2883"/>
<polygon fill="#191970" stroke="#191970" points="2518.8425,-163.6671 2527.5888,-157.6876 2517.0227,-156.9078 2518.8425,-163.6671"/>
</g>
<!-- Node62&#45;&gt;Node60 -->
<g id="edge112" class="edge">
<title>Node62&#45;&gt;Node60</title>
<path fill="none" stroke="#191970" d="M2299.8986,-195.4478C2253.1836,-186.0751 2182.4223,-171.8777 2125.9292,-160.5431"/>
<polygon fill="#191970" stroke="#191970" points="2126.4092,-157.0697 2115.916,-158.5341 2125.0321,-163.933 2126.4092,-157.0697"/>
</g>
<!-- Node63&#45;&gt;Node1 -->
<g id="edge120" class="edge">
<title>Node63&#45;&gt;Node1</title>
<path fill="none" stroke="#191970" d="M2465.8531,-317.418C2583.1459,-303.7516 2782,-270.9332 2782,-205.5 2782,-205.5 2782,-205.5 2782,-142.5 2782,-47.3814 2674.1955,-88.0306 2581,-69 2408.7058,-33.8174 1885.2912,-21.4845 1670.9882,-17.8354"/>
<polygon fill="#191970" stroke="#191970" points="1670.7681,-14.3314 1660.7108,-17.6631 1670.6507,-21.3304 1670.7681,-14.3314"/>
</g>
<!-- Node63&#45;&gt;Node48 -->
<g id="edge121" class="edge">
<title>Node63&#45;&gt;Node48</title>
<path fill="none" stroke="#191970" d="M2365.4578,-309.3739C2347.0941,-292.4207 2315.8259,-266.2696 2284,-252 2232.7448,-229.019 2169.9804,-217.3039 2122.9734,-211.3857"/>
<polygon fill="#191970" stroke="#191970" points="2123.2373,-207.8923 2112.8912,-210.1744 2122.4023,-214.8424 2123.2373,-207.8923"/>
</g>
<!-- Node63&#45;&gt;Node61 -->
<g id="edge123" class="edge">
<title>Node63&#45;&gt;Node61</title>
<path fill="none" stroke="#191970" d="M2297.9846,-318.5172C2156.8728,-306.7889 1872.9819,-283.1938 1722.6339,-270.6978"/>
<polygon fill="#191970" stroke="#191970" points="1722.7407,-267.1947 1712.4852,-269.8543 1722.1609,-274.1706 1722.7407,-267.1947"/>
</g>
<!-- Node63&#45;&gt;Node62 -->
<g id="edge122" class="edge">
<title>Node63&#45;&gt;Node62</title>
<path fill="none" stroke="#191970" d="M2377.6843,-309.3163C2371.9112,-287.6669 2361.6755,-249.2832 2355.3984,-225.7439"/>
<polygon fill="#191970" stroke="#191970" points="2358.7059,-224.563 2352.7473,-215.8025 2351.9422,-226.3667 2358.7059,-224.563"/>
</g>
</g>
</svg>
        <g id="navigator" transform="translate(0 0)" fill="#404254">
                <rect fill="#f2f5e9" fill-opacity="0.5" stroke="#606060" stroke-width=".5" x="0" y="0" width="60" height="60"/>
                <use id="zoomplus" xlink:href="#zoomPlus" x="17" y="9" onmousedown="handleZoom(evt,'in')"/>
                <use id="zoomminus" xlink:href="#zoomMin" x="42" y="9" onmousedown="handleZoom(evt,'out')"/>
                <use id="reset" xlink:href="#resetDef" x="30" y="36" onmousedown="handleReset()"/>
                <g id="arrowUp" xlink:href="#dirArrow" transform="translate(30 24)" onmousedown="handlePan(0,-1)">
                  <use xlink:href="#rim" fill="#404040">
                        <set attributeName="fill" to="#808080" begin="arrowUp.mouseover" end="arrowUp.mouseout"/>
                  </use>
                  <path fill="none" stroke="white" stroke-width="1.5" d="M0,-3.0v7 M-2.5,-0.5L0,-3.0L2.5,-0.5"/>
                </g>
                <g id="arrowRight" xlink:href="#dirArrow" transform="rotate(90) translate(36 -43)" onmousedown="handlePan(1,0)">
                  <use xlink:href="#rim" fill="#404040">
                        <set attributeName="fill" to="#808080" begin="arrowRight.mouseover" end="arrowRight.mouseout"/>
                  </use>
                  <path fill="none" stroke="white" stroke-width="1.5" d="M0,-3.0v7 M-2.5,-0.5L0,-3.0L2.5,-0.5"/>
                </g>
                <g id="arrowDown" xlink:href="#dirArrow" transform="rotate(180) translate(-30 -48)" onmousedown="handlePan(0,1)">
                  <use xlink:href="#rim" fill="#404040">
                        <set attributeName="fill" to="#808080" begin="arrowDown.mouseover" end="arrowDown.mouseout"/>
                  </use>
                  <path fill="none" stroke="white" stroke-width="1.5" d="M0,-3.0v7 M-2.5,-0.5L0,-3.0L2.5,-0.5"/>
                </g>
                <g id="arrowLeft" xlink:href="#dirArrow" transform="rotate(270) translate(-36 17)" onmousedown="handlePan(-1,0)">
                  <use xlink:href="#rim" fill="#404040">
                        <set attributeName="fill" to="#808080" begin="arrowLeft.mouseover" end="arrowLeft.mouseout"/>
                  </use>
                  <path fill="none" stroke="white" stroke-width="1.5" d="M0,-3.0v7 M-2.5,-0.5L0,-3.0L2.5,-0.5"/>
                </g>
        </g>
        <svg viewBox="0 0 15 15" width="100%" height="30px" preserveAspectRatio="xMaxYMin meet">
         <g id="arrow_out" transform="scale(0.3 0.3)">
          <a xlink:href="EvolvingStellarCore_8h__incl_org.svg" target="_base">
           <rect id="button" ry="5" rx="5" y="6" x="6" height="38" width="38"
                fill="#f2f5e9" fill-opacity="0.5" stroke="#606060" stroke-width="1.0"/>
           <path id="arrow"
             d="M 11.500037,31.436501 C 11.940474,20.09759 22.043105,11.32322 32.158766,21.979434 L 37.068811,17.246167 C 37.068811,17.246167 37.088388,32 37.088388,32 L 22.160133,31.978069 C 22.160133,31.978069 26.997745,27.140456 26.997745,27.140456 C 18.528582,18.264221 13.291696,25.230495 11.500037,31.436501 z"
             style="fill:#404040;"/>
          </a>
         </g>
        </svg>
</svg>
