<?xml version="1.0" encoding="UTF-8" standalone="no"?>
<!DOCTYPE svg PUBLIC "-//W3C//DTD SVG 1.1//EN"
 "http://www.w3.org/Graphics/SVG/1.1/DTD/svg11.dtd">
<!-- Generated by graphviz version 2.40.1 (20161225.0304)
 -->
<!-- Title: /home/kpenev/projects/git/poet/poet_src/Star/EvolvingStellarEnvelope.h Pages: 1 -->
<svg width="3531pt" height="714pt"
 viewBox="0.00 0.00 3530.75 714.00" xmlns="http://www.w3.org/2000/svg" xmlns:xlink="http://www.w3.org/1999/xlink">
<g id="graph0" class="graph" transform="scale(1 1) rotate(0) translate(4 710)">
<title>/home/kpenev/projects/git/poet/poet_src/Star/EvolvingStellarEnvelope.h</title>
<polygon fill="#ffffff" stroke="transparent" points="-4,4 -4,-710 3526.7505,-710 3526.7505,4 -4,4"/>
<!-- Node0 -->
<g id="node1" class="node">
<title>Node0</title>
<polygon fill="#bfbfbf" stroke="#000000" points="2297.2505,-658.5 2297.2505,-705.5 2458.2505,-705.5 2458.2505,-658.5 2297.2505,-658.5"/>
<text text-anchor="start" x="2305.2505" y="-691.9" font-family="Helvetica,sans-Serif" font-size="12.00" fill="#000000">/home/kpenev/projects</text>
<text text-anchor="start" x="2305.2505" y="-678.9" font-family="Helvetica,sans-Serif" font-size="12.00" fill="#000000">/git/poet/poet_src/Star</text>
<text text-anchor="middle" x="2377.7505" y="-665.9" font-family="Helvetica,sans-Serif" font-size="12.00" fill="#000000">/EvolvingStellarEnvelope.h</text>
</g>
<!-- Node1 -->
<g id="node2" class="node">
<title>Node1</title>
<g id="a_node2"><a xlink:href="EvolvingStellarZone_8h.html" target="_top" xlink:title="Declares a base class for all stellar zones. ">
<polygon fill="#ffffff" stroke="#000000" points="2310.2505,-600.5 2310.2505,-621.5 2445.2505,-621.5 2445.2505,-600.5 2310.2505,-600.5"/>
<text text-anchor="middle" x="2377.7505" y="-607.9" font-family="Helvetica,sans-Serif" font-size="12.00" fill="#000000">EvolvingStellarZone.h</text>
</a>
</g>
</g>
<!-- Node0&#45;&gt;Node1 -->
<g id="edge1" class="edge">
<title>Node0&#45;&gt;Node1</title>
<path fill="none" stroke="#191970" d="M2377.7505,-658.358C2377.7505,-649.719 2377.7505,-640.0215 2377.7505,-631.6624"/>
<polygon fill="#191970" stroke="#191970" points="2381.2506,-631.6462 2377.7505,-621.6462 2374.2506,-631.6463 2381.2506,-631.6462"/>
</g>
<!-- Node2 -->
<g id="node3" class="node">
<title>Node2</title>
<g id="a_node3"><a xlink:href="SharedLibraryExportMacros_8h_source.html" target="_top" xlink:title="../Core/SharedLibraryExport\lMacros.h">
<polygon fill="#ffffff" stroke="#000000" points="2689.2505,-.5 2689.2505,-34.5 2854.2505,-34.5 2854.2505,-.5 2689.2505,-.5"/>
<text text-anchor="start" x="2697.2505" y="-20.9" font-family="Helvetica,sans-Serif" font-size="12.00" fill="#000000">../Core/SharedLibraryExport</text>
<text text-anchor="middle" x="2771.7505" y="-7.9" font-family="Helvetica,sans-Serif" font-size="12.00" fill="#000000">Macros.h</text>
</a>
</g>
</g>
<!-- Node1&#45;&gt;Node2 -->
<g id="edge2" class="edge">
<title>Node1&#45;&gt;Node2</title>
<path fill="none" stroke="#191970" d="M2445.3973,-609.2497C2674.7671,-602.4292 3408.7505,-572.9874 3408.7505,-475.5 3408.7505,-475.5 3408.7505,-475.5 3408.7505,-146.5 3408.7505,-105.7557 3391.9166,-91.5777 3356.7505,-71 3315.3674,-46.7845 3019.1073,-29.2762 2864.7595,-21.6882"/>
<polygon fill="#191970" stroke="#191970" points="2864.5082,-18.1719 2854.3497,-21.1809 2864.1674,-25.1636 2864.5082,-18.1719"/>
</g>
<!-- Node3 -->
<g id="node4" class="node">
<title>Node3</title>
<g id="a_node4"><a xlink:href="BrokenPowerlawPhaseLagZone_8h.html" target="_top" xlink:title="Declares the class that provides the phase lag function to DissipatingZone objects. ">
<polygon fill="#ffffff" stroke="#000000" points="1561.2505,-529.5 1561.2505,-563.5 1718.2505,-563.5 1718.2505,-529.5 1561.2505,-529.5"/>
<text text-anchor="start" x="1569.2505" y="-549.9" font-family="Helvetica,sans-Serif" font-size="12.00" fill="#000000">../Evolve/BrokenPowerlaw</text>
<text text-anchor="middle" x="1639.7505" y="-536.9" font-family="Helvetica,sans-Serif" font-size="12.00" fill="#000000">PhaseLagZone.h</text>
</a>
</g>
</g>
<!-- Node1&#45;&gt;Node3 -->
<g id="edge3" class="edge">
<title>Node1&#45;&gt;Node3</title>
<path fill="none" stroke="#191970" d="M2309.9731,-605.0764C2176.1282,-593.3785 1877.9449,-567.3178 1728.5883,-554.2643"/>
<polygon fill="#191970" stroke="#191970" points="1728.7993,-550.7695 1718.5325,-553.3854 1728.1897,-557.7429 1728.7993,-550.7695"/>
</g>
<!-- Node49 -->
<g id="node36" class="node">
<title>Node49</title>
<g id="a_node36"><a xlink:href="Functions_8h.html" target="_top" xlink:title="A hierarchy of classes representing functions. ">
<polygon fill="#ffffff" stroke="#000000" points="2165.2505,-200.5 2165.2505,-221.5 2282.2505,-221.5 2282.2505,-200.5 2165.2505,-200.5"/>
<text text-anchor="middle" x="2223.7505" y="-207.9" font-family="Helvetica,sans-Serif" font-size="12.00" fill="#000000">../Core/Functions.h</text>
</a>
</g>
</g>
<!-- Node1&#45;&gt;Node49 -->
<g id="edge89" class="edge">
<title>Node1&#45;&gt;Node49</title>
<path fill="none" stroke="#191970" d="M2370.3257,-600.4182C2343.6685,-561.6944 2252.7837,-423.1628 2222.7505,-293 2218.0431,-272.5985 2219.0742,-248.5762 2220.8041,-231.8258"/>
<polygon fill="#191970" stroke="#191970" points="2224.3238,-231.8732 2222.0514,-221.5249 2217.3746,-231.0316 2224.3238,-231.8732"/>
</g>
<!-- Node54 -->
<g id="node41" class="node">
<title>Node54</title>
<g id="a_node41"><a xlink:href="EvolvingStellarQuantity_8h.html" target="_top" xlink:title="Declares a class implementing the intepolation of a single stellar quantity from stellar evolution tr...">
<polygon fill="#ffffff" stroke="#000000" points="2300.2505,-329.5 2300.2505,-363.5 2455.2505,-363.5 2455.2505,-329.5 2300.2505,-329.5"/>
<text text-anchor="start" x="2308.2505" y="-349.9" font-family="Helvetica,sans-Serif" font-size="12.00" fill="#000000">../StellarEvolution</text>
<text text-anchor="middle" x="2377.7505" y="-336.9" font-family="Helvetica,sans-Serif" font-size="12.00" fill="#000000">/EvolvingStellarQuantity.h</text>
</a>
</g>
</g>
<!-- Node1&#45;&gt;Node54 -->
<g id="edge103" class="edge">
<title>Node1&#45;&gt;Node54</title>
<path fill="none" stroke="#191970" d="M2377.7505,-600.3037C2377.7505,-562.0785 2377.7505,-431.4586 2377.7505,-374.0001"/>
<polygon fill="#191970" stroke="#191970" points="2381.2506,-373.8466 2377.7505,-363.8466 2374.2506,-373.8466 2381.2506,-373.8466"/>
</g>
<!-- Node65 -->
<g id="node50" class="node">
<title>Node65</title>
<polygon fill="#ffffff" stroke="#bfbfbf" points="3436.7505,-536 3436.7505,-557 3522.7505,-557 3522.7505,-536 3436.7505,-536"/>
<text text-anchor="middle" x="3479.7505" y="-543.4" font-family="Helvetica,sans-Serif" font-size="12.00" fill="#000000">initializer_list</text>
</g>
<!-- Node1&#45;&gt;Node65 -->
<g id="edge135" class="edge">
<title>Node1&#45;&gt;Node65</title>
<path fill="none" stroke="#191970" d="M2445.4108,-610.1882C2645.777,-607.4311 3233.8511,-596.7009 3422.7505,-564 3428.6314,-562.9819 3434.7546,-561.5348 3440.7126,-559.9034"/>
<polygon fill="#191970" stroke="#191970" points="3441.9021,-563.202 3450.5117,-557.0274 3439.9307,-556.4854 3441.9021,-563.202"/>
</g>
<!-- Node3&#45;&gt;Node2 -->
<g id="edge4" class="edge">
<title>Node3&#45;&gt;Node2</title>
<path fill="none" stroke="#191970" d="M1718.3415,-544.5221C2056.5238,-535.5037 3370.7505,-495.05 3370.7505,-411 3370.7505,-411 3370.7505,-411 3370.7505,-146.5 3370.7505,-108.526 3362.3151,-92.1116 3330.7505,-71 3292.9492,-45.7171 3013.2913,-28.8684 2864.4166,-21.5905"/>
<polygon fill="#191970" stroke="#191970" points="2864.5237,-18.0916 2854.3662,-21.1039 2864.1852,-25.0834 2864.5237,-18.0916"/>
</g>
<!-- Node4 -->
<g id="node5" class="node">
<title>Node4</title>
<g id="a_node5"><a xlink:href="DissipatingZone_8h.html" target="_top" xlink:title="Declares a class representing one zone of a body dissipative to tidal distortions. ">
<polygon fill="#ffffff" stroke="#000000" points="717.7505,-336 717.7505,-357 831.7505,-357 831.7505,-336 717.7505,-336"/>
<text text-anchor="middle" x="774.7505" y="-343.4" font-family="Helvetica,sans-Serif" font-size="12.00" fill="#000000">DissipatingZone.h</text>
</a>
</g>
</g>
<!-- Node3&#45;&gt;Node4 -->
<g id="edge5" class="edge">
<title>Node3&#45;&gt;Node4</title>
<path fill="none" stroke="#191970" d="M1561.1499,-543.0639C1392.5716,-535.3089 1007.0363,-515.3709 951.7505,-493 881.4869,-464.5686 818.0124,-397.6294 789.9605,-365.0127"/>
<polygon fill="#191970" stroke="#191970" points="792.4375,-362.5213 783.3093,-357.1429 787.0911,-367.0398 792.4375,-362.5213"/>
</g>
<!-- Node40 -->
<g id="node27" class="node">
<title>Node40</title>
<g id="a_node27"><a xlink:href="DissipatingBody_8h.html" target="_top" xlink:title="Declares the DissipatingBody class. ">
<polygon fill="#ffffff" stroke="#000000" points="1729.7505,-400.5 1729.7505,-421.5 1843.7505,-421.5 1843.7505,-400.5 1729.7505,-400.5"/>
<text text-anchor="middle" x="1786.7505" y="-407.9" font-family="Helvetica,sans-Serif" font-size="12.00" fill="#000000">DissipatingBody.h</text>
</a>
</g>
</g>
<!-- Node3&#45;&gt;Node40 -->
<g id="edge50" class="edge">
<title>Node3&#45;&gt;Node40</title>
<path fill="none" stroke="#191970" d="M1674.083,-529.4624C1691.019,-520.0864 1711.1126,-507.4292 1726.7505,-493 1746.8777,-474.4284 1764.6594,-448.2245 1775.5381,-430.4756"/>
<polygon fill="#191970" stroke="#191970" points="1778.7234,-431.9679 1780.8427,-421.5872 1772.7124,-428.3806 1778.7234,-431.9679"/>
</g>
<!-- Node42 -->
<g id="node29" class="node">
<title>Node42</title>
<g id="a_node29"><a xlink:href="BinarySystem_8h.html" target="_top" xlink:title="Defines the BinarySystem class. ">
<polygon fill="#ffffff" stroke="#000000" points="1383.2505,-465 1383.2505,-486 1484.2505,-486 1484.2505,-465 1383.2505,-465"/>
<text text-anchor="middle" x="1433.7505" y="-472.4" font-family="Helvetica,sans-Serif" font-size="12.00" fill="#000000">BinarySystem.h</text>
</a>
</g>
</g>
<!-- Node3&#45;&gt;Node42 -->
<g id="edge61" class="edge">
<title>Node3&#45;&gt;Node42</title>
<path fill="none" stroke="#191970" d="M1590.4083,-529.4937C1554.9188,-517.2619 1507.6379,-500.966 1474.3337,-489.4874"/>
<polygon fill="#191970" stroke="#191970" points="1475.0698,-486.0391 1464.4751,-486.0896 1472.7888,-492.6571 1475.0698,-486.0391"/>
</g>
<!-- Node47 -->
<g id="node34" class="node">
<title>Node47</title>
<g id="a_node34"><a xlink:href="LagForcingFrequencyBreakCondition_8h.html" target="_top" xlink:title="Declares a stopping condition satisfied when a forcing frequency reaches a critical value...">
<polygon fill="#ffffff" stroke="#ff0000" points="960.7505,-458.5 960.7505,-492.5 1126.7505,-492.5 1126.7505,-458.5 960.7505,-458.5"/>
<text text-anchor="start" x="968.7505" y="-478.9" font-family="Helvetica,sans-Serif" font-size="12.00" fill="#000000">LagForcingFrequencyBreak</text>
<text text-anchor="middle" x="1043.7505" y="-465.9" font-family="Helvetica,sans-Serif" font-size="12.00" fill="#000000">Condition.h</text>
</a>
</g>
</g>
<!-- Node3&#45;&gt;Node47 -->
<g id="edge78" class="edge">
<title>Node3&#45;&gt;Node47</title>
<path fill="none" stroke="#191970" d="M1561.221,-537.145C1451.7251,-524.101 1253.5219,-500.4896 1136.7663,-486.5807"/>
<polygon fill="#191970" stroke="#191970" points="1137.1131,-483.0974 1126.7692,-485.3898 1136.285,-490.0482 1137.1131,-483.0974"/>
</g>
<!-- Node48 -->
<g id="node35" class="node">
<title>Node48</title>
<g id="a_node35"><a xlink:href="LagSpinBreakCondition_8h.html" target="_top" xlink:title="Declares a stopping condition monitoring for critical spin frequencies. ">
<polygon fill="#ffffff" stroke="#ff0000" points="1562.2505,-465 1562.2505,-486 1717.2505,-486 1717.2505,-465 1562.2505,-465"/>
<text text-anchor="middle" x="1639.7505" y="-472.4" font-family="Helvetica,sans-Serif" font-size="12.00" fill="#000000">LagSpinBreakCondition.h</text>
</a>
</g>
</g>
<!-- Node3&#45;&gt;Node48 -->
<g id="edge84" class="edge">
<title>Node3&#45;&gt;Node48</title>
<path fill="none" stroke="#191970" d="M1639.7505,-529.3129C1639.7505,-519.4273 1639.7505,-506.9327 1639.7505,-496.472"/>
<polygon fill="#191970" stroke="#191970" points="1643.2506,-496.139 1639.7505,-486.139 1636.2506,-496.139 1643.2506,-496.139"/>
</g>
<!-- Node4&#45;&gt;Node2 -->
<g id="edge25" class="edge">
<title>Node4&#45;&gt;Node2</title>
<path fill="none" stroke="#191970" d="M717.522,-342.5241C650.8666,-336.5628 546.7841,-322.6716 522.7505,-293 512.9596,-280.9123 514.4243,-271.1396 522.7505,-258 626.9306,-93.5921 729.4644,-116.3239 918.7505,-71 1090.3266,-29.9167 2327.4612,-19.9615 2678.8812,-17.9507"/>
<polygon fill="#191970" stroke="#191970" points="2679.0379,-21.45 2689.018,-17.8935 2678.9983,-14.4501 2679.0379,-21.45"/>
</g>
<!-- Node5 -->
<g id="node6" class="node">
<title>Node5</title>
<g id="a_node6"><a xlink:href="ZoneOrientation_8h.html" target="_top" xlink:title="Declares a class for orientations of zones of DissipatingBody objects. ">
<polygon fill="#ffffff" stroke="#ff0000" points="884.2505,-200.5 884.2505,-221.5 997.2505,-221.5 997.2505,-200.5 884.2505,-200.5"/>
<text text-anchor="middle" x="940.7505" y="-207.9" font-family="Helvetica,sans-Serif" font-size="12.00" fill="#000000">ZoneOrientation.h</text>
</a>
</g>
</g>
<!-- Node4&#45;&gt;Node5 -->
<g id="edge6" class="edge">
<title>Node4&#45;&gt;Node5</title>
<path fill="none" stroke="#191970" d="M717.7059,-343.859C631.5525,-337.8825 483.7256,-318.6917 537.7505,-258 559.6703,-233.3752 765.0505,-219.6312 873.8421,-214.0229"/>
<polygon fill="#191970" stroke="#191970" points="874.2493,-217.5069 884.0594,-213.5055 873.8951,-210.5159 874.2493,-217.5069"/>
</g>
<!-- Node6 -->
<g id="node7" class="node">
<title>Node6</title>
<g id="a_node7"><a xlink:href="DissipationQuantities_8h.html" target="_top" xlink:title="Declaration of enumerations of dissipation quantities and derivatives. ">
<polygon fill="#ffffff" stroke="#ff0000" points="989.7505,-136 989.7505,-157 1129.7505,-157 1129.7505,-136 989.7505,-136"/>
<text text-anchor="middle" x="1059.7505" y="-143.4" font-family="Helvetica,sans-Serif" font-size="12.00" fill="#000000">DissipationQuantities.h</text>
</a>
</g>
</g>
<!-- Node4&#45;&gt;Node6 -->
<g id="edge31" class="edge">
<title>Node4&#45;&gt;Node6</title>
<path fill="none" stroke="#191970" d="M717.6395,-336.9581C656.0399,-324.3404 571.4666,-298.8085 608.7505,-258 668.6503,-192.4376 929.8815,-266.4699 1006.7505,-222 1028.4049,-209.4726 1043.3664,-184.1217 1051.7403,-166.2616"/>
<polygon fill="#191970" stroke="#191970" points="1054.9905,-167.5649 1055.8129,-157.0021 1048.5829,-164.7467 1054.9905,-167.5649"/>
</g>
<!-- Node9 -->
<g id="node9" class="node">
<title>Node9</title>
<g id="a_node9"><a xlink:href="Core_2Common_8h.html" target="_top" xlink:title="Declaration of some general purpose utilities. ">
<polygon fill="#ffffff" stroke="#ff0000" points="1617.2505,-136 1617.2505,-157 1730.2505,-157 1730.2505,-136 1617.2505,-136"/>
<text text-anchor="middle" x="1673.7505" y="-143.4" font-family="Helvetica,sans-Serif" font-size="12.00" fill="#000000">../Core/Common.h</text>
</a>
</g>
</g>
<!-- Node4&#45;&gt;Node9 -->
<g id="edge47" class="edge">
<title>Node4&#45;&gt;Node9</title>
<path fill="none" stroke="#191970" d="M832.0594,-345.2601C945.6495,-342.0062 1194.9313,-330.6707 1270.7505,-293 1289.897,-283.487 1285.5659,-269.2431 1303.7505,-258 1356.9794,-225.0899 1529.1256,-180.9312 1618.5984,-159.3966"/>
<polygon fill="#191970" stroke="#191970" points="1619.6537,-162.7429 1628.5632,-157.0095 1618.023,-155.9354 1619.6537,-162.7429"/>
</g>
<!-- Node11 -->
<g id="node11" class="node">
<title>Node11</title>
<polygon fill="#ffffff" stroke="#bfbfbf" points="1995.2505,-71.5 1995.2505,-92.5 2054.2505,-92.5 2054.2505,-71.5 1995.2505,-71.5"/>
<text text-anchor="middle" x="2024.7505" y="-78.9" font-family="Helvetica,sans-Serif" font-size="12.00" fill="#000000">valarray</text>
</g>
<!-- Node4&#45;&gt;Node11 -->
<g id="edge48" class="edge">
<title>Node4&#45;&gt;Node11</title>
<path fill="none" stroke="#191970" d="M831.8121,-345.5309C1033.8877,-341.823 1708.2392,-327.0019 1798.7505,-293 1900.0821,-254.9333 1982.0054,-145.9124 2012.2205,-101.3418"/>
<polygon fill="#191970" stroke="#191970" points="2015.2408,-103.1209 2017.8716,-92.8579 2009.4149,-99.2403 2015.2408,-103.1209"/>
</g>
<!-- Node21 -->
<g id="node16" class="node">
<title>Node21</title>
<g id="a_node16"><a xlink:href="Error_8h.html" target="_top" xlink:title="Defines the exception hierarchy used by this code. ">
<polygon fill="#ffffff" stroke="#ff0000" points="392.2505,-71.5 392.2505,-92.5 445.2505,-92.5 445.2505,-71.5 392.2505,-71.5"/>
<text text-anchor="middle" x="418.7505" y="-78.9" font-family="Helvetica,sans-Serif" font-size="12.00" fill="#000000">Error.h</text>
</a>
</g>
</g>
<!-- Node4&#45;&gt;Node21 -->
<g id="edge26" class="edge">
<title>Node4&#45;&gt;Node21</title>
<path fill="none" stroke="#191970" d="M717.6901,-341.0278C607.9533,-330.2315 377.2503,-306.1021 365.7505,-293 316.4125,-236.788 375.1156,-141.288 404.2352,-100.9151"/>
<polygon fill="#191970" stroke="#191970" points="407.1469,-102.8642 410.275,-92.7416 401.5171,-98.704 407.1469,-102.8642"/>
</g>
<!-- Node27 -->
<g id="node19" class="node">
<title>Node27</title>
<g id="a_node19"><a xlink:href="TidalPotentialTerms_8h.html" target="_top" xlink:title="Declare an interface for evaluating the expansion of the tidal potential. ">
<polygon fill="#ffffff" stroke="#ff0000" points="1621.7505,-200.5 1621.7505,-221.5 1755.7505,-221.5 1755.7505,-200.5 1621.7505,-200.5"/>
<text text-anchor="middle" x="1688.7505" y="-207.9" font-family="Helvetica,sans-Serif" font-size="12.00" fill="#000000">TidalPotentialTerms.h</text>
</a>
</g>
</g>
<!-- Node4&#45;&gt;Node27 -->
<g id="edge27" class="edge">
<title>Node4&#45;&gt;Node27</title>
<path fill="none" stroke="#191970" d="M831.7674,-342.7823C929.0082,-335.985 1132.9831,-319.7392 1303.7505,-293 1423.8516,-274.1942 1562.9345,-241.9314 1636.6321,-223.9928"/>
<polygon fill="#191970" stroke="#191970" points="1637.7052,-227.3337 1646.5884,-221.5596 1636.0433,-220.5338 1637.7052,-227.3337"/>
</g>
<!-- Node34 -->
<g id="node21" class="node">
<title>Node34</title>
<g id="a_node21"><a xlink:href="SpinOrbitLockInfo_8h.html" target="_top" xlink:title="Defines the SpinOrbitLockInfo class. ">
<polygon fill="#ffffff" stroke="#000000" points="617.7505,-71.5 617.7505,-92.5 739.7505,-92.5 739.7505,-71.5 617.7505,-71.5"/>
<text text-anchor="middle" x="678.7505" y="-78.9" font-family="Helvetica,sans-Serif" font-size="12.00" fill="#000000">SpinOrbitLockInfo.h</text>
</a>
</g>
</g>
<!-- Node4&#45;&gt;Node34 -->
<g id="edge32" class="edge">
<title>Node4&#45;&gt;Node34</title>
<path fill="none" stroke="#191970" d="M717.6334,-340.6267C612.1677,-329.5093 396.5584,-305.3961 385.7505,-293 304.2389,-199.5107 523.7701,-124.4885 627.6762,-95.2372"/>
<polygon fill="#191970" stroke="#191970" points="628.6571,-98.5973 637.3567,-92.5502 626.7849,-91.8523 628.6571,-98.5973"/>
</g>
<!-- Node35 -->
<g id="node22" class="node">
<title>Node35</title>
<g id="a_node22"><a xlink:href="CombinedStoppingCondition_8h.html" target="_top" xlink:title="Declares a class for a stopping condition that combines other stopping conditions. ">
<polygon fill="#ffffff" stroke="#ff0000" points="1079.7505,-265 1079.7505,-286 1261.7505,-286 1261.7505,-265 1079.7505,-265"/>
<text text-anchor="middle" x="1170.7505" y="-272.4" font-family="Helvetica,sans-Serif" font-size="12.00" fill="#000000">CombinedStoppingCondition.h</text>
</a>
</g>
</g>
<!-- Node4&#45;&gt;Node35 -->
<g id="edge35" class="edge">
<title>Node4&#45;&gt;Node35</title>
<path fill="none" stroke="#191970" d="M831.9093,-336.2518C903.3467,-323.4436 1025.4982,-301.5427 1101.9778,-287.8305"/>
<polygon fill="#191970" stroke="#191970" points="1102.7688,-291.2445 1111.9942,-286.0346 1101.5334,-284.3544 1102.7688,-291.2445"/>
</g>
<!-- Node37 -->
<g id="node24" class="node">
<title>Node37</title>
<g id="a_node24"><a xlink:href="BreakLockCondition_8h.html" target="_top" xlink:title="Declares a class for a stopping condition monitoring when a locked zone loses the lock...">
<polygon fill="#ffffff" stroke="#000000" points="788.2505,-265 788.2505,-286 923.2505,-286 923.2505,-265 788.2505,-265"/>
<text text-anchor="middle" x="855.7505" y="-272.4" font-family="Helvetica,sans-Serif" font-size="12.00" fill="#000000">BreakLockCondition.h</text>
</a>
</g>
</g>
<!-- Node4&#45;&gt;Node37 -->
<g id="edge41" class="edge">
<title>Node4&#45;&gt;Node37</title>
<path fill="none" stroke="#191970" d="M787.0526,-335.7166C799.9729,-324.3915 820.4939,-306.4039 835.7474,-293.0335"/>
<polygon fill="#191970" stroke="#191970" points="838.385,-295.3759 843.5979,-286.1522 833.7708,-290.1119 838.385,-295.3759"/>
</g>
<!-- Node38 -->
<g id="node25" class="node">
<title>Node38</title>
<g id="a_node25"><a xlink:href="SynchronizedCondition_8h.html" target="_top" xlink:title="Declares a stopping condition monitoring spin&#45;orbit synchronization. ">
<polygon fill="#ffffff" stroke="#000000" points="617.7505,-265 617.7505,-286 769.7505,-286 769.7505,-265 617.7505,-265"/>
<text text-anchor="middle" x="693.7505" y="-272.4" font-family="Helvetica,sans-Serif" font-size="12.00" fill="#000000">SynchronizedCondition.h</text>
</a>
</g>
</g>
<!-- Node4&#45;&gt;Node38 -->
<g id="edge44" class="edge">
<title>Node4&#45;&gt;Node38</title>
<path fill="none" stroke="#191970" d="M762.4483,-335.7166C749.5281,-324.3915 729.007,-306.4039 713.7535,-293.0335"/>
<polygon fill="#191970" stroke="#191970" points="715.7301,-290.1119 705.903,-286.1522 711.116,-295.3759 715.7301,-290.1119"/>
</g>
<!-- Node39 -->
<g id="node26" class="node">
<title>Node39</title>
<polygon fill="#ffffff" stroke="#bfbfbf" points="941.7505,-258.5 941.7505,-292.5 1061.7505,-292.5 1061.7505,-258.5 941.7505,-258.5"/>
<text text-anchor="start" x="949.7505" y="-278.9" font-family="Helvetica,sans-Serif" font-size="12.00" fill="#000000">boost/math/special</text>
<text text-anchor="middle" x="1001.7505" y="-265.9" font-family="Helvetica,sans-Serif" font-size="12.00" fill="#000000">_functions/sign.hpp</text>
</g>
<!-- Node4&#45;&gt;Node39 -->
<g id="edge49" class="edge">
<title>Node4&#45;&gt;Node39</title>
<path fill="none" stroke="#191970" d="M808.7347,-335.8706C842.699,-325.2474 895.7544,-308.6529 937.6516,-295.5485"/>
<polygon fill="#191970" stroke="#191970" points="938.7257,-298.8799 947.2249,-292.5543 936.636,-292.199 938.7257,-298.8799"/>
</g>
<!-- Node5&#45;&gt;Node2 -->
<g id="edge7" class="edge">
<title>Node5&#45;&gt;Node2</title>
<path fill="none" stroke="#191970" d="M943.3608,-200.2222C948.0507,-182.9903 959.4583,-149.1326 980.7505,-129 1029.0924,-83.2908 1053.7536,-85.2015 1118.7505,-71 1270.8976,-37.7566 2352.3998,-22.4344 2678.7477,-18.5339"/>
<polygon fill="#191970" stroke="#191970" points="2679.1519,-22.0295 2689.1097,-18.4109 2679.0688,-15.03 2679.1519,-22.0295"/>
</g>
<!-- Node5&#45;&gt;Node6 -->
<g id="edge8" class="edge">
<title>Node5&#45;&gt;Node6</title>
<path fill="none" stroke="#191970" d="M960.1347,-200.4934C979.4974,-189.9985 1009.4693,-173.7532 1031.4819,-161.822"/>
<polygon fill="#191970" stroke="#191970" points="1033.2507,-164.8444 1040.3745,-157.0021 1029.915,-158.6903 1033.2507,-164.8444"/>
</g>
<!-- Node5&#45;&gt;Node9 -->
<g id="edge11" class="edge">
<title>Node5&#45;&gt;Node9</title>
<path fill="none" stroke="#191970" d="M997.304,-208.5237C1107.6764,-203.3044 1359.3969,-189.502 1569.7505,-164 1581.9414,-162.522 1594.883,-160.6173 1607.3452,-158.6109"/>
<polygon fill="#191970" stroke="#191970" points="1607.9149,-162.0643 1617.2134,-156.9862 1606.7776,-155.1573 1607.9149,-162.0643"/>
</g>
<!-- Node6&#45;&gt;Node2 -->
<g id="edge9" class="edge">
<title>Node6&#45;&gt;Node2</title>
<path fill="none" stroke="#191970" d="M1069.7428,-135.9538C1086.9843,-118.5865 1124.2869,-84.5436 1163.7505,-71 1235.6184,-46.3354 2347.2975,-24.9435 2679.0085,-19.0838"/>
<polygon fill="#191970" stroke="#191970" points="2679.1283,-22.5823 2689.065,-18.9067 2679.0049,-15.5834 2679.1283,-22.5823"/>
</g>
<!-- Node8 -->
<g id="node8" class="node">
<title>Node8</title>
<polygon fill="#ffffff" stroke="#bfbfbf" points="1323.2505,-71.5 1323.2505,-92.5 1378.2505,-92.5 1378.2505,-71.5 1323.2505,-71.5"/>
<text text-anchor="middle" x="1350.7505" y="-78.9" font-family="Helvetica,sans-Serif" font-size="12.00" fill="#000000">cassert</text>
</g>
<!-- Node6&#45;&gt;Node8 -->
<g id="edge10" class="edge">
<title>Node6&#45;&gt;Node8</title>
<path fill="none" stroke="#191970" d="M1107.1523,-135.9934C1164.6778,-123.2429 1260.4969,-102.0047 1313.1828,-90.3268"/>
<polygon fill="#191970" stroke="#191970" points="1314.1151,-93.7052 1323.1208,-88.1241 1312.6003,-86.8711 1314.1151,-93.7052"/>
</g>
<!-- Node9&#45;&gt;Node2 -->
<g id="edge19" class="edge">
<title>Node9&#45;&gt;Node2</title>
<path fill="none" stroke="#191970" d="M1673.0138,-135.9421C1672.4925,-119.1857 1674.2559,-86.7876 1693.7505,-71 1731.7223,-40.2487 2423.6271,-24.0891 2678.5014,-19.16"/>
<polygon fill="#191970" stroke="#191970" points="2678.9143,-22.6528 2688.8453,-18.9615 2678.7799,-15.6541 2678.9143,-22.6528"/>
</g>
<!-- Node9&#45;&gt;Node8 -->
<g id="edge18" class="edge">
<title>Node9&#45;&gt;Node8</title>
<path fill="none" stroke="#191970" d="M1633.3221,-135.968C1623.361,-133.53 1612.6973,-131.0516 1602.7505,-129 1510.5975,-109.9927 1483.292,-114.9026 1388.5637,-93.2222"/>
<polygon fill="#191970" stroke="#191970" points="1389.0932,-89.7519 1378.5599,-90.8923 1387.5054,-96.5695 1389.0932,-89.7519"/>
</g>
<!-- Node10 -->
<g id="node10" class="node">
<title>Node10</title>
<polygon fill="#ffffff" stroke="#bfbfbf" points="2711.7505,-71.5 2711.7505,-92.5 2743.7505,-92.5 2743.7505,-71.5 2711.7505,-71.5"/>
<text text-anchor="middle" x="2727.7505" y="-78.9" font-family="Helvetica,sans-Serif" font-size="12.00" fill="#000000">list</text>
</g>
<!-- Node9&#45;&gt;Node10 -->
<g id="edge12" class="edge">
<title>Node9&#45;&gt;Node10</title>
<path fill="none" stroke="#191970" d="M1730.4181,-143.0322C1925.4625,-131.0964 2564.579,-91.9854 2701.6978,-83.5943"/>
<polygon fill="#191970" stroke="#191970" points="2701.947,-87.0857 2711.7145,-82.9813 2701.5194,-80.0988 2701.947,-87.0857"/>
</g>
<!-- Node9&#45;&gt;Node11 -->
<g id="edge13" class="edge">
<title>Node9&#45;&gt;Node11</title>
<path fill="none" stroke="#191970" d="M1714.1805,-135.9761C1724.1416,-133.5379 1734.8048,-131.0574 1744.7505,-129 1830.0023,-111.3647 1930.8953,-95.692 1985.2696,-87.6679"/>
<polygon fill="#191970" stroke="#191970" points="1985.8003,-91.1276 1995.1864,-86.2133 1984.7843,-84.2018 1985.8003,-91.1276"/>
</g>
<!-- Node12 -->
<g id="node12" class="node">
<title>Node12</title>
<polygon fill="#ffffff" stroke="#bfbfbf" points="1563.7505,-71.5 1563.7505,-92.5 1607.7505,-92.5 1607.7505,-71.5 1563.7505,-71.5"/>
<text text-anchor="middle" x="1585.7505" y="-78.9" font-family="Helvetica,sans-Serif" font-size="12.00" fill="#000000">limits</text>
</g>
<!-- Node9&#45;&gt;Node12 -->
<g id="edge14" class="edge">
<title>Node9&#45;&gt;Node12</title>
<path fill="none" stroke="#191970" d="M1659.2191,-135.8491C1645.4617,-125.7656 1624.5911,-110.4684 1608.6055,-98.7517"/>
<polygon fill="#191970" stroke="#191970" points="1610.4381,-95.7554 1600.3035,-92.6667 1606.2999,-101.4013 1610.4381,-95.7554"/>
</g>
<!-- Node13 -->
<g id="node13" class="node">
<title>Node13</title>
<polygon fill="#ffffff" stroke="#bfbfbf" points="1702.2505,-71.5 1702.2505,-92.5 1761.2505,-92.5 1761.2505,-71.5 1702.2505,-71.5"/>
<text text-anchor="middle" x="1731.7505" y="-78.9" font-family="Helvetica,sans-Serif" font-size="12.00" fill="#000000">sstream</text>
</g>
<!-- Node9&#45;&gt;Node13 -->
<g id="edge15" class="edge">
<title>Node9&#45;&gt;Node13</title>
<path fill="none" stroke="#191970" d="M1683.328,-135.8491C1691.9238,-126.2901 1704.7329,-112.0454 1715.0181,-100.6076"/>
<polygon fill="#191970" stroke="#191970" points="1717.8809,-102.6584 1721.9649,-92.8823 1712.6758,-97.9778 1717.8809,-102.6584"/>
</g>
<!-- Node14 -->
<g id="node14" class="node">
<title>Node14</title>
<polygon fill="#ffffff" stroke="#bfbfbf" points="603.7505,-7 603.7505,-28 665.7505,-28 665.7505,-7 603.7505,-7"/>
<text text-anchor="middle" x="634.7505" y="-14.4" font-family="Helvetica,sans-Serif" font-size="12.00" fill="#000000">iostream</text>
</g>
<!-- Node9&#45;&gt;Node14 -->
<g id="edge16" class="edge">
<title>Node9&#45;&gt;Node14</title>
<path fill="none" stroke="#191970" d="M1669.3439,-135.8725C1661.5863,-118.7075 1643.7144,-85.3572 1616.7505,-71 1532.8443,-26.3235 851.7761,-18.8902 676.0146,-17.7124"/>
<polygon fill="#191970" stroke="#191970" points="675.9071,-14.2117 665.885,-17.6478 675.8624,-21.2116 675.9071,-14.2117"/>
</g>
<!-- Node15 -->
<g id="node15" class="node">
<title>Node15</title>
<polygon fill="#ffffff" stroke="#bfbfbf" points="1779.2505,-71.5 1779.2505,-92.5 1832.2505,-92.5 1832.2505,-71.5 1779.2505,-71.5"/>
<text text-anchor="middle" x="1805.7505" y="-78.9" font-family="Helvetica,sans-Serif" font-size="12.00" fill="#000000">iterator</text>
</g>
<!-- Node9&#45;&gt;Node15 -->
<g id="edge17" class="edge">
<title>Node9&#45;&gt;Node15</title>
<path fill="none" stroke="#191970" d="M1695.2523,-135.9934C1716.922,-125.4048 1750.571,-108.9627 1775.0457,-97.0035"/>
<polygon fill="#191970" stroke="#191970" points="1776.8097,-100.0371 1784.2578,-92.5021 1773.7364,-93.7478 1776.8097,-100.0371"/>
</g>
<!-- Node9&#45;&gt;Node21 -->
<g id="edge20" class="edge">
<title>Node9&#45;&gt;Node21</title>
<path fill="none" stroke="#191970" d="M1637.18,-135.9639C1626.2008,-133.215 1614.0661,-130.5823 1602.7505,-129 1164.9426,-67.7802 1050.3294,-113.7765 608.7505,-93 555.5031,-90.4947 493.9094,-86.7784 455.6366,-84.3724"/>
<polygon fill="#191970" stroke="#191970" points="455.6875,-80.8687 445.4865,-83.7306 455.2457,-87.8548 455.6875,-80.8687"/>
</g>
<!-- Node24 -->
<g id="node18" class="node">
<title>Node24</title>
<g id="a_node18"><a xlink:href="AstronomicalConstants_8h.html" target="_top" xlink:title="Defines various astronomical constants. ">
<polygon fill="#ffffff" stroke="#000000" points="1395.7505,-71.5 1395.7505,-92.5 1545.7505,-92.5 1545.7505,-71.5 1395.7505,-71.5"/>
<text text-anchor="middle" x="1470.7505" y="-78.9" font-family="Helvetica,sans-Serif" font-size="12.00" fill="#000000">AstronomicalConstants.h</text>
</a>
</g>
</g>
<!-- Node9&#45;&gt;Node24 -->
<g id="edge24" class="edge">
<title>Node9&#45;&gt;Node24</title>
<path fill="none" stroke="#191970" d="M1640.6832,-135.9934C1606.0307,-124.9831 1551.4591,-107.6439 1513.5432,-95.5967"/>
<polygon fill="#191970" stroke="#191970" points="1514.3939,-92.1947 1503.8036,-92.5021 1512.2742,-98.866 1514.3939,-92.1947"/>
</g>
<!-- Node21&#45;&gt;Node2 -->
<g id="edge21" class="edge">
<title>Node21&#45;&gt;Node2</title>
<path fill="none" stroke="#191970" d="M445.4822,-80.1727C482.2447,-77.7236 550.4822,-73.4067 608.7505,-71 1409.9322,-37.9087 2378.9543,-22.8046 2678.8225,-18.6993"/>
<polygon fill="#191970" stroke="#191970" points="2679.2547,-22.1938 2689.2061,-18.5579 2679.1593,-15.1945 2679.2547,-22.1938"/>
</g>
<!-- Node21&#45;&gt;Node14 -->
<g id="edge22" class="edge">
<title>Node21&#45;&gt;Node14</title>
<path fill="none" stroke="#191970" d="M445.6703,-73.9614C482.9163,-62.8394 550.4817,-42.6636 593.9489,-29.6838"/>
<polygon fill="#191970" stroke="#191970" points="595.0617,-33.0043 603.6422,-26.7893 593.0588,-26.297 595.0617,-33.0043"/>
</g>
<!-- Node23 -->
<g id="node17" class="node">
<title>Node23</title>
<polygon fill="#ffffff" stroke="#bfbfbf" points="186.7505,-7 186.7505,-28 232.7505,-28 232.7505,-7 186.7505,-7"/>
<text text-anchor="middle" x="209.7505" y="-14.4" font-family="Helvetica,sans-Serif" font-size="12.00" fill="#000000">string</text>
</g>
<!-- Node21&#45;&gt;Node23 -->
<g id="edge23" class="edge">
<title>Node21&#45;&gt;Node23</title>
<path fill="none" stroke="#191970" d="M391.8552,-73.6998C353.661,-61.9126 283.7805,-40.3466 242.5801,-27.6316"/>
<polygon fill="#191970" stroke="#191970" points="243.5951,-24.282 233.0076,-24.6774 241.5308,-30.9708 243.5951,-24.282"/>
</g>
<!-- Node27&#45;&gt;Node9 -->
<g id="edge30" class="edge">
<title>Node27&#45;&gt;Node9</title>
<path fill="none" stroke="#191970" d="M1686.2735,-200.3491C1684.18,-191.3469 1681.12,-178.1891 1678.549,-167.1335"/>
<polygon fill="#191970" stroke="#191970" points="1681.9555,-166.3295 1676.2812,-157.3823 1675.1374,-167.9152 1681.9555,-166.3295"/>
</g>
<!-- Node27&#45;&gt;Node11 -->
<g id="edge29" class="edge">
<title>Node27&#45;&gt;Node11</title>
<path fill="none" stroke="#191970" d="M1716.2468,-200.4434C1776.4489,-177.3301 1919.9543,-122.2342 1987.8895,-96.152"/>
<polygon fill="#191970" stroke="#191970" points="1989.2644,-99.3733 1997.3455,-92.5216 1986.7554,-92.8384 1989.2644,-99.3733"/>
</g>
<!-- Node28 -->
<g id="node20" class="node">
<title>Node28</title>
<polygon fill="#ffffff" stroke="#bfbfbf" points="1511.2505,-136 1511.2505,-157 1560.2505,-157 1560.2505,-136 1511.2505,-136"/>
<text text-anchor="middle" x="1535.7505" y="-143.4" font-family="Helvetica,sans-Serif" font-size="12.00" fill="#000000">cmath</text>
</g>
<!-- Node27&#45;&gt;Node28 -->
<g id="edge28" class="edge">
<title>Node27&#45;&gt;Node28</title>
<path fill="none" stroke="#191970" d="M1662.3925,-200.4009C1639.2249,-191.0211 1604.6396,-176.8637 1574.7505,-164 1572.7012,-163.118 1570.5954,-162.2019 1568.4746,-161.2717"/>
<polygon fill="#191970" stroke="#191970" points="1569.7701,-158.0176 1559.2095,-157.1667 1566.9345,-164.4176 1569.7701,-158.0176"/>
</g>
<!-- Node34&#45;&gt;Node2 -->
<g id="edge33" class="edge">
<title>Node34&#45;&gt;Node2</title>
<path fill="none" stroke="#191970" d="M740.0759,-72.3983C744.6959,-71.8611 749.2926,-71.3846 753.7505,-71 1135.1845,-38.0899 2335.3638,-22.3864 2678.9866,-18.4901"/>
<polygon fill="#191970" stroke="#191970" points="2679.1854,-21.9881 2689.1453,-18.3755 2679.1064,-14.9886 2679.1854,-21.9881"/>
</g>
<!-- Node34&#45;&gt;Node14 -->
<g id="edge34" class="edge">
<title>Node34&#45;&gt;Node14</title>
<path fill="none" stroke="#191970" d="M671.4848,-71.3491C665.0905,-61.9757 655.6227,-48.0969 647.9007,-36.777"/>
<polygon fill="#191970" stroke="#191970" points="650.7008,-34.6708 642.174,-28.3823 644.9181,-38.6156 650.7008,-34.6708"/>
</g>
<!-- Node35&#45;&gt;Node2 -->
<g id="edge36" class="edge">
<title>Node35&#45;&gt;Node2</title>
<path fill="none" stroke="#191970" d="M1173.0244,-264.9736C1181.3425,-229.4357 1213.7977,-113.7377 1291.7505,-71 1352.6007,-37.6388 2363.6803,-22.4943 2678.7631,-18.5702"/>
<polygon fill="#191970" stroke="#191970" points="2679.2716,-22.0643 2689.2275,-18.4408 2679.185,-15.0648 2679.2716,-22.0643"/>
</g>
<!-- Node36 -->
<g id="node23" class="node">
<title>Node36</title>
<g id="a_node23"><a xlink:href="StoppingCondition_8h.html" target="_top" xlink:title="Defines the various stopping conditions needed by OrbitSolver. ">
<polygon fill="#ffffff" stroke="#000000" points="1211.7505,-200.5 1211.7505,-221.5 1337.7505,-221.5 1337.7505,-200.5 1211.7505,-200.5"/>
<text text-anchor="middle" x="1274.7505" y="-207.9" font-family="Helvetica,sans-Serif" font-size="12.00" fill="#000000">StoppingCondition.h</text>
</a>
</g>
</g>
<!-- Node35&#45;&gt;Node36 -->
<g id="edge37" class="edge">
<title>Node35&#45;&gt;Node36</title>
<path fill="none" stroke="#191970" d="M1187.924,-264.8491C1204.559,-254.5322 1229.9943,-238.7574 1249.0424,-226.9439"/>
<polygon fill="#191970" stroke="#191970" points="1250.8979,-229.9117 1257.5515,-221.6667 1247.2084,-223.9629 1250.8979,-229.9117"/>
</g>
<!-- Node36&#45;&gt;Node2 -->
<g id="edge38" class="edge">
<title>Node36&#45;&gt;Node2</title>
<path fill="none" stroke="#191970" d="M1273.8952,-200.1801C1272.4177,-172.9402 1272.88,-101.532 1314.7505,-71 1369.8881,-30.7935 2366.264,-20.3605 2678.7905,-18.0713"/>
<polygon fill="#191970" stroke="#191970" points="2679.198,-21.5686 2689.1725,-17.9964 2679.1475,-14.5688 2679.198,-21.5686"/>
</g>
<!-- Node36&#45;&gt;Node8 -->
<g id="edge40" class="edge">
<title>Node36&#45;&gt;Node8</title>
<path fill="none" stroke="#191970" d="M1279.5577,-200.3655C1286.8912,-184.4546 1301.623,-153.6841 1316.7505,-129 1322.687,-119.3131 1329.994,-109.0366 1336.3107,-100.5713"/>
<polygon fill="#191970" stroke="#191970" points="1339.1752,-102.5865 1342.436,-92.5059 1333.6006,-98.3528 1339.1752,-102.5865"/>
</g>
<!-- Node36&#45;&gt;Node9 -->
<g id="edge39" class="edge">
<title>Node36&#45;&gt;Node9</title>
<path fill="none" stroke="#191970" d="M1337.7893,-201.1194C1397.5359,-191.7162 1489.7829,-177.0981 1569.7505,-164 1581.8691,-162.0151 1594.7764,-159.869 1607.2272,-157.7825"/>
<polygon fill="#191970" stroke="#191970" points="1607.8086,-161.2339 1617.0909,-156.1261 1606.6493,-154.3306 1607.8086,-161.2339"/>
</g>
<!-- Node37&#45;&gt;Node2 -->
<g id="edge42" class="edge">
<title>Node37&#45;&gt;Node2</title>
<path fill="none" stroke="#191970" d="M856.6895,-264.7596C858.4349,-249.4176 863.2207,-220.7878 875.7505,-200 921.3158,-124.4036 943.7661,-101.0767 1026.7505,-71 1104.8549,-42.692 2329.4069,-23.6269 2679.1405,-18.7394"/>
<polygon fill="#191970" stroke="#191970" points="2679.2802,-22.2379 2689.2305,-18.599 2679.1827,-15.2386 2679.2802,-22.2379"/>
</g>
<!-- Node37&#45;&gt;Node36 -->
<g id="edge43" class="edge">
<title>Node37&#45;&gt;Node36</title>
<path fill="none" stroke="#191970" d="M899.187,-264.9346C910.1055,-262.4703 921.8257,-259.9883 932.7505,-258 1024.9194,-241.2258 1132.0393,-227.4132 1201.4891,-219.1995"/>
<polygon fill="#191970" stroke="#191970" points="1201.9329,-222.6715 1211.4562,-218.0285 1201.1161,-215.7193 1201.9329,-222.6715"/>
</g>
<!-- Node38&#45;&gt;Node2 -->
<g id="edge45" class="edge">
<title>Node38&#45;&gt;Node2</title>
<path fill="none" stroke="#191970" d="M703.2139,-264.9247C735.9403,-229.2295 849.0022,-113.0863 970.7505,-71 1052.011,-42.9097 2322.3861,-23.6044 2679.1912,-18.7166"/>
<polygon fill="#191970" stroke="#191970" points="2679.2747,-22.2159 2689.2259,-18.5797 2679.1791,-15.2166 2679.2747,-22.2159"/>
</g>
<!-- Node38&#45;&gt;Node36 -->
<g id="edge46" class="edge">
<title>Node38&#45;&gt;Node36</title>
<path fill="none" stroke="#191970" d="M740.9052,-264.9668C753.4802,-262.4152 767.0911,-259.8836 779.7505,-258 928.8071,-235.8218 1104.7575,-222.0354 1201.6087,-215.5089"/>
<polygon fill="#191970" stroke="#191970" points="1201.8445,-219.0011 1211.5893,-214.8432 1201.3785,-212.0166 1201.8445,-219.0011"/>
</g>
<!-- Node40&#45;&gt;Node2 -->
<g id="edge51" class="edge">
<title>Node40&#45;&gt;Node2</title>
<path fill="none" stroke="#191970" d="M1843.925,-408.7827C2114.8931,-397.9057 3256.7505,-347.7819 3256.7505,-275.5 3256.7505,-275.5 3256.7505,-275.5 3256.7505,-146.5 3256.7505,-99.5143 3224.8011,-91.9617 3182.7505,-71 3128.6073,-44.0103 2968.2702,-29.3945 2864.6031,-22.5416"/>
<polygon fill="#191970" stroke="#191970" points="2864.647,-19.0372 2854.4414,-21.8827 2864.1939,-26.0225 2864.647,-19.0372"/>
</g>
<!-- Node40&#45;&gt;Node4 -->
<g id="edge52" class="edge">
<title>Node40&#45;&gt;Node4</title>
<path fill="none" stroke="#191970" d="M1729.4414,-407.3474C1554.7416,-396.2129 1029.4162,-362.7312 842.0511,-350.7894"/>
<polygon fill="#191970" stroke="#191970" points="842.2591,-347.2957 832.0567,-350.1524 841.8138,-354.2815 842.2591,-347.2957"/>
</g>
<!-- Node40&#45;&gt;Node8 -->
<g id="edge60" class="edge">
<title>Node40&#45;&gt;Node8</title>
<path fill="none" stroke="#191970" d="M1792.2545,-400.112C1805.328,-372.5404 1834.5718,-299.2337 1798.7505,-258 1761.2186,-214.7973 1596.8133,-243.4347 1543.7505,-222 1471.2164,-192.6999 1400.5955,-130.364 1368.5919,-99.7353"/>
<polygon fill="#191970" stroke="#191970" points="1370.9244,-97.1217 1361.3098,-92.6709 1366.0504,-102.146 1370.9244,-97.1217"/>
</g>
<!-- Node40&#45;&gt;Node9 -->
<g id="edge58" class="edge">
<title>Node40&#45;&gt;Node9</title>
<path fill="none" stroke="#191970" d="M1822.3748,-400.3726C1839.9314,-393.1341 1859.4927,-381.5968 1869.7505,-364 1893.4762,-323.2993 1890.0867,-300.4958 1869.7505,-258 1843.9013,-203.9841 1778.9673,-174.7108 1730.884,-159.8968"/>
<polygon fill="#191970" stroke="#191970" points="1731.7862,-156.5139 1721.2043,-157.0376 1729.8031,-163.2272 1731.7862,-156.5139"/>
</g>
<!-- Node40&#45;&gt;Node11 -->
<g id="edge59" class="edge">
<title>Node40&#45;&gt;Node11</title>
<path fill="none" stroke="#191970" d="M1825.5161,-400.4831C1846.8399,-393.108 1872.5772,-381.4049 1890.7505,-364 1970.8042,-287.331 2008.4675,-153.2067 2020.3821,-102.341"/>
<polygon fill="#191970" stroke="#191970" points="2023.8056,-103.07 2022.5955,-92.5444 2016.9777,-101.5272 2023.8056,-103.07"/>
</g>
<!-- Node40&#45;&gt;Node24 -->
<g id="edge57" class="edge">
<title>Node40&#45;&gt;Node24</title>
<path fill="none" stroke="#191970" d="M1802.0178,-400.196C1812.5814,-391.7188 1825.7731,-378.8861 1831.7505,-364 1849.305,-320.2817 1862.2418,-293.9129 1831.7505,-258 1799.8296,-220.4034 1659.5029,-237.7051 1612.7505,-222 1560.3589,-204.4006 1539.5587,-205.2283 1502.7505,-164 1487.0847,-146.4531 1478.6888,-120.3618 1474.4841,-102.3448"/>
<polygon fill="#191970" stroke="#191970" points="1477.9087,-101.6221 1472.4246,-92.5571 1471.0587,-103.0635 1477.9087,-101.6221"/>
</g>
<!-- Node41 -->
<g id="node28" class="node">
<title>Node41</title>
<g id="a_node28"><a xlink:href="OrbitalExpressions_8h.html" target="_top" xlink:title="A collection of functions which calculate various quantities for two body orbits. ...">
<polygon fill="#ffffff" stroke="#000000" points="1469.7505,-336 1469.7505,-357 1635.7505,-357 1635.7505,-336 1469.7505,-336"/>
<text text-anchor="middle" x="1552.7505" y="-343.4" font-family="Helvetica,sans-Serif" font-size="12.00" fill="#000000">../Core/OrbitalExpressions.h</text>
</a>
</g>
</g>
<!-- Node40&#45;&gt;Node41 -->
<g id="edge53" class="edge">
<title>Node40&#45;&gt;Node41</title>
<path fill="none" stroke="#191970" d="M1748.6335,-400.4934C1708.2643,-389.366 1644.443,-371.7742 1600.6897,-359.714"/>
<polygon fill="#191970" stroke="#191970" points="1601.4216,-356.2853 1590.8511,-357.0021 1599.5615,-363.0336 1601.4216,-356.2853"/>
</g>
<!-- Node41&#45;&gt;Node2 -->
<g id="edge54" class="edge">
<title>Node41&#45;&gt;Node2</title>
<path fill="none" stroke="#191970" d="M1625.352,-335.9964C1687.0121,-326.1234 1769.9516,-310.3076 1798.7505,-293 1909.5702,-226.3995 1871.3655,-129.3349 1986.7505,-71 2047.1564,-40.4607 2484.5835,-25.1406 2679.0179,-19.7797"/>
<polygon fill="#191970" stroke="#191970" points="2679.317,-23.2729 2689.2178,-19.5014 2679.126,-16.2755 2679.317,-23.2729"/>
</g>
<!-- Node41&#45;&gt;Node24 -->
<g id="edge56" class="edge">
<title>Node41&#45;&gt;Node24</title>
<path fill="none" stroke="#191970" d="M1545.8994,-335.9728C1528.7126,-308.8573 1484.0529,-233.8455 1468.7505,-164 1464.2685,-143.543 1465.596,-119.529 1467.5374,-102.7956"/>
<polygon fill="#191970" stroke="#191970" points="1471.0568,-102.8836 1468.9157,-92.5074 1464.1188,-101.9541 1471.0568,-102.8836"/>
</g>
<!-- Node41&#45;&gt;Node28 -->
<g id="edge55" class="edge">
<title>Node41&#45;&gt;Node28</title>
<path fill="none" stroke="#191970" d="M1551.8365,-335.7471C1549.1269,-303.8692 1541.1035,-209.4774 1537.5172,-167.2849"/>
<polygon fill="#191970" stroke="#191970" points="1541.0034,-166.9736 1536.669,-157.306 1534.0286,-167.5666 1541.0034,-166.9736"/>
</g>
<!-- Node42&#45;&gt;Node2 -->
<g id="edge62" class="edge">
<title>Node42&#45;&gt;Node2</title>
<path fill="none" stroke="#191970" d="M1484.4429,-467.2558C1505.7934,-464.0051 1530.9349,-460.4665 1553.7505,-458 2142.9035,-394.3101 2296.0031,-439.57 2883.7505,-364 3069.0783,-340.1714 3294.7505,-462.3535 3294.7505,-275.5 3294.7505,-275.5 3294.7505,-275.5 3294.7505,-146.5 3294.7505,-98.5716 3260.96,-91.7381 3217.7505,-71 3157.3268,-42.0001 2976.9826,-27.8243 2864.9918,-21.6396"/>
<polygon fill="#191970" stroke="#191970" points="2864.8833,-18.1287 2854.7088,-21.0835 2864.5052,-25.1185 2864.8833,-18.1287"/>
</g>
<!-- Node42&#45;&gt;Node9 -->
<g id="edge69" class="edge">
<title>Node42&#45;&gt;Node9</title>
<path fill="none" stroke="#191970" d="M1484.7044,-464.995C1535.7454,-451.4159 1611.3754,-422.234 1644.7505,-364 1652.4854,-350.5038 1650.2786,-343.5401 1644.7505,-329 1637.1427,-308.9902 1620.3582,-313.0098 1612.7505,-293 1607.2223,-278.4599 1603.1014,-270.2013 1612.7505,-258 1655.8142,-203.5457 1721.6868,-276.4543 1764.7505,-222 1784.4526,-197.0865 1747.0965,-174.7083 1714.457,-160.9016"/>
<polygon fill="#191970" stroke="#191970" points="1715.5712,-157.5768 1704.9885,-157.0693 1712.9449,-164.0655 1715.5712,-157.5768"/>
</g>
<!-- Node42&#45;&gt;Node12 -->
<g id="edge76" class="edge">
<title>Node42&#45;&gt;Node12</title>
<path fill="none" stroke="#191970" d="M1415.535,-464.9582C1401.4652,-455.6674 1383.0412,-440.7096 1374.7505,-422 1370.7892,-413.0606 1372.6106,-409.5408 1374.7505,-400 1403.9016,-270.0253 1412.109,-226.6081 1502.7505,-129 1516.8799,-113.7845 1537.0806,-102.1985 1554.0152,-94.3369"/>
<polygon fill="#191970" stroke="#191970" points="1555.7994,-97.3754 1563.538,-90.1392 1552.9758,-90.9701 1555.7994,-97.3754"/>
</g>
<!-- Node42&#45;&gt;Node14 -->
<g id="edge77" class="edge">
<title>Node42&#45;&gt;Node14</title>
<path fill="none" stroke="#191970" d="M1383.242,-472.4026C1239.8322,-463.5157 831.9417,-437.5763 698.7505,-422 538.22,-403.2264 487.1743,-430.2472 339.7505,-364 294.227,-343.5433 276.2615,-337.0238 252.7505,-293 206.1004,-205.649 168.5217,-145.5093 233.7505,-71 257.2406,-44.1677 495.8547,-26.2369 593.4671,-19.9721"/>
<polygon fill="#191970" stroke="#191970" points="593.7993,-23.4581 603.5584,-19.3339 593.3574,-16.4721 593.7993,-23.4581"/>
</g>
<!-- Node42&#45;&gt;Node21 -->
<g id="edge71" class="edge">
<title>Node42&#45;&gt;Node21</title>
<path fill="none" stroke="#191970" d="M1383.1713,-471.6058C1168.5252,-454.5528 340.8113,-383.2667 271.7505,-293 241.3843,-253.3095 248.1366,-198.5338 309.7505,-129 328.5256,-107.8115 358.5383,-95.8291 382.3215,-89.274"/>
<polygon fill="#191970" stroke="#191970" points="383.2564,-92.6477 392.0819,-86.786 381.5273,-85.8646 383.2564,-92.6477"/>
</g>
<!-- Node42&#45;&gt;Node23 -->
<g id="edge75" class="edge">
<title>Node42&#45;&gt;Node23</title>
<path fill="none" stroke="#191970" d="M1383.1381,-472.4199C1323.8554,-468.8372 1222.6844,-462.8008 1135.7505,-458 826.4749,-440.9206 743.6358,-481.9733 439.7505,-422 363.4894,-406.9495 342.1059,-402.8011 274.7505,-364 184.0644,-311.759 95.7505,-315.657 95.7505,-211 95.7505,-211 95.7505,-211 95.7505,-146.5 95.7505,-94.9201 147.5584,-54.2589 181.3234,-33.2358"/>
<polygon fill="#191970" stroke="#191970" points="183.1312,-36.2329 189.8932,-28.0765 179.5207,-30.2358 183.1312,-36.2329"/>
</g>
<!-- Node42&#45;&gt;Node24 -->
<g id="edge68" class="edge">
<title>Node42&#45;&gt;Node24</title>
<path fill="none" stroke="#191970" d="M1451.966,-464.9582C1466.0357,-455.6674 1484.4597,-440.7096 1492.7505,-422 1496.7118,-413.0606 1496.2253,-409.1395 1492.7505,-400 1485.1427,-379.9902 1468.3582,-384.0098 1460.7505,-364 1425.7014,-271.8139 1451.9617,-150.2223 1464.7793,-102.4843"/>
<polygon fill="#191970" stroke="#191970" points="1468.1869,-103.294 1467.4945,-92.7219 1461.4428,-101.4183 1468.1869,-103.294"/>
</g>
<!-- Node42&#45;&gt;Node35 -->
<g id="edge64" class="edge">
<title>Node42&#45;&gt;Node35</title>
<path fill="none" stroke="#191970" d="M1383.2108,-470.9423C1294.8198,-462.457 1119.7797,-443.1671 1101.7505,-422 1067.7798,-382.1169 1119.8259,-322.6716 1150.6621,-293.2763"/>
<polygon fill="#191970" stroke="#191970" points="1153.3924,-295.5176 1158.3441,-286.1511 1148.6322,-290.3853 1153.3924,-295.5176"/>
</g>
<!-- Node42&#45;&gt;Node40 -->
<g id="edge63" class="edge">
<title>Node42&#45;&gt;Node40</title>
<path fill="none" stroke="#191970" d="M1484.3268,-466.2587C1546.1969,-454.9538 1651.1417,-435.7784 1719.6957,-423.2522"/>
<polygon fill="#191970" stroke="#191970" points="1720.3287,-426.6946 1729.5367,-421.4541 1719.0704,-419.8086 1720.3287,-426.6946"/>
</g>
<!-- Node42&#45;&gt;Node41 -->
<g id="edge70" class="edge">
<title>Node42&#45;&gt;Node41</title>
<path fill="none" stroke="#191970" d="M1462.6819,-464.9372C1482.8748,-456.2254 1509.092,-442.03 1525.7505,-422 1538.8409,-406.2602 1545.8016,-383.6887 1549.3552,-367.3288"/>
<polygon fill="#191970" stroke="#191970" points="1552.8601,-367.6355 1551.3046,-357.1555 1545.9851,-366.3181 1552.8601,-367.6355"/>
</g>
<!-- Node43 -->
<g id="node30" class="node">
<title>Node43</title>
<g id="a_node30"><a xlink:href="SecondaryDeathCondition_8h.html" target="_top" xlink:title="Declares a stopping condition class monitoring for the death of the secondary object. ">
<polygon fill="#ffffff" stroke="#000000" points="1621.7505,-265 1621.7505,-286 1789.7505,-286 1789.7505,-265 1621.7505,-265"/>
<text text-anchor="middle" x="1705.7505" y="-272.4" font-family="Helvetica,sans-Serif" font-size="12.00" fill="#000000">SecondaryDeathCondition.h</text>
</a>
</g>
</g>
<!-- Node42&#45;&gt;Node43 -->
<g id="edge65" class="edge">
<title>Node42&#45;&gt;Node43</title>
<path fill="none" stroke="#191970" d="M1484.4375,-467.4309C1551.9002,-456.2347 1664.3087,-435.8096 1677.7505,-422 1710.7264,-388.1215 1710.9079,-328.0501 1708.2995,-296.3793"/>
<polygon fill="#191970" stroke="#191970" points="1711.7488,-295.6978 1707.2679,-286.0972 1704.7838,-296.3967 1711.7488,-295.6978"/>
</g>
<!-- Node44 -->
<g id="node31" class="node">
<title>Node44</title>
<polygon fill="#ffffff" stroke="#bfbfbf" points="1110.2505,-400.5 1110.2505,-421.5 1205.2505,-421.5 1205.2505,-400.5 1110.2505,-400.5"/>
<text text-anchor="middle" x="1157.7505" y="-407.9" font-family="Helvetica,sans-Serif" font-size="12.00" fill="#000000">gsl/gsl_errno.h</text>
</g>
<!-- Node42&#45;&gt;Node44 -->
<g id="edge72" class="edge">
<title>Node42&#45;&gt;Node44</title>
<path fill="none" stroke="#191970" d="M1388.792,-464.9934C1340.6759,-453.7489 1264.3128,-435.9032 1212.6724,-423.835"/>
<polygon fill="#191970" stroke="#191970" points="1213.2238,-420.3696 1202.6897,-421.5021 1211.6308,-427.186 1213.2238,-420.3696"/>
</g>
<!-- Node45 -->
<g id="node32" class="node">
<title>Node45</title>
<polygon fill="#ffffff" stroke="#bfbfbf" points="1223.7505,-400.5 1223.7505,-421.5 1327.7505,-421.5 1327.7505,-400.5 1223.7505,-400.5"/>
<text text-anchor="middle" x="1275.7505" y="-407.9" font-family="Helvetica,sans-Serif" font-size="12.00" fill="#000000">gsl/gsl_odeiv2.h</text>
</g>
<!-- Node42&#45;&gt;Node45 -->
<g id="edge73" class="edge">
<title>Node42&#45;&gt;Node45</title>
<path fill="none" stroke="#191970" d="M1408.0134,-464.9934C1381.6163,-454.2174 1340.3684,-437.3788 1310.9581,-425.3727"/>
<polygon fill="#191970" stroke="#191970" points="1312.0576,-422.0412 1301.4765,-421.5021 1309.412,-428.522 1312.0576,-422.0412"/>
</g>
<!-- Node46 -->
<g id="node33" class="node">
<title>Node46</title>
<polygon fill="#ffffff" stroke="#bfbfbf" points="1383.7505,-400.5 1383.7505,-421.5 1483.7505,-421.5 1483.7505,-400.5 1383.7505,-400.5"/>
<text text-anchor="middle" x="1433.7505" y="-407.9" font-family="Helvetica,sans-Serif" font-size="12.00" fill="#000000">gsl/gsl_siman.h</text>
</g>
<!-- Node42&#45;&gt;Node46 -->
<g id="edge74" class="edge">
<title>Node42&#45;&gt;Node46</title>
<path fill="none" stroke="#191970" d="M1433.7505,-464.8491C1433.7505,-455.9397 1433.7505,-442.9599 1433.7505,-431.9761"/>
<polygon fill="#191970" stroke="#191970" points="1437.2506,-431.8822 1433.7505,-421.8823 1430.2506,-431.8823 1437.2506,-431.8822"/>
</g>
<!-- Node43&#45;&gt;Node2 -->
<g id="edge66" class="edge">
<title>Node43&#45;&gt;Node2</title>
<path fill="none" stroke="#191970" d="M1728.1554,-264.9324C1747.5788,-255.2151 1775.919,-239.6668 1797.7505,-222 1868.1917,-164.9965 1853.1118,-110.3254 1934.7505,-71 2000.3817,-39.3854 2474.8874,-24.5051 2678.9059,-19.5154"/>
<polygon fill="#191970" stroke="#191970" points="2679.0916,-23.012 2689.004,-19.2711 2678.9223,-16.0141 2679.0916,-23.012"/>
</g>
<!-- Node43&#45;&gt;Node36 -->
<g id="edge67" class="edge">
<title>Node43&#45;&gt;Node36</title>
<path fill="none" stroke="#191970" d="M1635.5436,-264.9934C1556.3963,-253.1489 1428.3057,-233.9798 1347.9494,-221.9544"/>
<polygon fill="#191970" stroke="#191970" points="1348.3163,-218.4704 1337.9084,-220.4517 1347.2803,-225.3933 1348.3163,-218.4704"/>
</g>
<!-- Node47&#45;&gt;Node2 -->
<g id="edge79" class="edge">
<title>Node47&#45;&gt;Node2</title>
<path fill="none" stroke="#191970" d="M960.5344,-474.0029C742.5736,-467.8422 171.7505,-436.353 171.7505,-275.5 171.7505,-275.5 171.7505,-275.5 171.7505,-211 171.7505,-98.4572 274.2139,-100.7605 382.7505,-71 495.1762,-40.1731 2252.3076,-22.232 2678.9498,-18.3167"/>
<polygon fill="#191970" stroke="#191970" points="2679.113,-21.8154 2689.0806,-18.224 2679.049,-14.8157 2679.113,-21.8154"/>
</g>
<!-- Node47&#45;&gt;Node21 -->
<g id="edge83" class="edge">
<title>Node47&#45;&gt;Node21</title>
<path fill="none" stroke="#191970" d="M960.7048,-473.749C739.0656,-468.6729 148.3911,-452.3469 119.7505,-422 78.906,-378.7222 -201.3918,-515.1818 271.7505,-129 303.5916,-103.0111 350.0547,-91.2923 382.1837,-86.0735"/>
<polygon fill="#191970" stroke="#191970" points="382.7009,-89.5351 392.0748,-84.5976 381.6678,-82.6118 382.7009,-89.5351"/>
</g>
<!-- Node47&#45;&gt;Node36 -->
<g id="edge80" class="edge">
<title>Node47&#45;&gt;Node36</title>
<path fill="none" stroke="#191970" d="M1046.4778,-458.4168C1049.889,-441.8298 1057.1555,-416.7655 1071.7505,-400 1137.685,-324.2598 1217.146,-377.9147 1270.7505,-293 1282.3438,-274.6351 1281.5532,-249.0813 1279.0136,-231.4028"/>
<polygon fill="#191970" stroke="#191970" points="1282.4615,-230.8011 1277.3014,-221.5478 1275.5649,-231.9994 1282.4615,-230.8011"/>
</g>
<!-- Node47&#45;&gt;Node40 -->
<g id="edge81" class="edge">
<title>Node47&#45;&gt;Node40</title>
<path fill="none" stroke="#191970" d="M1126.8193,-468.2888C1275.1827,-455.4093 1582.9157,-428.6949 1719.2364,-416.8609"/>
<polygon fill="#191970" stroke="#191970" points="1719.876,-420.3186 1729.5358,-415.9668 1719.2706,-413.3449 1719.876,-420.3186"/>
</g>
<!-- Node47&#45;&gt;Node41 -->
<g id="edge82" class="edge">
<title>Node47&#45;&gt;Node41</title>
<path fill="none" stroke="#191970" d="M1051.7081,-458.4463C1061.0093,-440.6138 1078.1846,-413.3963 1101.7505,-400 1160.9694,-366.3363 1345.7012,-353.7429 1459.5411,-349.1128"/>
<polygon fill="#191970" stroke="#191970" points="1459.7948,-352.6056 1469.6494,-348.715 1459.5194,-345.611 1459.7948,-352.6056"/>
</g>
<!-- Node48&#45;&gt;Node2 -->
<g id="edge85" class="edge">
<title>Node48&#45;&gt;Node2</title>
<path fill="none" stroke="#191970" d="M1717.4523,-473.7043C2049.5345,-465.5285 3332.7505,-428.6226 3332.7505,-346.5 3332.7505,-346.5 3332.7505,-346.5 3332.7505,-146.5 3332.7505,-111.2899 3336.1032,-93.1716 3308.7505,-71 3275.0554,-43.6875 3009.1212,-27.8946 2864.5648,-21.247"/>
<polygon fill="#191970" stroke="#191970" points="2864.5199,-17.7415 2854.3714,-20.7842 2864.2023,-24.7343 2864.5199,-17.7415"/>
</g>
<!-- Node48&#45;&gt;Node21 -->
<g id="edge88" class="edge">
<title>Node48&#45;&gt;Node21</title>
<path fill="none" stroke="#191970" d="M1624.3552,-464.7314C1598.5518,-447.3634 1544.3181,-413.728 1492.7505,-400 1324.2145,-355.1334 881.9174,-384.7506 708.7505,-364 667.8365,-359.0973 370.9508,-324.8046 344.7505,-293 298.0957,-236.3658 324.614,-191.068 363.7505,-129 371.3095,-117.0118 382.8901,-106.4607 393.4786,-98.4088"/>
<polygon fill="#191970" stroke="#191970" points="395.5981,-101.1955 401.6619,-92.5075 391.5037,-95.5179 395.5981,-101.1955"/>
</g>
<!-- Node48&#45;&gt;Node36 -->
<g id="edge86" class="edge">
<title>Node48&#45;&gt;Node36</title>
<path fill="none" stroke="#191970" d="M1637.417,-464.958C1633.2173,-448.5208 1622.7922,-416.9198 1601.7505,-400 1551.3474,-359.4705 1518.4387,-393.2434 1460.7505,-364 1389.9253,-328.0973 1321.8238,-261.2657 1291.38,-229.1498"/>
<polygon fill="#191970" stroke="#191970" points="1293.8624,-226.6802 1284.4727,-221.7726 1288.7526,-231.4645 1293.8624,-226.6802"/>
</g>
<!-- Node48&#45;&gt;Node40 -->
<g id="edge87" class="edge">
<title>Node48&#45;&gt;Node40</title>
<path fill="none" stroke="#191970" d="M1663.6957,-464.9934C1688.1482,-454.2642 1726.2978,-437.5251 1753.6365,-425.5296"/>
<polygon fill="#191970" stroke="#191970" points="1755.0645,-428.7252 1762.8155,-421.5021 1752.2519,-422.3151 1755.0645,-428.7252"/>
</g>
<!-- Node49&#45;&gt;Node2 -->
<g id="edge90" class="edge">
<title>Node49&#45;&gt;Node2</title>
<path fill="none" stroke="#191970" d="M2282.6418,-208.0873C2403.2895,-201.7135 2670.224,-185.3743 2705.7505,-164 2747.5587,-138.8464 2763.0466,-79.6779 2768.6637,-44.716"/>
<polygon fill="#191970" stroke="#191970" points="2772.1438,-45.1048 2770.1083,-34.7074 2765.2156,-44.1048 2772.1438,-45.1048"/>
</g>
<!-- Node49&#45;&gt;Node9 -->
<g id="edge91" class="edge">
<title>Node49&#45;&gt;Node9</title>
<path fill="none" stroke="#191970" d="M2165.1514,-204.1279C2062.1848,-192.0528 1849.4344,-167.1029 1740.7851,-154.3613"/>
<polygon fill="#191970" stroke="#191970" points="1740.9425,-150.8559 1730.6029,-153.1672 1740.1271,-157.8082 1740.9425,-150.8559"/>
</g>
<!-- Node49&#45;&gt;Node10 -->
<g id="edge96" class="edge">
<title>Node49&#45;&gt;Node10</title>
<path fill="none" stroke="#191970" d="M2282.6451,-207.7733C2397.708,-201.0529 2644.0278,-184.4648 2676.7505,-164 2699.4019,-149.8338 2713.6151,-121.5292 2721.1181,-102.1778"/>
<polygon fill="#191970" stroke="#191970" points="2724.4195,-103.3402 2724.5233,-92.7458 2717.8355,-100.9631 2724.4195,-103.3402"/>
</g>
<!-- Node49&#45;&gt;Node11 -->
<g id="edge95" class="edge">
<title>Node49&#45;&gt;Node11</title>
<path fill="none" stroke="#191970" d="M2197.1952,-200.4855C2176.7166,-191.8881 2148.0504,-178.7716 2124.7505,-164 2094.2216,-144.6454 2062.54,-117.2023 2043.2305,-99.4998"/>
<polygon fill="#191970" stroke="#191970" points="2045.4633,-96.7969 2035.7519,-92.5613 2040.7023,-101.9286 2045.4633,-96.7969"/>
</g>
<!-- Node49&#45;&gt;Node12 -->
<g id="edge94" class="edge">
<title>Node49&#45;&gt;Node12</title>
<path fill="none" stroke="#191970" d="M2165.1331,-201.1888C2111.7545,-192.0967 2030.812,-177.915 1960.7505,-164 1833.5075,-138.7282 1682.9467,-104.4765 1618.1034,-89.514"/>
<polygon fill="#191970" stroke="#191970" points="1618.6211,-86.0415 1608.0897,-87.1994 1617.0445,-92.8616 1618.6211,-86.0415"/>
</g>
<!-- Node49&#45;&gt;Node14 -->
<g id="edge98" class="edge">
<title>Node49&#45;&gt;Node14</title>
<path fill="none" stroke="#191970" d="M2207.7615,-200.4237C2194.2925,-191.2854 2174.7215,-177.4632 2158.7505,-164 2113.5743,-125.9175 2118.0312,-94.3402 2063.7505,-71 1998.3971,-42.8986 904.2583,-22.2259 676.1978,-18.2105"/>
<polygon fill="#191970" stroke="#191970" points="676.0598,-14.7077 666,-18.032 675.9372,-21.7066 676.0598,-14.7077"/>
</g>
<!-- Node49&#45;&gt;Node15 -->
<g id="edge97" class="edge">
<title>Node49&#45;&gt;Node15</title>
<path fill="none" stroke="#191970" d="M2189.5438,-200.4434C2111.6648,-176.409 1921.7279,-117.7921 1841.9634,-93.1758"/>
<polygon fill="#191970" stroke="#191970" points="1842.9383,-89.8138 1832.3509,-90.2092 1840.8741,-96.5025 1842.9383,-89.8138"/>
</g>
<!-- Node49&#45;&gt;Node21 -->
<g id="edge92" class="edge">
<title>Node49&#45;&gt;Node21</title>
<path fill="none" stroke="#191970" d="M2165.2091,-208.6708C2021.453,-202.6473 1659.0925,-185.5123 1608.7505,-164 1587.334,-154.8483 1591.3406,-137.7342 1569.7505,-129 1470.6963,-88.9279 715.4819,-98.0882 608.7505,-93 555.5047,-90.4616 493.9106,-86.7539 455.6373,-84.3588"/>
<polygon fill="#191970" stroke="#191970" points="455.6871,-80.8551 445.487,-83.7202 455.2474,-87.8413 455.6871,-80.8551"/>
</g>
<!-- Node49&#45;&gt;Node28 -->
<g id="edge93" class="edge">
<title>Node49&#45;&gt;Node28</title>
<path fill="none" stroke="#191970" d="M2165.0951,-209.3646C2027.1897,-205.0988 1685.6587,-191.9701 1574.7505,-164 1571.5843,-163.2015 1568.3543,-162.1605 1565.1761,-160.984"/>
<polygon fill="#191970" stroke="#191970" points="1566.4908,-157.7402 1555.9121,-157.1548 1563.8167,-164.2094 1566.4908,-157.7402"/>
</g>
<!-- Node50 -->
<g id="node37" class="node">
<title>Node50</title>
<polygon fill="#ffffff" stroke="#bfbfbf" points="2298.2505,-129.5 2298.2505,-163.5 2411.2505,-163.5 2411.2505,-129.5 2298.2505,-129.5"/>
<text text-anchor="start" x="2306.2505" y="-149.9" font-family="Helvetica,sans-Serif" font-size="12.00" fill="#000000">boost/serialization</text>
<text text-anchor="middle" x="2354.7505" y="-136.9" font-family="Helvetica,sans-Serif" font-size="12.00" fill="#000000">/base_object.hpp</text>
</g>
<!-- Node49&#45;&gt;Node50 -->
<g id="edge99" class="edge">
<title>Node49&#45;&gt;Node50</title>
<path fill="none" stroke="#191970" d="M2245.0894,-200.4934C2262.8521,-191.7477 2288.7252,-179.0086 2310.8796,-168.1005"/>
<polygon fill="#191970" stroke="#191970" points="2312.6867,-171.1121 2320.1122,-163.5547 2309.5946,-164.832 2312.6867,-171.1121"/>
</g>
<!-- Node51 -->
<g id="node38" class="node">
<title>Node51</title>
<polygon fill="#ffffff" stroke="#bfbfbf" points="2429.7505,-129.5 2429.7505,-163.5 2539.7505,-163.5 2539.7505,-129.5 2429.7505,-129.5"/>
<text text-anchor="start" x="2437.7505" y="-149.9" font-family="Helvetica,sans-Serif" font-size="12.00" fill="#000000">boost/archive/text</text>
<text text-anchor="middle" x="2484.7505" y="-136.9" font-family="Helvetica,sans-Serif" font-size="12.00" fill="#000000">_oarchive.hpp</text>
</g>
<!-- Node49&#45;&gt;Node51 -->
<g id="edge100" class="edge">
<title>Node49&#45;&gt;Node51</title>
<path fill="none" stroke="#191970" d="M2270.0286,-200.4096C2307.8309,-191.6571 2362.8869,-178.6798 2419.7406,-164.2207"/>
<polygon fill="#191970" stroke="#191970" points="2420.7999,-167.5626 2429.6228,-161.6969 2419.0677,-160.7803 2420.7999,-167.5626"/>
</g>
<!-- Node52 -->
<g id="node39" class="node">
<title>Node52</title>
<polygon fill="#ffffff" stroke="#bfbfbf" points="2557.7505,-129.5 2557.7505,-163.5 2667.7505,-163.5 2667.7505,-129.5 2557.7505,-129.5"/>
<text text-anchor="start" x="2565.7505" y="-149.9" font-family="Helvetica,sans-Serif" font-size="12.00" fill="#000000">boost/archive/text</text>
<text text-anchor="middle" x="2612.7505" y="-136.9" font-family="Helvetica,sans-Serif" font-size="12.00" fill="#000000">_iarchive.hpp</text>
</g>
<!-- Node49&#45;&gt;Node52 -->
<g id="edge101" class="edge">
<title>Node49&#45;&gt;Node52</title>
<path fill="none" stroke="#191970" d="M2282.5469,-204.708C2345.8308,-197.4403 2449.5648,-184.098 2547.8937,-164.0427"/>
<polygon fill="#191970" stroke="#191970" points="2548.6123,-167.4683 2557.697,-162.0169 2547.1956,-160.6131 2548.6123,-167.4683"/>
</g>
<!-- Node53 -->
<g id="node40" class="node">
<title>Node53</title>
<polygon fill="#ffffff" stroke="#bfbfbf" points="2167.2505,-129.5 2167.2505,-163.5 2280.2505,-163.5 2280.2505,-129.5 2167.2505,-129.5"/>
<text text-anchor="start" x="2175.2505" y="-149.9" font-family="Helvetica,sans-Serif" font-size="12.00" fill="#000000">boost/serialization</text>
<text text-anchor="middle" x="2223.7505" y="-136.9" font-family="Helvetica,sans-Serif" font-size="12.00" fill="#000000">/export.hpp</text>
</g>
<!-- Node49&#45;&gt;Node53 -->
<g id="edge102" class="edge">
<title>Node49&#45;&gt;Node53</title>
<path fill="none" stroke="#191970" d="M2223.7505,-200.3491C2223.7505,-193.122 2223.7505,-183.2164 2223.7505,-173.8706"/>
<polygon fill="#191970" stroke="#191970" points="2227.2506,-173.7292 2223.7505,-163.7292 2220.2506,-173.7292 2227.2506,-173.7292"/>
</g>
<!-- Node54&#45;&gt;Node2 -->
<g id="edge104" class="edge">
<title>Node54&#45;&gt;Node2</title>
<path fill="none" stroke="#191970" d="M2455.4169,-342.3824C2598.9504,-334.3534 2900.4251,-315.4154 3002.7505,-293 3103.0569,-271.0269 3218.7505,-313.6849 3218.7505,-211 3218.7505,-211 3218.7505,-211 3218.7505,-146.5 3218.7505,-101.0421 3189.9558,-92.212 3149.7505,-71 3101.7453,-45.6729 2960.4455,-30.8549 2864.8751,-23.4658"/>
<polygon fill="#191970" stroke="#191970" points="2864.8531,-19.9542 2854.617,-22.6875 2864.3235,-26.9341 2864.8531,-19.9542"/>
</g>
<!-- Node54&#45;&gt;Node10 -->
<g id="edge130" class="edge">
<title>Node54&#45;&gt;Node10</title>
<path fill="none" stroke="#191970" d="M2455.3986,-341.787C2583.3615,-333.447 2827.7497,-314.8881 2860.7505,-293 2900.2148,-266.8249 2875.6212,-229.3936 2912.7505,-200 2958.4143,-163.8501 3003.6781,-210.4965 3038.7505,-164 3048.118,-151.5812 3048.8949,-140.7927 3038.7505,-129 3020.2055,-107.4419 2825.9262,-89.8485 2754.1805,-84.0413"/>
<polygon fill="#191970" stroke="#191970" points="2754.3869,-80.5468 2744.1404,-83.2412 2753.8308,-87.5246 2754.3869,-80.5468"/>
</g>
<!-- Node54&#45;&gt;Node11 -->
<g id="edge129" class="edge">
<title>Node54&#45;&gt;Node11</title>
<path fill="none" stroke="#191970" d="M2310.0203,-329.4205C2281.9273,-320.7629 2249.6772,-308.7049 2222.7505,-293 2147.9537,-249.3752 2132.9385,-229.8831 2076.7505,-164 2060.1082,-144.4862 2044.8809,-119.2047 2035.2647,-101.9032"/>
<polygon fill="#191970" stroke="#191970" points="2038.1351,-99.8553 2030.2829,-92.7423 2031.9856,-103.1995 2038.1351,-99.8553"/>
</g>
<!-- Node54&#45;&gt;Node13 -->
<g id="edge134" class="edge">
<title>Node54&#45;&gt;Node13</title>
<path fill="none" stroke="#191970" d="M2300.1884,-331.0844C2259.2868,-321.943 2208.6292,-309.005 2164.7505,-293 2005.2593,-234.8248 1826.4186,-136.2218 1759.2212,-97.8981"/>
<polygon fill="#191970" stroke="#191970" points="1760.5497,-94.6256 1750.1325,-92.6932 1757.0709,-100.7 1760.5497,-94.6256"/>
</g>
<!-- Node54&#45;&gt;Node14 -->
<g id="edge132" class="edge">
<title>Node54&#45;&gt;Node14</title>
<path fill="none" stroke="#191970" d="M2300.143,-344.4686C1959.9592,-335.5254 617.051,-299.8044 608.7505,-293 579.819,-269.2834 589.7505,-248.41 589.7505,-211 589.7505,-211 589.7505,-211 589.7505,-146.5 589.7505,-105.8482 609.9196,-61.8093 623.2522,-37.1388"/>
<polygon fill="#191970" stroke="#191970" points="626.4783,-38.5407 628.3031,-28.1041 620.3683,-35.1248 626.4783,-38.5407"/>
</g>
<!-- Node54&#45;&gt;Node21 -->
<g id="edge128" class="edge">
<title>Node54&#45;&gt;Node21</title>
<path fill="none" stroke="#191970" d="M2300.0861,-344.6483C1957.2186,-336.4177 595.158,-303.1134 575.7505,-293 494.7791,-250.8054 444.5105,-145.7856 426.3846,-101.8352"/>
<polygon fill="#191970" stroke="#191970" points="429.6147,-100.4863 422.6457,-92.5061 423.1171,-103.0905 429.6147,-100.4863"/>
</g>
<!-- Node54&#45;&gt;Node23 -->
<g id="edge131" class="edge">
<title>Node54&#45;&gt;Node23</title>
<path fill="none" stroke="#191970" d="M2299.9902,-344.6082C1951.0466,-336.0755 545.7414,-301.2319 524.7505,-293 383.4462,-237.5853 262.9895,-89.1401 223.4588,-36.408"/>
<polygon fill="#191970" stroke="#191970" points="226.1853,-34.2085 217.4222,-28.2536 220.5591,-38.3735 226.1853,-34.2085"/>
</g>
<!-- Node54&#45;&gt;Node49 -->
<g id="edge119" class="edge">
<title>Node54&#45;&gt;Node49</title>
<path fill="none" stroke="#191970" d="M2300.0959,-330.0145C2278.8642,-322.0465 2257.6328,-310.2939 2242.7505,-293 2228.1472,-276.0304 2224.2179,-250.004 2223.4169,-231.8385"/>
<polygon fill="#191970" stroke="#191970" points="2226.9143,-231.6378 2223.255,-221.695 2219.9152,-231.7496 2226.9143,-231.6378"/>
</g>
<!-- Node55 -->
<g id="node42" class="node">
<title>Node55</title>
<g id="a_node42"><a xlink:href="AllowedGridGrowth_8h.html" target="_top" xlink:title="Declares &amp; defines a class describing how the mass&#45;[Fe/H] interpolation grid is allowed to grow...">
<polygon fill="#ffffff" stroke="#000000" points="2921.2505,-200.5 2921.2505,-221.5 3052.2505,-221.5 3052.2505,-200.5 2921.2505,-200.5"/>
<text text-anchor="middle" x="2986.7505" y="-207.9" font-family="Helvetica,sans-Serif" font-size="12.00" fill="#000000">AllowedGridGrowth.h</text>
</a>
</g>
</g>
<!-- Node54&#45;&gt;Node55 -->
<g id="edge105" class="edge">
<title>Node54&#45;&gt;Node55</title>
<path fill="none" stroke="#191970" d="M2455.3815,-345.1047C2582.5754,-341.7532 2829.0066,-330.4844 2906.7505,-293 2935.981,-278.9065 2960.4483,-249.4687 2974.3504,-229.9708"/>
<polygon fill="#191970" stroke="#191970" points="2977.355,-231.7784 2980.1374,-221.5554 2971.5872,-227.812 2977.355,-231.7784"/>
</g>
<!-- Node56 -->
<g id="node43" class="node">
<title>Node56</title>
<g id="a_node43"><a xlink:href="RemoveLogDeriv_8h.html" target="_top" xlink:title="Declares a class to switch from logarithmic to linear derivative. ">
<polygon fill="#ffffff" stroke="#ff0000" points="3070.7505,-200.5 3070.7505,-221.5 3190.7505,-221.5 3190.7505,-200.5 3070.7505,-200.5"/>
<text text-anchor="middle" x="3130.7505" y="-207.9" font-family="Helvetica,sans-Serif" font-size="12.00" fill="#000000">RemoveLogDeriv.h</text>
</a>
</g>
</g>
<!-- Node54&#45;&gt;Node56 -->
<g id="edge107" class="edge">
<title>Node54&#45;&gt;Node56</title>
<path fill="none" stroke="#191970" d="M2455.4545,-342.1547C2587.921,-334.2419 2851.8577,-316.1416 2941.7505,-293 3001.6876,-277.5701 3066.9482,-245.5353 3102.9518,-226.3925"/>
<polygon fill="#191970" stroke="#191970" points="3104.7299,-229.4104 3111.8783,-221.5905 3101.4136,-223.2458 3104.7299,-229.4104"/>
</g>
<!-- Node58 -->
<g id="node44" class="node">
<title>Node58</title>
<g id="a_node44"><a xlink:href="SumDerivatives_8h.html" target="_top" xlink:title="Declares &amp; defines a class for the derivative of a quantity which is the sum of two other quantities...">
<polygon fill="#ffffff" stroke="#000000" points="2364.2505,-265 2364.2505,-286 2475.2505,-286 2475.2505,-265 2364.2505,-265"/>
<text text-anchor="middle" x="2419.7505" y="-272.4" font-family="Helvetica,sans-Serif" font-size="12.00" fill="#000000">SumDerivatives.h</text>
</a>
</g>
</g>
<!-- Node54&#45;&gt;Node58 -->
<g id="edge109" class="edge">
<title>Node54&#45;&gt;Node58</title>
<path fill="none" stroke="#191970" d="M2387.9175,-329.3129C2394.0764,-318.9015 2401.9471,-305.5961 2408.3213,-294.8207"/>
<polygon fill="#191970" stroke="#191970" points="2411.3779,-296.5279 2413.457,-286.139 2405.3531,-292.9639 2411.3779,-296.5279"/>
</g>
<!-- Node59 -->
<g id="node45" class="node">
<title>Node59</title>
<g id="a_node45"><a xlink:href="InterpolatedDerivatives_8h_source.html" target="_top" xlink:title="InterpolatedDerivatives.h">
<polygon fill="#ffffff" stroke="#ff0000" points="2678.2505,-265 2678.2505,-286 2827.2505,-286 2827.2505,-265 2678.2505,-265"/>
<text text-anchor="middle" x="2752.7505" y="-272.4" font-family="Helvetica,sans-Serif" font-size="12.00" fill="#000000">InterpolatedDerivatives.h</text>
</a>
</g>
</g>
<!-- Node54&#45;&gt;Node59 -->
<g id="edge112" class="edge">
<title>Node54&#45;&gt;Node59</title>
<path fill="none" stroke="#191970" d="M2455.3207,-332.8668C2514.2243,-322.3739 2597.1876,-307.2945 2669.7505,-293 2677.4716,-291.479 2685.5858,-289.8304 2693.5925,-288.1739"/>
<polygon fill="#191970" stroke="#191970" points="2694.5637,-291.5468 2703.6393,-286.0803 2693.1356,-284.694 2694.5637,-291.5468"/>
</g>
<!-- Node60 -->
<g id="node46" class="node">
<title>Node60</title>
<g id="a_node46"><a xlink:href="mass__feh__interp_8h.html" target="_top" xlink:title="Define a single function performing mass&#45;[Fe/H] interpolations. ">
<polygon fill="#ffffff" stroke="#ff0000" points="2914.2505,-136 2914.2505,-157 3029.2505,-157 3029.2505,-136 2914.2505,-136"/>
<text text-anchor="middle" x="2971.7505" y="-143.4" font-family="Helvetica,sans-Serif" font-size="12.00" fill="#000000">mass_feh_interp.h</text>
</a>
</g>
</g>
<!-- Node54&#45;&gt;Node60 -->
<g id="edge118" class="edge">
<title>Node54&#45;&gt;Node60</title>
<path fill="none" stroke="#191970" d="M2455.679,-341.5923C2578.5928,-333.2343 2806.676,-314.9885 2836.7505,-293 2873.3616,-266.2323 2848.2877,-233.5992 2878.7505,-200 2894.0558,-183.1188 2915.9701,-170.1546 2934.682,-161.2186"/>
<polygon fill="#191970" stroke="#191970" points="2936.2018,-164.3724 2943.8446,-157.0349 2933.2942,-158.0047 2936.2018,-164.3724"/>
</g>
<!-- Node62 -->
<g id="node47" class="node">
<title>Node62</title>
<g id="a_node47"><a xlink:href="InterpSolutionIterator_8h_source.html" target="_top" xlink:title="../Core/InterpSolutionIterator.h">
<polygon fill="#ffffff" stroke="#ff0000" points="2488.7505,-200.5 2488.7505,-221.5 2664.7505,-221.5 2664.7505,-200.5 2488.7505,-200.5"/>
<text text-anchor="middle" x="2576.7505" y="-207.9" font-family="Helvetica,sans-Serif" font-size="12.00" fill="#000000">../Core/InterpSolutionIterator.h</text>
</a>
</g>
</g>
<!-- Node54&#45;&gt;Node62 -->
<g id="edge120" class="edge">
<title>Node54&#45;&gt;Node62</title>
<path fill="none" stroke="#191970" d="M2365.5894,-329.2986C2353.544,-309.949 2339.1125,-278.5485 2355.7505,-258 2371.5734,-238.4582 2426.9738,-226.7018 2478.3431,-219.8342"/>
<polygon fill="#191970" stroke="#191970" points="2479.0768,-223.2688 2488.5502,-218.5249 2478.1862,-216.3257 2479.0768,-223.2688"/>
</g>
<!-- Node64 -->
<g id="node48" class="node">
<title>Node64</title>
<g id="a_node48"><a xlink:href="InterpolatingFunctionALGLIB_8h_source.html" target="_top" xlink:title="../Core/InterpolatingFunction\lALGLIB.h">
<polygon fill="#ffffff" stroke="#ff0000" points="2493.2505,-258.5 2493.2505,-292.5 2660.2505,-292.5 2660.2505,-258.5 2493.2505,-258.5"/>
<text text-anchor="start" x="2501.2505" y="-278.9" font-family="Helvetica,sans-Serif" font-size="12.00" fill="#000000">../Core/InterpolatingFunction</text>
<text text-anchor="middle" x="2576.7505" y="-265.9" font-family="Helvetica,sans-Serif" font-size="12.00" fill="#000000">ALGLIB.h</text>
</a>
</g>
</g>
<!-- Node54&#45;&gt;Node64 -->
<g id="edge124" class="edge">
<title>Node54&#45;&gt;Node64</title>
<path fill="none" stroke="#191970" d="M2425.4159,-329.4937C2453.6376,-319.4247 2489.578,-306.6017 2519.3517,-295.9789"/>
<polygon fill="#191970" stroke="#191970" points="2520.5419,-299.2705 2528.7842,-292.6136 2518.1896,-292.6775 2520.5419,-299.2705"/>
</g>
<!-- Node31 -->
<g id="node49" class="node">
<title>Node31</title>
<polygon fill="#ffffff" stroke="#bfbfbf" points="2251.7505,-265 2251.7505,-286 2307.7505,-286 2307.7505,-265 2251.7505,-265"/>
<text text-anchor="middle" x="2279.7505" y="-272.4" font-family="Helvetica,sans-Serif" font-size="12.00" fill="#000000">fstream</text>
</g>
<!-- Node54&#45;&gt;Node31 -->
<g id="edge133" class="edge">
<title>Node54&#45;&gt;Node31</title>
<path fill="none" stroke="#191970" d="M2354.0274,-329.3129C2338.4954,-318.0601 2318.2975,-303.4269 2302.8853,-292.2609"/>
<polygon fill="#191970" stroke="#191970" points="2304.5868,-289.1717 2294.4353,-286.139 2300.4799,-294.8404 2304.5868,-289.1717"/>
</g>
<!-- Node55&#45;&gt;Node2 -->
<g id="edge106" class="edge">
<title>Node55&#45;&gt;Node2</title>
<path fill="none" stroke="#191970" d="M3028.5109,-200.4932C3060.2789,-191.5569 3100.1259,-177.981 3109.7505,-164 3133.1879,-129.954 3136.5959,-102.4288 3109.7505,-71 3093.9044,-52.4485 2959.2305,-35.6771 2864.7468,-26.0395"/>
<polygon fill="#191970" stroke="#191970" points="2864.8872,-22.536 2854.5864,-25.0147 2864.1847,-29.5007 2864.8872,-22.536"/>
</g>
<!-- Node56&#45;&gt;Node2 -->
<g id="edge108" class="edge">
<title>Node56&#45;&gt;Node2</title>
<path fill="none" stroke="#191970" d="M3134.8634,-200.217C3143.9803,-174.2771 3162.5982,-107.8186 3129.7505,-71 3112.2572,-51.392 2964.8072,-34.5686 2864.6803,-25.2611"/>
<polygon fill="#191970" stroke="#191970" points="2864.8173,-21.759 2854.5389,-24.3289 2864.1765,-28.7296 2864.8173,-21.759"/>
</g>
<!-- Node58&#45;&gt;Node2 -->
<g id="edge110" class="edge">
<title>Node58&#45;&gt;Node2</title>
<path fill="none" stroke="#191970" d="M2457.0961,-264.9329C2466.1174,-262.5224 2475.7521,-260.0653 2484.7505,-258 2568.0937,-238.8714 2592.7422,-249.3799 2673.7505,-222 2694.4632,-214.9993 2697.8228,-208.9952 2717.7505,-200 2756.6409,-182.4451 2782.1558,-198.8675 2806.7505,-164 2830.5877,-130.2064 2822.3187,-110.3988 2809.7505,-71 2806.5305,-60.9059 2800.635,-51.0853 2794.4329,-42.6715"/>
<polygon fill="#191970" stroke="#191970" points="2797.15,-40.4645 2788.2164,-34.7687 2791.6482,-44.7924 2797.15,-40.4645"/>
</g>
<!-- Node58&#45;&gt;Node49 -->
<g id="edge111" class="edge">
<title>Node58&#45;&gt;Node49</title>
<path fill="none" stroke="#191970" d="M2387.8235,-264.9934C2354.5082,-254.03 2302.1241,-236.7913 2265.5358,-224.7508"/>
<polygon fill="#191970" stroke="#191970" points="2266.2568,-221.3035 2255.6638,-221.5021 2264.0686,-227.9527 2266.2568,-221.3035"/>
</g>
<!-- Node59&#45;&gt;Node2 -->
<g id="edge113" class="edge">
<title>Node59&#45;&gt;Node2</title>
<path fill="none" stroke="#191970" d="M2772.5031,-264.8938C2802.2763,-249.2049 2860.7121,-219.5635 2912.7505,-200 2967.2662,-179.5052 3003.6781,-210.4965 3038.7505,-164 3092.1589,-93.1949 2960.9469,-52.2806 2864.123,-32.485"/>
<polygon fill="#191970" stroke="#191970" points="2864.7694,-29.0451 2854.2777,-30.5199 2863.3991,-35.9097 2864.7694,-29.0451"/>
</g>
<!-- Node59&#45;&gt;Node49 -->
<g id="edge117" class="edge">
<title>Node59&#45;&gt;Node49</title>
<path fill="none" stroke="#191970" d="M2706.809,-264.9342C2694.7938,-262.4127 2681.8243,-259.9039 2669.7505,-258 2536.9566,-237.0605 2380.4049,-222.9864 2292.5518,-216.0423"/>
<polygon fill="#191970" stroke="#191970" points="2292.688,-212.5423 2282.4453,-215.251 2292.1416,-219.521 2292.688,-212.5423"/>
</g>
<!-- Node59&#45;&gt;Node60 -->
<g id="edge114" class="edge">
<title>Node59&#45;&gt;Node60</title>
<path fill="none" stroke="#191970" d="M2757.0257,-264.8098C2764.1008,-248.4611 2779.7814,-217.3246 2802.7505,-200 2821.0045,-186.2318 2875.0027,-170.4227 2917.1021,-159.5803"/>
<polygon fill="#191970" stroke="#191970" points="2918.1433,-162.927 2926.9733,-157.072 2916.4194,-156.1426 2918.1433,-162.927"/>
</g>
<!-- Node60&#45;&gt;Node2 -->
<g id="edge115" class="edge">
<title>Node60&#45;&gt;Node2</title>
<path fill="none" stroke="#191970" d="M2963.9884,-135.9044C2951.8435,-119.9604 2926.9105,-89.6815 2899.7505,-71 2880.3036,-57.6238 2856.9883,-46.6487 2835.6161,-38.1965"/>
<polygon fill="#191970" stroke="#191970" points="2836.8646,-34.9268 2826.2745,-34.6104 2834.3559,-41.4618 2836.8646,-34.9268"/>
</g>
<!-- Node60&#45;&gt;Node8 -->
<g id="edge116" class="edge">
<title>Node60&#45;&gt;Node8</title>
<path fill="none" stroke="#191970" d="M2914.1206,-142.5454C2854.6774,-138.5923 2759.2736,-132.5983 2676.7505,-129 2393.462,-116.6476 1685.8915,-138.8103 1388.4577,-92.8714"/>
<polygon fill="#191970" stroke="#191970" points="1388.9095,-89.3993 1378.4828,-91.2795 1387.8063,-96.3118 1388.9095,-89.3993"/>
</g>
<!-- Node62&#45;&gt;Node2 -->
<g id="edge121" class="edge">
<title>Node62&#45;&gt;Node2</title>
<path fill="none" stroke="#191970" d="M2664.9948,-202.1712C2714.9103,-195.1532 2770.3575,-183.2389 2785.7505,-164 2813.0904,-129.829 2797.5787,-75.8025 2784.3179,-43.7865"/>
<polygon fill="#191970" stroke="#191970" points="2787.5222,-42.3783 2780.3247,-34.6035 2781.1028,-45.1698 2787.5222,-42.3783"/>
</g>
<!-- Node62&#45;&gt;Node9 -->
<g id="edge122" class="edge">
<title>Node62&#45;&gt;Node9</title>
<path fill="none" stroke="#191970" d="M2488.5229,-204.698C2308.2001,-191.8178 1900.9313,-162.7272 1740.5005,-151.2679"/>
<polygon fill="#191970" stroke="#191970" points="1740.5192,-147.7604 1730.2952,-150.5389 1740.0204,-154.7426 1740.5192,-147.7604"/>
</g>
<!-- Node62&#45;&gt;Node11 -->
<g id="edge123" class="edge">
<title>Node62&#45;&gt;Node11</title>
<path fill="none" stroke="#191970" d="M2624.8838,-200.426C2644.4699,-193.5015 2665.1826,-182.2187 2676.7505,-164 2685.0886,-150.8679 2687.3471,-140.388 2676.7505,-129 2655.8182,-106.5045 2203.5283,-88.4286 2064.8279,-83.3982"/>
<polygon fill="#191970" stroke="#191970" points="2064.7586,-79.8935 2054.6393,-83.0318 2064.507,-86.889 2064.7586,-79.8935"/>
</g>
<!-- Node64&#45;&gt;Node2 -->
<g id="edge125" class="edge">
<title>Node64&#45;&gt;Node2</title>
<path fill="none" stroke="#191970" d="M2622.1653,-258.4839C2701.7083,-228.5786 2858.1993,-169.2452 2861.7505,-164 2884.9231,-129.7732 2882.189,-106.9265 2861.7505,-71 2854.2284,-57.7778 2842.0064,-47.4831 2828.9611,-39.6148"/>
<polygon fill="#191970" stroke="#191970" points="2830.2869,-36.3475 2819.8458,-34.549 2826.8865,-42.4661 2830.2869,-36.3475"/>
</g>
<!-- Node64&#45;&gt;Node49 -->
<g id="edge126" class="edge">
<title>Node64&#45;&gt;Node49</title>
<path fill="none" stroke="#191970" d="M2493.0201,-259.537C2490.2308,-259.0167 2487.4682,-258.5032 2484.7505,-258 2419.4656,-245.913 2344.9127,-232.5296 2292.249,-223.1458"/>
<polygon fill="#191970" stroke="#191970" points="2292.8065,-219.6901 2282.3477,-221.3827 2291.5793,-226.5817 2292.8065,-219.6901"/>
</g>
<!-- Node64&#45;&gt;Node62 -->
<g id="edge127" class="edge">
<title>Node64&#45;&gt;Node62</title>
<path fill="none" stroke="#191970" d="M2576.7505,-258.2152C2576.7505,-250.12 2576.7505,-240.4084 2576.7505,-231.9034"/>
<polygon fill="#191970" stroke="#191970" points="2580.2506,-231.6553 2576.7505,-221.6554 2573.2506,-231.6554 2580.2506,-231.6553"/>
</g>
</g>
</svg>
