<?xml version="1.0" encoding="UTF-8" standalone="no"?>
<!DOCTYPE svg PUBLIC "-//W3C//DTD SVG 1.1//EN"
 "http://www.w3.org/Graphics/SVG/1.1/DTD/svg11.dtd">
<!-- Generated by graphviz version 2.40.1 (20161225.0304)
 -->
<!-- Title: /Users/kpenev/projects/git/poet/poet_src/Star/EvolvingStellarEnvelope.h Pages: 1 -->
<svg width="1169pt" height="401pt"
 viewBox="0.00 0.00 1169.42 401.00" xmlns="http://www.w3.org/2000/svg" xmlns:xlink="http://www.w3.org/1999/xlink">
<g id="graph0" class="graph" transform="scale(1 1) rotate(0) translate(4 397)">
<title>/Users/kpenev/projects/git/poet/poet_src/Star/EvolvingStellarEnvelope.h</title>
<polygon fill="#ffffff" stroke="transparent" points="-4,4 -4,-397 1165.418,-397 1165.418,4 -4,4"/>
<!-- Node65 -->
<g id="node1" class="node">
<title>Node65</title>
<polygon fill="#bfbfbf" stroke="#000000" points="607.3281,-348.5 607.3281,-392.5 766.0801,-392.5 766.0801,-348.5 607.3281,-348.5"/>
<text text-anchor="start" x="615.3281" y="-378.9" font-family="Helvetica,sans-Serif" font-size="12.00" fill="#000000">/Users/kpenev/projects</text>
<text text-anchor="start" x="615.3281" y="-366.9" font-family="Helvetica,sans-Serif" font-size="12.00" fill="#000000">/git/poet/poet_src/Star</text>
<text text-anchor="middle" x="686.7041" y="-354.9" font-family="Helvetica,sans-Serif" font-size="12.00" fill="#000000">/EvolvingStellarEnvelope.h</text>
</g>
<!-- Node66 -->
<g id="node2" class="node">
<title>Node66</title>
<g id="a_node2"><a xlink:href="EvolvingStar_8h.html" target="_top" xlink:title="Declares the class for stars that user pre&#45;tabulated stellar evolution tracks. ">
<polygon fill="#ffffff" stroke="#000000" points="617.6787,-267.5 617.6787,-311.5 755.7295,-311.5 755.7295,-267.5 617.6787,-267.5"/>
<text text-anchor="start" x="625.6787" y="-297.9" font-family="Helvetica,sans-Serif" font-size="12.00" fill="#000000">/Users/kpenev/projects</text>
<text text-anchor="start" x="625.6787" y="-285.9" font-family="Helvetica,sans-Serif" font-size="12.00" fill="#000000">/git/poet/poet_src/Star</text>
<text text-anchor="middle" x="686.7041" y="-273.9" font-family="Helvetica,sans-Serif" font-size="12.00" fill="#000000">/EvolvingStar.h</text>
</a>
</g>
</g>
<!-- Node65&#45;&gt;Node66 -->
<g id="edge1" class="edge">
<title>Node65&#45;&gt;Node66</title>
<path fill="none" stroke="#191970" d="M686.7041,-338.2457C686.7041,-329.3118 686.7041,-319.8188 686.7041,-311.6068"/>
<polygon fill="#191970" stroke="#191970" points="683.2042,-338.3664 686.7041,-348.3664 690.2042,-338.3664 683.2042,-338.3664"/>
</g>
<!-- Node67 -->
<g id="node3" class="node">
<title>Node67</title>
<g id="a_node3"><a xlink:href="Star_2CInterface_8h.html" target="_top" xlink:title="Declare C&#45;style functions for accessing the functionality of the Star library. ">
<polygon fill="#ffffff" stroke="#000000" points="313.6787,-186.5 313.6787,-230.5 451.7295,-230.5 451.7295,-186.5 313.6787,-186.5"/>
<text text-anchor="start" x="321.6787" y="-216.9" font-family="Helvetica,sans-Serif" font-size="12.00" fill="#000000">/Users/kpenev/projects</text>
<text text-anchor="start" x="321.6787" y="-204.9" font-family="Helvetica,sans-Serif" font-size="12.00" fill="#000000">/git/poet/poet_src/Star</text>
<text text-anchor="middle" x="382.7041" y="-192.9" font-family="Helvetica,sans-Serif" font-size="12.00" fill="#000000">/CInterface.h</text>
</a>
</g>
</g>
<!-- Node66&#45;&gt;Node67 -->
<g id="edge2" class="edge">
<title>Node66&#45;&gt;Node67</title>
<path fill="none" stroke="#191970" d="M607.5511,-268.4099C559.2525,-255.5409 498.1018,-239.2474 451.7688,-226.9021"/>
<polygon fill="#191970" stroke="#191970" points="606.7774,-271.8258 617.3414,-271.0185 608.5797,-265.0618 606.7774,-271.8258"/>
</g>
<!-- Node72 -->
<g id="node8" class="node">
<title>Node72</title>
<g id="a_node8"><a xlink:href="MakeStar_8h.html" target="_top" xlink:title="Declares functions for creating stars used by unit tests. ">
<polygon fill="#ffffff" stroke="#000000" points="610.665,-186.5 610.665,-230.5 762.7432,-230.5 762.7432,-186.5 610.665,-186.5"/>
<text text-anchor="start" x="618.665" y="-216.9" font-family="Helvetica,sans-Serif" font-size="12.00" fill="#000000">/Users/kpenev/projects</text>
<text text-anchor="start" x="618.665" y="-204.9" font-family="Helvetica,sans-Serif" font-size="12.00" fill="#000000">/git/poet/poet_src/unit</text>
<text text-anchor="middle" x="686.7041" y="-192.9" font-family="Helvetica,sans-Serif" font-size="12.00" fill="#000000">_tests/shared/MakeStar.h</text>
</a>
</g>
</g>
<!-- Node66&#45;&gt;Node72 -->
<g id="edge8" class="edge">
<title>Node66&#45;&gt;Node72</title>
<path fill="none" stroke="#191970" d="M686.7041,-257.2457C686.7041,-248.3118 686.7041,-238.8188 686.7041,-230.6068"/>
<polygon fill="#191970" stroke="#191970" points="683.2042,-257.3664 686.7041,-267.3664 690.2042,-257.3664 683.2042,-257.3664"/>
</g>
<!-- Node77 -->
<g id="node13" class="node">
<title>Node77</title>
<g id="a_node13"><a xlink:href="testOrbitSolver_8h.html" target="_top" xlink:title="Declares the test suite that exercises the OrbitSolver class and some other clasess necessary to acco...">
<polygon fill="#ffffff" stroke="#000000" points="798.3271,-99.5 798.3271,-143.5 997.0811,-143.5 997.0811,-99.5 798.3271,-99.5"/>
<text text-anchor="start" x="806.3271" y="-129.9" font-family="Helvetica,sans-Serif" font-size="12.00" fill="#000000">/Users/kpenev/projects</text>
<text text-anchor="start" x="806.3271" y="-117.9" font-family="Helvetica,sans-Serif" font-size="12.00" fill="#000000">/git/poet/poet_src/unit</text>
<text text-anchor="middle" x="897.7041" y="-105.9" font-family="Helvetica,sans-Serif" font-size="12.00" fill="#000000">_tests/testEvolve/testOrbitSolver.h</text>
</a>
</g>
</g>
<!-- Node66&#45;&gt;Node77 -->
<g id="edge16" class="edge">
<title>Node66&#45;&gt;Node77</title>
<path fill="none" stroke="#191970" d="M729.21,-261.6255C743.0017,-252.2185 758.2173,-241.4481 771.7041,-231 808.5902,-202.4246 848.9164,-166.4819 873.7664,-143.7409"/>
<polygon fill="#191970" stroke="#191970" points="727.1564,-258.7891 720.8349,-267.2914 731.0788,-264.5869 727.1564,-258.7891"/>
</g>
<!-- Node68 -->
<g id="node4" class="node">
<title>Node68</title>
<g id="a_node4"><a xlink:href="Evolve_2CInterface_8h.html" target="_top" xlink:title="Declare C&#45;style functions for accessing the functionality of the Evolve library. ">
<polygon fill="#ffffff" stroke="#000000" points="193,-99.5 193,-143.5 340.4082,-143.5 340.4082,-99.5 193,-99.5"/>
<text text-anchor="start" x="201" y="-129.9" font-family="Helvetica,sans-Serif" font-size="12.00" fill="#000000">/Users/kpenev/projects</text>
<text text-anchor="start" x="201" y="-117.9" font-family="Helvetica,sans-Serif" font-size="12.00" fill="#000000">/git/poet/poet_src/Evolve</text>
<text text-anchor="middle" x="266.7041" y="-105.9" font-family="Helvetica,sans-Serif" font-size="12.00" fill="#000000">/CInterface.h</text>
</a>
</g>
</g>
<!-- Node67&#45;&gt;Node68 -->
<g id="edge3" class="edge">
<title>Node67&#45;&gt;Node68</title>
<path fill="none" stroke="#191970" d="M345.0888,-180.2885C329.2449,-168.4056 311.0758,-154.7788 296.2219,-143.6384"/>
<polygon fill="#191970" stroke="#191970" points="343.0322,-183.1211 353.1323,-186.3211 347.2323,-177.5211 343.0322,-183.1211"/>
</g>
<!-- Node71 -->
<g id="node7" class="node">
<title>Node71</title>
<g id="a_node7"><a xlink:href="Star_2CInterface_8cpp.html" target="_top" xlink:title="The definitions of the functions declared in CInterface.h. ">
<polygon fill="#ffffff" stroke="#000000" points="328.6787,-6.5 328.6787,-50.5 466.7295,-50.5 466.7295,-6.5 328.6787,-6.5"/>
<text text-anchor="start" x="336.6787" y="-36.9" font-family="Helvetica,sans-Serif" font-size="12.00" fill="#000000">/Users/kpenev/projects</text>
<text text-anchor="start" x="336.6787" y="-24.9" font-family="Helvetica,sans-Serif" font-size="12.00" fill="#000000">/git/poet/poet_src/Star</text>
<text text-anchor="middle" x="397.7041" y="-12.9" font-family="Helvetica,sans-Serif" font-size="12.00" fill="#000000">/CInterface.cpp</text>
</a>
</g>
</g>
<!-- Node67&#45;&gt;Node71 -->
<g id="edge7" class="edge">
<title>Node67&#45;&gt;Node71</title>
<path fill="none" stroke="#191970" d="M385.3799,-176.3901C388.3962,-140.1943 393.2211,-82.296 395.8498,-50.7521"/>
<polygon fill="#191970" stroke="#191970" points="381.886,-176.1723 384.5434,-186.4285 388.8619,-176.7537 381.886,-176.1723"/>
</g>
<!-- Node69 -->
<g id="node5" class="node">
<title>Node69</title>
<g id="a_node5"><a xlink:href="Evolve_2CInterface_8cpp.html" target="_top" xlink:title="The definitions of the functions declared in CInterface.h. ">
<polygon fill="#ffffff" stroke="#000000" points="0,-6.5 0,-50.5 147.4082,-50.5 147.4082,-6.5 0,-6.5"/>
<text text-anchor="start" x="8" y="-36.9" font-family="Helvetica,sans-Serif" font-size="12.00" fill="#000000">/Users/kpenev/projects</text>
<text text-anchor="start" x="8" y="-24.9" font-family="Helvetica,sans-Serif" font-size="12.00" fill="#000000">/git/poet/poet_src/Evolve</text>
<text text-anchor="middle" x="73.7041" y="-12.9" font-family="Helvetica,sans-Serif" font-size="12.00" fill="#000000">/CInterface.cpp</text>
</a>
</g>
</g>
<!-- Node68&#45;&gt;Node69 -->
<g id="edge4" class="edge">
<title>Node68&#45;&gt;Node69</title>
<path fill="none" stroke="#191970" d="M211.7295,-95.0097C182.5495,-80.9488 147.1099,-63.8717 119.4481,-50.5425"/>
<polygon fill="#191970" stroke="#191970" points="210.4378,-98.2723 220.9658,-99.4603 213.4765,-91.9662 210.4378,-98.2723"/>
</g>
<!-- Node70 -->
<g id="node6" class="node">
<title>Node70</title>
<g id="a_node6"><a xlink:href="Planet_2CInterface_8cpp.html" target="_top" xlink:title="The definitions of the functions declared in CInterface.h. ">
<polygon fill="#ffffff" stroke="#000000" points="164.9961,-6.5 164.9961,-50.5 310.4121,-50.5 310.4121,-6.5 164.9961,-6.5"/>
<text text-anchor="start" x="172.9961" y="-36.9" font-family="Helvetica,sans-Serif" font-size="12.00" fill="#000000">/Users/kpenev/projects</text>
<text text-anchor="start" x="172.9961" y="-24.9" font-family="Helvetica,sans-Serif" font-size="12.00" fill="#000000">/git/poet/poet_src/Planet</text>
<text text-anchor="middle" x="237.7041" y="-12.9" font-family="Helvetica,sans-Serif" font-size="12.00" fill="#000000">/CInterface.cpp</text>
</a>
</g>
</g>
<!-- Node68&#45;&gt;Node70 -->
<g id="edge5" class="edge">
<title>Node68&#45;&gt;Node70</title>
<path fill="none" stroke="#191970" d="M256.7637,-89.6223C252.7678,-76.8076 248.2575,-62.3435 244.6279,-50.7038"/>
<polygon fill="#191970" stroke="#191970" points="253.5132,-90.9556 259.8315,-99.4603 260.1959,-88.8717 253.5132,-90.9556"/>
</g>
<!-- Node68&#45;&gt;Node71 -->
<g id="edge6" class="edge">
<title>Node68&#45;&gt;Node71</title>
<path fill="none" stroke="#191970" d="M306.0598,-93.5604C325.3786,-79.8456 348.3275,-63.5536 366.4278,-50.7038"/>
<polygon fill="#191970" stroke="#191970" points="303.8773,-90.8175 297.7493,-99.4603 307.9295,-96.5254 303.8773,-90.8175"/>
</g>
<!-- Node73 -->
<g id="node9" class="node">
<title>Node73</title>
<g id="a_node9"><a xlink:href="MakeStar_8cpp.html" target="_top" xlink:title="Implement the functions defined in MakeStar.h. ">
<polygon fill="#ffffff" stroke="#000000" points="410.3281,-99.5 410.3281,-143.5 575.0801,-143.5 575.0801,-99.5 410.3281,-99.5"/>
<text text-anchor="start" x="418.3281" y="-129.9" font-family="Helvetica,sans-Serif" font-size="12.00" fill="#000000">/Users/kpenev/projects</text>
<text text-anchor="start" x="418.3281" y="-117.9" font-family="Helvetica,sans-Serif" font-size="12.00" fill="#000000">/git/poet/poet_src/unit</text>
<text text-anchor="middle" x="492.7041" y="-105.9" font-family="Helvetica,sans-Serif" font-size="12.00" fill="#000000">_tests/shared/MakeStar.cpp</text>
</a>
</g>
</g>
<!-- Node72&#45;&gt;Node73 -->
<g id="edge9" class="edge">
<title>Node72&#45;&gt;Node73</title>
<path fill="none" stroke="#191970" d="M628.3483,-182.3301C600.7538,-169.9553 568.1714,-155.3436 541.8568,-143.5427"/>
<polygon fill="#191970" stroke="#191970" points="626.9422,-185.5354 637.4989,-186.4338 629.8066,-179.1482 626.9422,-185.5354"/>
</g>
<!-- Node74 -->
<g id="node10" class="node">
<title>Node74</title>
<g id="a_node10"><a xlink:href="testDifferentialEquations_8h.html" target="_top" xlink:title="Unit tests that check the differential equations for eccentricity and semimajor against analytic expr...">
<polygon fill="#ffffff" stroke="#000000" points="593.4385,-93.5 593.4385,-149.5 779.9697,-149.5 779.9697,-93.5 593.4385,-93.5"/>
<text text-anchor="start" x="601.4385" y="-135.9" font-family="Helvetica,sans-Serif" font-size="12.00" fill="#000000">/Users/kpenev/projects</text>
<text text-anchor="start" x="601.4385" y="-123.9" font-family="Helvetica,sans-Serif" font-size="12.00" fill="#000000">/git/poet/poet_src/unit</text>
<text text-anchor="start" x="601.4385" y="-111.9" font-family="Helvetica,sans-Serif" font-size="12.00" fill="#000000">_tests/testEvolve/testDifferential</text>
<text text-anchor="middle" x="686.7041" y="-99.9" font-family="Helvetica,sans-Serif" font-size="12.00" fill="#000000">Equations.h</text>
</a>
</g>
</g>
<!-- Node72&#45;&gt;Node74 -->
<g id="edge10" class="edge">
<title>Node72&#45;&gt;Node74</title>
<path fill="none" stroke="#191970" d="M686.7041,-175.986C686.7041,-167.3663 686.7041,-158.1307 686.7041,-149.7577"/>
<polygon fill="#191970" stroke="#191970" points="683.2042,-176.0953 686.7041,-186.0953 690.2042,-176.0954 683.2042,-176.0953"/>
</g>
<!-- Node72&#45;&gt;Node77 -->
<g id="edge13" class="edge">
<title>Node72&#45;&gt;Node77</title>
<path fill="none" stroke="#191970" d="M749.7824,-182.4914C779.8778,-170.0824 815.4992,-155.3949 844.2442,-143.5427"/>
<polygon fill="#191970" stroke="#191970" points="748.1319,-179.3861 740.2211,-186.4338 750.8002,-185.8575 748.1319,-179.3861"/>
</g>
<!-- Node75 -->
<g id="node11" class="node">
<title>Node75</title>
<g id="a_node11"><a xlink:href="testDifferentialEquations_8cpp.html" target="_top" xlink:title="Implement the non&#45;inline methods of test_DifferentialEquations. ">
<polygon fill="#ffffff" stroke="#000000" points="539.4385,-.5 539.4385,-56.5 725.9697,-56.5 725.9697,-.5 539.4385,-.5"/>
<text text-anchor="start" x="547.4385" y="-42.9" font-family="Helvetica,sans-Serif" font-size="12.00" fill="#000000">/Users/kpenev/projects</text>
<text text-anchor="start" x="547.4385" y="-30.9" font-family="Helvetica,sans-Serif" font-size="12.00" fill="#000000">/git/poet/poet_src/unit</text>
<text text-anchor="start" x="547.4385" y="-18.9" font-family="Helvetica,sans-Serif" font-size="12.00" fill="#000000">_tests/testEvolve/testDifferential</text>
<text text-anchor="middle" x="632.7041" y="-6.9" font-family="Helvetica,sans-Serif" font-size="12.00" fill="#000000">Equations.cpp</text>
</a>
</g>
</g>
<!-- Node74&#45;&gt;Node75 -->
<g id="edge11" class="edge">
<title>Node74&#45;&gt;Node75</title>
<path fill="none" stroke="#191970" d="M665.2822,-84.6067C659.8585,-75.2658 654.1207,-65.3841 648.9969,-56.5597"/>
<polygon fill="#191970" stroke="#191970" points="662.3076,-86.4541 670.3558,-93.3446 668.3611,-82.9392 662.3076,-86.4541"/>
</g>
<!-- Node76 -->
<g id="node12" class="node">
<title>Node76</title>
<g id="a_node12"><a xlink:href="testEvolve_8cpp_source.html" target="_top" xlink:title="/Users/kpenev/projects\l/git/poet/poet_src/unit\l_tests/testEvolve/testEvolve.cpp">
<polygon fill="#ffffff" stroke="#000000" points="743.6621,-6.5 743.6621,-50.5 931.7461,-50.5 931.7461,-6.5 743.6621,-6.5"/>
<text text-anchor="start" x="751.6621" y="-36.9" font-family="Helvetica,sans-Serif" font-size="12.00" fill="#000000">/Users/kpenev/projects</text>
<text text-anchor="start" x="751.6621" y="-24.9" font-family="Helvetica,sans-Serif" font-size="12.00" fill="#000000">/git/poet/poet_src/unit</text>
<text text-anchor="middle" x="837.7041" y="-12.9" font-family="Helvetica,sans-Serif" font-size="12.00" fill="#000000">_tests/testEvolve/testEvolve.cpp</text>
</a>
</g>
</g>
<!-- Node74&#45;&gt;Node76 -->
<g id="edge12" class="edge">
<title>Node74&#45;&gt;Node76</title>
<path fill="none" stroke="#191970" d="M741.1961,-87.9387C761.3341,-75.5358 783.6386,-61.7986 801.7277,-50.6577"/>
<polygon fill="#191970" stroke="#191970" points="739.0981,-85.1203 732.4189,-93.3446 742.769,-91.0805 739.0981,-85.1203"/>
</g>
<!-- Node77&#45;&gt;Node76 -->
<g id="edge14" class="edge">
<title>Node77&#45;&gt;Node76</title>
<path fill="none" stroke="#191970" d="M877.8717,-90.7597C869.4263,-77.6694 859.7617,-62.6892 852.0291,-50.7038"/>
<polygon fill="#191970" stroke="#191970" points="875.1226,-92.9548 883.4849,-99.4603 881.0047,-89.1599 875.1226,-92.9548"/>
</g>
<!-- Node78 -->
<g id="node14" class="node">
<title>Node78</title>
<g id="a_node14"><a xlink:href="testOrbitSolver_8cpp.html" target="_top" xlink:title="Defines some of the methods of the test suite that exercises the OrbitSolver class and the other clas...">
<polygon fill="#ffffff" stroke="#000000" points="949.9902,-6.5 949.9902,-50.5 1161.418,-50.5 1161.418,-6.5 949.9902,-6.5"/>
<text text-anchor="start" x="957.9902" y="-36.9" font-family="Helvetica,sans-Serif" font-size="12.00" fill="#000000">/Users/kpenev/projects</text>
<text text-anchor="start" x="957.9902" y="-24.9" font-family="Helvetica,sans-Serif" font-size="12.00" fill="#000000">/git/poet/poet_src/unit</text>
<text text-anchor="middle" x="1055.7041" y="-12.9" font-family="Helvetica,sans-Serif" font-size="12.00" fill="#000000">_tests/testEvolve/testOrbitSolver.cpp</text>
</a>
</g>
</g>
<!-- Node77&#45;&gt;Node78 -->
<g id="edge15" class="edge">
<title>Node77&#45;&gt;Node78</title>
<path fill="none" stroke="#191970" d="M943.9547,-94.2765C967.6004,-80.3585 996.0023,-63.6409 1018.2556,-50.5425"/>
<polygon fill="#191970" stroke="#191970" points="941.9904,-91.3714 935.1479,-99.4603 945.5413,-97.4039 941.9904,-91.3714"/>
</g>
</g>
</svg>
