<?xml version="1.0" encoding="UTF-8" standalone="no"?>
<!DOCTYPE svg PUBLIC "-//W3C//DTD SVG 1.1//EN"
 "http://www.w3.org/Graphics/SVG/1.1/DTD/svg11.dtd">
<!-- Generated by graphviz version 2.40.1 (20161225.0304)
 -->
<!-- Title: /Users/kpenev/projects/git/poet/poet_src/Evolve/CInterface.h Pages: 1 -->
<svg width="2556pt" height="704pt"
 viewBox="0.00 0.00 2556.00 704.00" xmlns="http://www.w3.org/2000/svg" xmlns:xlink="http://www.w3.org/1999/xlink">
<g id="graph0" class="graph" transform="scale(1 1) rotate(0) translate(4 700)">
<title>/Users/kpenev/projects/git/poet/poet_src/Evolve/CInterface.h</title>
<polygon fill="#ffffff" stroke="transparent" points="-4,4 -4,-700 2552,-700 2552,4 -4,4"/>
<!-- Node0 -->
<g id="node1" class="node">
<title>Node0</title>
<polygon fill="#bfbfbf" stroke="#000000" points="2210.2959,-651.5 2210.2959,-695.5 2357.7041,-695.5 2357.7041,-651.5 2210.2959,-651.5"/>
<text text-anchor="start" x="2218.2959" y="-681.9" font-family="Helvetica,sans-Serif" font-size="12.00" fill="#000000">/Users/kpenev/projects</text>
<text text-anchor="start" x="2218.2959" y="-669.9" font-family="Helvetica,sans-Serif" font-size="12.00" fill="#000000">/git/poet/poet_src/Evolve</text>
<text text-anchor="middle" x="2284" y="-657.9" font-family="Helvetica,sans-Serif" font-size="12.00" fill="#000000">/CInterface.h</text>
</g>
<!-- Node1 -->
<g id="node2" class="node">
<title>Node1</title>
<g id="a_node2"><a xlink:href="SharedLibraryExportMacros_8h_source.html" target="_top" xlink:title="../Core/SharedLibraryExport\lMacros.h">
<polygon fill="#ffffff" stroke="#000000" points="1556.2988,-.5 1556.2988,-32.5 1721.7012,-32.5 1721.7012,-.5 1556.2988,-.5"/>
<text text-anchor="start" x="1564.2988" y="-18.9" font-family="Helvetica,sans-Serif" font-size="12.00" fill="#000000">../Core/SharedLibraryExport</text>
<text text-anchor="middle" x="1639" y="-6.9" font-family="Helvetica,sans-Serif" font-size="12.00" fill="#000000">Macros.h</text>
</a>
</g>
</g>
<!-- Node0&#45;&gt;Node1 -->
<g id="edge1" class="edge">
<title>Node0&#45;&gt;Node1</title>
<path fill="none" stroke="#191970" d="M2357.8898,-653.6741C2435.9903,-630.4833 2548,-589.8428 2548,-547.5 2548,-547.5 2548,-547.5 2548,-136.5 2548,-92.6366 2516.2647,-86.3997 2476,-69 2409.174,-40.1223 1935.9055,-24.3227 1732.0435,-18.7921"/>
<polygon fill="#191970" stroke="#191970" points="1732.0429,-15.2909 1721.9524,-18.5208 1731.8547,-22.2884 1732.0429,-15.2909"/>
</g>
<!-- Node2 -->
<g id="node3" class="node">
<title>Node2</title>
<g id="a_node3"><a xlink:href="DiskBinarySystem_8h.html" target="_top" xlink:title="Declares a class of binary systems which start with a disk&#45;locked star which is then released and at ...">
<polygon fill="#ffffff" stroke="#000000" points="52.3193,-480.5 52.3193,-500.5 175.6807,-500.5 175.6807,-480.5 52.3193,-480.5"/>
<text text-anchor="middle" x="114" y="-486.9" font-family="Helvetica,sans-Serif" font-size="12.00" fill="#000000">DiskBinarySystem.h</text>
</a>
</g>
</g>
<!-- Node0&#45;&gt;Node2 -->
<g id="edge2" class="edge">
<title>Node0&#45;&gt;Node2</title>
<path fill="none" stroke="#191970" d="M2210.2438,-667.6069C2079.9958,-657.176 1800.723,-634.7023 1565,-615 1035.4302,-570.7372 397.3454,-515.2327 185.9078,-496.7829"/>
<polygon fill="#191970" stroke="#191970" points="186.1317,-493.2892 175.8652,-495.9064 185.523,-500.2627 186.1317,-493.2892"/>
</g>
<!-- Node45 -->
<g id="node36" class="node">
<title>Node45</title>
<g id="a_node36"><a xlink:href="OrbitSolver_8h.html" target="_top" xlink:title="Defines the OrbitSolver class, the various stopping conditions and a number of other classes used whi...">
<polygon fill="#ffffff" stroke="#000000" points="517.3154,-480.5 517.3154,-500.5 602.6846,-500.5 602.6846,-480.5 517.3154,-480.5"/>
<text text-anchor="middle" x="560" y="-486.9" font-family="Helvetica,sans-Serif" font-size="12.00" fill="#000000">OrbitSolver.h</text>
</a>
</g>
</g>
<!-- Node0&#45;&gt;Node45 -->
<g id="edge68" class="edge">
<title>Node0&#45;&gt;Node45</title>
<path fill="none" stroke="#191970" d="M2210.1979,-665.666C1920.2371,-634.8871 862.8357,-522.6455 613.1101,-496.1376"/>
<polygon fill="#191970" stroke="#191970" points="613.1675,-492.6241 602.8539,-495.0489 612.4285,-499.585 613.1675,-492.6241"/>
</g>
<!-- Node51 -->
<g id="node44" class="node">
<title>Node51</title>
<g id="a_node44"><a xlink:href="Star_2CInterface_8h.html" target="_top" xlink:title="Declare C&#45;style functions for accessing the functionality of the Star library. ">
<polygon fill="#ffffff" stroke="#000000" points="2225.6445,-594.5 2225.6445,-614.5 2342.3555,-614.5 2342.3555,-594.5 2225.6445,-594.5"/>
<text text-anchor="middle" x="2284" y="-600.9" font-family="Helvetica,sans-Serif" font-size="12.00" fill="#000000">../Star/CInterface.h</text>
</a>
</g>
</g>
<!-- Node0&#45;&gt;Node51 -->
<g id="edge101" class="edge">
<title>Node0&#45;&gt;Node51</title>
<path fill="none" stroke="#191970" d="M2284,-651.2882C2284,-642.8377 2284,-633.2557 2284,-624.9736"/>
<polygon fill="#191970" stroke="#191970" points="2287.5001,-624.7136 2284,-614.7137 2280.5001,-624.7137 2287.5001,-624.7136"/>
</g>
<!-- Node90 -->
<g id="node49" class="node">
<title>Node90</title>
<g id="a_node49"><a xlink:href="Planet_2CInterface_8h.html" target="_top" xlink:title="Declare C&#45;style functions for working with LockedPlanet instances. ">
<polygon fill="#ffffff" stroke="#000000" points="2391.6357,-480.5 2391.6357,-500.5 2520.3643,-500.5 2520.3643,-480.5 2391.6357,-480.5"/>
<text text-anchor="middle" x="2456" y="-486.9" font-family="Helvetica,sans-Serif" font-size="12.00" fill="#000000">../Planet/CInterface.h</text>
</a>
</g>
</g>
<!-- Node0&#45;&gt;Node90 -->
<g id="edge123" class="edge">
<title>Node0&#45;&gt;Node90</title>
<path fill="none" stroke="#191970" d="M2311.2565,-651.3346C2323.7664,-640.7554 2338.5511,-627.6641 2351,-615 2385.9542,-579.4416 2422.5754,-533.7957 2441.9812,-508.8323"/>
<polygon fill="#191970" stroke="#191970" points="2444.9749,-510.682 2448.3168,-500.6281 2439.4345,-506.4036 2444.9749,-510.682"/>
</g>
<!-- Node2&#45;&gt;Node1 -->
<g id="edge3" class="edge">
<title>Node2&#45;&gt;Node1</title>
<path fill="none" stroke="#191970" d="M91.4773,-480.4722C58.2542,-463.9662 0,-427.721 0,-376.5 0,-376.5 0,-376.5 0,-193.5 0,-126.2489 26.8485,-100.9972 86,-69 155.2145,-31.5594 1423.5154,-38.7111 1502,-33 1516.2689,-31.9617 1531.3358,-30.5099 1546.052,-28.8941"/>
<polygon fill="#191970" stroke="#191970" points="1546.6255,-32.3517 1556.1699,-27.7523 1545.8405,-25.3958 1546.6255,-32.3517"/>
</g>
<!-- Node3 -->
<g id="node4" class="node">
<title>Node3</title>
<g id="a_node4"><a xlink:href="BinarySystem_8h.html" target="_top" xlink:title="Defines the BinarySystem class. ">
<polygon fill="#ffffff" stroke="#000000" points="751.9854,-423.5 751.9854,-443.5 852.0146,-443.5 852.0146,-423.5 751.9854,-423.5"/>
<text text-anchor="middle" x="802" y="-429.9" font-family="Helvetica,sans-Serif" font-size="12.00" fill="#000000">BinarySystem.h</text>
</a>
</g>
</g>
<!-- Node2&#45;&gt;Node3 -->
<g id="edge4" class="edge">
<title>Node2&#45;&gt;Node3</title>
<path fill="none" stroke="#191970" d="M175.9646,-485.3663C307.1742,-474.4957 611.6333,-449.2717 741.5224,-438.5105"/>
<polygon fill="#191970" stroke="#191970" points="742.0073,-441.9824 751.6841,-437.6686 741.4292,-435.0063 742.0073,-441.9824"/>
</g>
<!-- Node22 -->
<g id="node7" class="node">
<title>Node22</title>
<g id="a_node7"><a xlink:href="Error_8h.html" target="_top" xlink:title="Defines the exception hierarchy used by this code. ">
<polygon fill="#ffffff" stroke="#000000" points="1406.9912,-69.5 1406.9912,-89.5 1459.0088,-89.5 1459.0088,-69.5 1406.9912,-69.5"/>
<text text-anchor="middle" x="1433" y="-75.9" font-family="Helvetica,sans-Serif" font-size="12.00" fill="#000000">Error.h</text>
</a>
</g>
</g>
<!-- Node2&#45;&gt;Node22 -->
<g id="edge66" class="edge">
<title>Node2&#45;&gt;Node22</title>
<path fill="none" stroke="#191970" d="M114,-480.4352C114,-460.5659 114,-414.8958 114,-376.5 114,-376.5 114,-376.5 114,-319.5 114,-187.9976 270.7043,-268.8633 399,-240 428.6993,-233.3184 910.3968,-157.4187 939,-147 956.4046,-140.6604 957.3428,-131.5976 975,-126 1152.7476,-69.6512 1209.2639,-121.7875 1393,-90 1394.2734,-89.7797 1395.5655,-89.5384 1396.8674,-89.2803"/>
<polygon fill="#191970" stroke="#191970" points="1397.8962,-92.6367 1406.8906,-87.0375 1396.3676,-85.8057 1397.8962,-92.6367"/>
</g>
<!-- Node14 -->
<g id="node20" class="node">
<title>Node14</title>
<polygon fill="#ffffff" stroke="#bfbfbf" points="94.6631,-69.5 94.6631,-89.5 153.3369,-89.5 153.3369,-69.5 94.6631,-69.5"/>
<text text-anchor="middle" x="124" y="-75.9" font-family="Helvetica,sans-Serif" font-size="12.00" fill="#000000">sstream</text>
</g>
<!-- Node2&#45;&gt;Node14 -->
<g id="edge67" class="edge">
<title>Node2&#45;&gt;Node14</title>
<path fill="none" stroke="#191970" d="M98.9085,-480.2525C87.385,-471.739 71.858,-458.6788 62,-444 44.2486,-417.5677 38,-408.3399 38,-376.5 38,-376.5 38,-376.5 38,-193.5 38,-151.8479 75.0406,-115.7665 100.5037,-95.8836"/>
<polygon fill="#191970" stroke="#191970" points="102.7357,-98.5843 108.6249,-89.777 98.5288,-92.9895 102.7357,-98.5843"/>
</g>
<!-- Node3&#45;&gt;Node1 -->
<g id="edge5" class="edge">
<title>Node3&#45;&gt;Node1</title>
<path fill="none" stroke="#191970" d="M850.9687,-423.495C912.4941,-410.812 1010.4263,-390.2026 1013,-387 1018.8465,-379.7247 1016.5197,-374.6442 1013,-366 1012.0777,-363.735 892.0812,-241.2844 890,-240 793.7083,-180.5739 723.5949,-235.4303 653,-147 631.1174,-119.5888 616.7221,-94.3142 641,-69 674.1382,-34.4473 1454.2812,-36.8653 1502,-33 1516.2599,-31.8449 1531.322,-30.3309 1546.0361,-28.6882"/>
<polygon fill="#191970" stroke="#191970" points="1546.6146,-32.145 1556.1531,-27.5332 1545.8206,-25.1901 1546.6146,-32.145"/>
</g>
<!-- Node4 -->
<g id="node5" class="node">
<title>Node4</title>
<g id="a_node5"><a xlink:href="DissipatingBody_8h.html" target="_top" xlink:title="Declares the DissipatingBody class. ">
<polygon fill="#ffffff" stroke="#000000" points="1832.416,-366.5 1832.416,-386.5 1943.584,-386.5 1943.584,-366.5 1832.416,-366.5"/>
<text text-anchor="middle" x="1888" y="-372.9" font-family="Helvetica,sans-Serif" font-size="12.00" fill="#000000">DissipatingBody.h</text>
</a>
</g>
</g>
<!-- Node3&#45;&gt;Node4 -->
<g id="edge6" class="edge">
<title>Node3&#45;&gt;Node4</title>
<path fill="none" stroke="#191970" d="M852.202,-430.8651C1029.0255,-421.5843 1623.0069,-390.4085 1822.2286,-379.9521"/>
<polygon fill="#191970" stroke="#191970" points="1822.4552,-383.4451 1832.258,-379.4257 1822.0882,-376.4547 1822.4552,-383.4451"/>
</g>
<!-- Node3&#45;&gt;Node22 -->
<g id="edge59" class="edge">
<title>Node3&#45;&gt;Node22</title>
<path fill="none" stroke="#191970" d="M794.1417,-423.3273C767.6898,-388.5217 684.7074,-274.4522 706,-240 735.7811,-191.8131 766.4443,-201.4573 820,-183 880.2391,-162.2393 1038.1119,-136.2392 1101,-126 1230.0609,-104.9868 1264.5851,-114.6553 1393,-90 1394.2692,-89.7563 1395.5576,-89.495 1396.8564,-89.2197"/>
<polygon fill="#191970" stroke="#191970" points="1397.915,-92.5672 1406.865,-86.8973 1396.3327,-85.7483 1397.915,-92.5672"/>
</g>
<!-- Node15 -->
<g id="node8" class="node">
<title>Node15</title>
<polygon fill="#ffffff" stroke="#bfbfbf" points="545.9932,-6.5 545.9932,-26.5 608.0068,-26.5 608.0068,-6.5 545.9932,-6.5"/>
<text text-anchor="middle" x="577" y="-12.9" font-family="Helvetica,sans-Serif" font-size="12.00" fill="#000000">iostream</text>
</g>
<!-- Node3&#45;&gt;Node15 -->
<g id="edge65" class="edge">
<title>Node3&#45;&gt;Node15</title>
<path fill="none" stroke="#191970" d="M771.6502,-423.4885C745.4917,-414.6198 706.8637,-400.948 674,-387 654.4219,-378.6907 650.9101,-373.4788 631,-366 499.1293,-316.4655 440.0339,-358.3929 328,-273 250.0608,-213.5943 233.5751,-183.7391 205,-90 202.2785,-81.0723 198.8788,-76.0457 205,-69 226.4954,-44.258 443.5705,-26.0035 535.8471,-19.3022"/>
<polygon fill="#191970" stroke="#191970" points="536.2172,-22.7848 545.9416,-18.5792 535.717,-15.8026 536.2172,-22.7848"/>
</g>
<!-- Node24 -->
<g id="node10" class="node">
<title>Node24</title>
<polygon fill="#ffffff" stroke="#bfbfbf" points="1447.3281,-6.5 1447.3281,-26.5 1492.6719,-26.5 1492.6719,-6.5 1447.3281,-6.5"/>
<text text-anchor="middle" x="1470" y="-12.9" font-family="Helvetica,sans-Serif" font-size="12.00" fill="#000000">string</text>
</g>
<!-- Node3&#45;&gt;Node24 -->
<g id="edge63" class="edge">
<title>Node3&#45;&gt;Node24</title>
<path fill="none" stroke="#191970" d="M783.577,-423.3289C757.9148,-409.3844 709.7408,-384.0116 667,-366 550.8162,-317.0384 496.2499,-353.2394 399,-273 322.1406,-209.5845 236.669,-140.5689 306,-69 349.8181,-23.7675 1378.1476,-49.2168 1439,-33 1440.9883,-32.4701 1442.9911,-31.7932 1444.9701,-31.0172"/>
<polygon fill="#191970" stroke="#191970" points="1446.9335,-33.9613 1454.4886,-26.5335 1443.9505,-27.6286 1446.9335,-33.9613"/>
</g>
<!-- Node36 -->
<g id="node14" class="node">
<title>Node36</title>
<g id="a_node14"><a xlink:href="CombinedStoppingCondition_8h.html" target="_top" xlink:title="Declares a class for a stopping condition that combines other stopping conditions. ">
<polygon fill="#ffffff" stroke="#000000" points="1055.6104,-246.5 1055.6104,-266.5 1234.3896,-266.5 1234.3896,-246.5 1055.6104,-246.5"/>
<text text-anchor="middle" x="1145" y="-252.9" font-family="Helvetica,sans-Serif" font-size="12.00" fill="#000000">CombinedStoppingCondition.h</text>
</a>
</g>
</g>
<!-- Node3&#45;&gt;Node36 -->
<g id="edge52" class="edge">
<title>Node3&#45;&gt;Node36</title>
<path fill="none" stroke="#191970" d="M814.3634,-423.4751C831.9912,-409.4764 865.6891,-383.7935 897,-366 968.588,-325.3177 1058.1519,-289.1004 1107.6898,-270.2449"/>
<polygon fill="#191970" stroke="#191970" points="1109.2218,-273.4076 1117.3394,-266.5992 1106.7478,-266.8593 1109.2218,-273.4076"/>
</g>
<!-- Node10 -->
<g id="node16" class="node">
<title>Node10</title>
<g id="a_node16"><a xlink:href="Core_2Common_8h.html" target="_top" xlink:title="Declaration of some general purpose utilities. ">
<polygon fill="#ffffff" stroke="#000000" points="815.9834,-126.5 815.9834,-146.5 930.0166,-146.5 930.0166,-126.5 815.9834,-126.5"/>
<text text-anchor="middle" x="873" y="-132.9" font-family="Helvetica,sans-Serif" font-size="12.00" fill="#000000">../Core/Common.h</text>
</a>
</g>
</g>
<!-- Node3&#45;&gt;Node10 -->
<g id="edge57" class="edge">
<title>Node3&#45;&gt;Node10</title>
<path fill="none" stroke="#191970" d="M810.27,-423.4279C840.7821,-386.0195 946.0951,-254.624 962,-204 964.7975,-195.0958 966.8359,-190.9828 962,-183 952.9489,-168.0591 937.3478,-157.6903 921.711,-150.6034"/>
<polygon fill="#191970" stroke="#191970" points="922.6072,-147.1868 912.0285,-146.6035 919.9345,-153.6565 922.6072,-147.1868"/>
</g>
<!-- Node13 -->
<g id="node19" class="node">
<title>Node13</title>
<polygon fill="#ffffff" stroke="#bfbfbf" points="429.3359,-69.5 429.3359,-89.5 472.6641,-89.5 472.6641,-69.5 429.3359,-69.5"/>
<text text-anchor="middle" x="451" y="-75.9" font-family="Helvetica,sans-Serif" font-size="12.00" fill="#000000">limits</text>
</g>
<!-- Node3&#45;&gt;Node13 -->
<g id="edge64" class="edge">
<title>Node3&#45;&gt;Node13</title>
<path fill="none" stroke="#191970" d="M790.2729,-423.3332C779.6264,-414.0281 763.564,-399.8011 750,-387 640.0638,-283.2474 611.8911,-257.7429 509,-147 493.8462,-130.6898 477.3761,-111.3553 465.8724,-97.5684"/>
<polygon fill="#191970" stroke="#191970" points="468.487,-95.2383 459.4078,-89.7776 463.1001,-99.7083 468.487,-95.2383"/>
</g>
<!-- Node25 -->
<g id="node27" class="node">
<title>Node25</title>
<g id="a_node27"><a xlink:href="AstronomicalConstants_8h.html" target="_top" xlink:title="Defines various astronomical constants. ">
<polygon fill="#ffffff" stroke="#000000" points="1855.3027,-69.5 1855.3027,-89.5 2004.6973,-89.5 2004.6973,-69.5 1855.3027,-69.5"/>
<text text-anchor="middle" x="1930" y="-75.9" font-family="Helvetica,sans-Serif" font-size="12.00" fill="#000000">AstronomicalConstants.h</text>
</a>
</g>
</g>
<!-- Node3&#45;&gt;Node25 -->
<g id="edge56" class="edge">
<title>Node3&#45;&gt;Node25</title>
<path fill="none" stroke="#191970" d="M852.1302,-431.1805C961.1957,-425.7141 1212.7085,-410.6742 1243,-387 1340.2639,-310.9839 1239.6587,-200.6171 1338,-126 1379.7241,-94.3415 1755.7972,-94.2456 1808,-90 1819.9188,-89.0307 1832.4899,-87.9804 1844.8513,-86.9315"/>
<polygon fill="#191970" stroke="#191970" points="1845.4999,-90.389 1855.1667,-86.0526 1844.9056,-83.4143 1845.4999,-90.389"/>
</g>
<!-- Node40 -->
<g id="node30" class="node">
<title>Node40</title>
<g id="a_node30"><a xlink:href="OrbitalExpressions_8h.html" target="_top" xlink:title="A collection of functions which calculate various quantities for two body orbits. ...">
<polygon fill="#ffffff" stroke="#000000" points="1636.9707,-309.5 1636.9707,-329.5 1803.0293,-329.5 1803.0293,-309.5 1636.9707,-309.5"/>
<text text-anchor="middle" x="1720" y="-315.9" font-family="Helvetica,sans-Serif" font-size="12.00" fill="#000000">../Core/OrbitalExpressions.h</text>
</a>
</g>
</g>
<!-- Node3&#45;&gt;Node40 -->
<g id="edge58" class="edge">
<title>Node3&#45;&gt;Node40</title>
<path fill="none" stroke="#191970" d="M852.2598,-429.4522C938.9103,-422.2763 1121.9541,-406.2518 1276,-387 1409.0268,-370.375 1563.6528,-345.6323 1650.8539,-331.176"/>
<polygon fill="#191970" stroke="#191970" points="1651.5982,-334.6004 1660.8892,-329.5084 1650.4507,-327.6951 1651.5982,-334.6004"/>
</g>
<!-- Node41 -->
<g id="node32" class="node">
<title>Node41</title>
<g id="a_node32"><a xlink:href="SecondaryDeathCondition_8h.html" target="_top" xlink:title="Declares a stopping condition class monitoring for the death of the secondary object. ">
<polygon fill="#ffffff" stroke="#000000" points="714.9502,-246.5 714.9502,-266.5 881.0498,-266.5 881.0498,-246.5 714.9502,-246.5"/>
<text text-anchor="middle" x="798" y="-252.9" font-family="Helvetica,sans-Serif" font-size="12.00" fill="#000000">SecondaryDeathCondition.h</text>
</a>
</g>
</g>
<!-- Node3&#45;&gt;Node41 -->
<g id="edge53" class="edge">
<title>Node3&#45;&gt;Node41</title>
<path fill="none" stroke="#191970" d="M801.7735,-423.4766C801.1384,-395.3759 799.3312,-315.407 798.4689,-277.2501"/>
<polygon fill="#191970" stroke="#191970" points="801.9591,-276.7727 798.234,-266.8544 794.9609,-276.9309 801.9591,-276.7727"/>
</g>
<!-- Node42 -->
<g id="node33" class="node">
<title>Node42</title>
<polygon fill="#ffffff" stroke="#bfbfbf" points="407.6455,-366.5 407.6455,-386.5 502.3545,-386.5 502.3545,-366.5 407.6455,-366.5"/>
<text text-anchor="middle" x="455" y="-372.9" font-family="Helvetica,sans-Serif" font-size="12.00" fill="#000000">gsl/gsl_errno.h</text>
</g>
<!-- Node3&#45;&gt;Node42 -->
<g id="edge60" class="edge">
<title>Node3&#45;&gt;Node42</title>
<path fill="none" stroke="#191970" d="M751.9846,-425.9262C696.0526,-417.363 602.4999,-402.762 512.7217,-387.2691"/>
<polygon fill="#191970" stroke="#191970" points="513.0938,-383.7815 502.6431,-385.5233 511.899,-390.6788 513.0938,-383.7815"/>
</g>
<!-- Node43 -->
<g id="node34" class="node">
<title>Node43</title>
<polygon fill="#ffffff" stroke="#bfbfbf" points="519.9717,-366.5 519.9717,-386.5 622.0283,-386.5 622.0283,-366.5 519.9717,-366.5"/>
<text text-anchor="middle" x="571" y="-372.9" font-family="Helvetica,sans-Serif" font-size="12.00" fill="#000000">gsl/gsl_odeiv2.h</text>
</g>
<!-- Node3&#45;&gt;Node43 -->
<g id="edge61" class="edge">
<title>Node3&#45;&gt;Node43</title>
<path fill="none" stroke="#191970" d="M761.2336,-423.4408C722.263,-413.8246 663.4001,-399.3 621.4825,-388.9567"/>
<polygon fill="#191970" stroke="#191970" points="622.294,-385.5521 611.7467,-386.5544 620.617,-392.3482 622.294,-385.5521"/>
</g>
<!-- Node44 -->
<g id="node35" class="node">
<title>Node44</title>
<polygon fill="#ffffff" stroke="#bfbfbf" points="905.6475,-366.5 905.6475,-386.5 1004.3525,-386.5 1004.3525,-366.5 905.6475,-366.5"/>
<text text-anchor="middle" x="955" y="-372.9" font-family="Helvetica,sans-Serif" font-size="12.00" fill="#000000">gsl/gsl_siman.h</text>
</g>
<!-- Node3&#45;&gt;Node44 -->
<g id="edge62" class="edge">
<title>Node3&#45;&gt;Node44</title>
<path fill="none" stroke="#191970" d="M829.0011,-423.4408C853.8326,-414.1898 890.8579,-400.3961 918.3534,-390.1527"/>
<polygon fill="#191970" stroke="#191970" points="919.863,-393.3253 928.0119,-386.5544 917.4192,-386.7658 919.863,-393.3253"/>
</g>
<!-- Node4&#45;&gt;Node1 -->
<g id="edge7" class="edge">
<title>Node4&#45;&gt;Node1</title>
<path fill="none" stroke="#191970" d="M1916.5334,-366.3949C1982.0506,-341.3886 2141.9939,-269.6074 2199,-147 2213.6205,-115.5546 2224.3529,-94.6361 2201,-69 2170.0961,-35.0747 1883.5137,-22.6878 1731.9706,-18.4832"/>
<polygon fill="#191970" stroke="#191970" points="1731.8343,-14.9783 1721.7432,-18.2062 1731.6447,-21.9758 1731.8343,-14.9783"/>
</g>
<!-- Node5 -->
<g id="node6" class="node">
<title>Node5</title>
<g id="a_node6"><a xlink:href="DissipatingZone_8h.html" target="_top" xlink:title="Declares a class representing one zone of a body dissipative to tidal distortions. ">
<polygon fill="#ffffff" stroke="#ff0000" points="1412.9736,-309.5 1412.9736,-329.5 1525.0264,-329.5 1525.0264,-309.5 1412.9736,-309.5"/>
<text text-anchor="middle" x="1469" y="-315.9" font-family="Helvetica,sans-Serif" font-size="12.00" fill="#000000">DissipatingZone.h</text>
</a>
</g>
</g>
<!-- Node4&#45;&gt;Node5 -->
<g id="edge8" class="edge">
<title>Node4&#45;&gt;Node5</title>
<path fill="none" stroke="#191970" d="M1832.36,-368.9308C1755.5361,-358.4798 1617.1933,-339.6599 1535.1663,-328.5011"/>
<polygon fill="#191970" stroke="#191970" points="1535.5855,-325.026 1525.2049,-327.146 1534.6418,-331.9621 1535.5855,-325.026"/>
</g>
<!-- Node9 -->
<g id="node13" class="node">
<title>Node9</title>
<polygon fill="#ffffff" stroke="#bfbfbf" points="1744.6611,-69.5 1744.6611,-89.5 1799.3389,-89.5 1799.3389,-69.5 1744.6611,-69.5"/>
<text text-anchor="middle" x="1772" y="-75.9" font-family="Helvetica,sans-Serif" font-size="12.00" fill="#000000">cassert</text>
</g>
<!-- Node4&#45;&gt;Node9 -->
<g id="edge51" class="edge">
<title>Node4&#45;&gt;Node9</title>
<path fill="none" stroke="#191970" d="M1888.421,-366.2384C1888.7053,-352.8341 1888.3001,-328.7476 1883,-309 1860.6834,-225.8514 1808.1959,-136.5611 1784.2711,-98.4671"/>
<polygon fill="#191970" stroke="#191970" points="1787.1571,-96.4829 1778.8396,-89.9201 1781.2491,-100.2373 1787.1571,-96.4829"/>
</g>
<!-- Node4&#45;&gt;Node10 -->
<g id="edge49" class="edge">
<title>Node4&#45;&gt;Node10</title>
<path fill="none" stroke="#191970" d="M1880.4857,-366.3646C1860.4185,-340.1687 1802.5475,-270.1617 1736,-240 1717.8257,-231.7628 1140.2447,-166.4482 940.3146,-144.0257"/>
<polygon fill="#191970" stroke="#191970" points="940.5612,-140.5315 930.2335,-142.8956 939.7813,-147.4879 940.5612,-140.5315"/>
</g>
<!-- Node12 -->
<g id="node18" class="node">
<title>Node12</title>
<polygon fill="#ffffff" stroke="#bfbfbf" points="1552.6602,-69.5 1552.6602,-89.5 1611.3398,-89.5 1611.3398,-69.5 1552.6602,-69.5"/>
<text text-anchor="middle" x="1582" y="-75.9" font-family="Helvetica,sans-Serif" font-size="12.00" fill="#000000">valarray</text>
</g>
<!-- Node4&#45;&gt;Node12 -->
<g id="edge50" class="edge">
<title>Node4&#45;&gt;Node12</title>
<path fill="none" stroke="#191970" d="M1884.0514,-366.2247C1878.4371,-352.3821 1867.2305,-327.3645 1853,-309 1824.8533,-272.6769 1814.8033,-264.6152 1776,-240 1686.3596,-183.1358 1614.6566,-235.4779 1556,-147 1545.8864,-131.7446 1555.7166,-111.9804 1566.0594,-97.7864"/>
<polygon fill="#191970" stroke="#191970" points="1568.9466,-99.7776 1572.3918,-89.7586 1563.4506,-95.4423 1568.9466,-99.7776"/>
</g>
<!-- Node4&#45;&gt;Node25 -->
<g id="edge48" class="edge">
<title>Node4&#45;&gt;Node25</title>
<path fill="none" stroke="#191970" d="M1897.9683,-366.4618C1905.9356,-357.6804 1916.4901,-344.1474 1921,-330 1933.1488,-291.8896 1936.5037,-276.8732 1921,-240 1895.4371,-179.2023 1790.1228,-181.3413 1826,-126 1836.1218,-110.387 1852.8495,-99.9694 1869.9609,-93.0373"/>
<polygon fill="#191970" stroke="#191970" points="1871.2945,-96.276 1879.4672,-89.5339 1868.8738,-89.7079 1871.2945,-96.276"/>
</g>
<!-- Node4&#45;&gt;Node40 -->
<g id="edge44" class="edge">
<title>Node4&#45;&gt;Node40</title>
<path fill="none" stroke="#191970" d="M1858.3517,-366.4408C1830.8466,-357.1087 1789.7163,-343.1537 1759.4473,-332.8839"/>
<polygon fill="#191970" stroke="#191970" points="1760.2283,-329.453 1749.634,-329.5544 1757.9792,-336.0818 1760.2283,-329.453"/>
</g>
<!-- Node5&#45;&gt;Node1 -->
<g id="edge9" class="edge">
<title>Node5&#45;&gt;Node1</title>
<path fill="none" stroke="#191970" d="M1471.1581,-309.4246C1478.2276,-278.5141 1503.3204,-183.6394 1556,-126 1578.0171,-101.9099 1600.1019,-115.868 1620,-90 1630.3461,-76.5498 1635.0913,-58.0376 1637.2524,-42.9572"/>
<polygon fill="#191970" stroke="#191970" points="1640.7659,-43.0344 1638.4125,-32.7043 1633.8103,-42.2474 1640.7659,-43.0344"/>
</g>
<!-- Node5&#45;&gt;Node22 -->
<g id="edge10" class="edge">
<title>Node5&#45;&gt;Node22</title>
<path fill="none" stroke="#191970" d="M1462.7663,-309.2127C1457.5601,-300.0602 1450.4514,-286.1288 1447,-273 1430.8502,-211.5673 1430.8971,-135.6353 1432.0416,-99.9059"/>
<polygon fill="#191970" stroke="#191970" points="1435.5438,-99.9152 1432.4326,-89.7875 1428.549,-99.6448 1435.5438,-99.9152"/>
</g>
<!-- Node7 -->
<g id="node11" class="node">
<title>Node7</title>
<g id="a_node11"><a xlink:href="DissipationQuantities_8h.html" target="_top" xlink:title="Declaration of enumerations of dissipation quantities and derivatives. ">
<polygon fill="#ffffff" stroke="#000000" points="1564.6348,-126.5 1564.6348,-146.5 1703.3652,-146.5 1703.3652,-126.5 1564.6348,-126.5"/>
<text text-anchor="middle" x="1634" y="-132.9" font-family="Helvetica,sans-Serif" font-size="12.00" fill="#000000">DissipationQuantities.h</text>
</a>
</g>
</g>
<!-- Node5&#45;&gt;Node7 -->
<g id="edge15" class="edge">
<title>Node5&#45;&gt;Node7</title>
<path fill="none" stroke="#191970" d="M1494.7795,-309.4491C1512.3136,-301.6013 1535.1241,-289.2925 1551,-273 1582.6377,-240.5321 1574.6288,-221.2251 1599,-183 1605.2086,-173.2621 1612.8501,-162.9504 1619.4074,-154.5184"/>
<polygon fill="#191970" stroke="#191970" points="1622.2805,-156.5279 1625.7427,-146.5147 1616.7919,-152.1833 1622.2805,-156.5279"/>
</g>
<!-- Node5&#45;&gt;Node36 -->
<g id="edge19" class="edge">
<title>Node5&#45;&gt;Node36</title>
<path fill="none" stroke="#191970" d="M1417.303,-309.4478C1359.9311,-298.2922 1267.4095,-280.3018 1206.398,-268.4385"/>
<polygon fill="#191970" stroke="#191970" points="1206.9971,-264.9895 1196.5129,-266.5164 1205.661,-271.8608 1206.9971,-264.9895"/>
</g>
<!-- Node5&#45;&gt;Node10 -->
<g id="edge42" class="edge">
<title>Node5&#45;&gt;Node10</title>
<path fill="none" stroke="#191970" d="M1442.0576,-309.378C1399.8857,-293.681 1315.5905,-262.8934 1243,-240 1129.0128,-204.051 993.3218,-167.7192 922.1562,-149.153"/>
<polygon fill="#191970" stroke="#191970" points="922.694,-145.6764 912.1348,-146.5448 920.9308,-152.4507 922.694,-145.6764"/>
</g>
<!-- Node5&#45;&gt;Node12 -->
<g id="edge43" class="edge">
<title>Node5&#45;&gt;Node12</title>
<path fill="none" stroke="#191970" d="M1466.5696,-309.0949C1459.9471,-278.0445 1444.6559,-184.5754 1485,-126 1498.2912,-106.7026 1521.8544,-95.1513 1542.4281,-88.3885"/>
<polygon fill="#191970" stroke="#191970" points="1543.6616,-91.6724 1552.2296,-85.4403 1541.6452,-84.9691 1543.6616,-91.6724"/>
</g>
<!-- Node22&#45;&gt;Node1 -->
<g id="edge11" class="edge">
<title>Node22&#45;&gt;Node1</title>
<path fill="none" stroke="#191970" d="M1459.09,-71.521C1488.5331,-62.5166 1537.4561,-47.5547 1576.8585,-35.5044"/>
<polygon fill="#191970" stroke="#191970" points="1578.1141,-38.7805 1586.6533,-32.5089 1576.0669,-32.0866 1578.1141,-38.7805"/>
</g>
<!-- Node22&#45;&gt;Node15 -->
<g id="edge12" class="edge">
<title>Node22&#45;&gt;Node15</title>
<path fill="none" stroke="#191970" d="M1406.7047,-75.2256C1392.8424,-73.097 1375.5351,-70.6357 1360,-69 1077.1789,-39.222 735.008,-23.1008 618.2964,-18.1629"/>
<polygon fill="#191970" stroke="#191970" points="618.1713,-14.6547 608.0335,-17.733 617.8783,-21.6485 618.1713,-14.6547"/>
</g>
<!-- Node23 -->
<g id="node9" class="node">
<title>Node23</title>
<polygon fill="#ffffff" stroke="#bfbfbf" points="1362.3154,-6.5 1362.3154,-26.5 1429.6846,-26.5 1429.6846,-6.5 1362.3154,-6.5"/>
<text text-anchor="middle" x="1396" y="-12.9" font-family="Helvetica,sans-Serif" font-size="12.00" fill="#000000">exception</text>
</g>
<!-- Node22&#45;&gt;Node23 -->
<g id="edge13" class="edge">
<title>Node22&#45;&gt;Node23</title>
<path fill="none" stroke="#191970" d="M1427.0553,-69.378C1421.7466,-60.3389 1413.8263,-46.853 1407.3132,-35.7631"/>
<polygon fill="#191970" stroke="#191970" points="1410.1351,-33.6566 1402.0529,-26.8062 1404.0991,-37.2016 1410.1351,-33.6566"/>
</g>
<!-- Node22&#45;&gt;Node24 -->
<g id="edge14" class="edge">
<title>Node22&#45;&gt;Node24</title>
<path fill="none" stroke="#191970" d="M1438.9447,-69.378C1444.2534,-60.3389 1452.1737,-46.853 1458.6868,-35.7631"/>
<polygon fill="#191970" stroke="#191970" points="1461.9009,-37.2016 1463.9471,-26.8062 1455.8649,-33.6566 1461.9009,-37.2016"/>
</g>
<!-- Node7&#45;&gt;Node1 -->
<g id="edge16" class="edge">
<title>Node7&#45;&gt;Node1</title>
<path fill="none" stroke="#191970" d="M1703.3833,-126.7107C1746.0404,-119.1112 1794.9554,-106.9884 1808,-90 1834.6809,-55.2526 1784.4729,-36.6486 1731.9935,-26.8595"/>
<polygon fill="#191970" stroke="#191970" points="1732.2933,-23.3586 1721.8384,-25.0747 1731.0816,-30.253 1732.2933,-23.3586"/>
</g>
<!-- Node8 -->
<g id="node12" class="node">
<title>Node8</title>
<polygon fill="#ffffff" stroke="#bfbfbf" points="1667.3262,-69.5 1667.3262,-89.5 1726.6738,-89.5 1726.6738,-69.5 1667.3262,-69.5"/>
<text text-anchor="middle" x="1697" y="-75.9" font-family="Helvetica,sans-Serif" font-size="12.00" fill="#000000">ostream</text>
</g>
<!-- Node7&#45;&gt;Node8 -->
<g id="edge17" class="edge">
<title>Node7&#45;&gt;Node8</title>
<path fill="none" stroke="#191970" d="M1645.2631,-126.3095C1654.4011,-118.0419 1667.4792,-106.2093 1678.2,-96.5096"/>
<polygon fill="#191970" stroke="#191970" points="1680.7672,-98.9068 1685.8344,-89.6022 1676.0708,-93.716 1680.7672,-98.9068"/>
</g>
<!-- Node7&#45;&gt;Node9 -->
<g id="edge18" class="edge">
<title>Node7&#45;&gt;Node9</title>
<path fill="none" stroke="#191970" d="M1658.354,-126.4408C1680.4862,-117.2992 1713.3583,-103.7216 1738.0631,-93.5174"/>
<polygon fill="#191970" stroke="#191970" points="1739.5189,-96.703 1747.4253,-89.6504 1736.8465,-90.2332 1739.5189,-96.703"/>
</g>
<!-- Node36&#45;&gt;Node1 -->
<g id="edge20" class="edge">
<title>Node36&#45;&gt;Node1</title>
<path fill="none" stroke="#191970" d="M1137.4794,-246.1747C1120.8011,-221.9315 1084.581,-160.7962 1116,-126 1168.6957,-67.6401 1393.7233,-115.801 1468,-90 1484.422,-84.2956 1485.4623,-76.7976 1501,-69 1526.0796,-56.4137 1554.9442,-44.9918 1579.7708,-36.0399"/>
<polygon fill="#191970" stroke="#191970" points="1581.1752,-39.2553 1589.4257,-32.6086 1578.831,-32.6595 1581.1752,-39.2553"/>
</g>
<!-- Node37 -->
<g id="node15" class="node">
<title>Node37</title>
<g id="a_node15"><a xlink:href="StoppingCondition_8h.html" target="_top" xlink:title="Defines the various stopping conditions needed by OrbitSolver. ">
<polygon fill="#ffffff" stroke="#000000" points="828.959,-183.5 828.959,-203.5 953.041,-203.5 953.041,-183.5 828.959,-183.5"/>
<text text-anchor="middle" x="891" y="-189.9" font-family="Helvetica,sans-Serif" font-size="12.00" fill="#000000">StoppingCondition.h</text>
</a>
</g>
</g>
<!-- Node36&#45;&gt;Node37 -->
<g id="edge21" class="edge">
<title>Node36&#45;&gt;Node37</title>
<path fill="none" stroke="#191970" d="M1104.4721,-246.4478C1060.1445,-235.4532 989.051,-217.8197 941.2192,-205.956"/>
<polygon fill="#191970" stroke="#191970" points="941.9321,-202.5268 931.3836,-203.5164 940.2469,-209.3209 941.9321,-202.5268"/>
</g>
<!-- Node31 -->
<g id="node29" class="node">
<title>Node31</title>
<polygon fill="#ffffff" stroke="#bfbfbf" points="1346.6611,-126.5 1346.6611,-146.5 1395.3389,-146.5 1395.3389,-126.5 1346.6611,-126.5"/>
<text text-anchor="middle" x="1371" y="-132.9" font-family="Helvetica,sans-Serif" font-size="12.00" fill="#000000">vector</text>
</g>
<!-- Node36&#45;&gt;Node31 -->
<g id="edge41" class="edge">
<title>Node36&#45;&gt;Node31</title>
<path fill="none" stroke="#191970" d="M1163.8799,-246.4753C1203.6791,-225.343 1296.354,-176.135 1343.0506,-151.3404"/>
<polygon fill="#191970" stroke="#191970" points="1344.8241,-154.3616 1352.0149,-146.5806 1341.5413,-148.179 1344.8241,-154.3616"/>
</g>
<!-- Node37&#45;&gt;Node1 -->
<g id="edge22" class="edge">
<title>Node37&#45;&gt;Node1</title>
<path fill="none" stroke="#191970" d="M836.5638,-183.4981C754.953,-166.3276 616.1167,-127.3597 672,-69 703.9212,-35.6643 1455.9991,-36.7622 1502,-33 1516.259,-31.8338 1531.3206,-30.3138 1546.0345,-28.6686"/>
<polygon fill="#191970" stroke="#191970" points="1546.6135,-32.1253 1556.1514,-27.5123 1545.8186,-25.1706 1546.6135,-32.1253"/>
</g>
<!-- Node37&#45;&gt;Node9 -->
<g id="edge40" class="edge">
<title>Node37&#45;&gt;Node9</title>
<path fill="none" stroke="#191970" d="M953.374,-188.1834C1043.55,-180.0714 1205.6977,-163.7703 1262,-147 1282.3834,-140.9286 1284.4954,-131.6487 1305,-126 1487.152,-75.8197 1545.0317,-123.403 1734.61,-89.9212"/>
<polygon fill="#191970" stroke="#191970" points="1735.4073,-93.3337 1744.6194,-88.1003 1734.1544,-86.4467 1735.4073,-93.3337"/>
</g>
<!-- Node37&#45;&gt;Node10 -->
<g id="edge23" class="edge">
<title>Node37&#45;&gt;Node10</title>
<path fill="none" stroke="#191970" d="M887.782,-183.3095C885.4271,-175.8524 882.1564,-165.4951 879.2901,-156.4186"/>
<polygon fill="#191970" stroke="#191970" points="882.5391,-155.0841 876.1902,-146.6022 875.864,-157.192 882.5391,-155.0841"/>
</g>
<!-- Node10&#45;&gt;Node1 -->
<g id="edge36" class="edge">
<title>Node10&#45;&gt;Node1</title>
<path fill="none" stroke="#191970" d="M930.3116,-127.7205C934.9384,-127.1044 939.5447,-126.5217 944,-126 1128.3204,-104.4153 1182.4687,-144.0607 1360,-90 1378.4594,-84.3789 1379.9385,-75.7917 1398,-69 1445.517,-51.132 1500.7079,-38.5542 1546.275,-30.1988"/>
<polygon fill="#191970" stroke="#191970" points="1546.919,-33.6392 1556.1432,-28.4274 1545.6821,-26.7494 1546.919,-33.6392"/>
</g>
<!-- Node10&#45;&gt;Node22 -->
<g id="edge37" class="edge">
<title>Node10&#45;&gt;Node22</title>
<path fill="none" stroke="#191970" d="M930.308,-127.6893C934.9356,-127.0802 939.5431,-126.5077 944,-126 1142.9098,-103.3434 1195.6346,-123.5455 1393,-90 1394.2741,-89.7834 1395.5667,-89.5454 1396.8691,-89.2901"/>
<polygon fill="#191970" stroke="#191970" points="1397.893,-92.6479 1406.8945,-87.0601 1396.3731,-85.8149 1397.893,-92.6479"/>
</g>
<!-- Node10&#45;&gt;Node15 -->
<g id="edge28" class="edge">
<title>Node10&#45;&gt;Node15</title>
<path fill="none" stroke="#191970" d="M815.8216,-129.9502C774.3703,-123.6365 717.7912,-111.7209 672,-90 641.7737,-75.6622 612.1228,-50.4295 594.1967,-33.5878"/>
<polygon fill="#191970" stroke="#191970" points="596.4627,-30.9113 586.8256,-26.5095 591.6143,-35.9604 596.4627,-30.9113"/>
</g>
<!-- Node10&#45;&gt;Node9 -->
<g id="edge35" class="edge">
<title>Node10&#45;&gt;Node9</title>
<path fill="none" stroke="#191970" d="M930.2319,-133.7787C1108.035,-125.2789 1643.9296,-99.3028 1734.7126,-89.4866"/>
<polygon fill="#191970" stroke="#191970" points="1735.1744,-92.9561 1744.6346,-88.1859 1734.2645,-86.0155 1735.1744,-92.9561"/>
</g>
<!-- Node11 -->
<g id="node17" class="node">
<title>Node11</title>
<polygon fill="#ffffff" stroke="#bfbfbf" points="752.667,-69.5 752.667,-89.5 783.333,-89.5 783.333,-69.5 752.667,-69.5"/>
<text text-anchor="middle" x="768" y="-75.9" font-family="Helvetica,sans-Serif" font-size="12.00" fill="#000000">list</text>
</g>
<!-- Node10&#45;&gt;Node11 -->
<g id="edge24" class="edge">
<title>Node10&#45;&gt;Node11</title>
<path fill="none" stroke="#191970" d="M854.2281,-126.3095C836.97,-116.9409 811.2795,-102.9946 792.4288,-92.7614"/>
<polygon fill="#191970" stroke="#191970" points="793.9921,-89.6276 783.5337,-87.9326 790.6524,-95.7795 793.9921,-89.6276"/>
</g>
<!-- Node10&#45;&gt;Node12 -->
<g id="edge25" class="edge">
<title>Node10&#45;&gt;Node12</title>
<path fill="none" stroke="#191970" d="M930.0434,-132.3062C1036.0418,-124.4545 1270.5531,-106.8075 1468,-90 1492.6774,-87.8994 1520.3412,-85.3559 1542.2373,-83.2985"/>
<polygon fill="#191970" stroke="#191970" points="1542.8576,-86.7556 1552.4846,-82.3316 1542.2,-79.7866 1542.8576,-86.7556"/>
</g>
<!-- Node10&#45;&gt;Node13 -->
<g id="edge26" class="edge">
<title>Node10&#45;&gt;Node13</title>
<path fill="none" stroke="#191970" d="M815.648,-128.7534C725.6198,-116.5932 554.0833,-93.4236 483.043,-83.8281"/>
<polygon fill="#191970" stroke="#191970" points="483.3002,-80.3311 472.9216,-82.461 482.3631,-87.2681 483.3002,-80.3311"/>
</g>
<!-- Node10&#45;&gt;Node14 -->
<g id="edge27" class="edge">
<title>Node10&#45;&gt;Node14</title>
<path fill="none" stroke="#191970" d="M815.7801,-132.1455C670.0723,-121.0569 287.7917,-91.9648 163.5942,-82.5132"/>
<polygon fill="#191970" stroke="#191970" points="163.6414,-79.0067 153.4047,-81.7377 163.1102,-85.9866 163.6414,-79.0067"/>
</g>
<!-- Node16 -->
<g id="node21" class="node">
<title>Node16</title>
<polygon fill="#ffffff" stroke="#bfbfbf" points="681.3262,-69.5 681.3262,-89.5 734.6738,-89.5 734.6738,-69.5 681.3262,-69.5"/>
<text text-anchor="middle" x="708" y="-75.9" font-family="Helvetica,sans-Serif" font-size="12.00" fill="#000000">iterator</text>
</g>
<!-- Node10&#45;&gt;Node16 -->
<g id="edge29" class="edge">
<title>Node10&#45;&gt;Node16</title>
<path fill="none" stroke="#191970" d="M843.8811,-126.4408C816.2022,-116.8789 774.4745,-102.4639 744.5673,-92.1324"/>
<polygon fill="#191970" stroke="#191970" points="745.5102,-88.7552 734.9154,-88.7981 743.2245,-95.3715 745.5102,-88.7552"/>
</g>
<!-- Node17 -->
<g id="node22" class="node">
<title>Node17</title>
<polygon fill="#ffffff" stroke="#bfbfbf" points="801.6416,-69.5 801.6416,-89.5 900.3584,-89.5 900.3584,-69.5 801.6416,-69.5"/>
<text text-anchor="middle" x="851" y="-75.9" font-family="Helvetica,sans-Serif" font-size="12.00" fill="#000000">gsl/gsl_vector.h</text>
</g>
<!-- Node10&#45;&gt;Node17 -->
<g id="edge30" class="edge">
<title>Node10&#45;&gt;Node17</title>
<path fill="none" stroke="#191970" d="M869.0668,-126.3095C866.1574,-118.7714 862.1041,-108.2696 858.5738,-99.123"/>
<polygon fill="#191970" stroke="#191970" points="861.7652,-97.6712 854.8991,-89.6022 855.2347,-100.1918 861.7652,-97.6712"/>
</g>
<!-- Node18 -->
<g id="node23" class="node">
<title>Node18</title>
<polygon fill="#ffffff" stroke="#bfbfbf" points="918.3193,-69.5 918.3193,-89.5 1017.6807,-89.5 1017.6807,-69.5 918.3193,-69.5"/>
<text text-anchor="middle" x="968" y="-75.9" font-family="Helvetica,sans-Serif" font-size="12.00" fill="#000000">gsl/gsl_matrix.h</text>
</g>
<!-- Node10&#45;&gt;Node18 -->
<g id="edge31" class="edge">
<title>Node10&#45;&gt;Node18</title>
<path fill="none" stroke="#191970" d="M889.9841,-126.3095C904.5741,-117.5556 925.8252,-104.8049 942.4648,-94.8211"/>
<polygon fill="#191970" stroke="#191970" points="944.3888,-97.7485 951.1629,-89.6022 940.7872,-91.746 944.3888,-97.7485"/>
</g>
<!-- Node19 -->
<g id="node24" class="node">
<title>Node19</title>
<polygon fill="#ffffff" stroke="#bfbfbf" points="1035.6426,-69.5 1035.6426,-89.5 1130.3574,-89.5 1130.3574,-69.5 1035.6426,-69.5"/>
<text text-anchor="middle" x="1083" y="-75.9" font-family="Helvetica,sans-Serif" font-size="12.00" fill="#000000">gsl/gsl_linalg.h</text>
</g>
<!-- Node10&#45;&gt;Node19 -->
<g id="edge32" class="edge">
<title>Node10&#45;&gt;Node19</title>
<path fill="none" stroke="#191970" d="M910.0604,-126.4408C945.1892,-116.9058 998.0981,-102.5448 1036.1388,-92.2195"/>
<polygon fill="#191970" stroke="#191970" points="1037.2235,-95.5518 1045.9575,-89.5544 1035.3898,-88.7962 1037.2235,-95.5518"/>
</g>
<!-- Node20 -->
<g id="node25" class="node">
<title>Node20</title>
<polygon fill="#ffffff" stroke="#bfbfbf" points="1148.6455,-69.5 1148.6455,-89.5 1237.3545,-89.5 1237.3545,-69.5 1148.6455,-69.5"/>
<text text-anchor="middle" x="1193" y="-75.9" font-family="Helvetica,sans-Serif" font-size="12.00" fill="#000000">gsl/gsl_blas.h</text>
</g>
<!-- Node10&#45;&gt;Node20 -->
<g id="edge33" class="edge">
<title>Node10&#45;&gt;Node20</title>
<path fill="none" stroke="#191970" d="M930.1336,-126.835C981.8266,-118.017 1060.318,-104.4465 1138.4896,-90.0681"/>
<polygon fill="#191970" stroke="#191970" points="1139.3165,-93.4747 1148.5159,-88.2191 1138.047,-86.5908 1139.3165,-93.4747"/>
</g>
<!-- Node21 -->
<g id="node26" class="node">
<title>Node21</title>
<polygon fill="#ffffff" stroke="#bfbfbf" points="323.0879,-69.5 323.0879,-89.5 410.9121,-89.5 410.9121,-69.5 323.0879,-69.5"/>
<text text-anchor="middle" x="367" y="-75.9" font-family="Helvetica,sans-Serif" font-size="12.00" fill="#000000">gsl/gsl_poly.h</text>
</g>
<!-- Node10&#45;&gt;Node21 -->
<g id="edge34" class="edge">
<title>Node10&#45;&gt;Node21</title>
<path fill="none" stroke="#191970" d="M815.9333,-132.3601C731.7669,-125.8755 569.2194,-111.9087 421.3602,-90.0917"/>
<polygon fill="#191970" stroke="#191970" points="421.5994,-86.5888 411.1925,-88.5754 420.5669,-93.5122 421.5994,-86.5888"/>
</g>
<!-- Node10&#45;&gt;Node25 -->
<g id="edge38" class="edge">
<title>Node10&#45;&gt;Node25</title>
<path fill="none" stroke="#191970" d="M930.2014,-133.9274C1105.8301,-125.9855 1635.8128,-101.6875 1808,-90 1819.9307,-89.1902 1832.5085,-88.2293 1844.8731,-87.2229"/>
<polygon fill="#191970" stroke="#191970" points="1845.513,-90.6819 1855.1903,-86.369 1844.9356,-83.7058 1845.513,-90.6819"/>
</g>
<!-- Node26 -->
<g id="node28" class="node">
<title>Node26</title>
<g id="a_node28"><a xlink:href="IncludeEigen_8h_source.html" target="_top" xlink:title="IncludeEigen.h">
<polygon fill="#ffffff" stroke="#ff0000" points="1255.3027,-69.5 1255.3027,-89.5 1350.6973,-89.5 1350.6973,-69.5 1255.3027,-69.5"/>
<text text-anchor="middle" x="1303" y="-75.9" font-family="Helvetica,sans-Serif" font-size="12.00" fill="#000000">IncludeEigen.h</text>
</a>
</g>
</g>
<!-- Node10&#45;&gt;Node26 -->
<g id="edge39" class="edge">
<title>Node10&#45;&gt;Node26</title>
<path fill="none" stroke="#191970" d="M930.3316,-127.8798C934.9539,-127.228 939.5537,-126.5937 944,-126 1074.7124,-108.5474 1110.616,-110.1616 1244.8757,-90.0918"/>
<polygon fill="#191970" stroke="#191970" points="1245.7768,-93.4956 1255.1431,-88.5436 1244.733,-86.5738 1245.7768,-93.4956"/>
</g>
<!-- Node40&#45;&gt;Node1 -->
<g id="edge45" class="edge">
<title>Node40&#45;&gt;Node1</title>
<path fill="none" stroke="#191970" d="M1767.264,-309.4892C1875.5749,-285.4246 2135.811,-220.8233 2180,-147 2197.8062,-117.2525 2204.3033,-94.6696 2181,-69 2151.4852,-36.4882 1879.3355,-23.5149 1732.2792,-18.8443"/>
<polygon fill="#191970" stroke="#191970" points="1732.0163,-15.3345 1721.9124,-18.5222 1731.7988,-22.3312 1732.0163,-15.3345"/>
</g>
<!-- Node40&#45;&gt;Node25 -->
<g id="edge47" class="edge">
<title>Node40&#45;&gt;Node25</title>
<path fill="none" stroke="#191970" d="M1723.5969,-309.2386C1737.313,-270.2086 1785.9182,-132.8482 1793,-126 1809.7508,-109.8017 1832.3526,-99.237 1854.3649,-92.3499"/>
<polygon fill="#191970" stroke="#191970" points="1855.4514,-95.679 1864.0776,-89.5277 1853.4982,-88.9571 1855.4514,-95.679"/>
</g>
<!-- Node29 -->
<g id="node31" class="node">
<title>Node29</title>
<polygon fill="#ffffff" stroke="#bfbfbf" points="1678.6611,-246.5 1678.6611,-266.5 1727.3389,-266.5 1727.3389,-246.5 1678.6611,-246.5"/>
<text text-anchor="middle" x="1703" y="-252.9" font-family="Helvetica,sans-Serif" font-size="12.00" fill="#000000">cmath</text>
</g>
<!-- Node40&#45;&gt;Node29 -->
<g id="edge46" class="edge">
<title>Node40&#45;&gt;Node29</title>
<path fill="none" stroke="#191970" d="M1717.2687,-309.378C1714.9034,-300.6128 1711.4099,-287.6662 1708.4718,-276.7777"/>
<polygon fill="#191970" stroke="#191970" points="1711.7655,-275.549 1705.781,-266.8062 1705.0072,-277.3727 1711.7655,-275.549"/>
</g>
<!-- Node41&#45;&gt;Node1 -->
<g id="edge54" class="edge">
<title>Node41&#45;&gt;Node1</title>
<path fill="none" stroke="#191970" d="M756.9771,-246.4322C662.5839,-221.5285 444.0996,-152.9363 525,-69 562.6925,-29.8931 1447.852,-37.251 1502,-33 1516.2627,-31.8803 1531.3263,-30.3851 1546.0411,-28.7505"/>
<polygon fill="#191970" stroke="#191970" points="1546.6181,-32.2075 1556.1584,-27.5995 1545.8268,-25.2524 1546.6181,-32.2075"/>
</g>
<!-- Node41&#45;&gt;Node37 -->
<g id="edge55" class="edge">
<title>Node41&#45;&gt;Node37</title>
<path fill="none" stroke="#191970" d="M812.9421,-246.378C827.7208,-236.3666 850.5519,-220.9003 867.7114,-209.2762"/>
<polygon fill="#191970" stroke="#191970" points="869.7788,-212.1032 876.095,-203.5969 865.8528,-206.3077 869.7788,-212.1032"/>
</g>
<!-- Node45&#45;&gt;Node1 -->
<g id="edge69" class="edge">
<title>Node45&#45;&gt;Node1</title>
<path fill="none" stroke="#191970" d="M517.0286,-488.3891C440.6536,-483.9717 284.9712,-471.7675 239,-444 207.2682,-424.8333 190,-413.5712 190,-376.5 190,-376.5 190,-376.5 190,-256.5 190,-158.5081 221.1281,-117.9815 306,-69 363.5743,-35.7726 1435.7122,-37.9793 1502,-33 1516.2664,-31.9284 1531.332,-30.4588 1546.0476,-28.8353"/>
<polygon fill="#191970" stroke="#191970" points="1546.6226,-32.2926 1556.1653,-27.6897 1545.835,-25.3371 1546.6226,-32.2926"/>
</g>
<!-- Node45&#45;&gt;Node3 -->
<g id="edge73" class="edge">
<title>Node45&#45;&gt;Node3</title>
<path fill="none" stroke="#191970" d="M602.7077,-480.4408C643.6201,-470.8043 705.4602,-456.2387 749.3913,-445.8913"/>
<polygon fill="#191970" stroke="#191970" points="750.3817,-449.2539 759.3129,-443.5544 748.7768,-442.4403 750.3817,-449.2539"/>
</g>
<!-- Node45&#45;&gt;Node15 -->
<g id="edge95" class="edge">
<title>Node45&#45;&gt;Node15</title>
<path fill="none" stroke="#191970" d="M517.1696,-488.7846C426.5377,-484.6419 218.3935,-472.2709 154,-444 112.0223,-425.5704 76,-422.3451 76,-376.5 76,-376.5 76,-376.5 76,-193.5 76,-137.9885 47.2684,-108.7667 86,-69 117.1459,-37.0218 422.6251,-22.3264 535.4265,-17.9591"/>
<polygon fill="#191970" stroke="#191970" points="535.8654,-21.445 545.7256,-17.5684 535.6001,-14.4501 535.8654,-21.445"/>
</g>
<!-- Node45&#45;&gt;Node36 -->
<g id="edge74" class="edge">
<title>Node45&#45;&gt;Node36</title>
<path fill="none" stroke="#191970" d="M602.7579,-487.2666C745.8796,-476.0111 1201.4978,-436.521 1243,-387 1276.5285,-346.9933 1211.0456,-296.9828 1171.6941,-272.0863"/>
<polygon fill="#191970" stroke="#191970" points="1173.1471,-268.8703 1162.7982,-266.6008 1169.473,-274.8286 1173.1471,-268.8703"/>
</g>
<!-- Node45&#45;&gt;Node10 -->
<g id="edge71" class="edge">
<title>Node45&#45;&gt;Node10</title>
<path fill="none" stroke="#191970" d="M517.2862,-482.8629C473.4013,-474.3307 408.7882,-459.6482 389,-444 317.7972,-387.6941 329.5793,-298.489 399,-240 459.9651,-188.6351 689.9183,-156.6437 805.6284,-143.4583"/>
<polygon fill="#191970" stroke="#191970" points="806.2391,-146.9117 815.7852,-142.3158 805.4566,-139.9556 806.2391,-146.9117"/>
</g>
<!-- Node45&#45;&gt;Node11 -->
<g id="edge91" class="edge">
<title>Node45&#45;&gt;Node11</title>
<path fill="none" stroke="#191970" d="M527.882,-480.4636C489.2834,-466.4704 426.3077,-437.0186 399,-387 394.5276,-378.808 394.7628,-374.3161 399,-366 430.9238,-303.3449 471.1232,-315.6916 527,-273 610.3934,-209.2849 707.0355,-129.9787 748.0035,-96.0969"/>
<polygon fill="#191970" stroke="#191970" points="750.4058,-98.6518 755.8758,-89.5783 745.9414,-93.2603 750.4058,-98.6518"/>
</g>
<!-- Node45&#45;&gt;Node13 -->
<g id="edge100" class="edge">
<title>Node45&#45;&gt;Node13</title>
<path fill="none" stroke="#191970" d="M517.0743,-488.7218C448.4894,-485.0056 318.4973,-474.0957 285,-444 261.8168,-423.171 266,-407.6658 266,-376.5 266,-376.5 266,-376.5 266,-319.5 266,-265.1681 386.433,-142.273 432.9589,-96.8231"/>
<polygon fill="#191970" stroke="#191970" points="435.5169,-99.2178 440.254,-89.7409 430.641,-94.1953 435.5169,-99.2178"/>
</g>
<!-- Node45&#45;&gt;Node14 -->
<g id="edge99" class="edge">
<title>Node45&#45;&gt;Node14</title>
<path fill="none" stroke="#191970" d="M517.0327,-487.8331C422.3943,-481.6007 202.2497,-465.0042 176,-444 151.1393,-424.1072 152,-408.3399 152,-376.5 152,-376.5 152,-376.5 152,-193.5 152,-159.5444 140.1397,-121.4991 131.8572,-99.0706"/>
<polygon fill="#191970" stroke="#191970" points="135.1003,-97.7524 128.2526,-89.6678 128.5641,-100.2581 135.1003,-97.7524"/>
</g>
<!-- Node45&#45;&gt;Node21 -->
<g id="edge98" class="edge">
<title>Node45&#45;&gt;Node21</title>
<path fill="none" stroke="#191970" d="M517.2317,-488.2691C445.7453,-483.8073 305.8854,-471.7261 266,-444 237.7318,-424.3495 228,-410.9272 228,-376.5 228,-376.5 228,-376.5 228,-319.5 228,-224.6493 310.303,-133.6652 348.2471,-96.7589"/>
<polygon fill="#191970" stroke="#191970" points="350.8041,-99.1569 355.625,-89.7224 345.9729,-94.0913 350.8041,-99.1569"/>
</g>
<!-- Node45&#45;&gt;Node25 -->
<g id="edge70" class="edge">
<title>Node45&#45;&gt;Node25</title>
<path fill="none" stroke="#191970" d="M602.6985,-489.4975C777.8221,-485.2592 1441.5989,-467.9224 1650,-444 1786.1348,-428.373 1865.52,-492.4711 1953,-387 2023.9702,-301.4341 1964.671,-152.3554 1939.7436,-99.1019"/>
<polygon fill="#191970" stroke="#191970" points="1942.7492,-97.2754 1935.2652,-89.7761 1936.4391,-100.3057 1942.7492,-97.2754"/>
</g>
<!-- Node45&#45;&gt;Node31 -->
<g id="edge92" class="edge">
<title>Node45&#45;&gt;Node31</title>
<path fill="none" stroke="#191970" d="M602.7717,-489.0777C728.0782,-484.6513 1092.8057,-469.846 1209,-444 1290.7791,-425.8093 1385,-460.2778 1385,-376.5 1385,-376.5 1385,-376.5 1385,-256.5 1385,-221.1913 1378.9463,-180.4301 1374.8004,-156.6549"/>
<polygon fill="#191970" stroke="#191970" points="1378.2288,-155.9443 1373.0059,-146.7263 1371.3404,-157.1894 1378.2288,-155.9443"/>
</g>
<!-- Node45&#45;&gt;Node40 -->
<g id="edge72" class="edge">
<title>Node45&#45;&gt;Node40</title>
<path fill="none" stroke="#191970" d="M602.8733,-489.6272C795.9086,-485.5702 1576.983,-467.742 1623,-444 1667.2418,-421.1739 1697.544,-368.0375 1711.4084,-339.1118"/>
<polygon fill="#191970" stroke="#191970" points="1714.7615,-340.1982 1715.768,-329.6513 1708.404,-337.2685 1714.7615,-340.1982"/>
</g>
<!-- Node45&#45;&gt;Node42 -->
<g id="edge97" class="edge">
<title>Node45&#45;&gt;Node42</title>
<path fill="none" stroke="#191970" d="M550.682,-480.3833C532.8252,-460.9959 493.5837,-418.3909 471.2998,-394.1969"/>
<polygon fill="#191970" stroke="#191970" points="473.7973,-391.7422 464.4481,-386.7579 468.6485,-396.4846 473.7973,-391.7422"/>
</g>
<!-- Node45&#45;&gt;Node43 -->
<g id="edge96" class="edge">
<title>Node45&#45;&gt;Node43</title>
<path fill="none" stroke="#191970" d="M560.9762,-480.3833C562.7818,-461.6703 566.6746,-421.3266 569.0425,-396.7866"/>
<polygon fill="#191970" stroke="#191970" points="572.5335,-397.0479 570.0102,-386.7579 565.5658,-396.3755 572.5335,-397.0479"/>
</g>
<!-- Node46 -->
<g id="node37" class="node">
<title>Node46</title>
<g id="a_node37"><a xlink:href="ExternalStoppingConditions_8h.html" target="_top" xlink:title="Users can define any stopping condition they wish the evolution to search for in this file...">
<polygon fill="#ffffff" stroke="#000000" points="1059.9482,-366.5 1059.9482,-386.5 1234.0518,-386.5 1234.0518,-366.5 1059.9482,-366.5"/>
<text text-anchor="middle" x="1147" y="-372.9" font-family="Helvetica,sans-Serif" font-size="12.00" fill="#000000">ExternalStoppingConditions.h</text>
</a>
</g>
</g>
<!-- Node45&#45;&gt;Node46 -->
<g id="edge75" class="edge">
<title>Node45&#45;&gt;Node46</title>
<path fill="none" stroke="#191970" d="M603.0511,-484.9318C661.6406,-477.1075 769.6561,-461.8063 861,-444 945.3201,-427.5629 1042.4553,-403.5447 1099.0645,-389.0304"/>
<polygon fill="#191970" stroke="#191970" points="1099.999,-392.404 1108.8114,-386.5225 1098.2546,-385.6249 1099.999,-392.404"/>
</g>
<!-- Node47 -->
<g id="node38" class="node">
<title>Node47</title>
<g id="a_node38"><a xlink:href="StopInformation_8h.html" target="_top" xlink:title="Declares the StopInformation class. ">
<polygon fill="#ffffff" stroke="#000000" points="407.6387,-246.5 407.6387,-266.5 518.3613,-266.5 518.3613,-246.5 407.6387,-246.5"/>
<text text-anchor="middle" x="463" y="-252.9" font-family="Helvetica,sans-Serif" font-size="12.00" fill="#000000">StopInformation.h</text>
</a>
</g>
</g>
<!-- Node45&#45;&gt;Node47 -->
<g id="edge79" class="edge">
<title>Node45&#45;&gt;Node47</title>
<path fill="none" stroke="#191970" d="M517.1785,-482.8522C468.923,-471.5526 393.6131,-445.0947 366,-387 344.1592,-341.0496 401.1468,-295.1185 436.7958,-271.954"/>
<polygon fill="#191970" stroke="#191970" points="438.7453,-274.8625 445.3384,-266.5691 435.0124,-268.9409 438.7453,-274.8625"/>
</g>
<!-- Node48 -->
<g id="node39" class="node">
<title>Node48</title>
<g id="a_node39"><a xlink:href="StopHistoryInterval_8h.html" target="_top" xlink:title="Declares the StopHistoryInterval class. ">
<polygon fill="#ffffff" stroke="#000000" points="1125.3096,-126.5 1125.3096,-146.5 1252.6904,-146.5 1252.6904,-126.5 1125.3096,-126.5"/>
<text text-anchor="middle" x="1189" y="-132.9" font-family="Helvetica,sans-Serif" font-size="12.00" fill="#000000">StopHistoryInterval.h</text>
</a>
</g>
</g>
<!-- Node45&#45;&gt;Node48 -->
<g id="edge82" class="edge">
<title>Node45&#45;&gt;Node48</title>
<path fill="none" stroke="#191970" d="M602.9369,-488.777C766.036,-481.6709 1338,-451.4108 1338,-376.5 1338,-376.5 1338,-376.5 1338,-319.5 1338,-242.4276 1257.5414,-179.8088 1214.8727,-152.0197"/>
<polygon fill="#191970" stroke="#191970" points="1216.7012,-149.0348 1206.3838,-146.6259 1212.947,-154.943 1216.7012,-149.0348"/>
</g>
<!-- Node49 -->
<g id="node41" class="node">
<title>Node49</title>
<polygon fill="#ffffff" stroke="#bfbfbf" points="293.6572,-423.5 293.6572,-443.5 346.3428,-443.5 346.3428,-423.5 293.6572,-423.5"/>
<text text-anchor="middle" x="320" y="-429.9" font-family="Helvetica,sans-Serif" font-size="12.00" fill="#000000">math.h</text>
</g>
<!-- Node45&#45;&gt;Node49 -->
<g id="edge90" class="edge">
<title>Node45&#45;&gt;Node49</title>
<path fill="none" stroke="#191970" d="M517.0007,-480.872C476.442,-471.7032 413.9833,-457.358 360,-444 358.9197,-443.7327 357.8236,-443.4593 356.7176,-443.1814"/>
<polygon fill="#191970" stroke="#191970" points="357.2086,-439.6945 346.6533,-440.6086 355.4748,-446.4764 357.2086,-439.6945"/>
</g>
<!-- Node50 -->
<g id="node42" class="node">
<title>Node50</title>
<polygon fill="#ffffff" stroke="#bfbfbf" points="587.9893,-423.5 587.9893,-443.5 642.0107,-443.5 642.0107,-423.5 587.9893,-423.5"/>
<text text-anchor="middle" x="615" y="-429.9" font-family="Helvetica,sans-Serif" font-size="12.00" fill="#000000">stdlib.h</text>
</g>
<!-- Node45&#45;&gt;Node50 -->
<g id="edge93" class="edge">
<title>Node45&#45;&gt;Node50</title>
<path fill="none" stroke="#191970" d="M569.8329,-480.3095C577.654,-472.204 588.7815,-460.672 598.0344,-451.0826"/>
<polygon fill="#191970" stroke="#191970" points="600.8272,-453.2288 605.2522,-443.6022 595.7898,-448.3681 600.8272,-453.2288"/>
</g>
<!-- Node32 -->
<g id="node43" class="node">
<title>Node32</title>
<polygon fill="#ffffff" stroke="#bfbfbf" points="1834.9961,-126.5 1834.9961,-146.5 1891.0039,-146.5 1891.0039,-126.5 1834.9961,-126.5"/>
<text text-anchor="middle" x="1863" y="-132.9" font-family="Helvetica,sans-Serif" font-size="12.00" fill="#000000">fstream</text>
</g>
<!-- Node45&#45;&gt;Node32 -->
<g id="edge94" class="edge">
<title>Node45&#45;&gt;Node32</title>
<path fill="none" stroke="#191970" d="M602.8851,-489.9747C739.9417,-487.9559 1166.1308,-478.9552 1299,-444 1411.2651,-414.4653 1432.1679,-385.7313 1534,-330 1576.5268,-306.7257 1587.0491,-300.4618 1627,-273 1646.8525,-259.3536 1649.7627,-253.0689 1670,-240 1725.0612,-204.4424 1793.4854,-169.8398 1832.3067,-151.0303"/>
<polygon fill="#191970" stroke="#191970" points="1834.0211,-154.0894 1841.5125,-146.5975 1830.9842,-147.7825 1834.0211,-154.0894"/>
</g>
<!-- Node46&#45;&gt;Node1 -->
<g id="edge76" class="edge">
<title>Node46&#45;&gt;Node1</title>
<path fill="none" stroke="#191970" d="M1125.933,-366.4264C1107.1286,-357.2993 1078.9432,-343.2844 1055,-330 1012.2767,-306.2959 1000.4763,-301.7886 961,-273 942.927,-259.82 942.3484,-251.2242 923,-240 881.0538,-215.6665 864.7541,-222.6728 820,-204 800.3716,-195.8104 796.6159,-191.2195 777,-183 732.6612,-164.421 708.694,-181.2903 675,-147 649.9925,-121.5499 631.3123,-94.7605 656,-69 688.5493,-35.0362 1455.1124,-36.8154 1502,-33 1516.2595,-31.8397 1531.3214,-30.3228 1546.0354,-28.6789"/>
<polygon fill="#191970" stroke="#191970" points="1546.6141,-32.1356 1556.1523,-27.5233 1545.8197,-25.1808 1546.6141,-32.1356"/>
</g>
<!-- Node46&#45;&gt;Node5 -->
<g id="edge78" class="edge">
<title>Node46&#45;&gt;Node5</title>
<path fill="none" stroke="#191970" d="M1203.8259,-366.4408C1259.4653,-356.5915 1344.1938,-341.593 1402.837,-331.2121"/>
<polygon fill="#191970" stroke="#191970" points="1403.5053,-334.6483 1412.7421,-329.4587 1402.2851,-327.7554 1403.5053,-334.6483"/>
</g>
<!-- Node46&#45;&gt;Node37 -->
<g id="edge77" class="edge">
<title>Node46&#45;&gt;Node37</title>
<path fill="none" stroke="#191970" d="M1133.6205,-366.3478C1103.2575,-343.3827 1026.6734,-285.8735 961,-240 946.0341,-229.5461 928.9752,-218.2027 915.4447,-209.3366"/>
<polygon fill="#191970" stroke="#191970" points="916.9973,-206.1705 906.7101,-203.6358 913.1713,-212.0324 916.9973,-206.1705"/>
</g>
<!-- Node47&#45;&gt;Node1 -->
<g id="edge80" class="edge">
<title>Node47&#45;&gt;Node1</title>
<path fill="none" stroke="#191970" d="M450.65,-246.3208C409.7142,-212.0408 282.8043,-101.1554 314,-69 359.9779,-21.6077 1436.1557,-37.9527 1502,-33 1516.2663,-31.9269 1531.3318,-30.4566 1546.0474,-28.8327"/>
<polygon fill="#191970" stroke="#191970" points="1546.6225,-32.2901 1556.1651,-27.687 1545.8348,-25.3345 1546.6225,-32.2901"/>
</g>
<!-- Node47&#45;&gt;Node37 -->
<g id="edge81" class="edge">
<title>Node47&#45;&gt;Node37</title>
<path fill="none" stroke="#191970" d="M518.5147,-248.3284C595.2389,-237.0349 733.7969,-216.6397 818.5794,-204.16"/>
<polygon fill="#191970" stroke="#191970" points="819.2607,-207.5976 828.6444,-202.6785 818.2413,-200.6722 819.2607,-207.5976"/>
</g>
<!-- Node48&#45;&gt;Node1 -->
<g id="edge83" class="edge">
<title>Node48&#45;&gt;Node1</title>
<path fill="none" stroke="#191970" d="M1252.8057,-127.5559C1340.6335,-115.1622 1489.3308,-93.8499 1501,-90 1511.4265,-86.5601 1563.7926,-58.1116 1600.9232,-37.6387"/>
<polygon fill="#191970" stroke="#191970" points="1602.9386,-40.524 1610.0002,-32.6256 1599.5544,-34.3964 1602.9386,-40.524"/>
</g>
<!-- Node48&#45;&gt;Node22 -->
<g id="edge84" class="edge">
<title>Node48&#45;&gt;Node22</title>
<path fill="none" stroke="#191970" d="M1234.8774,-126.4909C1276.289,-117.3496 1338.8446,-103.2763 1393,-90 1394.2552,-89.6923 1395.5316,-89.3759 1396.8201,-89.0537"/>
<polygon fill="#191970" stroke="#191970" points="1397.9563,-92.376 1406.7811,-86.5131 1396.2263,-85.5932 1397.9563,-92.376"/>
</g>
<!-- Node48&#45;&gt;Node8 -->
<g id="edge87" class="edge">
<title>Node48&#45;&gt;Node8</title>
<path fill="none" stroke="#191970" d="M1252.8295,-127.7374C1257.6225,-127.1315 1262.3865,-126.5456 1267,-126 1423.6112,-107.4779 1463.4048,-108.6565 1620,-90 1632.0196,-88.568 1645.0719,-86.8501 1656.9567,-85.2225"/>
<polygon fill="#191970" stroke="#191970" points="1657.6199,-88.6641 1667.045,-83.8249 1656.6593,-81.7303 1657.6199,-88.6641"/>
</g>
<!-- Node48&#45;&gt;Node9 -->
<g id="edge88" class="edge">
<title>Node48&#45;&gt;Node9</title>
<path fill="none" stroke="#191970" d="M1252.815,-127.6071C1257.6113,-127.0314 1262.38,-126.4879 1267,-126 1471.6532,-104.3887 1528.5582,-126.748 1734.693,-89.9187"/>
<polygon fill="#191970" stroke="#191970" points="1735.4071,-93.3464 1744.6229,-88.1198 1734.1592,-86.4585 1735.4071,-93.3464"/>
</g>
<!-- Node48&#45;&gt;Node11 -->
<g id="edge86" class="edge">
<title>Node48&#45;&gt;Node11</title>
<path fill="none" stroke="#191970" d="M1125.2278,-134.5022C1046.1108,-130.7781 907.6422,-120.161 793,-90 792.9004,-89.9738 792.8007,-89.9473 792.7009,-89.9204"/>
<polygon fill="#191970" stroke="#191970" points="793.9621,-86.6526 783.3677,-86.7463 791.7082,-93.2798 793.9621,-86.6526"/>
</g>
<!-- Node48&#45;&gt;Node12 -->
<g id="edge85" class="edge">
<title>Node48&#45;&gt;Node12</title>
<path fill="none" stroke="#191970" d="M1252.8492,-127.8932C1257.6376,-127.2513 1262.3951,-126.6147 1267,-126 1387.871,-109.8657 1419.1499,-112.4962 1539,-90 1540.0951,-89.7944 1541.2042,-89.5785 1542.322,-89.354"/>
<polygon fill="#191970" stroke="#191970" points="1543.4513,-92.6905 1552.483,-87.1517 1541.9685,-85.8494 1543.4513,-92.6905"/>
</g>
<!-- Node33 -->
<g id="node40" class="node">
<title>Node33</title>
<polygon fill="#ffffff" stroke="#bfbfbf" points="2022.9883,-69.5 2022.9883,-89.5 2081.0117,-89.5 2081.0117,-69.5 2022.9883,-69.5"/>
<text text-anchor="middle" x="2052" y="-75.9" font-family="Helvetica,sans-Serif" font-size="12.00" fill="#000000">iomanip</text>
</g>
<!-- Node48&#45;&gt;Node33 -->
<g id="edge89" class="edge">
<title>Node48&#45;&gt;Node33</title>
<path fill="none" stroke="#191970" d="M1252.7904,-131.7633C1279.1601,-129.8681 1310.0466,-127.7291 1338,-126 1634.9237,-107.633 1715.2434,-137.6605 2012.4687,-89.933"/>
<polygon fill="#191970" stroke="#191970" points="2013.3704,-93.3326 2022.6809,-88.2764 2012.2495,-86.4229 2013.3704,-93.3326"/>
</g>
<!-- Node51&#45;&gt;Node1 -->
<g id="edge115" class="edge">
<title>Node51&#45;&gt;Node1</title>
<path fill="none" stroke="#191970" d="M2295.8064,-594.1985C2305.0893,-585.4624 2317.6432,-572.1284 2325,-558 2401.9692,-410.1845 2413,-360.1544 2413,-193.5 2413,-193.5 2413,-193.5 2413,-136.5 2413,-101.1667 2401.2529,-87.2539 2371,-69 2317.5674,-36.76 1917.1813,-23.1179 1732.1961,-18.4904"/>
<polygon fill="#191970" stroke="#191970" points="1732.0224,-14.9851 1721.9392,-18.2375 1731.8498,-21.983 1732.0224,-14.9851"/>
</g>
<!-- Node51&#45;&gt;Node7 -->
<g id="edge122" class="edge">
<title>Node51&#45;&gt;Node7</title>
<path fill="none" stroke="#191970" d="M2225.6163,-595.2246C2146.9302,-581.384 2003.6167,-551.4072 1890,-501 1762.8962,-444.6092 1695.2794,-451.6914 1628,-330 1596.77,-273.5128 1615.772,-192.8829 1627.2159,-156.1207"/>
<polygon fill="#191970" stroke="#191970" points="1630.5536,-157.1743 1630.3283,-146.5818 1623.8989,-155.0029 1630.5536,-157.1743"/>
</g>
<!-- Node52 -->
<g id="node45" class="node">
<title>Node52</title>
<g id="a_node45"><a xlink:href="StellarEvolution_2CInterface_8h.html" target="_top" xlink:title="Declare C&#45;style functions for accessing the functionality of the StellarEvolution library...">
<polygon fill="#ffffff" stroke="#000000" points="2275.3096,-240.5 2275.3096,-272.5 2384.6904,-272.5 2384.6904,-240.5 2275.3096,-240.5"/>
<text text-anchor="start" x="2283.3096" y="-258.9" font-family="Helvetica,sans-Serif" font-size="12.00" fill="#000000">../StellarEvolution</text>
<text text-anchor="middle" x="2330" y="-246.9" font-family="Helvetica,sans-Serif" font-size="12.00" fill="#000000">/CInterface.h</text>
</a>
</g>
</g>
<!-- Node51&#45;&gt;Node52 -->
<g id="edge102" class="edge">
<title>Node51&#45;&gt;Node52</title>
<path fill="none" stroke="#191970" d="M2290.0938,-594.2179C2301.0625,-574.7061 2323,-530.6622 2323,-490.5 2323,-490.5 2323,-490.5 2323,-376.5 2323,-344.2871 2325.545,-307.2926 2327.5659,-282.9944"/>
<polygon fill="#191970" stroke="#191970" points="2331.0739,-283.0503 2328.4465,-272.7865 2324.0998,-282.4486 2331.0739,-283.0503"/>
</g>
<!-- Node80 -->
<g id="node47" class="node">
<title>Node80</title>
<g id="a_node47"><a xlink:href="EvolvingStar_8h.html" target="_top" xlink:title="Declares the class for stars that user pre&#45;tabulated stellar evolution tracks. ">
<polygon fill="#ffffff" stroke="#ff0000" points="2200.6416,-537.5 2200.6416,-557.5 2293.3584,-557.5 2293.3584,-537.5 2200.6416,-537.5"/>
<text text-anchor="middle" x="2247" y="-543.9" font-family="Helvetica,sans-Serif" font-size="12.00" fill="#000000">EvolvingStar.h</text>
</a>
</g>
</g>
<!-- Node51&#45;&gt;Node80 -->
<g id="edge116" class="edge">
<title>Node51&#45;&gt;Node80</title>
<path fill="none" stroke="#191970" d="M2277.3851,-594.3095C2272.3341,-586.5282 2265.2332,-575.589 2259.166,-566.2423"/>
<polygon fill="#191970" stroke="#191970" points="2261.9381,-564.0844 2253.5576,-557.6022 2256.0666,-567.8957 2261.9381,-564.0844"/>
</g>
<!-- Node52&#45;&gt;Node1 -->
<g id="edge103" class="edge">
<title>Node52&#45;&gt;Node1</title>
<path fill="none" stroke="#191970" d="M2338.9758,-240.3989C2357.6897,-204.4394 2395.5877,-116.9964 2351,-69 2330.2394,-46.6522 1920.3032,-27.6269 1732.0639,-20.0312"/>
<polygon fill="#191970" stroke="#191970" points="1732.035,-16.5274 1721.9027,-19.6237 1731.7543,-23.5217 1732.035,-16.5274"/>
</g>
<!-- Node53 -->
<g id="node46" class="node">
<title>Node53</title>
<g id="a_node46"><a xlink:href="MESAIO_8h.html" target="_top" xlink:title="Defines the classes for generating stellar evolution interpolators from the MESA tracks. ">
<polygon fill="#ffffff" stroke="#ff0000" points="1996.6582,-183.5 1996.6582,-203.5 2069.3418,-203.5 2069.3418,-183.5 1996.6582,-183.5"/>
<text text-anchor="middle" x="2033" y="-189.9" font-family="Helvetica,sans-Serif" font-size="12.00" fill="#000000">MESAIO.h</text>
</a>
</g>
</g>
<!-- Node52&#45;&gt;Node53 -->
<g id="edge104" class="edge">
<title>Node52&#45;&gt;Node53</title>
<path fill="none" stroke="#191970" d="M2275.1795,-244.8714C2218.9656,-232.9472 2132.4809,-214.602 2079.5039,-203.3645"/>
<polygon fill="#191970" stroke="#191970" points="2080.2042,-199.9352 2069.6955,-201.2839 2078.7516,-206.7828 2080.2042,-199.9352"/>
</g>
<!-- Node53&#45;&gt;Node1 -->
<g id="edge105" class="edge">
<title>Node53&#45;&gt;Node1</title>
<path fill="none" stroke="#191970" d="M2069.559,-185.1614C2103.4494,-176.6033 2150.2142,-162.3938 2161,-147 2180.8926,-118.6088 2184.2542,-94.7103 2161,-69 2132.8267,-37.8511 1874.2697,-24.3339 1731.9377,-19.2112"/>
<polygon fill="#191970" stroke="#191970" points="1732.0127,-15.7118 1721.8954,-18.8568 1731.7657,-22.7074 1732.0127,-15.7118"/>
</g>
<!-- Node53&#45;&gt;Node22 -->
<g id="edge108" class="edge">
<title>Node53&#45;&gt;Node22</title>
<path fill="none" stroke="#191970" d="M2009.1293,-183.4571C1988.593,-174.5688 1958.3579,-160.8858 1933,-147 1917.7519,-138.6503 1916.4296,-131.6824 1900,-126 1894.9,-124.2361 1578.1542,-93.5209 1469.2814,-83.001"/>
<polygon fill="#191970" stroke="#191970" points="1469.406,-79.4968 1459.1157,-82.0191 1468.7329,-86.4644 1469.406,-79.4968"/>
</g>
<!-- Node53&#45;&gt;Node15 -->
<g id="edge109" class="edge">
<title>Node53&#45;&gt;Node15</title>
<path fill="none" stroke="#191970" d="M2044.3593,-183.4884C2069.1251,-160.518 2123.1961,-103.3679 2090,-69 2076.843,-55.3786 860.023,-23.7054 618.4264,-17.5478"/>
<polygon fill="#191970" stroke="#191970" points="618.3912,-14.0459 608.3053,-17.2903 618.213,-21.0436 618.3912,-14.0459"/>
</g>
<!-- Node53&#45;&gt;Node24 -->
<g id="edge112" class="edge">
<title>Node53&#45;&gt;Node24</title>
<path fill="none" stroke="#191970" d="M2069.6782,-184.51C2089.1429,-177.6705 2111.3834,-166.0774 2123,-147 2141.0297,-117.3907 2146.7362,-94.266 2123,-69 2079.0938,-22.264 1610.5262,-41.7422 1547,-33 1532.3218,-30.9801 1516.2717,-27.7133 1502.6418,-24.6174"/>
<polygon fill="#191970" stroke="#191970" points="1503.2876,-21.174 1492.7534,-22.3067 1501.6947,-27.9904 1503.2876,-21.174"/>
</g>
<!-- Node53&#45;&gt;Node9 -->
<g id="edge113" class="edge">
<title>Node53&#45;&gt;Node9</title>
<path fill="none" stroke="#191970" d="M2020.8226,-183.4082C2002.7165,-168.8546 1967.1525,-141.9724 1933,-126 1892.5176,-107.0672 1842.65,-94.1131 1809.2355,-86.7795"/>
<polygon fill="#191970" stroke="#191970" points="1809.9329,-83.3495 1799.4223,-84.6836 1808.4707,-90.1951 1809.9329,-83.3495"/>
</g>
<!-- Node53&#45;&gt;Node10 -->
<g id="edge106" class="edge">
<title>Node53&#45;&gt;Node10</title>
<path fill="none" stroke="#191970" d="M1996.3676,-191.7C1831.5433,-183.6008 1157.313,-150.4706 940.4942,-139.8165"/>
<polygon fill="#191970" stroke="#191970" points="940.3736,-136.3065 930.2138,-139.3114 940.03,-143.298 940.3736,-136.3065"/>
</g>
<!-- Node53&#45;&gt;Node25 -->
<g id="edge107" class="edge">
<title>Node53&#45;&gt;Node25</title>
<path fill="none" stroke="#191970" d="M2031.5993,-183.274C2029.1925,-169.0364 2023.0956,-143.0715 2009,-126 1997.5878,-112.1785 1980.9267,-101.5183 1965.8439,-93.913"/>
<polygon fill="#191970" stroke="#191970" points="1967.2516,-90.7068 1956.7177,-89.5714 1964.2444,-97.0279 1967.2516,-90.7068"/>
</g>
<!-- Node53&#45;&gt;Node31 -->
<g id="edge114" class="edge">
<title>Node53&#45;&gt;Node31</title>
<path fill="none" stroke="#191970" d="M1996.465,-190.3542C1880.1394,-180.3383 1519.3867,-149.2765 1405.6896,-139.4869"/>
<polygon fill="#191970" stroke="#191970" points="1405.7378,-135.9782 1395.4744,-138.6073 1405.1373,-142.9524 1405.7378,-135.9782"/>
</g>
<!-- Node53&#45;&gt;Node33 -->
<g id="edge110" class="edge">
<title>Node53&#45;&gt;Node33</title>
<path fill="none" stroke="#191970" d="M2036.7701,-183.3166C2040.049,-174.0004 2044.6348,-159.7663 2047,-147 2049.9099,-131.2935 2051.1393,-113.2347 2051.6524,-99.7505"/>
<polygon fill="#191970" stroke="#191970" points="2055.1538,-99.7461 2051.9361,-89.6517 2048.1566,-99.5495 2055.1538,-99.7461"/>
</g>
<!-- Node53&#45;&gt;Node32 -->
<g id="edge111" class="edge">
<title>Node53&#45;&gt;Node32</title>
<path fill="none" stroke="#191970" d="M2002.9987,-183.4408C1974.4431,-173.8662 1931.3744,-159.4255 1900.5524,-149.0911"/>
<polygon fill="#191970" stroke="#191970" points="1901.6034,-145.7521 1891.0095,-145.8914 1899.3781,-152.3889 1901.6034,-145.7521"/>
</g>
<!-- Node80&#45;&gt;Node1 -->
<g id="edge117" class="edge">
<title>Node80&#45;&gt;Node1</title>
<path fill="none" stroke="#191970" d="M2247,-537.4352C2247,-517.5659 2247,-471.8958 2247,-433.5 2247,-433.5 2247,-433.5 2247,-256.5 2247,-173.137 2304.3931,-124.2855 2242,-69 2204.7224,-35.969 1891.9417,-23.0681 1732.1648,-18.5976"/>
<polygon fill="#191970" stroke="#191970" points="1731.9586,-15.0907 1721.8664,-18.3152 1731.7666,-22.0881 1731.9586,-15.0907"/>
</g>
<!-- Node81 -->
<g id="node48" class="node">
<title>Node81</title>
<g id="a_node48"><a xlink:href="SaturatingSkumanichWindBody_8h.html" target="_top" xlink:title="Decrales a body subject to angular momentum loss . ">
<polygon fill="#ffffff" stroke="#000000" points="1899.0605,-480.5 1899.0605,-500.5 2092.9395,-500.5 2092.9395,-480.5 1899.0605,-480.5"/>
<text text-anchor="middle" x="1996" y="-486.9" font-family="Helvetica,sans-Serif" font-size="12.00" fill="#000000">SaturatingSkumanichWindBody.h</text>
</a>
</g>
</g>
<!-- Node80&#45;&gt;Node81 -->
<g id="edge118" class="edge">
<title>Node80&#45;&gt;Node81</title>
<path fill="none" stroke="#191970" d="M2202.704,-537.4408C2160.1807,-527.7841 2095.86,-513.1774 2050.2777,-502.826"/>
<polygon fill="#191970" stroke="#191970" points="2050.8014,-499.3559 2040.2746,-500.5544 2049.2512,-506.1821 2050.8014,-499.3559"/>
</g>
<!-- Node81&#45;&gt;Node1 -->
<g id="edge119" class="edge">
<title>Node81&#45;&gt;Node1</title>
<path fill="none" stroke="#191970" d="M2075.0106,-480.4731C2135.6283,-467.8335 2209,-439.5185 2209,-376.5 2209,-376.5 2209,-376.5 2209,-256.5 2209,-172.9962 2277.3313,-130.6415 2221,-69 2188.7295,-33.6874 1888.0969,-21.9109 1732.0522,-18.1577"/>
<polygon fill="#191970" stroke="#191970" points="1732.0666,-14.6572 1721.9873,-17.922 1731.9026,-21.6553 1732.0666,-14.6572"/>
</g>
<!-- Node81&#45;&gt;Node3 -->
<g id="edge121" class="edge">
<title>Node81&#45;&gt;Node3</title>
<path fill="none" stroke="#191970" d="M1899.0489,-485.8717C1661.5832,-474.5354 1056.1488,-445.6327 862.5254,-436.3894"/>
<polygon fill="#191970" stroke="#191970" points="862.4167,-432.8803 852.2612,-435.8994 862.0829,-439.8724 862.4167,-432.8803"/>
</g>
<!-- Node81&#45;&gt;Node4 -->
<g id="edge120" class="edge">
<title>Node81&#45;&gt;Node4</title>
<path fill="none" stroke="#191970" d="M1986.4157,-480.3833C1968.0488,-460.9959 1927.6861,-418.3909 1904.7655,-394.1969"/>
<polygon fill="#191970" stroke="#191970" points="1907.1364,-391.6104 1897.718,-386.7579 1902.0547,-396.4246 1907.1364,-391.6104"/>
</g>
<!-- Node90&#45;&gt;Node1 -->
<g id="edge124" class="edge">
<title>Node90&#45;&gt;Node1</title>
<path fill="none" stroke="#191970" d="M2461.012,-480.4108C2470.2436,-460.8671 2489,-416.2661 2489,-376.5 2489,-376.5 2489,-376.5 2489,-136.5 2489,-101.8526 2479.433,-87.2796 2450,-69 2390.2849,-31.9134 1932.0787,-20.7527 1731.985,-17.6278"/>
<polygon fill="#191970" stroke="#191970" points="1731.8378,-14.1252 1721.7854,-17.472 1731.7308,-21.1244 1731.8378,-14.1252"/>
</g>
<!-- Node91 -->
<g id="node50" class="node">
<title>Node91</title>
<g id="a_node50"><a xlink:href="Planet_8h.html" target="_top" xlink:title="Declares a class for planets that are always locked to the orbit. ">
<polygon fill="#ffffff" stroke="#ff0000" points="2400.9834,-423.5 2400.9834,-443.5 2461.0166,-443.5 2461.0166,-423.5 2400.9834,-423.5"/>
<text text-anchor="middle" x="2431" y="-429.9" font-family="Helvetica,sans-Serif" font-size="12.00" fill="#000000">Planet.h</text>
</a>
</g>
</g>
<!-- Node90&#45;&gt;Node91 -->
<g id="edge125" class="edge">
<title>Node90&#45;&gt;Node91</title>
<path fill="none" stroke="#191970" d="M2451.5305,-480.3095C2448.1887,-472.6903 2443.5191,-462.0435 2439.4774,-452.8285"/>
<polygon fill="#191970" stroke="#191970" points="2442.6527,-451.3543 2435.4308,-443.6022 2436.2422,-454.166 2442.6527,-451.3543"/>
</g>
<!-- Node91&#45;&gt;Node1 -->
<g id="edge126" class="edge">
<title>Node91&#45;&gt;Node1</title>
<path fill="none" stroke="#191970" d="M2434.0376,-423.2319C2439.6325,-403.3824 2451,-358.2813 2451,-319.5 2451,-319.5 2451,-319.5 2451,-136.5 2451,-104.6601 2452.3885,-88.2146 2427,-69 2399.685,-48.3274 1934.6636,-27.932 1732.0782,-19.9828"/>
<polygon fill="#191970" stroke="#191970" points="1732.1749,-16.484 1722.0459,-19.591 1731.9016,-23.4787 1732.1749,-16.484"/>
</g>
<!-- Node91&#45;&gt;Node4 -->
<g id="edge127" class="edge">
<title>Node91&#45;&gt;Node4</title>
<path fill="none" stroke="#191970" d="M2400.6424,-430.3133C2315.3536,-421.3603 2072.117,-395.8272 1953.9845,-383.4265"/>
<polygon fill="#191970" stroke="#191970" points="1954.2919,-379.9397 1943.9811,-382.3765 1953.561,-386.9014 1954.2919,-379.9397"/>
</g>
</g>
</svg>
