<?xml version="1.0" encoding="UTF-8" standalone="no"?>
<!DOCTYPE svg PUBLIC "-//W3C//DTD SVG 1.1//EN"
 "http://www.w3.org/Graphics/SVG/1.1/DTD/svg11.dtd">
<!-- Generated by graphviz version 2.40.1 (20161225.0304)
 -->
<!-- Title: /home/kpenev/projects/git/poet/poet_src/unit_tests/testEvolve/ExpectedEvolutionMode.h Pages: 1 -->
<!--zoomable 185 -->
<svg id="main" version="1.1" xmlns="http://www.w3.org/2000/svg" xmlns:xlink="http://www.w3.org/1999/xlink" xml:space="preserve" onload="init(evt)">
<style type="text/css"><![CDATA[
.edge:hover path { stroke: red; }
.edge:hover polygon { stroke: red; fill: red; }
]]></style>
<script type="text/javascript"><![CDATA[
var edges = document.getElementsByTagName('g');
if (edges && edges.length) {
  for (var i=0;i<edges.length;i++) {
    if (edges[i].id.substr(0,4)=='edge') {
      edges[i].setAttribute('class','edge');
    }
  }
}
]]></script>
        <defs>
                <circle id="rim" cx="0" cy="0" r="7"/>
                <circle id="rim2" cx="0" cy="0" r="3.5"/>
                <g id="zoomPlus">
                        <use xlink:href="#rim" fill="#404040">
                                <set attributeName="fill" to="#808080" begin="zoomplus.mouseover" end="zoomplus.mouseout"/>
                        </use>
                        <path d="M-4,0h8M0,-4v8" fill="none" stroke="white" stroke-width="1.5" pointer-events="none"/>
                </g>
                <g id="zoomMin">
                        <use xlink:href="#rim" fill="#404040">
                                <set attributeName="fill" to="#808080" begin="zoomminus.mouseover" end="zoomminus.mouseout"/>
                        </use>
                        <path d="M-4,0h8" fill="none" stroke="white" stroke-width="1.5" pointer-events="none"/>
                </g>
                <g id="dirArrow">
                        <path fill="none" stroke="white" stroke-width="1.5" d="M0,-3.0v7 M-2.5,-0.5L0,-3.0L2.5,-0.5"/>
                </g>
               <g id="resetDef">
                       <use xlink:href="#rim2" fill="#404040">
                               <set attributeName="fill" to="#808080" begin="reset.mouseover" end="reset.mouseout"/>
                       </use>
               </g>
        </defs>

<script type="text/javascript">
var viewWidth = 745;
var viewHeight = 185;
var sectionId = 'dynsection-0';
</script>
<script xlink:href="svgpan.js"/>
<svg id="graph" class="graph">
<g id="viewport">
<title>/home/kpenev/projects/git/poet/poet_src/unit_tests/testEvolve/ExpectedEvolutionMode.h</title>
<polygon fill="#ffffff" stroke="transparent" points="-4,4 -4,-181 740.5,-181 740.5,4 -4,4"/>
<!-- Node0 -->
<g id="node1" class="node">
<title>Node0</title>
<polygon fill="#bfbfbf" stroke="#000000" points="439.5,-116.5 439.5,-176.5 649.5,-176.5 649.5,-116.5 439.5,-116.5"/>
<text text-anchor="start" x="447.5" y="-162.9" font-family="Helvetica,sans-Serif" font-size="12.00" fill="#000000">/home/kpenev/projects</text>
<text text-anchor="start" x="447.5" y="-149.9" font-family="Helvetica,sans-Serif" font-size="12.00" fill="#000000">/git/poet/poet_src/unit</text>
<text text-anchor="start" x="447.5" y="-136.9" font-family="Helvetica,sans-Serif" font-size="12.00" fill="#000000">_tests/testEvolve/ExpectedEvolution</text>
<text text-anchor="middle" x="544.5" y="-123.9" font-family="Helvetica,sans-Serif" font-size="12.00" fill="#000000">Mode.h</text>
</g>
<!-- Node1 -->
<g id="node2" class="node">
<title>Node1</title>
<g id="a_node2"><a xlink:href="unit__tests_2shared_2Common_8h.html" target="_top" xlink:title="Functions and classes of general use for all unit tests. ">
<polygon fill="#ffffff" stroke="#000000" points="434.5,-58.5 434.5,-79.5 558.5,-79.5 558.5,-58.5 434.5,-58.5"/>
<text text-anchor="middle" x="496.5" y="-65.9" font-family="Helvetica,sans-Serif" font-size="12.00" fill="#000000">../shared/Common.h</text>
</a>
</g>
</g>
<!-- Node0&#45;&gt;Node1 -->
<g id="edge1" class="edge">
<title>Node0&#45;&gt;Node1</title>
<path fill="none" stroke="#191970" d="M525.8045,-116.3146C519.9903,-106.9271 513.7389,-96.8337 508.5096,-88.3904"/>
<polygon fill="#191970" stroke="#191970" points="511.3585,-86.3431 503.1175,-79.6845 505.4075,-90.0289 511.3585,-86.3431"/>
</g>
<!-- Node9 -->
<g id="node10" class="node">
<title>Node9</title>
<polygon fill="#ffffff" stroke="#bfbfbf" points="576.5,-58.5 576.5,-79.5 608.5,-79.5 608.5,-58.5 576.5,-58.5"/>
<text text-anchor="middle" x="592.5" y="-65.9" font-family="Helvetica,sans-Serif" font-size="12.00" fill="#000000">list</text>
</g>
<!-- Node0&#45;&gt;Node9 -->
<g id="edge9" class="edge">
<title>Node0&#45;&gt;Node9</title>
<path fill="none" stroke="#191970" d="M563.1955,-116.3146C569.0097,-106.9271 575.2611,-96.8337 580.4904,-88.3904"/>
<polygon fill="#191970" stroke="#191970" points="583.5925,-90.0289 585.8825,-79.6845 577.6415,-86.3431 583.5925,-90.0289"/>
</g>
<!-- Node2 -->
<g id="node3" class="node">
<title>Node2</title>
<polygon fill="#ffffff" stroke="#bfbfbf" points="0,-.5 0,-21.5 159,-21.5 159,-.5 0,-.5"/>
<text text-anchor="middle" x="79.5" y="-7.9" font-family="Helvetica,sans-Serif" font-size="12.00" fill="#000000">../Evolve/StopInformation.h</text>
</g>
<!-- Node1&#45;&gt;Node2 -->
<g id="edge2" class="edge">
<title>Node1&#45;&gt;Node2</title>
<path fill="none" stroke="#191970" d="M434.0709,-60.3168C362.6042,-50.3766 245.1246,-34.0365 165.1414,-22.9118"/>
<polygon fill="#191970" stroke="#191970" points="165.4779,-19.4249 155.0911,-21.5139 164.5135,-26.3582 165.4779,-19.4249"/>
</g>
<!-- Node3 -->
<g id="node4" class="node">
<title>Node3</title>
<polygon fill="#ffffff" stroke="#bfbfbf" points="177.5,-.5 177.5,-21.5 365.5,-21.5 365.5,-.5 177.5,-.5"/>
<text text-anchor="middle" x="271.5" y="-7.9" font-family="Helvetica,sans-Serif" font-size="12.00" fill="#000000">../Core/AstronomicalConstants.h</text>
</g>
<!-- Node1&#45;&gt;Node3 -->
<g id="edge3" class="edge">
<title>Node1&#45;&gt;Node3</title>
<path fill="none" stroke="#191970" d="M455.7542,-58.4966C418.2791,-48.8364 362.5727,-34.4765 322.2279,-24.0765"/>
<polygon fill="#191970" stroke="#191970" points="322.8794,-20.6301 312.3222,-21.5231 321.132,-27.4085 322.8794,-20.6301"/>
</g>
<!-- Node4 -->
<g id="node5" class="node">
<title>Node4</title>
<polygon fill="#ffffff" stroke="#bfbfbf" points="384,-.5 384,-21.5 449,-21.5 449,-.5 384,-.5"/>
<text text-anchor="middle" x="416.5" y="-7.9" font-family="Helvetica,sans-Serif" font-size="12.00" fill="#000000">cpptest.h</text>
</g>
<!-- Node1&#45;&gt;Node4 -->
<g id="edge4" class="edge">
<title>Node1&#45;&gt;Node4</title>
<path fill="none" stroke="#191970" d="M481.8268,-58.3619C469.9859,-49.7773 453.115,-37.5459 439.4842,-27.6636"/>
<polygon fill="#191970" stroke="#191970" points="441.2307,-24.6067 431.0802,-21.5707 437.1219,-30.274 441.2307,-24.6067"/>
</g>
<!-- Node5 -->
<g id="node6" class="node">
<title>Node5</title>
<polygon fill="#ffffff" stroke="#bfbfbf" points="467,-.5 467,-21.5 526,-21.5 526,-.5 467,-.5"/>
<text text-anchor="middle" x="496.5" y="-7.9" font-family="Helvetica,sans-Serif" font-size="12.00" fill="#000000">valarray</text>
</g>
<!-- Node1&#45;&gt;Node5 -->
<g id="edge5" class="edge">
<title>Node1&#45;&gt;Node5</title>
<path fill="none" stroke="#191970" d="M496.5,-58.3619C496.5,-50.9219 496.5,-40.7427 496.5,-31.7276"/>
<polygon fill="#191970" stroke="#191970" points="500.0001,-31.5706 496.5,-21.5707 493.0001,-31.5707 500.0001,-31.5706"/>
</g>
<!-- Node6 -->
<g id="node7" class="node">
<title>Node6</title>
<polygon fill="#ffffff" stroke="#bfbfbf" points="544,-.5 544,-21.5 603,-21.5 603,-.5 544,-.5"/>
<text text-anchor="middle" x="573.5" y="-7.9" font-family="Helvetica,sans-Serif" font-size="12.00" fill="#000000">sstream</text>
</g>
<!-- Node1&#45;&gt;Node6 -->
<g id="edge6" class="edge">
<title>Node1&#45;&gt;Node6</title>
<path fill="none" stroke="#191970" d="M510.623,-58.3619C522.0198,-49.7773 538.2581,-37.5459 551.3777,-27.6636"/>
<polygon fill="#191970" stroke="#191970" points="553.5848,-30.3829 559.4665,-21.5707 549.3732,-24.7916 553.5848,-30.3829"/>
</g>
<!-- Node7 -->
<g id="node8" class="node">
<title>Node7</title>
<polygon fill="#ffffff" stroke="#bfbfbf" points="621,-.5 621,-21.5 672,-21.5 672,-.5 621,-.5"/>
<text text-anchor="middle" x="646.5" y="-7.9" font-family="Helvetica,sans-Serif" font-size="12.00" fill="#000000">cstdlib</text>
</g>
<!-- Node1&#45;&gt;Node7 -->
<g id="edge7" class="edge">
<title>Node1&#45;&gt;Node7</title>
<path fill="none" stroke="#191970" d="M523.6639,-58.4966C548.2515,-48.9894 584.6114,-34.9303 611.3956,-24.5737"/>
<polygon fill="#191970" stroke="#191970" points="612.7259,-27.8119 620.7907,-20.9409 610.2014,-21.283 612.7259,-27.8119"/>
</g>
<!-- Node8 -->
<g id="node9" class="node">
<title>Node8</title>
<polygon fill="#ffffff" stroke="#bfbfbf" points="690.5,-.5 690.5,-21.5 736.5,-21.5 736.5,-.5 690.5,-.5"/>
<text text-anchor="middle" x="713.5" y="-7.9" font-family="Helvetica,sans-Serif" font-size="12.00" fill="#000000">string</text>
</g>
<!-- Node1&#45;&gt;Node8 -->
<g id="edge8" class="edge">
<title>Node1&#45;&gt;Node8</title>
<path fill="none" stroke="#191970" d="M542.403,-58.4497C577.8097,-50.0617 628.1749,-37.5901 680.3858,-22.1842"/>
<polygon fill="#191970" stroke="#191970" points="681.569,-25.4838 690.153,-19.2738 679.5699,-18.7753 681.569,-25.4838"/>
</g>
</g>
</svg>
        <g id="navigator" transform="translate(0 0)" fill="#404254">
                <rect fill="#f2f5e9" fill-opacity="0.5" stroke="#606060" stroke-width=".5" x="0" y="0" width="60" height="60"/>
                <use id="zoomplus" xlink:href="#zoomPlus" x="17" y="9" onmousedown="handleZoom(evt,'in')"/>
                <use id="zoomminus" xlink:href="#zoomMin" x="42" y="9" onmousedown="handleZoom(evt,'out')"/>
                <use id="reset" xlink:href="#resetDef" x="30" y="36" onmousedown="handleReset()"/>
                <g id="arrowUp" xlink:href="#dirArrow" transform="translate(30 24)" onmousedown="handlePan(0,-1)">
                  <use xlink:href="#rim" fill="#404040">
                        <set attributeName="fill" to="#808080" begin="arrowUp.mouseover" end="arrowUp.mouseout"/>
                  </use>
                  <path fill="none" stroke="white" stroke-width="1.5" d="M0,-3.0v7 M-2.5,-0.5L0,-3.0L2.5,-0.5"/>
                </g>
                <g id="arrowRight" xlink:href="#dirArrow" transform="rotate(90) translate(36 -43)" onmousedown="handlePan(1,0)">
                  <use xlink:href="#rim" fill="#404040">
                        <set attributeName="fill" to="#808080" begin="arrowRight.mouseover" end="arrowRight.mouseout"/>
                  </use>
                  <path fill="none" stroke="white" stroke-width="1.5" d="M0,-3.0v7 M-2.5,-0.5L0,-3.0L2.5,-0.5"/>
                </g>
                <g id="arrowDown" xlink:href="#dirArrow" transform="rotate(180) translate(-30 -48)" onmousedown="handlePan(0,1)">
                  <use xlink:href="#rim" fill="#404040">
                        <set attributeName="fill" to="#808080" begin="arrowDown.mouseover" end="arrowDown.mouseout"/>
                  </use>
                  <path fill="none" stroke="white" stroke-width="1.5" d="M0,-3.0v7 M-2.5,-0.5L0,-3.0L2.5,-0.5"/>
                </g>
                <g id="arrowLeft" xlink:href="#dirArrow" transform="rotate(270) translate(-36 17)" onmousedown="handlePan(-1,0)">
                  <use xlink:href="#rim" fill="#404040">
                        <set attributeName="fill" to="#808080" begin="arrowLeft.mouseover" end="arrowLeft.mouseout"/>
                  </use>
                  <path fill="none" stroke="white" stroke-width="1.5" d="M0,-3.0v7 M-2.5,-0.5L0,-3.0L2.5,-0.5"/>
                </g>
        </g>
        <svg viewBox="0 0 15 15" width="100%" height="30px" preserveAspectRatio="xMaxYMin meet">
         <g id="arrow_out" transform="scale(0.3 0.3)">
          <a xlink:href="ExpectedEvolutionMode_8h__incl_org.svg" target="_base">
           <rect id="button" ry="5" rx="5" y="6" x="6" height="38" width="38"
                fill="#f2f5e9" fill-opacity="0.5" stroke="#606060" stroke-width="1.0"/>
           <path id="arrow"
             d="M 11.500037,31.436501 C 11.940474,20.09759 22.043105,11.32322 32.158766,21.979434 L 37.068811,17.246167 C 37.068811,17.246167 37.088388,32 37.088388,32 L 22.160133,31.978069 C 22.160133,31.978069 26.997745,27.140456 26.997745,27.140456 C 18.528582,18.264221 13.291696,25.230495 11.500037,31.436501 z"
             style="fill:#404040;"/>
          </a>
         </g>
        </svg>
</svg>
