<?xml version="1.0" encoding="UTF-8" standalone="no"?>
<!DOCTYPE svg PUBLIC "-//W3C//DTD SVG 1.1//EN"
 "http://www.w3.org/Graphics/SVG/1.1/DTD/svg11.dtd">
<!-- Generated by graphviz version 2.40.1 (20161225.0304)
 -->
<!-- Title: /Users/kpenev/projects/git/poet/poet_src/Star/ExponentialDecayDiffRotBody.h Pages: 1 -->
<svg width="2433pt" height="464pt"
 viewBox="0.00 0.00 2432.70 464.00" xmlns="http://www.w3.org/2000/svg" xmlns:xlink="http://www.w3.org/1999/xlink">
<g id="graph0" class="graph" transform="scale(1 1) rotate(0) translate(4 460)">
<title>/Users/kpenev/projects/git/poet/poet_src/Star/ExponentialDecayDiffRotBody.h</title>
<polygon fill="#ffffff" stroke="transparent" points="-4,4 -4,-460 2428.6963,-460 2428.6963,4 -4,4"/>
<!-- Node0 -->
<g id="node1" class="node">
<title>Node0</title>
<polygon fill="#bfbfbf" stroke="#000000" points="48.501,-411.5 48.501,-455.5 237.499,-455.5 237.499,-411.5 48.501,-411.5"/>
<text text-anchor="start" x="56.501" y="-441.9" font-family="Helvetica,sans-Serif" font-size="12.00" fill="#000000">/Users/kpenev/projects</text>
<text text-anchor="start" x="56.501" y="-429.9" font-family="Helvetica,sans-Serif" font-size="12.00" fill="#000000">/git/poet/poet_src/Star</text>
<text text-anchor="middle" x="143" y="-417.9" font-family="Helvetica,sans-Serif" font-size="12.00" fill="#000000">/ExponentialDecayDiffRotBody.h</text>
</g>
<!-- Node1 -->
<g id="node2" class="node">
<title>Node1</title>
<g id="a_node2"><a xlink:href="SharedLibraryExportMacros_8h_source.html" target="_top" xlink:title="../Core/SharedLibraryExport\lMacros.h">
<polygon fill="#ffffff" stroke="#000000" points="242.2988,-.5 242.2988,-32.5 407.7012,-32.5 407.7012,-.5 242.2988,-.5"/>
<text text-anchor="start" x="250.2988" y="-18.9" font-family="Helvetica,sans-Serif" font-size="12.00" fill="#000000">../Core/SharedLibraryExport</text>
<text text-anchor="middle" x="325" y="-6.9" font-family="Helvetica,sans-Serif" font-size="12.00" fill="#000000">Macros.h</text>
</a>
</g>
</g>
<!-- Node0&#45;&gt;Node1 -->
<g id="edge1" class="edge">
<title>Node0&#45;&gt;Node1</title>
<path fill="none" stroke="#191970" d="M88.5299,-411.4989C48.1182,-391.165 0,-356.6368 0,-307.5 0,-307.5 0,-307.5 0,-136.5 0,-90.6549 36.9488,-89.4102 78,-69 125.8267,-45.2211 184.0747,-32.1847 231.9922,-25.0515"/>
<polygon fill="#191970" stroke="#191970" points="232.6471,-28.4936 242.053,-23.6173 231.6591,-21.5637 232.6471,-28.4936"/>
</g>
<!-- Node2 -->
<g id="node3" class="node">
<title>Node2</title>
<g id="a_node3"><a xlink:href="DissipatingBody_8h.html" target="_top" xlink:title="Declares the DissipatingBody class. ">
<polygon fill="#ffffff" stroke="#000000" points="965.7393,-354.5 965.7393,-374.5 1126.2607,-374.5 1126.2607,-354.5 965.7393,-354.5"/>
<text text-anchor="middle" x="1046" y="-360.9" font-family="Helvetica,sans-Serif" font-size="12.00" fill="#000000">../Evolve/DissipatingBody.h</text>
</a>
</g>
</g>
<!-- Node0&#45;&gt;Node2 -->
<g id="edge2" class="edge">
<title>Node0&#45;&gt;Node2</title>
<path fill="none" stroke="#191970" d="M237.5054,-426.2787C412.33,-412.92 784.0142,-384.5188 955.6588,-371.4032"/>
<polygon fill="#191970" stroke="#191970" points="955.9709,-374.8896 965.6751,-370.6378 955.4375,-367.9099 955.9709,-374.8896"/>
</g>
<!-- Node4 -->
<g id="node5" class="node">
<title>Node4</title>
<g id="a_node5"><a xlink:href="ZoneOrientation_8h.html" target="_top" xlink:title="Declares a class for orientations of zones of DissipatingBody objects. ">
<polygon fill="#ffffff" stroke="#000000" points="142.9707,-183.5 142.9707,-203.5 255.0293,-203.5 255.0293,-183.5 142.9707,-183.5"/>
<text text-anchor="middle" x="199" y="-189.9" font-family="Helvetica,sans-Serif" font-size="12.00" fill="#000000">ZoneOrientation.h</text>
</a>
</g>
</g>
<!-- Node0&#45;&gt;Node4 -->
<g id="edge78" class="edge">
<title>Node0&#45;&gt;Node4</title>
<path fill="none" stroke="#191970" d="M148.168,-411.3516C159.0012,-364.9234 183.9435,-258.0279 194.3291,-213.5182"/>
<polygon fill="#191970" stroke="#191970" points="197.7745,-214.1548 196.6384,-203.621 190.9576,-212.5641 197.7745,-214.1548"/>
</g>
<!-- Node2&#45;&gt;Node1 -->
<g id="edge3" class="edge">
<title>Node2&#45;&gt;Node1</title>
<path fill="none" stroke="#191970" d="M965.7367,-363.5397C774.9979,-359.9291 300.6175,-342.7471 168,-261 90.5509,-213.2594 34.3823,-135.0042 97,-69 115.7516,-49.2342 177.4599,-35.7673 231.9549,-27.4255"/>
<polygon fill="#191970" stroke="#191970" points="232.6577,-30.8596 242.0344,-25.9272 231.6284,-23.9357 232.6577,-30.8596"/>
</g>
<!-- Node3 -->
<g id="node4" class="node">
<title>Node3</title>
<g id="a_node4"><a xlink:href="DissipatingZone_8h.html" target="_top" xlink:title="Declares a class representing one zone of a body dissipative to tidal distortions. ">
<polygon fill="#ffffff" stroke="#000000" points="880.9736,-297.5 880.9736,-317.5 993.0264,-317.5 993.0264,-297.5 880.9736,-297.5"/>
<text text-anchor="middle" x="937" y="-303.9" font-family="Helvetica,sans-Serif" font-size="12.00" fill="#000000">DissipatingZone.h</text>
</a>
</g>
</g>
<!-- Node2&#45;&gt;Node3 -->
<g id="edge4" class="edge">
<title>Node2&#45;&gt;Node3</title>
<path fill="none" stroke="#191970" d="M1026.7639,-354.4408C1009.7467,-345.5419 984.6911,-332.4394 965.3728,-322.3371"/>
<polygon fill="#191970" stroke="#191970" points="966.8939,-319.1829 956.4104,-317.6504 963.65,-325.386 966.8939,-319.1829"/>
</g>
<!-- Node7 -->
<g id="node8" class="node">
<title>Node7</title>
<polygon fill="#ffffff" stroke="#bfbfbf" points="504.6611,-69.5 504.6611,-89.5 559.3389,-89.5 559.3389,-69.5 504.6611,-69.5"/>
<text text-anchor="middle" x="532" y="-75.9" font-family="Helvetica,sans-Serif" font-size="12.00" fill="#000000">cassert</text>
</g>
<!-- Node2&#45;&gt;Node7 -->
<g id="edge77" class="edge">
<title>Node2&#45;&gt;Node7</title>
<path fill="none" stroke="#191970" d="M965.6196,-362.8129C818.4918,-357.8441 514.9903,-338.2491 450,-261 406.5408,-209.3434 477.0607,-130.9146 512.9873,-96.5924"/>
<polygon fill="#191970" stroke="#191970" points="515.5623,-98.9765 520.4808,-89.5926 510.7839,-93.8612 515.5623,-98.9765"/>
</g>
<!-- Node8 -->
<g id="node9" class="node">
<title>Node8</title>
<g id="a_node9"><a xlink:href="Core_2Common_8h.html" target="_top" xlink:title="Declaration of some general purpose utilities. ">
<polygon fill="#ffffff" stroke="#000000" points="904.9834,-126.5 904.9834,-146.5 1019.0166,-146.5 1019.0166,-126.5 904.9834,-126.5"/>
<text text-anchor="middle" x="962" y="-132.9" font-family="Helvetica,sans-Serif" font-size="12.00" fill="#000000">../Core/Common.h</text>
</a>
</g>
</g>
<!-- Node2&#45;&gt;Node8 -->
<g id="edge75" class="edge">
<title>Node2&#45;&gt;Node8</title>
<path fill="none" stroke="#191970" d="M1042.9041,-354.1166C1034.4599,-326.1183 1009.9208,-246.8676 984,-183 980.3229,-173.9399 975.7671,-164.1242 971.7568,-155.8564"/>
<polygon fill="#191970" stroke="#191970" points="974.7979,-154.11 967.2313,-146.694 968.5217,-157.21 974.7979,-154.11"/>
</g>
<!-- Node10 -->
<g id="node11" class="node">
<title>Node10</title>
<polygon fill="#ffffff" stroke="#bfbfbf" points="1430.6602,-69.5 1430.6602,-89.5 1489.3398,-89.5 1489.3398,-69.5 1430.6602,-69.5"/>
<text text-anchor="middle" x="1460" y="-75.9" font-family="Helvetica,sans-Serif" font-size="12.00" fill="#000000">valarray</text>
</g>
<!-- Node2&#45;&gt;Node10 -->
<g id="edge76" class="edge">
<title>Node2&#45;&gt;Node10</title>
<path fill="none" stroke="#191970" d="M1112.3971,-354.451C1240.1638,-333.5256 1511.9737,-280.7542 1561,-204 1588.0473,-161.6555 1526.722,-117.1203 1488.212,-94.5414"/>
<polygon fill="#191970" stroke="#191970" points="1489.8685,-91.457 1479.4473,-89.5469 1486.4027,-97.5389 1489.8685,-91.457"/>
</g>
<!-- Node23 -->
<g id="node24" class="node">
<title>Node23</title>
<g id="a_node24"><a xlink:href="AstronomicalConstants_8h.html" target="_top" xlink:title="Defines various astronomical constants. ">
<polygon fill="#ffffff" stroke="#000000" points="2097.3027,-69.5 2097.3027,-89.5 2246.6973,-89.5 2246.6973,-69.5 2097.3027,-69.5"/>
<text text-anchor="middle" x="2172" y="-75.9" font-family="Helvetica,sans-Serif" font-size="12.00" fill="#000000">AstronomicalConstants.h</text>
</a>
</g>
</g>
<!-- Node2&#45;&gt;Node23 -->
<g id="edge74" class="edge">
<title>Node2&#45;&gt;Node23</title>
<path fill="none" stroke="#191970" d="M1126.3127,-360.5574C1383.3401,-347.4149 2169,-302.9519 2169,-250.5 2169,-250.5 2169,-250.5 2169,-193.5 2169,-160.6422 2170.2608,-122.4757 2171.1477,-99.6928"/>
<polygon fill="#191970" stroke="#191970" points="2174.6504,-99.6957 2171.5573,-89.5625 2167.6561,-99.4129 2174.6504,-99.6957"/>
</g>
<!-- Node38 -->
<g id="node39" class="node">
<title>Node38</title>
<g id="a_node39"><a xlink:href="OrbitalExpressions_8h.html" target="_top" xlink:title="A collection of functions which calculate various quantities for two body orbits. ...">
<polygon fill="#ffffff" stroke="#000000" points="1974.9707,-126.5 1974.9707,-146.5 2141.0293,-146.5 2141.0293,-126.5 1974.9707,-126.5"/>
<text text-anchor="middle" x="2058" y="-132.9" font-family="Helvetica,sans-Serif" font-size="12.00" fill="#000000">../Core/OrbitalExpressions.h</text>
</a>
</g>
</g>
<!-- Node2&#45;&gt;Node38 -->
<g id="edge70" class="edge">
<title>Node2&#45;&gt;Node38</title>
<path fill="none" stroke="#191970" d="M1126.4343,-361.3297C1263.9355,-355.3737 1538.4058,-341.0008 1632,-318 1790.4909,-279.0508 1965.5156,-187.7327 2031.1762,-151.6009"/>
<polygon fill="#191970" stroke="#191970" points="2033.0031,-154.59 2040.0553,-146.6832 2029.6116,-148.4665 2033.0031,-154.59"/>
</g>
<!-- Node3&#45;&gt;Node1 -->
<g id="edge34" class="edge">
<title>Node3&#45;&gt;Node1</title>
<path fill="none" stroke="#191970" d="M880.789,-305.9856C769.9434,-302.3726 527.2287,-291.1794 450,-261 379.0449,-233.2722 360.345,-212.8264 322,-147 304.0921,-116.2577 297.272,-103.9358 304,-69 305.7613,-59.8545 309.1014,-50.2769 312.6082,-41.8437"/>
<polygon fill="#191970" stroke="#191970" points="315.8687,-43.1247 316.7168,-32.5639 309.4679,-40.2908 315.8687,-43.1247"/>
</g>
<!-- Node3&#45;&gt;Node4 -->
<g id="edge5" class="edge">
<title>Node3&#45;&gt;Node4</title>
<path fill="none" stroke="#191970" d="M880.8209,-304.9934C757.4237,-299.1465 466.0717,-283.3825 370,-261 318.2265,-248.938 261.4374,-223.9984 228.0752,-208.0439"/>
<polygon fill="#191970" stroke="#191970" points="229.4332,-204.8128 218.9076,-203.6029 226.3814,-211.1125 229.4332,-204.8128"/>
</g>
<!-- Node5 -->
<g id="node6" class="node">
<title>Node5</title>
<g id="a_node6"><a xlink:href="DissipationQuantities_8h.html" target="_top" xlink:title="Declaration of enumerations of dissipation quantities and derivatives. ">
<polygon fill="#ffffff" stroke="#000000" points="103.6348,-126.5 103.6348,-146.5 242.3652,-146.5 242.3652,-126.5 103.6348,-126.5"/>
<text text-anchor="middle" x="173" y="-132.9" font-family="Helvetica,sans-Serif" font-size="12.00" fill="#000000">DissipationQuantities.h</text>
</a>
</g>
</g>
<!-- Node3&#45;&gt;Node5 -->
<g id="edge51" class="edge">
<title>Node3&#45;&gt;Node5</title>
<path fill="none" stroke="#191970" d="M880.8889,-305.3016C746.4154,-299.7291 408.7042,-283.8527 298,-261 222.4276,-245.3995 178.7197,-266.8865 134,-204 122.3115,-187.5632 137.4471,-167.3893 152.1378,-153.3992"/>
<polygon fill="#191970" stroke="#191970" points="154.5107,-155.9726 159.6351,-146.6994 149.8464,-150.753 154.5107,-155.9726"/>
</g>
<!-- Node3&#45;&gt;Node8 -->
<g id="edge68" class="edge">
<title>Node3&#45;&gt;Node8</title>
<path fill="none" stroke="#191970" d="M945.7783,-297.242C952.791,-288.3265 962.0723,-274.7202 966,-261 976.1678,-225.4822 970.9838,-181.9253 966.4093,-156.8757"/>
<polygon fill="#191970" stroke="#191970" points="969.783,-155.8942 964.4078,-146.7642 962.9163,-157.2535 969.783,-155.8942"/>
</g>
<!-- Node3&#45;&gt;Node10 -->
<g id="edge69" class="edge">
<title>Node3&#45;&gt;Node10</title>
<path fill="none" stroke="#191970" d="M993.0939,-299.0656C1095.6046,-282.8519 1308.3341,-245.2664 1370,-204 1409.8772,-177.3144 1438.1546,-126.6491 1451.4418,-98.8872"/>
<polygon fill="#191970" stroke="#191970" points="1454.6317,-100.3277 1455.6525,-89.7822 1448.2782,-97.3894 1454.6317,-100.3277"/>
</g>
<!-- Node20 -->
<g id="node21" class="node">
<title>Node20</title>
<g id="a_node21"><a xlink:href="Error_8h.html" target="_top" xlink:title="Defines the exception hierarchy used by this code. ">
<polygon fill="#ffffff" stroke="#000000" points="1810.9912,-69.5 1810.9912,-89.5 1863.0088,-89.5 1863.0088,-69.5 1810.9912,-69.5"/>
<text text-anchor="middle" x="1837" y="-75.9" font-family="Helvetica,sans-Serif" font-size="12.00" fill="#000000">Error.h</text>
</a>
</g>
</g>
<!-- Node3&#45;&gt;Node20 -->
<g id="edge35" class="edge">
<title>Node3&#45;&gt;Node20</title>
<path fill="none" stroke="#191970" d="M993.2261,-306.4667C1086.5708,-303.8218 1278.997,-294.4168 1438,-261 1594.7967,-228.0469 1647.3702,-236.8912 1780,-147 1798.926,-134.1727 1815.1372,-113.398 1825.3785,-98.28"/>
<polygon fill="#191970" stroke="#191970" points="1828.4292,-100.009 1830.9545,-89.7195 1822.5638,-96.1884 1828.4292,-100.009"/>
</g>
<!-- Node26 -->
<g id="node27" class="node">
<title>Node26</title>
<g id="a_node27"><a xlink:href="TidalPotentialTerms_8h.html" target="_top" xlink:title="Declare an interface for evaluating the expansion of the tidal potential. ">
<polygon fill="#ffffff" stroke="#000000" points="1421.5283,-183.5 1421.5283,-203.5 1552.4717,-203.5 1552.4717,-183.5 1421.5283,-183.5"/>
<text text-anchor="middle" x="1487" y="-189.9" font-family="Helvetica,sans-Serif" font-size="12.00" fill="#000000">TidalPotentialTerms.h</text>
</a>
</g>
</g>
<!-- Node3&#45;&gt;Node26 -->
<g id="edge36" class="edge">
<title>Node3&#45;&gt;Node26</title>
<path fill="none" stroke="#191970" d="M993.1764,-306.1484C1101.3968,-302.8624 1334.579,-292.2788 1408,-261 1433.8634,-249.9817 1457.513,-227.3652 1472.0601,-211.3539"/>
<polygon fill="#191970" stroke="#191970" points="1474.8313,-213.5025 1478.8011,-203.6795 1469.572,-208.8829 1474.8313,-213.5025"/>
</g>
<!-- Node33 -->
<g id="node34" class="node">
<title>Node33</title>
<g id="a_node34"><a xlink:href="SpinOrbitLockInfo_8h.html" target="_top" xlink:title="Defines the SpinOrbitLockInfo class. ">
<polygon fill="#ffffff" stroke="#000000" points="2303.3037,-69.5 2303.3037,-89.5 2424.6963,-89.5 2424.6963,-69.5 2303.3037,-69.5"/>
<text text-anchor="middle" x="2364" y="-75.9" font-family="Helvetica,sans-Serif" font-size="12.00" fill="#000000">SpinOrbitLockInfo.h</text>
</a>
</g>
</g>
<!-- Node3&#45;&gt;Node33 -->
<g id="edge52" class="edge">
<title>Node3&#45;&gt;Node33</title>
<path fill="none" stroke="#191970" d="M993.4126,-304.6614C1095.9629,-299.1093 1319.6621,-285.1938 1507,-261 1794.844,-223.8262 1868.1192,-216.1324 2150,-147 2212.8747,-131.5797 2284.2951,-107.7364 2326.673,-92.9031"/>
<polygon fill="#191970" stroke="#191970" points="2328.0159,-96.1409 2336.2858,-89.5183 2325.691,-89.5383 2328.0159,-96.1409"/>
</g>
<!-- Node34 -->
<g id="node35" class="node">
<title>Node34</title>
<g id="a_node35"><a xlink:href="CombinedStoppingCondition_8h.html" target="_top" xlink:title="Declares a class for a stopping condition that combines other stopping conditions. ">
<polygon fill="#ffffff" stroke="#000000" points="626.6104,-240.5 626.6104,-260.5 805.3896,-260.5 805.3896,-240.5 626.6104,-240.5"/>
<text text-anchor="middle" x="716" y="-246.9" font-family="Helvetica,sans-Serif" font-size="12.00" fill="#000000">CombinedStoppingCondition.h</text>
</a>
</g>
</g>
<!-- Node3&#45;&gt;Node34 -->
<g id="edge55" class="edge">
<title>Node3&#45;&gt;Node34</title>
<path fill="none" stroke="#191970" d="M897.9984,-297.4408C860.8721,-287.8652 804.875,-273.4225 764.8056,-263.0879"/>
<polygon fill="#191970" stroke="#191970" points="765.5401,-259.6628 754.9828,-260.5544 763.7918,-266.441 765.5401,-259.6628"/>
</g>
<!-- Node36 -->
<g id="node37" class="node">
<title>Node36</title>
<g id="a_node37"><a xlink:href="BreakLockCondition_8h.html" target="_top" xlink:title="Declares a class for a stopping condition monitoring when a locked zone loses the lock...">
<polygon fill="#ffffff" stroke="#000000" points="823.2979,-240.5 823.2979,-260.5 956.7021,-260.5 956.7021,-240.5 823.2979,-240.5"/>
<text text-anchor="middle" x="890" y="-246.9" font-family="Helvetica,sans-Serif" font-size="12.00" fill="#000000">BreakLockCondition.h</text>
</a>
</g>
</g>
<!-- Node3&#45;&gt;Node36 -->
<g id="edge62" class="edge">
<title>Node3&#45;&gt;Node36</title>
<path fill="none" stroke="#191970" d="M928.5973,-297.3095C921.9807,-289.2851 912.5948,-277.9022 904.7356,-268.3708"/>
<polygon fill="#191970" stroke="#191970" points="907.3922,-266.091 898.3299,-260.6022 901.9914,-270.5443 907.3922,-266.091"/>
</g>
<!-- Node37 -->
<g id="node38" class="node">
<title>Node37</title>
<g id="a_node38"><a xlink:href="SynchronizedCondition_8h.html" target="_top" xlink:title="Declares a stopping condition monitoring spin&#45;orbit synchronization. ">
<polygon fill="#ffffff" stroke="#000000" points="459.291,-240.5 459.291,-260.5 608.709,-260.5 608.709,-240.5 459.291,-240.5"/>
<text text-anchor="middle" x="534" y="-246.9" font-family="Helvetica,sans-Serif" font-size="12.00" fill="#000000">SynchronizedCondition.h</text>
</a>
</g>
</g>
<!-- Node3&#45;&gt;Node37 -->
<g id="edge65" class="edge">
<title>Node3&#45;&gt;Node37</title>
<path fill="none" stroke="#191970" d="M880.9646,-299.5744C811.7949,-289.7911 693.6573,-273.0818 614.7168,-261.9165"/>
<polygon fill="#191970" stroke="#191970" points="615.2016,-258.4503 604.81,-260.5153 614.2212,-265.3814 615.2016,-258.4503"/>
</g>
<!-- Node4&#45;&gt;Node1 -->
<g id="edge6" class="edge">
<title>Node4&#45;&gt;Node1</title>
<path fill="none" stroke="#191970" d="M148.4672,-183.4661C128.2715,-176.7108 106.9962,-165.5043 95,-147 81.1438,-125.6266 102.6408,-79.5072 114,-69 131.6617,-52.663 184.0477,-39.579 232.1991,-30.5588"/>
<polygon fill="#191970" stroke="#191970" points="232.8706,-33.9942 242.0781,-28.7527 231.6116,-27.1083 232.8706,-33.9942"/>
</g>
<!-- Node4&#45;&gt;Node5 -->
<g id="edge7" class="edge">
<title>Node4&#45;&gt;Node5</title>
<path fill="none" stroke="#191970" d="M194.3517,-183.3095C190.8763,-175.6903 186.0198,-165.0435 181.8165,-155.8285"/>
<polygon fill="#191970" stroke="#191970" points="184.9425,-154.2479 177.608,-146.6022 178.5738,-157.153 184.9425,-154.2479"/>
</g>
<!-- Node4&#45;&gt;Node8 -->
<g id="edge11" class="edge">
<title>Node4&#45;&gt;Node8</title>
<path fill="none" stroke="#191970" d="M255.1052,-189.3087C392.5641,-179.0398 745.7493,-152.655 894.4296,-141.5479"/>
<polygon fill="#191970" stroke="#191970" points="895.064,-145.0103 904.7754,-140.775 894.5424,-138.0298 895.064,-145.0103"/>
</g>
<!-- Node24 -->
<g id="node25" class="node">
<title>Node24</title>
<g id="a_node25"><a xlink:href="IncludeEigen_8h_source.html" target="_top" xlink:title="IncludeEigen.h">
<polygon fill="#ffffff" stroke="#000000" points="391.3027,-69.5 391.3027,-89.5 486.6973,-89.5 486.6973,-69.5 391.3027,-69.5"/>
<text text-anchor="middle" x="439" y="-75.9" font-family="Helvetica,sans-Serif" font-size="12.00" fill="#000000">IncludeEigen.h</text>
</a>
</g>
</g>
<!-- Node4&#45;&gt;Node24 -->
<g id="edge33" class="edge">
<title>Node4&#45;&gt;Node24</title>
<path fill="none" stroke="#191970" d="M218.2047,-183.2979C243.9025,-169.7516 290.9981,-145.2929 332,-126 356.3165,-114.5582 384.1692,-102.4859 405.3609,-93.5102"/>
<polygon fill="#191970" stroke="#191970" points="406.7379,-96.728 414.5922,-89.6175 404.018,-90.278 406.7379,-96.728"/>
</g>
<!-- Node5&#45;&gt;Node1 -->
<g id="edge8" class="edge">
<title>Node5&#45;&gt;Node1</title>
<path fill="none" stroke="#191970" d="M180.6161,-126.467C191.5829,-112.4588 212.9403,-86.7645 235,-69 249.7217,-57.1448 267.4198,-46.2207 283.2119,-37.4429"/>
<polygon fill="#191970" stroke="#191970" points="285.1363,-40.3806 292.2529,-32.5318 281.795,-34.2295 285.1363,-40.3806"/>
</g>
<!-- Node6 -->
<g id="node7" class="node">
<title>Node6</title>
<polygon fill="#ffffff" stroke="#bfbfbf" points="123.3262,-69.5 123.3262,-89.5 182.6738,-89.5 182.6738,-69.5 123.3262,-69.5"/>
<text text-anchor="middle" x="153" y="-75.9" font-family="Helvetica,sans-Serif" font-size="12.00" fill="#000000">ostream</text>
</g>
<!-- Node5&#45;&gt;Node6 -->
<g id="edge9" class="edge">
<title>Node5&#45;&gt;Node6</title>
<path fill="none" stroke="#191970" d="M169.4244,-126.3095C166.7794,-118.7714 163.0946,-108.2696 159.8853,-99.123"/>
<polygon fill="#191970" stroke="#191970" points="163.1582,-97.8794 156.5446,-89.6022 156.553,-100.1971 163.1582,-97.8794"/>
</g>
<!-- Node5&#45;&gt;Node7 -->
<g id="edge10" class="edge">
<title>Node5&#45;&gt;Node7</title>
<path fill="none" stroke="#191970" d="M242.4972,-129.3607C305.9406,-122.1929 402.411,-109.6666 494.5337,-90.0955"/>
<polygon fill="#191970" stroke="#191970" points="495.5473,-93.4575 504.5847,-87.928 494.0716,-86.6148 495.5473,-93.4575"/>
</g>
<!-- Node8&#45;&gt;Node1 -->
<g id="edge24" class="edge">
<title>Node8&#45;&gt;Node1</title>
<path fill="none" stroke="#191970" d="M904.8837,-131.6548C818.8185,-123.9121 660.1842,-107.7982 606,-90 587.6674,-83.9782 586.0673,-75.7763 568,-69 540.6467,-58.741 474.2729,-44.6514 417.7951,-33.6512"/>
<polygon fill="#191970" stroke="#191970" points="418.2227,-30.1691 407.7397,-31.7047 416.8923,-37.0415 418.2227,-30.1691"/>
</g>
<!-- Node8&#45;&gt;Node7 -->
<g id="edge23" class="edge">
<title>Node8&#45;&gt;Node7</title>
<path fill="none" stroke="#191970" d="M904.9519,-132.0504C828.8187,-125.5729 689.9996,-111.876 573,-90 571.9166,-89.7974 570.8194,-89.5826 569.7138,-89.3575"/>
<polygon fill="#191970" stroke="#191970" points="570.201,-85.8801 559.6784,-87.1151 568.6744,-92.7117 570.201,-85.8801"/>
</g>
<!-- Node9 -->
<g id="node10" class="node">
<title>Node9</title>
<polygon fill="#ffffff" stroke="#bfbfbf" points="614.667,-69.5 614.667,-89.5 645.333,-89.5 645.333,-69.5 614.667,-69.5"/>
<text text-anchor="middle" x="630" y="-75.9" font-family="Helvetica,sans-Serif" font-size="12.00" fill="#000000">list</text>
</g>
<!-- Node8&#45;&gt;Node9 -->
<g id="edge12" class="edge">
<title>Node8&#45;&gt;Node9</title>
<path fill="none" stroke="#191970" d="M904.8408,-132.3841C844.409,-127.0323 746.447,-115.5042 655.1922,-89.7813"/>
<polygon fill="#191970" stroke="#191970" points="656.1092,-86.4032 645.531,-86.9966 654.1705,-93.1294 656.1092,-86.4032"/>
</g>
<!-- Node8&#45;&gt;Node10 -->
<g id="edge13" class="edge">
<title>Node8&#45;&gt;Node10</title>
<path fill="none" stroke="#191970" d="M1019.3158,-127.7558C1023.9416,-127.1318 1028.5466,-126.5377 1033,-126 1203.1792,-105.454 1247.9552,-118.4069 1417,-90 1418.0989,-89.8153 1419.2112,-89.6179 1420.3319,-89.4098"/>
<polygon fill="#191970" stroke="#191970" points="1421.4274,-92.7573 1430.5096,-87.3018 1420.0076,-85.9027 1421.4274,-92.7573"/>
</g>
<!-- Node11 -->
<g id="node12" class="node">
<title>Node11</title>
<polygon fill="#ffffff" stroke="#bfbfbf" points="663.3359,-69.5 663.3359,-89.5 706.6641,-89.5 706.6641,-69.5 663.3359,-69.5"/>
<text text-anchor="middle" x="685" y="-75.9" font-family="Helvetica,sans-Serif" font-size="12.00" fill="#000000">limits</text>
</g>
<!-- Node8&#45;&gt;Node11 -->
<g id="edge14" class="edge">
<title>Node8&#45;&gt;Node11</title>
<path fill="none" stroke="#191970" d="M904.5509,-128.1984C856.401,-120.6727 785.767,-108.3127 716.5858,-90.1685"/>
<polygon fill="#191970" stroke="#191970" points="717.4003,-86.7635 706.8362,-87.5698 715.5974,-93.5274 717.4003,-86.7635"/>
</g>
<!-- Node12 -->
<g id="node13" class="node">
<title>Node12</title>
<polygon fill="#ffffff" stroke="#bfbfbf" points="1507.6631,-69.5 1507.6631,-89.5 1566.3369,-89.5 1566.3369,-69.5 1507.6631,-69.5"/>
<text text-anchor="middle" x="1537" y="-75.9" font-family="Helvetica,sans-Serif" font-size="12.00" fill="#000000">sstream</text>
</g>
<!-- Node8&#45;&gt;Node12 -->
<g id="edge15" class="edge">
<title>Node8&#45;&gt;Node12</title>
<path fill="none" stroke="#191970" d="M1019.3065,-127.6758C1023.9344,-127.0697 1028.5424,-126.5016 1033,-126 1235.7668,-103.1856 1291.9605,-124.4106 1497.4184,-89.7925"/>
<polygon fill="#191970" stroke="#191970" points="1498.0485,-93.2356 1507.3161,-88.1014 1496.8695,-86.3356 1498.0485,-93.2356"/>
</g>
<!-- Node13 -->
<g id="node14" class="node">
<title>Node13</title>
<polygon fill="#ffffff" stroke="#bfbfbf" points="1742.9932,-6.5 1742.9932,-26.5 1805.0068,-26.5 1805.0068,-6.5 1742.9932,-6.5"/>
<text text-anchor="middle" x="1774" y="-12.9" font-family="Helvetica,sans-Serif" font-size="12.00" fill="#000000">iostream</text>
</g>
<!-- Node8&#45;&gt;Node13 -->
<g id="edge16" class="edge">
<title>Node8&#45;&gt;Node13</title>
<path fill="none" stroke="#191970" d="M1019.3289,-127.8595C1023.9518,-127.2122 1028.5525,-126.5845 1033,-126 1171.8345,-107.7548 1208.5462,-116.7275 1346,-90 1380.3993,-83.3112 1387.7178,-76.2648 1422,-69 1533.3082,-45.4125 1666.619,-28.594 1732.6834,-21.0113"/>
<polygon fill="#191970" stroke="#191970" points="1733.1543,-24.4804 1742.6953,-19.8739 1732.3641,-17.5251 1733.1543,-24.4804"/>
</g>
<!-- Node14 -->
<g id="node15" class="node">
<title>Node14</title>
<polygon fill="#ffffff" stroke="#bfbfbf" points="724.3262,-69.5 724.3262,-89.5 777.6738,-89.5 777.6738,-69.5 724.3262,-69.5"/>
<text text-anchor="middle" x="751" y="-75.9" font-family="Helvetica,sans-Serif" font-size="12.00" fill="#000000">iterator</text>
</g>
<!-- Node8&#45;&gt;Node14 -->
<g id="edge17" class="edge">
<title>Node8&#45;&gt;Node14</title>
<path fill="none" stroke="#191970" d="M923.0038,-126.4254C889.5717,-117.7241 839.8834,-104.6404 787.5209,-90.1008"/>
<polygon fill="#191970" stroke="#191970" points="788.2883,-86.6814 777.7159,-87.3698 786.41,-93.4247 788.2883,-86.6814"/>
</g>
<!-- Node15 -->
<g id="node16" class="node">
<title>Node15</title>
<polygon fill="#ffffff" stroke="#bfbfbf" points="795.6416,-69.5 795.6416,-89.5 894.3584,-89.5 894.3584,-69.5 795.6416,-69.5"/>
<text text-anchor="middle" x="845" y="-75.9" font-family="Helvetica,sans-Serif" font-size="12.00" fill="#000000">gsl/gsl_vector.h</text>
</g>
<!-- Node8&#45;&gt;Node15 -->
<g id="edge18" class="edge">
<title>Node8&#45;&gt;Node15</title>
<path fill="none" stroke="#191970" d="M941.3521,-126.4408C922.9199,-117.461 895.7017,-104.2008 874.8912,-94.0624"/>
<polygon fill="#191970" stroke="#191970" points="876.3579,-90.8837 865.8351,-89.6504 873.2921,-97.1766 876.3579,-90.8837"/>
</g>
<!-- Node16 -->
<g id="node17" class="node">
<title>Node16</title>
<polygon fill="#ffffff" stroke="#bfbfbf" points="912.3193,-69.5 912.3193,-89.5 1011.6807,-89.5 1011.6807,-69.5 912.3193,-69.5"/>
<text text-anchor="middle" x="962" y="-75.9" font-family="Helvetica,sans-Serif" font-size="12.00" fill="#000000">gsl/gsl_matrix.h</text>
</g>
<!-- Node8&#45;&gt;Node16 -->
<g id="edge19" class="edge">
<title>Node8&#45;&gt;Node16</title>
<path fill="none" stroke="#191970" d="M962,-126.3095C962,-118.9335 962,-108.72 962,-99.715"/>
<polygon fill="#191970" stroke="#191970" points="965.5001,-99.6022 962,-89.6022 958.5001,-99.6023 965.5001,-99.6022"/>
</g>
<!-- Node17 -->
<g id="node18" class="node">
<title>Node17</title>
<polygon fill="#ffffff" stroke="#bfbfbf" points="1029.6426,-69.5 1029.6426,-89.5 1124.3574,-89.5 1124.3574,-69.5 1029.6426,-69.5"/>
<text text-anchor="middle" x="1077" y="-75.9" font-family="Helvetica,sans-Serif" font-size="12.00" fill="#000000">gsl/gsl_linalg.h</text>
</g>
<!-- Node8&#45;&gt;Node17 -->
<g id="edge20" class="edge">
<title>Node8&#45;&gt;Node17</title>
<path fill="none" stroke="#191970" d="M982.295,-126.4408C1000.3305,-117.5014 1026.9242,-104.3202 1047.343,-94.1996"/>
<polygon fill="#191970" stroke="#191970" points="1049.1156,-97.2273 1056.5211,-89.6504 1046.0069,-90.9555 1049.1156,-97.2273"/>
</g>
<!-- Node18 -->
<g id="node19" class="node">
<title>Node18</title>
<polygon fill="#ffffff" stroke="#bfbfbf" points="1142.6455,-69.5 1142.6455,-89.5 1231.3545,-89.5 1231.3545,-69.5 1142.6455,-69.5"/>
<text text-anchor="middle" x="1187" y="-75.9" font-family="Helvetica,sans-Serif" font-size="12.00" fill="#000000">gsl/gsl_blas.h</text>
</g>
<!-- Node8&#45;&gt;Node18 -->
<g id="edge21" class="edge">
<title>Node8&#45;&gt;Node18</title>
<path fill="none" stroke="#191970" d="M1001.7076,-126.4408C1039.5858,-116.8449 1096.7581,-102.3613 1137.5701,-92.0222"/>
<polygon fill="#191970" stroke="#191970" points="1138.4774,-95.403 1147.3116,-89.5544 1136.7583,-88.6174 1138.4774,-95.403"/>
</g>
<!-- Node19 -->
<g id="node20" class="node">
<title>Node19</title>
<polygon fill="#ffffff" stroke="#bfbfbf" points="1249.0879,-69.5 1249.0879,-89.5 1336.9121,-89.5 1336.9121,-69.5 1249.0879,-69.5"/>
<text text-anchor="middle" x="1293" y="-75.9" font-family="Helvetica,sans-Serif" font-size="12.00" fill="#000000">gsl/gsl_poly.h</text>
</g>
<!-- Node8&#45;&gt;Node19 -->
<g id="edge22" class="edge">
<title>Node8&#45;&gt;Node19</title>
<path fill="none" stroke="#191970" d="M1019.0563,-127.4671C1073.117,-118.7929 1156.845,-105.0606 1239.0449,-90.1358"/>
<polygon fill="#191970" stroke="#191970" points="1239.8495,-93.5469 1249.0596,-88.3101 1238.594,-86.6604 1239.8495,-93.5469"/>
</g>
<!-- Node8&#45;&gt;Node20 -->
<g id="edge25" class="edge">
<title>Node8&#45;&gt;Node20</title>
<path fill="none" stroke="#191970" d="M1019.5088,-134.8425C1151.4089,-130.6746 1485.7706,-118.0244 1764,-90 1776.021,-88.7892 1789.0981,-87.0445 1800.8195,-85.3239"/>
<polygon fill="#191970" stroke="#191970" points="1801.3444,-88.7844 1810.7106,-83.8321 1800.3005,-81.8627 1801.3444,-88.7844"/>
</g>
<!-- Node8&#45;&gt;Node23 -->
<g id="edge30" class="edge">
<title>Node8&#45;&gt;Node23</title>
<path fill="none" stroke="#191970" d="M1019.2265,-135.815C1183.5838,-133.4893 1671.3243,-124.0796 2086.8169,-90.0323"/>
<polygon fill="#191970" stroke="#191970" points="2087.2482,-93.5087 2096.9264,-89.1978 2086.6723,-86.5325 2087.2482,-93.5087"/>
</g>
<!-- Node8&#45;&gt;Node24 -->
<g id="edge31" class="edge">
<title>Node8&#45;&gt;Node24</title>
<path fill="none" stroke="#191970" d="M904.7867,-132.3238C818.6019,-125.695 650.1478,-111.4266 496.917,-90.0303"/>
<polygon fill="#191970" stroke="#191970" points="497.2378,-86.541 486.847,-88.6106 496.2605,-93.4724 497.2378,-86.541"/>
</g>
<!-- Node20&#45;&gt;Node1 -->
<g id="edge26" class="edge">
<title>Node20&#45;&gt;Node1</title>
<path fill="none" stroke="#191970" d="M1810.7291,-74.9685C1796.8736,-72.7696 1779.5648,-70.3229 1764,-69 1170.6217,-18.5679 1014.5114,-93.1871 418.3076,-33.027"/>
<polygon fill="#191970" stroke="#191970" points="418.4682,-29.5253 408.1652,-31.9949 417.7595,-36.4894 418.4682,-29.5253"/>
</g>
<!-- Node20&#45;&gt;Node13 -->
<g id="edge27" class="edge">
<title>Node20&#45;&gt;Node13</title>
<path fill="none" stroke="#191970" d="M1826.878,-69.378C1817.3823,-59.8823 1802.9794,-45.4794 1791.602,-34.102"/>
<polygon fill="#191970" stroke="#191970" points="1793.8522,-31.4024 1784.3062,-26.8062 1788.9024,-36.3522 1793.8522,-31.4024"/>
</g>
<!-- Node21 -->
<g id="node22" class="node">
<title>Node21</title>
<polygon fill="#ffffff" stroke="#bfbfbf" points="1886.3154,-6.5 1886.3154,-26.5 1953.6846,-26.5 1953.6846,-6.5 1886.3154,-6.5"/>
<text text-anchor="middle" x="1920" y="-12.9" font-family="Helvetica,sans-Serif" font-size="12.00" fill="#000000">exception</text>
</g>
<!-- Node20&#45;&gt;Node21 -->
<g id="edge28" class="edge">
<title>Node20&#45;&gt;Node21</title>
<path fill="none" stroke="#191970" d="M1850.3354,-69.378C1863.283,-59.5503 1883.1558,-44.4661 1898.3675,-32.9198"/>
<polygon fill="#191970" stroke="#191970" points="1900.8485,-35.4308 1906.6977,-26.5969 1896.6163,-29.8551 1900.8485,-35.4308"/>
</g>
<!-- Node22 -->
<g id="node23" class="node">
<title>Node22</title>
<polygon fill="#ffffff" stroke="#bfbfbf" points="1823.3281,-6.5 1823.3281,-26.5 1868.6719,-26.5 1868.6719,-6.5 1823.3281,-6.5"/>
<text text-anchor="middle" x="1846" y="-12.9" font-family="Helvetica,sans-Serif" font-size="12.00" fill="#000000">string</text>
</g>
<!-- Node20&#45;&gt;Node22 -->
<g id="edge29" class="edge">
<title>Node20&#45;&gt;Node22</title>
<path fill="none" stroke="#191970" d="M1838.446,-69.378C1839.6982,-60.6128 1841.5477,-47.6662 1843.1032,-36.7777"/>
<polygon fill="#191970" stroke="#191970" points="1846.5782,-37.2007 1844.5277,-26.8062 1839.6486,-36.2107 1846.5782,-37.2007"/>
</g>
<!-- Node25 -->
<g id="node26" class="node">
<title>Node25</title>
<polygon fill="#ffffff" stroke="#bfbfbf" points="425.6436,-6.5 425.6436,-26.5 510.3564,-26.5 510.3564,-6.5 425.6436,-6.5"/>
<text text-anchor="middle" x="468" y="-12.9" font-family="Helvetica,sans-Serif" font-size="12.00" fill="#000000">Eigen/Dense</text>
</g>
<!-- Node24&#45;&gt;Node25 -->
<g id="edge32" class="edge">
<title>Node24&#45;&gt;Node25</title>
<path fill="none" stroke="#191970" d="M443.6594,-69.378C447.7782,-60.4302 453.9028,-47.125 458.9778,-36.0999"/>
<polygon fill="#191970" stroke="#191970" points="462.2537,-37.3536 463.2559,-26.8062 455.895,-34.4265 462.2537,-37.3536"/>
</g>
<!-- Node26&#45;&gt;Node8 -->
<g id="edge50" class="edge">
<title>Node26&#45;&gt;Node8</title>
<path fill="none" stroke="#191970" d="M1421.3051,-186.3674C1321.0225,-175.4796 1130.7549,-154.822 1029.4398,-143.822"/>
<polygon fill="#191970" stroke="#191970" points="1029.6426,-140.3236 1019.3232,-142.7237 1028.887,-147.2827 1029.6426,-140.3236"/>
</g>
<!-- Node26&#45;&gt;Node10 -->
<g id="edge38" class="edge">
<title>Node26&#45;&gt;Node10</title>
<path fill="none" stroke="#191970" d="M1484.6039,-183.3833C1480.1719,-164.6703 1470.6168,-124.3266 1464.8047,-99.7866"/>
<polygon fill="#191970" stroke="#191970" points="1468.14,-98.6821 1462.4295,-89.7579 1461.3285,-100.2954 1468.14,-98.6821"/>
</g>
<!-- Node27 -->
<g id="node28" class="node">
<title>Node27</title>
<polygon fill="#ffffff" stroke="#bfbfbf" points="2030.6611,-69.5 2030.6611,-89.5 2079.3389,-89.5 2079.3389,-69.5 2030.6611,-69.5"/>
<text text-anchor="middle" x="2055" y="-75.9" font-family="Helvetica,sans-Serif" font-size="12.00" fill="#000000">cmath</text>
</g>
<!-- Node26&#45;&gt;Node27 -->
<g id="edge37" class="edge">
<title>Node26&#45;&gt;Node27</title>
<path fill="none" stroke="#191970" d="M1552.7032,-184.4909C1612.2469,-175.99 1702.3025,-162.294 1780,-147 1885.242,-126.2841 1913.8389,-119.8175 2020.6639,-90.2496"/>
<polygon fill="#191970" stroke="#191970" points="2021.8524,-93.5522 2030.5542,-87.5083 2019.9826,-86.8065 2021.8524,-93.5522"/>
</g>
<!-- Node28 -->
<g id="node29" class="node">
<title>Node28</title>
<g id="a_node29"><a xlink:href="EccentricityExpansionCoefficients_8h.html" target="_top" xlink:title="Declares a class which provides the [ &#160;coefficients]{InclinationEccentricity_pms1}. ">
<polygon fill="#ffffff" stroke="#000000" points="1564.9551,-126.5 1564.9551,-146.5 1771.0449,-146.5 1771.0449,-126.5 1564.9551,-126.5"/>
<text text-anchor="middle" x="1668" y="-132.9" font-family="Helvetica,sans-Serif" font-size="12.00" fill="#000000">EccentricityExpansionCoefficients.h</text>
</a>
</g>
</g>
<!-- Node26&#45;&gt;Node28 -->
<g id="edge39" class="edge">
<title>Node26&#45;&gt;Node28</title>
<path fill="none" stroke="#191970" d="M1518.9425,-183.4408C1548.8337,-174.0275 1593.6608,-159.9107 1626.3482,-149.6169"/>
<polygon fill="#191970" stroke="#191970" points="1627.586,-152.8966 1636.0729,-146.5544 1625.4834,-146.2198 1627.586,-152.8966"/>
</g>
<!-- Node28&#45;&gt;Node1 -->
<g id="edge40" class="edge">
<title>Node28&#45;&gt;Node1</title>
<path fill="none" stroke="#191970" d="M1667.4381,-126.4044C1665.9816,-111.0679 1660.7538,-82.2827 1642,-69 1588.1756,-30.8779 552.5569,-39.4286 418.2835,-32.6871"/>
<polygon fill="#191970" stroke="#191970" points="418.3846,-29.1858 408.1662,-31.9849 417.8999,-36.169 418.3846,-29.1858"/>
</g>
<!-- Node28&#45;&gt;Node7 -->
<g id="edge48" class="edge">
<title>Node28&#45;&gt;Node7</title>
<path fill="none" stroke="#191970" d="M1564.8819,-135.3104C1374.8588,-132.3795 956.7618,-122.4867 606,-90 594.2281,-88.9097 581.4624,-87.2655 569.9013,-85.5998"/>
<polygon fill="#191970" stroke="#191970" points="570.092,-82.0897 559.6856,-84.0793 569.0614,-89.0134 570.092,-82.0897"/>
</g>
<!-- Node28&#45;&gt;Node12 -->
<g id="edge47" class="edge">
<title>Node28&#45;&gt;Node12</title>
<path fill="none" stroke="#191970" d="M1644.8814,-126.4408C1623.9647,-117.3396 1592.9431,-103.8416 1569.5272,-93.6531"/>
<polygon fill="#191970" stroke="#191970" points="1570.8942,-90.4309 1560.3281,-89.6504 1568.1013,-96.8497 1570.8942,-90.4309"/>
</g>
<!-- Node28&#45;&gt;Node13 -->
<g id="edge46" class="edge">
<title>Node28&#45;&gt;Node13</title>
<path fill="none" stroke="#191970" d="M1708.9581,-126.4779C1728.678,-119.5197 1750.8443,-108.1394 1764,-90 1775.0729,-74.7324 1776.7493,-52.8785 1776.1565,-36.9709"/>
<polygon fill="#191970" stroke="#191970" points="1779.6212,-36.3465 1775.4257,-26.6178 1772.6386,-36.8394 1779.6212,-36.3465"/>
</g>
<!-- Node28&#45;&gt;Node20 -->
<g id="edge41" class="edge">
<title>Node28&#45;&gt;Node20</title>
<path fill="none" stroke="#191970" d="M1697.8248,-126.4408C1726.7255,-116.6932 1770.5801,-101.902 1801.3176,-91.5349"/>
<polygon fill="#191970" stroke="#191970" points="1802.4439,-94.8488 1810.8009,-88.3364 1800.2067,-88.2159 1802.4439,-94.8488"/>
</g>
<!-- Node28&#45;&gt;Node27 -->
<g id="edge45" class="edge">
<title>Node28&#45;&gt;Node27</title>
<path fill="none" stroke="#191970" d="M1758.3561,-126.4803C1841.4275,-116.9524 1959.5837,-102.5256 2020.6218,-89.9501"/>
<polygon fill="#191970" stroke="#191970" points="2021.5894,-93.3219 2030.6238,-87.7875 2020.11,-86.48 2021.5894,-93.3219"/>
</g>
<!-- Node29 -->
<g id="node30" class="node">
<title>Node29</title>
<polygon fill="#ffffff" stroke="#bfbfbf" points="1584.6611,-69.5 1584.6611,-89.5 1633.3389,-89.5 1633.3389,-69.5 1584.6611,-69.5"/>
<text text-anchor="middle" x="1609" y="-75.9" font-family="Helvetica,sans-Serif" font-size="12.00" fill="#000000">vector</text>
</g>
<!-- Node28&#45;&gt;Node29 -->
<g id="edge42" class="edge">
<title>Node28&#45;&gt;Node29</title>
<path fill="none" stroke="#191970" d="M1657.452,-126.3095C1648.9781,-118.1229 1636.8863,-106.441 1626.9023,-96.7955"/>
<polygon fill="#191970" stroke="#191970" points="1629.0805,-94.0332 1619.4567,-89.6022 1624.2168,-99.0676 1629.0805,-94.0332"/>
</g>
<!-- Node30 -->
<g id="node31" class="node">
<title>Node30</title>
<polygon fill="#ffffff" stroke="#bfbfbf" points="1880.9961,-69.5 1880.9961,-89.5 1937.0039,-89.5 1937.0039,-69.5 1880.9961,-69.5"/>
<text text-anchor="middle" x="1909" y="-75.9" font-family="Helvetica,sans-Serif" font-size="12.00" fill="#000000">fstream</text>
</g>
<!-- Node28&#45;&gt;Node30 -->
<g id="edge43" class="edge">
<title>Node28&#45;&gt;Node30</title>
<path fill="none" stroke="#191970" d="M1715.1632,-126.4841C1754.4325,-117.9791 1812.0362,-105.1219 1870.9169,-90.1913"/>
<polygon fill="#191970" stroke="#191970" points="1871.9359,-93.5435 1880.7595,-87.6788 1870.2045,-86.7609 1871.9359,-93.5435"/>
</g>
<!-- Node31 -->
<g id="node32" class="node">
<title>Node31</title>
<polygon fill="#ffffff" stroke="#bfbfbf" points="1954.9883,-69.5 1954.9883,-89.5 2013.0117,-89.5 2013.0117,-69.5 1954.9883,-69.5"/>
<text text-anchor="middle" x="1984" y="-75.9" font-family="Helvetica,sans-Serif" font-size="12.00" fill="#000000">iomanip</text>
</g>
<!-- Node28&#45;&gt;Node31 -->
<g id="edge44" class="edge">
<title>Node28&#45;&gt;Node31</title>
<path fill="none" stroke="#191970" d="M1740.3964,-126.4966C1794.313,-118.5616 1869.8892,-106.4211 1944.566,-90.1588"/>
<polygon fill="#191970" stroke="#191970" points="1945.6048,-93.514 1954.6171,-87.9435 1944.0981,-86.678 1945.6048,-93.514"/>
</g>
<!-- Node32 -->
<g id="node33" class="node">
<title>Node32</title>
<polygon fill="#ffffff" stroke="#bfbfbf" points="1689.3232,-69.5 1689.3232,-89.5 1754.6768,-89.5 1754.6768,-69.5 1689.3232,-69.5"/>
<text text-anchor="middle" x="1722" y="-75.9" font-family="Helvetica,sans-Serif" font-size="12.00" fill="#000000">algorithm</text>
</g>
<!-- Node28&#45;&gt;Node32 -->
<g id="edge49" class="edge">
<title>Node28&#45;&gt;Node32</title>
<path fill="none" stroke="#191970" d="M1677.6541,-126.3095C1685.3331,-118.204 1696.2582,-106.672 1705.3428,-97.0826"/>
<polygon fill="#191970" stroke="#191970" points="1708.0928,-99.2689 1712.4295,-89.6022 1703.0111,-94.4547 1708.0928,-99.2689"/>
</g>
<!-- Node33&#45;&gt;Node1 -->
<g id="edge53" class="edge">
<title>Node33&#45;&gt;Node1</title>
<path fill="none" stroke="#191970" d="M2303.0785,-70.3487C2298.3222,-69.8246 2293.5873,-69.3639 2289,-69 1462.7939,-3.4588 1246.8696,-113.8106 418.2469,-33.0129"/>
<polygon fill="#191970" stroke="#191970" points="418.4565,-29.5167 408.1624,-32.0231 417.7726,-36.4833 418.4565,-29.5167"/>
</g>
<!-- Node33&#45;&gt;Node13 -->
<g id="edge54" class="edge">
<title>Node33&#45;&gt;Node13</title>
<path fill="none" stroke="#191970" d="M2303.0515,-70.6377C2298.3013,-70.0477 2293.5752,-69.4931 2289,-69 2078.5026,-46.3116 2019.974,-81.9755 1814,-33 1810.7843,-32.2354 1807.4924,-31.2462 1804.2455,-30.1322"/>
<polygon fill="#191970" stroke="#191970" points="1805.3514,-26.8081 1794.7606,-26.5156 1802.8574,-33.3488 1805.3514,-26.8081"/>
</g>
<!-- Node34&#45;&gt;Node1 -->
<g id="edge56" class="edge">
<title>Node34&#45;&gt;Node1</title>
<path fill="none" stroke="#191970" d="M654.5327,-240.4874C573.4862,-223.949 432.2625,-182.9943 356,-90 344.5836,-76.0789 336.7679,-57.3427 331.8399,-42.2716"/>
<polygon fill="#191970" stroke="#191970" points="335.1357,-41.0791 328.8809,-32.5276 328.4377,-43.1132 335.1357,-41.0791"/>
</g>
<!-- Node34&#45;&gt;Node29 -->
<g id="edge61" class="edge">
<title>Node34&#45;&gt;Node29</title>
<path fill="none" stroke="#191970" d="M784.2203,-240.4833C928.698,-218.6806 1276.0074,-163.1526 1574.4307,-89.9114"/>
<polygon fill="#191970" stroke="#191970" points="1575.7086,-93.2013 1584.58,-87.409 1574.0328,-86.4048 1575.7086,-93.2013"/>
</g>
<!-- Node35 -->
<g id="node36" class="node">
<title>Node35</title>
<g id="a_node36"><a xlink:href="StoppingCondition_8h.html" target="_top" xlink:title="Defines the various stopping conditions needed by OrbitSolver. ">
<polygon fill="#ffffff" stroke="#000000" points="589.959,-183.5 589.959,-203.5 714.041,-203.5 714.041,-183.5 589.959,-183.5"/>
<text text-anchor="middle" x="652" y="-189.9" font-family="Helvetica,sans-Serif" font-size="12.00" fill="#000000">StoppingCondition.h</text>
</a>
</g>
</g>
<!-- Node34&#45;&gt;Node35 -->
<g id="edge57" class="edge">
<title>Node34&#45;&gt;Node35</title>
<path fill="none" stroke="#191970" d="M704.5581,-240.3095C695.2751,-232.0419 681.9894,-220.2093 671.0985,-210.5096"/>
<polygon fill="#191970" stroke="#191970" points="673.1384,-207.6395 663.3429,-203.6022 668.4827,-212.8668 673.1384,-207.6395"/>
</g>
<!-- Node35&#45;&gt;Node1 -->
<g id="edge58" class="edge">
<title>Node35&#45;&gt;Node1</title>
<path fill="none" stroke="#191970" d="M604.0075,-183.4689C546.8192,-169.7348 450.4221,-140.7958 382,-90 364.4418,-76.965 349.5094,-57.1531 339.3382,-41.3818"/>
<polygon fill="#191970" stroke="#191970" points="342.1628,-39.2958 333.9158,-32.6446 336.2151,-42.987 342.1628,-39.2958"/>
</g>
<!-- Node35&#45;&gt;Node7 -->
<g id="edge60" class="edge">
<title>Node35&#45;&gt;Node7</title>
<path fill="none" stroke="#191970" d="M641.3508,-183.3833C620.8543,-163.9116 575.7052,-121.02 550.2972,-96.8824"/>
<polygon fill="#191970" stroke="#191970" points="552.4585,-94.108 542.7978,-89.7579 547.6372,-99.183 552.4585,-94.108"/>
</g>
<!-- Node35&#45;&gt;Node8 -->
<g id="edge59" class="edge">
<title>Node35&#45;&gt;Node8</title>
<path fill="none" stroke="#191970" d="M706.7082,-183.4408C760.0814,-173.627 841.2586,-158.7008 897.6925,-148.3243"/>
<polygon fill="#191970" stroke="#191970" points="898.3765,-151.7573 907.5787,-146.5065 897.1106,-144.8727 898.3765,-151.7573"/>
</g>
<!-- Node36&#45;&gt;Node1 -->
<g id="edge63" class="edge">
<title>Node36&#45;&gt;Node1</title>
<path fill="none" stroke="#191970" d="M956.8117,-246.3466C1110.238,-234.5897 1465.6958,-193.424 1346,-69 1311.5559,-33.1953 531.304,-38.1186 418.3596,-32.6511"/>
<polygon fill="#191970" stroke="#191970" points="418.3868,-29.1448 408.17,-31.9497 417.9059,-36.1283 418.3868,-29.1448"/>
</g>
<!-- Node36&#45;&gt;Node35 -->
<g id="edge64" class="edge">
<title>Node36&#45;&gt;Node35</title>
<path fill="none" stroke="#191970" d="M847.9982,-240.4408C807.762,-230.8043 746.9441,-216.2387 703.7391,-205.8913"/>
<polygon fill="#191970" stroke="#191970" points="704.5217,-202.4798 693.9815,-203.5544 702.8913,-209.2873 704.5217,-202.4798"/>
</g>
<!-- Node37&#45;&gt;Node1 -->
<g id="edge66" class="edge">
<title>Node37&#45;&gt;Node1</title>
<path fill="none" stroke="#191970" d="M490.8318,-240.4931C465.202,-233.1666 432.9467,-221.4234 408,-204 353.4596,-165.9077 333.9678,-152.4352 311,-90 305.3703,-74.6963 308.628,-56.7281 313.4108,-42.3883"/>
<polygon fill="#191970" stroke="#191970" points="316.8183,-43.2701 317.0577,-32.6779 310.2652,-40.8089 316.8183,-43.2701"/>
</g>
<!-- Node37&#45;&gt;Node35 -->
<g id="edge67" class="edge">
<title>Node37&#45;&gt;Node35</title>
<path fill="none" stroke="#191970" d="M554.8244,-240.4408C573.4141,-231.461 600.865,-218.2008 621.8534,-208.0624"/>
<polygon fill="#191970" stroke="#191970" points="623.5048,-211.1517 630.9869,-203.6504 620.46,-204.8485 623.5048,-211.1517"/>
</g>
<!-- Node38&#45;&gt;Node1 -->
<g id="edge71" class="edge">
<title>Node38&#45;&gt;Node1</title>
<path fill="none" stroke="#191970" d="M2141.1684,-132.3496C2211.8733,-125.9778 2296.0489,-109.8406 2256,-69 2221.3449,-33.6599 575.6929,-37.7223 418.6128,-32.5526"/>
<polygon fill="#191970" stroke="#191970" points="418.3272,-29.0336 408.1625,-32.0218 417.9721,-36.0246 418.3272,-29.0336"/>
</g>
<!-- Node38&#45;&gt;Node23 -->
<g id="edge73" class="edge">
<title>Node38&#45;&gt;Node23</title>
<path fill="none" stroke="#191970" d="M2078.1185,-126.4408C2095.9972,-117.5014 2122.3596,-104.3202 2142.6009,-94.1996"/>
<polygon fill="#191970" stroke="#191970" points="2144.3202,-97.2531 2151.6992,-89.6504 2141.1896,-90.9921 2144.3202,-97.2531"/>
</g>
<!-- Node38&#45;&gt;Node27 -->
<g id="edge72" class="edge">
<title>Node38&#45;&gt;Node27</title>
<path fill="none" stroke="#191970" d="M2057.4637,-126.3095C2057.0754,-118.9335 2056.5379,-108.72 2056.0639,-99.715"/>
<polygon fill="#191970" stroke="#191970" points="2059.5525,-99.4044 2055.5317,-89.6022 2052.5622,-99.7724 2059.5525,-99.4044"/>
</g>
</g>
</svg>
