<?xml version="1.0" encoding="UTF-8" standalone="no"?>
<!DOCTYPE svg PUBLIC "-//W3C//DTD SVG 1.1//EN"
 "http://www.w3.org/Graphics/SVG/1.1/DTD/svg11.dtd">
<!-- Generated by graphviz version 2.40.1 (20161225.0304)
 -->
<!-- Title: /Users/kpenev/projects/git/poet/poet_src/Evolve/ExternalStoppingConditions.h Pages: 1 -->
<!--zoomable 407 -->
<svg id="main" version="1.1" xmlns="http://www.w3.org/2000/svg" xmlns:xlink="http://www.w3.org/1999/xlink" xml:space="preserve" onload="init(evt)">
<style type="text/css"><![CDATA[
.edge:hover path { stroke: red; }
.edge:hover polygon { stroke: red; fill: red; }
]]></style>
<script type="text/javascript"><![CDATA[
var edges = document.getElementsByTagName('g');
if (edges && edges.length) {
  for (var i=0;i<edges.length;i++) {
    if (edges[i].id.substr(0,4)=='edge') {
      edges[i].setAttribute('class','edge');
    }
  }
}
]]></script>
        <defs>
                <circle id="rim" cx="0" cy="0" r="7"/>
                <circle id="rim2" cx="0" cy="0" r="3.5"/>
                <g id="zoomPlus">
                        <use xlink:href="#rim" fill="#404040">
                                <set attributeName="fill" to="#808080" begin="zoomplus.mouseover" end="zoomplus.mouseout"/>
                        </use>
                        <path d="M-4,0h8M0,-4v8" fill="none" stroke="white" stroke-width="1.5" pointer-events="none"/>
                </g>
                <g id="zoomMin">
                        <use xlink:href="#rim" fill="#404040">
                                <set attributeName="fill" to="#808080" begin="zoomminus.mouseover" end="zoomminus.mouseout"/>
                        </use>
                        <path d="M-4,0h8" fill="none" stroke="white" stroke-width="1.5" pointer-events="none"/>
                </g>
                <g id="dirArrow">
                        <path fill="none" stroke="white" stroke-width="1.5" d="M0,-3.0v7 M-2.5,-0.5L0,-3.0L2.5,-0.5"/>
                </g>
               <g id="resetDef">
                       <use xlink:href="#rim2" fill="#404040">
                               <set attributeName="fill" to="#808080" begin="reset.mouseover" end="reset.mouseout"/>
                       </use>
               </g>
        </defs>

<script type="text/javascript">
var viewWidth = 2402;
var viewHeight = 407;
var sectionId = 'dynsection-0';
</script>
<script xlink:href="svgpan.js"/>
<svg id="graph" class="graph">
<g id="viewport">
<title>/Users/kpenev/projects/git/poet/poet_src/Evolve/ExternalStoppingConditions.h</title>
<polygon fill="#ffffff" stroke="transparent" points="-4,4 -4,-403 2397.6846,-403 2397.6846,4 -4,4"/>
<!-- Node0 -->
<g id="node1" class="node">
<title>Node0</title>
<polygon fill="#bfbfbf" stroke="#000000" points="488.2813,-354.5 488.2813,-398.5 665.7188,-398.5 665.7188,-354.5 488.2813,-354.5"/>
<text text-anchor="start" x="496.2813" y="-384.9" font-family="Helvetica,sans-Serif" font-size="12.00" fill="#000000">/Users/kpenev/projects</text>
<text text-anchor="start" x="496.2813" y="-372.9" font-family="Helvetica,sans-Serif" font-size="12.00" fill="#000000">/git/poet/poet_src/Evolve</text>
<text text-anchor="middle" x="577" y="-360.9" font-family="Helvetica,sans-Serif" font-size="12.00" fill="#000000">/ExternalStoppingConditions.h</text>
</g>
<!-- Node1 -->
<g id="node2" class="node">
<title>Node1</title>
<g id="a_node2"><a xlink:href="SharedLibraryExportMacros_8h_source.html" target="_top" xlink:title="../Core/SharedLibraryExport\lMacros.h">
<polygon fill="#ffffff" stroke="#000000" points="318.2988,-.5 318.2988,-32.5 483.7012,-32.5 483.7012,-.5 318.2988,-.5"/>
<text text-anchor="start" x="326.2988" y="-18.9" font-family="Helvetica,sans-Serif" font-size="12.00" fill="#000000">../Core/SharedLibraryExport</text>
<text text-anchor="middle" x="401" y="-6.9" font-family="Helvetica,sans-Serif" font-size="12.00" fill="#000000">Macros.h</text>
</a>
</g>
</g>
<!-- Node0&#45;&gt;Node1 -->
<g id="edge1" class="edge">
<title>Node0&#45;&gt;Node1</title>
<path fill="none" stroke="#191970" d="M488.1083,-366.1967C326.2551,-346.2242 0,-299.8446 0,-250.5 0,-250.5 0,-250.5 0,-136.5 0,-98.0813 20.7189,-88.193 54,-69 96.0553,-44.747 220.2142,-30.345 307.9624,-22.9276"/>
<polygon fill="#191970" stroke="#191970" points="308.262,-26.4149 317.9388,-22.101 307.6839,-19.4388 308.262,-26.4149"/>
</g>
<!-- Node2 -->
<g id="node3" class="node">
<title>Node2</title>
<g id="a_node3"><a xlink:href="StoppingCondition_8h.html" target="_top" xlink:title="Defines the various stopping conditions needed by OrbitSolver. ">
<polygon fill="#ffffff" stroke="#000000" points="419.959,-183.5 419.959,-203.5 544.041,-203.5 544.041,-183.5 419.959,-183.5"/>
<text text-anchor="middle" x="482" y="-189.9" font-family="Helvetica,sans-Serif" font-size="12.00" fill="#000000">StoppingCondition.h</text>
</a>
</g>
</g>
<!-- Node0&#45;&gt;Node2 -->
<g id="edge2" class="edge">
<title>Node0&#45;&gt;Node2</title>
<path fill="none" stroke="#191970" d="M579.4233,-354.1758C581.3938,-325.3683 580.8156,-274.8233 558,-240 548.8209,-225.99 533.8099,-215.5126 519.5428,-208.0858"/>
<polygon fill="#191970" stroke="#191970" points="520.87,-204.84 510.3433,-203.6395 517.8237,-211.1424 520.87,-204.84"/>
</g>
<!-- Node22 -->
<g id="node23" class="node">
<title>Node22</title>
<g id="a_node23"><a xlink:href="DissipatingZone_8h.html" target="_top" xlink:title="Declares a class representing one zone of a body dissipative to tidal distortions. ">
<polygon fill="#ffffff" stroke="#000000" points="702.9736,-297.5 702.9736,-317.5 815.0264,-317.5 815.0264,-297.5 702.9736,-297.5"/>
<text text-anchor="middle" x="759" y="-303.9" font-family="Helvetica,sans-Serif" font-size="12.00" fill="#000000">DissipatingZone.h</text>
</a>
</g>
</g>
<!-- Node0&#45;&gt;Node22 -->
<g id="edge27" class="edge">
<title>Node0&#45;&gt;Node22</title>
<path fill="none" stroke="#191970" d="M635.0863,-354.4783C663.9239,-343.5453 697.8579,-330.6802 722.9167,-321.1799"/>
<polygon fill="#191970" stroke="#191970" points="724.2843,-324.4046 732.3941,-317.5869 721.8027,-317.8592 724.2843,-324.4046"/>
</g>
<!-- Node2&#45;&gt;Node1 -->
<g id="edge3" class="edge">
<title>Node2&#45;&gt;Node1</title>
<path fill="none" stroke="#191970" d="M419.8411,-187.1796C368.5728,-180.5313 301.6562,-168.0454 285,-147 263.4861,-119.8167 266.2083,-98.1316 285,-69 294.0797,-54.9244 307.9471,-44.5817 322.9726,-36.9953"/>
<polygon fill="#191970" stroke="#191970" points="324.8351,-39.9904 332.4453,-32.6192 321.8994,-33.6357 324.8351,-39.9904"/>
</g>
<!-- Node3 -->
<g id="node4" class="node">
<title>Node3</title>
<g id="a_node4"><a xlink:href="Core_2Common_8h.html" target="_top" xlink:title="Declaration of some general purpose utilities. ">
<polygon fill="#ffffff" stroke="#000000" points="1035.9834,-126.5 1035.9834,-146.5 1150.0166,-146.5 1150.0166,-126.5 1035.9834,-126.5"/>
<text text-anchor="middle" x="1093" y="-132.9" font-family="Helvetica,sans-Serif" font-size="12.00" fill="#000000">../Core/Common.h</text>
</a>
</g>
</g>
<!-- Node2&#45;&gt;Node3 -->
<g id="edge4" class="edge">
<title>Node2&#45;&gt;Node3</title>
<path fill="none" stroke="#191970" d="M544.2321,-187.6944C659.7891,-176.9141 906.5713,-153.8919 1025.7878,-142.7702"/>
<polygon fill="#191970" stroke="#191970" points="1026.2486,-146.2425 1035.8803,-141.8287 1025.5984,-139.2728 1026.2486,-146.2425"/>
</g>
<!-- Node15 -->
<g id="node16" class="node">
<title>Node15</title>
<polygon fill="#ffffff" stroke="#bfbfbf" points="447.6611,-69.5 447.6611,-89.5 502.3389,-89.5 502.3389,-69.5 447.6611,-69.5"/>
<text text-anchor="middle" x="475" y="-75.9" font-family="Helvetica,sans-Serif" font-size="12.00" fill="#000000">cassert</text>
</g>
<!-- Node2&#45;&gt;Node15 -->
<g id="edge26" class="edge">
<title>Node2&#45;&gt;Node15</title>
<path fill="none" stroke="#191970" d="M481.3788,-183.3833C480.2298,-164.6703 477.7525,-124.3266 476.2457,-99.7866"/>
<polygon fill="#191970" stroke="#191970" points="479.7363,-99.5246 475.6299,-89.7579 472.7494,-99.9537 479.7363,-99.5246"/>
</g>
<!-- Node3&#45;&gt;Node1 -->
<g id="edge17" class="edge">
<title>Node3&#45;&gt;Node1</title>
<path fill="none" stroke="#191970" d="M1035.7077,-134.6233C915.1078,-130.182 638.7854,-117.2892 549,-90 530.5377,-84.3886 528.1593,-77.8263 511,-69 489.557,-57.9703 465.4084,-46.3575 445.2116,-36.8662"/>
<polygon fill="#191970" stroke="#191970" points="446.4805,-33.5957 435.9397,-32.5271 443.5134,-39.9358 446.4805,-33.5957"/>
</g>
<!-- Node4 -->
<g id="node5" class="node">
<title>Node4</title>
<polygon fill="#ffffff" stroke="#bfbfbf" points="1050.667,-69.5 1050.667,-89.5 1081.333,-89.5 1081.333,-69.5 1050.667,-69.5"/>
<text text-anchor="middle" x="1066" y="-75.9" font-family="Helvetica,sans-Serif" font-size="12.00" fill="#000000">list</text>
</g>
<!-- Node3&#45;&gt;Node4 -->
<g id="edge5" class="edge">
<title>Node3&#45;&gt;Node4</title>
<path fill="none" stroke="#191970" d="M1088.1729,-126.3095C1084.5638,-118.6903 1079.5206,-108.0435 1075.1556,-98.8285"/>
<polygon fill="#191970" stroke="#191970" points="1078.2293,-97.1413 1070.7853,-89.6022 1071.9031,-100.1379 1078.2293,-97.1413"/>
</g>
<!-- Node5 -->
<g id="node6" class="node">
<title>Node5</title>
<polygon fill="#ffffff" stroke="#bfbfbf" points="1541.6602,-69.5 1541.6602,-89.5 1600.3398,-89.5 1600.3398,-69.5 1541.6602,-69.5"/>
<text text-anchor="middle" x="1571" y="-75.9" font-family="Helvetica,sans-Serif" font-size="12.00" fill="#000000">valarray</text>
</g>
<!-- Node3&#45;&gt;Node5 -->
<g id="edge6" class="edge">
<title>Node3&#45;&gt;Node5</title>
<path fill="none" stroke="#191970" d="M1150.2233,-130.0215C1227.4033,-121.2323 1369.1286,-104.9124 1490,-90 1503.4369,-88.3422 1518.1178,-86.4605 1531.2458,-84.7525"/>
<polygon fill="#191970" stroke="#191970" points="1531.9255,-88.1935 1541.3878,-83.4275 1531.0186,-81.2525 1531.9255,-88.1935"/>
</g>
<!-- Node6 -->
<g id="node7" class="node">
<title>Node6</title>
<polygon fill="#ffffff" stroke="#bfbfbf" points="1099.3359,-69.5 1099.3359,-89.5 1142.6641,-89.5 1142.6641,-69.5 1099.3359,-69.5"/>
<text text-anchor="middle" x="1121" y="-75.9" font-family="Helvetica,sans-Serif" font-size="12.00" fill="#000000">limits</text>
</g>
<!-- Node3&#45;&gt;Node6 -->
<g id="edge7" class="edge">
<title>Node3&#45;&gt;Node6</title>
<path fill="none" stroke="#191970" d="M1098.0058,-126.3095C1101.7486,-118.6903 1106.9787,-108.0435 1111.5053,-98.8285"/>
<polygon fill="#191970" stroke="#191970" points="1114.7698,-100.121 1116.0375,-89.6022 1108.487,-97.0346 1114.7698,-100.121"/>
</g>
<!-- Node7 -->
<g id="node8" class="node">
<title>Node7</title>
<polygon fill="#ffffff" stroke="#bfbfbf" points="1618.6631,-69.5 1618.6631,-89.5 1677.3369,-89.5 1677.3369,-69.5 1618.6631,-69.5"/>
<text text-anchor="middle" x="1648" y="-75.9" font-family="Helvetica,sans-Serif" font-size="12.00" fill="#000000">sstream</text>
</g>
<!-- Node3&#45;&gt;Node7 -->
<g id="edge8" class="edge">
<title>Node3&#45;&gt;Node7</title>
<path fill="none" stroke="#191970" d="M1150.3129,-134.5737C1244.1813,-130.7109 1436.569,-119.8292 1608.3304,-89.8307"/>
<polygon fill="#191970" stroke="#191970" points="1609.0736,-93.2536 1618.3092,-88.062 1607.8518,-86.3611 1609.0736,-93.2536"/>
</g>
<!-- Node8 -->
<g id="node9" class="node">
<title>Node8</title>
<polygon fill="#ffffff" stroke="#bfbfbf" points="2147.9932,-6.5 2147.9932,-26.5 2210.0068,-26.5 2210.0068,-6.5 2147.9932,-6.5"/>
<text text-anchor="middle" x="2179" y="-12.9" font-family="Helvetica,sans-Serif" font-size="12.00" fill="#000000">iostream</text>
</g>
<!-- Node3&#45;&gt;Node8 -->
<g id="edge9" class="edge">
<title>Node3&#45;&gt;Node8</title>
<path fill="none" stroke="#191970" d="M1150.1529,-131.7395C1222.1837,-125.1591 1349.5702,-111.5897 1457,-90 1491.3566,-83.0955 1498.4938,-75.1131 1533,-69 1758.7916,-28.9989 2034.4661,-19.4145 2137.5231,-17.1689"/>
<polygon fill="#191970" stroke="#191970" points="2137.8803,-20.6624 2147.8061,-16.9571 2137.736,-13.6639 2137.8803,-20.6624"/>
</g>
<!-- Node9 -->
<g id="node10" class="node">
<title>Node9</title>
<polygon fill="#ffffff" stroke="#bfbfbf" points="1160.3262,-69.5 1160.3262,-89.5 1213.6738,-89.5 1213.6738,-69.5 1160.3262,-69.5"/>
<text text-anchor="middle" x="1187" y="-75.9" font-family="Helvetica,sans-Serif" font-size="12.00" fill="#000000">iterator</text>
</g>
<!-- Node3&#45;&gt;Node9 -->
<g id="edge10" class="edge">
<title>Node3&#45;&gt;Node9</title>
<path fill="none" stroke="#191970" d="M1109.8053,-126.3095C1124.2417,-117.5556 1145.2691,-104.8049 1161.7335,-94.8211"/>
<polygon fill="#191970" stroke="#191970" points="1163.6042,-97.7801 1170.3402,-89.6022 1159.9746,-91.7945 1163.6042,-97.7801"/>
</g>
<!-- Node10 -->
<g id="node11" class="node">
<title>Node10</title>
<polygon fill="#ffffff" stroke="#bfbfbf" points="1231.6416,-69.5 1231.6416,-89.5 1330.3584,-89.5 1330.3584,-69.5 1231.6416,-69.5"/>
<text text-anchor="middle" x="1281" y="-75.9" font-family="Helvetica,sans-Serif" font-size="12.00" fill="#000000">gsl/gsl_vector.h</text>
</g>
<!-- Node3&#45;&gt;Node10 -->
<g id="edge11" class="edge">
<title>Node3&#45;&gt;Node10</title>
<path fill="none" stroke="#191970" d="M1126.1779,-126.4408C1157.3589,-116.9869 1204.1875,-102.7889 1238.1757,-92.484"/>
<polygon fill="#191970" stroke="#191970" points="1239.2839,-95.8054 1247.8382,-89.5544 1237.2528,-89.1065 1239.2839,-95.8054"/>
</g>
<!-- Node11 -->
<g id="node12" class="node">
<title>Node11</title>
<polygon fill="#ffffff" stroke="#bfbfbf" points="1348.3193,-69.5 1348.3193,-89.5 1447.6807,-89.5 1447.6807,-69.5 1348.3193,-69.5"/>
<text text-anchor="middle" x="1398" y="-75.9" font-family="Helvetica,sans-Serif" font-size="12.00" fill="#000000">gsl/gsl_matrix.h</text>
</g>
<!-- Node3&#45;&gt;Node11 -->
<g id="edge12" class="edge">
<title>Node3&#45;&gt;Node11</title>
<path fill="none" stroke="#191970" d="M1146.8258,-126.4408C1200.4369,-116.4216 1282.5602,-101.074 1338.1825,-90.679"/>
<polygon fill="#191970" stroke="#191970" points="1339.0604,-94.0756 1348.2472,-88.7981 1337.7744,-87.1948 1339.0604,-94.0756"/>
</g>
<!-- Node12 -->
<g id="node13" class="node">
<title>Node12</title>
<polygon fill="#ffffff" stroke="#bfbfbf" points="557.6426,-69.5 557.6426,-89.5 652.3574,-89.5 652.3574,-69.5 557.6426,-69.5"/>
<text text-anchor="middle" x="605" y="-75.9" font-family="Helvetica,sans-Serif" font-size="12.00" fill="#000000">gsl/gsl_linalg.h</text>
</g>
<!-- Node3&#45;&gt;Node12 -->
<g id="edge13" class="edge">
<title>Node3&#45;&gt;Node12</title>
<path fill="none" stroke="#191970" d="M1035.6598,-131.6868C954.8503,-124.5996 802.6529,-110.1399 662.6032,-89.9926"/>
<polygon fill="#191970" stroke="#191970" points="662.9409,-86.505 652.5418,-88.5322 661.9353,-93.4324 662.9409,-86.505"/>
</g>
<!-- Node13 -->
<g id="node14" class="node">
<title>Node13</title>
<polygon fill="#ffffff" stroke="#bfbfbf" points="670.6455,-69.5 670.6455,-89.5 759.3545,-89.5 759.3545,-69.5 670.6455,-69.5"/>
<text text-anchor="middle" x="715" y="-75.9" font-family="Helvetica,sans-Serif" font-size="12.00" fill="#000000">gsl/gsl_blas.h</text>
</g>
<!-- Node3&#45;&gt;Node13 -->
<g id="edge14" class="edge">
<title>Node3&#45;&gt;Node13</title>
<path fill="none" stroke="#191970" d="M1035.9083,-129.2712C972.9865,-121.0932 868.5536,-106.8998 769.3884,-90.1747"/>
<polygon fill="#191970" stroke="#191970" points="769.946,-86.7193 759.5011,-88.4956 768.7739,-93.6205 769.946,-86.7193"/>
</g>
<!-- Node14 -->
<g id="node15" class="node">
<title>Node14</title>
<polygon fill="#ffffff" stroke="#bfbfbf" points="777.0879,-69.5 777.0879,-89.5 864.9121,-89.5 864.9121,-69.5 777.0879,-69.5"/>
<text text-anchor="middle" x="821" y="-75.9" font-family="Helvetica,sans-Serif" font-size="12.00" fill="#000000">gsl/gsl_poly.h</text>
</g>
<!-- Node3&#45;&gt;Node14 -->
<g id="edge15" class="edge">
<title>Node3&#45;&gt;Node14</title>
<path fill="none" stroke="#191970" d="M1044.998,-126.4408C997.3424,-116.4541 924.4239,-101.1734 874.8283,-90.7802"/>
<polygon fill="#191970" stroke="#191970" points="875.4311,-87.3306 864.9258,-88.705 873.9953,-94.1817 875.4311,-87.3306"/>
</g>
<!-- Node3&#45;&gt;Node15 -->
<g id="edge16" class="edge">
<title>Node3&#45;&gt;Node15</title>
<path fill="none" stroke="#191970" d="M1035.6859,-135.1093C931.5431,-131.8678 704.5837,-121.5108 516,-90 514.9129,-89.8184 513.8124,-89.6219 512.7039,-89.4131"/>
<polygon fill="#191970" stroke="#191970" points="513.1633,-85.9323 502.6523,-87.2623 511.6986,-92.7773 513.1633,-85.9323"/>
</g>
<!-- Node16 -->
<g id="node17" class="node">
<title>Node16</title>
<g id="a_node17"><a xlink:href="Error_8h.html" target="_top" xlink:title="Defines the exception hierarchy used by this code. ">
<polygon fill="#ffffff" stroke="#000000" points="2277.9912,-69.5 2277.9912,-89.5 2330.0088,-89.5 2330.0088,-69.5 2277.9912,-69.5"/>
<text text-anchor="middle" x="2304" y="-75.9" font-family="Helvetica,sans-Serif" font-size="12.00" fill="#000000">Error.h</text>
</a>
</g>
</g>
<!-- Node3&#45;&gt;Node16 -->
<g id="edge18" class="edge">
<title>Node3&#45;&gt;Node16</title>
<path fill="none" stroke="#191970" d="M1150.2712,-136.2222C1317.2231,-134.9691 1817.7543,-128.0625 2231,-90 2243.0309,-88.8919 2256.1106,-87.1741 2267.8314,-85.4467"/>
<polygon fill="#191970" stroke="#191970" points="2268.3618,-88.9064 2277.7211,-83.9412 2267.3083,-81.9861 2268.3618,-88.9064"/>
</g>
<!-- Node19 -->
<g id="node20" class="node">
<title>Node19</title>
<g id="a_node20"><a xlink:href="AstronomicalConstants_8h.html" target="_top" xlink:title="Defines various astronomical constants. ">
<polygon fill="#ffffff" stroke="#000000" points="883.3027,-69.5 883.3027,-89.5 1032.6973,-89.5 1032.6973,-69.5 883.3027,-69.5"/>
<text text-anchor="middle" x="958" y="-75.9" font-family="Helvetica,sans-Serif" font-size="12.00" fill="#000000">AstronomicalConstants.h</text>
</a>
</g>
</g>
<!-- Node3&#45;&gt;Node19 -->
<g id="edge23" class="edge">
<title>Node3&#45;&gt;Node19</title>
<path fill="none" stroke="#191970" d="M1069.1755,-126.4408C1047.6201,-117.3396 1015.6513,-103.8416 991.5204,-93.6531"/>
<polygon fill="#191970" stroke="#191970" points="992.6144,-90.3158 982.0405,-89.6504 989.8915,-96.7646 992.6144,-90.3158"/>
</g>
<!-- Node20 -->
<g id="node21" class="node">
<title>Node20</title>
<g id="a_node21"><a xlink:href="IncludeEigen_8h_source.html" target="_top" xlink:title="IncludeEigen.h">
<polygon fill="#ffffff" stroke="#000000" points="104.3027,-69.5 104.3027,-89.5 199.6973,-89.5 199.6973,-69.5 104.3027,-69.5"/>
<text text-anchor="middle" x="152" y="-75.9" font-family="Helvetica,sans-Serif" font-size="12.00" fill="#000000">IncludeEigen.h</text>
</a>
</g>
</g>
<!-- Node3&#45;&gt;Node20 -->
<g id="edge24" class="edge">
<title>Node3&#45;&gt;Node20</title>
<path fill="none" stroke="#191970" d="M1035.663,-133.6207C903.3416,-126.8839 566.4191,-109.2042 285,-90 260.4419,-88.3241 233.3531,-86.2302 210.0669,-84.3541"/>
<polygon fill="#191970" stroke="#191970" points="210.2497,-80.8575 199.9995,-83.5375 209.6838,-87.8346 210.2497,-80.8575"/>
</g>
<!-- Node16&#45;&gt;Node1 -->
<g id="edge19" class="edge">
<title>Node16&#45;&gt;Node1</title>
<path fill="none" stroke="#191970" d="M2277.7281,-74.981C2263.8722,-72.7855 2246.5635,-70.3381 2231,-69 1888.362,-39.5403 817.3626,-22.3718 494.222,-17.7653"/>
<polygon fill="#191970" stroke="#191970" points="494.0104,-14.262 483.9617,-17.6197 493.911,-21.2613 494.0104,-14.262"/>
</g>
<!-- Node16&#45;&gt;Node8 -->
<g id="edge20" class="edge">
<title>Node16&#45;&gt;Node8</title>
<path fill="none" stroke="#191970" d="M2283.9166,-69.378C2263.4149,-59.0451 2231.3838,-42.9015 2208.1043,-31.1686"/>
<polygon fill="#191970" stroke="#191970" points="2209.5388,-27.9722 2199.0336,-26.5969 2206.3883,-34.2231 2209.5388,-27.9722"/>
</g>
<!-- Node17 -->
<g id="node18" class="node">
<title>Node17</title>
<polygon fill="#ffffff" stroke="#bfbfbf" points="2326.3154,-6.5 2326.3154,-26.5 2393.6846,-26.5 2393.6846,-6.5 2326.3154,-6.5"/>
<text text-anchor="middle" x="2360" y="-12.9" font-family="Helvetica,sans-Serif" font-size="12.00" fill="#000000">exception</text>
</g>
<!-- Node16&#45;&gt;Node17 -->
<g id="edge21" class="edge">
<title>Node16&#45;&gt;Node17</title>
<path fill="none" stroke="#191970" d="M2312.9974,-69.378C2321.3568,-59.9736 2333.9947,-45.7559 2344.0613,-34.431"/>
<polygon fill="#191970" stroke="#191970" points="2346.8112,-36.6056 2350.8389,-26.8062 2341.5793,-31.955 2346.8112,-36.6056"/>
</g>
<!-- Node18 -->
<g id="node19" class="node">
<title>Node18</title>
<polygon fill="#ffffff" stroke="#bfbfbf" points="2263.3281,-6.5 2263.3281,-26.5 2308.6719,-26.5 2308.6719,-6.5 2263.3281,-6.5"/>
<text text-anchor="middle" x="2286" y="-12.9" font-family="Helvetica,sans-Serif" font-size="12.00" fill="#000000">string</text>
</g>
<!-- Node16&#45;&gt;Node18 -->
<g id="edge22" class="edge">
<title>Node16&#45;&gt;Node18</title>
<path fill="none" stroke="#191970" d="M2301.108,-69.378C2298.5776,-60.5215 2294.8274,-47.396 2291.6966,-36.4381"/>
<polygon fill="#191970" stroke="#191970" points="2295.0573,-35.4599 2288.9446,-26.8062 2288.3266,-37.383 2295.0573,-35.4599"/>
</g>
<!-- Node21 -->
<g id="node22" class="node">
<title>Node21</title>
<polygon fill="#ffffff" stroke="#bfbfbf" points="109.6436,-6.5 109.6436,-26.5 194.3564,-26.5 194.3564,-6.5 109.6436,-6.5"/>
<text text-anchor="middle" x="152" y="-12.9" font-family="Helvetica,sans-Serif" font-size="12.00" fill="#000000">Eigen/Dense</text>
</g>
<!-- Node20&#45;&gt;Node21 -->
<g id="edge25" class="edge">
<title>Node20&#45;&gt;Node21</title>
<path fill="none" stroke="#191970" d="M152,-69.378C152,-60.7041 152,-47.9355 152,-37.1186"/>
<polygon fill="#191970" stroke="#191970" points="155.5001,-36.8062 152,-26.8062 148.5001,-36.8062 155.5001,-36.8062"/>
</g>
<!-- Node22&#45;&gt;Node1 -->
<g id="edge36" class="edge">
<title>Node22&#45;&gt;Node1</title>
<path fill="none" stroke="#191970" d="M702.7247,-304.5243C533.0386,-294.8087 38,-260.7058 38,-193.5 38,-193.5 38,-193.5 38,-136.5 38,-99.166 56.1663,-88.505 88,-69 124.0266,-46.926 229.222,-32.4581 307.7813,-24.4053"/>
<polygon fill="#191970" stroke="#191970" points="308.5929,-27.8414 318.193,-23.3593 307.8932,-20.8765 308.5929,-27.8414"/>
</g>
<!-- Node22&#45;&gt;Node3 -->
<g id="edge67" class="edge">
<title>Node22&#45;&gt;Node3</title>
<path fill="none" stroke="#191970" d="M815.1396,-300.12C853.0668,-293.55 903.4254,-281.6694 944,-261 998.9863,-232.989 1051.5238,-181.3755 1076.9974,-154.2387"/>
<polygon fill="#191970" stroke="#191970" points="1079.7889,-156.375 1084.0069,-146.6559 1074.6487,-151.6233 1079.7889,-156.375"/>
</g>
<!-- Node22&#45;&gt;Node5 -->
<g id="edge68" class="edge">
<title>Node22&#45;&gt;Node5</title>
<path fill="none" stroke="#191970" d="M815.0854,-306.5033C960.8282,-303.4899 1348.7883,-292.6495 1473,-261 1531.3858,-246.1231 1563.5666,-254.7769 1596,-204 1616.9409,-171.2154 1597.1355,-124.475 1582.806,-98.5942"/>
<polygon fill="#191970" stroke="#191970" points="1585.7286,-96.6574 1577.6786,-89.7691 1579.676,-100.174 1585.7286,-96.6574"/>
</g>
<!-- Node22&#45;&gt;Node16 -->
<g id="edge37" class="edge">
<title>Node22&#45;&gt;Node16</title>
<path fill="none" stroke="#191970" d="M815.2211,-305.8175C977.6494,-300.7285 1445.6203,-284.3997 1597,-261 1859.0948,-220.4864 2165.1596,-124.9141 2268.1418,-91.3803"/>
<polygon fill="#191970" stroke="#191970" points="2269.3275,-94.675 2277.745,-88.241 2267.1524,-88.0215 2269.3275,-94.675"/>
</g>
<!-- Node23 -->
<g id="node24" class="node">
<title>Node23</title>
<g id="a_node24"><a xlink:href="ZoneOrientation_8h.html" target="_top" xlink:title="Declares a class for orientations of zones of DissipatingBody objects. ">
<polygon fill="#ffffff" stroke="#000000" points="230.9707,-183.5 230.9707,-203.5 343.0293,-203.5 343.0293,-183.5 230.9707,-183.5"/>
<text text-anchor="middle" x="287" y="-189.9" font-family="Helvetica,sans-Serif" font-size="12.00" fill="#000000">ZoneOrientation.h</text>
</a>
</g>
</g>
<!-- Node22&#45;&gt;Node23 -->
<g id="edge28" class="edge">
<title>Node22&#45;&gt;Node23</title>
<path fill="none" stroke="#191970" d="M702.763,-305.4208C607.0348,-301.1538 416.956,-289.3133 357,-261 333.4285,-249.8687 312.826,-227.6093 300.1861,-211.6951"/>
<polygon fill="#191970" stroke="#191970" points="302.8671,-209.439 294.0148,-203.6176 297.3047,-213.6887 302.8671,-209.439"/>
</g>
<!-- Node24 -->
<g id="node25" class="node">
<title>Node24</title>
<g id="a_node25"><a xlink:href="DissipationQuantities_8h.html" target="_top" xlink:title="Declaration of enumerations of dissipation quantities and derivatives. ">
<polygon fill="#ffffff" stroke="#000000" points="293.6348,-126.5 293.6348,-146.5 432.3652,-146.5 432.3652,-126.5 293.6348,-126.5"/>
<text text-anchor="middle" x="363" y="-132.9" font-family="Helvetica,sans-Serif" font-size="12.00" fill="#000000">DissipationQuantities.h</text>
</a>
</g>
</g>
<!-- Node22&#45;&gt;Node24 -->
<g id="edge53" class="edge">
<title>Node22&#45;&gt;Node24</title>
<path fill="none" stroke="#191970" d="M702.9631,-303.9773C605.4318,-297.3337 412.652,-281.7372 390,-261 361.0374,-234.4856 359.2607,-184.8679 360.8923,-156.9441"/>
<polygon fill="#191970" stroke="#191970" points="364.3987,-156.9998 361.6985,-146.7549 357.4205,-156.4476 364.3987,-156.9998"/>
</g>
<!-- Node26 -->
<g id="node27" class="node">
<title>Node26</title>
<g id="a_node27"><a xlink:href="TidalPotentialTerms_8h.html" target="_top" xlink:title="Declare an interface for evaluating the expansion of the tidal potential. ">
<polygon fill="#ffffff" stroke="#000000" points="1456.5283,-183.5 1456.5283,-203.5 1587.4717,-203.5 1587.4717,-183.5 1456.5283,-183.5"/>
<text text-anchor="middle" x="1522" y="-189.9" font-family="Helvetica,sans-Serif" font-size="12.00" fill="#000000">TidalPotentialTerms.h</text>
</a>
</g>
</g>
<!-- Node22&#45;&gt;Node26 -->
<g id="edge38" class="edge">
<title>Node22&#45;&gt;Node26</title>
<path fill="none" stroke="#191970" d="M815.2495,-305.7033C968.4638,-300.5249 1385.5924,-284.428 1443,-261 1469.1708,-250.3197 1492.9002,-227.4267 1507.3727,-211.2718"/>
<polygon fill="#191970" stroke="#191970" points="1510.1668,-213.3916 1514.061,-203.5384 1504.8722,-208.8125 1510.1668,-213.3916"/>
</g>
<!-- Node33 -->
<g id="node34" class="node">
<title>Node33</title>
<g id="a_node34"><a xlink:href="SpinOrbitLockInfo_8h.html" target="_top" xlink:title="Defines the SpinOrbitLockInfo class. ">
<polygon fill="#ffffff" stroke="#000000" points="2100.3037,-69.5 2100.3037,-89.5 2221.6963,-89.5 2221.6963,-69.5 2100.3037,-69.5"/>
<text text-anchor="middle" x="2161" y="-75.9" font-family="Helvetica,sans-Serif" font-size="12.00" fill="#000000">SpinOrbitLockInfo.h</text>
</a>
</g>
</g>
<!-- Node22&#45;&gt;Node33 -->
<g id="edge54" class="edge">
<title>Node22&#45;&gt;Node33</title>
<path fill="none" stroke="#191970" d="M815.2857,-305.5891C968.626,-300.1458 1391.4618,-283.4895 1529,-261 1720.7324,-229.6489 1764.691,-202.0742 1951,-147 2010.8379,-129.3115 2079.5762,-106.7953 2121.6448,-92.7625"/>
<polygon fill="#191970" stroke="#191970" points="2122.8558,-96.0481 2131.23,-89.5579 2120.6362,-89.4093 2122.8558,-96.0481"/>
</g>
<!-- Node34 -->
<g id="node35" class="node">
<title>Node34</title>
<g id="a_node35"><a xlink:href="CombinedStoppingCondition_8h.html" target="_top" xlink:title="Declares a class for a stopping condition that combines other stopping conditions. ">
<polygon fill="#ffffff" stroke="#000000" points="756.6104,-240.5 756.6104,-260.5 935.3896,-260.5 935.3896,-240.5 756.6104,-240.5"/>
<text text-anchor="middle" x="846" y="-246.9" font-family="Helvetica,sans-Serif" font-size="12.00" fill="#000000">CombinedStoppingCondition.h</text>
</a>
</g>
</g>
<!-- Node22&#45;&gt;Node34 -->
<g id="edge57" class="edge">
<title>Node22&#45;&gt;Node34</title>
<path fill="none" stroke="#191970" d="M774.5539,-297.3095C787.7915,-288.6366 807.0169,-276.0407 822.1907,-266.0992"/>
<polygon fill="#191970" stroke="#191970" points="824.1343,-269.0102 830.5808,-260.6022 820.2981,-263.1549 824.1343,-269.0102"/>
</g>
<!-- Node35 -->
<g id="node36" class="node">
<title>Node35</title>
<g id="a_node36"><a xlink:href="BreakLockCondition_8h.html" target="_top" xlink:title="Declares a class for a stopping condition monitoring when a locked zone loses the lock...">
<polygon fill="#ffffff" stroke="#000000" points="605.2979,-240.5 605.2979,-260.5 738.7021,-260.5 738.7021,-240.5 605.2979,-240.5"/>
<text text-anchor="middle" x="672" y="-246.9" font-family="Helvetica,sans-Serif" font-size="12.00" fill="#000000">BreakLockCondition.h</text>
</a>
</g>
</g>
<!-- Node22&#45;&gt;Node35 -->
<g id="edge61" class="edge">
<title>Node22&#45;&gt;Node35</title>
<path fill="none" stroke="#191970" d="M743.4461,-297.3095C730.2085,-288.6366 710.9831,-276.0407 695.8093,-266.0992"/>
<polygon fill="#191970" stroke="#191970" points="697.7019,-263.1549 687.4192,-260.6022 693.8657,-269.0102 697.7019,-263.1549"/>
</g>
<!-- Node36 -->
<g id="node37" class="node">
<title>Node36</title>
<g id="a_node37"><a xlink:href="SynchronizedCondition_8h.html" target="_top" xlink:title="Declares a stopping condition monitoring spin&#45;orbit synchronization. ">
<polygon fill="#ffffff" stroke="#000000" points="399.291,-240.5 399.291,-260.5 548.709,-260.5 548.709,-240.5 399.291,-240.5"/>
<text text-anchor="middle" x="474" y="-246.9" font-family="Helvetica,sans-Serif" font-size="12.00" fill="#000000">SynchronizedCondition.h</text>
</a>
</g>
</g>
<!-- Node22&#45;&gt;Node36 -->
<g id="edge64" class="edge">
<title>Node22&#45;&gt;Node36</title>
<path fill="none" stroke="#191970" d="M708.7038,-297.4408C660.0146,-287.7029 586.1576,-272.9315 534.3298,-262.566"/>
<polygon fill="#191970" stroke="#191970" points="534.7642,-259.0836 524.2719,-260.5544 533.3913,-265.9477 534.7642,-259.0836"/>
</g>
<!-- Node23&#45;&gt;Node1 -->
<g id="edge29" class="edge">
<title>Node23&#45;&gt;Node1</title>
<path fill="none" stroke="#191970" d="M281.4936,-183.3898C269.9633,-160.7021 246.309,-104.9163 271,-69 280.8554,-54.6641 295.3408,-44.2409 311.1028,-36.663"/>
<polygon fill="#191970" stroke="#191970" points="312.7643,-39.7557 320.5054,-32.5219 309.9429,-33.3494 312.7643,-39.7557"/>
</g>
<!-- Node23&#45;&gt;Node3 -->
<g id="edge34" class="edge">
<title>Node23&#45;&gt;Node3</title>
<path fill="none" stroke="#191970" d="M343.1566,-188.5486C364.4049,-186.7267 388.8117,-184.6957 411,-183 636.0761,-165.7987 903.1828,-148.4885 1025.6124,-140.727"/>
<polygon fill="#191970" stroke="#191970" points="1026.1851,-144.1978 1035.9439,-140.0729 1025.7427,-137.2118 1026.1851,-144.1978"/>
</g>
<!-- Node23&#45;&gt;Node20 -->
<g id="edge35" class="edge">
<title>Node23&#45;&gt;Node20</title>
<path fill="none" stroke="#191970" d="M268.3954,-183.4573C253.0744,-174.7739 231.1602,-161.3809 214,-147 196.2248,-132.1038 178.5929,-112.2898 166.7027,-97.9863"/>
<polygon fill="#191970" stroke="#191970" points="169.126,-95.4199 160.0915,-89.8856 163.7029,-99.846 169.126,-95.4199"/>
</g>
<!-- Node23&#45;&gt;Node24 -->
<g id="edge30" class="edge">
<title>Node23&#45;&gt;Node24</title>
<path fill="none" stroke="#191970" d="M300.5873,-183.3095C311.935,-174.7987 328.3198,-162.5102 341.4542,-152.6594"/>
<polygon fill="#191970" stroke="#191970" points="343.6303,-155.4023 349.5304,-146.6022 339.4303,-149.8023 343.6303,-155.4023"/>
</g>
<!-- Node24&#45;&gt;Node1 -->
<g id="edge31" class="edge">
<title>Node24&#45;&gt;Node1</title>
<path fill="none" stroke="#191970" d="M366.2399,-126.2689C372.0708,-107.8555 384.497,-68.6146 392.8013,-42.3908"/>
<polygon fill="#191970" stroke="#191970" points="396.183,-43.305 395.8653,-32.7149 389.5096,-41.1917 396.183,-43.305"/>
</g>
<!-- Node24&#45;&gt;Node15 -->
<g id="edge33" class="edge">
<title>Node24&#45;&gt;Node15</title>
<path fill="none" stroke="#191970" d="M382.7655,-126.4408C400.3306,-117.5014 426.2305,-104.3202 446.1167,-94.1996"/>
<polygon fill="#191970" stroke="#191970" points="447.7306,-97.3054 455.0553,-89.6504 444.5556,-91.0669 447.7306,-97.3054"/>
</g>
<!-- Node25 -->
<g id="node26" class="node">
<title>Node25</title>
<polygon fill="#ffffff" stroke="#bfbfbf" points="294.3262,-69.5 294.3262,-89.5 353.6738,-89.5 353.6738,-69.5 294.3262,-69.5"/>
<text text-anchor="middle" x="324" y="-75.9" font-family="Helvetica,sans-Serif" font-size="12.00" fill="#000000">ostream</text>
</g>
<!-- Node24&#45;&gt;Node25 -->
<g id="edge32" class="edge">
<title>Node24&#45;&gt;Node25</title>
<path fill="none" stroke="#191970" d="M356.0276,-126.3095C350.6481,-118.4472 343.0626,-107.3608 336.6242,-97.9507"/>
<polygon fill="#191970" stroke="#191970" points="339.4475,-95.8789 330.9121,-89.6022 333.6704,-99.8317 339.4475,-95.8789"/>
</g>
<!-- Node26&#45;&gt;Node3 -->
<g id="edge52" class="edge">
<title>Node26&#45;&gt;Node3</title>
<path fill="none" stroke="#191970" d="M1456.3771,-184.7809C1376.1322,-174.119 1241.0345,-156.1689 1160.1161,-145.4175"/>
<polygon fill="#191970" stroke="#191970" points="1160.4132,-141.9263 1150.0393,-144.0786 1159.4912,-148.8653 1160.4132,-141.9263"/>
</g>
<!-- Node26&#45;&gt;Node5 -->
<g id="edge40" class="edge">
<title>Node26&#45;&gt;Node5</title>
<path fill="none" stroke="#191970" d="M1526.3484,-183.3833C1534.4642,-164.5017 1552.0456,-123.598 1562.5637,-99.1272"/>
<polygon fill="#191970" stroke="#191970" points="1565.8575,-100.3274 1566.5909,-89.7579 1559.4264,-97.5631 1565.8575,-100.3274"/>
</g>
<!-- Node27 -->
<g id="node28" class="node">
<title>Node27</title>
<polygon fill="#ffffff" stroke="#bfbfbf" points="1762.6611,-69.5 1762.6611,-89.5 1811.3389,-89.5 1811.3389,-69.5 1762.6611,-69.5"/>
<text text-anchor="middle" x="1787" y="-75.9" font-family="Helvetica,sans-Serif" font-size="12.00" fill="#000000">cmath</text>
</g>
<!-- Node26&#45;&gt;Node27 -->
<g id="edge39" class="edge">
<title>Node26&#45;&gt;Node27</title>
<path fill="none" stroke="#191970" d="M1545.517,-183.3833C1592.8587,-163.0174 1699.7569,-117.031 1754.0387,-93.6796"/>
<polygon fill="#191970" stroke="#191970" points="1755.7328,-96.761 1763.5357,-89.5941 1752.9665,-90.3307 1755.7328,-96.761"/>
</g>
<!-- Node28 -->
<g id="node29" class="node">
<title>Node28</title>
<g id="a_node29"><a xlink:href="EccentricityExpansionCoefficients_8h.html" target="_top" xlink:title="Declares a class which provides the [ &#160;coefficients]{InclinationEccentricity_pms1}. ">
<polygon fill="#ffffff" stroke="#000000" points="1735.9551,-126.5 1735.9551,-146.5 1942.0449,-146.5 1942.0449,-126.5 1735.9551,-126.5"/>
<text text-anchor="middle" x="1839" y="-132.9" font-family="Helvetica,sans-Serif" font-size="12.00" fill="#000000">EccentricityExpansionCoefficients.h</text>
</a>
</g>
</g>
<!-- Node26&#45;&gt;Node28 -->
<g id="edge41" class="edge">
<title>Node26&#45;&gt;Node28</title>
<path fill="none" stroke="#191970" d="M1577.9435,-183.4408C1632.5219,-173.627 1715.5322,-158.7008 1773.2404,-148.3243"/>
<polygon fill="#191970" stroke="#191970" points="1774.1271,-151.7211 1783.3498,-146.5065 1772.8882,-144.8315 1774.1271,-151.7211"/>
</g>
<!-- Node28&#45;&gt;Node1 -->
<g id="edge42" class="edge">
<title>Node28&#45;&gt;Node1</title>
<path fill="none" stroke="#191970" d="M1839.5199,-126.275C1839.6698,-111.038 1837.4124,-82.7017 1820,-69 1767.905,-28.0068 801.378,-18.8363 494.0157,-16.9527"/>
<polygon fill="#191970" stroke="#191970" points="493.8209,-13.4516 483.8,-16.8913 493.7788,-20.4515 493.8209,-13.4516"/>
</g>
<!-- Node28&#45;&gt;Node7 -->
<g id="edge49" class="edge">
<title>Node28&#45;&gt;Node7</title>
<path fill="none" stroke="#191970" d="M1805.2927,-126.4408C1772.347,-116.6088 1722.2068,-101.6455 1687.4284,-91.2666"/>
<polygon fill="#191970" stroke="#191970" points="1688.193,-87.8423 1677.6097,-88.3364 1686.1912,-94.55 1688.193,-87.8423"/>
</g>
<!-- Node28&#45;&gt;Node8 -->
<g id="edge48" class="edge">
<title>Node28&#45;&gt;Node8</title>
<path fill="none" stroke="#191970" d="M1942.2899,-131.2434C2051.9334,-124.5817 2212.0538,-111.3264 2231,-90 2247.4237,-71.5129 2223.6895,-47.8055 2203.1588,-32.3901"/>
<polygon fill="#191970" stroke="#191970" points="2205.137,-29.5018 2194.9687,-26.5259 2201.0619,-35.1933 2205.137,-29.5018"/>
</g>
<!-- Node28&#45;&gt;Node15 -->
<g id="edge50" class="edge">
<title>Node28&#45;&gt;Node15</title>
<path fill="none" stroke="#191970" d="M1735.9477,-134.1836C1472.4306,-128.0354 778.6447,-110.3747 549,-90 537.224,-88.9552 524.4571,-87.3241 512.8961,-85.6564"/>
<polygon fill="#191970" stroke="#191970" points="513.0884,-82.1464 502.681,-84.1303 512.0541,-89.0696 513.0884,-82.1464"/>
</g>
<!-- Node28&#45;&gt;Node16 -->
<g id="edge43" class="edge">
<title>Node28&#45;&gt;Node16</title>
<path fill="none" stroke="#191970" d="M1942.2434,-129.4941C2028.6939,-122.6041 2155.0658,-110.1429 2264,-90 2265.2708,-89.765 2266.5607,-89.5112 2267.8606,-89.2423"/>
<polygon fill="#191970" stroke="#191970" points="2268.9082,-92.5931 2277.8748,-86.9495 2267.3459,-85.7696 2268.9082,-92.5931"/>
</g>
<!-- Node28&#45;&gt;Node27 -->
<g id="edge47" class="edge">
<title>Node28&#45;&gt;Node27</title>
<path fill="none" stroke="#191970" d="M1829.7034,-126.3095C1822.3089,-118.204 1811.7884,-106.672 1803.0402,-97.0826"/>
<polygon fill="#191970" stroke="#191970" points="1805.5414,-94.631 1796.2161,-89.6022 1800.37,-99.3488 1805.5414,-94.631"/>
</g>
<!-- Node29 -->
<g id="node30" class="node">
<title>Node29</title>
<polygon fill="#ffffff" stroke="#bfbfbf" points="1695.6611,-69.5 1695.6611,-89.5 1744.3389,-89.5 1744.3389,-69.5 1695.6611,-69.5"/>
<text text-anchor="middle" x="1720" y="-75.9" font-family="Helvetica,sans-Serif" font-size="12.00" fill="#000000">vector</text>
</g>
<!-- Node28&#45;&gt;Node29 -->
<g id="edge44" class="edge">
<title>Node28&#45;&gt;Node29</title>
<path fill="none" stroke="#191970" d="M1817.9991,-126.4408C1799.2518,-117.461 1771.5684,-104.2008 1750.4021,-94.0624"/>
<polygon fill="#191970" stroke="#191970" points="1751.722,-90.8138 1741.1912,-89.6504 1748.698,-97.127 1751.722,-90.8138"/>
</g>
<!-- Node30 -->
<g id="node31" class="node">
<title>Node30</title>
<polygon fill="#ffffff" stroke="#bfbfbf" points="1866.9961,-69.5 1866.9961,-89.5 1923.0039,-89.5 1923.0039,-69.5 1866.9961,-69.5"/>
<text text-anchor="middle" x="1895" y="-75.9" font-family="Helvetica,sans-Serif" font-size="12.00" fill="#000000">fstream</text>
</g>
<!-- Node28&#45;&gt;Node30 -->
<g id="edge45" class="edge">
<title>Node28&#45;&gt;Node30</title>
<path fill="none" stroke="#191970" d="M1849.0117,-126.3095C1857.0547,-118.1229 1868.5317,-106.441 1878.008,-96.7955"/>
<polygon fill="#191970" stroke="#191970" points="1880.5634,-99.1885 1885.075,-89.6022 1875.5701,-94.2827 1880.5634,-99.1885"/>
</g>
<!-- Node31 -->
<g id="node32" class="node">
<title>Node31</title>
<polygon fill="#ffffff" stroke="#bfbfbf" points="1940.9883,-69.5 1940.9883,-89.5 1999.0117,-89.5 1999.0117,-69.5 1940.9883,-69.5"/>
<text text-anchor="middle" x="1970" y="-75.9" font-family="Helvetica,sans-Serif" font-size="12.00" fill="#000000">iomanip</text>
</g>
<!-- Node28&#45;&gt;Node31 -->
<g id="edge46" class="edge">
<title>Node28&#45;&gt;Node31</title>
<path fill="none" stroke="#191970" d="M1862.1186,-126.4408C1883.0353,-117.3396 1914.0569,-103.8416 1937.4728,-93.6531"/>
<polygon fill="#191970" stroke="#191970" points="1938.8987,-96.8497 1946.6719,-89.6504 1936.1058,-90.4309 1938.8987,-96.8497"/>
</g>
<!-- Node32 -->
<g id="node33" class="node">
<title>Node32</title>
<polygon fill="#ffffff" stroke="#bfbfbf" points="2017.3232,-69.5 2017.3232,-89.5 2082.6768,-89.5 2082.6768,-69.5 2017.3232,-69.5"/>
<text text-anchor="middle" x="2050" y="-75.9" font-family="Helvetica,sans-Serif" font-size="12.00" fill="#000000">algorithm</text>
</g>
<!-- Node28&#45;&gt;Node32 -->
<g id="edge51" class="edge">
<title>Node28&#45;&gt;Node32</title>
<path fill="none" stroke="#191970" d="M1876.2369,-126.4408C1912.9448,-116.5244 1968.9752,-101.3882 2007.4285,-91.0004"/>
<polygon fill="#191970" stroke="#191970" points="2008.5487,-94.3233 2017.2898,-88.3364 2006.7231,-87.5655 2008.5487,-94.3233"/>
</g>
<!-- Node33&#45;&gt;Node1 -->
<g id="edge55" class="edge">
<title>Node33&#45;&gt;Node1</title>
<path fill="none" stroke="#191970" d="M2100.0953,-69.8267C2097.3627,-69.5205 2094.6547,-69.2423 2092,-69 1777.9285,-40.3321 800.8459,-22.8174 494.1086,-17.9171"/>
<polygon fill="#191970" stroke="#191970" points="493.9726,-14.4146 483.9182,-17.755 493.8612,-21.4137 493.9726,-14.4146"/>
</g>
<!-- Node33&#45;&gt;Node8 -->
<g id="edge56" class="edge">
<title>Node33&#45;&gt;Node8</title>
<path fill="none" stroke="#191970" d="M2163.892,-69.378C2166.4224,-60.5215 2170.1726,-47.396 2173.3034,-36.4381"/>
<polygon fill="#191970" stroke="#191970" points="2176.6734,-37.383 2176.0554,-26.8062 2169.9427,-35.4599 2176.6734,-37.383"/>
</g>
<!-- Node34&#45;&gt;Node1 -->
<g id="edge58" class="edge">
<title>Node34&#45;&gt;Node1</title>
<path fill="none" stroke="#191970" d="M785.4318,-240.4805C699.1223,-223.4112 540.0341,-181.2632 439,-90 424.834,-77.2039 415.1354,-57.8869 409.0835,-42.2671"/>
<polygon fill="#191970" stroke="#191970" points="412.2999,-40.8682 405.6227,-32.6423 405.7128,-43.2368 412.2999,-40.8682"/>
</g>
<!-- Node34&#45;&gt;Node2 -->
<g id="edge59" class="edge">
<title>Node34&#45;&gt;Node2</title>
<path fill="none" stroke="#191970" d="M781.762,-240.4408C717.9902,-230.4545 620.4134,-215.1746 554.043,-204.7815"/>
<polygon fill="#191970" stroke="#191970" points="554.4983,-201.3102 544.0772,-203.2209 553.4153,-208.2259 554.4983,-201.3102"/>
</g>
<!-- Node34&#45;&gt;Node29 -->
<g id="edge60" class="edge">
<title>Node34&#45;&gt;Node29</title>
<path fill="none" stroke="#191970" d="M935.6381,-245.2122C1062.3184,-237.2745 1287.1907,-221.3484 1367,-204 1489.4114,-177.3911 1627.626,-120.2623 1688.4354,-93.6643"/>
<polygon fill="#191970" stroke="#191970" points="1690.1138,-96.7496 1697.8554,-89.5165 1687.2929,-90.3431 1690.1138,-96.7496"/>
</g>
<!-- Node35&#45;&gt;Node1 -->
<g id="edge62" class="edge">
<title>Node35&#45;&gt;Node1</title>
<path fill="none" stroke="#191970" d="M731.2154,-240.4907C910.0245,-209.9938 1433.6769,-118.5742 1457,-90 1462.9018,-82.7695 1463.4337,-75.7615 1457,-69 1424.0637,-34.3856 745.9855,-21.3464 494.1162,-17.6858"/>
<polygon fill="#191970" stroke="#191970" points="493.9402,-14.183 483.8909,-17.539 493.8396,-21.1823 493.9402,-14.183"/>
</g>
<!-- Node35&#45;&gt;Node2 -->
<g id="edge63" class="edge">
<title>Node35&#45;&gt;Node2</title>
<path fill="none" stroke="#191970" d="M638.4692,-240.4408C606.9564,-230.9869 559.6297,-216.7889 525.2799,-206.484"/>
<polygon fill="#191970" stroke="#191970" points="526.0986,-203.0755 515.5146,-203.5544 524.0872,-209.7803 526.0986,-203.0755"/>
</g>
<!-- Node36&#45;&gt;Node1 -->
<g id="edge65" class="edge">
<title>Node36&#45;&gt;Node1</title>
<path fill="none" stroke="#191970" d="M399.2768,-241.268C336.5889,-232.6938 252.5414,-219.0174 222,-204 153.9342,-170.5317 125.9036,-159.268 95,-90 91.1973,-81.4765 88.9842,-76.1359 95,-69 108.7854,-52.6481 223.0975,-36.3921 307.9877,-26.3984"/>
<polygon fill="#191970" stroke="#191970" points="308.3967,-29.8745 317.9247,-25.2412 307.5869,-22.9215 308.3967,-29.8745"/>
</g>
<!-- Node36&#45;&gt;Node2 -->
<g id="edge66" class="edge">
<title>Node36&#45;&gt;Node2</title>
<path fill="none" stroke="#191970" d="M475.4302,-240.3095C476.4655,-232.9335 477.899,-222.72 479.1628,-213.715"/>
<polygon fill="#191970" stroke="#191970" points="482.6582,-213.9917 480.5821,-203.6022 475.7261,-213.0187 482.6582,-213.9917"/>
</g>
</g>
</svg>
        <g id="navigator" transform="translate(0 0)" fill="#404254">
                <rect fill="#f2f5e9" fill-opacity="0.5" stroke="#606060" stroke-width=".5" x="0" y="0" width="60" height="60"/>
                <use id="zoomplus" xlink:href="#zoomPlus" x="17" y="9" onmousedown="handleZoom(evt,'in')"/>
                <use id="zoomminus" xlink:href="#zoomMin" x="42" y="9" onmousedown="handleZoom(evt,'out')"/>
                <use id="reset" xlink:href="#resetDef" x="30" y="36" onmousedown="handleReset()"/>
                <g id="arrowUp" xlink:href="#dirArrow" transform="translate(30 24)" onmousedown="handlePan(0,-1)">
                  <use xlink:href="#rim" fill="#404040">
                        <set attributeName="fill" to="#808080" begin="arrowUp.mouseover" end="arrowUp.mouseout"/>
                  </use>
                  <path fill="none" stroke="white" stroke-width="1.5" d="M0,-3.0v7 M-2.5,-0.5L0,-3.0L2.5,-0.5"/>
                </g>
                <g id="arrowRight" xlink:href="#dirArrow" transform="rotate(90) translate(36 -43)" onmousedown="handlePan(1,0)">
                  <use xlink:href="#rim" fill="#404040">
                        <set attributeName="fill" to="#808080" begin="arrowRight.mouseover" end="arrowRight.mouseout"/>
                  </use>
                  <path fill="none" stroke="white" stroke-width="1.5" d="M0,-3.0v7 M-2.5,-0.5L0,-3.0L2.5,-0.5"/>
                </g>
                <g id="arrowDown" xlink:href="#dirArrow" transform="rotate(180) translate(-30 -48)" onmousedown="handlePan(0,1)">
                  <use xlink:href="#rim" fill="#404040">
                        <set attributeName="fill" to="#808080" begin="arrowDown.mouseover" end="arrowDown.mouseout"/>
                  </use>
                  <path fill="none" stroke="white" stroke-width="1.5" d="M0,-3.0v7 M-2.5,-0.5L0,-3.0L2.5,-0.5"/>
                </g>
                <g id="arrowLeft" xlink:href="#dirArrow" transform="rotate(270) translate(-36 17)" onmousedown="handlePan(-1,0)">
                  <use xlink:href="#rim" fill="#404040">
                        <set attributeName="fill" to="#808080" begin="arrowLeft.mouseover" end="arrowLeft.mouseout"/>
                  </use>
                  <path fill="none" stroke="white" stroke-width="1.5" d="M0,-3.0v7 M-2.5,-0.5L0,-3.0L2.5,-0.5"/>
                </g>
        </g>
        <svg viewBox="0 0 15 15" width="100%" height="30px" preserveAspectRatio="xMaxYMin meet">
         <g id="arrow_out" transform="scale(0.3 0.3)">
          <a xlink:href="ExternalStoppingConditions_8h__incl_org.svg" target="_base">
           <rect id="button" ry="5" rx="5" y="6" x="6" height="38" width="38"
                fill="#f2f5e9" fill-opacity="0.5" stroke="#606060" stroke-width="1.0"/>
           <path id="arrow"
             d="M 11.500037,31.436501 C 11.940474,20.09759 22.043105,11.32322 32.158766,21.979434 L 37.068811,17.246167 C 37.068811,17.246167 37.088388,32 37.088388,32 L 22.160133,31.978069 C 22.160133,31.978069 26.997745,27.140456 26.997745,27.140456 C 18.528582,18.264221 13.291696,25.230495 11.500037,31.436501 z"
             style="fill:#404040;"/>
          </a>
         </g>
        </svg>
</svg>
