<?xml version="1.0" encoding="UTF-8" standalone="no"?>
<!DOCTYPE svg PUBLIC "-//W3C//DTD SVG 1.1//EN"
 "http://www.w3.org/Graphics/SVG/1.1/DTD/svg11.dtd">
<!-- Generated by graphviz version 2.40.1 (20161225.0304)
 -->
<!-- Title: Graphical Class Hierarchy Pages: 1 -->
<svg width="860pt" height="923pt"
 viewBox="0.00 0.00 860.00 923.00" xmlns="http://www.w3.org/2000/svg" xmlns:xlink="http://www.w3.org/1999/xlink">
<g id="graph0" class="graph" transform="scale(1 1) rotate(0) translate(4 919)">
<title>Graphical Class Hierarchy</title>
<polygon fill="#ffffff" stroke="transparent" points="-4,4 -4,-919 856,-919 856,4 -4,4"/>
<!-- Node71 -->
<g id="node1" class="node">
<title>Node71</title>
<g id="a_node1"><a xlink:href="classCore_1_1FunctionDerivatives.html" target="_top" xlink:title="A class representing arbitrary order derivatives of a function. ">
<polygon fill="#ffffff" stroke="#000000" points="222.5,-655.5 222.5,-676.5 377.5,-676.5 377.5,-655.5 222.5,-655.5"/>
<text text-anchor="middle" x="300" y="-662.9" font-family="Helvetica,sans-Serif" font-size="12.00" fill="#000000">Core::FunctionDerivatives</text>
</a>
</g>
</g>
<!-- Node72 -->
<g id="node2" class="node">
<title>Node72</title>
<g id="a_node2"><a xlink:href="classCore_1_1CubicSplineDerivatives.html" target="_top" xlink:title="A class for the derivatives of a cubic spline (=0 for order&gt;2). ">
<polygon fill="#ffffff" stroke="#000000" points="447.5,-853.5 447.5,-874.5 622.5,-874.5 622.5,-853.5 447.5,-853.5"/>
<text text-anchor="middle" x="535" y="-860.9" font-family="Helvetica,sans-Serif" font-size="12.00" fill="#000000">Core::CubicSplineDerivatives</text>
</a>
</g>
</g>
<!-- Node71&#45;&gt;Node72 -->
<g id="edge1" class="edge">
<title>Node71&#45;&gt;Node72</title>
<path fill="none" stroke="#191970" d="M308.4398,-685.9375C325.4507,-723.5056 367.6305,-804.5394 430,-844 436.0375,-847.8199 442.6338,-850.9431 449.4844,-853.4929"/>
<polygon fill="#191970" stroke="#191970" points="311.5461,-684.3067 304.3134,-676.5647 305.1395,-687.1273 311.5461,-684.3067"/>
</g>
<!-- Node73 -->
<g id="node3" class="node">
<title>Node73</title>
<g id="a_node3"><a xlink:href="classCore_1_1ZeroDerivatives.html" target="_top" xlink:title="The derivatives of an identically zero quantity. ">
<polygon fill="#ffffff" stroke="#000000" points="468,-813.5 468,-834.5 602,-834.5 602,-813.5 468,-813.5"/>
<text text-anchor="middle" x="535" y="-820.9" font-family="Helvetica,sans-Serif" font-size="12.00" fill="#000000">Core::ZeroDerivatives</text>
</a>
</g>
</g>
<!-- Node71&#45;&gt;Node73 -->
<g id="edge2" class="edge">
<title>Node71&#45;&gt;Node73</title>
<path fill="none" stroke="#191970" d="M312.1737,-685.2606C332.5561,-715.7673 376.6487,-774.734 430,-804 441.5516,-810.3366 454.7722,-814.6968 467.8475,-817.6894"/>
<polygon fill="#191970" stroke="#191970" points="315.026,-683.2272 306.6253,-676.7712 309.1664,-687.0568 315.026,-683.2272"/>
</g>
<!-- Node6 -->
<g id="node4" class="node">
<title>Node6</title>
<g id="a_node4"><a xlink:href="classCosFunction.html" target="_top" xlink:title="The cosine of a function. ">
<polygon fill="#ffffff" stroke="#000000" points="492.5,-455.5 492.5,-476.5 577.5,-476.5 577.5,-455.5 492.5,-455.5"/>
<text text-anchor="middle" x="535" y="-462.9" font-family="Helvetica,sans-Serif" font-size="12.00" fill="#000000">CosFunction</text>
</a>
</g>
</g>
<!-- Node71&#45;&gt;Node6 -->
<g id="edge3" class="edge">
<title>Node71&#45;&gt;Node6</title>
<path fill="none" stroke="#8b1a1a" d="M308.3756,-645.8408C325.2771,-607.8548 367.2784,-525.917 430,-486 448.4733,-474.2433 472.2252,-469.0755 492.4646,-466.9204"/>
<polygon fill="#8b1a1a" stroke="#8b1a1a" points="305.0341,-644.7501 304.2777,-655.3179 311.4591,-647.5283 305.0341,-644.7501"/>
</g>
<!-- Node7 -->
<g id="node5" class="node">
<title>Node7</title>
<g id="a_node5"><a xlink:href="classExponentialPlusFunc.html" target="_top" xlink:title="Represents a function of the form offset + scale*exp(rate*x) as well as its derivative. ">
<polygon fill="#ffffff" stroke="#000000" points="469.5,-415.5 469.5,-436.5 600.5,-436.5 600.5,-415.5 469.5,-415.5"/>
<text text-anchor="middle" x="535" y="-422.9" font-family="Helvetica,sans-Serif" font-size="12.00" fill="#000000">ExponentialPlusFunc</text>
</a>
</g>
</g>
<!-- Node71&#45;&gt;Node7 -->
<g id="edge4" class="edge">
<title>Node71&#45;&gt;Node7</title>
<path fill="none" stroke="#8b1a1a" d="M305.7049,-645.7439C319.2488,-601.6348 357.741,-496.7892 430,-446 441.5382,-437.89 455.4798,-432.8327 469.3807,-429.7302"/>
<polygon fill="#8b1a1a" stroke="#8b1a1a" points="302.3434,-644.7692 302.8586,-655.3515 309.0551,-646.7576 302.3434,-644.7692"/>
</g>
<!-- Node8 -->
<g id="node6" class="node">
<title>Node8</title>
<g id="a_node6"><a xlink:href="classFuncPlusFunc.html" target="_top" xlink:title="Represents the sum of two functions and the derivative. ">
<polygon fill="#ffffff" stroke="#000000" points="487.5,-695.5 487.5,-716.5 582.5,-716.5 582.5,-695.5 487.5,-695.5"/>
<text text-anchor="middle" x="535" y="-702.9" font-family="Helvetica,sans-Serif" font-size="12.00" fill="#000000">FuncPlusFunc</text>
</a>
</g>
</g>
<!-- Node71&#45;&gt;Node8 -->
<g id="edge5" class="edge">
<title>Node71&#45;&gt;Node8</title>
<path fill="none" stroke="#8b1a1a" d="M371.6202,-678.1907C409.1759,-684.5831 454.1499,-692.2383 487.3956,-697.8971"/>
<polygon fill="#8b1a1a" stroke="#8b1a1a" points="372.189,-674.7372 361.7435,-676.5095 371.0144,-681.638 372.189,-674.7372"/>
</g>
<!-- Node9 -->
<g id="node7" class="node">
<title>Node9</title>
<g id="a_node7"><a xlink:href="classFunctionRatio.html" target="_top" xlink:title="The ratio of two functions;. ">
<polygon fill="#ffffff" stroke="#000000" points="489,-655.5 489,-676.5 581,-676.5 581,-655.5 489,-655.5"/>
<text text-anchor="middle" x="535" y="-662.9" font-family="Helvetica,sans-Serif" font-size="12.00" fill="#000000">FunctionRatio</text>
</a>
</g>
</g>
<!-- Node71&#45;&gt;Node9 -->
<g id="edge6" class="edge">
<title>Node71&#45;&gt;Node9</title>
<path fill="none" stroke="#8b1a1a" d="M387.6394,-666C421.9442,-666 459.8859,-666 488.6779,-666"/>
<polygon fill="#8b1a1a" stroke="#8b1a1a" points="387.5991,-662.5001 377.5991,-666 387.599,-669.5001 387.5991,-662.5001"/>
</g>
<!-- Node10 -->
<g id="node8" class="node">
<title>Node10</title>
<g id="a_node8"><a xlink:href="classFunctionToPower.html" target="_top" xlink:title="A function raised to some power. ">
<polygon fill="#ffffff" stroke="#000000" points="479,-615.5 479,-636.5 591,-636.5 591,-615.5 479,-615.5"/>
<text text-anchor="middle" x="535" y="-622.9" font-family="Helvetica,sans-Serif" font-size="12.00" fill="#000000">FunctionToPower</text>
</a>
</g>
</g>
<!-- Node71&#45;&gt;Node10 -->
<g id="edge7" class="edge">
<title>Node71&#45;&gt;Node10</title>
<path fill="none" stroke="#8b1a1a" d="M371.7397,-653.789C406.1556,-647.931 446.779,-641.0163 478.8936,-635.55"/>
<polygon fill="#8b1a1a" stroke="#8b1a1a" points="371.0144,-650.362 361.7435,-655.4905 372.189,-657.2628 371.0144,-650.362"/>
</g>
<!-- Node13 -->
<g id="node9" class="node">
<title>Node13</title>
<g id="a_node9"><a xlink:href="classLogFunction.html" target="_top" xlink:title="The natural logarithm of a function. ">
<polygon fill="#ffffff" stroke="#000000" points="493.5,-575.5 493.5,-596.5 576.5,-596.5 576.5,-575.5 493.5,-575.5"/>
<text text-anchor="middle" x="535" y="-582.9" font-family="Helvetica,sans-Serif" font-size="12.00" fill="#000000">LogFunction</text>
</a>
</g>
</g>
<!-- Node71&#45;&gt;Node13 -->
<g id="edge8" class="edge">
<title>Node71&#45;&gt;Node13</title>
<path fill="none" stroke="#8b1a1a" d="M328.0679,-650.6026C353.8681,-637.0471 393.5296,-617.6951 430,-606 450.4095,-599.4552 473.776,-594.7449 493.2768,-591.5461"/>
<polygon fill="#8b1a1a" stroke="#8b1a1a" points="326.4055,-647.5225 319.2214,-655.3096 329.6936,-653.7022 326.4055,-647.5225"/>
</g>
<!-- Node16 -->
<g id="node10" class="node">
<title>Node16</title>
<g id="a_node10"><a xlink:href="classPiecewiseFunction.html" target="_top" xlink:title="Several functions stiched together. ">
<polygon fill="#ffffff" stroke="#000000" points="475.5,-535.5 475.5,-556.5 594.5,-556.5 594.5,-535.5 475.5,-535.5"/>
<text text-anchor="middle" x="535" y="-542.9" font-family="Helvetica,sans-Serif" font-size="12.00" fill="#000000">PiecewiseFunction</text>
</a>
</g>
</g>
<!-- Node71&#45;&gt;Node16 -->
<g id="edge9" class="edge">
<title>Node71&#45;&gt;Node16</title>
<path fill="none" stroke="#8b1a1a" d="M317.4372,-648.1552C340.8377,-625.3294 384.7232,-586.3258 430,-566 444.1359,-559.654 460.2211,-555.3201 475.4801,-552.3607"/>
<polygon fill="#8b1a1a" stroke="#8b1a1a" points="314.9457,-645.6967 310.3142,-655.2256 319.8772,-650.6647 314.9457,-645.6967"/>
</g>
<!-- Node17 -->
<g id="node11" class="node">
<title>Node17</title>
<g id="a_node11"><a xlink:href="classScaledFunction.html" target="_top" xlink:title="A function scaled by some constant. ">
<polygon fill="#ffffff" stroke="#000000" points="484.5,-495.5 484.5,-516.5 585.5,-516.5 585.5,-495.5 484.5,-495.5"/>
<text text-anchor="middle" x="535" y="-502.9" font-family="Helvetica,sans-Serif" font-size="12.00" fill="#000000">ScaledFunction</text>
</a>
</g>
</g>
<!-- Node71&#45;&gt;Node17 -->
<g id="edge10" class="edge">
<title>Node71&#45;&gt;Node17</title>
<path fill="none" stroke="#8b1a1a" d="M311.8065,-646.9119C331.956,-616.0954 376.0808,-555.8297 430,-526 446.4812,-516.8821 466.3993,-511.8504 484.4381,-509.098"/>
<polygon fill="#8b1a1a" stroke="#8b1a1a" points="308.7767,-645.1534 306.3387,-655.4639 314.6743,-648.9242 308.7767,-645.1534"/>
</g>
<!-- Node74 -->
<g id="node12" class="node">
<title>Node74</title>
<g id="a_node12"><a xlink:href="classStellarEvolution_1_1LogDerivatives.html" target="_top" xlink:title="Calculate dy/dx given dy/dx, dy/dln(x), dln(y)/dx or dln(y)/dln(x). ">
<polygon fill="#ffffff" stroke="#000000" points="441,-773.5 441,-794.5 629,-794.5 629,-773.5 441,-773.5"/>
<text text-anchor="middle" x="535" y="-780.9" font-family="Helvetica,sans-Serif" font-size="12.00" fill="#000000">StellarEvolution::LogDerivatives</text>
</a>
</g>
</g>
<!-- Node71&#45;&gt;Node74 -->
<g id="edge11" class="edge">
<title>Node71&#45;&gt;Node74</title>
<path fill="none" stroke="#191970" d="M319.2567,-683.4983C343.3923,-704.5034 386.8516,-739.3489 430,-759 443.4722,-765.1356 458.6287,-769.8652 473.147,-773.4722"/>
<polygon fill="#191970" stroke="#191970" points="321.3684,-680.6935 311.5577,-676.6933 316.7325,-685.9385 321.3684,-680.6935"/>
</g>
<!-- Node19 -->
<g id="node15" class="node">
<title>Node19</title>
<g id="a_node15"><a xlink:href="classStellarEvolution_1_1PolynomialEvolutionQuantity.html" target="_top" xlink:title="An EvolvingStellar quantity that uses a polynomial instead of interpolating. ">
<polygon fill="#ffffff" stroke="#000000" points="680.5,-581 680.5,-615 847.5,-615 847.5,-581 680.5,-581"/>
<text text-anchor="start" x="688.5" y="-601.4" font-family="Helvetica,sans-Serif" font-size="12.00" fill="#000000">StellarEvolution::Polynomial</text>
<text text-anchor="middle" x="764" y="-588.4" font-family="Helvetica,sans-Serif" font-size="12.00" fill="#000000">EvolutionQuantity</text>
</a>
</g>
</g>
<!-- Node71&#45;&gt;Node19 -->
<g id="edge14" class="edge">
<title>Node71&#45;&gt;Node19</title>
<path fill="none" stroke="#8b1a1a" d="M325.4465,-681.7936C350.8382,-696.5536 391.5108,-717.5464 430,-726 521.1604,-746.0222 554.0574,-762.4003 640,-726 693.8457,-703.1941 735.7722,-644.2949 754.0299,-615.0271"/>
<polygon fill="#8b1a1a" stroke="#8b1a1a" points="327.2015,-678.7652 316.8154,-676.6724 323.6296,-684.7853 327.2015,-678.7652"/>
</g>
<!-- Node77 -->
<g id="node16" class="node">
<title>Node77</title>
<g id="a_node16"><a xlink:href="classStellarEvolution_1_1SumDerivatives.html" target="_top" xlink:title="Derivative class for a quantity that is the sum of two other quantities. ">
<polygon fill="#ffffff" stroke="#000000" points="439,-893.5 439,-914.5 631,-914.5 631,-893.5 439,-893.5"/>
<text text-anchor="middle" x="535" y="-900.9" font-family="Helvetica,sans-Serif" font-size="12.00" fill="#000000">StellarEvolution::SumDerivatives</text>
</a>
</g>
</g>
<!-- Node71&#45;&gt;Node77 -->
<g id="edge15" class="edge">
<title>Node71&#45;&gt;Node77</title>
<path fill="none" stroke="#191970" d="M305.849,-686.3536C319.584,-730.2298 358.2783,-833.8029 430,-884 435.3971,-887.7774 441.3166,-890.8917 447.5096,-893.4543"/>
<polygon fill="#191970" stroke="#191970" points="309.1312,-685.115 302.89,-676.5537 302.43,-687.1385 309.1312,-685.115"/>
</g>
<!-- Node75 -->
<g id="node13" class="node">
<title>Node75</title>
<g id="a_node13"><a xlink:href="classStellarEvolution_1_1InterpolatedDerivatives.html" target="_top" xlink:title="Derivative class for stellar quantities which are interpolated age, mass and [Fe/H]. ">
<polygon fill="#ffffff" stroke="#000000" points="679,-740 679,-774 849,-774 849,-740 679,-740"/>
<text text-anchor="start" x="687" y="-760.4" font-family="Helvetica,sans-Serif" font-size="12.00" fill="#000000">StellarEvolution::Interpolated</text>
<text text-anchor="middle" x="764" y="-747.4" font-family="Helvetica,sans-Serif" font-size="12.00" fill="#000000">Derivatives</text>
</a>
</g>
</g>
<!-- Node74&#45;&gt;Node75 -->
<g id="edge12" class="edge">
<title>Node74&#45;&gt;Node75</title>
<path fill="none" stroke="#191970" d="M634.3746,-772.2833C649.1784,-770.5379 664.3255,-768.752 678.8026,-767.0451"/>
<polygon fill="#191970" stroke="#191970" points="633.7145,-768.8368 624.1931,-773.4838 634.5342,-775.7887 633.7145,-768.8368"/>
</g>
<!-- Node76 -->
<g id="node14" class="node">
<title>Node76</title>
<g id="a_node14"><a xlink:href="classStellarEvolution_1_1RemoveLogDeriv.html" target="_top" xlink:title="Return dy/dx given dy/dln(x), dln(y)/dx or dln(y)/dln(x). ">
<polygon fill="#ffffff" stroke="#000000" points="688,-793 688,-827 840,-827 840,-793 688,-793"/>
<text text-anchor="start" x="696" y="-813.4" font-family="Helvetica,sans-Serif" font-size="12.00" fill="#000000">StellarEvolution::Remove</text>
<text text-anchor="middle" x="764" y="-800.4" font-family="Helvetica,sans-Serif" font-size="12.00" fill="#000000">LogDeriv</text>
</a>
</g>
</g>
<!-- Node74&#45;&gt;Node76 -->
<g id="edge13" class="edge">
<title>Node74&#45;&gt;Node76</title>
<path fill="none" stroke="#191970" d="M637.8573,-795.6781C654.6098,-797.5802 671.6982,-799.5203 687.668,-801.3335"/>
<polygon fill="#191970" stroke="#191970" points="637.814,-792.1508 627.483,-794.5003 637.0243,-799.1061 637.814,-792.1508"/>
</g>
<!-- Node0 -->
<g id="node17" class="node">
<title>Node0</title>
<g id="a_node17"><a xlink:href="classCore_1_1OneArgumentFunction.html" target="_top" xlink:title="Core::OneArgumentFunction\l\&lt; double, double \&gt;">
<polygon fill="#ffffff" stroke="#000000" points="0,-362 0,-396 170,-396 170,-362 0,-362"/>
<text text-anchor="start" x="8" y="-382.4" font-family="Helvetica,sans-Serif" font-size="12.00" fill="#000000">Core::OneArgumentFunction</text>
<text text-anchor="middle" x="85" y="-369.4" font-family="Helvetica,sans-Serif" font-size="12.00" fill="#000000">&lt; double, double &gt;</text>
</a>
</g>
</g>
<!-- Node1 -->
<g id="node18" class="node">
<title>Node1</title>
<g id="a_node18"><a xlink:href="classCore_1_1OneArgumentDiffFunction.html" target="_top" xlink:title="A class representing a once differentiable function of a single argument. ">
<polygon fill="#ffffff" stroke="#000000" points="206,-368.5 206,-389.5 394,-389.5 394,-368.5 206,-368.5"/>
<text text-anchor="middle" x="300" y="-375.9" font-family="Helvetica,sans-Serif" font-size="12.00" fill="#000000">Core::OneArgumentDiffFunction</text>
</a>
</g>
</g>
<!-- Node0&#45;&gt;Node1 -->
<g id="edge16" class="edge">
<title>Node0&#45;&gt;Node1</title>
<path fill="none" stroke="#191970" d="M180.5275,-379C188.9789,-379 197.5303,-379 205.9691,-379"/>
<polygon fill="#191970" stroke="#191970" points="180.2825,-375.5001 170.2825,-379 180.2825,-382.5001 180.2825,-375.5001"/>
</g>
<!-- Node1&#45;&gt;Node6 -->
<g id="edge21" class="edge">
<title>Node1&#45;&gt;Node6</title>
<path fill="none" stroke="#191970" d="M325.2072,-394.7783C350.7119,-410.061 391.7329,-432.8048 430,-446 449.9993,-452.8961 473.0086,-457.6164 492.3811,-460.7313"/>
<polygon fill="#191970" stroke="#191970" points="326.9103,-391.7177 316.5466,-389.5169 323.2759,-397.7003 326.9103,-391.7177"/>
</g>
<!-- Node1&#45;&gt;Node7 -->
<g id="edge22" class="edge">
<title>Node1&#45;&gt;Node7</title>
<path fill="none" stroke="#191970" d="M363.0013,-391.6003C400.3353,-399.0671 447.0987,-408.4197 482.4374,-415.4875"/>
<polygon fill="#191970" stroke="#191970" points="363.2308,-388.0769 352.7386,-389.5477 361.858,-394.941 363.2308,-388.0769"/>
</g>
<!-- Node1&#45;&gt;Node8 -->
<g id="edge23" class="edge">
<title>Node1&#45;&gt;Node8</title>
<path fill="none" stroke="#191970" d="M305.9037,-399.4482C324.2983,-461.7661 382.2062,-647.4119 430,-686 445.9544,-698.8813 467.6986,-704.3687 487.2618,-706.4453"/>
<polygon fill="#191970" stroke="#191970" points="309.1945,-398.2313 303.0284,-389.6155 302.4758,-400.196 309.1945,-398.2313"/>
</g>
<!-- Node1&#45;&gt;Node9 -->
<g id="edge24" class="edge">
<title>Node1&#45;&gt;Node9</title>
<path fill="none" stroke="#191970" d="M303.562,-399.6148C313.4891,-450.4081 346.4328,-582.0811 430,-646 446.6557,-658.7396 469.0657,-664.1293 488.9048,-666.1756"/>
<polygon fill="#191970" stroke="#191970" points="306.9588,-398.7359 301.6927,-389.5425 300.0763,-400.0133 306.9588,-398.7359"/>
</g>
<!-- Node1&#45;&gt;Node10 -->
<g id="edge25" class="edge">
<title>Node1&#45;&gt;Node10</title>
<path fill="none" stroke="#191970" d="M305.4129,-399.5719C318.4712,-444.8716 356.2149,-553.3841 430,-606 444.1268,-616.0738 461.941,-621.4569 478.8646,-624.2319"/>
<polygon fill="#191970" stroke="#191970" points="308.7263,-398.4227 302.6799,-389.7227 301.9812,-400.2944 308.7263,-398.4227"/>
</g>
<!-- Node1&#45;&gt;Node13 -->
<g id="edge28" class="edge">
<title>Node1&#45;&gt;Node13</title>
<path fill="none" stroke="#191970" d="M307.9157,-399.3759C324.2726,-438.5733 365.7328,-524.2821 430,-566 448.6781,-578.1246 472.9168,-583.2769 493.3989,-585.3293"/>
<polygon fill="#191970" stroke="#191970" points="310.9666,-397.5847 303.9698,-389.6288 304.4781,-400.2115 310.9666,-397.5847"/>
</g>
<!-- Node1&#45;&gt;Node16 -->
<g id="edge31" class="edge">
<title>Node1&#45;&gt;Node16</title>
<path fill="none" stroke="#191970" d="M311.2729,-398.5737C330.9337,-430.788 374.7244,-494.5377 430,-526 443.7083,-533.8026 459.8892,-538.6287 475.3893,-541.5947"/>
<polygon fill="#191970" stroke="#191970" points="314.0862,-396.4575 305.96,-389.6593 308.0731,-400.0413 314.0862,-396.4575"/>
</g>
<!-- Node1&#45;&gt;Node17 -->
<g id="edge32" class="edge">
<title>Node1&#45;&gt;Node17</title>
<path fill="none" stroke="#191970" d="M316.1187,-397.0081C338.9459,-421.2969 383.1566,-464.0363 430,-486 446.8017,-493.8779 466.4988,-498.6529 484.2656,-501.5472"/>
<polygon fill="#191970" stroke="#191970" points="318.5775,-394.5116 309.2242,-389.535 313.4326,-399.2582 318.5775,-394.5116"/>
</g>
<!-- Node2 -->
<g id="node19" class="node">
<title>Node2</title>
<g id="a_node19"><a xlink:href="classConservedLEConvObliquityEvolution.html" target="_top" xlink:title="ConservedLEConvObliquity\lEvolution">
<polygon fill="#ffffff" stroke="#000000" points="452,-309 452,-343 618,-343 618,-309 452,-309"/>
<text text-anchor="start" x="460" y="-329.4" font-family="Helvetica,sans-Serif" font-size="12.00" fill="#000000">ConservedLEConvObliquity</text>
<text text-anchor="middle" x="535" y="-316.4" font-family="Helvetica,sans-Serif" font-size="12.00" fill="#000000">Evolution</text>
</a>
</g>
</g>
<!-- Node1&#45;&gt;Node2 -->
<g id="edge17" class="edge">
<title>Node1&#45;&gt;Node2</title>
<path fill="none" stroke="#191970" d="M356.8273,-366.1836C387.5804,-359.2478 425.9749,-350.5886 459.2396,-343.0864"/>
<polygon fill="#191970" stroke="#191970" points="355.6943,-362.8512 346.7094,-368.4655 357.2344,-369.6796 355.6943,-362.8512"/>
</g>
<!-- Node3 -->
<g id="node20" class="node">
<title>Node3</title>
<g id="a_node20"><a xlink:href="classConservedLERadObliquityEvolution.html" target="_top" xlink:title="ConservedLERadObliquityEvolution">
<polygon fill="#ffffff" stroke="#000000" points="430,-268.5 430,-289.5 640,-289.5 640,-268.5 430,-268.5"/>
<text text-anchor="middle" x="535" y="-275.9" font-family="Helvetica,sans-Serif" font-size="12.00" fill="#000000">ConservedLERadObliquityEvolution</text>
</a>
</g>
</g>
<!-- Node1&#45;&gt;Node3 -->
<g id="edge18" class="edge">
<title>Node1&#45;&gt;Node3</title>
<path fill="none" stroke="#191970" d="M321.8515,-362.0725C346.676,-343.7014 389.07,-314.8723 430,-299 439.8619,-295.1756 450.5376,-292.0628 461.1758,-289.5342"/>
<polygon fill="#191970" stroke="#191970" points="319.4256,-359.5174 313.5358,-368.3242 323.6321,-365.1126 319.4256,-359.5174"/>
</g>
<!-- Node4 -->
<g id="node21" class="node">
<title>Node4</title>
<g id="a_node21"><a xlink:href="classCore_1_1InterpolatingFunctionALGLIB.html" target="_top" xlink:title="Function which interpolates, with possible smoothing, between points. ">
<polygon fill="#ffffff" stroke="#000000" points="454.5,-215 454.5,-249 615.5,-249 615.5,-215 454.5,-215"/>
<text text-anchor="start" x="462.5" y="-235.4" font-family="Helvetica,sans-Serif" font-size="12.00" fill="#000000">Core::InterpolatingFunction</text>
<text text-anchor="middle" x="535" y="-222.4" font-family="Helvetica,sans-Serif" font-size="12.00" fill="#000000">ALGLIB</text>
</a>
</g>
</g>
<!-- Node1&#45;&gt;Node4 -->
<g id="edge19" class="edge">
<title>Node1&#45;&gt;Node4</title>
<path fill="none" stroke="#191970" d="M314.8915,-360.3488C337.1138,-333.7885 381.5599,-285.3721 430,-259 437.6043,-254.86 445.866,-251.3361 454.3033,-248.3405"/>
<polygon fill="#191970" stroke="#191970" points="312.1264,-358.2009 308.4805,-368.1487 317.5342,-362.6457 312.1264,-358.2009"/>
</g>
<!-- Node5 -->
<g id="node22" class="node">
<title>Node5</title>
<g id="a_node22"><a xlink:href="classCore_1_1ZeroFunction.html" target="_top" xlink:title="A class representing a function that is identically zero. ">
<polygon fill="#ffffff" stroke="#000000" points="475,-174.5 475,-195.5 595,-195.5 595,-174.5 475,-174.5"/>
<text text-anchor="middle" x="535" y="-181.9" font-family="Helvetica,sans-Serif" font-size="12.00" fill="#000000">Core::ZeroFunction</text>
</a>
</g>
</g>
<!-- Node1&#45;&gt;Node5 -->
<g id="edge20" class="edge">
<title>Node1&#45;&gt;Node5</title>
<path fill="none" stroke="#191970" d="M308.8142,-358.9811C326.1997,-322.025 368.6229,-243.3675 430,-205 443.3751,-196.6391 459.444,-191.6254 474.9433,-188.658"/>
<polygon fill="#191970" stroke="#191970" points="305.56,-357.6813 304.5796,-368.2306 311.9247,-360.5952 305.56,-357.6813"/>
</g>
<!-- Node11 -->
<g id="node23" class="node">
<title>Node11</title>
<g id="a_node23"><a xlink:href="classInverseFunction.html" target="_top" xlink:title="The invrse of an existing function. ">
<polygon fill="#ffffff" stroke="#000000" points="484,-134.5 484,-155.5 586,-155.5 586,-134.5 484,-134.5"/>
<text text-anchor="middle" x="535" y="-141.9" font-family="Helvetica,sans-Serif" font-size="12.00" fill="#000000">InverseFunction</text>
</a>
</g>
</g>
<!-- Node1&#45;&gt;Node11 -->
<g id="edge26" class="edge">
<title>Node1&#45;&gt;Node11</title>
<path fill="none" stroke="#191970" d="M306.062,-358.712C320.109,-315.4562 359.2094,-214.1152 430,-165 445.6278,-154.1573 465.574,-148.791 483.8751,-146.2539"/>
<polygon fill="#191970" stroke="#191970" points="302.6795,-357.8015 303.0264,-368.3906 309.3587,-359.8963 302.6795,-357.8015"/>
</g>
<!-- Node12 -->
<g id="node24" class="node">
<title>Node12</title>
<g id="a_node24"><a xlink:href="classInverseLinearLconvEvolution.html" target="_top" xlink:title="InverseLinearLconvEvolution\l\&lt; LINEAR_QUANTITY_TYPE \&gt;">
<polygon fill="#ffffff" stroke="#000000" points="441,-81 441,-115 629,-115 629,-81 441,-81"/>
<text text-anchor="start" x="449" y="-101.4" font-family="Helvetica,sans-Serif" font-size="12.00" fill="#000000">InverseLinearLconvEvolution</text>
<text text-anchor="middle" x="535" y="-88.4" font-family="Helvetica,sans-Serif" font-size="12.00" fill="#000000">&lt; LINEAR_QUANTITY_TYPE &gt;</text>
</a>
</g>
</g>
<!-- Node1&#45;&gt;Node12 -->
<g id="edge27" class="edge">
<title>Node1&#45;&gt;Node12</title>
<path fill="none" stroke="#191970" d="M304.44,-358.3845C316.0073,-309.8135 351.7654,-187.5846 430,-125 434.7768,-121.1787 440.0331,-117.8925 445.5701,-115.0671"/>
<polygon fill="#191970" stroke="#191970" points="300.9828,-357.8027 302.1686,-368.331 307.8071,-359.3612 300.9828,-357.8027"/>
</g>
<!-- Node14 -->
<g id="node25" class="node">
<title>Node14</title>
<g id="a_node25"><a xlink:href="classOblique10LinearQuantity.html" target="_top" xlink:title="A function of the stellar angular momentum expected to evolve linearly with time under the m = 1...">
<polygon fill="#ffffff" stroke="#000000" points="460,-40.5 460,-61.5 610,-61.5 610,-40.5 460,-40.5"/>
<text text-anchor="middle" x="535" y="-47.9" font-family="Helvetica,sans-Serif" font-size="12.00" fill="#000000">Oblique10LinearQuantity</text>
</a>
</g>
</g>
<!-- Node1&#45;&gt;Node14 -->
<g id="edge29" class="edge">
<title>Node1&#45;&gt;Node14</title>
<path fill="none" stroke="#191970" d="M302.1258,-358.3315C309.0533,-302.3254 336.2538,-146.7799 430,-71 438.6589,-64.0006 449.0268,-59.1835 459.8269,-55.9102"/>
<polygon fill="#191970" stroke="#191970" points="298.6298,-358.0972 300.9676,-368.4309 305.5843,-358.8948 298.6298,-358.0972"/>
</g>
<!-- Node15 -->
<g id="node26" class="node">
<title>Node15</title>
<g id="a_node26"><a xlink:href="classOblique20LinearQuantity.html" target="_top" xlink:title="A function of the stellar angular momentum expected to evolve linearly with time under the m = 1...">
<polygon fill="#ffffff" stroke="#000000" points="460,-.5 460,-21.5 610,-21.5 610,-.5 460,-.5"/>
<text text-anchor="middle" x="535" y="-7.9" font-family="Helvetica,sans-Serif" font-size="12.00" fill="#000000">Oblique20LinearQuantity</text>
</a>
</g>
</g>
<!-- Node1&#45;&gt;Node15 -->
<g id="edge30" class="edge">
<title>Node1&#45;&gt;Node15</title>
<path fill="none" stroke="#191970" d="M301.0297,-358.1699C305.2298,-297.3008 326.2609,-118.512 430,-31 438.5814,-23.7609 448.9711,-18.8265 459.8351,-15.5116"/>
<polygon fill="#191970" stroke="#191970" points="297.5204,-358.2202 300.4098,-368.4134 304.5076,-358.6431 297.5204,-358.2202"/>
</g>
<!-- Node18 -->
<g id="node27" class="node">
<title>Node18</title>
<g id="a_node27"><a xlink:href="classStellarEvolution_1_1EvolvingStellarQuantity.html" target="_top" xlink:title="A class for stellar properties that depend on age. ">
<polygon fill="#ffffff" stroke="#000000" points="458,-362 458,-396 612,-396 612,-362 458,-362"/>
<text text-anchor="start" x="466" y="-382.4" font-family="Helvetica,sans-Serif" font-size="12.00" fill="#000000">StellarEvolution::Evolving</text>
<text text-anchor="middle" x="535" y="-369.4" font-family="Helvetica,sans-Serif" font-size="12.00" fill="#000000">StellarQuantity</text>
</a>
</g>
</g>
<!-- Node1&#45;&gt;Node18 -->
<g id="edge33" class="edge">
<title>Node1&#45;&gt;Node18</title>
<path fill="none" stroke="#191970" d="M404.4209,-379C422.334,-379 440.6577,-379 457.6987,-379"/>
<polygon fill="#191970" stroke="#191970" points="404.2295,-375.5001 394.2294,-379 404.2294,-382.5001 404.2295,-375.5001"/>
</g>
<!-- Node18&#45;&gt;Node19 -->
<g id="edge34" class="edge">
<title>Node18&#45;&gt;Node19</title>
<path fill="none" stroke="#191970" d="M621.6748,-395.5421C628.1561,-398.4777 634.3575,-401.9331 640,-406 704.2203,-452.2874 743.6529,-543.0338 757.9305,-580.8352"/>
<polygon fill="#191970" stroke="#191970" points="622.5925,-392.1365 612.0112,-391.6022 619.9498,-398.6185 622.5925,-392.1365"/>
</g>
<!-- Node20 -->
<g id="node28" class="node">
<title>Node20</title>
<g id="a_node28"><a xlink:href="classStellarEvolution_1_1SumQuantity.html" target="_top" xlink:title="A clas for stellar quantities that are the sum of two other quantities. ">
<polygon fill="#ffffff" stroke="#000000" points="676,-348.5 676,-369.5 852,-369.5 852,-348.5 676,-348.5"/>
<text text-anchor="middle" x="764" y="-355.9" font-family="Helvetica,sans-Serif" font-size="12.00" fill="#000000">StellarEvolution::SumQuantity</text>
</a>
</g>
</g>
<!-- Node18&#45;&gt;Node20 -->
<g id="edge35" class="edge">
<title>Node18&#45;&gt;Node20</title>
<path fill="none" stroke="#191970" d="M622.373,-371.3692C639.8324,-369.8443 658.1846,-368.2415 675.6757,-366.7139"/>
<polygon fill="#191970" stroke="#191970" points="621.8672,-367.8999 612.2097,-372.2568 622.4763,-374.8734 621.8672,-367.8999"/>
</g>
<!-- Node21 -->
<g id="node29" class="node">
<title>Node21</title>
<g id="a_node29"><a xlink:href="classStellarEvolution_1_1ZeroQuantity.html" target="_top" xlink:title="StellarEvolution::ZeroQuantity">
<polygon fill="#ffffff" stroke="#000000" points="676,-388.5 676,-409.5 852,-409.5 852,-388.5 676,-388.5"/>
<text text-anchor="middle" x="764" y="-395.9" font-family="Helvetica,sans-Serif" font-size="12.00" fill="#000000">StellarEvolution::ZeroQuantity</text>
</a>
</g>
</g>
<!-- Node18&#45;&gt;Node21 -->
<g id="edge36" class="edge">
<title>Node18&#45;&gt;Node21</title>
<path fill="none" stroke="#191970" d="M622.373,-386.6308C639.8324,-388.1557 658.1846,-389.7585 675.6757,-391.2861"/>
<polygon fill="#191970" stroke="#191970" points="622.4763,-383.1266 612.2097,-385.7432 621.8672,-390.1001 622.4763,-383.1266"/>
</g>
</g>
</svg>
