<?xml version="1.0" encoding="UTF-8" standalone="no"?>
<!DOCTYPE svg PUBLIC "-//W3C//DTD SVG 1.1//EN"
 "http://www.w3.org/Graphics/SVG/1.1/DTD/svg11.dtd">
<!-- Generated by graphviz version 2.40.1 (20161225.0304)
 -->
<!-- Title: Graphical Class Hierarchy Pages: 1 -->
<svg width="981pt" height="147pt"
 viewBox="0.00 0.00 981.28 147.00" xmlns="http://www.w3.org/2000/svg" xmlns:xlink="http://www.w3.org/1999/xlink">
<g id="graph0" class="graph" transform="scale(1 1) rotate(0) translate(4 143)">
<title>Graphical Class Hierarchy</title>
<polygon fill="#ffffff" stroke="transparent" points="-4,4 -4,-143 977.2793,-143 977.2793,4 -4,4"/>
<!-- Node0 -->
<g id="node1" class="node">
<title>Node0</title>
<g id="a_node1"><a xlink:href="classEvolve_1_1ZoneOrientation.html" target="_top" xlink:title="Evolve::ZoneOrientation">
<polygon fill="#ffffff" stroke="#000000" points="0,-59.5 0,-79.5 144.7363,-79.5 144.7363,-59.5 0,-59.5"/>
<text text-anchor="middle" x="72.3682" y="-65.9" font-family="Helvetica,sans-Serif" font-size="12.00" fill="#000000">Evolve::ZoneOrientation</text>
</a>
</g>
</g>
<!-- Node1 -->
<g id="node2" class="node">
<title>Node1</title>
<g id="a_node2"><a xlink:href="classEvolve_1_1DissipatingZone.html" target="_top" xlink:title="A layer of a system body for which the tidal bulge is not exactly in phase with the tidal potential...">
<polygon fill="#ffffff" stroke="#000000" points="180.7363,-59.5 180.7363,-79.5 325.4668,-79.5 325.4668,-59.5 180.7363,-59.5"/>
<text text-anchor="middle" x="253.1016" y="-65.9" font-family="Helvetica,sans-Serif" font-size="12.00" fill="#000000">Evolve::DissipatingZone</text>
</a>
</g>
</g>
<!-- Node0&#45;&gt;Node1 -->
<g id="edge1" class="edge">
<title>Node0&#45;&gt;Node1</title>
<path fill="none" stroke="#191970" d="M154.8629,-69.5C163.4561,-69.5 172.145,-69.5 180.6155,-69.5"/>
<polygon fill="#191970" stroke="#191970" points="154.838,-66.0001 144.838,-69.5 154.8379,-73.0001 154.838,-66.0001"/>
</g>
<!-- Node2 -->
<g id="node3" class="node">
<title>Node2</title>
<g id="a_node3"><a xlink:href="classEvolve_1_1BrokenPowerlawPhaseLagZone.html" target="_top" xlink:title="A DissipatingZone where the phase lag is described by a broken powerlaw. ">
<polygon fill="#ffffff" stroke="#000000" points="367.1387,-76.5 367.1387,-108.5 549.8906,-108.5 549.8906,-76.5 367.1387,-76.5"/>
<text text-anchor="start" x="375.1387" y="-94.9" font-family="Helvetica,sans-Serif" font-size="12.00" fill="#000000">Evolve::BrokenPowerlawPhase</text>
<text text-anchor="middle" x="458.5146" y="-82.9" font-family="Helvetica,sans-Serif" font-size="12.00" fill="#000000">LagZone</text>
</a>
</g>
</g>
<!-- Node1&#45;&gt;Node2 -->
<g id="edge2" class="edge">
<title>Node1&#45;&gt;Node2</title>
<path fill="none" stroke="#191970" d="M335.6972,-78.7482C345.9812,-79.8997 356.5452,-81.0825 366.9547,-82.2481"/>
<polygon fill="#191970" stroke="#191970" points="335.8499,-75.2435 325.5225,-77.6089 335.0709,-82.2 335.8499,-75.2435"/>
</g>
<!-- Node7 -->
<g id="node8" class="node">
<title>Node7</title>
<g id="a_node8"><a xlink:href="classEvolve_1_1PolynomialEvolutionZone.html" target="_top" xlink:title="Evolve::PolynomialEvolutionZone">
<polygon fill="#ffffff" stroke="#000000" points="361.4668,-37.5 361.4668,-57.5 555.5625,-57.5 555.5625,-37.5 361.4668,-37.5"/>
<text text-anchor="middle" x="458.5146" y="-43.9" font-family="Helvetica,sans-Serif" font-size="12.00" fill="#000000">Evolve::PolynomialEvolutionZone</text>
</a>
</g>
</g>
<!-- Node1&#45;&gt;Node7 -->
<g id="edge7" class="edge">
<title>Node1&#45;&gt;Node7</title>
<path fill="none" stroke="#191970" d="M335.47,-60.6782C345.1167,-59.6451 355.0127,-58.5852 364.7989,-57.5371"/>
<polygon fill="#191970" stroke="#191970" points="335.0929,-57.1985 325.5225,-61.7436 335.8384,-64.1587 335.0929,-57.1985"/>
</g>
<!-- Node3 -->
<g id="node4" class="node">
<title>Node3</title>
<g id="a_node4"><a xlink:href="classPlanet_1_1PlanetZone.html" target="_top" xlink:title="The only zone of a LockedPlanet. ">
<polygon fill="#ffffff" stroke="#000000" points="618.3428,-118.5 618.3428,-138.5 736.4131,-138.5 736.4131,-118.5 618.3428,-118.5"/>
<text text-anchor="middle" x="677.3779" y="-124.9" font-family="Helvetica,sans-Serif" font-size="12.00" fill="#000000">Planet::PlanetZone</text>
</a>
</g>
</g>
<!-- Node2&#45;&gt;Node3 -->
<g id="edge3" class="edge">
<title>Node2&#45;&gt;Node3</title>
<path fill="none" stroke="#191970" d="M560.1254,-109.2136C580.0598,-112.4925 600.342,-115.8287 618.3081,-118.7838"/>
<polygon fill="#191970" stroke="#191970" points="560.4998,-105.7282 550.0643,-107.5587 559.3636,-112.6354 560.4998,-105.7282"/>
</g>
<!-- Node4 -->
<g id="node5" class="node">
<title>Node4</title>
<g id="a_node5"><a xlink:href="classStar_1_1EvolvingStellarZone.html" target="_top" xlink:title="Base class for zones of low mass evolving stars. ">
<polygon fill="#ffffff" stroke="#000000" points="601.6787,-79.5 601.6787,-99.5 753.0771,-99.5 753.0771,-79.5 601.6787,-79.5"/>
<text text-anchor="middle" x="677.3779" y="-85.9" font-family="Helvetica,sans-Serif" font-size="12.00" fill="#000000">Star::EvolvingStellarZone</text>
</a>
</g>
</g>
<!-- Node2&#45;&gt;Node4 -->
<g id="edge4" class="edge">
<title>Node2&#45;&gt;Node4</title>
<path fill="none" stroke="#191970" d="M560.1406,-91.107C574.0375,-90.9165 588.1031,-90.7237 601.4348,-90.541"/>
<polygon fill="#191970" stroke="#191970" points="560.0153,-87.6083 550.0643,-91.2451 560.1113,-94.6076 560.0153,-87.6083"/>
</g>
<!-- Node5 -->
<g id="node6" class="node">
<title>Node5</title>
<g id="a_node6"><a xlink:href="classStar_1_1EvolvingStellarCore.html" target="_top" xlink:title="Radiative core for low mass evolving stars. ">
<polygon fill="#ffffff" stroke="#000000" points="811.208,-98.5 811.208,-118.5 961.2646,-118.5 961.2646,-98.5 811.208,-98.5"/>
<text text-anchor="middle" x="886.2363" y="-104.9" font-family="Helvetica,sans-Serif" font-size="12.00" fill="#000000">Star::EvolvingStellarCore</text>
</a>
</g>
</g>
<!-- Node4&#45;&gt;Node5 -->
<g id="edge5" class="edge">
<title>Node4&#45;&gt;Node5</title>
<path fill="none" stroke="#191970" d="M763.6072,-97.3443C779.3315,-98.7748 795.624,-100.2569 810.9985,-101.6556"/>
<polygon fill="#191970" stroke="#191970" points="763.6474,-93.8336 753.3714,-96.4132 763.0132,-100.8048 763.6474,-93.8336"/>
</g>
<!-- Node6 -->
<g id="node7" class="node">
<title>Node6</title>
<g id="a_node7"><a xlink:href="classStar_1_1EvolvingStellarEnvelope.html" target="_top" xlink:title="Surface convective zone for low mass evolving stars or the entire star for high mass stars...">
<polygon fill="#ffffff" stroke="#000000" points="799.1934,-59.5 799.1934,-79.5 973.2793,-79.5 973.2793,-59.5 799.1934,-59.5"/>
<text text-anchor="middle" x="886.2363" y="-65.9" font-family="Helvetica,sans-Serif" font-size="12.00" fill="#000000">Star::EvolvingStellarEnvelope</text>
</a>
</g>
</g>
<!-- Node4&#45;&gt;Node6 -->
<g id="edge6" class="edge">
<title>Node4&#45;&gt;Node6</title>
<path fill="none" stroke="#191970" d="M763.5514,-81.2481C775.2453,-80.1284 787.2544,-78.9784 798.9674,-77.8568"/>
<polygon fill="#191970" stroke="#191970" points="762.9922,-77.7856 753.3714,-82.223 763.6596,-84.7537 762.9922,-77.7856"/>
</g>
<!-- Node8 -->
<g id="node9" class="node">
<title>Node8</title>
<g id="a_node9"><a xlink:href="classEvolve_1_1ConstPhaseLagZone.html" target="_top" xlink:title="A zone with constant phase lag for all tidal terms. ">
<polygon fill="#ffffff" stroke="#000000" points="591.6621,-39.5 591.6621,-59.5 763.0938,-59.5 763.0938,-39.5 591.6621,-39.5"/>
<text text-anchor="middle" x="677.3779" y="-45.9" font-family="Helvetica,sans-Serif" font-size="12.00" fill="#000000">Evolve::ConstPhaseLagZone</text>
</a>
</g>
</g>
<!-- Node7&#45;&gt;Node8 -->
<g id="edge8" class="edge">
<title>Node7&#45;&gt;Node8</title>
<path fill="none" stroke="#191970" d="M565.8371,-48.4807C574.4169,-48.5591 583.014,-48.6377 591.4172,-48.7145"/>
<polygon fill="#191970" stroke="#191970" points="565.8174,-44.9805 555.7858,-48.3889 565.7534,-51.9802 565.8174,-44.9805"/>
</g>
<!-- Node9 -->
<g id="node10" class="node">
<title>Node9</title>
<g id="a_node10"><a xlink:href="classEvolve_1_1SingleTidalTermZone.html" target="_top" xlink:title="A zone dissipative to only a single tidal term. ">
<polygon fill="#ffffff" stroke="#000000" points="591.5625,-.5 591.5625,-20.5 763.1934,-20.5 763.1934,-.5 591.5625,-.5"/>
<text text-anchor="middle" x="677.3779" y="-6.9" font-family="Helvetica,sans-Serif" font-size="12.00" fill="#000000">Evolve::SingleTidalTermZone</text>
</a>
</g>
</g>
<!-- Node7&#45;&gt;Node9 -->
<g id="edge9" class="edge">
<title>Node7&#45;&gt;Node9</title>
<path fill="none" stroke="#191970" d="M527.8108,-35.7851C556.838,-30.8779 590.2387,-25.2314 618.103,-20.5207"/>
<polygon fill="#191970" stroke="#191970" points="527.0189,-32.3693 517.7422,-37.4873 528.1857,-39.2713 527.0189,-32.3693"/>
</g>
</g>
</svg>
