<?xml version="1.0" encoding="UTF-8" standalone="no"?>
<!DOCTYPE svg PUBLIC "-//W3C//DTD SVG 1.1//EN"
 "http://www.w3.org/Graphics/SVG/1.1/DTD/svg11.dtd">
<!-- Generated by graphviz version 2.40.1 (20161225.0304)
 -->
<!-- Title: Graphical Class Hierarchy Pages: 1 -->
<svg width="255pt" height="230pt"
 viewBox="0.00 0.00 255.00 230.00" xmlns="http://www.w3.org/2000/svg" xmlns:xlink="http://www.w3.org/1999/xlink">
<g id="graph0" class="graph" transform="scale(1 1) rotate(0) translate(4 226)">
<title>Graphical Class Hierarchy</title>
<polygon fill="#ffffff" stroke="transparent" points="-4,4 -4,-226 251,-226 251,4 -4,4"/>
<!-- Node16 -->
<g id="node1" class="node">
<title>Node16</title>
<polygon fill="#ffffff" stroke="#bfbfbf" points="0,-94 0,-115 44,-115 44,-94 0,-94"/>
<text text-anchor="middle" x="22" y="-101.4" font-family="Helvetica,sans-Serif" font-size="12.00" fill="#000000">Suite</text>
</g>
<!-- Node0 -->
<g id="node2" class="node">
<title>Node0</title>
<g id="a_node2"><a xlink:href="classEvolve_1_1test__DifferentialEquations.html" target="_top" xlink:title="The test suite that compares the differential equations for eccentricity and semimajor axis to litera...">
<polygon fill="#ffffff" stroke="#000000" points="92,-187.5 92,-221.5 235,-221.5 235,-187.5 92,-187.5"/>
<text text-anchor="start" x="100" y="-207.9" font-family="Helvetica,sans-Serif" font-size="12.00" fill="#000000">Evolve::test_Differential</text>
<text text-anchor="middle" x="163.5" y="-194.9" font-family="Helvetica,sans-Serif" font-size="12.00" fill="#000000">Equations</text>
</a>
</g>
</g>
<!-- Node16&#45;&gt;Node0 -->
<g id="edge1" class="edge">
<title>Node16&#45;&gt;Node0</title>
<path fill="none" stroke="#191970" d="M32.7999,-124.1931C42.929,-140.9206 59.5589,-164.3969 80,-178.5 84.8739,-181.8627 90.2007,-184.8043 95.7293,-187.3749"/>
<polygon fill="#191970" stroke="#191970" points="35.6541,-122.1382 27.6075,-115.2459 29.5998,-125.6518 35.6541,-122.1382"/>
</g>
<!-- Node18 -->
<g id="node3" class="node">
<title>Node18</title>
<g id="a_node3"><a xlink:href="classEvolve_1_1test__GravitationalPotential.html" target="_top" xlink:title="The test suite that compares the tidal potential expansion to the exact expression. ">
<polygon fill="#ffffff" stroke="#000000" points="87.5,-134.5 87.5,-168.5 239.5,-168.5 239.5,-134.5 87.5,-134.5"/>
<text text-anchor="start" x="95.5" y="-154.9" font-family="Helvetica,sans-Serif" font-size="12.00" fill="#000000">Evolve::test_Gravitational</text>
<text text-anchor="middle" x="163.5" y="-141.9" font-family="Helvetica,sans-Serif" font-size="12.00" fill="#000000">Potential</text>
</a>
</g>
</g>
<!-- Node16&#45;&gt;Node18 -->
<g id="edge2" class="edge">
<title>Node16&#45;&gt;Node18</title>
<path fill="none" stroke="#191970" d="M53.8435,-115.6043C62.3317,-118.5304 71.5044,-121.662 80,-124.5 89.6819,-127.7343 100.0154,-131.125 109.9962,-134.3688"/>
<polygon fill="#191970" stroke="#191970" points="54.8698,-112.2559 44.275,-112.2936 52.5809,-118.8711 54.8698,-112.2559"/>
</g>
<!-- Node19 -->
<g id="node4" class="node">
<title>Node19</title>
<g id="a_node4"><a xlink:href="classEvolve_1_1test__LockMonitoring.html" target="_top" xlink:title="The test suite that ensures the correct locks are selected for monitoring and the fixes applied to th...">
<polygon fill="#ffffff" stroke="#000000" points="80,-94 80,-115 247,-115 247,-94 80,-94"/>
<text text-anchor="middle" x="163.5" y="-101.4" font-family="Helvetica,sans-Serif" font-size="12.00" fill="#000000">Evolve::test_LockMonitoring</text>
</a>
</g>
</g>
<!-- Node16&#45;&gt;Node19 -->
<g id="edge3" class="edge">
<title>Node16&#45;&gt;Node19</title>
<path fill="none" stroke="#191970" d="M54.1915,-104.5C62.0423,-104.5 70.8052,-104.5 79.8596,-104.5"/>
<polygon fill="#191970" stroke="#191970" points="54.1094,-101.0001 44.1094,-104.5 54.1093,-108.0001 54.1094,-101.0001"/>
</g>
<!-- Node20 -->
<g id="node5" class="node">
<title>Node20</title>
<g id="a_node5"><a xlink:href="classEvolve_1_1test__OrbitSolver.html" target="_top" xlink:title="The test suite that exercises the OrbitSolver class. ">
<polygon fill="#ffffff" stroke="#000000" points="91,-54 91,-75 236,-75 236,-54 91,-54"/>
<text text-anchor="middle" x="163.5" y="-61.4" font-family="Helvetica,sans-Serif" font-size="12.00" fill="#000000">Evolve::test_OrbitSolver</text>
</a>
</g>
</g>
<!-- Node16&#45;&gt;Node20 -->
<g id="edge4" class="edge">
<title>Node16&#45;&gt;Node20</title>
<path fill="none" stroke="#191970" d="M53.7031,-92.9467C62.1924,-90.0239 71.4007,-87.0061 80,-84.5 91.5921,-81.1217 104.208,-77.879 116.0393,-75.0243"/>
<polygon fill="#191970" stroke="#191970" points="52.4255,-89.6857 44.1473,-96.298 54.7422,-96.2913 52.4255,-89.6857"/>
</g>
<!-- Node21 -->
<g id="node6" class="node">
<title>Node21</title>
<g id="a_node6"><a xlink:href="classEvolve_1_1test__TidalTorquePower.html" target="_top" xlink:title="The test suite that compares the tidal torque and power for a single zone against expectations...">
<polygon fill="#ffffff" stroke="#000000" points="88.5,-.5 88.5,-34.5 238.5,-34.5 238.5,-.5 88.5,-.5"/>
<text text-anchor="start" x="96.5" y="-20.9" font-family="Helvetica,sans-Serif" font-size="12.00" fill="#000000">Evolve::test_TidalTorque</text>
<text text-anchor="middle" x="163.5" y="-7.9" font-family="Helvetica,sans-Serif" font-size="12.00" fill="#000000">Power</text>
</a>
</g>
</g>
<!-- Node16&#45;&gt;Node21 -->
<g id="edge5" class="edge">
<title>Node16&#45;&gt;Node21</title>
<path fill="none" stroke="#191970" d="M36.0818,-85.6243C46.8102,-72.4351 62.6541,-55.3157 80,-44.5 86.0763,-40.7112 92.7359,-37.4036 99.5599,-34.5281"/>
<polygon fill="#191970" stroke="#191970" points="33.2281,-83.5912 29.8059,-93.6182 38.7341,-87.9138 33.2281,-83.5912"/>
</g>
</g>
</svg>
