<?xml version="1.0" encoding="UTF-8" standalone="no"?>
<!DOCTYPE svg PUBLIC "-//W3C//DTD SVG 1.1//EN"
 "http://www.w3.org/Graphics/SVG/1.1/DTD/svg11.dtd">
<!-- Generated by graphviz version 2.40.1 (20161225.0304)
 -->
<!-- Title: Graphical Class Hierarchy Pages: 1 -->
<svg width="587pt" height="338pt"
 viewBox="0.00 0.00 586.94 338.00" xmlns="http://www.w3.org/2000/svg" xmlns:xlink="http://www.w3.org/1999/xlink">
<g id="graph0" class="graph" transform="scale(1 1) rotate(0) translate(4 334)">
<title>Graphical Class Hierarchy</title>
<polygon fill="#ffffff" stroke="transparent" points="-4,4 -4,-334 582.9355,-334 582.9355,4 -4,4"/>
<!-- Node0 -->
<g id="node1" class="node">
<title>Node0</title>
<g id="a_node1"><a xlink:href="classEvolve_1_1StoppingCondition.html" target="_top" xlink:title="A base class for all stopping conditions. ">
<polygon fill="#ffffff" stroke="#000000" points="0,-139.5 0,-159.5 156.7598,-159.5 156.7598,-139.5 0,-139.5"/>
<text text-anchor="middle" x="78.3799" y="-145.9" font-family="Helvetica,sans-Serif" font-size="12.00" fill="#000000">Evolve::StoppingCondition</text>
</a>
</g>
</g>
<!-- Node1 -->
<g id="node2" class="node">
<title>Node1</title>
<g id="a_node2"><a xlink:href="classEvolve_1_1BreakLockCondition.html" target="_top" xlink:title="Satisfied when the maximum tidal torque that the planet can exert on the star is no longer sufficient...">
<polygon fill="#ffffff" stroke="#000000" points="209.1074,-309.5 209.1074,-329.5 375.1895,-329.5 375.1895,-309.5 209.1074,-309.5"/>
<text text-anchor="middle" x="292.1484" y="-315.9" font-family="Helvetica,sans-Serif" font-size="12.00" fill="#000000">Evolve::BreakLockCondition</text>
</a>
</g>
</g>
<!-- Node0&#45;&gt;Node1 -->
<g id="edge1" class="edge">
<title>Node0&#45;&gt;Node1</title>
<path fill="none" stroke="#191970" d="M87.2654,-169.0622C103.2936,-201.9568 140.3226,-267.9373 192.7598,-300.5 198.5801,-304.1144 204.9338,-307.0684 211.5232,-309.4795"/>
<polygon fill="#191970" stroke="#191970" points="90.2443,-167.1742 82.8064,-159.629 83.9157,-170.1656 90.2443,-167.1742"/>
</g>
<!-- Node2 -->
<g id="node3" class="node">
<title>Node2</title>
<g id="a_node3"><a xlink:href="classEvolve_1_1CombinedStoppingCondition.html" target="_top" xlink:title="A class combining the the outputs of multiple stopping conditions. ">
<polygon fill="#ffffff" stroke="#000000" points="211.7705,-258.5 211.7705,-290.5 372.5264,-290.5 372.5264,-258.5 211.7705,-258.5"/>
<text text-anchor="start" x="219.7705" y="-276.9" font-family="Helvetica,sans-Serif" font-size="12.00" fill="#000000">Evolve::CombinedStopping</text>
<text text-anchor="middle" x="292.1484" y="-264.9" font-family="Helvetica,sans-Serif" font-size="12.00" fill="#000000">Condition</text>
</a>
</g>
</g>
<!-- Node0&#45;&gt;Node2 -->
<g id="edge2" class="edge">
<title>Node0&#45;&gt;Node2</title>
<path fill="none" stroke="#191970" d="M93.6688,-167.281C114.017,-189.8075 152.1788,-228.2479 192.7598,-249.5 199.3009,-252.9256 206.3332,-255.8975 213.5255,-258.4729"/>
<polygon fill="#191970" stroke="#191970" points="96.2583,-164.9259 87.0065,-159.7631 91.0194,-169.5686 96.2583,-164.9259"/>
</g>
<!-- Node3 -->
<g id="node4" class="node">
<title>Node3</title>
<g id="a_node4"><a xlink:href="classEvolve_1_1ExternalStoppingCondition.html" target="_top" xlink:title="A base class for all external stopping conditions. ">
<polygon fill="#ffffff" stroke="#000000" points="217.1084,-207.5 217.1084,-239.5 367.1885,-239.5 367.1885,-207.5 217.1084,-207.5"/>
<text text-anchor="start" x="225.1084" y="-225.9" font-family="Helvetica,sans-Serif" font-size="12.00" fill="#000000">Evolve::ExternalStopping</text>
<text text-anchor="middle" x="292.1484" y="-213.9" font-family="Helvetica,sans-Serif" font-size="12.00" fill="#000000">Condition</text>
</a>
</g>
</g>
<!-- Node0&#45;&gt;Node3 -->
<g id="edge3" class="edge">
<title>Node0&#45;&gt;Node3</title>
<path fill="none" stroke="#191970" d="M108.2158,-163.8267C131.0051,-174.3884 163.388,-188.5841 192.7598,-198.5 202.2844,-201.7155 212.446,-204.7294 222.4995,-207.4741"/>
<polygon fill="#191970" stroke="#191970" points="109.6137,-160.6166 99.0731,-159.5458 106.6453,-166.9561 109.6137,-160.6166"/>
</g>
<!-- Node5 -->
<g id="node6" class="node">
<title>Node5</title>
<g id="a_node6"><a xlink:href="classEvolve_1_1LagForcingFrequencyBreakCondition.html" target="_top" xlink:title="satisfied when a forcing frequency reaches a critical value. ">
<polygon fill="#ffffff" stroke="#000000" points="204.4404,-156.5 204.4404,-188.5 379.8564,-188.5 379.8564,-156.5 204.4404,-156.5"/>
<text text-anchor="start" x="212.4404" y="-174.9" font-family="Helvetica,sans-Serif" font-size="12.00" fill="#000000">Evolve::LagForcingFrequency</text>
<text text-anchor="middle" x="292.1484" y="-162.9" font-family="Helvetica,sans-Serif" font-size="12.00" fill="#000000">BreakCondition</text>
</a>
</g>
</g>
<!-- Node0&#45;&gt;Node5 -->
<g id="edge5" class="edge">
<title>Node0&#45;&gt;Node5</title>
<path fill="none" stroke="#191970" d="M167.04,-159.0392C179.3828,-160.3672 192.0598,-161.7312 204.3861,-163.0574"/>
<polygon fill="#191970" stroke="#191970" points="167.0826,-155.5237 156.7656,-157.9338 166.3337,-162.4835 167.0826,-155.5237"/>
</g>
<!-- Node6 -->
<g id="node7" class="node">
<title>Node6</title>
<g id="a_node7"><a xlink:href="classEvolve_1_1NoStopCondition.html" target="_top" xlink:title="A stopping condition that is never satisfied. ">
<polygon fill="#ffffff" stroke="#000000" points="217.4424,-117.5 217.4424,-137.5 366.8545,-137.5 366.8545,-117.5 217.4424,-117.5"/>
<text text-anchor="middle" x="292.1484" y="-123.9" font-family="Helvetica,sans-Serif" font-size="12.00" fill="#000000">Evolve::NoStopCondition</text>
</a>
</g>
</g>
<!-- Node0&#45;&gt;Node6 -->
<g id="edge6" class="edge">
<title>Node0&#45;&gt;Node6</title>
<path fill="none" stroke="#191970" d="M167.0741,-140.372C183.7815,-138.6526 201.0999,-136.8703 217.331,-135.1998"/>
<polygon fill="#191970" stroke="#191970" points="166.3547,-136.9275 156.7656,-141.4329 167.0714,-143.8907 166.3547,-136.9275"/>
</g>
<!-- Node7 -->
<g id="node8" class="node">
<title>Node7</title>
<g id="a_node8"><a xlink:href="classEvolve_1_1SecondaryDeathCondition.html" target="_top" xlink:title="Satisfied when the planet enters below either the roche sphere or the stellar photosphere. ">
<polygon fill="#ffffff" stroke="#000000" points="192.7598,-78.5 192.7598,-98.5 391.5371,-98.5 391.5371,-78.5 192.7598,-78.5"/>
<text text-anchor="middle" x="292.1484" y="-84.9" font-family="Helvetica,sans-Serif" font-size="12.00" fill="#000000">Evolve::SecondaryDeathCondition</text>
</a>
</g>
</g>
<!-- Node0&#45;&gt;Node7 -->
<g id="edge7" class="edge">
<title>Node0&#45;&gt;Node7</title>
<path fill="none" stroke="#191970" d="M112.4856,-135.8001C135.0076,-127.1214 165.32,-116.135 192.7598,-108.5 206.3251,-104.7255 221.1181,-101.3569 235.0466,-98.5092"/>
<polygon fill="#191970" stroke="#191970" points="111.0804,-132.5912 103.0334,-139.483 113.6218,-139.1136 111.0804,-132.5912"/>
</g>
<!-- Node8 -->
<g id="node9" class="node">
<title>Node8</title>
<g id="a_node9"><a xlink:href="classEvolve_1_1SynchronizedCondition.html" target="_top" xlink:title="Satisfied when some multiples of the orbit and stellar rotation are synchronized. ...">
<polygon fill="#ffffff" stroke="#000000" points="201.1006,-39.5 201.1006,-59.5 383.1963,-59.5 383.1963,-39.5 201.1006,-39.5"/>
<text text-anchor="middle" x="292.1484" y="-45.9" font-family="Helvetica,sans-Serif" font-size="12.00" fill="#000000">Evolve::SynchronizedCondition</text>
</a>
</g>
</g>
<!-- Node0&#45;&gt;Node8 -->
<g id="edge8" class="edge">
<title>Node0&#45;&gt;Node8</title>
<path fill="none" stroke="#191970" d="M97.1507,-132.6484C118.6782,-114.2572 155.786,-85.3269 192.7598,-69.5 202.3064,-65.4135 212.7318,-62.1483 223.1237,-59.5429"/>
<polygon fill="#191970" stroke="#191970" points="94.6843,-130.155 89.4382,-139.3599 99.2795,-135.4356 94.6843,-130.155"/>
</g>
<!-- Node9 -->
<g id="node10" class="node">
<title>Node9</title>
<g id="a_node10"><a xlink:href="classStar_1_1WindSaturationCondition.html" target="_top" xlink:title="Satisfied when the surface zone of a body is spinning at exactly the wind saturation frequency...">
<polygon fill="#ffffff" stroke="#000000" points="203.4385,-.5 203.4385,-20.5 380.8584,-20.5 380.8584,-.5 203.4385,-.5"/>
<text text-anchor="middle" x="292.1484" y="-6.9" font-family="Helvetica,sans-Serif" font-size="12.00" fill="#000000">Star::WindSaturationCondition</text>
</a>
</g>
</g>
<!-- Node0&#45;&gt;Node9 -->
<g id="edge9" class="edge">
<title>Node0&#45;&gt;Node9</title>
<path fill="none" stroke="#191970" d="M90.7429,-130.7352C109.4477,-103.9573 147.5906,-55.2867 192.7598,-30.5 200.2435,-26.3933 208.4588,-23.1248 216.86,-20.5243"/>
<polygon fill="#191970" stroke="#191970" points="87.7,-128.985 84.9577,-139.2188 93.4834,-132.9288 87.7,-128.985"/>
</g>
<!-- Node4 -->
<g id="node5" class="node">
<title>Node4</title>
<g id="a_node5"><a xlink:href="classEvolve_1_1RotFastCondition.html" target="_top" xlink:title="Satisfied when a zone is rotating faster than a threshold. ">
<polygon fill="#ffffff" stroke="#000000" points="427.5371,-213.5 427.5371,-233.5 578.9355,-233.5 578.9355,-213.5 427.5371,-213.5"/>
<text text-anchor="middle" x="503.2363" y="-219.9" font-family="Helvetica,sans-Serif" font-size="12.00" fill="#000000">Evolve::RotFastCondition</text>
</a>
</g>
</g>
<!-- Node3&#45;&gt;Node4 -->
<g id="edge4" class="edge">
<title>Node3&#45;&gt;Node4</title>
<path fill="none" stroke="#191970" d="M377.5915,-223.5C394.0242,-223.5 411.1319,-223.5 427.2408,-223.5"/>
<polygon fill="#191970" stroke="#191970" points="377.4621,-220.0001 367.462,-223.5 377.462,-227.0001 377.4621,-220.0001"/>
</g>
</g>
</svg>
