<?xml version="1.0" encoding="UTF-8" standalone="no"?>
<!DOCTYPE svg PUBLIC "-//W3C//DTD SVG 1.1//EN"
 "http://www.w3.org/Graphics/SVG/1.1/DTD/svg11.dtd">
<!-- Generated by graphviz version 2.40.1 (20161225.0304)
 -->
<!-- Title: Graphical Class Hierarchy Pages: 1 -->
<svg width="563pt" height="131pt"
 viewBox="0.00 0.00 563.35 131.00" xmlns="http://www.w3.org/2000/svg" xmlns:xlink="http://www.w3.org/1999/xlink">
<g id="graph0" class="graph" transform="scale(1 1) rotate(0) translate(4 127)">
<title>Graphical Class Hierarchy</title>
<polygon fill="#ffffff" stroke="transparent" points="-4,4 -4,-127 559.3516,-127 559.3516,4 -4,4"/>
<!-- Node0 -->
<g id="node1" class="node">
<title>Node0</title>
<g id="a_node1"><a xlink:href="classEvolve_1_1DissipatingBody.html" target="_top" xlink:title="A base class for any body contributing to tidal dissipation. ">
<polygon fill="#ffffff" stroke="#000000" points="0,-57.5 0,-77.5 144.7305,-77.5 144.7305,-57.5 0,-57.5"/>
<text text-anchor="middle" x="72.3652" y="-63.9" font-family="Helvetica,sans-Serif" font-size="12.00" fill="#000000">Evolve::DissipatingBody</text>
</a>
</g>
</g>
<!-- Node1 -->
<g id="node2" class="node">
<title>Node1</title>
<g id="a_node2"><a xlink:href="classPlanet_1_1Planet.html" target="_top" xlink:title="Single zone non&#45;evolving planets with huge dissipation, so they always remain locked to the disk...">
<polygon fill="#ffffff" stroke="#000000" points="214.9668,-102.5 214.9668,-122.5 305.6855,-122.5 305.6855,-102.5 214.9668,-102.5"/>
<text text-anchor="middle" x="260.3262" y="-108.9" font-family="Helvetica,sans-Serif" font-size="12.00" fill="#000000">Planet::Planet</text>
</a>
</g>
</g>
<!-- Node0&#45;&gt;Node1 -->
<g id="edge1" class="edge">
<title>Node0&#45;&gt;Node1</title>
<path fill="none" stroke="#191970" d="M123.7817,-79.8492C141.7921,-84.1715 162.1555,-89.0547 180.7305,-93.5 192.8892,-96.4098 206.0942,-99.5642 218.1894,-102.4513"/>
<polygon fill="#191970" stroke="#191970" points="124.585,-76.4427 114.0443,-77.5119 122.9512,-83.2493 124.585,-76.4427"/>
</g>
<!-- Node2 -->
<g id="node3" class="node">
<title>Node2</title>
<g id="a_node3"><a xlink:href="classStar_1_1ExponentialDecayDiffRotBody.html" target="_top" xlink:title="A body with differential rotation torque between two zones given by: . ">
<polygon fill="#ffffff" stroke="#000000" points="180.7305,-51.5 180.7305,-83.5 339.9219,-83.5 339.9219,-51.5 180.7305,-51.5"/>
<text text-anchor="start" x="188.7305" y="-69.9" font-family="Helvetica,sans-Serif" font-size="12.00" fill="#000000">Star::ExponentialDecayDiff</text>
<text text-anchor="middle" x="260.3262" y="-57.9" font-family="Helvetica,sans-Serif" font-size="12.00" fill="#000000">RotBody</text>
</a>
</g>
</g>
<!-- Node0&#45;&gt;Node2 -->
<g id="edge2" class="edge">
<title>Node0&#45;&gt;Node2</title>
<path fill="none" stroke="#191970" d="M155.0002,-67.5C163.4555,-67.5 172.0352,-67.5 180.46,-67.5"/>
<polygon fill="#191970" stroke="#191970" points="154.767,-64.0001 144.767,-67.5 154.7669,-71.0001 154.767,-64.0001"/>
</g>
<!-- Node4 -->
<g id="node5" class="node">
<title>Node4</title>
<g id="a_node5"><a xlink:href="classStar_1_1SaturatingSkumanichWindBody.html" target="_top" xlink:title="A DissipatingBody which loses angular momentum at a rate . ">
<polygon fill="#ffffff" stroke="#000000" points="180.9561,-.5 180.9561,-32.5 339.6963,-32.5 339.6963,-.5 180.9561,-.5"/>
<text text-anchor="start" x="188.9561" y="-18.9" font-family="Helvetica,sans-Serif" font-size="12.00" fill="#000000">Star::SaturatingSkumanich</text>
<text text-anchor="middle" x="260.3262" y="-6.9" font-family="Helvetica,sans-Serif" font-size="12.00" fill="#000000">WindBody</text>
</a>
</g>
</g>
<!-- Node0&#45;&gt;Node4 -->
<g id="edge4" class="edge">
<title>Node0&#45;&gt;Node4</title>
<path fill="none" stroke="#191970" d="M119.3696,-54.7462C144.117,-48.0314 174.7147,-39.7292 201.0719,-32.5777"/>
<polygon fill="#191970" stroke="#191970" points="118.2348,-51.4275 109.5003,-57.424 120.0679,-58.1832 118.2348,-51.4275"/>
</g>
<!-- Node6 -->
<g id="node4" class="node">
<title>Node6</title>
<g id="a_node4"><a xlink:href="classStar_1_1InterpolatedEvolutionStar.html" target="_top" xlink:title="Star::InterpolatedEvolutionStar">
<polygon fill="#ffffff" stroke="#000000" points="375.9219,-51.5 375.9219,-71.5 555.3516,-71.5 555.3516,-51.5 375.9219,-51.5"/>
<text text-anchor="middle" x="465.6367" y="-57.9" font-family="Helvetica,sans-Serif" font-size="12.00" fill="#000000">Star::InterpolatedEvolutionStar</text>
</a>
</g>
</g>
<!-- Node2&#45;&gt;Node6 -->
<g id="edge3" class="edge">
<title>Node2&#45;&gt;Node6</title>
<path fill="none" stroke="#191970" d="M350.254,-64.8719C358.7224,-64.6245 367.3081,-64.3736 375.7759,-64.1261"/>
<polygon fill="#191970" stroke="#191970" points="349.8919,-61.3809 339.9984,-65.1717 350.0965,-68.378 349.8919,-61.3809"/>
</g>
<!-- Node4&#45;&gt;Node6 -->
<g id="edge6" class="edge">
<title>Node4&#45;&gt;Node6</title>
<path fill="none" stroke="#191970" d="M343.4776,-34.7251C369.5678,-40.4436 397.403,-46.5445 419.9033,-51.4761"/>
<polygon fill="#191970" stroke="#191970" points="344.096,-31.2777 333.5785,-32.5555 342.5972,-38.1154 344.096,-31.2777"/>
</g>
<!-- Node5 -->
<g id="node6" class="node">
<title>Node5</title>
<g id="a_node6"><a xlink:href="classEvolve_1_1SingleTidalTermBody.html" target="_top" xlink:title="A skumanich wind body with a single zone dissipative to only a single tidal term. ...">
<polygon fill="#ffffff" stroke="#000000" points="379.8213,-6.5 379.8213,-26.5 551.4521,-26.5 551.4521,-6.5 379.8213,-6.5"/>
<text text-anchor="middle" x="465.6367" y="-12.9" font-family="Helvetica,sans-Serif" font-size="12.00" fill="#000000">Evolve::SingleTidalTermBody</text>
</a>
</g>
</g>
<!-- Node4&#45;&gt;Node5 -->
<g id="edge5" class="edge">
<title>Node4&#45;&gt;Node5</title>
<path fill="none" stroke="#191970" d="M349.9191,-16.5C359.7929,-16.5 369.8306,-16.5 379.6587,-16.5"/>
<polygon fill="#191970" stroke="#191970" points="349.7046,-13.0001 339.7046,-16.5 349.7046,-20.0001 349.7046,-13.0001"/>
</g>
</g>
</svg>
