<?xml version="1.0" encoding="UTF-8" standalone="no"?>
<!DOCTYPE svg PUBLIC "-//W3C//DTD SVG 1.1//EN"
 "http://www.w3.org/Graphics/SVG/1.1/DTD/svg11.dtd">
<!-- Generated by graphviz version 2.40.1 (20161225.0304)
 -->
<!-- Title: /Users/kpenev/projects/git/poet/poet_src/unit_tests/testEvolve/InverseFunction.h Pages: 1 -->
<svg width="550pt" height="308pt"
 viewBox="0.00 0.00 549.76 308.00" xmlns="http://www.w3.org/2000/svg" xmlns:xlink="http://www.w3.org/1999/xlink">
<g id="graph0" class="graph" transform="scale(1 1) rotate(0) translate(4 304)">
<title>/Users/kpenev/projects/git/poet/poet_src/unit_tests/testEvolve/InverseFunction.h</title>
<polygon fill="#ffffff" stroke="transparent" points="-4,4 -4,-304 545.7646,-304 545.7646,4 -4,4"/>
<!-- Node31 -->
<g id="node1" class="node">
<title>Node31</title>
<polygon fill="#bfbfbf" stroke="#000000" points="115.3369,-255.5 115.3369,-299.5 320.7646,-299.5 320.7646,-255.5 115.3369,-255.5"/>
<text text-anchor="start" x="123.3369" y="-285.9" font-family="Helvetica,sans-Serif" font-size="12.00" fill="#000000">/Users/kpenev/projects</text>
<text text-anchor="start" x="123.3369" y="-273.9" font-family="Helvetica,sans-Serif" font-size="12.00" fill="#000000">/git/poet/poet_src/unit</text>
<text text-anchor="middle" x="218.0508" y="-261.9" font-family="Helvetica,sans-Serif" font-size="12.00" fill="#000000">_tests/testEvolve/InverseFunction.h</text>
</g>
<!-- Node32 -->
<g id="node2" class="node">
<title>Node32</title>
<g id="a_node2"><a xlink:href="InverseFunction_8cpp.html" target="_top" xlink:title="Definitions of some of the methods of the InverseFunction class. ">
<polygon fill="#ffffff" stroke="#000000" points="0,-168.5 0,-212.5 218.1016,-212.5 218.1016,-168.5 0,-168.5"/>
<text text-anchor="start" x="8" y="-198.9" font-family="Helvetica,sans-Serif" font-size="12.00" fill="#000000">/Users/kpenev/projects</text>
<text text-anchor="start" x="8" y="-186.9" font-family="Helvetica,sans-Serif" font-size="12.00" fill="#000000">/git/poet/poet_src/unit</text>
<text text-anchor="middle" x="109.0508" y="-174.9" font-family="Helvetica,sans-Serif" font-size="12.00" fill="#000000">_tests/testEvolve/InverseFunction.cpp</text>
</a>
</g>
</g>
<!-- Node31&#45;&gt;Node32 -->
<g id="edge1" class="edge">
<title>Node31&#45;&gt;Node32</title>
<path fill="none" stroke="#191970" d="M182.295,-248.961C167.5046,-237.1558 150.6168,-223.6765 136.7874,-212.6384"/>
<polygon fill="#191970" stroke="#191970" points="180.2644,-251.8184 190.2634,-255.3211 184.6311,-246.3474 180.2644,-251.8184"/>
</g>
<!-- Node33 -->
<g id="node3" class="node">
<title>Node33</title>
<g id="a_node3"><a xlink:href="InverseLinearLconvEvolution_8h.html" target="_top" xlink:title="Declares a OneArgumentDiffFunction sub&#45;class giving the evolution of the stellar convective zone angu...">
<polygon fill="#ffffff" stroke="#000000" points="235.6748,-162.5 235.6748,-218.5 418.4268,-218.5 418.4268,-162.5 235.6748,-162.5"/>
<text text-anchor="start" x="243.6748" y="-204.9" font-family="Helvetica,sans-Serif" font-size="12.00" fill="#000000">/Users/kpenev/projects</text>
<text text-anchor="start" x="243.6748" y="-192.9" font-family="Helvetica,sans-Serif" font-size="12.00" fill="#000000">/git/poet/poet_src/unit</text>
<text text-anchor="start" x="243.6748" y="-180.9" font-family="Helvetica,sans-Serif" font-size="12.00" fill="#000000">_tests/testEvolve/InverseLinear</text>
<text text-anchor="middle" x="327.0508" y="-168.9" font-family="Helvetica,sans-Serif" font-size="12.00" fill="#000000">LconvEvolution.h</text>
</a>
</g>
</g>
<!-- Node31&#45;&gt;Node33 -->
<g id="edge2" class="edge">
<title>Node31&#45;&gt;Node33</title>
<path fill="none" stroke="#191970" d="M253.6581,-249.0795C265.9244,-239.289 279.6478,-228.3354 291.8791,-218.5728"/>
<polygon fill="#191970" stroke="#191970" points="251.4704,-246.3474 245.8381,-255.3211 255.8372,-251.8184 251.4704,-246.3474"/>
</g>
<!-- Node34 -->
<g id="node4" class="node">
<title>Node34</title>
<g id="a_node4"><a xlink:href="testOrbitSolver_8h.html" target="_top" xlink:title="Declares the test suite that exercises the OrbitSolver class and some other clasess necessary to acco...">
<polygon fill="#ffffff" stroke="#000000" points="227.6738,-81.5 227.6738,-125.5 426.4277,-125.5 426.4277,-81.5 227.6738,-81.5"/>
<text text-anchor="start" x="235.6738" y="-111.9" font-family="Helvetica,sans-Serif" font-size="12.00" fill="#000000">/Users/kpenev/projects</text>
<text text-anchor="start" x="235.6738" y="-99.9" font-family="Helvetica,sans-Serif" font-size="12.00" fill="#000000">/git/poet/poet_src/unit</text>
<text text-anchor="middle" x="327.0508" y="-87.9" font-family="Helvetica,sans-Serif" font-size="12.00" fill="#000000">_tests/testEvolve/testOrbitSolver.h</text>
</a>
</g>
</g>
<!-- Node33&#45;&gt;Node34 -->
<g id="edge3" class="edge">
<title>Node33&#45;&gt;Node34</title>
<path fill="none" stroke="#191970" d="M327.0508,-152.4015C327.0508,-143.2633 327.0508,-133.8021 327.0508,-125.6648"/>
<polygon fill="#191970" stroke="#191970" points="323.5509,-152.4937 327.0508,-162.4938 330.5509,-152.4938 323.5509,-152.4937"/>
</g>
<!-- Node35 -->
<g id="node5" class="node">
<title>Node35</title>
<g id="a_node5"><a xlink:href="testEvolve_8cpp_source.html" target="_top" xlink:title="/Users/kpenev/projects\l/git/poet/poet_src/unit\l_tests/testEvolve/testEvolve.cpp">
<polygon fill="#ffffff" stroke="#000000" points="124.0088,-.5 124.0088,-44.5 312.0928,-44.5 312.0928,-.5 124.0088,-.5"/>
<text text-anchor="start" x="132.0088" y="-30.9" font-family="Helvetica,sans-Serif" font-size="12.00" fill="#000000">/Users/kpenev/projects</text>
<text text-anchor="start" x="132.0088" y="-18.9" font-family="Helvetica,sans-Serif" font-size="12.00" fill="#000000">/git/poet/poet_src/unit</text>
<text text-anchor="middle" x="218.0508" y="-6.9" font-family="Helvetica,sans-Serif" font-size="12.00" fill="#000000">_tests/testEvolve/testEvolve.cpp</text>
</a>
</g>
</g>
<!-- Node34&#45;&gt;Node35 -->
<g id="edge4" class="edge">
<title>Node34&#45;&gt;Node35</title>
<path fill="none" stroke="#191970" d="M289.0743,-75.279C275.5524,-65.2306 260.5318,-54.0685 247.7995,-44.6068"/>
<polygon fill="#191970" stroke="#191970" points="287.152,-78.211 297.2661,-81.3664 291.3272,-72.5925 287.152,-78.211"/>
</g>
<!-- Node36 -->
<g id="node6" class="node">
<title>Node36</title>
<g id="a_node6"><a xlink:href="testOrbitSolver_8cpp.html" target="_top" xlink:title="Defines some of the methods of the test suite that exercises the OrbitSolver class and the other clas...">
<polygon fill="#ffffff" stroke="#000000" points="330.3369,-.5 330.3369,-44.5 541.7646,-44.5 541.7646,-.5 330.3369,-.5"/>
<text text-anchor="start" x="338.3369" y="-30.9" font-family="Helvetica,sans-Serif" font-size="12.00" fill="#000000">/Users/kpenev/projects</text>
<text text-anchor="start" x="338.3369" y="-18.9" font-family="Helvetica,sans-Serif" font-size="12.00" fill="#000000">/git/poet/poet_src/unit</text>
<text text-anchor="middle" x="436.0508" y="-6.9" font-family="Helvetica,sans-Serif" font-size="12.00" fill="#000000">_tests/testEvolve/testOrbitSolver.cpp</text>
</a>
</g>
</g>
<!-- Node34&#45;&gt;Node36 -->
<g id="edge5" class="edge">
<title>Node34&#45;&gt;Node36</title>
<path fill="none" stroke="#191970" d="M365.0272,-75.279C378.5491,-65.2306 393.5698,-54.0685 406.3021,-44.6068"/>
<polygon fill="#191970" stroke="#191970" points="362.7743,-72.5925 356.8355,-81.3664 366.9496,-78.211 362.7743,-72.5925"/>
</g>
</g>
</svg>
