<?xml version="1.0" encoding="UTF-8" standalone="no"?>
<!DOCTYPE svg PUBLIC "-//W3C//DTD SVG 1.1//EN"
 "http://www.w3.org/Graphics/SVG/1.1/DTD/svg11.dtd">
<!-- Generated by graphviz version 2.40.1 (20161225.0304)
 -->
<!-- Title: /home/kpenev/projects/git/poet/poet_src/Evolve/LagForcingFrequencyBreakCondition.h Pages: 1 -->
<!--zoomable 754 -->
<svg id="main" version="1.1" xmlns="http://www.w3.org/2000/svg" xmlns:xlink="http://www.w3.org/1999/xlink" xml:space="preserve" onload="init(evt)">
<style type="text/css"><![CDATA[
.edge:hover path { stroke: red; }
.edge:hover polygon { stroke: red; fill: red; }
]]></style>
<script type="text/javascript"><![CDATA[
var edges = document.getElementsByTagName('g');
if (edges && edges.length) {
  for (var i=0;i<edges.length;i++) {
    if (edges[i].id.substr(0,4)=='edge') {
      edges[i].setAttribute('class','edge');
    }
  }
}
]]></script>
        <defs>
                <circle id="rim" cx="0" cy="0" r="7"/>
                <circle id="rim2" cx="0" cy="0" r="3.5"/>
                <g id="zoomPlus">
                        <use xlink:href="#rim" fill="#404040">
                                <set attributeName="fill" to="#808080" begin="zoomplus.mouseover" end="zoomplus.mouseout"/>
                        </use>
                        <path d="M-4,0h8M0,-4v8" fill="none" stroke="white" stroke-width="1.5" pointer-events="none"/>
                </g>
                <g id="zoomMin">
                        <use xlink:href="#rim" fill="#404040">
                                <set attributeName="fill" to="#808080" begin="zoomminus.mouseover" end="zoomminus.mouseout"/>
                        </use>
                        <path d="M-4,0h8" fill="none" stroke="white" stroke-width="1.5" pointer-events="none"/>
                </g>
                <g id="dirArrow">
                        <path fill="none" stroke="white" stroke-width="1.5" d="M0,-3.0v7 M-2.5,-0.5L0,-3.0L2.5,-0.5"/>
                </g>
               <g id="resetDef">
                       <use xlink:href="#rim2" fill="#404040">
                               <set attributeName="fill" to="#808080" begin="reset.mouseover" end="reset.mouseout"/>
                       </use>
               </g>
        </defs>

<script type="text/javascript">
var viewWidth = 1501;
var viewHeight = 754;
var sectionId = 'dynsection-1';
</script>
<script xlink:href="svgpan.js"/>
<svg id="graph" class="graph">
<g id="viewport">
<title>/home/kpenev/projects/git/poet/poet_src/Evolve/LagForcingFrequencyBreakCondition.h</title>
<polygon fill="#ffffff" stroke="transparent" points="-4,4 -4,-750 1497,-750 1497,4 -4,4"/>
<!-- Node40 -->
<g id="node1" class="node">
<title>Node40</title>
<polygon fill="#bfbfbf" stroke="#000000" points="967.5,-698.5 967.5,-745.5 1197.5,-745.5 1197.5,-698.5 967.5,-698.5"/>
<text text-anchor="start" x="975.5" y="-731.9" font-family="Helvetica,sans-Serif" font-size="12.00" fill="#000000">/home/kpenev/projects</text>
<text text-anchor="start" x="975.5" y="-718.9" font-family="Helvetica,sans-Serif" font-size="12.00" fill="#000000">/git/poet/poet_src/Evolve</text>
<text text-anchor="middle" x="1082.5" y="-705.9" font-family="Helvetica,sans-Serif" font-size="12.00" fill="#000000">/LagForcingFrequencyBreakCondition.h</text>
</g>
<!-- Node41 -->
<g id="node2" class="node">
<title>Node41</title>
<g id="a_node2"><a xlink:href="BrokenPowerlawPhaseLagZone_8h.html" target="_top" xlink:title="Declares the class that provides the phase lag function to DissipatingZone objects. ">
<polygon fill="#ffffff" stroke="#000000" points="916,-614.5 916,-661.5 1119,-661.5 1119,-614.5 916,-614.5"/>
<text text-anchor="start" x="924" y="-647.9" font-family="Helvetica,sans-Serif" font-size="12.00" fill="#000000">/home/kpenev/projects</text>
<text text-anchor="start" x="924" y="-634.9" font-family="Helvetica,sans-Serif" font-size="12.00" fill="#000000">/git/poet/poet_src/Evolve</text>
<text text-anchor="middle" x="1017.5" y="-621.9" font-family="Helvetica,sans-Serif" font-size="12.00" fill="#000000">/BrokenPowerlawPhaseLagZone.h</text>
</a>
</g>
</g>
<!-- Node40&#45;&gt;Node41 -->
<g id="edge1" class="edge">
<title>Node40&#45;&gt;Node41</title>
<path fill="none" stroke="#191970" d="M1057.8019,-690.0824C1050.4846,-680.6262 1042.6065,-670.4454 1035.7737,-661.6152"/>
<polygon fill="#191970" stroke="#191970" points="1055.1595,-692.3869 1064.0475,-698.1537 1060.6957,-688.103 1055.1595,-692.3869"/>
</g>
<!-- Node67 -->
<g id="node28" class="node">
<title>Node67</title>
<g id="a_node28"><a xlink:href="LagForcingFrequencyBreakCondition_8cpp.html" target="_top" xlink:title="Definitions of some of the methods of the LagForcingFrequencyBreakCondition class. ">
<polygon fill="#ffffff" stroke="#000000" points="1250,-530.5 1250,-577.5 1493,-577.5 1493,-530.5 1250,-530.5"/>
<text text-anchor="start" x="1258" y="-563.9" font-family="Helvetica,sans-Serif" font-size="12.00" fill="#000000">/home/kpenev/projects</text>
<text text-anchor="start" x="1258" y="-550.9" font-family="Helvetica,sans-Serif" font-size="12.00" fill="#000000">/git/poet/poet_src/Evolve</text>
<text text-anchor="middle" x="1371.5" y="-537.9" font-family="Helvetica,sans-Serif" font-size="12.00" fill="#000000">/LagForcingFrequencyBreakCondition.cpp</text>
</a>
</g>
</g>
<!-- Node40&#45;&gt;Node67 -->
<g id="edge40" class="edge">
<title>Node40&#45;&gt;Node67</title>
<path fill="none" stroke="#191970" d="M1131.6858,-693.4075C1187.7983,-660.7885 1278.5258,-608.0473 1330.8197,-577.6481"/>
<polygon fill="#191970" stroke="#191970" points="1129.8749,-690.4118 1122.9885,-698.4634 1133.3929,-696.4636 1129.8749,-690.4118"/>
</g>
<!-- Node42 -->
<g id="node3" class="node">
<title>Node42</title>
<g id="a_node3"><a xlink:href="BrokenPowerlawPhaseLagZone_8cpp_source.html" target="_top" xlink:title="/home/kpenev/projects\l/git/poet/poet_src/Evolve\l/BrokenPowerlawPhaseLagZone.cpp">
<polygon fill="#ffffff" stroke="#000000" points="1015.5,-530.5 1015.5,-577.5 1231.5,-577.5 1231.5,-530.5 1015.5,-530.5"/>
<text text-anchor="start" x="1023.5" y="-563.9" font-family="Helvetica,sans-Serif" font-size="12.00" fill="#000000">/home/kpenev/projects</text>
<text text-anchor="start" x="1023.5" y="-550.9" font-family="Helvetica,sans-Serif" font-size="12.00" fill="#000000">/git/poet/poet_src/Evolve</text>
<text text-anchor="middle" x="1123.5" y="-537.9" font-family="Helvetica,sans-Serif" font-size="12.00" fill="#000000">/BrokenPowerlawPhaseLagZone.cpp</text>
</a>
</g>
</g>
<!-- Node41&#45;&gt;Node42 -->
<g id="edge2" class="edge">
<title>Node41&#45;&gt;Node42</title>
<path fill="none" stroke="#191970" d="M1055.3436,-608.0107C1067.8917,-598.067 1081.6773,-587.1425 1093.5475,-577.736"/>
<polygon fill="#191970" stroke="#191970" points="1052.9727,-605.4238 1047.309,-614.3778 1057.3203,-610.91 1052.9727,-605.4238"/>
</g>
<!-- Node43 -->
<g id="node4" class="node">
<title>Node43</title>
<g id="a_node4"><a xlink:href="EvolvingStellarZone_8h.html" target="_top" xlink:title="Declares a base class for all stellar zones. ">
<polygon fill="#ffffff" stroke="#000000" points="533.5,-530.5 533.5,-577.5 671.5,-577.5 671.5,-530.5 533.5,-530.5"/>
<text text-anchor="start" x="541.5" y="-563.9" font-family="Helvetica,sans-Serif" font-size="12.00" fill="#000000">/home/kpenev/projects</text>
<text text-anchor="start" x="541.5" y="-550.9" font-family="Helvetica,sans-Serif" font-size="12.00" fill="#000000">/git/poet/poet_src/Star</text>
<text text-anchor="middle" x="602.5" y="-537.9" font-family="Helvetica,sans-Serif" font-size="12.00" fill="#000000">/EvolvingStellarZone.h</text>
</a>
</g>
</g>
<!-- Node41&#45;&gt;Node43 -->
<g id="edge3" class="edge">
<title>Node41&#45;&gt;Node43</title>
<path fill="none" stroke="#191970" d="M906.0668,-615.4448C831.4817,-600.3481 735.647,-580.9502 671.8083,-568.0287"/>
<polygon fill="#191970" stroke="#191970" points="905.484,-618.8978 915.9796,-617.4513 906.8727,-612.0369 905.484,-618.8978"/>
</g>
<!-- Node60 -->
<g id="node21" class="node">
<title>Node60</title>
<g id="a_node21"><a xlink:href="PlanetZone_8h.html" target="_top" xlink:title="Declares a class for the single zone of LockedPlanet objects. ">
<polygon fill="#ffffff" stroke="#000000" points="746,-362.5 746,-409.5 891,-409.5 891,-362.5 746,-362.5"/>
<text text-anchor="start" x="754" y="-395.9" font-family="Helvetica,sans-Serif" font-size="12.00" fill="#000000">/home/kpenev/projects</text>
<text text-anchor="start" x="754" y="-382.9" font-family="Helvetica,sans-Serif" font-size="12.00" fill="#000000">/git/poet/poet_src/Planet</text>
<text text-anchor="middle" x="818.5" y="-369.9" font-family="Helvetica,sans-Serif" font-size="12.00" fill="#000000">/PlanetZone.h</text>
</a>
</g>
</g>
<!-- Node41&#45;&gt;Node60 -->
<g id="edge24" class="edge">
<title>Node41&#45;&gt;Node60</title>
<path fill="none" stroke="#191970" d="M905.8672,-616.5428C866.9404,-606.6178 830.0561,-593.5542 818.5,-578 781.4253,-528.0985 798.3696,-449.0039 810.3024,-409.736"/>
<polygon fill="#191970" stroke="#191970" points="905.2459,-619.9946 915.7937,-618.9982 906.9267,-613.1993 905.2459,-619.9946"/>
</g>
<!-- Node41&#45;&gt;Node67 -->
<g id="edge38" class="edge">
<title>Node41&#45;&gt;Node67</title>
<path fill="none" stroke="#191970" d="M1126.4019,-612.1589C1172.9875,-601.1047 1226.9991,-588.2883 1272.4445,-577.5047"/>
<polygon fill="#191970" stroke="#191970" points="1125.5012,-608.7753 1116.5795,-614.4896 1127.1174,-615.5862 1125.5012,-608.7753"/>
</g>
<!-- Node68 -->
<g id="node29" class="node">
<title>Node68</title>
<g id="a_node29"><a xlink:href="LagSpinBreakCondition_8cpp_source.html" target="_top" xlink:title="/home/kpenev/projects\l/git/poet/poet_src/Evolve\l/LagSpinBreakCondition.cpp">
<polygon fill="#ffffff" stroke="#000000" points="827.5,-530.5 827.5,-577.5 997.5,-577.5 997.5,-530.5 827.5,-530.5"/>
<text text-anchor="start" x="835.5" y="-563.9" font-family="Helvetica,sans-Serif" font-size="12.00" fill="#000000">/home/kpenev/projects</text>
<text text-anchor="start" x="835.5" y="-550.9" font-family="Helvetica,sans-Serif" font-size="12.00" fill="#000000">/git/poet/poet_src/Evolve</text>
<text text-anchor="middle" x="912.5" y="-537.9" font-family="Helvetica,sans-Serif" font-size="12.00" fill="#000000">/LagSpinBreakCondition.cpp</text>
</a>
</g>
</g>
<!-- Node41&#45;&gt;Node68 -->
<g id="edge39" class="edge">
<title>Node41&#45;&gt;Node68</title>
<path fill="none" stroke="#191970" d="M980.0134,-608.0107C967.5837,-598.067 953.9281,-587.1425 942.17,-577.736"/>
<polygon fill="#191970" stroke="#191970" points="977.9771,-610.8638 987.9722,-614.3778 982.35,-605.3977 977.9771,-610.8638"/>
</g>
<!-- Node44 -->
<g id="node5" class="node">
<title>Node44</title>
<g id="a_node5"><a xlink:href="EvolvingStellarCore_8h.html" target="_top" xlink:title="Declaration of the class representing stellar cores. ">
<polygon fill="#ffffff" stroke="#000000" points="615,-446.5 615,-493.5 752,-493.5 752,-446.5 615,-446.5"/>
<text text-anchor="start" x="623" y="-479.9" font-family="Helvetica,sans-Serif" font-size="12.00" fill="#000000">/home/kpenev/projects</text>
<text text-anchor="start" x="623" y="-466.9" font-family="Helvetica,sans-Serif" font-size="12.00" fill="#000000">/git/poet/poet_src/Star</text>
<text text-anchor="middle" x="683.5" y="-453.9" font-family="Helvetica,sans-Serif" font-size="12.00" fill="#000000">/EvolvingStellarCore.h</text>
</a>
</g>
</g>
<!-- Node43&#45;&gt;Node44 -->
<g id="edge4" class="edge">
<title>Node43&#45;&gt;Node44</title>
<path fill="none" stroke="#191970" d="M632.4507,-522.94C641.7999,-513.2445 651.9554,-502.7129 660.7282,-493.6152"/>
<polygon fill="#191970" stroke="#191970" points="629.9166,-520.5257 625.4947,-530.1537 634.9555,-525.3847 629.9166,-520.5257"/>
</g>
<!-- Node58 -->
<g id="node19" class="node">
<title>Node58</title>
<g id="a_node19"><a xlink:href="EvolvingStellarEnvelope_8h.html" target="_top" xlink:title="Declares a class representing convective zones in low mass evolving stars or the whole star for high ...">
<polygon fill="#ffffff" stroke="#000000" points="267,-446.5 267,-493.5 428,-493.5 428,-446.5 267,-446.5"/>
<text text-anchor="start" x="275" y="-479.9" font-family="Helvetica,sans-Serif" font-size="12.00" fill="#000000">/home/kpenev/projects</text>
<text text-anchor="start" x="275" y="-466.9" font-family="Helvetica,sans-Serif" font-size="12.00" fill="#000000">/git/poet/poet_src/Star</text>
<text text-anchor="middle" x="347.5" y="-453.9" font-family="Helvetica,sans-Serif" font-size="12.00" fill="#000000">/EvolvingStellarEnvelope.h</text>
</a>
</g>
</g>
<!-- Node43&#45;&gt;Node58 -->
<g id="edge21" class="edge">
<title>Node43&#45;&gt;Node58</title>
<path fill="none" stroke="#191970" d="M523.7769,-528.0677C490.4116,-517.0768 451.7987,-504.3572 419.2316,-493.6292"/>
<polygon fill="#191970" stroke="#191970" points="522.9003,-531.4639 533.4933,-531.2684 525.0905,-524.8153 522.9003,-531.4639"/>
</g>
<!-- Node59 -->
<g id="node20" class="node">
<title>Node59</title>
<g id="a_node20"><a xlink:href="EvolvingStellarZone_8cpp.html" target="_top" xlink:title="Definitions of some of the methods of EvolvingStellarZone. ">
<polygon fill="#ffffff" stroke="#000000" points="446,-446.5 446,-493.5 597,-493.5 597,-446.5 446,-446.5"/>
<text text-anchor="start" x="454" y="-479.9" font-family="Helvetica,sans-Serif" font-size="12.00" fill="#000000">/home/kpenev/projects</text>
<text text-anchor="start" x="454" y="-466.9" font-family="Helvetica,sans-Serif" font-size="12.00" fill="#000000">/git/poet/poet_src/Star</text>
<text text-anchor="middle" x="521.5" y="-453.9" font-family="Helvetica,sans-Serif" font-size="12.00" fill="#000000">/EvolvingStellarZone.cpp</text>
</a>
</g>
</g>
<!-- Node43&#45;&gt;Node59 -->
<g id="edge23" class="edge">
<title>Node43&#45;&gt;Node59</title>
<path fill="none" stroke="#191970" d="M572.5493,-522.94C563.2001,-513.2445 553.0446,-502.7129 544.2718,-493.6152"/>
<polygon fill="#191970" stroke="#191970" points="570.0445,-525.3847 579.5053,-530.1537 575.0834,-520.5257 570.0445,-525.3847"/>
</g>
<!-- Node45 -->
<g id="node6" class="node">
<title>Node45</title>
<g id="a_node6"><a xlink:href="EvolvingStar_8h.html" target="_top" xlink:title="Declares the class for stars that user pre&#45;tabulated stellar evolution tracks. ">
<polygon fill="#ffffff" stroke="#000000" points="279,-362.5 279,-409.5 416,-409.5 416,-362.5 279,-362.5"/>
<text text-anchor="start" x="287" y="-395.9" font-family="Helvetica,sans-Serif" font-size="12.00" fill="#000000">/home/kpenev/projects</text>
<text text-anchor="start" x="287" y="-382.9" font-family="Helvetica,sans-Serif" font-size="12.00" fill="#000000">/git/poet/poet_src/Star</text>
<text text-anchor="middle" x="347.5" y="-369.9" font-family="Helvetica,sans-Serif" font-size="12.00" fill="#000000">/EvolvingStar.h</text>
</a>
</g>
</g>
<!-- Node44&#45;&gt;Node45 -->
<g id="edge5" class="edge">
<title>Node44&#45;&gt;Node45</title>
<path fill="none" stroke="#191970" d="M604.849,-445.8962C535.239,-427.316 466.0915,-411.5275 416.27,-400.6194"/>
<polygon fill="#191970" stroke="#191970" points="604.1066,-449.3208 614.6723,-448.5362 605.9235,-442.5606 604.1066,-449.3208"/>
</g>
<!-- Node46 -->
<g id="node7" class="node">
<title>Node46</title>
<g id="a_node7"><a xlink:href="Star_2CInterface_8h.html" target="_top" xlink:title="Declare C&#45;style functions for accessing the functionality of the Star library. ">
<polygon fill="#ffffff" stroke="#000000" points="8,-188 8,-235 145,-235 145,-188 8,-188"/>
<text text-anchor="start" x="16" y="-221.4" font-family="Helvetica,sans-Serif" font-size="12.00" fill="#000000">/home/kpenev/projects</text>
<text text-anchor="start" x="16" y="-208.4" font-family="Helvetica,sans-Serif" font-size="12.00" fill="#000000">/git/poet/poet_src/Star</text>
<text text-anchor="middle" x="76.5" y="-195.4" font-family="Helvetica,sans-Serif" font-size="12.00" fill="#000000">/CInterface.h</text>
</a>
</g>
</g>
<!-- Node45&#45;&gt;Node46 -->
<g id="edge6" class="edge">
<title>Node45&#45;&gt;Node46</title>
<path fill="none" stroke="#191970" d="M302.4286,-356.978C249.4309,-322.8522 162.4768,-266.8614 113.3347,-235.2183"/>
<polygon fill="#191970" stroke="#191970" points="300.6491,-359.995 310.9517,-362.4662 304.4388,-354.1095 300.6491,-359.995"/>
</g>
<!-- Node51 -->
<g id="node12" class="node">
<title>Node51</title>
<g id="a_node12"><a xlink:href="MakeStar_8h.html" target="_top" xlink:title="Declares functions for creating stars used by unit tests. ">
<polygon fill="#ffffff" stroke="#000000" points="338.5,-278.5 338.5,-325.5 490.5,-325.5 490.5,-278.5 338.5,-278.5"/>
<text text-anchor="start" x="346.5" y="-311.9" font-family="Helvetica,sans-Serif" font-size="12.00" fill="#000000">/home/kpenev/projects</text>
<text text-anchor="start" x="346.5" y="-298.9" font-family="Helvetica,sans-Serif" font-size="12.00" fill="#000000">/git/poet/poet_src/unit</text>
<text text-anchor="middle" x="414.5" y="-285.9" font-family="Helvetica,sans-Serif" font-size="12.00" fill="#000000">_tests/shared/MakeStar.h</text>
</a>
</g>
</g>
<!-- Node45&#45;&gt;Node51 -->
<g id="edge12" class="edge">
<title>Node45&#45;&gt;Node51</title>
<path fill="none" stroke="#191970" d="M372.9581,-354.0824C380.5005,-344.6262 388.621,-334.4454 395.664,-325.6152"/>
<polygon fill="#191970" stroke="#191970" points="370.0197,-352.1534 366.5203,-362.1537 375.4921,-356.5183 370.0197,-352.1534"/>
</g>
<!-- Node56 -->
<g id="node17" class="node">
<title>Node56</title>
<g id="a_node17"><a xlink:href="testOrbitSolver_8h.html" target="_top" xlink:title="Declares the test suite that exercises the OrbitSolver class and some other clasess necessary to acco...">
<polygon fill="#ffffff" stroke="#000000" points="163.5,-188 163.5,-235 361.5,-235 361.5,-188 163.5,-188"/>
<text text-anchor="start" x="171.5" y="-221.4" font-family="Helvetica,sans-Serif" font-size="12.00" fill="#000000">/home/kpenev/projects</text>
<text text-anchor="start" x="171.5" y="-208.4" font-family="Helvetica,sans-Serif" font-size="12.00" fill="#000000">/git/poet/poet_src/unit</text>
<text text-anchor="middle" x="262.5" y="-195.4" font-family="Helvetica,sans-Serif" font-size="12.00" fill="#000000">_tests/testEvolve/testOrbitSolver.h</text>
</a>
</g>
</g>
<!-- Node45&#45;&gt;Node56 -->
<g id="edge20" class="edge">
<title>Node45&#45;&gt;Node56</title>
<path fill="none" stroke="#191970" d="M331.577,-353.3109C314.8429,-318.957 288.9266,-265.7523 274.0533,-235.2183"/>
<polygon fill="#191970" stroke="#191970" points="328.5107,-355.0087 336.0365,-362.4662 334.8039,-351.9433 328.5107,-355.0087"/>
</g>
<!-- Node47 -->
<g id="node8" class="node">
<title>Node47</title>
<g id="a_node8"><a xlink:href="Evolve_2CInterface_8h.html" target="_top" xlink:title="Declare C&#45;style functions for accessing the functionality of the Evolve library. ">
<polygon fill="#ffffff" stroke="#000000" points="97,-91 97,-138 244,-138 244,-91 97,-91"/>
<text text-anchor="start" x="105" y="-124.4" font-family="Helvetica,sans-Serif" font-size="12.00" fill="#000000">/home/kpenev/projects</text>
<text text-anchor="start" x="105" y="-111.4" font-family="Helvetica,sans-Serif" font-size="12.00" fill="#000000">/git/poet/poet_src/Evolve</text>
<text text-anchor="middle" x="170.5" y="-98.4" font-family="Helvetica,sans-Serif" font-size="12.00" fill="#000000">/CInterface.h</text>
</a>
</g>
</g>
<!-- Node46&#45;&gt;Node47 -->
<g id="edge7" class="edge">
<title>Node46&#45;&gt;Node47</title>
<path fill="none" stroke="#191970" d="M106.837,-180.1948C120.0497,-166.5605 135.2805,-150.8435 147.5313,-138.2017"/>
<polygon fill="#191970" stroke="#191970" points="104.1817,-177.9055 99.736,-187.5225 109.2086,-182.7769 104.1817,-177.9055"/>
</g>
<!-- Node50 -->
<g id="node11" class="node">
<title>Node50</title>
<g id="a_node11"><a xlink:href="Star_2CInterface_8cpp.html" target="_top" xlink:title="The definitions of the functions declared in CInterface.h. ">
<polygon fill="#ffffff" stroke="#000000" points="0,-.5 0,-47.5 137,-47.5 137,-.5 0,-.5"/>
<text text-anchor="start" x="8" y="-33.9" font-family="Helvetica,sans-Serif" font-size="12.00" fill="#000000">/home/kpenev/projects</text>
<text text-anchor="start" x="8" y="-20.9" font-family="Helvetica,sans-Serif" font-size="12.00" fill="#000000">/git/poet/poet_src/Star</text>
<text text-anchor="middle" x="68.5" y="-7.9" font-family="Helvetica,sans-Serif" font-size="12.00" fill="#000000">/CInterface.cpp</text>
</a>
</g>
</g>
<!-- Node46&#45;&gt;Node50 -->
<g id="edge11" class="edge">
<title>Node46&#45;&gt;Node50</title>
<path fill="none" stroke="#191970" d="M75.0408,-177.301C73.4363,-139.6955 70.9011,-80.2758 69.505,-47.5542"/>
<polygon fill="#191970" stroke="#191970" points="71.5636,-177.9113 75.4868,-187.753 78.5572,-177.6129 71.5636,-177.9113"/>
</g>
<!-- Node48 -->
<g id="node9" class="node">
<title>Node48</title>
<g id="a_node9"><a xlink:href="Evolve_2CInterface_8cpp.html" target="_top" xlink:title="The definitions of the functions declared in CInterface.h. ">
<polygon fill="#ffffff" stroke="#000000" points="155,-.5 155,-47.5 302,-47.5 302,-.5 155,-.5"/>
<text text-anchor="start" x="163" y="-33.9" font-family="Helvetica,sans-Serif" font-size="12.00" fill="#000000">/home/kpenev/projects</text>
<text text-anchor="start" x="163" y="-20.9" font-family="Helvetica,sans-Serif" font-size="12.00" fill="#000000">/git/poet/poet_src/Evolve</text>
<text text-anchor="middle" x="228.5" y="-7.9" font-family="Helvetica,sans-Serif" font-size="12.00" fill="#000000">/CInterface.cpp</text>
</a>
</g>
</g>
<!-- Node47&#45;&gt;Node48 -->
<g id="edge8" class="edge">
<title>Node47&#45;&gt;Node48</title>
<path fill="none" stroke="#191970" d="M191.1547,-82.2716C198.4804,-70.8409 206.5827,-58.1985 213.363,-47.619"/>
<polygon fill="#191970" stroke="#191970" points="188.1879,-80.4143 185.7388,-90.7222 194.0815,-84.1914 188.1879,-80.4143"/>
</g>
<!-- Node49 -->
<g id="node10" class="node">
<title>Node49</title>
<g id="a_node10"><a xlink:href="Planet_2CInterface_8cpp.html" target="_top" xlink:title="The definitions of the functions declared in CInterface.h. ">
<polygon fill="#ffffff" stroke="#000000" points="374,-.5 374,-47.5 519,-47.5 519,-.5 374,-.5"/>
<text text-anchor="start" x="382" y="-33.9" font-family="Helvetica,sans-Serif" font-size="12.00" fill="#000000">/home/kpenev/projects</text>
<text text-anchor="start" x="382" y="-20.9" font-family="Helvetica,sans-Serif" font-size="12.00" fill="#000000">/git/poet/poet_src/Planet</text>
<text text-anchor="middle" x="446.5" y="-7.9" font-family="Helvetica,sans-Serif" font-size="12.00" fill="#000000">/CInterface.cpp</text>
</a>
</g>
</g>
<!-- Node47&#45;&gt;Node49 -->
<g id="edge9" class="edge">
<title>Node47&#45;&gt;Node49</title>
<path fill="none" stroke="#191970" d="M242.3242,-87.5231C245.7583,-86.3156 249.1636,-85.1354 252.5,-84 292.383,-70.4272 337.3039,-56.4519 373.869,-45.4074"/>
<polygon fill="#191970" stroke="#191970" points="240.8496,-84.3328 232.6024,-90.9837 243.1971,-90.9274 240.8496,-84.3328"/>
</g>
<!-- Node47&#45;&gt;Node50 -->
<g id="edge10" class="edge">
<title>Node47&#45;&gt;Node50</title>
<path fill="none" stroke="#191970" d="M136.3215,-84.175C122.9398,-72.302 107.818,-58.8851 95.2545,-47.7381"/>
<polygon fill="#191970" stroke="#191970" points="134.1639,-86.9397 143.967,-90.9584 138.8097,-81.7035 134.1639,-86.9397"/>
</g>
<!-- Node52 -->
<g id="node13" class="node">
<title>Node52</title>
<g id="a_node13"><a xlink:href="MakeStar_8cpp.html" target="_top" xlink:title="Implement the functions defined in MakeStar.h. ">
<polygon fill="#ffffff" stroke="#000000" points="379.5,-188 379.5,-235 543.5,-235 543.5,-188 379.5,-188"/>
<text text-anchor="start" x="387.5" y="-221.4" font-family="Helvetica,sans-Serif" font-size="12.00" fill="#000000">/home/kpenev/projects</text>
<text text-anchor="start" x="387.5" y="-208.4" font-family="Helvetica,sans-Serif" font-size="12.00" fill="#000000">/git/poet/poet_src/unit</text>
<text text-anchor="middle" x="461.5" y="-195.4" font-family="Helvetica,sans-Serif" font-size="12.00" fill="#000000">_tests/shared/MakeStar.cpp</text>
</a>
</g>
</g>
<!-- Node51&#45;&gt;Node52 -->
<g id="edge13" class="edge">
<title>Node51&#45;&gt;Node52</title>
<path fill="none" stroke="#191970" d="M431.5873,-269.0978C437.4308,-257.846 443.8472,-245.4911 449.2338,-235.119"/>
<polygon fill="#191970" stroke="#191970" points="428.3515,-267.7345 426.8487,-278.2222 434.5637,-270.9607 428.3515,-267.7345"/>
</g>
<!-- Node53 -->
<g id="node14" class="node">
<title>Node53</title>
<g id="a_node14"><a xlink:href="testDifferentialEquations_8h.html" target="_top" xlink:title="Unit tests that check the differential equations for eccentricity and semimajor against analytic expr...">
<polygon fill="#ffffff" stroke="#000000" points="725.5,-181.5 725.5,-241.5 911.5,-241.5 911.5,-181.5 725.5,-181.5"/>
<text text-anchor="start" x="733.5" y="-227.9" font-family="Helvetica,sans-Serif" font-size="12.00" fill="#000000">/home/kpenev/projects</text>
<text text-anchor="start" x="733.5" y="-214.9" font-family="Helvetica,sans-Serif" font-size="12.00" fill="#000000">/git/poet/poet_src/unit</text>
<text text-anchor="start" x="733.5" y="-201.9" font-family="Helvetica,sans-Serif" font-size="12.00" fill="#000000">_tests/testEvolve/testDifferential</text>
<text text-anchor="middle" x="818.5" y="-188.9" font-family="Helvetica,sans-Serif" font-size="12.00" fill="#000000">Equations.h</text>
</a>
</g>
</g>
<!-- Node51&#45;&gt;Node53 -->
<g id="edge14" class="edge">
<title>Node51&#45;&gt;Node53</title>
<path fill="none" stroke="#191970" d="M500.5764,-286.9974C561.0242,-275.937 643.592,-259.7743 715.5,-242 718.7588,-241.1945 722.0686,-240.3515 725.406,-239.4802"/>
<polygon fill="#191970" stroke="#191970" points="499.9039,-283.5622 490.6924,-288.7965 501.1575,-290.4491 499.9039,-283.5622"/>
</g>
<!-- Node51&#45;&gt;Node56 -->
<g id="edge17" class="edge">
<title>Node51&#45;&gt;Node56</title>
<path fill="none" stroke="#191970" d="M366.3105,-273.3082C345.6208,-260.9897 321.7414,-246.772 302.1052,-235.0807"/>
<polygon fill="#191970" stroke="#191970" points="364.5777,-276.3499 374.9606,-278.4584 368.1588,-270.3352 364.5777,-276.3499"/>
</g>
<!-- Node54 -->
<g id="node15" class="node">
<title>Node54</title>
<g id="a_node15"><a xlink:href="testDifferentialEquations_8cpp.html" target="_top" xlink:title="Implement the non&#45;inline methods of test_DifferentialEquations. ">
<polygon fill="#ffffff" stroke="#000000" points="529.5,-84.5 529.5,-144.5 715.5,-144.5 715.5,-84.5 529.5,-84.5"/>
<text text-anchor="start" x="537.5" y="-130.9" font-family="Helvetica,sans-Serif" font-size="12.00" fill="#000000">/home/kpenev/projects</text>
<text text-anchor="start" x="537.5" y="-117.9" font-family="Helvetica,sans-Serif" font-size="12.00" fill="#000000">/git/poet/poet_src/unit</text>
<text text-anchor="start" x="537.5" y="-104.9" font-family="Helvetica,sans-Serif" font-size="12.00" fill="#000000">_tests/testEvolve/testDifferential</text>
<text text-anchor="middle" x="622.5" y="-91.9" font-family="Helvetica,sans-Serif" font-size="12.00" fill="#000000">Equations.cpp</text>
</a>
</g>
</g>
<!-- Node53&#45;&gt;Node54 -->
<g id="edge15" class="edge">
<title>Node53&#45;&gt;Node54</title>
<path fill="none" stroke="#191970" d="M748.7834,-176.9974C727.3696,-166.3997 703.9854,-154.827 683.2241,-144.5522"/>
<polygon fill="#191970" stroke="#191970" points="747.3117,-180.1742 757.8266,-181.4729 750.4166,-173.9004 747.3117,-180.1742"/>
</g>
<!-- Node55 -->
<g id="node16" class="node">
<title>Node55</title>
<g id="a_node16"><a xlink:href="testEvolve_8cpp_source.html" target="_top" xlink:title="/home/kpenev/projects\l/git/poet/poet_src/unit\l_tests/testEvolve/testEvolve.cpp">
<polygon fill="#ffffff" stroke="#000000" points="733.5,-91 733.5,-138 921.5,-138 921.5,-91 733.5,-91"/>
<text text-anchor="start" x="741.5" y="-124.4" font-family="Helvetica,sans-Serif" font-size="12.00" fill="#000000">/home/kpenev/projects</text>
<text text-anchor="start" x="741.5" y="-111.4" font-family="Helvetica,sans-Serif" font-size="12.00" fill="#000000">/git/poet/poet_src/unit</text>
<text text-anchor="middle" x="827.5" y="-98.4" font-family="Helvetica,sans-Serif" font-size="12.00" fill="#000000">_tests/testEvolve/testEvolve.cpp</text>
</a>
</g>
</g>
<!-- Node53&#45;&gt;Node55 -->
<g id="edge16" class="edge">
<title>Node53&#45;&gt;Node55</title>
<path fill="none" stroke="#191970" d="M822.2347,-171.248C823.279,-159.993 824.3799,-148.1275 825.3036,-138.1726"/>
<polygon fill="#191970" stroke="#191970" points="818.7372,-171.0597 821.2983,-181.3403 825.7073,-171.7065 818.7372,-171.0597"/>
</g>
<!-- Node56&#45;&gt;Node55 -->
<g id="edge18" class="edge">
<title>Node56&#45;&gt;Node55</title>
<path fill="none" stroke="#191970" d="M349.8576,-185.4466C356.808,-183.7974 363.749,-182.2864 370.5,-181 525.8496,-151.3981 569.3407,-175.584 724.5,-145 734.1976,-143.0885 744.2946,-140.6611 754.2099,-138.0135"/>
<polygon fill="#191970" stroke="#191970" points="348.561,-182.1612 339.6886,-187.9517 350.2355,-188.958 348.561,-182.1612"/>
</g>
<!-- Node57 -->
<g id="node18" class="node">
<title>Node57</title>
<g id="a_node18"><a xlink:href="testOrbitSolver_8cpp.html" target="_top" xlink:title="Defines some of the methods of the test suite that exercises the OrbitSolver class and the other clas...">
<polygon fill="#ffffff" stroke="#000000" points="262,-91 262,-138 473,-138 473,-91 262,-91"/>
<text text-anchor="start" x="270" y="-124.4" font-family="Helvetica,sans-Serif" font-size="12.00" fill="#000000">/home/kpenev/projects</text>
<text text-anchor="start" x="270" y="-111.4" font-family="Helvetica,sans-Serif" font-size="12.00" fill="#000000">/git/poet/poet_src/unit</text>
<text text-anchor="middle" x="367.5" y="-98.4" font-family="Helvetica,sans-Serif" font-size="12.00" fill="#000000">_tests/testEvolve/testOrbitSolver.cpp</text>
</a>
</g>
</g>
<!-- Node56&#45;&gt;Node57 -->
<g id="edge19" class="edge">
<title>Node56&#45;&gt;Node57</title>
<path fill="none" stroke="#191970" d="M295.7114,-180.819C310.5789,-167.0843 327.8434,-151.1352 341.7154,-138.3201"/>
<polygon fill="#191970" stroke="#191970" points="293.1563,-178.4145 288.1859,-187.7711 297.9063,-183.5563 293.1563,-178.4145"/>
</g>
<!-- Node58&#45;&gt;Node45 -->
<g id="edge22" class="edge">
<title>Node58&#45;&gt;Node45</title>
<path fill="none" stroke="#191970" d="M347.5,-436.0664C347.5,-427.1933 347.5,-417.821 347.5,-409.6152"/>
<polygon fill="#191970" stroke="#191970" points="344.0001,-436.1536 347.5,-446.1537 351.0001,-436.1537 344.0001,-436.1536"/>
</g>
<!-- Node61 -->
<g id="node22" class="node">
<title>Node61</title>
<g id="a_node22"><a xlink:href="Planet_8h.html" target="_top" xlink:title="Declares a class for planets that are always locked to the orbit. ">
<polygon fill="#ffffff" stroke="#000000" points="746,-278.5 746,-325.5 891,-325.5 891,-278.5 746,-278.5"/>
<text text-anchor="start" x="754" y="-311.9" font-family="Helvetica,sans-Serif" font-size="12.00" fill="#000000">/home/kpenev/projects</text>
<text text-anchor="start" x="754" y="-298.9" font-family="Helvetica,sans-Serif" font-size="12.00" fill="#000000">/git/poet/poet_src/Planet</text>
<text text-anchor="middle" x="818.5" y="-285.9" font-family="Helvetica,sans-Serif" font-size="12.00" fill="#000000">/Planet.h</text>
</a>
</g>
</g>
<!-- Node60&#45;&gt;Node61 -->
<g id="edge25" class="edge">
<title>Node60&#45;&gt;Node61</title>
<path fill="none" stroke="#191970" d="M818.5,-352.0664C818.5,-343.1933 818.5,-333.821 818.5,-325.6152"/>
<polygon fill="#191970" stroke="#191970" points="815.0001,-352.1536 818.5,-362.1537 822.0001,-352.1537 815.0001,-352.1536"/>
</g>
<!-- Node65 -->
<g id="node26" class="node">
<title>Node65</title>
<g id="a_node26"><a xlink:href="testLockMonitoring_8h.html" target="_top" xlink:title="Unit tests that check the machinery for monitoring potential tidal locks. ">
<polygon fill="#ffffff" stroke="#000000" points="1141.5,-188 1141.5,-235 1361.5,-235 1361.5,-188 1141.5,-188"/>
<text text-anchor="start" x="1149.5" y="-221.4" font-family="Helvetica,sans-Serif" font-size="12.00" fill="#000000">/home/kpenev/projects</text>
<text text-anchor="start" x="1149.5" y="-208.4" font-family="Helvetica,sans-Serif" font-size="12.00" fill="#000000">/git/poet/poet_src/unit</text>
<text text-anchor="middle" x="1251.5" y="-195.4" font-family="Helvetica,sans-Serif" font-size="12.00" fill="#000000">_tests/testEvolve/testLockMonitoring.h</text>
</a>
</g>
</g>
<!-- Node60&#45;&gt;Node65 -->
<g id="edge37" class="edge">
<title>Node60&#45;&gt;Node65</title>
<path fill="none" stroke="#191970" d="M886.3825,-358.6432C970.7311,-324.6505 1113.2494,-267.2153 1192.9929,-235.0785"/>
<polygon fill="#191970" stroke="#191970" points="884.8632,-355.4819 876.8963,-362.4662 887.4797,-361.9745 884.8632,-355.4819"/>
</g>
<!-- Node61&#45;&gt;Node53 -->
<g id="edge29" class="edge">
<title>Node61&#45;&gt;Node53</title>
<path fill="none" stroke="#191970" d="M818.5,-268.0234C818.5,-259.3454 818.5,-250.0766 818.5,-241.6077"/>
<polygon fill="#191970" stroke="#191970" points="815.0001,-268.2222 818.5,-278.2222 822.0001,-268.2222 815.0001,-268.2222"/>
</g>
<!-- Node61&#45;&gt;Node56 -->
<g id="edge30" class="edge">
<title>Node61&#45;&gt;Node56</title>
<path fill="none" stroke="#191970" d="M735.6209,-294.4619C645.2498,-285.4167 496.6538,-268.1231 370.5,-242 360.8653,-240.0049 350.8291,-237.6101 340.9248,-235.0508"/>
<polygon fill="#191970" stroke="#191970" points="735.509,-297.9679 745.8054,-295.471 736.1993,-291.002 735.509,-297.9679"/>
</g>
<!-- Node62 -->
<g id="node23" class="node">
<title>Node62</title>
<g id="a_node23"><a xlink:href="Planet_2CInterface_8h.html" target="_top" xlink:title="Declare C&#45;style functions for working with LockedPlanet instances. ">
<polygon fill="#ffffff" stroke="#000000" points="562,-188 562,-235 707,-235 707,-188 562,-188"/>
<text text-anchor="start" x="570" y="-221.4" font-family="Helvetica,sans-Serif" font-size="12.00" fill="#000000">/home/kpenev/projects</text>
<text text-anchor="start" x="570" y="-208.4" font-family="Helvetica,sans-Serif" font-size="12.00" fill="#000000">/git/poet/poet_src/Planet</text>
<text text-anchor="middle" x="634.5" y="-195.4" font-family="Helvetica,sans-Serif" font-size="12.00" fill="#000000">/CInterface.h</text>
</a>
</g>
</g>
<!-- Node61&#45;&gt;Node62 -->
<g id="edge26" class="edge">
<title>Node61&#45;&gt;Node62</title>
<path fill="none" stroke="#191970" d="M761.5033,-273.9663C736.1539,-261.4983 706.6377,-246.9808 682.4431,-235.0807"/>
<polygon fill="#191970" stroke="#191970" points="760.1184,-277.1855 770.6365,-278.4584 763.2079,-270.9042 760.1184,-277.1855"/>
</g>
<!-- Node63 -->
<g id="node24" class="node">
<title>Node63</title>
<g id="a_node24"><a xlink:href="testTidalTorquePower_8h.html" target="_top" xlink:title="Declare a unit tests class that check the calculations of tidal torque and power. ...">
<polygon fill="#ffffff" stroke="#000000" points="929.5,-181.5 929.5,-241.5 1123.5,-241.5 1123.5,-181.5 929.5,-181.5"/>
<text text-anchor="start" x="937.5" y="-227.9" font-family="Helvetica,sans-Serif" font-size="12.00" fill="#000000">/home/kpenev/projects</text>
<text text-anchor="start" x="937.5" y="-214.9" font-family="Helvetica,sans-Serif" font-size="12.00" fill="#000000">/git/poet/poet_src/unit</text>
<text text-anchor="start" x="937.5" y="-201.9" font-family="Helvetica,sans-Serif" font-size="12.00" fill="#000000">_tests/testEvolve/testTidalTorque</text>
<text text-anchor="middle" x="1026.5" y="-188.9" font-family="Helvetica,sans-Serif" font-size="12.00" fill="#000000">Power.h</text>
</a>
</g>
</g>
<!-- Node61&#45;&gt;Node63 -->
<g id="edge31" class="edge">
<title>Node61&#45;&gt;Node63</title>
<path fill="none" stroke="#191970" d="M881.9128,-274.4094C905.7669,-264.0305 933,-252.1815 957.3508,-241.5866"/>
<polygon fill="#191970" stroke="#191970" points="880.3798,-271.2593 872.6066,-278.4584 883.1726,-277.6781 880.3798,-271.2593"/>
</g>
<!-- Node61&#45;&gt;Node65 -->
<g id="edge34" class="edge">
<title>Node61&#45;&gt;Node65</title>
<path fill="none" stroke="#191970" d="M901.0571,-287.6707C964.5514,-276.3009 1054.3511,-259.4636 1132.5,-242 1142.1786,-239.8372 1152.2673,-237.4538 1162.2979,-235.0012"/>
<polygon fill="#191970" stroke="#191970" points="900.328,-284.2454 891.0984,-289.4477 901.5577,-291.1365 900.328,-284.2454"/>
</g>
<!-- Node62&#45;&gt;Node47 -->
<g id="edge27" class="edge">
<title>Node62&#45;&gt;Node47</title>
<path fill="none" stroke="#191970" d="M566.6329,-184.8673C561.8876,-183.4356 557.1453,-182.1258 552.5,-181 421.988,-149.3709 383.012,-176.6291 252.5,-145 244.6763,-143.104 236.5774,-140.6857 228.6527,-138.0427"/>
<polygon fill="#191970" stroke="#191970" points="565.7569,-188.2614 576.3473,-187.9573 567.8787,-181.5907 565.7569,-188.2614"/>
</g>
<!-- Node62&#45;&gt;Node49 -->
<g id="edge28" class="edge">
<title>Node62&#45;&gt;Node49</title>
<path fill="none" stroke="#191970" d="M573.1087,-183.0239C554.8539,-172.7115 535.693,-159.8801 520.5,-145 516.4978,-141.0802 480.7843,-81.5766 460.4718,-47.5036"/>
<polygon fill="#191970" stroke="#191970" points="571.5242,-186.1466 581.9759,-187.882 574.8875,-180.0076 571.5242,-186.1466"/>
</g>
<!-- Node63&#45;&gt;Node55 -->
<g id="edge32" class="edge">
<title>Node63&#45;&gt;Node55</title>
<path fill="none" stroke="#191970" d="M955.6818,-176.9806C929.2387,-164.0912 899.8406,-149.7615 875.8753,-138.0799"/>
<polygon fill="#191970" stroke="#191970" points="954.3754,-180.2374 964.898,-181.4729 957.4425,-173.9451 954.3754,-180.2374"/>
</g>
<!-- Node64 -->
<g id="node25" class="node">
<title>Node64</title>
<g id="a_node25"><a xlink:href="testTidalTorquePower_8cpp.html" target="_top" xlink:title="Define the non&#45;inline methods of test_TidalTorquePower and actually run the tests if compiled in stan...">
<polygon fill="#ffffff" stroke="#000000" points="939.5,-84.5 939.5,-144.5 1133.5,-144.5 1133.5,-84.5 939.5,-84.5"/>
<text text-anchor="start" x="947.5" y="-130.9" font-family="Helvetica,sans-Serif" font-size="12.00" fill="#000000">/home/kpenev/projects</text>
<text text-anchor="start" x="947.5" y="-117.9" font-family="Helvetica,sans-Serif" font-size="12.00" fill="#000000">/git/poet/poet_src/unit</text>
<text text-anchor="start" x="947.5" y="-104.9" font-family="Helvetica,sans-Serif" font-size="12.00" fill="#000000">_tests/testEvolve/testTidalTorque</text>
<text text-anchor="middle" x="1036.5" y="-91.9" font-family="Helvetica,sans-Serif" font-size="12.00" fill="#000000">Power.cpp</text>
</a>
</g>
</g>
<!-- Node63&#45;&gt;Node64 -->
<g id="edge33" class="edge">
<title>Node63&#45;&gt;Node64</title>
<path fill="none" stroke="#191970" d="M1030.6582,-171.1653C1031.5734,-162.2876 1032.5274,-153.0341 1033.3927,-144.641"/>
<polygon fill="#191970" stroke="#191970" points="1027.1533,-171.0341 1029.6092,-181.3403 1034.1164,-171.752 1027.1533,-171.0341"/>
</g>
<!-- Node65&#45;&gt;Node55 -->
<g id="edge35" class="edge">
<title>Node65&#45;&gt;Node55</title>
<path fill="none" stroke="#191970" d="M1152.6597,-185.5697C1145.8504,-183.9676 1139.0817,-182.4279 1132.5,-181 1043.3807,-161.6661 1019.2465,-165.9787 930.5,-145 921.6976,-142.9192 912.5336,-140.5321 903.4609,-138.0295"/>
<polygon fill="#191970" stroke="#191970" points="1152.1086,-189.0365 1162.6482,-187.9561 1153.7353,-182.2281 1152.1086,-189.0365"/>
</g>
<!-- Node66 -->
<g id="node27" class="node">
<title>Node66</title>
<g id="a_node27"><a xlink:href="testLockMonitoring_8cpp.html" target="_top" xlink:title="Implement the non&#45;inline methods of test_LockMonitoring. ">
<polygon fill="#ffffff" stroke="#000000" points="1151,-91 1151,-138 1384,-138 1384,-91 1151,-91"/>
<text text-anchor="start" x="1159" y="-124.4" font-family="Helvetica,sans-Serif" font-size="12.00" fill="#000000">/home/kpenev/projects</text>
<text text-anchor="start" x="1159" y="-111.4" font-family="Helvetica,sans-Serif" font-size="12.00" fill="#000000">/git/poet/poet_src/unit</text>
<text text-anchor="middle" x="1267.5" y="-98.4" font-family="Helvetica,sans-Serif" font-size="12.00" fill="#000000">_tests/testEvolve/testLockMonitoring.cpp</text>
</a>
</g>
</g>
<!-- Node65&#45;&gt;Node66 -->
<g id="edge36" class="edge">
<title>Node65&#45;&gt;Node66</title>
<path fill="none" stroke="#191970" d="M1257.1051,-177.5189C1259.2466,-164.536 1261.6403,-150.0241 1263.5904,-138.2017"/>
<polygon fill="#191970" stroke="#191970" points="1253.6293,-177.0861 1255.4551,-187.5225 1260.536,-178.2254 1253.6293,-177.0861"/>
</g>
</g>
</svg>
        <g id="navigator" transform="translate(0 0)" fill="#404254">
                <rect fill="#f2f5e9" fill-opacity="0.5" stroke="#606060" stroke-width=".5" x="0" y="0" width="60" height="60"/>
                <use id="zoomplus" xlink:href="#zoomPlus" x="17" y="9" onmousedown="handleZoom(evt,'in')"/>
                <use id="zoomminus" xlink:href="#zoomMin" x="42" y="9" onmousedown="handleZoom(evt,'out')"/>
                <use id="reset" xlink:href="#resetDef" x="30" y="36" onmousedown="handleReset()"/>
                <g id="arrowUp" xlink:href="#dirArrow" transform="translate(30 24)" onmousedown="handlePan(0,-1)">
                  <use xlink:href="#rim" fill="#404040">
                        <set attributeName="fill" to="#808080" begin="arrowUp.mouseover" end="arrowUp.mouseout"/>
                  </use>
                  <path fill="none" stroke="white" stroke-width="1.5" d="M0,-3.0v7 M-2.5,-0.5L0,-3.0L2.5,-0.5"/>
                </g>
                <g id="arrowRight" xlink:href="#dirArrow" transform="rotate(90) translate(36 -43)" onmousedown="handlePan(1,0)">
                  <use xlink:href="#rim" fill="#404040">
                        <set attributeName="fill" to="#808080" begin="arrowRight.mouseover" end="arrowRight.mouseout"/>
                  </use>
                  <path fill="none" stroke="white" stroke-width="1.5" d="M0,-3.0v7 M-2.5,-0.5L0,-3.0L2.5,-0.5"/>
                </g>
                <g id="arrowDown" xlink:href="#dirArrow" transform="rotate(180) translate(-30 -48)" onmousedown="handlePan(0,1)">
                  <use xlink:href="#rim" fill="#404040">
                        <set attributeName="fill" to="#808080" begin="arrowDown.mouseover" end="arrowDown.mouseout"/>
                  </use>
                  <path fill="none" stroke="white" stroke-width="1.5" d="M0,-3.0v7 M-2.5,-0.5L0,-3.0L2.5,-0.5"/>
                </g>
                <g id="arrowLeft" xlink:href="#dirArrow" transform="rotate(270) translate(-36 17)" onmousedown="handlePan(-1,0)">
                  <use xlink:href="#rim" fill="#404040">
                        <set attributeName="fill" to="#808080" begin="arrowLeft.mouseover" end="arrowLeft.mouseout"/>
                  </use>
                  <path fill="none" stroke="white" stroke-width="1.5" d="M0,-3.0v7 M-2.5,-0.5L0,-3.0L2.5,-0.5"/>
                </g>
        </g>
        <svg viewBox="0 0 15 15" width="100%" height="30px" preserveAspectRatio="xMaxYMin meet">
         <g id="arrow_out" transform="scale(0.3 0.3)">
          <a xlink:href="LagForcingFrequencyBreakCondition_8h__dep__incl_org.svg" target="_base">
           <rect id="button" ry="5" rx="5" y="6" x="6" height="38" width="38"
                fill="#f2f5e9" fill-opacity="0.5" stroke="#606060" stroke-width="1.0"/>
           <path id="arrow"
             d="M 11.500037,31.436501 C 11.940474,20.09759 22.043105,11.32322 32.158766,21.979434 L 37.068811,17.246167 C 37.068811,17.246167 37.088388,32 37.088388,32 L 22.160133,31.978069 C 22.160133,31.978069 26.997745,27.140456 26.997745,27.140456 C 18.528582,18.264221 13.291696,25.230495 11.500037,31.436501 z"
             style="fill:#404040;"/>
          </a>
         </g>
        </svg>
</svg>
