<?xml version="1.0" encoding="UTF-8" standalone="no"?>
<!DOCTYPE svg PUBLIC "-//W3C//DTD SVG 1.1//EN"
 "http://www.w3.org/Graphics/SVG/1.1/DTD/svg11.dtd">
<!-- Generated by graphviz version 2.40.1 (20161225.0304)
 -->
<!-- Title: /home/kpenev/projects/git/poet/poet_src/Evolve/LagForcingFrequencyBreakCondition.h Pages: 1 -->
<svg width="2473pt" height="488pt"
 viewBox="0.00 0.00 2473.49 488.00" xmlns="http://www.w3.org/2000/svg" xmlns:xlink="http://www.w3.org/1999/xlink">
<g id="graph0" class="graph" transform="scale(1 1) rotate(0) translate(4 484)">
<title>/home/kpenev/projects/git/poet/poet_src/Evolve/LagForcingFrequencyBreakCondition.h</title>
<polygon fill="#ffffff" stroke="transparent" points="-4,4 -4,-484 2469.4904,-484 2469.4904,4 -4,4"/>
<!-- Node0 -->
<g id="node1" class="node">
<title>Node0</title>
<polygon fill="#bfbfbf" stroke="#000000" points="932,-432.5 932,-479.5 1162,-479.5 1162,-432.5 932,-432.5"/>
<text text-anchor="start" x="940" y="-465.9" font-family="Helvetica,sans-Serif" font-size="12.00" fill="#000000">/home/kpenev/projects</text>
<text text-anchor="start" x="940" y="-452.9" font-family="Helvetica,sans-Serif" font-size="12.00" fill="#000000">/git/poet/poet_src/Evolve</text>
<text text-anchor="middle" x="1047" y="-439.9" font-family="Helvetica,sans-Serif" font-size="12.00" fill="#000000">/LagForcingFrequencyBreakCondition.h</text>
</g>
<!-- Node1 -->
<g id="node2" class="node">
<title>Node1</title>
<g id="a_node2"><a xlink:href="SharedLibraryExportMacros_8h_source.html" target="_top" xlink:title="../Core/SharedLibraryExport\lMacros.h">
<polygon fill="#ffffff" stroke="#000000" points="830.5,-.5 830.5,-34.5 995.5,-34.5 995.5,-.5 830.5,-.5"/>
<text text-anchor="start" x="838.5" y="-20.9" font-family="Helvetica,sans-Serif" font-size="12.00" fill="#000000">../Core/SharedLibraryExport</text>
<text text-anchor="middle" x="913" y="-7.9" font-family="Helvetica,sans-Serif" font-size="12.00" fill="#000000">Macros.h</text>
</a>
</g>
</g>
<!-- Node0&#45;&gt;Node1 -->
<g id="edge1" class="edge">
<title>Node0&#45;&gt;Node1</title>
<path fill="none" stroke="#191970" d="M1162.0583,-451.5199C1499.6685,-437.6203 2464,-392.2105 2464,-327 2464,-327 2464,-327 2464,-140 2464,-108.1919 2469.9614,-90.715 2445,-71 2388.4093,-26.3038 1329.2029,-18.9419 1005.9107,-17.7352"/>
<polygon fill="#191970" stroke="#191970" points="1005.6542,-14.2343 995.6415,-17.698 1005.6288,-21.2343 1005.6542,-14.2343"/>
</g>
<!-- Node2 -->
<g id="node3" class="node">
<title>Node2</title>
<g id="a_node3"><a xlink:href="StoppingCondition_8h.html" target="_top" xlink:title="Defines the various stopping conditions needed by OrbitSolver. ">
<polygon fill="#ffffff" stroke="#000000" points="1270,-187.5 1270,-208.5 1396,-208.5 1396,-187.5 1270,-187.5"/>
<text text-anchor="middle" x="1333" y="-194.9" font-family="Helvetica,sans-Serif" font-size="12.00" fill="#000000">StoppingCondition.h</text>
</a>
</g>
</g>
<!-- Node0&#45;&gt;Node2 -->
<g id="edge2" class="edge">
<title>Node0&#45;&gt;Node2</title>
<path fill="none" stroke="#191970" d="M1162.1961,-447.9767C1284.7689,-438.2413 1463.9825,-420.0929 1485,-396 1522.3589,-353.1745 1571.0031,-402.0444 1418,-245 1404.7205,-231.3697 1386.631,-220.6232 1370.5529,-212.8667"/>
<polygon fill="#191970" stroke="#191970" points="1371.9182,-209.6423 1361.3703,-208.6461 1368.9948,-216.0026 1371.9182,-209.6423"/>
</g>
<!-- Node16 -->
<g id="node17" class="node">
<title>Node16</title>
<g id="a_node17"><a xlink:href="Error_8h.html" target="_top" xlink:title="Defines the exception hierarchy used by this code. ">
<polygon fill="#ffffff" stroke="#000000" points="33.5,-71.5 33.5,-92.5 86.5,-92.5 86.5,-71.5 33.5,-71.5"/>
<text text-anchor="middle" x="60" y="-78.9" font-family="Helvetica,sans-Serif" font-size="12.00" fill="#000000">Error.h</text>
</a>
</g>
</g>
<!-- Node0&#45;&gt;Node16 -->
<g id="edge81" class="edge">
<title>Node0&#45;&gt;Node16</title>
<path fill="none" stroke="#191970" d="M931.9359,-451.7854C683.6762,-441.1556 120,-408.0918 120,-327 120,-327 120,-327 120,-198 120,-159.969 94.2418,-121.9756 76.4796,-100.2973"/>
<polygon fill="#191970" stroke="#191970" points="79.0508,-97.9181 69.9078,-92.5649 73.717,-102.4513 79.0508,-97.9181"/>
</g>
<!-- Node22 -->
<g id="node23" class="node">
<title>Node22</title>
<g id="a_node23"><a xlink:href="DissipatingBody_8h.html" target="_top" xlink:title="Declares the DissipatingBody class. ">
<polygon fill="#ffffff" stroke="#000000" points="1362,-374.5 1362,-395.5 1476,-395.5 1476,-374.5 1362,-374.5"/>
<text text-anchor="middle" x="1419" y="-381.9" font-family="Helvetica,sans-Serif" font-size="12.00" fill="#000000">DissipatingBody.h</text>
</a>
</g>
</g>
<!-- Node0&#45;&gt;Node22 -->
<g id="edge27" class="edge">
<title>Node0&#45;&gt;Node22</title>
<path fill="none" stroke="#191970" d="M1162.1555,-434.0214C1225.2015,-421.9884 1301.0147,-407.5187 1353.8654,-397.4316"/>
<polygon fill="#191970" stroke="#191970" points="1354.6217,-400.8505 1363.7882,-395.5377 1353.3094,-393.9746 1354.6217,-400.8505"/>
</g>
<!-- Node30 -->
<g id="node31" class="node">
<title>Node30</title>
<polygon fill="#ffffff" stroke="#bfbfbf" points="245.5,-71.5 245.5,-92.5 294.5,-92.5 294.5,-71.5 245.5,-71.5"/>
<text text-anchor="middle" x="270" y="-78.9" font-family="Helvetica,sans-Serif" font-size="12.00" fill="#000000">vector</text>
</g>
<!-- Node0&#45;&gt;Node30 -->
<g id="edge82" class="edge">
<title>Node0&#45;&gt;Node30</title>
<path fill="none" stroke="#191970" d="M931.9818,-448.9563C712.5998,-433.9716 256,-394.6571 256,-327 256,-327 256,-327 256,-198 256,-164.3554 261.8766,-125.6146 266.0151,-102.5038"/>
<polygon fill="#191970" stroke="#191970" points="269.4872,-102.9761 267.8737,-92.5049 262.6051,-101.6968 269.4872,-102.9761"/>
</g>
<!-- Node39 -->
<g id="node40" class="node">
<title>Node39</title>
<g id="a_node40"><a xlink:href="OrbitalExpressions_8h.html" target="_top" xlink:title="A collection of functions which calculate various quantities for two body orbits. ...">
<polygon fill="#ffffff" stroke="#000000" points="624,-129.5 624,-150.5 790,-150.5 790,-129.5 624,-129.5"/>
<text text-anchor="middle" x="707" y="-136.9" font-family="Helvetica,sans-Serif" font-size="12.00" fill="#000000">../Core/OrbitalExpressions.h</text>
</a>
</g>
</g>
<!-- Node0&#45;&gt;Node39 -->
<g id="edge80" class="edge">
<title>Node0&#45;&gt;Node39</title>
<path fill="none" stroke="#191970" d="M931.9747,-446.3798C796.5971,-431.8093 590,-397.9504 590,-327 590,-327 590,-327 590,-262.5 590,-212.6911 641.21,-175.1704 675.8706,-155.4795"/>
<polygon fill="#191970" stroke="#191970" points="677.6299,-158.5065 684.7178,-150.6317 674.2661,-152.3677 677.6299,-158.5065"/>
</g>
<!-- Node2&#45;&gt;Node1 -->
<g id="edge3" class="edge">
<title>Node2&#45;&gt;Node1</title>
<path fill="none" stroke="#191970" d="M1269.9467,-188.2242C1197.9668,-174.9946 1078.619,-146.6197 989,-93 967.1186,-79.9082 946.8764,-59.1844 932.7936,-42.7583"/>
<polygon fill="#191970" stroke="#191970" points="935.1053,-40.065 926.0146,-34.6234 929.7277,-44.5463 935.1053,-40.065"/>
</g>
<!-- Node3 -->
<g id="node4" class="node">
<title>Node3</title>
<g id="a_node4"><a xlink:href="Core_2Common_8h.html" target="_top" xlink:title="Declaration of some general purpose utilities. ">
<polygon fill="#ffffff" stroke="#000000" points="1536.5,-129.5 1536.5,-150.5 1649.5,-150.5 1649.5,-129.5 1536.5,-129.5"/>
<text text-anchor="middle" x="1593" y="-136.9" font-family="Helvetica,sans-Serif" font-size="12.00" fill="#000000">../Core/Common.h</text>
</a>
</g>
</g>
<!-- Node2&#45;&gt;Node3 -->
<g id="edge4" class="edge">
<title>Node2&#45;&gt;Node3</title>
<path fill="none" stroke="#191970" d="M1380.084,-187.4966C1423.8473,-177.7341 1489.1266,-163.1718 1535.8566,-152.7474"/>
<polygon fill="#191970" stroke="#191970" points="1536.8296,-156.1164 1545.8277,-150.5231 1535.3055,-149.2844 1536.8296,-156.1164"/>
</g>
<!-- Node15 -->
<g id="node16" class="node">
<title>Node15</title>
<polygon fill="#ffffff" stroke="#bfbfbf" points="1994.5,-71.5 1994.5,-92.5 2049.5,-92.5 2049.5,-71.5 1994.5,-71.5"/>
<text text-anchor="middle" x="2022" y="-78.9" font-family="Helvetica,sans-Serif" font-size="12.00" fill="#000000">cassert</text>
</g>
<!-- Node2&#45;&gt;Node15 -->
<g id="edge26" class="edge">
<title>Node2&#45;&gt;Node15</title>
<path fill="none" stroke="#191970" d="M1396.0382,-189.7149C1461.6088,-180.9024 1567.1857,-166.1665 1658,-151 1777.5358,-131.0368 1918.2968,-103.0815 1984.2841,-89.7131"/>
<polygon fill="#191970" stroke="#191970" points="1985.1143,-93.116 1994.2179,-87.6963 1983.7214,-86.256 1985.1143,-93.116"/>
</g>
<!-- Node3&#45;&gt;Node1 -->
<g id="edge17" class="edge">
<title>Node3&#45;&gt;Node1</title>
<path fill="none" stroke="#191970" d="M1649.7951,-132.9382C1749.218,-120.5115 1944.5648,-95.7799 1947,-93 1953.4429,-85.6451 1953.7329,-78.0903 1947,-71 1914.8572,-37.1511 1253.9512,-23.0074 1005.9388,-18.878"/>
<polygon fill="#191970" stroke="#191970" points="1005.9225,-15.3774 995.8661,-18.712 1005.8071,-22.3764 1005.9225,-15.3774"/>
</g>
<!-- Node4 -->
<g id="node5" class="node">
<title>Node4</title>
<polygon fill="#ffffff" stroke="#bfbfbf" points="1906,-71.5 1906,-92.5 1938,-92.5 1938,-71.5 1906,-71.5"/>
<text text-anchor="middle" x="1922" y="-78.9" font-family="Helvetica,sans-Serif" font-size="12.00" fill="#000000">list</text>
</g>
<!-- Node3&#45;&gt;Node4 -->
<g id="edge5" class="edge">
<title>Node3&#45;&gt;Node4</title>
<path fill="none" stroke="#191970" d="M1649.6543,-133.0372C1720.1617,-124.0796 1837.4985,-108.1423 1895.953,-92.6338"/>
<polygon fill="#191970" stroke="#191970" points="1897.15,-95.9327 1905.8224,-89.8466 1895.2475,-89.1962 1897.15,-95.9327"/>
</g>
<!-- Node5 -->
<g id="node6" class="node">
<title>Node5</title>
<polygon fill="#ffffff" stroke="#bfbfbf" points="2106.5,-71.5 2106.5,-92.5 2165.5,-92.5 2165.5,-71.5 2106.5,-71.5"/>
<text text-anchor="middle" x="2136" y="-78.9" font-family="Helvetica,sans-Serif" font-size="12.00" fill="#000000">valarray</text>
</g>
<!-- Node3&#45;&gt;Node5 -->
<g id="edge6" class="edge">
<title>Node3&#45;&gt;Node5</title>
<path fill="none" stroke="#191970" d="M1649.9469,-132.723C1660.593,-131.4303 1671.6308,-130.1357 1682,-129 1849.3173,-110.6751 1891.8636,-112.9073 2059,-93 2071.1341,-91.5547 2084.311,-89.7568 2096.2774,-88.036"/>
<polygon fill="#191970" stroke="#191970" points="2097.0355,-91.4625 2106.425,-86.5545 2096.0242,-84.5359 2097.0355,-91.4625"/>
</g>
<!-- Node6 -->
<g id="node7" class="node">
<title>Node6</title>
<polygon fill="#ffffff" stroke="#bfbfbf" points="1204,-71.5 1204,-92.5 1248,-92.5 1248,-71.5 1204,-71.5"/>
<text text-anchor="middle" x="1226" y="-78.9" font-family="Helvetica,sans-Serif" font-size="12.00" fill="#000000">limits</text>
</g>
<!-- Node3&#45;&gt;Node6 -->
<g id="edge7" class="edge">
<title>Node3&#45;&gt;Node6</title>
<path fill="none" stroke="#191970" d="M1536.433,-131.1386C1531.5531,-130.4037 1526.6906,-129.6819 1522,-129 1407.5931,-112.3679 1374.316,-120.5431 1258.1795,-92.9062"/>
<polygon fill="#191970" stroke="#191970" points="1258.7273,-89.4378 1248.1848,-90.4891 1257.0819,-96.2417 1258.7273,-89.4378"/>
</g>
<!-- Node7 -->
<g id="node8" class="node">
<title>Node7</title>
<polygon fill="#ffffff" stroke="#bfbfbf" points="730.5,-71.5 730.5,-92.5 789.5,-92.5 789.5,-71.5 730.5,-71.5"/>
<text text-anchor="middle" x="760" y="-78.9" font-family="Helvetica,sans-Serif" font-size="12.00" fill="#000000">sstream</text>
</g>
<!-- Node3&#45;&gt;Node7 -->
<g id="edge8" class="edge">
<title>Node3&#45;&gt;Node7</title>
<path fill="none" stroke="#191970" d="M1536.3994,-136.059C1378.4573,-125.0619 935.6333,-94.229 799.9953,-84.7848"/>
<polygon fill="#191970" stroke="#191970" points="799.8822,-81.2685 789.6632,-84.0654 799.3959,-88.2516 799.8822,-81.2685"/>
</g>
<!-- Node8 -->
<g id="node9" class="node">
<title>Node8</title>
<polygon fill="#ffffff" stroke="#bfbfbf" points="221,-7 221,-28 283,-28 283,-7 221,-7"/>
<text text-anchor="middle" x="252" y="-14.4" font-family="Helvetica,sans-Serif" font-size="12.00" fill="#000000">iostream</text>
</g>
<!-- Node3&#45;&gt;Node8 -->
<g id="edge9" class="edge">
<title>Node3&#45;&gt;Node8</title>
<path fill="none" stroke="#191970" d="M1536.451,-131.0091C1531.5672,-130.3023 1526.6989,-129.6223 1522,-129 1377.0544,-109.8026 1333.9162,-138.6076 1195,-93 1176.4586,-86.9127 1175.6895,-76.6163 1157,-71 1073.7575,-45.9851 460.3288,-24.3054 293.6795,-18.8307"/>
<polygon fill="#191970" stroke="#191970" points="293.468,-15.322 283.3591,-18.4936 293.2395,-22.3183 293.468,-15.322"/>
</g>
<!-- Node9 -->
<g id="node10" class="node">
<title>Node9</title>
<polygon fill="#ffffff" stroke="#bfbfbf" points="1266.5,-71.5 1266.5,-92.5 1319.5,-92.5 1319.5,-71.5 1266.5,-71.5"/>
<text text-anchor="middle" x="1293" y="-78.9" font-family="Helvetica,sans-Serif" font-size="12.00" fill="#000000">iterator</text>
</g>
<!-- Node3&#45;&gt;Node9 -->
<g id="edge10" class="edge">
<title>Node3&#45;&gt;Node9</title>
<path fill="none" stroke="#191970" d="M1536.3731,-130.7407C1475.1768,-120.5986 1380.6035,-104.4993 1329.5458,-92.8672"/>
<polygon fill="#191970" stroke="#191970" points="1330.1744,-89.4195 1319.6379,-90.5301 1328.5672,-96.2325 1330.1744,-89.4195"/>
</g>
<!-- Node10 -->
<g id="node11" class="node">
<title>Node10</title>
<polygon fill="#ffffff" stroke="#bfbfbf" points="1338,-71.5 1338,-92.5 1438,-92.5 1438,-71.5 1338,-71.5"/>
<text text-anchor="middle" x="1388" y="-78.9" font-family="Helvetica,sans-Serif" font-size="12.00" fill="#000000">gsl/gsl_vector.h</text>
</g>
<!-- Node3&#45;&gt;Node10 -->
<g id="edge11" class="edge">
<title>Node3&#45;&gt;Node10</title>
<path fill="none" stroke="#191970" d="M1555.876,-129.4966C1522.0215,-119.9183 1471.8364,-105.7196 1435.1563,-95.3418"/>
<polygon fill="#191970" stroke="#191970" points="1435.7687,-91.8777 1425.1936,-92.5231 1433.863,-98.6133 1435.7687,-91.8777"/>
</g>
<!-- Node11 -->
<g id="node12" class="node">
<title>Node11</title>
<polygon fill="#ffffff" stroke="#bfbfbf" points="1456,-71.5 1456,-92.5 1556,-92.5 1556,-71.5 1456,-71.5"/>
<text text-anchor="middle" x="1506" y="-78.9" font-family="Helvetica,sans-Serif" font-size="12.00" fill="#000000">gsl/gsl_matrix.h</text>
</g>
<!-- Node3&#45;&gt;Node11 -->
<g id="edge12" class="edge">
<title>Node3&#45;&gt;Node11</title>
<path fill="none" stroke="#191970" d="M1577.0429,-129.3619C1564.0433,-120.6955 1545.4688,-108.3126 1530.5728,-98.3819"/>
<polygon fill="#191970" stroke="#191970" points="1532.118,-95.2055 1521.856,-92.5707 1528.235,-101.0299 1532.118,-95.2055"/>
</g>
<!-- Node12 -->
<g id="node13" class="node">
<title>Node12</title>
<polygon fill="#ffffff" stroke="#bfbfbf" points="1574.5,-71.5 1574.5,-92.5 1671.5,-92.5 1671.5,-71.5 1574.5,-71.5"/>
<text text-anchor="middle" x="1623" y="-78.9" font-family="Helvetica,sans-Serif" font-size="12.00" fill="#000000">gsl/gsl_linalg.h</text>
</g>
<!-- Node3&#45;&gt;Node12 -->
<g id="edge13" class="edge">
<title>Node3&#45;&gt;Node12</title>
<path fill="none" stroke="#191970" d="M1598.5025,-129.3619C1602.5199,-121.5949 1608.0814,-110.8426 1612.8901,-101.5458"/>
<polygon fill="#191970" stroke="#191970" points="1616.0469,-103.0608 1617.5324,-92.5707 1609.8294,-99.8448 1616.0469,-103.0608"/>
</g>
<!-- Node13 -->
<g id="node14" class="node">
<title>Node13</title>
<polygon fill="#ffffff" stroke="#bfbfbf" points="1690,-71.5 1690,-92.5 1780,-92.5 1780,-71.5 1690,-71.5"/>
<text text-anchor="middle" x="1735" y="-78.9" font-family="Helvetica,sans-Serif" font-size="12.00" fill="#000000">gsl/gsl_blas.h</text>
</g>
<!-- Node3&#45;&gt;Node13 -->
<g id="edge14" class="edge">
<title>Node3&#45;&gt;Node13</title>
<path fill="none" stroke="#191970" d="M1618.7151,-129.4966C1641.2933,-120.2746 1674.3575,-106.7695 1699.4626,-96.5153"/>
<polygon fill="#191970" stroke="#191970" points="1701.0622,-99.6427 1708.9963,-92.6212 1698.4153,-93.1624 1701.0622,-99.6427"/>
</g>
<!-- Node14 -->
<g id="node15" class="node">
<title>Node14</title>
<polygon fill="#ffffff" stroke="#bfbfbf" points="1798,-71.5 1798,-92.5 1888,-92.5 1888,-71.5 1798,-71.5"/>
<text text-anchor="middle" x="1843" y="-78.9" font-family="Helvetica,sans-Serif" font-size="12.00" fill="#000000">gsl/gsl_poly.h</text>
</g>
<!-- Node3&#45;&gt;Node14 -->
<g id="edge15" class="edge">
<title>Node3&#45;&gt;Node14</title>
<path fill="none" stroke="#191970" d="M1638.2731,-129.4966C1680.2649,-119.7545 1742.8587,-105.2328 1787.7716,-94.813"/>
<polygon fill="#191970" stroke="#191970" points="1788.6917,-98.1926 1797.642,-92.5231 1787.1097,-91.3737 1788.6917,-98.1926"/>
</g>
<!-- Node3&#45;&gt;Node15 -->
<g id="edge16" class="edge">
<title>Node3&#45;&gt;Node15</title>
<path fill="none" stroke="#191970" d="M1649.9714,-132.935C1660.6152,-131.6217 1671.6458,-130.2653 1682,-129 1814.4223,-112.818 1848.9479,-117.9576 1980,-93 1981.4346,-92.7268 1982.8927,-92.4319 1984.3624,-92.1203"/>
<polygon fill="#191970" stroke="#191970" points="1985.1501,-95.5305 1994.1065,-89.8707 1983.5754,-88.7099 1985.1501,-95.5305"/>
</g>
<!-- Node3&#45;&gt;Node16 -->
<g id="edge18" class="edge">
<title>Node3&#45;&gt;Node16</title>
<path fill="none" stroke="#191970" d="M1536.2686,-139.1085C1285.3726,-135.048 280.168,-117.4998 96.5322,-92.4751"/>
<polygon fill="#191970" stroke="#191970" points="96.9584,-88.9999 86.5485,-90.9708 95.9153,-95.9218 96.9584,-88.9999"/>
</g>
<!-- Node19 -->
<g id="node20" class="node">
<title>Node19</title>
<g id="a_node20"><a xlink:href="AstronomicalConstants_8h.html" target="_top" xlink:title="Defines various astronomical constants. ">
<polygon fill="#ffffff" stroke="#000000" points="998,-71.5 998,-92.5 1148,-92.5 1148,-71.5 998,-71.5"/>
<text text-anchor="middle" x="1073" y="-78.9" font-family="Helvetica,sans-Serif" font-size="12.00" fill="#000000">AstronomicalConstants.h</text>
</a>
</g>
</g>
<!-- Node3&#45;&gt;Node19 -->
<g id="edge23" class="edge">
<title>Node3&#45;&gt;Node19</title>
<path fill="none" stroke="#191970" d="M1536.4577,-130.958C1531.5724,-130.2623 1526.7019,-129.5989 1522,-129 1362.4907,-108.6833 1321.8027,-110.8631 1162,-93 1160.738,-92.8589 1159.4661,-92.7157 1158.1862,-92.5705"/>
<polygon fill="#191970" stroke="#191970" points="1158.5833,-89.0932 1148.2483,-91.4254 1157.7819,-96.0472 1158.5833,-89.0932"/>
</g>
<!-- Node20 -->
<g id="node21" class="node">
<title>Node20</title>
<g id="a_node21"><a xlink:href="IncludeEigen_8h_source.html" target="_top" xlink:title="IncludeEigen.h">
<polygon fill="#ffffff" stroke="#000000" points="2338.5,-71.5 2338.5,-92.5 2435.5,-92.5 2435.5,-71.5 2338.5,-71.5"/>
<text text-anchor="middle" x="2387" y="-78.9" font-family="Helvetica,sans-Serif" font-size="12.00" fill="#000000">IncludeEigen.h</text>
</a>
</g>
</g>
<!-- Node3&#45;&gt;Node20 -->
<g id="edge24" class="edge">
<title>Node3&#45;&gt;Node20</title>
<path fill="none" stroke="#191970" d="M1649.618,-137.0892C1768.5486,-130.7763 2053.0187,-114.6346 2291,-93 2303.008,-91.9084 2315.8407,-90.5626 2328.0883,-89.1915"/>
<polygon fill="#191970" stroke="#191970" points="2328.6682,-92.6481 2338.2078,-88.0388 2327.8759,-85.6931 2328.6682,-92.6481"/>
</g>
<!-- Node16&#45;&gt;Node1 -->
<g id="edge19" class="edge">
<title>Node16&#45;&gt;Node1</title>
<path fill="none" stroke="#191970" d="M86.5666,-73.1333C89.7201,-72.3042 92.9143,-71.5646 96,-71 232.5423,-46.0169 636.2756,-28.0145 820.0349,-20.8827"/>
<polygon fill="#191970" stroke="#191970" points="820.3603,-24.3728 830.2179,-20.4899 820.0904,-17.378 820.3603,-24.3728"/>
</g>
<!-- Node16&#45;&gt;Node8 -->
<g id="edge20" class="edge">
<title>Node16&#45;&gt;Node8</title>
<path fill="none" stroke="#191970" d="M86.6968,-73.0316C118.951,-62.1961 173.5542,-43.8529 211.1227,-31.2322"/>
<polygon fill="#191970" stroke="#191970" points="212.3932,-34.4977 220.758,-27.9954 210.164,-27.8621 212.3932,-34.4977"/>
</g>
<!-- Node17 -->
<g id="node18" class="node">
<title>Node17</title>
<polygon fill="#ffffff" stroke="#bfbfbf" points="64,-7 64,-28 132,-28 132,-7 64,-7"/>
<text text-anchor="middle" x="98" y="-14.4" font-family="Helvetica,sans-Serif" font-size="12.00" fill="#000000">exception</text>
</g>
<!-- Node16&#45;&gt;Node17 -->
<g id="edge21" class="edge">
<title>Node16&#45;&gt;Node17</title>
<path fill="none" stroke="#191970" d="M66.2749,-71.3491C71.7426,-62.0685 79.8123,-48.3712 86.4445,-37.114"/>
<polygon fill="#191970" stroke="#191970" points="89.5282,-38.7748 91.5887,-28.3823 83.4971,-35.2216 89.5282,-38.7748"/>
</g>
<!-- Node18 -->
<g id="node19" class="node">
<title>Node18</title>
<polygon fill="#ffffff" stroke="#bfbfbf" points="0,-7 0,-28 46,-28 46,-7 0,-7"/>
<text text-anchor="middle" x="23" y="-14.4" font-family="Helvetica,sans-Serif" font-size="12.00" fill="#000000">string</text>
</g>
<!-- Node16&#45;&gt;Node18 -->
<g id="edge22" class="edge">
<title>Node16&#45;&gt;Node18</title>
<path fill="none" stroke="#191970" d="M53.8902,-71.3491C48.5664,-62.0685 40.7091,-48.3712 34.2514,-37.114"/>
<polygon fill="#191970" stroke="#191970" points="37.2544,-35.3149 29.2425,-28.3823 31.1825,-38.798 37.2544,-35.3149"/>
</g>
<!-- Node21 -->
<g id="node22" class="node">
<title>Node21</title>
<polygon fill="#ffffff" stroke="#bfbfbf" points="2344,-7 2344,-28 2430,-28 2430,-7 2344,-7"/>
<text text-anchor="middle" x="2387" y="-14.4" font-family="Helvetica,sans-Serif" font-size="12.00" fill="#000000">Eigen/Dense</text>
</g>
<!-- Node20&#45;&gt;Node21 -->
<g id="edge25" class="edge">
<title>Node20&#45;&gt;Node21</title>
<path fill="none" stroke="#191970" d="M2387,-71.3491C2387,-62.4397 2387,-49.4599 2387,-38.4761"/>
<polygon fill="#191970" stroke="#191970" points="2390.5001,-38.3822 2387,-28.3823 2383.5001,-38.3823 2390.5001,-38.3822"/>
</g>
<!-- Node22&#45;&gt;Node1 -->
<g id="edge28" class="edge">
<title>Node22&#45;&gt;Node1</title>
<path fill="none" stroke="#191970" d="M1361.5541,-382.4687C1236.1402,-376.5907 941.2814,-360.7624 844,-338 727.9875,-310.8548 660.6863,-316.3512 609,-209 581.0143,-150.8744 600.4398,-106.9595 654,-71 681.0025,-52.8709 757.4382,-38.4226 820.3247,-29.1333"/>
<polygon fill="#191970" stroke="#191970" points="820.8979,-32.5868 830.2916,-27.6869 819.8926,-25.6594 820.8979,-32.5868"/>
</g>
<!-- Node22&#45;&gt;Node3 -->
<g id="edge77" class="edge">
<title>Node22&#45;&gt;Node3</title>
<path fill="none" stroke="#191970" d="M1464.5725,-374.4501C1486.0817,-367.3707 1510.5733,-355.9527 1527,-338 1574.1969,-286.4187 1587.7415,-200.1099 1591.5504,-160.7267"/>
<polygon fill="#191970" stroke="#191970" points="1595.0588,-160.7743 1592.4167,-150.5142 1588.0839,-160.1825 1595.0588,-160.7743"/>
</g>
<!-- Node22&#45;&gt;Node5 -->
<g id="edge78" class="edge">
<title>Node22&#45;&gt;Node5</title>
<path fill="none" stroke="#191970" d="M1476.0629,-383.5132C1678.1848,-377.5008 2348,-350.9069 2348,-262.5 2348,-262.5 2348,-262.5 2348,-198 2348,-151.0464 2308.5857,-152.6103 2268,-129 2251.9457,-119.6605 2208.0774,-104.74 2175.2892,-94.2196"/>
<polygon fill="#191970" stroke="#191970" points="2176.1029,-90.8057 2165.5124,-91.107 2173.9793,-97.4758 2176.1029,-90.8057"/>
</g>
<!-- Node22&#45;&gt;Node15 -->
<g id="edge79" class="edge">
<title>Node22&#45;&gt;Node15</title>
<path fill="none" stroke="#191970" d="M1476.0848,-379.0884C1623.5947,-363.0475 2006,-316.2768 2006,-262.5 2006,-262.5 2006,-262.5 2006,-198 2006,-164.4562 2012.6467,-125.9637 2017.3721,-102.8364"/>
<polygon fill="#191970" stroke="#191970" points="2020.8484,-103.315 2019.5,-92.8064 2014.0008,-101.8623 2020.8484,-103.315"/>
</g>
<!-- Node22&#45;&gt;Node19 -->
<g id="edge76" class="edge">
<title>Node22&#45;&gt;Node19</title>
<path fill="none" stroke="#191970" d="M1422.279,-374.2336C1431.5808,-341.2898 1454.3956,-240.8275 1405,-187 1368.8284,-147.583 1223.977,-112.4799 1138.013,-94.567"/>
<polygon fill="#191970" stroke="#191970" points="1138.5902,-91.1124 1128.0894,-92.5209 1137.1766,-97.9682 1138.5902,-91.1124"/>
</g>
<!-- Node23 -->
<g id="node24" class="node">
<title>Node23</title>
<g id="a_node24"><a xlink:href="DissipatingZone_8h.html" target="_top" xlink:title="Declares a class representing one zone of a body dissipative to tidal distortions. ">
<polygon fill="#ffffff" stroke="#000000" points="1276,-316.5 1276,-337.5 1390,-337.5 1390,-316.5 1276,-316.5"/>
<text text-anchor="middle" x="1333" y="-323.9" font-family="Helvetica,sans-Serif" font-size="12.00" fill="#000000">DissipatingZone.h</text>
</a>
</g>
</g>
<!-- Node22&#45;&gt;Node23 -->
<g id="edge29" class="edge">
<title>Node22&#45;&gt;Node23</title>
<path fill="none" stroke="#191970" d="M1403.2263,-374.3619C1390.3761,-365.6955 1372.0152,-353.3126 1357.2903,-343.3819"/>
<polygon fill="#191970" stroke="#191970" points="1358.9215,-340.2604 1348.6737,-337.5707 1355.0075,-346.0639 1358.9215,-340.2604"/>
</g>
<!-- Node22&#45;&gt;Node39 -->
<g id="edge72" class="edge">
<title>Node22&#45;&gt;Node39</title>
<path fill="none" stroke="#191970" d="M1361.7812,-381.3603C1218.5797,-371.4309 848.6484,-340.4852 743,-280 707.639,-259.7553 698.6836,-247.3798 685,-209 679.0991,-192.4492 686.1969,-173.4062 693.86,-159.5241"/>
<polygon fill="#191970" stroke="#191970" points="696.9348,-161.2028 699.1027,-150.8321 690.9407,-157.5874 696.9348,-161.2028"/>
</g>
<!-- Node23&#45;&gt;Node1 -->
<g id="edge38" class="edge">
<title>Node23&#45;&gt;Node1</title>
<path fill="none" stroke="#191970" d="M1361.4939,-316.3183C1386.099,-307.0024 1422.5447,-292.9833 1454,-280 1489.8738,-265.193 1497.5052,-258.2024 1534,-245 1548.2768,-239.8352 2049.8787,-105.1368 2059,-93 2064.8744,-85.1836 2065.7508,-78.0733 2059,-71 2022.8303,-33.1023 1271.8795,-21.3599 1005.6132,-18.3799"/>
<polygon fill="#191970" stroke="#191970" points="1005.6228,-14.8799 995.5848,-18.2693 1005.5455,-21.8795 1005.6228,-14.8799"/>
</g>
<!-- Node23&#45;&gt;Node3 -->
<g id="edge69" class="edge">
<title>Node23&#45;&gt;Node3</title>
<path fill="none" stroke="#191970" d="M1354.5784,-316.4225C1372.142,-307.4966 1397.3202,-293.9708 1418,-280 1438.4187,-266.2056 1441.8019,-260.448 1461,-245 1499.7392,-213.828 1545.1626,-177.8123 1571.3589,-157.0932"/>
<polygon fill="#191970" stroke="#191970" points="1573.7943,-159.6295 1579.4684,-150.6822 1569.4531,-154.1382 1573.7943,-159.6295"/>
</g>
<!-- Node23&#45;&gt;Node5 -->
<g id="edge70" class="edge">
<title>Node23&#45;&gt;Node5</title>
<path fill="none" stroke="#191970" d="M1380.5419,-316.4396C1464.6275,-297.4057 1644.7936,-255.0203 1794,-209 1866.2793,-186.7066 1883.0791,-177.2966 1954,-151 2004.2474,-132.3689 2062.0853,-110.3413 2098.8256,-96.2754"/>
<polygon fill="#191970" stroke="#191970" points="2100.5191,-99.3748 2108.605,-92.5287 2098.0147,-92.8381 2100.5191,-99.3748"/>
</g>
<!-- Node23&#45;&gt;Node16 -->
<g id="edge39" class="edge">
<title>Node23&#45;&gt;Node16</title>
<path fill="none" stroke="#191970" d="M1275.8694,-325.6271C1124.393,-321.6348 715.0796,-308.4622 583,-280 388.2251,-238.0273 169.6302,-136.106 90.5769,-97.3252"/>
<polygon fill="#191970" stroke="#191970" points="91.7288,-93.9908 81.2122,-92.7054 88.6319,-100.2685 91.7288,-93.9908"/>
</g>
<!-- Node24 -->
<g id="node25" class="node">
<title>Node24</title>
<g id="a_node25"><a xlink:href="ZoneOrientation_8h.html" target="_top" xlink:title="Declares a class for orientations of zones of DissipatingBody objects. ">
<polygon fill="#ffffff" stroke="#000000" points="2132.5,-187.5 2132.5,-208.5 2245.5,-208.5 2245.5,-187.5 2132.5,-187.5"/>
<text text-anchor="middle" x="2189" y="-194.9" font-family="Helvetica,sans-Serif" font-size="12.00" fill="#000000">ZoneOrientation.h</text>
</a>
</g>
</g>
<!-- Node23&#45;&gt;Node24 -->
<g id="edge30" class="edge">
<title>Node23&#45;&gt;Node24</title>
<path fill="none" stroke="#191970" d="M1390.0976,-326.0534C1559.2882,-322.9037 2050.2309,-311.154 2115,-280 2143.0679,-266.4994 2165.3078,-237.1217 2177.8165,-217.4482"/>
<polygon fill="#191970" stroke="#191970" points="2180.9435,-219.0427 2183.1584,-208.682 2174.9659,-215.4001 2180.9435,-219.0427"/>
</g>
<!-- Node25 -->
<g id="node26" class="node">
<title>Node25</title>
<g id="a_node26"><a xlink:href="DissipationQuantities_8h.html" target="_top" xlink:title="Declaration of enumerations of dissipation quantities and derivatives. ">
<polygon fill="#ffffff" stroke="#000000" points="2119,-129.5 2119,-150.5 2259,-150.5 2259,-129.5 2119,-129.5"/>
<text text-anchor="middle" x="2189" y="-136.9" font-family="Helvetica,sans-Serif" font-size="12.00" fill="#000000">DissipationQuantities.h</text>
</a>
</g>
</g>
<!-- Node23&#45;&gt;Node25 -->
<g id="edge55" class="edge">
<title>Node23&#45;&gt;Node25</title>
<path fill="none" stroke="#191970" d="M1390.2295,-324.5491C1538.4048,-317.9639 1926.8928,-299.09 1982,-280 2002.4483,-272.9164 2116.7604,-191.8344 2166.2049,-156.4021"/>
<polygon fill="#191970" stroke="#191970" points="2168.2909,-159.2131 2174.3751,-150.5395 2164.2099,-153.5258 2168.2909,-159.2131"/>
</g>
<!-- Node27 -->
<g id="node28" class="node">
<title>Node27</title>
<g id="a_node28"><a xlink:href="TidalPotentialTerms_8h.html" target="_top" xlink:title="Declare an interface for evaluating the expansion of the tidal potential. ">
<polygon fill="#ffffff" stroke="#000000" points="694,-187.5 694,-208.5 828,-208.5 828,-187.5 694,-187.5"/>
<text text-anchor="middle" x="761" y="-194.9" font-family="Helvetica,sans-Serif" font-size="12.00" fill="#000000">TidalPotentialTerms.h</text>
</a>
</g>
</g>
<!-- Node23&#45;&gt;Node27 -->
<g id="edge40" class="edge">
<title>Node23&#45;&gt;Node27</title>
<path fill="none" stroke="#191970" d="M1275.763,-324.4141C1133.3954,-317.7065 773.4669,-298.9476 756,-280 740.8989,-263.6189 746.0889,-236.6971 752.4295,-218.1979"/>
<polygon fill="#191970" stroke="#191970" points="755.7715,-219.2562 756.0498,-208.665 749.2275,-216.771 755.7715,-219.2562"/>
</g>
<!-- Node34 -->
<g id="node35" class="node">
<title>Node34</title>
<g id="a_node35"><a xlink:href="SpinOrbitLockInfo_8h.html" target="_top" xlink:title="Defines the SpinOrbitLockInfo class. ">
<polygon fill="#ffffff" stroke="#000000" points="105,-71.5 105,-92.5 227,-92.5 227,-71.5 105,-71.5"/>
<text text-anchor="middle" x="166" y="-78.9" font-family="Helvetica,sans-Serif" font-size="12.00" fill="#000000">SpinOrbitLockInfo.h</text>
</a>
</g>
</g>
<!-- Node23&#45;&gt;Node34 -->
<g id="edge56" class="edge">
<title>Node23&#45;&gt;Node34</title>
<path fill="none" stroke="#191970" d="M1275.6302,-323.9879C1148.0476,-317.0361 844.1128,-299.0055 743,-280 547.3264,-243.2205 500.0426,-221.9157 314,-151 271.6908,-134.8726 224.5673,-112.0114 195.1047,-97.096"/>
<polygon fill="#191970" stroke="#191970" points="196.6869,-93.974 186.188,-92.5511 193.508,-100.2106 196.6869,-93.974"/>
</g>
<!-- Node35 -->
<g id="node36" class="node">
<title>Node35</title>
<g id="a_node36"><a xlink:href="CombinedStoppingCondition_8h.html" target="_top" xlink:title="Declares a class for a stopping condition that combines other stopping conditions. ">
<polygon fill="#ffffff" stroke="#000000" points="765,-252 765,-273 947,-273 947,-252 765,-252"/>
<text text-anchor="middle" x="856" y="-259.4" font-family="Helvetica,sans-Serif" font-size="12.00" fill="#000000">CombinedStoppingCondition.h</text>
</a>
</g>
</g>
<!-- Node23&#45;&gt;Node35 -->
<g id="edge59" class="edge">
<title>Node23&#45;&gt;Node35</title>
<path fill="none" stroke="#191970" d="M1275.717,-320.7468C1201.7271,-312.4663 1069.0123,-296.9226 956,-280 945.3905,-278.4113 934.1729,-276.5888 923.2363,-274.7334"/>
<polygon fill="#191970" stroke="#191970" points="923.7451,-271.2697 913.2969,-273.0261 922.56,-278.1686 923.7451,-271.2697"/>
</g>
<!-- Node36 -->
<g id="node37" class="node">
<title>Node36</title>
<g id="a_node37"><a xlink:href="BreakLockCondition_8h.html" target="_top" xlink:title="Declares a class for a stopping condition monitoring when a locked zone loses the lock...">
<polygon fill="#ffffff" stroke="#000000" points="1103.5,-252 1103.5,-273 1238.5,-273 1238.5,-252 1103.5,-252"/>
<text text-anchor="middle" x="1171" y="-259.4" font-family="Helvetica,sans-Serif" font-size="12.00" fill="#000000">BreakLockCondition.h</text>
</a>
</g>
</g>
<!-- Node23&#45;&gt;Node36 -->
<g id="edge63" class="edge">
<title>Node23&#45;&gt;Node36</title>
<path fill="none" stroke="#191970" d="M1306.6114,-316.4934C1279.4283,-305.6705 1236.8858,-288.7323 1206.7063,-276.7164"/>
<polygon fill="#191970" stroke="#191970" points="1207.9627,-273.4495 1197.3774,-273.0021 1205.3734,-279.953 1207.9627,-273.4495"/>
</g>
<!-- Node37 -->
<g id="node38" class="node">
<title>Node37</title>
<g id="a_node38"><a xlink:href="SynchronizedCondition_8h.html" target="_top" xlink:title="Declares a stopping condition monitoring spin&#45;orbit synchronization. ">
<polygon fill="#ffffff" stroke="#000000" points="1257,-252 1257,-273 1409,-273 1409,-252 1257,-252"/>
<text text-anchor="middle" x="1333" y="-259.4" font-family="Helvetica,sans-Serif" font-size="12.00" fill="#000000">SynchronizedCondition.h</text>
</a>
</g>
</g>
<!-- Node23&#45;&gt;Node37 -->
<g id="edge66" class="edge">
<title>Node23&#45;&gt;Node37</title>
<path fill="none" stroke="#191970" d="M1333,-316.3491C1333,-307.4397 1333,-294.4599 1333,-283.4761"/>
<polygon fill="#191970" stroke="#191970" points="1336.5001,-283.3822 1333,-273.3823 1329.5001,-283.3823 1336.5001,-283.3822"/>
</g>
<!-- Node38 -->
<g id="node39" class="node">
<title>Node38</title>
<polygon fill="#ffffff" stroke="#bfbfbf" points="965,-245.5 965,-279.5 1085,-279.5 1085,-245.5 965,-245.5"/>
<text text-anchor="start" x="973" y="-265.9" font-family="Helvetica,sans-Serif" font-size="12.00" fill="#000000">boost/math/special</text>
<text text-anchor="middle" x="1025" y="-252.9" font-family="Helvetica,sans-Serif" font-size="12.00" fill="#000000">_functions/sign.hpp</text>
</g>
<!-- Node23&#45;&gt;Node38 -->
<g id="edge71" class="edge">
<title>Node23&#45;&gt;Node38</title>
<path fill="none" stroke="#191970" d="M1275.8354,-316.6596C1229.5776,-308.0869 1162.5301,-295.1999 1095.1119,-280.1928"/>
<polygon fill="#191970" stroke="#191970" points="1095.6881,-276.7352 1085.1647,-277.9635 1094.1572,-283.5657 1095.6881,-276.7352"/>
</g>
<!-- Node24&#45;&gt;Node1 -->
<g id="edge31" class="edge">
<title>Node24&#45;&gt;Node1</title>
<path fill="none" stroke="#191970" d="M2215.8967,-187.4154C2232.8199,-179.5708 2254.0249,-167.3972 2268,-151 2291.9976,-122.8432 2316.6475,-97.6626 2291,-71 2268.6909,-47.808 1311.3902,-25.826 1005.7545,-19.388"/>
<polygon fill="#191970" stroke="#191970" points="1005.6661,-15.8854 995.5948,-19.1746 1005.5191,-22.8839 1005.6661,-15.8854"/>
</g>
<!-- Node24&#45;&gt;Node3 -->
<g id="edge36" class="edge">
<title>Node24&#45;&gt;Node3</title>
<path fill="none" stroke="#191970" d="M2132.3924,-192.4912C2021.8561,-181.7343 1777.8096,-157.9848 1659.6676,-146.4878"/>
<polygon fill="#191970" stroke="#191970" points="1659.9569,-142.9995 1649.6649,-145.5144 1659.2788,-149.9666 1659.9569,-142.9995"/>
</g>
<!-- Node24&#45;&gt;Node20 -->
<g id="edge37" class="edge">
<title>Node24&#45;&gt;Node20</title>
<path fill="none" stroke="#191970" d="M2237.2467,-187.4409C2264.2567,-180.0522 2297.687,-168.3496 2324,-151 2344.2639,-137.6389 2362.3628,-116.3236 2373.9045,-100.9173"/>
<polygon fill="#191970" stroke="#191970" points="2376.8737,-102.7847 2379.9091,-92.634 2371.2061,-98.6762 2376.8737,-102.7847"/>
</g>
<!-- Node24&#45;&gt;Node25 -->
<g id="edge32" class="edge">
<title>Node24&#45;&gt;Node25</title>
<path fill="none" stroke="#191970" d="M2189,-187.3619C2189,-179.9219 2189,-169.7427 2189,-160.7276"/>
<polygon fill="#191970" stroke="#191970" points="2192.5001,-160.5706 2189,-150.5707 2185.5001,-160.5707 2192.5001,-160.5706"/>
</g>
<!-- Node25&#45;&gt;Node1 -->
<g id="edge33" class="edge">
<title>Node25&#45;&gt;Node1</title>
<path fill="none" stroke="#191970" d="M2190.4324,-129.4013C2191.859,-113.908 2191.8286,-85.3623 2175,-71 2130.6927,-33.1861 1290.3951,-21.2861 1006.0978,-18.3338"/>
<polygon fill="#191970" stroke="#191970" points="1005.8505,-14.8312 995.8151,-18.2284 1005.7787,-21.8308 1005.8505,-14.8312"/>
</g>
<!-- Node25&#45;&gt;Node15 -->
<g id="edge35" class="edge">
<title>Node25&#45;&gt;Node15</title>
<path fill="none" stroke="#191970" d="M2158.7576,-129.4966C2130.8054,-119.7887 2089.1876,-105.3346 2059.2087,-94.9228"/>
<polygon fill="#191970" stroke="#191970" points="2060.1196,-91.5341 2049.5247,-91.5595 2057.8229,-98.1466 2060.1196,-91.5341"/>
</g>
<!-- Node26 -->
<g id="node27" class="node">
<title>Node26</title>
<polygon fill="#ffffff" stroke="#bfbfbf" points="2222.5,-71.5 2222.5,-92.5 2281.5,-92.5 2281.5,-71.5 2222.5,-71.5"/>
<text text-anchor="middle" x="2252" y="-78.9" font-family="Helvetica,sans-Serif" font-size="12.00" fill="#000000">ostream</text>
</g>
<!-- Node25&#45;&gt;Node26 -->
<g id="edge34" class="edge">
<title>Node25&#45;&gt;Node26</title>
<path fill="none" stroke="#191970" d="M2200.5552,-129.3619C2209.6134,-121.0226 2222.4097,-109.2418 2232.9737,-99.5162"/>
<polygon fill="#191970" stroke="#191970" points="2235.5317,-101.9187 2240.5181,-92.5707 2230.7905,-96.7688 2235.5317,-101.9187"/>
</g>
<!-- Node27&#45;&gt;Node3 -->
<g id="edge54" class="edge">
<title>Node27&#45;&gt;Node3</title>
<path fill="none" stroke="#191970" d="M828.0301,-193.3272C984.0557,-182.4504 1370.0828,-155.5399 1526.0397,-144.6679"/>
<polygon fill="#191970" stroke="#191970" points="1526.6877,-148.1313 1536.42,-143.9443 1526.2008,-141.1483 1526.6877,-148.1313"/>
</g>
<!-- Node27&#45;&gt;Node5 -->
<g id="edge42" class="edge">
<title>Node27&#45;&gt;Node5</title>
<path fill="none" stroke="#191970" d="M828.109,-196.5704C977.5133,-192.9307 1348.7704,-181.3566 1658,-151 1821.3129,-134.9678 2014.2938,-103.1208 2096.1293,-89.0102"/>
<polygon fill="#191970" stroke="#191970" points="2097.2111,-92.3751 2106.4672,-87.2199 2096.0166,-85.4777 2097.2111,-92.3751"/>
</g>
<!-- Node28 -->
<g id="node29" class="node">
<title>Node28</title>
<polygon fill="#ffffff" stroke="#bfbfbf" points="663.5,-71.5 663.5,-92.5 712.5,-92.5 712.5,-71.5 663.5,-71.5"/>
<text text-anchor="middle" x="688" y="-78.9" font-family="Helvetica,sans-Serif" font-size="12.00" fill="#000000">cmath</text>
</g>
<!-- Node27&#45;&gt;Node28 -->
<g id="edge41" class="edge">
<title>Node27&#45;&gt;Node28</title>
<path fill="none" stroke="#191970" d="M774.244,-187.4029C789.8644,-173.5844 812.1425,-148.837 799,-129 794.4241,-122.0932 753.0337,-105.7462 722.1267,-94.2814"/>
<polygon fill="#191970" stroke="#191970" points="723.1138,-90.9153 712.5202,-90.7488 720.6978,-97.4852 723.1138,-90.9153"/>
</g>
<!-- Node29 -->
<g id="node30" class="node">
<title>Node29</title>
<g id="a_node30"><a xlink:href="EccentricityExpansionCoefficients_8h.html" target="_top" xlink:title="Declares a class which provides the [ &#160;coefficients]{InclinationEccentricity_pms1}. ">
<polygon fill="#ffffff" stroke="#000000" points="360,-129.5 360,-150.5 568,-150.5 568,-129.5 360,-129.5"/>
<text text-anchor="middle" x="464" y="-136.9" font-family="Helvetica,sans-Serif" font-size="12.00" fill="#000000">EccentricityExpansionCoefficients.h</text>
</a>
</g>
</g>
<!-- Node27&#45;&gt;Node29 -->
<g id="edge43" class="edge">
<title>Node27&#45;&gt;Node29</title>
<path fill="none" stroke="#191970" d="M707.2155,-187.4966C656.8052,-177.6522 581.403,-162.9272 527.9369,-152.486"/>
<polygon fill="#191970" stroke="#191970" points="528.3708,-149.0047 517.8853,-150.5231 527.0291,-155.8749 528.3708,-149.0047"/>
</g>
<!-- Node29&#45;&gt;Node1 -->
<g id="edge44" class="edge">
<title>Node29&#45;&gt;Node1</title>
<path fill="none" stroke="#191970" d="M491.4502,-129.4138C514.7116,-120.2695 548.8382,-106.4441 578,-93 597.4952,-84.0124 600.6708,-77.8965 621,-71 685.8228,-49.0094 761.9807,-35.4364 820.2639,-27.4658"/>
<polygon fill="#191970" stroke="#191970" points="820.7461,-30.9326 830.194,-26.1382 819.8184,-23.9943 820.7461,-30.9326"/>
</g>
<!-- Node29&#45;&gt;Node7 -->
<g id="edge51" class="edge">
<title>Node29&#45;&gt;Node7</title>
<path fill="none" stroke="#191970" d="M531.1851,-129.4904C580.907,-121.3038 650.4556,-109 720.3947,-92.9828"/>
<polygon fill="#191970" stroke="#191970" points="721.311,-96.3633 730.264,-90.6981 719.7322,-89.5436 721.311,-96.3633"/>
</g>
<!-- Node29&#45;&gt;Node8 -->
<g id="edge50" class="edge">
<title>Node29&#45;&gt;Node8</title>
<path fill="none" stroke="#191970" d="M427.6024,-129.4781C402.566,-121.4167 369.0781,-108.9699 342,-93 314.274,-76.6479 286.5267,-51.7615 269.3229,-35.0792"/>
<polygon fill="#191970" stroke="#191970" points="271.7756,-32.5823 262.1983,-28.0518 266.8599,-37.566 271.7756,-32.5823"/>
</g>
<!-- Node29&#45;&gt;Node15 -->
<g id="edge52" class="edge">
<title>Node29&#45;&gt;Node15</title>
<path fill="none" stroke="#191970" d="M568.3419,-131.7745C583.9732,-130.7233 599.9051,-129.7534 615,-129 1206.4799,-99.4785 1356.989,-144.0592 1947,-93 1959.1688,-91.9469 1972.3721,-90.2116 1984.2604,-88.4271"/>
<polygon fill="#191970" stroke="#191970" points="1984.9677,-91.8592 1994.3101,-86.8622 1983.8906,-84.9426 1984.9677,-91.8592"/>
</g>
<!-- Node29&#45;&gt;Node16 -->
<g id="edge45" class="edge">
<title>Node29&#45;&gt;Node16</title>
<path fill="none" stroke="#191970" d="M359.703,-131.4316C288.12,-124.4377 190.9112,-112.7537 96.6042,-92.8258"/>
<polygon fill="#191970" stroke="#191970" points="97.1159,-89.3559 86.604,-90.6789 95.6465,-96.2 97.1159,-89.3559"/>
</g>
<!-- Node29&#45;&gt;Node28 -->
<g id="edge49" class="edge">
<title>Node29&#45;&gt;Node28</title>
<path fill="none" stroke="#191970" d="M504.5647,-129.4966C547.1292,-118.4755 613.3184,-101.3372 653.4689,-90.9411"/>
<polygon fill="#191970" stroke="#191970" points="654.526,-94.2829 663.3294,-88.3879 652.7713,-87.5064 654.526,-94.2829"/>
</g>
<!-- Node29&#45;&gt;Node30 -->
<g id="edge46" class="edge">
<title>Node29&#45;&gt;Node30</title>
<path fill="none" stroke="#191970" d="M428.8681,-129.4966C393.5881,-118.949 339.5679,-102.7986 304.5101,-92.3174"/>
<polygon fill="#191970" stroke="#191970" points="305.3023,-88.9013 294.7187,-89.3901 303.2971,-95.608 305.3023,-88.9013"/>
</g>
<!-- Node31 -->
<g id="node32" class="node">
<title>Node31</title>
<polygon fill="#ffffff" stroke="#bfbfbf" points="351,-71.5 351,-92.5 407,-92.5 407,-71.5 351,-71.5"/>
<text text-anchor="middle" x="379" y="-78.9" font-family="Helvetica,sans-Serif" font-size="12.00" fill="#000000">fstream</text>
</g>
<!-- Node29&#45;&gt;Node31 -->
<g id="edge47" class="edge">
<title>Node29&#45;&gt;Node31</title>
<path fill="none" stroke="#191970" d="M448.4097,-129.3619C435.709,-120.6955 417.5615,-108.3126 403.0079,-98.3819"/>
<polygon fill="#191970" stroke="#191970" points="404.7245,-95.316 394.4915,-92.5707 400.779,-101.0982 404.7245,-95.316"/>
</g>
<!-- Node32 -->
<g id="node33" class="node">
<title>Node32</title>
<polygon fill="#ffffff" stroke="#bfbfbf" points="425.5,-71.5 425.5,-92.5 484.5,-92.5 484.5,-71.5 425.5,-71.5"/>
<text text-anchor="middle" x="455" y="-78.9" font-family="Helvetica,sans-Serif" font-size="12.00" fill="#000000">iomanip</text>
</g>
<!-- Node29&#45;&gt;Node32 -->
<g id="edge48" class="edge">
<title>Node29&#45;&gt;Node32</title>
<path fill="none" stroke="#191970" d="M462.3493,-129.3619C461.1948,-121.9219 459.6153,-111.7427 458.2163,-102.7276"/>
<polygon fill="#191970" stroke="#191970" points="461.6323,-101.9157 456.6403,-92.5707 454.7151,-102.9891 461.6323,-101.9157"/>
</g>
<!-- Node33 -->
<g id="node34" class="node">
<title>Node33</title>
<polygon fill="#ffffff" stroke="#bfbfbf" points="503,-71.5 503,-92.5 569,-92.5 569,-71.5 503,-71.5"/>
<text text-anchor="middle" x="536" y="-78.9" font-family="Helvetica,sans-Serif" font-size="12.00" fill="#000000">algorithm</text>
</g>
<!-- Node29&#45;&gt;Node33 -->
<g id="edge53" class="edge">
<title>Node29&#45;&gt;Node33</title>
<path fill="none" stroke="#191970" d="M477.2059,-129.3619C487.7612,-120.859 502.7577,-108.7785 514.9629,-98.9466"/>
<polygon fill="#191970" stroke="#191970" points="517.2859,-101.5696 522.8778,-92.5707 512.8946,-96.1183 517.2859,-101.5696"/>
</g>
<!-- Node34&#45;&gt;Node1 -->
<g id="edge57" class="edge">
<title>Node34&#45;&gt;Node1</title>
<path fill="none" stroke="#191970" d="M227.0452,-72.1237C230.0702,-71.7233 233.0679,-71.3457 236,-71 444.055,-46.4689 689.4463,-30.2171 820.1103,-22.5696"/>
<polygon fill="#191970" stroke="#191970" points="820.6905,-26.0419 830.4705,-21.9672 820.2841,-19.0537 820.6905,-26.0419"/>
</g>
<!-- Node34&#45;&gt;Node8 -->
<g id="edge58" class="edge">
<title>Node34&#45;&gt;Node8</title>
<path fill="none" stroke="#191970" d="M180.2012,-71.3491C193.6458,-61.2656 214.0421,-45.9684 229.6644,-34.2517"/>
<polygon fill="#191970" stroke="#191970" points="231.8777,-36.9667 237.7778,-28.1667 227.6777,-31.3667 231.8777,-36.9667"/>
</g>
<!-- Node35&#45;&gt;Node1 -->
<g id="edge60" class="edge">
<title>Node35&#45;&gt;Node1</title>
<path fill="none" stroke="#191970" d="M855.7726,-251.7603C855.4729,-222.0704 856.8443,-136.7346 880,-71 883.3907,-61.3744 888.7078,-51.6421 894.0913,-43.1655"/>
<polygon fill="#191970" stroke="#191970" points="897.0056,-45.1037 899.6476,-34.8436 891.1839,-41.2167 897.0056,-45.1037"/>
</g>
<!-- Node35&#45;&gt;Node2 -->
<g id="edge61" class="edge">
<title>Node35&#45;&gt;Node2</title>
<path fill="none" stroke="#191970" d="M913.2969,-251.9739C927.2481,-249.5489 942.1427,-247.075 956,-245 1061.3471,-229.2252 1183.8146,-214.6486 1259.8756,-206.0365"/>
<polygon fill="#191970" stroke="#191970" points="1260.2895,-209.5121 1269.8341,-204.913 1259.5047,-202.5562 1260.2895,-209.5121"/>
</g>
<!-- Node35&#45;&gt;Node30 -->
<g id="edge62" class="edge">
<title>Node35&#45;&gt;Node30</title>
<path fill="none" stroke="#191970" d="M819.6247,-251.9179C764.9289,-236.2598 658.0916,-206.6572 566,-187 471.2487,-166.7751 438.8328,-191.8933 351,-151 325.1875,-138.9822 301.0948,-116.4231 286.008,-100.3727"/>
<polygon fill="#191970" stroke="#191970" points="288.3022,-97.6941 278.9782,-92.6629 283.1296,-102.4106 288.3022,-97.6941"/>
</g>
<!-- Node36&#45;&gt;Node1 -->
<g id="edge64" class="edge">
<title>Node36&#45;&gt;Node1</title>
<path fill="none" stroke="#191970" d="M1125.4344,-251.9721C1115.1079,-249.6341 1104.1842,-247.1986 1094,-245 1015.9561,-228.1517 969.2869,-270.1913 918,-209 879.0877,-162.5731 893.0166,-85.2678 904.2922,-44.5272"/>
<polygon fill="#191970" stroke="#191970" points="907.6999,-45.3436 907.1399,-34.7636 900.9799,-43.3836 907.6999,-45.3436"/>
</g>
<!-- Node36&#45;&gt;Node2 -->
<g id="edge65" class="edge">
<title>Node36&#45;&gt;Node2</title>
<path fill="none" stroke="#191970" d="M1197.3886,-251.9934C1224.5717,-241.1705 1267.1142,-224.2323 1297.2937,-212.2164"/>
<polygon fill="#191970" stroke="#191970" points="1298.6266,-215.453 1306.6226,-208.5021 1296.0373,-208.9495 1298.6266,-215.453"/>
</g>
<!-- Node37&#45;&gt;Node1 -->
<g id="edge67" class="edge">
<title>Node37&#45;&gt;Node1</title>
<path fill="none" stroke="#191970" d="M1283.778,-251.9503C1205.3888,-232.8534 1051.4234,-185.6524 957,-93 942.7417,-79.0091 931.5106,-59.437 923.9646,-43.7263"/>
<polygon fill="#191970" stroke="#191970" points="927.0968,-42.1598 919.7483,-34.5276 920.7334,-45.0765 927.0968,-42.1598"/>
</g>
<!-- Node37&#45;&gt;Node2 -->
<g id="edge68" class="edge">
<title>Node37&#45;&gt;Node2</title>
<path fill="none" stroke="#191970" d="M1333,-251.8491C1333,-242.9397 1333,-229.9599 1333,-218.9761"/>
<polygon fill="#191970" stroke="#191970" points="1336.5001,-218.8822 1333,-208.8823 1329.5001,-218.8823 1336.5001,-218.8822"/>
</g>
<!-- Node39&#45;&gt;Node1 -->
<g id="edge73" class="edge">
<title>Node39&#45;&gt;Node1</title>
<path fill="none" stroke="#191970" d="M729.0406,-129.4205C747.6873,-120.2803 774.9716,-106.4571 798,-93 826.3415,-76.4381 857.3987,-55.8976 880.0864,-40.4243"/>
<polygon fill="#191970" stroke="#191970" points="882.0792,-43.3017 888.3487,-34.761 878.1215,-37.5278 882.0792,-43.3017"/>
</g>
<!-- Node39&#45;&gt;Node19 -->
<g id="edge75" class="edge">
<title>Node39&#45;&gt;Node19</title>
<path fill="none" stroke="#191970" d="M773.2798,-129.4966C836.1765,-119.5294 930.6445,-104.5591 996.6619,-94.0973"/>
<polygon fill="#191970" stroke="#191970" points="997.2669,-97.5452 1006.5959,-92.5231 996.1713,-90.6314 997.2669,-97.5452"/>
</g>
<!-- Node39&#45;&gt;Node28 -->
<g id="edge74" class="edge">
<title>Node39&#45;&gt;Node28</title>
<path fill="none" stroke="#191970" d="M703.5151,-129.3619C701.0243,-121.7584 697.5963,-111.294 694.5959,-102.1349"/>
<polygon fill="#191970" stroke="#191970" points="697.902,-100.9841 691.4628,-92.5707 691.2499,-103.1634 697.902,-100.9841"/>
</g>
</g>
</svg>
