<?xml version="1.0" encoding="UTF-8" standalone="no"?>
<!DOCTYPE svg PUBLIC "-//W3C//DTD SVG 1.1//EN"
 "http://www.w3.org/Graphics/SVG/1.1/DTD/svg11.dtd">
<!-- Generated by graphviz version 2.40.1 (20161225.0304)
 -->
<!-- Title: /home/kpenev/projects/git/poet/poet_src/Evolve/LagSpinBreakCondition.h Pages: 1 -->
<svg width="2472pt" height="488pt"
 viewBox="0.00 0.00 2472.49 488.00" xmlns="http://www.w3.org/2000/svg" xmlns:xlink="http://www.w3.org/1999/xlink">
<g id="graph0" class="graph" transform="scale(1 1) rotate(0) translate(4 484)">
<title>/home/kpenev/projects/git/poet/poet_src/Evolve/LagSpinBreakCondition.h</title>
<polygon fill="#ffffff" stroke="transparent" points="-4,4 -4,-484 2468.4881,-484 2468.4881,4 -4,4"/>
<!-- Node0 -->
<g id="node1" class="node">
<title>Node0</title>
<polygon fill="#bfbfbf" stroke="#000000" points="1472,-432.5 1472,-479.5 1630,-479.5 1630,-432.5 1472,-432.5"/>
<text text-anchor="start" x="1480" y="-465.9" font-family="Helvetica,sans-Serif" font-size="12.00" fill="#000000">/home/kpenev/projects</text>
<text text-anchor="start" x="1480" y="-452.9" font-family="Helvetica,sans-Serif" font-size="12.00" fill="#000000">/git/poet/poet_src/Evolve</text>
<text text-anchor="middle" x="1551" y="-439.9" font-family="Helvetica,sans-Serif" font-size="12.00" fill="#000000">/LagSpinBreakCondition.h</text>
</g>
<!-- Node1 -->
<g id="node2" class="node">
<title>Node1</title>
<g id="a_node2"><a xlink:href="SharedLibraryExportMacros_8h_source.html" target="_top" xlink:title="../Core/SharedLibraryExport\lMacros.h">
<polygon fill="#ffffff" stroke="#000000" points="868.5,-.5 868.5,-34.5 1033.5,-34.5 1033.5,-.5 868.5,-.5"/>
<text text-anchor="start" x="876.5" y="-20.9" font-family="Helvetica,sans-Serif" font-size="12.00" fill="#000000">../Core/SharedLibraryExport</text>
<text text-anchor="middle" x="951" y="-7.9" font-family="Helvetica,sans-Serif" font-size="12.00" fill="#000000">Macros.h</text>
</a>
</g>
</g>
<!-- Node0&#45;&gt;Node1 -->
<g id="edge1" class="edge">
<title>Node0&#45;&gt;Node1</title>
<path fill="none" stroke="#191970" d="M1630.3386,-453.0676C1852.2226,-443.8186 2463,-410.7526 2463,-327 2463,-327 2463,-327 2463,-140 2463,-108.1919 2468.9525,-90.7263 2444,-71 2388.9938,-27.5145 1361.3189,-19.3198 1043.7147,-17.8236"/>
<polygon fill="#191970" stroke="#191970" points="1043.6376,-14.3233 1033.6216,-17.7772 1043.6054,-21.3232 1043.6376,-14.3233"/>
</g>
<!-- Node2 -->
<g id="node3" class="node">
<title>Node2</title>
<g id="a_node3"><a xlink:href="StoppingCondition_8h.html" target="_top" xlink:title="Defines the various stopping conditions needed by OrbitSolver. ">
<polygon fill="#ffffff" stroke="#000000" points="1170,-187.5 1170,-208.5 1296,-208.5 1296,-187.5 1170,-187.5"/>
<text text-anchor="middle" x="1233" y="-194.9" font-family="Helvetica,sans-Serif" font-size="12.00" fill="#000000">StoppingCondition.h</text>
</a>
</g>
</g>
<!-- Node0&#45;&gt;Node2 -->
<g id="edge2" class="edge">
<title>Node0&#45;&gt;Node2</title>
<path fill="none" stroke="#191970" d="M1547.4842,-432.4442C1539.6024,-388.3625 1516.243,-293.4908 1456,-245 1433.1864,-226.6369 1362.1881,-213.7949 1306.361,-206.2292"/>
<polygon fill="#191970" stroke="#191970" points="1306.5006,-202.7173 1296.1284,-204.8777 1305.584,-209.657 1306.5006,-202.7173"/>
</g>
<!-- Node16 -->
<g id="node17" class="node">
<title>Node16</title>
<g id="a_node17"><a xlink:href="Error_8h.html" target="_top" xlink:title="Defines the exception hierarchy used by this code. ">
<polygon fill="#ffffff" stroke="#000000" points="33.5,-71.5 33.5,-92.5 86.5,-92.5 86.5,-71.5 33.5,-71.5"/>
<text text-anchor="middle" x="60" y="-78.9" font-family="Helvetica,sans-Serif" font-size="12.00" fill="#000000">Error.h</text>
</a>
</g>
</g>
<!-- Node0&#45;&gt;Node16 -->
<g id="edge80" class="edge">
<title>Node0&#45;&gt;Node16</title>
<path fill="none" stroke="#191970" d="M1471.7684,-453.0446C1171.4325,-441.3276 120,-395.422 120,-327 120,-327 120,-327 120,-198 120,-159.969 94.2418,-121.9756 76.4796,-100.2973"/>
<polygon fill="#191970" stroke="#191970" points="79.0508,-97.9181 69.9078,-92.5649 73.717,-102.4513 79.0508,-97.9181"/>
</g>
<!-- Node22 -->
<g id="node23" class="node">
<title>Node22</title>
<g id="a_node23"><a xlink:href="DissipatingBody_8h.html" target="_top" xlink:title="Declares the DissipatingBody class. ">
<polygon fill="#ffffff" stroke="#000000" points="1579,-374.5 1579,-395.5 1693,-395.5 1693,-374.5 1579,-374.5"/>
<text text-anchor="middle" x="1636" y="-381.9" font-family="Helvetica,sans-Serif" font-size="12.00" fill="#000000">DissipatingBody.h</text>
</a>
</g>
</g>
<!-- Node0&#45;&gt;Node22 -->
<g id="edge27" class="edge">
<title>Node0&#45;&gt;Node22</title>
<path fill="none" stroke="#191970" d="M1579.3038,-432.358C1591.1569,-422.4571 1604.6745,-411.166 1615.537,-402.0926"/>
<polygon fill="#191970" stroke="#191970" points="1617.8235,-404.7432 1623.2545,-395.6462 1613.3359,-399.3708 1617.8235,-404.7432"/>
</g>
<!-- Node30 -->
<g id="node31" class="node">
<title>Node30</title>
<polygon fill="#ffffff" stroke="#bfbfbf" points="595.5,-71.5 595.5,-92.5 644.5,-92.5 644.5,-71.5 595.5,-71.5"/>
<text text-anchor="middle" x="620" y="-78.9" font-family="Helvetica,sans-Serif" font-size="12.00" fill="#000000">vector</text>
</g>
<!-- Node0&#45;&gt;Node30 -->
<g id="edge81" class="edge">
<title>Node0&#45;&gt;Node30</title>
<path fill="none" stroke="#191970" d="M1471.8086,-452.3172C1250.3686,-441.2149 637.0684,-404.6647 578,-338 517.223,-269.407 579.5981,-148.1191 607.7486,-101.2414"/>
<polygon fill="#191970" stroke="#191970" points="610.7724,-103.0057 613.028,-92.6538 604.8092,-99.3397 610.7724,-103.0057"/>
</g>
<!-- Node2&#45;&gt;Node1 -->
<g id="edge3" class="edge">
<title>Node2&#45;&gt;Node1</title>
<path fill="none" stroke="#191970" d="M1206.1457,-187.4927C1165.3283,-170.8425 1086.1728,-135.8491 1027,-93 1006.7322,-78.3234 986.7756,-58.2189 972.4015,-42.4461"/>
<polygon fill="#191970" stroke="#191970" points="974.6978,-39.7634 965.4216,-34.6444 969.4809,-44.4308 974.6978,-39.7634"/>
</g>
<!-- Node3 -->
<g id="node4" class="node">
<title>Node3</title>
<g id="a_node4"><a xlink:href="Core_2Common_8h.html" target="_top" xlink:title="Declaration of some general purpose utilities. ">
<polygon fill="#ffffff" stroke="#000000" points="1447.5,-129.5 1447.5,-150.5 1560.5,-150.5 1560.5,-129.5 1447.5,-129.5"/>
<text text-anchor="middle" x="1504" y="-136.9" font-family="Helvetica,sans-Serif" font-size="12.00" fill="#000000">../Core/Common.h</text>
</a>
</g>
</g>
<!-- Node2&#45;&gt;Node3 -->
<g id="edge4" class="edge">
<title>Node2&#45;&gt;Node3</title>
<path fill="none" stroke="#191970" d="M1282.0761,-187.4966C1327.8821,-177.6931 1396.303,-163.0496 1445.0507,-152.6165"/>
<polygon fill="#191970" stroke="#191970" points="1445.7859,-156.0385 1454.8319,-150.5231 1444.3208,-149.1935 1445.7859,-156.0385"/>
</g>
<!-- Node15 -->
<g id="node16" class="node">
<title>Node15</title>
<polygon fill="#ffffff" stroke="#bfbfbf" points="1994.5,-71.5 1994.5,-92.5 2049.5,-92.5 2049.5,-71.5 1994.5,-71.5"/>
<text text-anchor="middle" x="2022" y="-78.9" font-family="Helvetica,sans-Serif" font-size="12.00" fill="#000000">cassert</text>
</g>
<!-- Node2&#45;&gt;Node15 -->
<g id="edge26" class="edge">
<title>Node2&#45;&gt;Node15</title>
<path fill="none" stroke="#191970" d="M1296.2491,-191.5053C1364.0845,-183.9928 1474.7709,-170.1551 1569,-151 1605.977,-143.4832 1613.9338,-136.0639 1651,-129 1788.5526,-102.786 1825.5645,-114.06 1964,-93 1970.5164,-92.0087 1977.4191,-90.8212 1984.1029,-89.5987"/>
<polygon fill="#191970" stroke="#191970" points="1985.1587,-92.9615 1994.3387,-87.6719 1983.8638,-86.0823 1985.1587,-92.9615"/>
</g>
<!-- Node3&#45;&gt;Node1 -->
<g id="edge17" class="edge">
<title>Node3&#45;&gt;Node1</title>
<path fill="none" stroke="#191970" d="M1560.5403,-130.9417C1565.426,-130.2496 1570.2971,-129.5914 1575,-129 1658.0117,-118.5615 2004.5519,-131.7263 1947,-71 1916.2111,-38.5129 1285.3362,-23.6024 1043.8828,-19.0698"/>
<polygon fill="#191970" stroke="#191970" points="1043.7857,-15.5675 1033.7223,-18.8809 1043.6555,-22.5663 1043.7857,-15.5675"/>
</g>
<!-- Node4 -->
<g id="node5" class="node">
<title>Node4</title>
<polygon fill="#ffffff" stroke="#bfbfbf" points="1204,-71.5 1204,-92.5 1236,-92.5 1236,-71.5 1204,-71.5"/>
<text text-anchor="middle" x="1220" y="-78.9" font-family="Helvetica,sans-Serif" font-size="12.00" fill="#000000">list</text>
</g>
<!-- Node3&#45;&gt;Node4 -->
<g id="edge5" class="edge">
<title>Node3&#45;&gt;Node4</title>
<path fill="none" stroke="#191970" d="M1447.4571,-130.4649C1383.7445,-119.6184 1284.8695,-102.4467 1246.1696,-92.5911"/>
<polygon fill="#191970" stroke="#191970" points="1246.7712,-89.1244 1236.1968,-89.7825 1244.8735,-95.8623 1246.7712,-89.1244"/>
</g>
<!-- Node5 -->
<g id="node6" class="node">
<title>Node5</title>
<polygon fill="#ffffff" stroke="#bfbfbf" points="2067.5,-71.5 2067.5,-92.5 2126.5,-92.5 2126.5,-71.5 2067.5,-71.5"/>
<text text-anchor="middle" x="2097" y="-78.9" font-family="Helvetica,sans-Serif" font-size="12.00" fill="#000000">valarray</text>
</g>
<!-- Node3&#45;&gt;Node5 -->
<g id="edge6" class="edge">
<title>Node3&#45;&gt;Node5</title>
<path fill="none" stroke="#191970" d="M1560.5266,-130.8279C1565.4153,-130.1605 1570.2908,-129.5391 1575,-129 1786.0619,-104.8394 1844.9296,-130.3974 2057.3631,-93.0083"/>
<polygon fill="#191970" stroke="#191970" points="2058.0391,-96.443 2067.2679,-91.2393 2056.8083,-89.5521 2058.0391,-96.443"/>
</g>
<!-- Node6 -->
<g id="node7" class="node">
<title>Node6</title>
<polygon fill="#ffffff" stroke="#bfbfbf" points="1254,-71.5 1254,-92.5 1298,-92.5 1298,-71.5 1254,-71.5"/>
<text text-anchor="middle" x="1276" y="-78.9" font-family="Helvetica,sans-Serif" font-size="12.00" fill="#000000">limits</text>
</g>
<!-- Node3&#45;&gt;Node6 -->
<g id="edge7" class="edge">
<title>Node3&#45;&gt;Node6</title>
<path fill="none" stroke="#191970" d="M1453.407,-129.4895C1415.6472,-121.2925 1362.6466,-109.0461 1308.0971,-93.1255"/>
<polygon fill="#191970" stroke="#191970" points="1308.8396,-89.6954 1298.2577,-90.2182 1306.856,-96.4085 1308.8396,-89.6954"/>
</g>
<!-- Node7 -->
<g id="node8" class="node">
<title>Node7</title>
<polygon fill="#ffffff" stroke="#bfbfbf" points="768.5,-71.5 768.5,-92.5 827.5,-92.5 827.5,-71.5 768.5,-71.5"/>
<text text-anchor="middle" x="798" y="-78.9" font-family="Helvetica,sans-Serif" font-size="12.00" fill="#000000">sstream</text>
</g>
<!-- Node3&#45;&gt;Node7 -->
<g id="edge8" class="edge">
<title>Node3&#45;&gt;Node7</title>
<path fill="none" stroke="#191970" d="M1447.3876,-139.2933C1332.5307,-137.1323 1064.1671,-128.3811 842,-93 840.542,-92.7678 839.0615,-92.5106 837.5697,-92.2333"/>
<polygon fill="#191970" stroke="#191970" points="838.1821,-88.7858 827.6773,-90.1639 836.7487,-95.6374 838.1821,-88.7858"/>
</g>
<!-- Node8 -->
<g id="node9" class="node">
<title>Node8</title>
<polygon fill="#ffffff" stroke="#bfbfbf" points="206,-7 206,-28 268,-28 268,-7 206,-7"/>
<text text-anchor="middle" x="237" y="-14.4" font-family="Helvetica,sans-Serif" font-size="12.00" fill="#000000">iostream</text>
</g>
<!-- Node3&#45;&gt;Node8 -->
<g id="edge9" class="edge">
<title>Node3&#45;&gt;Node8</title>
<path fill="none" stroke="#191970" d="M1447.43,-134.7299C1358.0804,-126.3375 1178.8325,-109.2234 1027,-93 942.0335,-83.9213 921.0071,-79.6905 836,-71 626.5525,-49.5877 375.4039,-28.7129 278.2082,-20.8147"/>
<polygon fill="#191970" stroke="#191970" points="278.4564,-17.3235 268.2062,-20.0037 277.8906,-24.3006 278.4564,-17.3235"/>
</g>
<!-- Node9 -->
<g id="node10" class="node">
<title>Node9</title>
<polygon fill="#ffffff" stroke="#bfbfbf" points="1316.5,-71.5 1316.5,-92.5 1369.5,-92.5 1369.5,-71.5 1316.5,-71.5"/>
<text text-anchor="middle" x="1343" y="-78.9" font-family="Helvetica,sans-Serif" font-size="12.00" fill="#000000">iterator</text>
</g>
<!-- Node3&#45;&gt;Node9 -->
<g id="edge10" class="edge">
<title>Node3&#45;&gt;Node9</title>
<path fill="none" stroke="#191970" d="M1474.8441,-129.4966C1448.0134,-119.8309 1408.1223,-105.4602 1379.2495,-95.0588"/>
<polygon fill="#191970" stroke="#191970" points="1380.1302,-91.656 1369.5358,-91.5595 1377.7577,-98.2417 1380.1302,-91.656"/>
</g>
<!-- Node10 -->
<g id="node11" class="node">
<title>Node10</title>
<polygon fill="#ffffff" stroke="#bfbfbf" points="1388,-71.5 1388,-92.5 1488,-92.5 1488,-71.5 1388,-71.5"/>
<text text-anchor="middle" x="1438" y="-78.9" font-family="Helvetica,sans-Serif" font-size="12.00" fill="#000000">gsl/gsl_vector.h</text>
</g>
<!-- Node3&#45;&gt;Node10 -->
<g id="edge11" class="edge">
<title>Node3&#45;&gt;Node10</title>
<path fill="none" stroke="#191970" d="M1491.8946,-129.3619C1482.3119,-120.9408 1468.7361,-109.0105 1457.6074,-99.2308"/>
<polygon fill="#191970" stroke="#191970" points="1459.8508,-96.5427 1450.0287,-92.5707 1455.2299,-101.8009 1459.8508,-96.5427"/>
</g>
<!-- Node11 -->
<g id="node12" class="node">
<title>Node11</title>
<polygon fill="#ffffff" stroke="#bfbfbf" points="1506,-71.5 1506,-92.5 1606,-92.5 1606,-71.5 1506,-71.5"/>
<text text-anchor="middle" x="1556" y="-78.9" font-family="Helvetica,sans-Serif" font-size="12.00" fill="#000000">gsl/gsl_matrix.h</text>
</g>
<!-- Node3&#45;&gt;Node11 -->
<g id="edge12" class="edge">
<title>Node3&#45;&gt;Node11</title>
<path fill="none" stroke="#191970" d="M1513.5376,-129.3619C1520.8677,-121.1861 1531.1633,-109.7025 1539.7808,-100.0907"/>
<polygon fill="#191970" stroke="#191970" points="1542.4534,-102.3528 1546.5229,-92.5707 1537.2414,-97.68 1542.4534,-102.3528"/>
</g>
<!-- Node12 -->
<g id="node13" class="node">
<title>Node12</title>
<polygon fill="#ffffff" stroke="#bfbfbf" points="1624.5,-71.5 1624.5,-92.5 1721.5,-92.5 1721.5,-71.5 1624.5,-71.5"/>
<text text-anchor="middle" x="1673" y="-78.9" font-family="Helvetica,sans-Serif" font-size="12.00" fill="#000000">gsl/gsl_linalg.h</text>
</g>
<!-- Node3&#45;&gt;Node12 -->
<g id="edge13" class="edge">
<title>Node3&#45;&gt;Node12</title>
<path fill="none" stroke="#191970" d="M1534.6046,-129.4966C1562.0369,-120.082 1602.4756,-106.2036 1632.5644,-95.8773"/>
<polygon fill="#191970" stroke="#191970" points="1634.0157,-99.0797 1642.338,-92.5231 1631.7433,-92.4588 1634.0157,-99.0797"/>
</g>
<!-- Node13 -->
<g id="node14" class="node">
<title>Node13</title>
<polygon fill="#ffffff" stroke="#bfbfbf" points="1740,-71.5 1740,-92.5 1830,-92.5 1830,-71.5 1740,-71.5"/>
<text text-anchor="middle" x="1785" y="-78.9" font-family="Helvetica,sans-Serif" font-size="12.00" fill="#000000">gsl/gsl_blas.h</text>
</g>
<!-- Node3&#45;&gt;Node13 -->
<g id="edge14" class="edge">
<title>Node3&#45;&gt;Node13</title>
<path fill="none" stroke="#191970" d="M1554.887,-129.4966C1604.2617,-119.3054 1678.9772,-103.8837 1729.7741,-93.3989"/>
<polygon fill="#191970" stroke="#191970" points="1730.514,-96.8201 1739.6,-91.3708 1729.0989,-89.9646 1730.514,-96.8201"/>
</g>
<!-- Node14 -->
<g id="node15" class="node">
<title>Node14</title>
<polygon fill="#ffffff" stroke="#bfbfbf" points="1848,-71.5 1848,-92.5 1938,-92.5 1938,-71.5 1848,-71.5"/>
<text text-anchor="middle" x="1893" y="-78.9" font-family="Helvetica,sans-Serif" font-size="12.00" fill="#000000">gsl/gsl_poly.h</text>
</g>
<!-- Node3&#45;&gt;Node14 -->
<g id="edge15" class="edge">
<title>Node3&#45;&gt;Node14</title>
<path fill="none" stroke="#191970" d="M1560.5673,-131.1412C1565.4472,-130.4058 1570.3096,-129.6831 1575,-129 1688.9788,-112.4008 1720.5432,-112.7936 1837.8589,-93.1125"/>
<polygon fill="#191970" stroke="#191970" points="1838.6837,-96.5228 1847.96,-91.4042 1837.5164,-89.6208 1838.6837,-96.5228"/>
</g>
<!-- Node3&#45;&gt;Node15 -->
<g id="edge16" class="edge">
<title>Node3&#45;&gt;Node15</title>
<path fill="none" stroke="#191970" d="M1560.5353,-130.9017C1565.4221,-130.2182 1570.2949,-129.573 1575,-129 1754.3845,-107.1548 1801.9693,-124.0009 1980,-93 1981.2949,-92.7745 1982.6082,-92.5287 1983.9315,-92.2664"/>
<polygon fill="#191970" stroke="#191970" points="1985.129,-95.5856 1994.1293,-89.9957 1983.6076,-88.7529 1985.129,-95.5856"/>
</g>
<!-- Node3&#45;&gt;Node16 -->
<g id="edge18" class="edge">
<title>Node3&#45;&gt;Node16</title>
<path fill="none" stroke="#191970" d="M1447.3771,-138.9898C1206.2933,-134.5716 270.1583,-116.1915 96.4447,-92.4621"/>
<polygon fill="#191970" stroke="#191970" points="96.9606,-89.0004 86.5495,-90.9647 95.9132,-95.9216 96.9606,-89.0004"/>
</g>
<!-- Node19 -->
<g id="node20" class="node">
<title>Node19</title>
<g id="a_node20"><a xlink:href="AstronomicalConstants_8h.html" target="_top" xlink:title="Defines various astronomical constants. ">
<polygon fill="#ffffff" stroke="#000000" points="1036,-71.5 1036,-92.5 1186,-92.5 1186,-71.5 1036,-71.5"/>
<text text-anchor="middle" x="1111" y="-78.9" font-family="Helvetica,sans-Serif" font-size="12.00" fill="#000000">AstronomicalConstants.h</text>
</a>
</g>
</g>
<!-- Node3&#45;&gt;Node19 -->
<g id="edge23" class="edge">
<title>Node3&#45;&gt;Node19</title>
<path fill="none" stroke="#191970" d="M1447.4256,-131.1892C1442.5472,-130.4433 1437.6872,-129.7052 1433,-129 1351.9974,-116.8137 1259.4582,-103.3546 1194.4351,-93.9737"/>
<polygon fill="#191970" stroke="#191970" points="1194.6387,-90.4669 1184.2415,-92.5039 1193.6397,-97.3953 1194.6387,-90.4669"/>
</g>
<!-- Node20 -->
<g id="node21" class="node">
<title>Node20</title>
<g id="a_node21"><a xlink:href="IncludeEigen_8h_source.html" target="_top" xlink:title="IncludeEigen.h">
<polygon fill="#ffffff" stroke="#000000" points="2221.5,-71.5 2221.5,-92.5 2318.5,-92.5 2318.5,-71.5 2221.5,-71.5"/>
<text text-anchor="middle" x="2270" y="-78.9" font-family="Helvetica,sans-Serif" font-size="12.00" fill="#000000">IncludeEigen.h</text>
</a>
</g>
</g>
<!-- Node3&#45;&gt;Node20 -->
<g id="edge24" class="edge">
<title>Node3&#45;&gt;Node20</title>
<path fill="none" stroke="#191970" d="M1560.6635,-135.9326C1671.2858,-127.9595 1923.7497,-109.6037 2136,-93 2160.6296,-91.0733 2187.7978,-88.8595 2211.1957,-86.9254"/>
<polygon fill="#191970" stroke="#191970" points="2211.6382,-90.4008 2221.315,-86.087 2211.0601,-83.4247 2211.6382,-90.4008"/>
</g>
<!-- Node16&#45;&gt;Node1 -->
<g id="edge19" class="edge">
<title>Node16&#45;&gt;Node1</title>
<path fill="none" stroke="#191970" d="M86.565,-73.1244C89.7188,-72.2969 92.9135,-71.5601 96,-71 239.9633,-44.8746 667.6873,-27.3051 857.9499,-20.5722"/>
<polygon fill="#191970" stroke="#191970" points="858.3365,-24.0608 868.2073,-20.2115 858.0904,-17.0651 858.3365,-24.0608"/>
</g>
<!-- Node16&#45;&gt;Node8 -->
<g id="edge20" class="edge">
<title>Node16&#45;&gt;Node8</title>
<path fill="none" stroke="#191970" d="M86.8825,-72.2038C116.6335,-61.3624 164.8277,-43.8001 198.5615,-31.5073"/>
<polygon fill="#191970" stroke="#191970" points="199.8997,-34.7448 208.097,-28.0325 197.503,-28.1679 199.8997,-34.7448"/>
</g>
<!-- Node17 -->
<g id="node18" class="node">
<title>Node17</title>
<polygon fill="#ffffff" stroke="#bfbfbf" points="64,-7 64,-28 132,-28 132,-7 64,-7"/>
<text text-anchor="middle" x="98" y="-14.4" font-family="Helvetica,sans-Serif" font-size="12.00" fill="#000000">exception</text>
</g>
<!-- Node16&#45;&gt;Node17 -->
<g id="edge21" class="edge">
<title>Node16&#45;&gt;Node17</title>
<path fill="none" stroke="#191970" d="M66.2749,-71.3491C71.7426,-62.0685 79.8123,-48.3712 86.4445,-37.114"/>
<polygon fill="#191970" stroke="#191970" points="89.5282,-38.7748 91.5887,-28.3823 83.4971,-35.2216 89.5282,-38.7748"/>
</g>
<!-- Node18 -->
<g id="node19" class="node">
<title>Node18</title>
<polygon fill="#ffffff" stroke="#bfbfbf" points="0,-7 0,-28 46,-28 46,-7 0,-7"/>
<text text-anchor="middle" x="23" y="-14.4" font-family="Helvetica,sans-Serif" font-size="12.00" fill="#000000">string</text>
</g>
<!-- Node16&#45;&gt;Node18 -->
<g id="edge22" class="edge">
<title>Node16&#45;&gt;Node18</title>
<path fill="none" stroke="#191970" d="M53.8902,-71.3491C48.5664,-62.0685 40.7091,-48.3712 34.2514,-37.114"/>
<polygon fill="#191970" stroke="#191970" points="37.2544,-35.3149 29.2425,-28.3823 31.1825,-38.798 37.2544,-35.3149"/>
</g>
<!-- Node21 -->
<g id="node22" class="node">
<title>Node21</title>
<polygon fill="#ffffff" stroke="#bfbfbf" points="2227,-7 2227,-28 2313,-28 2313,-7 2227,-7"/>
<text text-anchor="middle" x="2270" y="-14.4" font-family="Helvetica,sans-Serif" font-size="12.00" fill="#000000">Eigen/Dense</text>
</g>
<!-- Node20&#45;&gt;Node21 -->
<g id="edge25" class="edge">
<title>Node20&#45;&gt;Node21</title>
<path fill="none" stroke="#191970" d="M2270,-71.3491C2270,-62.4397 2270,-49.4599 2270,-38.4761"/>
<polygon fill="#191970" stroke="#191970" points="2273.5001,-38.3822 2270,-28.3823 2266.5001,-38.3823 2273.5001,-38.3822"/>
</g>
<!-- Node22&#45;&gt;Node1 -->
<g id="edge28" class="edge">
<title>Node22&#45;&gt;Node1</title>
<path fill="none" stroke="#191970" d="M1578.7089,-382.6677C1327.035,-372.0519 332,-326.0614 332,-262.5 332,-262.5 332,-262.5 332,-198 332,-140.8599 273.3181,-113.0559 312,-71 348.1889,-31.6545 689.7957,-21.233 858.1393,-18.4817"/>
<polygon fill="#191970" stroke="#191970" points="858.2918,-21.9799 868.2354,-18.3226 858.1814,-14.9807 858.2918,-21.9799"/>
</g>
<!-- Node22&#45;&gt;Node3 -->
<g id="edge77" class="edge">
<title>Node22&#45;&gt;Node3</title>
<path fill="none" stroke="#191970" d="M1630.8593,-374.3558C1619.4348,-350.816 1590.8967,-292.6501 1565,-245 1548.5004,-214.6406 1528.1244,-180.1164 1515.5986,-159.2043"/>
<polygon fill="#191970" stroke="#191970" points="1518.5893,-157.386 1510.438,-150.6178 1512.5895,-160.9919 1518.5893,-157.386"/>
</g>
<!-- Node22&#45;&gt;Node5 -->
<g id="edge78" class="edge">
<title>Node22&#45;&gt;Node5</title>
<path fill="none" stroke="#191970" d="M1693.0603,-382.1615C1874.2974,-372.3945 2425,-336.6186 2425,-262.5 2425,-262.5 2425,-262.5 2425,-198 2425,-166.1919 2429.7762,-150.1292 2406,-129 2386.13,-111.3421 2215.6368,-93.1792 2136.7476,-85.63"/>
<polygon fill="#191970" stroke="#191970" points="2136.9831,-82.1368 2126.6976,-84.6784 2136.3231,-89.1056 2136.9831,-82.1368"/>
</g>
<!-- Node22&#45;&gt;Node15 -->
<g id="edge79" class="edge">
<title>Node22&#45;&gt;Node15</title>
<path fill="none" stroke="#191970" d="M1693.2252,-374.948C1784.2877,-357.3064 1952,-317.3675 1952,-262.5 1952,-262.5 1952,-262.5 1952,-198 1952,-158.4066 1982.2644,-120.7286 2002.9935,-99.5654"/>
<polygon fill="#191970" stroke="#191970" points="2005.4558,-102.0528 2010.1255,-92.5426 2000.5443,-97.065 2005.4558,-102.0528"/>
</g>
<!-- Node22&#45;&gt;Node19 -->
<g id="edge76" class="edge">
<title>Node22&#45;&gt;Node19</title>
<path fill="none" stroke="#191970" d="M1626.8248,-374.2079C1604.7772,-348.8151 1546.17,-284.4627 1486,-245 1375.5885,-172.5862 1227.657,-119.3516 1155.0135,-95.6536"/>
<polygon fill="#191970" stroke="#191970" points="1155.8664,-92.251 1145.2746,-92.5068 1153.7141,-98.9119 1155.8664,-92.251"/>
</g>
<!-- Node23 -->
<g id="node24" class="node">
<title>Node23</title>
<g id="a_node24"><a xlink:href="DissipatingZone_8h.html" target="_top" xlink:title="Declares a class representing one zone of a body dissipative to tidal distortions. ">
<polygon fill="#ffffff" stroke="#000000" points="1330,-316.5 1330,-337.5 1444,-337.5 1444,-316.5 1330,-316.5"/>
<text text-anchor="middle" x="1387" y="-323.9" font-family="Helvetica,sans-Serif" font-size="12.00" fill="#000000">DissipatingZone.h</text>
</a>
</g>
</g>
<!-- Node22&#45;&gt;Node23 -->
<g id="edge29" class="edge">
<title>Node22&#45;&gt;Node23</title>
<path fill="none" stroke="#191970" d="M1590.908,-374.4966C1549.0841,-364.7545 1486.7408,-350.2328 1442.0075,-339.813"/>
<polygon fill="#191970" stroke="#191970" points="1442.7099,-336.383 1432.1766,-337.5231 1441.1218,-343.2005 1442.7099,-336.383"/>
</g>
<!-- Node39 -->
<g id="node40" class="node">
<title>Node39</title>
<g id="a_node40"><a xlink:href="OrbitalExpressions_8h.html" target="_top" xlink:title="A collection of functions which calculate various quantities for two body orbits. ...">
<polygon fill="#ffffff" stroke="#000000" points="700,-129.5 700,-150.5 866,-150.5 866,-129.5 700,-129.5"/>
<text text-anchor="middle" x="783" y="-136.9" font-family="Helvetica,sans-Serif" font-size="12.00" fill="#000000">../Core/OrbitalExpressions.h</text>
</a>
</g>
</g>
<!-- Node22&#45;&gt;Node39 -->
<g id="edge72" class="edge">
<title>Node22&#45;&gt;Node39</title>
<path fill="none" stroke="#191970" d="M1578.7133,-382.733C1409.8464,-375.3209 916.8691,-348.2398 773,-280 725.2748,-257.363 672.2816,-232.5659 699,-187 707.6099,-172.3165 722.6667,-161.877 737.6771,-154.6288"/>
<polygon fill="#191970" stroke="#191970" points="739.2325,-157.7679 746.9591,-150.5188 736.3983,-151.3673 739.2325,-157.7679"/>
</g>
<!-- Node23&#45;&gt;Node1 -->
<g id="edge38" class="edge">
<title>Node23&#45;&gt;Node1</title>
<path fill="none" stroke="#191970" d="M1424.9317,-316.4938C1574.1583,-274.9916 2113.7571,-123.2522 2136,-93 2141.792,-85.1224 2142.7562,-78.0681 2136,-71 2098.4402,-31.7062 1316.6087,-20.8353 1043.8744,-18.2325"/>
<polygon fill="#191970" stroke="#191970" points="1043.6412,-14.7303 1033.6087,-18.1362 1043.5754,-21.73 1043.6412,-14.7303"/>
</g>
<!-- Node23&#45;&gt;Node3 -->
<g id="edge69" class="edge">
<title>Node23&#45;&gt;Node3</title>
<path fill="none" stroke="#191970" d="M1409.7338,-316.3856C1424.7673,-308.3194 1443.8702,-295.9043 1456,-280 1483.7869,-243.5665 1496.1531,-189.9576 1501.0991,-160.781"/>
<polygon fill="#191970" stroke="#191970" points="1504.6118,-160.971 1502.6952,-150.5509 1497.6954,-159.8918 1504.6118,-160.971"/>
</g>
<!-- Node23&#45;&gt;Node5 -->
<g id="edge70" class="edge">
<title>Node23&#45;&gt;Node5</title>
<path fill="none" stroke="#191970" d="M1417.5078,-316.4727C1531.2162,-277.2353 1930.3492,-139.5063 2057.6619,-95.5744"/>
<polygon fill="#191970" stroke="#191970" points="2059.0848,-98.786 2067.3961,-92.2154 2056.8014,-92.1689 2059.0848,-98.786"/>
</g>
<!-- Node23&#45;&gt;Node16 -->
<g id="edge39" class="edge">
<title>Node23&#45;&gt;Node16</title>
<path fill="none" stroke="#191970" d="M1329.8436,-325.755C1173.0864,-321.9963 738.7742,-309.18 599,-280 398.3224,-238.1055 172.2492,-135.7549 91.0703,-97.1081"/>
<polygon fill="#191970" stroke="#191970" points="92.4313,-93.8793 81.9002,-92.7192 89.4093,-100.1934 92.4313,-93.8793"/>
</g>
<!-- Node24 -->
<g id="node25" class="node">
<title>Node24</title>
<g id="a_node25"><a xlink:href="ZoneOrientation_8h.html" target="_top" xlink:title="Declares a class for orientations of zones of DissipatingBody objects. ">
<polygon fill="#ffffff" stroke="#000000" points="2134.5,-187.5 2134.5,-208.5 2247.5,-208.5 2247.5,-187.5 2134.5,-187.5"/>
<text text-anchor="middle" x="2191" y="-194.9" font-family="Helvetica,sans-Serif" font-size="12.00" fill="#000000">ZoneOrientation.h</text>
</a>
</g>
</g>
<!-- Node23&#45;&gt;Node24 -->
<g id="edge30" class="edge">
<title>Node23&#45;&gt;Node24</title>
<path fill="none" stroke="#191970" d="M1444.1772,-317.8261C1588.9261,-294.6014 1969.3262,-233.5671 2124.0785,-208.7374"/>
<polygon fill="#191970" stroke="#191970" points="2125.0635,-212.1242 2134.3827,-207.0841 2123.9545,-205.2126 2125.0635,-212.1242"/>
</g>
<!-- Node25 -->
<g id="node26" class="node">
<title>Node25</title>
<g id="a_node26"><a xlink:href="DissipationQuantities_8h.html" target="_top" xlink:title="Declaration of enumerations of dissipation quantities and derivatives. ">
<polygon fill="#ffffff" stroke="#000000" points="2257,-129.5 2257,-150.5 2397,-150.5 2397,-129.5 2257,-129.5"/>
<text text-anchor="middle" x="2327" y="-136.9" font-family="Helvetica,sans-Serif" font-size="12.00" fill="#000000">DissipationQuantities.h</text>
</a>
</g>
</g>
<!-- Node23&#45;&gt;Node25 -->
<g id="edge55" class="edge">
<title>Node23&#45;&gt;Node25</title>
<path fill="none" stroke="#191970" d="M1444.2782,-324.0837C1614.3078,-314.6758 2113.2167,-281.4353 2257,-209 2280.2738,-197.2751 2300.691,-174.9836 2313.3771,-158.9053"/>
<polygon fill="#191970" stroke="#191970" points="2316.3345,-160.7982 2319.5986,-150.7187 2310.7613,-156.5627 2316.3345,-160.7982"/>
</g>
<!-- Node27 -->
<g id="node28" class="node">
<title>Node27</title>
<g id="a_node28"><a xlink:href="TidalPotentialTerms_8h.html" target="_top" xlink:title="Declare an interface for evaluating the expansion of the tidal potential. ">
<polygon fill="#ffffff" stroke="#000000" points="708,-187.5 708,-208.5 842,-208.5 842,-187.5 708,-187.5"/>
<text text-anchor="middle" x="775" y="-194.9" font-family="Helvetica,sans-Serif" font-size="12.00" fill="#000000">TidalPotentialTerms.h</text>
</a>
</g>
</g>
<!-- Node23&#45;&gt;Node27 -->
<g id="edge40" class="edge">
<title>Node23&#45;&gt;Node27</title>
<path fill="none" stroke="#191970" d="M1329.7745,-326.2472C1188.9373,-323.8682 834.0273,-314.4812 794,-280 776.6927,-265.0908 773.4376,-237.8146 773.5266,-218.8338"/>
<polygon fill="#191970" stroke="#191970" points="777.0267,-218.8911 773.8846,-208.7729 770.0311,-218.6421 777.0267,-218.8911"/>
</g>
<!-- Node34 -->
<g id="node35" class="node">
<title>Node34</title>
<g id="a_node35"><a xlink:href="SpinOrbitLockInfo_8h.html" target="_top" xlink:title="Defines the SpinOrbitLockInfo class. ">
<polygon fill="#ffffff" stroke="#000000" points="105,-71.5 105,-92.5 227,-92.5 227,-71.5 105,-71.5"/>
<text text-anchor="middle" x="166" y="-78.9" font-family="Helvetica,sans-Serif" font-size="12.00" fill="#000000">SpinOrbitLockInfo.h</text>
</a>
</g>
</g>
<!-- Node23&#45;&gt;Node34 -->
<g id="edge56" class="edge">
<title>Node23&#45;&gt;Node34</title>
<path fill="none" stroke="#191970" d="M1329.7828,-324.0856C1198.5484,-317.1634 879.0407,-298.8946 773,-280 566.0667,-243.128 515.3626,-223.3113 318,-151 274.539,-135.0764 226.1439,-112.1647 195.8878,-97.1824"/>
<polygon fill="#191970" stroke="#191970" points="197.2419,-93.9467 186.731,-92.6156 194.1177,-100.2108 197.2419,-93.9467"/>
</g>
<!-- Node35 -->
<g id="node36" class="node">
<title>Node35</title>
<g id="a_node36"><a xlink:href="CombinedStoppingCondition_8h.html" target="_top" xlink:title="Declares a class for a stopping condition that combines other stopping conditions. ">
<polygon fill="#ffffff" stroke="#000000" points="803,-252 803,-273 985,-273 985,-252 803,-252"/>
<text text-anchor="middle" x="894" y="-259.4" font-family="Helvetica,sans-Serif" font-size="12.00" fill="#000000">CombinedStoppingCondition.h</text>
</a>
</g>
</g>
<!-- Node23&#45;&gt;Node35 -->
<g id="edge59" class="edge">
<title>Node23&#45;&gt;Node35</title>
<path fill="none" stroke="#191970" d="M1329.924,-321.1554C1253.3348,-313.0885 1113.1401,-297.5357 994,-280 983.3198,-278.428 972.0258,-276.6065 961.0231,-274.7448"/>
<polygon fill="#191970" stroke="#191970" points="961.4743,-271.2711 951.0264,-273.0298 960.2906,-278.1704 961.4743,-271.2711"/>
</g>
<!-- Node36 -->
<g id="node37" class="node">
<title>Node36</title>
<g id="a_node37"><a xlink:href="BreakLockCondition_8h.html" target="_top" xlink:title="Declares a class for a stopping condition monitoring when a locked zone loses the lock...">
<polygon fill="#ffffff" stroke="#000000" points="1003.5,-252 1003.5,-273 1138.5,-273 1138.5,-252 1003.5,-252"/>
<text text-anchor="middle" x="1071" y="-259.4" font-family="Helvetica,sans-Serif" font-size="12.00" fill="#000000">BreakLockCondition.h</text>
</a>
</g>
</g>
<!-- Node23&#45;&gt;Node36 -->
<g id="edge63" class="edge">
<title>Node23&#45;&gt;Node36</title>
<path fill="none" stroke="#191970" d="M1330.8886,-316.4467C1282.3945,-307.2111 1210.4673,-293.2378 1148,-280 1140.9927,-278.515 1133.6382,-276.9072 1126.37,-275.2886"/>
<polygon fill="#191970" stroke="#191970" points="1127.0771,-271.8603 1116.5533,-273.0852 1125.544,-278.6904 1127.0771,-271.8603"/>
</g>
<!-- Node37 -->
<g id="node38" class="node">
<title>Node37</title>
<g id="a_node38"><a xlink:href="SynchronizedCondition_8h.html" target="_top" xlink:title="Declares a stopping condition monitoring spin&#45;orbit synchronization. ">
<polygon fill="#ffffff" stroke="#000000" points="1157,-252 1157,-273 1309,-273 1309,-252 1157,-252"/>
<text text-anchor="middle" x="1233" y="-259.4" font-family="Helvetica,sans-Serif" font-size="12.00" fill="#000000">SynchronizedCondition.h</text>
</a>
</g>
</g>
<!-- Node23&#45;&gt;Node37 -->
<g id="edge66" class="edge">
<title>Node23&#45;&gt;Node37</title>
<path fill="none" stroke="#191970" d="M1361.9145,-316.4934C1336.1857,-305.7174 1295.982,-288.8788 1267.3163,-276.8727"/>
<polygon fill="#191970" stroke="#191970" points="1268.6506,-273.637 1258.0748,-273.0021 1265.9463,-280.0936 1268.6506,-273.637"/>
</g>
<!-- Node38 -->
<g id="node39" class="node">
<title>Node38</title>
<polygon fill="#ffffff" stroke="#bfbfbf" points="1327,-245.5 1327,-279.5 1447,-279.5 1447,-245.5 1327,-245.5"/>
<text text-anchor="start" x="1335" y="-265.9" font-family="Helvetica,sans-Serif" font-size="12.00" fill="#000000">boost/math/special</text>
<text text-anchor="middle" x="1387" y="-252.9" font-family="Helvetica,sans-Serif" font-size="12.00" fill="#000000">_functions/sign.hpp</text>
</g>
<!-- Node23&#45;&gt;Node38 -->
<g id="edge71" class="edge">
<title>Node23&#45;&gt;Node38</title>
<path fill="none" stroke="#191970" d="M1387,-316.3491C1387,-309.122 1387,-299.2164 1387,-289.8706"/>
<polygon fill="#191970" stroke="#191970" points="1390.5001,-289.7292 1387,-279.7292 1383.5001,-289.7292 1390.5001,-289.7292"/>
</g>
<!-- Node24&#45;&gt;Node1 -->
<g id="edge31" class="edge">
<title>Node24&#45;&gt;Node1</title>
<path fill="none" stroke="#191970" d="M2193.0062,-187.4172C2197.0142,-162.6694 2202.9355,-100.8589 2169,-71 2126.9375,-33.9903 1321.0731,-21.6019 1043.7906,-18.4253"/>
<polygon fill="#191970" stroke="#191970" points="1043.7943,-14.9252 1033.7553,-18.3117 1043.715,-21.9247 1043.7943,-14.9252"/>
</g>
<!-- Node24&#45;&gt;Node3 -->
<g id="edge36" class="edge">
<title>Node24&#45;&gt;Node3</title>
<path fill="none" stroke="#191970" d="M2134.488,-193.229C2008.7342,-182.6122 1706.249,-157.0749 1571.1462,-145.6688"/>
<polygon fill="#191970" stroke="#191970" points="1571.1929,-142.1604 1560.9339,-144.8066 1570.604,-149.1356 1571.1929,-142.1604"/>
</g>
<!-- Node24&#45;&gt;Node20 -->
<g id="edge37" class="edge">
<title>Node24&#45;&gt;Node20</title>
<path fill="none" stroke="#191970" d="M2198.2905,-187.2949C2211.6355,-167.6998 2240.1572,-125.8198 2256.9301,-101.1913"/>
<polygon fill="#191970" stroke="#191970" points="2259.991,-102.9147 2262.7271,-92.6792 2254.2052,-98.9744 2259.991,-102.9147"/>
</g>
<!-- Node24&#45;&gt;Node25 -->
<g id="edge32" class="edge">
<title>Node24&#45;&gt;Node25</title>
<path fill="none" stroke="#191970" d="M2215.6286,-187.4966C2237.1571,-178.3154 2268.6398,-164.8889 2292.6446,-154.6516"/>
<polygon fill="#191970" stroke="#191970" points="2294.2697,-157.7636 2302.0951,-150.6212 2291.5236,-151.3247 2294.2697,-157.7636"/>
</g>
<!-- Node25&#45;&gt;Node1 -->
<g id="edge33" class="edge">
<title>Node25&#45;&gt;Node1</title>
<path fill="none" stroke="#191970" d="M2331.1648,-129.4762C2336.382,-114.3405 2342.9497,-86.5418 2328,-71 2305.7074,-47.8245 1349.1012,-25.8313 1043.6873,-19.3892"/>
<polygon fill="#191970" stroke="#191970" points="1043.6063,-15.8869 1033.5349,-19.1758 1043.4591,-22.8853 1043.6063,-15.8869"/>
</g>
<!-- Node25&#45;&gt;Node15 -->
<g id="edge35" class="edge">
<title>Node25&#45;&gt;Node15</title>
<path fill="none" stroke="#191970" d="M2256.8602,-129.9668C2204.8635,-122.007 2132.1291,-109.7808 2059.5597,-92.9329"/>
<polygon fill="#191970" stroke="#191970" points="2060.3236,-89.5171 2049.788,-90.6356 2058.7216,-96.3313 2060.3236,-89.5171"/>
</g>
<!-- Node26 -->
<g id="node27" class="node">
<title>Node26</title>
<polygon fill="#ffffff" stroke="#bfbfbf" points="2375.5,-71.5 2375.5,-92.5 2434.5,-92.5 2434.5,-71.5 2375.5,-71.5"/>
<text text-anchor="middle" x="2405" y="-78.9" font-family="Helvetica,sans-Serif" font-size="12.00" fill="#000000">ostream</text>
</g>
<!-- Node25&#45;&gt;Node26 -->
<g id="edge34" class="edge">
<title>Node25&#45;&gt;Node26</title>
<path fill="none" stroke="#191970" d="M2341.3064,-129.3619C2352.8512,-120.7773 2369.3004,-108.5459 2382.5904,-98.6636"/>
<polygon fill="#191970" stroke="#191970" points="2384.8481,-101.3463 2390.7843,-92.5707 2380.6712,-95.7291 2384.8481,-101.3463"/>
</g>
<!-- Node27&#45;&gt;Node3 -->
<g id="edge54" class="edge">
<title>Node27&#45;&gt;Node3</title>
<path fill="none" stroke="#191970" d="M842.2759,-192.6475C981.2015,-181.5944 1298.3684,-156.3603 1437.0311,-145.3281"/>
<polygon fill="#191970" stroke="#191970" points="1437.4094,-148.8092 1447.1002,-144.527 1436.8541,-141.8312 1437.4094,-148.8092"/>
</g>
<!-- Node27&#45;&gt;Node5 -->
<g id="edge42" class="edge">
<title>Node27&#45;&gt;Node5</title>
<path fill="none" stroke="#191970" d="M842.1545,-195.7796C1007.2845,-190.0372 1429.7924,-173.5542 1569,-151 1606.2476,-144.9652 1613.8434,-135.572 1651,-129 1827.017,-97.8671 1878.2227,-125.4313 2057.2477,-93.0486"/>
<polygon fill="#191970" stroke="#191970" points="2058.0625,-96.4574 2067.2607,-91.1996 2056.7913,-89.5738 2058.0625,-96.4574"/>
</g>
<!-- Node28 -->
<g id="node29" class="node">
<title>Node28</title>
<polygon fill="#ffffff" stroke="#bfbfbf" points="662.5,-71.5 662.5,-92.5 711.5,-92.5 711.5,-71.5 662.5,-71.5"/>
<text text-anchor="middle" x="687" y="-78.9" font-family="Helvetica,sans-Serif" font-size="12.00" fill="#000000">cmath</text>
</g>
<!-- Node27&#45;&gt;Node28 -->
<g id="edge41" class="edge">
<title>Node27&#45;&gt;Node28</title>
<path fill="none" stroke="#191970" d="M739.8012,-187.4082C722.0461,-180.1402 701.9945,-168.5643 691,-151 682.0708,-136.7352 681.7248,-117.3906 683.2374,-102.8137"/>
<polygon fill="#191970" stroke="#191970" points="686.7247,-103.1477 684.6449,-92.759 679.7923,-102.1772 686.7247,-103.1477"/>
</g>
<!-- Node29 -->
<g id="node30" class="node">
<title>Node29</title>
<g id="a_node30"><a xlink:href="EccentricityExpansionCoefficients_8h.html" target="_top" xlink:title="Declares a class which provides the [ &#160;coefficients]{InclinationEccentricity_pms1}. ">
<polygon fill="#ffffff" stroke="#000000" points="360,-129.5 360,-150.5 568,-150.5 568,-129.5 360,-129.5"/>
<text text-anchor="middle" x="464" y="-136.9" font-family="Helvetica,sans-Serif" font-size="12.00" fill="#000000">EccentricityExpansionCoefficients.h</text>
</a>
</g>
</g>
<!-- Node27&#45;&gt;Node29 -->
<g id="edge43" class="edge">
<title>Node27&#45;&gt;Node29</title>
<path fill="none" stroke="#191970" d="M718.6802,-187.4966C665.784,-177.6317 586.6087,-162.8659 530.6019,-152.4209"/>
<polygon fill="#191970" stroke="#191970" points="530.8976,-148.9158 520.4254,-150.5231 529.6142,-155.7972 530.8976,-148.9158"/>
</g>
<!-- Node29&#45;&gt;Node1 -->
<g id="edge44" class="edge">
<title>Node29&#45;&gt;Node1</title>
<path fill="none" stroke="#191970" d="M483.0607,-129.4395C500.1154,-119.9655 525.7797,-105.6477 548,-93 564.9602,-83.3464 567.5708,-77.4191 586,-71 634.8229,-53.9946 767.235,-37.1599 858.3862,-27.0441"/>
<polygon fill="#191970" stroke="#191970" points="858.8999,-30.5088 868.4567,-25.9352 858.1337,-23.5509 858.8999,-30.5088"/>
</g>
<!-- Node29&#45;&gt;Node7 -->
<g id="edge51" class="edge">
<title>Node29&#45;&gt;Node7</title>
<path fill="none" stroke="#191970" d="M524.4849,-129.4966C592.406,-117.7019 700.6715,-98.9014 758.5177,-88.8562"/>
<polygon fill="#191970" stroke="#191970" points="759.1186,-92.3043 768.3723,-87.1449 757.9209,-85.4075 759.1186,-92.3043"/>
</g>
<!-- Node29&#45;&gt;Node8 -->
<g id="edge50" class="edge">
<title>Node29&#45;&gt;Node8</title>
<path fill="none" stroke="#191970" d="M407.4471,-129.4574C377.5841,-122.2237 341.183,-110.6643 312,-93 287.3689,-78.091 264.9336,-53.3561 251.148,-36.2828"/>
<polygon fill="#191970" stroke="#191970" points="253.6889,-33.8512 244.7617,-28.1455 248.1823,-38.1729 253.6889,-33.8512"/>
</g>
<!-- Node29&#45;&gt;Node15 -->
<g id="edge52" class="edge">
<title>Node29&#45;&gt;Node15</title>
<path fill="none" stroke="#191970" d="M568.2316,-134.5165C606.7959,-132.6017 650.8834,-130.5468 691,-129 1249.0368,-107.484 1390.6675,-141.6027 1947,-93 1959.1679,-91.937 1972.371,-90.1989 1984.2593,-88.415"/>
<polygon fill="#191970" stroke="#191970" points="1984.9661,-91.8472 1994.3091,-86.8513 1983.8899,-84.9304 1984.9661,-91.8472"/>
</g>
<!-- Node29&#45;&gt;Node16 -->
<g id="edge45" class="edge">
<title>Node29&#45;&gt;Node16</title>
<path fill="none" stroke="#191970" d="M359.703,-131.4316C288.12,-124.4377 190.9112,-112.7537 96.6042,-92.8258"/>
<polygon fill="#191970" stroke="#191970" points="97.1159,-89.3559 86.604,-90.6789 95.6465,-96.2 97.1159,-89.3559"/>
</g>
<!-- Node29&#45;&gt;Node28 -->
<g id="edge49" class="edge">
<title>Node29&#45;&gt;Node28</title>
<path fill="none" stroke="#191970" d="M510.0652,-129.4854C546.3048,-121.0015 598.263,-108.3727 652.4053,-93.0402"/>
<polygon fill="#191970" stroke="#191970" points="653.5237,-96.3608 662.1783,-90.2495 651.6016,-89.6299 653.5237,-96.3608"/>
</g>
<!-- Node29&#45;&gt;Node30 -->
<g id="edge46" class="edge">
<title>Node29&#45;&gt;Node30</title>
<path fill="none" stroke="#191970" d="M492.2504,-129.4966C518.562,-119.7141 557.8362,-105.1122 585.8858,-94.6835"/>
<polygon fill="#191970" stroke="#191970" points="587.1461,-97.9491 595.2995,-91.1835 584.7066,-91.3879 587.1461,-97.9491"/>
</g>
<!-- Node31 -->
<g id="node32" class="node">
<title>Node31</title>
<polygon fill="#ffffff" stroke="#bfbfbf" points="321,-71.5 321,-92.5 377,-92.5 377,-71.5 321,-71.5"/>
<text text-anchor="middle" x="349" y="-78.9" font-family="Helvetica,sans-Serif" font-size="12.00" fill="#000000">fstream</text>
</g>
<!-- Node29&#45;&gt;Node31 -->
<g id="edge47" class="edge">
<title>Node29&#45;&gt;Node31</title>
<path fill="none" stroke="#191970" d="M443.1744,-129.4966C425.2937,-120.4786 399.2926,-107.3649 379.139,-97.2006"/>
<polygon fill="#191970" stroke="#191970" points="380.5641,-93.9994 370.0593,-92.6212 377.4119,-100.2495 380.5641,-93.9994"/>
</g>
<!-- Node32 -->
<g id="node33" class="node">
<title>Node32</title>
<polygon fill="#ffffff" stroke="#bfbfbf" points="395.5,-71.5 395.5,-92.5 454.5,-92.5 454.5,-71.5 395.5,-71.5"/>
<text text-anchor="middle" x="425" y="-78.9" font-family="Helvetica,sans-Serif" font-size="12.00" fill="#000000">iomanip</text>
</g>
<!-- Node29&#45;&gt;Node32 -->
<g id="edge48" class="edge">
<title>Node29&#45;&gt;Node32</title>
<path fill="none" stroke="#191970" d="M456.8468,-129.3619C451.5142,-121.4313 444.0888,-110.3885 437.7494,-100.9606"/>
<polygon fill="#191970" stroke="#191970" points="440.5923,-98.9161 432.1079,-92.5707 434.7834,-102.8221 440.5923,-98.9161"/>
</g>
<!-- Node33 -->
<g id="node34" class="node">
<title>Node33</title>
<polygon fill="#ffffff" stroke="#bfbfbf" points="473,-71.5 473,-92.5 539,-92.5 539,-71.5 473,-71.5"/>
<text text-anchor="middle" x="506" y="-78.9" font-family="Helvetica,sans-Serif" font-size="12.00" fill="#000000">algorithm</text>
</g>
<!-- Node29&#45;&gt;Node33 -->
<g id="edge53" class="edge">
<title>Node29&#45;&gt;Node33</title>
<path fill="none" stroke="#191970" d="M471.7034,-129.3619C477.4463,-121.4313 485.4428,-110.3885 492.2699,-100.9606"/>
<polygon fill="#191970" stroke="#191970" points="495.3151,-102.7229 498.3454,-92.5707 489.6454,-98.6173 495.3151,-102.7229"/>
</g>
<!-- Node34&#45;&gt;Node1 -->
<g id="edge57" class="edge">
<title>Node34&#45;&gt;Node1</title>
<path fill="none" stroke="#191970" d="M227.3495,-72.6429C231.964,-72.0492 236.5528,-71.4931 241,-71 461.6228,-46.5395 722.0779,-30.0709 857.9302,-22.4177"/>
<polygon fill="#191970" stroke="#191970" points="858.5027,-25.8912 868.2913,-21.8375 858.1113,-18.9022 858.5027,-25.8912"/>
</g>
<!-- Node34&#45;&gt;Node8 -->
<g id="edge58" class="edge">
<title>Node34&#45;&gt;Node8</title>
<path fill="none" stroke="#191970" d="M177.7242,-71.3491C188.5531,-61.5116 204.8445,-46.7117 217.6093,-35.1155"/>
<polygon fill="#191970" stroke="#191970" points="219.9727,-37.6971 225.0211,-28.3823 215.2658,-32.5158 219.9727,-37.6971"/>
</g>
<!-- Node35&#45;&gt;Node1 -->
<g id="edge60" class="edge">
<title>Node35&#45;&gt;Node1</title>
<path fill="none" stroke="#191970" d="M893.7726,-251.7603C893.4729,-222.0704 894.8443,-136.7346 918,-71 921.3907,-61.3744 926.7078,-51.6421 932.0913,-43.1655"/>
<polygon fill="#191970" stroke="#191970" points="935.0056,-45.1037 937.6476,-34.8436 929.1839,-41.2167 935.0056,-45.1037"/>
</g>
<!-- Node35&#45;&gt;Node2 -->
<g id="edge61" class="edge">
<title>Node35&#45;&gt;Node2</title>
<path fill="none" stroke="#191970" d="M949.2207,-251.9934C1009.0586,-240.6083 1104.4639,-222.456 1167.9057,-210.3852"/>
<polygon fill="#191970" stroke="#191970" points="1168.6334,-213.8096 1177.8029,-208.5021 1167.325,-206.933 1168.6334,-213.8096"/>
</g>
<!-- Node35&#45;&gt;Node30 -->
<g id="edge62" class="edge">
<title>Node35&#45;&gt;Node30</title>
<path fill="none" stroke="#191970" d="M838.5031,-251.9815C788.99,-241.7643 721.0162,-225.4279 699,-209 661.908,-181.323 638.1716,-130.6257 627.173,-102.3776"/>
<polygon fill="#191970" stroke="#191970" points="630.3543,-100.8914 623.5801,-92.7451 623.7957,-103.3378 630.3543,-100.8914"/>
</g>
<!-- Node36&#45;&gt;Node1 -->
<g id="edge64" class="edge">
<title>Node36&#45;&gt;Node1</title>
<path fill="none" stroke="#191970" d="M1020.3909,-251.9504C996.6718,-244.2283 970.4972,-231.0921 956,-209 923.0031,-158.7164 934.1296,-83.9138 943.5071,-44.3249"/>
<polygon fill="#191970" stroke="#191970" points="946.9088,-45.149 945.9465,-34.598 940.119,-43.4462 946.9088,-45.149"/>
</g>
<!-- Node36&#45;&gt;Node2 -->
<g id="edge65" class="edge">
<title>Node36&#45;&gt;Node2</title>
<path fill="none" stroke="#191970" d="M1097.3886,-251.9934C1124.5717,-241.1705 1167.1142,-224.2323 1197.2937,-212.2164"/>
<polygon fill="#191970" stroke="#191970" points="1198.6266,-215.453 1206.6226,-208.5021 1196.0373,-208.9495 1198.6266,-215.453"/>
</g>
<!-- Node37&#45;&gt;Node1 -->
<g id="edge67" class="edge">
<title>Node37&#45;&gt;Node1</title>
<path fill="none" stroke="#191970" d="M1213.4005,-251.9124C1170.4326,-227.998 1066.3357,-166.1518 998,-93 984.2964,-78.3306 972.3892,-59.0875 963.9884,-43.7001"/>
<polygon fill="#191970" stroke="#191970" points="966.9944,-41.8974 959.2261,-34.693 960.8061,-45.1693 966.9944,-41.8974"/>
</g>
<!-- Node37&#45;&gt;Node2 -->
<g id="edge68" class="edge">
<title>Node37&#45;&gt;Node2</title>
<path fill="none" stroke="#191970" d="M1233,-251.8491C1233,-242.9397 1233,-229.9599 1233,-218.9761"/>
<polygon fill="#191970" stroke="#191970" points="1236.5001,-218.8822 1233,-208.8823 1229.5001,-218.8823 1236.5001,-218.8822"/>
</g>
<!-- Node39&#45;&gt;Node1 -->
<g id="edge73" class="edge">
<title>Node39&#45;&gt;Node1</title>
<path fill="none" stroke="#191970" d="M773.4783,-129.2046C761.9058,-114.7238 745.4994,-88.7769 759,-71 771.7416,-54.2226 815.8,-41.3016 858.5012,-32.3642"/>
<polygon fill="#191970" stroke="#191970" points="859.335,-35.7664 868.4396,-30.3482 857.9434,-28.9061 859.335,-35.7664"/>
</g>
<!-- Node39&#45;&gt;Node19 -->
<g id="edge75" class="edge">
<title>Node39&#45;&gt;Node19</title>
<path fill="none" stroke="#191970" d="M842.3983,-129.4966C898.4175,-119.5908 982.3826,-104.7433 1041.4915,-94.2911"/>
<polygon fill="#191970" stroke="#191970" points="1042.2525,-97.711 1051.4903,-92.5231 1041.0336,-90.8179 1042.2525,-97.711"/>
</g>
<!-- Node39&#45;&gt;Node28 -->
<g id="edge74" class="edge">
<title>Node39&#45;&gt;Node28</title>
<path fill="none" stroke="#191970" d="M765.3921,-129.3619C750.7771,-120.532 729.7762,-107.844 713.1888,-97.8224"/>
<polygon fill="#191970" stroke="#191970" points="714.8653,-94.7461 704.4963,-92.5707 711.2455,-100.7376 714.8653,-94.7461"/>
</g>
</g>
</svg>
