<?xml version="1.0" encoding="UTF-8" standalone="no"?>
<!DOCTYPE svg PUBLIC "-//W3C//DTD SVG 1.1//EN"
 "http://www.w3.org/Graphics/SVG/1.1/DTD/svg11.dtd">
<!-- Generated by graphviz version 2.40.1 (20161225.0304)
 -->
<!-- Title: /home/kpenev/projects/git/poet/poet_src/unit_tests/shared/MakeStar.h Pages: 1 -->
<svg width="3854pt" height="643pt"
 viewBox="0.00 0.00 3854.00 643.00" xmlns="http://www.w3.org/2000/svg" xmlns:xlink="http://www.w3.org/1999/xlink">
<g id="graph0" class="graph" transform="scale(1 1) rotate(0) translate(4 639)">
<title>/home/kpenev/projects/git/poet/poet_src/unit_tests/shared/MakeStar.h</title>
<polygon fill="#ffffff" stroke="transparent" points="-4,4 -4,-639 3850,-639 3850,4 -4,4"/>
<!-- Node0 -->
<g id="node1" class="node">
<title>Node0</title>
<polygon fill="#bfbfbf" stroke="#000000" points="1559,-587.5 1559,-634.5 1711,-634.5 1711,-587.5 1559,-587.5"/>
<text text-anchor="start" x="1567" y="-620.9" font-family="Helvetica,sans-Serif" font-size="12.00" fill="#000000">/home/kpenev/projects</text>
<text text-anchor="start" x="1567" y="-607.9" font-family="Helvetica,sans-Serif" font-size="12.00" fill="#000000">/git/poet/poet_src/unit</text>
<text text-anchor="middle" x="1635" y="-594.9" font-family="Helvetica,sans-Serif" font-size="12.00" fill="#000000">_tests/shared/MakeStar.h</text>
</g>
<!-- Node1 -->
<g id="node2" class="node">
<title>Node1</title>
<g id="a_node2"><a xlink:href="EvolvingStar_8h.html" target="_top" xlink:title="Declares the class for stars that user pre&#45;tabulated stellar evolution tracks. ">
<polygon fill="#ffffff" stroke="#000000" points="1566.5,-529.5 1566.5,-550.5 1703.5,-550.5 1703.5,-529.5 1566.5,-529.5"/>
<text text-anchor="middle" x="1635" y="-536.9" font-family="Helvetica,sans-Serif" font-size="12.00" fill="#000000">../../Star/EvolvingStar.h</text>
</a>
</g>
</g>
<!-- Node0&#45;&gt;Node1 -->
<g id="edge1" class="edge">
<title>Node0&#45;&gt;Node1</title>
<path fill="none" stroke="#191970" d="M1635,-587.358C1635,-578.719 1635,-569.0215 1635,-560.6624"/>
<polygon fill="#191970" stroke="#191970" points="1638.5001,-560.6462 1635,-550.6462 1631.5001,-560.6463 1638.5001,-560.6462"/>
</g>
<!-- Node2 -->
<g id="node3" class="node">
<title>Node2</title>
<g id="a_node3"><a xlink:href="SharedLibraryExportMacros_8h_source.html" target="_top" xlink:title="../Core/SharedLibraryExport\lMacros.h">
<polygon fill="#ffffff" stroke="#000000" points="1416.5,-.5 1416.5,-34.5 1581.5,-34.5 1581.5,-.5 1416.5,-.5"/>
<text text-anchor="start" x="1424.5" y="-20.9" font-family="Helvetica,sans-Serif" font-size="12.00" fill="#000000">../Core/SharedLibraryExport</text>
<text text-anchor="middle" x="1499" y="-7.9" font-family="Helvetica,sans-Serif" font-size="12.00" fill="#000000">Macros.h</text>
</a>
</g>
</g>
<!-- Node1&#45;&gt;Node2 -->
<g id="edge2" class="edge">
<title>Node1&#45;&gt;Node2</title>
<path fill="none" stroke="#191970" d="M1584.154,-529.4621C1500.9832,-510.7466 1345,-468.8072 1345,-417.5 1345,-417.5 1345,-417.5 1345,-275.5 1345,-182.9731 1327.1312,-143.9875 1384,-71 1394.861,-57.0606 1410.2134,-46.6033 1426.1741,-38.8146"/>
<polygon fill="#191970" stroke="#191970" points="1427.9528,-41.851 1435.6124,-34.5311 1425.0599,-35.4768 1427.9528,-41.851"/>
</g>
<!-- Node3 -->
<g id="node4" class="node">
<title>Node3</title>
<g id="a_node4"><a xlink:href="SaturatingSkumanichWindBody_8h.html" target="_top" xlink:title="Decrales a body subject to angular momentum loss . ">
<polygon fill="#ffffff" stroke="#000000" points="964.5,-471.5 964.5,-492.5 1161.5,-492.5 1161.5,-471.5 964.5,-471.5"/>
<text text-anchor="middle" x="1063" y="-478.9" font-family="Helvetica,sans-Serif" font-size="12.00" fill="#000000">SaturatingSkumanichWindBody.h</text>
</a>
</g>
</g>
<!-- Node1&#45;&gt;Node3 -->
<g id="edge3" class="edge">
<title>Node1&#45;&gt;Node3</title>
<path fill="none" stroke="#191970" d="M1566.2877,-533.0327C1468.3652,-523.1035 1287.6963,-504.7839 1171.56,-493.0078"/>
<polygon fill="#191970" stroke="#191970" points="1171.8756,-489.522 1161.5735,-491.9952 1171.1693,-496.4863 1171.8756,-489.522"/>
</g>
<!-- Node47 -->
<g id="node27" class="node">
<title>Node47</title>
<g id="a_node27"><a xlink:href="ExponentialDecayDiffRotBody_8h.html" target="_top" xlink:title="Declares a DissipatingBody with exponentially decaying differential rotation coupling. ">
<polygon fill="#ffffff" stroke="#000000" points="1051.5,-407 1051.5,-428 1240.5,-428 1240.5,-407 1051.5,-407"/>
<text text-anchor="middle" x="1146" y="-414.4" font-family="Helvetica,sans-Serif" font-size="12.00" fill="#000000">ExponentialDecayDiffRotBody.h</text>
</a>
</g>
</g>
<!-- Node1&#45;&gt;Node47 -->
<g id="edge58" class="edge">
<title>Node1&#45;&gt;Node47</title>
<path fill="none" stroke="#191970" d="M1566.421,-534.0257C1504.1665,-527.5166 1410.2543,-514.9713 1331,-493 1274.7767,-477.4135 1212.578,-449.7193 1176.5229,-432.5541"/>
<polygon fill="#191970" stroke="#191970" points="1177.6025,-429.1897 1167.0734,-428.0107 1174.5691,-435.4983 1177.6025,-429.1897"/>
</g>
<!-- Node48 -->
<g id="node28" class="node">
<title>Node48</title>
<g id="a_node28"><a xlink:href="Interpolator_8h.html" target="_top" xlink:title="Defines the StellarEvolution class needed for interpolating among stellar evolution tracks...">
<polygon fill="#ffffff" stroke="#000000" points="3012,-400.5 3012,-434.5 3122,-434.5 3122,-400.5 3012,-400.5"/>
<text text-anchor="start" x="3020" y="-420.9" font-family="Helvetica,sans-Serif" font-size="12.00" fill="#000000">../StellarEvolution</text>
<text text-anchor="middle" x="3067" y="-407.9" font-family="Helvetica,sans-Serif" font-size="12.00" fill="#000000">/Interpolator.h</text>
</a>
</g>
</g>
<!-- Node1&#45;&gt;Node48 -->
<g id="edge62" class="edge">
<title>Node1&#45;&gt;Node48</title>
<path fill="none" stroke="#191970" d="M1703.7533,-534.9911C1816.304,-526.7207 2046.8904,-509.4806 2242,-493 2525.1322,-469.0843 2862.5855,-437.118 3001.9076,-423.7689"/>
<polygon fill="#191970" stroke="#191970" points="3002.3707,-427.2406 3011.991,-422.8021 3001.7026,-420.2726 3002.3707,-427.2406"/>
</g>
<!-- Node72 -->
<g id="node48" class="node">
<title>Node72</title>
<g id="a_node48"><a xlink:href="EvolvingStellarCore_8h.html" target="_top" xlink:title="Declaration of the class representing stellar cores. ">
<polygon fill="#ffffff" stroke="#000000" points="1923,-471.5 1923,-492.5 2057,-492.5 2057,-471.5 1923,-471.5"/>
<text text-anchor="middle" x="1990" y="-478.9" font-family="Helvetica,sans-Serif" font-size="12.00" fill="#000000">EvolvingStellarCore.h</text>
</a>
</g>
</g>
<!-- Node1&#45;&gt;Node72 -->
<g id="edge126" class="edge">
<title>Node1&#45;&gt;Node72</title>
<path fill="none" stroke="#191970" d="M1699.2878,-529.4966C1760.1689,-519.5499 1851.5468,-504.6205 1915.5615,-494.1618"/>
<polygon fill="#191970" stroke="#191970" points="1916.2868,-497.5898 1925.5916,-492.5231 1915.1581,-490.6814 1916.2868,-497.5898"/>
</g>
<!-- Node78 -->
<g id="node50" class="node">
<title>Node78</title>
<g id="a_node50"><a xlink:href="EvolvingStellarEnvelope_8h.html" target="_top" xlink:title="Declares a class representing convective zones in low mass evolving stars or the whole star for high ...">
<polygon fill="#ffffff" stroke="#000000" points="2075,-471.5 2075,-492.5 2233,-492.5 2233,-471.5 2075,-471.5"/>
<text text-anchor="middle" x="2154" y="-478.9" font-family="Helvetica,sans-Serif" font-size="12.00" fill="#000000">EvolvingStellarEnvelope.h</text>
</a>
</g>
</g>
<!-- Node1&#45;&gt;Node78 -->
<g id="edge134" class="edge">
<title>Node1&#45;&gt;Node78</title>
<path fill="none" stroke="#191970" d="M1703.7123,-532.8439C1786.7247,-524.1228 1930.906,-508.7338 2064.8199,-493.1251"/>
<polygon fill="#191970" stroke="#191970" points="2065.3267,-496.5898 2074.853,-491.953 2064.5144,-489.6371 2065.3267,-496.5898"/>
</g>
<!-- Node3&#45;&gt;Node2 -->
<g id="edge4" class="edge">
<title>Node3&#45;&gt;Node2</title>
<path fill="none" stroke="#191970" d="M1137.3217,-471.4931C1182.3983,-463.6145 1234.1863,-451.3732 1250,-435 1277.948,-406.0633 1269,-386.7296 1269,-346.5 1269,-346.5 1269,-346.5 1269,-275.5 1269,-165.6033 1058.0821,-154.097 1130,-71 1147.8847,-50.3352 1302.7508,-33.6529 1406.0893,-24.6915"/>
<polygon fill="#191970" stroke="#191970" points="1406.5698,-28.1632 1416.2344,-23.8221 1405.972,-21.1888 1406.5698,-28.1632"/>
</g>
<!-- Node4 -->
<g id="node5" class="node">
<title>Node4</title>
<g id="a_node5"><a xlink:href="DissipatingBody_8h.html" target="_top" xlink:title="Declares the DissipatingBody class. ">
<polygon fill="#ffffff" stroke="#000000" points="952.5,-336 952.5,-357 1115.5,-357 1115.5,-336 952.5,-336"/>
<text text-anchor="middle" x="1034" y="-343.4" font-family="Helvetica,sans-Serif" font-size="12.00" fill="#000000">../Evolve/DissipatingBody.h</text>
</a>
</g>
</g>
<!-- Node3&#45;&gt;Node4 -->
<g id="edge5" class="edge">
<title>Node3&#45;&gt;Node4</title>
<path fill="none" stroke="#191970" d="M1057.4425,-471.4951C1052.7797,-462.1756 1046.3587,-448.0538 1043,-435 1037.1362,-412.2098 1035.0643,-385.1958 1034.3477,-367.0604"/>
<polygon fill="#191970" stroke="#191970" points="1037.8454,-366.9266 1034.055,-357.033 1030.8484,-367.1309 1037.8454,-366.9266"/>
</g>
<!-- Node42 -->
<g id="node22" class="node">
<title>Node42</title>
<g id="a_node22"><a xlink:href="BinarySystem_8h.html" target="_top" xlink:title="Defines the BinarySystem class. ">
<polygon fill="#ffffff" stroke="#000000" points="771.5,-407 771.5,-428 920.5,-428 920.5,-407 771.5,-407"/>
<text text-anchor="middle" x="846" y="-414.4" font-family="Helvetica,sans-Serif" font-size="12.00" fill="#000000">../Evolve/BinarySystem.h</text>
</a>
</g>
</g>
<!-- Node3&#45;&gt;Node42 -->
<g id="edge42" class="edge">
<title>Node3&#45;&gt;Node42</title>
<path fill="none" stroke="#191970" d="M1027.6522,-471.4934C990.3735,-460.4129 931.5291,-442.9223 890.97,-430.8666"/>
<polygon fill="#191970" stroke="#191970" points="891.9154,-427.4964 881.3326,-428.0021 889.9209,-434.2063 891.9154,-427.4964"/>
</g>
<!-- Node4&#45;&gt;Node2 -->
<g id="edge6" class="edge">
<title>Node4&#45;&gt;Node2</title>
<path fill="none" stroke="#191970" d="M957.8961,-335.9649C920.5566,-328.2578 876.1667,-315.1306 841,-293 805.5432,-270.6869 796.6881,-259.9762 779,-222 767.986,-198.3529 772.0059,-190.009 770,-164 768.8038,-148.4905 764.4409,-143.5283 770,-129 782.3726,-96.6653 790.9681,-86.3506 822,-71 873.0624,-45.7409 1232.9092,-28.1273 1406.1829,-21.0124"/>
<polygon fill="#191970" stroke="#191970" points="1406.4627,-24.504 1416.3119,-20.5997 1406.1777,-17.5098 1406.4627,-24.504"/>
</g>
<!-- Node5 -->
<g id="node6" class="node">
<title>Node5</title>
<g id="a_node6"><a xlink:href="DissipatingZone_8h.html" target="_top" xlink:title="Declares a class representing one zone of a body dissipative to tidal distortions. ">
<polygon fill="#ffffff" stroke="#ff0000" points="937,-265 937,-286 1051,-286 1051,-265 937,-265"/>
<text text-anchor="middle" x="994" y="-272.4" font-family="Helvetica,sans-Serif" font-size="12.00" fill="#000000">DissipatingZone.h</text>
</a>
</g>
</g>
<!-- Node4&#45;&gt;Node5 -->
<g id="edge7" class="edge">
<title>Node4&#45;&gt;Node5</title>
<path fill="none" stroke="#191970" d="M1027.9249,-335.7166C1021.8751,-324.9782 1012.4506,-308.2498 1005.0689,-295.1472"/>
<polygon fill="#191970" stroke="#191970" points="1008.0902,-293.3794 1000.1323,-286.3849 1001.9914,-296.8153 1008.0902,-293.3794"/>
</g>
<!-- Node9 -->
<g id="node9" class="node">
<title>Node9</title>
<polygon fill="#ffffff" stroke="#bfbfbf" points="988.5,-71.5 988.5,-92.5 1043.5,-92.5 1043.5,-71.5 988.5,-71.5"/>
<text text-anchor="middle" x="1016" y="-78.9" font-family="Helvetica,sans-Serif" font-size="12.00" fill="#000000">cassert</text>
</g>
<!-- Node4&#45;&gt;Node9 -->
<g id="edge41" class="edge">
<title>Node4&#45;&gt;Node9</title>
<path fill="none" stroke="#191970" d="M1003.2204,-335.9988C922.2274,-306.7806 714.3956,-220.6334 789,-129 812.3827,-100.28 919.4704,-88.5629 977.8223,-84.2452"/>
<polygon fill="#191970" stroke="#191970" points="978.3891,-87.7141 988.1196,-83.5226 977.8991,-80.7313 978.3891,-87.7141"/>
</g>
<!-- Node10 -->
<g id="node10" class="node">
<title>Node10</title>
<g id="a_node10"><a xlink:href="Core_2Common_8h.html" target="_top" xlink:title="Declaration of some general purpose utilities. ">
<polygon fill="#ffffff" stroke="#ff0000" points="1184.5,-136 1184.5,-157 1297.5,-157 1297.5,-136 1184.5,-136"/>
<text text-anchor="middle" x="1241" y="-143.4" font-family="Helvetica,sans-Serif" font-size="12.00" fill="#000000">../Core/Common.h</text>
</a>
</g>
</g>
<!-- Node4&#45;&gt;Node10 -->
<g id="edge39" class="edge">
<title>Node4&#45;&gt;Node10</title>
<path fill="none" stroke="#191970" d="M1041.1485,-335.7858C1052.9525,-318.4766 1077.7362,-283.7064 1103,-258 1139.7837,-220.5718 1188.7302,-183.5763 1217.3576,-163.0154"/>
<polygon fill="#191970" stroke="#191970" points="1219.4376,-165.8311 1225.5537,-157.1798 1215.3775,-160.1288 1219.4376,-165.8311"/>
</g>
<!-- Node12 -->
<g id="node12" class="node">
<title>Node12</title>
<polygon fill="#ffffff" stroke="#bfbfbf" points="1906.5,-71.5 1906.5,-92.5 1965.5,-92.5 1965.5,-71.5 1906.5,-71.5"/>
<text text-anchor="middle" x="1936" y="-78.9" font-family="Helvetica,sans-Serif" font-size="12.00" fill="#000000">valarray</text>
</g>
<!-- Node4&#45;&gt;Node12 -->
<g id="edge40" class="edge">
<title>Node4&#45;&gt;Node12</title>
<path fill="none" stroke="#191970" d="M1060.8921,-335.9055C1129.498,-309.2623 1317.0555,-238.8322 1479,-200 1581.323,-175.4643 1611.1132,-190.2884 1713,-164 1782.108,-146.1691 1859.6663,-114.9834 1902.6838,-96.6402"/>
<polygon fill="#191970" stroke="#191970" points="1904.2811,-99.7633 1912.0872,-92.5999 1901.5177,-93.3319 1904.2811,-99.7633"/>
</g>
<!-- Node25 -->
<g id="node18" class="node">
<title>Node25</title>
<g id="a_node18"><a xlink:href="AstronomicalConstants_8h.html" target="_top" xlink:title="Defines various astronomical constants. ">
<polygon fill="#ffffff" stroke="#000000" points="535,-71.5 535,-92.5 685,-92.5 685,-71.5 535,-71.5"/>
<text text-anchor="middle" x="610" y="-78.9" font-family="Helvetica,sans-Serif" font-size="12.00" fill="#000000">AstronomicalConstants.h</text>
</a>
</g>
</g>
<!-- Node4&#45;&gt;Node25 -->
<g id="edge38" class="edge">
<title>Node4&#45;&gt;Node25</title>
<path fill="none" stroke="#191970" d="M957.318,-335.9536C854.7934,-321.705 685.2149,-297.5557 680,-293 622.8043,-243.0345 658.8437,-200.0445 632,-129 628.5589,-119.8926 624.1028,-110.0994 620.1018,-101.8221"/>
<polygon fill="#191970" stroke="#191970" points="623.1213,-100.0326 615.546,-92.6255 616.8487,-103.1399 623.1213,-100.0326"/>
</g>
<!-- Node41 -->
<g id="node21" class="node">
<title>Node41</title>
<g id="a_node21"><a xlink:href="OrbitalExpressions_8h.html" target="_top" xlink:title="A collection of functions which calculate various quantities for two body orbits. ...">
<polygon fill="#ffffff" stroke="#ff0000" points="424,-200.5 424,-221.5 590,-221.5 590,-200.5 424,-200.5"/>
<text text-anchor="middle" x="507" y="-207.9" font-family="Helvetica,sans-Serif" font-size="12.00" fill="#000000">../Core/OrbitalExpressions.h</text>
</a>
</g>
</g>
<!-- Node4&#45;&gt;Node41 -->
<g id="edge35" class="edge">
<title>Node4&#45;&gt;Node41</title>
<path fill="none" stroke="#191970" d="M956.3118,-335.9467C842.2946,-320.4515 642.9243,-293.3277 642,-293 598.5348,-277.5883 553.9174,-247.0384 528.4188,-227.8904"/>
<polygon fill="#191970" stroke="#191970" points="530.3019,-224.9246 520.2302,-221.6365 526.0531,-230.4877 530.3019,-224.9246"/>
</g>
<!-- Node5&#45;&gt;Node2 -->
<g id="edge28" class="edge">
<title>Node5&#45;&gt;Node2</title>
<path fill="none" stroke="#191970" d="M949.8616,-264.9329C877.2701,-245.313 744.8964,-198.8013 789,-129 821.0695,-78.2448 853.0936,-86.8554 911,-71 1001.6651,-46.175 1264.2342,-29.4603 1405.8496,-21.9772"/>
<polygon fill="#191970" stroke="#191970" points="1406.4462,-25.4509 1416.2495,-21.4328 1406.0802,-18.4604 1406.4462,-25.4509"/>
</g>
<!-- Node6 -->
<g id="node7" class="node">
<title>Node6</title>
<g id="a_node7"><a xlink:href="ZoneOrientation_8h.html" target="_top" xlink:title="Declares a class for orientations of zones of DissipatingBody objects. ">
<polygon fill="#ffffff" stroke="#000000" points="937.5,-200.5 937.5,-221.5 1050.5,-221.5 1050.5,-200.5 937.5,-200.5"/>
<text text-anchor="middle" x="994" y="-207.9" font-family="Helvetica,sans-Serif" font-size="12.00" fill="#000000">ZoneOrientation.h</text>
</a>
</g>
</g>
<!-- Node5&#45;&gt;Node6 -->
<g id="edge8" class="edge">
<title>Node5&#45;&gt;Node6</title>
<path fill="none" stroke="#191970" d="M994,-264.8491C994,-255.9397 994,-242.9599 994,-231.9761"/>
<polygon fill="#191970" stroke="#191970" points="997.5001,-231.8822 994,-221.8823 990.5001,-231.8823 997.5001,-231.8822"/>
</g>
<!-- Node7 -->
<g id="node8" class="node">
<title>Node7</title>
<g id="a_node8"><a xlink:href="DissipationQuantities_8h.html" target="_top" xlink:title="Declaration of enumerations of dissipation quantities and derivatives. ">
<polygon fill="#ffffff" stroke="#ff0000" points="798,-136 798,-157 938,-157 938,-136 798,-136"/>
<text text-anchor="middle" x="868" y="-143.4" font-family="Helvetica,sans-Serif" font-size="12.00" fill="#000000">DissipationQuantities.h</text>
</a>
</g>
</g>
<!-- Node5&#45;&gt;Node7 -->
<g id="edge30" class="edge">
<title>Node5&#45;&gt;Node7</title>
<path fill="none" stroke="#191970" d="M979.0674,-264.8714C965.1581,-254.6393 944.1917,-238.3491 928,-222 910.3711,-204.1997 892.8518,-181.414 881.3369,-165.5521"/>
<polygon fill="#191970" stroke="#191970" points="883.959,-163.2017 875.2954,-157.1031 878.2649,-167.2733 883.959,-163.2017"/>
</g>
<!-- Node5&#45;&gt;Node10 -->
<g id="edge33" class="edge">
<title>Node5&#45;&gt;Node10</title>
<path fill="none" stroke="#191970" d="M1014.213,-264.9434C1057.834,-242.1616 1160.9485,-188.3083 1211.7198,-161.7921"/>
<polygon fill="#191970" stroke="#191970" points="1213.6104,-164.7533 1220.8541,-157.0216 1210.3698,-158.5486 1213.6104,-164.7533"/>
</g>
<!-- Node5&#45;&gt;Node12 -->
<g id="edge34" class="edge">
<title>Node5&#45;&gt;Node12</title>
<path fill="none" stroke="#191970" d="M1035.5962,-264.987C1093.353,-250.3917 1201.1118,-223.1688 1293,-200 1418.3224,-168.4011 1448.0339,-153.1623 1575,-129 1690.8079,-106.9612 1829.5001,-92.087 1896.2522,-85.6366"/>
<polygon fill="#191970" stroke="#191970" points="1896.7113,-89.1088 1906.3333,-84.6739 1896.0458,-82.1405 1896.7113,-89.1088"/>
</g>
<!-- Node22 -->
<g id="node16" class="node">
<title>Node22</title>
<g id="a_node16"><a xlink:href="Error_8h.html" target="_top" xlink:title="Defines the exception hierarchy used by this code. ">
<polygon fill="#ffffff" stroke="#ff0000" points="2604.5,-71.5 2604.5,-92.5 2657.5,-92.5 2657.5,-71.5 2604.5,-71.5"/>
<text text-anchor="middle" x="2631" y="-78.9" font-family="Helvetica,sans-Serif" font-size="12.00" fill="#000000">Error.h</text>
</a>
</g>
</g>
<!-- Node5&#45;&gt;Node22 -->
<g id="edge29" class="edge">
<title>Node5&#45;&gt;Node22</title>
<path fill="none" stroke="#191970" d="M1051.0288,-274.5219C1243.9845,-270.9218 1871.3712,-256.7671 2070,-222 2209.1762,-197.6392 2236.7201,-162.4318 2374,-129 2451.5555,-110.1129 2543.9312,-94.9826 2594.1016,-87.3693"/>
<polygon fill="#191970" stroke="#191970" points="2594.7774,-90.8071 2604.1463,-85.8601 2593.7373,-83.8848 2594.7774,-90.8071"/>
</g>
<!-- Node36 -->
<g id="node20" class="node">
<title>Node36</title>
<g id="a_node20"><a xlink:href="CombinedStoppingCondition_8h.html" target="_top" xlink:title="Declares a class for a stopping condition that combines other stopping conditions. ">
<polygon fill="#ffffff" stroke="#ff0000" points="224,-200.5 224,-221.5 406,-221.5 406,-200.5 224,-200.5"/>
<text text-anchor="middle" x="315" y="-207.9" font-family="Helvetica,sans-Serif" font-size="12.00" fill="#000000">CombinedStoppingCondition.h</text>
</a>
</g>
</g>
<!-- Node5&#45;&gt;Node36 -->
<g id="edge31" class="edge">
<title>Node5&#45;&gt;Node36</title>
<path fill="none" stroke="#191970" d="M936.8518,-270.5519C834.6551,-261.6306 613.578,-242.0016 415.9971,-222.088"/>
<polygon fill="#191970" stroke="#191970" points="416.3124,-218.6021 406.0113,-221.0793 415.6088,-225.5667 416.3124,-218.6021"/>
</g>
<!-- Node6&#45;&gt;Node2 -->
<g id="edge9" class="edge">
<title>Node6&#45;&gt;Node2</title>
<path fill="none" stroke="#191970" d="M988.0627,-200.2198C974.6667,-174.2861 945.7555,-107.8404 979,-71 1007.0364,-39.9311 1264.6155,-25.8596 1406.4116,-20.4207"/>
<polygon fill="#191970" stroke="#191970" points="1406.5549,-23.9178 1416.416,-20.0439 1406.2914,-16.9228 1406.5549,-23.9178"/>
</g>
<!-- Node6&#45;&gt;Node7 -->
<g id="edge10" class="edge">
<title>Node6&#45;&gt;Node7</title>
<path fill="none" stroke="#191970" d="M973.4755,-200.4934C952.8823,-189.9517 920.9553,-173.6081 897.6197,-161.6625"/>
<polygon fill="#191970" stroke="#191970" points="899.0121,-158.4433 888.5157,-157.0021 895.8223,-164.6744 899.0121,-158.4433"/>
</g>
<!-- Node6&#45;&gt;Node10 -->
<g id="edge13" class="edge">
<title>Node6&#45;&gt;Node10</title>
<path fill="none" stroke="#191970" d="M1034.2345,-200.4934C1077.0259,-189.3191 1144.7812,-171.626 1190.9797,-159.562"/>
<polygon fill="#191970" stroke="#191970" points="1191.9915,-162.9152 1200.7827,-157.0021 1190.2228,-156.1423 1191.9915,-162.9152"/>
</g>
<!-- Node26 -->
<g id="node19" class="node">
<title>Node26</title>
<g id="a_node19"><a xlink:href="IncludeEigen_8h_source.html" target="_top" xlink:title="IncludeEigen.h">
<polygon fill="#ffffff" stroke="#ff0000" points="1138.5,-71.5 1138.5,-92.5 1235.5,-92.5 1235.5,-71.5 1138.5,-71.5"/>
<text text-anchor="middle" x="1187" y="-78.9" font-family="Helvetica,sans-Serif" font-size="12.00" fill="#000000">IncludeEigen.h</text>
</a>
</g>
</g>
<!-- Node6&#45;&gt;Node26 -->
<g id="edge27" class="edge">
<title>Node6&#45;&gt;Node26</title>
<path fill="none" stroke="#191970" d="M1009.794,-200.4434C1043.524,-177.8984 1122.7796,-124.9245 1162.8708,-98.1278"/>
<polygon fill="#191970" stroke="#191970" points="1164.8895,-100.9884 1171.2584,-92.5216 1160.9996,-95.1687 1164.8895,-100.9884"/>
</g>
<!-- Node7&#45;&gt;Node2 -->
<g id="edge11" class="edge">
<title>Node7&#45;&gt;Node2</title>
<path fill="none" stroke="#191970" d="M875.1685,-135.9498C887.4214,-118.8959 914.1776,-85.7016 946,-71 1025.4721,-34.2848 1270.2768,-22.7382 1405.994,-19.1272"/>
<polygon fill="#191970" stroke="#191970" points="1406.4673,-22.6163 1416.3742,-18.8608 1406.2877,-15.6186 1406.4673,-22.6163"/>
</g>
<!-- Node7&#45;&gt;Node9 -->
<g id="edge12" class="edge">
<title>Node7&#45;&gt;Node9</title>
<path fill="none" stroke="#191970" d="M892.1081,-135.9934C916.727,-125.2642 955.1361,-108.5251 982.6607,-96.5296"/>
<polygon fill="#191970" stroke="#191970" points="984.1332,-99.7059 991.9022,-92.5021 981.3366,-93.2888 984.1332,-99.7059"/>
</g>
<!-- Node10&#45;&gt;Node2 -->
<g id="edge20" class="edge">
<title>Node10&#45;&gt;Node2</title>
<path fill="none" stroke="#191970" d="M1254.0452,-135.7654C1273.8036,-119.9127 1312.9516,-90.0648 1350,-71 1375.4629,-57.897 1404.88,-46.5978 1430.815,-37.8045"/>
<polygon fill="#191970" stroke="#191970" points="1432.1856,-41.0372 1440.5688,-34.5585 1429.9752,-34.3953 1432.1856,-41.0372"/>
</g>
<!-- Node10&#45;&gt;Node9 -->
<g id="edge19" class="edge">
<title>Node10&#45;&gt;Node9</title>
<path fill="none" stroke="#191970" d="M1204.3491,-135.9934C1162.82,-124.0884 1095.4791,-104.784 1053.5726,-92.7708"/>
<polygon fill="#191970" stroke="#191970" points="1054.3315,-89.3475 1043.7542,-89.9562 1052.4025,-96.0764 1054.3315,-89.3475"/>
</g>
<!-- Node11 -->
<g id="node11" class="node">
<title>Node11</title>
<polygon fill="#ffffff" stroke="#bfbfbf" points="2300,-71.5 2300,-92.5 2332,-92.5 2332,-71.5 2300,-71.5"/>
<text text-anchor="middle" x="2316" y="-78.9" font-family="Helvetica,sans-Serif" font-size="12.00" fill="#000000">list</text>
</g>
<!-- Node10&#45;&gt;Node11 -->
<g id="edge14" class="edge">
<title>Node10&#45;&gt;Node11</title>
<path fill="none" stroke="#191970" d="M1297.6598,-143.1004C1495.4006,-131.236 2150.4336,-91.934 2289.788,-83.5727"/>
<polygon fill="#191970" stroke="#191970" points="2290.1834,-87.0554 2299.9558,-82.9627 2289.7641,-80.068 2290.1834,-87.0554"/>
</g>
<!-- Node10&#45;&gt;Node12 -->
<g id="edge15" class="edge">
<title>Node10&#45;&gt;Node12</title>
<path fill="none" stroke="#191970" d="M1278.7138,-135.9678C1289.3998,-133.3217 1301.0934,-130.7424 1312,-129 1530.6611,-94.0669 1796.6928,-84.9664 1896.0521,-82.7079"/>
<polygon fill="#191970" stroke="#191970" points="1896.3172,-86.2031 1906.2391,-82.4874 1896.1656,-79.2048 1896.3172,-86.2031"/>
</g>
<!-- Node13 -->
<g id="node13" class="node">
<title>Node13</title>
<polygon fill="#ffffff" stroke="#bfbfbf" points="1254,-71.5 1254,-92.5 1298,-92.5 1298,-71.5 1254,-71.5"/>
<text text-anchor="middle" x="1276" y="-78.9" font-family="Helvetica,sans-Serif" font-size="12.00" fill="#000000">limits</text>
</g>
<!-- Node10&#45;&gt;Node13 -->
<g id="edge16" class="edge">
<title>Node10&#45;&gt;Node13</title>
<path fill="none" stroke="#191970" d="M1246.7795,-135.8491C1251.7652,-126.6613 1259.0998,-113.1447 1265.1731,-101.9524"/>
<polygon fill="#191970" stroke="#191970" points="1268.4017,-103.3409 1270.0949,-92.8823 1262.2491,-100.0023 1268.4017,-103.3409"/>
</g>
<!-- Node14 -->
<g id="node14" class="node">
<title>Node14</title>
<polygon fill="#ffffff" stroke="#bfbfbf" points="1392.5,-71.5 1392.5,-92.5 1451.5,-92.5 1451.5,-71.5 1392.5,-71.5"/>
<text text-anchor="middle" x="1422" y="-78.9" font-family="Helvetica,sans-Serif" font-size="12.00" fill="#000000">sstream</text>
</g>
<!-- Node10&#45;&gt;Node14 -->
<g id="edge17" class="edge">
<title>Node10&#45;&gt;Node14</title>
<path fill="none" stroke="#191970" d="M1270.4836,-135.9934C1301.1177,-125.0768 1349.2112,-107.9385 1382.9786,-95.9054"/>
<polygon fill="#191970" stroke="#191970" points="1384.2841,-99.1559 1392.529,-92.5021 1381.9343,-92.562 1384.2841,-99.1559"/>
</g>
<!-- Node15 -->
<g id="node15" class="node">
<title>Node15</title>
<polygon fill="#ffffff" stroke="#bfbfbf" points="2647,-7 2647,-28 2709,-28 2709,-7 2647,-7"/>
<text text-anchor="middle" x="2678" y="-14.4" font-family="Helvetica,sans-Serif" font-size="12.00" fill="#000000">iostream</text>
</g>
<!-- Node10&#45;&gt;Node15 -->
<g id="edge18" class="edge">
<title>Node10&#45;&gt;Node15</title>
<path fill="none" stroke="#191970" d="M1279.4801,-135.9527C1289.9647,-133.3705 1301.3648,-130.8273 1312,-129 1829.448,-40.0922 2469.7275,-21.613 2636.6647,-18.2051"/>
<polygon fill="#191970" stroke="#191970" points="2637.0407,-21.6984 2646.9697,-18.0018 2636.9026,-14.6998 2637.0407,-21.6984"/>
</g>
<!-- Node10&#45;&gt;Node22 -->
<g id="edge21" class="edge">
<title>Node10&#45;&gt;Node22</title>
<path fill="none" stroke="#191970" d="M1297.7267,-143.3915C1364.171,-139.7822 1477.564,-133.7208 1575,-129 1974.3193,-109.6527 2458.7313,-89.198 2594.2396,-83.5312"/>
<polygon fill="#191970" stroke="#191970" points="2594.6274,-87.0182 2604.4725,-83.1037 2594.3351,-80.0243 2594.6274,-87.0182"/>
</g>
<!-- Node10&#45;&gt;Node25 -->
<g id="edge25" class="edge">
<title>Node10&#45;&gt;Node25</title>
<path fill="none" stroke="#191970" d="M1184.4476,-140.7193C1073.3747,-129.3656 826.1691,-104.0965 695.2139,-90.7104"/>
<polygon fill="#191970" stroke="#191970" points="695.5241,-87.224 685.22,-89.6889 694.8123,-94.1877 695.5241,-87.224"/>
</g>
<!-- Node10&#45;&gt;Node26 -->
<g id="edge26" class="edge">
<title>Node10&#45;&gt;Node26</title>
<path fill="none" stroke="#191970" d="M1232.083,-135.8491C1224.08,-126.2901 1212.1543,-112.0454 1202.5785,-100.6076"/>
<polygon fill="#191970" stroke="#191970" points="1205.2138,-98.3031 1196.1107,-92.8823 1199.8465,-102.7967 1205.2138,-98.3031"/>
</g>
<!-- Node22&#45;&gt;Node2 -->
<g id="edge22" class="edge">
<title>Node22&#45;&gt;Node2</title>
<path fill="none" stroke="#191970" d="M2604.4102,-80.4849C2466.7805,-72.643 1832.4587,-36.5001 1591.874,-22.7919"/>
<polygon fill="#191970" stroke="#191970" points="1591.9364,-19.2898 1581.7534,-22.2152 1591.5381,-26.2785 1591.9364,-19.2898"/>
</g>
<!-- Node22&#45;&gt;Node15 -->
<g id="edge23" class="edge">
<title>Node22&#45;&gt;Node15</title>
<path fill="none" stroke="#191970" d="M2638.7611,-71.3491C2645.5914,-61.9757 2655.7046,-48.0969 2663.9532,-36.777"/>
<polygon fill="#191970" stroke="#191970" points="2667.0098,-38.5255 2670.0703,-28.3823 2661.3524,-34.403 2667.0098,-38.5255"/>
</g>
<!-- Node24 -->
<g id="node17" class="node">
<title>Node24</title>
<polygon fill="#ffffff" stroke="#bfbfbf" points="3251,-7 3251,-28 3297,-28 3297,-7 3251,-7"/>
<text text-anchor="middle" x="3274" y="-14.4" font-family="Helvetica,sans-Serif" font-size="12.00" fill="#000000">string</text>
</g>
<!-- Node22&#45;&gt;Node24 -->
<g id="edge24" class="edge">
<title>Node22&#45;&gt;Node24</title>
<path fill="none" stroke="#191970" d="M2657.8103,-79.3106C2760.3882,-69.0209 3127.8527,-32.1602 3240.7601,-20.8343"/>
<polygon fill="#191970" stroke="#191970" points="3241.2738,-24.3005 3250.8745,-19.8197 3240.5751,-17.3354 3241.2738,-24.3005"/>
</g>
<!-- Node36&#45;&gt;Node2 -->
<g id="edge32" class="edge">
<title>Node36&#45;&gt;Node2</title>
<path fill="none" stroke="#191970" d="M324.9492,-200.3257C351.4015,-172.7848 426.9378,-99.4973 507,-71 590.2552,-41.3661 1176.0322,-24.8907 1406.3319,-19.4985"/>
<polygon fill="#191970" stroke="#191970" points="1406.4485,-22.9968 1416.3645,-19.2653 1406.2858,-15.9987 1406.4485,-22.9968"/>
</g>
<!-- Node41&#45;&gt;Node2 -->
<g id="edge36" class="edge">
<title>Node41&#45;&gt;Node2</title>
<path fill="none" stroke="#191970" d="M504.4822,-200.2186C498.9978,-173.6893 489.2319,-104.9396 526,-71 558.0203,-41.4429 1168.9085,-24.8053 1406.0241,-19.439"/>
<polygon fill="#191970" stroke="#191970" points="1406.4293,-22.9309 1416.3481,-19.2072 1406.272,-15.9327 1406.4293,-22.9309"/>
</g>
<!-- Node41&#45;&gt;Node25 -->
<g id="edge37" class="edge">
<title>Node41&#45;&gt;Node25</title>
<path fill="none" stroke="#191970" d="M515.4289,-200.4434C532.8571,-178.6158 573.0597,-128.265 595.0183,-100.7635"/>
<polygon fill="#191970" stroke="#191970" points="597.9501,-102.701 601.4546,-92.7025 592.4799,-98.3332 597.9501,-102.701"/>
</g>
<!-- Node42&#45;&gt;Node2 -->
<g id="edge43" class="edge">
<title>Node42&#45;&gt;Node2</title>
<path fill="none" stroke="#191970" d="M771.3871,-412.6682C688.882,-406.1848 552.4832,-392.0753 438,-364 326.7737,-336.7234 196,-390.0221 196,-275.5 196,-275.5 196,-275.5 196,-146.5 196,-25.7442 337.9129,-91.0062 457,-71 638.122,-40.5722 1186.103,-24.7807 1406.1105,-19.53"/>
<polygon fill="#191970" stroke="#191970" points="1406.422,-23.0237 1416.3363,-19.2879 1406.2563,-16.0257 1406.422,-23.0237"/>
</g>
<!-- Node42&#45;&gt;Node4 -->
<g id="edge44" class="edge">
<title>Node42&#45;&gt;Node4</title>
<path fill="none" stroke="#191970" d="M874.1455,-406.8706C906.6352,-394.6005 960.218,-374.3645 996.2914,-360.741"/>
<polygon fill="#191970" stroke="#191970" points="997.851,-363.8934 1005.9695,-357.086 995.3779,-357.3448 997.851,-363.8934"/>
</g>
<!-- Node42&#45;&gt;Node10 -->
<g id="edge49" class="edge">
<title>Node42&#45;&gt;Node10</title>
<path fill="none" stroke="#191970" d="M920.5439,-410.4854C991.8786,-402.5023 1093.1889,-387.4457 1125,-364 1193.4386,-313.5588 1225.5143,-210.4216 1236.4491,-166.7529"/>
<polygon fill="#191970" stroke="#191970" points="1239.8595,-167.5402 1238.783,-157.0002 1233.0517,-165.911 1239.8595,-167.5402"/>
</g>
<!-- Node42&#45;&gt;Node13 -->
<g id="edge56" class="edge">
<title>Node42&#45;&gt;Node13</title>
<path fill="none" stroke="#191970" d="M863.2543,-406.8173C876.9566,-397.3455 895.3623,-382.2093 905,-364 939.4306,-298.9476 881.019,-256.6575 928,-200 1020.8764,-87.9942 1100.9716,-139.3102 1244.4557,-93.0452"/>
<polygon fill="#191970" stroke="#191970" points="1245.6254,-96.3446 1253.9993,-89.8539 1243.4055,-89.706 1245.6254,-96.3446"/>
</g>
<!-- Node42&#45;&gt;Node15 -->
<g id="edge57" class="edge">
<title>Node42&#45;&gt;Node15</title>
<path fill="none" stroke="#191970" d="M920.7486,-409.6057C957.5247,-406.0419 1002.5408,-402.1554 1043,-400 1098.9574,-397.019 3020.7312,-403.9759 3060,-364 3085.0187,-338.5308 3117.5728,-247.3253 3007,-129 2967.0012,-86.1968 2798.2336,-44.1445 2719.1776,-26.3548"/>
<polygon fill="#191970" stroke="#191970" points="2719.6135,-22.8661 2709.0916,-24.1075 2718.091,-29.6986 2719.6135,-22.8661"/>
</g>
<!-- Node42&#45;&gt;Node22 -->
<g id="edge51" class="edge">
<title>Node42&#45;&gt;Node22</title>
<path fill="none" stroke="#191970" d="M920.7626,-409.8521C957.542,-406.3466 1002.5569,-402.438 1043,-400 1545.0099,-369.7376 1673.5733,-414.0292 2174,-364 2362.376,-345.1675 2413.0801,-348.751 2594,-293 2725.3264,-252.5314 2800.8192,-279.6787 2875,-164 2883.397,-150.9055 2885.0366,-140.8846 2875,-129 2845.975,-94.6307 2724.7514,-103.5307 2667.6675,-93.6436"/>
<polygon fill="#191970" stroke="#191970" points="2668.2984,-90.1998 2657.7918,-91.5642 2666.856,-97.0496 2668.2984,-90.1998"/>
</g>
<!-- Node42&#45;&gt;Node24 -->
<g id="edge55" class="edge">
<title>Node42&#45;&gt;Node24</title>
<path fill="none" stroke="#191970" d="M920.7484,-409.6022C957.5244,-406.0375 1002.5406,-402.1513 1043,-400 1156.1911,-393.9813 2976.3863,-402.4962 3083,-364 3134.1508,-345.5304 3274,-265.3832 3274,-211 3274,-211 3274,-211 3274,-146.5 3274,-108.4341 3274,-64.0498 3274,-38.5173"/>
<polygon fill="#191970" stroke="#191970" points="3277.5001,-38.2031 3274,-28.2031 3270.5001,-38.2031 3277.5001,-38.2031"/>
</g>
<!-- Node42&#45;&gt;Node25 -->
<g id="edge48" class="edge">
<title>Node42&#45;&gt;Node25</title>
<path fill="none" stroke="#191970" d="M771.461,-414.5429C693.4631,-409.6977 578.5639,-397.0124 551,-364 524.7536,-332.5655 581.4239,-290.8195 599,-222 609.5518,-180.6841 610.8199,-130.4742 610.5645,-102.8087"/>
<polygon fill="#191970" stroke="#191970" points="614.0629,-102.6784 610.3924,-92.7397 607.0639,-102.7981 614.0629,-102.6784"/>
</g>
<!-- Node42&#45;&gt;Node36 -->
<g id="edge45" class="edge">
<title>Node42&#45;&gt;Node36</title>
<path fill="none" stroke="#191970" d="M771.1426,-410.8026C683.6005,-402.1421 544.5953,-385.574 497,-364 425.2546,-331.4792 359.3413,-262.4267 330.4311,-229.376"/>
<polygon fill="#191970" stroke="#191970" points="333.0763,-227.0841 323.8972,-221.793 327.7733,-231.6534 333.0763,-227.0841"/>
</g>
<!-- Node42&#45;&gt;Node41 -->
<g id="edge50" class="edge">
<title>Node42&#45;&gt;Node41</title>
<path fill="none" stroke="#191970" d="M771.4174,-410.21C679.9569,-400.5325 534.9072,-382.5001 518,-364 484.7495,-327.6168 493.8272,-263.8719 501.409,-231.3447"/>
<polygon fill="#191970" stroke="#191970" points="504.8162,-232.1467 503.8596,-221.5952 498.0274,-230.4403 504.8162,-232.1467"/>
</g>
<!-- Node43 -->
<g id="node23" class="node">
<title>Node43</title>
<g id="a_node23"><a xlink:href="SecondaryDeathCondition_8h.html" target="_top" xlink:title="Declares a stopping condition class monitoring for the death of the secondary object. ">
<polygon fill="#ffffff" stroke="#ff0000" points="0,-136 0,-157 168,-157 168,-136 0,-136"/>
<text text-anchor="middle" x="84" y="-143.4" font-family="Helvetica,sans-Serif" font-size="12.00" fill="#000000">SecondaryDeathCondition.h</text>
</a>
</g>
</g>
<!-- Node42&#45;&gt;Node43 -->
<g id="edge46" class="edge">
<title>Node42&#45;&gt;Node43</title>
<path fill="none" stroke="#191970" d="M771.3658,-415.722C607.9524,-411.228 229.2661,-397.3125 182,-364 114.7455,-316.5999 92.8562,-211.7838 86.4248,-167.2105"/>
<polygon fill="#191970" stroke="#191970" points="89.888,-166.7014 85.1045,-157.2479 82.9487,-167.6211 89.888,-166.7014"/>
</g>
<!-- Node44 -->
<g id="node24" class="node">
<title>Node44</title>
<polygon fill="#ffffff" stroke="#bfbfbf" points="560.5,-336 560.5,-357 655.5,-357 655.5,-336 560.5,-336"/>
<text text-anchor="middle" x="608" y="-343.4" font-family="Helvetica,sans-Serif" font-size="12.00" fill="#000000">gsl/gsl_errno.h</text>
</g>
<!-- Node42&#45;&gt;Node44 -->
<g id="edge52" class="edge">
<title>Node42&#45;&gt;Node44</title>
<path fill="none" stroke="#191970" d="M809.9082,-406.9529C773.3525,-396.2418 715.1992,-379.1245 665,-364 660.7024,-362.7052 656.2254,-361.3469 651.7531,-359.9839"/>
<polygon fill="#191970" stroke="#191970" points="652.6277,-356.5915 642.0414,-357.0152 650.5813,-363.2857 652.6277,-356.5915"/>
</g>
<!-- Node45 -->
<g id="node25" class="node">
<title>Node45</title>
<polygon fill="#ffffff" stroke="#bfbfbf" points="674,-336 674,-357 778,-357 778,-336 674,-336"/>
<text text-anchor="middle" x="726" y="-343.4" font-family="Helvetica,sans-Serif" font-size="12.00" fill="#000000">gsl/gsl_odeiv2.h</text>
</g>
<!-- Node42&#45;&gt;Node45 -->
<g id="edge53" class="edge">
<title>Node42&#45;&gt;Node45</title>
<path fill="none" stroke="#191970" d="M828.0348,-406.8706C808.1518,-395.1065 775.8924,-376.0197 752.9728,-362.4589"/>
<polygon fill="#191970" stroke="#191970" points="754.4767,-359.282 744.088,-357.2021 750.9122,-365.3065 754.4767,-359.282"/>
</g>
<!-- Node46 -->
<g id="node26" class="node">
<title>Node46</title>
<polygon fill="#ffffff" stroke="#bfbfbf" points="796,-336 796,-357 896,-357 896,-336 796,-336"/>
<text text-anchor="middle" x="846" y="-343.4" font-family="Helvetica,sans-Serif" font-size="12.00" fill="#000000">gsl/gsl_siman.h</text>
</g>
<!-- Node42&#45;&gt;Node46 -->
<g id="edge54" class="edge">
<title>Node42&#45;&gt;Node46</title>
<path fill="none" stroke="#191970" d="M846,-406.7166C846,-396.3953 846,-380.5401 846,-367.6896"/>
<polygon fill="#191970" stroke="#191970" points="849.5001,-367.3848 846,-357.3849 842.5001,-367.3849 849.5001,-367.3848"/>
</g>
<!-- Node43&#45;&gt;Node2 -->
<g id="edge47" class="edge">
<title>Node43&#45;&gt;Node2</title>
<path fill="none" stroke="#191970" d="M93.2935,-135.9914C109.36,-118.6793 144.2517,-84.7158 182,-71 296.0599,-29.5564 1125.3759,-20.0611 1406.2707,-18.0237"/>
<polygon fill="#191970" stroke="#191970" points="1406.456,-21.5226 1416.4308,-17.9516 1406.4062,-14.5228 1406.456,-21.5226"/>
</g>
<!-- Node47&#45;&gt;Node2 -->
<g id="edge59" class="edge">
<title>Node47&#45;&gt;Node2</title>
<path fill="none" stroke="#191970" d="M1146.5419,-406.8347C1147.2397,-390.1668 1148.0312,-356.9551 1145,-329 1132.4181,-212.9637 1019.0911,-158.7937 1096,-71 1116.1459,-48.0029 1293.6389,-31.6276 1406.2531,-23.4455"/>
<polygon fill="#191970" stroke="#191970" points="1406.5422,-26.9338 1416.2661,-22.7271 1406.0412,-19.9518 1406.5422,-26.9338"/>
</g>
<!-- Node47&#45;&gt;Node4 -->
<g id="edge60" class="edge">
<title>Node47&#45;&gt;Node4</title>
<path fill="none" stroke="#191970" d="M1128.9896,-406.7166C1110.4629,-394.972 1080.6335,-376.0623 1059.3459,-362.5675"/>
<polygon fill="#191970" stroke="#191970" points="1061.1234,-359.5503 1050.8035,-357.1522 1057.3755,-365.4624 1061.1234,-359.5503"/>
</g>
<!-- Node47&#45;&gt;Node6 -->
<g id="edge61" class="edge">
<title>Node47&#45;&gt;Node6</title>
<path fill="none" stroke="#191970" d="M1145.2057,-406.811C1143.5523,-389.537 1138.6751,-354.8154 1125,-329 1100.8741,-283.4559 1051.8131,-246.7754 1021.0552,-227.0016"/>
<polygon fill="#191970" stroke="#191970" points="1022.8541,-223.9984 1012.5233,-221.6478 1019.1334,-229.9277 1022.8541,-223.9984"/>
</g>
<!-- Node48&#45;&gt;Node2 -->
<g id="edge63" class="edge">
<title>Node48&#45;&gt;Node2</title>
<path fill="none" stroke="#191970" d="M3077.7767,-400.4113C3083.5356,-390.2568 3090.0356,-376.8818 3093,-364 3096.4885,-348.8407 3096.1369,-344.236 3093,-329 3073.488,-234.2295 3078.9744,-193.6673 3007,-129 2941.9559,-70.5595 2905.1829,-85.783 2819,-71 2582.6819,-30.4642 1851.8843,-20.455 1591.949,-18.1477"/>
<polygon fill="#191970" stroke="#191970" points="1591.8155,-14.6465 1581.7855,-18.0593 1591.7546,-21.6462 1591.8155,-14.6465"/>
</g>
<!-- Node48&#45;&gt;Node11 -->
<g id="edge116" class="edge">
<title>Node48&#45;&gt;Node11</title>
<path fill="none" stroke="#191970" d="M3011.9782,-406.8988C2968.4243,-397.3218 2912.5778,-381.9945 2898,-364 2831.94,-282.4573 2949.7121,-202.6969 2875,-129 2855.7699,-110.0312 2449.9528,-88.6372 2342.1184,-83.2713"/>
<polygon fill="#191970" stroke="#191970" points="2342.2509,-79.7736 2332.0903,-82.7759 2341.9054,-86.7651 2342.2509,-79.7736"/>
</g>
<!-- Node48&#45;&gt;Node12 -->
<g id="edge115" class="edge">
<title>Node48&#45;&gt;Node12</title>
<path fill="none" stroke="#191970" d="M3011.8505,-416.1039C2835.8643,-410.7303 2290.754,-386.7169 2146,-293 2105.109,-266.5262 2116.8447,-239.2546 2088,-200 2063.3656,-166.4752 2059.6378,-154.798 2027,-129 2010.4041,-115.8821 1989.5802,-104.8061 1972.0422,-96.7072"/>
<polygon fill="#191970" stroke="#191970" points="1973.242,-93.4098 1962.6846,-92.5201 1970.3829,-99.7993 1973.242,-93.4098"/>
</g>
<!-- Node48&#45;&gt;Node15 -->
<g id="edge118" class="edge">
<title>Node48&#45;&gt;Node15</title>
<path fill="none" stroke="#191970" d="M3122.0906,-415.0713C3277.5025,-407.9559 3709.47,-386.2534 3730,-364 3885.8517,-195.0654 3236,-440.8448 3236,-211 3236,-211 3236,-211 3236,-146.5 3236,-103.0801 3212.2008,-91.6394 3174,-71 3095.7258,-28.7093 2823.6438,-19.8408 2719.2332,-17.9874"/>
<polygon fill="#191970" stroke="#191970" points="2719.14,-14.4855 2709.0837,-17.8202 2719.0247,-21.4845 2719.14,-14.4855"/>
</g>
<!-- Node48&#45;&gt;Node22 -->
<g id="edge114" class="edge">
<title>Node48&#45;&gt;Node22</title>
<path fill="none" stroke="#191970" d="M3122.1672,-417.1064C3271.1931,-415.4733 3673.3413,-407.0789 3713,-364 3723.5357,-352.5556 3723.5896,-340.3945 3713,-329 3675.7609,-288.9306 3273.602,-311.1533 3222,-293 3100.8208,-250.3698 3103.865,-175.1965 2984,-129 2926.7671,-106.9422 2746.195,-90.8426 2667.8579,-84.7161"/>
<polygon fill="#191970" stroke="#191970" points="2667.7456,-81.1971 2657.5062,-83.9182 2667.2076,-88.1764 2667.7456,-81.1971"/>
</g>
<!-- Node48&#45;&gt;Node24 -->
<g id="edge117" class="edge">
<title>Node48&#45;&gt;Node24</title>
<path fill="none" stroke="#191970" d="M3122.1491,-416.5744C3283.1807,-413.4453 3744.9015,-401.2835 3801,-364 3837.75,-339.5757 3846,-319.6261 3846,-275.5 3846,-275.5 3846,-275.5 3846,-146.5 3846,-90.9153 3429.6544,-36.2794 3307.3795,-21.4322"/>
<polygon fill="#191970" stroke="#191970" points="3307.4784,-17.9189 3297.1315,-20.1977 3306.6411,-24.8687 3307.4784,-17.9189"/>
</g>
<!-- Node49 -->
<g id="node29" class="node">
<title>Node49</title>
<g id="a_node29"><a xlink:href="EvolvingStellarQuantity_8h.html" target="_top" xlink:title="Declares a class implementing the intepolation of a single stellar quantity from stellar evolution tr...">
<polygon fill="#ffffff" stroke="#000000" points="2013,-336 2013,-357 2165,-357 2165,-336 2013,-336"/>
<text text-anchor="middle" x="2089" y="-343.4" font-family="Helvetica,sans-Serif" font-size="12.00" fill="#000000">EvolvingStellarQuantity.h</text>
</a>
</g>
</g>
<!-- Node48&#45;&gt;Node49 -->
<g id="edge64" class="edge">
<title>Node48&#45;&gt;Node49</title>
<path fill="none" stroke="#191970" d="M3011.9701,-413.505C2849.691,-401.724 2372.154,-367.0562 2175.3205,-352.7666"/>
<polygon fill="#191970" stroke="#191970" points="2175.5384,-349.2733 2165.3112,-352.04 2175.0315,-356.2549 2175.5384,-349.2733"/>
</g>
<!-- Node54 -->
<g id="node34" class="node">
<title>Node54</title>
<polygon fill="#ffffff" stroke="#bfbfbf" points="2752.5,-129.5 2752.5,-163.5 2865.5,-163.5 2865.5,-129.5 2752.5,-129.5"/>
<text text-anchor="start" x="2760.5" y="-149.9" font-family="Helvetica,sans-Serif" font-size="12.00" fill="#000000">boost/serialization</text>
<text text-anchor="middle" x="2809" y="-136.9" font-family="Helvetica,sans-Serif" font-size="12.00" fill="#000000">/base_object.hpp</text>
</g>
<!-- Node48&#45;&gt;Node54 -->
<g id="edge122" class="edge">
<title>Node48&#45;&gt;Node54</title>
<path fill="none" stroke="#191970" d="M3011.7138,-409.26C2959.2447,-400.3432 2885.4513,-384.593 2865,-364 2838.3225,-337.1375 2819.8953,-225.8804 2812.5519,-173.7193"/>
<polygon fill="#191970" stroke="#191970" points="2815.9818,-172.9684 2811.1542,-163.5373 2809.0468,-173.9205 2815.9818,-172.9684"/>
</g>
<!-- Node55 -->
<g id="node35" class="node">
<title>Node55</title>
<polygon fill="#ffffff" stroke="#bfbfbf" points="2420,-129.5 2420,-163.5 2530,-163.5 2530,-129.5 2420,-129.5"/>
<text text-anchor="start" x="2428" y="-149.9" font-family="Helvetica,sans-Serif" font-size="12.00" fill="#000000">boost/archive/text</text>
<text text-anchor="middle" x="2475" y="-136.9" font-family="Helvetica,sans-Serif" font-size="12.00" fill="#000000">_oarchive.hpp</text>
</g>
<!-- Node48&#45;&gt;Node55 -->
<g id="edge120" class="edge">
<title>Node48&#45;&gt;Node55</title>
<path fill="none" stroke="#191970" d="M3011.8691,-412.0021C2958.6159,-405.323 2876.4804,-391.3695 2810,-364 2746.0491,-337.6719 2578.3731,-220.325 2507.4374,-169.7826"/>
<polygon fill="#191970" stroke="#191970" points="2509.055,-166.6371 2498.8822,-163.6765 2504.9884,-172.3347 2509.055,-166.6371"/>
</g>
<!-- Node56 -->
<g id="node36" class="node">
<title>Node56</title>
<polygon fill="#ffffff" stroke="#bfbfbf" points="2548,-129.5 2548,-163.5 2658,-163.5 2658,-129.5 2548,-129.5"/>
<text text-anchor="start" x="2556" y="-149.9" font-family="Helvetica,sans-Serif" font-size="12.00" fill="#000000">boost/archive/text</text>
<text text-anchor="middle" x="2603" y="-136.9" font-family="Helvetica,sans-Serif" font-size="12.00" fill="#000000">_iarchive.hpp</text>
</g>
<!-- Node48&#45;&gt;Node56 -->
<g id="edge121" class="edge">
<title>Node48&#45;&gt;Node56</title>
<path fill="none" stroke="#191970" d="M3011.7753,-409.4216C2954.1832,-400.125 2868.6473,-383.5925 2842,-364 2797.8464,-331.5359 2817.1968,-297.2996 2779,-258 2741.3498,-219.2628 2687.7306,-187.7759 2649.5876,-168.2633"/>
<polygon fill="#191970" stroke="#191970" points="2650.7492,-164.9297 2640.2428,-163.5633 2647.6039,-171.1833 2650.7492,-164.9297"/>
</g>
<!-- Node32 -->
<g id="node41" class="node">
<title>Node32</title>
<polygon fill="#ffffff" stroke="#bfbfbf" points="2529,-265 2529,-286 2585,-286 2585,-265 2529,-265"/>
<text text-anchor="middle" x="2557" y="-272.4" font-family="Helvetica,sans-Serif" font-size="12.00" fill="#000000">fstream</text>
</g>
<!-- Node48&#45;&gt;Node32 -->
<g id="edge119" class="edge">
<title>Node48&#45;&gt;Node32</title>
<path fill="none" stroke="#191970" d="M3011.759,-412.5455C2947.8828,-405.8142 2840.0964,-391.351 2751,-364 2718.6213,-354.0603 2633.4127,-313.1141 2587.4407,-290.5656"/>
<polygon fill="#191970" stroke="#191970" points="2588.7777,-287.3228 2578.2595,-286.051 2585.6889,-293.6045 2588.7777,-287.3228"/>
</g>
<!-- Node65 -->
<g id="node42" class="node">
<title>Node65</title>
<g id="a_node42"><a xlink:href="InterpolationQuantities_8h.html" target="_top" xlink:title="Defines constant to serve as identifier of the various quantities handled by the stellar evolution in...">
<polygon fill="#ffffff" stroke="#ff0000" points="3302,-265 3302,-286 3448,-286 3448,-265 3302,-265"/>
<text text-anchor="middle" x="3375" y="-272.4" font-family="Helvetica,sans-Serif" font-size="12.00" fill="#000000">InterpolationQuantities.h</text>
</a>
</g>
</g>
<!-- Node48&#45;&gt;Node65 -->
<g id="edge106" class="edge">
<title>Node48&#45;&gt;Node65</title>
<path fill="none" stroke="#191970" d="M3122.1369,-415.4164C3286.2383,-408.9504 3761.5367,-388.2019 3784,-364 3794.5823,-352.5987 3794.2614,-340.691 3784,-329 3762.8779,-304.935 3571.6368,-288.3823 3458.2906,-280.5912"/>
<polygon fill="#191970" stroke="#191970" points="3458.4616,-277.0948 3448.2475,-279.9097 3457.9876,-284.0788 3458.4616,-277.0948"/>
</g>
<!-- Node66 -->
<g id="node43" class="node">
<title>Node66</title>
<g id="a_node43"><a xlink:href="ThreadedInterpolation_8h.html" target="_top" xlink:title="Declaration of a class that handles multithreaded stellar evolution interpolation. ">
<polygon fill="#ffffff" stroke="#ff0000" points="2907,-336 2907,-357 3051,-357 3051,-336 2907,-336"/>
<text text-anchor="middle" x="2979" y="-343.4" font-family="Helvetica,sans-Serif" font-size="12.00" fill="#000000">ThreadedInterpolation.h</text>
</a>
</g>
</g>
<!-- Node48&#45;&gt;Node66 -->
<g id="edge108" class="edge">
<title>Node48&#45;&gt;Node66</title>
<path fill="none" stroke="#191970" d="M3045.6977,-400.3129C3031.8809,-389.1653 3013.9523,-374.7001 3000.1633,-363.5749"/>
<polygon fill="#191970" stroke="#191970" points="3002.1669,-360.6943 2992.1864,-357.139 2997.7714,-366.1423 3002.1669,-360.6943"/>
</g>
<!-- Node68 -->
<g id="node44" class="node">
<title>Node68</title>
<g id="a_node44"><a xlink:href="StellarZone_8h.html" target="_top" xlink:title="Defines tags for the stellar zone. ">
<polygon fill="#ffffff" stroke="#000000" points="3183.5,-336 3183.5,-357 3310.5,-357 3310.5,-336 3183.5,-336"/>
<text text-anchor="middle" x="3247" y="-343.4" font-family="Helvetica,sans-Serif" font-size="12.00" fill="#000000">../Core/StellarZone.h</text>
</a>
</g>
</g>
<!-- Node48&#45;&gt;Node68 -->
<g id="edge113" class="edge">
<title>Node48&#45;&gt;Node68</title>
<path fill="none" stroke="#191970" d="M3110.1145,-400.4937C3140.8574,-388.3674 3181.7267,-372.2467 3210.7837,-360.7853"/>
<polygon fill="#191970" stroke="#191970" points="3212.135,-364.0148 3220.1532,-357.0896 3209.5665,-357.5031 3212.135,-364.0148"/>
</g>
<!-- Node69 -->
<g id="node45" class="node">
<title>Node69</title>
<polygon fill="#ffffff" stroke="#bfbfbf" points="3328.5,-329.5 3328.5,-363.5 3441.5,-363.5 3441.5,-329.5 3328.5,-329.5"/>
<text text-anchor="start" x="3336.5" y="-349.9" font-family="Helvetica,sans-Serif" font-size="12.00" fill="#000000">boost/serialization</text>
<text text-anchor="middle" x="3385" y="-336.9" font-family="Helvetica,sans-Serif" font-size="12.00" fill="#000000">/list.hpp</text>
</g>
<!-- Node48&#45;&gt;Node69 -->
<g id="edge123" class="edge">
<title>Node48&#45;&gt;Node69</title>
<path fill="none" stroke="#191970" d="M3122.4719,-406.6764C3171.6535,-396.8749 3245.6428,-381.6297 3318.5193,-364.3002"/>
<polygon fill="#191970" stroke="#191970" points="3319.4153,-367.6847 3328.3263,-361.9537 3317.7863,-360.8768 3319.4153,-367.6847"/>
</g>
<!-- Node70 -->
<g id="node46" class="node">
<title>Node70</title>
<polygon fill="#ffffff" stroke="#bfbfbf" points="3459.5,-329.5 3459.5,-363.5 3572.5,-363.5 3572.5,-329.5 3459.5,-329.5"/>
<text text-anchor="start" x="3467.5" y="-349.9" font-family="Helvetica,sans-Serif" font-size="12.00" fill="#000000">boost/serialization</text>
<text text-anchor="middle" x="3516" y="-336.9" font-family="Helvetica,sans-Serif" font-size="12.00" fill="#000000">/valarray.hpp</text>
</g>
<!-- Node48&#45;&gt;Node70 -->
<g id="edge124" class="edge">
<title>Node48&#45;&gt;Node70</title>
<path fill="none" stroke="#191970" d="M3122.0522,-412.011C3194.9701,-404.2586 3327.6799,-388.479 3449.5063,-364.1824"/>
<polygon fill="#191970" stroke="#191970" points="3450.2688,-367.5991 3459.3786,-362.1897 3448.8838,-360.7375 3450.2688,-367.5991"/>
</g>
<!-- Node71 -->
<g id="node47" class="node">
<title>Node71</title>
<polygon fill="#ffffff" stroke="#bfbfbf" points="3590.5,-329.5 3590.5,-363.5 3703.5,-363.5 3703.5,-329.5 3590.5,-329.5"/>
<text text-anchor="start" x="3598.5" y="-349.9" font-family="Helvetica,sans-Serif" font-size="12.00" fill="#000000">boost/serialization</text>
<text text-anchor="middle" x="3647" y="-336.9" font-family="Helvetica,sans-Serif" font-size="12.00" fill="#000000">/vector.hpp</text>
</g>
<!-- Node48&#45;&gt;Node71 -->
<g id="edge125" class="edge">
<title>Node48&#45;&gt;Node71</title>
<path fill="none" stroke="#191970" d="M3122.2898,-414.6556C3215.2402,-409.2415 3408.7267,-395.26 3580.4276,-364.1399"/>
<polygon fill="#191970" stroke="#191970" points="3581.1984,-367.557 3590.4016,-362.3081 3579.9339,-360.6721 3581.1984,-367.557"/>
</g>
<!-- Node49&#45;&gt;Node2 -->
<g id="edge65" class="edge">
<title>Node49&#45;&gt;Node2</title>
<path fill="none" stroke="#191970" d="M2012.8382,-342.894C1891.8861,-336.4181 1661.721,-320.8286 1585,-293 1531.6955,-273.6651 1505.7013,-272.0225 1479,-222 1474.3957,-213.3742 1478.3196,-209.7541 1479,-200 1482.3414,-152.0958 1489.0768,-140.7675 1494,-93 1495.642,-77.0683 1496.8541,-59.1868 1497.6733,-44.8263"/>
<polygon fill="#191970" stroke="#191970" points="1501.18,-44.7958 1498.2238,-34.6218 1494.1901,-44.4187 1501.18,-44.7958"/>
</g>
<!-- Node49&#45;&gt;Node11 -->
<g id="edge101" class="edge">
<title>Node49&#45;&gt;Node11</title>
<path fill="none" stroke="#191970" d="M2165.3009,-339.916C2228.2431,-332.7161 2310.4228,-318.6232 2331,-293 2340.7402,-280.8713 2336.0483,-272.7136 2331,-258 2324.4217,-238.8274 2309.5783,-241.1726 2303,-222 2289.0128,-181.2337 2300.5033,-130.1047 2308.9812,-102.299"/>
<polygon fill="#191970" stroke="#191970" points="2312.3909,-103.1294 2312.1315,-92.5377 2305.7293,-100.9794 2312.3909,-103.1294"/>
</g>
<!-- Node49&#45;&gt;Node12 -->
<g id="edge100" class="edge">
<title>Node49&#45;&gt;Node12</title>
<path fill="none" stroke="#191970" d="M2090.0682,-335.7999C2092.0944,-310.5095 2094.3309,-245.7381 2070,-200 2063.0927,-187.0154 1992.7808,-128.4305 1956.8703,-98.9931"/>
<polygon fill="#191970" stroke="#191970" points="1958.9041,-96.1349 1948.9473,-92.5137 1954.4726,-101.5537 1958.9041,-96.1349"/>
</g>
<!-- Node49&#45;&gt;Node14 -->
<g id="edge105" class="edge">
<title>Node49&#45;&gt;Node14</title>
<path fill="none" stroke="#191970" d="M2012.7723,-345.5074C1851.0235,-342.6491 1484.9206,-331.9079 1445,-293 1393.0504,-242.3682 1407.3978,-144.8316 1416.7985,-102.4709"/>
<polygon fill="#191970" stroke="#191970" points="1420.2068,-103.2664 1419.094,-92.7302 1413.3935,-101.6607 1420.2068,-103.2664"/>
</g>
<!-- Node49&#45;&gt;Node15 -->
<g id="edge103" class="edge">
<title>Node49&#45;&gt;Node15</title>
<path fill="none" stroke="#191970" d="M2165.2659,-340.8715C2237.2503,-334.1624 2347.6193,-320.2452 2440,-293 2449.2303,-290.2778 2589.6039,-226.7025 2598,-222 2637.9022,-199.6512 2661.6374,-204.4388 2683,-164 2704.3857,-123.5175 2693.244,-67.5819 2684.7311,-37.9059"/>
<polygon fill="#191970" stroke="#191970" points="2688.0468,-36.7798 2681.7788,-28.238 2681.352,-38.8243 2688.0468,-36.7798"/>
</g>
<!-- Node49&#45;&gt;Node22 -->
<g id="edge99" class="edge">
<title>Node49&#45;&gt;Node22</title>
<path fill="none" stroke="#191970" d="M2165.2706,-337.5895C2224.6879,-329.4312 2308.7679,-315.2001 2380,-293 2413.3786,-282.5973 2648.0102,-193.3553 2667,-164 2680.2081,-143.5822 2663.8391,-117.5049 2649.1036,-100.305"/>
<polygon fill="#191970" stroke="#191970" points="2651.4529,-97.686 2642.1378,-92.6383 2646.272,-102.3932 2651.4529,-97.686"/>
</g>
<!-- Node49&#45;&gt;Node24 -->
<g id="edge102" class="edge">
<title>Node49&#45;&gt;Node24</title>
<path fill="none" stroke="#191970" d="M2165.2423,-341.0429C2285.7727,-331.9739 2514.7813,-312.8268 2594,-293 2856.8507,-227.214 3152.3918,-80.5327 3244.805,-32.8185"/>
<polygon fill="#191970" stroke="#191970" points="3246.576,-35.8427 3253.8427,-28.1325 3243.3539,-29.6284 3246.576,-35.8427"/>
</g>
<!-- Node50 -->
<g id="node30" class="node">
<title>Node50</title>
<g id="a_node30"><a xlink:href="AllowedGridGrowth_8h.html" target="_top" xlink:title="Declares &amp; defines a class describing how the mass&#45;[Fe/H] interpolation grid is allowed to grow...">
<polygon fill="#ffffff" stroke="#000000" points="1487.5,-200.5 1487.5,-221.5 1618.5,-221.5 1618.5,-200.5 1487.5,-200.5"/>
<text text-anchor="middle" x="1553" y="-207.9" font-family="Helvetica,sans-Serif" font-size="12.00" fill="#000000">AllowedGridGrowth.h</text>
</a>
</g>
</g>
<!-- Node49&#45;&gt;Node50 -->
<g id="edge66" class="edge">
<title>Node49&#45;&gt;Node50</title>
<path fill="none" stroke="#191970" d="M2012.5744,-343.6798C1900.5461,-338.5175 1697.9943,-324.9804 1633,-293 1604.0372,-278.7489 1579.644,-249.6099 1565.6671,-230.1878"/>
<polygon fill="#191970" stroke="#191970" points="1568.4128,-228.0056 1559.8335,-221.789 1562.6636,-231.9989 1568.4128,-228.0056"/>
</g>
<!-- Node51 -->
<g id="node31" class="node">
<title>Node51</title>
<g id="a_node31"><a xlink:href="RemoveLogDeriv_8h.html" target="_top" xlink:title="Declares a class to switch from logarithmic to linear derivative. ">
<polygon fill="#ffffff" stroke="#ff0000" points="1584,-136 1584,-157 1704,-157 1704,-136 1584,-136"/>
<text text-anchor="middle" x="1644" y="-143.4" font-family="Helvetica,sans-Serif" font-size="12.00" fill="#000000">RemoveLogDeriv.h</text>
</a>
</g>
</g>
<!-- Node49&#45;&gt;Node51 -->
<g id="edge68" class="edge">
<title>Node49&#45;&gt;Node51</title>
<path fill="none" stroke="#191970" d="M2012.9609,-342.3048C1919.7171,-335.999 1768.1189,-321.6329 1720,-293 1674.2065,-265.7508 1654.8386,-200.7763 1647.6693,-167.2702"/>
<polygon fill="#191970" stroke="#191970" points="1651.0547,-166.3469 1645.6851,-157.2136 1644.1871,-167.7019 1651.0547,-166.3469"/>
</g>
<!-- Node58 -->
<g id="node32" class="node">
<title>Node58</title>
<g id="a_node32"><a xlink:href="SumDerivatives_8h.html" target="_top" xlink:title="Declares &amp; defines a class for the derivative of a quantity which is the sum of two other quantities...">
<polygon fill="#ffffff" stroke="#000000" points="1949.5,-265 1949.5,-286 2060.5,-286 2060.5,-265 1949.5,-265"/>
<text text-anchor="middle" x="2005" y="-272.4" font-family="Helvetica,sans-Serif" font-size="12.00" fill="#000000">SumDerivatives.h</text>
</a>
</g>
</g>
<!-- Node49&#45;&gt;Node58 -->
<g id="edge70" class="edge">
<title>Node49&#45;&gt;Node58</title>
<path fill="none" stroke="#191970" d="M2076.2422,-335.7166C2062.7194,-324.2866 2041.1675,-306.0702 2025.3059,-292.6633"/>
<polygon fill="#191970" stroke="#191970" points="2027.4993,-289.9345 2017.6026,-286.1522 2022.9806,-295.2807 2027.4993,-289.9345"/>
</g>
<!-- Node53 -->
<g id="node33" class="node">
<title>Node53</title>
<g id="a_node33"><a xlink:href="Functions_8h.html" target="_top" xlink:title="A hierarchy of classes representing functions. ">
<polygon fill="#ffffff" stroke="#ff0000" points="2311.5,-200.5 2311.5,-221.5 2390.5,-221.5 2390.5,-200.5 2311.5,-200.5"/>
<text text-anchor="middle" x="2351" y="-207.9" font-family="Helvetica,sans-Serif" font-size="12.00" fill="#000000">Functions.h</text>
</a>
</g>
</g>
<!-- Node49&#45;&gt;Node53 -->
<g id="edge90" class="edge">
<title>Node49&#45;&gt;Node53</title>
<path fill="none" stroke="#191970" d="M2165.2958,-342.1988C2237.4806,-336.3456 2338.3492,-322.9295 2363,-293 2377.278,-275.6646 2369.6828,-248.9831 2361.5801,-230.7979"/>
<polygon fill="#191970" stroke="#191970" points="2364.6731,-229.1547 2357.162,-221.6825 2358.374,-232.2078 2364.6731,-229.1547"/>
</g>
<!-- Node59 -->
<g id="node37" class="node">
<title>Node59</title>
<g id="a_node37"><a xlink:href="InterpolatedDerivatives_8h_source.html" target="_top" xlink:title="InterpolatedDerivatives.h">
<polygon fill="#ffffff" stroke="#ff0000" points="1744.5,-265 1744.5,-286 1893.5,-286 1893.5,-265 1744.5,-265"/>
<text text-anchor="middle" x="1819" y="-272.4" font-family="Helvetica,sans-Serif" font-size="12.00" fill="#000000">InterpolatedDerivatives.h</text>
</a>
</g>
</g>
<!-- Node49&#45;&gt;Node59 -->
<g id="edge83" class="edge">
<title>Node49&#45;&gt;Node59</title>
<path fill="none" stroke="#191970" d="M2048.8698,-335.9472C2001.0809,-323.3805 1921.2208,-302.3803 1869.3365,-288.7366"/>
<polygon fill="#191970" stroke="#191970" points="1869.9118,-285.269 1859.3505,-286.1107 1868.1316,-292.0388 1869.9118,-285.269"/>
</g>
<!-- Node60 -->
<g id="node38" class="node">
<title>Node60</title>
<g id="a_node38"><a xlink:href="mass__feh__interp_8h.html" target="_top" xlink:title="Define a single function performing mass&#45;[Fe/H] interpolations. ">
<polygon fill="#ffffff" stroke="#ff0000" points="1675.5,-200.5 1675.5,-221.5 1790.5,-221.5 1790.5,-200.5 1675.5,-200.5"/>
<text text-anchor="middle" x="1733" y="-207.9" font-family="Helvetica,sans-Serif" font-size="12.00" fill="#000000">mass_feh_interp.h</text>
</a>
</g>
</g>
<!-- Node49&#45;&gt;Node60 -->
<g id="edge89" class="edge">
<title>Node49&#45;&gt;Node60</title>
<path fill="none" stroke="#191970" d="M2012.8651,-340.0923C1914.6505,-331.0566 1754.1825,-313.3799 1736,-293 1721.2542,-276.4721 1723.3138,-249.7722 1727.2044,-231.3535"/>
<polygon fill="#191970" stroke="#191970" points="1730.6125,-232.1509 1729.5936,-221.6052 1723.8137,-230.4846 1730.6125,-232.1509"/>
</g>
<!-- Node62 -->
<g id="node39" class="node">
<title>Node62</title>
<g id="a_node39"><a xlink:href="InterpSolutionIterator_8h_source.html" target="_top" xlink:title="../Core/InterpSolutionIterator.h">
<polygon fill="#ffffff" stroke="#ff0000" points="1885,-200.5 1885,-221.5 2061,-221.5 2061,-200.5 1885,-200.5"/>
<text text-anchor="middle" x="1973" y="-207.9" font-family="Helvetica,sans-Serif" font-size="12.00" fill="#000000">../Core/InterpSolutionIterator.h</text>
</a>
</g>
</g>
<!-- Node49&#45;&gt;Node62 -->
<g id="edge91" class="edge">
<title>Node49&#45;&gt;Node62</title>
<path fill="none" stroke="#191970" d="M2042.9927,-335.9894C2004.1886,-326.0825 1953.0856,-310.2198 1941,-293 1927.1937,-273.3285 1942.4267,-246.8804 1956.2306,-229.4054"/>
<polygon fill="#191970" stroke="#191970" points="1959.0176,-231.529 1962.7588,-221.6166 1953.6527,-227.0324 1959.0176,-231.529"/>
</g>
<!-- Node64 -->
<g id="node40" class="node">
<title>Node64</title>
<g id="a_node40"><a xlink:href="InterpolatingFunctionALGLIB_8h_source.html" target="_top" xlink:title="../Core/InterpolatingFunction\lALGLIB.h">
<polygon fill="#ffffff" stroke="#ff0000" points="2154.5,-258.5 2154.5,-292.5 2321.5,-292.5 2321.5,-258.5 2154.5,-258.5"/>
<text text-anchor="start" x="2162.5" y="-278.9" font-family="Helvetica,sans-Serif" font-size="12.00" fill="#000000">../Core/InterpolatingFunction</text>
<text text-anchor="middle" x="2238" y="-265.9" font-family="Helvetica,sans-Serif" font-size="12.00" fill="#000000">ALGLIB.h</text>
</a>
</g>
</g>
<!-- Node49&#45;&gt;Node64 -->
<g id="edge95" class="edge">
<title>Node49&#45;&gt;Node64</title>
<path fill="none" stroke="#191970" d="M2111.3068,-335.8706C2132.8027,-325.6276 2165.9488,-309.8331 2192.9463,-296.9685"/>
<polygon fill="#191970" stroke="#191970" points="2194.6882,-300.0156 2202.2101,-292.5543 2191.677,-293.6964 2194.6882,-300.0156"/>
</g>
<!-- Node49&#45;&gt;Node32 -->
<g id="edge104" class="edge">
<title>Node49&#45;&gt;Node32</title>
<path fill="none" stroke="#191970" d="M2165.2067,-343.1245C2251.3663,-337.8892 2395.239,-324.8413 2515,-293 2518.3852,-292.1 2521.8579,-290.9866 2525.2861,-289.7609"/>
<polygon fill="#191970" stroke="#191970" points="2526.6685,-292.9788 2534.7205,-286.0928 2524.1318,-286.4545 2526.6685,-292.9788"/>
</g>
<!-- Node50&#45;&gt;Node2 -->
<g id="edge67" class="edge">
<title>Node50&#45;&gt;Node2</title>
<path fill="none" stroke="#191970" d="M1552.8499,-200.4599C1552.2075,-176.6448 1548.8918,-117.1614 1532,-71 1528.493,-61.4161 1523.1446,-51.6951 1517.7682,-43.2159"/>
<polygon fill="#191970" stroke="#191970" points="1520.6821,-41.2771 1512.2312,-34.8871 1514.8528,-45.1525 1520.6821,-41.2771"/>
</g>
<!-- Node51&#45;&gt;Node2 -->
<g id="edge69" class="edge">
<title>Node51&#45;&gt;Node2</title>
<path fill="none" stroke="#191970" d="M1634.4139,-135.7476C1620.7353,-120.6371 1594.5486,-92.5564 1570,-71 1558.0329,-60.4915 1544.1777,-49.7623 1531.9008,-40.6977"/>
<polygon fill="#191970" stroke="#191970" points="1533.8375,-37.7781 1523.6962,-34.7112 1529.7115,-43.4329 1533.8375,-37.7781"/>
</g>
<!-- Node58&#45;&gt;Node2 -->
<g id="edge71" class="edge">
<title>Node58&#45;&gt;Node2</title>
<path fill="none" stroke="#191970" d="M1970.1519,-264.9868C1943.1659,-255.9398 1905.5323,-241.2957 1876,-222 1790.8422,-166.3601 1795.2947,-115.8657 1704,-71 1668.9976,-53.7985 1627.8226,-41.6683 1591.5928,-33.3594"/>
<polygon fill="#191970" stroke="#191970" points="1592.0361,-29.8725 1581.5145,-31.1162 1590.5152,-36.7053 1592.0361,-29.8725"/>
</g>
<!-- Node58&#45;&gt;Node53 -->
<g id="edge72" class="edge">
<title>Node58&#45;&gt;Node53</title>
<path fill="none" stroke="#191970" d="M2060.5909,-265.137C2127.0915,-252.7402 2237.416,-232.1739 2301.228,-220.2783"/>
<polygon fill="#191970" stroke="#191970" points="2302.248,-223.6485 2311.4372,-218.3752 2300.9651,-216.7671 2302.248,-223.6485"/>
</g>
<!-- Node53&#45;&gt;Node2 -->
<g id="edge73" class="edge">
<title>Node53&#45;&gt;Node2</title>
<path fill="none" stroke="#191970" d="M2344.7673,-200.4479C2328.0091,-173.2021 2278.9596,-100.5654 2216,-71 2160.8664,-45.1096 1773.0011,-27.5986 1591.8309,-20.7399"/>
<polygon fill="#191970" stroke="#191970" points="1591.9052,-17.2403 1581.7808,-20.3623 1591.6423,-24.2354 1591.9052,-17.2403"/>
</g>
<!-- Node53&#45;&gt;Node10 -->
<g id="edge74" class="edge">
<title>Node53&#45;&gt;Node10</title>
<path fill="none" stroke="#191970" d="M2311.4945,-208.7044C2147.0459,-199.1486 1515.7069,-162.4627 1307.8117,-150.3823"/>
<polygon fill="#191970" stroke="#191970" points="1307.8353,-146.8779 1297.6491,-149.7918 1307.4292,-153.8661 1307.8353,-146.8779"/>
</g>
<!-- Node53&#45;&gt;Node11 -->
<g id="edge78" class="edge">
<title>Node53&#45;&gt;Node11</title>
<path fill="none" stroke="#191970" d="M2348.1358,-200.4434C2342.3418,-179.0883 2329.1403,-130.4313 2321.584,-102.5809"/>
<polygon fill="#191970" stroke="#191970" points="2324.9002,-101.4371 2318.9038,-92.7025 2318.1445,-103.2701 2324.9002,-101.4371"/>
</g>
<!-- Node53&#45;&gt;Node12 -->
<g id="edge77" class="edge">
<title>Node53&#45;&gt;Node12</title>
<path fill="none" stroke="#191970" d="M2317.0388,-200.4434C2240.8326,-176.7552 2056.555,-119.4737 1975.443,-94.2606"/>
<polygon fill="#191970" stroke="#191970" points="1976.2064,-90.8328 1965.6182,-91.2066 1974.1285,-97.5173 1976.2064,-90.8328"/>
</g>
<!-- Node53&#45;&gt;Node13 -->
<g id="edge76" class="edge">
<title>Node53&#45;&gt;Node13</title>
<path fill="none" stroke="#191970" d="M2311.4647,-205.6295C2211.3767,-192.0965 1939.8011,-155.7685 1713,-129 1634.253,-119.7058 1395.3451,-94.5253 1308.2281,-85.3786"/>
<polygon fill="#191970" stroke="#191970" points="1308.4529,-81.883 1298.1422,-84.3201 1307.7222,-88.8448 1308.4529,-81.883"/>
</g>
<!-- Node53&#45;&gt;Node15 -->
<g id="edge79" class="edge">
<title>Node53&#45;&gt;Node15</title>
<path fill="none" stroke="#191970" d="M2351.0303,-200.4887C2351.647,-183.3288 2355.3276,-149.1904 2374,-129 2444.3234,-52.9597 2570.8855,-28.6183 2636.3111,-20.9469"/>
<polygon fill="#191970" stroke="#191970" points="2637.0898,-24.3827 2646.6492,-19.8147 2636.3276,-17.4243 2637.0898,-24.3827"/>
</g>
<!-- Node53&#45;&gt;Node22 -->
<g id="edge75" class="edge">
<title>Node53&#45;&gt;Node22</title>
<path fill="none" stroke="#191970" d="M2355.6928,-200.2485C2364.0603,-182.4213 2383.3138,-146.9337 2411,-129 2440.8716,-109.6508 2539.7158,-94.0305 2594.1852,-86.6367"/>
<polygon fill="#191970" stroke="#191970" points="2594.6834,-90.1013 2604.1334,-85.3108 2593.7586,-83.1626 2594.6834,-90.1013"/>
</g>
<!-- Node53&#45;&gt;Node54 -->
<g id="edge80" class="edge">
<title>Node53&#45;&gt;Node54</title>
<path fill="none" stroke="#191970" d="M2390.8433,-205.3889C2469.5614,-194.303 2645.7466,-169.4909 2742.4032,-155.8788"/>
<polygon fill="#191970" stroke="#191970" points="2742.9442,-159.3372 2752.3584,-154.4768 2741.968,-152.4056 2742.9442,-159.3372"/>
</g>
<!-- Node53&#45;&gt;Node55 -->
<g id="edge81" class="edge">
<title>Node53&#45;&gt;Node55</title>
<path fill="none" stroke="#191970" d="M2371.1987,-200.4934C2387.9372,-191.7867 2412.2843,-179.1223 2433.1923,-168.2467"/>
<polygon fill="#191970" stroke="#191970" points="2434.9562,-171.2745 2442.2126,-163.5547 2431.7259,-165.0644 2434.9562,-171.2745"/>
</g>
<!-- Node53&#45;&gt;Node56 -->
<g id="edge82" class="edge">
<title>Node53&#45;&gt;Node56</title>
<path fill="none" stroke="#191970" d="M2390.6753,-201.3491C2426.6851,-192.5299 2481.4959,-178.9582 2538.0358,-164.2267"/>
<polygon fill="#191970" stroke="#191970" points="2539.0722,-167.5735 2547.8626,-161.6591 2537.3026,-160.8009 2539.0722,-167.5735"/>
</g>
<!-- Node59&#45;&gt;Node2 -->
<g id="edge84" class="edge">
<title>Node59&#45;&gt;Node2</title>
<path fill="none" stroke="#191970" d="M1818.0123,-264.8874C1816.2379,-249.7009 1811.551,-221.2587 1800,-200 1761.5882,-129.3062 1742.4482,-111.6205 1673,-71 1648.2176,-56.5047 1619.1129,-45.56 1591.8741,-37.4713"/>
<polygon fill="#191970" stroke="#191970" points="1592.5121,-34.0132 1581.9346,-34.6192 1590.5813,-40.7417 1592.5121,-34.0132"/>
</g>
<!-- Node59&#45;&gt;Node53 -->
<g id="edge88" class="edge">
<title>Node59&#45;&gt;Node53</title>
<path fill="none" stroke="#191970" d="M1889.9165,-264.9811C1906.6555,-262.5943 1924.4473,-260.1355 1941,-258 2070.6236,-241.277 2223.6979,-224.5218 2300.9834,-216.2717"/>
<polygon fill="#191970" stroke="#191970" points="2301.8024,-219.7044 2311.3754,-215.1649 2301.061,-212.7437 2301.8024,-219.7044"/>
</g>
<!-- Node59&#45;&gt;Node60 -->
<g id="edge85" class="edge">
<title>Node59&#45;&gt;Node60</title>
<path fill="none" stroke="#191970" d="M1804.7988,-264.8491C1791.3542,-254.7656 1770.9579,-239.4684 1755.3356,-227.7517"/>
<polygon fill="#191970" stroke="#191970" points="1757.3223,-224.8667 1747.2222,-221.6667 1753.1223,-230.4667 1757.3223,-224.8667"/>
</g>
<!-- Node60&#45;&gt;Node2 -->
<g id="edge86" class="edge">
<title>Node60&#45;&gt;Node2</title>
<path fill="none" stroke="#191970" d="M1733.0975,-200.4996C1732.7215,-183.6572 1729.7246,-150.3349 1713,-129 1677.4556,-83.6573 1618.3418,-54.8535 1571.2399,-37.9044"/>
<polygon fill="#191970" stroke="#191970" points="1572.2823,-34.5612 1561.6875,-34.5687 1569.9745,-41.1699 1572.2823,-34.5612"/>
</g>
<!-- Node60&#45;&gt;Node9 -->
<g id="edge87" class="edge">
<title>Node60&#45;&gt;Node9</title>
<path fill="none" stroke="#191970" d="M1675.2583,-204.6898C1659.9063,-203.0836 1643.3313,-201.4134 1628,-200 1427.3259,-181.4999 1369.8684,-219.0217 1176,-164 1124.5687,-149.4033 1070.3352,-117.6315 1040.0725,-98.2015"/>
<polygon fill="#191970" stroke="#191970" points="1041.7685,-95.1291 1031.4799,-92.6004 1037.946,-100.9933 1041.7685,-95.1291"/>
</g>
<!-- Node62&#45;&gt;Node2 -->
<g id="edge92" class="edge">
<title>Node62&#45;&gt;Node2</title>
<path fill="none" stroke="#191970" d="M1966.2292,-200.3545C1948.5297,-173.5238 1897.9378,-102.9967 1836,-71 1794.528,-49.5758 1676.4054,-34.2545 1591.721,-25.6413"/>
<polygon fill="#191970" stroke="#191970" points="1591.8659,-22.1383 1581.5668,-24.6241 1591.1682,-29.1035 1591.8659,-22.1383"/>
</g>
<!-- Node62&#45;&gt;Node10 -->
<g id="edge93" class="edge">
<title>Node62&#45;&gt;Node10</title>
<path fill="none" stroke="#191970" d="M1884.7037,-203.2198C1736.279,-190.1414 1440.0408,-164.0384 1307.6295,-152.371"/>
<polygon fill="#191970" stroke="#191970" points="1307.8884,-148.8804 1297.6198,-151.489 1307.2739,-155.8534 1307.8884,-148.8804"/>
</g>
<!-- Node62&#45;&gt;Node12 -->
<g id="edge94" class="edge">
<title>Node62&#45;&gt;Node12</title>
<path fill="none" stroke="#191970" d="M1969.9721,-200.4434C1963.847,-179.0883 1949.8912,-130.4313 1941.9031,-102.5809"/>
<polygon fill="#191970" stroke="#191970" points="1945.1912,-101.3499 1939.0697,-92.7025 1938.4625,-103.2799 1945.1912,-101.3499"/>
</g>
<!-- Node64&#45;&gt;Node2 -->
<g id="edge96" class="edge">
<title>Node64&#45;&gt;Node2</title>
<path fill="none" stroke="#191970" d="M2223.3305,-258.2444C2186.6255,-216.5388 2085.7764,-110.7777 1975,-71 1906.6502,-46.4569 1709.9955,-30.5001 1591.927,-22.8379"/>
<polygon fill="#191970" stroke="#191970" points="1592.0124,-19.3362 1581.8088,-22.189 1591.5643,-26.3219 1592.0124,-19.3362"/>
</g>
<!-- Node64&#45;&gt;Node53 -->
<g id="edge97" class="edge">
<title>Node64&#45;&gt;Node53</title>
<path fill="none" stroke="#191970" d="M2267.9853,-258.3845C2285.308,-248.4967 2306.9313,-236.1542 2323.7662,-226.545"/>
<polygon fill="#191970" stroke="#191970" points="2325.6187,-229.5176 2332.5685,-221.5206 2322.1486,-223.4383 2325.6187,-229.5176"/>
</g>
<!-- Node64&#45;&gt;Node62 -->
<g id="edge98" class="edge">
<title>Node64&#45;&gt;Node62</title>
<path fill="none" stroke="#191970" d="M2168.0277,-258.469C2123.5456,-247.6422 2066.8642,-233.8462 2026.0856,-223.9208"/>
<polygon fill="#191970" stroke="#191970" points="2026.8829,-220.5128 2016.3388,-221.5485 2025.2274,-227.3142 2026.8829,-220.5128"/>
</g>
<!-- Node65&#45;&gt;Node24 -->
<g id="edge107" class="edge">
<title>Node65&#45;&gt;Node24</title>
<path fill="none" stroke="#191970" d="M3370.7887,-264.7425C3355.3856,-225.3959 3301.9583,-88.9183 3281.7893,-37.3975"/>
<polygon fill="#191970" stroke="#191970" points="3285.0223,-36.0545 3278.1177,-28.0185 3278.5039,-38.6062 3285.0223,-36.0545"/>
</g>
<!-- Node66&#45;&gt;Node2 -->
<g id="edge109" class="edge">
<title>Node66&#45;&gt;Node2</title>
<path fill="none" stroke="#191970" d="M2983.6352,-335.7894C2997.88,-301.0261 3036.9491,-190.071 2984,-129 2890.1746,-20.7828 2809.3083,-87.2027 2667,-71 2459.3454,-47.3572 1830.0523,-27.1346 1591.7756,-20.127"/>
<polygon fill="#191970" stroke="#191970" points="1591.8508,-16.6278 1581.7526,-19.8333 1591.6457,-23.6248 1591.8508,-16.6278"/>
</g>
<!-- Node66&#45;&gt;Node11 -->
<g id="edge112" class="edge">
<title>Node66&#45;&gt;Node11</title>
<path fill="none" stroke="#191970" d="M2979.28,-335.8688C2979.5876,-299.8857 2975.241,-181.9711 2908,-129 2885.4415,-111.2289 2453.6273,-88.7854 2342.1049,-83.2677"/>
<polygon fill="#191970" stroke="#191970" points="2342.2162,-79.769 2332.0563,-82.7735 2341.8723,-86.7605 2342.2162,-79.769"/>
</g>
<!-- Node66&#45;&gt;Node64 -->
<g id="edge111" class="edge">
<title>Node66&#45;&gt;Node64</title>
<path fill="none" stroke="#191970" d="M2906.9389,-339.5954C2772.1075,-326.6763 2481.8106,-298.8611 2331.8808,-284.4953"/>
<polygon fill="#191970" stroke="#191970" points="2332.0602,-280.9966 2321.7719,-283.5267 2331.3925,-287.9647 2332.0602,-280.9966"/>
</g>
<!-- Node66&#45;&gt;Node65 -->
<g id="edge110" class="edge">
<title>Node66&#45;&gt;Node65</title>
<path fill="none" stroke="#191970" d="M3037.8576,-335.9472C3109.5114,-323.1002 3230.3245,-301.4393 3306.2027,-287.8349"/>
<polygon fill="#191970" stroke="#191970" points="3306.9175,-291.2626 3316.1428,-286.0527 3305.6821,-284.3725 3306.9175,-291.2626"/>
</g>
<!-- Node72&#45;&gt;Node2 -->
<g id="edge127" class="edge">
<title>Node72&#45;&gt;Node2</title>
<path fill="none" stroke="#191970" d="M1922.7212,-474.0276C1764.6813,-454.392 1383,-401.2977 1383,-346.5 1383,-346.5 1383,-346.5 1383,-275.5 1383,-250.6765 1455.3552,-104.1352 1485.7763,-43.6203"/>
<polygon fill="#191970" stroke="#191970" points="1488.9076,-45.1839 1490.2811,-34.6785 1482.6561,-42.0344 1488.9076,-45.1839"/>
</g>
<!-- Node72&#45;&gt;Node49 -->
<g id="edge133" class="edge">
<title>Node72&#45;&gt;Node49</title>
<path fill="none" stroke="#191970" d="M1997.7684,-471.3675C2014.4676,-448.5115 2053.9784,-394.4337 2075.1062,-365.5163"/>
<polygon fill="#191970" stroke="#191970" points="2078.1943,-367.2224 2081.2677,-357.0831 2072.5422,-363.0927 2078.1943,-367.2224"/>
</g>
<!-- Node72&#45;&gt;Node53 -->
<g id="edge132" class="edge">
<title>Node72&#45;&gt;Node53</title>
<path fill="none" stroke="#191970" d="M2047.0948,-471.4909C2096.0052,-462.3387 2168.2721,-448.4609 2231,-435 2407.2823,-397.1711 2538.6437,-458.1394 2611,-293 2617.2428,-278.7521 2620.9732,-269.9377 2611,-258 2584.7401,-226.5675 2468.5938,-216.1173 2400.7473,-212.6714"/>
<polygon fill="#191970" stroke="#191970" points="2400.8541,-209.1726 2390.6992,-212.1942 2400.5219,-216.1647 2400.8541,-209.1726"/>
</g>
<!-- Node73 -->
<g id="node49" class="node">
<title>Node73</title>
<g id="a_node49"><a xlink:href="EvolvingStellarZone_8h.html" target="_top" xlink:title="Declares a base class for all stellar zones. ">
<polygon fill="#ffffff" stroke="#ff0000" points="2086.5,-407 2086.5,-428 2221.5,-428 2221.5,-407 2086.5,-407"/>
<text text-anchor="middle" x="2154" y="-414.4" font-family="Helvetica,sans-Serif" font-size="12.00" fill="#000000">EvolvingStellarZone.h</text>
</a>
</g>
</g>
<!-- Node72&#45;&gt;Node73 -->
<g id="edge128" class="edge">
<title>Node72&#45;&gt;Node73</title>
<path fill="none" stroke="#191970" d="M2016.7144,-471.4934C2044.233,-460.6705 2087.3008,-443.7323 2117.8529,-431.7164"/>
<polygon fill="#191970" stroke="#191970" points="2119.2719,-434.9193 2127.297,-428.0021 2116.7098,-428.405 2119.2719,-434.9193"/>
</g>
<!-- Node73&#45;&gt;Node2 -->
<g id="edge129" class="edge">
<title>Node73&#45;&gt;Node2</title>
<path fill="none" stroke="#191970" d="M2185.1699,-406.9624C2245.9021,-384.6058 2370.8,-328.6344 2331,-258 2290.568,-186.2441 2089.6741,-95.3729 2011,-71 1935.0499,-47.471 1717.3367,-30.8043 1591.6143,-22.8272"/>
<polygon fill="#191970" stroke="#191970" points="1591.807,-19.3325 1581.6071,-22.1982 1591.3679,-26.3187 1591.807,-19.3325"/>
</g>
<!-- Node73&#45;&gt;Node49 -->
<g id="edge131" class="edge">
<title>Node73&#45;&gt;Node49</title>
<path fill="none" stroke="#191970" d="M2144.1279,-406.7166C2134.0106,-395.6655 2118.0855,-378.2703 2105.9474,-365.0118"/>
<polygon fill="#191970" stroke="#191970" points="2108.2991,-362.3973 2098.965,-357.3849 2103.136,-367.1241 2108.2991,-362.3973"/>
</g>
<!-- Node73&#45;&gt;Node53 -->
<g id="edge130" class="edge">
<title>Node73&#45;&gt;Node53</title>
<path fill="none" stroke="#191970" d="M2221.7904,-413.7749C2288.5048,-408.3892 2392.3856,-395.3466 2477,-364 2534.0374,-342.8697 2564.1641,-346.0054 2594,-293 2601.6303,-279.4444 2603.9001,-269.9984 2594,-258 2570.0054,-228.9197 2464.727,-217.6229 2400.8749,-213.3934"/>
<polygon fill="#191970" stroke="#191970" points="2400.8165,-209.883 2390.6173,-212.7509 2400.3789,-216.8693 2400.8165,-209.883"/>
</g>
<!-- Node78&#45;&gt;Node73 -->
<g id="edge135" class="edge">
<title>Node78&#45;&gt;Node73</title>
<path fill="none" stroke="#191970" d="M2154,-471.3491C2154,-462.4397 2154,-449.4599 2154,-438.4761"/>
<polygon fill="#191970" stroke="#191970" points="2157.5001,-438.3822 2154,-428.3823 2150.5001,-438.3823 2157.5001,-438.3822"/>
</g>
</g>
</svg>
