<?xml version="1.0" encoding="UTF-8" standalone="no"?>
<!DOCTYPE svg PUBLIC "-//W3C//DTD SVG 1.1//EN"
 "http://www.w3.org/Graphics/SVG/1.1/DTD/svg11.dtd">
<!-- Generated by graphviz version 2.40.1 (20161225.0304)
 -->
<!-- Title: /home/kpenev/projects/git/poet/poet_src/StellarEvolution/mass_feh_interp.h Pages: 1 -->
<svg width="443pt" height="127pt"
 viewBox="0.00 0.00 443.00 127.00" xmlns="http://www.w3.org/2000/svg" xmlns:xlink="http://www.w3.org/1999/xlink">
<g id="graph0" class="graph" transform="scale(1 1) rotate(0) translate(4 123)">
<title>/home/kpenev/projects/git/poet/poet_src/StellarEvolution/mass_feh_interp.h</title>
<polygon fill="#ffffff" stroke="transparent" points="-4,4 -4,-123 439,-123 439,4 -4,4"/>
<!-- Node0 -->
<g id="node1" class="node">
<title>Node0</title>
<polygon fill="#bfbfbf" stroke="#000000" points="175,-71.5 175,-118.5 370,-118.5 370,-71.5 175,-71.5"/>
<text text-anchor="start" x="183" y="-104.9" font-family="Helvetica,sans-Serif" font-size="12.00" fill="#000000">/home/kpenev/projects</text>
<text text-anchor="start" x="183" y="-91.9" font-family="Helvetica,sans-Serif" font-size="12.00" fill="#000000">/git/poet/poet_src/StellarEvolution</text>
<text text-anchor="middle" x="272.5" y="-78.9" font-family="Helvetica,sans-Serif" font-size="12.00" fill="#000000">/mass_feh_interp.h</text>
</g>
<!-- Node1 -->
<g id="node2" class="node">
<title>Node1</title>
<g id="a_node2"><a xlink:href="SharedLibraryExportMacros_8h_source.html" target="_top" xlink:title="../Core/SharedLibraryExport\lMacros.h">
<polygon fill="#ffffff" stroke="#000000" points="0,-.5 0,-34.5 165,-34.5 165,-.5 0,-.5"/>
<text text-anchor="start" x="8" y="-20.9" font-family="Helvetica,sans-Serif" font-size="12.00" fill="#000000">../Core/SharedLibraryExport</text>
<text text-anchor="middle" x="82.5" y="-7.9" font-family="Helvetica,sans-Serif" font-size="12.00" fill="#000000">Macros.h</text>
</a>
</g>
</g>
<!-- Node0&#45;&gt;Node1 -->
<g id="edge1" class="edge">
<title>Node0&#45;&gt;Node1</title>
<path fill="none" stroke="#191970" d="M214.7199,-71.4318C188.8716,-60.8884 158.6567,-48.5639 133.6404,-38.3599"/>
<polygon fill="#191970" stroke="#191970" points="134.9085,-35.0972 124.3272,-34.5611 132.2646,-41.5788 134.9085,-35.0972"/>
</g>
<!-- Node2 -->
<g id="node3" class="node">
<title>Node2</title>
<polygon fill="#ffffff" stroke="#bfbfbf" points="183,-.5 183,-34.5 362,-34.5 362,-.5 183,-.5"/>
<text text-anchor="start" x="191" y="-20.9" font-family="Helvetica,sans-Serif" font-size="12.00" fill="#000000">../third_party_libs</text>
<text text-anchor="middle" x="272.5" y="-7.9" font-family="Helvetica,sans-Serif" font-size="12.00" fill="#000000">/alglib/alglib/src/interpolation.h</text>
</g>
<!-- Node0&#45;&gt;Node2 -->
<g id="edge2" class="edge">
<title>Node0&#45;&gt;Node2</title>
<path fill="none" stroke="#191970" d="M272.5,-71.3263C272.5,-63.0634 272.5,-53.7168 272.5,-45.1585"/>
<polygon fill="#191970" stroke="#191970" points="276.0001,-44.8804 272.5,-34.8804 269.0001,-44.8805 276.0001,-44.8804"/>
</g>
<!-- Node3 -->
<g id="node4" class="node">
<title>Node3</title>
<polygon fill="#ffffff" stroke="#bfbfbf" points="380,-7 380,-28 435,-28 435,-7 380,-7"/>
<text text-anchor="middle" x="407.5" y="-14.4" font-family="Helvetica,sans-Serif" font-size="12.00" fill="#000000">cassert</text>
</g>
<!-- Node0&#45;&gt;Node3 -->
<g id="edge3" class="edge">
<title>Node0&#45;&gt;Node3</title>
<path fill="none" stroke="#191970" d="M313.738,-71.3263C335.3283,-58.9319 361.1655,-44.0994 380.2453,-33.1462"/>
<polygon fill="#191970" stroke="#191970" points="382.0907,-36.1226 389.0207,-28.1085 378.6056,-30.0518 382.0907,-36.1226"/>
</g>
</g>
</svg>
