<?xml version="1.0" encoding="UTF-8" standalone="no"?>
<!DOCTYPE svg PUBLIC "-//W3C//DTD SVG 1.1//EN"
 "http://www.w3.org/Graphics/SVG/1.1/DTD/svg11.dtd">
<!-- Generated by graphviz version 2.40.1 (20161225.0304)
 -->
<!-- Title: /Users/kpenev/projects/git/poet/poet_src/unit_tests/testEvolve/Oblique10LinearQuantity.h Pages: 1 -->
<svg width="2244pt" height="329pt"
 viewBox="0.00 0.00 2244.37 329.00" xmlns="http://www.w3.org/2000/svg" xmlns:xlink="http://www.w3.org/1999/xlink">
<g id="graph0" class="graph" transform="scale(1 1) rotate(0) translate(4 325)">
<title>/Users/kpenev/projects/git/poet/poet_src/unit_tests/testEvolve/Oblique10LinearQuantity.h</title>
<polygon fill="#ffffff" stroke="transparent" points="-4,4 -4,-325 2240.3662,-325 2240.3662,4 -4,4"/>
<!-- Node0 -->
<g id="node1" class="node">
<title>Node0</title>
<polygon fill="#bfbfbf" stroke="#000000" points="1001.2852,-264.5 1001.2852,-320.5 1199.3945,-320.5 1199.3945,-264.5 1001.2852,-264.5"/>
<text text-anchor="start" x="1009.2852" y="-306.9" font-family="Helvetica,sans-Serif" font-size="12.00" fill="#000000">/Users/kpenev/projects</text>
<text text-anchor="start" x="1009.2852" y="-294.9" font-family="Helvetica,sans-Serif" font-size="12.00" fill="#000000">/git/poet/poet_src/unit</text>
<text text-anchor="start" x="1009.2852" y="-282.9" font-family="Helvetica,sans-Serif" font-size="12.00" fill="#000000">_tests/testEvolve/Oblique10Linear</text>
<text text-anchor="middle" x="1100.3398" y="-270.9" font-family="Helvetica,sans-Serif" font-size="12.00" fill="#000000">Quantity.h</text>
</g>
<!-- Node1 -->
<g id="node2" class="node">
<title>Node1</title>
<g id="a_node2"><a xlink:href="Functions_8h.html" target="_top" xlink:title="A hierarchy of classes representing functions. ">
<polygon fill="#ffffff" stroke="#000000" points="1311.6494,-201.5 1311.6494,-221.5 1439.0303,-221.5 1439.0303,-201.5 1311.6494,-201.5"/>
<text text-anchor="middle" x="1375.3398" y="-207.9" font-family="Helvetica,sans-Serif" font-size="12.00" fill="#000000">../../Core/Functions.h</text>
</a>
</g>
</g>
<!-- Node0&#45;&gt;Node1 -->
<g id="edge1" class="edge">
<title>Node0&#45;&gt;Node1</title>
<path fill="none" stroke="#191970" d="M1195.7497,-264.3975C1241.8342,-250.8235 1294.8999,-235.1932 1331.3312,-224.4626"/>
<polygon fill="#191970" stroke="#191970" points="1332.5423,-227.7546 1341.1459,-221.5717 1330.5644,-221.0398 1332.5423,-227.7546"/>
</g>
<!-- Node27 -->
<g id="node28" class="node">
<title>Node27</title>
<g id="a_node28"><a xlink:href="InterpSolutionIterator_8h_source.html" target="_top" xlink:title="../../Core/InterpSolution\lIterator.h">
<polygon fill="#ffffff" stroke="#000000" points="782.6406,-195.5 782.6406,-227.5 922.0391,-227.5 922.0391,-195.5 782.6406,-195.5"/>
<text text-anchor="start" x="790.6406" y="-213.9" font-family="Helvetica,sans-Serif" font-size="12.00" fill="#000000">../../Core/InterpSolution</text>
<text text-anchor="middle" x="852.3398" y="-201.9" font-family="Helvetica,sans-Serif" font-size="12.00" fill="#000000">Iterator.h</text>
</a>
</g>
</g>
<!-- Node0&#45;&gt;Node27 -->
<g id="edge36" class="edge">
<title>Node0&#45;&gt;Node27</title>
<path fill="none" stroke="#191970" d="M1014.2975,-264.3975C980.2135,-253.2652 941.895,-240.7499 911.0896,-230.6884"/>
<polygon fill="#191970" stroke="#191970" points="911.9593,-227.2906 901.3668,-227.5128 909.7859,-233.9447 911.9593,-227.2906"/>
</g>
<!-- Node2 -->
<g id="node3" class="node">
<title>Node2</title>
<g id="a_node3"><a xlink:href="SharedLibraryExportMacros_8h_source.html" target="_top" xlink:title="../Core/SharedLibraryExport\lMacros.h">
<polygon fill="#ffffff" stroke="#000000" points="1224.6387,-.5 1224.6387,-32.5 1390.041,-32.5 1390.041,-.5 1224.6387,-.5"/>
<text text-anchor="start" x="1232.6387" y="-18.9" font-family="Helvetica,sans-Serif" font-size="12.00" fill="#000000">../Core/SharedLibraryExport</text>
<text text-anchor="middle" x="1307.3398" y="-6.9" font-family="Helvetica,sans-Serif" font-size="12.00" fill="#000000">Macros.h</text>
</a>
</g>
</g>
<!-- Node1&#45;&gt;Node2 -->
<g id="edge2" class="edge">
<title>Node1&#45;&gt;Node2</title>
<path fill="none" stroke="#191970" d="M1373.9502,-201.3883C1369.7134,-170.8756 1356.9094,-81.074 1351.3398,-69 1346.5834,-58.6888 1339.254,-48.7658 1331.9326,-40.3758"/>
<polygon fill="#191970" stroke="#191970" points="1334.3458,-37.8293 1324.9998,-32.8389 1329.1938,-42.5683 1334.3458,-37.8293"/>
</g>
<!-- Node3 -->
<g id="node4" class="node">
<title>Node3</title>
<g id="a_node4"><a xlink:href="Core_2Common_8h.html" target="_top" xlink:title="Declaration of some general purpose utilities. ">
<polygon fill="#ffffff" stroke="#000000" points="814.9961,-138.5 814.9961,-158.5 889.6836,-158.5 889.6836,-138.5 814.9961,-138.5"/>
<text text-anchor="middle" x="852.3398" y="-144.9" font-family="Helvetica,sans-Serif" font-size="12.00" fill="#000000">Common.h</text>
</a>
</g>
</g>
<!-- Node1&#45;&gt;Node3 -->
<g id="edge3" class="edge">
<title>Node1&#45;&gt;Node3</title>
<path fill="none" stroke="#191970" d="M1311.4714,-203.8065C1205.229,-191.0086 994.5551,-165.6311 900.1042,-154.2536"/>
<polygon fill="#191970" stroke="#191970" points="900.3305,-150.7557 889.9837,-153.0345 899.4933,-157.7054 900.3305,-150.7557"/>
</g>
<!-- Node4 -->
<g id="node5" class="node">
<title>Node4</title>
<polygon fill="#ffffff" stroke="#bfbfbf" points="1312.0068,-75.5 1312.0068,-95.5 1342.6729,-95.5 1342.6729,-75.5 1312.0068,-75.5"/>
<text text-anchor="middle" x="1327.3398" y="-81.9" font-family="Helvetica,sans-Serif" font-size="12.00" fill="#000000">list</text>
</g>
<!-- Node1&#45;&gt;Node4 -->
<g id="edge29" class="edge">
<title>Node1&#45;&gt;Node4</title>
<path fill="none" stroke="#191970" d="M1364.8309,-201.3257C1355.3701,-191.4656 1341.966,-175.602 1335.3398,-159 1328.5909,-142.0903 1326.8648,-121.3546 1326.6674,-106.2239"/>
<polygon fill="#191970" stroke="#191970" points="1330.17,-105.9321 1326.7566,-95.9022 1323.1702,-105.8716 1330.17,-105.9321"/>
</g>
<!-- Node5 -->
<g id="node6" class="node">
<title>Node5</title>
<polygon fill="#ffffff" stroke="#bfbfbf" points="0,-75.5 0,-95.5 58.6797,-95.5 58.6797,-75.5 0,-75.5"/>
<text text-anchor="middle" x="29.3398" y="-81.9" font-family="Helvetica,sans-Serif" font-size="12.00" fill="#000000">valarray</text>
</g>
<!-- Node1&#45;&gt;Node5 -->
<g id="edge28" class="edge">
<title>Node1&#45;&gt;Node5</title>
<path fill="none" stroke="#191970" d="M1311.4002,-208.9028C1082.8936,-199.1931 307.5227,-162.4554 67.3398,-102 64.5281,-101.2923 61.6597,-100.3983 58.8221,-99.3943"/>
<polygon fill="#191970" stroke="#191970" points="60.0065,-96.0989 49.4204,-95.6674 57.4269,-102.6063 60.0065,-96.0989"/>
</g>
<!-- Node6 -->
<g id="node7" class="node">
<title>Node6</title>
<polygon fill="#ffffff" stroke="#bfbfbf" points="1179.6758,-75.5 1179.6758,-95.5 1223.0039,-95.5 1223.0039,-75.5 1179.6758,-75.5"/>
<text text-anchor="middle" x="1201.3398" y="-81.9" font-family="Helvetica,sans-Serif" font-size="12.00" fill="#000000">limits</text>
</g>
<!-- Node1&#45;&gt;Node6 -->
<g id="edge27" class="edge">
<title>Node1&#45;&gt;Node6</title>
<path fill="none" stroke="#191970" d="M1361.3948,-201.4019C1331.3601,-179.6526 1260.3301,-128.2171 1223.8387,-101.7922"/>
<polygon fill="#191970" stroke="#191970" points="1225.5035,-98.6765 1215.3513,-95.6462 1221.3979,-104.3462 1225.5035,-98.6765"/>
</g>
<!-- Node8 -->
<g id="node9" class="node">
<title>Node8</title>
<polygon fill="#ffffff" stroke="#bfbfbf" points="1408.333,-6.5 1408.333,-26.5 1470.3467,-26.5 1470.3467,-6.5 1408.333,-6.5"/>
<text text-anchor="middle" x="1439.3398" y="-12.9" font-family="Helvetica,sans-Serif" font-size="12.00" fill="#000000">iostream</text>
</g>
<!-- Node1&#45;&gt;Node8 -->
<g id="edge31" class="edge">
<title>Node1&#45;&gt;Node8</title>
<path fill="none" stroke="#191970" d="M1393.2616,-201.4205C1407.361,-192.3659 1425.9756,-177.6389 1434.3398,-159 1438.1611,-150.4848 1435.2347,-147.2903 1434.3398,-138 1432.7771,-121.7754 1428.9026,-118.2246 1427.3398,-102 1425.9337,-87.4009 1425.6954,-83.5742 1427.3398,-69 1428.5585,-58.1996 1431.1448,-46.3822 1433.6055,-36.6986"/>
<polygon fill="#191970" stroke="#191970" points="1437.0395,-37.4055 1436.2506,-26.8401 1430.2786,-35.5915 1437.0395,-37.4055"/>
</g>
<!-- Node9 -->
<g id="node10" class="node">
<title>Node9</title>
<polygon fill="#ffffff" stroke="#bfbfbf" points="1240.666,-75.5 1240.666,-95.5 1294.0137,-95.5 1294.0137,-75.5 1240.666,-75.5"/>
<text text-anchor="middle" x="1267.3398" y="-81.9" font-family="Helvetica,sans-Serif" font-size="12.00" fill="#000000">iterator</text>
</g>
<!-- Node1&#45;&gt;Node9 -->
<g id="edge30" class="edge">
<title>Node1&#45;&gt;Node9</title>
<path fill="none" stroke="#191970" d="M1365.0868,-201.3066C1354.7684,-190.9174 1338.5363,-174.2128 1325.3398,-159 1309.491,-140.7294 1292.4714,-118.8669 1280.9965,-103.7605"/>
<polygon fill="#191970" stroke="#191970" points="1283.7496,-101.5982 1274.9317,-95.725 1278.1623,-105.8152 1283.7496,-101.5982"/>
</g>
<!-- Node16 -->
<g id="node17" class="node">
<title>Node16</title>
<g id="a_node17"><a xlink:href="Error_8h.html" target="_top" xlink:title="Defines the exception hierarchy used by this code. ">
<polygon fill="#ffffff" stroke="#000000" points="1602.3311,-75.5 1602.3311,-95.5 1654.3486,-95.5 1654.3486,-75.5 1602.3311,-75.5"/>
<text text-anchor="middle" x="1628.3398" y="-81.9" font-family="Helvetica,sans-Serif" font-size="12.00" fill="#000000">Error.h</text>
</a>
</g>
</g>
<!-- Node1&#45;&gt;Node16 -->
<g id="edge25" class="edge">
<title>Node1&#45;&gt;Node16</title>
<path fill="none" stroke="#191970" d="M1397.1453,-201.4677C1419.6085,-191.067 1455.5817,-174.2281 1486.3398,-159 1526.1244,-139.303 1571.6171,-115.5323 1600.1606,-100.4642"/>
<polygon fill="#191970" stroke="#191970" points="1601.9542,-103.4751 1609.1581,-95.7062 1598.6818,-97.287 1601.9542,-103.4751"/>
</g>
<!-- Node22 -->
<g id="node23" class="node">
<title>Node22</title>
<polygon fill="#ffffff" stroke="#bfbfbf" points="1377.001,-138.5 1377.001,-158.5 1425.6787,-158.5 1425.6787,-138.5 1377.001,-138.5"/>
<text text-anchor="middle" x="1401.3398" y="-144.9" font-family="Helvetica,sans-Serif" font-size="12.00" fill="#000000">cmath</text>
</g>
<!-- Node1&#45;&gt;Node22 -->
<g id="edge26" class="edge">
<title>Node1&#45;&gt;Node22</title>
<path fill="none" stroke="#191970" d="M1379.5172,-201.378C1383.2099,-192.4302 1388.701,-179.125 1393.251,-168.0999"/>
<polygon fill="#191970" stroke="#191970" points="1396.5069,-169.3852 1397.0865,-158.8062 1390.0362,-166.7147 1396.5069,-169.3852"/>
</g>
<!-- Node23 -->
<g id="node24" class="node">
<title>Node23</title>
<polygon fill="#ffffff" stroke="#bfbfbf" points="2124.3135,-69.5 2124.3135,-101.5 2236.3662,-101.5 2236.3662,-69.5 2124.3135,-69.5"/>
<text text-anchor="start" x="2132.3135" y="-87.9" font-family="Helvetica,sans-Serif" font-size="12.00" fill="#000000">boost/serialization</text>
<text text-anchor="middle" x="2180.3398" y="-75.9" font-family="Helvetica,sans-Serif" font-size="12.00" fill="#000000">/base_object.hpp</text>
</g>
<!-- Node1&#45;&gt;Node23 -->
<g id="edge32" class="edge">
<title>Node1&#45;&gt;Node23</title>
<path fill="none" stroke="#191970" d="M1439.3966,-209.499C1543.598,-205.344 1755.9188,-193.1215 1932.3398,-159 2000.3343,-145.8492 2076.4075,-121.8693 2126.1502,-104.8801"/>
<polygon fill="#191970" stroke="#191970" points="2127.4207,-108.1444 2135.7375,-101.5808 2125.1428,-101.5254 2127.4207,-108.1444"/>
</g>
<!-- Node24 -->
<g id="node25" class="node">
<title>Node24</title>
<polygon fill="#ffffff" stroke="#bfbfbf" points="1436.3154,-69.5 1436.3154,-101.5 1546.3643,-101.5 1546.3643,-69.5 1436.3154,-69.5"/>
<text text-anchor="start" x="1444.3154" y="-87.9" font-family="Helvetica,sans-Serif" font-size="12.00" fill="#000000">boost/archive/text</text>
<text text-anchor="middle" x="1491.3398" y="-75.9" font-family="Helvetica,sans-Serif" font-size="12.00" fill="#000000">_oarchive.hpp</text>
</g>
<!-- Node1&#45;&gt;Node24 -->
<g id="edge33" class="edge">
<title>Node1&#45;&gt;Node24</title>
<path fill="none" stroke="#191970" d="M1404.4377,-201.4025C1424.7112,-192.9833 1450.9564,-179.0981 1467.3398,-159 1478.2598,-145.6042 1484.2663,-127.0917 1487.5396,-111.9975"/>
<polygon fill="#191970" stroke="#191970" points="1491.0614,-112.2076 1489.4711,-101.7328 1484.1821,-110.9131 1491.0614,-112.2076"/>
</g>
<!-- Node25 -->
<g id="node26" class="node">
<title>Node25</title>
<polygon fill="#ffffff" stroke="#bfbfbf" points="1866.3154,-69.5 1866.3154,-101.5 1976.3643,-101.5 1976.3643,-69.5 1866.3154,-69.5"/>
<text text-anchor="start" x="1874.3154" y="-87.9" font-family="Helvetica,sans-Serif" font-size="12.00" fill="#000000">boost/archive/text</text>
<text text-anchor="middle" x="1921.3398" y="-75.9" font-family="Helvetica,sans-Serif" font-size="12.00" fill="#000000">_iarchive.hpp</text>
</g>
<!-- Node1&#45;&gt;Node25 -->
<g id="edge34" class="edge">
<title>Node1&#45;&gt;Node25</title>
<path fill="none" stroke="#191970" d="M1439.3558,-207.4662C1563.7183,-199.2207 1829.0047,-179.4786 1865.3398,-159 1884.7328,-148.0701 1899.5557,-127.3934 1909.065,-110.748"/>
<polygon fill="#191970" stroke="#191970" points="1912.377,-111.9803 1914.0442,-101.5175 1906.2162,-108.6569 1912.377,-111.9803"/>
</g>
<!-- Node26 -->
<g id="node27" class="node">
<title>Node26</title>
<polygon fill="#ffffff" stroke="#bfbfbf" points="1994.3135,-69.5 1994.3135,-101.5 2106.3662,-101.5 2106.3662,-69.5 1994.3135,-69.5"/>
<text text-anchor="start" x="2002.3135" y="-87.9" font-family="Helvetica,sans-Serif" font-size="12.00" fill="#000000">boost/serialization</text>
<text text-anchor="middle" x="2050.3398" y="-75.9" font-family="Helvetica,sans-Serif" font-size="12.00" fill="#000000">/export.hpp</text>
</g>
<!-- Node1&#45;&gt;Node26 -->
<g id="edge35" class="edge">
<title>Node1&#45;&gt;Node26</title>
<path fill="none" stroke="#191970" d="M1439.4042,-207.6358C1558.1059,-200.0376 1807.7463,-181.8834 1891.3398,-159 1935.5224,-146.9052 1982.7592,-123.5967 2014.1593,-106.4582"/>
<polygon fill="#191970" stroke="#191970" points="2015.9211,-109.4835 2022.9769,-101.5799 2012.5324,-103.3584 2015.9211,-109.4835"/>
</g>
<!-- Node3&#45;&gt;Node2 -->
<g id="edge16" class="edge">
<title>Node3&#45;&gt;Node2</title>
<path fill="none" stroke="#191970" d="M814.7413,-147.6913C706.9822,-144.988 402.855,-134.5192 373.3398,-102 363.4827,-91.1396 363.2642,-79.6579 373.3398,-69 401.9406,-38.7464 984.0924,-23.2732 1214.5648,-18.3144"/>
<polygon fill="#191970" stroke="#191970" points="1214.6843,-21.8127 1224.6074,-18.1002 1214.535,-14.8143 1214.6843,-21.8127"/>
</g>
<!-- Node3&#45;&gt;Node4 -->
<g id="edge4" class="edge">
<title>Node3&#45;&gt;Node4</title>
<path fill="none" stroke="#191970" d="M889.8905,-147.0155C983.966,-142.917 1227.6196,-129.856 1303.3398,-102 1304.3838,-101.6159 1305.4256,-101.176 1306.4579,-100.6927"/>
<polygon fill="#191970" stroke="#191970" points="1308.441,-103.5871 1315.2933,-95.5065 1304.8975,-97.5503 1308.441,-103.5871"/>
</g>
<!-- Node3&#45;&gt;Node5 -->
<g id="edge5" class="edge">
<title>Node3&#45;&gt;Node5</title>
<path fill="none" stroke="#191970" d="M814.6851,-148.0081C678.4877,-145.9593 211.915,-136.524 67.3398,-102 64.358,-101.2879 61.3156,-100.3556 58.3155,-99.296"/>
<polygon fill="#191970" stroke="#191970" points="59.5881,-96.0355 49.0025,-95.592 57.0011,-102.5399 59.5881,-96.0355"/>
</g>
<!-- Node3&#45;&gt;Node6 -->
<g id="edge6" class="edge">
<title>Node3&#45;&gt;Node6</title>
<path fill="none" stroke="#191970" d="M889.694,-146.362C949.136,-142.206 1068.4375,-130.7716 1165.3398,-102 1167.762,-101.2808 1170.2306,-100.4281 1172.6824,-99.495"/>
<polygon fill="#191970" stroke="#191970" points="1174.06,-102.7127 1181.9217,-95.6102 1171.3468,-96.2598 1174.06,-102.7127"/>
</g>
<!-- Node7 -->
<g id="node8" class="node">
<title>Node7</title>
<polygon fill="#ffffff" stroke="#bfbfbf" points="1065.0029,-75.5 1065.0029,-95.5 1123.6768,-95.5 1123.6768,-75.5 1065.0029,-75.5"/>
<text text-anchor="middle" x="1094.3398" y="-81.9" font-family="Helvetica,sans-Serif" font-size="12.00" fill="#000000">sstream</text>
</g>
<!-- Node3&#45;&gt;Node7 -->
<g id="edge7" class="edge">
<title>Node3&#45;&gt;Node7</title>
<path fill="none" stroke="#191970" d="M889.7559,-142.13C931.1045,-134.5948 999.3875,-120.6763 1056.3398,-102 1058.7318,-101.2156 1061.18,-100.3373 1063.6244,-99.4053"/>
<polygon fill="#191970" stroke="#191970" points="1064.9611,-102.6402 1072.9059,-95.6308 1062.3241,-96.1559 1064.9611,-102.6402"/>
</g>
<!-- Node3&#45;&gt;Node8 -->
<g id="edge8" class="edge">
<title>Node3&#45;&gt;Node8</title>
<path fill="none" stroke="#191970" d="M889.8693,-144.8232C955.9113,-137.9338 1089.9265,-121.9586 1132.3398,-102 1152.5793,-92.4758 1150.0594,-78.4366 1170.3398,-69 1263.7504,-25.5354 1300.1438,-60.8363 1399.3398,-33 1402.2826,-32.1742 1405.3004,-31.1941 1408.295,-30.1296"/>
<polygon fill="#191970" stroke="#191970" points="1409.584,-33.3839 1417.6612,-26.5275 1407.0713,-26.8504 1409.584,-33.3839"/>
</g>
<!-- Node3&#45;&gt;Node9 -->
<g id="edge9" class="edge">
<title>Node3&#45;&gt;Node9</title>
<path fill="none" stroke="#191970" d="M889.7686,-145.4455C972.4698,-138.4493 1168.4851,-120.441 1232.3398,-102 1234.7682,-101.2987 1237.2387,-100.4471 1239.6867,-99.5046"/>
<polygon fill="#191970" stroke="#191970" points="1241.0797,-102.7155 1248.8786,-95.5442 1238.3098,-96.2869 1241.0797,-102.7155"/>
</g>
<!-- Node10 -->
<g id="node11" class="node">
<title>Node10</title>
<polygon fill="#ffffff" stroke="#bfbfbf" points="227.9814,-75.5 227.9814,-95.5 326.6982,-95.5 326.6982,-75.5 227.9814,-75.5"/>
<text text-anchor="middle" x="277.3398" y="-81.9" font-family="Helvetica,sans-Serif" font-size="12.00" fill="#000000">gsl/gsl_vector.h</text>
</g>
<!-- Node3&#45;&gt;Node10 -->
<g id="edge10" class="edge">
<title>Node3&#45;&gt;Node10</title>
<path fill="none" stroke="#191970" d="M814.8003,-147.2185C729.7671,-143.8528 516.1735,-132.7919 340.3398,-102 334.1275,-100.9121 327.6313,-99.5149 321.2699,-97.9949"/>
<polygon fill="#191970" stroke="#191970" points="321.9955,-94.5685 311.4446,-95.5319 320.2934,-101.3584 321.9955,-94.5685"/>
</g>
<!-- Node11 -->
<g id="node12" class="node">
<title>Node11</title>
<polygon fill="#ffffff" stroke="#bfbfbf" points="382.6592,-75.5 382.6592,-95.5 482.0205,-95.5 482.0205,-75.5 382.6592,-75.5"/>
<text text-anchor="middle" x="432.3398" y="-81.9" font-family="Helvetica,sans-Serif" font-size="12.00" fill="#000000">gsl/gsl_matrix.h</text>
</g>
<!-- Node3&#45;&gt;Node11 -->
<g id="edge11" class="edge">
<title>Node3&#45;&gt;Node11</title>
<path fill="none" stroke="#191970" d="M814.8906,-145.4746C748.9972,-139.7524 608.2266,-125.7427 491.3398,-102 485.9328,-100.9017 480.2945,-99.571 474.7406,-98.1472"/>
<polygon fill="#191970" stroke="#191970" points="475.4679,-94.7187 464.903,-95.5138 473.6578,-101.4806 475.4679,-94.7187"/>
</g>
<!-- Node12 -->
<g id="node13" class="node">
<title>Node12</title>
<polygon fill="#ffffff" stroke="#bfbfbf" points="499.9824,-75.5 499.9824,-95.5 594.6973,-95.5 594.6973,-75.5 499.9824,-75.5"/>
<text text-anchor="middle" x="547.3398" y="-81.9" font-family="Helvetica,sans-Serif" font-size="12.00" fill="#000000">gsl/gsl_linalg.h</text>
</g>
<!-- Node3&#45;&gt;Node12 -->
<g id="edge12" class="edge">
<title>Node3&#45;&gt;Node12</title>
<path fill="none" stroke="#191970" d="M814.7092,-142.6054C765.9085,-134.6961 678.2794,-119.5903 604.3398,-102 599.6387,-100.8816 594.7467,-99.6191 589.8916,-98.3028"/>
<polygon fill="#191970" stroke="#191970" points="590.6236,-94.8734 580.0507,-95.5545 588.7407,-101.6154 590.6236,-94.8734"/>
</g>
<!-- Node13 -->
<g id="node14" class="node">
<title>Node13</title>
<polygon fill="#ffffff" stroke="#bfbfbf" points="612.9854,-75.5 612.9854,-95.5 701.6943,-95.5 701.6943,-75.5 612.9854,-75.5"/>
<text text-anchor="middle" x="657.3398" y="-81.9" font-family="Helvetica,sans-Serif" font-size="12.00" fill="#000000">gsl/gsl_blas.h</text>
</g>
<!-- Node3&#45;&gt;Node13 -->
<g id="edge13" class="edge">
<title>Node3&#45;&gt;Node13</title>
<path fill="none" stroke="#191970" d="M821.0097,-138.378C787.7478,-127.6318 735.0324,-110.6007 698.4522,-98.7825"/>
<polygon fill="#191970" stroke="#191970" points="699.184,-95.3408 688.5922,-95.5969 697.0319,-102.0018 699.184,-95.3408"/>
</g>
<!-- Node14 -->
<g id="node15" class="node">
<title>Node14</title>
<polygon fill="#ffffff" stroke="#bfbfbf" points="719.4277,-75.5 719.4277,-95.5 807.252,-95.5 807.252,-75.5 719.4277,-75.5"/>
<text text-anchor="middle" x="763.3398" y="-81.9" font-family="Helvetica,sans-Serif" font-size="12.00" fill="#000000">gsl/gsl_poly.h</text>
</g>
<!-- Node3&#45;&gt;Node14 -->
<g id="edge14" class="edge">
<title>Node3&#45;&gt;Node14</title>
<path fill="none" stroke="#191970" d="M838.0405,-138.378C824.0271,-128.4584 802.4485,-113.1837 786.0801,-101.597"/>
<polygon fill="#191970" stroke="#191970" points="787.788,-98.5179 777.6037,-95.5969 783.7436,-104.2313 787.788,-98.5179"/>
</g>
<!-- Node15 -->
<g id="node16" class="node">
<title>Node15</title>
<polygon fill="#ffffff" stroke="#bfbfbf" points="825.001,-75.5 825.001,-95.5 879.6787,-95.5 879.6787,-75.5 825.001,-75.5"/>
<text text-anchor="middle" x="852.3398" y="-81.9" font-family="Helvetica,sans-Serif" font-size="12.00" fill="#000000">cassert</text>
</g>
<!-- Node3&#45;&gt;Node15 -->
<g id="edge15" class="edge">
<title>Node3&#45;&gt;Node15</title>
<path fill="none" stroke="#191970" d="M852.3398,-138.378C852.3398,-129.7041 852.3398,-116.9355 852.3398,-106.1186"/>
<polygon fill="#191970" stroke="#191970" points="855.8399,-105.8062 852.3398,-95.8062 848.8399,-105.8062 855.8399,-105.8062"/>
</g>
<!-- Node3&#45;&gt;Node16 -->
<g id="edge17" class="edge">
<title>Node3&#45;&gt;Node16</title>
<path fill="none" stroke="#191970" d="M889.8996,-148.0757C995.3589,-146.442 1302.9582,-138.6402 1555.3398,-102 1567.4731,-100.2385 1580.5796,-97.5339 1592.2936,-94.8207"/>
<polygon fill="#191970" stroke="#191970" points="1593.2587,-98.1887 1602.1697,-92.4577 1591.6298,-91.3808 1593.2587,-98.1887"/>
</g>
<!-- Node19 -->
<g id="node20" class="node">
<title>Node19</title>
<g id="a_node20"><a xlink:href="AstronomicalConstants_8h.html" target="_top" xlink:title="Defines various astronomical constants. ">
<polygon fill="#ffffff" stroke="#000000" points="897.6426,-75.5 897.6426,-95.5 1047.0371,-95.5 1047.0371,-75.5 897.6426,-75.5"/>
<text text-anchor="middle" x="972.3398" y="-81.9" font-family="Helvetica,sans-Serif" font-size="12.00" fill="#000000">AstronomicalConstants.h</text>
</a>
</g>
</g>
<!-- Node3&#45;&gt;Node19 -->
<g id="edge22" class="edge">
<title>Node3&#45;&gt;Node19</title>
<path fill="none" stroke="#191970" d="M871.6199,-138.378C891.2141,-128.091 921.7782,-112.0448 944.1012,-100.3253"/>
<polygon fill="#191970" stroke="#191970" points="945.8806,-103.3442 953.1076,-95.5969 942.6267,-97.1464 945.8806,-103.3442"/>
</g>
<!-- Node20 -->
<g id="node21" class="node">
<title>Node20</title>
<g id="a_node21"><a xlink:href="IncludeEigen_8h_source.html" target="_top" xlink:title="IncludeEigen.h">
<polygon fill="#ffffff" stroke="#000000" points="76.6426,-75.5 76.6426,-95.5 172.0371,-95.5 172.0371,-75.5 76.6426,-75.5"/>
<text text-anchor="middle" x="124.3398" y="-81.9" font-family="Helvetica,sans-Serif" font-size="12.00" fill="#000000">IncludeEigen.h</text>
</a>
</g>
</g>
<!-- Node3&#45;&gt;Node20 -->
<g id="edge23" class="edge">
<title>Node3&#45;&gt;Node20</title>
<path fill="none" stroke="#191970" d="M814.7564,-147.0346C716.5637,-142.9257 444.3567,-129.7372 219.3398,-102 207.2686,-100.512 194.397,-98.5396 182.1518,-96.4775"/>
<polygon fill="#191970" stroke="#191970" points="182.494,-92.9849 172.0444,-94.733 181.3034,-99.8829 182.494,-92.9849"/>
</g>
<!-- Node16&#45;&gt;Node2 -->
<g id="edge18" class="edge">
<title>Node16&#45;&gt;Node2</title>
<path fill="none" stroke="#191970" d="M1606.2083,-75.4188C1600.4727,-73.0711 1594.2461,-70.7494 1588.3398,-69 1579.1418,-66.2755 1478.5264,-47.6866 1400.2906,-33.3931"/>
<polygon fill="#191970" stroke="#191970" points="1400.85,-29.9374 1390.3839,-31.5843 1399.5926,-36.8236 1400.85,-29.9374"/>
</g>
<!-- Node16&#45;&gt;Node8 -->
<g id="edge19" class="edge">
<title>Node16&#45;&gt;Node8</title>
<path fill="none" stroke="#191970" d="M1604.3082,-75.3477C1599.0655,-73.2001 1593.5326,-70.9843 1588.3398,-69 1551.511,-54.9269 1509.0617,-40.1048 1478.9164,-29.8123"/>
<polygon fill="#191970" stroke="#191970" points="1479.7853,-26.4109 1469.1908,-26.5031 1477.5304,-33.0378 1479.7853,-26.4109"/>
</g>
<!-- Node17 -->
<g id="node18" class="node">
<title>Node17</title>
<polygon fill="#ffffff" stroke="#bfbfbf" points="1557.6553,-6.5 1557.6553,-26.5 1625.0244,-26.5 1625.0244,-6.5 1557.6553,-6.5"/>
<text text-anchor="middle" x="1591.3398" y="-12.9" font-family="Helvetica,sans-Serif" font-size="12.00" fill="#000000">exception</text>
</g>
<!-- Node16&#45;&gt;Node17 -->
<g id="edge20" class="edge">
<title>Node16&#45;&gt;Node17</title>
<path fill="none" stroke="#191970" d="M1622.8804,-75.3188C1617.3059,-64.9231 1608.5173,-48.5336 1601.6316,-35.6927"/>
<polygon fill="#191970" stroke="#191970" points="1604.632,-33.8818 1596.8217,-26.723 1598.463,-37.1899 1604.632,-33.8818"/>
</g>
<!-- Node18 -->
<g id="node19" class="node">
<title>Node18</title>
<polygon fill="#ffffff" stroke="#bfbfbf" points="1642.668,-6.5 1642.668,-26.5 1688.0117,-26.5 1688.0117,-6.5 1642.668,-6.5"/>
<text text-anchor="middle" x="1665.3398" y="-12.9" font-family="Helvetica,sans-Serif" font-size="12.00" fill="#000000">string</text>
</g>
<!-- Node16&#45;&gt;Node18 -->
<g id="edge21" class="edge">
<title>Node16&#45;&gt;Node18</title>
<path fill="none" stroke="#191970" d="M1633.7993,-75.3188C1639.3738,-64.9231 1648.1624,-48.5336 1655.0481,-35.6927"/>
<polygon fill="#191970" stroke="#191970" points="1658.2167,-37.1899 1659.858,-26.723 1652.0476,-33.8818 1658.2167,-37.1899"/>
</g>
<!-- Node21 -->
<g id="node22" class="node">
<title>Node21</title>
<polygon fill="#ffffff" stroke="#bfbfbf" points="81.9834,-6.5 81.9834,-26.5 166.6963,-26.5 166.6963,-6.5 81.9834,-6.5"/>
<text text-anchor="middle" x="124.3398" y="-12.9" font-family="Helvetica,sans-Serif" font-size="12.00" fill="#000000">Eigen/Dense</text>
</g>
<!-- Node20&#45;&gt;Node21 -->
<g id="edge24" class="edge">
<title>Node20&#45;&gt;Node21</title>
<path fill="none" stroke="#191970" d="M124.3398,-75.3188C124.3398,-65.2289 124.3398,-49.4925 124.3398,-36.8347"/>
<polygon fill="#191970" stroke="#191970" points="127.8399,-36.7229 124.3398,-26.723 120.8399,-36.723 127.8399,-36.7229"/>
</g>
<!-- Node27&#45;&gt;Node2 -->
<g id="edge37" class="edge">
<title>Node27&#45;&gt;Node2</title>
<path fill="none" stroke="#191970" d="M782.4781,-207.0903C601.8614,-194.4312 138.959,-153.353 219.3398,-69 253.4353,-33.2197 957.5776,-20.8651 1214.535,-17.5384"/>
<polygon fill="#191970" stroke="#191970" points="1214.6371,-21.0375 1224.5915,-17.4099 1214.5476,-14.0381 1214.6371,-21.0375"/>
</g>
<!-- Node27&#45;&gt;Node3 -->
<g id="edge45" class="edge">
<title>Node27&#45;&gt;Node3</title>
<path fill="none" stroke="#191970" d="M852.3398,-195.2759C852.3398,-187.2654 852.3398,-177.5159 852.3398,-168.9952"/>
<polygon fill="#191970" stroke="#191970" points="855.8399,-168.7512 852.3398,-158.7513 848.8399,-168.7513 855.8399,-168.7512"/>
</g>
<!-- Node27&#45;&gt;Node5 -->
<g id="edge46" class="edge">
<title>Node27&#45;&gt;Node5</title>
<path fill="none" stroke="#191970" d="M782.5294,-208.7645C612.1951,-201.7634 184.7767,-182.1108 124.3398,-159 92.7543,-146.9218 63.0647,-120.6527 45.5432,-103.0178"/>
<polygon fill="#191970" stroke="#191970" points="47.8497,-100.3678 38.3859,-95.6048 42.8139,-105.23 47.8497,-100.3678"/>
</g>
<!-- Node28 -->
<g id="node29" class="node">
<title>Node28</title>
<g id="a_node29"><a xlink:href="SerializableSpline1dInterpolant_8h_source.html" target="_top" xlink:title="SerializableSpline1dInterpolant.h">
<polygon fill="#ffffff" stroke="#000000" points="1664.6133,-138.5 1664.6133,-158.5 1856.0664,-158.5 1856.0664,-138.5 1664.6133,-138.5"/>
<text text-anchor="middle" x="1760.3398" y="-144.9" font-family="Helvetica,sans-Serif" font-size="12.00" fill="#000000">SerializableSpline1dInterpolant.h</text>
</a>
</g>
</g>
<!-- Node27&#45;&gt;Node28 -->
<g id="edge38" class="edge">
<title>Node27&#45;&gt;Node28</title>
<path fill="none" stroke="#191970" d="M922.0814,-206.6611C1080.0923,-195.6978 1466.2099,-168.9077 1654.1256,-155.8695"/>
<polygon fill="#191970" stroke="#191970" points="1654.5602,-159.3478 1664.2939,-155.164 1654.0756,-152.3646 1654.5602,-159.3478"/>
</g>
<!-- Node28&#45;&gt;Node2 -->
<g id="edge39" class="edge">
<title>Node28&#45;&gt;Node2</title>
<path fill="none" stroke="#191970" d="M1699.9341,-138.4279C1667.0666,-131.3193 1626.4741,-119.8153 1593.3398,-102 1573.6386,-91.4072 1575.3647,-78.9675 1555.3398,-69 1541.1753,-61.9495 1464.6663,-46.2534 1400.3259,-33.8498"/>
<polygon fill="#191970" stroke="#191970" points="1400.5962,-30.3378 1390.1156,-31.8892 1399.2761,-37.2122 1400.5962,-30.3378"/>
</g>
<!-- Node28&#45;&gt;Node23 -->
<g id="edge41" class="edge">
<title>Node28&#45;&gt;Node23</title>
<path fill="none" stroke="#191970" d="M1856.1316,-139.0599C1925.4037,-131.5077 2021.37,-119.5584 2114.2168,-102.0948"/>
<polygon fill="#191970" stroke="#191970" points="2114.8924,-105.5291 2124.0611,-100.22 2113.5828,-98.6527 2114.8924,-105.5291"/>
</g>
<!-- Node28&#45;&gt;Node24 -->
<g id="edge42" class="edge">
<title>Node28&#45;&gt;Node24</title>
<path fill="none" stroke="#191970" d="M1716.6245,-138.4194C1676.094,-129.0534 1614.1197,-114.682 1560.3398,-102 1559.0923,-101.7058 1557.8322,-101.4083 1556.5626,-101.1082"/>
<polygon fill="#191970" stroke="#191970" points="1557.2318,-97.6699 1546.6941,-98.7692 1555.6174,-104.4812 1557.2318,-97.6699"/>
</g>
<!-- Node28&#45;&gt;Node25 -->
<g id="edge43" class="edge">
<title>Node28&#45;&gt;Node25</title>
<path fill="none" stroke="#191970" d="M1786.2073,-138.378C1808.8687,-129.5105 1842.4667,-116.3634 1870.4914,-105.3972"/>
<polygon fill="#191970" stroke="#191970" points="1872.1075,-108.5233 1880.1445,-101.6199 1869.5567,-102.0046 1872.1075,-108.5233"/>
</g>
<!-- Node28&#45;&gt;Node26 -->
<g id="edge44" class="edge">
<title>Node28&#45;&gt;Node26</title>
<path fill="none" stroke="#191970" d="M1812.3159,-138.4448C1855.7805,-129.8807 1919.644,-116.9379 1984.0816,-102.241"/>
<polygon fill="#191970" stroke="#191970" points="1985.0429,-105.6115 1994.0071,-99.9641 1983.4777,-98.7887 1985.0429,-105.6115"/>
</g>
<!-- Node29 -->
<g id="node30" class="node">
<title>Node29</title>
<polygon fill="#ffffff" stroke="#bfbfbf" points="1671.9609,-69.5 1671.9609,-101.5 1848.7188,-101.5 1848.7188,-69.5 1671.9609,-69.5"/>
<text text-anchor="start" x="1679.9609" y="-87.9" font-family="Helvetica,sans-Serif" font-size="12.00" fill="#000000">../third_party_libs</text>
<text text-anchor="middle" x="1760.3398" y="-75.9" font-family="Helvetica,sans-Serif" font-size="12.00" fill="#000000">/alglib/alglib/src/interpolation.h</text>
</g>
<!-- Node28&#45;&gt;Node29 -->
<g id="edge40" class="edge">
<title>Node28&#45;&gt;Node29</title>
<path fill="none" stroke="#191970" d="M1760.3398,-138.378C1760.3398,-131.2008 1760.3398,-121.2202 1760.3398,-111.8614"/>
<polygon fill="#191970" stroke="#191970" points="1763.8399,-111.7419 1760.3398,-101.742 1756.8399,-111.742 1763.8399,-111.7419"/>
</g>
</g>
</svg>
