<?xml version="1.0" encoding="UTF-8" standalone="no"?>
<!DOCTYPE svg PUBLIC "-//W3C//DTD SVG 1.1//EN"
 "http://www.w3.org/Graphics/SVG/1.1/DTD/svg11.dtd">
<!-- Generated by graphviz version 2.40.1 (20161225.0304)
 -->
<!-- Title: /home/kpenev/projects/git/poet/poet_src/unit_tests/testEvolve/Oblique20LinearQuantity.cpp Pages: 1 -->
<!--zoomable 398 -->
<svg id="main" version="1.1" xmlns="http://www.w3.org/2000/svg" xmlns:xlink="http://www.w3.org/1999/xlink" xml:space="preserve" onload="init(evt)">
<style type="text/css"><![CDATA[
.edge:hover path { stroke: red; }
.edge:hover polygon { stroke: red; fill: red; }
]]></style>
<script type="text/javascript"><![CDATA[
var edges = document.getElementsByTagName('g');
if (edges && edges.length) {
  for (var i=0;i<edges.length;i++) {
    if (edges[i].id.substr(0,4)=='edge') {
      edges[i].setAttribute('class','edge');
    }
  }
}
]]></script>
        <defs>
                <circle id="rim" cx="0" cy="0" r="7"/>
                <circle id="rim2" cx="0" cy="0" r="3.5"/>
                <g id="zoomPlus">
                        <use xlink:href="#rim" fill="#404040">
                                <set attributeName="fill" to="#808080" begin="zoomplus.mouseover" end="zoomplus.mouseout"/>
                        </use>
                        <path d="M-4,0h8M0,-4v8" fill="none" stroke="white" stroke-width="1.5" pointer-events="none"/>
                </g>
                <g id="zoomMin">
                        <use xlink:href="#rim" fill="#404040">
                                <set attributeName="fill" to="#808080" begin="zoomminus.mouseover" end="zoomminus.mouseout"/>
                        </use>
                        <path d="M-4,0h8" fill="none" stroke="white" stroke-width="1.5" pointer-events="none"/>
                </g>
                <g id="dirArrow">
                        <path fill="none" stroke="white" stroke-width="1.5" d="M0,-3.0v7 M-2.5,-0.5L0,-3.0L2.5,-0.5"/>
                </g>
               <g id="resetDef">
                       <use xlink:href="#rim2" fill="#404040">
                               <set attributeName="fill" to="#808080" begin="reset.mouseover" end="reset.mouseout"/>
                       </use>
               </g>
        </defs>

<script type="text/javascript">
var viewWidth = 2268;
var viewHeight = 398;
var sectionId = 'dynsection-0';
</script>
<script xlink:href="svgpan.js"/>
<svg id="graph" class="graph">
<g id="viewport">
<title>/home/kpenev/projects/git/poet/poet_src/unit_tests/testEvolve/Oblique20LinearQuantity.cpp</title>
<polygon fill="#ffffff" stroke="transparent" points="-4,4 -4,-394 2264,-394 2264,4 -4,4"/>
<!-- Node0 -->
<g id="node1" class="node">
<title>Node0</title>
<polygon fill="#bfbfbf" stroke="#000000" points="1014,-329.5 1014,-389.5 1213,-389.5 1213,-329.5 1014,-329.5"/>
<text text-anchor="start" x="1022" y="-375.9" font-family="Helvetica,sans-Serif" font-size="12.00" fill="#000000">/home/kpenev/projects</text>
<text text-anchor="start" x="1022" y="-362.9" font-family="Helvetica,sans-Serif" font-size="12.00" fill="#000000">/git/poet/poet_src/unit</text>
<text text-anchor="start" x="1022" y="-349.9" font-family="Helvetica,sans-Serif" font-size="12.00" fill="#000000">_tests/testEvolve/Oblique20Linear</text>
<text text-anchor="middle" x="1113.5" y="-336.9" font-family="Helvetica,sans-Serif" font-size="12.00" fill="#000000">Quantity.cpp</text>
</g>
<!-- Node1 -->
<g id="node2" class="node">
<title>Node1</title>
<g id="a_node2"><a xlink:href="Oblique20LinearQuantity_8h.html" target="_top" xlink:title="Declares a function of the stellar angular momentum that evolves linearly with time when only the m =...">
<polygon fill="#ffffff" stroke="#000000" points="1033.5,-271.5 1033.5,-292.5 1193.5,-292.5 1193.5,-271.5 1033.5,-271.5"/>
<text text-anchor="middle" x="1113.5" y="-278.9" font-family="Helvetica,sans-Serif" font-size="12.00" fill="#000000">Oblique20LinearQuantity.h</text>
</a>
</g>
</g>
<!-- Node0&#45;&gt;Node1 -->
<g id="edge1" class="edge">
<title>Node0&#45;&gt;Node1</title>
<path fill="none" stroke="#191970" d="M1113.5,-329.3146C1113.5,-320.4318 1113.5,-310.9169 1113.5,-302.7662"/>
<polygon fill="#191970" stroke="#191970" points="1117.0001,-302.6845 1113.5,-292.6845 1110.0001,-302.6846 1117.0001,-302.6845"/>
</g>
<!-- Node2 -->
<g id="node3" class="node">
<title>Node2</title>
<g id="a_node3"><a xlink:href="Functions_8h.html" target="_top" xlink:title="A hierarchy of classes representing functions. ">
<polygon fill="#ffffff" stroke="#000000" points="1326.5,-207 1326.5,-228 1452.5,-228 1452.5,-207 1326.5,-207"/>
<text text-anchor="middle" x="1389.5" y="-214.4" font-family="Helvetica,sans-Serif" font-size="12.00" fill="#000000">../../Core/Functions.h</text>
</a>
</g>
</g>
<!-- Node1&#45;&gt;Node2 -->
<g id="edge2" class="edge">
<title>Node1&#45;&gt;Node2</title>
<path fill="none" stroke="#191970" d="M1158.4584,-271.4934C1206.5746,-260.2489 1282.9376,-242.4032 1334.5781,-230.335"/>
<polygon fill="#191970" stroke="#191970" points="1335.6197,-233.686 1344.5608,-228.0021 1334.0267,-226.8696 1335.6197,-233.686"/>
</g>
<!-- Node28 -->
<g id="node29" class="node">
<title>Node28</title>
<g id="a_node29"><a xlink:href="InterpSolutionIterator_8h_source.html" target="_top" xlink:title="../../Core/InterpSolution\lIterator.h">
<polygon fill="#ffffff" stroke="#000000" points="795.5,-200.5 795.5,-234.5 933.5,-234.5 933.5,-200.5 795.5,-200.5"/>
<text text-anchor="start" x="803.5" y="-220.9" font-family="Helvetica,sans-Serif" font-size="12.00" fill="#000000">../../Core/InterpSolution</text>
<text text-anchor="middle" x="864.5" y="-207.9" font-family="Helvetica,sans-Serif" font-size="12.00" fill="#000000">Iterator.h</text>
</a>
</g>
</g>
<!-- Node1&#45;&gt;Node28 -->
<g id="edge37" class="edge">
<title>Node1&#45;&gt;Node28</title>
<path fill="none" stroke="#191970" d="M1072.9397,-271.4934C1037.0668,-262.201 983.7908,-248.4006 940.0808,-237.0782"/>
<polygon fill="#191970" stroke="#191970" points="940.8974,-233.6742 930.3392,-234.5547 939.142,-240.4506 940.8974,-233.6742"/>
</g>
<!-- Node3 -->
<g id="node4" class="node">
<title>Node3</title>
<g id="a_node4"><a xlink:href="SharedLibraryExportMacros_8h_source.html" target="_top" xlink:title="../Core/SharedLibraryExport\lMacros.h">
<polygon fill="#ffffff" stroke="#000000" points="1241,-.5 1241,-34.5 1406,-34.5 1406,-.5 1241,-.5"/>
<text text-anchor="start" x="1249" y="-20.9" font-family="Helvetica,sans-Serif" font-size="12.00" fill="#000000">../Core/SharedLibraryExport</text>
<text text-anchor="middle" x="1323.5" y="-7.9" font-family="Helvetica,sans-Serif" font-size="12.00" fill="#000000">Macros.h</text>
</a>
</g>
</g>
<!-- Node2&#45;&gt;Node3 -->
<g id="edge3" class="edge">
<title>Node2&#45;&gt;Node3</title>
<path fill="none" stroke="#191970" d="M1388.2109,-206.6603C1384.3844,-174.8805 1373.0155,-83.3952 1367.5,-71 1362.9059,-60.6754 1355.756,-50.7219 1348.5456,-42.2583"/>
<polygon fill="#191970" stroke="#191970" points="1350.9833,-39.7346 1341.6955,-34.6367 1345.777,-44.4138 1350.9833,-39.7346"/>
</g>
<!-- Node4 -->
<g id="node5" class="node">
<title>Node4</title>
<g id="a_node5"><a xlink:href="Core_2Common_8h.html" target="_top" xlink:title="Declaration of some general purpose utilities. ">
<polygon fill="#ffffff" stroke="#000000" points="827,-142.5 827,-163.5 902,-163.5 902,-142.5 827,-142.5"/>
<text text-anchor="middle" x="864.5" y="-149.9" font-family="Helvetica,sans-Serif" font-size="12.00" fill="#000000">Common.h</text>
</a>
</g>
</g>
<!-- Node2&#45;&gt;Node4 -->
<g id="edge4" class="edge">
<title>Node2&#45;&gt;Node4</title>
<path fill="none" stroke="#191970" d="M1326.4337,-209.7519C1220.0793,-196.6855 1007.3767,-170.5534 912.3172,-158.8747"/>
<polygon fill="#191970" stroke="#191970" points="912.4866,-155.3693 902.1344,-157.6237 911.633,-162.317 912.4866,-155.3693"/>
</g>
<!-- Node5 -->
<g id="node6" class="node">
<title>Node5</title>
<polygon fill="#ffffff" stroke="#bfbfbf" points="1326.5,-78 1326.5,-99 1358.5,-99 1358.5,-78 1326.5,-78"/>
<text text-anchor="middle" x="1342.5" y="-85.4" font-family="Helvetica,sans-Serif" font-size="12.00" fill="#000000">list</text>
</g>
<!-- Node2&#45;&gt;Node5 -->
<g id="edge30" class="edge">
<title>Node2&#45;&gt;Node5</title>
<path fill="none" stroke="#191970" d="M1378.5638,-206.727C1369.0848,-196.6435 1355.9122,-180.669 1349.5,-164 1342.7304,-146.402 1341.3448,-124.8611 1341.4376,-109.2987"/>
<polygon fill="#191970" stroke="#191970" points="1344.9399,-109.2559 1341.7106,-99.1652 1337.9424,-109.0673 1344.9399,-109.2559"/>
</g>
<!-- Node6 -->
<g id="node7" class="node">
<title>Node6</title>
<polygon fill="#ffffff" stroke="#bfbfbf" points="0,-78 0,-99 59,-99 59,-78 0,-78"/>
<text text-anchor="middle" x="29.5" y="-85.4" font-family="Helvetica,sans-Serif" font-size="12.00" fill="#000000">valarray</text>
</g>
<!-- Node2&#45;&gt;Node6 -->
<g id="edge29" class="edge">
<title>Node2&#45;&gt;Node6</title>
<path fill="none" stroke="#191970" d="M1326.4147,-215.0751C1097.3251,-205.8207 310.1188,-169.9856 67.5,-106 64.5064,-105.2105 61.4562,-104.1988 58.4513,-103.0607"/>
<polygon fill="#191970" stroke="#191970" points="59.7045,-99.7905 49.1314,-99.1122 56.9738,-106.2359 59.7045,-99.7905"/>
</g>
<!-- Node7 -->
<g id="node8" class="node">
<title>Node7</title>
<polygon fill="#ffffff" stroke="#bfbfbf" points="1192.5,-78 1192.5,-99 1236.5,-99 1236.5,-78 1192.5,-78"/>
<text text-anchor="middle" x="1214.5" y="-85.4" font-family="Helvetica,sans-Serif" font-size="12.00" fill="#000000">limits</text>
</g>
<!-- Node2&#45;&gt;Node7 -->
<g id="edge28" class="edge">
<title>Node2&#45;&gt;Node7</title>
<path fill="none" stroke="#191970" d="M1375.179,-206.9434C1344.7989,-184.5489 1273.6882,-132.1301 1237.1112,-105.1677"/>
<polygon fill="#191970" stroke="#191970" points="1239.145,-102.3188 1229.0189,-99.2025 1234.9915,-107.9534 1239.145,-102.3188"/>
</g>
<!-- Node9 -->
<g id="node10" class="node">
<title>Node9</title>
<polygon fill="#ffffff" stroke="#bfbfbf" points="1424.5,-7 1424.5,-28 1486.5,-28 1486.5,-7 1424.5,-7"/>
<text text-anchor="middle" x="1455.5" y="-14.4" font-family="Helvetica,sans-Serif" font-size="12.00" fill="#000000">iostream</text>
</g>
<!-- Node2&#45;&gt;Node9 -->
<g id="edge32" class="edge">
<title>Node2&#45;&gt;Node9</title>
<path fill="none" stroke="#191970" d="M1408.6112,-206.9204C1423.1096,-197.702 1441.9545,-182.8613 1450.5,-164 1454.5352,-155.0937 1451.4375,-151.7327 1450.5,-142 1448.9372,-125.7754 1445.0628,-122.2246 1443.5,-106 1442.0086,-90.5161 1441.7873,-86.461 1443.5,-71 1444.7314,-59.8832 1447.3605,-47.7006 1449.8447,-37.7725"/>
<polygon fill="#191970" stroke="#191970" points="1453.2452,-38.6034 1452.4106,-28.0415 1446.4765,-36.8186 1453.2452,-38.6034"/>
</g>
<!-- Node10 -->
<g id="node11" class="node">
<title>Node10</title>
<polygon fill="#ffffff" stroke="#bfbfbf" points="1255,-78 1255,-99 1308,-99 1308,-78 1255,-78"/>
<text text-anchor="middle" x="1281.5" y="-85.4" font-family="Helvetica,sans-Serif" font-size="12.00" fill="#000000">iterator</text>
</g>
<!-- Node2&#45;&gt;Node10 -->
<g id="edge31" class="edge">
<title>Node2&#45;&gt;Node10</title>
<path fill="none" stroke="#191970" d="M1378.8395,-206.7173C1368.4924,-196.1086 1352.4912,-179.32 1339.5,-164 1323.5934,-145.2419 1306.5832,-122.7829 1295.1263,-107.2624"/>
<polygon fill="#191970" stroke="#191970" points="1297.8083,-105.0012 1289.0726,-99.0064 1292.1632,-109.1404 1297.8083,-105.0012"/>
</g>
<!-- Node17 -->
<g id="node18" class="node">
<title>Node17</title>
<g id="a_node18"><a xlink:href="Error_8h.html" target="_top" xlink:title="Defines the exception hierarchy used by this code. ">
<polygon fill="#ffffff" stroke="#000000" points="1619,-78 1619,-99 1672,-99 1672,-78 1619,-78"/>
<text text-anchor="middle" x="1645.5" y="-85.4" font-family="Helvetica,sans-Serif" font-size="12.00" fill="#000000">Error.h</text>
</a>
</g>
</g>
<!-- Node2&#45;&gt;Node17 -->
<g id="edge26" class="edge">
<title>Node2&#45;&gt;Node17</title>
<path fill="none" stroke="#191970" d="M1412.5827,-206.9299C1435.5207,-196.3421 1471.6365,-179.4445 1502.5,-164 1542.6502,-143.9083 1588.442,-119.4555 1617.1585,-103.9311"/>
<polygon fill="#191970" stroke="#191970" points="1619.0842,-106.8685 1626.2097,-99.0277 1615.7498,-100.7136 1619.0842,-106.8685"/>
</g>
<!-- Node23 -->
<g id="node24" class="node">
<title>Node23</title>
<polygon fill="#ffffff" stroke="#bfbfbf" points="1392,-142.5 1392,-163.5 1441,-163.5 1441,-142.5 1392,-142.5"/>
<text text-anchor="middle" x="1416.5" y="-149.9" font-family="Helvetica,sans-Serif" font-size="12.00" fill="#000000">cmath</text>
</g>
<!-- Node2&#45;&gt;Node23 -->
<g id="edge27" class="edge">
<title>Node2&#45;&gt;Node23</title>
<path fill="none" stroke="#191970" d="M1393.9585,-206.8491C1397.7657,-197.7541 1403.3485,-184.4174 1408.0056,-173.2923"/>
<polygon fill="#191970" stroke="#191970" points="1411.3117,-174.4582 1411.9446,-163.8823 1404.8546,-171.7552 1411.3117,-174.4582"/>
</g>
<!-- Node24 -->
<g id="node25" class="node">
<title>Node24</title>
<polygon fill="#ffffff" stroke="#bfbfbf" points="2147,-71.5 2147,-105.5 2260,-105.5 2260,-71.5 2147,-71.5"/>
<text text-anchor="start" x="2155" y="-91.9" font-family="Helvetica,sans-Serif" font-size="12.00" fill="#000000">boost/serialization</text>
<text text-anchor="middle" x="2203.5" y="-78.9" font-family="Helvetica,sans-Serif" font-size="12.00" fill="#000000">/base_object.hpp</text>
</g>
<!-- Node2&#45;&gt;Node24 -->
<g id="edge33" class="edge">
<title>Node2&#45;&gt;Node24</title>
<path fill="none" stroke="#191970" d="M1452.7972,-215.6284C1557.9058,-211.6036 1774.6882,-199.4035 1954.5,-164 2022.2292,-150.6647 2097.8232,-126.3477 2147.7596,-108.9111"/>
<polygon fill="#191970" stroke="#191970" points="2149.1234,-112.1416 2157.3948,-105.5208 2146.8,-105.5384 2149.1234,-112.1416"/>
</g>
<!-- Node25 -->
<g id="node26" class="node">
<title>Node25</title>
<polygon fill="#ffffff" stroke="#bfbfbf" points="1452.5,-71.5 1452.5,-105.5 1562.5,-105.5 1562.5,-71.5 1452.5,-71.5"/>
<text text-anchor="start" x="1460.5" y="-91.9" font-family="Helvetica,sans-Serif" font-size="12.00" fill="#000000">boost/archive/text</text>
<text text-anchor="middle" x="1507.5" y="-78.9" font-family="Helvetica,sans-Serif" font-size="12.00" fill="#000000">_oarchive.hpp</text>
</g>
<!-- Node2&#45;&gt;Node25 -->
<g id="edge34" class="edge">
<title>Node2&#45;&gt;Node25</title>
<path fill="none" stroke="#191970" d="M1420.1647,-206.9015C1440.7752,-198.3151 1467.0764,-184.2858 1483.5,-164 1494.6103,-150.2771 1500.6129,-131.3315 1503.8367,-115.8521"/>
<polygon fill="#191970" stroke="#191970" points="1507.3197,-116.2591 1505.6532,-105.7962 1500.4312,-115.0147 1507.3197,-116.2591"/>
</g>
<!-- Node26 -->
<g id="node27" class="node">
<title>Node26</title>
<polygon fill="#ffffff" stroke="#bfbfbf" points="1887.5,-71.5 1887.5,-105.5 1997.5,-105.5 1997.5,-71.5 1887.5,-71.5"/>
<text text-anchor="start" x="1895.5" y="-91.9" font-family="Helvetica,sans-Serif" font-size="12.00" fill="#000000">boost/archive/text</text>
<text text-anchor="middle" x="1942.5" y="-78.9" font-family="Helvetica,sans-Serif" font-size="12.00" fill="#000000">_iarchive.hpp</text>
</g>
<!-- Node2&#45;&gt;Node26 -->
<g id="edge35" class="edge">
<title>Node2&#45;&gt;Node26</title>
<path fill="none" stroke="#191970" d="M1452.862,-213.4785C1578.1398,-205.1209 1848.629,-184.9051 1885.5,-164 1905.2697,-152.791 1920.321,-131.6407 1929.9786,-114.5711"/>
<polygon fill="#191970" stroke="#191970" points="1933.149,-116.0648 1934.7847,-105.5969 1926.9782,-112.76 1933.149,-116.0648"/>
</g>
<!-- Node27 -->
<g id="node28" class="node">
<title>Node27</title>
<polygon fill="#ffffff" stroke="#bfbfbf" points="2016,-71.5 2016,-105.5 2129,-105.5 2129,-71.5 2016,-71.5"/>
<text text-anchor="start" x="2024" y="-91.9" font-family="Helvetica,sans-Serif" font-size="12.00" fill="#000000">boost/serialization</text>
<text text-anchor="middle" x="2072.5" y="-78.9" font-family="Helvetica,sans-Serif" font-size="12.00" fill="#000000">/export.hpp</text>
</g>
<!-- Node2&#45;&gt;Node27 -->
<g id="edge36" class="edge">
<title>Node2&#45;&gt;Node27</title>
<path fill="none" stroke="#191970" d="M1452.9237,-213.6694C1572.4534,-206.0102 1826.6713,-187.5058 1911.5,-164 1955.9082,-151.6946 2003.2653,-128.0713 2035.0352,-110.5118"/>
<polygon fill="#191970" stroke="#191970" points="2036.9567,-113.4472 2043.9699,-105.5058 2033.5351,-107.3404 2036.9567,-113.4472"/>
</g>
<!-- Node4&#45;&gt;Node3 -->
<g id="edge17" class="edge">
<title>Node4&#45;&gt;Node3</title>
<path fill="none" stroke="#191970" d="M826.6642,-152.2097C717.4532,-149.5406 407.5515,-139.0914 377.5,-106 367.0422,-94.4844 366.8156,-82.3057 377.5,-71 406.5157,-40.2969 998.2242,-24.4174 1230.7907,-19.343"/>
<polygon fill="#191970" stroke="#191970" points="1230.9998,-22.8394 1240.9217,-19.1239 1230.8483,-15.8411 1230.9998,-22.8394"/>
</g>
<!-- Node4&#45;&gt;Node5 -->
<g id="edge5" class="edge">
<title>Node4&#45;&gt;Node5</title>
<path fill="none" stroke="#191970" d="M902.2318,-151.5199C996.7588,-147.4251 1241.5668,-134.3264 1317.5,-106 1318.7286,-105.5417 1319.9532,-105.0084 1321.1633,-104.419"/>
<polygon fill="#191970" stroke="#191970" points="1323.2139,-107.2698 1329.975,-99.1127 1319.6028,-101.2731 1323.2139,-107.2698"/>
</g>
<!-- Node4&#45;&gt;Node6 -->
<g id="edge6" class="edge">
<title>Node4&#45;&gt;Node6</title>
<path fill="none" stroke="#191970" d="M826.7188,-152.6253C688.9623,-150.9722 214.0627,-142.6811 67.5,-106 64.3294,-105.2065 61.0992,-104.1512 57.9285,-102.9507"/>
<polygon fill="#191970" stroke="#191970" points="59.2854,-99.7244 48.7134,-99.0301 56.5449,-106.1657 59.2854,-99.7244"/>
</g>
<!-- Node4&#45;&gt;Node7 -->
<g id="edge7" class="edge">
<title>Node4&#45;&gt;Node7</title>
<path fill="none" stroke="#191970" d="M902.0529,-151.0627C961.7936,-147.1685 1081.6227,-136.0236 1178.5,-106 1181.0867,-105.1983 1183.7201,-104.2353 1186.3259,-103.1784"/>
<polygon fill="#191970" stroke="#191970" points="1187.817,-106.3457 1195.5106,-99.0616 1184.9538,-99.958 1187.817,-106.3457"/>
</g>
<!-- Node8 -->
<g id="node9" class="node">
<title>Node8</title>
<polygon fill="#ffffff" stroke="#bfbfbf" points="1077,-78 1077,-99 1136,-99 1136,-78 1077,-78"/>
<text text-anchor="middle" x="1106.5" y="-85.4" font-family="Helvetica,sans-Serif" font-size="12.00" fill="#000000">sstream</text>
</g>
<!-- Node4&#45;&gt;Node8 -->
<g id="edge8" class="edge">
<title>Node4&#45;&gt;Node8</title>
<path fill="none" stroke="#191970" d="M902.3693,-146.6827C943.8212,-139.2154 1011.9201,-125.3173 1068.5,-106 1071.054,-105.128 1073.6671,-104.1405 1076.2684,-103.0894"/>
<polygon fill="#191970" stroke="#191970" points="1077.7184,-106.2757 1085.5103,-99.0967 1074.9423,-99.8497 1077.7184,-106.2757"/>
</g>
<!-- Node4&#45;&gt;Node9 -->
<g id="edge9" class="edge">
<title>Node4&#45;&gt;Node9</title>
<path fill="none" stroke="#191970" d="M902.223,-149.3836C968.5961,-142.5796 1103.2363,-126.6783 1145.5,-106 1166.1248,-95.909 1162.8162,-80.9694 1183.5,-71 1277.4965,-25.6948 1315.3107,-64.1549 1415.5,-35 1418.4613,-34.1383 1421.4917,-33.1084 1424.4944,-31.9856"/>
<polygon fill="#191970" stroke="#191970" points="1425.9262,-35.1818 1433.873,-28.1747 1423.291,-28.6967 1425.9262,-35.1818"/>
</g>
<!-- Node4&#45;&gt;Node10 -->
<g id="edge10" class="edge">
<title>Node4&#45;&gt;Node10</title>
<path fill="none" stroke="#191970" d="M902.0435,-149.9508C984.9956,-142.9575 1181.5903,-124.9051 1245.5,-106 1248.0968,-105.2318 1250.7372,-104.292 1253.3478,-103.2506"/>
<polygon fill="#191970" stroke="#191970" points="1254.8274,-106.4232 1262.5402,-99.1594 1251.9811,-100.028 1254.8274,-106.4232"/>
</g>
<!-- Node11 -->
<g id="node12" class="node">
<title>Node11</title>
<polygon fill="#ffffff" stroke="#bfbfbf" points="230.5,-78 230.5,-99 330.5,-99 330.5,-78 230.5,-78"/>
<text text-anchor="middle" x="280.5" y="-85.4" font-family="Helvetica,sans-Serif" font-size="12.00" fill="#000000">gsl/gsl_vector.h</text>
</g>
<!-- Node4&#45;&gt;Node11 -->
<g id="edge11" class="edge">
<title>Node4&#45;&gt;Node11</title>
<path fill="none" stroke="#191970" d="M826.9951,-151.8814C741.0227,-148.824 523.3562,-138.2742 344.5,-106 338.1023,-104.8455 331.4149,-103.3496 324.8765,-101.7188"/>
<polygon fill="#191970" stroke="#191970" points="325.3482,-98.2243 314.7876,-99.0748 323.5736,-104.9956 325.3482,-98.2243"/>
</g>
<!-- Node12 -->
<g id="node13" class="node">
<title>Node12</title>
<polygon fill="#ffffff" stroke="#bfbfbf" points="386.5,-78 386.5,-99 486.5,-99 486.5,-78 386.5,-78"/>
<text text-anchor="middle" x="436.5" y="-85.4" font-family="Helvetica,sans-Serif" font-size="12.00" fill="#000000">gsl/gsl_matrix.h</text>
</g>
<!-- Node4&#45;&gt;Node12 -->
<g id="edge12" class="edge">
<title>Node4&#45;&gt;Node12</title>
<path fill="none" stroke="#191970" d="M826.8283,-150.1511C759.8412,-144.6509 615.8293,-130.8623 496.5,-106 490.7837,-104.809 484.8195,-103.3455 478.964,-101.7766"/>
<polygon fill="#191970" stroke="#191970" points="479.8488,-98.3898 469.2756,-99.0663 477.9629,-105.131 479.8488,-98.3898"/>
</g>
<!-- Node13 -->
<g id="node14" class="node">
<title>Node13</title>
<polygon fill="#ffffff" stroke="#bfbfbf" points="505,-78 505,-99 602,-99 602,-78 505,-78"/>
<text text-anchor="middle" x="553.5" y="-85.4" font-family="Helvetica,sans-Serif" font-size="12.00" fill="#000000">gsl/gsl_linalg.h</text>
</g>
<!-- Node4&#45;&gt;Node13 -->
<g id="edge13" class="edge">
<title>Node4&#45;&gt;Node13</title>
<path fill="none" stroke="#191970" d="M826.9338,-147.339C777.2863,-139.5575 687.254,-124.4064 611.5,-106 606.4553,-104.7742 601.1997,-103.3706 596.0021,-101.9032"/>
<polygon fill="#191970" stroke="#191970" points="596.7289,-98.4695 586.1491,-99.0328 594.771,-105.1901 596.7289,-98.4695"/>
</g>
<!-- Node14 -->
<g id="node15" class="node">
<title>Node14</title>
<polygon fill="#ffffff" stroke="#bfbfbf" points="620.5,-78 620.5,-99 710.5,-99 710.5,-78 620.5,-78"/>
<text text-anchor="middle" x="665.5" y="-85.4" font-family="Helvetica,sans-Serif" font-size="12.00" fill="#000000">gsl/gsl_blas.h</text>
</g>
<!-- Node4&#45;&gt;Node14 -->
<g id="edge14" class="edge">
<title>Node4&#45;&gt;Node14</title>
<path fill="none" stroke="#191970" d="M832.0843,-142.4934C798.1146,-131.4831 744.6183,-114.1439 707.4495,-102.0967"/>
<polygon fill="#191970" stroke="#191970" points="708.4938,-98.756 697.9018,-99.0021 706.3354,-105.4149 708.4938,-98.756"/>
</g>
<!-- Node15 -->
<g id="node16" class="node">
<title>Node15</title>
<polygon fill="#ffffff" stroke="#bfbfbf" points="728.5,-78 728.5,-99 818.5,-99 818.5,-78 728.5,-78"/>
<text text-anchor="middle" x="773.5" y="-85.4" font-family="Helvetica,sans-Serif" font-size="12.00" fill="#000000">gsl/gsl_poly.h</text>
</g>
<!-- Node4&#45;&gt;Node15 -->
<g id="edge15" class="edge">
<title>Node4&#45;&gt;Node15</title>
<path fill="none" stroke="#191970" d="M849.4732,-142.3491C835.2469,-132.2656 813.6647,-116.9684 797.1342,-105.2517"/>
<polygon fill="#191970" stroke="#191970" points="798.7316,-102.0939 788.5491,-99.1667 794.6837,-107.8049 798.7316,-102.0939"/>
</g>
<!-- Node16 -->
<g id="node17" class="node">
<title>Node16</title>
<polygon fill="#ffffff" stroke="#bfbfbf" points="837,-78 837,-99 892,-99 892,-78 837,-78"/>
<text text-anchor="middle" x="864.5" y="-85.4" font-family="Helvetica,sans-Serif" font-size="12.00" fill="#000000">cassert</text>
</g>
<!-- Node4&#45;&gt;Node16 -->
<g id="edge16" class="edge">
<title>Node4&#45;&gt;Node16</title>
<path fill="none" stroke="#191970" d="M864.5,-142.3491C864.5,-133.4397 864.5,-120.4599 864.5,-109.4761"/>
<polygon fill="#191970" stroke="#191970" points="868.0001,-109.3822 864.5,-99.3823 861.0001,-109.3823 868.0001,-109.3822"/>
</g>
<!-- Node4&#45;&gt;Node17 -->
<g id="edge18" class="edge">
<title>Node4&#45;&gt;Node17</title>
<path fill="none" stroke="#191970" d="M902.2927,-152.6865C1008.4021,-151.3343 1317.8691,-144.1511 1571.5,-106 1583.8184,-104.1471 1597.1094,-101.2826 1608.9826,-98.4039"/>
<polygon fill="#191970" stroke="#191970" points="1610.1423,-101.7216 1618.9915,-95.8956 1608.4406,-94.9316 1610.1423,-101.7216"/>
</g>
<!-- Node20 -->
<g id="node21" class="node">
<title>Node20</title>
<g id="a_node21"><a xlink:href="AstronomicalConstants_8h.html" target="_top" xlink:title="Defines various astronomical constants. ">
<polygon fill="#ffffff" stroke="#000000" points="909.5,-78 909.5,-99 1059.5,-99 1059.5,-78 909.5,-78"/>
<text text-anchor="middle" x="984.5" y="-85.4" font-family="Helvetica,sans-Serif" font-size="12.00" fill="#000000">AstronomicalConstants.h</text>
</a>
</g>
</g>
<!-- Node4&#45;&gt;Node20 -->
<g id="edge23" class="edge">
<title>Node4&#45;&gt;Node20</title>
<path fill="none" stroke="#191970" d="M884.0471,-142.4934C903.5725,-131.9985 933.7963,-115.7532 955.9939,-103.822"/>
<polygon fill="#191970" stroke="#191970" points="957.81,-106.8195 964.9612,-99.0021 954.4959,-100.6537 957.81,-106.8195"/>
</g>
<!-- Node21 -->
<g id="node22" class="node">
<title>Node21</title>
<g id="a_node22"><a xlink:href="IncludeEigen_8h_source.html" target="_top" xlink:title="IncludeEigen.h">
<polygon fill="#ffffff" stroke="#000000" points="77,-78 77,-99 174,-99 174,-78 77,-78"/>
<text text-anchor="middle" x="125.5" y="-85.4" font-family="Helvetica,sans-Serif" font-size="12.00" fill="#000000">IncludeEigen.h</text>
</a>
</g>
</g>
<!-- Node4&#45;&gt;Node21 -->
<g id="edge24" class="edge">
<title>Node4&#45;&gt;Node21</title>
<path fill="none" stroke="#191970" d="M826.6719,-151.6543C727.2038,-147.8092 450.2289,-135.1217 221.5,-106 209.4209,-104.4621 196.5571,-102.4083 184.3014,-100.2495"/>
<polygon fill="#191970" stroke="#191970" points="184.6433,-96.7546 174.1802,-98.4204 183.3984,-103.6431 184.6433,-96.7546"/>
</g>
<!-- Node17&#45;&gt;Node3 -->
<g id="edge19" class="edge">
<title>Node17&#45;&gt;Node3</title>
<path fill="none" stroke="#191970" d="M1623.2677,-77.9822C1617.2707,-75.4305 1610.7187,-72.895 1604.5,-71 1604.2076,-70.9109 1497.7863,-50.6569 1416.0129,-35.0988"/>
<polygon fill="#191970" stroke="#191970" points="1416.6495,-31.6573 1406.1715,-33.2265 1415.3411,-38.5339 1416.6495,-31.6573"/>
</g>
<!-- Node17&#45;&gt;Node9 -->
<g id="edge20" class="edge">
<title>Node17&#45;&gt;Node9</title>
<path fill="none" stroke="#191970" d="M1621.3155,-77.899C1615.813,-75.5648 1609.9751,-73.1493 1604.5,-71 1568.1822,-56.7433 1526.3274,-41.8475 1496.2429,-31.4049"/>
<polygon fill="#191970" stroke="#191970" points="1497.1114,-28.0019 1486.5166,-28.0416 1494.8237,-34.6176 1497.1114,-28.0019"/>
</g>
<!-- Node18 -->
<g id="node19" class="node">
<title>Node18</title>
<polygon fill="#ffffff" stroke="#bfbfbf" points="1573.5,-7 1573.5,-28 1641.5,-28 1641.5,-7 1573.5,-7"/>
<text text-anchor="middle" x="1607.5" y="-14.4" font-family="Helvetica,sans-Serif" font-size="12.00" fill="#000000">exception</text>
</g>
<!-- Node17&#45;&gt;Node18 -->
<g id="edge21" class="edge">
<title>Node17&#45;&gt;Node18</title>
<path fill="none" stroke="#191970" d="M1639.7286,-77.7166C1634.0371,-67.0825 1625.2016,-50.5741 1618.2202,-37.5299"/>
<polygon fill="#191970" stroke="#191970" points="1621.1303,-35.5499 1613.3257,-28.3849 1614.9587,-38.8531 1621.1303,-35.5499"/>
</g>
<!-- Node19 -->
<g id="node20" class="node">
<title>Node19</title>
<polygon fill="#ffffff" stroke="#bfbfbf" points="1659.5,-7 1659.5,-28 1705.5,-28 1705.5,-7 1659.5,-7"/>
<text text-anchor="middle" x="1682.5" y="-14.4" font-family="Helvetica,sans-Serif" font-size="12.00" fill="#000000">string</text>
</g>
<!-- Node17&#45;&gt;Node19 -->
<g id="edge22" class="edge">
<title>Node17&#45;&gt;Node19</title>
<path fill="none" stroke="#191970" d="M1651.1195,-77.7166C1656.6612,-67.0825 1665.2642,-50.5741 1672.0619,-37.5299"/>
<polygon fill="#191970" stroke="#191970" points="1675.31,-38.8704 1676.8276,-28.3849 1669.1023,-35.6354 1675.31,-38.8704"/>
</g>
<!-- Node22 -->
<g id="node23" class="node">
<title>Node22</title>
<polygon fill="#ffffff" stroke="#bfbfbf" points="82.5,-7 82.5,-28 168.5,-28 168.5,-7 82.5,-7"/>
<text text-anchor="middle" x="125.5" y="-14.4" font-family="Helvetica,sans-Serif" font-size="12.00" fill="#000000">Eigen/Dense</text>
</g>
<!-- Node21&#45;&gt;Node22 -->
<g id="edge25" class="edge">
<title>Node21&#45;&gt;Node22</title>
<path fill="none" stroke="#191970" d="M125.5,-77.7166C125.5,-67.3953 125.5,-51.5401 125.5,-38.6896"/>
<polygon fill="#191970" stroke="#191970" points="129.0001,-38.3848 125.5,-28.3849 122.0001,-38.3849 129.0001,-38.3848"/>
</g>
<!-- Node28&#45;&gt;Node3 -->
<g id="edge38" class="edge">
<title>Node28&#45;&gt;Node3</title>
<path fill="none" stroke="#191970" d="M795.1858,-212.9786C612.8973,-199.837 139.5673,-157.0069 221.5,-71 256.07,-34.7109 970.9194,-21.9973 1230.4199,-18.5678"/>
<polygon fill="#191970" stroke="#191970" points="1230.6205,-22.0655 1240.5739,-18.4352 1230.5291,-15.0661 1230.6205,-22.0655"/>
</g>
<!-- Node28&#45;&gt;Node4 -->
<g id="edge46" class="edge">
<title>Node28&#45;&gt;Node4</title>
<path fill="none" stroke="#191970" d="M864.5,-200.2152C864.5,-192.12 864.5,-182.4084 864.5,-173.9034"/>
<polygon fill="#191970" stroke="#191970" points="868.0001,-173.6553 864.5,-163.6554 861.0001,-173.6554 868.0001,-173.6553"/>
</g>
<!-- Node28&#45;&gt;Node6 -->
<g id="edge47" class="edge">
<title>Node28&#45;&gt;Node6</title>
<path fill="none" stroke="#191970" d="M795.304,-214.7749C623.697,-207.6919 187.9175,-187.6016 126.5,-164 94.3696,-151.6529 64.2204,-124.8925 46.311,-106.7831"/>
<polygon fill="#191970" stroke="#191970" points="48.4329,-103.9399 38.9805,-99.1542 43.3854,-108.79 48.4329,-103.9399"/>
</g>
<!-- Node29 -->
<g id="node30" class="node">
<title>Node29</title>
<g id="a_node30"><a xlink:href="SerializableSpline1dInterpolant_8h_source.html" target="_top" xlink:title="SerializableSpline1dInterpolant.h">
<polygon fill="#ffffff" stroke="#000000" points="1682.5,-142.5 1682.5,-163.5 1876.5,-163.5 1876.5,-142.5 1682.5,-142.5"/>
<text text-anchor="middle" x="1779.5" y="-149.9" font-family="Helvetica,sans-Serif" font-size="12.00" fill="#000000">SerializableSpline1dInterpolant.h</text>
</a>
</g>
</g>
<!-- Node28&#45;&gt;Node29 -->
<g id="edge39" class="edge">
<title>Node28&#45;&gt;Node29</title>
<path fill="none" stroke="#191970" d="M933.6488,-212.6256C1092.1415,-201.4531 1482.5658,-173.9314 1672.4034,-160.5494"/>
<polygon fill="#191970" stroke="#191970" points="1672.6693,-164.0395 1682.3984,-159.8449 1672.177,-157.0568 1672.6693,-164.0395"/>
</g>
<!-- Node29&#45;&gt;Node3 -->
<g id="edge40" class="edge">
<title>Node29&#45;&gt;Node3</title>
<path fill="none" stroke="#191970" d="M1715.4396,-142.4372C1682.6639,-135.2723 1642.9482,-123.7824 1610.5,-106 1590.076,-94.8072 1592.2441,-81.5878 1571.5,-71 1564.2903,-67.3202 1483.5675,-50.2219 1416.1459,-36.3311"/>
<polygon fill="#191970" stroke="#191970" points="1416.8054,-32.8935 1406.3053,-34.3069 1415.395,-39.75 1416.8054,-32.8935"/>
</g>
<!-- Node29&#45;&gt;Node24 -->
<g id="edge42" class="edge">
<title>Node29&#45;&gt;Node24</title>
<path fill="none" stroke="#191970" d="M1876.8255,-143.7933C1946.8886,-136.3404 2043.7621,-124.35 2137.0003,-106.171"/>
<polygon fill="#191970" stroke="#191970" points="2137.7526,-109.5901 2146.8842,-104.2176 2136.3954,-102.7229 2137.7526,-109.5901"/>
</g>
<!-- Node29&#45;&gt;Node25 -->
<g id="edge43" class="edge">
<title>Node29&#45;&gt;Node25</title>
<path fill="none" stroke="#191970" d="M1732.67,-142.4491C1691.4831,-133.1002 1629.9371,-118.961 1576.5,-106 1575.2502,-105.6969 1573.988,-105.3895 1572.7164,-105.0786"/>
<polygon fill="#191970" stroke="#191970" points="1573.3835,-101.6383 1562.8363,-102.6426 1571.7077,-108.4348 1573.3835,-101.6383"/>
</g>
<!-- Node29&#45;&gt;Node26 -->
<g id="edge44" class="edge">
<title>Node29&#45;&gt;Node26</title>
<path fill="none" stroke="#191970" d="M1806.0515,-142.4934C1828.6466,-133.5524 1861.7887,-120.4379 1889.7515,-109.3729"/>
<polygon fill="#191970" stroke="#191970" points="1891.3898,-112.4887 1899.4004,-105.5547 1888.8141,-105.9798 1891.3898,-112.4887"/>
</g>
<!-- Node29&#45;&gt;Node27 -->
<g id="edge45" class="edge">
<title>Node29&#45;&gt;Node27</title>
<path fill="none" stroke="#191970" d="M1834.7309,-142.4474C1878.5628,-133.8717 1941.6123,-121.0919 2005.7798,-106.1064"/>
<polygon fill="#191970" stroke="#191970" points="2006.7348,-109.4774 2015.6682,-103.7814 2005.1326,-102.6632 2006.7348,-109.4774"/>
</g>
<!-- Node30 -->
<g id="node31" class="node">
<title>Node30</title>
<polygon fill="#ffffff" stroke="#bfbfbf" points="1690,-71.5 1690,-105.5 1869,-105.5 1869,-71.5 1690,-71.5"/>
<text text-anchor="start" x="1698" y="-91.9" font-family="Helvetica,sans-Serif" font-size="12.00" fill="#000000">../third_party_libs</text>
<text text-anchor="middle" x="1779.5" y="-78.9" font-family="Helvetica,sans-Serif" font-size="12.00" fill="#000000">/alglib/alglib/src/interpolation.h</text>
</g>
<!-- Node29&#45;&gt;Node30 -->
<g id="edge41" class="edge">
<title>Node29&#45;&gt;Node30</title>
<path fill="none" stroke="#191970" d="M1779.5,-142.3491C1779.5,-135.122 1779.5,-125.2164 1779.5,-115.8706"/>
<polygon fill="#191970" stroke="#191970" points="1783.0001,-115.7292 1779.5,-105.7292 1776.0001,-115.7292 1783.0001,-115.7292"/>
</g>
</g>
</svg>
        <g id="navigator" transform="translate(0 0)" fill="#404254">
                <rect fill="#f2f5e9" fill-opacity="0.5" stroke="#606060" stroke-width=".5" x="0" y="0" width="60" height="60"/>
                <use id="zoomplus" xlink:href="#zoomPlus" x="17" y="9" onmousedown="handleZoom(evt,'in')"/>
                <use id="zoomminus" xlink:href="#zoomMin" x="42" y="9" onmousedown="handleZoom(evt,'out')"/>
                <use id="reset" xlink:href="#resetDef" x="30" y="36" onmousedown="handleReset()"/>
                <g id="arrowUp" xlink:href="#dirArrow" transform="translate(30 24)" onmousedown="handlePan(0,-1)">
                  <use xlink:href="#rim" fill="#404040">
                        <set attributeName="fill" to="#808080" begin="arrowUp.mouseover" end="arrowUp.mouseout"/>
                  </use>
                  <path fill="none" stroke="white" stroke-width="1.5" d="M0,-3.0v7 M-2.5,-0.5L0,-3.0L2.5,-0.5"/>
                </g>
                <g id="arrowRight" xlink:href="#dirArrow" transform="rotate(90) translate(36 -43)" onmousedown="handlePan(1,0)">
                  <use xlink:href="#rim" fill="#404040">
                        <set attributeName="fill" to="#808080" begin="arrowRight.mouseover" end="arrowRight.mouseout"/>
                  </use>
                  <path fill="none" stroke="white" stroke-width="1.5" d="M0,-3.0v7 M-2.5,-0.5L0,-3.0L2.5,-0.5"/>
                </g>
                <g id="arrowDown" xlink:href="#dirArrow" transform="rotate(180) translate(-30 -48)" onmousedown="handlePan(0,1)">
                  <use xlink:href="#rim" fill="#404040">
                        <set attributeName="fill" to="#808080" begin="arrowDown.mouseover" end="arrowDown.mouseout"/>
                  </use>
                  <path fill="none" stroke="white" stroke-width="1.5" d="M0,-3.0v7 M-2.5,-0.5L0,-3.0L2.5,-0.5"/>
                </g>
                <g id="arrowLeft" xlink:href="#dirArrow" transform="rotate(270) translate(-36 17)" onmousedown="handlePan(-1,0)">
                  <use xlink:href="#rim" fill="#404040">
                        <set attributeName="fill" to="#808080" begin="arrowLeft.mouseover" end="arrowLeft.mouseout"/>
                  </use>
                  <path fill="none" stroke="white" stroke-width="1.5" d="M0,-3.0v7 M-2.5,-0.5L0,-3.0L2.5,-0.5"/>
                </g>
        </g>
        <svg viewBox="0 0 15 15" width="100%" height="30px" preserveAspectRatio="xMaxYMin meet">
         <g id="arrow_out" transform="scale(0.3 0.3)">
          <a xlink:href="Oblique20LinearQuantity_8cpp__incl_org.svg" target="_base">
           <rect id="button" ry="5" rx="5" y="6" x="6" height="38" width="38"
                fill="#f2f5e9" fill-opacity="0.5" stroke="#606060" stroke-width="1.0"/>
           <path id="arrow"
             d="M 11.500037,31.436501 C 11.940474,20.09759 22.043105,11.32322 32.158766,21.979434 L 37.068811,17.246167 C 37.068811,17.246167 37.088388,32 37.088388,32 L 22.160133,31.978069 C 22.160133,31.978069 26.997745,27.140456 26.997745,27.140456 C 18.528582,18.264221 13.291696,25.230495 11.500037,31.436501 z"
             style="fill:#404040;"/>
          </a>
         </g>
        </svg>
</svg>
