<?xml version="1.0" encoding="UTF-8" standalone="no"?>
<!DOCTYPE svg PUBLIC "-//W3C//DTD SVG 1.1//EN"
 "http://www.w3.org/Graphics/SVG/1.1/DTD/svg11.dtd">
<!-- Generated by graphviz version 2.40.1 (20161225.0304)
 -->
<!-- Title: /Users/kpenev/projects/git/poet/poet_src/Core/OrbitalExpressions.h Pages: 1 -->
<svg width="407pt" height="122pt"
 viewBox="0.00 0.00 407.40 122.00" xmlns="http://www.w3.org/2000/svg" xmlns:xlink="http://www.w3.org/1999/xlink">
<g id="graph0" class="graph" transform="scale(1 1) rotate(0) translate(4 118)">
<title>/Users/kpenev/projects/git/poet/poet_src/Core/OrbitalExpressions.h</title>
<polygon fill="#ffffff" stroke="transparent" points="-4,4 -4,-118 403.3984,-118 403.3984,4 -4,4"/>
<!-- Node0 -->
<g id="node1" class="node">
<title>Node0</title>
<polygon fill="#bfbfbf" stroke="#000000" points="138.6758,-69.5 138.6758,-113.5 276.7266,-113.5 276.7266,-69.5 138.6758,-69.5"/>
<text text-anchor="start" x="146.6758" y="-99.9" font-family="Helvetica,sans-Serif" font-size="12.00" fill="#000000">/Users/kpenev/projects</text>
<text text-anchor="start" x="146.6758" y="-87.9" font-family="Helvetica,sans-Serif" font-size="12.00" fill="#000000">/git/poet/poet_src/Core</text>
<text text-anchor="middle" x="207.7012" y="-75.9" font-family="Helvetica,sans-Serif" font-size="12.00" fill="#000000">/OrbitalExpressions.h</text>
</g>
<!-- Node1 -->
<g id="node2" class="node">
<title>Node1</title>
<g id="a_node2"><a xlink:href="SharedLibraryExportMacros_8h_source.html" target="_top" xlink:title="../Core/SharedLibraryExport\lMacros.h">
<polygon fill="#ffffff" stroke="#000000" points="0,-.5 0,-32.5 165.4023,-32.5 165.4023,-.5 0,-.5"/>
<text text-anchor="start" x="8" y="-18.9" font-family="Helvetica,sans-Serif" font-size="12.00" fill="#000000">../Core/SharedLibraryExport</text>
<text text-anchor="middle" x="82.7012" y="-6.9" font-family="Helvetica,sans-Serif" font-size="12.00" fill="#000000">Macros.h</text>
</a>
</g>
</g>
<!-- Node0&#45;&gt;Node1 -->
<g id="edge1" class="edge">
<title>Node0&#45;&gt;Node1</title>
<path fill="none" stroke="#191970" d="M170.8731,-69.4032C154.3456,-59.4866 134.9191,-47.8308 118.5133,-37.9873"/>
<polygon fill="#191970" stroke="#191970" points="120.123,-34.8715 109.7473,-32.7277 116.5215,-40.8739 120.123,-34.8715"/>
</g>
<!-- Node2 -->
<g id="node3" class="node">
<title>Node2</title>
<polygon fill="#ffffff" stroke="#bfbfbf" points="183.3623,-6.5 183.3623,-26.5 232.04,-26.5 232.04,-6.5 183.3623,-6.5"/>
<text text-anchor="middle" x="207.7012" y="-12.9" font-family="Helvetica,sans-Serif" font-size="12.00" fill="#000000">cmath</text>
</g>
<!-- Node0&#45;&gt;Node2 -->
<g id="edge2" class="edge">
<title>Node0&#45;&gt;Node2</title>
<path fill="none" stroke="#191970" d="M207.7012,-69.4032C207.7012,-59.1059 207.7012,-46.9331 207.7012,-36.8616"/>
<polygon fill="#191970" stroke="#191970" points="211.2013,-36.5953 207.7012,-26.5954 204.2013,-36.5954 211.2013,-36.5953"/>
</g>
<!-- Node3 -->
<g id="node4" class="node">
<title>Node3</title>
<g id="a_node4"><a xlink:href="AstronomicalConstants_8h.html" target="_top" xlink:title="Defines various astronomical constants. ">
<polygon fill="#ffffff" stroke="#000000" points="250.0039,-6.5 250.0039,-26.5 399.3984,-26.5 399.3984,-6.5 250.0039,-6.5"/>
<text text-anchor="middle" x="324.7012" y="-12.9" font-family="Helvetica,sans-Serif" font-size="12.00" fill="#000000">AstronomicalConstants.h</text>
</a>
</g>
</g>
<!-- Node0&#45;&gt;Node3 -->
<g id="edge3" class="edge">
<title>Node0&#45;&gt;Node3</title>
<path fill="none" stroke="#191970" d="M242.1722,-69.4032C260.827,-57.445 283.4274,-42.9576 300.2576,-32.1689"/>
<polygon fill="#191970" stroke="#191970" points="302.4225,-34.9386 308.9524,-26.5954 298.6448,-29.0455 302.4225,-34.9386"/>
</g>
</g>
</svg>
