<?xml version="1.0" encoding="UTF-8" standalone="no"?>
<!DOCTYPE svg PUBLIC "-//W3C//DTD SVG 1.1//EN"
 "http://www.w3.org/Graphics/SVG/1.1/DTD/svg11.dtd">
<!-- Generated by graphviz version 2.40.1 (20161225.0304)
 -->
<!-- Title: /Users/kpenev/projects/git/poet/poet_src/Planet/PlanetZone.h Pages: 1 -->
<svg width="2975pt" height="602pt"
 viewBox="0.00 0.00 2975.00 602.00" xmlns="http://www.w3.org/2000/svg" xmlns:xlink="http://www.w3.org/1999/xlink">
<g id="graph0" class="graph" transform="scale(1 1) rotate(0) translate(4 598)">
<title>/Users/kpenev/projects/git/poet/poet_src/Planet/PlanetZone.h</title>
<polygon fill="#ffffff" stroke="transparent" points="-4,4 -4,-598 2971,-598 2971,4 -4,4"/>
<!-- Node0 -->
<g id="node1" class="node">
<title>Node0</title>
<polygon fill="#bfbfbf" stroke="#000000" points="2818.292,-549.5 2818.292,-593.5 2963.708,-593.5 2963.708,-549.5 2818.292,-549.5"/>
<text text-anchor="start" x="2826.292" y="-579.9" font-family="Helvetica,sans-Serif" font-size="12.00" fill="#000000">/Users/kpenev/projects</text>
<text text-anchor="start" x="2826.292" y="-567.9" font-family="Helvetica,sans-Serif" font-size="12.00" fill="#000000">/git/poet/poet_src/Planet</text>
<text text-anchor="middle" x="2891" y="-555.9" font-family="Helvetica,sans-Serif" font-size="12.00" fill="#000000">/PlanetZone.h</text>
</g>
<!-- Node1 -->
<g id="node2" class="node">
<title>Node1</title>
<g id="a_node2"><a xlink:href="SharedLibraryExportMacros_8h_source.html" target="_top" xlink:title="../Core/SharedLibraryExport\lMacros.h">
<polygon fill="#ffffff" stroke="#000000" points="1074.2988,-.5 1074.2988,-32.5 1239.7012,-32.5 1239.7012,-.5 1074.2988,-.5"/>
<text text-anchor="start" x="1082.2988" y="-18.9" font-family="Helvetica,sans-Serif" font-size="12.00" fill="#000000">../Core/SharedLibraryExport</text>
<text text-anchor="middle" x="1157" y="-6.9" font-family="Helvetica,sans-Serif" font-size="12.00" fill="#000000">Macros.h</text>
</a>
</g>
</g>
<!-- Node0&#45;&gt;Node1 -->
<g id="edge1" class="edge">
<title>Node0&#45;&gt;Node1</title>
<path fill="none" stroke="#191970" d="M2911.3666,-549.4632C2933.8787,-522.727 2967,-475.2733 2967,-427.5 2967,-427.5 2967,-427.5 2967,-136.5 2967,-92.6366 2935.5417,-85.7443 2895,-69 2818.5674,-37.4323 1599.3241,-21.4383 1249.9109,-17.4879"/>
<polygon fill="#191970" stroke="#191970" points="1249.8677,-13.9873 1239.829,-17.3746 1249.7889,-20.9869 1249.8677,-13.9873"/>
</g>
<!-- Node2 -->
<g id="node3" class="node">
<title>Node2</title>
<g id="a_node3"><a xlink:href="DissipatingZone_8h.html" target="_top" xlink:title="Declares a class representing one zone of a body dissipative to tidal distortions. ">
<polygon fill="#ffffff" stroke="#000000" points="1435.2969,-297.5 1435.2969,-317.5 1596.7031,-317.5 1596.7031,-297.5 1435.2969,-297.5"/>
<text text-anchor="middle" x="1516" y="-303.9" font-family="Helvetica,sans-Serif" font-size="12.00" fill="#000000">../Evolve/DissipatingZone.h</text>
</a>
</g>
</g>
<!-- Node0&#45;&gt;Node2 -->
<g id="edge2" class="edge">
<title>Node0&#45;&gt;Node2</title>
<path fill="none" stroke="#191970" d="M2818.0448,-557.4926C2576.2236,-511.0629 1803.5684,-362.7131 1578.2363,-319.4494"/>
<polygon fill="#191970" stroke="#191970" points="1578.7191,-315.9782 1568.2385,-317.5298 1577.3991,-322.8526 1578.7191,-315.9782"/>
</g>
<!-- Node22 -->
<g id="node23" class="node">
<title>Node22</title>
<g id="a_node23"><a xlink:href="AstronomicalConstants_8h.html" target="_top" xlink:title="Defines various astronomical constants. ">
<polygon fill="#ffffff" stroke="#000000" points="2713.3027,-69.5 2713.3027,-89.5 2862.6973,-89.5 2862.6973,-69.5 2713.3027,-69.5"/>
<text text-anchor="middle" x="2788" y="-75.9" font-family="Helvetica,sans-Serif" font-size="12.00" fill="#000000">AstronomicalConstants.h</text>
</a>
</g>
</g>
<!-- Node0&#45;&gt;Node22 -->
<g id="edge68" class="edge">
<title>Node0&#45;&gt;Node22</title>
<path fill="none" stroke="#191970" d="M2900.7859,-549.0393C2912.0451,-521.1107 2929,-471.7134 2929,-427.5 2929,-427.5 2929,-427.5 2929,-193.5 2929,-141.9544 2871.3133,-109.7086 2829.7361,-93.1618"/>
<polygon fill="#191970" stroke="#191970" points="2830.939,-89.8747 2820.3482,-89.5792 2828.4431,-96.4147 2830.939,-89.8747"/>
</g>
<!-- Node37 -->
<g id="node38" class="node">
<title>Node37</title>
<g id="a_node38"><a xlink:href="BrokenPowerlawPhaseLagZone_8h.html" target="_top" xlink:title="Declares the class that provides the phase lag function to DissipatingZone objects. ">
<polygon fill="#ffffff" stroke="#000000" points="1134.3027,-480.5 1134.3027,-512.5 1289.6973,-512.5 1289.6973,-480.5 1134.3027,-480.5"/>
<text text-anchor="start" x="1142.3027" y="-498.9" font-family="Helvetica,sans-Serif" font-size="12.00" fill="#000000">../Evolve/BrokenPowerlaw</text>
<text text-anchor="middle" x="1212" y="-486.9" font-family="Helvetica,sans-Serif" font-size="12.00" fill="#000000">PhaseLagZone.h</text>
</a>
</g>
</g>
<!-- Node0&#45;&gt;Node37 -->
<g id="edge69" class="edge">
<title>Node0&#45;&gt;Node37</title>
<path fill="none" stroke="#191970" d="M2818.0464,-568.2412C2546.6121,-556.1164 1595.5868,-513.6346 1300.2058,-500.4401"/>
<polygon fill="#191970" stroke="#191970" points="1300.1232,-496.933 1289.9769,-499.9832 1299.8107,-503.926 1300.1232,-496.933"/>
</g>
<!-- Node2&#45;&gt;Node1 -->
<g id="edge32" class="edge">
<title>Node2&#45;&gt;Node1</title>
<path fill="none" stroke="#191970" d="M1597.0838,-302.4722C1867.5083,-284.2697 2713.7316,-215.0461 2573,-69 2550.0037,-45.1353 1561.8424,-24.2382 1250.1556,-18.2304"/>
<polygon fill="#191970" stroke="#191970" points="1249.8648,-14.7243 1239.7994,-18.0315 1249.7303,-21.723 1249.8648,-14.7243"/>
</g>
<!-- Node3 -->
<g id="node4" class="node">
<title>Node3</title>
<g id="a_node4"><a xlink:href="ZoneOrientation_8h.html" target="_top" xlink:title="Declares a class for orientations of zones of DissipatingBody objects. ">
<polygon fill="#ffffff" stroke="#000000" points="1981.9707,-183.5 1981.9707,-203.5 2094.0293,-203.5 2094.0293,-183.5 1981.9707,-183.5"/>
<text text-anchor="middle" x="2038" y="-189.9" font-family="Helvetica,sans-Serif" font-size="12.00" fill="#000000">ZoneOrientation.h</text>
</a>
</g>
</g>
<!-- Node2&#45;&gt;Node3 -->
<g id="edge3" class="edge">
<title>Node2&#45;&gt;Node3</title>
<path fill="none" stroke="#191970" d="M1564.5332,-297.4104C1609.1339,-288.0984 1677.0629,-273.8146 1736,-261 1822.7226,-242.144 1923.2746,-219.5164 1983.6972,-205.8363"/>
<polygon fill="#191970" stroke="#191970" points="1984.7909,-209.1773 1993.7705,-203.5543 1983.2443,-202.3503 1984.7909,-209.1773"/>
</g>
<!-- Node4 -->
<g id="node5" class="node">
<title>Node4</title>
<g id="a_node5"><a xlink:href="DissipationQuantities_8h.html" target="_top" xlink:title="Declaration of enumerations of dissipation quantities and derivatives. ">
<polygon fill="#ffffff" stroke="#000000" points="1968.6348,-126.5 1968.6348,-146.5 2107.3652,-146.5 2107.3652,-126.5 1968.6348,-126.5"/>
<text text-anchor="middle" x="2038" y="-132.9" font-family="Helvetica,sans-Serif" font-size="12.00" fill="#000000">DissipationQuantities.h</text>
</a>
</g>
</g>
<!-- Node2&#45;&gt;Node4 -->
<g id="edge49" class="edge">
<title>Node2&#45;&gt;Node4</title>
<path fill="none" stroke="#191970" d="M1577.4062,-297.4246C1614.7014,-290.0482 1662.7245,-278.2768 1703,-261 1718.9766,-254.1466 1720.3344,-247.5374 1736,-240 1821.8678,-198.6852 1928.6132,-166.1813 1989.4636,-149.2883"/>
<polygon fill="#191970" stroke="#191970" points="1990.4745,-152.6403 1999.188,-146.6133 1988.6178,-145.891 1990.4745,-152.6403"/>
</g>
<!-- Node7 -->
<g id="node8" class="node">
<title>Node7</title>
<g id="a_node8"><a xlink:href="Core_2Common_8h.html" target="_top" xlink:title="Declaration of some general purpose utilities. ">
<polygon fill="#ffffff" stroke="#000000" points="1592.9834,-126.5 1592.9834,-146.5 1707.0166,-146.5 1707.0166,-126.5 1592.9834,-126.5"/>
<text text-anchor="middle" x="1650" y="-132.9" font-family="Helvetica,sans-Serif" font-size="12.00" fill="#000000">../Core/Common.h</text>
</a>
</g>
</g>
<!-- Node2&#45;&gt;Node7 -->
<g id="edge66" class="edge">
<title>Node2&#45;&gt;Node7</title>
<path fill="none" stroke="#191970" d="M1516.9681,-297.0962C1518.6837,-283.1079 1523.2627,-257.9257 1535,-240 1548.8411,-218.8613 1560.0531,-220.7163 1579,-204 1597.724,-187.4804 1618.3231,-167.7085 1632.4884,-153.8476"/>
<polygon fill="#191970" stroke="#191970" points="1634.9661,-156.32 1639.6434,-146.8135 1630.0586,-151.3283 1634.9661,-156.32"/>
</g>
<!-- Node9 -->
<g id="node10" class="node">
<title>Node9</title>
<polygon fill="#ffffff" stroke="#bfbfbf" points="2484.6602,-69.5 2484.6602,-89.5 2543.3398,-89.5 2543.3398,-69.5 2484.6602,-69.5"/>
<text text-anchor="middle" x="2514" y="-75.9" font-family="Helvetica,sans-Serif" font-size="12.00" fill="#000000">valarray</text>
</g>
<!-- Node2&#45;&gt;Node9 -->
<g id="edge67" class="edge">
<title>Node2&#45;&gt;Node9</title>
<path fill="none" stroke="#191970" d="M1578.3351,-297.4961C1635.1162,-288.3008 1721.2604,-274.1432 1796,-261 1932.679,-236.9646 1968.1636,-236.8332 2103,-204 2241.7165,-170.222 2402.876,-117.3153 2475.2863,-92.7971"/>
<polygon fill="#191970" stroke="#191970" points="2476.56,-96.0609 2484.9032,-89.5308 2474.3088,-89.4328 2476.56,-96.0609"/>
</g>
<!-- Node19 -->
<g id="node20" class="node">
<title>Node19</title>
<g id="a_node20"><a xlink:href="Error_8h.html" target="_top" xlink:title="Defines the exception hierarchy used by this code. ">
<polygon fill="#ffffff" stroke="#000000" points="332.9912,-69.5 332.9912,-89.5 385.0088,-89.5 385.0088,-69.5 332.9912,-69.5"/>
<text text-anchor="middle" x="359" y="-75.9" font-family="Helvetica,sans-Serif" font-size="12.00" fill="#000000">Error.h</text>
</a>
</g>
</g>
<!-- Node2&#45;&gt;Node19 -->
<g id="edge33" class="edge">
<title>Node2&#45;&gt;Node19</title>
<path fill="none" stroke="#191970" d="M1435.0918,-305.7745C1231.1011,-301.0653 706.6886,-286.6038 632,-261 532.6324,-226.936 526.4381,-182.6831 438,-126 421.0232,-115.119 401.4994,-103.6181 386.1084,-94.7763"/>
<polygon fill="#191970" stroke="#191970" points="387.5388,-91.5628 377.1191,-89.6441 384.068,-97.6418 387.5388,-91.5628"/>
</g>
<!-- Node25 -->
<g id="node26" class="node">
<title>Node25</title>
<g id="a_node26"><a xlink:href="TidalPotentialTerms_8h.html" target="_top" xlink:title="Declare an interface for evaluating the expansion of the tidal potential. ">
<polygon fill="#ffffff" stroke="#000000" points="1439.5283,-183.5 1439.5283,-203.5 1570.4717,-203.5 1570.4717,-183.5 1439.5283,-183.5"/>
<text text-anchor="middle" x="1505" y="-189.9" font-family="Helvetica,sans-Serif" font-size="12.00" fill="#000000">TidalPotentialTerms.h</text>
</a>
</g>
</g>
<!-- Node2&#45;&gt;Node25 -->
<g id="edge34" class="edge">
<title>Node2&#45;&gt;Node25</title>
<path fill="none" stroke="#191970" d="M1512.0044,-297.3541C1508.5737,-288.0632 1503.8917,-273.845 1502,-261 1499.6767,-245.2243 1500.6666,-227.1698 1502.1063,-213.7048"/>
<polygon fill="#191970" stroke="#191970" points="1505.5989,-213.9797 1503.3584,-203.6245 1498.6523,-213.1167 1505.5989,-213.9797"/>
</g>
<!-- Node32 -->
<g id="node33" class="node">
<title>Node32</title>
<g id="a_node33"><a xlink:href="SpinOrbitLockInfo_8h.html" target="_top" xlink:title="Defines the SpinOrbitLockInfo class. ">
<polygon fill="#ffffff" stroke="#000000" points="441.3037,-69.5 441.3037,-89.5 562.6963,-89.5 562.6963,-69.5 441.3037,-69.5"/>
<text text-anchor="middle" x="502" y="-75.9" font-family="Helvetica,sans-Serif" font-size="12.00" fill="#000000">SpinOrbitLockInfo.h</text>
</a>
</g>
</g>
<!-- Node2&#45;&gt;Node32 -->
<g id="edge50" class="edge">
<title>Node2&#45;&gt;Node32</title>
<path fill="none" stroke="#191970" d="M1435.0629,-306.4741C1236.9763,-303.4781 738.982,-292.8395 671,-261 594.438,-225.142 535.8982,-137.5098 512.7775,-98.6244"/>
<polygon fill="#191970" stroke="#191970" points="515.7268,-96.7337 507.673,-89.8498 509.6761,-100.2535 515.7268,-96.7337"/>
</g>
<!-- Node33 -->
<g id="node34" class="node">
<title>Node33</title>
<g id="a_node34"><a xlink:href="CombinedStoppingCondition_8h.html" target="_top" xlink:title="Declares a class for a stopping condition that combines other stopping conditions. ">
<polygon fill="#ffffff" stroke="#000000" points="939.6104,-240.5 939.6104,-260.5 1118.3896,-260.5 1118.3896,-240.5 939.6104,-240.5"/>
<text text-anchor="middle" x="1029" y="-246.9" font-family="Helvetica,sans-Serif" font-size="12.00" fill="#000000">CombinedStoppingCondition.h</text>
</a>
</g>
</g>
<!-- Node2&#45;&gt;Node33 -->
<g id="edge53" class="edge">
<title>Node2&#45;&gt;Node33</title>
<path fill="none" stroke="#191970" d="M1435.0352,-298.0236C1349.657,-288.0307 1215.2155,-272.2952 1124.6629,-261.6967"/>
<polygon fill="#191970" stroke="#191970" points="1125.0083,-258.2133 1114.6692,-260.527 1124.1945,-265.1658 1125.0083,-258.2133"/>
</g>
<!-- Node35 -->
<g id="node36" class="node">
<title>Node35</title>
<g id="a_node36"><a xlink:href="BreakLockCondition_8h.html" target="_top" xlink:title="Declares a class for a stopping condition monitoring when a locked zone loses the lock...">
<polygon fill="#ffffff" stroke="#000000" points="1212.2979,-240.5 1212.2979,-260.5 1345.7021,-260.5 1345.7021,-240.5 1212.2979,-240.5"/>
<text text-anchor="middle" x="1279" y="-246.9" font-family="Helvetica,sans-Serif" font-size="12.00" fill="#000000">BreakLockCondition.h</text>
</a>
</g>
</g>
<!-- Node2&#45;&gt;Node35 -->
<g id="edge60" class="edge">
<title>Node2&#45;&gt;Node35</title>
<path fill="none" stroke="#191970" d="M1474.1747,-297.4408C1434.1919,-287.8246 1373.8001,-273.3 1330.7937,-262.9567"/>
<polygon fill="#191970" stroke="#191970" points="1331.3463,-259.4899 1320.8051,-260.5544 1329.7094,-266.2958 1331.3463,-259.4899"/>
</g>
<!-- Node36 -->
<g id="node37" class="node">
<title>Node36</title>
<g id="a_node37"><a xlink:href="SynchronizedCondition_8h.html" target="_top" xlink:title="Declares a stopping condition monitoring spin&#45;orbit synchronization. ">
<polygon fill="#ffffff" stroke="#000000" points="1544.291,-240.5 1544.291,-260.5 1693.709,-260.5 1693.709,-240.5 1544.291,-240.5"/>
<text text-anchor="middle" x="1619" y="-246.9" font-family="Helvetica,sans-Serif" font-size="12.00" fill="#000000">SynchronizedCondition.h</text>
</a>
</g>
</g>
<!-- Node2&#45;&gt;Node36 -->
<g id="edge63" class="edge">
<title>Node2&#45;&gt;Node36</title>
<path fill="none" stroke="#191970" d="M1534.4143,-297.3095C1550.3794,-288.4745 1573.7009,-275.5684 1591.8143,-265.5445"/>
<polygon fill="#191970" stroke="#191970" points="1593.6902,-268.5066 1600.7451,-260.6022 1590.3008,-262.3819 1593.6902,-268.5066"/>
</g>
<!-- Node3&#45;&gt;Node1 -->
<g id="edge4" class="edge">
<title>Node3&#45;&gt;Node1</title>
<path fill="none" stroke="#191970" d="M2094.1618,-188.361C2196.4761,-177.0295 2396.3178,-144.6443 2324,-69 2287.0728,-30.3742 1519.752,-19.763 1249.8809,-17.2198"/>
<polygon fill="#191970" stroke="#191970" points="1249.7518,-13.7186 1239.7198,-17.1257 1249.6869,-20.7183 1249.7518,-13.7186"/>
</g>
<!-- Node3&#45;&gt;Node4 -->
<g id="edge5" class="edge">
<title>Node3&#45;&gt;Node4</title>
<path fill="none" stroke="#191970" d="M2038,-183.3095C2038,-175.9335 2038,-165.72 2038,-156.715"/>
<polygon fill="#191970" stroke="#191970" points="2041.5001,-156.6022 2038,-146.6022 2034.5001,-156.6023 2041.5001,-156.6022"/>
</g>
<!-- Node3&#45;&gt;Node7 -->
<g id="edge9" class="edge">
<title>Node3&#45;&gt;Node7</title>
<path fill="none" stroke="#191970" d="M1981.5815,-185.2117C1911.5246,-174.9199 1792.1514,-157.3831 1717.3657,-146.3965"/>
<polygon fill="#191970" stroke="#191970" points="1717.5213,-142.8819 1707.1188,-144.8912 1716.5038,-149.8075 1717.5213,-142.8819"/>
</g>
<!-- Node23 -->
<g id="node24" class="node">
<title>Node23</title>
<g id="a_node24"><a xlink:href="IncludeEigen_8h_source.html" target="_top" xlink:title="IncludeEigen.h">
<polygon fill="#ffffff" stroke="#000000" points="2371.3027,-69.5 2371.3027,-89.5 2466.6973,-89.5 2466.6973,-69.5 2371.3027,-69.5"/>
<text text-anchor="middle" x="2419" y="-75.9" font-family="Helvetica,sans-Serif" font-size="12.00" fill="#000000">IncludeEigen.h</text>
</a>
</g>
</g>
<!-- Node3&#45;&gt;Node23 -->
<g id="edge31" class="edge">
<title>Node3&#45;&gt;Node23</title>
<path fill="none" stroke="#191970" d="M2094.2069,-189.8382C2173.2386,-183.929 2312.5308,-170.5082 2357,-147 2378.5196,-135.6239 2396.4597,-113.7405 2407.4139,-97.9697"/>
<polygon fill="#191970" stroke="#191970" points="2410.4118,-99.7822 2413.0306,-89.5161 2404.5814,-95.9083 2410.4118,-99.7822"/>
</g>
<!-- Node4&#45;&gt;Node1 -->
<g id="edge6" class="edge">
<title>Node4&#45;&gt;Node1</title>
<path fill="none" stroke="#191970" d="M2107.4257,-130.5639C2168.5605,-122.8151 2242.8552,-105.6398 2208,-69 2175.2428,-34.5656 1501.1523,-21.4215 1250.1214,-17.7091"/>
<polygon fill="#191970" stroke="#191970" points="1249.9793,-14.2067 1239.9291,-17.5601 1249.8769,-21.206 1249.9793,-14.2067"/>
</g>
<!-- Node5 -->
<g id="node6" class="node">
<title>Node5</title>
<polygon fill="#ffffff" stroke="#bfbfbf" points="2255.3262,-69.5 2255.3262,-89.5 2314.6738,-89.5 2314.6738,-69.5 2255.3262,-69.5"/>
<text text-anchor="middle" x="2285" y="-75.9" font-family="Helvetica,sans-Serif" font-size="12.00" fill="#000000">ostream</text>
</g>
<!-- Node4&#45;&gt;Node5 -->
<g id="edge7" class="edge">
<title>Node4&#45;&gt;Node5</title>
<path fill="none" stroke="#191970" d="M2082.3791,-126.4562C2123.5231,-117.1156 2186.4306,-102.7608 2241,-90 2242.4338,-89.6647 2243.8937,-89.3222 2245.368,-88.9753"/>
<polygon fill="#191970" stroke="#191970" points="2246.2607,-92.3609 2255.1867,-86.6532 2244.6495,-85.5488 2246.2607,-92.3609"/>
</g>
<!-- Node6 -->
<g id="node7" class="node">
<title>Node6</title>
<polygon fill="#ffffff" stroke="#bfbfbf" points="1389.6611,-69.5 1389.6611,-89.5 1444.3389,-89.5 1444.3389,-69.5 1389.6611,-69.5"/>
<text text-anchor="middle" x="1417" y="-75.9" font-family="Helvetica,sans-Serif" font-size="12.00" fill="#000000">cassert</text>
</g>
<!-- Node4&#45;&gt;Node6 -->
<g id="edge8" class="edge">
<title>Node4&#45;&gt;Node6</title>
<path fill="none" stroke="#191970" d="M1968.4258,-130.1967C1870.4035,-121.3041 1686.0571,-104.5361 1529,-90 1504.2664,-87.7108 1476.4637,-85.1045 1454.7467,-83.0612"/>
<polygon fill="#191970" stroke="#191970" points="1454.8987,-79.5602 1444.6146,-82.1073 1454.2425,-86.5293 1454.8987,-79.5602"/>
</g>
<!-- Node7&#45;&gt;Node1 -->
<g id="edge22" class="edge">
<title>Node7&#45;&gt;Node1</title>
<path fill="none" stroke="#191970" d="M1621.8451,-126.4728C1597.1405,-117.487 1560.364,-103.6541 1529,-90 1509.4994,-81.5105 1506.2787,-75.4125 1486,-69 1408.4959,-44.4916 1316.9371,-31.0701 1250.1118,-23.9489"/>
<polygon fill="#191970" stroke="#191970" points="1250.3292,-20.4527 1240.0212,-22.9013 1249.6063,-27.4153 1250.3292,-20.4527"/>
</g>
<!-- Node7&#45;&gt;Node6 -->
<g id="edge21" class="edge">
<title>Node7&#45;&gt;Node6</title>
<path fill="none" stroke="#191970" d="M1608.0122,-126.4983C1569.0884,-117.1869 1509.5836,-102.8511 1458,-90 1456.9305,-89.7336 1455.8456,-89.4623 1454.7508,-89.1877"/>
<polygon fill="#191970" stroke="#191970" points="1455.3291,-85.7238 1444.7762,-86.6658 1453.6132,-92.5103 1455.3291,-85.7238"/>
</g>
<!-- Node8 -->
<g id="node9" class="node">
<title>Node8</title>
<polygon fill="#ffffff" stroke="#bfbfbf" points="1980.667,-69.5 1980.667,-89.5 2011.333,-89.5 2011.333,-69.5 1980.667,-69.5"/>
<text text-anchor="middle" x="1996" y="-75.9" font-family="Helvetica,sans-Serif" font-size="12.00" fill="#000000">list</text>
</g>
<!-- Node7&#45;&gt;Node8 -->
<g id="edge10" class="edge">
<title>Node7&#45;&gt;Node8</title>
<path fill="none" stroke="#191970" d="M1707.0978,-132.9074C1770.0675,-127.9175 1874.2261,-116.6229 1970.576,-89.8277"/>
<polygon fill="#191970" stroke="#191970" points="1971.8129,-93.1148 1980.4734,-87.0118 1969.8973,-86.382 1971.8129,-93.1148"/>
</g>
<!-- Node7&#45;&gt;Node9 -->
<g id="edge11" class="edge">
<title>Node7&#45;&gt;Node9</title>
<path fill="none" stroke="#191970" d="M1707.1625,-134.8701C1865.5685,-130.1062 2308.8527,-115.0378 2474.2451,-89.9516"/>
<polygon fill="#191970" stroke="#191970" points="2474.9348,-93.386 2484.263,-88.3627 2473.8382,-86.4724 2474.9348,-93.386"/>
</g>
<!-- Node10 -->
<g id="node11" class="node">
<title>Node10</title>
<polygon fill="#ffffff" stroke="#bfbfbf" points="1328.3359,-69.5 1328.3359,-89.5 1371.6641,-89.5 1371.6641,-69.5 1328.3359,-69.5"/>
<text text-anchor="middle" x="1350" y="-75.9" font-family="Helvetica,sans-Serif" font-size="12.00" fill="#000000">limits</text>
</g>
<!-- Node7&#45;&gt;Node10 -->
<g id="edge12" class="edge">
<title>Node7&#45;&gt;Node10</title>
<path fill="none" stroke="#191970" d="M1592.7821,-129.2391C1540.2008,-121.9755 1460.0248,-109.4123 1381.8997,-89.9226"/>
<polygon fill="#191970" stroke="#191970" points="1382.4427,-86.4496 1371.8891,-87.3838 1380.7218,-93.2348 1382.4427,-86.4496"/>
</g>
<!-- Node11 -->
<g id="node12" class="node">
<title>Node11</title>
<polygon fill="#ffffff" stroke="#bfbfbf" points="1251.6631,-69.5 1251.6631,-89.5 1310.3369,-89.5 1310.3369,-69.5 1251.6631,-69.5"/>
<text text-anchor="middle" x="1281" y="-75.9" font-family="Helvetica,sans-Serif" font-size="12.00" fill="#000000">sstream</text>
</g>
<!-- Node7&#45;&gt;Node11 -->
<g id="edge13" class="edge">
<title>Node7&#45;&gt;Node11</title>
<path fill="none" stroke="#191970" d="M1592.799,-130.7504C1528.6419,-123.7915 1421.365,-110.63 1320.4271,-90.0964"/>
<polygon fill="#191970" stroke="#191970" points="1320.8674,-86.6136 1310.3664,-88.0206 1319.4528,-93.4692 1320.8674,-86.6136"/>
</g>
<!-- Node12 -->
<g id="node13" class="node">
<title>Node12</title>
<polygon fill="#ffffff" stroke="#bfbfbf" points="470.9932,-6.5 470.9932,-26.5 533.0068,-26.5 533.0068,-6.5 470.9932,-6.5"/>
<text text-anchor="middle" x="502" y="-12.9" font-family="Helvetica,sans-Serif" font-size="12.00" fill="#000000">iostream</text>
</g>
<!-- Node7&#45;&gt;Node12 -->
<g id="edge14" class="edge">
<title>Node7&#45;&gt;Node12</title>
<path fill="none" stroke="#191970" d="M1609.5082,-126.4555C1568.4779,-116.0215 1508.0085,-99.8682 1486,-90 1470.1371,-82.8874 1469.5509,-74.3188 1453,-69 1365.6373,-40.9248 714.7589,-22.0649 543.2975,-17.5477"/>
<polygon fill="#191970" stroke="#191970" points="543.2559,-14.0456 533.1678,-17.2829 543.0729,-21.0432 543.2559,-14.0456"/>
</g>
<!-- Node13 -->
<g id="node14" class="node">
<title>Node13</title>
<polygon fill="#ffffff" stroke="#bfbfbf" points="2029.3262,-69.5 2029.3262,-89.5 2082.6738,-89.5 2082.6738,-69.5 2029.3262,-69.5"/>
<text text-anchor="middle" x="2056" y="-75.9" font-family="Helvetica,sans-Serif" font-size="12.00" fill="#000000">iterator</text>
</g>
<!-- Node7&#45;&gt;Node13 -->
<g id="edge15" class="edge">
<title>Node7&#45;&gt;Node13</title>
<path fill="none" stroke="#191970" d="M1707.1926,-132.1483C1778.2203,-126.1154 1903.1589,-113.4463 2018.8946,-89.9589"/>
<polygon fill="#191970" stroke="#191970" points="2019.902,-93.3249 2028.9892,-87.8776 2018.4884,-86.4691 2019.902,-93.3249"/>
</g>
<!-- Node14 -->
<g id="node15" class="node">
<title>Node14</title>
<polygon fill="#ffffff" stroke="#bfbfbf" points="2100.6416,-69.5 2100.6416,-89.5 2199.3584,-89.5 2199.3584,-69.5 2100.6416,-69.5"/>
<text text-anchor="middle" x="2150" y="-75.9" font-family="Helvetica,sans-Serif" font-size="12.00" fill="#000000">gsl/gsl_vector.h</text>
</g>
<!-- Node7&#45;&gt;Node14 -->
<g id="edge16" class="edge">
<title>Node7&#45;&gt;Node14</title>
<path fill="none" stroke="#191970" d="M1707.0324,-131.8639C1789.418,-124.8656 1946.7249,-110.3769 2090.0698,-90.1985"/>
<polygon fill="#191970" stroke="#191970" points="2090.957,-93.6077 2100.3653,-88.7359 2089.9724,-86.6773 2090.957,-93.6077"/>
</g>
<!-- Node15 -->
<g id="node16" class="node">
<title>Node15</title>
<polygon fill="#ffffff" stroke="#bfbfbf" points="1538.3193,-69.5 1538.3193,-89.5 1637.6807,-89.5 1637.6807,-69.5 1538.3193,-69.5"/>
<text text-anchor="middle" x="1588" y="-75.9" font-family="Helvetica,sans-Serif" font-size="12.00" fill="#000000">gsl/gsl_matrix.h</text>
</g>
<!-- Node7&#45;&gt;Node15 -->
<g id="edge17" class="edge">
<title>Node7&#45;&gt;Node15</title>
<path fill="none" stroke="#191970" d="M1638.9156,-126.3095C1629.9228,-118.0419 1617.0522,-106.2093 1606.5016,-96.5096"/>
<polygon fill="#191970" stroke="#191970" points="1608.7189,-93.7937 1598.9884,-89.6022 1603.9813,-98.9469 1608.7189,-93.7937"/>
</g>
<!-- Node16 -->
<g id="node17" class="node">
<title>Node16</title>
<polygon fill="#ffffff" stroke="#bfbfbf" points="1655.6426,-69.5 1655.6426,-89.5 1750.3574,-89.5 1750.3574,-69.5 1655.6426,-69.5"/>
<text text-anchor="middle" x="1703" y="-75.9" font-family="Helvetica,sans-Serif" font-size="12.00" fill="#000000">gsl/gsl_linalg.h</text>
</g>
<!-- Node7&#45;&gt;Node16 -->
<g id="edge18" class="edge">
<title>Node7&#45;&gt;Node16</title>
<path fill="none" stroke="#191970" d="M1659.4753,-126.3095C1667.0121,-118.204 1677.7349,-106.672 1686.6513,-97.0826"/>
<polygon fill="#191970" stroke="#191970" points="1689.3604,-99.3089 1693.6067,-89.6022 1684.234,-94.5423 1689.3604,-99.3089"/>
</g>
<!-- Node17 -->
<g id="node18" class="node">
<title>Node17</title>
<polygon fill="#ffffff" stroke="#bfbfbf" points="1768.6455,-69.5 1768.6455,-89.5 1857.3545,-89.5 1857.3545,-69.5 1768.6455,-69.5"/>
<text text-anchor="middle" x="1813" y="-75.9" font-family="Helvetica,sans-Serif" font-size="12.00" fill="#000000">gsl/gsl_blas.h</text>
</g>
<!-- Node7&#45;&gt;Node17 -->
<g id="edge19" class="edge">
<title>Node7&#45;&gt;Node17</title>
<path fill="none" stroke="#191970" d="M1678.7659,-126.4408C1705.4524,-117.1087 1745.3586,-103.1537 1774.7267,-92.8839"/>
<polygon fill="#191970" stroke="#191970" points="1775.9638,-96.1592 1784.248,-89.5544 1773.6531,-89.5516 1775.9638,-96.1592"/>
</g>
<!-- Node18 -->
<g id="node19" class="node">
<title>Node18</title>
<polygon fill="#ffffff" stroke="#bfbfbf" points="1875.0879,-69.5 1875.0879,-89.5 1962.9121,-89.5 1962.9121,-69.5 1875.0879,-69.5"/>
<text text-anchor="middle" x="1919" y="-75.9" font-family="Helvetica,sans-Serif" font-size="12.00" fill="#000000">gsl/gsl_poly.h</text>
</g>
<!-- Node7&#45;&gt;Node18 -->
<g id="edge20" class="edge">
<title>Node7&#45;&gt;Node18</title>
<path fill="none" stroke="#191970" d="M1697.4726,-126.4408C1744.3204,-116.5139 1815.8541,-101.3562 1864.8818,-90.9674"/>
<polygon fill="#191970" stroke="#191970" points="1865.6218,-94.3884 1874.679,-88.8914 1864.1707,-87.5405 1865.6218,-94.3884"/>
</g>
<!-- Node7&#45;&gt;Node19 -->
<g id="edge23" class="edge">
<title>Node7&#45;&gt;Node19</title>
<path fill="none" stroke="#191970" d="M1592.6404,-135.1085C1383.4395,-129.909 661.7134,-110.8477 432,-90 419.9676,-88.908 406.8876,-87.1945 395.1669,-85.466"/>
<polygon fill="#191970" stroke="#191970" points="395.6906,-82.0054 385.2773,-83.9584 394.6356,-88.9255 395.6906,-82.0054"/>
</g>
<!-- Node7&#45;&gt;Node22 -->
<g id="edge28" class="edge">
<title>Node7&#45;&gt;Node22</title>
<path fill="none" stroke="#191970" d="M1707.2135,-133.6343C1893.224,-124.3174 2481.5762,-94.8481 2702.7975,-83.7676"/>
<polygon fill="#191970" stroke="#191970" points="2703.2389,-87.25 2713.0513,-83.254 2702.8887,-80.2587 2703.2389,-87.25"/>
</g>
<!-- Node7&#45;&gt;Node23 -->
<g id="edge29" class="edge">
<title>Node7&#45;&gt;Node23</title>
<path fill="none" stroke="#191970" d="M1707.3172,-133.3444C1823.6747,-126.7621 2095.9035,-110.4649 2324,-90 2336.008,-88.9226 2348.8522,-87.611 2361.0907,-86.2849"/>
<polygon fill="#191970" stroke="#191970" points="2361.6399,-89.7457 2371.1969,-85.1724 2360.8739,-82.7877 2361.6399,-89.7457"/>
</g>
<!-- Node19&#45;&gt;Node1 -->
<g id="edge24" class="edge">
<title>Node19&#45;&gt;Node1</title>
<path fill="none" stroke="#191970" d="M385.0986,-71.8984C389.6988,-70.7743 394.4658,-69.7454 399,-69 524.4695,-48.3745 890.8328,-29.0406 1064.1178,-20.7498"/>
<polygon fill="#191970" stroke="#191970" points="1064.4181,-24.2396 1074.2402,-20.2676 1064.0849,-17.2475 1064.4181,-24.2396"/>
</g>
<!-- Node19&#45;&gt;Node12 -->
<g id="edge25" class="edge">
<title>Node19&#45;&gt;Node12</title>
<path fill="none" stroke="#191970" d="M381.9754,-69.378C405.7421,-58.9073 443.0524,-42.4699 469.7645,-30.7016"/>
<polygon fill="#191970" stroke="#191970" points="471.3414,-33.8316 479.0816,-26.5969 468.5192,-27.4257 471.3414,-33.8316"/>
</g>
<!-- Node20 -->
<g id="node21" class="node">
<title>Node20</title>
<polygon fill="#ffffff" stroke="#bfbfbf" points="325.3154,-6.5 325.3154,-26.5 392.6846,-26.5 392.6846,-6.5 325.3154,-6.5"/>
<text text-anchor="middle" x="359" y="-12.9" font-family="Helvetica,sans-Serif" font-size="12.00" fill="#000000">exception</text>
</g>
<!-- Node19&#45;&gt;Node20 -->
<g id="edge26" class="edge">
<title>Node19&#45;&gt;Node20</title>
<path fill="none" stroke="#191970" d="M359,-69.378C359,-60.7041 359,-47.9355 359,-37.1186"/>
<polygon fill="#191970" stroke="#191970" points="362.5001,-36.8062 359,-26.8062 355.5001,-36.8062 362.5001,-36.8062"/>
</g>
<!-- Node21 -->
<g id="node22" class="node">
<title>Node21</title>
<polygon fill="#ffffff" stroke="#bfbfbf" points="127.3281,-6.5 127.3281,-26.5 172.6719,-26.5 172.6719,-6.5 127.3281,-6.5"/>
<text text-anchor="middle" x="150" y="-12.9" font-family="Helvetica,sans-Serif" font-size="12.00" fill="#000000">string</text>
</g>
<!-- Node19&#45;&gt;Node21 -->
<g id="edge27" class="edge">
<title>Node19&#45;&gt;Node21</title>
<path fill="none" stroke="#191970" d="M332.9526,-71.6484C294.8413,-60.1603 223.9226,-38.7829 182.4654,-26.2862"/>
<polygon fill="#191970" stroke="#191970" points="183.4311,-22.9218 172.8465,-23.3867 181.4108,-29.624 183.4311,-22.9218"/>
</g>
<!-- Node24 -->
<g id="node25" class="node">
<title>Node24</title>
<polygon fill="#ffffff" stroke="#bfbfbf" points="2376.6436,-6.5 2376.6436,-26.5 2461.3564,-26.5 2461.3564,-6.5 2376.6436,-6.5"/>
<text text-anchor="middle" x="2419" y="-12.9" font-family="Helvetica,sans-Serif" font-size="12.00" fill="#000000">Eigen/Dense</text>
</g>
<!-- Node23&#45;&gt;Node24 -->
<g id="edge30" class="edge">
<title>Node23&#45;&gt;Node24</title>
<path fill="none" stroke="#191970" d="M2419,-69.378C2419,-60.7041 2419,-47.9355 2419,-37.1186"/>
<polygon fill="#191970" stroke="#191970" points="2422.5001,-36.8062 2419,-26.8062 2415.5001,-36.8062 2422.5001,-36.8062"/>
</g>
<!-- Node25&#45;&gt;Node7 -->
<g id="edge48" class="edge">
<title>Node25&#45;&gt;Node7</title>
<path fill="none" stroke="#191970" d="M1530.5893,-183.4408C1553.9471,-174.2587 1588.6896,-160.6013 1614.6857,-150.3822"/>
<polygon fill="#191970" stroke="#191970" points="1616.1525,-153.5663 1624.1788,-146.6504 1613.5915,-147.0516 1616.1525,-153.5663"/>
</g>
<!-- Node25&#45;&gt;Node9 -->
<g id="edge36" class="edge">
<title>Node25&#45;&gt;Node9</title>
<path fill="none" stroke="#191970" d="M1570.7222,-190.2499C1682.8392,-184.314 1918.1477,-170.1534 2116,-147 2273.5956,-128.5576 2315.9551,-124.4586 2474.5087,-90.1634"/>
<polygon fill="#191970" stroke="#191970" points="2475.5921,-93.5098 2484.6227,-87.9691 2474.1079,-86.669 2475.5921,-93.5098"/>
</g>
<!-- Node26 -->
<g id="node27" class="node">
<title>Node26</title>
<polygon fill="#ffffff" stroke="#bfbfbf" points="1184.6611,-69.5 1184.6611,-89.5 1233.3389,-89.5 1233.3389,-69.5 1184.6611,-69.5"/>
<text text-anchor="middle" x="1209" y="-75.9" font-family="Helvetica,sans-Serif" font-size="12.00" fill="#000000">cmath</text>
</g>
<!-- Node25&#45;&gt;Node26 -->
<g id="edge35" class="edge">
<title>Node25&#45;&gt;Node26</title>
<path fill="none" stroke="#191970" d="M1461.9828,-183.4911C1428.9121,-175.2395 1382.3732,-162.4109 1343,-147 1304.3292,-131.8641 1261.8561,-109.4027 1235.3132,-94.6094"/>
<polygon fill="#191970" stroke="#191970" points="1236.7231,-91.3868 1226.2915,-89.534 1233.2908,-97.4876 1236.7231,-91.3868"/>
</g>
<!-- Node27 -->
<g id="node28" class="node">
<title>Node27</title>
<g id="a_node28"><a xlink:href="EccentricityExpansionCoefficients_8h.html" target="_top" xlink:title="Declares a class which provides the [ &#160;coefficients]{InclinationEccentricity_pms1}. ">
<polygon fill="#ffffff" stroke="#000000" points="907.9551,-126.5 907.9551,-146.5 1114.0449,-146.5 1114.0449,-126.5 907.9551,-126.5"/>
<text text-anchor="middle" x="1011" y="-132.9" font-family="Helvetica,sans-Serif" font-size="12.00" fill="#000000">EccentricityExpansionCoefficients.h</text>
</a>
</g>
</g>
<!-- Node25&#45;&gt;Node27 -->
<g id="edge37" class="edge">
<title>Node25&#45;&gt;Node27</title>
<path fill="none" stroke="#191970" d="M1439.4006,-185.9308C1354.4829,-176.1326 1205.8125,-158.9784 1107.8753,-147.6779"/>
<polygon fill="#191970" stroke="#191970" points="1108.0085,-144.1702 1097.6732,-146.5008 1107.2061,-151.124 1108.0085,-144.1702"/>
</g>
<!-- Node27&#45;&gt;Node1 -->
<g id="edge38" class="edge">
<title>Node27&#45;&gt;Node1</title>
<path fill="none" stroke="#191970" d="M1036.9295,-126.4951C1055.7015,-118.4483 1081.0076,-105.8779 1100,-90 1116.5701,-76.1472 1131.3848,-56.7066 1141.7552,-41.2982"/>
<polygon fill="#191970" stroke="#191970" points="1144.7905,-43.0514 1147.3273,-32.7647 1138.9294,-39.2242 1144.7905,-43.0514"/>
</g>
<!-- Node27&#45;&gt;Node6 -->
<g id="edge46" class="edge">
<title>Node27&#45;&gt;Node6</title>
<path fill="none" stroke="#191970" d="M1114.1977,-127.959C1186.2654,-120.9584 1284.7685,-109.326 1379.5484,-90.0546"/>
<polygon fill="#191970" stroke="#191970" points="1380.5102,-93.4299 1389.5957,-87.9798 1379.0945,-86.5746 1380.5102,-93.4299"/>
</g>
<!-- Node27&#45;&gt;Node11 -->
<g id="edge45" class="edge">
<title>Node27&#45;&gt;Node11</title>
<path fill="none" stroke="#191970" d="M1065.8227,-126.4936C1110.4715,-118.1107 1175.3509,-105.4014 1241.1082,-90.1006"/>
<polygon fill="#191970" stroke="#191970" points="1242.3031,-93.4154 1251.2394,-87.7239 1240.7043,-86.6004 1242.3031,-93.4154"/>
</g>
<!-- Node27&#45;&gt;Node12 -->
<g id="edge44" class="edge">
<title>Node27&#45;&gt;Node12</title>
<path fill="none" stroke="#191970" d="M974.6784,-126.4461C924.7006,-112.7468 831.8368,-87.7749 752,-69 678.8466,-51.7968 593.0051,-34.3662 543.3218,-24.5463"/>
<polygon fill="#191970" stroke="#191970" points="543.7743,-21.0682 533.2864,-22.5691 542.4212,-27.9362 543.7743,-21.0682"/>
</g>
<!-- Node27&#45;&gt;Node19 -->
<g id="edge39" class="edge">
<title>Node27&#45;&gt;Node19</title>
<path fill="none" stroke="#191970" d="M907.7917,-130.1715C791.8419,-122.6062 598.1118,-108.5982 432,-90 419.9932,-88.6557 406.9199,-86.8759 395.1975,-85.1642"/>
<polygon fill="#191970" stroke="#191970" points="395.7111,-81.7022 385.3045,-83.6902 394.6795,-88.6258 395.7111,-81.7022"/>
</g>
<!-- Node27&#45;&gt;Node26 -->
<g id="edge43" class="edge">
<title>Node27&#45;&gt;Node26</title>
<path fill="none" stroke="#191970" d="M1045.9426,-126.4408C1082.1167,-116.027 1138.2872,-99.8567 1174.3522,-89.4744"/>
<polygon fill="#191970" stroke="#191970" points="1175.7646,-92.71 1184.4061,-86.5801 1173.8281,-85.9832 1175.7646,-92.71"/>
</g>
<!-- Node28 -->
<g id="node29" class="node">
<title>Node28</title>
<polygon fill="#ffffff" stroke="#bfbfbf" points="694.6611,-69.5 694.6611,-89.5 743.3389,-89.5 743.3389,-69.5 694.6611,-69.5"/>
<text text-anchor="middle" x="719" y="-75.9" font-family="Helvetica,sans-Serif" font-size="12.00" fill="#000000">vector</text>
</g>
<!-- Node27&#45;&gt;Node28 -->
<g id="edge40" class="edge">
<title>Node27&#45;&gt;Node28</title>
<path fill="none" stroke="#191970" d="M959.4684,-126.4408C900.1905,-114.8694 804.5023,-96.1905 753.5401,-86.2424"/>
<polygon fill="#191970" stroke="#191970" points="754.1559,-82.7966 743.6706,-84.3158 752.8148,-89.667 754.1559,-82.7966"/>
</g>
<!-- Node29 -->
<g id="node30" class="node">
<title>Node29</title>
<polygon fill="#ffffff" stroke="#bfbfbf" points="1034.9961,-69.5 1034.9961,-89.5 1091.0039,-89.5 1091.0039,-69.5 1034.9961,-69.5"/>
<text text-anchor="middle" x="1063" y="-75.9" font-family="Helvetica,sans-Serif" font-size="12.00" fill="#000000">fstream</text>
</g>
<!-- Node27&#45;&gt;Node29 -->
<g id="edge41" class="edge">
<title>Node27&#45;&gt;Node29</title>
<path fill="none" stroke="#191970" d="M1020.2966,-126.3095C1027.6911,-118.204 1038.2116,-106.672 1046.9598,-97.0826"/>
<polygon fill="#191970" stroke="#191970" points="1049.63,-99.3488 1053.7839,-89.6022 1044.4586,-94.631 1049.63,-99.3488"/>
</g>
<!-- Node30 -->
<g id="node31" class="node">
<title>Node30</title>
<polygon fill="#ffffff" stroke="#bfbfbf" points="874.9883,-69.5 874.9883,-89.5 933.0117,-89.5 933.0117,-69.5 874.9883,-69.5"/>
<text text-anchor="middle" x="904" y="-75.9" font-family="Helvetica,sans-Serif" font-size="12.00" fill="#000000">iomanip</text>
</g>
<!-- Node27&#45;&gt;Node30 -->
<g id="edge42" class="edge">
<title>Node27&#45;&gt;Node30</title>
<path fill="none" stroke="#191970" d="M991.8705,-126.3095C975.2094,-117.434 950.8358,-104.4499 931.9829,-94.4068"/>
<polygon fill="#191970" stroke="#191970" points="933.4352,-91.2148 922.9638,-89.6022 930.1441,-97.3929 933.4352,-91.2148"/>
</g>
<!-- Node31 -->
<g id="node32" class="node">
<title>Node31</title>
<polygon fill="#ffffff" stroke="#bfbfbf" points="951.3232,-69.5 951.3232,-89.5 1016.6768,-89.5 1016.6768,-69.5 951.3232,-69.5"/>
<text text-anchor="middle" x="984" y="-75.9" font-family="Helvetica,sans-Serif" font-size="12.00" fill="#000000">algorithm</text>
</g>
<!-- Node27&#45;&gt;Node31 -->
<g id="edge47" class="edge">
<title>Node27&#45;&gt;Node31</title>
<path fill="none" stroke="#191970" d="M1006.1729,-126.3095C1002.5638,-118.6903 997.5206,-108.0435 993.1556,-98.8285"/>
<polygon fill="#191970" stroke="#191970" points="996.2293,-97.1413 988.7853,-89.6022 989.9031,-100.1379 996.2293,-97.1413"/>
</g>
<!-- Node32&#45;&gt;Node1 -->
<g id="edge51" class="edge">
<title>Node32&#45;&gt;Node1</title>
<path fill="none" stroke="#191970" d="M562.9568,-70.7125C567.7051,-70.1055 572.4285,-69.5266 577,-69 748.5988,-49.2337 949.4748,-32.468 1064.1267,-23.5013"/>
<polygon fill="#191970" stroke="#191970" points="1064.5711,-26.9773 1074.2689,-22.7108 1064.0271,-19.9985 1064.5711,-26.9773"/>
</g>
<!-- Node32&#45;&gt;Node12 -->
<g id="edge52" class="edge">
<title>Node32&#45;&gt;Node12</title>
<path fill="none" stroke="#191970" d="M502,-69.378C502,-60.7041 502,-47.9355 502,-37.1186"/>
<polygon fill="#191970" stroke="#191970" points="505.5001,-36.8062 502,-26.8062 498.5001,-36.8062 505.5001,-36.8062"/>
</g>
<!-- Node33&#45;&gt;Node1 -->
<g id="edge54" class="edge">
<title>Node33&#45;&gt;Node1</title>
<path fill="none" stroke="#191970" d="M1005.9618,-240.4264C947.4501,-213.5061 801.6879,-137.2916 859,-69 884.8555,-38.1912 986.3979,-25.4554 1063.8332,-20.1947"/>
<polygon fill="#191970" stroke="#191970" points="1064.3551,-23.6683 1074.1085,-19.5303 1063.9034,-16.6829 1064.3551,-23.6683"/>
</g>
<!-- Node33&#45;&gt;Node28 -->
<g id="edge59" class="edge">
<title>Node33&#45;&gt;Node28</title>
<path fill="none" stroke="#191970" d="M960.8081,-240.4892C911.195,-232.1505 849.1582,-219.2088 828,-204 794.948,-180.2417 807.3132,-156.1808 780,-126 769.4619,-114.3555 755.6869,-103.571 743.894,-95.3255"/>
<polygon fill="#191970" stroke="#191970" points="745.5923,-92.2487 735.3488,-89.5429 741.6692,-98.046 745.5923,-92.2487"/>
</g>
<!-- Node34 -->
<g id="node35" class="node">
<title>Node34</title>
<g id="a_node35"><a xlink:href="StoppingCondition_8h.html" target="_top" xlink:title="Defines the various stopping conditions needed by OrbitSolver. ">
<polygon fill="#ffffff" stroke="#000000" points="1100.959,-183.5 1100.959,-203.5 1225.041,-203.5 1225.041,-183.5 1100.959,-183.5"/>
<text text-anchor="middle" x="1163" y="-189.9" font-family="Helvetica,sans-Serif" font-size="12.00" fill="#000000">StoppingCondition.h</text>
</a>
</g>
</g>
<!-- Node33&#45;&gt;Node34 -->
<g id="edge55" class="edge">
<title>Node33&#45;&gt;Node34</title>
<path fill="none" stroke="#191970" d="M1052.6481,-240.4408C1074.0437,-231.3396 1105.7758,-217.8416 1129.7279,-207.6531"/>
<polygon fill="#191970" stroke="#191970" points="1131.3056,-210.7855 1139.1376,-203.6504 1128.5655,-204.3441 1131.3056,-210.7855"/>
</g>
<!-- Node34&#45;&gt;Node1 -->
<g id="edge56" class="edge">
<title>Node34&#45;&gt;Node1</title>
<path fill="none" stroke="#191970" d="M1162.6602,-183.4766C1161.7496,-156.6138 1159.2323,-82.3522 1157.8823,-42.5284"/>
<polygon fill="#191970" stroke="#191970" points="1161.3795,-42.3819 1157.5426,-32.5063 1154.3835,-42.6191 1161.3795,-42.3819"/>
</g>
<!-- Node34&#45;&gt;Node6 -->
<g id="edge58" class="edge">
<title>Node34&#45;&gt;Node6</title>
<path fill="none" stroke="#191970" d="M1185.5408,-183.3833C1230.8233,-163.0596 1332.9534,-117.2217 1385.0824,-93.8252"/>
<polygon fill="#191970" stroke="#191970" points="1386.8196,-96.8819 1394.5097,-89.5941 1383.9533,-90.4957 1386.8196,-96.8819"/>
</g>
<!-- Node34&#45;&gt;Node7 -->
<g id="edge57" class="edge">
<title>Node34&#45;&gt;Node7</title>
<path fill="none" stroke="#191970" d="M1225.1735,-186.223C1316.9624,-175.4798 1488.0564,-155.4544 1582.7001,-144.377"/>
<polygon fill="#191970" stroke="#191970" points="1583.2085,-147.8415 1592.7338,-143.2026 1582.3947,-140.8889 1583.2085,-147.8415"/>
</g>
<!-- Node35&#45;&gt;Node1 -->
<g id="edge61" class="edge">
<title>Node35&#45;&gt;Node1</title>
<path fill="none" stroke="#191970" d="M1275.4862,-240.4232C1269.5654,-225.112 1256.0411,-196.36 1234,-183 1089.7354,-95.5553 909.7597,-252.9232 866,-90 863.579,-80.9861 860.0148,-76.1616 866,-69 891.0079,-39.0767 988.8255,-26.1797 1064.2238,-20.639"/>
<polygon fill="#191970" stroke="#191970" points="1064.505,-24.128 1074.2353,-19.9363 1064.0148,-17.1452 1064.505,-24.128"/>
</g>
<!-- Node35&#45;&gt;Node34 -->
<g id="edge62" class="edge">
<title>Node35&#45;&gt;Node34</title>
<path fill="none" stroke="#191970" d="M1258.5286,-240.4408C1240.2539,-231.461 1213.2683,-218.2008 1192.6357,-208.0624"/>
<polygon fill="#191970" stroke="#191970" points="1194.1756,-204.9193 1183.657,-203.6504 1191.0884,-211.2019 1194.1756,-204.9193"/>
</g>
<!-- Node36&#45;&gt;Node1 -->
<g id="edge64" class="edge">
<title>Node36&#45;&gt;Node1</title>
<path fill="none" stroke="#191970" d="M1693.8621,-247.8047C1935.9205,-237.8018 2674.839,-196.549 2552,-69 2529.3833,-45.5162 1558.6293,-24.4085 1250.0991,-18.2827"/>
<polygon fill="#191970" stroke="#191970" points="1249.9122,-14.7784 1239.8449,-18.0798 1249.7737,-21.777 1249.9122,-14.7784"/>
</g>
<!-- Node36&#45;&gt;Node34 -->
<g id="edge65" class="edge">
<title>Node36&#45;&gt;Node34</title>
<path fill="none" stroke="#191970" d="M1544.2115,-241.1514C1458.7466,-230.4683 1319.8253,-213.1032 1235.3802,-202.5475"/>
<polygon fill="#191970" stroke="#191970" points="1235.7163,-199.0624 1225.3594,-201.2949 1234.848,-206.0083 1235.7163,-199.0624"/>
</g>
<!-- Node37&#45;&gt;Node1 -->
<g id="edge70" class="edge">
<title>Node37&#45;&gt;Node1</title>
<path fill="none" stroke="#191970" d="M1134.1637,-494.0821C891.7238,-485.7394 162.3025,-454.2006 95,-375 88.9562,-367.8878 90.6683,-362.2673 95,-354 170.0124,-210.8337 288.7321,-269.6464 394,-147 419.1153,-117.7385 400.0624,-90.6102 432,-69 483.1618,-34.3821 880.1703,-22.0071 1064.0642,-18.1012"/>
<polygon fill="#191970" stroke="#191970" points="1064.3369,-21.5964 1074.2617,-17.8887 1064.1909,-14.5979 1064.3369,-21.5964"/>
</g>
<!-- Node37&#45;&gt;Node2 -->
<g id="edge71" class="edge">
<title>Node37&#45;&gt;Node2</title>
<path fill="none" stroke="#191970" d="M1240.8909,-480.2883C1258.8807,-470.0813 1282.432,-456.5142 1303,-444 1372.6473,-401.6244 1453.2768,-348.9372 1492.3468,-323.17"/>
<polygon fill="#191970" stroke="#191970" points="1494.4995,-325.9427 1500.915,-317.511 1490.6417,-320.1016 1494.4995,-325.9427"/>
</g>
<!-- Node38 -->
<g id="node39" class="node">
<title>Node38</title>
<g id="a_node39"><a xlink:href="DissipatingBody_8h.html" target="_top" xlink:title="Declares the DissipatingBody class. ">
<polygon fill="#ffffff" stroke="#000000" points="1460.416,-354.5 1460.416,-374.5 1571.584,-374.5 1571.584,-354.5 1460.416,-354.5"/>
<text text-anchor="middle" x="1516" y="-360.9" font-family="Helvetica,sans-Serif" font-size="12.00" fill="#000000">DissipatingBody.h</text>
</a>
</g>
</g>
<!-- Node37&#45;&gt;Node38 -->
<g id="edge72" class="edge">
<title>Node37&#45;&gt;Node38</title>
<path fill="none" stroke="#191970" d="M1270.3748,-480.4197C1301.3923,-471.1421 1339.854,-458.4577 1373,-444 1416.2748,-425.1242 1463.6366,-397.2466 1491.5362,-380.0132"/>
<polygon fill="#191970" stroke="#191970" points="1493.5804,-382.8634 1500.2177,-374.6052 1489.8792,-376.9218 1493.5804,-382.8634"/>
</g>
<!-- Node40 -->
<g id="node41" class="node">
<title>Node40</title>
<g id="a_node41"><a xlink:href="BinarySystem_8h.html" target="_top" xlink:title="Defines the BinarySystem class. ">
<polygon fill="#ffffff" stroke="#000000" points="525.9854,-417.5 525.9854,-437.5 626.0146,-437.5 626.0146,-417.5 525.9854,-417.5"/>
<text text-anchor="middle" x="576" y="-423.9" font-family="Helvetica,sans-Serif" font-size="12.00" fill="#000000">BinarySystem.h</text>
</a>
</g>
</g>
<!-- Node37&#45;&gt;Node40 -->
<g id="edge83" class="edge">
<title>Node37&#45;&gt;Node40</title>
<path fill="none" stroke="#191970" d="M1134.0139,-488.0392C1005.5431,-474.1014 752.1216,-446.6075 636.3075,-434.0428"/>
<polygon fill="#191970" stroke="#191970" points="636.5238,-430.5458 626.2046,-432.9467 635.7687,-437.505 636.5238,-430.5458"/>
</g>
<!-- Node45 -->
<g id="node46" class="node">
<title>Node45</title>
<g id="a_node46"><a xlink:href="LagForcingFrequencyBreakCondition_8h.html" target="_top" xlink:title="Declares a stopping condition satisfied when a forcing frequency reaches a critical value...">
<polygon fill="#ffffff" stroke="#000000" points="1129.9609,-411.5 1129.9609,-443.5 1294.0391,-443.5 1294.0391,-411.5 1129.9609,-411.5"/>
<text text-anchor="start" x="1137.9609" y="-429.9" font-family="Helvetica,sans-Serif" font-size="12.00" fill="#000000">LagForcingFrequencyBreak</text>
<text text-anchor="middle" x="1212" y="-417.9" font-family="Helvetica,sans-Serif" font-size="12.00" fill="#000000">Condition.h</text>
</a>
</g>
</g>
<!-- Node37&#45;&gt;Node45 -->
<g id="edge100" class="edge">
<title>Node37&#45;&gt;Node45</title>
<path fill="none" stroke="#191970" d="M1212,-480.4966C1212,-472.599 1212,-462.8656 1212,-453.9044"/>
<polygon fill="#191970" stroke="#191970" points="1215.5001,-453.8957 1212,-443.8958 1208.5001,-453.8958 1215.5001,-453.8957"/>
</g>
<!-- Node46 -->
<g id="node47" class="node">
<title>Node46</title>
<g id="a_node47"><a xlink:href="LagSpinBreakCondition_8h.html" target="_top" xlink:title="Declares a stopping condition monitoring for critical spin frequencies. ">
<polygon fill="#ffffff" stroke="#000000" points="916.9521,-417.5 916.9521,-437.5 1069.0479,-437.5 1069.0479,-417.5 916.9521,-417.5"/>
<text text-anchor="middle" x="993" y="-423.9" font-family="Helvetica,sans-Serif" font-size="12.00" fill="#000000">LagSpinBreakCondition.h</text>
</a>
</g>
</g>
<!-- Node37&#45;&gt;Node46 -->
<g id="edge107" class="edge">
<title>Node37&#45;&gt;Node46</title>
<path fill="none" stroke="#191970" d="M1161.2065,-480.4966C1122.7456,-468.3788 1070.5657,-451.9385 1034.5718,-440.598"/>
<polygon fill="#191970" stroke="#191970" points="1035.4634,-437.2093 1024.8738,-437.5424 1033.3598,-443.8858 1035.4634,-437.2093"/>
</g>
<!-- Node38&#45;&gt;Node1 -->
<g id="edge73" class="edge">
<title>Node38&#45;&gt;Node1</title>
<path fill="none" stroke="#191970" d="M1571.8438,-354.8669C1573.5822,-354.5736 1575.3043,-354.2841 1577,-354 1675.1494,-337.559 1699.8877,-334.6607 1798,-318 2163.4513,-255.9419 2851.283,-335.8544 2594,-69 2570.6231,-44.7535 1564.9674,-24.0693 1250.1807,-18.179"/>
<polygon fill="#191970" stroke="#191970" points="1249.788,-14.6712 1239.7244,-17.9841 1249.6574,-21.67 1249.788,-14.6712"/>
</g>
<!-- Node38&#45;&gt;Node2 -->
<g id="edge74" class="edge">
<title>Node38&#45;&gt;Node2</title>
<path fill="none" stroke="#191970" d="M1516,-354.3095C1516,-346.9335 1516,-336.72 1516,-327.715"/>
<polygon fill="#191970" stroke="#191970" points="1519.5001,-327.6022 1516,-317.6022 1512.5001,-327.6023 1519.5001,-327.6022"/>
</g>
<!-- Node38&#45;&gt;Node6 -->
<g id="edge82" class="edge">
<title>Node38&#45;&gt;Node6</title>
<path fill="none" stroke="#191970" d="M1476.8301,-354.3317C1458.1388,-347.3348 1437.4086,-335.9641 1426,-318 1381.8606,-248.4974 1400.8197,-143.2013 1411.5174,-99.549"/>
<polygon fill="#191970" stroke="#191970" points="1414.9711,-100.172 1414.0762,-89.615 1408.1924,-98.4259 1414.9711,-100.172"/>
</g>
<!-- Node38&#45;&gt;Node7 -->
<g id="edge80" class="edge">
<title>Node38&#45;&gt;Node7</title>
<path fill="none" stroke="#191970" d="M1559.3842,-354.4706C1604.5312,-341.4391 1672.7754,-313.8176 1703,-261 1723.7557,-224.7294 1690.0738,-178.7499 1667.588,-154.0684"/>
<polygon fill="#191970" stroke="#191970" points="1669.9005,-151.4199 1660.4863,-146.5594 1664.8147,-156.2298 1669.9005,-151.4199"/>
</g>
<!-- Node38&#45;&gt;Node9 -->
<g id="edge81" class="edge">
<title>Node38&#45;&gt;Node9</title>
<path fill="none" stroke="#191970" d="M1567.5805,-354.404C1700.4635,-327.699 2064.5096,-250.1228 2356,-147 2401.3627,-130.9517 2452.2923,-108.3268 2483.7615,-93.7856"/>
<polygon fill="#191970" stroke="#191970" points="2485.2828,-96.9381 2492.8753,-89.5486 2482.3318,-90.5905 2485.2828,-96.9381"/>
</g>
<!-- Node38&#45;&gt;Node22 -->
<g id="edge79" class="edge">
<title>Node38&#45;&gt;Node22</title>
<path fill="none" stroke="#191970" d="M1571.816,-364.2266C1807.4454,-362.8419 2710.8461,-355.1219 2758,-318 2782.488,-298.7218 2777,-281.6658 2777,-250.5 2777,-250.5 2777,-250.5 2777,-193.5 2777,-160.501 2781.623,-122.3764 2784.875,-99.6404"/>
<polygon fill="#191970" stroke="#191970" points="2788.3689,-99.9393 2786.3769,-89.5334 2781.4449,-98.9103 2788.3689,-99.9393"/>
</g>
<!-- Node39 -->
<g id="node40" class="node">
<title>Node39</title>
<g id="a_node40"><a xlink:href="OrbitalExpressions_8h.html" target="_top" xlink:title="A collection of functions which calculate various quantities for two body orbits. ...">
<polygon fill="#ffffff" stroke="#000000" points="2582.9707,-297.5 2582.9707,-317.5 2749.0293,-317.5 2749.0293,-297.5 2582.9707,-297.5"/>
<text text-anchor="middle" x="2666" y="-303.9" font-family="Helvetica,sans-Serif" font-size="12.00" fill="#000000">../Core/OrbitalExpressions.h</text>
</a>
</g>
</g>
<!-- Node38&#45;&gt;Node39 -->
<g id="edge75" class="edge">
<title>Node38&#45;&gt;Node39</title>
<path fill="none" stroke="#191970" d="M1571.6356,-362.5124C1759.9046,-355.7128 2372.2824,-332.9753 2569,-318 2570.2826,-317.9024 2571.5744,-317.8013 2572.8738,-317.697"/>
<polygon fill="#191970" stroke="#191970" points="2573.2885,-321.1745 2582.9565,-316.8409 2572.6962,-314.1996 2573.2885,-321.1745"/>
</g>
<!-- Node39&#45;&gt;Node1 -->
<g id="edge76" class="edge">
<title>Node39&#45;&gt;Node1</title>
<path fill="none" stroke="#191970" d="M2668.8857,-297.2216C2674.2009,-277.3546 2685,-232.2248 2685,-193.5 2685,-193.5 2685,-193.5 2685,-136.5 2685,-104.6601 2686.6892,-87.8107 2661,-69 2603.995,-27.2587 1569.2611,-18.5735 1250.01,-16.8843"/>
<polygon fill="#191970" stroke="#191970" points="1249.8832,-13.3836 1239.8652,-16.8317 1249.8469,-20.3836 1249.8832,-13.3836"/>
</g>
<!-- Node39&#45;&gt;Node22 -->
<g id="edge78" class="edge">
<title>Node39&#45;&gt;Node22</title>
<path fill="none" stroke="#191970" d="M2674.1479,-297.1405C2681.1864,-287.9417 2691.3941,-273.983 2699,-261 2732.5646,-203.7068 2733.0466,-185.2611 2763,-126 2767.5765,-116.9456 2772.8692,-107.0279 2777.4031,-98.6862"/>
<polygon fill="#191970" stroke="#191970" points="2780.5558,-100.216 2782.2887,-89.7638 2774.416,-96.854 2780.5558,-100.216"/>
</g>
<!-- Node39&#45;&gt;Node26 -->
<g id="edge77" class="edge">
<title>Node39&#45;&gt;Node26</title>
<path fill="none" stroke="#191970" d="M2595.357,-297.4793C2422.5968,-272.8733 1965.029,-207.1006 1584,-147 1435.4792,-123.5735 1394.2786,-125.3271 1243.4987,-89.8566"/>
<polygon fill="#191970" stroke="#191970" points="1243.9438,-86.3653 1233.4063,-87.4658 1242.3301,-93.1768 1243.9438,-86.3653"/>
</g>
<!-- Node40&#45;&gt;Node1 -->
<g id="edge84" class="edge">
<title>Node40&#45;&gt;Node1</title>
<path fill="none" stroke="#191970" d="M574.0448,-417.1878C565.4048,-368.1006 535.8836,-156.8615 649,-69 681.0004,-44.1441 926.323,-28.0165 1063.9998,-20.8258"/>
<polygon fill="#191970" stroke="#191970" points="1064.3224,-24.3139 1074.1286,-20.3028 1063.9613,-17.3232 1064.3224,-24.3139"/>
</g>
<!-- Node40&#45;&gt;Node7 -->
<g id="edge91" class="edge">
<title>Node40&#45;&gt;Node7</title>
<path fill="none" stroke="#191970" d="M626.0207,-420.6771C777.1846,-399.4614 1226.7418,-331.815 1355,-261 1397.3721,-237.6051 1388.6121,-206.3663 1431,-183 1456.7559,-168.802 1528.5893,-155.1409 1583.0237,-146.3432"/>
<polygon fill="#191970" stroke="#191970" points="1583.6458,-149.7883 1592.9703,-144.7581 1582.544,-142.8756 1583.6458,-149.7883"/>
</g>
<!-- Node40&#45;&gt;Node10 -->
<g id="edge98" class="edge">
<title>Node40&#45;&gt;Node10</title>
<path fill="none" stroke="#191970" d="M577.9125,-417.4009C584.4843,-385.6535 609.2341,-287.1866 671,-240 833.9792,-115.4906 923.9269,-196.3426 1123,-147 1208.0458,-125.9204 1230.9203,-117.7846 1318.4788,-90.0907"/>
<polygon fill="#191970" stroke="#191970" points="1319.5421,-93.4253 1328.0233,-87.0755 1317.4335,-86.7504 1319.5421,-93.4253"/>
</g>
<!-- Node40&#45;&gt;Node12 -->
<g id="edge99" class="edge">
<title>Node40&#45;&gt;Node12</title>
<path fill="none" stroke="#191970" d="M555.391,-417.4333C536.5058,-407.7656 508.1941,-392.1336 486,-375 395.8223,-305.3839 305,-307.4229 305,-193.5 305,-193.5 305,-193.5 305,-136.5 305,-105.3342 302.0998,-91.1741 324,-69 343.1013,-49.6598 414.3554,-33.0061 460.7123,-23.8999"/>
<polygon fill="#191970" stroke="#191970" points="461.6108,-27.2914 470.7696,-21.9654 460.2885,-20.4174 461.6108,-27.2914"/>
</g>
<!-- Node40&#45;&gt;Node19 -->
<g id="edge93" class="edge">
<title>Node40&#45;&gt;Node19</title>
<path fill="none" stroke="#191970" d="M525.9132,-425.745C408.5344,-421.1181 123.4276,-406.6992 95,-375 88.7687,-368.0515 91.259,-362.5508 95,-354 149.3332,-229.8098 233.7754,-252.4138 319,-147 331.1289,-131.9978 342.0801,-112.936 349.4445,-98.8978"/>
<polygon fill="#191970" stroke="#191970" points="352.7132,-100.1921 354.1385,-89.6935 346.4774,-97.0118 352.7132,-100.1921"/>
</g>
<!-- Node40&#45;&gt;Node21 -->
<g id="edge97" class="edge">
<title>Node40&#45;&gt;Node21</title>
<path fill="none" stroke="#191970" d="M525.9013,-425.5368C417.9326,-420.7544 166.7134,-406.5072 88,-375 42.2381,-356.6826 0,-356.7918 0,-307.5 0,-307.5 0,-307.5 0,-136.5 0,-76.7866 73.3792,-41.8999 117.4912,-26.3225"/>
<polygon fill="#191970" stroke="#191970" points="118.8676,-29.5518 127.2182,-23.0312 116.624,-22.9211 118.8676,-29.5518"/>
</g>
<!-- Node40&#45;&gt;Node22 -->
<g id="edge90" class="edge">
<title>Node40&#45;&gt;Node22</title>
<path fill="none" stroke="#191970" d="M626.0528,-424.8873C691.0368,-421.5239 807.9774,-415.5692 908,-411 1013.9898,-406.1582 2815,-413.6004 2815,-307.5 2815,-307.5 2815,-307.5 2815,-193.5 2815,-159.6122 2803.5632,-121.5465 2795.5766,-99.0954"/>
<polygon fill="#191970" stroke="#191970" points="2798.848,-97.8506 2792.1007,-89.6821 2792.2814,-100.2754 2798.848,-97.8506"/>
</g>
<!-- Node40&#45;&gt;Node33 -->
<g id="edge86" class="edge">
<title>Node40&#45;&gt;Node33</title>
<path fill="none" stroke="#191970" d="M601.6532,-417.4766C678.3372,-387.5139 905.9427,-298.582 993.8263,-264.2434"/>
<polygon fill="#191970" stroke="#191970" points="995.3076,-267.4223 1003.3481,-260.5229 992.7601,-260.9023 995.3076,-267.4223"/>
</g>
<!-- Node40&#45;&gt;Node38 -->
<g id="edge85" class="edge">
<title>Node40&#45;&gt;Node38</title>
<path fill="none" stroke="#191970" d="M626.2062,-424.1351C784.3522,-413.536 1272.2094,-380.8392 1450.1678,-368.9122"/>
<polygon fill="#191970" stroke="#191970" points="1450.4331,-372.4023 1460.1767,-368.2414 1449.965,-365.418 1450.4331,-372.4023"/>
</g>
<!-- Node40&#45;&gt;Node39 -->
<g id="edge92" class="edge">
<title>Node40&#45;&gt;Node39</title>
<path fill="none" stroke="#191970" d="M626.2015,-425.0062C773.0713,-417.6825 1214.6653,-395.4648 1581,-375 1737.9216,-366.2338 1777.0983,-363.1146 1934,-354 2216.1996,-337.6066 2287.2798,-341.2182 2569,-318 2570.2819,-317.8943 2571.5732,-317.7857 2572.872,-317.6744"/>
<polygon fill="#191970" stroke="#191970" points="2573.3029,-321.1499 2582.9511,-316.7725 2572.6789,-314.1778 2573.3029,-321.1499"/>
</g>
<!-- Node41 -->
<g id="node42" class="node">
<title>Node41</title>
<g id="a_node42"><a xlink:href="SecondaryDeathCondition_8h.html" target="_top" xlink:title="Declares a stopping condition class monitoring for the death of the secondary object. ">
<polygon fill="#ffffff" stroke="#000000" points="679.9502,-240.5 679.9502,-260.5 846.0498,-260.5 846.0498,-240.5 679.9502,-240.5"/>
<text text-anchor="middle" x="763" y="-246.9" font-family="Helvetica,sans-Serif" font-size="12.00" fill="#000000">SecondaryDeathCondition.h</text>
</a>
</g>
</g>
<!-- Node40&#45;&gt;Node41 -->
<g id="edge87" class="edge">
<title>Node40&#45;&gt;Node41</title>
<path fill="none" stroke="#191970" d="M586.5897,-417.4766C617.1738,-388.528 705.9132,-304.5341 744.6032,-267.913"/>
<polygon fill="#191970" stroke="#191970" points="747.204,-270.2705 752.0606,-260.8544 742.392,-265.1867 747.204,-270.2705"/>
</g>
<!-- Node42 -->
<g id="node43" class="node">
<title>Node42</title>
<polygon fill="#ffffff" stroke="#bfbfbf" points="103.6455,-354.5 103.6455,-374.5 198.3545,-374.5 198.3545,-354.5 103.6455,-354.5"/>
<text text-anchor="middle" x="151" y="-360.9" font-family="Helvetica,sans-Serif" font-size="12.00" fill="#000000">gsl/gsl_errno.h</text>
</g>
<!-- Node40&#45;&gt;Node42 -->
<g id="edge94" class="edge">
<title>Node40&#45;&gt;Node42</title>
<path fill="none" stroke="#191970" d="M525.7579,-421.0648C456.5943,-412.0485 327.9279,-394.711 208.6679,-375.2271"/>
<polygon fill="#191970" stroke="#191970" points="209.0688,-371.7461 198.6337,-373.5789 207.9342,-378.6535 209.0688,-371.7461"/>
</g>
<!-- Node43 -->
<g id="node44" class="node">
<title>Node43</title>
<polygon fill="#ffffff" stroke="#bfbfbf" points="215.9717,-354.5 215.9717,-374.5 318.0283,-374.5 318.0283,-354.5 215.9717,-354.5"/>
<text text-anchor="middle" x="267" y="-360.9" font-family="Helvetica,sans-Serif" font-size="12.00" fill="#000000">gsl/gsl_odeiv2.h</text>
</g>
<!-- Node40&#45;&gt;Node43 -->
<g id="edge95" class="edge">
<title>Node40&#45;&gt;Node43</title>
<path fill="none" stroke="#191970" d="M526.6964,-417.4478C472.2062,-406.3382 384.4695,-388.4501 326.2768,-376.5856"/>
<polygon fill="#191970" stroke="#191970" points="326.6257,-373.0848 316.128,-374.5164 325.2272,-379.9437 326.6257,-373.0848"/>
</g>
<!-- Node44 -->
<g id="node45" class="node">
<title>Node44</title>
<polygon fill="#ffffff" stroke="#bfbfbf" points="335.6475,-354.5 335.6475,-374.5 434.3525,-374.5 434.3525,-354.5 335.6475,-354.5"/>
<text text-anchor="middle" x="385" y="-360.9" font-family="Helvetica,sans-Serif" font-size="12.00" fill="#000000">gsl/gsl_siman.h</text>
</g>
<!-- Node40&#45;&gt;Node44 -->
<g id="edge96" class="edge">
<title>Node40&#45;&gt;Node44</title>
<path fill="none" stroke="#191970" d="M545.3125,-417.378C512.7329,-406.6318 461.0988,-389.6007 425.2691,-377.7825"/>
<polygon fill="#191970" stroke="#191970" points="426.2044,-374.4056 415.6113,-374.5969 424.0117,-381.0533 426.2044,-374.4056"/>
</g>
<!-- Node41&#45;&gt;Node1 -->
<g id="edge88" class="edge">
<title>Node41&#45;&gt;Node1</title>
<path fill="none" stroke="#191970" d="M748.3973,-240.323C737.3281,-231.8484 722.5999,-218.8061 714,-204 683.2231,-151.0127 645.1411,-114.6663 686,-69 710.7045,-41.3888 933.8159,-26.6418 1063.9052,-20.3255"/>
<polygon fill="#191970" stroke="#191970" points="1064.442,-23.8039 1074.2637,-19.8308 1064.1081,-16.8119 1064.442,-23.8039"/>
</g>
<!-- Node41&#45;&gt;Node34 -->
<g id="edge89" class="edge">
<title>Node41&#45;&gt;Node34</title>
<path fill="none" stroke="#191970" d="M833.5912,-240.4408C905.8858,-230.1388 1017.7148,-214.2031 1090.6446,-203.8106"/>
<polygon fill="#191970" stroke="#191970" points="1091.2628,-207.258 1100.669,-202.3822 1090.2752,-200.328 1091.2628,-207.258"/>
</g>
<!-- Node45&#45;&gt;Node1 -->
<g id="edge101" class="edge">
<title>Node45&#45;&gt;Node1</title>
<path fill="none" stroke="#191970" d="M1294.4068,-426.2235C1550.1873,-421.9635 2328.352,-406.6797 2579,-375 2719.7549,-357.2098 2891,-449.3747 2891,-307.5 2891,-307.5 2891,-307.5 2891,-136.5 2891,-105.3342 2896.5536,-88.1946 2872,-69 2839.8102,-43.8359 1602.4421,-23.2339 1249.8746,-17.8654"/>
<polygon fill="#191970" stroke="#191970" points="1249.7558,-14.3633 1239.7038,-17.711 1249.6495,-21.3625 1249.7558,-14.3633"/>
</g>
<!-- Node45&#45;&gt;Node19 -->
<g id="edge105" class="edge">
<title>Node45&#45;&gt;Node19</title>
<path fill="none" stroke="#191970" d="M1129.922,-416.5054C1005.904,-397.5864 765.6457,-351.832 581,-261 492.9567,-217.6892 408.8933,-133.4855 374.8685,-97.0277"/>
<polygon fill="#191970" stroke="#191970" points="377.3809,-94.5892 368.0272,-89.6134 372.2363,-99.3362 377.3809,-94.5892"/>
</g>
<!-- Node45&#45;&gt;Node28 -->
<g id="edge106" class="edge">
<title>Node45&#45;&gt;Node28</title>
<path fill="none" stroke="#191970" d="M1185.4481,-411.4563C1129.8977,-378.1049 997.0269,-299.4487 882,-240 848.4394,-222.6551 833.8498,-228.3896 805,-204 769.2441,-173.772 741.5904,-125.2876 728.0885,-98.6193"/>
<polygon fill="#191970" stroke="#191970" points="731.1792,-96.973 723.6193,-89.5502 724.9002,-100.0673 731.1792,-96.973"/>
</g>
<!-- Node45&#45;&gt;Node34 -->
<g id="edge102" class="edge">
<title>Node45&#45;&gt;Node34</title>
<path fill="none" stroke="#191970" d="M1208.632,-411.4162C1199.9229,-369.8257 1176.6753,-258.8067 1167.1541,-213.3377"/>
<polygon fill="#191970" stroke="#191970" points="1170.57,-212.5735 1165.0947,-203.5032 1163.7186,-214.0083 1170.57,-212.5735"/>
</g>
<!-- Node45&#45;&gt;Node38 -->
<g id="edge103" class="edge">
<title>Node45&#45;&gt;Node38</title>
<path fill="none" stroke="#191970" d="M1289.4986,-411.4394C1341.8885,-400.5823 1409.966,-386.4741 1457.7553,-376.5704"/>
<polygon fill="#191970" stroke="#191970" points="1458.5504,-379.9801 1467.6321,-374.5236 1457.1299,-373.1258 1458.5504,-379.9801"/>
</g>
<!-- Node45&#45;&gt;Node39 -->
<g id="edge104" class="edge">
<title>Node45&#45;&gt;Node39</title>
<path fill="none" stroke="#191970" d="M1294.2993,-421.7462C1505.9479,-406.7565 2086.403,-364.4294 2569,-318 2570.2804,-317.8768 2571.5701,-317.7517 2572.8676,-317.6249"/>
<polygon fill="#191970" stroke="#191970" points="2573.3335,-321.0959 2582.9377,-316.6229 2572.6403,-314.1303 2573.3335,-321.0959"/>
</g>
<!-- Node46&#45;&gt;Node1 -->
<g id="edge108" class="edge">
<title>Node46&#45;&gt;Node1</title>
<path fill="none" stroke="#191970" d="M940.7318,-417.4976C866.166,-400.147 731.588,-356.7169 671,-261 625.3573,-188.8937 610.8709,-131.4786 669,-69 695.3399,-40.6892 929.6806,-26.1312 1063.8063,-20.0566"/>
<polygon fill="#191970" stroke="#191970" points="1064.2452,-23.5406 1074.0796,-19.5991 1063.9337,-16.5476 1064.2452,-23.5406"/>
</g>
<!-- Node46&#45;&gt;Node19 -->
<g id="edge111" class="edge">
<title>Node46&#45;&gt;Node19</title>
<path fill="none" stroke="#191970" d="M916.609,-419.7466C828.048,-410.1384 687.8611,-392.8411 638,-375 518.7382,-332.3261 469.4332,-315.8577 410,-204 391.1082,-168.4443 374.5349,-124.3241 365.7231,-99.2935"/>
<polygon fill="#191970" stroke="#191970" points="369.0199,-98.1176 362.4377,-89.8155 362.406,-100.4103 369.0199,-98.1176"/>
</g>
<!-- Node46&#45;&gt;Node28 -->
<g id="edge112" class="edge">
<title>Node46&#45;&gt;Node28</title>
<path fill="none" stroke="#191970" d="M988.2792,-417.2995C973.3301,-386.0881 923.919,-290.9157 855,-240 815.9962,-211.1849 784.9422,-239.5867 752,-204 725.2843,-175.1397 719.7011,-127.172 718.8233,-99.9725"/>
<polygon fill="#191970" stroke="#191970" points="722.3195,-99.6561 718.6872,-89.7034 715.3201,-99.7489 722.3195,-99.6561"/>
</g>
<!-- Node46&#45;&gt;Node34 -->
<g id="edge109" class="edge">
<title>Node46&#45;&gt;Node34</title>
<path fill="none" stroke="#191970" d="M1002.1759,-417.4991C1024.9586,-392.3866 1085.2768,-324.1568 1127,-261 1137.2502,-245.4842 1147.057,-226.7488 1153.8392,-212.9571"/>
<polygon fill="#191970" stroke="#191970" points="1157.0134,-214.4324 1158.2062,-203.9049 1150.7087,-211.3908 1157.0134,-214.4324"/>
</g>
<!-- Node46&#45;&gt;Node38 -->
<g id="edge110" class="edge">
<title>Node46&#45;&gt;Node38</title>
<path fill="none" stroke="#191970" d="M1069.1271,-417.5466C1086.191,-415.3546 1104.2106,-413.0703 1121,-411 1236.7596,-396.7257 1371.7288,-381.0437 1450.1588,-372.0263"/>
<polygon fill="#191970" stroke="#191970" points="1450.8389,-375.4713 1460.3741,-370.8528 1450.0399,-368.5171 1450.8389,-375.4713"/>
</g>
</g>
</svg>
