<?xml version="1.0" encoding="UTF-8" standalone="no"?>
<!DOCTYPE svg PUBLIC "-//W3C//DTD SVG 1.1//EN"
 "http://www.w3.org/Graphics/SVG/1.1/DTD/svg11.dtd">
<!-- Generated by graphviz version 2.40.1 (20161225.0304)
 -->
<!-- Title: /Users/kpenev/projects/git/poet/poet_src/Planet/PlanetZone.h Pages: 1 -->
<!--zoomable 401 -->
<svg id="main" version="1.1" xmlns="http://www.w3.org/2000/svg" xmlns:xlink="http://www.w3.org/1999/xlink" xml:space="preserve" onload="init(evt)">
<style type="text/css"><![CDATA[
.edge:hover path { stroke: red; }
.edge:hover polygon { stroke: red; fill: red; }
]]></style>
<script type="text/javascript"><![CDATA[
var edges = document.getElementsByTagName('g');
if (edges && edges.length) {
  for (var i=0;i<edges.length;i++) {
    if (edges[i].id.substr(0,4)=='edge') {
      edges[i].setAttribute('class','edge');
    }
  }
}
]]></script>
        <defs>
                <circle id="rim" cx="0" cy="0" r="7"/>
                <circle id="rim2" cx="0" cy="0" r="3.5"/>
                <g id="zoomPlus">
                        <use xlink:href="#rim" fill="#404040">
                                <set attributeName="fill" to="#808080" begin="zoomplus.mouseover" end="zoomplus.mouseout"/>
                        </use>
                        <path d="M-4,0h8M0,-4v8" fill="none" stroke="white" stroke-width="1.5" pointer-events="none"/>
                </g>
                <g id="zoomMin">
                        <use xlink:href="#rim" fill="#404040">
                                <set attributeName="fill" to="#808080" begin="zoomminus.mouseover" end="zoomminus.mouseout"/>
                        </use>
                        <path d="M-4,0h8" fill="none" stroke="white" stroke-width="1.5" pointer-events="none"/>
                </g>
                <g id="dirArrow">
                        <path fill="none" stroke="white" stroke-width="1.5" d="M0,-3.0v7 M-2.5,-0.5L0,-3.0L2.5,-0.5"/>
                </g>
               <g id="resetDef">
                       <use xlink:href="#rim2" fill="#404040">
                               <set attributeName="fill" to="#808080" begin="reset.mouseover" end="reset.mouseout"/>
                       </use>
               </g>
        </defs>

<script type="text/javascript">
var viewWidth = 1277;
var viewHeight = 401;
var sectionId = 'dynsection-1';
</script>
<script xlink:href="svgpan.js"/>
<svg id="graph" class="graph">
<g id="viewport">
<title>/Users/kpenev/projects/git/poet/poet_src/Planet/PlanetZone.h</title>
<polygon fill="#ffffff" stroke="transparent" points="-4,4 -4,-397 1272.8486,-397 1272.8486,4 -4,4"/>
<!-- Node47 -->
<g id="node1" class="node">
<title>Node47</title>
<polygon fill="#bfbfbf" stroke="#000000" points="578.3174,-348.5 578.3174,-392.5 723.7334,-392.5 723.7334,-348.5 578.3174,-348.5"/>
<text text-anchor="start" x="586.3174" y="-378.9" font-family="Helvetica,sans-Serif" font-size="12.00" fill="#000000">/Users/kpenev/projects</text>
<text text-anchor="start" x="586.3174" y="-366.9" font-family="Helvetica,sans-Serif" font-size="12.00" fill="#000000">/git/poet/poet_src/Planet</text>
<text text-anchor="middle" x="651.0254" y="-354.9" font-family="Helvetica,sans-Serif" font-size="12.00" fill="#000000">/PlanetZone.h</text>
</g>
<!-- Node48 -->
<g id="node2" class="node">
<title>Node48</title>
<g id="a_node2"><a xlink:href="Planet_8h.html" target="_top" xlink:title="Declares a class for planets that are always locked to the orbit. ">
<polygon fill="#ffffff" stroke="#000000" points="578.3174,-267.5 578.3174,-311.5 723.7334,-311.5 723.7334,-267.5 578.3174,-267.5"/>
<text text-anchor="start" x="586.3174" y="-297.9" font-family="Helvetica,sans-Serif" font-size="12.00" fill="#000000">/Users/kpenev/projects</text>
<text text-anchor="start" x="586.3174" y="-285.9" font-family="Helvetica,sans-Serif" font-size="12.00" fill="#000000">/git/poet/poet_src/Planet</text>
<text text-anchor="middle" x="651.0254" y="-273.9" font-family="Helvetica,sans-Serif" font-size="12.00" fill="#000000">/Planet.h</text>
</a>
</g>
</g>
<!-- Node47&#45;&gt;Node48 -->
<g id="edge1" class="edge">
<title>Node47&#45;&gt;Node48</title>
<path fill="none" stroke="#191970" d="M651.0254,-338.2457C651.0254,-329.3118 651.0254,-319.8188 651.0254,-311.6068"/>
<polygon fill="#191970" stroke="#191970" points="647.5255,-338.3664 651.0254,-348.3664 654.5255,-338.3664 647.5255,-338.3664"/>
</g>
<!-- Node49 -->
<g id="node3" class="node">
<title>Node49</title>
<g id="a_node3"><a xlink:href="Planet_2CInterface_8h.html" target="_top" xlink:title="Declare C&#45;style functions for working with LockedPlanet instances. ">
<polygon fill="#ffffff" stroke="#000000" points="289.3174,-180.5 289.3174,-224.5 434.7334,-224.5 434.7334,-180.5 289.3174,-180.5"/>
<text text-anchor="start" x="297.3174" y="-210.9" font-family="Helvetica,sans-Serif" font-size="12.00" fill="#000000">/Users/kpenev/projects</text>
<text text-anchor="start" x="297.3174" y="-198.9" font-family="Helvetica,sans-Serif" font-size="12.00" fill="#000000">/git/poet/poet_src/Planet</text>
<text text-anchor="middle" x="362.0254" y="-186.9" font-family="Helvetica,sans-Serif" font-size="12.00" fill="#000000">/CInterface.h</text>
</a>
</g>
</g>
<!-- Node48&#45;&gt;Node49 -->
<g id="edge2" class="edge">
<title>Node48&#45;&gt;Node49</title>
<path fill="none" stroke="#191970" d="M567.9243,-267.222C529.9875,-256.7427 484.5731,-243.7637 444.0254,-231 437.5562,-228.9636 430.8276,-226.7625 424.1307,-224.5175"/>
<polygon fill="#191970" stroke="#191970" points="567.3363,-270.6903 577.9066,-269.9695 569.194,-263.9412 567.3363,-270.6903"/>
</g>
<!-- Node54 -->
<g id="node8" class="node">
<title>Node54</title>
<g id="a_node8"><a xlink:href="testDifferentialEquations_8h.html" target="_top" xlink:title="Unit tests that check the differential equations for eccentricity and semimajor against analytic expr...">
<polygon fill="#ffffff" stroke="#000000" points="452.7598,-174.5 452.7598,-230.5 639.291,-230.5 639.291,-174.5 452.7598,-174.5"/>
<text text-anchor="start" x="460.7598" y="-216.9" font-family="Helvetica,sans-Serif" font-size="12.00" fill="#000000">/Users/kpenev/projects</text>
<text text-anchor="start" x="460.7598" y="-204.9" font-family="Helvetica,sans-Serif" font-size="12.00" fill="#000000">/git/poet/poet_src/unit</text>
<text text-anchor="start" x="460.7598" y="-192.9" font-family="Helvetica,sans-Serif" font-size="12.00" fill="#000000">_tests/testEvolve/testDifferential</text>
<text text-anchor="middle" x="546.0254" y="-180.9" font-family="Helvetica,sans-Serif" font-size="12.00" fill="#000000">Equations.h</text>
</a>
</g>
</g>
<!-- Node48&#45;&gt;Node54 -->
<g id="edge8" class="edge">
<title>Node48&#45;&gt;Node54</title>
<path fill="none" stroke="#191970" d="M616.3868,-260.7995C604.657,-251.0805 591.5766,-240.2424 579.9064,-230.5728"/>
<polygon fill="#191970" stroke="#191970" points="614.3245,-263.636 624.2578,-267.3211 618.7906,-258.2458 614.3245,-263.636"/>
</g>
<!-- Node57 -->
<g id="node11" class="node">
<title>Node57</title>
<g id="a_node11"><a xlink:href="testOrbitSolver_8h.html" target="_top" xlink:title="Declares the test suite that exercises the OrbitSolver class and some other clasess necessary to acco...">
<polygon fill="#ffffff" stroke="#000000" points="657.6484,-180.5 657.6484,-224.5 856.4023,-224.5 856.4023,-180.5 657.6484,-180.5"/>
<text text-anchor="start" x="665.6484" y="-210.9" font-family="Helvetica,sans-Serif" font-size="12.00" fill="#000000">/Users/kpenev/projects</text>
<text text-anchor="start" x="665.6484" y="-198.9" font-family="Helvetica,sans-Serif" font-size="12.00" fill="#000000">/git/poet/poet_src/unit</text>
<text text-anchor="middle" x="757.0254" y="-186.9" font-family="Helvetica,sans-Serif" font-size="12.00" fill="#000000">_tests/testEvolve/testOrbitSolver.h</text>
</a>
</g>
</g>
<!-- Node48&#45;&gt;Node57 -->
<g id="edge11" class="edge">
<title>Node48&#45;&gt;Node57</title>
<path fill="none" stroke="#191970" d="M685.797,-260.961C700.1804,-249.1558 716.6034,-235.6765 730.0522,-224.6384"/>
<polygon fill="#191970" stroke="#191970" points="683.5573,-258.2714 678.0479,-267.3211 687.9983,-263.6822 683.5573,-258.2714"/>
</g>
<!-- Node59 -->
<g id="node13" class="node">
<title>Node59</title>
<g id="a_node13"><a xlink:href="testTidalTorquePower_8h.html" target="_top" xlink:title="Declare a unit tests class that check the calculations of tidal torque and power. ...">
<polygon fill="#ffffff" stroke="#000000" points="874.2021,-174.5 874.2021,-230.5 1065.8486,-230.5 1065.8486,-174.5 874.2021,-174.5"/>
<text text-anchor="start" x="882.2021" y="-216.9" font-family="Helvetica,sans-Serif" font-size="12.00" fill="#000000">/Users/kpenev/projects</text>
<text text-anchor="start" x="882.2021" y="-204.9" font-family="Helvetica,sans-Serif" font-size="12.00" fill="#000000">/git/poet/poet_src/unit</text>
<text text-anchor="start" x="882.2021" y="-192.9" font-family="Helvetica,sans-Serif" font-size="12.00" fill="#000000">_tests/testEvolve/testTidalTorque</text>
<text text-anchor="middle" x="970.0254" y="-180.9" font-family="Helvetica,sans-Serif" font-size="12.00" fill="#000000">Power.h</text>
</a>
</g>
</g>
<!-- Node48&#45;&gt;Node59 -->
<g id="edge14" class="edge">
<title>Node48&#45;&gt;Node59</title>
<path fill="none" stroke="#191970" d="M733.6525,-266.9653C776.5645,-255.2621 829.2336,-240.8978 873.955,-228.701"/>
<polygon fill="#191970" stroke="#191970" points="732.5373,-263.6416 723.8106,-269.6495 734.3792,-270.3949 732.5373,-263.6416"/>
</g>
<!-- Node50 -->
<g id="node4" class="node">
<title>Node50</title>
<g id="a_node4"><a xlink:href="Evolve_2CInterface_8h.html" target="_top" xlink:title="Declare C&#45;style functions for accessing the functionality of the Evolve library. ">
<polygon fill="#ffffff" stroke="#000000" points="187.3213,-87.5 187.3213,-131.5 334.7295,-131.5 334.7295,-87.5 187.3213,-87.5"/>
<text text-anchor="start" x="195.3213" y="-117.9" font-family="Helvetica,sans-Serif" font-size="12.00" fill="#000000">/Users/kpenev/projects</text>
<text text-anchor="start" x="195.3213" y="-105.9" font-family="Helvetica,sans-Serif" font-size="12.00" fill="#000000">/git/poet/poet_src/Evolve</text>
<text text-anchor="middle" x="261.0254" y="-93.9" font-family="Helvetica,sans-Serif" font-size="12.00" fill="#000000">/CInterface.h</text>
</a>
</g>
</g>
<!-- Node49&#45;&gt;Node50 -->
<g id="edge3" class="edge">
<title>Node49&#45;&gt;Node50</title>
<path fill="none" stroke="#191970" d="M330.6764,-173.6341C315.9962,-160.1167 298.7814,-144.2655 285.1392,-131.7038"/>
<polygon fill="#191970" stroke="#191970" points="328.3626,-176.2613 338.0898,-180.4603 333.1042,-171.1118 328.3626,-176.2613"/>
</g>
<!-- Node52 -->
<g id="node6" class="node">
<title>Node52</title>
<g id="a_node6"><a xlink:href="Planet_2CInterface_8cpp.html" target="_top" xlink:title="The definitions of the functions declared in CInterface.h. ">
<polygon fill="#ffffff" stroke="#000000" points="321.3174,-.5 321.3174,-44.5 466.7334,-44.5 466.7334,-.5 321.3174,-.5"/>
<text text-anchor="start" x="329.3174" y="-30.9" font-family="Helvetica,sans-Serif" font-size="12.00" fill="#000000">/Users/kpenev/projects</text>
<text text-anchor="start" x="329.3174" y="-18.9" font-family="Helvetica,sans-Serif" font-size="12.00" fill="#000000">/git/poet/poet_src/Planet</text>
<text text-anchor="middle" x="394.0254" y="-6.9" font-family="Helvetica,sans-Serif" font-size="12.00" fill="#000000">/CInterface.cpp</text>
</a>
</g>
</g>
<!-- Node49&#45;&gt;Node52 -->
<g id="edge7" class="edge">
<title>Node49&#45;&gt;Node52</title>
<path fill="none" stroke="#191970" d="M367.7338,-170.3901C374.1686,-134.1943 384.4617,-76.296 390.0695,-44.7521"/>
<polygon fill="#191970" stroke="#191970" points="364.2537,-169.9702 365.9492,-180.4285 371.1456,-171.1955 364.2537,-169.9702"/>
</g>
<!-- Node51 -->
<g id="node5" class="node">
<title>Node51</title>
<g id="a_node5"><a xlink:href="Evolve_2CInterface_8cpp.html" target="_top" xlink:title="The definitions of the functions declared in CInterface.h. ">
<polygon fill="#ffffff" stroke="#000000" points="156.3213,-.5 156.3213,-44.5 303.7295,-44.5 303.7295,-.5 156.3213,-.5"/>
<text text-anchor="start" x="164.3213" y="-30.9" font-family="Helvetica,sans-Serif" font-size="12.00" fill="#000000">/Users/kpenev/projects</text>
<text text-anchor="start" x="164.3213" y="-18.9" font-family="Helvetica,sans-Serif" font-size="12.00" fill="#000000">/git/poet/poet_src/Evolve</text>
<text text-anchor="middle" x="230.0254" y="-6.9" font-family="Helvetica,sans-Serif" font-size="12.00" fill="#000000">/CInterface.cpp</text>
</a>
</g>
</g>
<!-- Node50&#45;&gt;Node51 -->
<g id="edge4" class="edge">
<title>Node50&#45;&gt;Node51</title>
<path fill="none" stroke="#191970" d="M249.5962,-77.4246C245.6969,-66.4812 241.4276,-54.4996 237.8743,-44.5276"/>
<polygon fill="#191970" stroke="#191970" points="246.3886,-78.8503 253.0421,-87.0953 252.9825,-76.5007 246.3886,-78.8503"/>
</g>
<!-- Node50&#45;&gt;Node52 -->
<g id="edge5" class="edge">
<title>Node50&#45;&gt;Node52</title>
<path fill="none" stroke="#191970" d="M303.654,-81.6151C321.9366,-69.6558 342.9947,-55.881 360.1817,-44.6384"/>
<polygon fill="#191970" stroke="#191970" points="301.3837,-78.9179 294.931,-87.3211 305.2156,-84.7759 301.3837,-78.9179"/>
</g>
<!-- Node53 -->
<g id="node7" class="node">
<title>Node53</title>
<g id="a_node7"><a xlink:href="Star_2CInterface_8cpp.html" target="_top" xlink:title="The definitions of the functions declared in CInterface.h. ">
<polygon fill="#ffffff" stroke="#000000" points="0,-.5 0,-44.5 138.0508,-44.5 138.0508,-.5 0,-.5"/>
<text text-anchor="start" x="8" y="-30.9" font-family="Helvetica,sans-Serif" font-size="12.00" fill="#000000">/Users/kpenev/projects</text>
<text text-anchor="start" x="8" y="-18.9" font-family="Helvetica,sans-Serif" font-size="12.00" fill="#000000">/git/poet/poet_src/Star</text>
<text text-anchor="middle" x="69.0254" y="-6.9" font-family="Helvetica,sans-Serif" font-size="12.00" fill="#000000">/CInterface.cpp</text>
</a>
</g>
</g>
<!-- Node50&#45;&gt;Node53 -->
<g id="edge6" class="edge">
<title>Node50&#45;&gt;Node53</title>
<path fill="none" stroke="#191970" d="M202.7047,-83.0734C175.59,-70.7871 143.7087,-56.3409 117.8825,-44.6384"/>
<polygon fill="#191970" stroke="#191970" points="201.5258,-86.3817 212.0789,-87.3211 204.4149,-80.0058 201.5258,-86.3817"/>
</g>
<!-- Node55 -->
<g id="node9" class="node">
<title>Node55</title>
<g id="a_node9"><a xlink:href="testDifferentialEquations_8cpp.html" target="_top" xlink:title="Implement the non&#45;inline methods of test_DifferentialEquations. ">
<polygon fill="#ffffff" stroke="#000000" points="436.7598,-81.5 436.7598,-137.5 623.291,-137.5 623.291,-81.5 436.7598,-81.5"/>
<text text-anchor="start" x="444.7598" y="-123.9" font-family="Helvetica,sans-Serif" font-size="12.00" fill="#000000">/Users/kpenev/projects</text>
<text text-anchor="start" x="444.7598" y="-111.9" font-family="Helvetica,sans-Serif" font-size="12.00" fill="#000000">/git/poet/poet_src/unit</text>
<text text-anchor="start" x="444.7598" y="-99.9" font-family="Helvetica,sans-Serif" font-size="12.00" fill="#000000">_tests/testEvolve/testDifferential</text>
<text text-anchor="middle" x="530.0254" y="-87.9" font-family="Helvetica,sans-Serif" font-size="12.00" fill="#000000">Equations.cpp</text>
</a>
</g>
</g>
<!-- Node54&#45;&gt;Node55 -->
<g id="edge9" class="edge">
<title>Node54&#45;&gt;Node55</title>
<path fill="none" stroke="#191970" d="M539.4789,-164.4485C537.9312,-155.4526 536.3084,-146.0203 534.8529,-137.5597"/>
<polygon fill="#191970" stroke="#191970" points="536.0365,-165.0828 541.1814,-174.3446 542.9352,-163.8959 536.0365,-165.0828"/>
</g>
<!-- Node56 -->
<g id="node10" class="node">
<title>Node56</title>
<g id="a_node10"><a xlink:href="testEvolve_8cpp_source.html" target="_top" xlink:title="/Users/kpenev/projects\l/git/poet/poet_src/unit\l_tests/testEvolve/testEvolve.cpp">
<polygon fill="#ffffff" stroke="#000000" points="640.9834,-87.5 640.9834,-131.5 829.0674,-131.5 829.0674,-87.5 640.9834,-87.5"/>
<text text-anchor="start" x="648.9834" y="-117.9" font-family="Helvetica,sans-Serif" font-size="12.00" fill="#000000">/Users/kpenev/projects</text>
<text text-anchor="start" x="648.9834" y="-105.9" font-family="Helvetica,sans-Serif" font-size="12.00" fill="#000000">/git/poet/poet_src/unit</text>
<text text-anchor="middle" x="735.0254" y="-93.9" font-family="Helvetica,sans-Serif" font-size="12.00" fill="#000000">_tests/testEvolve/testEvolve.cpp</text>
</a>
</g>
</g>
<!-- Node54&#45;&gt;Node56 -->
<g id="edge10" class="edge">
<title>Node54&#45;&gt;Node56</title>
<path fill="none" stroke="#191970" d="M611.9862,-170.0431C637.8373,-157.3227 666.8329,-143.0551 690.1803,-131.5666"/>
<polygon fill="#191970" stroke="#191970" points="610.4152,-166.9153 602.9879,-174.4708 613.5058,-173.1961 610.4152,-166.9153"/>
</g>
<!-- Node57&#45;&gt;Node56 -->
<g id="edge12" class="edge">
<title>Node57&#45;&gt;Node56</title>
<path fill="none" stroke="#191970" d="M749.4844,-170.6223C746.453,-157.8076 743.0314,-143.3435 740.2779,-131.7038"/>
<polygon fill="#191970" stroke="#191970" points="746.1036,-171.5346 751.8117,-180.4603 752.9156,-169.9231 746.1036,-171.5346"/>
</g>
<!-- Node58 -->
<g id="node12" class="node">
<title>Node58</title>
<g id="a_node12"><a xlink:href="testOrbitSolver_8cpp.html" target="_top" xlink:title="Defines some of the methods of the test suite that exercises the OrbitSolver class and the other clas...">
<polygon fill="#ffffff" stroke="#000000" points="847.3115,-87.5 847.3115,-131.5 1058.7393,-131.5 1058.7393,-87.5 847.3115,-87.5"/>
<text text-anchor="start" x="855.3115" y="-117.9" font-family="Helvetica,sans-Serif" font-size="12.00" fill="#000000">/Users/kpenev/projects</text>
<text text-anchor="start" x="855.3115" y="-105.9" font-family="Helvetica,sans-Serif" font-size="12.00" fill="#000000">/git/poet/poet_src/unit</text>
<text text-anchor="middle" x="953.0254" y="-93.9" font-family="Helvetica,sans-Serif" font-size="12.00" fill="#000000">_tests/testEvolve/testOrbitSolver.cpp</text>
</a>
</g>
</g>
<!-- Node57&#45;&gt;Node58 -->
<g id="edge13" class="edge">
<title>Node57&#45;&gt;Node58</title>
<path fill="none" stroke="#191970" d="M812.8545,-176.0097C842.4881,-161.9488 878.4785,-144.8717 906.5703,-131.5425"/>
<polygon fill="#191970" stroke="#191970" points="811.0088,-173.0113 803.4747,-180.4603 814.0096,-179.3355 811.0088,-173.0113"/>
</g>
<!-- Node59&#45;&gt;Node56 -->
<g id="edge15" class="edge">
<title>Node59&#45;&gt;Node56</title>
<path fill="none" stroke="#191970" d="M889.6913,-170.7082C857.1293,-157.822 820.3221,-143.2557 790.7852,-131.5666"/>
<polygon fill="#191970" stroke="#191970" points="888.6127,-174.0454 899.199,-174.4708 891.1885,-167.5366 888.6127,-174.0454"/>
</g>
<!-- Node60 -->
<g id="node14" class="node">
<title>Node60</title>
<g id="a_node14"><a xlink:href="testTidalTorquePower_8cpp.html" target="_top" xlink:title="Define the non&#45;inline methods of test_TidalTorquePower and actually run the tests if compiled in stan...">
<polygon fill="#ffffff" stroke="#000000" points="1077.2021,-81.5 1077.2021,-137.5 1268.8486,-137.5 1268.8486,-81.5 1077.2021,-81.5"/>
<text text-anchor="start" x="1085.2021" y="-123.9" font-family="Helvetica,sans-Serif" font-size="12.00" fill="#000000">/Users/kpenev/projects</text>
<text text-anchor="start" x="1085.2021" y="-111.9" font-family="Helvetica,sans-Serif" font-size="12.00" fill="#000000">/git/poet/poet_src/unit</text>
<text text-anchor="start" x="1085.2021" y="-99.9" font-family="Helvetica,sans-Serif" font-size="12.00" fill="#000000">_tests/testEvolve/testTidalTorque</text>
<text text-anchor="middle" x="1173.0254" y="-87.9" font-family="Helvetica,sans-Serif" font-size="12.00" fill="#000000">Power.cpp</text>
</a>
</g>
</g>
<!-- Node59&#45;&gt;Node60 -->
<g id="edge16" class="edge">
<title>Node59&#45;&gt;Node60</title>
<path fill="none" stroke="#191970" d="M1040.308,-170.3016C1063.5132,-159.6706 1089.1301,-147.9348 1111.6184,-137.6323"/>
<polygon fill="#191970" stroke="#191970" points="1038.841,-167.1238 1031.2074,-174.4708 1041.7565,-173.4877 1038.841,-167.1238"/>
</g>
</g>
</svg>
        <g id="navigator" transform="translate(0 0)" fill="#404254">
                <rect fill="#f2f5e9" fill-opacity="0.5" stroke="#606060" stroke-width=".5" x="0" y="0" width="60" height="60"/>
                <use id="zoomplus" xlink:href="#zoomPlus" x="17" y="9" onmousedown="handleZoom(evt,'in')"/>
                <use id="zoomminus" xlink:href="#zoomMin" x="42" y="9" onmousedown="handleZoom(evt,'out')"/>
                <use id="reset" xlink:href="#resetDef" x="30" y="36" onmousedown="handleReset()"/>
                <g id="arrowUp" xlink:href="#dirArrow" transform="translate(30 24)" onmousedown="handlePan(0,-1)">
                  <use xlink:href="#rim" fill="#404040">
                        <set attributeName="fill" to="#808080" begin="arrowUp.mouseover" end="arrowUp.mouseout"/>
                  </use>
                  <path fill="none" stroke="white" stroke-width="1.5" d="M0,-3.0v7 M-2.5,-0.5L0,-3.0L2.5,-0.5"/>
                </g>
                <g id="arrowRight" xlink:href="#dirArrow" transform="rotate(90) translate(36 -43)" onmousedown="handlePan(1,0)">
                  <use xlink:href="#rim" fill="#404040">
                        <set attributeName="fill" to="#808080" begin="arrowRight.mouseover" end="arrowRight.mouseout"/>
                  </use>
                  <path fill="none" stroke="white" stroke-width="1.5" d="M0,-3.0v7 M-2.5,-0.5L0,-3.0L2.5,-0.5"/>
                </g>
                <g id="arrowDown" xlink:href="#dirArrow" transform="rotate(180) translate(-30 -48)" onmousedown="handlePan(0,1)">
                  <use xlink:href="#rim" fill="#404040">
                        <set attributeName="fill" to="#808080" begin="arrowDown.mouseover" end="arrowDown.mouseout"/>
                  </use>
                  <path fill="none" stroke="white" stroke-width="1.5" d="M0,-3.0v7 M-2.5,-0.5L0,-3.0L2.5,-0.5"/>
                </g>
                <g id="arrowLeft" xlink:href="#dirArrow" transform="rotate(270) translate(-36 17)" onmousedown="handlePan(-1,0)">
                  <use xlink:href="#rim" fill="#404040">
                        <set attributeName="fill" to="#808080" begin="arrowLeft.mouseover" end="arrowLeft.mouseout"/>
                  </use>
                  <path fill="none" stroke="white" stroke-width="1.5" d="M0,-3.0v7 M-2.5,-0.5L0,-3.0L2.5,-0.5"/>
                </g>
        </g>
        <svg viewBox="0 0 15 15" width="100%" height="30px" preserveAspectRatio="xMaxYMin meet">
         <g id="arrow_out" transform="scale(0.3 0.3)">
          <a xlink:href="PlanetZone_8h__dep__incl_org.svg" target="_base">
           <rect id="button" ry="5" rx="5" y="6" x="6" height="38" width="38"
                fill="#f2f5e9" fill-opacity="0.5" stroke="#606060" stroke-width="1.0"/>
           <path id="arrow"
             d="M 11.500037,31.436501 C 11.940474,20.09759 22.043105,11.32322 32.158766,21.979434 L 37.068811,17.246167 C 37.068811,17.246167 37.088388,32 37.088388,32 L 22.160133,31.978069 C 22.160133,31.978069 26.997745,27.140456 26.997745,27.140456 C 18.528582,18.264221 13.291696,25.230495 11.500037,31.436501 z"
             style="fill:#404040;"/>
          </a>
         </g>
        </svg>
</svg>
