<?xml version="1.0" encoding="UTF-8" standalone="no"?>
<!DOCTYPE svg PUBLIC "-//W3C//DTD SVG 1.1//EN"
 "http://www.w3.org/Graphics/SVG/1.1/DTD/svg11.dtd">
<!-- Generated by graphviz version 2.40.1 (20161225.0304)
 -->
<!-- Title: /home/kpenev/projects/git/poet/poet_src/Planet/CInterface.h Pages: 1 -->
<svg width="473pt" height="224pt"
 viewBox="0.00 0.00 473.00 224.00" xmlns="http://www.w3.org/2000/svg" xmlns:xlink="http://www.w3.org/1999/xlink">
<g id="graph0" class="graph" transform="scale(1 1) rotate(0) translate(4 220)">
<title>/home/kpenev/projects/git/poet/poet_src/Planet/CInterface.h</title>
<polygon fill="#ffffff" stroke="transparent" points="-4,4 -4,-220 469,-220 469,4 -4,4"/>
<!-- Node50 -->
<g id="node1" class="node">
<title>Node50</title>
<polygon fill="#bfbfbf" stroke="#000000" points="240,-168.5 240,-215.5 385,-215.5 385,-168.5 240,-168.5"/>
<text text-anchor="start" x="248" y="-201.9" font-family="Helvetica,sans-Serif" font-size="12.00" fill="#000000">/home/kpenev/projects</text>
<text text-anchor="start" x="248" y="-188.9" font-family="Helvetica,sans-Serif" font-size="12.00" fill="#000000">/git/poet/poet_src/Planet</text>
<text text-anchor="middle" x="312.5" y="-175.9" font-family="Helvetica,sans-Serif" font-size="12.00" fill="#000000">/CInterface.h</text>
</g>
<!-- Node51 -->
<g id="node2" class="node">
<title>Node51</title>
<g id="a_node2"><a xlink:href="Evolve_2CInterface_8h.html" target="_top" xlink:title="Declare C&#45;style functions for accessing the functionality of the Evolve library. ">
<polygon fill="#ffffff" stroke="#000000" points="188,-84.5 188,-131.5 335,-131.5 335,-84.5 188,-84.5"/>
<text text-anchor="start" x="196" y="-117.9" font-family="Helvetica,sans-Serif" font-size="12.00" fill="#000000">/home/kpenev/projects</text>
<text text-anchor="start" x="196" y="-104.9" font-family="Helvetica,sans-Serif" font-size="12.00" fill="#000000">/git/poet/poet_src/Evolve</text>
<text text-anchor="middle" x="261.5" y="-91.9" font-family="Helvetica,sans-Serif" font-size="12.00" fill="#000000">/CInterface.h</text>
</a>
</g>
</g>
<!-- Node50&#45;&gt;Node51 -->
<g id="edge1" class="edge">
<title>Node50&#45;&gt;Node51</title>
<path fill="none" stroke="#191970" d="M292.773,-159.5084C287.1308,-150.2154 281.0907,-140.267 275.8378,-131.6152"/>
<polygon fill="#191970" stroke="#191970" points="289.8403,-161.4222 298.0219,-168.1537 295.8238,-157.7893 289.8403,-161.4222"/>
</g>
<!-- Node53 -->
<g id="node4" class="node">
<title>Node53</title>
<g id="a_node4"><a xlink:href="Planet_2CInterface_8cpp.html" target="_top" xlink:title="The definitions of the functions declared in CInterface.h. ">
<polygon fill="#ffffff" stroke="#000000" points="320,-.5 320,-47.5 465,-47.5 465,-.5 320,-.5"/>
<text text-anchor="start" x="328" y="-33.9" font-family="Helvetica,sans-Serif" font-size="12.00" fill="#000000">/home/kpenev/projects</text>
<text text-anchor="start" x="328" y="-20.9" font-family="Helvetica,sans-Serif" font-size="12.00" fill="#000000">/git/poet/poet_src/Planet</text>
<text text-anchor="middle" x="392.5" y="-7.9" font-family="Helvetica,sans-Serif" font-size="12.00" fill="#000000">/CInterface.cpp</text>
</a>
</g>
</g>
<!-- Node50&#45;&gt;Node53 -->
<g id="edge5" class="edge">
<title>Node50&#45;&gt;Node53</title>
<path fill="none" stroke="#191970" d="M330.4325,-159.4C335.1378,-150.5733 340.1185,-140.9764 344.5,-132 358.4505,-103.4194 373.1043,-69.8561 382.4955,-47.8213"/>
<polygon fill="#191970" stroke="#191970" points="327.3208,-157.7966 325.6655,-168.2614 333.4854,-161.113 327.3208,-157.7966"/>
</g>
<!-- Node52 -->
<g id="node3" class="node">
<title>Node52</title>
<g id="a_node3"><a xlink:href="Evolve_2CInterface_8cpp.html" target="_top" xlink:title="The definitions of the functions declared in CInterface.h. ">
<polygon fill="#ffffff" stroke="#000000" points="0,-.5 0,-47.5 147,-47.5 147,-.5 0,-.5"/>
<text text-anchor="start" x="8" y="-33.9" font-family="Helvetica,sans-Serif" font-size="12.00" fill="#000000">/home/kpenev/projects</text>
<text text-anchor="start" x="8" y="-20.9" font-family="Helvetica,sans-Serif" font-size="12.00" fill="#000000">/git/poet/poet_src/Evolve</text>
<text text-anchor="middle" x="73.5" y="-7.9" font-family="Helvetica,sans-Serif" font-size="12.00" fill="#000000">/CInterface.cpp</text>
</a>
</g>
</g>
<!-- Node51&#45;&gt;Node52 -->
<g id="edge2" class="edge">
<title>Node51&#45;&gt;Node52</title>
<path fill="none" stroke="#191970" d="M199.5943,-80.34C175.8177,-69.7164 148.9278,-57.7018 126.1058,-47.5047"/>
<polygon fill="#191970" stroke="#191970" points="198.3236,-83.6057 208.8815,-84.4896 201.1792,-77.2146 198.3236,-83.6057"/>
</g>
<!-- Node51&#45;&gt;Node53 -->
<g id="edge3" class="edge">
<title>Node51&#45;&gt;Node53</title>
<path fill="none" stroke="#191970" d="M306.9436,-78.8606C322.8011,-68.6924 340.3944,-57.4113 355.4832,-47.736"/>
<polygon fill="#191970" stroke="#191970" points="304.8682,-76.0336 298.3394,-84.3778 308.6467,-81.9262 304.8682,-76.0336"/>
</g>
<!-- Node54 -->
<g id="node5" class="node">
<title>Node54</title>
<g id="a_node5"><a xlink:href="Star_2CInterface_8cpp.html" target="_top" xlink:title="The definitions of the functions declared in CInterface.h. ">
<polygon fill="#ffffff" stroke="#000000" points="165,-.5 165,-47.5 302,-47.5 302,-.5 165,-.5"/>
<text text-anchor="start" x="173" y="-33.9" font-family="Helvetica,sans-Serif" font-size="12.00" fill="#000000">/home/kpenev/projects</text>
<text text-anchor="start" x="173" y="-20.9" font-family="Helvetica,sans-Serif" font-size="12.00" fill="#000000">/git/poet/poet_src/Star</text>
<text text-anchor="middle" x="233.5" y="-7.9" font-family="Helvetica,sans-Serif" font-size="12.00" fill="#000000">/CInterface.cpp</text>
</a>
</g>
</g>
<!-- Node51&#45;&gt;Node54 -->
<g id="edge4" class="edge">
<title>Node51&#45;&gt;Node54</title>
<path fill="none" stroke="#191970" d="M250.3815,-74.6444C247.3671,-65.6013 244.1665,-55.9994 241.3717,-47.6152"/>
<polygon fill="#191970" stroke="#191970" points="247.0685,-75.7736 253.5512,-84.1537 253.7093,-73.56 247.0685,-75.7736"/>
</g>
</g>
</svg>
