<?xml version="1.0" encoding="UTF-8" standalone="no"?>
<!DOCTYPE svg PUBLIC "-//W3C//DTD SVG 1.1//EN"
 "http://www.w3.org/Graphics/SVG/1.1/DTD/svg11.dtd">
<!-- Generated by graphviz version 2.40.1 (20161225.0304)
 -->
<!-- Title: /home/kpenev/projects/git/poet/poet_src/Planet/Planet.h Pages: 1 -->
<svg width="1405pt" height="334pt"
 viewBox="0.00 0.00 1405.00 334.00" xmlns="http://www.w3.org/2000/svg" xmlns:xlink="http://www.w3.org/1999/xlink">
<g id="graph0" class="graph" transform="scale(1 1) rotate(0) translate(4 330)">
<title>/home/kpenev/projects/git/poet/poet_src/Planet/Planet.h</title>
<polygon fill="#ffffff" stroke="transparent" points="-4,4 -4,-330 1401,-330 1401,4 -4,4"/>
<!-- Node49 -->
<g id="node1" class="node">
<title>Node49</title>
<polygon fill="#bfbfbf" stroke="#000000" points="554,-278.5 554,-325.5 699,-325.5 699,-278.5 554,-278.5"/>
<text text-anchor="start" x="562" y="-311.9" font-family="Helvetica,sans-Serif" font-size="12.00" fill="#000000">/home/kpenev/projects</text>
<text text-anchor="start" x="562" y="-298.9" font-family="Helvetica,sans-Serif" font-size="12.00" fill="#000000">/git/poet/poet_src/Planet</text>
<text text-anchor="middle" x="626.5" y="-285.9" font-family="Helvetica,sans-Serif" font-size="12.00" fill="#000000">/Planet.h</text>
</g>
<!-- Node50 -->
<g id="node2" class="node">
<title>Node50</title>
<g id="a_node2"><a xlink:href="Planet_2CInterface_8h.html" target="_top" xlink:title="Declare C&#45;style functions for working with LockedPlanet instances. ">
<polygon fill="#ffffff" stroke="#000000" points="148,-188 148,-235 293,-235 293,-188 148,-188"/>
<text text-anchor="start" x="156" y="-221.4" font-family="Helvetica,sans-Serif" font-size="12.00" fill="#000000">/home/kpenev/projects</text>
<text text-anchor="start" x="156" y="-208.4" font-family="Helvetica,sans-Serif" font-size="12.00" fill="#000000">/git/poet/poet_src/Planet</text>
<text text-anchor="middle" x="220.5" y="-195.4" font-family="Helvetica,sans-Serif" font-size="12.00" fill="#000000">/CInterface.h</text>
</a>
</g>
</g>
<!-- Node49&#45;&gt;Node50 -->
<g id="edge1" class="edge">
<title>Node49&#45;&gt;Node50</title>
<path fill="none" stroke="#191970" d="M543.8262,-288.9721C480.5808,-278.315 391.4466,-261.801 314.5,-242 306.4414,-239.9262 298.0624,-237.5435 289.7735,-235.0434"/>
<polygon fill="#191970" stroke="#191970" points="543.3082,-292.434 553.7486,-290.6318 544.4631,-285.5299 543.3082,-292.434"/>
</g>
<!-- Node55 -->
<g id="node7" class="node">
<title>Node55</title>
<g id="a_node7"><a xlink:href="testDifferentialEquations_8h.html" target="_top" xlink:title="Unit tests that check the differential equations for eccentricity and semimajor against analytic expr...">
<polygon fill="#ffffff" stroke="#000000" points="323.5,-181.5 323.5,-241.5 509.5,-241.5 509.5,-181.5 323.5,-181.5"/>
<text text-anchor="start" x="331.5" y="-227.9" font-family="Helvetica,sans-Serif" font-size="12.00" fill="#000000">/home/kpenev/projects</text>
<text text-anchor="start" x="331.5" y="-214.9" font-family="Helvetica,sans-Serif" font-size="12.00" fill="#000000">/git/poet/poet_src/unit</text>
<text text-anchor="start" x="331.5" y="-201.9" font-family="Helvetica,sans-Serif" font-size="12.00" fill="#000000">_tests/testEvolve/testDifferential</text>
<text text-anchor="middle" x="416.5" y="-188.9" font-family="Helvetica,sans-Serif" font-size="12.00" fill="#000000">Equations.h</text>
</a>
</g>
</g>
<!-- Node49&#45;&gt;Node55 -->
<g id="edge7" class="edge">
<title>Node49&#45;&gt;Node55</title>
<path fill="none" stroke="#191970" d="M562.4775,-274.4094C538.394,-264.0305 510.899,-252.1815 486.3141,-241.5866"/>
<polygon fill="#191970" stroke="#191970" points="561.3045,-277.715 571.8732,-278.4584 564.0749,-271.2865 561.3045,-277.715"/>
</g>
<!-- Node58 -->
<g id="node10" class="node">
<title>Node58</title>
<g id="a_node10"><a xlink:href="testOrbitSolver_8h.html" target="_top" xlink:title="Declares the test suite that exercises the OrbitSolver class and some other clasess necessary to acco...">
<polygon fill="#ffffff" stroke="#000000" points="527.5,-188 527.5,-235 725.5,-235 725.5,-188 527.5,-188"/>
<text text-anchor="start" x="535.5" y="-221.4" font-family="Helvetica,sans-Serif" font-size="12.00" fill="#000000">/home/kpenev/projects</text>
<text text-anchor="start" x="535.5" y="-208.4" font-family="Helvetica,sans-Serif" font-size="12.00" fill="#000000">/git/poet/poet_src/unit</text>
<text text-anchor="middle" x="626.5" y="-195.4" font-family="Helvetica,sans-Serif" font-size="12.00" fill="#000000">_tests/testEvolve/testOrbitSolver.h</text>
</a>
</g>
</g>
<!-- Node49&#45;&gt;Node58 -->
<g id="edge10" class="edge">
<title>Node49&#45;&gt;Node58</title>
<path fill="none" stroke="#191970" d="M626.5,-268.0822C626.5,-257.1065 626.5,-245.1799 626.5,-235.119"/>
<polygon fill="#191970" stroke="#191970" points="623.0001,-268.2222 626.5,-278.2222 630.0001,-268.2222 623.0001,-268.2222"/>
</g>
<!-- Node60 -->
<g id="node12" class="node">
<title>Node60</title>
<g id="a_node12"><a xlink:href="testTidalTorquePower_8h.html" target="_top" xlink:title="Declare a unit tests class that check the calculations of tidal torque and power. ...">
<polygon fill="#ffffff" stroke="#000000" points="743.5,-181.5 743.5,-241.5 937.5,-241.5 937.5,-181.5 743.5,-181.5"/>
<text text-anchor="start" x="751.5" y="-227.9" font-family="Helvetica,sans-Serif" font-size="12.00" fill="#000000">/home/kpenev/projects</text>
<text text-anchor="start" x="751.5" y="-214.9" font-family="Helvetica,sans-Serif" font-size="12.00" fill="#000000">/git/poet/poet_src/unit</text>
<text text-anchor="start" x="751.5" y="-201.9" font-family="Helvetica,sans-Serif" font-size="12.00" fill="#000000">_tests/testEvolve/testTidalTorque</text>
<text text-anchor="middle" x="840.5" y="-188.9" font-family="Helvetica,sans-Serif" font-size="12.00" fill="#000000">Power.h</text>
</a>
</g>
</g>
<!-- Node49&#45;&gt;Node60 -->
<g id="edge13" class="edge">
<title>Node49&#45;&gt;Node60</title>
<path fill="none" stroke="#191970" d="M691.4164,-274.547C716.0362,-264.1354 744.192,-252.2284 769.3561,-241.5866"/>
<polygon fill="#191970" stroke="#191970" points="690.0143,-271.3398 682.1673,-278.4584 692.7409,-277.787 690.0143,-271.3398"/>
</g>
<!-- Node62 -->
<g id="node14" class="node">
<title>Node62</title>
<g id="a_node14"><a xlink:href="testLockMonitoring_8h.html" target="_top" xlink:title="Unit tests that check the machinery for monitoring potential tidal locks. ">
<polygon fill="#ffffff" stroke="#000000" points="955.5,-188 955.5,-235 1175.5,-235 1175.5,-188 955.5,-188"/>
<text text-anchor="start" x="963.5" y="-221.4" font-family="Helvetica,sans-Serif" font-size="12.00" fill="#000000">/home/kpenev/projects</text>
<text text-anchor="start" x="963.5" y="-208.4" font-family="Helvetica,sans-Serif" font-size="12.00" fill="#000000">/git/poet/poet_src/unit</text>
<text text-anchor="middle" x="1065.5" y="-195.4" font-family="Helvetica,sans-Serif" font-size="12.00" fill="#000000">_tests/testEvolve/testLockMonitoring.h</text>
</a>
</g>
</g>
<!-- Node49&#45;&gt;Node62 -->
<g id="edge16" class="edge">
<title>Node49&#45;&gt;Node62</title>
<path fill="none" stroke="#191970" d="M709.3732,-287.9986C774.1563,-276.683 866.3555,-259.7641 946.5,-242 956.1823,-239.8539 966.2734,-237.4812 976.3054,-235.0349"/>
<polygon fill="#191970" stroke="#191970" points="708.4692,-284.6032 699.2173,-289.7658 709.6693,-291.4996 708.4692,-284.6032"/>
</g>
<!-- Node51 -->
<g id="node3" class="node">
<title>Node51</title>
<g id="a_node3"><a xlink:href="Evolve_2CInterface_8h.html" target="_top" xlink:title="Declare C&#45;style functions for accessing the functionality of the Evolve library. ">
<polygon fill="#ffffff" stroke="#000000" points="147,-91 147,-138 294,-138 294,-91 147,-91"/>
<text text-anchor="start" x="155" y="-124.4" font-family="Helvetica,sans-Serif" font-size="12.00" fill="#000000">/home/kpenev/projects</text>
<text text-anchor="start" x="155" y="-111.4" font-family="Helvetica,sans-Serif" font-size="12.00" fill="#000000">/git/poet/poet_src/Evolve</text>
<text text-anchor="middle" x="220.5" y="-98.4" font-family="Helvetica,sans-Serif" font-size="12.00" fill="#000000">/CInterface.h</text>
</a>
</g>
</g>
<!-- Node50&#45;&gt;Node51 -->
<g id="edge2" class="edge">
<title>Node50&#45;&gt;Node51</title>
<path fill="none" stroke="#191970" d="M220.5,-177.5189C220.5,-164.536 220.5,-150.0241 220.5,-138.2017"/>
<polygon fill="#191970" stroke="#191970" points="217.0001,-177.5224 220.5,-187.5225 224.0001,-177.5225 217.0001,-177.5224"/>
</g>
<!-- Node53 -->
<g id="node5" class="node">
<title>Node53</title>
<g id="a_node5"><a xlink:href="Planet_2CInterface_8cpp.html" target="_top" xlink:title="The definitions of the functions declared in CInterface.h. ">
<polygon fill="#ffffff" stroke="#000000" points="0,-.5 0,-47.5 145,-47.5 145,-.5 0,-.5"/>
<text text-anchor="start" x="8" y="-33.9" font-family="Helvetica,sans-Serif" font-size="12.00" fill="#000000">/home/kpenev/projects</text>
<text text-anchor="start" x="8" y="-20.9" font-family="Helvetica,sans-Serif" font-size="12.00" fill="#000000">/git/poet/poet_src/Planet</text>
<text text-anchor="middle" x="72.5" y="-7.9" font-family="Helvetica,sans-Serif" font-size="12.00" fill="#000000">/CInterface.cpp</text>
</a>
</g>
</g>
<!-- Node50&#45;&gt;Node53 -->
<g id="edge6" class="edge">
<title>Node50&#45;&gt;Node53</title>
<path fill="none" stroke="#191970" d="M176.3671,-181.4758C162.8655,-170.9578 148.6513,-158.3979 137.5,-145 112.3294,-114.7584 92.6029,-73.2342 81.7592,-47.5344"/>
<polygon fill="#191970" stroke="#191970" points="174.5637,-184.5006 184.6479,-187.7501 178.7911,-178.9212 174.5637,-184.5006"/>
</g>
<!-- Node52 -->
<g id="node4" class="node">
<title>Node52</title>
<g id="a_node4"><a xlink:href="Evolve_2CInterface_8cpp.html" target="_top" xlink:title="The definitions of the functions declared in CInterface.h. ">
<polygon fill="#ffffff" stroke="#000000" points="163,-.5 163,-47.5 310,-47.5 310,-.5 163,-.5"/>
<text text-anchor="start" x="171" y="-33.9" font-family="Helvetica,sans-Serif" font-size="12.00" fill="#000000">/home/kpenev/projects</text>
<text text-anchor="start" x="171" y="-20.9" font-family="Helvetica,sans-Serif" font-size="12.00" fill="#000000">/git/poet/poet_src/Evolve</text>
<text text-anchor="middle" x="236.5" y="-7.9" font-family="Helvetica,sans-Serif" font-size="12.00" fill="#000000">/CInterface.cpp</text>
</a>
</g>
</g>
<!-- Node51&#45;&gt;Node52 -->
<g id="edge3" class="edge">
<title>Node51&#45;&gt;Node52</title>
<path fill="none" stroke="#191970" d="M226.4965,-80.5822C228.437,-69.6065 230.5455,-57.6799 232.3243,-47.619"/>
<polygon fill="#191970" stroke="#191970" points="222.9983,-80.2655 224.7038,-90.7222 229.8914,-81.4843 222.9983,-80.2655"/>
</g>
<!-- Node51&#45;&gt;Node53 -->
<g id="edge4" class="edge">
<title>Node51&#45;&gt;Node53</title>
<path fill="none" stroke="#191970" d="M173.3087,-85.6431C153.2259,-73.3628 130.097,-59.2198 111.063,-47.5807"/>
<polygon fill="#191970" stroke="#191970" points="171.6438,-88.7276 182.0011,-90.9584 175.2956,-82.7556 171.6438,-88.7276"/>
</g>
<!-- Node54 -->
<g id="node6" class="node">
<title>Node54</title>
<g id="a_node6"><a xlink:href="Star_2CInterface_8cpp.html" target="_top" xlink:title="The definitions of the functions declared in CInterface.h. ">
<polygon fill="#ffffff" stroke="#000000" points="328,-.5 328,-47.5 465,-47.5 465,-.5 328,-.5"/>
<text text-anchor="start" x="336" y="-33.9" font-family="Helvetica,sans-Serif" font-size="12.00" fill="#000000">/home/kpenev/projects</text>
<text text-anchor="start" x="336" y="-20.9" font-family="Helvetica,sans-Serif" font-size="12.00" fill="#000000">/git/poet/poet_src/Star</text>
<text text-anchor="middle" x="396.5" y="-7.9" font-family="Helvetica,sans-Serif" font-size="12.00" fill="#000000">/CInterface.cpp</text>
</a>
</g>
</g>
<!-- Node51&#45;&gt;Node54 -->
<g id="edge5" class="edge">
<title>Node51&#45;&gt;Node54</title>
<path fill="none" stroke="#191970" d="M275.3378,-86.3021C299.5134,-73.871 327.6002,-59.4286 350.6413,-47.5807"/>
<polygon fill="#191970" stroke="#191970" points="273.5751,-83.2729 266.2825,-90.9584 276.7762,-89.4981 273.5751,-83.2729"/>
</g>
<!-- Node56 -->
<g id="node8" class="node">
<title>Node56</title>
<g id="a_node8"><a xlink:href="testDifferentialEquations_8cpp.html" target="_top" xlink:title="Implement the non&#45;inline methods of test_DifferentialEquations. ">
<polygon fill="#ffffff" stroke="#000000" points="312.5,-84.5 312.5,-144.5 498.5,-144.5 498.5,-84.5 312.5,-84.5"/>
<text text-anchor="start" x="320.5" y="-130.9" font-family="Helvetica,sans-Serif" font-size="12.00" fill="#000000">/home/kpenev/projects</text>
<text text-anchor="start" x="320.5" y="-117.9" font-family="Helvetica,sans-Serif" font-size="12.00" fill="#000000">/git/poet/poet_src/unit</text>
<text text-anchor="start" x="320.5" y="-104.9" font-family="Helvetica,sans-Serif" font-size="12.00" fill="#000000">_tests/testEvolve/testDifferential</text>
<text text-anchor="middle" x="405.5" y="-91.9" font-family="Helvetica,sans-Serif" font-size="12.00" fill="#000000">Equations.cpp</text>
</a>
</g>
</g>
<!-- Node55&#45;&gt;Node56 -->
<g id="edge8" class="edge">
<title>Node55&#45;&gt;Node56</title>
<path fill="none" stroke="#191970" d="M411.926,-171.1653C410.9192,-162.2876 409.8698,-153.0341 408.9181,-144.641"/>
<polygon fill="#191970" stroke="#191970" points="408.4752,-171.7984 413.0798,-181.3403 415.4307,-171.0096 408.4752,-171.7984"/>
</g>
<!-- Node57 -->
<g id="node9" class="node">
<title>Node57</title>
<g id="a_node9"><a xlink:href="testEvolve_8cpp_source.html" target="_top" xlink:title="/home/kpenev/projects\l/git/poet/poet_src/unit\l_tests/testEvolve/testEvolve.cpp">
<polygon fill="#ffffff" stroke="#000000" points="746.5,-91 746.5,-138 934.5,-138 934.5,-91 746.5,-91"/>
<text text-anchor="start" x="754.5" y="-124.4" font-family="Helvetica,sans-Serif" font-size="12.00" fill="#000000">/home/kpenev/projects</text>
<text text-anchor="start" x="754.5" y="-111.4" font-family="Helvetica,sans-Serif" font-size="12.00" fill="#000000">/git/poet/poet_src/unit</text>
<text text-anchor="middle" x="840.5" y="-98.4" font-family="Helvetica,sans-Serif" font-size="12.00" fill="#000000">_tests/testEvolve/testEvolve.cpp</text>
</a>
</g>
</g>
<!-- Node55&#45;&gt;Node57 -->
<g id="edge9" class="edge">
<title>Node55&#45;&gt;Node57</title>
<path fill="none" stroke="#191970" d="M519.6151,-180.8559C615.9646,-159.3716 643.8477,-166.1537 736.5,-145 745.4885,-142.9478 754.8463,-140.5638 764.1027,-138.0502"/>
<polygon fill="#191970" stroke="#191970" points="518.7318,-177.4673 509.7572,-183.0982 520.2844,-184.2929 518.7318,-177.4673"/>
</g>
<!-- Node58&#45;&gt;Node57 -->
<g id="edge11" class="edge">
<title>Node58&#45;&gt;Node57</title>
<path fill="none" stroke="#191970" d="M687.8032,-183.713C719.6647,-169.2711 758.1825,-151.8122 788.5611,-138.0424"/>
<polygon fill="#191970" stroke="#191970" points="686.2397,-180.5789 678.5766,-187.8952 689.1296,-186.9545 686.2397,-180.5789"/>
</g>
<!-- Node59 -->
<g id="node11" class="node">
<title>Node59</title>
<g id="a_node11"><a xlink:href="testOrbitSolver_8cpp.html" target="_top" xlink:title="Defines some of the methods of the test suite that exercises the OrbitSolver class and the other clas...">
<polygon fill="#ffffff" stroke="#000000" points="517,-91 517,-138 728,-138 728,-91 517,-91"/>
<text text-anchor="start" x="525" y="-124.4" font-family="Helvetica,sans-Serif" font-size="12.00" fill="#000000">/home/kpenev/projects</text>
<text text-anchor="start" x="525" y="-111.4" font-family="Helvetica,sans-Serif" font-size="12.00" fill="#000000">/git/poet/poet_src/unit</text>
<text text-anchor="middle" x="622.5" y="-98.4" font-family="Helvetica,sans-Serif" font-size="12.00" fill="#000000">_tests/testEvolve/testOrbitSolver.cpp</text>
</a>
</g>
</g>
<!-- Node58&#45;&gt;Node59 -->
<g id="edge12" class="edge">
<title>Node58&#45;&gt;Node59</title>
<path fill="none" stroke="#191970" d="M625.0987,-177.5189C624.5633,-164.536 623.9649,-150.0241 623.4774,-138.2017"/>
<polygon fill="#191970" stroke="#191970" points="621.6021,-177.6752 625.5112,-187.5225 628.5961,-177.3867 621.6021,-177.6752"/>
</g>
<!-- Node60&#45;&gt;Node57 -->
<g id="edge14" class="edge">
<title>Node60&#45;&gt;Node57</title>
<path fill="none" stroke="#191970" d="M840.5,-171.248C840.5,-159.993 840.5,-148.1275 840.5,-138.1726"/>
<polygon fill="#191970" stroke="#191970" points="837.0001,-171.3403 840.5,-181.3403 844.0001,-171.3403 837.0001,-171.3403"/>
</g>
<!-- Node61 -->
<g id="node13" class="node">
<title>Node61</title>
<g id="a_node13"><a xlink:href="testTidalTorquePower_8cpp.html" target="_top" xlink:title="Define the non&#45;inline methods of test_TidalTorquePower and actually run the tests if compiled in stan...">
<polygon fill="#ffffff" stroke="#000000" points="952.5,-84.5 952.5,-144.5 1146.5,-144.5 1146.5,-84.5 952.5,-84.5"/>
<text text-anchor="start" x="960.5" y="-130.9" font-family="Helvetica,sans-Serif" font-size="12.00" fill="#000000">/home/kpenev/projects</text>
<text text-anchor="start" x="960.5" y="-117.9" font-family="Helvetica,sans-Serif" font-size="12.00" fill="#000000">/git/poet/poet_src/unit</text>
<text text-anchor="start" x="960.5" y="-104.9" font-family="Helvetica,sans-Serif" font-size="12.00" fill="#000000">_tests/testEvolve/testTidalTorque</text>
<text text-anchor="middle" x="1049.5" y="-91.9" font-family="Helvetica,sans-Serif" font-size="12.00" fill="#000000">Power.cpp</text>
</a>
</g>
</g>
<!-- Node60&#45;&gt;Node61 -->
<g id="edge15" class="edge">
<title>Node60&#45;&gt;Node61</title>
<path fill="none" stroke="#191970" d="M914.535,-177.1392C937.4521,-166.5031 962.5111,-154.8728 984.7483,-144.5522"/>
<polygon fill="#191970" stroke="#191970" points="912.7948,-174.0882 905.1976,-181.4729 915.7418,-180.4377 912.7948,-174.0882"/>
</g>
<!-- Node62&#45;&gt;Node57 -->
<g id="edge17" class="edge">
<title>Node62&#45;&gt;Node57</title>
<path fill="none" stroke="#191970" d="M1001.4766,-183.8988C967.8943,-169.4211 927.1859,-151.8713 895.1087,-138.0424"/>
<polygon fill="#191970" stroke="#191970" points="1000.1779,-187.1503 1010.7465,-187.8952 1002.9492,-180.7222 1000.1779,-187.1503"/>
</g>
<!-- Node63 -->
<g id="node15" class="node">
<title>Node63</title>
<g id="a_node15"><a xlink:href="testLockMonitoring_8cpp.html" target="_top" xlink:title="Implement the non&#45;inline methods of test_LockMonitoring. ">
<polygon fill="#ffffff" stroke="#000000" points="1164,-91 1164,-138 1397,-138 1397,-91 1164,-91"/>
<text text-anchor="start" x="1172" y="-124.4" font-family="Helvetica,sans-Serif" font-size="12.00" fill="#000000">/home/kpenev/projects</text>
<text text-anchor="start" x="1172" y="-111.4" font-family="Helvetica,sans-Serif" font-size="12.00" fill="#000000">/git/poet/poet_src/unit</text>
<text text-anchor="middle" x="1280.5" y="-98.4" font-family="Helvetica,sans-Serif" font-size="12.00" fill="#000000">_tests/testEvolve/testLockMonitoring.cpp</text>
</a>
</g>
</g>
<!-- Node62&#45;&gt;Node63 -->
<g id="edge18" class="edge">
<title>Node62&#45;&gt;Node63</title>
<path fill="none" stroke="#191970" d="M1127.0897,-183.713C1159.1,-169.2711 1197.7978,-151.8122 1228.3184,-138.0424"/>
<polygon fill="#191970" stroke="#191970" points="1125.4959,-180.5923 1117.82,-187.8952 1128.3746,-186.973 1125.4959,-180.5923"/>
</g>
</g>
</svg>
