<?xml version="1.0" encoding="UTF-8" standalone="no"?>
<!DOCTYPE svg PUBLIC "-//W3C//DTD SVG 1.1//EN"
 "http://www.w3.org/Graphics/SVG/1.1/DTD/svg11.dtd">
<!-- Generated by graphviz version 2.40.1 (20161225.0304)
 -->
<!-- Title: /home/kpenev/projects/git/poet/poet_src/Planet/Planet.h Pages: 1 -->
<svg width="2827pt" height="688pt"
 viewBox="0.00 0.00 2827.00 688.00" xmlns="http://www.w3.org/2000/svg" xmlns:xlink="http://www.w3.org/1999/xlink">
<g id="graph0" class="graph" transform="scale(1 1) rotate(0) translate(4 684)">
<title>/home/kpenev/projects/git/poet/poet_src/Planet/Planet.h</title>
<polygon fill="#ffffff" stroke="transparent" points="-4,4 -4,-684 2823,-684 2823,4 -4,4"/>
<!-- Node0 -->
<g id="node1" class="node">
<title>Node0</title>
<polygon fill="#bfbfbf" stroke="#000000" points="2277.5,-632.5 2277.5,-679.5 2422.5,-679.5 2422.5,-632.5 2277.5,-632.5"/>
<text text-anchor="start" x="2285.5" y="-665.9" font-family="Helvetica,sans-Serif" font-size="12.00" fill="#000000">/home/kpenev/projects</text>
<text text-anchor="start" x="2285.5" y="-652.9" font-family="Helvetica,sans-Serif" font-size="12.00" fill="#000000">/git/poet/poet_src/Planet</text>
<text text-anchor="middle" x="2350" y="-639.9" font-family="Helvetica,sans-Serif" font-size="12.00" fill="#000000">/Planet.h</text>
</g>
<!-- Node1 -->
<g id="node2" class="node">
<title>Node1</title>
<g id="a_node2"><a xlink:href="SharedLibraryExportMacros_8h_source.html" target="_top" xlink:title="../Core/SharedLibraryExport\lMacros.h">
<polygon fill="#ffffff" stroke="#000000" points="1945.5,-.5 1945.5,-34.5 2110.5,-34.5 2110.5,-.5 1945.5,-.5"/>
<text text-anchor="start" x="1953.5" y="-20.9" font-family="Helvetica,sans-Serif" font-size="12.00" fill="#000000">../Core/SharedLibraryExport</text>
<text text-anchor="middle" x="2028" y="-7.9" font-family="Helvetica,sans-Serif" font-size="12.00" fill="#000000">Macros.h</text>
</a>
</g>
</g>
<!-- Node0&#45;&gt;Node1 -->
<g id="edge1" class="edge">
<title>Node0&#45;&gt;Node1</title>
<path fill="none" stroke="#191970" d="M2422.5099,-650.1579C2554.156,-637.5392 2819,-602.0225 2819,-520.5 2819,-520.5 2819,-520.5 2819,-140 2819,-84.8996 2768.0568,-89.0592 2716,-71 2608.6362,-33.754 2282.5747,-22.3305 2120.9089,-18.9118"/>
<polygon fill="#191970" stroke="#191970" points="2120.5718,-15.4042 2110.502,-18.698 2120.428,-22.4027 2120.5718,-15.4042"/>
</g>
<!-- Node2 -->
<g id="node3" class="node">
<title>Node2</title>
<g id="a_node3"><a xlink:href="PlanetZone_8h.html" target="_top" xlink:title="Declares a class for the single zone of LockedPlanet objects. ">
<polygon fill="#ffffff" stroke="#000000" points="2232.5,-574.5 2232.5,-595.5 2321.5,-595.5 2321.5,-574.5 2232.5,-574.5"/>
<text text-anchor="middle" x="2277" y="-581.9" font-family="Helvetica,sans-Serif" font-size="12.00" fill="#000000">PlanetZone.h</text>
</a>
</g>
</g>
<!-- Node0&#45;&gt;Node2 -->
<g id="edge2" class="edge">
<title>Node0&#45;&gt;Node2</title>
<path fill="none" stroke="#191970" d="M2325.6921,-632.358C2315.7119,-622.6513 2304.3578,-611.6082 2295.1254,-602.6289"/>
<polygon fill="#191970" stroke="#191970" points="2297.555,-600.1094 2287.9461,-595.6462 2292.6744,-605.1274 2297.555,-600.1094"/>
</g>
<!-- Node40 -->
<g id="node41" class="node">
<title>Node40</title>
<g id="a_node41"><a xlink:href="DissipatingBody_8h.html" target="_top" xlink:title="Declares the DissipatingBody class. ">
<polygon fill="#ffffff" stroke="#000000" points="1726,-374.5 1726,-395.5 1840,-395.5 1840,-374.5 1726,-374.5"/>
<text text-anchor="middle" x="1783" y="-381.9" font-family="Helvetica,sans-Serif" font-size="12.00" fill="#000000">DissipatingBody.h</text>
</a>
</g>
</g>
<!-- Node0&#45;&gt;Node40 -->
<g id="edge116" class="edge">
<title>Node0&#45;&gt;Node40</title>
<path fill="none" stroke="#191970" d="M2350.7073,-632.4739C2349.9593,-614.2087 2345.9073,-589.467 2331,-574 2204.7808,-443.042 2105.0248,-534.1707 1936,-467 1889.2478,-448.4206 1838.4106,-419.2043 1808.6957,-401.1237"/>
<polygon fill="#191970" stroke="#191970" points="1810.1747,-397.9246 1799.8221,-395.6722 1806.5105,-403.889 1810.1747,-397.9246"/>
</g>
<!-- Node2&#45;&gt;Node1 -->
<g id="edge3" class="edge">
<title>Node2&#45;&gt;Node1</title>
<path fill="none" stroke="#191970" d="M2321.7266,-582.5498C2445.0743,-574.5803 2781,-544.1844 2781,-449.5 2781,-449.5 2781,-449.5 2781,-140 2781,-75.7628 2715.5278,-89.4594 2654,-71 2556.7856,-41.8339 2270.0981,-26.8 2120.7856,-20.7645"/>
<polygon fill="#191970" stroke="#191970" points="2120.8465,-17.2642 2110.7149,-20.3626 2120.5674,-24.2587 2120.8465,-17.2642"/>
</g>
<!-- Node3 -->
<g id="node4" class="node">
<title>Node3</title>
<g id="a_node4"><a xlink:href="DissipatingZone_8h.html" target="_top" xlink:title="Declares a class representing one zone of a body dissipative to tidal distortions. ">
<polygon fill="#ffffff" stroke="#000000" points="781.5,-316.5 781.5,-337.5 944.5,-337.5 944.5,-316.5 781.5,-316.5"/>
<text text-anchor="middle" x="863" y="-323.9" font-family="Helvetica,sans-Serif" font-size="12.00" fill="#000000">../Evolve/DissipatingZone.h</text>
</a>
</g>
</g>
<!-- Node2&#45;&gt;Node3 -->
<g id="edge4" class="edge">
<title>Node2&#45;&gt;Node3</title>
<path fill="none" stroke="#191970" d="M2232.2685,-583.6228C2088.4545,-578.3953 1625.7271,-555.3427 1255,-467 1118.2615,-434.4158 963.0034,-370.5217 896.3123,-341.7096"/>
<polygon fill="#191970" stroke="#191970" points="897.3228,-338.3326 886.7563,-337.5587 894.5339,-344.7531 897.3228,-338.3326"/>
</g>
<!-- Node23 -->
<g id="node24" class="node">
<title>Node23</title>
<g id="a_node24"><a xlink:href="AstronomicalConstants_8h.html" target="_top" xlink:title="Defines various astronomical constants. ">
<polygon fill="#ffffff" stroke="#000000" points="2357,-71.5 2357,-92.5 2507,-92.5 2507,-71.5 2357,-71.5"/>
<text text-anchor="middle" x="2432" y="-78.9" font-family="Helvetica,sans-Serif" font-size="12.00" fill="#000000">AstronomicalConstants.h</text>
</a>
</g>
</g>
<!-- Node2&#45;&gt;Node23 -->
<g id="edge71" class="edge">
<title>Node2&#45;&gt;Node23</title>
<path fill="none" stroke="#191970" d="M2321.682,-581.3009C2438.3181,-568.9655 2743,-518.4224 2743,-327 2743,-327 2743,-327 2743,-262.5 2743,-157.6942 2609.2503,-112.7236 2517.1749,-94.1825"/>
<polygon fill="#191970" stroke="#191970" points="2517.7686,-90.7324 2507.2844,-92.2593 2516.4325,-97.6037 2517.7686,-90.7324"/>
</g>
<!-- Node39 -->
<g id="node40" class="node">
<title>Node39</title>
<g id="a_node40"><a xlink:href="BrokenPowerlawPhaseLagZone_8h.html" target="_top" xlink:title="Declares the class that provides the phase lag function to DissipatingZone objects. ">
<polygon fill="#ffffff" stroke="#000000" points="1704.5,-503.5 1704.5,-537.5 1861.5,-537.5 1861.5,-503.5 1704.5,-503.5"/>
<text text-anchor="start" x="1712.5" y="-523.9" font-family="Helvetica,sans-Serif" font-size="12.00" fill="#000000">../Evolve/BrokenPowerlaw</text>
<text text-anchor="middle" x="1783" y="-510.9" font-family="Helvetica,sans-Serif" font-size="12.00" fill="#000000">PhaseLagZone.h</text>
</a>
</g>
</g>
<!-- Node2&#45;&gt;Node39 -->
<g id="edge72" class="edge">
<title>Node2&#45;&gt;Node39</title>
<path fill="none" stroke="#191970" d="M2232.2895,-579.1623C2151.0702,-568.5578 1977.9165,-545.9496 1871.8678,-532.1032"/>
<polygon fill="#191970" stroke="#191970" points="1872.1889,-528.6155 1861.8199,-530.7913 1871.2825,-535.5566 1872.1889,-528.6155"/>
</g>
<!-- Node3&#45;&gt;Node1 -->
<g id="edge34" class="edge">
<title>Node3&#45;&gt;Node1</title>
<path fill="none" stroke="#191970" d="M861.6932,-316.4231C855.9212,-269.2565 833.3721,-80.0259 842,-71 851.4302,-61.1349 1657.6902,-30.9509 1935.3078,-20.8402"/>
<polygon fill="#191970" stroke="#191970" points="1935.4893,-24.336 1945.3554,-20.4747 1935.2347,-17.3407 1935.4893,-24.336"/>
</g>
<!-- Node4 -->
<g id="node5" class="node">
<title>Node4</title>
<g id="a_node5"><a xlink:href="ZoneOrientation_8h.html" target="_top" xlink:title="Declares a class for orientations of zones of DissipatingBody objects. ">
<polygon fill="#ffffff" stroke="#000000" points="929.5,-187.5 929.5,-208.5 1042.5,-208.5 1042.5,-187.5 929.5,-187.5"/>
<text text-anchor="middle" x="986" y="-194.9" font-family="Helvetica,sans-Serif" font-size="12.00" fill="#000000">ZoneOrientation.h</text>
</a>
</g>
</g>
<!-- Node3&#45;&gt;Node4 -->
<g id="edge5" class="edge">
<title>Node3&#45;&gt;Node4</title>
<path fill="none" stroke="#191970" d="M873.0656,-316.4434C894.0581,-294.4268 942.7202,-243.391 968.7854,-216.0544"/>
<polygon fill="#191970" stroke="#191970" points="971.4276,-218.3552 975.7953,-208.7025 966.3614,-213.5246 971.4276,-218.3552"/>
</g>
<!-- Node5 -->
<g id="node6" class="node">
<title>Node5</title>
<g id="a_node6"><a xlink:href="DissipationQuantities_8h.html" target="_top" xlink:title="Declaration of enumerations of dissipation quantities and derivatives. ">
<polygon fill="#ffffff" stroke="#000000" points="1005,-129.5 1005,-150.5 1145,-150.5 1145,-129.5 1005,-129.5"/>
<text text-anchor="middle" x="1075" y="-136.9" font-family="Helvetica,sans-Serif" font-size="12.00" fill="#000000">DissipationQuantities.h</text>
</a>
</g>
</g>
<!-- Node3&#45;&gt;Node5 -->
<g id="edge51" class="edge">
<title>Node3&#45;&gt;Node5</title>
<path fill="none" stroke="#191970" d="M891.1363,-316.4865C932.0525,-299.8133 1007.7917,-263.5082 1051,-209 1062.0499,-195.0603 1068.1958,-175.6846 1071.4945,-161.0131"/>
<polygon fill="#191970" stroke="#191970" points="1074.9921,-161.3672 1073.4961,-150.8785 1068.1247,-160.0108 1074.9921,-161.3672"/>
</g>
<!-- Node8 -->
<g id="node9" class="node">
<title>Node8</title>
<g id="a_node9"><a xlink:href="Core_2Common_8h.html" target="_top" xlink:title="Declaration of some general purpose utilities. ">
<polygon fill="#ffffff" stroke="#000000" points="1373.5,-129.5 1373.5,-150.5 1486.5,-150.5 1486.5,-129.5 1373.5,-129.5"/>
<text text-anchor="middle" x="1430" y="-136.9" font-family="Helvetica,sans-Serif" font-size="12.00" fill="#000000">../Core/Common.h</text>
</a>
</g>
</g>
<!-- Node3&#45;&gt;Node8 -->
<g id="edge68" class="edge">
<title>Node3&#45;&gt;Node8</title>
<path fill="none" stroke="#191970" d="M895.1089,-316.4103C991.7723,-284.5301 1280.0291,-189.4613 1388.2909,-153.7559"/>
<polygon fill="#191970" stroke="#191970" points="1389.4921,-157.0453 1397.8927,-150.5892 1387.2996,-150.3975 1389.4921,-157.0453"/>
</g>
<!-- Node10 -->
<g id="node11" class="node">
<title>Node10</title>
<polygon fill="#ffffff" stroke="#bfbfbf" points="278.5,-71.5 278.5,-92.5 337.5,-92.5 337.5,-71.5 278.5,-71.5"/>
<text text-anchor="middle" x="308" y="-78.9" font-family="Helvetica,sans-Serif" font-size="12.00" fill="#000000">valarray</text>
</g>
<!-- Node3&#45;&gt;Node10 -->
<g id="edge69" class="edge">
<title>Node3&#45;&gt;Node10</title>
<path fill="none" stroke="#191970" d="M781.0638,-316.4913C744.9296,-309.5697 702.8517,-298.2711 668,-280 578.7906,-233.2318 588.4678,-175.2719 499,-129 438.393,-97.6547 413.385,-110.6509 347.6294,-94.3751"/>
<polygon fill="#191970" stroke="#191970" points="348.1837,-90.9022 337.623,-91.7526 346.409,-97.6735 348.1837,-90.9022"/>
</g>
<!-- Node20 -->
<g id="node21" class="node">
<title>Node20</title>
<g id="a_node21"><a xlink:href="Error_8h.html" target="_top" xlink:title="Defines the exception hierarchy used by this code. ">
<polygon fill="#ffffff" stroke="#000000" points="66.5,-71.5 66.5,-92.5 119.5,-92.5 119.5,-71.5 66.5,-71.5"/>
<text text-anchor="middle" x="93" y="-78.9" font-family="Helvetica,sans-Serif" font-size="12.00" fill="#000000">Error.h</text>
</a>
</g>
</g>
<!-- Node3&#45;&gt;Node20 -->
<g id="edge35" class="edge">
<title>Node3&#45;&gt;Node20</title>
<path fill="none" stroke="#191970" d="M781.1742,-319.6499C704.3875,-311.8186 595.7243,-298.0625 557,-280 464.8119,-237 477.4592,-171.414 385,-129 283.4223,-82.4031 243.3776,-115.9164 129.403,-92.7331"/>
<polygon fill="#191970" stroke="#191970" points="130.1231,-89.3081 119.6124,-90.6405 128.6599,-96.1534 130.1231,-89.3081"/>
</g>
<!-- Node26 -->
<g id="node27" class="node">
<title>Node26</title>
<g id="a_node27"><a xlink:href="TidalPotentialTerms_8h.html" target="_top" xlink:title="Declare an interface for evaluating the expansion of the tidal potential. ">
<polygon fill="#ffffff" stroke="#000000" points="701,-187.5 701,-208.5 835,-208.5 835,-187.5 701,-187.5"/>
<text text-anchor="middle" x="768" y="-194.9" font-family="Helvetica,sans-Serif" font-size="12.00" fill="#000000">TidalPotentialTerms.h</text>
</a>
</g>
</g>
<!-- Node3&#45;&gt;Node26 -->
<g id="edge36" class="edge">
<title>Node3&#45;&gt;Node26</title>
<path fill="none" stroke="#191970" d="M856.0389,-316.473C845.5289,-300.6992 824.8331,-270.1016 806,-245 798.8211,-235.4316 790.5003,-225.0648 783.4783,-216.5081"/>
<polygon fill="#191970" stroke="#191970" points="786.0504,-214.1262 776.9797,-208.6514 780.6564,-218.5878 786.0504,-214.1262"/>
</g>
<!-- Node33 -->
<g id="node34" class="node">
<title>Node33</title>
<g id="a_node34"><a xlink:href="SpinOrbitLockInfo_8h.html" target="_top" xlink:title="Defines the SpinOrbitLockInfo class. ">
<polygon fill="#ffffff" stroke="#000000" points="138,-71.5 138,-92.5 260,-92.5 260,-71.5 138,-71.5"/>
<text text-anchor="middle" x="199" y="-78.9" font-family="Helvetica,sans-Serif" font-size="12.00" fill="#000000">SpinOrbitLockInfo.h</text>
</a>
</g>
</g>
<!-- Node3&#45;&gt;Node33 -->
<g id="edge52" class="edge">
<title>Node3&#45;&gt;Node33</title>
<path fill="none" stroke="#191970" d="M781.3703,-321.2598C731.7735,-315.4267 668.1727,-303.6735 616,-280 516.821,-234.9972 521.7519,-174.9324 423,-129 396.2472,-116.5565 325.1524,-102.7336 270.1645,-93.3191"/>
<polygon fill="#191970" stroke="#191970" points="270.543,-89.8334 260.0989,-91.6139 269.3737,-96.7351 270.543,-89.8334"/>
</g>
<!-- Node34 -->
<g id="node35" class="node">
<title>Node34</title>
<g id="a_node35"><a xlink:href="CombinedStoppingCondition_8h.html" target="_top" xlink:title="Declares a class for a stopping condition that combines other stopping conditions. ">
<polygon fill="#ffffff" stroke="#000000" points="1934,-252 1934,-273 2116,-273 2116,-252 1934,-252"/>
<text text-anchor="middle" x="2025" y="-259.4" font-family="Helvetica,sans-Serif" font-size="12.00" fill="#000000">CombinedStoppingCondition.h</text>
</a>
</g>
</g>
<!-- Node3&#45;&gt;Node34 -->
<g id="edge55" class="edge">
<title>Node3&#45;&gt;Node34</title>
<path fill="none" stroke="#191970" d="M944.5994,-323.2714C1103.9008,-315.8847 1467.4489,-298.4986 1773,-280 1822.5489,-277.0002 1877.5464,-273.232 1923.4879,-269.9613"/>
<polygon fill="#191970" stroke="#191970" points="1924.0247,-273.432 1933.7499,-269.2283 1923.5259,-266.4497 1924.0247,-273.432"/>
</g>
<!-- Node36 -->
<g id="node37" class="node">
<title>Node36</title>
<g id="a_node37"><a xlink:href="BreakLockCondition_8h.html" target="_top" xlink:title="Declares a class for a stopping condition monitoring when a locked zone loses the lock...">
<polygon fill="#ffffff" stroke="#000000" points="1628.5,-252 1628.5,-273 1763.5,-273 1763.5,-252 1628.5,-252"/>
<text text-anchor="middle" x="1696" y="-259.4" font-family="Helvetica,sans-Serif" font-size="12.00" fill="#000000">BreakLockCondition.h</text>
</a>
</g>
</g>
<!-- Node3&#45;&gt;Node36 -->
<g id="edge62" class="edge">
<title>Node3&#45;&gt;Node36</title>
<path fill="none" stroke="#191970" d="M944.5271,-323.5985C1112.2151,-316.3284 1490.7873,-298.432 1619,-280 1627.676,-278.7527 1636.8213,-277.0369 1645.6603,-275.1643"/>
<polygon fill="#191970" stroke="#191970" points="1646.4575,-278.5727 1655.4684,-273.0001 1644.9491,-271.7371 1646.4575,-278.5727"/>
</g>
<!-- Node37 -->
<g id="node38" class="node">
<title>Node37</title>
<g id="a_node38"><a xlink:href="SynchronizedCondition_8h.html" target="_top" xlink:title="Declares a stopping condition monitoring spin&#45;orbit synchronization. ">
<polygon fill="#ffffff" stroke="#000000" points="1458,-252 1458,-273 1610,-273 1610,-252 1458,-252"/>
<text text-anchor="middle" x="1534" y="-259.4" font-family="Helvetica,sans-Serif" font-size="12.00" fill="#000000">SynchronizedCondition.h</text>
</a>
</g>
</g>
<!-- Node3&#45;&gt;Node37 -->
<g id="edge65" class="edge">
<title>Node3&#45;&gt;Node37</title>
<path fill="none" stroke="#191970" d="M944.6069,-319.1555C1072.0421,-306.9058 1317.17,-283.3428 1447.5291,-270.812"/>
<polygon fill="#191970" stroke="#191970" points="1448.2436,-274.2596 1457.8628,-269.8187 1447.5738,-267.2917 1448.2436,-274.2596"/>
</g>
<!-- Node38 -->
<g id="node39" class="node">
<title>Node38</title>
<polygon fill="#ffffff" stroke="#bfbfbf" points="677,-245.5 677,-279.5 797,-279.5 797,-245.5 677,-245.5"/>
<text text-anchor="start" x="685" y="-265.9" font-family="Helvetica,sans-Serif" font-size="12.00" fill="#000000">boost/math/special</text>
<text text-anchor="middle" x="737" y="-252.9" font-family="Helvetica,sans-Serif" font-size="12.00" fill="#000000">_functions/sign.hpp</text>
</g>
<!-- Node3&#45;&gt;Node38 -->
<g id="edge70" class="edge">
<title>Node3&#45;&gt;Node38</title>
<path fill="none" stroke="#191970" d="M842.4755,-316.4934C825.467,-307.7867 800.7272,-295.1223 779.482,-284.2467"/>
<polygon fill="#191970" stroke="#191970" points="780.8126,-280.996 770.3162,-279.5547 777.6229,-287.227 780.8126,-280.996"/>
</g>
<!-- Node4&#45;&gt;Node1 -->
<g id="edge6" class="edge">
<title>Node4&#45;&gt;Node1</title>
<path fill="none" stroke="#191970" d="M982.7757,-187.2269C976.1487,-162.6166 964.1475,-102.0106 996,-71 1012.7204,-54.7215 1684.2914,-29.5527 1934.941,-20.7066"/>
<polygon fill="#191970" stroke="#191970" points="1935.2479,-24.1981 1945.1185,-20.3482 1935.0015,-17.2024 1935.2479,-24.1981"/>
</g>
<!-- Node4&#45;&gt;Node5 -->
<g id="edge7" class="edge">
<title>Node4&#45;&gt;Node5</title>
<path fill="none" stroke="#191970" d="M1002.324,-187.3619C1015.7478,-178.6138 1034.9829,-166.0786 1050.2926,-156.1015"/>
<polygon fill="#191970" stroke="#191970" points="1052.3125,-158.9628 1058.7795,-150.5707 1048.4906,-153.0982 1052.3125,-158.9628"/>
</g>
<!-- Node4&#45;&gt;Node8 -->
<g id="edge11" class="edge">
<title>Node4&#45;&gt;Node8</title>
<path fill="none" stroke="#191970" d="M1042.6839,-190.5953C1124.6523,-179.8878 1275.9891,-160.1185 1363.2482,-148.7198"/>
<polygon fill="#191970" stroke="#191970" points="1363.8409,-152.1722 1373.3033,-147.4063 1362.9342,-145.2312 1363.8409,-152.1722"/>
</g>
<!-- Node24 -->
<g id="node25" class="node">
<title>Node24</title>
<g id="a_node25"><a xlink:href="IncludeEigen_8h_source.html" target="_top" xlink:title="IncludeEigen.h">
<polygon fill="#ffffff" stroke="#000000" points="851.5,-71.5 851.5,-92.5 948.5,-92.5 948.5,-71.5 851.5,-71.5"/>
<text text-anchor="middle" x="900" y="-78.9" font-family="Helvetica,sans-Serif" font-size="12.00" fill="#000000">IncludeEigen.h</text>
</a>
</g>
</g>
<!-- Node4&#45;&gt;Node24 -->
<g id="edge33" class="edge">
<title>Node4&#45;&gt;Node24</title>
<path fill="none" stroke="#191970" d="M978.0635,-187.2949C963.4721,-167.6135 932.2132,-125.4504 913.9874,-100.8668"/>
<polygon fill="#191970" stroke="#191970" points="916.6846,-98.6279 907.9173,-92.6792 911.0614,-102.7968 916.6846,-98.6279"/>
</g>
<!-- Node5&#45;&gt;Node1 -->
<g id="edge8" class="edge">
<title>Node5&#45;&gt;Node1</title>
<path fill="none" stroke="#191970" d="M1077.4134,-129.3663C1081.6243,-113.5536 1091.9505,-84.2822 1113,-71 1147.3561,-49.3214 1709.273,-28.1814 1935.1109,-20.5186"/>
<polygon fill="#191970" stroke="#191970" points="1935.4065,-24.0107 1945.2826,-20.1748 1935.1701,-17.0147 1935.4065,-24.0107"/>
</g>
<!-- Node6 -->
<g id="node7" class="node">
<title>Node6</title>
<polygon fill="#ffffff" stroke="#bfbfbf" points="1005.5,-71.5 1005.5,-92.5 1064.5,-92.5 1064.5,-71.5 1005.5,-71.5"/>
<text text-anchor="middle" x="1035" y="-78.9" font-family="Helvetica,sans-Serif" font-size="12.00" fill="#000000">ostream</text>
</g>
<!-- Node5&#45;&gt;Node6 -->
<g id="edge9" class="edge">
<title>Node5&#45;&gt;Node6</title>
<path fill="none" stroke="#191970" d="M1067.6634,-129.3619C1062.194,-121.4313 1054.5783,-110.3885 1048.0763,-100.9606"/>
<polygon fill="#191970" stroke="#191970" points="1050.8487,-98.8157 1042.2901,-92.5707 1045.0862,-102.7899 1050.8487,-98.8157"/>
</g>
<!-- Node7 -->
<g id="node8" class="node">
<title>Node7</title>
<polygon fill="#ffffff" stroke="#bfbfbf" points="1121.5,-71.5 1121.5,-92.5 1176.5,-92.5 1176.5,-71.5 1121.5,-71.5"/>
<text text-anchor="middle" x="1149" y="-78.9" font-family="Helvetica,sans-Serif" font-size="12.00" fill="#000000">cassert</text>
</g>
<!-- Node5&#45;&gt;Node7 -->
<g id="edge10" class="edge">
<title>Node5&#45;&gt;Node7</title>
<path fill="none" stroke="#191970" d="M1088.5727,-129.3619C1099.4212,-120.859 1114.8343,-108.7785 1127.3785,-98.9466"/>
<polygon fill="#191970" stroke="#191970" points="1129.8018,-101.4942 1135.5133,-92.5707 1125.4836,-95.9848 1129.8018,-101.4942"/>
</g>
<!-- Node8&#45;&gt;Node1 -->
<g id="edge24" class="edge">
<title>Node8&#45;&gt;Node1</title>
<path fill="none" stroke="#191970" d="M1486.5555,-137.9358C1596.8215,-133.3514 1836.5232,-120.4833 1914,-93 1931.3353,-86.8506 1969.4576,-60.4797 1996.8477,-40.6227"/>
<polygon fill="#191970" stroke="#191970" points="1998.9523,-43.4198 2004.9687,-34.6989 1994.827,-37.7645 1998.9523,-43.4198"/>
</g>
<!-- Node8&#45;&gt;Node7 -->
<g id="edge23" class="edge">
<title>Node8&#45;&gt;Node7</title>
<path fill="none" stroke="#191970" d="M1373.292,-129.8721C1324.7338,-120.9555 1253.0366,-107.2093 1191,-93 1189.5305,-92.6634 1188.0343,-92.3123 1186.5245,-91.951"/>
<polygon fill="#191970" stroke="#191970" points="1187.051,-88.4755 1176.5024,-89.4637 1185.3649,-95.2694 1187.051,-88.4755"/>
</g>
<!-- Node9 -->
<g id="node10" class="node">
<title>Node9</title>
<polygon fill="#ffffff" stroke="#bfbfbf" points="1801,-71.5 1801,-92.5 1833,-92.5 1833,-71.5 1801,-71.5"/>
<text text-anchor="middle" x="1817" y="-78.9" font-family="Helvetica,sans-Serif" font-size="12.00" fill="#000000">list</text>
</g>
<!-- Node8&#45;&gt;Node9 -->
<g id="edge12" class="edge">
<title>Node8&#45;&gt;Node9</title>
<path fill="none" stroke="#191970" d="M1486.8036,-137.6286C1556.8961,-133.6037 1679.5008,-122.9752 1791.1102,-92.6118"/>
<polygon fill="#191970" stroke="#191970" points="1792.1427,-95.9576 1800.8394,-89.9063 1790.2673,-89.2135 1792.1427,-95.9576"/>
</g>
<!-- Node8&#45;&gt;Node10 -->
<g id="edge13" class="edge">
<title>Node8&#45;&gt;Node10</title>
<path fill="none" stroke="#191970" d="M1373.2259,-137.7696C1169.6792,-129.7286 483.3747,-102.2171 385,-93 372.8334,-91.8601 359.647,-90.1516 347.6819,-88.4189"/>
<polygon fill="#191970" stroke="#191970" points="347.9452,-84.9195 337.5379,-86.9037 346.9111,-91.8427 347.9452,-84.9195"/>
</g>
<!-- Node11 -->
<g id="node12" class="node">
<title>Node11</title>
<polygon fill="#ffffff" stroke="#bfbfbf" points="2181,-71.5 2181,-92.5 2225,-92.5 2225,-71.5 2181,-71.5"/>
<text text-anchor="middle" x="2203" y="-78.9" font-family="Helvetica,sans-Serif" font-size="12.00" fill="#000000">limits</text>
</g>
<!-- Node8&#45;&gt;Node11 -->
<g id="edge14" class="edge">
<title>Node8&#45;&gt;Node11</title>
<path fill="none" stroke="#191970" d="M1486.7616,-138.441C1633.3927,-134.0961 2023.0878,-120.4506 2171.0491,-92.6276"/>
<polygon fill="#191970" stroke="#191970" points="2171.7287,-96.061 2180.8595,-90.6872 2170.3704,-89.1941 2171.7287,-96.061"/>
</g>
<!-- Node12 -->
<g id="node13" class="node">
<title>Node12</title>
<polygon fill="#ffffff" stroke="#bfbfbf" points="735.5,-71.5 735.5,-92.5 794.5,-92.5 794.5,-71.5 735.5,-71.5"/>
<text text-anchor="middle" x="765" y="-78.9" font-family="Helvetica,sans-Serif" font-size="12.00" fill="#000000">sstream</text>
</g>
<!-- Node8&#45;&gt;Node12 -->
<g id="edge15" class="edge">
<title>Node8&#45;&gt;Node12</title>
<path fill="none" stroke="#191970" d="M1373.1258,-136.6328C1268.0329,-130.1489 1036.401,-114.6341 842,-93 829.8551,-91.6484 816.675,-89.8779 804.7091,-88.1535"/>
<polygon fill="#191970" stroke="#191970" points="804.9655,-84.6537 794.5627,-86.6617 803.9472,-91.5792 804.9655,-84.6537"/>
</g>
<!-- Node13 -->
<g id="node14" class="node">
<title>Node13</title>
<polygon fill="#ffffff" stroke="#bfbfbf" points="168,-7 168,-28 230,-28 230,-7 168,-7"/>
<text text-anchor="middle" x="199" y="-14.4" font-family="Helvetica,sans-Serif" font-size="12.00" fill="#000000">iostream</text>
</g>
<!-- Node8&#45;&gt;Node13 -->
<g id="edge16" class="edge">
<title>Node8&#45;&gt;Node13</title>
<path fill="none" stroke="#191970" d="M1373.1156,-131.7539C1330.9669,-124.521 1272.6491,-112.1246 1224,-93 1205.8379,-85.8602 1204.7032,-76.5705 1186,-71 1094.4334,-43.7278 415.2489,-23.418 240.107,-18.5958"/>
<polygon fill="#191970" stroke="#191970" points="240.1057,-15.0946 230.0137,-18.3197 239.9143,-22.0919 240.1057,-15.0946"/>
</g>
<!-- Node14 -->
<g id="node15" class="node">
<title>Node14</title>
<polygon fill="#ffffff" stroke="#bfbfbf" points="1851.5,-71.5 1851.5,-92.5 1904.5,-92.5 1904.5,-71.5 1851.5,-71.5"/>
<text text-anchor="middle" x="1878" y="-78.9" font-family="Helvetica,sans-Serif" font-size="12.00" fill="#000000">iterator</text>
</g>
<!-- Node8&#45;&gt;Node14 -->
<g id="edge17" class="edge">
<title>Node8&#45;&gt;Node14</title>
<path fill="none" stroke="#191970" d="M1486.832,-136.8146C1564.8322,-131.7163 1709.4368,-119.6653 1841.5138,-92.7672"/>
<polygon fill="#191970" stroke="#191970" points="1842.3217,-96.1742 1851.4047,-90.7198 1840.9028,-89.3195 1842.3217,-96.1742"/>
</g>
<!-- Node15 -->
<g id="node16" class="node">
<title>Node15</title>
<polygon fill="#ffffff" stroke="#bfbfbf" points="1233,-71.5 1233,-92.5 1333,-92.5 1333,-71.5 1233,-71.5"/>
<text text-anchor="middle" x="1283" y="-78.9" font-family="Helvetica,sans-Serif" font-size="12.00" fill="#000000">gsl/gsl_vector.h</text>
</g>
<!-- Node8&#45;&gt;Node15 -->
<g id="edge18" class="edge">
<title>Node8&#45;&gt;Node15</title>
<path fill="none" stroke="#191970" d="M1403.3794,-129.4966C1379.9028,-120.2337 1345.4747,-106.6499 1319.4442,-96.3793"/>
<polygon fill="#191970" stroke="#191970" points="1320.506,-93.0358 1309.9193,-92.6212 1317.9368,-99.5473 1320.506,-93.0358"/>
</g>
<!-- Node16 -->
<g id="node17" class="node">
<title>Node16</title>
<polygon fill="#ffffff" stroke="#bfbfbf" points="1351,-71.5 1351,-92.5 1451,-92.5 1451,-71.5 1351,-71.5"/>
<text text-anchor="middle" x="1401" y="-78.9" font-family="Helvetica,sans-Serif" font-size="12.00" fill="#000000">gsl/gsl_matrix.h</text>
</g>
<!-- Node8&#45;&gt;Node16 -->
<g id="edge19" class="edge">
<title>Node8&#45;&gt;Node16</title>
<path fill="none" stroke="#191970" d="M1424.681,-129.3619C1420.7974,-121.5949 1415.4213,-110.8426 1410.7729,-101.5458"/>
<polygon fill="#191970" stroke="#191970" points="1413.888,-99.9497 1406.2853,-92.5707 1407.627,-103.0802 1413.888,-99.9497"/>
</g>
<!-- Node17 -->
<g id="node18" class="node">
<title>Node17</title>
<polygon fill="#ffffff" stroke="#bfbfbf" points="1469.5,-71.5 1469.5,-92.5 1566.5,-92.5 1566.5,-71.5 1469.5,-71.5"/>
<text text-anchor="middle" x="1518" y="-78.9" font-family="Helvetica,sans-Serif" font-size="12.00" fill="#000000">gsl/gsl_linalg.h</text>
</g>
<!-- Node8&#45;&gt;Node17 -->
<g id="edge20" class="edge">
<title>Node8&#45;&gt;Node17</title>
<path fill="none" stroke="#191970" d="M1446.1406,-129.3619C1459.4136,-120.6138 1478.4325,-108.0786 1493.5702,-98.1015"/>
<polygon fill="#191970" stroke="#191970" points="1495.5383,-100.9962 1501.9618,-92.5707 1491.6861,-95.1515 1495.5383,-100.9962"/>
</g>
<!-- Node18 -->
<g id="node19" class="node">
<title>Node18</title>
<polygon fill="#ffffff" stroke="#bfbfbf" points="1585,-71.5 1585,-92.5 1675,-92.5 1675,-71.5 1585,-71.5"/>
<text text-anchor="middle" x="1630" y="-78.9" font-family="Helvetica,sans-Serif" font-size="12.00" fill="#000000">gsl/gsl_blas.h</text>
</g>
<!-- Node8&#45;&gt;Node18 -->
<g id="edge21" class="edge">
<title>Node8&#45;&gt;Node18</title>
<path fill="none" stroke="#191970" d="M1466.2185,-129.4966C1499.2473,-119.9183 1548.2084,-105.7196 1583.9938,-95.3418"/>
<polygon fill="#191970" stroke="#191970" points="1585.0841,-98.6699 1593.7136,-92.5231 1583.1344,-91.9469 1585.0841,-98.6699"/>
</g>
<!-- Node19 -->
<g id="node20" class="node">
<title>Node19</title>
<polygon fill="#ffffff" stroke="#bfbfbf" points="1693,-71.5 1693,-92.5 1783,-92.5 1783,-71.5 1693,-71.5"/>
<text text-anchor="middle" x="1738" y="-78.9" font-family="Helvetica,sans-Serif" font-size="12.00" fill="#000000">gsl/gsl_poly.h</text>
</g>
<!-- Node8&#45;&gt;Node19 -->
<g id="edge22" class="edge">
<title>Node8&#45;&gt;Node19</title>
<path fill="none" stroke="#191970" d="M1486.5495,-129.8369C1535.8465,-120.9088 1609.5395,-107.3985 1683.0349,-93.165"/>
<polygon fill="#191970" stroke="#191970" points="1683.7812,-96.5856 1692.9308,-91.2438 1682.4471,-89.7139 1683.7812,-96.5856"/>
</g>
<!-- Node8&#45;&gt;Node20 -->
<g id="edge25" class="edge">
<title>Node8&#45;&gt;Node20</title>
<path fill="none" stroke="#191970" d="M1373.4433,-137.6677C1317.6567,-135.3856 1229.9549,-131.8474 1154,-129 929.4669,-120.5826 369.9345,-130.3379 129.7026,-92.6145"/>
<polygon fill="#191970" stroke="#191970" points="129.9833,-89.1141 119.5504,-90.9594 128.8569,-96.0229 129.9833,-89.1141"/>
</g>
<!-- Node8&#45;&gt;Node23 -->
<g id="edge30" class="edge">
<title>Node8&#45;&gt;Node23</title>
<path fill="none" stroke="#191970" d="M1486.7428,-136.7155C1654.1914,-127.0229 2146.978,-98.4983 2346.5862,-86.9441"/>
<polygon fill="#191970" stroke="#191970" points="2346.9478,-90.4291 2356.7288,-86.357 2346.5432,-83.4408 2346.9478,-90.4291"/>
</g>
<!-- Node8&#45;&gt;Node24 -->
<g id="edge31" class="edge">
<title>Node8&#45;&gt;Node24</title>
<path fill="none" stroke="#191970" d="M1373.4621,-133.9905C1290.6199,-125.1593 1131.3904,-108.0876 996,-93 984.0166,-91.6646 971.1948,-90.212 958.9499,-88.8132"/>
<polygon fill="#191970" stroke="#191970" points="959.1643,-85.3149 948.831,-87.6546 958.368,-92.2695 959.1643,-85.3149"/>
</g>
<!-- Node20&#45;&gt;Node1 -->
<g id="edge26" class="edge">
<title>Node20&#45;&gt;Node1</title>
<path fill="none" stroke="#191970" d="M119.546,-73.0143C122.7032,-72.2066 125.9039,-71.5045 129,-71 426.7345,-22.4829 1184.4687,-43.8675 1486,-35 1643.7151,-30.3619 1827.2221,-24.2964 1935.1568,-20.6602"/>
<polygon fill="#191970" stroke="#191970" points="1935.4865,-24.1512 1945.3628,-20.316 1935.2505,-17.1551 1935.4865,-24.1512"/>
</g>
<!-- Node20&#45;&gt;Node13 -->
<g id="edge27" class="edge">
<title>Node20&#45;&gt;Node13</title>
<path fill="none" stroke="#191970" d="M110.5037,-71.3491C127.4587,-61.0322 153.3832,-45.2574 172.7976,-33.4439"/>
<polygon fill="#191970" stroke="#191970" points="174.7469,-36.3549 181.4703,-28.1667 171.1081,-30.375 174.7469,-36.3549"/>
</g>
<!-- Node21 -->
<g id="node22" class="node">
<title>Node21</title>
<polygon fill="#ffffff" stroke="#bfbfbf" points="59,-7 59,-28 127,-28 127,-7 59,-7"/>
<text text-anchor="middle" x="93" y="-14.4" font-family="Helvetica,sans-Serif" font-size="12.00" fill="#000000">exception</text>
</g>
<!-- Node20&#45;&gt;Node21 -->
<g id="edge28" class="edge">
<title>Node20&#45;&gt;Node21</title>
<path fill="none" stroke="#191970" d="M93,-71.3491C93,-62.4397 93,-49.4599 93,-38.4761"/>
<polygon fill="#191970" stroke="#191970" points="96.5001,-38.3822 93,-28.3823 89.5001,-38.3823 96.5001,-38.3822"/>
</g>
<!-- Node22 -->
<g id="node23" class="node">
<title>Node22</title>
<polygon fill="#ffffff" stroke="#bfbfbf" points="1431,-7 1431,-28 1477,-28 1477,-7 1431,-7"/>
<text text-anchor="middle" x="1454" y="-14.4" font-family="Helvetica,sans-Serif" font-size="12.00" fill="#000000">string</text>
</g>
<!-- Node20&#45;&gt;Node22 -->
<g id="edge29" class="edge">
<title>Node20&#45;&gt;Node22</title>
<path fill="none" stroke="#191970" d="M119.5531,-73.0567C122.709,-72.2413 125.9075,-71.5259 129,-71 161.8364,-65.4158 1218.6542,-26.187 1420.7737,-18.7244"/>
<polygon fill="#191970" stroke="#191970" points="1420.9273,-22.2212 1430.7914,-18.3547 1420.6691,-15.226 1420.9273,-22.2212"/>
</g>
<!-- Node25 -->
<g id="node26" class="node">
<title>Node25</title>
<polygon fill="#ffffff" stroke="#bfbfbf" points="857,-7 857,-28 943,-28 943,-7 857,-7"/>
<text text-anchor="middle" x="900" y="-14.4" font-family="Helvetica,sans-Serif" font-size="12.00" fill="#000000">Eigen/Dense</text>
</g>
<!-- Node24&#45;&gt;Node25 -->
<g id="edge32" class="edge">
<title>Node24&#45;&gt;Node25</title>
<path fill="none" stroke="#191970" d="M900,-71.3491C900,-62.4397 900,-49.4599 900,-38.4761"/>
<polygon fill="#191970" stroke="#191970" points="903.5001,-38.3822 900,-28.3823 896.5001,-38.3823 903.5001,-38.3822"/>
</g>
<!-- Node26&#45;&gt;Node8 -->
<g id="edge50" class="edge">
<title>Node26&#45;&gt;Node8</title>
<path fill="none" stroke="#191970" d="M835.1192,-192.1195C962.1763,-180.9876 1236.4392,-156.9585 1363.2277,-145.8501"/>
<polygon fill="#191970" stroke="#191970" points="1363.5419,-149.3361 1373.1982,-144.9766 1362.9308,-142.3628 1363.5419,-149.3361"/>
</g>
<!-- Node26&#45;&gt;Node10 -->
<g id="edge38" class="edge">
<title>Node26&#45;&gt;Node10</title>
<path fill="none" stroke="#191970" d="M711.8718,-187.4702C673.9615,-179.5132 623.154,-167.1912 580,-151 559.901,-143.4589 557.2911,-136.008 537,-129 457.8247,-101.6547 433.7713,-111.1643 352,-93 350.5588,-92.6798 349.0926,-92.3476 347.6129,-92.0067"/>
<polygon fill="#191970" stroke="#191970" points="348.3098,-88.5749 337.7716,-89.6689 346.6919,-95.3854 348.3098,-88.5749"/>
</g>
<!-- Node27 -->
<g id="node28" class="node">
<title>Node27</title>
<polygon fill="#ffffff" stroke="#bfbfbf" points="668.5,-71.5 668.5,-92.5 717.5,-92.5 717.5,-71.5 668.5,-71.5"/>
<text text-anchor="middle" x="693" y="-78.9" font-family="Helvetica,sans-Serif" font-size="12.00" fill="#000000">cmath</text>
</g>
<!-- Node26&#45;&gt;Node27 -->
<g id="edge37" class="edge">
<title>Node26&#45;&gt;Node27</title>
<path fill="none" stroke="#191970" d="M781.2635,-187.3899C796.9048,-173.5575 819.2057,-148.795 806,-129 801.3184,-121.9824 758.9575,-105.5838 727.4686,-94.1442"/>
<polygon fill="#191970" stroke="#191970" points="728.2829,-90.7175 717.6885,-90.6224 725.9113,-97.3035 728.2829,-90.7175"/>
</g>
<!-- Node28 -->
<g id="node29" class="node">
<title>Node28</title>
<g id="a_node29"><a xlink:href="EccentricityExpansionCoefficients_8h.html" target="_top" xlink:title="Declares a class which provides the [ &#160;coefficients]{InclinationEccentricity_pms1}. ">
<polygon fill="#ffffff" stroke="#000000" points="589,-129.5 589,-150.5 797,-150.5 797,-129.5 589,-129.5"/>
<text text-anchor="middle" x="693" y="-136.9" font-family="Helvetica,sans-Serif" font-size="12.00" fill="#000000">EccentricityExpansionCoefficients.h</text>
</a>
</g>
</g>
<!-- Node26&#45;&gt;Node28 -->
<g id="edge39" class="edge">
<title>Node26&#45;&gt;Node28</title>
<path fill="none" stroke="#191970" d="M754.2438,-187.3619C743.2488,-178.859 727.6274,-166.7785 714.9136,-156.9466"/>
<polygon fill="#191970" stroke="#191970" points="716.7206,-153.9195 706.6689,-150.5707 712.4384,-159.4569 716.7206,-153.9195"/>
</g>
<!-- Node28&#45;&gt;Node1 -->
<g id="edge40" class="edge">
<title>Node28&#45;&gt;Node1</title>
<path fill="none" stroke="#191970" d="M680.8653,-129.4585C665.3968,-114.7996 642.5228,-88.1337 659,-71 664.5433,-65.2358 1628.0011,-31.3627 1935.1055,-20.7072"/>
<polygon fill="#191970" stroke="#191970" points="1935.4408,-24.1977 1945.3134,-20.3531 1935.1981,-17.2019 1935.4408,-24.1977"/>
</g>
<!-- Node28&#45;&gt;Node7 -->
<g id="edge48" class="edge">
<title>Node28&#45;&gt;Node7</title>
<path fill="none" stroke="#191970" d="M782.5145,-129.4579C859.5615,-120.2574 973.6794,-106.3284 1073,-93 1085.366,-91.3405 1098.8474,-89.4243 1110.9762,-87.6608"/>
<polygon fill="#191970" stroke="#191970" points="1111.8369,-91.0722 1121.2246,-86.1607 1110.8231,-84.146 1111.8369,-91.0722"/>
</g>
<!-- Node28&#45;&gt;Node12 -->
<g id="edge47" class="edge">
<title>Node28&#45;&gt;Node12</title>
<path fill="none" stroke="#191970" d="M706.2059,-129.3619C716.7612,-120.859 731.7577,-108.7785 743.9629,-98.9466"/>
<polygon fill="#191970" stroke="#191970" points="746.2859,-101.5696 751.8778,-92.5707 741.8946,-96.1183 746.2859,-101.5696"/>
</g>
<!-- Node28&#45;&gt;Node13 -->
<g id="edge46" class="edge">
<title>Node28&#45;&gt;Node13</title>
<path fill="none" stroke="#191970" d="M599.5428,-129.4937C523.8236,-120.2874 423.6019,-106.3308 385,-93 366.1891,-86.5038 364.0783,-79.3201 346,-71 311.0894,-54.9332 269.8592,-40.2823 239.9621,-30.3909"/>
<polygon fill="#191970" stroke="#191970" points="240.8756,-27.0073 230.283,-27.2237 238.6986,-33.6602 240.8756,-27.0073"/>
</g>
<!-- Node28&#45;&gt;Node20 -->
<g id="edge41" class="edge">
<title>Node28&#45;&gt;Node20</title>
<path fill="none" stroke="#191970" d="M588.8303,-133.9872C455.2393,-125.83 229.8624,-110.4509 129.4693,-92.6544"/>
<polygon fill="#191970" stroke="#191970" points="130.0485,-89.2022 119.5768,-90.8125 128.7671,-96.0839 130.0485,-89.2022"/>
</g>
<!-- Node28&#45;&gt;Node27 -->
<g id="edge45" class="edge">
<title>Node28&#45;&gt;Node27</title>
<path fill="none" stroke="#191970" d="M693,-129.3619C693,-121.9219 693,-111.7427 693,-102.7276"/>
<polygon fill="#191970" stroke="#191970" points="696.5001,-102.5706 693,-92.5707 689.5001,-102.5707 696.5001,-102.5706"/>
</g>
<!-- Node29 -->
<g id="node30" class="node">
<title>Node29</title>
<polygon fill="#ffffff" stroke="#bfbfbf" points="2113.5,-71.5 2113.5,-92.5 2162.5,-92.5 2162.5,-71.5 2113.5,-71.5"/>
<text text-anchor="middle" x="2138" y="-78.9" font-family="Helvetica,sans-Serif" font-size="12.00" fill="#000000">vector</text>
</g>
<!-- Node28&#45;&gt;Node29 -->
<g id="edge42" class="edge">
<title>Node28&#45;&gt;Node29</title>
<path fill="none" stroke="#191970" d="M797.378,-136.1247C1051.6261,-126.6622 1697.9608,-102.4623 1914,-93 1981.0197,-90.0646 2059.2909,-86.0978 2103.3112,-83.8176"/>
<polygon fill="#191970" stroke="#191970" points="2103.6711,-87.3037 2113.4759,-83.2895 2103.3078,-80.3131 2103.6711,-87.3037"/>
</g>
<!-- Node30 -->
<g id="node31" class="node">
<title>Node30</title>
<polygon fill="#ffffff" stroke="#bfbfbf" points="478,-71.5 478,-92.5 534,-92.5 534,-71.5 478,-71.5"/>
<text text-anchor="middle" x="506" y="-78.9" font-family="Helvetica,sans-Serif" font-size="12.00" fill="#000000">fstream</text>
</g>
<!-- Node28&#45;&gt;Node30 -->
<g id="edge43" class="edge">
<title>Node28&#45;&gt;Node30</title>
<path fill="none" stroke="#191970" d="M659.1357,-129.4966C626.7054,-119.438 577.8473,-104.2842 544.0794,-93.8107"/>
<polygon fill="#191970" stroke="#191970" points="544.7071,-90.341 534.1191,-90.7214 542.6334,-97.0268 544.7071,-90.341"/>
</g>
<!-- Node31 -->
<g id="node32" class="node">
<title>Node31</title>
<polygon fill="#ffffff" stroke="#bfbfbf" points="552.5,-71.5 552.5,-92.5 611.5,-92.5 611.5,-71.5 552.5,-71.5"/>
<text text-anchor="middle" x="582" y="-78.9" font-family="Helvetica,sans-Serif" font-size="12.00" fill="#000000">iomanip</text>
</g>
<!-- Node28&#45;&gt;Node31 -->
<g id="edge44" class="edge">
<title>Node28&#45;&gt;Node31</title>
<path fill="none" stroke="#191970" d="M672.8987,-129.4966C655.7181,-120.5194 630.7702,-107.4835 611.3551,-97.3387"/>
<polygon fill="#191970" stroke="#191970" points="612.8107,-94.1503 602.3268,-92.6212 609.5689,-100.3544 612.8107,-94.1503"/>
</g>
<!-- Node32 -->
<g id="node33" class="node">
<title>Node32</title>
<polygon fill="#ffffff" stroke="#bfbfbf" points="394,-71.5 394,-92.5 460,-92.5 460,-71.5 394,-71.5"/>
<text text-anchor="middle" x="427" y="-78.9" font-family="Helvetica,sans-Serif" font-size="12.00" fill="#000000">algorithm</text>
</g>
<!-- Node28&#45;&gt;Node32 -->
<g id="edge49" class="edge">
<title>Node28&#45;&gt;Node32</title>
<path fill="none" stroke="#191970" d="M638.9741,-129.4415C595.81,-120.8292 533.5379,-108.0123 470.5466,-93.2935"/>
<polygon fill="#191970" stroke="#191970" points="470.9692,-89.7975 460.4335,-90.9153 469.3667,-96.6116 470.9692,-89.7975"/>
</g>
<!-- Node33&#45;&gt;Node1 -->
<g id="edge53" class="edge">
<title>Node33&#45;&gt;Node1</title>
<path fill="none" stroke="#191970" d="M260.0264,-71.9454C263.0564,-71.5921 266.0602,-71.2734 269,-71 807.8011,-20.8986 945.1332,-51.7313 1486,-35 1643.7078,-30.1214 1827.217,-24.1303 1935.1542,-20.5742"/>
<polygon fill="#191970" stroke="#191970" points="1935.4812,-24.0654 1945.3604,-20.2377 1935.2505,-17.0692 1935.4812,-24.0654"/>
</g>
<!-- Node33&#45;&gt;Node13 -->
<g id="edge54" class="edge">
<title>Node33&#45;&gt;Node13</title>
<path fill="none" stroke="#191970" d="M199,-71.3491C199,-62.4397 199,-49.4599 199,-38.4761"/>
<polygon fill="#191970" stroke="#191970" points="202.5001,-38.3822 199,-28.3823 195.5001,-38.3823 202.5001,-38.3822"/>
</g>
<!-- Node34&#45;&gt;Node1 -->
<g id="edge56" class="edge">
<title>Node34&#45;&gt;Node1</title>
<path fill="none" stroke="#191970" d="M2043.0258,-251.8545C2099.3062,-217.9916 2266.1415,-112.5552 2234,-71 2219.5955,-52.3767 2168.4852,-39.0373 2120.7825,-30.336"/>
<polygon fill="#191970" stroke="#191970" points="2121.1258,-26.8425 2110.6694,-28.5494 2119.908,-33.7358 2121.1258,-26.8425"/>
</g>
<!-- Node34&#45;&gt;Node29 -->
<g id="edge61" class="edge">
<title>Node34&#45;&gt;Node29</title>
<path fill="none" stroke="#191970" d="M2037.31,-251.9716C2048.6539,-241.8103 2065.4332,-225.568 2077,-209 2101.2436,-174.2742 2120.5971,-128.4264 2130.5853,-102.3863"/>
<polygon fill="#191970" stroke="#191970" points="2133.934,-103.4242 2134.1687,-92.8319 2127.3798,-100.9659 2133.934,-103.4242"/>
</g>
<!-- Node35 -->
<g id="node36" class="node">
<title>Node35</title>
<g id="a_node36"><a xlink:href="StoppingCondition_8h.html" target="_top" xlink:title="Defines the various stopping conditions needed by OrbitSolver. ">
<polygon fill="#ffffff" stroke="#000000" points="1871,-187.5 1871,-208.5 1997,-208.5 1997,-187.5 1871,-187.5"/>
<text text-anchor="middle" x="1934" y="-194.9" font-family="Helvetica,sans-Serif" font-size="12.00" fill="#000000">StoppingCondition.h</text>
</a>
</g>
</g>
<!-- Node34&#45;&gt;Node35 -->
<g id="edge57" class="edge">
<title>Node34&#45;&gt;Node35</title>
<path fill="none" stroke="#191970" d="M2009.9732,-251.8491C1995.7469,-241.7656 1974.1647,-226.4684 1957.6342,-214.7517"/>
<polygon fill="#191970" stroke="#191970" points="1959.2316,-211.5939 1949.0491,-208.6667 1955.1837,-217.3049 1959.2316,-211.5939"/>
</g>
<!-- Node35&#45;&gt;Node1 -->
<g id="edge58" class="edge">
<title>Node35&#45;&gt;Node1</title>
<path fill="none" stroke="#191970" d="M1947.2451,-187.4269C1967.7425,-170.1692 2006.5023,-133.7574 2023,-93 2029.1476,-77.8125 2030.4917,-59.5022 2030.2536,-44.7171"/>
<polygon fill="#191970" stroke="#191970" points="2033.7486,-44.5196 2029.8468,-34.6694 2026.7543,-44.8029 2033.7486,-44.5196"/>
</g>
<!-- Node35&#45;&gt;Node7 -->
<g id="edge60" class="edge">
<title>Node35&#45;&gt;Node7</title>
<path fill="none" stroke="#191970" d="M1870.7867,-195.8003C1743.1089,-190.8635 1458.6598,-177.227 1365,-151 1343.9461,-145.1044 1341.4219,-136.8083 1321,-129 1308.4065,-124.1849 1233.2958,-104.1565 1186.5905,-91.8512"/>
<polygon fill="#191970" stroke="#191970" points="1187.3656,-88.4361 1176.8041,-89.2763 1185.5844,-95.2057 1187.3656,-88.4361"/>
</g>
<!-- Node35&#45;&gt;Node8 -->
<g id="edge59" class="edge">
<title>Node35&#45;&gt;Node8</title>
<path fill="none" stroke="#191970" d="M1870.9329,-190.7423C1775.2691,-179.7333 1594.3063,-158.9083 1496.5935,-147.6635"/>
<polygon fill="#191970" stroke="#191970" points="1496.8744,-144.1728 1486.5398,-146.5066 1496.074,-151.1269 1496.8744,-144.1728"/>
</g>
<!-- Node36&#45;&gt;Node1 -->
<g id="edge63" class="edge">
<title>Node36&#45;&gt;Node1</title>
<path fill="none" stroke="#191970" d="M1724.6115,-251.9355C1750.0451,-242.1083 1787.907,-226.3961 1819,-209 1897.5483,-165.0534 1924.3564,-159.5094 1985,-93 1998.0894,-78.6445 2008.8917,-59.6246 2016.3952,-44.2666"/>
<polygon fill="#191970" stroke="#191970" points="2019.7628,-45.3288 2020.8406,-34.7889 2013.4253,-42.3562 2019.7628,-45.3288"/>
</g>
<!-- Node36&#45;&gt;Node35 -->
<g id="edge64" class="edge">
<title>Node36&#45;&gt;Node35</title>
<path fill="none" stroke="#191970" d="M1734.7685,-251.9934C1775.9142,-240.8426 1841.0135,-223.2001 1885.5221,-211.1379"/>
<polygon fill="#191970" stroke="#191970" points="1886.5118,-214.496 1895.2481,-208.5021 1884.6807,-207.7398 1886.5118,-214.496"/>
</g>
<!-- Node37&#45;&gt;Node1 -->
<g id="edge66" class="edge">
<title>Node37&#45;&gt;Node1</title>
<path fill="none" stroke="#191970" d="M1571.6515,-251.9329C1646.7735,-229.8217 1818.9608,-173.932 1946,-93 1968.3009,-78.7929 1990.1566,-58.2426 2005.689,-42.168"/>
<polygon fill="#191970" stroke="#191970" points="2008.443,-44.3502 2012.7803,-34.6838 2003.3617,-39.5356 2008.443,-44.3502"/>
</g>
<!-- Node37&#45;&gt;Node35 -->
<g id="edge67" class="edge">
<title>Node37&#45;&gt;Node35</title>
<path fill="none" stroke="#191970" d="M1583.4855,-251.9708C1595.4187,-249.559 1608.1463,-247.0917 1620,-245 1702.3128,-230.475 1797.2823,-216.6669 1861.0342,-207.8226"/>
<polygon fill="#191970" stroke="#191970" points="1861.5646,-211.2827 1870.9912,-206.4464 1860.6062,-204.3486 1861.5646,-211.2827"/>
</g>
<!-- Node39&#45;&gt;Node1 -->
<g id="edge73" class="edge">
<title>Node39&#45;&gt;Node1</title>
<path fill="none" stroke="#191970" d="M1704.3753,-518.7034C1359.7821,-510.3223 0,-471.7538 0,-385 0,-385 0,-385 0,-140 0,2.1052 53.1881,-76.1787 1486,-35 1643.7181,-30.4672 1827.2242,-24.3691 1935.1579,-20.6979"/>
<polygon fill="#191970" stroke="#191970" points="1935.4888,-24.1887 1945.3638,-20.3503 1935.2504,-17.1928 1935.4888,-24.1887"/>
</g>
<!-- Node39&#45;&gt;Node3 -->
<g id="edge74" class="edge">
<title>Node39&#45;&gt;Node3</title>
<path fill="none" stroke="#191970" d="M1704.2048,-511.6575C1628.6202,-502.5894 1511.4681,-486.9981 1411,-467 1222.3734,-429.454 1001.6002,-367.4092 908.2859,-340.3313"/>
<polygon fill="#191970" stroke="#191970" points="909.1806,-336.9466 898.6009,-337.5136 907.225,-343.6679 909.1806,-336.9466"/>
</g>
<!-- Node39&#45;&gt;Node40 -->
<g id="edge75" class="edge">
<title>Node39&#45;&gt;Node40</title>
<path fill="none" stroke="#191970" d="M1783,-503.3388C1783,-478.5388 1783,-432.7274 1783,-405.9609"/>
<polygon fill="#191970" stroke="#191970" points="1786.5001,-405.7723 1783,-395.7723 1779.5001,-405.7724 1786.5001,-405.7723"/>
</g>
<!-- Node42 -->
<g id="node43" class="node">
<title>Node42</title>
<g id="a_node43"><a xlink:href="BinarySystem_8h.html" target="_top" xlink:title="Defines the BinarySystem class. ">
<polygon fill="#ffffff" stroke="#000000" points="2148.5,-439 2148.5,-460 2249.5,-460 2249.5,-439 2148.5,-439"/>
<text text-anchor="middle" x="2199" y="-446.4" font-family="Helvetica,sans-Serif" font-size="12.00" fill="#000000">BinarySystem.h</text>
</a>
</g>
</g>
<!-- Node39&#45;&gt;Node42 -->
<g id="edge86" class="edge">
<title>Node39&#45;&gt;Node42</title>
<path fill="none" stroke="#191970" d="M1861.5421,-509.4064C1929.991,-499.4107 2031.8286,-483.7487 2120,-467 2127.666,-465.5438 2135.7246,-463.8956 2143.6445,-462.2073"/>
<polygon fill="#191970" stroke="#191970" points="2144.53,-465.5968 2153.5623,-460.0588 2143.0479,-458.7555 2144.53,-465.5968"/>
</g>
<!-- Node47 -->
<g id="node48" class="node">
<title>Node47</title>
<g id="a_node48"><a xlink:href="LagForcingFrequencyBreakCondition_8h.html" target="_top" xlink:title="Declares a stopping condition satisfied when a forcing frequency reaches a critical value...">
<polygon fill="#ffffff" stroke="#000000" points="1945,-432.5 1945,-466.5 2111,-466.5 2111,-432.5 1945,-432.5"/>
<text text-anchor="start" x="1953" y="-452.9" font-family="Helvetica,sans-Serif" font-size="12.00" fill="#000000">LagForcingFrequencyBreak</text>
<text text-anchor="middle" x="2028" y="-439.9" font-family="Helvetica,sans-Serif" font-size="12.00" fill="#000000">Condition.h</text>
</a>
</g>
</g>
<!-- Node39&#45;&gt;Node47 -->
<g id="edge103" class="edge">
<title>Node39&#45;&gt;Node47</title>
<path fill="none" stroke="#191970" d="M1841.6836,-503.4937C1877.0305,-493.2503 1922.2124,-480.1568 1959.2305,-469.4291"/>
<polygon fill="#191970" stroke="#191970" points="1960.3155,-472.7588 1968.9461,-466.6136 1958.3671,-466.0354 1960.3155,-472.7588"/>
</g>
<!-- Node48 -->
<g id="node49" class="node">
<title>Node48</title>
<g id="a_node49"><a xlink:href="LagSpinBreakCondition_8h.html" target="_top" xlink:title="Declares a stopping condition monitoring for critical spin frequencies. ">
<polygon fill="#ffffff" stroke="#000000" points="1419.5,-439 1419.5,-460 1574.5,-460 1574.5,-439 1419.5,-439"/>
<text text-anchor="middle" x="1497" y="-446.4" font-family="Helvetica,sans-Serif" font-size="12.00" fill="#000000">LagSpinBreakCondition.h</text>
</a>
</g>
</g>
<!-- Node39&#45;&gt;Node48 -->
<g id="edge110" class="edge">
<title>Node39&#45;&gt;Node48</title>
<path fill="none" stroke="#191970" d="M1714.4959,-503.4937C1663.8436,-490.9192 1595.8904,-474.0497 1549.5038,-462.5341"/>
<polygon fill="#191970" stroke="#191970" points="1550.2053,-459.1021 1539.6565,-460.0896 1548.5186,-465.8959 1550.2053,-459.1021"/>
</g>
<!-- Node40&#45;&gt;Node1 -->
<g id="edge76" class="edge">
<title>Node40&#45;&gt;Node1</title>
<path fill="none" stroke="#191970" d="M1822.6147,-374.4278C1907.2642,-351.6099 2100.1236,-298.3294 2125,-280 2165.241,-250.3498 2235.9981,-140.9835 2250,-93 2252.739,-83.6137 2256.0501,-78.6813 2250,-71 2233.6378,-50.2262 2174.0447,-36.5752 2120.7193,-28.2646"/>
<polygon fill="#191970" stroke="#191970" points="2120.9104,-24.7539 2110.5003,-26.7238 2119.8667,-31.6757 2120.9104,-24.7539"/>
</g>
<!-- Node40&#45;&gt;Node3 -->
<g id="edge77" class="edge">
<title>Node40&#45;&gt;Node3</title>
<path fill="none" stroke="#191970" d="M1725.7975,-381.3938C1571.1242,-371.6426 1143.5711,-344.6882 954.7127,-332.7819"/>
<polygon fill="#191970" stroke="#191970" points="954.7345,-329.2764 944.534,-332.1402 954.294,-336.2625 954.7345,-329.2764"/>
</g>
<!-- Node40&#45;&gt;Node7 -->
<g id="edge85" class="edge">
<title>Node40&#45;&gt;Node7</title>
<path fill="none" stroke="#191970" d="M1725.8346,-380.0361C1648.2034,-372.6844 1513.9595,-357.6296 1469,-338 1334.0162,-279.0653 1208.0802,-148.033 1164.834,-100.0533"/>
<polygon fill="#191970" stroke="#191970" points="1167.443,-97.7202 1158.1729,-92.5902 1162.2205,-102.3814 1167.443,-97.7202"/>
</g>
<!-- Node40&#45;&gt;Node8 -->
<g id="edge83" class="edge">
<title>Node40&#45;&gt;Node8</title>
<path fill="none" stroke="#191970" d="M1725.8931,-377.0682C1632.4135,-362.7856 1453.3554,-329.5418 1416,-280 1389.4266,-244.7577 1407.3414,-189.5167 1420.1803,-160.0669"/>
<polygon fill="#191970" stroke="#191970" points="1423.4425,-161.3497 1424.4287,-150.8008 1417.0794,-158.4323 1423.4425,-161.3497"/>
</g>
<!-- Node40&#45;&gt;Node10 -->
<g id="edge84" class="edge">
<title>Node40&#45;&gt;Node10</title>
<path fill="none" stroke="#191970" d="M1725.9873,-382.9562C1526.4339,-375.7189 866.3707,-351.0446 772,-338 625.1059,-317.6952 447,-410.7908 447,-262.5 447,-262.5 447,-262.5 447,-198 447,-164.7349 441.4523,-152.5915 418,-129 407.5355,-118.4734 374.4606,-105.0484 347.2884,-95.2439"/>
<polygon fill="#191970" stroke="#191970" points="348.1923,-91.851 337.5975,-91.8077 345.8528,-98.4485 348.1923,-91.851"/>
</g>
<!-- Node40&#45;&gt;Node23 -->
<g id="edge82" class="edge">
<title>Node40&#45;&gt;Node23</title>
<path fill="none" stroke="#191970" d="M1840.0672,-378.7065C1892.0422,-371.9688 1970.4523,-359.2666 2036,-338 2198.5768,-285.2528 2359.3646,-148.2686 2413.1466,-99.5312"/>
<polygon fill="#191970" stroke="#191970" points="2415.5494,-102.0767 2420.5691,-92.7464 2410.8266,-96.9099 2415.5494,-102.0767"/>
</g>
<!-- Node41 -->
<g id="node42" class="node">
<title>Node41</title>
<g id="a_node42"><a xlink:href="OrbitalExpressions_8h.html" target="_top" xlink:title="A collection of functions which calculate various quantities for two body orbits. ...">
<polygon fill="#ffffff" stroke="#000000" points="2164,-316.5 2164,-337.5 2330,-337.5 2330,-316.5 2164,-316.5"/>
<text text-anchor="middle" x="2247" y="-323.9" font-family="Helvetica,sans-Serif" font-size="12.00" fill="#000000">../Core/OrbitalExpressions.h</text>
</a>
</g>
</g>
<!-- Node40&#45;&gt;Node41 -->
<g id="edge78" class="edge">
<title>Node40&#45;&gt;Node41</title>
<path fill="none" stroke="#191970" d="M1840.3609,-377.8299C1918.732,-368.0335 2060.2115,-350.3486 2153.8861,-338.6392"/>
<polygon fill="#191970" stroke="#191970" points="2154.4414,-342.0972 2163.93,-337.3837 2153.5731,-335.1512 2154.4414,-342.0972"/>
</g>
<!-- Node41&#45;&gt;Node1 -->
<g id="edge79" class="edge">
<title>Node41&#45;&gt;Node1</title>
<path fill="none" stroke="#191970" d="M2291.1427,-316.4563C2315.9582,-309.0491 2346.56,-297.3231 2370,-280 2461.1243,-212.6556 2591.6299,-155.3744 2516,-71 2490.1494,-42.1605 2254.9942,-27.3034 2120.7865,-21.1119"/>
<polygon fill="#191970" stroke="#191970" points="2120.6568,-17.6025 2110.5084,-20.6456 2120.3394,-24.5953 2120.6568,-17.6025"/>
</g>
<!-- Node41&#45;&gt;Node23 -->
<g id="edge81" class="edge">
<title>Node41&#45;&gt;Node23</title>
<path fill="none" stroke="#191970" d="M2282.1468,-316.4766C2302.1068,-309.0026 2326.3532,-297.2027 2343,-280 2393.439,-227.8764 2418.3403,-142.2199 2427.5946,-102.9078"/>
<polygon fill="#191970" stroke="#191970" points="2431.0645,-103.43 2429.8428,-92.9059 2424.2349,-101.8948 2431.0645,-103.43"/>
</g>
<!-- Node41&#45;&gt;Node27 -->
<g id="edge80" class="edge">
<title>Node41&#45;&gt;Node27</title>
<path fill="none" stroke="#191970" d="M2163.8403,-324.1462C2018.5665,-318.7047 1709.2233,-305.091 1449,-280 1212.8758,-257.2327 1137.4136,-303.8911 920,-209 868.7839,-186.6465 871.5429,-156.6831 823,-129 814.3772,-124.0826 762.6032,-105.8908 727.0541,-93.6362"/>
<polygon fill="#191970" stroke="#191970" points="728.1017,-90.2954 717.507,-90.3532 725.8254,-96.9149 728.1017,-90.2954"/>
</g>
<!-- Node42&#45;&gt;Node1 -->
<g id="edge87" class="edge">
<title>Node42&#45;&gt;Node1</title>
<path fill="none" stroke="#191970" d="M2249.8546,-446.9019C2366.8745,-440.4954 2647.7607,-422.5131 2681,-396 2706.383,-375.7534 2705,-359.4688 2705,-327 2705,-327 2705,-327 2705,-140 2705,-86.7315 2656.9876,-89.4057 2607,-71 2520.2419,-39.0553 2261.2257,-25.4348 2120.8645,-20.2702"/>
<polygon fill="#191970" stroke="#191970" points="2120.6741,-16.7612 2110.5544,-19.8982 2120.4216,-23.7566 2120.6741,-16.7612"/>
</g>
<!-- Node42&#45;&gt;Node8 -->
<g id="edge94" class="edge">
<title>Node42&#45;&gt;Node8</title>
<path fill="none" stroke="#191970" d="M2151.4462,-438.9403C1986.9689,-402.3936 1452.0524,-283.3315 1449,-280 1419.0417,-247.3027 1421.9221,-190.9615 1426.1997,-160.6813"/>
<polygon fill="#191970" stroke="#191970" points="1429.6573,-161.2239 1427.7806,-150.7966 1422.7452,-160.1183 1429.6573,-161.2239"/>
</g>
<!-- Node42&#45;&gt;Node11 -->
<g id="edge101" class="edge">
<title>Node42&#45;&gt;Node11</title>
<path fill="none" stroke="#191970" d="M2195.685,-438.9064C2191.4103,-422.9652 2186.161,-392.6898 2201,-374 2240.4139,-324.358 2300.2469,-388.1595 2339,-338 2344.978,-330.2625 2341.5443,-325.441 2339,-316 2315.2295,-227.7955 2249.1273,-138.6056 2218.6985,-100.7974"/>
<polygon fill="#191970" stroke="#191970" points="2221.1426,-98.2566 2212.1082,-92.722 2215.7193,-102.6825 2221.1426,-98.2566"/>
</g>
<!-- Node42&#45;&gt;Node13 -->
<g id="edge102" class="edge">
<title>Node42&#45;&gt;Node13</title>
<path fill="none" stroke="#191970" d="M2157.8265,-438.99C2145.7163,-436.2769 2132.3922,-433.6569 2120,-432 1788.3464,-387.6561 1702.104,-414.3038 1368,-396 1315.7568,-393.1379 476.9214,-356.5536 428,-338 365.2377,-314.1972 364.2839,-283.0705 309,-245 201.2753,-170.8169 121.3106,-206.8942 57,-93 52.1924,-84.4858 51.4368,-79.0409 57,-71 63.0799,-62.2122 118.4928,-43.0733 158.2631,-30.2341"/>
<polygon fill="#191970" stroke="#191970" points="159.5421,-33.4996 167.9976,-27.1157 157.4065,-26.8333 159.5421,-33.4996"/>
</g>
<!-- Node42&#45;&gt;Node20 -->
<g id="edge96" class="edge">
<title>Node42&#45;&gt;Node20</title>
<path fill="none" stroke="#191970" d="M2156.5653,-438.9466C2144.7864,-436.3328 2131.9499,-433.7753 2120,-432 2037.1061,-419.6848 1451.6617,-378.8758 1368,-374 1317.3798,-371.0498 498.8323,-365.1387 456,-338 367.5054,-281.9294 431.8441,-190.4548 347,-129 270.0329,-73.2507 227.4132,-112.6669 129.5885,-92.7597"/>
<polygon fill="#191970" stroke="#191970" points="130.1475,-89.299 119.6289,-90.5679 128.643,-96.1354 130.1475,-89.299"/>
</g>
<!-- Node42&#45;&gt;Node22 -->
<g id="edge100" class="edge">
<title>Node42&#45;&gt;Node22</title>
<path fill="none" stroke="#191970" d="M2249.6363,-447.8509C2346.5194,-443.9145 2553.9311,-431.49 2615,-396 2648.2007,-376.7055 2667,-365.4001 2667,-327 2667,-327 2667,-327 2667,-198 2667,-110.3081 2597.6042,-103.1034 2516,-71 2467.044,-51.7405 1663.0613,-24.3552 1487.631,-18.5905"/>
<polygon fill="#191970" stroke="#191970" points="1487.5605,-15.0864 1477.4513,-18.2571 1487.3313,-22.0827 1487.5605,-15.0864"/>
</g>
<!-- Node42&#45;&gt;Node23 -->
<g id="edge93" class="edge">
<title>Node42&#45;&gt;Node23</title>
<path fill="none" stroke="#191970" d="M2249.5555,-447.9233C2341.9189,-444.1808 2533.4628,-432.1741 2588,-396 2617.7271,-376.2822 2629,-362.672 2629,-327 2629,-327 2629,-327 2629,-262.5 2629,-177.2118 2527.3807,-121.3262 2470.1113,-96.603"/>
<polygon fill="#191970" stroke="#191970" points="2471.2205,-93.2727 2460.6455,-92.6254 2468.5087,-99.7261 2471.2205,-93.2727"/>
</g>
<!-- Node42&#45;&gt;Node34 -->
<g id="edge89" class="edge">
<title>Node42&#45;&gt;Node34</title>
<path fill="none" stroke="#191970" d="M2188.5435,-438.9348C2177.9731,-428.2096 2161.2142,-411.0815 2147,-396 2108.7199,-355.384 2064.7775,-306.8048 2041.4938,-280.9051"/>
<polygon fill="#191970" stroke="#191970" points="2043.9789,-278.434 2034.6935,-273.3319 2038.7705,-283.1109 2043.9789,-278.434"/>
</g>
<!-- Node42&#45;&gt;Node40 -->
<g id="edge88" class="edge">
<title>Node42&#45;&gt;Node40</title>
<path fill="none" stroke="#191970" d="M2154.4265,-438.9444C2143.2247,-436.4798 2131.2024,-433.9952 2120,-432 2002.5484,-411.0809 1972.0633,-413.1334 1854,-396 1852.889,-395.8388 1851.7684,-395.6753 1850.6402,-395.5099"/>
<polygon fill="#191970" stroke="#191970" points="1850.7426,-391.9868 1840.337,-393.9798 1849.7143,-398.9109 1850.7426,-391.9868"/>
</g>
<!-- Node42&#45;&gt;Node41 -->
<g id="edge95" class="edge">
<title>Node42&#45;&gt;Node41</title>
<path fill="none" stroke="#191970" d="M2249.63,-445.8824C2346.6773,-438.4316 2551.1646,-420.0371 2572,-396 2578.4043,-388.6115 2578.4001,-381.3922 2572,-374 2556.8935,-356.5517 2430.864,-342.3719 2340.2817,-334.3069"/>
<polygon fill="#191970" stroke="#191970" points="2340.5197,-330.8144 2330.2518,-333.4258 2339.9071,-337.7875 2340.5197,-330.8144"/>
</g>
<!-- Node43 -->
<g id="node44" class="node">
<title>Node43</title>
<g id="a_node44"><a xlink:href="SecondaryDeathCondition_8h.html" target="_top" xlink:title="Declares a stopping condition class monitoring for the death of the secondary object. ">
<polygon fill="#ffffff" stroke="#000000" points="2433,-252 2433,-273 2601,-273 2601,-252 2433,-252"/>
<text text-anchor="middle" x="2517" y="-259.4" font-family="Helvetica,sans-Serif" font-size="12.00" fill="#000000">SecondaryDeathCondition.h</text>
</a>
</g>
</g>
<!-- Node42&#45;&gt;Node43 -->
<g id="edge90" class="edge">
<title>Node42&#45;&gt;Node43</title>
<path fill="none" stroke="#191970" d="M2198.6118,-438.8039C2198.6346,-422.4472 2201.2109,-391.3002 2219,-374 2269.0797,-325.2966 2306.5128,-362.3194 2372,-338 2415.7445,-321.755 2463.1088,-295.2346 2491.3998,-278.338"/>
<polygon fill="#191970" stroke="#191970" points="2493.4791,-281.171 2500.2301,-273.0056 2489.8606,-275.1789 2493.4791,-281.171"/>
</g>
<!-- Node44 -->
<g id="node45" class="node">
<title>Node44</title>
<polygon fill="#ffffff" stroke="#bfbfbf" points="2227.5,-374.5 2227.5,-395.5 2322.5,-395.5 2322.5,-374.5 2227.5,-374.5"/>
<text text-anchor="middle" x="2275" y="-381.9" font-family="Helvetica,sans-Serif" font-size="12.00" fill="#000000">gsl/gsl_errno.h</text>
</g>
<!-- Node42&#45;&gt;Node44 -->
<g id="edge97" class="edge">
<title>Node42&#45;&gt;Node44</title>
<path fill="none" stroke="#191970" d="M2211.5499,-438.8491C2223.2112,-428.9524 2240.7904,-414.0332 2254.4903,-402.4063"/>
<polygon fill="#191970" stroke="#191970" points="2257.0719,-404.8059 2262.4315,-395.6667 2252.5424,-399.4689 2257.0719,-404.8059"/>
</g>
<!-- Node45 -->
<g id="node46" class="node">
<title>Node45</title>
<polygon fill="#ffffff" stroke="#bfbfbf" points="2341,-374.5 2341,-395.5 2445,-395.5 2445,-374.5 2341,-374.5"/>
<text text-anchor="middle" x="2393" y="-381.9" font-family="Helvetica,sans-Serif" font-size="12.00" fill="#000000">gsl/gsl_odeiv2.h</text>
</g>
<!-- Node42&#45;&gt;Node45 -->
<g id="edge98" class="edge">
<title>Node42&#45;&gt;Node45</title>
<path fill="none" stroke="#191970" d="M2230.6012,-438.9934C2263.5765,-428.03 2315.4261,-410.7913 2351.6411,-398.7508"/>
<polygon fill="#191970" stroke="#191970" points="2353.0273,-401.9783 2361.4123,-395.5021 2350.8188,-395.3359 2353.0273,-401.9783"/>
</g>
<!-- Node46 -->
<g id="node47" class="node">
<title>Node46</title>
<polygon fill="#ffffff" stroke="#bfbfbf" points="2463,-374.5 2463,-395.5 2563,-395.5 2563,-374.5 2463,-374.5"/>
<text text-anchor="middle" x="2513" y="-381.9" font-family="Helvetica,sans-Serif" font-size="12.00" fill="#000000">gsl/gsl_siman.h</text>
</g>
<!-- Node42&#45;&gt;Node46 -->
<g id="edge99" class="edge">
<title>Node42&#45;&gt;Node46</title>
<path fill="none" stroke="#191970" d="M2249.7985,-439.0653C2305.2574,-427.6732 2393.9997,-409.4443 2452.886,-397.3483"/>
<polygon fill="#191970" stroke="#191970" points="2453.7027,-400.7536 2462.794,-395.313 2452.2942,-393.8968 2453.7027,-400.7536"/>
</g>
<!-- Node43&#45;&gt;Node1 -->
<g id="edge91" class="edge">
<title>Node43&#45;&gt;Node1</title>
<path fill="none" stroke="#191970" d="M2527.385,-251.9523C2557.1072,-220.5246 2637.2349,-126.2723 2587,-71 2556.3129,-37.2357 2271.5973,-24.2439 2120.7763,-19.6994"/>
<polygon fill="#191970" stroke="#191970" points="2120.6956,-16.1956 2110.5968,-19.3994 2120.4894,-23.1926 2120.6956,-16.1956"/>
</g>
<!-- Node43&#45;&gt;Node35 -->
<g id="edge92" class="edge">
<title>Node43&#45;&gt;Node35</title>
<path fill="none" stroke="#191970" d="M2432.8494,-253.19C2318.4475,-240.5332 2115.7026,-218.1026 2007.2531,-206.1043"/>
<polygon fill="#191970" stroke="#191970" points="2007.3827,-202.5974 1997.0584,-204.9764 2006.6129,-209.5549 2007.3827,-202.5974"/>
</g>
<!-- Node47&#45;&gt;Node1 -->
<g id="edge104" class="edge">
<title>Node47&#45;&gt;Node1</title>
<path fill="none" stroke="#191970" d="M2042.1976,-432.3586C2064.635,-405.8067 2110.3441,-353.8529 2155,-316 2226.2773,-255.5814 2329,-291.4391 2329,-198 2329,-198 2329,-198 2329,-140 2329,-98.1726 2301.2466,-91.8737 2265,-71 2240.3879,-56.8264 2176.0888,-42.7603 2120.6666,-32.6106"/>
<polygon fill="#191970" stroke="#191970" points="2121.2533,-29.16 2110.7902,-30.8256 2120.0083,-36.0484 2121.2533,-29.16"/>
</g>
<!-- Node47&#45;&gt;Node20 -->
<g id="edge108" class="edge">
<title>Node47&#45;&gt;Node20</title>
<path fill="none" stroke="#191970" d="M1944.9976,-445.8324C1599.7086,-430.3072 295,-368.8732 295,-327 295,-327 295,-327 295,-198 295,-152.0478 257.2913,-152.8285 218,-129 202.7057,-119.7247 160.4367,-104.5558 129.2667,-93.9675"/>
<polygon fill="#191970" stroke="#191970" points="130.1789,-90.5816 119.5848,-90.704 127.943,-97.2149 130.1789,-90.5816"/>
</g>
<!-- Node47&#45;&gt;Node29 -->
<g id="edge109" class="edge">
<title>Node47&#45;&gt;Node29</title>
<path fill="none" stroke="#191970" d="M2025.8404,-432.1974C2024.6101,-416.3452 2024.6903,-392.5885 2033,-374 2056.8573,-320.6323 2101.1578,-333.3744 2125,-280 2151.612,-220.425 2145.9615,-140.6191 2141.221,-103.1304"/>
<polygon fill="#191970" stroke="#191970" points="2144.647,-102.3529 2139.8157,-92.9238 2137.7125,-103.3077 2144.647,-102.3529"/>
</g>
<!-- Node47&#45;&gt;Node35 -->
<g id="edge105" class="edge">
<title>Node47&#45;&gt;Node35</title>
<path fill="none" stroke="#191970" d="M2012.9605,-432.2511C1988.7653,-403.2212 1942.1746,-341.702 1925,-280 1919.2979,-259.5146 1923.2376,-235.2082 1927.5529,-218.404"/>
<polygon fill="#191970" stroke="#191970" points="1930.9833,-219.1358 1930.3453,-208.5602 1924.249,-217.2254 1930.9833,-219.1358"/>
</g>
<!-- Node47&#45;&gt;Node40 -->
<g id="edge106" class="edge">
<title>Node47&#45;&gt;Node40</title>
<path fill="none" stroke="#191970" d="M1963.3087,-432.469C1922.4445,-421.7109 1870.4444,-408.0211 1832.7983,-398.1102"/>
<polygon fill="#191970" stroke="#191970" points="1833.6295,-394.7098 1823.068,-395.5485 1831.8474,-401.4792 1833.6295,-394.7098"/>
</g>
<!-- Node47&#45;&gt;Node41 -->
<g id="edge107" class="edge">
<title>Node47&#45;&gt;Node41</title>
<path fill="none" stroke="#191970" d="M2052.9746,-432.352C2076.6759,-416.3939 2113.5473,-392.3781 2147,-374 2168.5284,-362.1728 2193.5388,-350.4185 2213.1619,-341.6232"/>
<polygon fill="#191970" stroke="#191970" points="2214.6039,-344.8125 2222.3235,-337.5558 2211.7635,-338.4147 2214.6039,-344.8125"/>
</g>
<!-- Node48&#45;&gt;Node1 -->
<g id="edge111" class="edge">
<title>Node48&#45;&gt;Node1</title>
<path fill="none" stroke="#191970" d="M1510.2271,-438.9667C1529.817,-423.6282 1568.0052,-394.7194 1603,-374 1653.9722,-343.8209 1669.0438,-340.4473 1723,-316 1760.3694,-299.0681 1773.8178,-302.6879 1808,-280 1826.5926,-267.6594 1824.3631,-255.6003 1844,-245 1908.9036,-209.9639 1952.3436,-259.6063 2006,-209 2051.8769,-165.731 2045.383,-133.7387 2039,-71 2038.1227,-62.3769 2036.4695,-53.091 2034.7063,-44.715"/>
<polygon fill="#191970" stroke="#191970" points="2038.0664,-43.7029 2032.4643,-34.7103 2031.2358,-45.2337 2038.0664,-43.7029"/>
</g>
<!-- Node48&#45;&gt;Node20 -->
<g id="edge114" class="edge">
<title>Node48&#45;&gt;Node20</title>
<path fill="none" stroke="#191970" d="M1419.2095,-448.4657C1158.0943,-444.6845 326.6838,-430.0146 281,-396 254.9572,-376.6094 257,-359.4688 257,-327 257,-327 257,-327 257,-198 257,-166.0406 172.9379,-120.3849 125.181,-97.0259"/>
<polygon fill="#191970" stroke="#191970" points="126.6761,-93.8612 116.1494,-92.6621 123.6307,-100.164 126.6761,-93.8612"/>
</g>
<!-- Node48&#45;&gt;Node29 -->
<g id="edge115" class="edge">
<title>Node48&#45;&gt;Node29</title>
<path fill="none" stroke="#191970" d="M1517.9863,-438.9909C1592.1486,-401.9295 1841.884,-277.7941 1925,-245 1974.4249,-225.499 1995.3668,-239.3192 2039,-209 2060.5221,-194.045 2103.6223,-132.8734 2125.149,-101.2043"/>
<polygon fill="#191970" stroke="#191970" points="2128.1549,-103.007 2130.8517,-92.7611 2122.3541,-99.089 2128.1549,-103.007"/>
</g>
<!-- Node48&#45;&gt;Node35 -->
<g id="edge112" class="edge">
<title>Node48&#45;&gt;Node35</title>
<path fill="none" stroke="#191970" d="M1424.6824,-438.9583C1375.6638,-430.1627 1317.1407,-415.8542 1302,-396 1280.4395,-367.7274 1277.8354,-342.082 1302,-316 1373.3419,-238.9971 1675.5061,-318.9107 1773,-280 1795.8862,-270.8659 1794.753,-257.4809 1816,-245 1839.2916,-231.318 1867.3118,-219.9682 1890.2018,-211.8514"/>
<polygon fill="#191970" stroke="#191970" points="1891.3646,-215.1528 1899.669,-208.5734 1889.0742,-208.5381 1891.3646,-215.1528"/>
</g>
<!-- Node48&#45;&gt;Node40 -->
<g id="edge113" class="edge">
<title>Node48&#45;&gt;Node40</title>
<path fill="none" stroke="#191970" d="M1543.5874,-438.9934C1593.5507,-427.7254 1672.9065,-409.8288 1726.4222,-397.7597"/>
<polygon fill="#191970" stroke="#191970" points="1727.4476,-401.1164 1736.4326,-395.5021 1725.9075,-394.2879 1727.4476,-401.1164"/>
</g>
</g>
</svg>
