<?xml version="1.0" encoding="UTF-8" standalone="no"?>
<!DOCTYPE svg PUBLIC "-//W3C//DTD SVG 1.1//EN"
 "http://www.w3.org/Graphics/SVG/1.1/DTD/svg11.dtd">
<!-- Generated by graphviz version 2.40.1 (20161225.0304)
 -->
<!-- Title: /Users/kpenev/projects/git/poet/poet_src/Planet/CInterface.h Pages: 1 -->
<svg width="475pt" height="215pt"
 viewBox="0.00 0.00 475.41 215.00" xmlns="http://www.w3.org/2000/svg" xmlns:xlink="http://www.w3.org/1999/xlink">
<g id="graph0" class="graph" transform="scale(1 1) rotate(0) translate(4 211)">
<title>/Users/kpenev/projects/git/poet/poet_src/Planet/CInterface.h</title>
<polygon fill="#ffffff" stroke="transparent" points="-4,4 -4,-211 471.4121,-211 471.4121,4 -4,4"/>
<!-- Node49 -->
<g id="node1" class="node">
<title>Node49</title>
<polygon fill="#bfbfbf" stroke="#000000" points="241.9961,-162.5 241.9961,-206.5 387.4121,-206.5 387.4121,-162.5 241.9961,-162.5"/>
<text text-anchor="start" x="249.9961" y="-192.9" font-family="Helvetica,sans-Serif" font-size="12.00" fill="#000000">/Users/kpenev/projects</text>
<text text-anchor="start" x="249.9961" y="-180.9" font-family="Helvetica,sans-Serif" font-size="12.00" fill="#000000">/git/poet/poet_src/Planet</text>
<text text-anchor="middle" x="314.7041" y="-168.9" font-family="Helvetica,sans-Serif" font-size="12.00" fill="#000000">/CInterface.h</text>
</g>
<!-- Node50 -->
<g id="node2" class="node">
<title>Node50</title>
<g id="a_node2"><a xlink:href="Evolve_2CInterface_8h.html" target="_top" xlink:title="Declare C&#45;style functions for accessing the functionality of the Evolve library. ">
<polygon fill="#ffffff" stroke="#000000" points="190,-81.5 190,-125.5 337.4082,-125.5 337.4082,-81.5 190,-81.5"/>
<text text-anchor="start" x="198" y="-111.9" font-family="Helvetica,sans-Serif" font-size="12.00" fill="#000000">/Users/kpenev/projects</text>
<text text-anchor="start" x="198" y="-99.9" font-family="Helvetica,sans-Serif" font-size="12.00" fill="#000000">/git/poet/poet_src/Evolve</text>
<text text-anchor="middle" x="263.7041" y="-87.9" font-family="Helvetica,sans-Serif" font-size="12.00" fill="#000000">/CInterface.h</text>
</a>
</g>
</g>
<!-- Node49&#45;&gt;Node50 -->
<g id="edge1" class="edge">
<title>Node49&#45;&gt;Node50</title>
<path fill="none" stroke="#191970" d="M295.3097,-153.6971C289.4228,-144.3474 283.0747,-134.2651 277.6232,-125.6068"/>
<polygon fill="#191970" stroke="#191970" points="292.4781,-155.7689 300.7681,-162.3664 298.4018,-152.0392 292.4781,-155.7689"/>
</g>
<!-- Node52 -->
<g id="node4" class="node">
<title>Node52</title>
<g id="a_node4"><a xlink:href="Planet_2CInterface_8cpp.html" target="_top" xlink:title="The definitions of the functions declared in CInterface.h. ">
<polygon fill="#ffffff" stroke="#000000" points="321.9961,-.5 321.9961,-44.5 467.4121,-44.5 467.4121,-.5 321.9961,-.5"/>
<text text-anchor="start" x="329.9961" y="-30.9" font-family="Helvetica,sans-Serif" font-size="12.00" fill="#000000">/Users/kpenev/projects</text>
<text text-anchor="start" x="329.9961" y="-18.9" font-family="Helvetica,sans-Serif" font-size="12.00" fill="#000000">/git/poet/poet_src/Planet</text>
<text text-anchor="middle" x="394.7041" y="-6.9" font-family="Helvetica,sans-Serif" font-size="12.00" fill="#000000">/CInterface.cpp</text>
</a>
</g>
</g>
<!-- Node49&#45;&gt;Node52 -->
<g id="edge5" class="edge">
<title>Node49&#45;&gt;Node52</title>
<path fill="none" stroke="#191970" d="M332.0998,-153.6077C336.9485,-144.7558 342.1361,-135.051 346.7041,-126 360.7153,-98.2382 375.5943,-65.6002 385.007,-44.5085"/>
<polygon fill="#191970" stroke="#191970" points="328.9813,-152.0148 327.2098,-162.4605 335.1086,-155.3994 328.9813,-152.0148"/>
</g>
<!-- Node51 -->
<g id="node3" class="node">
<title>Node51</title>
<g id="a_node3"><a xlink:href="Evolve_2CInterface_8cpp.html" target="_top" xlink:title="The definitions of the functions declared in CInterface.h. ">
<polygon fill="#ffffff" stroke="#000000" points="0,-.5 0,-44.5 147.4082,-44.5 147.4082,-.5 0,-.5"/>
<text text-anchor="start" x="8" y="-30.9" font-family="Helvetica,sans-Serif" font-size="12.00" fill="#000000">/Users/kpenev/projects</text>
<text text-anchor="start" x="8" y="-18.9" font-family="Helvetica,sans-Serif" font-size="12.00" fill="#000000">/git/poet/poet_src/Evolve</text>
<text text-anchor="middle" x="73.7041" y="-6.9" font-family="Helvetica,sans-Serif" font-size="12.00" fill="#000000">/CInterface.cpp</text>
</a>
</g>
</g>
<!-- Node50&#45;&gt;Node51 -->
<g id="edge2" class="edge">
<title>Node50&#45;&gt;Node51</title>
<path fill="none" stroke="#191970" d="M202.6769,-77.4832C177.7515,-66.8571 149.2326,-54.699 125.3612,-44.5222"/>
<polygon fill="#191970" stroke="#191970" points="201.4652,-80.7713 212.0367,-81.4734 204.2104,-74.332 201.4652,-80.7713"/>
</g>
<!-- Node50&#45;&gt;Node52 -->
<g id="edge3" class="edge">
<title>Node50&#45;&gt;Node52</title>
<path fill="none" stroke="#191970" d="M308.4276,-75.8465C324.9144,-65.6524 343.3602,-54.247 358.9511,-44.6068"/>
<polygon fill="#191970" stroke="#191970" points="306.1652,-73.1304 299.5004,-81.3664 309.8466,-79.0842 306.1652,-73.1304"/>
</g>
<!-- Node53 -->
<g id="node5" class="node">
<title>Node53</title>
<g id="a_node5"><a xlink:href="Star_2CInterface_8cpp.html" target="_top" xlink:title="The definitions of the functions declared in CInterface.h. ">
<polygon fill="#ffffff" stroke="#000000" points="165.6787,-.5 165.6787,-44.5 303.7295,-44.5 303.7295,-.5 165.6787,-.5"/>
<text text-anchor="start" x="173.6787" y="-30.9" font-family="Helvetica,sans-Serif" font-size="12.00" fill="#000000">/Users/kpenev/projects</text>
<text text-anchor="start" x="173.6787" y="-18.9" font-family="Helvetica,sans-Serif" font-size="12.00" fill="#000000">/git/poet/poet_src/Star</text>
<text text-anchor="middle" x="234.7041" y="-6.9" font-family="Helvetica,sans-Serif" font-size="12.00" fill="#000000">/CInterface.cpp</text>
</a>
</g>
</g>
<!-- Node50&#45;&gt;Node53 -->
<g id="edge4" class="edge">
<title>Node50&#45;&gt;Node53</title>
<path fill="none" stroke="#191970" d="M252.3646,-71.8276C249.1057,-62.7251 245.6229,-52.9973 242.6189,-44.6068"/>
<polygon fill="#191970" stroke="#191970" points="249.1138,-73.1314 255.7797,-81.3664 255.7041,-70.7718 249.1138,-73.1314"/>
</g>
</g>
</svg>
