<?xml version="1.0" encoding="UTF-8" standalone="no"?>
<!DOCTYPE svg PUBLIC "-//W3C//DTD SVG 1.1//EN"
 "http://www.w3.org/Graphics/SVG/1.1/DTD/svg11.dtd">
<!-- Generated by graphviz version 2.40.1 (20161225.0304)
 -->
<!-- Title: /Users/kpenev/projects/git/poet/poet_src/Planet/CInterface.h Pages: 1 -->
<!--zoomable 716 -->
<svg id="main" version="1.1" xmlns="http://www.w3.org/2000/svg" xmlns:xlink="http://www.w3.org/1999/xlink" xml:space="preserve" onload="init(evt)">
<style type="text/css"><![CDATA[
.edge:hover path { stroke: red; }
.edge:hover polygon { stroke: red; fill: red; }
]]></style>
<script type="text/javascript"><![CDATA[
var edges = document.getElementsByTagName('g');
if (edges && edges.length) {
  for (var i=0;i<edges.length;i++) {
    if (edges[i].id.substr(0,4)=='edge') {
      edges[i].setAttribute('class','edge');
    }
  }
}
]]></script>
        <defs>
                <circle id="rim" cx="0" cy="0" r="7"/>
                <circle id="rim2" cx="0" cy="0" r="3.5"/>
                <g id="zoomPlus">
                        <use xlink:href="#rim" fill="#404040">
                                <set attributeName="fill" to="#808080" begin="zoomplus.mouseover" end="zoomplus.mouseout"/>
                        </use>
                        <path d="M-4,0h8M0,-4v8" fill="none" stroke="white" stroke-width="1.5" pointer-events="none"/>
                </g>
                <g id="zoomMin">
                        <use xlink:href="#rim" fill="#404040">
                                <set attributeName="fill" to="#808080" begin="zoomminus.mouseover" end="zoomminus.mouseout"/>
                        </use>
                        <path d="M-4,0h8" fill="none" stroke="white" stroke-width="1.5" pointer-events="none"/>
                </g>
                <g id="dirArrow">
                        <path fill="none" stroke="white" stroke-width="1.5" d="M0,-3.0v7 M-2.5,-0.5L0,-3.0L2.5,-0.5"/>
                </g>
               <g id="resetDef">
                       <use xlink:href="#rim2" fill="#404040">
                               <set attributeName="fill" to="#808080" begin="reset.mouseover" end="reset.mouseout"/>
                       </use>
               </g>
        </defs>

<script type="text/javascript">
var viewWidth = 2801;
var viewHeight = 716;
var sectionId = 'dynsection-0';
</script>
<script xlink:href="svgpan.js"/>
<svg id="graph" class="graph">
<g id="viewport">
<title>/Users/kpenev/projects/git/poet/poet_src/Planet/CInterface.h</title>
<polygon fill="#ffffff" stroke="transparent" points="-4,4 -4,-712 2797.3799,-712 2797.3799,4 -4,4"/>
<!-- Node0 -->
<g id="node1" class="node">
<title>Node0</title>
<polygon fill="#bfbfbf" stroke="#000000" points="0,-663.5 0,-707.5 145.416,-707.5 145.416,-663.5 0,-663.5"/>
<text text-anchor="start" x="8" y="-693.9" font-family="Helvetica,sans-Serif" font-size="12.00" fill="#000000">/Users/kpenev/projects</text>
<text text-anchor="start" x="8" y="-681.9" font-family="Helvetica,sans-Serif" font-size="12.00" fill="#000000">/git/poet/poet_src/Planet</text>
<text text-anchor="middle" x="72.708" y="-669.9" font-family="Helvetica,sans-Serif" font-size="12.00" fill="#000000">/CInterface.h</text>
</g>
<!-- Node1 -->
<g id="node2" class="node">
<title>Node1</title>
<g id="a_node2"><a xlink:href="SharedLibraryExportMacros_8h_source.html" target="_top" xlink:title="../Core/SharedLibraryExport\lMacros.h">
<polygon fill="#ffffff" stroke="#000000" points="648.0068,-.5 648.0068,-32.5 813.4092,-32.5 813.4092,-.5 648.0068,-.5"/>
<text text-anchor="start" x="656.0068" y="-18.9" font-family="Helvetica,sans-Serif" font-size="12.00" fill="#000000">../Core/SharedLibraryExport</text>
<text text-anchor="middle" x="730.708" y="-6.9" font-family="Helvetica,sans-Serif" font-size="12.00" fill="#000000">Macros.h</text>
</a>
</g>
</g>
<!-- Node0&#45;&gt;Node1 -->
<g id="edge1" class="edge">
<title>Node0&#45;&gt;Node1</title>
<path fill="none" stroke="#191970" d="M64.32,-663.0955C55.7552,-638.1743 43.708,-596.5374 43.708,-559.5 43.708,-559.5 43.708,-559.5 43.708,-136.5 43.708,-98.0813 63.7991,-87.0606 97.708,-69 144.1529,-44.2625 473.2525,-27.2272 637.6803,-20.1611"/>
<polygon fill="#191970" stroke="#191970" points="637.9457,-23.6531 647.7876,-19.7304 637.6476,-16.6594 637.9457,-23.6531"/>
</g>
<!-- Node2 -->
<g id="node3" class="node">
<title>Node2</title>
<g id="a_node3"><a xlink:href="Planet_8h.html" target="_top" xlink:title="Declares a class for planets that are always locked to the orbit. ">
<polygon fill="#ffffff" stroke="#000000" points="126.6914,-606.5 126.6914,-626.5 186.7246,-626.5 186.7246,-606.5 126.6914,-606.5"/>
<text text-anchor="middle" x="156.708" y="-612.9" font-family="Helvetica,sans-Serif" font-size="12.00" fill="#000000">Planet.h</text>
</a>
</g>
</g>
<!-- Node0&#45;&gt;Node2 -->
<g id="edge2" class="edge">
<title>Node0&#45;&gt;Node2</title>
<path fill="none" stroke="#191970" d="M99.7485,-663.2882C111.6727,-653.4933 125.4475,-642.1783 136.4638,-633.1292"/>
<polygon fill="#191970" stroke="#191970" points="138.7683,-635.7657 144.274,-626.7137 134.3251,-630.3566 138.7683,-635.7657"/>
</g>
<!-- Node2&#45;&gt;Node1 -->
<g id="edge3" class="edge">
<title>Node2&#45;&gt;Node1</title>
<path fill="none" stroke="#191970" d="M144.658,-606.2953C123.4572,-587.1274 81.708,-543.4242 81.708,-496.5 81.708,-496.5 81.708,-496.5 81.708,-136.5 81.708,-98.3573 101.171,-87.1696 134.708,-69 177.8003,-45.6537 481.2865,-28.1963 637.8045,-20.6339"/>
<polygon fill="#191970" stroke="#191970" points="638.0763,-24.125 647.8972,-20.1501 637.7411,-17.133 638.0763,-24.125"/>
</g>
<!-- Node3 -->
<g id="node4" class="node">
<title>Node3</title>
<g id="a_node4"><a xlink:href="PlanetZone_8h.html" target="_top" xlink:title="Declares a class for the single zone of LockedPlanet objects. ">
<polygon fill="#ffffff" stroke="#000000" points="168.0156,-549.5 168.0156,-569.5 255.4004,-569.5 255.4004,-549.5 168.0156,-549.5"/>
<text text-anchor="middle" x="211.708" y="-555.9" font-family="Helvetica,sans-Serif" font-size="12.00" fill="#000000">PlanetZone.h</text>
</a>
</g>
</g>
<!-- Node2&#45;&gt;Node3 -->
<g id="edge4" class="edge">
<title>Node2&#45;&gt;Node3</title>
<path fill="none" stroke="#191970" d="M166.5409,-606.3095C174.362,-598.204 185.4895,-586.672 194.7424,-577.0826"/>
<polygon fill="#191970" stroke="#191970" points="197.5352,-579.2288 201.9602,-569.6022 192.4978,-574.3681 197.5352,-579.2288"/>
</g>
<!-- Node40 -->
<g id="node41" class="node">
<title>Node40</title>
<g id="a_node41"><a xlink:href="DissipatingBody_8h.html" target="_top" xlink:title="Declares the DissipatingBody class. ">
<polygon fill="#ffffff" stroke="#000000" points="1289.124,-354.5 1289.124,-374.5 1400.292,-374.5 1400.292,-354.5 1289.124,-354.5"/>
<text text-anchor="middle" x="1344.708" y="-360.9" font-family="Helvetica,sans-Serif" font-size="12.00" fill="#000000">DissipatingBody.h</text>
</a>
</g>
</g>
<!-- Node2&#45;&gt;Node40 -->
<g id="edge117" class="edge">
<title>Node2&#45;&gt;Node40</title>
<path fill="none" stroke="#191970" d="M186.9495,-615.0894C343.9804,-607.5579 1067.4173,-570.2731 1283.708,-513 1355.4265,-494.0092 1395.527,-506.3673 1435.708,-444 1443.6514,-431.6706 1443.3641,-423.5098 1435.708,-411 1426.4178,-395.82 1410.4359,-385.3967 1394.4329,-378.3331"/>
<polygon fill="#191970" stroke="#191970" points="1395.6418,-375.0468 1385.0585,-374.5518 1393.0232,-381.5386 1395.6418,-375.0468"/>
</g>
<!-- Node3&#45;&gt;Node1 -->
<g id="edge5" class="edge">
<title>Node3&#45;&gt;Node1</title>
<path fill="none" stroke="#191970" d="M197.7352,-549.2471C171.9985,-529.0602 119.708,-481.4118 119.708,-427.5 119.708,-427.5 119.708,-427.5 119.708,-136.5 119.708,-99.6882 135.8136,-87.381 167.708,-69 207.3829,-46.135 488.3081,-28.7109 637.7323,-20.9431"/>
<polygon fill="#191970" stroke="#191970" points="638.013,-24.4333 647.8195,-20.423 637.6525,-17.4426 638.013,-24.4333"/>
</g>
<!-- Node4 -->
<g id="node5" class="node">
<title>Node4</title>
<g id="a_node5"><a xlink:href="DissipatingZone_8h.html" target="_top" xlink:title="Declares a class representing one zone of a body dissipative to tidal distortions. ">
<polygon fill="#ffffff" stroke="#000000" points="1264.0049,-297.5 1264.0049,-317.5 1425.4111,-317.5 1425.4111,-297.5 1264.0049,-297.5"/>
<text text-anchor="middle" x="1344.708" y="-303.9" font-family="Helvetica,sans-Serif" font-size="12.00" fill="#000000">../Evolve/DissipatingZone.h</text>
</a>
</g>
</g>
<!-- Node3&#45;&gt;Node4 -->
<g id="edge6" class="edge">
<title>Node3&#45;&gt;Node4</title>
<path fill="none" stroke="#191970" d="M255.52,-558.5853C444.2291,-554.512 1182.7017,-537.1556 1283.708,-513 1355.8636,-495.744 1395.527,-506.3673 1435.708,-444 1458.2577,-408.9994 1436.1748,-386.1409 1409.708,-354 1399.4878,-341.5887 1385.2025,-330.8861 1372.626,-322.8882"/>
<polygon fill="#191970" stroke="#191970" points="1374.2163,-319.7591 1363.8529,-317.5567 1370.581,-325.7411 1374.2163,-319.7591"/>
</g>
<!-- Node24 -->
<g id="node25" class="node">
<title>Node24</title>
<g id="a_node25"><a xlink:href="AstronomicalConstants_8h.html" target="_top" xlink:title="Defines various astronomical constants. ">
<polygon fill="#ffffff" stroke="#000000" points="224.0107,-69.5 224.0107,-89.5 373.4053,-89.5 373.4053,-69.5 224.0107,-69.5"/>
<text text-anchor="middle" x="298.708" y="-75.9" font-family="Helvetica,sans-Serif" font-size="12.00" fill="#000000">AstronomicalConstants.h</text>
</a>
</g>
</g>
<!-- Node3&#45;&gt;Node24 -->
<g id="edge72" class="edge">
<title>Node3&#45;&gt;Node24</title>
<path fill="none" stroke="#191970" d="M211.708,-549.2307C211.708,-527.0237 211.708,-472.875 211.708,-427.5 211.708,-427.5 211.708,-427.5 211.708,-364.5 211.708,-260.1323 265.7377,-143.2657 288.6404,-98.4155"/>
<polygon fill="#191970" stroke="#191970" points="291.7617,-99.9993 293.2658,-89.5118 285.5498,-96.7723 291.7617,-99.9993"/>
</g>
<!-- Node39 -->
<g id="node40" class="node">
<title>Node39</title>
<g id="a_node40"><a xlink:href="BrokenPowerlawPhaseLagZone_8h.html" target="_top" xlink:title="Declares the class that provides the phase lag function to DissipatingZone objects. ">
<polygon fill="#ffffff" stroke="#000000" points="1119.0107,-480.5 1119.0107,-512.5 1274.4053,-512.5 1274.4053,-480.5 1119.0107,-480.5"/>
<text text-anchor="start" x="1127.0107" y="-498.9" font-family="Helvetica,sans-Serif" font-size="12.00" fill="#000000">../Evolve/BrokenPowerlaw</text>
<text text-anchor="middle" x="1196.708" y="-486.9" font-family="Helvetica,sans-Serif" font-size="12.00" fill="#000000">PhaseLagZone.h</text>
</a>
</g>
</g>
<!-- Node3&#45;&gt;Node39 -->
<g id="edge73" class="edge">
<title>Node3&#45;&gt;Node39</title>
<path fill="none" stroke="#191970" d="M255.6235,-556.6912C406.4242,-547.0461 905.0205,-515.1562 1108.782,-502.1237"/>
<polygon fill="#191970" stroke="#191970" points="1109.0903,-505.6112 1118.8464,-501.48 1108.6434,-498.6255 1109.0903,-505.6112"/>
</g>
<!-- Node4&#45;&gt;Node1 -->
<g id="edge36" class="edge">
<title>Node4&#45;&gt;Node1</title>
<path fill="none" stroke="#191970" d="M1263.8574,-305.6546C1076.3829,-299.2821 622.7853,-271.0806 554.708,-147 538.011,-116.5673 529.8807,-96.7698 550.708,-69 561.9585,-53.9993 599.5363,-41.8677 637.4674,-33.0607"/>
<polygon fill="#191970" stroke="#191970" points="638.6359,-36.3856 647.6261,-30.7797 637.1022,-29.5556 638.6359,-36.3856"/>
</g>
<!-- Node5 -->
<g id="node6" class="node">
<title>Node5</title>
<g id="a_node6"><a xlink:href="ZoneOrientation_8h.html" target="_top" xlink:title="Declares a class for orientations of zones of DissipatingBody objects. ">
<polygon fill="#ffffff" stroke="#000000" points="1181.6787,-183.5 1181.6787,-203.5 1293.7373,-203.5 1293.7373,-183.5 1181.6787,-183.5"/>
<text text-anchor="middle" x="1237.708" y="-189.9" font-family="Helvetica,sans-Serif" font-size="12.00" fill="#000000">ZoneOrientation.h</text>
</a>
</g>
</g>
<!-- Node4&#45;&gt;Node5 -->
<g id="edge7" class="edge">
<title>Node4&#45;&gt;Node5</title>
<path fill="none" stroke="#191970" d="M1335.2125,-297.3833C1317.0156,-277.9959 1277.0266,-235.3909 1254.3183,-211.1969"/>
<polygon fill="#191970" stroke="#191970" points="1256.7318,-208.6541 1247.3361,-203.7579 1251.6278,-213.4446 1256.7318,-208.6541"/>
</g>
<!-- Node6 -->
<g id="node7" class="node">
<title>Node6</title>
<g id="a_node7"><a xlink:href="DissipationQuantities_8h.html" target="_top" xlink:title="Declaration of enumerations of dissipation quantities and derivatives. ">
<polygon fill="#ffffff" stroke="#000000" points="581.3428,-126.5 581.3428,-146.5 720.0732,-146.5 720.0732,-126.5 581.3428,-126.5"/>
<text text-anchor="middle" x="650.708" y="-132.9" font-family="Helvetica,sans-Serif" font-size="12.00" fill="#000000">DissipationQuantities.h</text>
</a>
</g>
</g>
<!-- Node4&#45;&gt;Node6 -->
<g id="edge53" class="edge">
<title>Node4&#45;&gt;Node6</title>
<path fill="none" stroke="#191970" d="M1263.7875,-298.6256C1258.6849,-298.0733 1253.6258,-297.5278 1248.708,-297 1096.7408,-280.6911 1053.6476,-303.0565 906.708,-261 816.4383,-235.1633 719.1577,-179.1052 674.9895,-151.9123"/>
<polygon fill="#191970" stroke="#191970" points="676.7331,-148.8751 666.3923,-146.569 673.038,-154.8203 676.7331,-148.8751"/>
</g>
<!-- Node9 -->
<g id="node10" class="node">
<title>Node9</title>
<g id="a_node10"><a xlink:href="Core_2Common_8h.html" target="_top" xlink:title="Declaration of some general purpose utilities. ">
<polygon fill="#ffffff" stroke="#000000" points="1270.6914,-126.5 1270.6914,-146.5 1384.7246,-146.5 1384.7246,-126.5 1270.6914,-126.5"/>
<text text-anchor="middle" x="1327.708" y="-132.9" font-family="Helvetica,sans-Serif" font-size="12.00" fill="#000000">../Core/Common.h</text>
</a>
</g>
</g>
<!-- Node4&#45;&gt;Node9 -->
<g id="edge70" class="edge">
<title>Node4&#45;&gt;Node9</title>
<path fill="none" stroke="#191970" d="M1344.3172,-297.4623C1343.4181,-276.26 1340.8725,-225.3783 1335.708,-183 1334.6588,-174.3909 1333.1091,-164.9493 1331.6524,-156.8363"/>
<polygon fill="#191970" stroke="#191970" points="1335.0545,-155.9877 1329.7792,-146.7996 1328.1733,-157.272 1335.0545,-155.9877"/>
</g>
<!-- Node11 -->
<g id="node12" class="node">
<title>Node11</title>
<polygon fill="#ffffff" stroke="#bfbfbf" points="1775.3682,-69.5 1775.3682,-89.5 1834.0479,-89.5 1834.0479,-69.5 1775.3682,-69.5"/>
<text text-anchor="middle" x="1804.708" y="-75.9" font-family="Helvetica,sans-Serif" font-size="12.00" fill="#000000">valarray</text>
</g>
<!-- Node4&#45;&gt;Node11 -->
<g id="edge71" class="edge">
<title>Node4&#45;&gt;Node11</title>
<path fill="none" stroke="#191970" d="M1356.9259,-297.4117C1394.3763,-266.9811 1511.8232,-175.1764 1623.708,-126 1630.2691,-123.1162 1714.0228,-102.0554 1765.2693,-89.2873"/>
<polygon fill="#191970" stroke="#191970" points="1766.1942,-92.664 1775.0527,-86.8521 1764.5033,-85.8712 1766.1942,-92.664"/>
</g>
<!-- Node21 -->
<g id="node22" class="node">
<title>Node21</title>
<g id="a_node22"><a xlink:href="Error_8h.html" target="_top" xlink:title="Defines the exception hierarchy used by this code. ">
<polygon fill="#ffffff" stroke="#000000" points="2661.6992,-69.5 2661.6992,-89.5 2713.7168,-89.5 2713.7168,-69.5 2661.6992,-69.5"/>
<text text-anchor="middle" x="2687.708" y="-75.9" font-family="Helvetica,sans-Serif" font-size="12.00" fill="#000000">Error.h</text>
</a>
</g>
</g>
<!-- Node4&#45;&gt;Node21 -->
<g id="edge37" class="edge">
<title>Node4&#45;&gt;Node21</title>
<path fill="none" stroke="#191970" d="M1425.6165,-304.6605C1589.1026,-298.5452 1953.6885,-282.8899 2076.708,-261 2300.8682,-221.1132 2559.3907,-128.0987 2652.2394,-93.1221"/>
<polygon fill="#191970" stroke="#191970" points="2653.6049,-96.3476 2661.7192,-89.5352 2651.1277,-89.8006 2653.6049,-96.3476"/>
</g>
<!-- Node27 -->
<g id="node28" class="node">
<title>Node27</title>
<g id="a_node28"><a xlink:href="TidalPotentialTerms_8h.html" target="_top" xlink:title="Declare an interface for evaluating the expansion of the tidal potential. ">
<polygon fill="#ffffff" stroke="#000000" points="1665.2363,-183.5 1665.2363,-203.5 1796.1797,-203.5 1796.1797,-183.5 1665.2363,-183.5"/>
<text text-anchor="middle" x="1730.708" y="-189.9" font-family="Helvetica,sans-Serif" font-size="12.00" fill="#000000">TidalPotentialTerms.h</text>
</a>
</g>
</g>
<!-- Node4&#45;&gt;Node27 -->
<g id="edge38" class="edge">
<title>Node4&#45;&gt;Node27</title>
<path fill="none" stroke="#191970" d="M1378.6246,-297.4832C1448.6094,-276.8141 1608.967,-229.4546 1686.7662,-206.4776"/>
<polygon fill="#191970" stroke="#191970" points="1688.1313,-209.724 1696.7304,-203.5348 1686.1485,-203.0107 1688.1313,-209.724"/>
</g>
<!-- Node34 -->
<g id="node35" class="node">
<title>Node34</title>
<g id="a_node35"><a xlink:href="SpinOrbitLockInfo_8h.html" target="_top" xlink:title="Defines the SpinOrbitLockInfo class. ">
<polygon fill="#ffffff" stroke="#000000" points="2380.0117,-69.5 2380.0117,-89.5 2501.4043,-89.5 2501.4043,-69.5 2380.0117,-69.5"/>
<text text-anchor="middle" x="2440.708" y="-75.9" font-family="Helvetica,sans-Serif" font-size="12.00" fill="#000000">SpinOrbitLockInfo.h</text>
</a>
</g>
</g>
<!-- Node4&#45;&gt;Node34 -->
<g id="edge54" class="edge">
<title>Node4&#45;&gt;Node34</title>
<path fill="none" stroke="#191970" d="M1425.6616,-299.1923C1581.1892,-281.7861 1931.3663,-235.5711 2213.708,-147 2235.5382,-140.1518 2239.112,-133.5544 2260.708,-126 2300.9478,-111.9239 2347.5804,-99.9945 2383.2974,-91.7437"/>
<polygon fill="#191970" stroke="#191970" points="2384.0962,-95.1515 2393.0676,-89.5154 2382.5396,-88.3267 2384.0962,-95.1515"/>
</g>
<!-- Node35 -->
<g id="node36" class="node">
<title>Node35</title>
<g id="a_node36"><a xlink:href="CombinedStoppingCondition_8h.html" target="_top" xlink:title="Declares a class for a stopping condition that combines other stopping conditions. ">
<polygon fill="#ffffff" stroke="#000000" points="1889.3184,-240.5 1889.3184,-260.5 2068.0977,-260.5 2068.0977,-240.5 1889.3184,-240.5"/>
<text text-anchor="middle" x="1978.708" y="-246.9" font-family="Helvetica,sans-Serif" font-size="12.00" fill="#000000">CombinedStoppingCondition.h</text>
</a>
</g>
</g>
<!-- Node4&#45;&gt;Node35 -->
<g id="edge57" class="edge">
<title>Node4&#45;&gt;Node35</title>
<path fill="none" stroke="#191970" d="M1425.6485,-300.223C1541.3568,-289.8202 1753.8684,-270.7143 1879.0866,-259.4565"/>
<polygon fill="#191970" stroke="#191970" points="1879.4176,-262.9409 1889.064,-258.5595 1878.7908,-255.9691 1879.4176,-262.9409"/>
</g>
<!-- Node37 -->
<g id="node38" class="node">
<title>Node37</title>
<g id="a_node38"><a xlink:href="BreakLockCondition_8h.html" target="_top" xlink:title="Declares a class for a stopping condition monitoring when a locked zone loses the lock...">
<polygon fill="#ffffff" stroke="#000000" points="1122.0059,-240.5 1122.0059,-260.5 1255.4102,-260.5 1255.4102,-240.5 1122.0059,-240.5"/>
<text text-anchor="middle" x="1188.708" y="-246.9" font-family="Helvetica,sans-Serif" font-size="12.00" fill="#000000">BreakLockCondition.h</text>
</a>
</g>
</g>
<!-- Node4&#45;&gt;Node37 -->
<g id="edge64" class="edge">
<title>Node4&#45;&gt;Node37</title>
<path fill="none" stroke="#191970" d="M1317.1774,-297.4408C1291.748,-288.1492 1253.7764,-274.275 1225.7049,-264.0181"/>
<polygon fill="#191970" stroke="#191970" points="1226.8191,-260.699 1216.2253,-260.5544 1224.4167,-267.2738 1226.8191,-260.699"/>
</g>
<!-- Node38 -->
<g id="node39" class="node">
<title>Node38</title>
<g id="a_node39"><a xlink:href="SynchronizedCondition_8h.html" target="_top" xlink:title="Declares a stopping condition monitoring spin&#45;orbit synchronization. ">
<polygon fill="#ffffff" stroke="#000000" points="915.999,-240.5 915.999,-260.5 1065.417,-260.5 1065.417,-240.5 915.999,-240.5"/>
<text text-anchor="middle" x="990.708" y="-246.9" font-family="Helvetica,sans-Serif" font-size="12.00" fill="#000000">SynchronizedCondition.h</text>
</a>
</g>
</g>
<!-- Node4&#45;&gt;Node38 -->
<g id="edge67" class="edge">
<title>Node4&#45;&gt;Node38</title>
<path fill="none" stroke="#191970" d="M1282.2348,-297.4408C1220.9075,-287.566 1127.4342,-272.5152 1062.9454,-262.1315"/>
<polygon fill="#191970" stroke="#191970" points="1063.2829,-258.6408 1052.8536,-260.5065 1062.17,-265.5518 1063.2829,-258.6408"/>
</g>
<!-- Node5&#45;&gt;Node1 -->
<g id="edge8" class="edge">
<title>Node5&#45;&gt;Node1</title>
<path fill="none" stroke="#191970" d="M1189.6177,-183.4912C1121.5388,-168.3477 994.0682,-136.3747 892.708,-90 876.8995,-82.7672 875.1551,-76.9756 859.708,-69 835.9153,-56.7154 808.5675,-45.2347 785.1927,-36.1612"/>
<polygon fill="#191970" stroke="#191970" points="786.3674,-32.8632 775.7771,-32.5522 783.8619,-39.3995 786.3674,-32.8632"/>
</g>
<!-- Node5&#45;&gt;Node6 -->
<g id="edge9" class="edge">
<title>Node5&#45;&gt;Node6</title>
<path fill="none" stroke="#191970" d="M1181.5518,-185.1187C1175.8673,-184.3615 1170.1764,-183.6402 1164.708,-183 1011.3454,-165.046 831.5378,-150.1923 730.3867,-142.4009"/>
<polygon fill="#191970" stroke="#191970" points="730.486,-138.8983 720.2477,-141.6233 729.9507,-145.8778 730.486,-138.8983"/>
</g>
<!-- Node5&#45;&gt;Node9 -->
<g id="edge13" class="edge">
<title>Node5&#45;&gt;Node9</title>
<path fill="none" stroke="#191970" d="M1253.7982,-183.3095C1267.4923,-174.6366 1287.3806,-162.0407 1303.0777,-152.0992"/>
<polygon fill="#191970" stroke="#191970" points="1305.1816,-154.9097 1311.7571,-146.6022 1301.4362,-148.9959 1305.1816,-154.9097"/>
</g>
<!-- Node25 -->
<g id="node26" class="node">
<title>Node25</title>
<g id="a_node26"><a xlink:href="IncludeEigen_8h_source.html" target="_top" xlink:title="IncludeEigen.h">
<polygon fill="#ffffff" stroke="#000000" points="1624.0107,-69.5 1624.0107,-89.5 1719.4053,-89.5 1719.4053,-69.5 1624.0107,-69.5"/>
<text text-anchor="middle" x="1671.708" y="-75.9" font-family="Helvetica,sans-Serif" font-size="12.00" fill="#000000">IncludeEigen.h</text>
</a>
</g>
</g>
<!-- Node5&#45;&gt;Node25 -->
<g id="edge35" class="edge">
<title>Node5&#45;&gt;Node25</title>
<path fill="none" stroke="#191970" d="M1270.4977,-183.4528C1315.6215,-169.7613 1399.4877,-144.7982 1471.708,-126 1520.0495,-113.4172 1575.3916,-100.6774 1615.5871,-91.7224"/>
<polygon fill="#191970" stroke="#191970" points="1616.4625,-95.1134 1625.4665,-89.5296 1614.9457,-88.2797 1616.4625,-95.1134"/>
</g>
<!-- Node6&#45;&gt;Node1 -->
<g id="edge10" class="edge">
<title>Node6&#45;&gt;Node1</title>
<path fill="none" stroke="#191970" d="M622.6359,-126.4916C593.7343,-114.5884 555.2097,-93.2533 572.708,-69 582.1723,-55.8821 613.5611,-44.1996 645.8949,-35.2047"/>
<polygon fill="#191970" stroke="#191970" points="647.1906,-38.4805 655.9366,-32.5008 645.3705,-31.7213 647.1906,-38.4805"/>
</g>
<!-- Node7 -->
<g id="node8" class="node">
<title>Node7</title>
<polygon fill="#ffffff" stroke="#bfbfbf" points="582.0342,-69.5 582.0342,-89.5 641.3818,-89.5 641.3818,-69.5 582.0342,-69.5"/>
<text text-anchor="middle" x="611.708" y="-75.9" font-family="Helvetica,sans-Serif" font-size="12.00" fill="#000000">ostream</text>
</g>
<!-- Node6&#45;&gt;Node7 -->
<g id="edge11" class="edge">
<title>Node6&#45;&gt;Node7</title>
<path fill="none" stroke="#191970" d="M643.7356,-126.3095C638.3561,-118.4472 630.7707,-107.3608 624.3322,-97.9507"/>
<polygon fill="#191970" stroke="#191970" points="627.1555,-95.8789 618.6201,-89.6022 621.3784,-99.8317 627.1555,-95.8789"/>
</g>
<!-- Node8 -->
<g id="node9" class="node">
<title>Node8</title>
<polygon fill="#ffffff" stroke="#bfbfbf" points="796.3691,-69.5 796.3691,-89.5 851.0469,-89.5 851.0469,-69.5 796.3691,-69.5"/>
<text text-anchor="middle" x="823.708" y="-75.9" font-family="Helvetica,sans-Serif" font-size="12.00" fill="#000000">cassert</text>
</g>
<!-- Node6&#45;&gt;Node8 -->
<g id="edge12" class="edge">
<title>Node6&#45;&gt;Node8</title>
<path fill="none" stroke="#191970" d="M681.2387,-126.4408C710.6484,-116.7509 755.1853,-102.0768 786.6211,-91.7194"/>
<polygon fill="#191970" stroke="#191970" points="787.929,-94.9736 796.3315,-88.52 785.7384,-88.3252 787.929,-94.9736"/>
</g>
<!-- Node9&#45;&gt;Node1 -->
<g id="edge26" class="edge">
<title>Node9&#45;&gt;Node1</title>
<path fill="none" stroke="#191970" d="M1270.65,-132.0987C1177.527,-124.5187 997.0977,-108.0648 935.708,-90 915.3046,-83.996 912.4287,-76.9648 892.708,-69 861.675,-56.4663 826.4099,-44.7515 796.7239,-35.5823"/>
<polygon fill="#191970" stroke="#191970" points="797.471,-32.1508 786.8846,-32.5728 795.4235,-38.8447 797.471,-32.1508"/>
</g>
<!-- Node9&#45;&gt;Node8 -->
<g id="edge25" class="edge">
<title>Node9&#45;&gt;Node8</title>
<path fill="none" stroke="#191970" d="M1270.6034,-130.6764C1188.9716,-122.255 1034.2381,-105.9342 902.708,-90 889.1603,-88.3588 874.325,-86.4236 861.2053,-84.6645"/>
<polygon fill="#191970" stroke="#191970" points="861.4873,-81.1709 851.1087,-83.3006 860.5501,-88.1079 861.4873,-81.1709"/>
</g>
<!-- Node10 -->
<g id="node11" class="node">
<title>Node10</title>
<polygon fill="#ffffff" stroke="#bfbfbf" points="1050.375,-69.5 1050.375,-89.5 1081.041,-89.5 1081.041,-69.5 1050.375,-69.5"/>
<text text-anchor="middle" x="1065.708" y="-75.9" font-family="Helvetica,sans-Serif" font-size="12.00" fill="#000000">list</text>
</g>
<!-- Node9&#45;&gt;Node10 -->
<g id="edge14" class="edge">
<title>Node9&#45;&gt;Node10</title>
<path fill="none" stroke="#191970" d="M1270.5771,-128.9401C1224.1,-121.9802 1156.8538,-110.0702 1090.9765,-89.9273"/>
<polygon fill="#191970" stroke="#191970" points="1091.8582,-86.536 1081.2695,-86.8953 1089.7711,-93.2176 1091.8582,-86.536"/>
</g>
<!-- Node9&#45;&gt;Node11 -->
<g id="edge15" class="edge">
<title>Node9&#45;&gt;Node11</title>
<path fill="none" stroke="#191970" d="M1384.9169,-132.8015C1468.2559,-126.8647 1627.7188,-113.4304 1761.708,-90 1762.8056,-89.8081 1763.9168,-89.6042 1765.0366,-89.3903"/>
<polygon fill="#191970" stroke="#191970" points="1766.1439,-92.734 1775.2087,-87.2495 1764.7022,-85.8841 1766.1439,-92.734"/>
</g>
<!-- Node12 -->
<g id="node13" class="node">
<title>Node12</title>
<polygon fill="#ffffff" stroke="#bfbfbf" points="659.0439,-69.5 659.0439,-89.5 702.3721,-89.5 702.3721,-69.5 659.0439,-69.5"/>
<text text-anchor="middle" x="680.708" y="-75.9" font-family="Helvetica,sans-Serif" font-size="12.00" fill="#000000">limits</text>
</g>
<!-- Node9&#45;&gt;Node12 -->
<g id="edge16" class="edge">
<title>Node9&#45;&gt;Node12</title>
<path fill="none" stroke="#191970" d="M1270.541,-131.8026C1171.9618,-123.652 963.6302,-106.2055 787.708,-90 762.4262,-87.6711 733.8032,-84.8528 712.5269,-82.7226"/>
<polygon fill="#191970" stroke="#191970" points="712.7234,-79.2248 702.4236,-81.7075 712.0236,-86.1897 712.7234,-79.2248"/>
</g>
<!-- Node13 -->
<g id="node14" class="node">
<title>Node13</title>
<polygon fill="#ffffff" stroke="#bfbfbf" points="1927.3711,-69.5 1927.3711,-89.5 1986.0449,-89.5 1986.0449,-69.5 1927.3711,-69.5"/>
<text text-anchor="middle" x="1956.708" y="-75.9" font-family="Helvetica,sans-Serif" font-size="12.00" fill="#000000">sstream</text>
</g>
<!-- Node9&#45;&gt;Node13 -->
<g id="edge17" class="edge">
<title>Node9&#45;&gt;Node13</title>
<path fill="none" stroke="#191970" d="M1384.8677,-131.3728C1479.9041,-122.8405 1676.4195,-105.1652 1842.708,-90 1867.3723,-87.7507 1895.0358,-85.2033 1916.9349,-83.181"/>
<polygon fill="#191970" stroke="#191970" points="1917.5484,-86.6393 1927.184,-82.234 1916.9043,-79.669 1917.5484,-86.6393"/>
</g>
<!-- Node14 -->
<g id="node15" class="node">
<title>Node14</title>
<polygon fill="#ffffff" stroke="#bfbfbf" points="2409.7012,-6.5 2409.7012,-26.5 2471.7148,-26.5 2471.7148,-6.5 2409.7012,-6.5"/>
<text text-anchor="middle" x="2440.708" y="-12.9" font-family="Helvetica,sans-Serif" font-size="12.00" fill="#000000">iostream</text>
</g>
<!-- Node9&#45;&gt;Node14 -->
<g id="edge18" class="edge">
<title>Node9&#45;&gt;Node14</title>
<path fill="none" stroke="#191970" d="M1385.0362,-132.6011C1480.1105,-125.6762 1666.1387,-110.0532 1728.708,-90 1747.0836,-84.1107 1748.2247,-74.5418 1766.708,-69 1886.1726,-33.1812 2271.8006,-20.6516 2399.332,-17.429"/>
<polygon fill="#191970" stroke="#191970" points="2399.5536,-20.9247 2409.4641,-17.179 2399.3808,-13.9268 2399.5536,-20.9247"/>
</g>
<!-- Node15 -->
<g id="node16" class="node">
<title>Node15</title>
<polygon fill="#ffffff" stroke="#bfbfbf" points="1099.0342,-69.5 1099.0342,-89.5 1152.3818,-89.5 1152.3818,-69.5 1099.0342,-69.5"/>
<text text-anchor="middle" x="1125.708" y="-75.9" font-family="Helvetica,sans-Serif" font-size="12.00" fill="#000000">iterator</text>
</g>
<!-- Node9&#45;&gt;Node15 -->
<g id="edge19" class="edge">
<title>Node9&#45;&gt;Node15</title>
<path fill="none" stroke="#191970" d="M1291.4081,-126.4517C1259.7942,-117.6738 1212.4753,-104.4714 1162.191,-90.1184"/>
<polygon fill="#191970" stroke="#191970" points="1163.012,-86.713 1152.4352,-87.3298 1161.0882,-93.4434 1163.012,-86.713"/>
</g>
<!-- Node16 -->
<g id="node17" class="node">
<title>Node16</title>
<polygon fill="#ffffff" stroke="#bfbfbf" points="1170.3496,-69.5 1170.3496,-89.5 1269.0664,-89.5 1269.0664,-69.5 1170.3496,-69.5"/>
<text text-anchor="middle" x="1219.708" y="-75.9" font-family="Helvetica,sans-Serif" font-size="12.00" fill="#000000">gsl/gsl_vector.h</text>
</g>
<!-- Node9&#45;&gt;Node16 -->
<g id="edge20" class="edge">
<title>Node9&#45;&gt;Node16</title>
<path fill="none" stroke="#191970" d="M1308.6484,-126.4408C1291.7873,-117.5419 1266.9616,-104.4394 1247.8205,-94.3371"/>
<polygon fill="#191970" stroke="#191970" points="1249.4179,-91.2227 1238.9404,-89.6504 1246.1506,-97.4134 1249.4179,-91.2227"/>
</g>
<!-- Node17 -->
<g id="node18" class="node">
<title>Node17</title>
<polygon fill="#ffffff" stroke="#bfbfbf" points="1287.0273,-69.5 1287.0273,-89.5 1386.3887,-89.5 1386.3887,-69.5 1287.0273,-69.5"/>
<text text-anchor="middle" x="1336.708" y="-75.9" font-family="Helvetica,sans-Serif" font-size="12.00" fill="#000000">gsl/gsl_matrix.h</text>
</g>
<!-- Node9&#45;&gt;Node17 -->
<g id="edge21" class="edge">
<title>Node9&#45;&gt;Node17</title>
<path fill="none" stroke="#191970" d="M1329.317,-126.3095C1330.4817,-118.9335 1332.0943,-108.72 1333.5162,-99.715"/>
<polygon fill="#191970" stroke="#191970" points="1337.0104,-100.0258 1335.1129,-89.6022 1330.096,-98.934 1337.0104,-100.0258"/>
</g>
<!-- Node18 -->
<g id="node19" class="node">
<title>Node18</title>
<polygon fill="#ffffff" stroke="#bfbfbf" points="1404.3506,-69.5 1404.3506,-89.5 1499.0654,-89.5 1499.0654,-69.5 1404.3506,-69.5"/>
<text text-anchor="middle" x="1451.708" y="-75.9" font-family="Helvetica,sans-Serif" font-size="12.00" fill="#000000">gsl/gsl_linalg.h</text>
</g>
<!-- Node9&#45;&gt;Node18 -->
<g id="edge22" class="edge">
<title>Node9&#45;&gt;Node18</title>
<path fill="none" stroke="#191970" d="M1349.5913,-126.4408C1369.2143,-117.4205 1398.233,-104.0813 1420.3261,-93.9255"/>
<polygon fill="#191970" stroke="#191970" points="1422.0022,-97.0072 1429.6264,-89.6504 1419.0785,-90.647 1422.0022,-97.0072"/>
</g>
<!-- Node19 -->
<g id="node20" class="node">
<title>Node19</title>
<polygon fill="#ffffff" stroke="#bfbfbf" points="1517.3535,-69.5 1517.3535,-89.5 1606.0625,-89.5 1606.0625,-69.5 1517.3535,-69.5"/>
<text text-anchor="middle" x="1561.708" y="-75.9" font-family="Helvetica,sans-Serif" font-size="12.00" fill="#000000">gsl/gsl_blas.h</text>
</g>
<!-- Node9&#45;&gt;Node19 -->
<g id="edge23" class="edge">
<title>Node9&#45;&gt;Node19</title>
<path fill="none" stroke="#191970" d="M1369.0039,-126.4408C1408.4806,-116.8246 1468.1079,-102.3 1510.5699,-91.9567"/>
<polygon fill="#191970" stroke="#191970" points="1511.5446,-95.3217 1520.4321,-89.5544 1509.8878,-88.5206 1511.5446,-95.3217"/>
</g>
<!-- Node20 -->
<g id="node21" class="node">
<title>Node20</title>
<polygon fill="#ffffff" stroke="#bfbfbf" points="944.7959,-69.5 944.7959,-89.5 1032.6201,-89.5 1032.6201,-69.5 944.7959,-69.5"/>
<text text-anchor="middle" x="988.708" y="-75.9" font-family="Helvetica,sans-Serif" font-size="12.00" fill="#000000">gsl/gsl_poly.h</text>
</g>
<!-- Node9&#45;&gt;Node20 -->
<g id="edge24" class="edge">
<title>Node9&#45;&gt;Node20</title>
<path fill="none" stroke="#191970" d="M1270.6328,-127.812C1215.0359,-119.2154 1127.8705,-105.3847 1042.7452,-90.1424"/>
<polygon fill="#191970" stroke="#191970" points="1043.1073,-86.6514 1032.6456,-88.3255 1041.8679,-93.5409 1043.1073,-86.6514"/>
</g>
<!-- Node9&#45;&gt;Node21 -->
<g id="edge27" class="edge">
<title>Node9&#45;&gt;Node21</title>
<path fill="none" stroke="#191970" d="M1385.0347,-135.5304C1562.365,-132.2811 2117.6825,-120.2306 2576.708,-90 2601.6063,-88.3602 2629.5743,-85.7096 2651.2076,-83.4818"/>
<polygon fill="#191970" stroke="#191970" points="2651.696,-86.9499 2661.2775,-82.4284 2650.9676,-79.9879 2651.696,-86.9499"/>
</g>
<!-- Node9&#45;&gt;Node24 -->
<g id="edge32" class="edge">
<title>Node9&#45;&gt;Node24</title>
<path fill="none" stroke="#191970" d="M1270.5497,-133.3338C1098.9369,-123.8275 587.486,-95.4964 383.7931,-84.2132"/>
<polygon fill="#191970" stroke="#191970" points="383.9215,-80.715 373.7432,-83.6565 383.5343,-87.7043 383.9215,-80.715"/>
</g>
<!-- Node9&#45;&gt;Node25 -->
<g id="edge33" class="edge">
<title>Node9&#45;&gt;Node25</title>
<path fill="none" stroke="#191970" d="M1384.9444,-127.5983C1440.7635,-118.8329 1528.3326,-104.8594 1613.9402,-90.1064"/>
<polygon fill="#191970" stroke="#191970" points="1614.5697,-93.5496 1623.8274,-88.3974 1613.3774,-86.6518 1614.5697,-93.5496"/>
</g>
<!-- Node21&#45;&gt;Node1 -->
<g id="edge28" class="edge">
<title>Node21&#45;&gt;Node1</title>
<path fill="none" stroke="#191970" d="M2661.634,-71.7383C2657.0311,-70.632 2652.2567,-69.6505 2647.708,-69 2556.6887,-55.9836 1195.0081,-26.3323 823.6491,-18.4529"/>
<polygon fill="#191970" stroke="#191970" points="823.551,-14.9501 813.479,-18.2373 823.4026,-21.9485 823.551,-14.9501"/>
</g>
<!-- Node21&#45;&gt;Node14 -->
<g id="edge29" class="edge">
<title>Node21&#45;&gt;Node14</title>
<path fill="none" stroke="#191970" d="M2661.4661,-72.5781C2656.8819,-71.3785 2652.1573,-70.1482 2647.708,-69 2590.1672,-54.1512 2523.5333,-37.3156 2481.7496,-26.8021"/>
<polygon fill="#191970" stroke="#191970" points="2482.4917,-23.3798 2471.94,-24.3351 2480.7844,-30.1684 2482.4917,-23.3798"/>
</g>
<!-- Node22 -->
<g id="node23" class="node">
<title>Node22</title>
<polygon fill="#ffffff" stroke="#bfbfbf" points="2654.0234,-6.5 2654.0234,-26.5 2721.3926,-26.5 2721.3926,-6.5 2654.0234,-6.5"/>
<text text-anchor="middle" x="2687.708" y="-12.9" font-family="Helvetica,sans-Serif" font-size="12.00" fill="#000000">exception</text>
</g>
<!-- Node21&#45;&gt;Node22 -->
<g id="edge30" class="edge">
<title>Node21&#45;&gt;Node22</title>
<path fill="none" stroke="#191970" d="M2687.708,-69.378C2687.708,-60.7041 2687.708,-47.9355 2687.708,-37.1186"/>
<polygon fill="#191970" stroke="#191970" points="2691.2081,-36.8062 2687.708,-26.8062 2684.2081,-36.8062 2691.2081,-36.8062"/>
</g>
<!-- Node23 -->
<g id="node24" class="node">
<title>Node23</title>
<polygon fill="#ffffff" stroke="#bfbfbf" points="2748.0361,-6.5 2748.0361,-26.5 2793.3799,-26.5 2793.3799,-6.5 2748.0361,-6.5"/>
<text text-anchor="middle" x="2770.708" y="-12.9" font-family="Helvetica,sans-Serif" font-size="12.00" fill="#000000">string</text>
</g>
<!-- Node21&#45;&gt;Node23 -->
<g id="edge31" class="edge">
<title>Node21&#45;&gt;Node23</title>
<path fill="none" stroke="#191970" d="M2701.0434,-69.378C2713.991,-59.5503 2733.8638,-44.4661 2749.0755,-32.9198"/>
<polygon fill="#191970" stroke="#191970" points="2751.5565,-35.4308 2757.4057,-26.5969 2747.3243,-29.8551 2751.5565,-35.4308"/>
</g>
<!-- Node26 -->
<g id="node27" class="node">
<title>Node26</title>
<polygon fill="#ffffff" stroke="#bfbfbf" points="1629.3516,-6.5 1629.3516,-26.5 1714.0645,-26.5 1714.0645,-6.5 1629.3516,-6.5"/>
<text text-anchor="middle" x="1671.708" y="-12.9" font-family="Helvetica,sans-Serif" font-size="12.00" fill="#000000">Eigen/Dense</text>
</g>
<!-- Node25&#45;&gt;Node26 -->
<g id="edge34" class="edge">
<title>Node25&#45;&gt;Node26</title>
<path fill="none" stroke="#191970" d="M1671.708,-69.378C1671.708,-60.7041 1671.708,-47.9355 1671.708,-37.1186"/>
<polygon fill="#191970" stroke="#191970" points="1675.2081,-36.8062 1671.708,-26.8062 1668.2081,-36.8062 1675.2081,-36.8062"/>
</g>
<!-- Node27&#45;&gt;Node9 -->
<g id="edge52" class="edge">
<title>Node27&#45;&gt;Node9</title>
<path fill="none" stroke="#191970" d="M1665.0622,-184.2151C1590.7191,-173.7001 1470.1938,-156.6531 1395.1261,-146.0356"/>
<polygon fill="#191970" stroke="#191970" points="1395.2365,-142.5164 1384.8449,-144.5814 1394.2562,-149.4474 1395.2365,-142.5164"/>
</g>
<!-- Node27&#45;&gt;Node11 -->
<g id="edge40" class="edge">
<title>Node27&#45;&gt;Node11</title>
<path fill="none" stroke="#191970" d="M1737.275,-183.3833C1749.6956,-164.2488 1776.7968,-122.4984 1792.6,-98.1529"/>
<polygon fill="#191970" stroke="#191970" points="1795.5403,-100.0514 1798.0493,-89.7579 1789.6689,-96.2401 1795.5403,-100.0514"/>
</g>
<!-- Node28 -->
<g id="node29" class="node">
<title>Node28</title>
<polygon fill="#ffffff" stroke="#bfbfbf" points="2313.3691,-69.5 2313.3691,-89.5 2362.0469,-89.5 2362.0469,-69.5 2313.3691,-69.5"/>
<text text-anchor="middle" x="2337.708" y="-75.9" font-family="Helvetica,sans-Serif" font-size="12.00" fill="#000000">cmath</text>
</g>
<!-- Node27&#45;&gt;Node28 -->
<g id="edge39" class="edge">
<title>Node27&#45;&gt;Node28</title>
<path fill="none" stroke="#191970" d="M1796.2171,-184.6677C1800.7812,-184.0909 1805.3123,-183.5296 1809.708,-183 1957.5014,-165.1922 1999.6841,-188.2814 2142.708,-147 2163.1423,-141.102 2165.9222,-133.8017 2185.708,-126 2207.1209,-117.5567 2265.1692,-100.3725 2303.0154,-89.4241"/>
<polygon fill="#191970" stroke="#191970" points="2304.4684,-92.6478 2313.107,-86.5139 2302.5287,-85.9219 2304.4684,-92.6478"/>
</g>
<!-- Node29 -->
<g id="node30" class="node">
<title>Node29</title>
<g id="a_node30"><a xlink:href="EccentricityExpansionCoefficients_8h.html" target="_top" xlink:title="Declares a class which provides the [ &#160;coefficients]{InclinationEccentricity_pms1}. ">
<polygon fill="#ffffff" stroke="#000000" points="1927.6631,-126.5 1927.6631,-146.5 2133.7529,-146.5 2133.7529,-126.5 1927.6631,-126.5"/>
<text text-anchor="middle" x="2030.708" y="-132.9" font-family="Helvetica,sans-Serif" font-size="12.00" fill="#000000">EccentricityExpansionCoefficients.h</text>
</a>
</g>
</g>
<!-- Node27&#45;&gt;Node29 -->
<g id="edge41" class="edge">
<title>Node27&#45;&gt;Node29</title>
<path fill="none" stroke="#191970" d="M1783.6514,-183.4408C1835.1959,-173.6473 1913.5363,-158.7626 1968.1355,-148.3888"/>
<polygon fill="#191970" stroke="#191970" points="1968.8713,-151.8117 1978.0422,-146.5065 1967.5646,-144.9347 1968.8713,-151.8117"/>
</g>
<!-- Node29&#45;&gt;Node1 -->
<g id="edge42" class="edge">
<title>Node29&#45;&gt;Node1</title>
<path fill="none" stroke="#191970" d="M2028.6152,-126.3194C2024.8394,-110.8693 2015.2851,-81.9345 1994.708,-69 1945.3444,-37.9706 1107.9709,-22.293 824.0136,-17.8509"/>
<polygon fill="#191970" stroke="#191970" points="823.7956,-14.3472 813.7424,-17.6913 823.6868,-21.3463 823.7956,-14.3472"/>
</g>
<!-- Node29&#45;&gt;Node8 -->
<g id="edge50" class="edge">
<title>Node29&#45;&gt;Node8</title>
<path fill="none" stroke="#191970" d="M1927.576,-133.8755C1733.3237,-128.5424 1299.9564,-114.792 935.708,-90 910.926,-88.3133 883.123,-85.7108 861.418,-83.5188"/>
<polygon fill="#191970" stroke="#191970" points="861.5972,-80.0189 851.2926,-82.4816 860.8838,-86.9825 861.5972,-80.0189"/>
</g>
<!-- Node29&#45;&gt;Node13 -->
<g id="edge49" class="edge">
<title>Node29&#45;&gt;Node13</title>
<path fill="none" stroke="#191970" d="M2017.4783,-126.3095C2006.5344,-117.8798 1990.779,-105.7439 1978.0531,-95.9415"/>
<polygon fill="#191970" stroke="#191970" points="1979.8813,-92.9318 1969.8232,-89.6022 1975.6097,-98.4773 1979.8813,-92.9318"/>
</g>
<!-- Node29&#45;&gt;Node14 -->
<g id="edge48" class="edge">
<title>Node29&#45;&gt;Node14</title>
<path fill="none" stroke="#191970" d="M2114.331,-126.4824C2160.2513,-119.3903 2217.6675,-107.8846 2266.708,-90 2284.8364,-83.3888 2287.2221,-77.1602 2304.708,-69 2336.6752,-54.0818 2374.1484,-39.8453 2401.6556,-29.9705"/>
<polygon fill="#191970" stroke="#191970" points="2403.0613,-33.1854 2411.3102,-26.5366 2400.7155,-26.5901 2403.0613,-33.1854"/>
</g>
<!-- Node29&#45;&gt;Node21 -->
<g id="edge43" class="edge">
<title>Node29&#45;&gt;Node21</title>
<path fill="none" stroke="#191970" d="M2133.8828,-128.0024C2243.6876,-118.8911 2422.4977,-103.8601 2576.708,-90 2601.7257,-87.7515 2629.9015,-85.0846 2651.6055,-83.0012"/>
<polygon fill="#191970" stroke="#191970" points="2652.0795,-86.4718 2661.6981,-82.0297 2651.4088,-79.504 2652.0795,-86.4718"/>
</g>
<!-- Node29&#45;&gt;Node28 -->
<g id="edge47" class="edge">
<title>Node29&#45;&gt;Node28</title>
<path fill="none" stroke="#191970" d="M2099.9045,-126.4572C2154.4547,-118.0789 2232.3019,-105.1002 2299.708,-90 2300.9478,-89.7223 2302.2076,-89.4296 2303.4779,-89.1256"/>
<polygon fill="#191970" stroke="#191970" points="2304.4395,-92.4926 2313.2674,-86.6343 2302.7131,-85.7088 2304.4395,-92.4926"/>
</g>
<!-- Node30 -->
<g id="node31" class="node">
<title>Node30</title>
<polygon fill="#ffffff" stroke="#bfbfbf" points="2519.3691,-69.5 2519.3691,-89.5 2568.0469,-89.5 2568.0469,-69.5 2519.3691,-69.5"/>
<text text-anchor="middle" x="2543.708" y="-75.9" font-family="Helvetica,sans-Serif" font-size="12.00" fill="#000000">vector</text>
</g>
<!-- Node29&#45;&gt;Node30 -->
<g id="edge44" class="edge">
<title>Node29&#45;&gt;Node30</title>
<path fill="none" stroke="#191970" d="M2134.1756,-132.7947C2229.6384,-127.929 2375.2395,-116.8447 2509.3095,-89.9329"/>
<polygon fill="#191970" stroke="#191970" points="2510.2544,-93.3122 2519.3522,-87.8826 2508.8541,-86.4537 2510.2544,-93.3122"/>
</g>
<!-- Node31 -->
<g id="node32" class="node">
<title>Node31</title>
<polygon fill="#ffffff" stroke="#bfbfbf" points="2041.7041,-69.5 2041.7041,-89.5 2097.7119,-89.5 2097.7119,-69.5 2041.7041,-69.5"/>
<text text-anchor="middle" x="2069.708" y="-75.9" font-family="Helvetica,sans-Serif" font-size="12.00" fill="#000000">fstream</text>
</g>
<!-- Node29&#45;&gt;Node31 -->
<g id="edge45" class="edge">
<title>Node29&#45;&gt;Node31</title>
<path fill="none" stroke="#191970" d="M2037.6804,-126.3095C2043.0599,-118.4472 2050.6454,-107.3608 2057.0838,-97.9507"/>
<polygon fill="#191970" stroke="#191970" points="2060.0377,-99.8317 2062.796,-89.6022 2054.2605,-95.8789 2060.0377,-99.8317"/>
</g>
<!-- Node32 -->
<g id="node33" class="node">
<title>Node32</title>
<polygon fill="#ffffff" stroke="#bfbfbf" points="2115.6963,-69.5 2115.6963,-89.5 2173.7197,-89.5 2173.7197,-69.5 2115.6963,-69.5"/>
<text text-anchor="middle" x="2144.708" y="-75.9" font-family="Helvetica,sans-Serif" font-size="12.00" fill="#000000">iomanip</text>
</g>
<!-- Node29&#45;&gt;Node32 -->
<g id="edge46" class="edge">
<title>Node29&#45;&gt;Node32</title>
<path fill="none" stroke="#191970" d="M2050.8265,-126.4408C2068.7052,-117.5014 2095.0676,-104.3202 2115.3089,-94.1996"/>
<polygon fill="#191970" stroke="#191970" points="2117.0282,-97.2531 2124.4072,-89.6504 2113.8976,-90.9921 2117.0282,-97.2531"/>
</g>
<!-- Node33 -->
<g id="node34" class="node">
<title>Node33</title>
<polygon fill="#ffffff" stroke="#bfbfbf" points="2192.0313,-69.5 2192.0313,-89.5 2257.3848,-89.5 2257.3848,-69.5 2192.0313,-69.5"/>
<text text-anchor="middle" x="2224.708" y="-75.9" font-family="Helvetica,sans-Serif" font-size="12.00" fill="#000000">algorithm</text>
</g>
<!-- Node29&#45;&gt;Node33 -->
<g id="edge51" class="edge">
<title>Node29&#45;&gt;Node33</title>
<path fill="none" stroke="#191970" d="M2064.9447,-126.4408C2097.5169,-116.8706 2146.6359,-102.4387 2181.8059,-92.1053"/>
<polygon fill="#191970" stroke="#191970" points="2183.1762,-95.3507 2191.784,-89.1736 2181.2029,-88.6346 2183.1762,-95.3507"/>
</g>
<!-- Node34&#45;&gt;Node1 -->
<g id="edge55" class="edge">
<title>Node34&#45;&gt;Node1</title>
<path fill="none" stroke="#191970" d="M2379.6753,-69.9159C2376.647,-69.5751 2373.6452,-69.2664 2370.708,-69 2067.1977,-41.4737 1125.41,-23.2861 824.2968,-18.0553"/>
<polygon fill="#191970" stroke="#191970" points="823.9167,-14.5483 813.8577,-17.8747 823.7956,-21.5472 823.9167,-14.5483"/>
</g>
<!-- Node34&#45;&gt;Node14 -->
<g id="edge56" class="edge">
<title>Node34&#45;&gt;Node14</title>
<path fill="none" stroke="#191970" d="M2440.708,-69.378C2440.708,-60.7041 2440.708,-47.9355 2440.708,-37.1186"/>
<polygon fill="#191970" stroke="#191970" points="2444.2081,-36.8062 2440.708,-26.8062 2437.2081,-36.8062 2444.2081,-36.8062"/>
</g>
<!-- Node35&#45;&gt;Node1 -->
<g id="edge58" class="edge">
<title>Node35&#45;&gt;Node1</title>
<path fill="none" stroke="#191970" d="M1972.6732,-240.2589C1961.7734,-221.7248 1938.1308,-181.3518 1918.708,-147 1899.2247,-112.5412 1909.3226,-89.9062 1875.708,-69 1831.3367,-41.4038 1088.7979,-23.7464 823.774,-18.2986"/>
<polygon fill="#191970" stroke="#191970" points="823.48,-14.792 813.4105,-18.0868 823.3369,-21.7905 823.48,-14.792"/>
</g>
<!-- Node35&#45;&gt;Node30 -->
<g id="edge63" class="edge">
<title>Node35&#45;&gt;Node30</title>
<path fill="none" stroke="#191970" d="M2003.8819,-240.4182C2061.7127,-217.547 2208.8405,-161.0048 2335.708,-126 2409.2641,-105.7047 2432.1055,-109.7009 2509.5598,-90.0976"/>
<polygon fill="#191970" stroke="#191970" points="2510.476,-93.4759 2519.2833,-87.5867 2508.7258,-86.6982 2510.476,-93.4759"/>
</g>
<!-- Node36 -->
<g id="node37" class="node">
<title>Node36</title>
<g id="a_node37"><a xlink:href="StoppingCondition_8h.html" target="_top" xlink:title="Defines the various stopping conditions needed by OrbitSolver. ">
<polygon fill="#ffffff" stroke="#000000" points="1031.667,-183.5 1031.667,-203.5 1155.749,-203.5 1155.749,-183.5 1031.667,-183.5"/>
<text text-anchor="middle" x="1093.708" y="-189.9" font-family="Helvetica,sans-Serif" font-size="12.00" fill="#000000">StoppingCondition.h</text>
</a>
</g>
</g>
<!-- Node35&#45;&gt;Node36 -->
<g id="edge59" class="edge">
<title>Node35&#45;&gt;Node36</title>
<path fill="none" stroke="#191970" d="M1889.2189,-243.5617C1872.1222,-242.3139 1854.3655,-241.071 1837.708,-240 1542.3296,-221.0086 1467.4142,-231.5196 1172.708,-204 1170.4694,-203.791 1168.1967,-203.5662 1165.9032,-203.3284"/>
<polygon fill="#191970" stroke="#191970" points="1166.0786,-199.8267 1155.7558,-202.2121 1165.3131,-206.7847 1166.0786,-199.8267"/>
</g>
<!-- Node36&#45;&gt;Node1 -->
<g id="edge60" class="edge">
<title>Node36&#45;&gt;Node1</title>
<path fill="none" stroke="#191970" d="M1031.6394,-189.9109C981.9843,-185.0703 911.6562,-173.7015 855.708,-147 806.7454,-123.6324 766.8933,-72.2864 746.1853,-41.424"/>
<polygon fill="#191970" stroke="#191970" points="749.0291,-39.3778 740.6222,-32.9299 743.1732,-43.2131 749.0291,-39.3778"/>
</g>
<!-- Node36&#45;&gt;Node8 -->
<g id="edge62" class="edge">
<title>Node36&#45;&gt;Node8</title>
<path fill="none" stroke="#191970" d="M1031.4377,-183.8085C979.5003,-174.9591 910.1783,-161.1375 885.708,-147 864.7463,-134.8896 846.8018,-113.3331 835.6917,-97.8355"/>
<polygon fill="#191970" stroke="#191970" points="838.5242,-95.7776 829.9689,-89.5281 832.7596,-99.7488 838.5242,-95.7776"/>
</g>
<!-- Node36&#45;&gt;Node9 -->
<g id="edge61" class="edge">
<title>Node36&#45;&gt;Node9</title>
<path fill="none" stroke="#191970" d="M1135.0039,-183.4408C1174.4806,-173.8246 1234.1079,-159.3 1276.5699,-148.9567"/>
<polygon fill="#191970" stroke="#191970" points="1277.5446,-152.3217 1286.4321,-146.5544 1275.8878,-145.5206 1277.5446,-152.3217"/>
</g>
<!-- Node37&#45;&gt;Node1 -->
<g id="edge65" class="edge">
<title>Node37&#45;&gt;Node1</title>
<path fill="none" stroke="#191970" d="M1121.9687,-242.7806C1044.4146,-231.4328 914.8156,-204.9484 818.708,-147 778.7611,-122.9139 752.9603,-72.9247 740.2019,-42.2867"/>
<polygon fill="#191970" stroke="#191970" points="743.3336,-40.6916 736.3735,-32.7037 736.8332,-43.2885 743.3336,-40.6916"/>
</g>
<!-- Node37&#45;&gt;Node36 -->
<g id="edge66" class="edge">
<title>Node37&#45;&gt;Node36</title>
<path fill="none" stroke="#191970" d="M1171.7239,-240.3095C1157.1339,-231.5556 1135.8828,-218.8049 1119.2433,-208.8211"/>
<polygon fill="#191970" stroke="#191970" points="1120.9208,-205.746 1110.5451,-203.6022 1117.3193,-211.7485 1120.9208,-205.746"/>
</g>
<!-- Node38&#45;&gt;Node1 -->
<g id="edge68" class="edge">
<title>Node38&#45;&gt;Node1</title>
<path fill="none" stroke="#191970" d="M915.7647,-241.9931C808.2113,-228.181 618.0165,-197.2477 572.708,-147 549.3712,-121.1192 544.1141,-97.1125 564.708,-69 574.5439,-55.5732 606.6378,-43.9827 640.0191,-35.1334"/>
<polygon fill="#191970" stroke="#191970" points="641.1049,-38.4683 649.922,-32.5938 639.366,-31.6877 641.1049,-38.4683"/>
</g>
<!-- Node38&#45;&gt;Node36 -->
<g id="edge69" class="edge">
<title>Node38&#45;&gt;Node36</title>
<path fill="none" stroke="#191970" d="M1009.1223,-240.3095C1025.0874,-231.4745 1048.4089,-218.5684 1066.5223,-208.5445"/>
<polygon fill="#191970" stroke="#191970" points="1068.3982,-211.5066 1075.4531,-203.6022 1065.0088,-205.3819 1068.3982,-211.5066"/>
</g>
<!-- Node39&#45;&gt;Node1 -->
<g id="edge74" class="edge">
<title>Node39&#45;&gt;Node1</title>
<path fill="none" stroke="#191970" d="M1118.6141,-494.7739C876.9828,-488.4077 157.708,-461.3255 157.708,-364.5 157.708,-364.5 157.708,-364.5 157.708,-136.5 157.708,-102.0728 166.872,-87.8075 195.708,-69 231.8019,-45.4587 494.2814,-28.5593 637.7058,-20.9713"/>
<polygon fill="#191970" stroke="#191970" points="638.0188,-24.4598 647.8219,-20.4411 637.6523,-17.4694 638.0188,-24.4598"/>
</g>
<!-- Node39&#45;&gt;Node4 -->
<g id="edge75" class="edge">
<title>Node39&#45;&gt;Node4</title>
<path fill="none" stroke="#191970" d="M1198.9169,-480.3959C1201.9268,-462.4394 1208.5248,-433.0289 1221.708,-411 1245.2441,-371.6718 1289.2017,-340.2086 1317.6937,-322.7043"/>
<polygon fill="#191970" stroke="#191970" points="1319.5729,-325.6587 1326.3555,-317.5194 1315.9776,-319.6525 1319.5729,-325.6587"/>
</g>
<!-- Node39&#45;&gt;Node40 -->
<g id="edge76" class="edge">
<title>Node39&#45;&gt;Node40</title>
<path fill="none" stroke="#191970" d="M1204.3494,-480.2029C1213.7727,-461.5258 1231.3263,-430.9331 1253.708,-411 1269.1349,-397.2608 1289.354,-386.4001 1306.8145,-378.6417"/>
<polygon fill="#191970" stroke="#191970" points="1308.3539,-381.7903 1316.183,-374.652 1305.6112,-375.35 1308.3539,-381.7903"/>
</g>
<!-- Node42 -->
<g id="node43" class="node">
<title>Node42</title>
<g id="a_node43"><a xlink:href="BinarySystem_8h.html" target="_top" xlink:title="Defines the BinarySystem class. ">
<polygon fill="#ffffff" stroke="#000000" points="993.6934,-417.5 993.6934,-437.5 1093.7227,-437.5 1093.7227,-417.5 993.6934,-417.5"/>
<text text-anchor="middle" x="1043.708" y="-423.9" font-family="Helvetica,sans-Serif" font-size="12.00" fill="#000000">BinarySystem.h</text>
</a>
</g>
</g>
<!-- Node39&#45;&gt;Node42 -->
<g id="edge87" class="edge">
<title>Node39&#45;&gt;Node42</title>
<path fill="none" stroke="#191970" d="M1161.2222,-480.4966C1135.3488,-468.8282 1100.5887,-453.1521 1075.5949,-441.8803"/>
<polygon fill="#191970" stroke="#191970" points="1076.7562,-438.5647 1066.2015,-437.6441 1073.8785,-444.9458 1076.7562,-438.5647"/>
</g>
<!-- Node47 -->
<g id="node48" class="node">
<title>Node47</title>
<g id="a_node48"><a xlink:href="LagForcingFrequencyBreakCondition_8h.html" target="_top" xlink:title="Declares a stopping condition satisfied when a forcing frequency reaches a critical value...">
<polygon fill="#ffffff" stroke="#000000" points="1262.6689,-411.5 1262.6689,-443.5 1426.7471,-443.5 1426.7471,-411.5 1262.6689,-411.5"/>
<text text-anchor="start" x="1270.6689" y="-429.9" font-family="Helvetica,sans-Serif" font-size="12.00" fill="#000000">LagForcingFrequencyBreak</text>
<text text-anchor="middle" x="1344.708" y="-417.9" font-family="Helvetica,sans-Serif" font-size="12.00" fill="#000000">Condition.h</text>
</a>
</g>
</g>
<!-- Node39&#45;&gt;Node47 -->
<g id="edge104" class="edge">
<title>Node39&#45;&gt;Node47</title>
<path fill="none" stroke="#191970" d="M1231.0342,-480.4966C1251.8805,-470.7777 1278.6906,-458.2784 1301.0381,-447.8596"/>
<polygon fill="#191970" stroke="#191970" points="1302.7275,-450.9338 1310.3119,-443.536 1299.7696,-444.5894 1302.7275,-450.9338"/>
</g>
<!-- Node48 -->
<g id="node49" class="node">
<title>Node48</title>
<g id="a_node49"><a xlink:href="LagSpinBreakCondition_8h.html" target="_top" xlink:title="Declares a stopping condition monitoring for critical spin frequencies. ">
<polygon fill="#ffffff" stroke="#000000" points="2558.6602,-417.5 2558.6602,-437.5 2710.7559,-437.5 2710.7559,-417.5 2558.6602,-417.5"/>
<text text-anchor="middle" x="2634.708" y="-423.9" font-family="Helvetica,sans-Serif" font-size="12.00" fill="#000000">LagSpinBreakCondition.h</text>
</a>
</g>
</g>
<!-- Node39&#45;&gt;Node48 -->
<g id="edge111" class="edge">
<title>Node39&#45;&gt;Node48</title>
<path fill="none" stroke="#191970" d="M1274.531,-492.7658C1521.9306,-480.8947 2289.2773,-444.0749 2548.2987,-431.6462"/>
<polygon fill="#191970" stroke="#191970" points="2548.5848,-435.1366 2558.4055,-431.1612 2548.2492,-428.1446 2548.5848,-435.1366"/>
</g>
<!-- Node40&#45;&gt;Node1 -->
<g id="edge77" class="edge">
<title>Node40&#45;&gt;Node1</title>
<path fill="none" stroke="#191970" d="M1400.5273,-358.0427C1534.2121,-341.8251 1861.708,-297.3182 1861.708,-250.5 1861.708,-250.5 1861.708,-250.5 1861.708,-136.5 1861.708,-105.3342 1867.1017,-88.3974 1842.708,-69 1803.1023,-37.5063 1083.928,-22.4033 823.704,-17.9523"/>
<polygon fill="#191970" stroke="#191970" points="823.5809,-14.4498 813.5229,-17.7796 823.4621,-21.4488 823.5809,-14.4498"/>
</g>
<!-- Node40&#45;&gt;Node4 -->
<g id="edge78" class="edge">
<title>Node40&#45;&gt;Node4</title>
<path fill="none" stroke="#191970" d="M1344.708,-354.3095C1344.708,-346.9335 1344.708,-336.72 1344.708,-327.715"/>
<polygon fill="#191970" stroke="#191970" points="1348.2081,-327.6022 1344.708,-317.6022 1341.2081,-327.6023 1348.2081,-327.6022"/>
</g>
<!-- Node40&#45;&gt;Node8 -->
<g id="edge86" class="edge">
<title>Node40&#45;&gt;Node8</title>
<path fill="none" stroke="#191970" d="M1288.7772,-357.4686C1184.3497,-343.3627 965.0061,-308.819 906.708,-261 855.2385,-218.7822 834.2752,-137.7056 827.0183,-99.8748"/>
<polygon fill="#191970" stroke="#191970" points="830.3896,-98.8433 825.1876,-89.6135 823.4984,-100.0728 830.3896,-98.8433"/>
</g>
<!-- Node40&#45;&gt;Node9 -->
<g id="edge84" class="edge">
<title>Node40&#45;&gt;Node9</title>
<path fill="none" stroke="#191970" d="M1384.6279,-354.3353C1403.2703,-347.3697 1423.7317,-336.0258 1434.708,-318 1439.5621,-310.0283 1437.4127,-305.9329 1434.708,-297 1416.9543,-238.3634 1369.9325,-181.5687 1344.5399,-153.9277"/>
<polygon fill="#191970" stroke="#191970" points="1347.09,-151.5303 1337.7014,-146.6206 1341.9791,-156.3135 1347.09,-151.5303"/>
</g>
<!-- Node40&#45;&gt;Node11 -->
<g id="edge85" class="edge">
<title>Node40&#45;&gt;Node11</title>
<path fill="none" stroke="#191970" d="M1400.5087,-354.5726C1485.52,-337.8397 1637.708,-300.8525 1637.708,-250.5 1637.708,-250.5 1637.708,-250.5 1637.708,-193.5 1637.708,-161.1657 1724.1857,-116.3345 1772.6816,-93.7358"/>
<polygon fill="#191970" stroke="#191970" points="1774.2162,-96.8825 1781.8375,-89.5228 1771.29,-90.5234 1774.2162,-96.8825"/>
</g>
<!-- Node40&#45;&gt;Node24 -->
<g id="edge83" class="edge">
<title>Node40&#45;&gt;Node24</title>
<path fill="none" stroke="#191970" d="M1289.0342,-357.4956C1217.7778,-348.5015 1090.5252,-332.341 981.708,-318 912.7857,-308.9167 895.7942,-304.7388 826.708,-297 736.6948,-286.917 498.6872,-307.0792 420.708,-261 387.9571,-241.647 331.7254,-141.3801 308.841,-98.7326"/>
<polygon fill="#191970" stroke="#191970" points="311.9169,-97.0622 304.1272,-89.8809 305.7383,-100.3525 311.9169,-97.0622"/>
</g>
<!-- Node41 -->
<g id="node42" class="node">
<title>Node41</title>
<g id="a_node42"><a xlink:href="OrbitalExpressions_8h.html" target="_top" xlink:title="A collection of functions which calculate various quantities for two body orbits. ...">
<polygon fill="#ffffff" stroke="#000000" points="651.6787,-297.5 651.6787,-317.5 817.7373,-317.5 817.7373,-297.5 651.6787,-297.5"/>
<text text-anchor="middle" x="734.708" y="-303.9" font-family="Helvetica,sans-Serif" font-size="12.00" fill="#000000">../Core/OrbitalExpressions.h</text>
</a>
</g>
</g>
<!-- Node40&#45;&gt;Node41 -->
<g id="edge79" class="edge">
<title>Node40&#45;&gt;Node41</title>
<path fill="none" stroke="#191970" d="M1288.8832,-359.7607C1194.615,-351.6858 997.8945,-334.5252 831.708,-318 830.428,-317.8727 829.1387,-317.7438 827.8415,-317.6133"/>
<polygon fill="#191970" stroke="#191970" points="828.0769,-314.1193 817.7737,-316.5879 827.3676,-321.0832 828.0769,-314.1193"/>
</g>
<!-- Node41&#45;&gt;Node1 -->
<g id="edge80" class="edge">
<title>Node41&#45;&gt;Node1</title>
<path fill="none" stroke="#191970" d="M651.5398,-299.8624C564.425,-291.1305 437.85,-276.0869 420.708,-261 397.3127,-240.4095 401.708,-224.6658 401.708,-193.5 401.708,-193.5 401.708,-193.5 401.708,-136.5 401.708,-100.6891 415.9044,-88.8536 445.708,-69 476.6376,-48.3963 566.7825,-34.0888 637.4975,-25.6722"/>
<polygon fill="#191970" stroke="#191970" points="638.2532,-29.1079 647.7805,-24.4731 637.4424,-22.155 638.2532,-29.1079"/>
</g>
<!-- Node41&#45;&gt;Node24 -->
<g id="edge82" class="edge">
<title>Node41&#45;&gt;Node24</title>
<path fill="none" stroke="#191970" d="M651.5503,-302.3312C545.2465,-294.9845 372.1697,-280.2492 349.708,-261 325.0685,-239.8845 308.0022,-142.5954 301.559,-99.7985"/>
<polygon fill="#191970" stroke="#191970" points="304.9962,-99.1135 300.0883,-89.724 298.0696,-100.1247 304.9962,-99.1135"/>
</g>
<!-- Node41&#45;&gt;Node28 -->
<g id="edge81" class="edge">
<title>Node41&#45;&gt;Node28</title>
<path fill="none" stroke="#191970" d="M817.8274,-300.6642C922.2187,-291.9738 1106.8027,-276.2597 1264.708,-261 1504.9223,-237.7861 1565.3614,-234.9031 1804.708,-204 1887.8688,-193.2627 2098.653,-174.9521 2177.708,-147 2195.1718,-140.8252 2196.9762,-133.9471 2213.708,-126 2243.2263,-111.9797 2278.1906,-99.1939 2303.4545,-90.5936"/>
<polygon fill="#191970" stroke="#191970" points="2304.603,-93.9001 2312.9671,-87.3969 2302.3731,-87.2648 2304.603,-93.9001"/>
</g>
<!-- Node42&#45;&gt;Node1 -->
<g id="edge88" class="edge">
<title>Node42&#45;&gt;Node1</title>
<path fill="none" stroke="#191970" d="M993.3844,-426.5368C858.6562,-423.4826 492.2359,-411.9244 377.708,-375 268.982,-339.9462 195.708,-307.7371 195.708,-193.5 195.708,-193.5 195.708,-193.5 195.708,-136.5 195.708,-105.3342 190.8491,-89.0515 214.708,-69 246.3372,-42.4183 497.8274,-26.9668 637.6755,-20.3489"/>
<polygon fill="#191970" stroke="#191970" points="638.1339,-23.8314 647.9597,-19.8686 637.8072,-16.839 638.1339,-23.8314"/>
</g>
<!-- Node42&#45;&gt;Node9 -->
<g id="edge95" class="edge">
<title>Node42&#45;&gt;Node9</title>
<path fill="none" stroke="#191970" d="M1060.7495,-417.4695C1099.9886,-393.8133 1198.4286,-331.2161 1264.708,-261 1285.6076,-238.8591 1288.8823,-231.1268 1302.708,-204 1310.4991,-188.7134 1317.1241,-170.4083 1321.5928,-156.7195"/>
<polygon fill="#191970" stroke="#191970" points="1325.0271,-157.4665 1324.6954,-146.8768 1318.3509,-155.362 1325.0271,-157.4665"/>
</g>
<!-- Node42&#45;&gt;Node12 -->
<g id="edge102" class="edge">
<title>Node42&#45;&gt;Node12</title>
<path fill="none" stroke="#191970" d="M993.5701,-424.6946C931.5266,-419.9325 823.4608,-407.3805 736.708,-375 690.934,-357.9149 674.4489,-355.144 642.708,-318 629.3705,-302.3921 576.6715,-167.1441 572.708,-147 570.9062,-137.8422 567.5766,-133.7962 572.708,-126 577.233,-119.1251 618.9165,-102.4586 649.1461,-91.0653"/>
<polygon fill="#191970" stroke="#191970" points="650.7459,-94.204 658.8886,-87.4255 648.296,-87.6467 650.7459,-94.204"/>
</g>
<!-- Node42&#45;&gt;Node14 -->
<g id="edge103" class="edge">
<title>Node42&#45;&gt;Node14</title>
<path fill="none" stroke="#191970" d="M1093.7488,-423.5006C1237.0346,-412.0217 1640.4472,-379.5035 1668.708,-375 1877.5567,-341.7192 2453.7196,-262.0443 2576.708,-90 2603.884,-51.9845 2531.1813,-31.6804 2481.8911,-22.5808"/>
<polygon fill="#191970" stroke="#191970" points="2482.2271,-19.0864 2471.7729,-20.8068 2481.0182,-25.9812 2482.2271,-19.0864"/>
</g>
<!-- Node42&#45;&gt;Node21 -->
<g id="edge97" class="edge">
<title>Node42&#45;&gt;Node21</title>
<path fill="none" stroke="#191970" d="M1093.7346,-422.9523C1136.2553,-419.2349 1198.9398,-414.1035 1253.708,-411 1368.4824,-404.4961 2179.2429,-413.089 2287.708,-375 2462.4059,-313.6524 2471.7913,-234.6638 2621.708,-126 2636.0006,-115.6404 2652.2034,-104.22 2664.9781,-95.2898"/>
<polygon fill="#191970" stroke="#191970" points="2667.0093,-98.1404 2673.2088,-89.5487 2663.0046,-92.399 2667.0093,-98.1404"/>
</g>
<!-- Node42&#45;&gt;Node23 -->
<g id="edge101" class="edge">
<title>Node42&#45;&gt;Node23</title>
<path fill="none" stroke="#191970" d="M1093.7336,-422.9345C1136.2537,-419.2063 1198.9379,-414.0689 1253.708,-411 1491.913,-397.6527 2092.8219,-422.0856 2326.708,-375 2479.1599,-344.3086 2653.708,-406.0106 2653.708,-250.5 2653.708,-250.5 2653.708,-250.5 2653.708,-193.5 2653.708,-138.2149 2692.2597,-136.1448 2722.708,-90 2734.9641,-71.4257 2748.8548,-50.1285 2758.5281,-35.2573"/>
<polygon fill="#191970" stroke="#191970" points="2761.7011,-36.7978 2764.2163,-26.5059 2755.8319,-32.983 2761.7011,-36.7978"/>
</g>
<!-- Node42&#45;&gt;Node24 -->
<g id="edge94" class="edge">
<title>Node42&#45;&gt;Node24</title>
<path fill="none" stroke="#191970" d="M993.5193,-424.8493C824.6699,-415.2718 287.708,-379.1792 287.708,-307.5 287.708,-307.5 287.708,-307.5 287.708,-193.5 287.708,-160.501 292.331,-122.3764 295.583,-99.6404"/>
<polygon fill="#191970" stroke="#191970" points="299.0769,-99.9393 297.0849,-89.5334 292.153,-98.9103 299.0769,-99.9393"/>
</g>
<!-- Node42&#45;&gt;Node35 -->
<g id="edge90" class="edge">
<title>Node42&#45;&gt;Node35</title>
<path fill="none" stroke="#191970" d="M1093.9315,-423.8406C1250.8693,-411.9459 1730.2493,-372.0033 1875.708,-318 1907.6586,-306.138 1939.7564,-282.8757 1959.4293,-267.0104"/>
<polygon fill="#191970" stroke="#191970" points="1961.8184,-269.5769 1967.306,-260.514 1957.3644,-264.1767 1961.8184,-269.5769"/>
</g>
<!-- Node42&#45;&gt;Node40 -->
<g id="edge89" class="edge">
<title>Node42&#45;&gt;Node40</title>
<path fill="none" stroke="#191970" d="M1091.7352,-417.4478C1144.8146,-406.3382 1230.2798,-388.4501 1286.9658,-376.5856"/>
<polygon fill="#191970" stroke="#191970" points="1287.781,-379.9909 1296.8519,-374.5164 1286.3469,-373.1393 1287.781,-379.9909"/>
</g>
<!-- Node42&#45;&gt;Node41 -->
<g id="edge96" class="edge">
<title>Node42&#45;&gt;Node41</title>
<path fill="none" stroke="#191970" d="M993.6588,-424.7264C920.2021,-419.6409 788.162,-406.318 753.708,-375 740.6596,-363.1392 736.2943,-343.0916 734.9635,-327.9182"/>
<polygon fill="#191970" stroke="#191970" points="738.4582,-327.7251 734.45,-317.9178 731.4675,-328.0842 738.4582,-327.7251"/>
</g>
<!-- Node43 -->
<g id="node44" class="node">
<title>Node43</title>
<g id="a_node44"><a xlink:href="SecondaryDeathCondition_8h.html" target="_top" xlink:title="Declares a stopping condition class monitoring for the death of the secondary object. ">
<polygon fill="#ffffff" stroke="#000000" points="429.6582,-240.5 429.6582,-260.5 595.7578,-260.5 595.7578,-240.5 429.6582,-240.5"/>
<text text-anchor="middle" x="512.708" y="-246.9" font-family="Helvetica,sans-Serif" font-size="12.00" fill="#000000">SecondaryDeathCondition.h</text>
</a>
</g>
</g>
<!-- Node42&#45;&gt;Node43 -->
<g id="edge91" class="edge">
<title>Node42&#45;&gt;Node43</title>
<path fill="none" stroke="#191970" d="M993.65,-426.2208C893.8986,-422.9072 674.3693,-411.5648 609.708,-375 566.5859,-350.6153 535.9919,-298.5763 521.7384,-270.1064"/>
<polygon fill="#191970" stroke="#191970" points="524.7342,-268.2614 517.2335,-260.7788 518.4308,-271.3057 524.7342,-268.2614"/>
</g>
<!-- Node44 -->
<g id="node45" class="node">
<title>Node44</title>
<polygon fill="#ffffff" stroke="#bfbfbf" points="762.3535,-354.5 762.3535,-374.5 857.0625,-374.5 857.0625,-354.5 762.3535,-354.5"/>
<text text-anchor="middle" x="809.708" y="-360.9" font-family="Helvetica,sans-Serif" font-size="12.00" fill="#000000">gsl/gsl_errno.h</text>
</g>
<!-- Node42&#45;&gt;Node44 -->
<g id="edge98" class="edge">
<title>Node42&#45;&gt;Node44</title>
<path fill="none" stroke="#191970" d="M1006.3713,-417.4478C965.7903,-406.5222 900.8596,-389.0408 856.8052,-377.18"/>
<polygon fill="#191970" stroke="#191970" points="857.4778,-373.7365 846.9118,-374.5164 855.658,-380.4959 857.4778,-373.7365"/>
</g>
<!-- Node45 -->
<g id="node46" class="node">
<title>Node45</title>
<polygon fill="#ffffff" stroke="#bfbfbf" points="874.6797,-354.5 874.6797,-374.5 976.7363,-374.5 976.7363,-354.5 874.6797,-354.5"/>
<text text-anchor="middle" x="925.708" y="-360.9" font-family="Helvetica,sans-Serif" font-size="12.00" fill="#000000">gsl/gsl_odeiv2.h</text>
</g>
<!-- Node42&#45;&gt;Node45 -->
<g id="edge99" class="edge">
<title>Node42&#45;&gt;Node45</title>
<path fill="none" stroke="#191970" d="M1024.7493,-417.378C1005.4817,-407.091 975.4269,-391.0448 953.476,-379.3253"/>
<polygon fill="#191970" stroke="#191970" points="955.0896,-376.2192 944.6197,-374.5969 951.7927,-382.3943 955.0896,-376.2192"/>
</g>
<!-- Node46 -->
<g id="node47" class="node">
<title>Node46</title>
<polygon fill="#ffffff" stroke="#bfbfbf" points="994.3555,-354.5 994.3555,-374.5 1093.0605,-374.5 1093.0605,-354.5 994.3555,-354.5"/>
<text text-anchor="middle" x="1043.708" y="-360.9" font-family="Helvetica,sans-Serif" font-size="12.00" fill="#000000">gsl/gsl_siman.h</text>
</g>
<!-- Node42&#45;&gt;Node46 -->
<g id="edge100" class="edge">
<title>Node42&#45;&gt;Node46</title>
<path fill="none" stroke="#191970" d="M1043.708,-417.378C1043.708,-408.7041 1043.708,-395.9355 1043.708,-385.1186"/>
<polygon fill="#191970" stroke="#191970" points="1047.2081,-384.8062 1043.708,-374.8062 1040.2081,-384.8062 1047.2081,-384.8062"/>
</g>
<!-- Node43&#45;&gt;Node1 -->
<g id="edge92" class="edge">
<title>Node43&#45;&gt;Node1</title>
<path fill="none" stroke="#191970" d="M496.6058,-240.4966C485.045,-232.2899 470.3744,-219.5165 463.708,-204 440.0236,-148.8724 425.5935,-115.3388 463.708,-69 485.6517,-42.3214 569.6566,-28.9909 637.6555,-22.4642"/>
<polygon fill="#191970" stroke="#191970" points="638.3538,-25.9148 647.9905,-21.512 637.7115,-18.9443 638.3538,-25.9148"/>
</g>
<!-- Node43&#45;&gt;Node36 -->
<g id="edge93" class="edge">
<title>Node43&#45;&gt;Node36</title>
<path fill="none" stroke="#191970" d="M595.9511,-242.3333C710.0909,-231.1354 913.3011,-211.1991 1021.4007,-200.5938"/>
<polygon fill="#191970" stroke="#191970" points="1021.9484,-204.057 1031.5588,-199.5973 1021.2648,-197.0904 1021.9484,-204.057"/>
</g>
<!-- Node47&#45;&gt;Node1 -->
<g id="edge105" class="edge">
<title>Node47&#45;&gt;Node1</title>
<path fill="none" stroke="#191970" d="M1426.8837,-426.6541C1632.2034,-423.9783 2163.4557,-413.4406 2335.708,-375 2413.4399,-357.653 2501.708,-387.144 2501.708,-307.5 2501.708,-307.5 2501.708,-307.5 2501.708,-193.5 2501.708,-128.9021 2621.7317,-115.3223 2576.708,-69 2561.2712,-53.1179 1196.069,-25.5187 823.6458,-18.2799"/>
<polygon fill="#191970" stroke="#191970" points="823.5126,-14.7767 813.4465,-18.0819 823.3766,-21.7754 823.5126,-14.7767"/>
</g>
<!-- Node47&#45;&gt;Node21 -->
<g id="edge109" class="edge">
<title>Node47&#45;&gt;Node21</title>
<path fill="none" stroke="#191970" d="M1427.0504,-426.0884C1686.1271,-421.349 2470.1843,-404.6166 2515.708,-375 2619.3374,-307.5812 2566.7069,-225.7757 2639.708,-126 2647.6563,-115.1366 2658.2586,-104.5694 2667.477,-96.2611"/>
<polygon fill="#191970" stroke="#191970" points="2669.8873,-98.803 2675.1202,-89.5906 2665.2846,-93.529 2669.8873,-98.803"/>
</g>
<!-- Node47&#45;&gt;Node30 -->
<g id="edge110" class="edge">
<title>Node47&#45;&gt;Node30</title>
<path fill="none" stroke="#191970" d="M1427.0651,-425.4203C1641.7348,-419.6456 2207.3847,-402.0364 2287.708,-375 2338.5283,-357.8942 2387.708,-361.1219 2387.708,-307.5 2387.708,-307.5 2387.708,-307.5 2387.708,-193.5 2387.708,-162.653 2468.226,-117.2887 2513.569,-94.1879"/>
<polygon fill="#191970" stroke="#191970" points="2515.309,-97.2305 2522.6692,-89.6095 2512.163,-90.9773 2515.309,-97.2305"/>
</g>
<!-- Node47&#45;&gt;Node36 -->
<g id="edge106" class="edge">
<title>Node47&#45;&gt;Node36</title>
<path fill="none" stroke="#191970" d="M1308.6217,-411.3037C1257.2959,-386.411 1163.7859,-333.8723 1112.708,-261 1102.8937,-246.998 1098.1293,-228.042 1095.8279,-213.7827"/>
<polygon fill="#191970" stroke="#191970" points="1099.2529,-212.9875 1094.4607,-203.5384 1092.3144,-213.9135 1099.2529,-212.9875"/>
</g>
<!-- Node47&#45;&gt;Node40 -->
<g id="edge107" class="edge">
<title>Node47&#45;&gt;Node40</title>
<path fill="none" stroke="#191970" d="M1344.708,-411.2759C1344.708,-403.2654 1344.708,-393.5159 1344.708,-384.9952"/>
<polygon fill="#191970" stroke="#191970" points="1348.2081,-384.7512 1344.708,-374.7513 1341.2081,-384.7513 1348.2081,-384.7512"/>
</g>
<!-- Node47&#45;&gt;Node41 -->
<g id="edge108" class="edge">
<title>Node47&#45;&gt;Node41</title>
<path fill="none" stroke="#191970" d="M1299.6197,-411.3735C1251.2754,-394.6725 1171.9739,-368.9675 1101.708,-354 1075.5563,-348.4293 928.1272,-330.4291 828.2717,-318.5277"/>
<polygon fill="#191970" stroke="#191970" points="828.5024,-315.0306 818.1588,-317.3238 827.6749,-321.9815 828.5024,-315.0306"/>
</g>
<!-- Node48&#45;&gt;Node1 -->
<g id="edge112" class="edge">
<title>Node48&#45;&gt;Node1</title>
<path fill="none" stroke="#191970" d="M2653.8375,-417.4222C2684.6145,-399.6673 2741.708,-359.6965 2741.708,-307.5 2741.708,-307.5 2741.708,-307.5 2741.708,-136.5 2741.708,-105.3342 2747.3023,-88.1423 2722.708,-69 2703.7338,-54.2319 1214.2725,-25.4995 823.65,-18.2123"/>
<polygon fill="#191970" stroke="#191970" points="823.5836,-14.7105 813.5201,-18.0235 823.4531,-21.7093 823.5836,-14.7105"/>
</g>
<!-- Node48&#45;&gt;Node21 -->
<g id="edge115" class="edge">
<title>Node48&#45;&gt;Node21</title>
<path fill="none" stroke="#191970" d="M2643.3651,-417.3621C2659.3107,-397.6141 2691.708,-352.0138 2691.708,-307.5 2691.708,-307.5 2691.708,-307.5 2691.708,-193.5 2691.708,-160.6334 2690.0269,-122.4694 2688.8444,-99.6895"/>
<polygon fill="#191970" stroke="#191970" points="2692.3317,-99.3576 2688.2982,-89.5606 2685.3418,-99.7346 2692.3317,-99.3576"/>
</g>
<!-- Node48&#45;&gt;Node30 -->
<g id="edge116" class="edge">
<title>Node48&#45;&gt;Node30</title>
<path fill="none" stroke="#191970" d="M2632.0827,-417.4603C2619.576,-369.6326 2565.9421,-164.527 2548.9163,-99.4173"/>
<polygon fill="#191970" stroke="#191970" points="2552.2601,-98.3696 2546.344,-89.5804 2545.4878,-100.1406 2552.2601,-98.3696"/>
</g>
<!-- Node48&#45;&gt;Node36 -->
<g id="edge113" class="edge">
<title>Node48&#45;&gt;Node36</title>
<path fill="none" stroke="#191970" d="M2568.4932,-417.4453C2317.6456,-379.3542 1426.7947,-244.079 1165.9593,-204.4713"/>
<polygon fill="#191970" stroke="#191970" points="1166.2577,-200.9766 1155.8456,-202.9356 1165.2067,-207.8973 1166.2577,-200.9766"/>
</g>
<!-- Node48&#45;&gt;Node40 -->
<g id="edge114" class="edge">
<title>Node48&#45;&gt;Node40</title>
<path fill="none" stroke="#191970" d="M2558.5231,-423.3047C2495.9853,-419.8915 2405.1162,-415.0021 2325.708,-411 1980.9941,-393.6268 1568.0454,-374.6538 1410.3157,-367.4741"/>
<polygon fill="#191970" stroke="#191970" points="1410.4476,-363.9765 1400.2988,-367.0184 1410.1294,-370.9693 1410.4476,-363.9765"/>
</g>
</g>
</svg>
        <g id="navigator" transform="translate(0 0)" fill="#404254">
                <rect fill="#f2f5e9" fill-opacity="0.5" stroke="#606060" stroke-width=".5" x="0" y="0" width="60" height="60"/>
                <use id="zoomplus" xlink:href="#zoomPlus" x="17" y="9" onmousedown="handleZoom(evt,'in')"/>
                <use id="zoomminus" xlink:href="#zoomMin" x="42" y="9" onmousedown="handleZoom(evt,'out')"/>
                <use id="reset" xlink:href="#resetDef" x="30" y="36" onmousedown="handleReset()"/>
                <g id="arrowUp" xlink:href="#dirArrow" transform="translate(30 24)" onmousedown="handlePan(0,-1)">
                  <use xlink:href="#rim" fill="#404040">
                        <set attributeName="fill" to="#808080" begin="arrowUp.mouseover" end="arrowUp.mouseout"/>
                  </use>
                  <path fill="none" stroke="white" stroke-width="1.5" d="M0,-3.0v7 M-2.5,-0.5L0,-3.0L2.5,-0.5"/>
                </g>
                <g id="arrowRight" xlink:href="#dirArrow" transform="rotate(90) translate(36 -43)" onmousedown="handlePan(1,0)">
                  <use xlink:href="#rim" fill="#404040">
                        <set attributeName="fill" to="#808080" begin="arrowRight.mouseover" end="arrowRight.mouseout"/>
                  </use>
                  <path fill="none" stroke="white" stroke-width="1.5" d="M0,-3.0v7 M-2.5,-0.5L0,-3.0L2.5,-0.5"/>
                </g>
                <g id="arrowDown" xlink:href="#dirArrow" transform="rotate(180) translate(-30 -48)" onmousedown="handlePan(0,1)">
                  <use xlink:href="#rim" fill="#404040">
                        <set attributeName="fill" to="#808080" begin="arrowDown.mouseover" end="arrowDown.mouseout"/>
                  </use>
                  <path fill="none" stroke="white" stroke-width="1.5" d="M0,-3.0v7 M-2.5,-0.5L0,-3.0L2.5,-0.5"/>
                </g>
                <g id="arrowLeft" xlink:href="#dirArrow" transform="rotate(270) translate(-36 17)" onmousedown="handlePan(-1,0)">
                  <use xlink:href="#rim" fill="#404040">
                        <set attributeName="fill" to="#808080" begin="arrowLeft.mouseover" end="arrowLeft.mouseout"/>
                  </use>
                  <path fill="none" stroke="white" stroke-width="1.5" d="M0,-3.0v7 M-2.5,-0.5L0,-3.0L2.5,-0.5"/>
                </g>
        </g>
        <svg viewBox="0 0 15 15" width="100%" height="30px" preserveAspectRatio="xMaxYMin meet">
         <g id="arrow_out" transform="scale(0.3 0.3)">
          <a xlink:href="Planet_2CInterface_8h__incl_org.svg" target="_base">
           <rect id="button" ry="5" rx="5" y="6" x="6" height="38" width="38"
                fill="#f2f5e9" fill-opacity="0.5" stroke="#606060" stroke-width="1.0"/>
           <path id="arrow"
             d="M 11.500037,31.436501 C 11.940474,20.09759 22.043105,11.32322 32.158766,21.979434 L 37.068811,17.246167 C 37.068811,17.246167 37.088388,32 37.088388,32 L 22.160133,31.978069 C 22.160133,31.978069 26.997745,27.140456 26.997745,27.140456 C 18.528582,18.264221 13.291696,25.230495 11.500037,31.436501 z"
             style="fill:#404040;"/>
          </a>
         </g>
        </svg>
</svg>
