<?xml version="1.0" encoding="UTF-8" standalone="no"?>
<!DOCTYPE svg PUBLIC "-//W3C//DTD SVG 1.1//EN"
 "http://www.w3.org/Graphics/SVG/1.1/DTD/svg11.dtd">
<!-- Generated by graphviz version 2.40.1 (20161225.0304)
 -->
<!-- Title: /Users/kpenev/projects/git/poet/poet_src/poet.h Pages: 1 -->
<!--zoomable 236 -->
<svg id="main" version="1.1" xmlns="http://www.w3.org/2000/svg" xmlns:xlink="http://www.w3.org/1999/xlink" xml:space="preserve" onload="init(evt)">
<style type="text/css"><![CDATA[
.edge:hover path { stroke: red; }
.edge:hover polygon { stroke: red; fill: red; }
]]></style>
<script type="text/javascript"><![CDATA[
var edges = document.getElementsByTagName('g');
if (edges && edges.length) {
  for (var i=0;i<edges.length;i++) {
    if (edges[i].id.substr(0,4)=='edge') {
      edges[i].setAttribute('class','edge');
    }
  }
}
]]></script>
        <defs>
                <circle id="rim" cx="0" cy="0" r="7"/>
                <circle id="rim2" cx="0" cy="0" r="3.5"/>
                <g id="zoomPlus">
                        <use xlink:href="#rim" fill="#404040">
                                <set attributeName="fill" to="#808080" begin="zoomplus.mouseover" end="zoomplus.mouseout"/>
                        </use>
                        <path d="M-4,0h8M0,-4v8" fill="none" stroke="white" stroke-width="1.5" pointer-events="none"/>
                </g>
                <g id="zoomMin">
                        <use xlink:href="#rim" fill="#404040">
                                <set attributeName="fill" to="#808080" begin="zoomminus.mouseover" end="zoomminus.mouseout"/>
                        </use>
                        <path d="M-4,0h8" fill="none" stroke="white" stroke-width="1.5" pointer-events="none"/>
                </g>
                <g id="dirArrow">
                        <path fill="none" stroke="white" stroke-width="1.5" d="M0,-3.0v7 M-2.5,-0.5L0,-3.0L2.5,-0.5"/>
                </g>
               <g id="resetDef">
                       <use xlink:href="#rim2" fill="#404040">
                               <set attributeName="fill" to="#808080" begin="reset.mouseover" end="reset.mouseout"/>
                       </use>
               </g>
        </defs>

<script type="text/javascript">
var viewWidth = 2716;
var viewHeight = 236;
var sectionId = 'dynsection-0';
</script>
<script xlink:href="svgpan.js"/>
<svg id="graph" class="graph">
<g id="viewport">
<title>/Users/kpenev/projects/git/poet/poet_src/poet.h</title>
<polygon fill="#ffffff" stroke="transparent" points="-4,4 -4,-232 2712.4107,-232 2712.4107,4 -4,4"/>
<!-- Node0 -->
<g id="node1" class="node">
<title>Node0</title>
<polygon fill="#bfbfbf" stroke="#000000" points="1500.0103,-195.5 1500.0103,-227.5 1644.7642,-227.5 1644.7642,-195.5 1500.0103,-195.5"/>
<text text-anchor="start" x="1508.0103" y="-213.9" font-family="Helvetica,sans-Serif" font-size="12.00" fill="#000000">/Users/kpenev/projects</text>
<text text-anchor="middle" x="1572.3873" y="-201.9" font-family="Helvetica,sans-Serif" font-size="12.00" fill="#000000">/git/poet/poet_src/poet.h</text>
</g>
<!-- Node1 -->
<g id="node2" class="node">
<title>Node1</title>
<g id="a_node2"><a xlink:href="Core_2Common_8h.html" target="_top" xlink:title="Declaration of some general purpose utilities. ">
<polygon fill="#ffffff" stroke="#000000" points="500.3716,-132.5 500.3716,-152.5 604.4029,-152.5 604.4029,-132.5 500.3716,-132.5"/>
<text text-anchor="middle" x="552.3873" y="-138.9" font-family="Helvetica,sans-Serif" font-size="12.00" fill="#000000">Core/Common.h</text>
</a>
</g>
</g>
<!-- Node0&#45;&gt;Node1 -->
<g id="edge1" class="edge">
<title>Node0&#45;&gt;Node1</title>
<path fill="none" stroke="#191970" d="M1499.8491,-206.593C1308.65,-193.6589 793.3608,-158.8011 614.5302,-146.7038"/>
<polygon fill="#191970" stroke="#191970" points="614.7142,-143.2083 604.5007,-146.0253 614.2417,-150.1924 614.7142,-143.2083"/>
</g>
<!-- Node5 -->
<g id="node6" class="node">
<title>Node5</title>
<polygon fill="#ffffff" stroke="#bfbfbf" points="19.0503,-69.5 19.0503,-89.5 77.7242,-89.5 77.7242,-69.5 19.0503,-69.5"/>
<text text-anchor="middle" x="48.3873" y="-75.9" font-family="Helvetica,sans-Serif" font-size="12.00" fill="#000000">sstream</text>
</g>
<!-- Node0&#45;&gt;Node5 -->
<g id="edge46" class="edge">
<title>Node0&#45;&gt;Node5</title>
<path fill="none" stroke="#191970" d="M1499.7201,-210.9814C1325.306,-209.0817 869.3976,-200.229 491.3873,-159 313.1494,-139.5599 266.2927,-130.0461 87.7618,-90.1669"/>
<polygon fill="#191970" stroke="#191970" points="88.2948,-86.6997 77.7722,-87.9346 86.7682,-93.5313 88.2948,-86.6997"/>
</g>
<!-- Node6 -->
<g id="node7" class="node">
<title>Node6</title>
<polygon fill="#ffffff" stroke="#bfbfbf" points="188.3804,-6.5 188.3804,-26.5 250.3941,-26.5 250.3941,-6.5 188.3804,-6.5"/>
<text text-anchor="middle" x="219.3873" y="-12.9" font-family="Helvetica,sans-Serif" font-size="12.00" fill="#000000">iostream</text>
</g>
<!-- Node0&#45;&gt;Node6 -->
<g id="edge44" class="edge">
<title>Node0&#45;&gt;Node6</title>
<path fill="none" stroke="#191970" d="M1499.8397,-210.8219C1260.8501,-208.2399 499.7331,-197.1542 257.3873,-159 144.7934,-141.2735 79.2937,-180.7938 10.3873,-90 -22.655,-46.4622 24.7402,-80.9325 179.3873,-33 181.9883,-32.1938 184.6548,-31.2851 187.316,-30.3191"/>
<polygon fill="#191970" stroke="#191970" points="188.7394,-33.5213 196.8041,-26.6503 186.2148,-26.9924 188.7394,-33.5213"/>
</g>
<!-- Node18 -->
<g id="node19" class="node">
<title>Node18</title>
<g id="a_node19"><a xlink:href="AstronomicalConstants_8h.html" target="_top" xlink:title="Defines various astronomical constants. ">
<polygon fill="#ffffff" stroke="#000000" points="1134.69,-69.5 1134.69,-89.5 1284.0845,-89.5 1284.0845,-69.5 1134.69,-69.5"/>
<text text-anchor="middle" x="1209.3873" y="-75.9" font-family="Helvetica,sans-Serif" font-size="12.00" fill="#000000">AstronomicalConstants.h</text>
</a>
</g>
</g>
<!-- Node0&#45;&gt;Node18 -->
<g id="edge23" class="edge">
<title>Node0&#45;&gt;Node18</title>
<path fill="none" stroke="#191970" d="M1499.5694,-207.9892C1381.0687,-201.5226 1157.2392,-185.8743 1133.3873,-159 1123.6516,-148.0306 1126.2164,-138.7941 1133.3873,-126 1141.3902,-111.7213 1155.7629,-101.3018 1169.8718,-93.9908"/>
<polygon fill="#191970" stroke="#191970" points="1171.5126,-97.0861 1179.0357,-89.626 1168.5024,-90.7663 1171.5126,-97.0861"/>
</g>
<!-- Node21 -->
<g id="node22" class="node">
<title>Node21</title>
<polygon fill="#ffffff" stroke="#bfbfbf" points="1142.0259,-132.5 1142.0259,-152.5 1294.7486,-152.5 1294.7486,-132.5 1142.0259,-132.5"/>
<text text-anchor="middle" x="1218.3873" y="-138.9" font-family="Helvetica,sans-Serif" font-size="12.00" fill="#000000">StellarEvoltion/MESAIO.h</text>
</g>
<!-- Node0&#45;&gt;Node21 -->
<g id="edge24" class="edge">
<title>Node0&#45;&gt;Node21</title>
<path fill="none" stroke="#191970" d="M1499.8958,-197.3703C1435.0349,-184.7279 1341.0036,-166.3998 1279.7781,-154.466"/>
<polygon fill="#191970" stroke="#191970" points="1280.3535,-151.0124 1269.8686,-152.5345 1279.0142,-157.8831 1280.3535,-151.0124"/>
</g>
<!-- Node22 -->
<g id="node23" class="node">
<title>Node22</title>
<g id="a_node23"><a xlink:href="CustomStellarEvolution_8h.html" target="_top" xlink:title="Defines the class which implements a custom single track stellar evolution. ">
<polygon fill="#ffffff" stroke="#000000" points="1312.3521,-126.5 1312.3521,-158.5 1490.4224,-158.5 1490.4224,-126.5 1312.3521,-126.5"/>
<text text-anchor="start" x="1320.3521" y="-144.9" font-family="Helvetica,sans-Serif" font-size="12.00" fill="#000000">StellarEvolution/CustomStellar</text>
<text text-anchor="middle" x="1401.3873" y="-132.9" font-family="Helvetica,sans-Serif" font-size="12.00" fill="#000000">Evolution.h</text>
</a>
</g>
</g>
<!-- Node0&#45;&gt;Node22 -->
<g id="edge25" class="edge">
<title>Node0&#45;&gt;Node22</title>
<path fill="none" stroke="#191970" d="M1532.7266,-195.4966C1508.2106,-185.6041 1476.5556,-172.8311 1450.4655,-162.3035"/>
<polygon fill="#191970" stroke="#191970" points="1451.7119,-159.0323 1441.1287,-158.536 1449.0925,-165.5237 1451.7119,-159.0323"/>
</g>
<!-- Node25 -->
<g id="node26" class="node">
<title>Node25</title>
<polygon fill="#ffffff" stroke="#bfbfbf" points="1641.3834,-69.5 1641.3834,-89.5 1697.3912,-89.5 1697.3912,-69.5 1641.3834,-69.5"/>
<text text-anchor="middle" x="1669.3873" y="-75.9" font-family="Helvetica,sans-Serif" font-size="12.00" fill="#000000">fstream</text>
</g>
<!-- Node0&#45;&gt;Node25 -->
<g id="edge45" class="edge">
<title>Node0&#45;&gt;Node25</title>
<path fill="none" stroke="#191970" d="M1556.7469,-195.2853C1541.2865,-177.2297 1522.0028,-147.7307 1537.3873,-126 1543.0657,-117.9791 1594.2888,-101.5239 1631.2211,-90.4988"/>
<polygon fill="#191970" stroke="#191970" points="1632.6125,-93.7372 1641.2092,-87.5446 1630.6272,-87.0246 1632.6125,-93.7372"/>
</g>
<!-- Node26 -->
<g id="node27" class="node">
<title>Node26</title>
<polygon fill="#ffffff" stroke="#bfbfbf" points="1546.025,-132.5 1546.025,-152.5 1708.7496,-152.5 1708.7496,-132.5 1546.025,-132.5"/>
<text text-anchor="middle" x="1627.3873" y="-138.9" font-family="Helvetica,sans-Serif" font-size="12.00" fill="#000000">BinarySystem/OrbitSolver.h</text>
</g>
<!-- Node0&#45;&gt;Node26 -->
<g id="edge35" class="edge">
<title>Node0&#45;&gt;Node26</title>
<path fill="none" stroke="#191970" d="M1585.1436,-195.4966C1593.4568,-185.0673 1604.3221,-171.4363 1612.9515,-160.6103"/>
<polygon fill="#191970" stroke="#191970" points="1615.8051,-162.6455 1619.3014,-152.6441 1610.3313,-158.2823 1615.8051,-162.6455"/>
</g>
<!-- Node27 -->
<g id="node28" class="node">
<title>Node27</title>
<polygon fill="#ffffff" stroke="#bfbfbf" points="1726.3511,-132.5 1726.3511,-152.5 1896.4234,-152.5 1896.4234,-132.5 1726.3511,-132.5"/>
<text text-anchor="middle" x="1811.3873" y="-138.9" font-family="Helvetica,sans-Serif" font-size="12.00" fill="#000000">BinarySystem/EvolvingStar.h</text>
</g>
<!-- Node0&#45;&gt;Node27 -->
<g id="edge36" class="edge">
<title>Node0&#45;&gt;Node27</title>
<path fill="none" stroke="#191970" d="M1627.8194,-195.4966C1670.0618,-183.3011 1727.4686,-166.7276 1766.7721,-155.3805"/>
<polygon fill="#191970" stroke="#191970" points="1767.9659,-158.6789 1776.6027,-152.5424 1766.0242,-151.9536 1767.9659,-158.6789"/>
</g>
<!-- Node28 -->
<g id="node29" class="node">
<title>Node28</title>
<polygon fill="#ffffff" stroke="#bfbfbf" points="1914.3453,-132.5 1914.3453,-152.5 2090.4293,-152.5 2090.4293,-132.5 1914.3453,-132.5"/>
<text text-anchor="middle" x="2002.3873" y="-138.9" font-family="Helvetica,sans-Serif" font-size="12.00" fill="#000000">BinarySystem/LockedPlanet.h</text>
</g>
<!-- Node0&#45;&gt;Node28 -->
<g id="edge37" class="edge">
<title>Node0&#45;&gt;Node28</title>
<path fill="none" stroke="#191970" d="M1644.857,-200.3336C1712.3405,-189.874 1815.7207,-173.694 1905.3873,-159 1914.7082,-157.4725 1924.5278,-155.8352 1934.1959,-154.2066"/>
<polygon fill="#191970" stroke="#191970" points="1934.9121,-157.6353 1944.189,-152.5177 1933.7455,-150.7332 1934.9121,-157.6353"/>
</g>
<!-- Node29 -->
<g id="node30" class="node">
<title>Node29</title>
<polygon fill="#ffffff" stroke="#bfbfbf" points="2108.023,-132.5 2108.023,-152.5 2308.7515,-152.5 2308.7515,-132.5 2108.023,-132.5"/>
<text text-anchor="middle" x="2208.3873" y="-138.9" font-family="Helvetica,sans-Serif" font-size="12.00" fill="#000000">BinarySystem/DiskPlanetSystem.h</text>
</g>
<!-- Node0&#45;&gt;Node29 -->
<g id="edge38" class="edge">
<title>Node0&#45;&gt;Node29</title>
<path fill="none" stroke="#191970" d="M1644.9767,-205.4469C1746.7215,-196.6945 1937.4518,-179.3092 2099.3873,-159 2111.1821,-157.5207 2123.6697,-155.788 2135.8196,-154.012"/>
<polygon fill="#191970" stroke="#191970" points="2136.5447,-157.4428 2145.9235,-152.5144 2135.5184,-150.5184 2136.5447,-157.4428"/>
</g>
<!-- Node30 -->
<g id="node31" class="node">
<title>Node30</title>
<polygon fill="#ffffff" stroke="#bfbfbf" points="2326.3531,-126.5 2326.3531,-158.5 2494.4214,-158.5 2494.4214,-126.5 2326.3531,-126.5"/>
<text text-anchor="start" x="2334.3531" y="-144.9" font-family="Helvetica,sans-Serif" font-size="12.00" fill="#000000">BinarySystem/ConstSolution</text>
<text text-anchor="middle" x="2410.3873" y="-132.9" font-family="Helvetica,sans-Serif" font-size="12.00" fill="#000000">Iterator.h</text>
</g>
<!-- Node0&#45;&gt;Node30 -->
<g id="edge39" class="edge">
<title>Node0&#45;&gt;Node30</title>
<path fill="none" stroke="#191970" d="M1644.8108,-208.9298C1776.4925,-203.7018 2064.0544,-189.7328 2316.2108,-159.066"/>
<polygon fill="#191970" stroke="#191970" points="2316.7985,-162.5202 2326.2976,-157.828 2315.9457,-155.5724 2316.7985,-162.5202"/>
</g>
<!-- Node31 -->
<g id="node32" class="node">
<title>Node31</title>
<g id="a_node32"><a xlink:href="IOColumns_8h.html" target="_top" xlink:title="Declares enumerations that define the possible input/outut quantities. ">
<polygon fill="#ffffff" stroke="#000000" points="2512.3736,-132.5 2512.3736,-152.5 2614.4009,-152.5 2614.4009,-132.5 2512.3736,-132.5"/>
<text text-anchor="middle" x="2563.3873" y="-138.9" font-family="Helvetica,sans-Serif" font-size="12.00" fill="#000000">IO/IOColumns.h</text>
</a>
</g>
</g>
<!-- Node0&#45;&gt;Node31 -->
<g id="edge40" class="edge">
<title>Node0&#45;&gt;Node31</title>
<path fill="none" stroke="#191970" d="M1644.849,-209.4009C1833.8242,-203.6083 2338.4351,-186.0176 2503.3873,-159 2509.3976,-158.0156 2515.6704,-156.6646 2521.7988,-155.1561"/>
<polygon fill="#191970" stroke="#191970" points="2523.119,-158.4283 2531.9039,-152.5059 2521.3431,-151.6573 2523.119,-158.4283"/>
</g>
<!-- Node33 -->
<g id="node34" class="node">
<title>Node33</title>
<polygon fill="#ffffff" stroke="#bfbfbf" points="2632.3638,-132.5 2632.3638,-152.5 2708.4107,-152.5 2708.4107,-132.5 2632.3638,-132.5"/>
<text text-anchor="middle" x="2670.3873" y="-138.9" font-family="Helvetica,sans-Serif" font-size="12.00" fill="#000000">argtable2.h</text>
</g>
<!-- Node0&#45;&gt;Node33 -->
<g id="edge43" class="edge">
<title>Node0&#45;&gt;Node33</title>
<path fill="none" stroke="#191970" d="M1644.8622,-210.5856C1850.6021,-207.5606 2435.4858,-195.8716 2623.3873,-159 2627.5879,-158.1757 2631.9213,-157.0533 2636.179,-155.7789"/>
<polygon fill="#191970" stroke="#191970" points="2637.4671,-159.0399 2645.8785,-152.598 2635.2858,-152.3885 2637.4671,-159.0399"/>
</g>
<!-- Node2 -->
<g id="node3" class="node">
<title>Node2</title>
<polygon fill="#ffffff" stroke="#bfbfbf" points="741.0543,-6.5 741.0543,-26.5 771.7203,-26.5 771.7203,-6.5 741.0543,-6.5"/>
<text text-anchor="middle" x="756.3873" y="-12.9" font-family="Helvetica,sans-Serif" font-size="12.00" fill="#000000">list</text>
</g>
<!-- Node1&#45;&gt;Node2 -->
<g id="edge2" class="edge">
<title>Node1&#45;&gt;Node2</title>
<path fill="none" stroke="#191970" d="M500.2184,-137.0187C440.2619,-128.7079 354.357,-109.3981 389.3873,-69 411.8392,-43.1077 650.9561,-23.9598 730.6834,-18.2557"/>
<polygon fill="#191970" stroke="#191970" points="731.1068,-21.7347 740.8363,-17.5408 730.6151,-14.752 731.1068,-21.7347"/>
</g>
<!-- Node3 -->
<g id="node4" class="node">
<title>Node3</title>
<polygon fill="#ffffff" stroke="#bfbfbf" points="993.0474,-6.5 993.0474,-26.5 1051.7271,-26.5 1051.7271,-6.5 993.0474,-6.5"/>
<text text-anchor="middle" x="1022.3873" y="-12.9" font-family="Helvetica,sans-Serif" font-size="12.00" fill="#000000">valarray</text>
</g>
<!-- Node1&#45;&gt;Node3 -->
<g id="edge3" class="edge">
<title>Node1&#45;&gt;Node3</title>
<path fill="none" stroke="#191970" d="M500.7582,-132.4679C453.2405,-121.0436 394.0991,-99.8715 422.3873,-69 431.8982,-58.6205 850.2456,-28.5353 982.648,-19.2574"/>
<polygon fill="#191970" stroke="#191970" points="983.0305,-22.7393 992.762,-18.5502 982.5422,-15.7563 983.0305,-22.7393"/>
</g>
<!-- Node4 -->
<g id="node5" class="node">
<title>Node4</title>
<polygon fill="#ffffff" stroke="#bfbfbf" points="1301.7232,-69.5 1301.7232,-89.5 1345.0513,-89.5 1345.0513,-69.5 1301.7232,-69.5"/>
<text text-anchor="middle" x="1323.3873" y="-75.9" font-family="Helvetica,sans-Serif" font-size="12.00" fill="#000000">limits</text>
</g>
<!-- Node1&#45;&gt;Node4 -->
<g id="edge4" class="edge">
<title>Node1&#45;&gt;Node4</title>
<path fill="none" stroke="#191970" d="M604.5376,-140.6079C747.2628,-135.1499 1143.0035,-118.0713 1291.7652,-89.8346"/>
<polygon fill="#191970" stroke="#191970" points="1292.4991,-93.2573 1301.6223,-87.8706 1291.1311,-86.3923 1292.4991,-93.2573"/>
</g>
<!-- Node1&#45;&gt;Node5 -->
<g id="edge5" class="edge">
<title>Node1&#45;&gt;Node5</title>
<path fill="none" stroke="#191970" d="M500.2653,-139.3152C415.555,-133.5533 242.7007,-119.3586 87.9063,-90.0537"/>
<polygon fill="#191970" stroke="#191970" points="88.218,-86.5497 77.7375,-88.1015 86.8982,-93.4241 88.218,-86.5497"/>
</g>
<!-- Node1&#45;&gt;Node6 -->
<g id="edge6" class="edge">
<title>Node1&#45;&gt;Node6</title>
<path fill="none" stroke="#191970" d="M500.0956,-140.496C420.8968,-136.3789 275.7758,-124.2591 238.3873,-90 223.7808,-76.6161 219.7766,-53.6097 218.9599,-36.8948"/>
<polygon fill="#191970" stroke="#191970" points="222.4544,-36.4729 218.8126,-26.5236 215.4551,-36.5724 222.4544,-36.4729"/>
</g>
<!-- Node7 -->
<g id="node8" class="node">
<title>Node7</title>
<polygon fill="#ffffff" stroke="#bfbfbf" points="431.7134,-69.5 431.7134,-89.5 485.0611,-89.5 485.0611,-69.5 431.7134,-69.5"/>
<text text-anchor="middle" x="458.3873" y="-75.9" font-family="Helvetica,sans-Serif" font-size="12.00" fill="#000000">iterator</text>
</g>
<!-- Node1&#45;&gt;Node7 -->
<g id="edge7" class="edge">
<title>Node1&#45;&gt;Node7</title>
<path fill="none" stroke="#191970" d="M537.2845,-132.378C522.3469,-122.3666 499.2703,-106.9003 481.9263,-95.2762"/>
<polygon fill="#191970" stroke="#191970" points="483.708,-92.2569 473.4525,-89.5969 479.8108,-98.0718 483.708,-92.2569"/>
</g>
<!-- Node8 -->
<g id="node9" class="node">
<title>Node8</title>
<polygon fill="#ffffff" stroke="#bfbfbf" points="503.0289,-69.5 503.0289,-89.5 601.7457,-89.5 601.7457,-69.5 503.0289,-69.5"/>
<text text-anchor="middle" x="552.3873" y="-75.9" font-family="Helvetica,sans-Serif" font-size="12.00" fill="#000000">gsl/gsl_vector.h</text>
</g>
<!-- Node1&#45;&gt;Node8 -->
<g id="edge8" class="edge">
<title>Node1&#45;&gt;Node8</title>
<path fill="none" stroke="#191970" d="M552.3873,-132.378C552.3873,-123.7041 552.3873,-110.9355 552.3873,-100.1186"/>
<polygon fill="#191970" stroke="#191970" points="555.8874,-99.8062 552.3873,-89.8062 548.8874,-99.8062 555.8874,-99.8062"/>
</g>
<!-- Node9 -->
<g id="node10" class="node">
<title>Node9</title>
<polygon fill="#ffffff" stroke="#bfbfbf" points="619.7066,-69.5 619.7066,-89.5 719.0679,-89.5 719.0679,-69.5 619.7066,-69.5"/>
<text text-anchor="middle" x="669.3873" y="-75.9" font-family="Helvetica,sans-Serif" font-size="12.00" fill="#000000">gsl/gsl_matrix.h</text>
</g>
<!-- Node1&#45;&gt;Node9 -->
<g id="edge9" class="edge">
<title>Node1&#45;&gt;Node9</title>
<path fill="none" stroke="#191970" d="M571.1853,-132.378C590.2043,-122.137 619.8238,-106.188 641.5626,-94.4825"/>
<polygon fill="#191970" stroke="#191970" points="643.4905,-97.4196 650.6358,-89.5969 640.1717,-91.2563 643.4905,-97.4196"/>
</g>
<!-- Node10 -->
<g id="node11" class="node">
<title>Node10</title>
<polygon fill="#ffffff" stroke="#bfbfbf" points="737.0298,-69.5 737.0298,-89.5 831.7447,-89.5 831.7447,-69.5 737.0298,-69.5"/>
<text text-anchor="middle" x="784.3873" y="-75.9" font-family="Helvetica,sans-Serif" font-size="12.00" fill="#000000">gsl/gsl_linalg.h</text>
</g>
<!-- Node1&#45;&gt;Node10 -->
<g id="edge10" class="edge">
<title>Node1&#45;&gt;Node10</title>
<path fill="none" stroke="#191970" d="M589.4049,-132.4478C629.639,-121.5222 694.0148,-104.0408 737.6926,-92.18"/>
<polygon fill="#191970" stroke="#191970" points="738.7682,-95.5148 747.5015,-89.5164 736.9337,-88.7594 738.7682,-95.5148"/>
</g>
<!-- Node11 -->
<g id="node12" class="node">
<title>Node11</title>
<polygon fill="#ffffff" stroke="#bfbfbf" points="850.0328,-69.5 850.0328,-89.5 938.7418,-89.5 938.7418,-69.5 850.0328,-69.5"/>
<text text-anchor="middle" x="894.3873" y="-75.9" font-family="Helvetica,sans-Serif" font-size="12.00" fill="#000000">gsl/gsl_blas.h</text>
</g>
<!-- Node1&#45;&gt;Node11 -->
<g id="edge11" class="edge">
<title>Node1&#45;&gt;Node11</title>
<path fill="none" stroke="#191970" d="M604.4492,-133.1992C660.0724,-123.2195 751.1022,-106.7656 839.921,-90.0716"/>
<polygon fill="#191970" stroke="#191970" points="840.7185,-93.4831 849.8984,-88.1935 839.4235,-86.6039 840.7185,-93.4831"/>
</g>
<!-- Node12 -->
<g id="node13" class="node">
<title>Node12</title>
<polygon fill="#ffffff" stroke="#bfbfbf" points="956.4751,-69.5 956.4751,-89.5 1044.2994,-89.5 1044.2994,-69.5 956.4751,-69.5"/>
<text text-anchor="middle" x="1000.3873" y="-75.9" font-family="Helvetica,sans-Serif" font-size="12.00" fill="#000000">gsl/gsl_poly.h</text>
</g>
<!-- Node1&#45;&gt;Node12 -->
<g id="edge12" class="edge">
<title>Node1&#45;&gt;Node12</title>
<path fill="none" stroke="#191970" d="M604.6204,-136.6275C678.4478,-128.0909 817.7419,-111.1184 946.4317,-90.0769"/>
<polygon fill="#191970" stroke="#191970" points="947.1684,-93.5028 956.4667,-88.4242 946.0308,-86.5958 947.1684,-93.5028"/>
</g>
<!-- Node13 -->
<g id="node14" class="node">
<title>Node13</title>
<polygon fill="#ffffff" stroke="#bfbfbf" points="1062.0484,-69.5 1062.0484,-89.5 1116.7261,-89.5 1116.7261,-69.5 1062.0484,-69.5"/>
<text text-anchor="middle" x="1089.3873" y="-75.9" font-family="Helvetica,sans-Serif" font-size="12.00" fill="#000000">cassert</text>
</g>
<!-- Node1&#45;&gt;Node13 -->
<g id="edge13" class="edge">
<title>Node1&#45;&gt;Node13</title>
<path fill="none" stroke="#191970" d="M604.4104,-140.1263C694.1482,-135.3633 883.8187,-122.3612 1051.9725,-89.9966"/>
<polygon fill="#191970" stroke="#191970" points="1052.8512,-93.3912 1061.995,-88.0393 1051.5095,-86.521 1052.8512,-93.3912"/>
</g>
<!-- Node14 -->
<g id="node15" class="node">
<title>Node14</title>
<g id="a_node15"><a xlink:href="SharedLibraryExportMacros_8h_source.html" target="_top" xlink:title="../Core/SharedLibraryExport\lMacros.h">
<polygon fill="#ffffff" stroke="#000000" points="353.6861,-.5 353.6861,-32.5 519.0884,-32.5 519.0884,-.5 353.6861,-.5"/>
<text text-anchor="start" x="361.6861" y="-18.9" font-family="Helvetica,sans-Serif" font-size="12.00" fill="#000000">../Core/SharedLibraryExport</text>
<text text-anchor="middle" x="436.3873" y="-6.9" font-family="Helvetica,sans-Serif" font-size="12.00" fill="#000000">Macros.h</text>
</a>
</g>
</g>
<!-- Node1&#45;&gt;Node14 -->
<g id="edge14" class="edge">
<title>Node1&#45;&gt;Node14</title>
<path fill="none" stroke="#191970" d="M500.172,-136.101C446.8712,-128.3692 369.4651,-113.4061 351.3873,-90 335.5996,-69.5591 358.874,-50.603 385.0308,-37.0629"/>
<polygon fill="#191970" stroke="#191970" points="386.8997,-40.045 394.3437,-32.5059 383.823,-33.7574 386.8997,-40.045"/>
</g>
<!-- Node15 -->
<g id="node16" class="node">
<title>Node15</title>
<g id="a_node16"><a xlink:href="Error_8h.html" target="_top" xlink:title="Defines the exception hierarchy used by this code. ">
<polygon fill="#ffffff" stroke="#000000" points="247.3785,-69.5 247.3785,-89.5 299.396,-89.5 299.396,-69.5 247.3785,-69.5"/>
<text text-anchor="middle" x="273.3873" y="-75.9" font-family="Helvetica,sans-Serif" font-size="12.00" fill="#000000">Error.h</text>
</a>
</g>
</g>
<!-- Node1&#45;&gt;Node15 -->
<g id="edge15" class="edge">
<title>Node1&#45;&gt;Node15</title>
<path fill="none" stroke="#191970" d="M503.7341,-132.4154C455.3467,-122.2442 379.0544,-105.8244 313.3873,-90 312.1309,-89.6972 310.8534,-89.3851 309.5641,-89.0665"/>
<polygon fill="#191970" stroke="#191970" points="310.1522,-85.605 299.599,-86.5428 308.4336,-92.3908 310.1522,-85.605"/>
</g>
<!-- Node1&#45;&gt;Node18 -->
<g id="edge20" class="edge">
<title>Node1&#45;&gt;Node18</title>
<path fill="none" stroke="#191970" d="M604.5882,-138.2973C703.6937,-130.192 926.1622,-111.393 1124.2834,-90.0919"/>
<polygon fill="#191970" stroke="#191970" points="1124.7292,-93.5642 1134.2958,-89.011 1123.9778,-86.6046 1124.7292,-93.5642"/>
</g>
<!-- Node19 -->
<g id="node20" class="node">
<title>Node19</title>
<g id="a_node20"><a xlink:href="IncludeEigen_8h_source.html" target="_top" xlink:title="IncludeEigen.h">
<polygon fill="#ffffff" stroke="#000000" points="95.69,-69.5 95.69,-89.5 191.0845,-89.5 191.0845,-69.5 95.69,-69.5"/>
<text text-anchor="middle" x="143.3873" y="-75.9" font-family="Helvetica,sans-Serif" font-size="12.00" fill="#000000">IncludeEigen.h</text>
</a>
</g>
</g>
<!-- Node1&#45;&gt;Node19 -->
<g id="edge21" class="edge">
<title>Node1&#45;&gt;Node19</title>
<path fill="none" stroke="#191970" d="M500.3157,-134.9136C432.4003,-124.952 309.9161,-106.7573 205.3873,-90 203.9388,-89.7678 202.4715,-89.531 200.9914,-89.2908"/>
<polygon fill="#191970" stroke="#191970" points="201.5355,-85.8334 191.1007,-87.6675 200.4018,-92.741 201.5355,-85.8334"/>
</g>
<!-- Node15&#45;&gt;Node6 -->
<g id="edge17" class="edge">
<title>Node15&#45;&gt;Node6</title>
<path fill="none" stroke="#191970" d="M264.7112,-69.378C256.6504,-59.9736 244.4638,-45.7559 234.7567,-34.431"/>
<polygon fill="#191970" stroke="#191970" points="237.3865,-32.121 228.2212,-26.8062 232.0717,-36.6766 237.3865,-32.121"/>
</g>
<!-- Node15&#45;&gt;Node14 -->
<g id="edge16" class="edge">
<title>Node15&#45;&gt;Node14</title>
<path fill="none" stroke="#191970" d="M299.576,-69.378C322.6191,-60.4717 356.8316,-47.2485 385.2785,-36.2537"/>
<polygon fill="#191970" stroke="#191970" points="386.6145,-39.4897 394.6802,-32.6199 384.0908,-32.9605 386.6145,-39.4897"/>
</g>
<!-- Node16 -->
<g id="node17" class="node">
<title>Node16</title>
<polygon fill="#ffffff" stroke="#bfbfbf" points="268.7027,-6.5 268.7027,-26.5 336.0718,-26.5 336.0718,-6.5 268.7027,-6.5"/>
<text text-anchor="middle" x="302.3873" y="-12.9" font-family="Helvetica,sans-Serif" font-size="12.00" fill="#000000">exception</text>
</g>
<!-- Node15&#45;&gt;Node16 -->
<g id="edge18" class="edge">
<title>Node15&#45;&gt;Node16</title>
<path fill="none" stroke="#191970" d="M278.0466,-69.378C282.1654,-60.4302 288.2901,-47.125 293.3651,-36.0999"/>
<polygon fill="#191970" stroke="#191970" points="296.641,-37.3536 297.6431,-26.8062 290.2823,-34.4265 296.641,-37.3536"/>
</g>
<!-- Node17 -->
<g id="node18" class="node">
<title>Node17</title>
<polygon fill="#ffffff" stroke="#bfbfbf" points="1590.7154,-6.5 1590.7154,-26.5 1636.0591,-26.5 1636.0591,-6.5 1590.7154,-6.5"/>
<text text-anchor="middle" x="1613.3873" y="-12.9" font-family="Helvetica,sans-Serif" font-size="12.00" fill="#000000">string</text>
</g>
<!-- Node15&#45;&gt;Node17 -->
<g id="edge19" class="edge">
<title>Node15&#45;&gt;Node17</title>
<path fill="none" stroke="#191970" d="M299.4823,-77.4524C329.2182,-75.1676 379.2808,-71.4685 422.3873,-69 881.5486,-42.706 1440.947,-22.5032 1580.6163,-17.6282"/>
<polygon fill="#191970" stroke="#191970" points="1580.7963,-21.1241 1590.6686,-17.2785 1580.5529,-14.1284 1580.7963,-21.1241"/>
</g>
<!-- Node20 -->
<g id="node21" class="node">
<title>Node20</title>
<polygon fill="#ffffff" stroke="#bfbfbf" points="86.0308,-6.5 86.0308,-26.5 170.7437,-26.5 170.7437,-6.5 86.0308,-6.5"/>
<text text-anchor="middle" x="128.3873" y="-12.9" font-family="Helvetica,sans-Serif" font-size="12.00" fill="#000000">Eigen/Dense</text>
</g>
<!-- Node19&#45;&gt;Node20 -->
<g id="edge22" class="edge">
<title>Node19&#45;&gt;Node20</title>
<path fill="none" stroke="#191970" d="M140.9772,-69.378C138.8903,-60.6128 135.8078,-47.6662 133.2153,-36.7777"/>
<polygon fill="#191970" stroke="#191970" points="136.5622,-35.7236 130.8411,-26.8062 129.7526,-37.345 136.5622,-35.7236"/>
</g>
<!-- Node22&#45;&gt;Node4 -->
<g id="edge34" class="edge">
<title>Node22&#45;&gt;Node4</title>
<path fill="none" stroke="#191970" d="M1381.3003,-126.2759C1369.8225,-117.0054 1355.4609,-105.4056 1343.911,-96.0769"/>
<polygon fill="#191970" stroke="#191970" points="1346.0579,-93.3119 1336.0793,-89.7513 1341.6596,-98.7575 1346.0579,-93.3119"/>
</g>
<!-- Node22&#45;&gt;Node14 -->
<g id="edge26" class="edge">
<title>Node22&#45;&gt;Node14</title>
<path fill="none" stroke="#191970" d="M1396.0907,-126.3433C1389.407,-108.8341 1376.087,-81.6996 1354.3873,-69 1352.1759,-67.7058 762.2828,-34.6766 529.3879,-21.6821"/>
<polygon fill="#191970" stroke="#191970" points="529.4204,-18.1785 519.2409,-21.116 529.0304,-25.1676 529.4204,-18.1785"/>
</g>
<!-- Node22&#45;&gt;Node17 -->
<g id="edge33" class="edge">
<title>Node22&#45;&gt;Node17</title>
<path fill="none" stroke="#191970" d="M1490.6049,-127.1835C1533.6904,-118.0639 1579.2907,-105.2884 1594.3873,-90 1608.2318,-75.9795 1612.386,-53.2683 1613.4465,-36.7983"/>
<polygon fill="#191970" stroke="#191970" points="1616.9518,-36.6816 1613.7674,-26.5766 1609.9552,-36.4618 1616.9518,-36.6816"/>
</g>
<!-- Node23 -->
<g id="node24" class="node">
<title>Node23</title>
<polygon fill="#ffffff" stroke="#bfbfbf" points="1475.6939,-69.5 1475.6939,-89.5 1585.0806,-89.5 1585.0806,-69.5 1475.6939,-69.5"/>
<text text-anchor="middle" x="1530.3873" y="-75.9" font-family="Helvetica,sans-Serif" font-size="12.00" fill="#000000">StellarEvolution.h</text>
</g>
<!-- Node22&#45;&gt;Node23 -->
<g id="edge27" class="edge">
<title>Node22&#45;&gt;Node23</title>
<path fill="none" stroke="#191970" d="M1434.2732,-126.4394C1454.6729,-116.4768 1480.6779,-103.7766 1500.4929,-94.0996"/>
<polygon fill="#191970" stroke="#191970" points="1502.2215,-97.1505 1509.6712,-89.6171 1499.1496,-90.8605 1502.2215,-97.1505"/>
</g>
<!-- Node24 -->
<g id="node25" class="node">
<title>Node24</title>
<g id="a_node25"><a xlink:href="IOUtil_8h_source.html" target="_top" xlink:title="IOUtil.h">
<polygon fill="#ffffff" stroke="#000000" points="1401.3834,-69.5 1401.3834,-89.5 1457.3912,-89.5 1457.3912,-69.5 1401.3834,-69.5"/>
<text text-anchor="middle" x="1429.3873" y="-75.9" font-family="Helvetica,sans-Serif" font-size="12.00" fill="#000000">IOUtil.h</text>
</a>
</g>
</g>
<!-- Node22&#45;&gt;Node24 -->
<g id="edge28" class="edge">
<title>Node22&#45;&gt;Node24</title>
<path fill="none" stroke="#191970" d="M1408.598,-126.2759C1412.2782,-117.9954 1416.7843,-107.8567 1420.6593,-99.1378"/>
<polygon fill="#191970" stroke="#191970" points="1423.968,-100.3109 1424.8311,-89.7513 1417.5714,-97.4679 1423.968,-100.3109"/>
</g>
<!-- Node22&#45;&gt;Node25 -->
<g id="edge32" class="edge">
<title>Node22&#45;&gt;Node25</title>
<path fill="none" stroke="#191970" d="M1471.7009,-126.4846C1516.3406,-116.2382 1575.3064,-102.5584 1627.3873,-90 1628.6203,-89.7027 1629.8732,-89.3989 1631.1381,-89.0909"/>
<polygon fill="#191970" stroke="#191970" points="1632.0619,-92.4681 1640.9366,-86.681 1630.3901,-85.6706 1632.0619,-92.4681"/>
</g>
<!-- Node24&#45;&gt;Node2 -->
<g id="edge31" class="edge">
<title>Node24&#45;&gt;Node2</title>
<path fill="none" stroke="#191970" d="M1401.0512,-71.7547C1396.5071,-70.7042 1391.8364,-69.7362 1387.3873,-69 1326.9012,-58.9907 892.6498,-26.5576 781.994,-18.3837"/>
<polygon fill="#191970" stroke="#191970" points="781.9967,-14.8745 771.7663,-17.6293 781.4817,-21.8556 781.9967,-14.8745"/>
</g>
<!-- Node24&#45;&gt;Node3 -->
<g id="edge30" class="edge">
<title>Node24&#45;&gt;Node3</title>
<path fill="none" stroke="#191970" d="M1401.009,-71.9882C1396.4704,-70.9075 1391.8124,-69.869 1387.3873,-69 1269.9158,-45.9304 1129.309,-28.5513 1062.0437,-20.8585"/>
<polygon fill="#191970" stroke="#191970" points="1062.2232,-17.3565 1051.8926,-19.7076 1061.4346,-24.312 1062.2232,-17.3565"/>
</g>
<!-- Node24&#45;&gt;Node6 -->
<g id="edge29" class="edge">
<title>Node24&#45;&gt;Node6</title>
<path fill="none" stroke="#191970" d="M1401.3316,-74.8516C1387.2774,-72.7069 1369.9754,-70.3436 1354.3873,-69 1111.8218,-48.0926 497.3988,-84.2407 259.3873,-33 255.9793,-32.2663 252.4924,-31.2564 249.0673,-30.0946"/>
<polygon fill="#191970" stroke="#191970" points="250.2854,-26.8133 239.6946,-26.521 247.7916,-33.354 250.2854,-26.8133"/>
</g>
<!-- Node31&#45;&gt;Node17 -->
<g id="edge42" class="edge">
<title>Node31&#45;&gt;Node17</title>
<path fill="none" stroke="#191970" d="M2530.2698,-132.4638C2521.5829,-130.0874 2512.1834,-127.7409 2503.3873,-126 2172.3986,-60.4915 1763.9347,-27.419 1646.4186,-18.8146"/>
<polygon fill="#191970" stroke="#191970" points="1646.5012,-15.3115 1636.2745,-18.0801 1645.9956,-22.2932 1646.5012,-15.3115"/>
</g>
<!-- Node32 -->
<g id="node33" class="node">
<title>Node32</title>
<polygon fill="#ffffff" stroke="#bfbfbf" points="2539.0484,-69.5 2539.0484,-89.5 2587.7261,-89.5 2587.7261,-69.5 2539.0484,-69.5"/>
<text text-anchor="middle" x="2563.3873" y="-75.9" font-family="Helvetica,sans-Serif" font-size="12.00" fill="#000000">vector</text>
</g>
<!-- Node31&#45;&gt;Node32 -->
<g id="edge41" class="edge">
<title>Node31&#45;&gt;Node32</title>
<path fill="none" stroke="#191970" d="M2563.3873,-132.378C2563.3873,-123.7041 2563.3873,-110.9355 2563.3873,-100.1186"/>
<polygon fill="#191970" stroke="#191970" points="2566.8874,-99.8062 2563.3873,-89.8062 2559.8874,-99.8062 2566.8874,-99.8062"/>
</g>
</g>
</svg>
        <g id="navigator" transform="translate(0 0)" fill="#404254">
                <rect fill="#f2f5e9" fill-opacity="0.5" stroke="#606060" stroke-width=".5" x="0" y="0" width="60" height="60"/>
                <use id="zoomplus" xlink:href="#zoomPlus" x="17" y="9" onmousedown="handleZoom(evt,'in')"/>
                <use id="zoomminus" xlink:href="#zoomMin" x="42" y="9" onmousedown="handleZoom(evt,'out')"/>
                <use id="reset" xlink:href="#resetDef" x="30" y="36" onmousedown="handleReset()"/>
                <g id="arrowUp" xlink:href="#dirArrow" transform="translate(30 24)" onmousedown="handlePan(0,-1)">
                  <use xlink:href="#rim" fill="#404040">
                        <set attributeName="fill" to="#808080" begin="arrowUp.mouseover" end="arrowUp.mouseout"/>
                  </use>
                  <path fill="none" stroke="white" stroke-width="1.5" d="M0,-3.0v7 M-2.5,-0.5L0,-3.0L2.5,-0.5"/>
                </g>
                <g id="arrowRight" xlink:href="#dirArrow" transform="rotate(90) translate(36 -43)" onmousedown="handlePan(1,0)">
                  <use xlink:href="#rim" fill="#404040">
                        <set attributeName="fill" to="#808080" begin="arrowRight.mouseover" end="arrowRight.mouseout"/>
                  </use>
                  <path fill="none" stroke="white" stroke-width="1.5" d="M0,-3.0v7 M-2.5,-0.5L0,-3.0L2.5,-0.5"/>
                </g>
                <g id="arrowDown" xlink:href="#dirArrow" transform="rotate(180) translate(-30 -48)" onmousedown="handlePan(0,1)">
                  <use xlink:href="#rim" fill="#404040">
                        <set attributeName="fill" to="#808080" begin="arrowDown.mouseover" end="arrowDown.mouseout"/>
                  </use>
                  <path fill="none" stroke="white" stroke-width="1.5" d="M0,-3.0v7 M-2.5,-0.5L0,-3.0L2.5,-0.5"/>
                </g>
                <g id="arrowLeft" xlink:href="#dirArrow" transform="rotate(270) translate(-36 17)" onmousedown="handlePan(-1,0)">
                  <use xlink:href="#rim" fill="#404040">
                        <set attributeName="fill" to="#808080" begin="arrowLeft.mouseover" end="arrowLeft.mouseout"/>
                  </use>
                  <path fill="none" stroke="white" stroke-width="1.5" d="M0,-3.0v7 M-2.5,-0.5L0,-3.0L2.5,-0.5"/>
                </g>
        </g>
        <svg viewBox="0 0 15 15" width="100%" height="30px" preserveAspectRatio="xMaxYMin meet">
         <g id="arrow_out" transform="scale(0.3 0.3)">
          <a xlink:href="poet_8h__incl_org.svg" target="_base">
           <rect id="button" ry="5" rx="5" y="6" x="6" height="38" width="38"
                fill="#f2f5e9" fill-opacity="0.5" stroke="#606060" stroke-width="1.0"/>
           <path id="arrow"
             d="M 11.500037,31.436501 C 11.940474,20.09759 22.043105,11.32322 32.158766,21.979434 L 37.068811,17.246167 C 37.068811,17.246167 37.088388,32 37.088388,32 L 22.160133,31.978069 C 22.160133,31.978069 26.997745,27.140456 26.997745,27.140456 C 18.528582,18.264221 13.291696,25.230495 11.500037,31.436501 z"
             style="fill:#404040;"/>
          </a>
         </g>
        </svg>
</svg>
