<?xml version="1.0" encoding="UTF-8" standalone="no"?>
<!DOCTYPE svg PUBLIC "-//W3C//DTD SVG 1.1//EN"
 "http://www.w3.org/Graphics/SVG/1.1/DTD/svg11.dtd">
<!-- Generated by graphviz version 2.40.1 (20161225.0304)
 -->
<!-- Title: /home/kpenev/projects/git/poet/poet_src/unit_tests/testEvolve/RealEvolutionQuantity.h Pages: 1 -->
<svg width="572pt" height="321pt"
 viewBox="0.00 0.00 572.00 321.00" xmlns="http://www.w3.org/2000/svg" xmlns:xlink="http://www.w3.org/1999/xlink">
<g id="graph0" class="graph" transform="scale(1 1) rotate(0) translate(4 317)">
<title>/home/kpenev/projects/git/poet/poet_src/unit_tests/testEvolve/RealEvolutionQuantity.h</title>
<polygon fill="#ffffff" stroke="transparent" points="-4,4 -4,-317 568,-317 568,4 -4,4"/>
<!-- Node1 -->
<g id="node1" class="node">
<title>Node1</title>
<polygon fill="#bfbfbf" stroke="#000000" points="182.5,-252.5 182.5,-312.5 367.5,-312.5 367.5,-252.5 182.5,-252.5"/>
<text text-anchor="start" x="190.5" y="-298.9" font-family="Helvetica,sans-Serif" font-size="12.00" fill="#000000">/home/kpenev/projects</text>
<text text-anchor="start" x="190.5" y="-285.9" font-family="Helvetica,sans-Serif" font-size="12.00" fill="#000000">/git/poet/poet_src/unit</text>
<text text-anchor="start" x="190.5" y="-272.9" font-family="Helvetica,sans-Serif" font-size="12.00" fill="#000000">_tests/testEvolve/RealEvolution</text>
<text text-anchor="middle" x="275" y="-259.9" font-family="Helvetica,sans-Serif" font-size="12.00" fill="#000000">Quantity.h</text>
</g>
<!-- Node2 -->
<g id="node2" class="node">
<title>Node2</title>
<g id="a_node2"><a xlink:href="TransformedSolution_8h.html" target="_top" xlink:title="Declare a class that transforms an orbital solution before checking. ">
<polygon fill="#ffffff" stroke="#000000" points="231.5,-168.5 231.5,-215.5 462.5,-215.5 462.5,-168.5 231.5,-168.5"/>
<text text-anchor="start" x="239.5" y="-201.9" font-family="Helvetica,sans-Serif" font-size="12.00" fill="#000000">/home/kpenev/projects</text>
<text text-anchor="start" x="239.5" y="-188.9" font-family="Helvetica,sans-Serif" font-size="12.00" fill="#000000">/git/poet/poet_src/unit</text>
<text text-anchor="middle" x="347" y="-175.9" font-family="Helvetica,sans-Serif" font-size="12.00" fill="#000000">_tests/testEvolve/TransformedSolution.h</text>
</a>
</g>
</g>
<!-- Node1&#45;&gt;Node2 -->
<g id="edge1" class="edge">
<title>Node1&#45;&gt;Node2</title>
<path fill="none" stroke="#191970" d="M305.3517,-244.3496C313.0813,-234.634 321.1672,-224.4704 328.1358,-215.7113"/>
<polygon fill="#191970" stroke="#191970" points="302.4619,-242.3602 298.975,-252.3648 307.9398,-246.7183 302.4619,-242.3602"/>
</g>
<!-- Node3 -->
<g id="node3" class="node">
<title>Node3</title>
<g id="a_node3"><a xlink:href="testOrbitSolver_8h.html" target="_top" xlink:title="Declares the test suite that exercises the OrbitSolver class and some other clasess necessary to acco...">
<polygon fill="#ffffff" stroke="#000000" points="104,-84.5 104,-131.5 302,-131.5 302,-84.5 104,-84.5"/>
<text text-anchor="start" x="112" y="-117.9" font-family="Helvetica,sans-Serif" font-size="12.00" fill="#000000">/home/kpenev/projects</text>
<text text-anchor="start" x="112" y="-104.9" font-family="Helvetica,sans-Serif" font-size="12.00" fill="#000000">/git/poet/poet_src/unit</text>
<text text-anchor="middle" x="203" y="-91.9" font-family="Helvetica,sans-Serif" font-size="12.00" fill="#000000">_tests/testEvolve/testOrbitSolver.h</text>
</a>
</g>
</g>
<!-- Node1&#45;&gt;Node3 -->
<g id="edge6" class="edge">
<title>Node1&#45;&gt;Node3</title>
<path fill="none" stroke="#191970" d="M240.1475,-244.2736C233.5977,-235.4862 227.426,-225.8219 223,-216 210.7003,-188.7053 205.9646,-154.269 204.1414,-131.7166"/>
<polygon fill="#191970" stroke="#191970" points="237.5851,-246.679 246.4985,-252.4064 243.1022,-242.3706 237.5851,-246.679"/>
</g>
<!-- Node2&#45;&gt;Node3 -->
<g id="edge2" class="edge">
<title>Node2&#45;&gt;Node3</title>
<path fill="none" stroke="#191970" d="M297.5304,-163.1427C279.974,-152.9015 260.43,-141.5008 243.6902,-131.736"/>
<polygon fill="#191970" stroke="#191970" points="296.1034,-166.3623 306.5048,-168.3778 299.6305,-160.3158 296.1034,-166.3623"/>
</g>
<!-- Node6 -->
<g id="node6" class="node">
<title>Node6</title>
<g id="a_node6"><a xlink:href="TransformedSolution_8cpp_source.html" target="_top" xlink:title="/home/kpenev/projects\l/git/poet/poet_src/unit\l_tests/testEvolve/TransformedSolution.cpp">
<polygon fill="#ffffff" stroke="#000000" points="320,-84.5 320,-131.5 564,-131.5 564,-84.5 320,-84.5"/>
<text text-anchor="start" x="328" y="-117.9" font-family="Helvetica,sans-Serif" font-size="12.00" fill="#000000">/home/kpenev/projects</text>
<text text-anchor="start" x="328" y="-104.9" font-family="Helvetica,sans-Serif" font-size="12.00" fill="#000000">/git/poet/poet_src/unit</text>
<text text-anchor="middle" x="442" y="-91.9" font-family="Helvetica,sans-Serif" font-size="12.00" fill="#000000">_tests/testEvolve/TransformedSolution.cpp</text>
</a>
</g>
</g>
<!-- Node2&#45;&gt;Node6 -->
<g id="edge5" class="edge">
<title>Node2&#45;&gt;Node6</title>
<path fill="none" stroke="#191970" d="M381.2381,-161.7264C392.3976,-151.859 404.6187,-141.0529 415.1558,-131.736"/>
<polygon fill="#191970" stroke="#191970" points="378.8887,-159.1317 373.7156,-168.3778 383.5255,-164.3757 378.8887,-159.1317"/>
</g>
<!-- Node4 -->
<g id="node4" class="node">
<title>Node4</title>
<g id="a_node4"><a xlink:href="testEvolve_8cpp_source.html" target="_top" xlink:title="/home/kpenev/projects\l/git/poet/poet_src/unit\l_tests/testEvolve/testEvolve.cpp">
<polygon fill="#ffffff" stroke="#000000" points="0,-.5 0,-47.5 188,-47.5 188,-.5 0,-.5"/>
<text text-anchor="start" x="8" y="-33.9" font-family="Helvetica,sans-Serif" font-size="12.00" fill="#000000">/home/kpenev/projects</text>
<text text-anchor="start" x="8" y="-20.9" font-family="Helvetica,sans-Serif" font-size="12.00" fill="#000000">/git/poet/poet_src/unit</text>
<text text-anchor="middle" x="94" y="-7.9" font-family="Helvetica,sans-Serif" font-size="12.00" fill="#000000">_tests/testEvolve/testEvolve.cpp</text>
</a>
</g>
</g>
<!-- Node3&#45;&gt;Node4 -->
<g id="edge3" class="edge">
<title>Node3&#45;&gt;Node4</title>
<path fill="none" stroke="#191970" d="M164.0853,-78.0107C151.1821,-68.067 137.0063,-57.1425 124.8002,-47.736"/>
<polygon fill="#191970" stroke="#191970" points="162.29,-81.0459 172.3474,-84.3778 166.563,-75.5013 162.29,-81.0459"/>
</g>
<!-- Node5 -->
<g id="node5" class="node">
<title>Node5</title>
<g id="a_node5"><a xlink:href="testOrbitSolver_8cpp.html" target="_top" xlink:title="Defines some of the methods of the test suite that exercises the OrbitSolver class and the other clas...">
<polygon fill="#ffffff" stroke="#000000" points="206.5,-.5 206.5,-47.5 417.5,-47.5 417.5,-.5 206.5,-.5"/>
<text text-anchor="start" x="214.5" y="-33.9" font-family="Helvetica,sans-Serif" font-size="12.00" fill="#000000">/home/kpenev/projects</text>
<text text-anchor="start" x="214.5" y="-20.9" font-family="Helvetica,sans-Serif" font-size="12.00" fill="#000000">/git/poet/poet_src/unit</text>
<text text-anchor="middle" x="312" y="-7.9" font-family="Helvetica,sans-Serif" font-size="12.00" fill="#000000">_tests/testEvolve/testOrbitSolver.cpp</text>
</a>
</g>
</g>
<!-- Node3&#45;&gt;Node5 -->
<g id="edge4" class="edge">
<title>Node3&#45;&gt;Node5</title>
<path fill="none" stroke="#191970" d="M241.9147,-78.0107C254.8179,-68.067 268.9937,-57.1425 281.1998,-47.736"/>
<polygon fill="#191970" stroke="#191970" points="239.437,-75.5013 233.6526,-84.3778 243.71,-81.0459 239.437,-75.5013"/>
</g>
</g>
</svg>
