<?xml version="1.0" encoding="UTF-8" standalone="no"?>
<!DOCTYPE svg PUBLIC "-//W3C//DTD SVG 1.1//EN"
 "http://www.w3.org/Graphics/SVG/1.1/DTD/svg11.dtd">
<!-- Generated by graphviz version 2.40.1 (20161225.0304)
 -->
<!-- Title: /home/kpenev/projects/git/poet/poet_src/StellarEvolution/RemoveLogDeriv.h Pages: 1 -->
<!--zoomable 372 -->
<svg id="main" version="1.1" xmlns="http://www.w3.org/2000/svg" xmlns:xlink="http://www.w3.org/1999/xlink" xml:space="preserve" onload="init(evt)">
<style type="text/css"><![CDATA[
.edge:hover path { stroke: red; }
.edge:hover polygon { stroke: red; fill: red; }
]]></style>
<script type="text/javascript"><![CDATA[
var edges = document.getElementsByTagName('g');
if (edges && edges.length) {
  for (var i=0;i<edges.length;i++) {
    if (edges[i].id.substr(0,4)=='edge') {
      edges[i].setAttribute('class','edge');
    }
  }
}
]]></script>
        <defs>
                <circle id="rim" cx="0" cy="0" r="7"/>
                <circle id="rim2" cx="0" cy="0" r="3.5"/>
                <g id="zoomPlus">
                        <use xlink:href="#rim" fill="#404040">
                                <set attributeName="fill" to="#808080" begin="zoomplus.mouseover" end="zoomplus.mouseout"/>
                        </use>
                        <path d="M-4,0h8M0,-4v8" fill="none" stroke="white" stroke-width="1.5" pointer-events="none"/>
                </g>
                <g id="zoomMin">
                        <use xlink:href="#rim" fill="#404040">
                                <set attributeName="fill" to="#808080" begin="zoomminus.mouseover" end="zoomminus.mouseout"/>
                        </use>
                        <path d="M-4,0h8" fill="none" stroke="white" stroke-width="1.5" pointer-events="none"/>
                </g>
                <g id="dirArrow">
                        <path fill="none" stroke="white" stroke-width="1.5" d="M0,-3.0v7 M-2.5,-0.5L0,-3.0L2.5,-0.5"/>
                </g>
               <g id="resetDef">
                       <use xlink:href="#rim2" fill="#404040">
                               <set attributeName="fill" to="#808080" begin="reset.mouseover" end="reset.mouseout"/>
                       </use>
               </g>
        </defs>

<script type="text/javascript">
var viewWidth = 1538;
var viewHeight = 372;
var sectionId = 'dynsection-0';
</script>
<script xlink:href="svgpan.js"/>
<svg id="graph" class="graph">
<g id="viewport">
<title>/home/kpenev/projects/git/poet/poet_src/StellarEvolution/RemoveLogDeriv.h</title>
<polygon fill="#ffffff" stroke="transparent" points="-4,4 -4,-368 1533.5,-368 1533.5,4 -4,4"/>
<!-- Node0 -->
<g id="node1" class="node">
<title>Node0</title>
<polygon fill="#bfbfbf" stroke="#000000" points="269,-316.5 269,-363.5 464,-363.5 464,-316.5 269,-316.5"/>
<text text-anchor="start" x="277" y="-349.9" font-family="Helvetica,sans-Serif" font-size="12.00" fill="#000000">/home/kpenev/projects</text>
<text text-anchor="start" x="277" y="-336.9" font-family="Helvetica,sans-Serif" font-size="12.00" fill="#000000">/git/poet/poet_src/StellarEvolution</text>
<text text-anchor="middle" x="366.5" y="-323.9" font-family="Helvetica,sans-Serif" font-size="12.00" fill="#000000">/RemoveLogDeriv.h</text>
</g>
<!-- Node1 -->
<g id="node2" class="node">
<title>Node1</title>
<g id="a_node2"><a xlink:href="SharedLibraryExportMacros_8h_source.html" target="_top" xlink:title="../Core/SharedLibraryExport\lMacros.h">
<polygon fill="#ffffff" stroke="#000000" points="0,-.5 0,-34.5 165,-34.5 165,-.5 0,-.5"/>
<text text-anchor="start" x="8" y="-20.9" font-family="Helvetica,sans-Serif" font-size="12.00" fill="#000000">../Core/SharedLibraryExport</text>
<text text-anchor="middle" x="82.5" y="-7.9" font-family="Helvetica,sans-Serif" font-size="12.00" fill="#000000">Macros.h</text>
</a>
</g>
</g>
<!-- Node0&#45;&gt;Node1 -->
<g id="edge1" class="edge">
<title>Node0&#45;&gt;Node1</title>
<path fill="none" stroke="#191970" d="M268.6039,-324.6073C162.0008,-305.0102 6.5,-266.8518 6.5,-211 6.5,-211 6.5,-211 6.5,-146.5 6.5,-105.688 35.0875,-66.4135 57.1964,-42.142"/>
<polygon fill="#191970" stroke="#191970" points="59.7965,-44.4862 64.1025,-34.8058 54.6996,-39.688 59.7965,-44.4862"/>
</g>
<!-- Node2 -->
<g id="node3" class="node">
<title>Node2</title>
<g id="a_node3"><a xlink:href="LogDerivatives_8h.html" target="_top" xlink:title="Declares a class for differentiating functions of log(arg) w.r.t. arg. ">
<polygon fill="#ffffff" stroke="#000000" points="654,-258.5 654,-279.5 799,-279.5 799,-258.5 654,-258.5"/>
<text text-anchor="middle" x="726.5" y="-265.9" font-family="Helvetica,sans-Serif" font-size="12.00" fill="#000000">../Core/LogDerivatives.h</text>
</a>
</g>
</g>
<!-- Node0&#45;&gt;Node2 -->
<g id="edge2" class="edge">
<title>Node0&#45;&gt;Node2</title>
<path fill="none" stroke="#191970" d="M464.3961,-320.6927C527.7071,-308.2064 608.2649,-292.3186 663.2535,-281.4736"/>
<polygon fill="#191970" stroke="#191970" points="664.0798,-284.8782 673.2136,-279.5093 662.7253,-278.0104 664.0798,-284.8782"/>
</g>
<!-- Node2&#45;&gt;Node1 -->
<g id="edge3" class="edge">
<title>Node2&#45;&gt;Node1</title>
<path fill="none" stroke="#191970" d="M653.8957,-263.6816C514.275,-252.2643 214.7033,-221.6455 130.5,-164 100.0586,-143.1599 98.5903,-128.1851 87.5,-93 82.6538,-77.6249 81.3049,-59.641 81.2139,-45.0825"/>
<polygon fill="#191970" stroke="#191970" points="84.7184,-44.7631 81.3524,-34.7172 77.719,-44.6695 84.7184,-44.7631"/>
</g>
<!-- Node3 -->
<g id="node4" class="node">
<title>Node3</title>
<g id="a_node4"><a xlink:href="Functions_8h.html" target="_top" xlink:title="A hierarchy of classes representing functions. ">
<polygon fill="#ffffff" stroke="#000000" points="687,-200.5 687,-221.5 766,-221.5 766,-200.5 687,-200.5"/>
<text text-anchor="middle" x="726.5" y="-207.9" font-family="Helvetica,sans-Serif" font-size="12.00" fill="#000000">Functions.h</text>
</a>
</g>
</g>
<!-- Node2&#45;&gt;Node3 -->
<g id="edge4" class="edge">
<title>Node2&#45;&gt;Node3</title>
<path fill="none" stroke="#191970" d="M726.5,-258.3619C726.5,-250.9219 726.5,-240.7427 726.5,-231.7276"/>
<polygon fill="#191970" stroke="#191970" points="730.0001,-231.5706 726.5,-221.5707 723.0001,-231.5707 730.0001,-231.5706"/>
</g>
<!-- Node17 -->
<g id="node18" class="node">
<title>Node17</title>
<g id="a_node18"><a xlink:href="Error_8h.html" target="_top" xlink:title="Defines the exception hierarchy used by this code. ">
<polygon fill="#ffffff" stroke="#000000" points="1334,-71.5 1334,-92.5 1387,-92.5 1387,-71.5 1334,-71.5"/>
<text text-anchor="middle" x="1360.5" y="-78.9" font-family="Helvetica,sans-Serif" font-size="12.00" fill="#000000">Error.h</text>
</a>
</g>
</g>
<!-- Node2&#45;&gt;Node17 -->
<g id="edge39" class="edge">
<title>Node2&#45;&gt;Node17</title>
<path fill="none" stroke="#191970" d="M799.1835,-262.3973C959.6242,-247.0894 1332.8047,-207.1736 1369.5,-164 1383.9777,-146.9663 1377.4541,-120.2186 1370.1572,-101.9358"/>
<polygon fill="#191970" stroke="#191970" points="1373.362,-100.5285 1366.1524,-92.765 1366.947,-103.33 1373.362,-100.5285"/>
</g>
<!-- Node28 -->
<g id="node29" class="node">
<title>Node28</title>
<polygon fill="#ffffff" stroke="#bfbfbf" points="1418,-200.5 1418,-221.5 1467,-221.5 1467,-200.5 1418,-200.5"/>
<text text-anchor="middle" x="1442.5" y="-207.9" font-family="Helvetica,sans-Serif" font-size="12.00" fill="#000000">vector</text>
</g>
<!-- Node2&#45;&gt;Node28 -->
<g id="edge40" class="edge">
<title>Node2&#45;&gt;Node28</title>
<path fill="none" stroke="#191970" d="M799.0128,-265.8544C949.0322,-259.037 1289.0191,-241.9003 1403.5,-222 1404.9729,-221.744 1406.4699,-221.4547 1407.977,-221.1393"/>
<polygon fill="#191970" stroke="#191970" points="1409.0089,-224.4913 1417.9187,-218.7584 1407.3785,-217.6838 1409.0089,-224.4913"/>
</g>
<!-- Node3&#45;&gt;Node1 -->
<g id="edge5" class="edge">
<title>Node3&#45;&gt;Node1</title>
<path fill="none" stroke="#191970" d="M686.9423,-209.7727C582.4558,-206.1512 301.1256,-193.8357 213.5,-164 157.7083,-145.0034 136.0398,-140.7555 101.5,-93 91.3312,-78.9404 86.5831,-59.9958 84.3763,-44.6011"/>
<polygon fill="#191970" stroke="#191970" points="87.8469,-44.1447 83.2191,-34.614 80.8934,-44.9504 87.8469,-44.1447"/>
</g>
<!-- Node4 -->
<g id="node5" class="node">
<title>Node4</title>
<g id="a_node5"><a xlink:href="Core_2Common_8h.html" target="_top" xlink:title="Declaration of some general purpose utilities. ">
<polygon fill="#ffffff" stroke="#000000" points="585,-136 585,-157 660,-157 660,-136 585,-136"/>
<text text-anchor="middle" x="622.5" y="-143.4" font-family="Helvetica,sans-Serif" font-size="12.00" fill="#000000">Common.h</text>
</a>
</g>
</g>
<!-- Node3&#45;&gt;Node4 -->
<g id="edge6" class="edge">
<title>Node3&#45;&gt;Node4</title>
<path fill="none" stroke="#191970" d="M709.3265,-200.3491C692.6915,-190.0322 667.2561,-174.2574 648.2081,-162.4439"/>
<polygon fill="#191970" stroke="#191970" points="650.042,-159.4629 639.699,-157.1667 646.3526,-165.4117 650.042,-159.4629"/>
</g>
<!-- Node5 -->
<g id="node6" class="node">
<title>Node5</title>
<polygon fill="#ffffff" stroke="#bfbfbf" points="110.5,-71.5 110.5,-92.5 142.5,-92.5 142.5,-71.5 110.5,-71.5"/>
<text text-anchor="middle" x="126.5" y="-78.9" font-family="Helvetica,sans-Serif" font-size="12.00" fill="#000000">list</text>
</g>
<!-- Node3&#45;&gt;Node5 -->
<g id="edge32" class="edge">
<title>Node3&#45;&gt;Node5</title>
<path fill="none" stroke="#191970" d="M686.8073,-208.0965C596.9165,-201.2672 380.129,-183.3002 309.5,-164 250.2544,-147.8105 185.7596,-114.9935 151.3849,-96.1538"/>
<polygon fill="#191970" stroke="#191970" points="152.9603,-93.0253 142.5176,-91.2361 149.5653,-99.1469 152.9603,-93.0253"/>
</g>
<!-- Node6 -->
<g id="node7" class="node">
<title>Node6</title>
<polygon fill="#ffffff" stroke="#bfbfbf" points="161,-71.5 161,-92.5 220,-92.5 220,-71.5 161,-71.5"/>
<text text-anchor="middle" x="190.5" y="-78.9" font-family="Helvetica,sans-Serif" font-size="12.00" fill="#000000">valarray</text>
</g>
<!-- Node3&#45;&gt;Node6 -->
<g id="edge31" class="edge">
<title>Node3&#45;&gt;Node6</title>
<path fill="none" stroke="#191970" d="M686.6775,-207.2362C628.1432,-201.1671 515.7214,-187.4627 422.5,-164 350.67,-145.9212 269.7157,-114.7163 224.9469,-96.4588"/>
<polygon fill="#191970" stroke="#191970" points="226.0098,-93.1117 215.4298,-92.5498 223.3502,-99.5868 226.0098,-93.1117"/>
</g>
<!-- Node7 -->
<g id="node8" class="node">
<title>Node7</title>
<polygon fill="#ffffff" stroke="#bfbfbf" points="238.5,-71.5 238.5,-92.5 282.5,-92.5 282.5,-71.5 238.5,-71.5"/>
<text text-anchor="middle" x="260.5" y="-78.9" font-family="Helvetica,sans-Serif" font-size="12.00" fill="#000000">limits</text>
</g>
<!-- Node3&#45;&gt;Node7 -->
<g id="edge30" class="edge">
<title>Node3&#45;&gt;Node7</title>
<path fill="none" stroke="#191970" d="M686.969,-200.5588C611.0843,-180.4257 439.8114,-134.5492 296.5,-93 295.0877,-92.5905 293.6456,-92.1681 292.1898,-91.7381"/>
<polygon fill="#191970" stroke="#191970" points="293.1388,-88.3688 282.5548,-88.8485 291.1279,-95.0737 293.1388,-88.3688"/>
</g>
<!-- Node9 -->
<g id="node10" class="node">
<title>Node9</title>
<polygon fill="#ffffff" stroke="#bfbfbf" points="1213.5,-7 1213.5,-28 1275.5,-28 1275.5,-7 1213.5,-7"/>
<text text-anchor="middle" x="1244.5" y="-14.4" font-family="Helvetica,sans-Serif" font-size="12.00" fill="#000000">iostream</text>
</g>
<!-- Node3&#45;&gt;Node9 -->
<g id="edge34" class="edge">
<title>Node3&#45;&gt;Node9</title>
<path fill="none" stroke="#191970" d="M732.3226,-200.3359C743.6423,-180.0419 768.793,-137.1568 783.5,-129 854.3242,-89.7197 1455.6651,-151.6641 1511.5,-93 1518.241,-85.9174 1517.8494,-78.4357 1511.5,-71 1478.3334,-32.159 1333.5168,-49.3525 1284.5,-35 1281.5402,-34.1333 1278.5108,-33.1001 1275.5087,-31.9751"/>
<polygon fill="#191970" stroke="#191970" points="1276.7128,-28.6865 1266.131,-28.1609 1274.0755,-35.1707 1276.7128,-28.6865"/>
</g>
<!-- Node10 -->
<g id="node11" class="node">
<title>Node10</title>
<polygon fill="#ffffff" stroke="#bfbfbf" points="1263,-71.5 1263,-92.5 1316,-92.5 1316,-71.5 1263,-71.5"/>
<text text-anchor="middle" x="1289.5" y="-78.9" font-family="Helvetica,sans-Serif" font-size="12.00" fill="#000000">iterator</text>
</g>
<!-- Node3&#45;&gt;Node10 -->
<g id="edge33" class="edge">
<title>Node3&#45;&gt;Node10</title>
<path fill="none" stroke="#191970" d="M719.8152,-200.3594C709.853,-183.0136 694.1457,-148.6139 712.5,-129 752.0475,-86.7386 1159.6409,-102.6586 1252.7464,-92.5238"/>
<polygon fill="#191970" stroke="#191970" points="1253.5078,-95.9507 1262.9134,-91.0739 1252.5194,-89.0209 1253.5078,-95.9507"/>
</g>
<!-- Node3&#45;&gt;Node17 -->
<g id="edge28" class="edge">
<title>Node3&#45;&gt;Node17</title>
<path fill="none" stroke="#191970" d="M726.0698,-200.4023C725.9846,-182.4734 728.7174,-146.4122 750.5,-129 798.5144,-90.6192 1227.0901,-103.3283 1324.0248,-92.3012"/>
<polygon fill="#191970" stroke="#191970" points="1324.5354,-95.7639 1333.9349,-90.8751 1323.5383,-88.8353 1324.5354,-95.7639"/>
</g>
<!-- Node23 -->
<g id="node24" class="node">
<title>Node23</title>
<polygon fill="#ffffff" stroke="#bfbfbf" points="793,-136 793,-157 842,-157 842,-136 793,-136"/>
<text text-anchor="middle" x="817.5" y="-143.4" font-family="Helvetica,sans-Serif" font-size="12.00" fill="#000000">cmath</text>
</g>
<!-- Node3&#45;&gt;Node23 -->
<g id="edge29" class="edge">
<title>Node3&#45;&gt;Node23</title>
<path fill="none" stroke="#191970" d="M741.5268,-200.3491C755.7531,-190.2656 777.3353,-174.9684 793.8658,-163.2517"/>
<polygon fill="#191970" stroke="#191970" points="796.3163,-165.8049 802.4509,-157.1667 792.2684,-160.0939 796.3163,-165.8049"/>
</g>
<!-- Node24 -->
<g id="node25" class="node">
<title>Node24</title>
<polygon fill="#ffffff" stroke="#bfbfbf" points="860,-129.5 860,-163.5 973,-163.5 973,-129.5 860,-129.5"/>
<text text-anchor="start" x="868" y="-149.9" font-family="Helvetica,sans-Serif" font-size="12.00" fill="#000000">boost/serialization</text>
<text text-anchor="middle" x="916.5" y="-136.9" font-family="Helvetica,sans-Serif" font-size="12.00" fill="#000000">/base_object.hpp</text>
</g>
<!-- Node3&#45;&gt;Node24 -->
<g id="edge35" class="edge">
<title>Node3&#45;&gt;Node24</title>
<path fill="none" stroke="#191970" d="M757.4496,-200.4934C784.2474,-191.3963 823.7727,-177.9785 856.7164,-166.795"/>
<polygon fill="#191970" stroke="#191970" points="857.9171,-170.0836 866.2612,-163.5547 855.6669,-163.4551 857.9171,-170.0836"/>
</g>
<!-- Node25 -->
<g id="node26" class="node">
<title>Node25</title>
<polygon fill="#ffffff" stroke="#bfbfbf" points="991.5,-129.5 991.5,-163.5 1101.5,-163.5 1101.5,-129.5 991.5,-129.5"/>
<text text-anchor="start" x="999.5" y="-149.9" font-family="Helvetica,sans-Serif" font-size="12.00" fill="#000000">boost/archive/text</text>
<text text-anchor="middle" x="1046.5" y="-136.9" font-family="Helvetica,sans-Serif" font-size="12.00" fill="#000000">_oarchive.hpp</text>
</g>
<!-- Node3&#45;&gt;Node25 -->
<g id="edge36" class="edge">
<title>Node3&#45;&gt;Node25</title>
<path fill="none" stroke="#191970" d="M766.0169,-204.7334C816.3121,-196.5249 905.763,-181.1457 981.5,-164 981.5997,-163.9774 981.6995,-163.9548 981.7994,-163.9321"/>
<polygon fill="#191970" stroke="#191970" points="982.3295,-167.4033 991.2572,-161.6985 980.7205,-160.5907 982.3295,-167.4033"/>
</g>
<!-- Node26 -->
<g id="node27" class="node">
<title>Node26</title>
<polygon fill="#ffffff" stroke="#bfbfbf" points="1119.5,-129.5 1119.5,-163.5 1229.5,-163.5 1229.5,-129.5 1119.5,-129.5"/>
<text text-anchor="start" x="1127.5" y="-149.9" font-family="Helvetica,sans-Serif" font-size="12.00" fill="#000000">boost/archive/text</text>
<text text-anchor="middle" x="1174.5" y="-136.9" font-family="Helvetica,sans-Serif" font-size="12.00" fill="#000000">_iarchive.hpp</text>
</g>
<!-- Node3&#45;&gt;Node26 -->
<g id="edge37" class="edge">
<title>Node3&#45;&gt;Node26</title>
<path fill="none" stroke="#191970" d="M766.0465,-208.0649C834.2267,-202.5929 978.3867,-189.2183 1109.2622,-164.083"/>
<polygon fill="#191970" stroke="#191970" points="1110.3168,-167.4433 1119.4623,-162.0945 1108.9773,-160.5727 1110.3168,-167.4433"/>
</g>
<!-- Node27 -->
<g id="node28" class="node">
<title>Node27</title>
<polygon fill="#ffffff" stroke="#bfbfbf" points="1248,-129.5 1248,-163.5 1361,-163.5 1361,-129.5 1248,-129.5"/>
<text text-anchor="start" x="1256" y="-149.9" font-family="Helvetica,sans-Serif" font-size="12.00" fill="#000000">boost/serialization</text>
<text text-anchor="middle" x="1304.5" y="-136.9" font-family="Helvetica,sans-Serif" font-size="12.00" fill="#000000">/export.hpp</text>
</g>
<!-- Node3&#45;&gt;Node27 -->
<g id="edge38" class="edge">
<title>Node3&#45;&gt;Node27</title>
<path fill="none" stroke="#191970" d="M766.3081,-209.6172C851.2654,-206.1795 1056.6524,-195.2778 1237.781,-163.9434"/>
<polygon fill="#191970" stroke="#191970" points="1238.5089,-167.3692 1247.7532,-162.193 1237.2986,-160.4746 1238.5089,-167.3692"/>
</g>
<!-- Node4&#45;&gt;Node1 -->
<g id="edge19" class="edge">
<title>Node4&#45;&gt;Node1</title>
<path fill="none" stroke="#191970" d="M584.9219,-141.2799C516.8686,-131.5555 375.9637,-110.1029 329.5,-93 311.1862,-86.2588 309.5667,-78.3778 291.5,-71 254.4176,-55.8568 211.8441,-44.0292 174.8387,-35.3898"/>
<polygon fill="#191970" stroke="#191970" points="175.5884,-31.9709 165.0594,-33.1499 174.0256,-38.7942 175.5884,-31.9709"/>
</g>
<!-- Node4&#45;&gt;Node5 -->
<g id="edge7" class="edge">
<title>Node4&#45;&gt;Node5</title>
<path fill="none" stroke="#191970" d="M584.9818,-143.7041C491.7484,-136.5303 250.5874,-116.5345 152.5117,-92.5111"/>
<polygon fill="#191970" stroke="#191970" points="153.2088,-89.076 142.6497,-89.9459 151.4466,-95.8506 153.2088,-89.076"/>
</g>
<!-- Node4&#45;&gt;Node6 -->
<g id="edge8" class="edge">
<title>Node4&#45;&gt;Node6</title>
<path fill="none" stroke="#191970" d="M584.8139,-143.1374C516.1844,-136.6333 366.1598,-120.6621 230.3709,-92.9429"/>
<polygon fill="#191970" stroke="#191970" points="230.7066,-89.4383 220.2048,-90.8398 229.2884,-96.2932 230.7066,-89.4383"/>
</g>
<!-- Node4&#45;&gt;Node7 -->
<g id="edge9" class="edge">
<title>Node4&#45;&gt;Node7</title>
<path fill="none" stroke="#191970" d="M584.6943,-139.3826C567.0324,-136.1155 545.7089,-132.2536 526.5,-129 424.4862,-111.721 397.3379,-116.1753 296.5,-93 295.2461,-92.7118 293.9721,-92.4029 292.6885,-92.0781"/>
<polygon fill="#191970" stroke="#191970" points="293.407,-88.6457 282.8363,-89.3597 291.5451,-95.3935 293.407,-88.6457"/>
</g>
<!-- Node8 -->
<g id="node9" class="node">
<title>Node8</title>
<polygon fill="#ffffff" stroke="#bfbfbf" points="339,-71.5 339,-92.5 398,-92.5 398,-71.5 339,-71.5"/>
<text text-anchor="middle" x="368.5" y="-78.9" font-family="Helvetica,sans-Serif" font-size="12.00" fill="#000000">sstream</text>
</g>
<!-- Node4&#45;&gt;Node8 -->
<g id="edge10" class="edge">
<title>Node4&#45;&gt;Node8</title>
<path fill="none" stroke="#191970" d="M584.7479,-136.9133C537.2688,-124.8566 456.139,-104.2548 407.8974,-92.0045"/>
<polygon fill="#191970" stroke="#191970" points="408.6802,-88.5922 398.1263,-89.5232 406.9573,-95.3769 408.6802,-88.5922"/>
</g>
<!-- Node4&#45;&gt;Node9 -->
<g id="edge11" class="edge">
<title>Node4&#45;&gt;Node9</title>
<path fill="none" stroke="#191970" d="M584.7776,-140.4514C537.935,-132.0813 462.1484,-115.4244 445.5,-93 439.6715,-85.1493 438.821,-78.1412 445.5,-71 471.6091,-43.0842 1042.6478,-23.6451 1202.9742,-18.7235"/>
<polygon fill="#191970" stroke="#191970" points="1203.4748,-22.2099 1213.3636,-18.4073 1203.2617,-15.2132 1203.4748,-22.2099"/>
</g>
<!-- Node4&#45;&gt;Node10 -->
<g id="edge12" class="edge">
<title>Node4&#45;&gt;Node10</title>
<path fill="none" stroke="#191970" d="M649.3938,-135.9539C657.3605,-133.24 666.1804,-130.6286 674.5,-129 924.7453,-80.0131 998.6783,-138.5413 1253.0143,-92.899"/>
<polygon fill="#191970" stroke="#191970" points="1253.7096,-96.3299 1262.9157,-91.0862 1252.4489,-89.4444 1253.7096,-96.3299"/>
</g>
<!-- Node11 -->
<g id="node12" class="node">
<title>Node11</title>
<polygon fill="#ffffff" stroke="#bfbfbf" points="454.5,-71.5 454.5,-92.5 554.5,-92.5 554.5,-71.5 454.5,-71.5"/>
<text text-anchor="middle" x="504.5" y="-78.9" font-family="Helvetica,sans-Serif" font-size="12.00" fill="#000000">gsl/gsl_vector.h</text>
</g>
<!-- Node4&#45;&gt;Node11 -->
<g id="edge13" class="edge">
<title>Node4&#45;&gt;Node11</title>
<path fill="none" stroke="#191970" d="M603.2786,-135.9934C584.0787,-125.4985 554.3587,-109.2532 532.531,-97.322"/>
<polygon fill="#191970" stroke="#191970" points="534.1666,-94.2273 523.7131,-92.5021 530.8091,-100.3696 534.1666,-94.2273"/>
</g>
<!-- Node12 -->
<g id="node13" class="node">
<title>Node12</title>
<polygon fill="#ffffff" stroke="#bfbfbf" points="572.5,-71.5 572.5,-92.5 672.5,-92.5 672.5,-71.5 572.5,-71.5"/>
<text text-anchor="middle" x="622.5" y="-78.9" font-family="Helvetica,sans-Serif" font-size="12.00" fill="#000000">gsl/gsl_matrix.h</text>
</g>
<!-- Node4&#45;&gt;Node12 -->
<g id="edge14" class="edge">
<title>Node4&#45;&gt;Node12</title>
<path fill="none" stroke="#191970" d="M622.5,-135.8491C622.5,-126.9397 622.5,-113.9599 622.5,-102.9761"/>
<polygon fill="#191970" stroke="#191970" points="626.0001,-102.8822 622.5,-92.8823 619.0001,-102.8823 626.0001,-102.8822"/>
</g>
<!-- Node13 -->
<g id="node14" class="node">
<title>Node13</title>
<polygon fill="#ffffff" stroke="#bfbfbf" points="691,-71.5 691,-92.5 788,-92.5 788,-71.5 691,-71.5"/>
<text text-anchor="middle" x="739.5" y="-78.9" font-family="Helvetica,sans-Serif" font-size="12.00" fill="#000000">gsl/gsl_linalg.h</text>
</g>
<!-- Node4&#45;&gt;Node13 -->
<g id="edge15" class="edge">
<title>Node4&#45;&gt;Node13</title>
<path fill="none" stroke="#191970" d="M641.5585,-135.9934C660.5107,-125.5454 689.801,-109.3982 711.4163,-97.4821"/>
<polygon fill="#191970" stroke="#191970" points="713.382,-100.395 720.4497,-92.5021 710.0025,-94.2649 713.382,-100.395"/>
</g>
<!-- Node14 -->
<g id="node15" class="node">
<title>Node14</title>
<polygon fill="#ffffff" stroke="#bfbfbf" points="806.5,-71.5 806.5,-92.5 896.5,-92.5 896.5,-71.5 806.5,-71.5"/>
<text text-anchor="middle" x="851.5" y="-78.9" font-family="Helvetica,sans-Serif" font-size="12.00" fill="#000000">gsl/gsl_blas.h</text>
</g>
<!-- Node4&#45;&gt;Node14 -->
<g id="edge16" class="edge">
<title>Node4&#45;&gt;Node14</title>
<path fill="none" stroke="#191970" d="M652.64,-135.9868C659.7782,-133.5997 667.385,-131.1394 674.5,-129 715.9293,-116.5426 763.3222,-104.0499 798.6349,-95.0787"/>
<polygon fill="#191970" stroke="#191970" points="799.8849,-98.3729 808.7219,-92.5284 798.169,-91.5864 799.8849,-98.3729"/>
</g>
<!-- Node15 -->
<g id="node16" class="node">
<title>Node15</title>
<polygon fill="#ffffff" stroke="#bfbfbf" points="914.5,-71.5 914.5,-92.5 1004.5,-92.5 1004.5,-71.5 914.5,-71.5"/>
<text text-anchor="middle" x="959.5" y="-78.9" font-family="Helvetica,sans-Serif" font-size="12.00" fill="#000000">gsl/gsl_poly.h</text>
</g>
<!-- Node4&#45;&gt;Node15 -->
<g id="edge17" class="edge">
<title>Node4&#45;&gt;Node15</title>
<path fill="none" stroke="#191970" d="M650.8521,-135.9876C658.4569,-133.4359 666.7273,-130.8989 674.5,-129 772.3815,-105.0865 801.4818,-110.9781 904.573,-93.0865"/>
<polygon fill="#191970" stroke="#191970" points="905.2113,-96.528 914.4488,-91.3397 903.992,-89.635 905.2113,-96.528"/>
</g>
<!-- Node16 -->
<g id="node17" class="node">
<title>Node16</title>
<polygon fill="#ffffff" stroke="#bfbfbf" points="1023,-71.5 1023,-92.5 1078,-92.5 1078,-71.5 1023,-71.5"/>
<text text-anchor="middle" x="1050.5" y="-78.9" font-family="Helvetica,sans-Serif" font-size="12.00" fill="#000000">cassert</text>
</g>
<!-- Node4&#45;&gt;Node16 -->
<g id="edge18" class="edge">
<title>Node4&#45;&gt;Node16</title>
<path fill="none" stroke="#191970" d="M650.2504,-135.9123C658.0029,-133.2984 666.4972,-130.7494 674.5,-129 819.3384,-97.3382 863.0572,-121.6198 1012.742,-92.8169"/>
<polygon fill="#191970" stroke="#191970" points="1013.6231,-96.2106 1022.7569,-90.8417 1012.2686,-89.3429 1013.6231,-96.2106"/>
</g>
<!-- Node4&#45;&gt;Node17 -->
<g id="edge20" class="edge">
<title>Node4&#45;&gt;Node17</title>
<path fill="none" stroke="#191970" d="M660.4182,-137.9626C676.4147,-134.6647 695.286,-131.1701 712.5,-129 979.5307,-95.3372 1054.4946,-140.0337 1323.8609,-92.6849"/>
<polygon fill="#191970" stroke="#191970" points="1324.7074,-96.0892 1333.9371,-90.887 1323.4777,-89.198 1324.7074,-96.0892"/>
</g>
<!-- Node20 -->
<g id="node21" class="node">
<title>Node20</title>
<g id="a_node21"><a xlink:href="AstronomicalConstants_8h.html" target="_top" xlink:title="Defines various astronomical constants. ">
<polygon fill="#ffffff" stroke="#000000" points="1095.5,-71.5 1095.5,-92.5 1245.5,-92.5 1245.5,-71.5 1095.5,-71.5"/>
<text text-anchor="middle" x="1170.5" y="-78.9" font-family="Helvetica,sans-Serif" font-size="12.00" fill="#000000">AstronomicalConstants.h</text>
</a>
</g>
</g>
<!-- Node4&#45;&gt;Node20 -->
<g id="edge25" class="edge">
<title>Node4&#45;&gt;Node20</title>
<path fill="none" stroke="#191970" d="M649.6897,-135.996C657.5861,-133.3171 666.2948,-130.7137 674.5,-129 851.2637,-92.0821 902.0004,-112.1997 1085.438,-93.0611"/>
<polygon fill="#191970" stroke="#191970" points="1085.8418,-96.538 1095.4134,-91.9956 1085.0982,-89.5776 1085.8418,-96.538"/>
</g>
<!-- Node21 -->
<g id="node22" class="node">
<title>Node21</title>
<g id="a_node22"><a xlink:href="IncludeEigen_8h_source.html" target="_top" xlink:title="IncludeEigen.h">
<polygon fill="#ffffff" stroke="#000000" points="1405,-71.5 1405,-92.5 1502,-92.5 1502,-71.5 1405,-71.5"/>
<text text-anchor="middle" x="1453.5" y="-78.9" font-family="Helvetica,sans-Serif" font-size="12.00" fill="#000000">IncludeEigen.h</text>
</a>
</g>
</g>
<!-- Node4&#45;&gt;Node21 -->
<g id="edge26" class="edge">
<title>Node4&#45;&gt;Node21</title>
<path fill="none" stroke="#191970" d="M660.2129,-140.535C685.6575,-136.7098 720.0249,-131.929 750.5,-129 1032.9467,-101.8539 1108.7386,-127.216 1394.581,-92.9544"/>
<polygon fill="#191970" stroke="#191970" points="1395.3328,-96.3889 1404.8386,-91.7103 1394.4899,-89.4399 1395.3328,-96.3889"/>
</g>
<!-- Node17&#45;&gt;Node1 -->
<g id="edge21" class="edge">
<title>Node17&#45;&gt;Node1</title>
<path fill="none" stroke="#191970" d="M1333.9455,-73.065C1330.7898,-72.2481 1327.5918,-71.5301 1324.5,-71 1103.6719,-33.1394 424.1002,-21.5004 175.1406,-18.4534"/>
<polygon fill="#191970" stroke="#191970" points="175.0799,-14.9525 165.0384,-18.3316 174.9954,-21.952 175.0799,-14.9525"/>
</g>
<!-- Node17&#45;&gt;Node9 -->
<g id="edge22" class="edge">
<title>Node17&#45;&gt;Node9</title>
<path fill="none" stroke="#191970" d="M1341.6044,-71.4934C1322.8141,-61.0454 1293.7742,-44.8982 1272.3437,-32.9821"/>
<polygon fill="#191970" stroke="#191970" points="1273.8282,-29.8028 1263.3875,-28.0021 1270.4264,-35.9207 1273.8282,-29.8028"/>
</g>
<!-- Node18 -->
<g id="node19" class="node">
<title>Node18</title>
<polygon fill="#ffffff" stroke="#bfbfbf" points="1293.5,-7 1293.5,-28 1361.5,-28 1361.5,-7 1293.5,-7"/>
<text text-anchor="middle" x="1327.5" y="-14.4" font-family="Helvetica,sans-Serif" font-size="12.00" fill="#000000">exception</text>
</g>
<!-- Node17&#45;&gt;Node18 -->
<g id="edge23" class="edge">
<title>Node17&#45;&gt;Node18</title>
<path fill="none" stroke="#191970" d="M1355.0507,-71.3491C1350.35,-62.1613 1343.4345,-48.6447 1337.7082,-37.4524"/>
<polygon fill="#191970" stroke="#191970" points="1340.7384,-35.6906 1333.0677,-28.3823 1334.5066,-38.8789 1340.7384,-35.6906"/>
</g>
<!-- Node19 -->
<g id="node20" class="node">
<title>Node19</title>
<polygon fill="#ffffff" stroke="#bfbfbf" points="1379.5,-7 1379.5,-28 1425.5,-28 1425.5,-7 1379.5,-7"/>
<text text-anchor="middle" x="1402.5" y="-14.4" font-family="Helvetica,sans-Serif" font-size="12.00" fill="#000000">string</text>
</g>
<!-- Node17&#45;&gt;Node19 -->
<g id="edge24" class="edge">
<title>Node17&#45;&gt;Node19</title>
<path fill="none" stroke="#191970" d="M1367.4354,-71.3491C1373.5391,-61.9757 1382.5765,-48.0969 1389.9475,-36.777"/>
<polygon fill="#191970" stroke="#191970" points="1392.8901,-38.6721 1395.4139,-28.3823 1387.0241,-34.8524 1392.8901,-38.6721"/>
</g>
<!-- Node22 -->
<g id="node23" class="node">
<title>Node22</title>
<polygon fill="#ffffff" stroke="#bfbfbf" points="1443.5,-7 1443.5,-28 1529.5,-28 1529.5,-7 1443.5,-7"/>
<text text-anchor="middle" x="1486.5" y="-14.4" font-family="Helvetica,sans-Serif" font-size="12.00" fill="#000000">Eigen/Dense</text>
</g>
<!-- Node21&#45;&gt;Node22 -->
<g id="edge27" class="edge">
<title>Node21&#45;&gt;Node22</title>
<path fill="none" stroke="#191970" d="M1458.9493,-71.3491C1463.65,-62.1613 1470.5655,-48.6447 1476.2918,-37.4524"/>
<polygon fill="#191970" stroke="#191970" points="1479.4934,-38.8789 1480.9323,-28.3823 1473.2616,-35.6906 1479.4934,-38.8789"/>
</g>
</g>
</svg>
        <g id="navigator" transform="translate(0 0)" fill="#404254">
                <rect fill="#f2f5e9" fill-opacity="0.5" stroke="#606060" stroke-width=".5" x="0" y="0" width="60" height="60"/>
                <use id="zoomplus" xlink:href="#zoomPlus" x="17" y="9" onmousedown="handleZoom(evt,'in')"/>
                <use id="zoomminus" xlink:href="#zoomMin" x="42" y="9" onmousedown="handleZoom(evt,'out')"/>
                <use id="reset" xlink:href="#resetDef" x="30" y="36" onmousedown="handleReset()"/>
                <g id="arrowUp" xlink:href="#dirArrow" transform="translate(30 24)" onmousedown="handlePan(0,-1)">
                  <use xlink:href="#rim" fill="#404040">
                        <set attributeName="fill" to="#808080" begin="arrowUp.mouseover" end="arrowUp.mouseout"/>
                  </use>
                  <path fill="none" stroke="white" stroke-width="1.5" d="M0,-3.0v7 M-2.5,-0.5L0,-3.0L2.5,-0.5"/>
                </g>
                <g id="arrowRight" xlink:href="#dirArrow" transform="rotate(90) translate(36 -43)" onmousedown="handlePan(1,0)">
                  <use xlink:href="#rim" fill="#404040">
                        <set attributeName="fill" to="#808080" begin="arrowRight.mouseover" end="arrowRight.mouseout"/>
                  </use>
                  <path fill="none" stroke="white" stroke-width="1.5" d="M0,-3.0v7 M-2.5,-0.5L0,-3.0L2.5,-0.5"/>
                </g>
                <g id="arrowDown" xlink:href="#dirArrow" transform="rotate(180) translate(-30 -48)" onmousedown="handlePan(0,1)">
                  <use xlink:href="#rim" fill="#404040">
                        <set attributeName="fill" to="#808080" begin="arrowDown.mouseover" end="arrowDown.mouseout"/>
                  </use>
                  <path fill="none" stroke="white" stroke-width="1.5" d="M0,-3.0v7 M-2.5,-0.5L0,-3.0L2.5,-0.5"/>
                </g>
                <g id="arrowLeft" xlink:href="#dirArrow" transform="rotate(270) translate(-36 17)" onmousedown="handlePan(-1,0)">
                  <use xlink:href="#rim" fill="#404040">
                        <set attributeName="fill" to="#808080" begin="arrowLeft.mouseover" end="arrowLeft.mouseout"/>
                  </use>
                  <path fill="none" stroke="white" stroke-width="1.5" d="M0,-3.0v7 M-2.5,-0.5L0,-3.0L2.5,-0.5"/>
                </g>
        </g>
        <svg viewBox="0 0 15 15" width="100%" height="30px" preserveAspectRatio="xMaxYMin meet">
         <g id="arrow_out" transform="scale(0.3 0.3)">
          <a xlink:href="RemoveLogDeriv_8h__incl_org.svg" target="_base">
           <rect id="button" ry="5" rx="5" y="6" x="6" height="38" width="38"
                fill="#f2f5e9" fill-opacity="0.5" stroke="#606060" stroke-width="1.0"/>
           <path id="arrow"
             d="M 11.500037,31.436501 C 11.940474,20.09759 22.043105,11.32322 32.158766,21.979434 L 37.068811,17.246167 C 37.068811,17.246167 37.088388,32 37.088388,32 L 22.160133,31.978069 C 22.160133,31.978069 26.997745,27.140456 26.997745,27.140456 C 18.528582,18.264221 13.291696,25.230495 11.500037,31.436501 z"
             style="fill:#404040;"/>
          </a>
         </g>
        </svg>
</svg>
