<?xml version="1.0" encoding="UTF-8" standalone="no"?>
<!DOCTYPE svg PUBLIC "-//W3C//DTD SVG 1.1//EN"
 "http://www.w3.org/Graphics/SVG/1.1/DTD/svg11.dtd">
<!-- Generated by graphviz version 2.40.1 (20161225.0304)
 -->
<!-- Title: /Users/kpenev/projects/git/poet/poet_src/Star/SaturatingSkumanichWindBody.h Pages: 1 -->
<svg width="1262pt" height="413pt"
 viewBox="0.00 0.00 1261.84 413.00" xmlns="http://www.w3.org/2000/svg" xmlns:xlink="http://www.w3.org/1999/xlink">
<g id="graph0" class="graph" transform="scale(1 1) rotate(0) translate(4 409)">
<title>/Users/kpenev/projects/git/poet/poet_src/Star/SaturatingSkumanichWindBody.h</title>
<polygon fill="#ffffff" stroke="transparent" points="-4,4 -4,-409 1257.8438,-409 1257.8438,4 -4,4"/>
<!-- Node44 -->
<g id="node1" class="node">
<title>Node44</title>
<polygon fill="#bfbfbf" stroke="#000000" points="796.4189,-360.5 796.4189,-404.5 993.6318,-404.5 993.6318,-360.5 796.4189,-360.5"/>
<text text-anchor="start" x="804.4189" y="-390.9" font-family="Helvetica,sans-Serif" font-size="12.00" fill="#000000">/Users/kpenev/projects</text>
<text text-anchor="start" x="804.4189" y="-378.9" font-family="Helvetica,sans-Serif" font-size="12.00" fill="#000000">/git/poet/poet_src/Star</text>
<text text-anchor="middle" x="895.0254" y="-366.9" font-family="Helvetica,sans-Serif" font-size="12.00" fill="#000000">/SaturatingSkumanichWindBody.h</text>
</g>
<!-- Node45 -->
<g id="node2" class="node">
<title>Node45</title>
<g id="a_node2"><a xlink:href="EvolvingStar_8h.html" target="_top" xlink:title="Declares the class for stars that user pre&#45;tabulated stellar evolution tracks. ">
<polygon fill="#ffffff" stroke="#000000" points="521,-273.5 521,-317.5 659.0508,-317.5 659.0508,-273.5 521,-273.5"/>
<text text-anchor="start" x="529" y="-303.9" font-family="Helvetica,sans-Serif" font-size="12.00" fill="#000000">/Users/kpenev/projects</text>
<text text-anchor="start" x="529" y="-291.9" font-family="Helvetica,sans-Serif" font-size="12.00" fill="#000000">/git/poet/poet_src/Star</text>
<text text-anchor="middle" x="590.0254" y="-279.9" font-family="Helvetica,sans-Serif" font-size="12.00" fill="#000000">/EvolvingStar.h</text>
</a>
</g>
</g>
<!-- Node44&#45;&gt;Node45 -->
<g id="edge1" class="edge">
<title>Node44&#45;&gt;Node45</title>
<path fill="none" stroke="#191970" d="M807.7728,-357.6116C760.6383,-344.1666 703.2555,-327.7984 659.232,-315.2409"/>
<polygon fill="#191970" stroke="#191970" points="807.0902,-361.0564 817.6667,-360.4338 809.0104,-354.3249 807.0902,-361.0564"/>
</g>
<!-- Node58 -->
<g id="node15" class="node">
<title>Node58</title>
<g id="a_node15"><a xlink:href="SaturatingSkumanichWindBody_8cpp.html" target="_top" xlink:title="Definitions of some of the methods of StaturatingSkumanichWindBody. ">
<polygon fill="#ffffff" stroke="#000000" points="736.082,-186.5 736.082,-230.5 945.9688,-230.5 945.9688,-186.5 736.082,-186.5"/>
<text text-anchor="start" x="744.082" y="-216.9" font-family="Helvetica,sans-Serif" font-size="12.00" fill="#000000">/Users/kpenev/projects</text>
<text text-anchor="start" x="744.082" y="-204.9" font-family="Helvetica,sans-Serif" font-size="12.00" fill="#000000">/git/poet/poet_src/Star</text>
<text text-anchor="middle" x="841.0254" y="-192.9" font-family="Helvetica,sans-Serif" font-size="12.00" fill="#000000">/SaturatingSkumanichWindBody.cpp</text>
</a>
</g>
</g>
<!-- Node44&#45;&gt;Node58 -->
<g id="edge17" class="edge">
<title>Node44&#45;&gt;Node58</title>
<path fill="none" stroke="#191970" d="M873.7341,-351.8166C868.5478,-343.1485 863.4996,-333.4853 860.0254,-324 848.6329,-292.8966 844.0452,-254.5765 842.2155,-230.8393"/>
<polygon fill="#191970" stroke="#191970" points="870.858,-353.8185 879.1287,-360.4402 876.7926,-350.1062 870.858,-353.8185"/>
</g>
<!-- Node59 -->
<g id="node16" class="node">
<title>Node59</title>
<g id="a_node16"><a xlink:href="WindSaturationCondition_8h.html" target="_top" xlink:title="Declaration of a stopping condition monitoring for the surface spin of a star crossing the wind satur...">
<polygon fill="#ffffff" stroke="#000000" points="868.9824,-273.5 868.9824,-317.5 1031.0684,-317.5 1031.0684,-273.5 868.9824,-273.5"/>
<text text-anchor="start" x="876.9824" y="-303.9" font-family="Helvetica,sans-Serif" font-size="12.00" fill="#000000">/Users/kpenev/projects</text>
<text text-anchor="start" x="876.9824" y="-291.9" font-family="Helvetica,sans-Serif" font-size="12.00" fill="#000000">/git/poet/poet_src/Star</text>
<text text-anchor="middle" x="950.0254" y="-279.9" font-family="Helvetica,sans-Serif" font-size="12.00" fill="#000000">/WindSaturationCondition.h</text>
</a>
</g>
</g>
<!-- Node44&#45;&gt;Node59 -->
<g id="edge18" class="edge">
<title>Node44&#45;&gt;Node59</title>
<path fill="none" stroke="#191970" d="M914.6695,-351.4266C921.7562,-340.2167 929.6027,-327.8049 936.0999,-317.5276"/>
<polygon fill="#191970" stroke="#191970" points="911.5745,-349.7725 909.1893,-360.0953 917.4913,-353.513 911.5745,-349.7725"/>
</g>
<!-- Node61 -->
<g id="node18" class="node">
<title>Node61</title>
<g id="a_node18"><a xlink:href="SingleTidalTermBody_8h.html" target="_top" xlink:title="Declare a dissipative body class with a single SingleTidalTermZone. ">
<polygon fill="#ffffff" stroke="#000000" points="1058.207,-267.5 1058.207,-323.5 1253.8438,-323.5 1253.8438,-267.5 1058.207,-267.5"/>
<text text-anchor="start" x="1066.207" y="-309.9" font-family="Helvetica,sans-Serif" font-size="12.00" fill="#000000">/Users/kpenev/projects</text>
<text text-anchor="start" x="1066.207" y="-297.9" font-family="Helvetica,sans-Serif" font-size="12.00" fill="#000000">/git/poet/poet_src/unit</text>
<text text-anchor="start" x="1066.207" y="-285.9" font-family="Helvetica,sans-Serif" font-size="12.00" fill="#000000">_tests/testEvolve/SingleTidalTerm</text>
<text text-anchor="middle" x="1156.0254" y="-273.9" font-family="Helvetica,sans-Serif" font-size="12.00" fill="#000000">Body.h</text>
</a>
</g>
</g>
<!-- Node44&#45;&gt;Node61 -->
<g id="edge21" class="edge">
<title>Node44&#45;&gt;Node61</title>
<path fill="none" stroke="#191970" d="M970.8421,-357.2278C1002.4065,-346.7063 1039.1814,-334.448 1071.603,-323.6408"/>
<polygon fill="#191970" stroke="#191970" points="969.6041,-353.951 961.2241,-360.4338 971.8178,-360.5918 969.6041,-353.951"/>
</g>
<!-- Node46 -->
<g id="node3" class="node">
<title>Node46</title>
<g id="a_node3"><a xlink:href="Star_2CInterface_8h.html" target="_top" xlink:title="Declare C&#45;style functions for accessing the functionality of the Star library. ">
<polygon fill="#ffffff" stroke="#000000" points="161,-186.5 161,-230.5 299.0508,-230.5 299.0508,-186.5 161,-186.5"/>
<text text-anchor="start" x="169" y="-216.9" font-family="Helvetica,sans-Serif" font-size="12.00" fill="#000000">/Users/kpenev/projects</text>
<text text-anchor="start" x="169" y="-204.9" font-family="Helvetica,sans-Serif" font-size="12.00" fill="#000000">/git/poet/poet_src/Star</text>
<text text-anchor="middle" x="230.0254" y="-192.9" font-family="Helvetica,sans-Serif" font-size="12.00" fill="#000000">/CInterface.h</text>
</a>
</g>
</g>
<!-- Node45&#45;&gt;Node46 -->
<g id="edge2" class="edge">
<title>Node45&#45;&gt;Node46</title>
<path fill="none" stroke="#191970" d="M510.6764,-276.324C447.4011,-261.0325 359.6705,-239.8309 299.2239,-225.223"/>
<polygon fill="#191970" stroke="#191970" points="510.0714,-279.7785 520.6138,-278.7255 511.7158,-272.9743 510.0714,-279.7785"/>
</g>
<!-- Node51 -->
<g id="node8" class="node">
<title>Node51</title>
<g id="a_node8"><a xlink:href="MakeStar_8h.html" target="_top" xlink:title="Declares functions for creating stars used by unit tests. ">
<polygon fill="#ffffff" stroke="#000000" points="565.9863,-186.5 565.9863,-230.5 718.0645,-230.5 718.0645,-186.5 565.9863,-186.5"/>
<text text-anchor="start" x="573.9863" y="-216.9" font-family="Helvetica,sans-Serif" font-size="12.00" fill="#000000">/Users/kpenev/projects</text>
<text text-anchor="start" x="573.9863" y="-204.9" font-family="Helvetica,sans-Serif" font-size="12.00" fill="#000000">/git/poet/poet_src/unit</text>
<text text-anchor="middle" x="642.0254" y="-192.9" font-family="Helvetica,sans-Serif" font-size="12.00" fill="#000000">_tests/shared/MakeStar.h</text>
</a>
</g>
</g>
<!-- Node45&#45;&gt;Node51 -->
<g id="edge8" class="edge">
<title>Node45&#45;&gt;Node51</title>
<path fill="none" stroke="#191970" d="M608.598,-264.4266C615.2982,-253.2167 622.7167,-240.8049 628.8595,-230.5276"/>
<polygon fill="#191970" stroke="#191970" points="605.5429,-262.716 603.4167,-273.0953 611.5514,-266.3074 605.5429,-262.716"/>
</g>
<!-- Node56 -->
<g id="node13" class="node">
<title>Node56</title>
<g id="a_node13"><a xlink:href="testOrbitSolver_8h.html" target="_top" xlink:title="Declares the test suite that exercises the OrbitSolver class and some other clasess necessary to acco...">
<polygon fill="#ffffff" stroke="#000000" points="490.6484,-99.5 490.6484,-143.5 689.4023,-143.5 689.4023,-99.5 490.6484,-99.5"/>
<text text-anchor="start" x="498.6484" y="-129.9" font-family="Helvetica,sans-Serif" font-size="12.00" fill="#000000">/Users/kpenev/projects</text>
<text text-anchor="start" x="498.6484" y="-117.9" font-family="Helvetica,sans-Serif" font-size="12.00" fill="#000000">/git/poet/poet_src/unit</text>
<text text-anchor="middle" x="590.0254" y="-105.9" font-family="Helvetica,sans-Serif" font-size="12.00" fill="#000000">_tests/testEvolve/testOrbitSolver.h</text>
</a>
</g>
</g>
<!-- Node45&#45;&gt;Node56 -->
<g id="edge16" class="edge">
<title>Node45&#45;&gt;Node56</title>
<path fill="none" stroke="#191970" d="M570.33,-264.3171C564.9148,-254.0959 559.7777,-242.4221 557.0254,-231 552.3403,-211.5565 552.3403,-205.4435 557.0254,-186 560.6202,-171.0813 568.2834,-155.7333 575.3209,-143.7534"/>
<polygon fill="#191970" stroke="#191970" points="567.3868,-266.2252 575.3209,-273.2466 573.4972,-262.8099 567.3868,-266.2252"/>
</g>
<!-- Node47 -->
<g id="node4" class="node">
<title>Node47</title>
<g id="a_node4"><a xlink:href="Evolve_2CInterface_8h.html" target="_top" xlink:title="Declare C&#45;style functions for accessing the functionality of the Evolve library. ">
<polygon fill="#ffffff" stroke="#000000" points="156.3213,-99.5 156.3213,-143.5 303.7295,-143.5 303.7295,-99.5 156.3213,-99.5"/>
<text text-anchor="start" x="164.3213" y="-129.9" font-family="Helvetica,sans-Serif" font-size="12.00" fill="#000000">/Users/kpenev/projects</text>
<text text-anchor="start" x="164.3213" y="-117.9" font-family="Helvetica,sans-Serif" font-size="12.00" fill="#000000">/git/poet/poet_src/Evolve</text>
<text text-anchor="middle" x="230.0254" y="-105.9" font-family="Helvetica,sans-Serif" font-size="12.00" fill="#000000">/CInterface.h</text>
</a>
</g>
</g>
<!-- Node46&#45;&gt;Node47 -->
<g id="edge3" class="edge">
<title>Node46&#45;&gt;Node47</title>
<path fill="none" stroke="#191970" d="M230.0254,-176.0893C230.0254,-165.2369 230.0254,-153.3979 230.0254,-143.5276"/>
<polygon fill="#191970" stroke="#191970" points="226.5255,-176.0953 230.0254,-186.0953 233.5255,-176.0954 226.5255,-176.0953"/>
</g>
<!-- Node50 -->
<g id="node7" class="node">
<title>Node50</title>
<g id="a_node7"><a xlink:href="Star_2CInterface_8cpp.html" target="_top" xlink:title="The definitions of the functions declared in CInterface.h. ">
<polygon fill="#ffffff" stroke="#000000" points="0,-6.5 0,-50.5 138.0508,-50.5 138.0508,-6.5 0,-6.5"/>
<text text-anchor="start" x="8" y="-36.9" font-family="Helvetica,sans-Serif" font-size="12.00" fill="#000000">/Users/kpenev/projects</text>
<text text-anchor="start" x="8" y="-24.9" font-family="Helvetica,sans-Serif" font-size="12.00" fill="#000000">/git/poet/poet_src/Star</text>
<text text-anchor="middle" x="69.0254" y="-12.9" font-family="Helvetica,sans-Serif" font-size="12.00" fill="#000000">/CInterface.cpp</text>
</a>
</g>
</g>
<!-- Node46&#45;&gt;Node50 -->
<g id="edge7" class="edge">
<title>Node46&#45;&gt;Node50</title>
<path fill="none" stroke="#191970" d="M183.4609,-180.386C170.8416,-171.5592 157.725,-161.1726 147.0254,-150 117.8988,-119.5859 93.409,-76.7646 80.0141,-50.9188"/>
<polygon fill="#191970" stroke="#191970" points="181.8425,-183.5176 192.0822,-186.2382 185.774,-177.7259 181.8425,-183.5176"/>
</g>
<!-- Node48 -->
<g id="node5" class="node">
<title>Node48</title>
<g id="a_node5"><a xlink:href="Evolve_2CInterface_8cpp.html" target="_top" xlink:title="The definitions of the functions declared in CInterface.h. ">
<polygon fill="#ffffff" stroke="#000000" points="156.3213,-6.5 156.3213,-50.5 303.7295,-50.5 303.7295,-6.5 156.3213,-6.5"/>
<text text-anchor="start" x="164.3213" y="-36.9" font-family="Helvetica,sans-Serif" font-size="12.00" fill="#000000">/Users/kpenev/projects</text>
<text text-anchor="start" x="164.3213" y="-24.9" font-family="Helvetica,sans-Serif" font-size="12.00" fill="#000000">/git/poet/poet_src/Evolve</text>
<text text-anchor="middle" x="230.0254" y="-12.9" font-family="Helvetica,sans-Serif" font-size="12.00" fill="#000000">/CInterface.cpp</text>
</a>
</g>
</g>
<!-- Node47&#45;&gt;Node48 -->
<g id="edge4" class="edge">
<title>Node47&#45;&gt;Node48</title>
<path fill="none" stroke="#191970" d="M230.0254,-89.2412C230.0254,-76.5215 230.0254,-62.2283 230.0254,-50.7038"/>
<polygon fill="#191970" stroke="#191970" points="226.5255,-89.4603 230.0254,-99.4603 233.5255,-89.4603 226.5255,-89.4603"/>
</g>
<!-- Node49 -->
<g id="node6" class="node">
<title>Node49</title>
<g id="a_node6"><a xlink:href="Planet_2CInterface_8cpp.html" target="_top" xlink:title="The definitions of the functions declared in CInterface.h. ">
<polygon fill="#ffffff" stroke="#000000" points="321.3174,-6.5 321.3174,-50.5 466.7334,-50.5 466.7334,-6.5 321.3174,-6.5"/>
<text text-anchor="start" x="329.3174" y="-36.9" font-family="Helvetica,sans-Serif" font-size="12.00" fill="#000000">/Users/kpenev/projects</text>
<text text-anchor="start" x="329.3174" y="-24.9" font-family="Helvetica,sans-Serif" font-size="12.00" fill="#000000">/git/poet/poet_src/Planet</text>
<text text-anchor="middle" x="394.0254" y="-12.9" font-family="Helvetica,sans-Serif" font-size="12.00" fill="#000000">/CInterface.cpp</text>
</a>
</g>
</g>
<!-- Node47&#45;&gt;Node49 -->
<g id="edge5" class="edge">
<title>Node47&#45;&gt;Node49</title>
<path fill="none" stroke="#191970" d="M277.7083,-94.4603C302.3161,-80.5059 331.9547,-63.6986 355.1548,-50.5425"/>
<polygon fill="#191970" stroke="#191970" points="275.8633,-91.4829 268.8911,-99.4603 279.3163,-97.572 275.8633,-91.4829"/>
</g>
<!-- Node47&#45;&gt;Node50 -->
<g id="edge6" class="edge">
<title>Node47&#45;&gt;Node50</title>
<path fill="none" stroke="#191970" d="M182.8966,-94.2765C158.802,-80.3585 129.8607,-63.6409 107.1849,-50.5425"/>
<polygon fill="#191970" stroke="#191970" points="181.4608,-97.4891 191.8706,-99.4603 184.9621,-91.4277 181.4608,-97.4891"/>
</g>
<!-- Node52 -->
<g id="node9" class="node">
<title>Node52</title>
<g id="a_node9"><a xlink:href="MakeStar_8cpp.html" target="_top" xlink:title="Implement the functions defined in MakeStar.h. ">
<polygon fill="#ffffff" stroke="#000000" points="707.6494,-99.5 707.6494,-143.5 872.4014,-143.5 872.4014,-99.5 707.6494,-99.5"/>
<text text-anchor="start" x="715.6494" y="-129.9" font-family="Helvetica,sans-Serif" font-size="12.00" fill="#000000">/Users/kpenev/projects</text>
<text text-anchor="start" x="715.6494" y="-117.9" font-family="Helvetica,sans-Serif" font-size="12.00" fill="#000000">/git/poet/poet_src/unit</text>
<text text-anchor="middle" x="790.0254" y="-105.9" font-family="Helvetica,sans-Serif" font-size="12.00" fill="#000000">_tests/shared/MakeStar.cpp</text>
</a>
</g>
</g>
<!-- Node51&#45;&gt;Node52 -->
<g id="edge9" class="edge">
<title>Node51&#45;&gt;Node52</title>
<path fill="none" stroke="#191970" d="M688.6312,-181.1033C709.1664,-169.032 732.9786,-155.0343 752.3647,-143.6384"/>
<polygon fill="#191970" stroke="#191970" points="686.6021,-178.2361 679.755,-186.3211 690.1495,-184.2707 686.6021,-178.2361"/>
</g>
<!-- Node53 -->
<g id="node10" class="node">
<title>Node53</title>
<g id="a_node10"><a xlink:href="testDifferentialEquations_8h.html" target="_top" xlink:title="Unit tests that check the differential equations for eccentricity and semimajor against analytic expr...">
<polygon fill="#ffffff" stroke="#000000" points="904.7598,-93.5 904.7598,-149.5 1091.291,-149.5 1091.291,-93.5 904.7598,-93.5"/>
<text text-anchor="start" x="912.7598" y="-135.9" font-family="Helvetica,sans-Serif" font-size="12.00" fill="#000000">/Users/kpenev/projects</text>
<text text-anchor="start" x="912.7598" y="-123.9" font-family="Helvetica,sans-Serif" font-size="12.00" fill="#000000">/git/poet/poet_src/unit</text>
<text text-anchor="start" x="912.7598" y="-111.9" font-family="Helvetica,sans-Serif" font-size="12.00" fill="#000000">_tests/testEvolve/testDifferential</text>
<text text-anchor="middle" x="998.0254" y="-99.9" font-family="Helvetica,sans-Serif" font-size="12.00" fill="#000000">Equations.h</text>
</a>
</g>
</g>
<!-- Node51&#45;&gt;Node53 -->
<g id="edge10" class="edge">
<title>Node51&#45;&gt;Node53</title>
<path fill="none" stroke="#191970" d="M728.4514,-185.6725C796.898,-168.736 815.7273,-165.5849 881.0254,-150 888.6511,-148.1799 896.5533,-146.2816 904.4873,-144.3669"/>
<polygon fill="#191970" stroke="#191970" points="727.3149,-182.3484 718.454,-188.1565 729.0029,-189.1418 727.3149,-182.3484"/>
</g>
<!-- Node51&#45;&gt;Node56 -->
<g id="edge13" class="edge">
<title>Node51&#45;&gt;Node56</title>
<path fill="none" stroke="#191970" d="M623.4528,-177.4266C616.7526,-166.2167 609.3341,-153.8049 603.1913,-143.5276"/>
<polygon fill="#191970" stroke="#191970" points="620.4993,-179.3074 628.6341,-186.0953 626.5079,-175.716 620.4993,-179.3074"/>
</g>
<!-- Node54 -->
<g id="node11" class="node">
<title>Node54</title>
<g id="a_node11"><a xlink:href="testDifferentialEquations_8cpp.html" target="_top" xlink:title="Implement the non&#45;inline methods of test_DifferentialEquations. ">
<polygon fill="#ffffff" stroke="#000000" points="919.7598,-.5 919.7598,-56.5 1106.291,-56.5 1106.291,-.5 919.7598,-.5"/>
<text text-anchor="start" x="927.7598" y="-42.9" font-family="Helvetica,sans-Serif" font-size="12.00" fill="#000000">/Users/kpenev/projects</text>
<text text-anchor="start" x="927.7598" y="-30.9" font-family="Helvetica,sans-Serif" font-size="12.00" fill="#000000">/git/poet/poet_src/unit</text>
<text text-anchor="start" x="927.7598" y="-18.9" font-family="Helvetica,sans-Serif" font-size="12.00" fill="#000000">_tests/testEvolve/testDifferential</text>
<text text-anchor="middle" x="1013.0254" y="-6.9" font-family="Helvetica,sans-Serif" font-size="12.00" fill="#000000">Equations.cpp</text>
</a>
</g>
</g>
<!-- Node53&#45;&gt;Node54 -->
<g id="edge11" class="edge">
<title>Node53&#45;&gt;Node54</title>
<path fill="none" stroke="#191970" d="M1004.1627,-83.4485C1005.6137,-74.4526 1007.135,-65.0203 1008.4996,-56.5597"/>
<polygon fill="#191970" stroke="#191970" points="1000.7037,-82.9148 1002.5666,-93.3446 1007.6143,-84.0295 1000.7037,-82.9148"/>
</g>
<!-- Node55 -->
<g id="node12" class="node">
<title>Node55</title>
<g id="a_node12"><a xlink:href="testEvolve_8cpp_source.html" target="_top" xlink:title="/Users/kpenev/projects\l/git/poet/poet_src/unit\l_tests/testEvolve/testEvolve.cpp">
<polygon fill="#ffffff" stroke="#000000" points="713.9834,-6.5 713.9834,-50.5 902.0674,-50.5 902.0674,-6.5 713.9834,-6.5"/>
<text text-anchor="start" x="721.9834" y="-36.9" font-family="Helvetica,sans-Serif" font-size="12.00" fill="#000000">/Users/kpenev/projects</text>
<text text-anchor="start" x="721.9834" y="-24.9" font-family="Helvetica,sans-Serif" font-size="12.00" fill="#000000">/git/poet/poet_src/unit</text>
<text text-anchor="middle" x="808.0254" y="-12.9" font-family="Helvetica,sans-Serif" font-size="12.00" fill="#000000">_tests/testEvolve/testEvolve.cpp</text>
</a>
</g>
</g>
<!-- Node53&#45;&gt;Node55 -->
<g id="edge12" class="edge">
<title>Node53&#45;&gt;Node55</title>
<path fill="none" stroke="#191970" d="M931.7156,-89.0431C905.7277,-76.3227 876.5787,-62.0551 853.1078,-50.5666"/>
<polygon fill="#191970" stroke="#191970" points="930.2409,-92.218 940.7615,-93.4708 933.3184,-85.9308 930.2409,-92.218"/>
</g>
<!-- Node56&#45;&gt;Node55 -->
<g id="edge14" class="edge">
<title>Node56&#45;&gt;Node55</title>
<path fill="none" stroke="#191970" d="M651.2665,-95.3742C684.387,-81.2448 724.8405,-63.9871 756.356,-50.5425"/>
<polygon fill="#191970" stroke="#191970" points="649.513,-92.317 641.6883,-99.4603 652.2597,-98.7556 649.513,-92.317"/>
</g>
<!-- Node57 -->
<g id="node14" class="node">
<title>Node57</title>
<g id="a_node14"><a xlink:href="testOrbitSolver_8cpp.html" target="_top" xlink:title="Defines some of the methods of the test suite that exercises the OrbitSolver class and the other clas...">
<polygon fill="#ffffff" stroke="#000000" points="484.3115,-6.5 484.3115,-50.5 695.7393,-50.5 695.7393,-6.5 484.3115,-6.5"/>
<text text-anchor="start" x="492.3115" y="-36.9" font-family="Helvetica,sans-Serif" font-size="12.00" fill="#000000">/Users/kpenev/projects</text>
<text text-anchor="start" x="492.3115" y="-24.9" font-family="Helvetica,sans-Serif" font-size="12.00" fill="#000000">/git/poet/poet_src/unit</text>
<text text-anchor="middle" x="590.0254" y="-12.9" font-family="Helvetica,sans-Serif" font-size="12.00" fill="#000000">_tests/testEvolve/testOrbitSolver.cpp</text>
</a>
</g>
</g>
<!-- Node56&#45;&gt;Node57 -->
<g id="edge15" class="edge">
<title>Node56&#45;&gt;Node57</title>
<path fill="none" stroke="#191970" d="M590.0254,-89.2412C590.0254,-76.5215 590.0254,-62.2283 590.0254,-50.7038"/>
<polygon fill="#191970" stroke="#191970" points="586.5255,-89.4603 590.0254,-99.4603 593.5255,-89.4603 586.5255,-89.4603"/>
</g>
<!-- Node59&#45;&gt;Node58 -->
<g id="edge19" class="edge">
<title>Node59&#45;&gt;Node58</title>
<path fill="none" stroke="#191970" d="M914.2696,-266.961C899.4792,-255.1558 882.5914,-241.6765 868.762,-230.6384"/>
<polygon fill="#191970" stroke="#191970" points="912.239,-269.8184 922.2381,-273.3211 916.6057,-264.3474 912.239,-269.8184"/>
</g>
<!-- Node60 -->
<g id="node17" class="node">
<title>Node60</title>
<g id="a_node17"><a xlink:href="WindSaturationCondition_8cpp.html" target="_top" xlink:title="Definitions of some of the methods of WindSaturationCondition. ">
<polygon fill="#ffffff" stroke="#000000" points="963.6455,-186.5 963.6455,-230.5 1138.4053,-230.5 1138.4053,-186.5 963.6455,-186.5"/>
<text text-anchor="start" x="971.6455" y="-216.9" font-family="Helvetica,sans-Serif" font-size="12.00" fill="#000000">/Users/kpenev/projects</text>
<text text-anchor="start" x="971.6455" y="-204.9" font-family="Helvetica,sans-Serif" font-size="12.00" fill="#000000">/git/poet/poet_src/Star</text>
<text text-anchor="middle" x="1051.0254" y="-192.9" font-family="Helvetica,sans-Serif" font-size="12.00" fill="#000000">/WindSaturationCondition.cpp</text>
</a>
</g>
</g>
<!-- Node59&#45;&gt;Node60 -->
<g id="edge20" class="edge">
<title>Node59&#45;&gt;Node60</title>
<path fill="none" stroke="#191970" d="M983.5381,-266.6327C997.1513,-254.9064 1012.6287,-241.5743 1025.3245,-230.6384"/>
<polygon fill="#191970" stroke="#191970" points="981.0657,-264.1428 975.7733,-273.3211 985.6342,-269.4465 981.0657,-264.1428"/>
</g>
<!-- Node61&#45;&gt;Node53 -->
<g id="edge22" class="edge">
<title>Node61&#45;&gt;Node53</title>
<path fill="none" stroke="#191970" d="M1162.1011,-257.1699C1163.6012,-234.4796 1161.5814,-206.2973 1147.0254,-186 1133.3909,-166.9877 1112.935,-153.5236 1091.5142,-144.0086"/>
<polygon fill="#191970" stroke="#191970" points="1158.6126,-256.8857 1161.1965,-267.1606 1165.5841,-257.517 1158.6126,-256.8857"/>
</g>
</g>
</svg>
