<?xml version="1.0" encoding="UTF-8" standalone="no"?>
<!DOCTYPE svg PUBLIC "-//W3C//DTD SVG 1.1//EN"
 "http://www.w3.org/Graphics/SVG/1.1/DTD/svg11.dtd">
<!-- Generated by graphviz version 2.40.1 (20161225.0304)
 -->
<!-- Title: /home/kpenev/projects/git/poet/poet_src/Star/CInterface.cpp Pages: 1 -->
<!--zoomable 617 -->
<svg id="main" version="1.1" xmlns="http://www.w3.org/2000/svg" xmlns:xlink="http://www.w3.org/1999/xlink" xml:space="preserve" onload="init(evt)">
<style type="text/css"><![CDATA[
.edge:hover path { stroke: red; }
.edge:hover polygon { stroke: red; fill: red; }
]]></style>
<script type="text/javascript"><![CDATA[
var edges = document.getElementsByTagName('g');
if (edges && edges.length) {
  for (var i=0;i<edges.length;i++) {
    if (edges[i].id.substr(0,4)=='edge') {
      edges[i].setAttribute('class','edge');
    }
  }
}
]]></script>
        <defs>
                <circle id="rim" cx="0" cy="0" r="7"/>
                <circle id="rim2" cx="0" cy="0" r="3.5"/>
                <g id="zoomPlus">
                        <use xlink:href="#rim" fill="#404040">
                                <set attributeName="fill" to="#808080" begin="zoomplus.mouseover" end="zoomplus.mouseout"/>
                        </use>
                        <path d="M-4,0h8M0,-4v8" fill="none" stroke="white" stroke-width="1.5" pointer-events="none"/>
                </g>
                <g id="zoomMin">
                        <use xlink:href="#rim" fill="#404040">
                                <set attributeName="fill" to="#808080" begin="zoomminus.mouseover" end="zoomminus.mouseout"/>
                        </use>
                        <path d="M-4,0h8" fill="none" stroke="white" stroke-width="1.5" pointer-events="none"/>
                </g>
                <g id="dirArrow">
                        <path fill="none" stroke="white" stroke-width="1.5" d="M0,-3.0v7 M-2.5,-0.5L0,-3.0L2.5,-0.5"/>
                </g>
               <g id="resetDef">
                       <use xlink:href="#rim2" fill="#404040">
                               <set attributeName="fill" to="#808080" begin="reset.mouseover" end="reset.mouseout"/>
                       </use>
               </g>
        </defs>

<script type="text/javascript">
var viewWidth = 3599;
var viewHeight = 617;
var sectionId = 'dynsection-0';
</script>
<script xlink:href="svgpan.js"/>
<svg id="graph" class="graph">
<g id="viewport">
<title>/home/kpenev/projects/git/poet/poet_src/Star/CInterface.cpp</title>
<polygon fill="#ffffff" stroke="transparent" points="-4,4 -4,-613 3594.7916,-613 3594.7916,4 -4,4"/>
<!-- Node0 -->
<g id="node1" class="node">
<title>Node0</title>
<polygon fill="#bfbfbf" stroke="#000000" points="1938.7327,-561.5 1938.7327,-608.5 2075.7327,-608.5 2075.7327,-561.5 1938.7327,-561.5"/>
<text text-anchor="start" x="1946.7327" y="-594.9" font-family="Helvetica,sans-Serif" font-size="12.00" fill="#000000">/home/kpenev/projects</text>
<text text-anchor="start" x="1946.7327" y="-581.9" font-family="Helvetica,sans-Serif" font-size="12.00" fill="#000000">/git/poet/poet_src/Star</text>
<text text-anchor="middle" x="2007.2327" y="-568.9" font-family="Helvetica,sans-Serif" font-size="12.00" fill="#000000">/CInterface.cpp</text>
</g>
<!-- Node1 -->
<g id="node2" class="node">
<title>Node1</title>
<g id="a_node2"><a xlink:href="Star_2CInterface_8h.html" target="_top" xlink:title="Declare C&#45;style functions for accessing the functionality of the Star library. ">
<polygon fill="#ffffff" stroke="#000000" points="1616.7327,-445.5 1616.7327,-466.5 1697.7327,-466.5 1697.7327,-445.5 1616.7327,-445.5"/>
<text text-anchor="middle" x="1657.2327" y="-452.9" font-family="Helvetica,sans-Serif" font-size="12.00" fill="#000000">CInterface.h</text>
</a>
</g>
</g>
<!-- Node0&#45;&gt;Node1 -->
<g id="edge1" class="edge">
<title>Node0&#45;&gt;Node1</title>
<path fill="none" stroke="#191970" d="M1943.4442,-561.4894C1870.9759,-534.7796 1755.0631,-492.0575 1695.4226,-470.0757"/>
<polygon fill="#191970" stroke="#191970" points="1696.5958,-466.778 1686.0024,-466.6037 1694.175,-473.3461 1696.5958,-466.778"/>
</g>
<!-- Node84 -->
<g id="node40" class="node">
<title>Node84</title>
<g id="a_node40"><a xlink:href="Evolve_2CInterface_8h.html" target="_top" xlink:title="Declare C&#45;style functions for accessing the functionality of the Evolve library. ">
<polygon fill="#ffffff" stroke="#000000" points="2410.2327,-503.5 2410.2327,-524.5 2540.2327,-524.5 2540.2327,-503.5 2410.2327,-503.5"/>
<text text-anchor="middle" x="2475.2327" y="-510.9" font-family="Helvetica,sans-Serif" font-size="12.00" fill="#000000">../Evolve/CInterface.h</text>
</a>
</g>
</g>
<!-- Node0&#45;&gt;Node84 -->
<g id="edge96" class="edge">
<title>Node0&#45;&gt;Node84</title>
<path fill="none" stroke="#191970" d="M2075.7851,-574.6C2162.2045,-561.4893 2310.2631,-539.0274 2399.8096,-525.4424"/>
<polygon fill="#191970" stroke="#191970" points="2400.5334,-528.8727 2409.8953,-523.9123 2399.4834,-521.9519 2400.5334,-528.8727"/>
</g>
<!-- Node2 -->
<g id="node3" class="node">
<title>Node2</title>
<g id="a_node3"><a xlink:href="StellarEvolution_2CInterface_8h.html" target="_top" xlink:title="Declare C&#45;style functions for accessing the functionality of the StellarEvolution library...">
<polygon fill="#ffffff" stroke="#000000" points="1015.2327,-316.5 1015.2327,-350.5 1125.2327,-350.5 1125.2327,-316.5 1015.2327,-316.5"/>
<text text-anchor="start" x="1023.2327" y="-336.9" font-family="Helvetica,sans-Serif" font-size="12.00" fill="#000000">../StellarEvolution</text>
<text text-anchor="middle" x="1070.2327" y="-323.9" font-family="Helvetica,sans-Serif" font-size="12.00" fill="#000000">/CInterface.h</text>
</a>
</g>
</g>
<!-- Node1&#45;&gt;Node2 -->
<g id="edge2" class="edge">
<title>Node1&#45;&gt;Node2</title>
<path fill="none" stroke="#191970" d="M1616.6602,-451.1354C1558.1382,-443.8005 1446.7855,-428.6519 1353.2327,-409 1277.6114,-393.1148 1192.0515,-369.4859 1134.9969,-352.9035"/>
<polygon fill="#191970" stroke="#191970" points="1135.9686,-349.5412 1125.3885,-350.0992 1134.0074,-356.2608 1135.9686,-349.5412"/>
</g>
<!-- Node3 -->
<g id="node4" class="node">
<title>Node3</title>
<g id="a_node4"><a xlink:href="SharedLibraryExportMacros_8h_source.html" target="_top" xlink:title="../Core/SharedLibraryExport\lMacros.h">
<polygon fill="#ffffff" stroke="#000000" points="1906.7327,-.5 1906.7327,-34.5 2071.7327,-34.5 2071.7327,-.5 1906.7327,-.5"/>
<text text-anchor="start" x="1914.7327" y="-20.9" font-family="Helvetica,sans-Serif" font-size="12.00" fill="#000000">../Core/SharedLibraryExport</text>
<text text-anchor="middle" x="1989.2327" y="-7.9" font-family="Helvetica,sans-Serif" font-size="12.00" fill="#000000">Macros.h</text>
</a>
</g>
</g>
<!-- Node1&#45;&gt;Node3 -->
<g id="edge52" class="edge">
<title>Node1&#45;&gt;Node3</title>
<path fill="none" stroke="#191970" d="M1616.5385,-451.018C1561.9234,-441.9041 1466.8563,-416.9599 1424.2327,-351 1399.7659,-313.1378 1338.9813,-194.9561 1477.2327,-71 1507.7442,-43.6434 1757.3429,-28.0246 1896.4392,-21.3666"/>
<polygon fill="#191970" stroke="#191970" points="1896.8453,-24.8514 1906.6691,-20.8835 1896.5151,-17.8592 1896.8453,-24.8514"/>
</g>
<!-- Node54 -->
<g id="node26" class="node">
<title>Node54</title>
<g id="a_node26"><a xlink:href="EvolvingStar_8h.html" target="_top" xlink:title="Declares the class for stars that user pre&#45;tabulated stellar evolution tracks. ">
<polygon fill="#ffffff" stroke="#000000" points="1571.7327,-387.5 1571.7327,-408.5 1666.7327,-408.5 1666.7327,-387.5 1571.7327,-387.5"/>
<text text-anchor="middle" x="1619.2327" y="-394.9" font-family="Helvetica,sans-Serif" font-size="12.00" fill="#000000">EvolvingStar.h</text>
</a>
</g>
</g>
<!-- Node1&#45;&gt;Node54 -->
<g id="edge53" class="edge">
<title>Node1&#45;&gt;Node54</title>
<path fill="none" stroke="#191970" d="M1650.2629,-445.3619C1645.067,-437.4313 1637.8321,-426.3885 1631.6552,-416.9606"/>
<polygon fill="#191970" stroke="#191970" points="1634.5662,-415.0172 1626.1583,-408.5707 1628.711,-418.8534 1634.5662,-415.0172"/>
</g>
<!-- Node59 -->
<g id="node36" class="node">
<title>Node59</title>
<g id="a_node36"><a xlink:href="DissipationQuantities_8h.html" target="_top" xlink:title="Declaration of enumerations of dissipation quantities and derivatives. ">
<polygon fill="#ffffff" stroke="#000000" points="1745.2327,-136 1745.2327,-157 1885.2327,-157 1885.2327,-136 1745.2327,-136"/>
<text text-anchor="middle" x="1815.2327" y="-143.4" font-family="Helvetica,sans-Serif" font-size="12.00" fill="#000000">DissipationQuantities.h</text>
</a>
</g>
</g>
<!-- Node1&#45;&gt;Node59 -->
<g id="edge95" class="edge">
<title>Node1&#45;&gt;Node59</title>
<path fill="none" stroke="#191970" d="M1663.0041,-445.203C1673.6344,-424.2779 1695.2327,-376.4755 1695.2327,-333.5 1695.2327,-333.5 1695.2327,-333.5 1695.2327,-269 1695.2327,-218.7145 1747.4714,-181.4577 1783.0157,-161.9276"/>
<polygon fill="#191970" stroke="#191970" points="1784.8957,-164.8926 1792.0955,-157.1199 1781.6201,-158.7062 1784.8957,-164.8926"/>
</g>
<!-- Node2&#45;&gt;Node3 -->
<g id="edge3" class="edge">
<title>Node2&#45;&gt;Node3</title>
<path fill="none" stroke="#191970" d="M1083.9977,-316.4962C1125.3284,-266.9561 1254.4647,-122.9719 1399.2327,-71 1488.271,-39.0352 1754.0068,-25.3836 1896.5155,-20.2316"/>
<polygon fill="#191970" stroke="#191970" points="1896.6895,-23.7278 1906.559,-19.8753 1896.4412,-16.7322 1896.6895,-23.7278"/>
</g>
<!-- Node4 -->
<g id="node5" class="node">
<title>Node4</title>
<g id="a_node5"><a xlink:href="MESAIO_8h.html" target="_top" xlink:title="Defines the classes for generating stellar evolution interpolators from the MESA tracks. ">
<polygon fill="#ffffff" stroke="#000000" points="671.7327,-258.5 671.7327,-279.5 744.7327,-279.5 744.7327,-258.5 671.7327,-258.5"/>
<text text-anchor="middle" x="708.2327" y="-265.9" font-family="Helvetica,sans-Serif" font-size="12.00" fill="#000000">MESAIO.h</text>
</a>
</g>
</g>
<!-- Node2&#45;&gt;Node4 -->
<g id="edge4" class="edge">
<title>Node2&#45;&gt;Node4</title>
<path fill="none" stroke="#191970" d="M1014.8586,-323.6336C943.7935,-310.9715 821.7457,-289.2254 755.0721,-277.3457"/>
<polygon fill="#191970" stroke="#191970" points="755.3221,-273.8352 744.8632,-275.5267 754.0941,-280.7267 755.3221,-273.8352"/>
</g>
<!-- Node4&#45;&gt;Node3 -->
<g id="edge5" class="edge">
<title>Node4&#45;&gt;Node3</title>
<path fill="none" stroke="#191970" d="M745.0439,-267.1716C828.5421,-261.7429 1036.9422,-240.9049 1190.2327,-164 1246.5503,-135.7458 1239.1092,-95.3235 1297.2327,-71 1351.1393,-48.4412 1720.6874,-29.3513 1896.5693,-21.4262"/>
<polygon fill="#191970" stroke="#191970" points="1896.7563,-24.9214 1906.5896,-20.9773 1896.4429,-17.9284 1896.7563,-24.9214"/>
</g>
<!-- Node5 -->
<g id="node6" class="node">
<title>Node5</title>
<g id="a_node6"><a xlink:href="Interpolator_8h.html" target="_top" xlink:title="Defines the StellarEvolution class needed for interpolating among stellar evolution tracks...">
<polygon fill="#ffffff" stroke="#ff0000" points="769.2327,-200.5 769.2327,-221.5 855.2327,-221.5 855.2327,-200.5 769.2327,-200.5"/>
<text text-anchor="middle" x="812.2327" y="-207.9" font-family="Helvetica,sans-Serif" font-size="12.00" fill="#000000">Interpolator.h</text>
</a>
</g>
</g>
<!-- Node4&#45;&gt;Node5 -->
<g id="edge6" class="edge">
<title>Node4&#45;&gt;Node5</title>
<path fill="none" stroke="#191970" d="M727.3079,-258.3619C743.2874,-249.4502 766.3137,-236.6087 784.3594,-226.5447"/>
<polygon fill="#191970" stroke="#191970" points="786.2495,-229.4982 793.2784,-221.5707 782.84,-223.3846 786.2495,-229.4982"/>
</g>
<!-- Node24 -->
<g id="node8" class="node">
<title>Node24</title>
<g id="a_node8"><a xlink:href="Error_8h.html" target="_top" xlink:title="Defines the exception hierarchy used by this code. ">
<polygon fill="#ffffff" stroke="#ff0000" points="923.7327,-71.5 923.7327,-92.5 976.7327,-92.5 976.7327,-71.5 923.7327,-71.5"/>
<text text-anchor="middle" x="950.2327" y="-78.9" font-family="Helvetica,sans-Serif" font-size="12.00" fill="#000000">Error.h</text>
</a>
</g>
</g>
<!-- Node4&#45;&gt;Node24 -->
<g id="edge41" class="edge">
<title>Node4&#45;&gt;Node24</title>
<path fill="none" stroke="#191970" d="M671.6616,-266.1227C570.4664,-256.8999 299.761,-222.9774 386.2327,-129 421.9137,-90.2219 793.85,-83.4304 913.4285,-82.2477"/>
<polygon fill="#191970" stroke="#191970" points="913.5821,-85.7465 923.5497,-82.1552 913.5181,-78.7468 913.5821,-85.7465"/>
</g>
<!-- Node16 -->
<g id="node9" class="node">
<title>Node16</title>
<polygon fill="#ffffff" stroke="#bfbfbf" points="958.2327,-7 958.2327,-28 1020.2327,-28 1020.2327,-7 958.2327,-7"/>
<text text-anchor="middle" x="989.2327" y="-14.4" font-family="Helvetica,sans-Serif" font-size="12.00" fill="#000000">iostream</text>
</g>
<!-- Node4&#45;&gt;Node16 -->
<g id="edge43" class="edge">
<title>Node4&#45;&gt;Node16</title>
<path fill="none" stroke="#191970" d="M671.3997,-266.8944C572.8222,-260.9956 308.2038,-243.3364 275.2327,-222 238.2852,-198.0904 231.4191,-171.9009 241.2327,-129 247.6156,-101.0963 245.5692,-87.1059 269.2327,-71 325.4013,-32.7703 802.92,-20.9208 947.7553,-18.1894"/>
<polygon fill="#191970" stroke="#191970" points="948.0581,-21.6845 957.992,-18.0012 947.9293,-14.6857 948.0581,-21.6845"/>
</g>
<!-- Node26 -->
<g id="node10" class="node">
<title>Node26</title>
<polygon fill="#ffffff" stroke="#bfbfbf" points="170.2327,-7 170.2327,-28 216.2327,-28 216.2327,-7 170.2327,-7"/>
<text text-anchor="middle" x="193.2327" y="-14.4" font-family="Helvetica,sans-Serif" font-size="12.00" fill="#000000">string</text>
</g>
<!-- Node4&#45;&gt;Node26 -->
<g id="edge46" class="edge">
<title>Node4&#45;&gt;Node26</title>
<path fill="none" stroke="#191970" d="M671.4177,-267.8784C531.4041,-263.437 38.7894,-246.1407 16.2327,-222 -47.7798,-153.4924 95.7535,-67.4391 162.0067,-32.8912"/>
<polygon fill="#191970" stroke="#191970" points="163.891,-35.8581 171.1872,-28.1759 160.6928,-29.6314 163.891,-35.8581"/>
</g>
<!-- Node43 -->
<g id="node12" class="node">
<title>Node43</title>
<polygon fill="#ffffff" stroke="#bfbfbf" points="278.2327,-71.5 278.2327,-92.5 334.2327,-92.5 334.2327,-71.5 278.2327,-71.5"/>
<text text-anchor="middle" x="306.2327" y="-78.9" font-family="Helvetica,sans-Serif" font-size="12.00" fill="#000000">fstream</text>
</g>
<!-- Node4&#45;&gt;Node43 -->
<g id="edge45" class="edge">
<title>Node4&#45;&gt;Node43</title>
<path fill="none" stroke="#191970" d="M671.7261,-266.9886C588.5951,-262.0135 387.5765,-247.6403 325.2327,-222 286.2619,-205.9724 268.7985,-201.8274 250.2327,-164 243.3789,-150.0357 243.6594,-143.0985 250.2327,-129 256.073,-116.4735 267.0768,-106.0999 277.7948,-98.314"/>
<polygon fill="#191970" stroke="#191970" points="279.8881,-101.1239 286.225,-92.633 275.9762,-95.319 279.8881,-101.1239"/>
</g>
<!-- Node32 -->
<g id="node14" class="node">
<title>Node32</title>
<polygon fill="#ffffff" stroke="#bfbfbf" points="395.2327,-129.5 395.2327,-163.5 505.2327,-163.5 505.2327,-129.5 395.2327,-129.5"/>
<text text-anchor="start" x="403.2327" y="-149.9" font-family="Helvetica,sans-Serif" font-size="12.00" fill="#000000">boost/archive/text</text>
<text text-anchor="middle" x="450.2327" y="-136.9" font-family="Helvetica,sans-Serif" font-size="12.00" fill="#000000">_oarchive.hpp</text>
</g>
<!-- Node4&#45;&gt;Node32 -->
<g id="edge49" class="edge">
<title>Node4&#45;&gt;Node32</title>
<path fill="none" stroke="#191970" d="M685.7882,-258.3432C643.4873,-238.2585 551.2231,-194.4509 495.5473,-168.0157"/>
<polygon fill="#191970" stroke="#191970" points="496.8034,-164.7376 486.2687,-163.6101 493.801,-171.0611 496.8034,-164.7376"/>
</g>
<!-- Node33 -->
<g id="node15" class="node">
<title>Node33</title>
<polygon fill="#ffffff" stroke="#bfbfbf" points="523.2327,-129.5 523.2327,-163.5 633.2327,-163.5 633.2327,-129.5 523.2327,-129.5"/>
<text text-anchor="start" x="531.2327" y="-149.9" font-family="Helvetica,sans-Serif" font-size="12.00" fill="#000000">boost/archive/text</text>
<text text-anchor="middle" x="578.2327" y="-136.9" font-family="Helvetica,sans-Serif" font-size="12.00" fill="#000000">_iarchive.hpp</text>
</g>
<!-- Node4&#45;&gt;Node33 -->
<g id="edge50" class="edge">
<title>Node4&#45;&gt;Node33</title>
<path fill="none" stroke="#191970" d="M696.696,-258.1289C676.0208,-238.6465 632.1904,-197.3448 604.0303,-170.8093"/>
<polygon fill="#191970" stroke="#191970" points="606.2138,-168.0577 596.5355,-163.7469 601.4131,-173.1522 606.2138,-168.0577"/>
</g>
<!-- Node31 -->
<g id="node16" class="node">
<title>Node31</title>
<polygon fill="#ffffff" stroke="#bfbfbf" points="651.7327,-129.5 651.7327,-163.5 764.7327,-163.5 764.7327,-129.5 651.7327,-129.5"/>
<text text-anchor="start" x="659.7327" y="-149.9" font-family="Helvetica,sans-Serif" font-size="12.00" fill="#000000">boost/serialization</text>
<text text-anchor="middle" x="708.2327" y="-136.9" font-family="Helvetica,sans-Serif" font-size="12.00" fill="#000000">/base_object.hpp</text>
</g>
<!-- Node4&#45;&gt;Node31 -->
<g id="edge51" class="edge">
<title>Node4&#45;&gt;Node31</title>
<path fill="none" stroke="#191970" d="M708.2327,-258.1289C708.2327,-239.3958 708.2327,-200.4896 708.2327,-173.9346"/>
<polygon fill="#191970" stroke="#191970" points="711.7328,-173.7469 708.2327,-163.7469 704.7328,-173.747 711.7328,-173.7469"/>
</g>
<!-- Node51 -->
<g id="node17" class="node">
<title>Node51</title>
<g id="a_node17"><a xlink:href="IOUtil_8h_source.html" target="_top" xlink:title="../IO/IOUtil.h">
<polygon fill="#ffffff" stroke="#ff0000" points="259.2327,-136 259.2327,-157 339.2327,-157 339.2327,-136 259.2327,-136"/>
<text text-anchor="middle" x="299.2327" y="-143.4" font-family="Helvetica,sans-Serif" font-size="12.00" fill="#000000">../IO/IOUtil.h</text>
</a>
</g>
</g>
<!-- Node4&#45;&gt;Node51 -->
<g id="edge27" class="edge">
<title>Node4&#45;&gt;Node51</title>
<path fill="none" stroke="#191970" d="M671.4593,-267.7957C591.8273,-264.6083 406.3316,-253.885 353.2327,-222 331.8668,-209.1702 316.6087,-184.2889 307.8761,-166.5987"/>
<polygon fill="#191970" stroke="#191970" points="310.8786,-164.7543 303.4917,-157.1593 304.53,-167.7032 310.8786,-164.7543"/>
</g>
<!-- Node11 -->
<g id="node18" class="node">
<title>Node11</title>
<g id="a_node18"><a xlink:href="Core_2Common_8h.html" target="_top" xlink:title="Declaration of some general purpose utilities. ">
<polygon fill="#ffffff" stroke="#ff0000" points="2131.7327,-136 2131.7327,-157 2206.7327,-157 2206.7327,-136 2131.7327,-136"/>
<text text-anchor="middle" x="2169.2327" y="-143.4" font-family="Helvetica,sans-Serif" font-size="12.00" fill="#000000">Common.h</text>
</a>
</g>
</g>
<!-- Node4&#45;&gt;Node11 -->
<g id="edge30" class="edge">
<title>Node4&#45;&gt;Node11</title>
<path fill="none" stroke="#191970" d="M744.8823,-268.2982C938.5374,-264.4999 1838.3965,-245.6956 1960.2327,-222 2025.4806,-209.3101 2097.5704,-179.5029 2137.738,-161.3671"/>
<polygon fill="#191970" stroke="#191970" points="2139.3596,-164.4743 2147.0009,-157.1353 2136.4508,-158.1073 2139.3596,-164.4743"/>
</g>
<!-- Node23 -->
<g id="node21" class="node">
<title>Node23</title>
<polygon fill="#ffffff" stroke="#bfbfbf" points="1829.7327,-71.5 1829.7327,-92.5 1884.7327,-92.5 1884.7327,-71.5 1829.7327,-71.5"/>
<text text-anchor="middle" x="1857.2327" y="-78.9" font-family="Helvetica,sans-Serif" font-size="12.00" fill="#000000">cassert</text>
</g>
<!-- Node4&#45;&gt;Node23 -->
<g id="edge47" class="edge">
<title>Node4&#45;&gt;Node23</title>
<path fill="none" stroke="#191970" d="M744.764,-268.5383C902.6459,-266.0308 1526.129,-250.7156 1698.2327,-164 1718.7379,-153.6683 1716.7473,-141.1461 1736.2327,-129 1762.2864,-112.7595 1794.8764,-100.4942 1819.6681,-92.5722"/>
<polygon fill="#191970" stroke="#191970" points="1820.9178,-95.8492 1829.4337,-89.5461 1818.8458,-89.1629 1820.9178,-95.8492"/>
</g>
<!-- Node27 -->
<g id="node22" class="node">
<title>Node27</title>
<g id="a_node22"><a xlink:href="AstronomicalConstants_8h.html" target="_top" xlink:title="Defines various astronomical constants. ">
<polygon fill="#ffffff" stroke="#000000" points="2274.2327,-71.5 2274.2327,-92.5 2424.2327,-92.5 2424.2327,-71.5 2274.2327,-71.5"/>
<text text-anchor="middle" x="2349.2327" y="-78.9" font-family="Helvetica,sans-Serif" font-size="12.00" fill="#000000">AstronomicalConstants.h</text>
</a>
</g>
</g>
<!-- Node4&#45;&gt;Node27 -->
<g id="edge40" class="edge">
<title>Node4&#45;&gt;Node27</title>
<path fill="none" stroke="#191970" d="M744.8652,-268.8702C929.3951,-268.0351 1758.2573,-262.079 2012.2327,-222 2105.3404,-207.307 2129.9643,-201.983 2216.2327,-164 2257.3173,-145.9109 2300.863,-116.9424 2326.5193,-98.7193"/>
<polygon fill="#191970" stroke="#191970" points="2328.7372,-101.4355 2334.8148,-92.7572 2324.6519,-95.7513 2328.7372,-101.4355"/>
</g>
<!-- Node52 -->
<g id="node23" class="node">
<title>Node52</title>
<polygon fill="#ffffff" stroke="#bfbfbf" points="25.2327,-200.5 25.2327,-221.5 127.2327,-221.5 127.2327,-200.5 25.2327,-200.5"/>
<text text-anchor="middle" x="76.2327" y="-207.9" font-family="Helvetica,sans-Serif" font-size="12.00" fill="#000000">dirent_hacked.h</text>
</g>
<!-- Node4&#45;&gt;Node52 -->
<g id="edge42" class="edge">
<title>Node4&#45;&gt;Node52</title>
<path fill="none" stroke="#191970" d="M671.6373,-267.047C581.3198,-261.9922 340.6674,-247.095 141.2327,-222 139.9552,-221.8393 138.6644,-221.6714 137.364,-221.4973"/>
<polygon fill="#191970" stroke="#191970" points="137.6607,-218.0043 127.2668,-220.0576 136.6725,-224.9342 137.6607,-218.0043"/>
</g>
<!-- Node53 -->
<g id="node24" class="node">
<title>Node53</title>
<polygon fill="#ffffff" stroke="#bfbfbf" points="1485.7327,-71.5 1485.7327,-92.5 1544.7327,-92.5 1544.7327,-71.5 1485.7327,-71.5"/>
<text text-anchor="middle" x="1515.2327" y="-78.9" font-family="Helvetica,sans-Serif" font-size="12.00" fill="#000000">iomanip</text>
</g>
<!-- Node4&#45;&gt;Node53 -->
<g id="edge44" class="edge">
<title>Node4&#45;&gt;Node53</title>
<path fill="none" stroke="#191970" d="M744.7462,-267.7753C874.044,-263.2473 1305.4421,-246.4403 1362.2327,-222 1424.24,-195.3146 1477.4888,-132.6219 1501.5479,-100.9788"/>
<polygon fill="#191970" stroke="#191970" points="1504.6361,-102.6917 1507.7997,-92.5802 1499.021,-98.5118 1504.6361,-102.6917"/>
</g>
<!-- Node35 -->
<g id="node25" class="node">
<title>Node35</title>
<polygon fill="#ffffff" stroke="#bfbfbf" points="2957.7327,-136 2957.7327,-157 3006.7327,-157 3006.7327,-136 2957.7327,-136"/>
<text text-anchor="middle" x="2982.2327" y="-143.4" font-family="Helvetica,sans-Serif" font-size="12.00" fill="#000000">vector</text>
</g>
<!-- Node4&#45;&gt;Node35 -->
<g id="edge48" class="edge">
<title>Node4&#45;&gt;Node35</title>
<path fill="none" stroke="#191970" d="M744.8904,-268.4355C957.9302,-265.0832 2038.6833,-247.0826 2370.2327,-222 2590.972,-205.3005 2854.4056,-166.3194 2947.5428,-151.9475"/>
<polygon fill="#191970" stroke="#191970" points="2948.1942,-155.3884 2957.5402,-150.3982 2947.1222,-148.471 2948.1942,-155.3884"/>
</g>
<!-- Node5&#45;&gt;Node3 -->
<g id="edge7" class="edge">
<title>Node5&#45;&gt;Node3</title>
<path fill="none" stroke="#191970" d="M855.3236,-210.1274C933.0646,-207.6965 1092.5876,-198.5233 1134.2327,-164 1167.8847,-136.1028 1131.4916,-97.5288 1166.2327,-71 1194.8713,-49.1312 1687.4763,-28.5704 1896.5748,-20.7858"/>
<polygon fill="#191970" stroke="#191970" points="1896.7532,-24.2817 1906.6167,-20.4137 1896.4939,-17.2865 1896.7532,-24.2817"/>
</g>
<!-- Node6 -->
<g id="node7" class="node">
<title>Node6</title>
<g id="a_node7"><a xlink:href="EvolvingStellarQuantity_8h.html" target="_top" xlink:title="Declares a class implementing the intepolation of a single stellar quantity from stellar evolution tr...">
<polygon fill="#ffffff" stroke="#ff0000" points="973.2327,-136 973.2327,-157 1125.2327,-157 1125.2327,-136 973.2327,-136"/>
<text text-anchor="middle" x="1049.2327" y="-143.4" font-family="Helvetica,sans-Serif" font-size="12.00" fill="#000000">EvolvingStellarQuantity.h</text>
</a>
</g>
</g>
<!-- Node5&#45;&gt;Node6 -->
<g id="edge8" class="edge">
<title>Node5&#45;&gt;Node6</title>
<path fill="none" stroke="#191970" d="M850.8383,-200.4934C891.8111,-189.3426 956.6368,-171.7001 1000.9585,-159.6379"/>
<polygon fill="#191970" stroke="#191970" points="1001.9137,-163.0053 1010.6436,-157.0021 1000.0754,-156.251 1001.9137,-163.0053"/>
</g>
<!-- Node5&#45;&gt;Node24 -->
<g id="edge19" class="edge">
<title>Node5&#45;&gt;Node24</title>
<path fill="none" stroke="#191970" d="M822.1323,-200.3017C837.0771,-184.3094 866.4991,-153.4364 893.2327,-129 904.4378,-118.7577 917.466,-107.9396 928.2364,-99.2675"/>
<polygon fill="#191970" stroke="#191970" points="930.6777,-101.7972 936.3119,-92.8247 926.3121,-96.3253 930.6777,-101.7972"/>
</g>
<!-- Node5&#45;&gt;Node16 -->
<g id="edge22" class="edge">
<title>Node5&#45;&gt;Node16</title>
<path fill="none" stroke="#191970" d="M816.3626,-200.2505C822.9273,-183.9244 836.8017,-152.3151 854.2327,-129 884.749,-88.1823 933.1966,-53.0055 963.0002,-33.5879"/>
<polygon fill="#191970" stroke="#191970" points="965.0734,-36.4165 971.6106,-28.0789 961.3008,-30.5201 965.0734,-36.4165"/>
</g>
<!-- Node5&#45;&gt;Node26 -->
<g id="edge21" class="edge">
<title>Node5&#45;&gt;Node26</title>
<path fill="none" stroke="#191970" d="M769.1955,-209.9959C644.886,-206.739 291.5119,-194.8362 250.2327,-164 209.9425,-133.9026 198.1216,-71.2273 194.6605,-38.469"/>
<polygon fill="#191970" stroke="#191970" points="198.1224,-37.8835 193.752,-28.2321 191.1498,-38.5024 198.1224,-37.8835"/>
</g>
<!-- Node12 -->
<g id="node11" class="node">
<title>Node12</title>
<polygon fill="#ffffff" stroke="#bfbfbf" points="1175.2327,-71.5 1175.2327,-92.5 1207.2327,-92.5 1207.2327,-71.5 1175.2327,-71.5"/>
<text text-anchor="middle" x="1191.2327" y="-78.9" font-family="Helvetica,sans-Serif" font-size="12.00" fill="#000000">list</text>
</g>
<!-- Node5&#45;&gt;Node12 -->
<g id="edge20" class="edge">
<title>Node5&#45;&gt;Node12</title>
<path fill="none" stroke="#191970" d="M855.3839,-207.9148C944.788,-201.1496 1143.9012,-184.0073 1167.2327,-164 1184.8346,-148.9059 1189.8889,-121.6706 1191.1562,-102.7497"/>
<polygon fill="#191970" stroke="#191970" points="1194.6549,-102.8485 1191.531,-92.7247 1187.6598,-102.5869 1194.6549,-102.8485"/>
</g>
<!-- Node5&#45;&gt;Node43 -->
<g id="edge23" class="edge">
<title>Node5&#45;&gt;Node43</title>
<path fill="none" stroke="#191970" d="M810.7009,-200.3368C807.4944,-182.3089 798.2667,-146.1026 774.2327,-129 739.4978,-104.2828 450.0137,-88.616 344.5094,-83.6816"/>
<polygon fill="#191970" stroke="#191970" points="344.4587,-80.1757 334.308,-83.2113 344.1362,-87.1682 344.4587,-80.1757"/>
</g>
<!-- Node5&#45;&gt;Node32 -->
<g id="edge24" class="edge">
<title>Node5&#45;&gt;Node32</title>
<path fill="none" stroke="#191970" d="M769.0235,-205.7093C712.7365,-198.4822 611.1327,-184.2944 515.1616,-164.0759"/>
<polygon fill="#191970" stroke="#191970" points="515.8059,-160.6346 505.2957,-161.9714 514.3455,-167.4806 515.8059,-160.6346"/>
</g>
<!-- Node5&#45;&gt;Node33 -->
<g id="edge25" class="edge">
<title>Node5&#45;&gt;Node33</title>
<path fill="none" stroke="#191970" d="M774.1157,-200.4934C738.7472,-190.7444 685.3767,-176.0333 643.2724,-164.4276"/>
<polygon fill="#191970" stroke="#191970" points="643.9489,-160.9836 633.3784,-161.7004 642.0888,-167.732 643.9489,-160.9836"/>
</g>
<!-- Node5&#45;&gt;Node31 -->
<g id="edge26" class="edge">
<title>Node5&#45;&gt;Node31</title>
<path fill="none" stroke="#191970" d="M795.0592,-200.3491C781.4012,-191.8786 761.8109,-179.7288 744.6941,-169.1131"/>
<polygon fill="#191970" stroke="#191970" points="746.3561,-166.0254 736.0131,-163.7292 742.6667,-171.9742 746.3561,-166.0254"/>
</g>
<!-- Node6&#45;&gt;Node3 -->
<g id="edge9" class="edge">
<title>Node6&#45;&gt;Node3</title>
<path fill="none" stroke="#191970" d="M1057.096,-135.8174C1070.4978,-118.5731 1099.6019,-85.1115 1133.2327,-71 1202.1372,-42.0876 1689.2965,-25.6225 1896.4157,-19.861"/>
<polygon fill="#191970" stroke="#191970" points="1896.7629,-23.3529 1906.6625,-19.5784 1896.5698,-16.3556 1896.7629,-23.3529"/>
</g>
<!-- Node6&#45;&gt;Node24 -->
<g id="edge10" class="edge">
<title>Node6&#45;&gt;Node24</title>
<path fill="none" stroke="#191970" d="M1032.8848,-135.8491C1017.2645,-125.6723 993.4929,-110.1847 975.4465,-98.4272"/>
<polygon fill="#191970" stroke="#191970" points="976.894,-95.193 966.6048,-92.6667 973.0728,-101.0581 976.894,-95.193"/>
</g>
<!-- Node6&#45;&gt;Node16 -->
<g id="edge16" class="edge">
<title>Node6&#45;&gt;Node16</title>
<path fill="none" stroke="#191970" d="M1044.3226,-135.9434C1034.3021,-114.3993 1011.3573,-65.068 998.4636,-37.3465"/>
<polygon fill="#191970" stroke="#191970" points="1001.6015,-35.7936 994.2106,-28.2025 995.2544,-38.7458 1001.6015,-35.7936"/>
</g>
<!-- Node6&#45;&gt;Node26 -->
<g id="edge15" class="edge">
<title>Node6&#45;&gt;Node26</title>
<path fill="none" stroke="#191970" d="M979.5455,-135.9981C804.8437,-109.6704 353.1582,-41.6009 226.6213,-22.5317"/>
<polygon fill="#191970" stroke="#191970" points="226.8108,-19.0208 216.4008,-20.9915 225.7676,-25.9426 226.8108,-19.0208"/>
</g>
<!-- Node6&#45;&gt;Node12 -->
<g id="edge14" class="edge">
<title>Node6&#45;&gt;Node12</title>
<path fill="none" stroke="#191970" d="M1072.3635,-135.9934C1098.0079,-124.345 1139.2477,-105.6129 1165.7877,-93.5577"/>
<polygon fill="#191970" stroke="#191970" points="1167.5192,-96.6155 1175.1765,-89.2931 1164.6242,-90.2421 1167.5192,-96.6155"/>
</g>
<!-- Node6&#45;&gt;Node43 -->
<g id="edge17" class="edge">
<title>Node6&#45;&gt;Node43</title>
<path fill="none" stroke="#191970" d="M973.2103,-139.9005C816.4768,-126.2944 462.2804,-95.5465 344.8621,-85.3534"/>
<polygon fill="#191970" stroke="#191970" points="344.836,-81.8381 334.5707,-84.46 344.2305,-88.8119 344.836,-81.8381"/>
</g>
<!-- Node15 -->
<g id="node13" class="node">
<title>Node15</title>
<polygon fill="#ffffff" stroke="#bfbfbf" points="2036.7327,-71.5 2036.7327,-92.5 2095.7327,-92.5 2095.7327,-71.5 2036.7327,-71.5"/>
<text text-anchor="middle" x="2066.2327" y="-78.9" font-family="Helvetica,sans-Serif" font-size="12.00" fill="#000000">sstream</text>
</g>
<!-- Node6&#45;&gt;Node15 -->
<g id="edge18" class="edge">
<title>Node6&#45;&gt;Node15</title>
<path fill="none" stroke="#191970" d="M1125.2662,-141.7023C1273.2962,-132.3581 1610.5546,-111.0514 1894.2327,-93 1939.5618,-90.1155 1991.6093,-86.7842 2026.4701,-84.5502"/>
<polygon fill="#191970" stroke="#191970" points="2026.9552,-88.0263 2036.7108,-83.8938 2026.5074,-81.0407 2026.9552,-88.0263"/>
</g>
<!-- Node24&#45;&gt;Node3 -->
<g id="edge11" class="edge">
<title>Node24&#45;&gt;Node3</title>
<path fill="none" stroke="#191970" d="M976.9575,-78.8488C998.1587,-76.434 1028.5597,-73.1599 1055.2327,-71 1363.0093,-46.0775 1728.7668,-28.6659 1896.6434,-21.3545"/>
<polygon fill="#191970" stroke="#191970" points="1896.8429,-24.8492 1906.6818,-20.9191 1896.5395,-17.8558 1896.8429,-24.8492"/>
</g>
<!-- Node24&#45;&gt;Node16 -->
<g id="edge12" class="edge">
<title>Node24&#45;&gt;Node16</title>
<path fill="none" stroke="#191970" d="M956.6727,-71.3491C962.2843,-62.0685 970.5663,-48.3712 977.3731,-37.114"/>
<polygon fill="#191970" stroke="#191970" points="980.4735,-38.7506 982.6527,-28.3823 974.4834,-35.1286 980.4735,-38.7506"/>
</g>
<!-- Node24&#45;&gt;Node26 -->
<g id="edge13" class="edge">
<title>Node24&#45;&gt;Node26</title>
<path fill="none" stroke="#191970" d="M923.2906,-79.7044C807.7415,-69.8591 354.194,-31.2147 226.7217,-20.3534"/>
<polygon fill="#191970" stroke="#191970" points="226.6843,-16.8376 216.4233,-19.4759 226.09,-23.8124 226.6843,-16.8376"/>
</g>
<!-- Node51&#45;&gt;Node16 -->
<g id="edge28" class="edge">
<title>Node51&#45;&gt;Node16</title>
<path fill="none" stroke="#191970" d="M329.2913,-135.9362C337.031,-133.4438 345.3899,-130.9481 353.2327,-129 574.6801,-73.9924 846.0531,-35.9691 947.9627,-22.6968"/>
<polygon fill="#191970" stroke="#191970" points="948.6674,-26.1349 958.1358,-21.3811 947.7695,-19.1927 948.6674,-26.1349"/>
</g>
<!-- Node51&#45;&gt;Node12 -->
<g id="edge29" class="edge">
<title>Node51&#45;&gt;Node12</title>
<path fill="none" stroke="#191970" d="M339.3197,-137.214C354.0027,-134.137 370.8,-130.9927 386.2327,-129 425.6914,-123.9051 1030.0097,-90.7885 1164.7396,-83.442"/>
<polygon fill="#191970" stroke="#191970" points="1165.1713,-86.9237 1174.966,-82.8847 1164.7904,-79.9341 1165.1713,-86.9237"/>
</g>
<!-- Node11&#45;&gt;Node3 -->
<g id="edge37" class="edge">
<title>Node11&#45;&gt;Node3</title>
<path fill="none" stroke="#191970" d="M2167.8365,-135.9559C2165.1554,-119.8025 2157.8061,-88.9234 2139.2327,-71 2123.2735,-55.5994 2102.5884,-44.5973 2081.7059,-36.7494"/>
<polygon fill="#191970" stroke="#191970" points="2082.7084,-33.3916 2072.1136,-33.361 2080.3769,-39.9919 2082.7084,-33.3916"/>
</g>
<!-- Node11&#45;&gt;Node24 -->
<g id="edge38" class="edge">
<title>Node11&#45;&gt;Node24</title>
<path fill="none" stroke="#191970" d="M2131.4325,-143.9248C2078.4321,-140.3528 1979.0126,-133.7935 1894.2327,-129 1570.7983,-110.7128 1489.7764,-109.2381 1166.2327,-93 1103.3124,-89.8421 1030.0861,-86.0986 987.0898,-83.8935"/>
<polygon fill="#191970" stroke="#191970" points="987.0008,-80.3844 976.8345,-83.3673 986.642,-87.3752 987.0008,-80.3844"/>
</g>
<!-- Node11&#45;&gt;Node16 -->
<g id="edge34" class="edge">
<title>Node11&#45;&gt;Node16</title>
<path fill="none" stroke="#191970" d="M2163.9249,-135.8205C2154.6969,-118.5807 2133.9029,-85.1253 2105.2327,-71 2056.1647,-46.8251 1226.8972,-23.7104 1030.6332,-18.5615"/>
<polygon fill="#191970" stroke="#191970" points="1030.5398,-15.0579 1020.4518,-18.2956 1030.357,-22.0555 1030.5398,-15.0579"/>
</g>
<!-- Node11&#45;&gt;Node12 -->
<g id="edge31" class="edge">
<title>Node11&#45;&gt;Node12</title>
<path fill="none" stroke="#191970" d="M2131.4932,-144.011C1971.8682,-133.4836 1354.14,-92.7439 1217.9137,-83.7596"/>
<polygon fill="#191970" stroke="#191970" points="1217.7959,-80.2444 1207.5872,-83.0786 1217.3352,-87.2292 1217.7959,-80.2444"/>
</g>
<!-- Node11&#45;&gt;Node15 -->
<g id="edge33" class="edge">
<title>Node11&#45;&gt;Node15</title>
<path fill="none" stroke="#191970" d="M2152.2243,-135.8491C2135.8238,-125.5789 2110.7862,-109.9 2091.95,-98.1045"/>
<polygon fill="#191970" stroke="#191970" points="2093.5993,-95.0077 2083.2663,-92.6667 2089.8841,-100.9405 2093.5993,-95.0077"/>
</g>
<!-- Node14 -->
<g id="node19" class="node">
<title>Node14</title>
<polygon fill="#ffffff" stroke="#bfbfbf" points="2613.2327,-71.5 2613.2327,-92.5 2657.2327,-92.5 2657.2327,-71.5 2613.2327,-71.5"/>
<text text-anchor="middle" x="2635.2327" y="-78.9" font-family="Helvetica,sans-Serif" font-size="12.00" fill="#000000">limits</text>
</g>
<!-- Node11&#45;&gt;Node14 -->
<g id="edge32" class="edge">
<title>Node11&#45;&gt;Node14</title>
<path fill="none" stroke="#191970" d="M2206.9727,-141.2763C2296.3351,-128.9075 2519.609,-98.0037 2603.0769,-86.4507"/>
<polygon fill="#191970" stroke="#191970" points="2603.7982,-89.8844 2613.2239,-85.0463 2602.8384,-82.9505 2603.7982,-89.8844"/>
</g>
<!-- Node22 -->
<g id="node20" class="node">
<title>Node22</title>
<polygon fill="#ffffff" stroke="#bfbfbf" points="2442.2327,-71.5 2442.2327,-92.5 2532.2327,-92.5 2532.2327,-71.5 2442.2327,-71.5"/>
<text text-anchor="middle" x="2487.2327" y="-78.9" font-family="Helvetica,sans-Serif" font-size="12.00" fill="#000000">gsl/gsl_poly.h</text>
</g>
<!-- Node11&#45;&gt;Node22 -->
<g id="edge35" class="edge">
<title>Node11&#45;&gt;Node22</title>
<path fill="none" stroke="#191970" d="M2206.8327,-138.8927C2256.1397,-128.9142 2345.6177,-110.7966 2432.1616,-93.2163"/>
<polygon fill="#191970" stroke="#191970" points="2433.0492,-96.6076 2442.1521,-91.1866 2431.6555,-89.7477 2433.0492,-96.6076"/>
</g>
<!-- Node11&#45;&gt;Node23 -->
<g id="edge36" class="edge">
<title>Node11&#45;&gt;Node23</title>
<path fill="none" stroke="#191970" d="M2131.5982,-138.7198C2071.5392,-126.3038 1954.6977,-102.149 1894.7271,-89.7513"/>
<polygon fill="#191970" stroke="#191970" points="1895.4136,-86.3192 1884.912,-87.7222 1893.9964,-93.1743 1895.4136,-86.3192"/>
</g>
<!-- Node11&#45;&gt;Node27 -->
<g id="edge39" class="edge">
<title>Node11&#45;&gt;Node27</title>
<path fill="none" stroke="#191970" d="M2198.5534,-135.9934C2229.0182,-125.0768 2276.846,-107.9385 2310.4268,-95.9054"/>
<polygon fill="#191970" stroke="#191970" points="2311.6913,-99.1703 2319.9245,-92.5021 2309.3299,-92.5806 2311.6913,-99.1703"/>
</g>
<!-- Node54&#45;&gt;Node3 -->
<g id="edge54" class="edge">
<title>Node54&#45;&gt;Node3</title>
<path fill="none" stroke="#191970" d="M1617.0368,-387.3187C1613.7433,-371.605 1607.1672,-341.3734 1600.2327,-316 1577.6117,-233.2301 1508.1921,-202.641 1552.2327,-129 1587.426,-70.1525 1779.013,-39.6368 1896.5235,-26.231"/>
<polygon fill="#191970" stroke="#191970" points="1897.0554,-29.6934 1906.6038,-25.1022 1896.2764,-22.7369 1897.0554,-29.6934"/>
</g>
<!-- Node54&#45;&gt;Node5 -->
<g id="edge90" class="edge">
<title>Node54&#45;&gt;Node5</title>
<path fill="none" stroke="#191970" d="M1571.4523,-389.6862C1521.7677,-380.8504 1441.8123,-366.0962 1373.2327,-351 1182.6793,-309.0542 958.0807,-250.097 860.9857,-224.1415"/>
<polygon fill="#191970" stroke="#191970" points="861.7286,-220.7172 851.1636,-221.5121 859.9183,-227.4791 861.7286,-220.7172"/>
</g>
<!-- Node55 -->
<g id="node27" class="node">
<title>Node55</title>
<g id="a_node27"><a xlink:href="SaturatingSkumanichWindBody_8h.html" target="_top" xlink:title="Decrales a body subject to angular momentum loss . ">
<polygon fill="#ffffff" stroke="#000000" points="1878.7327,-323 1878.7327,-344 2075.7327,-344 2075.7327,-323 1878.7327,-323"/>
<text text-anchor="middle" x="1977.2327" y="-330.4" font-family="Helvetica,sans-Serif" font-size="12.00" fill="#000000">SaturatingSkumanichWindBody.h</text>
</a>
</g>
</g>
<!-- Node54&#45;&gt;Node55 -->
<g id="edge55" class="edge">
<title>Node54&#45;&gt;Node55</title>
<path fill="none" stroke="#191970" d="M1666.7723,-389.4349C1728.7719,-378.2646 1837.6663,-358.6453 1908.6132,-345.863"/>
<polygon fill="#191970" stroke="#191970" points="1909.5744,-349.2463 1918.7953,-344.0285 1908.3331,-342.3572 1909.5744,-349.2463"/>
</g>
<!-- Node76 -->
<g id="node34" class="node">
<title>Node76</title>
<g id="a_node34"><a xlink:href="ExponentialDecayDiffRotBody_8h.html" target="_top" xlink:title="Declares a DissipatingBody with exponentially decaying differential rotation coupling. ">
<polygon fill="#ffffff" stroke="#000000" points="1761.7327,-258.5 1761.7327,-279.5 1950.7327,-279.5 1950.7327,-258.5 1761.7327,-258.5"/>
<text text-anchor="middle" x="1856.2327" y="-265.9" font-family="Helvetica,sans-Serif" font-size="12.00" fill="#000000">ExponentialDecayDiffRotBody.h</text>
</a>
</g>
</g>
<!-- Node54&#45;&gt;Node76 -->
<g id="edge80" class="edge">
<title>Node54&#45;&gt;Node76</title>
<path fill="none" stroke="#191970" d="M1638.6274,-387.4434C1680.3952,-364.709 1779.011,-311.0321 1827.8334,-284.4578"/>
<polygon fill="#191970" stroke="#191970" points="1829.7924,-287.3765 1836.9024,-279.5216 1826.4459,-281.2282 1829.7924,-287.3765"/>
</g>
<!-- Node77 -->
<g id="node38" class="node">
<title>Node77</title>
<g id="a_node38"><a xlink:href="EvolvingStellarCore_8h.html" target="_top" xlink:title="Declaration of the class representing stellar cores. ">
<polygon fill="#ffffff" stroke="#ff0000" points="1219.2327,-200.5 1219.2327,-221.5 1353.2327,-221.5 1353.2327,-200.5 1219.2327,-200.5"/>
<text text-anchor="middle" x="1286.2327" y="-207.9" font-family="Helvetica,sans-Serif" font-size="12.00" fill="#000000">EvolvingStellarCore.h</text>
</a>
</g>
</g>
<!-- Node54&#45;&gt;Node77 -->
<g id="edge91" class="edge">
<title>Node54&#45;&gt;Node77</title>
<path fill="none" stroke="#191970" d="M1571.6472,-393.9298C1530.4161,-388.7352 1470.3106,-377.0502 1424.2327,-351 1369.3074,-319.9479 1321.742,-260.7317 1299.5514,-230.2244"/>
<polygon fill="#191970" stroke="#191970" points="1302.1562,-227.8491 1293.4992,-221.7412 1296.4578,-231.9146 1302.1562,-227.8491"/>
</g>
<!-- Node83 -->
<g id="node39" class="node">
<title>Node83</title>
<g id="a_node39"><a xlink:href="EvolvingStellarEnvelope_8h.html" target="_top" xlink:title="Declares a class representing convective zones in low mass evolving stars or the whole star for high ...">
<polygon fill="#ffffff" stroke="#ff0000" points="1433.2327,-323 1433.2327,-344 1591.2327,-344 1591.2327,-323 1433.2327,-323"/>
<text text-anchor="middle" x="1512.2327" y="-330.4" font-family="Helvetica,sans-Serif" font-size="12.00" fill="#000000">EvolvingStellarEnvelope.h</text>
</a>
</g>
</g>
<!-- Node54&#45;&gt;Node83 -->
<g id="edge94" class="edge">
<title>Node54&#45;&gt;Node83</title>
<path fill="none" stroke="#191970" d="M1601.5638,-387.3491C1584.4489,-377.0322 1558.2798,-361.2574 1538.6823,-349.4439"/>
<polygon fill="#191970" stroke="#191970" points="1540.2991,-346.3318 1529.9278,-344.1667 1536.6852,-352.3269 1540.2991,-346.3318"/>
</g>
<!-- Node55&#45;&gt;Node3 -->
<g id="edge56" class="edge">
<title>Node55&#45;&gt;Node3</title>
<path fill="none" stroke="#191970" d="M1884.4099,-322.9564C1830.4246,-314.7003 1769.8295,-301.0277 1753.2327,-280 1747.1748,-272.3249 1749.1687,-266.8932 1753.2327,-258 1769.6025,-222.1777 1787.3564,-221.6878 1820.2327,-200 1850.7624,-179.8601 1866.836,-188.2302 1894.2327,-164 1933.1254,-129.6025 1962.5013,-75.6526 1977.6848,-43.7121"/>
<polygon fill="#191970" stroke="#191970" points="1980.9009,-45.0963 1981.9361,-34.5522 1974.5514,-42.1494 1980.9009,-45.0963"/>
</g>
<!-- Node56 -->
<g id="node28" class="node">
<title>Node56</title>
<g id="a_node28"><a xlink:href="DissipatingBody_8h.html" target="_top" xlink:title="Declares the DissipatingBody class. ">
<polygon fill="#ffffff" stroke="#ff0000" points="2197.7327,-200.5 2197.7327,-221.5 2360.7327,-221.5 2360.7327,-200.5 2197.7327,-200.5"/>
<text text-anchor="middle" x="2279.2327" y="-207.9" font-family="Helvetica,sans-Serif" font-size="12.00" fill="#000000">../Evolve/DissipatingBody.h</text>
</a>
</g>
</g>
<!-- Node55&#45;&gt;Node56 -->
<g id="edge57" class="edge">
<title>Node55&#45;&gt;Node56</title>
<path fill="none" stroke="#191970" d="M2003.2424,-322.9497C2057.4303,-300.9695 2182.4693,-250.25 2243.8879,-225.3369"/>
<polygon fill="#191970" stroke="#191970" points="2245.2273,-228.5706 2253.1784,-221.5684 2242.5961,-222.0839 2245.2273,-228.5706"/>
</g>
<!-- Node71 -->
<g id="node30" class="node">
<title>Node71</title>
<g id="a_node30"><a xlink:href="BinarySystem_8h.html" target="_top" xlink:title="Defines the BinarySystem class. ">
<polygon fill="#ffffff" stroke="#ff0000" points="2250.7327,-258.5 2250.7327,-279.5 2399.7327,-279.5 2399.7327,-258.5 2250.7327,-258.5"/>
<text text-anchor="middle" x="2325.2327" y="-265.9" font-family="Helvetica,sans-Serif" font-size="12.00" fill="#000000">../Evolve/BinarySystem.h</text>
</a>
</g>
</g>
<!-- Node55&#45;&gt;Node71 -->
<g id="edge65" class="edge">
<title>Node55&#45;&gt;Node71</title>
<path fill="none" stroke="#191970" d="M2033.9194,-322.9934C2095.346,-311.6083 2193.2841,-293.456 2258.4102,-281.3852"/>
<polygon fill="#191970" stroke="#191970" points="2259.3755,-284.766 2268.5702,-279.5021 2258.0998,-277.8832 2259.3755,-284.766"/>
</g>
<!-- Node56&#45;&gt;Node3 -->
<g id="edge58" class="edge">
<title>Node56&#45;&gt;Node3</title>
<path fill="none" stroke="#191970" d="M2273.3516,-200.2489C2258.2942,-173.7889 2215.6059,-105.1846 2160.2327,-71 2136.423,-56.3011 2108.2329,-45.3265 2081.6804,-37.2737"/>
<polygon fill="#191970" stroke="#191970" points="2082.5636,-33.8855 2071.9832,-34.4376 2080.5986,-40.604 2082.5636,-33.8855"/>
</g>
<!-- Node56&#45;&gt;Node11 -->
<g id="edge63" class="edge">
<title>Node56&#45;&gt;Node11</title>
<path fill="none" stroke="#191970" d="M2261.0684,-200.3491C2243.3941,-189.9855 2216.3272,-174.1145 2196.1508,-162.2838"/>
<polygon fill="#191970" stroke="#191970" points="2197.8207,-159.2057 2187.4239,-157.1667 2194.2799,-165.2442 2197.8207,-159.2057"/>
</g>
<!-- Node56&#45;&gt;Node23 -->
<g id="edge64" class="edge">
<title>Node56&#45;&gt;Node23</title>
<path fill="none" stroke="#191970" d="M2243.8979,-200.4245C2212.2667,-190.9407 2164.63,-176.6168 2123.2327,-164 2041.5429,-139.1032 1945.8798,-109.5043 1894.4622,-93.559"/>
<polygon fill="#191970" stroke="#191970" points="1895.3739,-90.1773 1884.7859,-90.5574 1893.3,-96.8631 1895.3739,-90.1773"/>
</g>
<!-- Node56&#45;&gt;Node27 -->
<g id="edge62" class="edge">
<title>Node56&#45;&gt;Node27</title>
<path fill="none" stroke="#191970" d="M2284.9611,-200.4434C2296.6517,-178.8993 2323.4206,-129.568 2338.4633,-101.8465"/>
<polygon fill="#191970" stroke="#191970" points="2341.7319,-103.1612 2343.4251,-92.7025 2335.5794,-99.8225 2341.7319,-103.1612"/>
</g>
<!-- Node70 -->
<g id="node29" class="node">
<title>Node70</title>
<g id="a_node29"><a xlink:href="OrbitalExpressions_8h.html" target="_top" xlink:title="A collection of functions which calculate various quantities for two body orbits. ...">
<polygon fill="#ffffff" stroke="#ff0000" points="2415.2327,-136 2415.2327,-157 2581.2327,-157 2581.2327,-136 2415.2327,-136"/>
<text text-anchor="middle" x="2498.2327" y="-143.4" font-family="Helvetica,sans-Serif" font-size="12.00" fill="#000000">../Core/OrbitalExpressions.h</text>
</a>
</g>
</g>
<!-- Node56&#45;&gt;Node70 -->
<g id="edge59" class="edge">
<title>Node56&#45;&gt;Node70</title>
<path fill="none" stroke="#191970" d="M2314.9062,-200.4934C2352.5286,-189.4129 2411.9152,-171.9223 2452.8482,-159.8666"/>
<polygon fill="#191970" stroke="#191970" points="2453.9706,-163.1848 2462.5744,-157.0021 2451.9929,-156.47 2453.9706,-163.1848"/>
</g>
<!-- Node70&#45;&gt;Node3 -->
<g id="edge60" class="edge">
<title>Node70&#45;&gt;Node3</title>
<path fill="none" stroke="#191970" d="M2512.1772,-135.804C2530.81,-120.2629 2559.4825,-91.1041 2541.2327,-71 2511.0254,-37.7235 2231.2549,-24.5282 2082.0201,-19.823"/>
<polygon fill="#191970" stroke="#191970" points="2082.0478,-16.3223 2071.9445,-19.512 2081.8318,-23.319 2082.0478,-16.3223"/>
</g>
<!-- Node70&#45;&gt;Node27 -->
<g id="edge61" class="edge">
<title>Node70&#45;&gt;Node27</title>
<path fill="none" stroke="#191970" d="M2473.9616,-135.9934C2449.1764,-125.2642 2410.5078,-108.5251 2382.7972,-96.5296"/>
<polygon fill="#191970" stroke="#191970" points="2384.0608,-93.2628 2373.4933,-92.5021 2381.2799,-99.6867 2384.0608,-93.2628"/>
</g>
<!-- Node71&#45;&gt;Node3 -->
<g id="edge66" class="edge">
<title>Node71&#45;&gt;Node3</title>
<path fill="none" stroke="#191970" d="M2399.449,-258.461C2439.0434,-251.2283 2487.9711,-239.6688 2529.2327,-222 2572.2928,-203.561 2583.7589,-196.767 2617.2327,-164 2650.619,-131.3186 2697.9404,-105.3123 2666.2327,-71 2646.6976,-49.8603 2262.9238,-29.8369 2082.0519,-21.5308"/>
<polygon fill="#191970" stroke="#191970" points="2082.1642,-18.0324 2072.0149,-21.0723 2081.8447,-25.0251 2082.1642,-18.0324"/>
</g>
<!-- Node71&#45;&gt;Node24 -->
<g id="edge74" class="edge">
<title>Node71&#45;&gt;Node24</title>
<path fill="none" stroke="#191970" d="M2250.4881,-266.6715C2017.282,-259.292 1312.4992,-236.0817 1210.2327,-222 1098.9516,-206.677 1041.1445,-245.8709 964.2327,-164 948.9297,-147.7103 947.0124,-121.1489 947.8894,-102.6878"/>
<polygon fill="#191970" stroke="#191970" points="951.3841,-102.8912 948.675,-92.6486 944.4054,-102.345 951.3841,-102.8912"/>
</g>
<!-- Node71&#45;&gt;Node16 -->
<g id="edge79" class="edge">
<title>Node71&#45;&gt;Node16</title>
<path fill="none" stroke="#191970" d="M2250.5473,-264.5379C2153.1955,-258.124 1977.8235,-244.5242 1829.2327,-222 1704.8724,-203.1488 1674.0376,-195.375 1552.2327,-164 1415.8183,-128.8619 1385.7077,-105.9016 1249.2327,-71 1172.5847,-51.3983 1081.8144,-34.0273 1030.3312,-24.7101"/>
<polygon fill="#191970" stroke="#191970" points="1030.729,-21.2256 1020.2675,-22.901 1029.4905,-28.1152 1030.729,-21.2256"/>
</g>
<!-- Node71&#45;&gt;Node26 -->
<g id="edge77" class="edge">
<title>Node71&#45;&gt;Node26</title>
<path fill="none" stroke="#191970" d="M2250.4346,-266.7428C2176.6559,-264.5171 2060.6712,-261.02 1960.2327,-258 1426.9004,-241.9635 1292.562,-258.4138 760.2327,-222 518.5333,-205.4667 405.3149,-317.9227 218.2327,-164 181.5168,-133.7918 184.7049,-71.1652 189.3738,-38.4429"/>
<polygon fill="#191970" stroke="#191970" points="192.8859,-38.6479 191.024,-28.2179 185.9753,-37.5325 192.8859,-38.6479"/>
</g>
<!-- Node71&#45;&gt;Node11 -->
<g id="edge72" class="edge">
<title>Node71&#45;&gt;Node11</title>
<path fill="none" stroke="#191970" d="M2254.5679,-258.405C2230.9493,-251.5912 2206.3186,-240.3955 2189.2327,-222 2175.5868,-207.3082 2171.0323,-184.3978 2169.6194,-167.6656"/>
<polygon fill="#191970" stroke="#191970" points="2173.0917,-167.0476 2169.07,-157.2458 2166.1015,-167.4163 2173.0917,-167.0476"/>
</g>
<!-- Node71&#45;&gt;Node14 -->
<g id="edge78" class="edge">
<title>Node71&#45;&gt;Node14</title>
<path fill="none" stroke="#191970" d="M2381.5998,-258.4442C2439.6924,-245.0898 2530.0312,-217.1285 2590.2327,-164 2609.2523,-147.215 2621.8158,-120.3822 2628.7204,-102.0138"/>
<polygon fill="#191970" stroke="#191970" points="2632.0303,-103.1519 2632.0587,-92.5571 2625.4295,-100.8218 2632.0303,-103.1519"/>
</g>
<!-- Node71&#45;&gt;Node27 -->
<g id="edge71" class="edge">
<title>Node71&#45;&gt;Node27</title>
<path fill="none" stroke="#191970" d="M2340.5,-258.196C2351.0636,-249.7188 2364.2553,-236.8861 2370.2327,-222 2378.7856,-200.6995 2363.6781,-135.9516 2354.8836,-102.4969"/>
<polygon fill="#191970" stroke="#191970" points="2358.2613,-101.5797 2352.288,-92.8293 2351.5008,-103.3948 2358.2613,-101.5797"/>
</g>
<!-- Node71&#45;&gt;Node56 -->
<g id="edge67" class="edge">
<title>Node71&#45;&gt;Node56</title>
<path fill="none" stroke="#191970" d="M2316.7956,-258.3619C2310.441,-250.3496 2301.5669,-239.1605 2294.0396,-229.6696"/>
<polygon fill="#191970" stroke="#191970" points="2296.5725,-227.2308 2287.6163,-221.5707 2291.088,-231.5805 2296.5725,-227.2308"/>
</g>
<!-- Node71&#45;&gt;Node70 -->
<g id="edge73" class="edge">
<title>Node71&#45;&gt;Node70</title>
<path fill="none" stroke="#191970" d="M2344.2577,-258.4557C2360.3217,-249.337 2383.7528,-235.5255 2403.2327,-222 2430.0945,-203.3489 2459.309,-179.5574 2478.1468,-163.7167"/>
<polygon fill="#191970" stroke="#191970" points="2480.6562,-166.1782 2486.0262,-157.045 2476.1328,-160.836 2480.6562,-166.1782"/>
</g>
<!-- Node65 -->
<g id="node31" class="node">
<title>Node65</title>
<g id="a_node31"><a xlink:href="CombinedStoppingCondition_8h.html" target="_top" xlink:title="Declares a class for a stopping condition that combines other stopping conditions. ">
<polygon fill="#ffffff" stroke="#ff0000" points="2995.2327,-200.5 2995.2327,-221.5 3177.2327,-221.5 3177.2327,-200.5 2995.2327,-200.5"/>
<text text-anchor="middle" x="3086.2327" y="-207.9" font-family="Helvetica,sans-Serif" font-size="12.00" fill="#000000">CombinedStoppingCondition.h</text>
</a>
</g>
</g>
<!-- Node71&#45;&gt;Node65 -->
<g id="edge68" class="edge">
<title>Node71&#45;&gt;Node65</title>
<path fill="none" stroke="#191970" d="M2399.9342,-263.3066C2537.259,-252.8403 2829.9174,-230.5352 2984.9655,-218.7181"/>
<polygon fill="#191970" stroke="#191970" points="2985.271,-222.2051 2994.9761,-217.9552 2984.739,-215.2253 2985.271,-222.2051"/>
</g>
<!-- Node73 -->
<g id="node32" class="node">
<title>Node73</title>
<polygon fill="#ffffff" stroke="#bfbfbf" points="2645.7327,-200.5 2645.7327,-221.5 2740.7327,-221.5 2740.7327,-200.5 2645.7327,-200.5"/>
<text text-anchor="middle" x="2693.2327" y="-207.9" font-family="Helvetica,sans-Serif" font-size="12.00" fill="#000000">gsl/gsl_errno.h</text>
</g>
<!-- Node71&#45;&gt;Node73 -->
<g id="edge75" class="edge">
<title>Node71&#45;&gt;Node73</title>
<path fill="none" stroke="#191970" d="M2396.7199,-258.4989C2458.7827,-249.2678 2551.0296,-235.2723 2631.2327,-222 2632.6819,-221.7602 2634.1499,-221.5152 2635.6306,-221.2663"/>
<polygon fill="#191970" stroke="#191970" points="2636.255,-224.7104 2645.5244,-219.5793 2635.0784,-217.81 2636.255,-224.7104"/>
</g>
<!-- Node74 -->
<g id="node33" class="node">
<title>Node74</title>
<polygon fill="#ffffff" stroke="#bfbfbf" points="2759.2327,-200.5 2759.2327,-221.5 2863.2327,-221.5 2863.2327,-200.5 2759.2327,-200.5"/>
<text text-anchor="middle" x="2811.2327" y="-207.9" font-family="Helvetica,sans-Serif" font-size="12.00" fill="#000000">gsl/gsl_odeiv2.h</text>
</g>
<!-- Node71&#45;&gt;Node74 -->
<g id="edge76" class="edge">
<title>Node71&#45;&gt;Node74</title>
<path fill="none" stroke="#191970" d="M2399.8989,-262.299C2482.7695,-254.5099 2620.6926,-240.5047 2749.0187,-222.103"/>
<polygon fill="#191970" stroke="#191970" points="2749.6313,-225.551 2759.0275,-220.6559 2748.6296,-218.623 2749.6313,-225.551"/>
</g>
<!-- Node65&#45;&gt;Node3 -->
<g id="edge69" class="edge">
<title>Node65&#45;&gt;Node3</title>
<path fill="none" stroke="#191970" d="M3079.9087,-200.3882C3062.46,-172.3294 3010.4471,-96.5845 2943.2327,-71 2864.2171,-40.9235 2306.0424,-24.8215 2081.9796,-19.5106"/>
<polygon fill="#191970" stroke="#191970" points="2081.9677,-16.0094 2071.8882,-19.2733 2081.8031,-23.0075 2081.9677,-16.0094"/>
</g>
<!-- Node65&#45;&gt;Node35 -->
<g id="edge70" class="edge">
<title>Node65&#45;&gt;Node35</title>
<path fill="none" stroke="#191970" d="M3069.0592,-200.3491C3052.4242,-190.0322 3026.9888,-174.2574 3007.9407,-162.4439"/>
<polygon fill="#191970" stroke="#191970" points="3009.7747,-159.4629 2999.4317,-157.1667 3006.0853,-165.4117 3009.7747,-159.4629"/>
</g>
<!-- Node76&#45;&gt;Node3 -->
<g id="edge81" class="edge">
<title>Node76&#45;&gt;Node3</title>
<path fill="none" stroke="#191970" d="M1846.1741,-258.4355C1833.8956,-244.2164 1816.2745,-218.5649 1829.2327,-200 1855.7908,-161.9506 1893.6391,-196.0087 1927.2327,-164 1961.1848,-131.6497 1977.374,-77.7602 1984.4267,-45.1384"/>
<polygon fill="#191970" stroke="#191970" points="1987.9348,-45.4471 1986.4807,-34.9526 1981.073,-44.0634 1987.9348,-45.4471"/>
</g>
<!-- Node76&#45;&gt;Node56 -->
<g id="edge82" class="edge">
<title>Node76&#45;&gt;Node56</title>
<path fill="none" stroke="#191970" d="M1932.8348,-258.4966C2005.9746,-248.468 2116.0536,-233.3744 2192.4122,-222.9045"/>
<polygon fill="#191970" stroke="#191970" points="2193.0551,-226.3491 2202.4869,-221.5231 2192.1041,-219.414 2193.0551,-226.3491"/>
</g>
<!-- Node58 -->
<g id="node35" class="node">
<title>Node58</title>
<g id="a_node35"><a xlink:href="ZoneOrientation_8h.html" target="_top" xlink:title="Declares a class for orientations of zones of DissipatingBody objects. ">
<polygon fill="#ffffff" stroke="#ff0000" points="1837.7327,-200.5 1837.7327,-221.5 1950.7327,-221.5 1950.7327,-200.5 1837.7327,-200.5"/>
<text text-anchor="middle" x="1894.2327" y="-207.9" font-family="Helvetica,sans-Serif" font-size="12.00" fill="#000000">ZoneOrientation.h</text>
</a>
</g>
</g>
<!-- Node76&#45;&gt;Node58 -->
<g id="edge83" class="edge">
<title>Node76&#45;&gt;Node58</title>
<path fill="none" stroke="#191970" d="M1863.2025,-258.3619C1868.3983,-250.4313 1875.6333,-239.3885 1881.8102,-229.9606"/>
<polygon fill="#191970" stroke="#191970" points="1884.7544,-231.8534 1887.3071,-221.5707 1878.8991,-228.0172 1884.7544,-231.8534"/>
</g>
<!-- Node58&#45;&gt;Node3 -->
<g id="edge84" class="edge">
<title>Node58&#45;&gt;Node3</title>
<path fill="none" stroke="#191970" d="M1919.9076,-200.4828C1935.5245,-192.7294 1954.4732,-180.6316 1965.2327,-164 1988.6504,-127.8019 1991.7117,-76.3588 1991.021,-45.0491"/>
<polygon fill="#191970" stroke="#191970" points="1994.512,-44.7369 1990.6474,-34.8721 1987.5167,-44.9938 1994.512,-44.7369"/>
</g>
<!-- Node58&#45;&gt;Node11 -->
<g id="edge89" class="edge">
<title>Node58&#45;&gt;Node11</title>
<path fill="none" stroke="#191970" d="M1939.0282,-200.4934C1989.253,-188.7134 2070.3666,-169.6886 2121.6869,-157.6516"/>
<polygon fill="#191970" stroke="#191970" points="2122.5992,-161.0327 2131.5358,-155.3416 2121.0007,-154.2177 2122.5992,-161.0327"/>
</g>
<!-- Node58&#45;&gt;Node59 -->
<g id="edge85" class="edge">
<title>Node58&#45;&gt;Node59</title>
<path fill="none" stroke="#191970" d="M1881.1874,-200.3491C1868.9514,-190.359 1850.4474,-175.2512 1836.15,-163.5781"/>
<polygon fill="#191970" stroke="#191970" points="1838.257,-160.7799 1828.2973,-157.1667 1833.8299,-166.2022 1838.257,-160.7799"/>
</g>
<!-- Node59&#45;&gt;Node3 -->
<g id="edge86" class="edge">
<title>Node59&#45;&gt;Node3</title>
<path fill="none" stroke="#191970" d="M1812.7174,-135.9201C1809.5989,-119.9967 1806.3549,-89.7443 1821.2327,-71 1831.6248,-57.9071 1863.7286,-46.248 1897.1267,-37.1825"/>
<polygon fill="#191970" stroke="#191970" points="1898.2554,-40.5047 1907.0353,-34.5748 1896.4738,-33.7352 1898.2554,-40.5047"/>
</g>
<!-- Node59&#45;&gt;Node23 -->
<g id="edge88" class="edge">
<title>Node59&#45;&gt;Node23</title>
<path fill="none" stroke="#191970" d="M1822.1681,-135.8491C1828.2718,-126.4757 1837.3091,-112.5969 1844.6802,-101.277"/>
<polygon fill="#191970" stroke="#191970" points="1847.6228,-103.1721 1850.1465,-92.8823 1841.7568,-99.3524 1847.6228,-103.1721"/>
</g>
<!-- Node60 -->
<g id="node37" class="node">
<title>Node60</title>
<polygon fill="#ffffff" stroke="#bfbfbf" points="1698.7327,-71.5 1698.7327,-92.5 1757.7327,-92.5 1757.7327,-71.5 1698.7327,-71.5"/>
<text text-anchor="middle" x="1728.2327" y="-78.9" font-family="Helvetica,sans-Serif" font-size="12.00" fill="#000000">ostream</text>
</g>
<!-- Node59&#45;&gt;Node60 -->
<g id="edge87" class="edge">
<title>Node59&#45;&gt;Node60</title>
<path fill="none" stroke="#191970" d="M1800.8664,-135.8491C1787.2654,-125.7656 1766.6319,-110.4684 1750.828,-98.7517"/>
<polygon fill="#191970" stroke="#191970" points="1752.7379,-95.8107 1742.6203,-92.6667 1748.569,-101.4339 1752.7379,-95.8107"/>
</g>
<!-- Node77&#45;&gt;Node3 -->
<g id="edge92" class="edge">
<title>Node77&#45;&gt;Node3</title>
<path fill="none" stroke="#191970" d="M1294.2785,-200.1221C1315.2344,-172.7459 1374.66,-101.0444 1443.2327,-71 1522.1459,-36.4249 1762.2012,-23.9991 1896.2347,-19.6844"/>
<polygon fill="#191970" stroke="#191970" points="1896.6041,-23.1746 1906.4897,-19.3634 1896.3851,-16.1781 1896.6041,-23.1746"/>
</g>
<!-- Node77&#45;&gt;Node6 -->
<g id="edge93" class="edge">
<title>Node77&#45;&gt;Node6</title>
<path fill="none" stroke="#191970" d="M1247.6271,-200.4934C1206.6542,-189.3426 1141.8285,-171.7001 1097.5069,-159.6379"/>
<polygon fill="#191970" stroke="#191970" points="1098.3899,-156.251 1087.8218,-157.0021 1096.5517,-163.0053 1098.3899,-156.251"/>
</g>
<!-- Node84&#45;&gt;Node1 -->
<g id="edge133" class="edge">
<title>Node84&#45;&gt;Node1</title>
<path fill="none" stroke="#191970" d="M2410.0188,-509.376C2251.7913,-498.157 1850.1045,-469.6755 1707.9996,-459.5996"/>
<polygon fill="#191970" stroke="#191970" points="1708.0492,-456.0944 1697.8266,-458.8783 1707.554,-463.0769 1708.0492,-456.0944"/>
</g>
<!-- Node84&#45;&gt;Node3 -->
<g id="edge97" class="edge">
<title>Node84&#45;&gt;Node3</title>
<path fill="none" stroke="#191970" d="M2540.3497,-510.659C2778.6243,-498.0102 3589.2327,-451.0784 3589.2327,-398 3589.2327,-398 3589.2327,-398 3589.2327,-146.5 3589.2327,-122.0971 3614.1758,-113.5821 3458.2327,-71 3326.1743,-34.9399 2383.5489,-21.7441 2081.8558,-18.417"/>
<polygon fill="#191970" stroke="#191970" points="2081.8638,-14.917 2071.8261,-18.3074 2081.7872,-21.9166 2081.8638,-14.917"/>
</g>
<!-- Node85 -->
<g id="node41" class="node">
<title>Node85</title>
<g id="a_node41"><a xlink:href="DiskBinarySystem_8h.html" target="_top" xlink:title="Declares a class of binary systems which start with a disk&#45;locked star which is then released and at ...">
<polygon fill="#ffffff" stroke="#000000" points="2262.7327,-323 2262.7327,-344 2387.7327,-344 2387.7327,-323 2262.7327,-323"/>
<text text-anchor="middle" x="2325.2327" y="-330.4" font-family="Helvetica,sans-Serif" font-size="12.00" fill="#000000">DiskBinarySystem.h</text>
</a>
</g>
</g>
<!-- Node84&#45;&gt;Node85 -->
<g id="edge98" class="edge">
<title>Node84&#45;&gt;Node85</title>
<path fill="none" stroke="#191970" d="M2466.2987,-503.2495C2441.6582,-473.5988 2372.4872,-390.3629 2341.09,-352.5816"/>
<polygon fill="#191970" stroke="#191970" points="2343.3927,-349.8764 2334.3095,-344.4224 2338.009,-354.3504 2343.3927,-349.8764"/>
</g>
<!-- Node86 -->
<g id="node42" class="node">
<title>Node86</title>
<g id="a_node42"><a xlink:href="OrbitSolver_8h.html" target="_top" xlink:title="Defines the OrbitSolver class, the various stopping conditions and a number of other classes used whi...">
<polygon fill="#ffffff" stroke="#000000" points="2582.2327,-323 2582.2327,-344 2668.2327,-344 2668.2327,-323 2582.2327,-323"/>
<text text-anchor="middle" x="2625.2327" y="-330.4" font-family="Helvetica,sans-Serif" font-size="12.00" fill="#000000">OrbitSolver.h</text>
</a>
</g>
</g>
<!-- Node84&#45;&gt;Node86 -->
<g id="edge103" class="edge">
<title>Node84&#45;&gt;Node86</title>
<path fill="none" stroke="#191970" d="M2484.1666,-503.2495C2508.8071,-473.5988 2577.9782,-390.3629 2609.3754,-352.5816"/>
<polygon fill="#191970" stroke="#191970" points="2612.4563,-354.3504 2616.1559,-344.4224 2607.0726,-349.8764 2612.4563,-354.3504"/>
</g>
<!-- Node93 -->
<g id="node49" class="node">
<title>Node93</title>
<g id="a_node49"><a xlink:href="Planet_2CInterface_8h.html" target="_top" xlink:title="Declare C&#45;style functions for working with LockedPlanet instances. ">
<polygon fill="#ffffff" stroke="#000000" points="2865.2327,-323 2865.2327,-344 2993.2327,-344 2993.2327,-323 2865.2327,-323"/>
<text text-anchor="middle" x="2929.2327" y="-330.4" font-family="Helvetica,sans-Serif" font-size="12.00" fill="#000000">../Planet/CInterface.h</text>
</a>
</g>
</g>
<!-- Node84&#45;&gt;Node93 -->
<g id="edge134" class="edge">
<title>Node84&#45;&gt;Node93</title>
<path fill="none" stroke="#191970" d="M2501.9375,-503.3828C2579.525,-472.5357 2804.9972,-382.8932 2893.232,-347.813"/>
<polygon fill="#191970" stroke="#191970" points="2894.5621,-351.0508 2902.5615,-344.1039 2891.9759,-344.546 2894.5621,-351.0508"/>
</g>
<!-- Node85&#45;&gt;Node3 -->
<g id="edge99" class="edge">
<title>Node85&#45;&gt;Node3</title>
<path fill="none" stroke="#191970" d="M2388.0048,-328.9259C2538.7643,-317.8486 2912.9636,-289.7766 2969.2327,-280 3070.5051,-262.4042 3236.5044,-289.6576 3186.2327,-200 3132.476,-104.1272 3080.1908,-103.6369 2975.2327,-71 2891.4976,-44.9624 2311.7703,-26.3704 2082.3727,-19.9548"/>
<polygon fill="#191970" stroke="#191970" points="2082.1404,-16.4471 2072.0469,-19.6676 2081.9457,-23.4444 2082.1404,-16.4471"/>
</g>
<!-- Node85&#45;&gt;Node24 -->
<g id="edge101" class="edge">
<title>Node85&#45;&gt;Node24</title>
<path fill="none" stroke="#191970" d="M2262.585,-328.746C2214.1654,-325.1167 2145.4638,-320.0651 2085.2327,-316 1845.3139,-299.8077 1225.8046,-322.2473 1007.2327,-222 972.6386,-206.1335 959.5202,-198.8538 944.2327,-164 935.6726,-144.4839 939.1375,-119.8419 943.513,-102.6904"/>
<polygon fill="#191970" stroke="#191970" points="947.0059,-103.2078 946.4027,-92.6302 940.2779,-101.2753 947.0059,-103.2078"/>
</g>
<!-- Node85&#45;&gt;Node15 -->
<g id="edge102" class="edge">
<title>Node85&#45;&gt;Node15</title>
<path fill="none" stroke="#191970" d="M2282.2764,-322.936C2210.0408,-304.2062 2069.3533,-263.2505 2041.2327,-222 2015.9933,-184.976 2039.1038,-130.0862 2054.6961,-101.2688"/>
<polygon fill="#191970" stroke="#191970" points="2057.745,-102.9875 2059.6149,-92.559 2051.6498,-99.5452 2057.745,-102.9875"/>
</g>
<!-- Node85&#45;&gt;Node71 -->
<g id="edge100" class="edge">
<title>Node85&#45;&gt;Node71</title>
<path fill="none" stroke="#191970" d="M2325.2327,-322.8491C2325.2327,-313.9397 2325.2327,-300.9599 2325.2327,-289.9761"/>
<polygon fill="#191970" stroke="#191970" points="2328.7328,-289.8822 2325.2327,-279.8823 2321.7328,-289.8823 2328.7328,-289.8822"/>
</g>
<!-- Node86&#45;&gt;Node3 -->
<g id="edge104" class="edge">
<title>Node86&#45;&gt;Node3</title>
<path fill="none" stroke="#191970" d="M2668.4142,-330.4856C2772.5464,-322.9506 3035.1545,-302.2938 3120.2327,-280 3195.5402,-260.2665 3281.2327,-288.8501 3281.2327,-211 3281.2327,-211 3281.2327,-211 3281.2327,-146.5 3281.2327,-27.8772 3142.1616,-90.9746 3025.2327,-71 2845.344,-40.2703 2301.0228,-24.6663 2081.9964,-19.4978"/>
<polygon fill="#191970" stroke="#191970" points="2081.8944,-15.9946 2071.8152,-19.2596 2081.7306,-22.9927 2081.8944,-15.9946"/>
</g>
<!-- Node86&#45;&gt;Node16 -->
<g id="edge126" class="edge">
<title>Node86&#45;&gt;Node16</title>
<path fill="none" stroke="#191970" d="M2581.9694,-329.8704C2536.1257,-326.0966 2461.6099,-320.1691 2397.2327,-316 2094.3341,-296.384 2011.6357,-345.4033 1715.2327,-280 1497.3102,-231.914 1446.6807,-197.0036 1249.2327,-93 1233.6368,-84.7851 1232.4008,-78.022 1216.2327,-71 1154.4297,-44.1583 1077.0537,-29.6062 1030.4674,-22.7084"/>
<polygon fill="#191970" stroke="#191970" points="1030.8412,-19.2263 1020.4459,-21.2727 1029.8484,-26.1555 1030.8412,-19.2263"/>
</g>
<!-- Node86&#45;&gt;Node12 -->
<g id="edge122" class="edge">
<title>Node86&#45;&gt;Node12</title>
<path fill="none" stroke="#191970" d="M2581.9779,-329.7337C2536.1412,-325.8472 2461.6311,-319.8276 2397.2327,-316 2207.621,-304.7301 1725.9248,-331.9923 1543.2327,-280 1406.2066,-241.0038 1264.9485,-139.177 1212.4983,-98.8238"/>
<polygon fill="#191970" stroke="#191970" points="1214.6259,-96.0446 1204.5803,-92.6774 1210.3335,-101.5742 1214.6259,-96.0446"/>
</g>
<!-- Node86&#45;&gt;Node43 -->
<g id="edge125" class="edge">
<title>Node86&#45;&gt;Node43</title>
<path fill="none" stroke="#191970" d="M2581.9928,-329.4581C2536.1684,-325.3441 2461.6684,-319.1389 2397.2327,-316 2265.0086,-309.5589 105.5567,-319.7031 16.2327,-222 -61.3056,-137.1882 172.6206,-98.3159 267.8422,-86.2877"/>
<polygon fill="#191970" stroke="#191970" points="268.4438,-89.7402 277.9425,-85.0471 267.5904,-82.7924 268.4438,-89.7402"/>
</g>
<!-- Node86&#45;&gt;Node15 -->
<g id="edge130" class="edge">
<title>Node86&#45;&gt;Node15</title>
<path fill="none" stroke="#191970" d="M2582.2312,-330.4616C2495.451,-323.8499 2302.5109,-306.5835 2242.2327,-280 2158.4721,-243.0605 2098.5649,-143.867 2076.0538,-101.5567"/>
<polygon fill="#191970" stroke="#191970" points="2079.0846,-99.7985 2071.3678,-92.539 2072.8732,-103.0263 2079.0846,-99.7985"/>
</g>
<!-- Node86&#45;&gt;Node11 -->
<g id="edge106" class="edge">
<title>Node86&#45;&gt;Node11</title>
<path fill="none" stroke="#191970" d="M2582.2312,-330.4616C2495.451,-323.8499 2302.5109,-306.5835 2242.2327,-280 2205.2651,-263.6968 2190.1439,-258.2158 2172.2327,-222 2163.8562,-205.0632 2163.9561,-183.2838 2165.6456,-167.4731"/>
<polygon fill="#191970" stroke="#191970" points="2169.1674,-167.5526 2167.0584,-157.1699 2162.2323,-166.6017 2169.1674,-167.5526"/>
</g>
<!-- Node86&#45;&gt;Node14 -->
<g id="edge131" class="edge">
<title>Node86&#45;&gt;Node14</title>
<path fill="none" stroke="#191970" d="M2668.581,-330.035C2764.3602,-322.0867 2991.3634,-301.5609 3065.2327,-280 3122.4807,-263.2905 3154.4582,-272.4671 3186.2327,-222 3244.1648,-129.9872 2794.2343,-92.655 2667.7208,-84.0377"/>
<polygon fill="#191970" stroke="#191970" points="2667.7142,-80.5295 2657.5036,-83.3567 2667.2487,-87.514 2667.7142,-80.5295"/>
</g>
<!-- Node86&#45;&gt;Node22 -->
<g id="edge129" class="edge">
<title>Node86&#45;&gt;Node22</title>
<path fill="none" stroke="#191970" d="M2601.7007,-322.9759C2585.0806,-314.1305 2564.0808,-299.7517 2554.2327,-280 2523.4479,-218.257 2627.5416,-187.034 2590.2327,-129 2579.3257,-112.0342 2560.6137,-101.1179 2542.1062,-94.1274"/>
<polygon fill="#191970" stroke="#191970" points="2543.0837,-90.7624 2532.489,-90.8183 2540.8062,-97.3815 2543.0837,-90.7624"/>
</g>
<!-- Node86&#45;&gt;Node27 -->
<g id="edge105" class="edge">
<title>Node86&#45;&gt;Node27</title>
<path fill="none" stroke="#191970" d="M2607.6828,-322.9132C2568.2543,-298.5317 2471.0432,-235.0334 2406.2327,-164 2388.2878,-144.3321 2371.3615,-118.7543 2360.6888,-101.4338"/>
<polygon fill="#191970" stroke="#191970" points="2363.6069,-99.4954 2355.4362,-92.7507 2357.6175,-103.1186 2363.6069,-99.4954"/>
</g>
<!-- Node86&#45;&gt;Node35 -->
<g id="edge123" class="edge">
<title>Node86&#45;&gt;Node35</title>
<path fill="none" stroke="#191970" d="M2668.3694,-329.7333C2756.1029,-321.657 2948.795,-301.6417 2969.2327,-280 2984.1001,-264.2567 2984.2269,-200.9315 2983.1839,-167.4669"/>
<polygon fill="#191970" stroke="#191970" points="2986.6778,-167.2362 2982.805,-157.3746 2979.6827,-167.4989 2986.6778,-167.2362"/>
</g>
<!-- Node86&#45;&gt;Node70 -->
<g id="edge107" class="edge">
<title>Node86&#45;&gt;Node70</title>
<path fill="none" stroke="#191970" d="M2668.2403,-327.1115C2754.5046,-312.5981 2935.2227,-272.6419 2872.2327,-200 2854.0647,-179.0482 2696.6809,-162.4304 2591.9473,-153.5641"/>
<polygon fill="#191970" stroke="#191970" points="2591.9237,-150.0499 2581.6667,-152.7042 2591.3402,-157.0256 2591.9237,-150.0499"/>
</g>
<!-- Node86&#45;&gt;Node71 -->
<g id="edge108" class="edge">
<title>Node86&#45;&gt;Node71</title>
<path fill="none" stroke="#191970" d="M2581.9305,-324.19C2529.8545,-312.9937 2442.2049,-294.149 2384.0395,-281.6435"/>
<polygon fill="#191970" stroke="#191970" points="2384.7656,-278.2197 2374.2533,-279.5394 2383.2941,-285.0633 2384.7656,-278.2197"/>
</g>
<!-- Node86&#45;&gt;Node65 -->
<g id="edge109" class="edge">
<title>Node86&#45;&gt;Node65</title>
<path fill="none" stroke="#191970" d="M2668.3071,-329.9768C2768.1006,-321.5269 3009.0246,-299.3708 3040.2327,-280 3058.3948,-268.7267 3070.9631,-247.3196 3078.3167,-231.3258"/>
<polygon fill="#191970" stroke="#191970" points="3081.6939,-232.3293 3082.4025,-221.7582 3075.2563,-229.5802 3081.6939,-232.3293"/>
</g>
<!-- Node86&#45;&gt;Node73 -->
<g id="edge128" class="edge">
<title>Node86&#45;&gt;Node73</title>
<path fill="none" stroke="#191970" d="M2665.8314,-322.9727C2701.7176,-312.7491 2750.0551,-296.4084 2761.2327,-280 2775.3383,-259.2932 2750.0015,-239.3207 2726.3497,-226.2396"/>
<polygon fill="#191970" stroke="#191970" points="2727.9351,-223.119 2717.4531,-221.5764 2724.6853,-229.3189 2727.9351,-223.119"/>
</g>
<!-- Node86&#45;&gt;Node74 -->
<g id="edge127" class="edge">
<title>Node86&#45;&gt;Node74</title>
<path fill="none" stroke="#191970" d="M2668.3838,-327.3697C2701.537,-320.6962 2746.6794,-307.1068 2777.2327,-280 2791.7614,-267.1101 2800.7558,-246.596 2805.8149,-231.2809"/>
<polygon fill="#191970" stroke="#191970" points="2809.1781,-232.2506 2808.7084,-221.6662 2802.475,-230.2334 2809.1781,-232.2506"/>
</g>
<!-- Node87 -->
<g id="node43" class="node">
<title>Node87</title>
<g id="a_node43"><a xlink:href="ExternalStoppingConditions_8h.html" target="_top" xlink:title="Users can define any stopping condition they wish the evolution to search for in this file...">
<polygon fill="#ffffff" stroke="#ff0000" points="3309.2327,-200.5 3309.2327,-221.5 3485.2327,-221.5 3485.2327,-200.5 3309.2327,-200.5"/>
<text text-anchor="middle" x="3397.2327" y="-207.9" font-family="Helvetica,sans-Serif" font-size="12.00" fill="#000000">ExternalStoppingConditions.h</text>
</a>
</g>
</g>
<!-- Node86&#45;&gt;Node87 -->
<g id="edge110" class="edge">
<title>Node86&#45;&gt;Node87</title>
<path fill="none" stroke="#191970" d="M2668.3935,-330.2001C2815.3812,-318.9438 3287.7954,-282.6076 3295.2327,-280 3327.2186,-268.7853 3358.7066,-244.9978 3378.0461,-228.5111"/>
<polygon fill="#191970" stroke="#191970" points="3380.5709,-230.9528 3385.7959,-221.736 3375.9636,-225.6828 3380.5709,-230.9528"/>
</g>
<!-- Node88 -->
<g id="node44" class="node">
<title>Node88</title>
<g id="a_node44"><a xlink:href="StopInformation_8h.html" target="_top" xlink:title="Declares the StopInformation class. ">
<polygon fill="#ffffff" stroke="#ff0000" points="3397.2327,-258.5 3397.2327,-279.5 3507.2327,-279.5 3507.2327,-258.5 3397.2327,-258.5"/>
<text text-anchor="middle" x="3452.2327" y="-265.9" font-family="Helvetica,sans-Serif" font-size="12.00" fill="#000000">StopInformation.h</text>
</a>
</g>
</g>
<!-- Node86&#45;&gt;Node88 -->
<g id="edge112" class="edge">
<title>Node86&#45;&gt;Node88</title>
<path fill="none" stroke="#191970" d="M2668.6563,-330.173C2715.0824,-326.6247 2790.8558,-320.8585 2856.2327,-316 3075.7651,-299.6853 3130.9876,-299.8047 3350.2327,-280 3362.1509,-278.9234 3374.8391,-277.6542 3387.0721,-276.3677"/>
<polygon fill="#191970" stroke="#191970" points="3387.6411,-279.827 3397.2138,-275.2868 3386.8992,-272.8664 3387.6411,-279.827"/>
</g>
<!-- Node89 -->
<g id="node45" class="node">
<title>Node89</title>
<g id="a_node45"><a xlink:href="StopHistoryInterval_8h.html" target="_top" xlink:title="Declares the StopHistoryInterval class. ">
<polygon fill="#ffffff" stroke="#ff0000" points="1561.2327,-136 1561.2327,-157 1689.2327,-157 1689.2327,-136 1561.2327,-136"/>
<text text-anchor="middle" x="1625.2327" y="-143.4" font-family="Helvetica,sans-Serif" font-size="12.00" fill="#000000">StopHistoryInterval.h</text>
</a>
</g>
</g>
<!-- Node86&#45;&gt;Node89 -->
<g id="edge114" class="edge">
<title>Node86&#45;&gt;Node89</title>
<path fill="none" stroke="#191970" d="M2581.9668,-329.9104C2536.1209,-326.1697 2461.6034,-320.2691 2397.2327,-316 2325.7225,-311.2574 1818.3418,-309.9499 1753.2327,-280 1699.272,-255.1783 1656.4615,-196.5247 1636.8615,-165.8916"/>
<polygon fill="#191970" stroke="#191970" points="1639.5865,-163.6465 1631.3287,-157.0088 1633.6449,-167.3474 1639.5865,-163.6465"/>
</g>
<!-- Node90 -->
<g id="node46" class="node">
<title>Node90</title>
<polygon fill="#ffffff" stroke="#bfbfbf" points="2562.7327,-258.5 2562.7327,-279.5 2615.7327,-279.5 2615.7327,-258.5 2562.7327,-258.5"/>
<text text-anchor="middle" x="2589.2327" y="-265.9" font-family="Helvetica,sans-Serif" font-size="12.00" fill="#000000">math.h</text>
</g>
<!-- Node86&#45;&gt;Node90 -->
<g id="edge121" class="edge">
<title>Node86&#45;&gt;Node90</title>
<path fill="none" stroke="#191970" d="M2619.288,-322.8491C2614.1599,-313.6613 2606.6158,-300.1447 2600.3689,-288.9524"/>
<polygon fill="#191970" stroke="#191970" points="2603.2364,-286.9085 2595.3065,-279.8823 2597.124,-290.3201 2603.2364,-286.9085"/>
</g>
<!-- Node91 -->
<g id="node47" class="node">
<title>Node91</title>
<polygon fill="#ffffff" stroke="#bfbfbf" points="2633.7327,-258.5 2633.7327,-279.5 2688.7327,-279.5 2688.7327,-258.5 2633.7327,-258.5"/>
<text text-anchor="middle" x="2661.2327" y="-265.9" font-family="Helvetica,sans-Serif" font-size="12.00" fill="#000000">stdlib.h</text>
</g>
<!-- Node86&#45;&gt;Node91 -->
<g id="edge124" class="edge">
<title>Node86&#45;&gt;Node91</title>
<path fill="none" stroke="#191970" d="M2631.1773,-322.8491C2636.3054,-313.6613 2643.8496,-300.1447 2650.0964,-288.9524"/>
<polygon fill="#191970" stroke="#191970" points="2653.3413,-290.3201 2655.1588,-279.8823 2647.2289,-286.9085 2653.3413,-290.3201"/>
</g>
<!-- Node92 -->
<g id="node48" class="node">
<title>Node92</title>
<polygon fill="#ffffff" stroke="#bfbfbf" points="2706.7327,-258.5 2706.7327,-279.5 2751.7327,-279.5 2751.7327,-258.5 2706.7327,-258.5"/>
<text text-anchor="middle" x="2729.2327" y="-265.9" font-family="Helvetica,sans-Serif" font-size="12.00" fill="#000000">ctime</text>
</g>
<!-- Node86&#45;&gt;Node92 -->
<g id="edge132" class="edge">
<title>Node86&#45;&gt;Node92</title>
<path fill="none" stroke="#191970" d="M2642.4062,-322.8491C2659.0412,-312.5322 2684.4765,-296.7574 2703.5246,-284.9439"/>
<polygon fill="#191970" stroke="#191970" points="2705.3801,-287.9117 2712.0337,-279.6667 2701.6906,-281.9629 2705.3801,-287.9117"/>
</g>
<!-- Node87&#45;&gt;Node3 -->
<g id="edge111" class="edge">
<title>Node87&#45;&gt;Node3</title>
<path fill="none" stroke="#191970" d="M3393.3314,-200.4075C3382.6194,-173.064 3349.8618,-100.212 3295.2327,-71 3241.8972,-42.4798 2371.4123,-24.3545 2081.9807,-19.0933"/>
<polygon fill="#191970" stroke="#191970" points="2081.9938,-15.593 2071.9321,-18.9116 2081.8672,-22.5919 2081.9938,-15.593"/>
</g>
<!-- Node88&#45;&gt;Node3 -->
<g id="edge113" class="edge">
<title>Node88&#45;&gt;Node3</title>
<path fill="none" stroke="#191970" d="M3466.5857,-258.3297C3482.5948,-245.0401 3504.9272,-221.4641 3494.2327,-200 3451.7771,-114.7907 3412.8814,-103.0345 3323.2327,-71 3207.3463,-29.5899 2365.6479,-20.0669 2082.1484,-18.0238"/>
<polygon fill="#191970" stroke="#191970" points="2081.9207,-14.5222 2071.8962,-17.9514 2081.8712,-21.522 2081.9207,-14.5222"/>
</g>
<!-- Node89&#45;&gt;Node3 -->
<g id="edge115" class="edge">
<title>Node89&#45;&gt;Node3</title>
<path fill="none" stroke="#191970" d="M1631.0455,-135.9584C1640.8719,-119.2248 1662.4409,-86.8581 1690.2327,-71 1724.6817,-51.3432 1821.8822,-36.315 1896.1948,-27.2628"/>
<polygon fill="#191970" stroke="#191970" points="1897.0074,-30.6906 1906.5198,-26.0253 1896.1744,-23.7403 1897.0074,-30.6906"/>
</g>
<!-- Node89&#45;&gt;Node24 -->
<g id="edge116" class="edge">
<title>Node89&#45;&gt;Node24</title>
<path fill="none" stroke="#191970" d="M1561.1218,-140.3738C1422.1055,-127.0901 1096.6325,-95.9893 987.0132,-85.5146"/>
<polygon fill="#191970" stroke="#191970" points="987.0829,-82.0054 976.7953,-84.5382 986.417,-88.9736 987.0829,-82.0054"/>
</g>
<!-- Node89&#45;&gt;Node12 -->
<g id="edge117" class="edge">
<title>Node89&#45;&gt;Node12</title>
<path fill="none" stroke="#191970" d="M1561.1945,-136.9828C1464.2582,-122.5764 1284.4646,-95.8559 1217.3737,-85.885"/>
<polygon fill="#191970" stroke="#191970" points="1217.6563,-82.3887 1207.2504,-84.3805 1216.6273,-89.3126 1217.6563,-82.3887"/>
</g>
<!-- Node89&#45;&gt;Node23 -->
<g id="edge119" class="edge">
<title>Node89&#45;&gt;Node23</title>
<path fill="none" stroke="#191970" d="M1663.0238,-135.9934C1706.2921,-123.9641 1776.7339,-104.38 1819.8361,-92.3969"/>
<polygon fill="#191970" stroke="#191970" points="1820.9502,-95.72 1829.6472,-89.6692 1819.0751,-88.9758 1820.9502,-95.72"/>
</g>
<!-- Node89&#45;&gt;Node53 -->
<g id="edge120" class="edge">
<title>Node89&#45;&gt;Node53</title>
<path fill="none" stroke="#191970" d="M1607.0684,-135.8491C1589.3941,-125.4855 1562.3272,-109.6145 1542.1508,-97.7838"/>
<polygon fill="#191970" stroke="#191970" points="1543.8207,-94.7057 1533.4239,-92.6667 1540.2799,-100.7442 1543.8207,-94.7057"/>
</g>
<!-- Node89&#45;&gt;Node60 -->
<g id="edge118" class="edge">
<title>Node89&#45;&gt;Node60</title>
<path fill="none" stroke="#191970" d="M1642.241,-135.8491C1658.6415,-125.5789 1683.6791,-109.9 1702.5153,-98.1045"/>
<polygon fill="#191970" stroke="#191970" points="1704.5813,-100.9405 1711.199,-92.6667 1700.8661,-95.0077 1704.5813,-100.9405"/>
</g>
<!-- Node93&#45;&gt;Node3 -->
<g id="edge135" class="edge">
<title>Node93&#45;&gt;Node3</title>
<path fill="none" stroke="#191970" d="M2993.2492,-331.1398C3136.5001,-325.3659 3473.7068,-308.8525 3516.2327,-280 3544.6879,-260.694 3551.2327,-245.3863 3551.2327,-211 3551.2327,-211 3551.2327,-211 3551.2327,-146.5 3551.2327,-57.2826 3452.4484,-89.7926 3365.2327,-71 3240.7992,-44.188 2371.0614,-24.9596 2082.2262,-19.2536"/>
<polygon fill="#191970" stroke="#191970" points="2082.2656,-15.7538 2072.1987,-19.0563 2082.1279,-22.7524 2082.2656,-15.7538"/>
</g>
<!-- Node94 -->
<g id="node50" class="node">
<title>Node94</title>
<g id="a_node50"><a xlink:href="Planet_8h.html" target="_top" xlink:title="Declares a class for planets that are always locked to the orbit. ">
<polygon fill="#ffffff" stroke="#ff0000" points="2898.7327,-258.5 2898.7327,-279.5 2959.7327,-279.5 2959.7327,-258.5 2898.7327,-258.5"/>
<text text-anchor="middle" x="2929.2327" y="-265.9" font-family="Helvetica,sans-Serif" font-size="12.00" fill="#000000">Planet.h</text>
</a>
</g>
</g>
<!-- Node93&#45;&gt;Node94 -->
<g id="edge136" class="edge">
<title>Node93&#45;&gt;Node94</title>
<path fill="none" stroke="#191970" d="M2929.2327,-322.8491C2929.2327,-313.9397 2929.2327,-300.9599 2929.2327,-289.9761"/>
<polygon fill="#191970" stroke="#191970" points="2932.7328,-289.8822 2929.2327,-279.8823 2925.7328,-289.8823 2932.7328,-289.8822"/>
</g>
<!-- Node94&#45;&gt;Node3 -->
<g id="edge137" class="edge">
<title>Node94&#45;&gt;Node3</title>
<path fill="none" stroke="#191970" d="M2925.2636,-258.1206C2919.5284,-243.5445 2907.7684,-217.4899 2891.2327,-200 2817.0183,-121.5031 2787.839,-104.7858 2685.2327,-71 2575.7953,-34.9649 2244.9598,-22.9452 2081.9871,-19.1458"/>
<polygon fill="#191970" stroke="#191970" points="2082.0519,-15.6464 2071.9748,-18.9178 2081.8925,-22.6446 2082.0519,-15.6464"/>
</g>
<!-- Node94&#45;&gt;Node56 -->
<g id="edge138" class="edge">
<title>Node94&#45;&gt;Node56</title>
<path fill="none" stroke="#191970" d="M2898.3191,-266.2416C2804.2916,-257.8514 2519.1308,-232.4063 2370.91,-219.1804"/>
<polygon fill="#191970" stroke="#191970" points="2371.1854,-215.6912 2360.9138,-218.2885 2370.5631,-222.6635 2371.1854,-215.6912"/>
</g>
</g>
</svg>
        <g id="navigator" transform="translate(0 0)" fill="#404254">
                <rect fill="#f2f5e9" fill-opacity="0.5" stroke="#606060" stroke-width=".5" x="0" y="0" width="60" height="60"/>
                <use id="zoomplus" xlink:href="#zoomPlus" x="17" y="9" onmousedown="handleZoom(evt,'in')"/>
                <use id="zoomminus" xlink:href="#zoomMin" x="42" y="9" onmousedown="handleZoom(evt,'out')"/>
                <use id="reset" xlink:href="#resetDef" x="30" y="36" onmousedown="handleReset()"/>
                <g id="arrowUp" xlink:href="#dirArrow" transform="translate(30 24)" onmousedown="handlePan(0,-1)">
                  <use xlink:href="#rim" fill="#404040">
                        <set attributeName="fill" to="#808080" begin="arrowUp.mouseover" end="arrowUp.mouseout"/>
                  </use>
                  <path fill="none" stroke="white" stroke-width="1.5" d="M0,-3.0v7 M-2.5,-0.5L0,-3.0L2.5,-0.5"/>
                </g>
                <g id="arrowRight" xlink:href="#dirArrow" transform="rotate(90) translate(36 -43)" onmousedown="handlePan(1,0)">
                  <use xlink:href="#rim" fill="#404040">
                        <set attributeName="fill" to="#808080" begin="arrowRight.mouseover" end="arrowRight.mouseout"/>
                  </use>
                  <path fill="none" stroke="white" stroke-width="1.5" d="M0,-3.0v7 M-2.5,-0.5L0,-3.0L2.5,-0.5"/>
                </g>
                <g id="arrowDown" xlink:href="#dirArrow" transform="rotate(180) translate(-30 -48)" onmousedown="handlePan(0,1)">
                  <use xlink:href="#rim" fill="#404040">
                        <set attributeName="fill" to="#808080" begin="arrowDown.mouseover" end="arrowDown.mouseout"/>
                  </use>
                  <path fill="none" stroke="white" stroke-width="1.5" d="M0,-3.0v7 M-2.5,-0.5L0,-3.0L2.5,-0.5"/>
                </g>
                <g id="arrowLeft" xlink:href="#dirArrow" transform="rotate(270) translate(-36 17)" onmousedown="handlePan(-1,0)">
                  <use xlink:href="#rim" fill="#404040">
                        <set attributeName="fill" to="#808080" begin="arrowLeft.mouseover" end="arrowLeft.mouseout"/>
                  </use>
                  <path fill="none" stroke="white" stroke-width="1.5" d="M0,-3.0v7 M-2.5,-0.5L0,-3.0L2.5,-0.5"/>
                </g>
        </g>
        <svg viewBox="0 0 15 15" width="100%" height="30px" preserveAspectRatio="xMaxYMin meet">
         <g id="arrow_out" transform="scale(0.3 0.3)">
          <a xlink:href="Star_2CInterface_8cpp__incl_org.svg" target="_base">
           <rect id="button" ry="5" rx="5" y="6" x="6" height="38" width="38"
                fill="#f2f5e9" fill-opacity="0.5" stroke="#606060" stroke-width="1.0"/>
           <path id="arrow"
             d="M 11.500037,31.436501 C 11.940474,20.09759 22.043105,11.32322 32.158766,21.979434 L 37.068811,17.246167 C 37.068811,17.246167 37.088388,32 37.088388,32 L 22.160133,31.978069 C 22.160133,31.978069 26.997745,27.140456 26.997745,27.140456 C 18.528582,18.264221 13.291696,25.230495 11.500037,31.436501 z"
             style="fill:#404040;"/>
          </a>
         </g>
        </svg>
</svg>
