<?xml version="1.0" encoding="UTF-8" standalone="no"?>
<!DOCTYPE svg PUBLIC "-//W3C//DTD SVG 1.1//EN"
 "http://www.w3.org/Graphics/SVG/1.1/DTD/svg11.dtd">
<!-- Generated by graphviz version 2.40.1 (20161225.0304)
 -->
<!-- Title: /Users/kpenev/projects/git/poet/poet_src/StellarEvolution/CInterface.cpp Pages: 1 -->
<svg width="2708pt" height="683pt"
 viewBox="0.00 0.00 2708.00 683.00" xmlns="http://www.w3.org/2000/svg" xmlns:xlink="http://www.w3.org/1999/xlink">
<g id="graph0" class="graph" transform="scale(1 1) rotate(0) translate(4 679)">
<title>/Users/kpenev/projects/git/poet/poet_src/StellarEvolution/CInterface.cpp</title>
<polygon fill="#ffffff" stroke="transparent" points="-4,4 -4,-679 2704,-679 2704,4 -4,4"/>
<!-- Node0 -->
<g id="node1" class="node">
<title>Node0</title>
<polygon fill="#bfbfbf" stroke="#000000" points="2226.6152,-630.5 2226.6152,-674.5 2421.3848,-674.5 2421.3848,-630.5 2226.6152,-630.5"/>
<text text-anchor="start" x="2234.6152" y="-660.9" font-family="Helvetica,sans-Serif" font-size="12.00" fill="#000000">/Users/kpenev/projects</text>
<text text-anchor="start" x="2234.6152" y="-648.9" font-family="Helvetica,sans-Serif" font-size="12.00" fill="#000000">/git/poet/poet_src/StellarEvolution</text>
<text text-anchor="middle" x="2324" y="-636.9" font-family="Helvetica,sans-Serif" font-size="12.00" fill="#000000">/CInterface.cpp</text>
</g>
<!-- Node1 -->
<g id="node2" class="node">
<title>Node1</title>
<g id="a_node2"><a xlink:href="StellarEvolution_2CInterface_8h.html" target="_top" xlink:title="Declare C&#45;style functions for accessing the functionality of the StellarEvolution library...">
<polygon fill="#ffffff" stroke="#000000" points="2283.3164,-573.5 2283.3164,-593.5 2364.6836,-593.5 2364.6836,-573.5 2283.3164,-573.5"/>
<text text-anchor="middle" x="2324" y="-579.9" font-family="Helvetica,sans-Serif" font-size="12.00" fill="#000000">CInterface.h</text>
</a>
</g>
</g>
<!-- Node0&#45;&gt;Node1 -->
<g id="edge1" class="edge">
<title>Node0&#45;&gt;Node1</title>
<path fill="none" stroke="#191970" d="M2324,-630.2882C2324,-621.8377 2324,-612.2557 2324,-603.9736"/>
<polygon fill="#191970" stroke="#191970" points="2327.5001,-603.7136 2324,-593.7137 2320.5001,-603.7137 2327.5001,-603.7136"/>
</g>
<!-- Node2 -->
<g id="node3" class="node">
<title>Node2</title>
<g id="a_node3"><a xlink:href="SharedLibraryExportMacros_8h_source.html" target="_top" xlink:title="../Core/SharedLibraryExport\lMacros.h">
<polygon fill="#ffffff" stroke="#000000" points="1503.2988,-.5 1503.2988,-32.5 1668.7012,-32.5 1668.7012,-.5 1503.2988,-.5"/>
<text text-anchor="start" x="1511.2988" y="-18.9" font-family="Helvetica,sans-Serif" font-size="12.00" fill="#000000">../Core/SharedLibraryExport</text>
<text text-anchor="middle" x="1586" y="-6.9" font-family="Helvetica,sans-Serif" font-size="12.00" fill="#000000">Macros.h</text>
</a>
</g>
</g>
<!-- Node1&#45;&gt;Node2 -->
<g id="edge2" class="edge">
<title>Node1&#45;&gt;Node2</title>
<path fill="none" stroke="#191970" d="M2364.9544,-579.84C2462.4053,-570.0039 2700,-538.9059 2700,-469.5 2700,-469.5 2700,-469.5 2700,-142.5 2700,-103.4843 2685.8442,-88.4112 2652,-69 2631.0208,-56.9675 1934.8815,-29.6293 1679.0827,-19.9642"/>
<polygon fill="#191970" stroke="#191970" points="1679.1938,-16.466 1669.0689,-19.5864 1678.9298,-23.461 1679.1938,-16.466"/>
</g>
<!-- Node3 -->
<g id="node4" class="node">
<title>Node3</title>
<g id="a_node4"><a xlink:href="MESAIO_8h.html" target="_top" xlink:title="Defines the classes for generating stellar evolution interpolators from the MESA tracks. ">
<polygon fill="#ffffff" stroke="#000000" points="1911.6582,-516.5 1911.6582,-536.5 1984.3418,-536.5 1984.3418,-516.5 1911.6582,-516.5"/>
<text text-anchor="middle" x="1948" y="-522.9" font-family="Helvetica,sans-Serif" font-size="12.00" fill="#000000">MESAIO.h</text>
</a>
</g>
</g>
<!-- Node1&#45;&gt;Node3 -->
<g id="edge3" class="edge">
<title>Node1&#45;&gt;Node3</title>
<path fill="none" stroke="#191970" d="M2283.0456,-577.2915C2212.5136,-566.5991 2068.5681,-544.7776 1994.4259,-533.538"/>
<polygon fill="#191970" stroke="#191970" points="1994.8539,-530.0629 1984.4423,-532.0245 1993.8047,-536.9839 1994.8539,-530.0629"/>
</g>
<!-- Node3&#45;&gt;Node2 -->
<g id="edge4" class="edge">
<title>Node3&#45;&gt;Node2</title>
<path fill="none" stroke="#191970" d="M1984.7092,-525.3358C2112.6413,-521.0733 2534.0586,-505.2381 2589,-480 2630.8377,-460.7813 2662,-452.5408 2662,-406.5 2662,-406.5 2662,-406.5 2662,-142.5 2662,-106.3187 2657.097,-89.0812 2627,-69 2607.4088,-55.9284 1930.8901,-29.3848 1679.1382,-19.9354"/>
<polygon fill="#191970" stroke="#191970" points="1679.0411,-16.4294 1668.917,-19.5524 1678.7789,-23.4245 1679.0411,-16.4294"/>
</g>
<!-- Node4 -->
<g id="node5" class="node">
<title>Node4</title>
<g id="a_node5"><a xlink:href="Interpolator_8h.html" target="_top" xlink:title="Defines the StellarEvolution class needed for interpolating among stellar evolution tracks...">
<polygon fill="#ffffff" stroke="#000000" points="1172.9727,-459.5 1172.9727,-479.5 1259.0273,-479.5 1259.0273,-459.5 1172.9727,-459.5"/>
<text text-anchor="middle" x="1216" y="-465.9" font-family="Helvetica,sans-Serif" font-size="12.00" fill="#000000">Interpolator.h</text>
</a>
</g>
</g>
<!-- Node3&#45;&gt;Node4 -->
<g id="edge5" class="edge">
<title>Node3&#45;&gt;Node4</title>
<path fill="none" stroke="#191970" d="M1911.4496,-523.6539C1791.6814,-514.3277 1410.6637,-484.6582 1269.3839,-473.6569"/>
<polygon fill="#191970" stroke="#191970" points="1269.4771,-470.1537 1259.2355,-472.8667 1268.9336,-477.1326 1269.4771,-470.1537"/>
</g>
<!-- Node10 -->
<g id="node11" class="node">
<title>Node10</title>
<g id="a_node11"><a xlink:href="Core_2Common_8h.html" target="_top" xlink:title="Declaration of some general purpose utilities. ">
<polygon fill="#ffffff" stroke="#000000" points="1669.6563,-132.5 1669.6563,-152.5 1744.3438,-152.5 1744.3438,-132.5 1669.6563,-132.5"/>
<text text-anchor="middle" x="1707" y="-138.9" font-family="Helvetica,sans-Serif" font-size="12.00" fill="#000000">Common.h</text>
</a>
</g>
</g>
<!-- Node3&#45;&gt;Node10 -->
<g id="edge106" class="edge">
<title>Node3&#45;&gt;Node10</title>
<path fill="none" stroke="#191970" d="M1951.8522,-516.4274C1962.4753,-487.0466 1989.8065,-399.3319 1965,-333 1936.5296,-256.8708 1911.653,-241.5146 1845,-195 1817.6663,-175.9248 1782.4964,-162.6827 1754.5029,-154.2693"/>
<polygon fill="#191970" stroke="#191970" points="1755.1208,-150.8045 1744.542,-151.3862 1753.1746,-157.5286 1755.1208,-150.8045"/>
</g>
<!-- Node15 -->
<g id="node16" class="node">
<title>Node15</title>
<polygon fill="#ffffff" stroke="#bfbfbf" points="303.9932,-6.5 303.9932,-26.5 366.0068,-26.5 366.0068,-6.5 303.9932,-6.5"/>
<text text-anchor="middle" x="335" y="-12.9" font-family="Helvetica,sans-Serif" font-size="12.00" fill="#000000">iostream</text>
</g>
<!-- Node3&#45;&gt;Node15 -->
<g id="edge110" class="edge">
<title>Node3&#45;&gt;Node15</title>
<path fill="none" stroke="#191970" d="M1911.439,-526.3757C1659.8436,-525.4216 192.348,-518.2277 107,-480 66.1087,-461.6846 38,-451.3058 38,-406.5 38,-406.5 38,-406.5 38,-343.5 38,-185.7435 229.7583,-70.3814 305.1101,-31.1395"/>
<polygon fill="#191970" stroke="#191970" points="306.8122,-34.2002 314.1155,-26.5248 303.6198,-27.9705 306.8122,-34.2002"/>
</g>
<!-- Node22 -->
<g id="node23" class="node">
<title>Node22</title>
<polygon fill="#ffffff" stroke="#bfbfbf" points="2373.6611,-69.5 2373.6611,-89.5 2428.3389,-89.5 2428.3389,-69.5 2373.6611,-69.5"/>
<text text-anchor="middle" x="2401" y="-75.9" font-family="Helvetica,sans-Serif" font-size="12.00" fill="#000000">cassert</text>
</g>
<!-- Node3&#45;&gt;Node22 -->
<g id="edge114" class="edge">
<title>Node3&#45;&gt;Node22</title>
<path fill="none" stroke="#191970" d="M1968.9161,-516.4961C1986.8756,-507.6322 2013.233,-493.9631 2035,-480 2070.2401,-457.3942 2077.938,-449.9243 2110,-423 2242.2225,-311.9651 2319.9796,-314.5104 2395,-159 2403.9421,-140.4638 2404.5209,-116.6411 2403.4349,-99.9257"/>
<polygon fill="#191970" stroke="#191970" points="2406.891,-99.2832 2402.4993,-89.6414 2399.9197,-99.9174 2406.891,-99.2832"/>
</g>
<!-- Node23 -->
<g id="node24" class="node">
<title>Node23</title>
<g id="a_node24"><a xlink:href="Error_8h.html" target="_top" xlink:title="Defines the exception hierarchy used by this code. ">
<polygon fill="#ffffff" stroke="#000000" points="851.9912,-69.5 851.9912,-89.5 904.0088,-89.5 904.0088,-69.5 851.9912,-69.5"/>
<text text-anchor="middle" x="878" y="-75.9" font-family="Helvetica,sans-Serif" font-size="12.00" fill="#000000">Error.h</text>
</a>
</g>
</g>
<!-- Node3&#45;&gt;Node23 -->
<g id="edge108" class="edge">
<title>Node3&#45;&gt;Node23</title>
<path fill="none" stroke="#191970" d="M1911.3719,-525.6872C1738.9469,-521.7489 1012.3953,-503.8608 914,-480 855.0536,-465.7055 830.19,-468.4288 790,-423 767.3355,-397.3812 688.2682,-153.2065 709,-126 725.0417,-104.9484 797.312,-91.0361 841.9905,-84.2806"/>
<polygon fill="#191970" stroke="#191970" points="842.5014,-87.7432 851.8893,-82.8322 841.4879,-80.817 842.5014,-87.7432"/>
</g>
<!-- Node25 -->
<g id="node26" class="node">
<title>Node25</title>
<polygon fill="#ffffff" stroke="#bfbfbf" points="129.3281,-6.5 129.3281,-26.5 174.6719,-26.5 174.6719,-6.5 129.3281,-6.5"/>
<text text-anchor="middle" x="152" y="-12.9" font-family="Helvetica,sans-Serif" font-size="12.00" fill="#000000">string</text>
</g>
<!-- Node3&#45;&gt;Node25 -->
<g id="edge113" class="edge">
<title>Node3&#45;&gt;Node25</title>
<path fill="none" stroke="#191970" d="M1911.3443,-526.4485C1655.8338,-525.9838 148.4672,-521.487 62,-480 23.4689,-461.5128 0,-449.2366 0,-406.5 0,-406.5 0,-406.5 0,-142.5 0,-80.8382 75.0584,-43.618 119.6862,-26.9375"/>
<polygon fill="#191970" stroke="#191970" points="121.0164,-30.1787 129.2441,-23.5036 118.6496,-23.5909 121.0164,-30.1787"/>
</g>
<!-- Node26 -->
<g id="node27" class="node">
<title>Node26</title>
<g id="a_node27"><a xlink:href="AstronomicalConstants_8h.html" target="_top" xlink:title="Defines various astronomical constants. ">
<polygon fill="#ffffff" stroke="#000000" points="2446.3027,-69.5 2446.3027,-89.5 2595.6973,-89.5 2595.6973,-69.5 2446.3027,-69.5"/>
<text text-anchor="middle" x="2521" y="-75.9" font-family="Helvetica,sans-Serif" font-size="12.00" fill="#000000">AstronomicalConstants.h</text>
</a>
</g>
</g>
<!-- Node3&#45;&gt;Node26 -->
<g id="edge107" class="edge">
<title>Node3&#45;&gt;Node26</title>
<path fill="none" stroke="#191970" d="M1984.4669,-526.1928C2110.4738,-524.8039 2522.2524,-517.4163 2567,-480 2592.8841,-458.3567 2586,-440.2405 2586,-406.5 2586,-406.5 2586,-406.5 2586,-211.5 2586,-166.909 2555.7772,-121.7542 2536.5485,-97.5379"/>
<polygon fill="#191970" stroke="#191970" points="2539.0869,-95.1139 2530.038,-89.6032 2533.6754,-99.5541 2539.0869,-95.1139"/>
</g>
<!-- Node30 -->
<g id="node30" class="node">
<title>Node30</title>
<polygon fill="#ffffff" stroke="#bfbfbf" points="1453.9736,-126.5 1453.9736,-158.5 1566.0264,-158.5 1566.0264,-126.5 1453.9736,-126.5"/>
<text text-anchor="start" x="1461.9736" y="-144.9" font-family="Helvetica,sans-Serif" font-size="12.00" fill="#000000">boost/serialization</text>
<text text-anchor="middle" x="1510" y="-132.9" font-family="Helvetica,sans-Serif" font-size="12.00" fill="#000000">/base_object.hpp</text>
</g>
<!-- Node3&#45;&gt;Node30 -->
<g id="edge118" class="edge">
<title>Node3&#45;&gt;Node30</title>
<path fill="none" stroke="#191970" d="M1911.5699,-525.4216C1766.6651,-520.9851 1235.559,-503.2729 1164,-480 1119.3305,-465.4723 1097.5438,-464.2092 1075,-423 1067.9609,-410.1329 1065.174,-400.8885 1075,-390 1127.3826,-331.9531 1362.5471,-401.0427 1425,-354 1484.9894,-308.8129 1502.7485,-214.3847 1507.922,-168.5598"/>
<polygon fill="#191970" stroke="#191970" points="1511.4127,-168.8281 1508.9389,-158.5261 1504.4483,-168.1222 1511.4127,-168.8281"/>
</g>
<!-- Node31 -->
<g id="node31" class="node">
<title>Node31</title>
<polygon fill="#ffffff" stroke="#bfbfbf" points="2275.9756,-126.5 2275.9756,-158.5 2386.0244,-158.5 2386.0244,-126.5 2275.9756,-126.5"/>
<text text-anchor="start" x="2283.9756" y="-144.9" font-family="Helvetica,sans-Serif" font-size="12.00" fill="#000000">boost/archive/text</text>
<text text-anchor="middle" x="2331" y="-132.9" font-family="Helvetica,sans-Serif" font-size="12.00" fill="#000000">_oarchive.hpp</text>
</g>
<!-- Node3&#45;&gt;Node31 -->
<g id="edge116" class="edge">
<title>Node3&#45;&gt;Node31</title>
<path fill="none" stroke="#191970" d="M1961.7714,-516.2844C2009.4356,-480.4842 2170.297,-355.9291 2277,-228 2292.6555,-209.2302 2307.2535,-185.5892 2317.3142,-167.9262"/>
<polygon fill="#191970" stroke="#191970" points="2320.5925,-169.2344 2322.4146,-158.7974 2314.4816,-165.8201 2320.5925,-169.2344"/>
</g>
<!-- Node32 -->
<g id="node32" class="node">
<title>Node32</title>
<polygon fill="#ffffff" stroke="#bfbfbf" points="717.9756,-126.5 717.9756,-158.5 828.0244,-158.5 828.0244,-126.5 717.9756,-126.5"/>
<text text-anchor="start" x="725.9756" y="-144.9" font-family="Helvetica,sans-Serif" font-size="12.00" fill="#000000">boost/archive/text</text>
<text text-anchor="middle" x="773" y="-132.9" font-family="Helvetica,sans-Serif" font-size="12.00" fill="#000000">_iarchive.hpp</text>
</g>
<!-- Node3&#45;&gt;Node32 -->
<g id="edge117" class="edge">
<title>Node3&#45;&gt;Node32</title>
<path fill="none" stroke="#191970" d="M1911.6499,-525.9414C1726.5615,-522.7383 894.5799,-503.8926 817,-423 749.667,-352.7919 759.9977,-224.1408 768.2666,-168.872"/>
<polygon fill="#191970" stroke="#191970" points="771.7485,-169.2626 769.8693,-158.8357 764.8361,-168.1587 771.7485,-169.2626"/>
</g>
<!-- Node34 -->
<g id="node33" class="node">
<title>Node34</title>
<polygon fill="#ffffff" stroke="#bfbfbf" points="627.6611,-201.5 627.6611,-221.5 676.3389,-221.5 676.3389,-201.5 627.6611,-201.5"/>
<text text-anchor="middle" x="652" y="-207.9" font-family="Helvetica,sans-Serif" font-size="12.00" fill="#000000">vector</text>
</g>
<!-- Node3&#45;&gt;Node34 -->
<g id="edge115" class="edge">
<title>Node3&#45;&gt;Node34</title>
<path fill="none" stroke="#191970" d="M1911.5226,-525.9043C1724.9566,-522.7545 876.0541,-507.1519 614,-480 423.7636,-460.2893 190,-597.7549 190,-406.5 190,-406.5 190,-406.5 190,-343.5 190,-254.5965 510.2884,-222.2286 617.5048,-213.8841"/>
<polygon fill="#191970" stroke="#191970" points="617.7795,-217.3734 627.4871,-213.1292 617.2516,-210.3933 617.7795,-217.3734"/>
</g>
<!-- Node42 -->
<g id="node40" class="node">
<title>Node42</title>
<polygon fill="#ffffff" stroke="#bfbfbf" points="1899.9961,-333.5 1899.9961,-353.5 1956.0039,-353.5 1956.0039,-333.5 1899.9961,-333.5"/>
<text text-anchor="middle" x="1928" y="-339.9" font-family="Helvetica,sans-Serif" font-size="12.00" fill="#000000">fstream</text>
</g>
<!-- Node3&#45;&gt;Node42 -->
<g id="edge112" class="edge">
<title>Node3&#45;&gt;Node42</title>
<path fill="none" stroke="#191970" d="M1946.8962,-516.4005C1943.7211,-487.3483 1934.5185,-403.1439 1930.2382,-363.9791"/>
<polygon fill="#191970" stroke="#191970" points="1933.6908,-363.3544 1929.125,-353.7939 1926.7322,-364.115 1933.6908,-363.3544"/>
</g>
<!-- Node50 -->
<g id="node48" class="node">
<title>Node50</title>
<g id="a_node48"><a xlink:href="IOUtil_8h_source.html" target="_top" xlink:title="../IO/IOUtil.h">
<polygon fill="#ffffff" stroke="#000000" points="293.9941,-132.5 293.9941,-152.5 376.0059,-152.5 376.0059,-132.5 293.9941,-132.5"/>
<text text-anchor="middle" x="335" y="-138.9" font-family="Helvetica,sans-Serif" font-size="12.00" fill="#000000">../IO/IOUtil.h</text>
</a>
</g>
</g>
<!-- Node3&#45;&gt;Node50 -->
<g id="edge102" class="edge">
<title>Node3&#45;&gt;Node50</title>
<path fill="none" stroke="#191970" d="M1911.3634,-526.0517C1667.0782,-522.9975 281.2767,-504.63 196,-480 135.9136,-462.6455 76,-469.0424 76,-406.5 76,-406.5 76,-406.5 76,-343.5 76,-237.5524 212.934,-179.4087 287.6672,-155.5654"/>
<polygon fill="#191970" stroke="#191970" points="288.8282,-158.8698 297.3392,-152.56 286.751,-152.1851 288.8282,-158.8698"/>
</g>
<!-- Node51 -->
<g id="node49" class="node">
<title>Node51</title>
<polygon fill="#ffffff" stroke="#bfbfbf" points="2380.3027,-459.5 2380.3027,-479.5 2481.6973,-479.5 2481.6973,-459.5 2380.3027,-459.5"/>
<text text-anchor="middle" x="2431" y="-465.9" font-family="Helvetica,sans-Serif" font-size="12.00" fill="#000000">dirent_hacked.h</text>
</g>
<!-- Node3&#45;&gt;Node51 -->
<g id="edge109" class="edge">
<title>Node3&#45;&gt;Node51</title>
<path fill="none" stroke="#191970" d="M1984.4174,-523.0594C2057.1019,-516.0575 2225.283,-499.1807 2366,-480 2367.3061,-479.822 2368.6263,-479.6387 2369.9569,-479.451"/>
<polygon fill="#191970" stroke="#191970" points="2370.9059,-482.8495 2380.294,-477.9389 2369.8927,-475.9232 2370.9059,-482.8495"/>
</g>
<!-- Node52 -->
<g id="node50" class="node">
<title>Node52</title>
<polygon fill="#ffffff" stroke="#bfbfbf" points="2499.9883,-459.5 2499.9883,-479.5 2558.0117,-479.5 2558.0117,-459.5 2499.9883,-459.5"/>
<text text-anchor="middle" x="2529" y="-465.9" font-family="Helvetica,sans-Serif" font-size="12.00" fill="#000000">iomanip</text>
</g>
<!-- Node3&#45;&gt;Node52 -->
<g id="edge111" class="edge">
<title>Node3&#45;&gt;Node52</title>
<path fill="none" stroke="#191970" d="M1984.5242,-525.689C2070.9593,-523.2766 2294.8161,-514.142 2489.8142,-479.9347"/>
<polygon fill="#191970" stroke="#191970" points="2490.433,-483.3797 2499.6645,-478.1807 2489.2058,-476.4881 2490.433,-483.3797"/>
</g>
<!-- Node4&#45;&gt;Node2 -->
<g id="edge6" class="edge">
<title>Node4&#45;&gt;Node2</title>
<path fill="none" stroke="#191970" d="M1259.0625,-468.3179C1398.7876,-464.2556 1838.5386,-449.6295 1978,-423 2274.746,-366.3377 2624,-513.6072 2624,-211.5 2624,-211.5 2624,-211.5 2624,-142.5 2624,-108.7595 2631.1367,-90.3376 2605,-69 2587.1829,-54.4543 1927.23,-28.943 1679.0678,-19.8424"/>
<polygon fill="#191970" stroke="#191970" points="1679.1097,-16.3417 1668.9884,-19.4735 1678.8536,-23.337 1679.1097,-16.3417"/>
</g>
<!-- Node5 -->
<g id="node6" class="node">
<title>Node5</title>
<g id="a_node6"><a xlink:href="EvolvingStellarQuantity_8h.html" target="_top" xlink:title="Declares a class implementing the intepolation of a single stellar quantity from stellar evolution tr...">
<polygon fill="#ffffff" stroke="#000000" points="1618.4082,-396.5 1618.4082,-416.5 1767.5918,-416.5 1767.5918,-396.5 1618.4082,-396.5"/>
<text text-anchor="middle" x="1693" y="-402.9" font-family="Helvetica,sans-Serif" font-size="12.00" fill="#000000">EvolvingStellarQuantity.h</text>
</a>
</g>
</g>
<!-- Node4&#45;&gt;Node5 -->
<g id="edge7" class="edge">
<title>Node4&#45;&gt;Node5</title>
<path fill="none" stroke="#191970" d="M1259.1807,-465.4774C1331.6912,-458.4794 1482.4183,-442.8911 1609,-423 1617.4421,-421.6734 1626.3295,-420.1103 1635.0364,-418.4839"/>
<polygon fill="#191970" stroke="#191970" points="1635.9707,-421.8689 1645.1371,-416.556 1634.6582,-414.993 1635.9707,-421.8689"/>
</g>
<!-- Node11 -->
<g id="node12" class="node">
<title>Node11</title>
<polygon fill="#ffffff" stroke="#bfbfbf" points="477.667,-69.5 477.667,-89.5 508.333,-89.5 508.333,-69.5 477.667,-69.5"/>
<text text-anchor="middle" x="493" y="-75.9" font-family="Helvetica,sans-Serif" font-size="12.00" fill="#000000">list</text>
</g>
<!-- Node4&#45;&gt;Node11 -->
<g id="edge92" class="edge">
<title>Node4&#45;&gt;Node11</title>
<path fill="none" stroke="#191970" d="M1172.9452,-467.9694C1023.4746,-461.97 528.9355,-436.1884 397,-354 359.0413,-330.3539 341.5994,-307.4951 352,-264 368.5921,-194.6121 385.3352,-178.17 434,-126 444.5627,-114.6765 458.0192,-103.8539 469.4129,-95.5034"/>
<polygon fill="#191970" stroke="#191970" points="471.534,-98.2896 477.6416,-89.6323 467.4683,-92.5913 471.534,-98.2896"/>
</g>
<!-- Node12 -->
<g id="node13" class="node">
<title>Node12</title>
<polygon fill="#ffffff" stroke="#bfbfbf" points="1073.6602,-69.5 1073.6602,-89.5 1132.3398,-89.5 1132.3398,-69.5 1073.6602,-69.5"/>
<text text-anchor="middle" x="1103" y="-75.9" font-family="Helvetica,sans-Serif" font-size="12.00" fill="#000000">valarray</text>
</g>
<!-- Node4&#45;&gt;Node12 -->
<g id="edge91" class="edge">
<title>Node4&#45;&gt;Node12</title>
<path fill="none" stroke="#191970" d="M1172.9422,-461.0561C1135.9265,-452.8191 1086.7063,-439.187 1075,-423 1066.4053,-411.1155 1073.9224,-404.627 1075,-390 1080.3478,-317.4109 1092.6753,-300.5105 1099,-228 1102.9787,-182.3848 1103.3627,-128.6166 1103.2243,-99.9428"/>
<polygon fill="#191970" stroke="#191970" points="1106.7218,-99.58 1103.1454,-89.607 1099.722,-99.6335 1106.7218,-99.58"/>
</g>
<!-- Node4&#45;&gt;Node15 -->
<g id="edge94" class="edge">
<title>Node4&#45;&gt;Node15</title>
<path fill="none" stroke="#191970" d="M1172.9721,-469.0075C973.9147,-466.1726 152,-448.1323 152,-343.5 152,-343.5 152,-343.5 152,-280.5 152,-168.7051 264.2131,-70.1138 312.8996,-32.5986"/>
<polygon fill="#191970" stroke="#191970" points="315.0812,-35.3369 320.9442,-26.5121 310.8577,-29.7547 315.0812,-35.3369"/>
</g>
<!-- Node4&#45;&gt;Node23 -->
<g id="edge90" class="edge">
<title>Node4&#45;&gt;Node23</title>
<path fill="none" stroke="#191970" d="M1172.9332,-463.7142C1077.3776,-449.6715 856,-409.9659 856,-343.5 856,-343.5 856,-343.5 856,-211.5 856,-171.4289 865.9863,-125.435 872.5026,-99.6882"/>
<polygon fill="#191970" stroke="#191970" points="875.9777,-100.2333 875.1239,-89.6729 869.2058,-98.4608 875.9777,-100.2333"/>
</g>
<!-- Node4&#45;&gt;Node25 -->
<g id="edge93" class="edge">
<title>Node4&#45;&gt;Node25</title>
<path fill="none" stroke="#191970" d="M1172.6831,-469.2442C992.7159,-467.9426 309.327,-460.5491 221,-423 76.0837,-361.3939 114.1415,-246.8313 100,-90 99.1618,-80.7044 96.4489,-77.6314 100,-69 105.9121,-54.6298 117.8706,-42.105 128.8305,-32.8964"/>
<polygon fill="#191970" stroke="#191970" points="131.2203,-35.4689 136.9001,-26.5252 126.8826,-29.9749 131.2203,-35.4689"/>
</g>
<!-- Node4&#45;&gt;Node30 -->
<g id="edge98" class="edge">
<title>Node4&#45;&gt;Node30</title>
<path fill="none" stroke="#191970" d="M1259.165,-468.1706C1382.9957,-464.0457 1733.3513,-450.0849 1777,-423 1832.5692,-388.5181 1835.4696,-360.0049 1853,-297 1878.4308,-205.601 1739.7649,-261.4857 1651,-228 1609.6697,-212.4086 1566.9378,-184.5507 1539.5089,-164.8776"/>
<polygon fill="#191970" stroke="#191970" points="1541.3074,-161.8577 1531.1623,-158.8037 1537.1886,-167.5177 1541.3074,-161.8577"/>
</g>
<!-- Node4&#45;&gt;Node31 -->
<g id="edge96" class="edge">
<title>Node4&#45;&gt;Node31</title>
<path fill="none" stroke="#191970" d="M1259.2249,-468.8277C1391.404,-466.4247 1788.7401,-456.5292 1913,-423 2078.9566,-378.2197 2121.5779,-345.5422 2247,-228 2268.5936,-207.7631 2292.1195,-183.6235 2308.7665,-166.1631"/>
<polygon fill="#191970" stroke="#191970" points="2311.5532,-168.3111 2315.8994,-158.6487 2306.4763,-163.4919 2311.5532,-168.3111"/>
</g>
<!-- Node4&#45;&gt;Node32 -->
<g id="edge97" class="edge">
<title>Node4&#45;&gt;Node32</title>
<path fill="none" stroke="#191970" d="M1172.6844,-466.7557C1079.6087,-460.4852 866.9144,-444.013 842,-423 813.7865,-399.2046 818,-380.4083 818,-343.5 818,-343.5 818,-343.5 818,-280.5 818,-239.428 799.76,-194.7177 786.5053,-167.6496"/>
<polygon fill="#191970" stroke="#191970" points="789.5237,-165.8623 781.8906,-158.5147 783.2757,-169.0187 789.5237,-165.8623"/>
</g>
<!-- Node4&#45;&gt;Node42 -->
<g id="edge95" class="edge">
<title>Node4&#45;&gt;Node42</title>
<path fill="none" stroke="#191970" d="M1259.4712,-468.9116C1399.6428,-466.6826 1833.6585,-457.0706 1886,-423 1906.7657,-409.483 1917.9272,-382.1643 1923.4111,-363.3558"/>
<polygon fill="#191970" stroke="#191970" points="1926.7974,-364.2402 1925.9562,-353.6788 1920.0277,-362.4596 1926.7974,-364.2402"/>
</g>
<!-- Node43 -->
<g id="node41" class="node">
<title>Node43</title>
<g id="a_node41"><a xlink:href="InterpolationQuantities_8h.html" target="_top" xlink:title="Defines constant to serve as identifier of the various quantities handled by the stellar evolution in...">
<polygon fill="#ffffff" stroke="#000000" points="369.958,-270.5 369.958,-290.5 516.042,-290.5 516.042,-270.5 369.958,-270.5"/>
<text text-anchor="middle" x="443" y="-276.9" font-family="Helvetica,sans-Serif" font-size="12.00" fill="#000000">InterpolationQuantities.h</text>
</a>
</g>
</g>
<!-- Node4&#45;&gt;Node43 -->
<g id="edge79" class="edge">
<title>Node4&#45;&gt;Node43</title>
<path fill="none" stroke="#191970" d="M1172.7963,-468.4478C1073.1983,-465.4939 830.3267,-455.1209 756,-423 735.4669,-414.1265 737.9405,-400.1353 718,-390 654.1818,-357.5627 627.1793,-381.2992 561,-354 524.7578,-339.0499 486.9996,-313.4798 464.2411,-296.786"/>
<polygon fill="#191970" stroke="#191970" points="466.1196,-293.821 456.0095,-290.6529 461.9373,-299.4342 466.1196,-293.821"/>
</g>
<!-- Node44 -->
<g id="node42" class="node">
<title>Node44</title>
<g id="a_node42"><a xlink:href="ThreadedInterpolation_8h.html" target="_top" xlink:title="Declaration of a class that handles multithreaded stellar evolution interpolation. ">
<polygon fill="#ffffff" stroke="#000000" points="570.2881,-333.5 570.2881,-353.5 713.7119,-353.5 713.7119,-333.5 570.2881,-333.5"/>
<text text-anchor="middle" x="642" y="-339.9" font-family="Helvetica,sans-Serif" font-size="12.00" fill="#000000">ThreadedInterpolation.h</text>
</a>
</g>
</g>
<!-- Node4&#45;&gt;Node44 -->
<g id="edge82" class="edge">
<title>Node4&#45;&gt;Node44</title>
<path fill="none" stroke="#191970" d="M1172.7656,-467.2788C1081.242,-462.147 870.8448,-447.9576 804,-423 779.7467,-413.9446 778.7838,-402.2932 756,-390 732.0759,-377.0916 703.7867,-365.5324 681.3741,-357.1677"/>
<polygon fill="#191970" stroke="#191970" points="682.4371,-353.8296 671.8434,-353.6701 680.0254,-360.401 682.4371,-353.8296"/>
</g>
<!-- Node46 -->
<g id="node44" class="node">
<title>Node46</title>
<g id="a_node44"><a xlink:href="StellarZone_8h.html" target="_top" xlink:title="Defines tags for the stellar zone. ">
<polygon fill="#ffffff" stroke="#000000" points="1083.6406,-396.5 1083.6406,-416.5 1210.3594,-416.5 1210.3594,-396.5 1083.6406,-396.5"/>
<text text-anchor="middle" x="1147" y="-402.9" font-family="Helvetica,sans-Serif" font-size="12.00" fill="#000000">../Core/StellarZone.h</text>
</a>
</g>
</g>
<!-- Node4&#45;&gt;Node46 -->
<g id="edge89" class="edge">
<title>Node4&#45;&gt;Node46</title>
<path fill="none" stroke="#191970" d="M1204.914,-459.378C1194.414,-449.791 1178.4355,-435.202 1165.9199,-423.7747"/>
<polygon fill="#191970" stroke="#191970" points="1168.0326,-420.9642 1158.2878,-416.8062 1163.3127,-426.1336 1168.0326,-420.9642"/>
</g>
<!-- Node47 -->
<g id="node45" class="node">
<title>Node47</title>
<polygon fill="#ffffff" stroke="#bfbfbf" points="1227.9736,-390.5 1227.9736,-422.5 1340.0264,-422.5 1340.0264,-390.5 1227.9736,-390.5"/>
<text text-anchor="start" x="1235.9736" y="-408.9" font-family="Helvetica,sans-Serif" font-size="12.00" fill="#000000">boost/serialization</text>
<text text-anchor="middle" x="1284" y="-396.9" font-family="Helvetica,sans-Serif" font-size="12.00" fill="#000000">/list.hpp</text>
</g>
<!-- Node4&#45;&gt;Node47 -->
<g id="edge99" class="edge">
<title>Node4&#45;&gt;Node47</title>
<path fill="none" stroke="#191970" d="M1226.9254,-459.378C1235.5884,-451.3519 1248.0356,-439.8199 1259.0965,-429.5724"/>
<polygon fill="#191970" stroke="#191970" points="1261.512,-432.1057 1266.469,-422.742 1256.7546,-426.9708 1261.512,-432.1057"/>
</g>
<!-- Node48 -->
<g id="node46" class="node">
<title>Node48</title>
<polygon fill="#ffffff" stroke="#bfbfbf" points="1357.9736,-390.5 1357.9736,-422.5 1470.0264,-422.5 1470.0264,-390.5 1357.9736,-390.5"/>
<text text-anchor="start" x="1365.9736" y="-408.9" font-family="Helvetica,sans-Serif" font-size="12.00" fill="#000000">boost/serialization</text>
<text text-anchor="middle" x="1414" y="-396.9" font-family="Helvetica,sans-Serif" font-size="12.00" fill="#000000">/valarray.hpp</text>
</g>
<!-- Node4&#45;&gt;Node48 -->
<g id="edge100" class="edge">
<title>Node4&#45;&gt;Node48</title>
<path fill="none" stroke="#191970" d="M1247.8121,-459.378C1276.2899,-450.3168 1318.8115,-436.7873 1353.7134,-425.6821"/>
<polygon fill="#191970" stroke="#191970" points="1354.8694,-428.9873 1363.3374,-422.6199 1352.7469,-422.3168 1354.8694,-428.9873"/>
</g>
<!-- Node49 -->
<g id="node47" class="node">
<title>Node49</title>
<polygon fill="#ffffff" stroke="#bfbfbf" points="1487.9736,-390.5 1487.9736,-422.5 1600.0264,-422.5 1600.0264,-390.5 1487.9736,-390.5"/>
<text text-anchor="start" x="1495.9736" y="-408.9" font-family="Helvetica,sans-Serif" font-size="12.00" fill="#000000">boost/serialization</text>
<text text-anchor="middle" x="1544" y="-396.9" font-family="Helvetica,sans-Serif" font-size="12.00" fill="#000000">/vector.hpp</text>
</g>
<!-- Node4&#45;&gt;Node49 -->
<g id="edge101" class="edge">
<title>Node4&#45;&gt;Node49</title>
<path fill="none" stroke="#191970" d="M1259.4711,-462.8198C1309.7863,-454.8651 1395.3331,-440.6566 1477.8986,-423.1579"/>
<polygon fill="#191970" stroke="#191970" points="1478.6426,-426.578 1487.6895,-421.0641 1477.1786,-419.7328 1478.6426,-426.578"/>
</g>
<!-- Node5&#45;&gt;Node2 -->
<g id="edge8" class="edge">
<title>Node5&#45;&gt;Node2</title>
<path fill="none" stroke="#191970" d="M1647.8405,-396.4941C1635.316,-394.0295 1621.6767,-391.6319 1609,-390 1481.14,-373.5403 1150.9752,-398.5435 1030,-354 978.9088,-335.1881 932,-334.9444 932,-280.5 932,-280.5 932,-280.5 932,-142.5 932,-103.9632 945.1235,-89.1053 978,-69 1020.8128,-42.8184 1333.2832,-26.6341 1492.8147,-19.9899"/>
<polygon fill="#191970" stroke="#191970" points="1493.2497,-23.4751 1503.0971,-19.5661 1492.9614,-16.481 1493.2497,-23.4751"/>
</g>
<!-- Node6 -->
<g id="node7" class="node">
<title>Node6</title>
<g id="a_node7"><a xlink:href="AllowedGridGrowth_8h.html" target="_top" xlink:title="Declares &amp; defines a class describing how the mass&#45;[Fe/H] interpolation grid is allowed to grow...">
<polygon fill="#ffffff" stroke="#000000" points="960.3105,-201.5 960.3105,-221.5 1089.6895,-221.5 1089.6895,-201.5 960.3105,-201.5"/>
<text text-anchor="middle" x="1025" y="-207.9" font-family="Helvetica,sans-Serif" font-size="12.00" fill="#000000">AllowedGridGrowth.h</text>
</a>
</g>
</g>
<!-- Node5&#45;&gt;Node6 -->
<g id="edge9" class="edge">
<title>Node5&#45;&gt;Node6</title>
<path fill="none" stroke="#191970" d="M1647.3961,-396.4626C1634.9919,-394.0282 1621.524,-391.6536 1609,-390 1493.2854,-374.7215 1195.0022,-393.0234 1085,-354 1043.513,-339.2824 1024.2805,-336.0702 1004,-297 992.9486,-275.7096 1003.3391,-248.3907 1013.0355,-230.4359"/>
<polygon fill="#191970" stroke="#191970" points="1016.2165,-231.9277 1018.2103,-221.5221 1010.1627,-228.4131 1016.2165,-231.9277"/>
</g>
<!-- Node7 -->
<g id="node8" class="node">
<title>Node7</title>
<g id="a_node8"><a xlink:href="RemoveLogDeriv_8h.html" target="_top" xlink:title="Declares a class to switch from logarithmic to linear derivative. ">
<polygon fill="#ffffff" stroke="#000000" points="1094.085,-333.5 1094.085,-353.5 1211.915,-353.5 1211.915,-333.5 1094.085,-333.5"/>
<text text-anchor="middle" x="1153" y="-339.9" font-family="Helvetica,sans-Serif" font-size="12.00" fill="#000000">RemoveLogDeriv.h</text>
</a>
</g>
</g>
<!-- Node5&#45;&gt;Node7 -->
<g id="edge11" class="edge">
<title>Node5&#45;&gt;Node7</title>
<path fill="none" stroke="#191970" d="M1646.0497,-396.4153C1634.0138,-394.0676 1621.061,-391.7469 1609,-390 1439.7931,-365.4921 1395.7778,-374.1768 1226,-354 1224.7127,-353.847 1223.4129,-353.6897 1222.1039,-353.5286"/>
<polygon fill="#191970" stroke="#191970" points="1222.2967,-350.0249 1211.934,-352.2303 1221.4102,-356.9686 1222.2967,-350.0249"/>
</g>
<!-- Node9 -->
<g id="node10" class="node">
<title>Node9</title>
<g id="a_node10"><a xlink:href="Functions_8h.html" target="_top" xlink:title="A hierarchy of classes representing functions. ">
<polygon fill="#ffffff" stroke="#ff0000" points="1318.9834,-201.5 1318.9834,-221.5 1397.0166,-221.5 1397.0166,-201.5 1318.9834,-201.5"/>
<text text-anchor="middle" x="1358" y="-207.9" font-family="Helvetica,sans-Serif" font-size="12.00" fill="#000000">Functions.h</text>
</a>
</g>
</g>
<!-- Node5&#45;&gt;Node9 -->
<g id="edge63" class="edge">
<title>Node5&#45;&gt;Node9</title>
<path fill="none" stroke="#191970" d="M1674.929,-396.3574C1640.8106,-377.1719 1564.6212,-334.1563 1501,-297 1459.7087,-272.8848 1412.1149,-244.2614 1383.5766,-227.008"/>
<polygon fill="#191970" stroke="#191970" points="1385.0331,-223.7985 1374.6655,-221.6157 1381.409,-229.7874 1385.0331,-223.7985"/>
</g>
<!-- Node5&#45;&gt;Node11 -->
<g id="edge74" class="edge">
<title>Node5&#45;&gt;Node11</title>
<path fill="none" stroke="#191970" d="M1648.7408,-396.4333C1635.9797,-393.9049 1621.9935,-391.4897 1609,-390 1145.9805,-336.9163 1021.3939,-426.4043 561,-354 469.6938,-339.6406 416.6843,-370.7717 361,-297 352.1639,-285.2938 356.4875,-277.9552 361,-264 367.0723,-245.2208 375.4889,-244.032 387,-228 420.528,-181.304 459.7911,-126.1838 479.8076,-98.0517"/>
<polygon fill="#191970" stroke="#191970" points="482.8772,-99.7745 485.8218,-89.5971 477.1732,-95.7169 482.8772,-99.7745"/>
</g>
<!-- Node5&#45;&gt;Node12 -->
<g id="edge73" class="edge">
<title>Node5&#45;&gt;Node12</title>
<path fill="none" stroke="#191970" d="M1646.0389,-396.4886C1634.0032,-394.1395 1621.0532,-391.7998 1609,-390 1531.6693,-378.4527 1311.3826,-412.0469 1259,-354 1252.7471,-347.0709 1257.0625,-342.13 1259,-333 1262.6347,-315.8723 1271.3653,-314.1277 1275,-297 1278.0447,-282.6528 1279.5566,-277.9409 1275,-264 1251.3871,-191.7558 1229.1221,-178.3292 1174,-126 1161.2366,-113.8833 1144.9282,-102.9511 1131.1608,-94.7355"/>
<polygon fill="#191970" stroke="#191970" points="1132.519,-91.4778 1122.1103,-89.5006 1129.0142,-97.5372 1132.519,-91.4778"/>
</g>
<!-- Node14 -->
<g id="node15" class="node">
<title>Node14</title>
<polygon fill="#ffffff" stroke="#bfbfbf" points="2183.6631,-69.5 2183.6631,-89.5 2242.3369,-89.5 2242.3369,-69.5 2183.6631,-69.5"/>
<text text-anchor="middle" x="2213" y="-75.9" font-family="Helvetica,sans-Serif" font-size="12.00" fill="#000000">sstream</text>
</g>
<!-- Node5&#45;&gt;Node14 -->
<g id="edge78" class="edge">
<title>Node5&#45;&gt;Node14</title>
<path fill="none" stroke="#191970" d="M1708.0555,-396.3148C1736.4814,-377.0583 1799.9629,-333.9291 1853,-297 1964.9847,-219.0265 1987.3777,-189.8022 2108,-126 2130.8208,-113.9291 2157.4203,-102.1722 2178.1369,-93.5002"/>
<polygon fill="#191970" stroke="#191970" points="2179.5987,-96.6831 2187.4985,-89.6231 2176.9203,-90.2158 2179.5987,-96.6831"/>
</g>
<!-- Node5&#45;&gt;Node15 -->
<g id="edge76" class="edge">
<title>Node5&#45;&gt;Node15</title>
<path fill="none" stroke="#191970" d="M1649.1798,-396.4806C1636.3022,-393.9201 1622.1446,-391.4761 1609,-390 1475.1155,-374.9654 519.5423,-409.9867 397,-354 318.7512,-318.25 266,-297.5287 266,-211.5 266,-211.5 266,-211.5 266,-142.5 266,-99.4079 297.4313,-57.0875 317.8663,-34.1268"/>
<polygon fill="#191970" stroke="#191970" points="320.6187,-36.3046 324.8188,-26.5779 315.4697,-31.5624 320.6187,-36.3046"/>
</g>
<!-- Node5&#45;&gt;Node23 -->
<g id="edge72" class="edge">
<title>Node5&#45;&gt;Node23</title>
<path fill="none" stroke="#191970" d="M1648.2876,-396.4958C1635.6441,-394.0002 1621.8323,-391.5864 1609,-390 1532.699,-380.567 979.0358,-400.7489 918,-354 890.7187,-333.1045 894,-314.8641 894,-280.5 894,-280.5 894,-280.5 894,-211.5 894,-171.6848 886.7373,-125.602 881.9981,-99.7699"/>
<polygon fill="#191970" stroke="#191970" points="885.3939,-98.8908 880.0917,-89.7182 878.5165,-100.1952 885.3939,-98.8908"/>
</g>
<!-- Node5&#45;&gt;Node25 -->
<g id="edge75" class="edge">
<title>Node5&#45;&gt;Node25</title>
<path fill="none" stroke="#191970" d="M1649.1808,-396.4713C1636.3033,-393.9106 1622.1454,-391.4688 1609,-390 1469.9194,-374.4599 482.2623,-399.7339 350,-354 212.5142,-306.4599 166.4955,-102.2973 155.1224,-36.8049"/>
<polygon fill="#191970" stroke="#191970" points="158.5156,-35.8696 153.4362,-26.5717 151.6087,-37.0077 158.5156,-35.8696"/>
</g>
<!-- Node35 -->
<g id="node34" class="node">
<title>Node35</title>
<g id="a_node34"><a xlink:href="SumDerivatives_8h.html" target="_top" xlink:title="Declares &amp; defines a class for the derivative of a quantity which is the sum of two other quantities...">
<polygon fill="#ffffff" stroke="#000000" points="1733.9844,-270.5 1733.9844,-290.5 1844.0156,-290.5 1844.0156,-270.5 1733.9844,-270.5"/>
<text text-anchor="middle" x="1789" y="-276.9" font-family="Helvetica,sans-Serif" font-size="12.00" fill="#000000">SumDerivatives.h</text>
</a>
</g>
</g>
<!-- Node5&#45;&gt;Node35 -->
<g id="edge50" class="edge">
<title>Node5&#45;&gt;Node35</title>
<path fill="none" stroke="#191970" d="M1700.8561,-396.1889C1717.11,-374.8556 1754.617,-325.6276 1775.0748,-298.7769"/>
<polygon fill="#191970" stroke="#191970" points="1778.0272,-300.6769 1781.3037,-290.6014 1772.4592,-296.4346 1778.0272,-300.6769"/>
</g>
<!-- Node36 -->
<g id="node35" class="node">
<title>Node36</title>
<g id="a_node35"><a xlink:href="InterpolatedDerivatives_8h_source.html" target="_top" xlink:title="InterpolatedDerivatives.h">
<polygon fill="#ffffff" stroke="#000000" points="1267.6309,-333.5 1267.6309,-353.5 1416.3691,-353.5 1416.3691,-333.5 1267.6309,-333.5"/>
<text text-anchor="middle" x="1342" y="-339.9" font-family="Helvetica,sans-Serif" font-size="12.00" fill="#000000">InterpolatedDerivatives.h</text>
</a>
</g>
</g>
<!-- Node5&#45;&gt;Node36 -->
<g id="edge53" class="edge">
<title>Node5&#45;&gt;Node36</title>
<path fill="none" stroke="#191970" d="M1642.8413,-396.464C1631.7079,-394.2876 1619.96,-392.0306 1609,-390 1542.175,-377.6193 1465.7597,-364.4064 1411.8498,-355.2418"/>
<polygon fill="#191970" stroke="#191970" points="1412.1602,-351.7445 1401.7155,-353.5215 1410.9887,-358.6457 1412.1602,-351.7445"/>
</g>
<!-- Node37 -->
<g id="node36" class="node">
<title>Node37</title>
<g id="a_node36"><a xlink:href="mass__feh__interp_8h.html" target="_top" xlink:title="Define a single function performing mass&#45;[Fe/H] interpolations. ">
<polygon fill="#ffffff" stroke="#000000" points="2043.6377,-270.5 2043.6377,-290.5 2158.3623,-290.5 2158.3623,-270.5 2043.6377,-270.5"/>
<text text-anchor="middle" x="2101" y="-276.9" font-family="Helvetica,sans-Serif" font-size="12.00" fill="#000000">mass_feh_interp.h</text>
</a>
</g>
</g>
<!-- Node5&#45;&gt;Node37 -->
<g id="edge62" class="edge">
<title>Node5&#45;&gt;Node37</title>
<path fill="none" stroke="#191970" d="M1717.3938,-396.4491C1754.4715,-381.4001 1827.426,-352.6805 1891,-333 1942.5145,-317.0527 2002.2591,-302.4881 2044.8217,-292.7666"/>
<polygon fill="#191970" stroke="#191970" points="2045.7353,-296.1484 2054.7138,-290.5237 2044.1874,-289.3217 2045.7353,-296.1484"/>
</g>
<!-- Node39 -->
<g id="node38" class="node">
<title>Node39</title>
<g id="a_node38"><a xlink:href="InterpSolutionIterator_8h_source.html" target="_top" xlink:title="../Core/InterpSolutionIterator.h">
<polygon fill="#ffffff" stroke="#ff0000" points="1659.6182,-201.5 1659.6182,-221.5 1836.3818,-221.5 1836.3818,-201.5 1659.6182,-201.5"/>
<text text-anchor="middle" x="1748" y="-207.9" font-family="Helvetica,sans-Serif" font-size="12.00" fill="#000000">../Core/InterpSolutionIterator.h</text>
</a>
</g>
</g>
<!-- Node5&#45;&gt;Node39 -->
<g id="edge64" class="edge">
<title>Node5&#45;&gt;Node39</title>
<path fill="none" stroke="#191970" d="M1694.5972,-396.2997C1698.4487,-372.6556 1709.118,-312.4271 1725,-264 1728.6824,-252.7717 1733.8975,-240.6637 1738.431,-230.9082"/>
<polygon fill="#191970" stroke="#191970" points="1741.6636,-232.2609 1742.8158,-221.7289 1735.3472,-229.2437 1741.6636,-232.2609"/>
</g>
<!-- Node41 -->
<g id="node39" class="node">
<title>Node41</title>
<g id="a_node39"><a xlink:href="InterpolatingFunctionALGLIB_8h_source.html" target="_top" xlink:title="../Core/InterpolatingFunction\lALGLIB.h">
<polygon fill="#ffffff" stroke="#ff0000" points="1510.291,-264.5 1510.291,-296.5 1677.709,-296.5 1677.709,-264.5 1510.291,-264.5"/>
<text text-anchor="start" x="1518.291" y="-282.9" font-family="Helvetica,sans-Serif" font-size="12.00" fill="#000000">../Core/InterpolatingFunction</text>
<text text-anchor="middle" x="1594" y="-270.9" font-family="Helvetica,sans-Serif" font-size="12.00" fill="#000000">ALGLIB.h</text>
</a>
</g>
</g>
<!-- Node5&#45;&gt;Node41 -->
<g id="edge68" class="edge">
<title>Node5&#45;&gt;Node41</title>
<path fill="none" stroke="#191970" d="M1684.8984,-396.1889C1669.33,-376.3746 1634.8543,-332.4964 1613.1199,-304.8345"/>
<polygon fill="#191970" stroke="#191970" points="1615.7492,-302.5157 1606.8189,-296.8149 1610.245,-306.8405 1615.7492,-302.5157"/>
</g>
<!-- Node5&#45;&gt;Node42 -->
<g id="edge77" class="edge">
<title>Node5&#45;&gt;Node42</title>
<path fill="none" stroke="#191970" d="M1730.4963,-396.4478C1774.2561,-384.7164 1846.2096,-365.4268 1890.1295,-353.6525"/>
<polygon fill="#191970" stroke="#191970" points="1891.1034,-357.0151 1899.856,-351.045 1889.2907,-350.2539 1891.1034,-357.0151"/>
</g>
<!-- Node6&#45;&gt;Node2 -->
<g id="edge10" class="edge">
<title>Node6&#45;&gt;Node2</title>
<path fill="none" stroke="#191970" d="M1017.627,-201.3454C999.9167,-175.6333 958.9579,-107.2872 994,-69 1026.9542,-32.994 1334.621,-21.5327 1492.893,-18.0033"/>
<polygon fill="#191970" stroke="#191970" points="1493.1757,-21.4981 1503.0975,-17.7821 1493.024,-14.4997 1493.1757,-21.4981"/>
</g>
<!-- Node7&#45;&gt;Node2 -->
<g id="edge12" class="edge">
<title>Node7&#45;&gt;Node2</title>
<path fill="none" stroke="#191970" d="M1141.1067,-333.3268C1131.8327,-324.6651 1119.4753,-311.3686 1113,-297 1094.1997,-255.2822 1114.3666,-238.101 1099,-195 1092.703,-177.3378 1085.4423,-175.7431 1077,-159 1062.0995,-129.4486 1055.3396,-122.4826 1049,-90 1047.2121,-80.8395 1042.7296,-75.9133 1049,-69 1078.1922,-36.8146 1347.1669,-23.7051 1493.0036,-18.9272"/>
<polygon fill="#191970" stroke="#191970" points="1493.4034,-22.4163 1503.2861,-18.5974 1493.179,-15.4199 1493.4034,-22.4163"/>
</g>
<!-- Node8 -->
<g id="node9" class="node">
<title>Node8</title>
<g id="a_node9"><a xlink:href="LogDerivatives_8h.html" target="_top" xlink:title="Declares a class for differentiating functions of log(arg) w.r.t. arg. ">
<polygon fill="#ffffff" stroke="#000000" points="1121.6377,-270.5 1121.6377,-290.5 1266.3623,-290.5 1266.3623,-270.5 1121.6377,-270.5"/>
<text text-anchor="middle" x="1194" y="-276.9" font-family="Helvetica,sans-Serif" font-size="12.00" fill="#000000">../Core/LogDerivatives.h</text>
</a>
</g>
</g>
<!-- Node7&#45;&gt;Node8 -->
<g id="edge13" class="edge">
<title>Node7&#45;&gt;Node8</title>
<path fill="none" stroke="#191970" d="M1159.5874,-333.378C1165.5294,-324.2476 1174.4241,-310.5801 1181.6819,-299.4278"/>
<polygon fill="#191970" stroke="#191970" points="1184.7717,-301.0967 1187.2928,-290.8062 1178.9047,-297.2785 1184.7717,-301.0967"/>
</g>
<!-- Node8&#45;&gt;Node2 -->
<g id="edge14" class="edge">
<title>Node8&#45;&gt;Node2</title>
<path fill="none" stroke="#191970" d="M1192.8471,-270.3693C1190.5911,-253.6695 1184.4853,-219.7491 1170,-195 1133.1785,-132.0877 1016.1072,-123.0673 1065,-69 1093.1169,-37.9075 1351.1796,-24.3654 1493.2398,-19.2244"/>
<polygon fill="#191970" stroke="#191970" points="1493.3933,-22.7213 1503.2628,-18.8687 1493.145,-15.7257 1493.3933,-22.7213"/>
</g>
<!-- Node8&#45;&gt;Node9 -->
<g id="edge15" class="edge">
<title>Node8&#45;&gt;Node9</title>
<path fill="none" stroke="#191970" d="M1217.847,-270.4668C1246.0253,-258.6113 1293.0794,-238.8141 1324.8075,-225.4651"/>
<polygon fill="#191970" stroke="#191970" points="1326.2641,-228.6495 1334.1242,-221.5453 1323.5494,-222.1973 1326.2641,-228.6495"/>
</g>
<!-- Node8&#45;&gt;Node23 -->
<g id="edge48" class="edge">
<title>Node8&#45;&gt;Node23</title>
<path fill="none" stroke="#191970" d="M1184.4426,-270.3741C1168.06,-253.3838 1133.0767,-218.675 1099,-195 1036.563,-151.6214 955.7891,-113.4049 911.2182,-93.6815"/>
<polygon fill="#191970" stroke="#191970" points="912.577,-90.4557 902.0133,-89.6439 909.7651,-96.8661 912.577,-90.4557"/>
</g>
<!-- Node8&#45;&gt;Node34 -->
<g id="edge49" class="edge">
<title>Node8&#45;&gt;Node34</title>
<path fill="none" stroke="#191970" d="M1144.993,-270.4397C1132.9285,-268.145 1120.0219,-265.8427 1108,-264 951.519,-240.0153 763.3039,-221.6406 686.8354,-214.6122"/>
<polygon fill="#191970" stroke="#191970" points="687.0787,-211.1199 676.8019,-213.6964 686.4423,-218.091 687.0787,-211.1199"/>
</g>
<!-- Node9&#45;&gt;Node2 -->
<g id="edge16" class="edge">
<title>Node9&#45;&gt;Node2</title>
<path fill="none" stroke="#191970" d="M1356.9781,-201.2942C1354.6662,-183.551 1347.4435,-146.9164 1326,-126 1288.268,-89.1955 1187.4916,-108.8427 1222,-69 1239.5722,-48.7115 1391.1032,-32.4251 1493.0331,-23.6366"/>
<polygon fill="#191970" stroke="#191970" points="1493.3772,-27.12 1503.044,-22.7837 1492.783,-20.1453 1493.3772,-27.12"/>
</g>
<!-- Node9&#45;&gt;Node10 -->
<g id="edge17" class="edge">
<title>Node9&#45;&gt;Node10</title>
<path fill="none" stroke="#191970" d="M1397.0189,-203.7857C1461.5265,-191.032 1590.1755,-165.5971 1659.7342,-151.8448"/>
<polygon fill="#191970" stroke="#191970" points="1660.4223,-155.2766 1669.5535,-149.9035 1659.0646,-148.4095 1660.4223,-155.2766"/>
</g>
<!-- Node9&#45;&gt;Node11 -->
<g id="edge42" class="edge">
<title>Node9&#45;&gt;Node11</title>
<path fill="none" stroke="#191970" d="M1318.8451,-204.6854C1232.1547,-189.6832 1017.3982,-152.9894 837,-126 718.0142,-108.1985 575.4106,-89.8834 518.3818,-82.6812"/>
<polygon fill="#191970" stroke="#191970" points="518.8101,-79.2075 508.4511,-81.4302 517.9352,-86.1527 518.8101,-79.2075"/>
</g>
<!-- Node9&#45;&gt;Node12 -->
<g id="edge41" class="edge">
<title>Node9&#45;&gt;Node12</title>
<path fill="none" stroke="#191970" d="M1346.3944,-201.4224C1323.011,-181.2693 1270.7005,-136.9883 1250,-126 1231.2525,-116.0484 1179.3187,-100.5813 1142.5106,-90.2515"/>
<polygon fill="#191970" stroke="#191970" points="1143.1424,-86.7944 1132.57,-87.4831 1141.2644,-93.5377 1143.1424,-86.7944"/>
</g>
<!-- Node13 -->
<g id="node14" class="node">
<title>Node13</title>
<polygon fill="#ffffff" stroke="#bfbfbf" points="1264.3359,-69.5 1264.3359,-89.5 1307.6641,-89.5 1307.6641,-69.5 1264.3359,-69.5"/>
<text text-anchor="middle" x="1286" y="-75.9" font-family="Helvetica,sans-Serif" font-size="12.00" fill="#000000">limits</text>
</g>
<!-- Node9&#45;&gt;Node13 -->
<g id="edge40" class="edge">
<title>Node9&#45;&gt;Node13</title>
<path fill="none" stroke="#191970" d="M1362.0681,-201.4874C1368.2075,-184.664 1377.7442,-150.1948 1364,-126 1358.6464,-116.5757 1336.5418,-103.8605 1317.2249,-94.1084"/>
<polygon fill="#191970" stroke="#191970" points="1318.5685,-90.8687 1308.0516,-89.5864 1315.4735,-97.1473 1318.5685,-90.8687"/>
</g>
<!-- Node9&#45;&gt;Node15 -->
<g id="edge44" class="edge">
<title>Node9&#45;&gt;Node15</title>
<path fill="none" stroke="#191970" d="M1351.7838,-201.4037C1340.499,-183.8298 1315.0126,-147.4491 1285,-126 1256.9998,-105.9891 1174.5789,-76.5433 1141,-69 993.0073,-35.7541 519.5507,-21.2061 376.3917,-17.4961"/>
<polygon fill="#191970" stroke="#191970" points="376.3609,-13.9943 366.2748,-17.2378 376.1822,-20.992 376.3609,-13.9943"/>
</g>
<!-- Node16 -->
<g id="node17" class="node">
<title>Node16</title>
<polygon fill="#ffffff" stroke="#bfbfbf" points="1325.3262,-69.5 1325.3262,-89.5 1378.6738,-89.5 1378.6738,-69.5 1325.3262,-69.5"/>
<text text-anchor="middle" x="1352" y="-75.9" font-family="Helvetica,sans-Serif" font-size="12.00" fill="#000000">iterator</text>
</g>
<!-- Node9&#45;&gt;Node16 -->
<g id="edge43" class="edge">
<title>Node9&#45;&gt;Node16</title>
<path fill="none" stroke="#191970" d="M1370.4083,-201.3352C1381.0899,-191.7141 1395.7412,-176.2116 1402,-159 1407.0122,-145.2164 1407.8574,-139.4463 1402,-126 1396.8005,-114.064 1386.8596,-103.8109 1377.2026,-95.9936"/>
<polygon fill="#191970" stroke="#191970" points="1379.0134,-92.9765 1368.9155,-89.7699 1374.8097,-98.5737 1379.0134,-92.9765"/>
</g>
<!-- Node9&#45;&gt;Node23 -->
<g id="edge39" class="edge">
<title>Node9&#45;&gt;Node23</title>
<path fill="none" stroke="#191970" d="M1336.0993,-201.4606C1296.8003,-183.8116 1211.3681,-147.1001 1136,-126 1058.461,-104.2921 964.875,-90.38 914.4533,-83.8562"/>
<polygon fill="#191970" stroke="#191970" points="914.7315,-80.3635 904.3703,-82.5761 913.8498,-87.3077 914.7315,-80.3635"/>
</g>
<!-- Node9&#45;&gt;Node30 -->
<g id="edge45" class="edge">
<title>Node9&#45;&gt;Node30</title>
<path fill="none" stroke="#191970" d="M1380.1021,-201.4668C1402.3686,-191.359 1437.3521,-175.4783 1465.4069,-162.7429"/>
<polygon fill="#191970" stroke="#191970" points="1466.9682,-165.878 1474.6272,-158.5574 1464.0747,-159.504 1466.9682,-165.878"/>
</g>
<!-- Node9&#45;&gt;Node31 -->
<g id="edge46" class="edge">
<title>Node9&#45;&gt;Node31</title>
<path fill="none" stroke="#191970" d="M1397.045,-208.7311C1545.8658,-198.1776 2078.5473,-160.4026 2265.5438,-147.1418"/>
<polygon fill="#191970" stroke="#191970" points="2266.0466,-150.615 2275.7739,-146.4163 2265.5514,-143.6326 2266.0466,-150.615"/>
</g>
<!-- Node9&#45;&gt;Node32 -->
<g id="edge47" class="edge">
<title>Node9&#45;&gt;Node32</title>
<path fill="none" stroke="#191970" d="M1318.7081,-206.8656C1219.9101,-195.2125 960.3315,-164.5955 838.2395,-150.1949"/>
<polygon fill="#191970" stroke="#191970" points="838.6163,-146.7152 828.2751,-149.0196 837.7963,-153.667 838.6163,-146.7152"/>
</g>
<!-- Node10&#45;&gt;Node2 -->
<g id="edge30" class="edge">
<title>Node10&#45;&gt;Node2</title>
<path fill="none" stroke="#191970" d="M1744.5274,-141.1171C1813.212,-137.7127 1954.8713,-126.351 1985,-90 1990.9559,-82.814 1991.1541,-76.0169 1985,-69 1965.1199,-46.3328 1790.651,-30.3648 1679.0985,-22.3671"/>
<polygon fill="#191970" stroke="#191970" points="1679.0636,-18.856 1668.8415,-21.6415 1678.5695,-25.8386 1679.0636,-18.856"/>
</g>
<!-- Node10&#45;&gt;Node11 -->
<g id="edge18" class="edge">
<title>Node10&#45;&gt;Node11</title>
<path fill="none" stroke="#191970" d="M1669.5327,-136.9917C1643.1563,-133.3162 1606.9898,-128.6823 1575,-126 1360.197,-107.9892 662.1779,-84.9386 518.862,-80.3247"/>
<polygon fill="#191970" stroke="#191970" points="518.5667,-76.8136 508.4596,-79.9909 518.3422,-83.81 518.5667,-76.8136"/>
</g>
<!-- Node10&#45;&gt;Node12 -->
<g id="edge19" class="edge">
<title>Node10&#45;&gt;Node12</title>
<path fill="none" stroke="#191970" d="M1677.0467,-132.4631C1668.6976,-129.9983 1659.5668,-127.6084 1651,-126 1601.4119,-116.6896 1260.1249,-91.0536 1142.6365,-82.3981"/>
<polygon fill="#191970" stroke="#191970" points="1142.8542,-78.9047 1132.6244,-81.6617 1142.3407,-85.8859 1142.8542,-78.9047"/>
</g>
<!-- Node10&#45;&gt;Node13 -->
<g id="edge20" class="edge">
<title>Node10&#45;&gt;Node13</title>
<path fill="none" stroke="#191970" d="M1676.4384,-132.418C1668.2489,-130.0134 1659.3495,-127.6647 1651,-126 1507.2993,-97.3499 1463.9317,-121.8498 1317.5768,-89.9588"/>
<polygon fill="#191970" stroke="#191970" points="1318.3076,-86.5358 1307.7855,-87.7755 1316.784,-93.368 1318.3076,-86.5358"/>
</g>
<!-- Node10&#45;&gt;Node14 -->
<g id="edge21" class="edge">
<title>Node10&#45;&gt;Node14</title>
<path fill="none" stroke="#191970" d="M1744.4112,-138.1339C1819.0907,-129.3737 1991.9449,-108.8742 2137,-90 2148.8504,-88.4581 2161.7293,-86.7072 2173.4601,-85.0833"/>
<polygon fill="#191970" stroke="#191970" points="2173.9968,-88.5425 2183.4189,-83.6974 2173.0318,-81.6093 2173.9968,-88.5425"/>
</g>
<!-- Node10&#45;&gt;Node15 -->
<g id="edge22" class="edge">
<title>Node10&#45;&gt;Node15</title>
<path fill="none" stroke="#191970" d="M1669.2731,-134.3836C1656.2176,-131.6379 1641.481,-128.6085 1628,-126 1538.4683,-108.676 1511.9534,-120.4642 1426,-90 1407.8123,-83.5538 1406.5589,-74.2833 1388,-69 1338.5691,-54.9282 565.1528,-25.13 376.3374,-18.038"/>
<polygon fill="#191970" stroke="#191970" points="376.3883,-14.5376 366.2642,-17.6604 376.126,-21.5327 376.3883,-14.5376"/>
</g>
<!-- Node10&#45;&gt;Node16 -->
<g id="edge23" class="edge">
<title>Node10&#45;&gt;Node16</title>
<path fill="none" stroke="#191970" d="M1675.8153,-132.4245C1667.7891,-130.0766 1659.124,-127.7536 1651,-126 1537.8288,-101.5721 1506.5906,-112.3968 1393,-90 1391.5582,-89.7157 1390.0914,-89.4118 1388.6124,-89.093"/>
<polygon fill="#191970" stroke="#191970" points="1389.3397,-85.6688 1378.8081,-86.8243 1387.7616,-92.4886 1389.3397,-85.6688"/>
</g>
<!-- Node17 -->
<g id="node18" class="node">
<title>Node17</title>
<polygon fill="#ffffff" stroke="#bfbfbf" points="1540.6416,-69.5 1540.6416,-89.5 1639.3584,-89.5 1639.3584,-69.5 1540.6416,-69.5"/>
<text text-anchor="middle" x="1590" y="-75.9" font-family="Helvetica,sans-Serif" font-size="12.00" fill="#000000">gsl/gsl_vector.h</text>
</g>
<!-- Node10&#45;&gt;Node17 -->
<g id="edge24" class="edge">
<title>Node10&#45;&gt;Node17</title>
<path fill="none" stroke="#191970" d="M1688.2019,-132.378C1669.1829,-122.137 1639.5634,-106.188 1617.8246,-94.4825"/>
<polygon fill="#191970" stroke="#191970" points="1619.2155,-91.2563 1608.7514,-89.5969 1615.8968,-97.4196 1619.2155,-91.2563"/>
</g>
<!-- Node18 -->
<g id="node19" class="node">
<title>Node18</title>
<polygon fill="#ffffff" stroke="#bfbfbf" points="1657.3193,-69.5 1657.3193,-89.5 1756.6807,-89.5 1756.6807,-69.5 1657.3193,-69.5"/>
<text text-anchor="middle" x="1707" y="-75.9" font-family="Helvetica,sans-Serif" font-size="12.00" fill="#000000">gsl/gsl_matrix.h</text>
</g>
<!-- Node10&#45;&gt;Node18 -->
<g id="edge25" class="edge">
<title>Node10&#45;&gt;Node18</title>
<path fill="none" stroke="#191970" d="M1707,-132.378C1707,-123.7041 1707,-110.9355 1707,-100.1186"/>
<polygon fill="#191970" stroke="#191970" points="1710.5001,-99.8062 1707,-89.8062 1703.5001,-99.8062 1710.5001,-99.8062"/>
</g>
<!-- Node19 -->
<g id="node20" class="node">
<title>Node19</title>
<polygon fill="#ffffff" stroke="#bfbfbf" points="1774.6426,-69.5 1774.6426,-89.5 1869.3574,-89.5 1869.3574,-69.5 1774.6426,-69.5"/>
<text text-anchor="middle" x="1822" y="-75.9" font-family="Helvetica,sans-Serif" font-size="12.00" fill="#000000">gsl/gsl_linalg.h</text>
</g>
<!-- Node10&#45;&gt;Node19 -->
<g id="edge26" class="edge">
<title>Node10&#45;&gt;Node19</title>
<path fill="none" stroke="#191970" d="M1725.4767,-132.378C1744.1706,-122.137 1773.2838,-106.188 1794.651,-94.4825"/>
<polygon fill="#191970" stroke="#191970" points="1796.4805,-97.4711 1803.5691,-89.5969 1793.1173,-91.3319 1796.4805,-97.4711"/>
</g>
<!-- Node20 -->
<g id="node21" class="node">
<title>Node20</title>
<polygon fill="#ffffff" stroke="#bfbfbf" points="1887.6455,-69.5 1887.6455,-89.5 1976.3545,-89.5 1976.3545,-69.5 1887.6455,-69.5"/>
<text text-anchor="middle" x="1932" y="-75.9" font-family="Helvetica,sans-Serif" font-size="12.00" fill="#000000">gsl/gsl_blas.h</text>
</g>
<!-- Node10&#45;&gt;Node20 -->
<g id="edge27" class="edge">
<title>Node10&#45;&gt;Node20</title>
<path fill="none" stroke="#191970" d="M1743.1501,-132.378C1782.0213,-121.494 1843.9181,-104.1629 1886.1767,-92.3305"/>
<polygon fill="#191970" stroke="#191970" points="1887.2537,-95.6637 1895.9396,-89.5969 1885.3662,-88.9229 1887.2537,-95.6637"/>
</g>
<!-- Node21 -->
<g id="node22" class="node">
<title>Node21</title>
<polygon fill="#ffffff" stroke="#bfbfbf" points="1435.0879,-69.5 1435.0879,-89.5 1522.9121,-89.5 1522.9121,-69.5 1435.0879,-69.5"/>
<text text-anchor="middle" x="1479" y="-75.9" font-family="Helvetica,sans-Serif" font-size="12.00" fill="#000000">gsl/gsl_poly.h</text>
</g>
<!-- Node10&#45;&gt;Node21 -->
<g id="edge28" class="edge">
<title>Node10&#45;&gt;Node21</title>
<path fill="none" stroke="#191970" d="M1673.2768,-132.4303C1665.9421,-130.2775 1658.2178,-128.0387 1651,-126 1609.1399,-114.1763 1561.3704,-101.3118 1526.8136,-92.1175"/>
<polygon fill="#191970" stroke="#191970" points="1527.5481,-88.6912 1516.9846,-89.5065 1525.7508,-95.4566 1527.5481,-88.6912"/>
</g>
<!-- Node10&#45;&gt;Node22 -->
<g id="edge29" class="edge">
<title>Node10&#45;&gt;Node22</title>
<path fill="none" stroke="#191970" d="M1744.8053,-139.0681C1865.753,-128.0887 2242.3581,-93.9012 2363.2408,-82.9277"/>
<polygon fill="#191970" stroke="#191970" points="2363.8304,-86.3887 2373.473,-81.9988 2363.1975,-79.4173 2363.8304,-86.3887"/>
</g>
<!-- Node10&#45;&gt;Node23 -->
<g id="edge31" class="edge">
<title>Node10&#45;&gt;Node23</title>
<path fill="none" stroke="#191970" d="M1669.5114,-137.2287C1643.1252,-133.662 1606.9558,-129.0606 1575,-126 1444.6453,-113.5151 1038.2181,-89.0037 914.2588,-81.6409"/>
<polygon fill="#191970" stroke="#191970" points="914.3435,-78.1399 904.1538,-81.0415 913.929,-85.1276 914.3435,-78.1399"/>
</g>
<!-- Node10&#45;&gt;Node26 -->
<g id="edge36" class="edge">
<title>Node10&#45;&gt;Node26</title>
<path fill="none" stroke="#191970" d="M1744.6701,-140.4916C1851.3164,-134.6568 2164.6223,-116.4853 2435.8793,-90.0671"/>
<polygon fill="#191970" stroke="#191970" points="2436.3049,-93.5423 2445.9161,-89.084 2435.6224,-86.5756 2436.3049,-93.5423"/>
</g>
<!-- Node27 -->
<g id="node28" class="node">
<title>Node27</title>
<g id="a_node28"><a xlink:href="IncludeEigen_8h_source.html" target="_top" xlink:title="IncludeEigen.h">
<polygon fill="#ffffff" stroke="#000000" points="2032.3027,-69.5 2032.3027,-89.5 2127.6973,-89.5 2127.6973,-69.5 2032.3027,-69.5"/>
<text text-anchor="middle" x="2080" y="-75.9" font-family="Helvetica,sans-Serif" font-size="12.00" fill="#000000">IncludeEigen.h</text>
</a>
</g>
</g>
<!-- Node10&#45;&gt;Node27 -->
<g id="edge37" class="edge">
<title>Node10&#45;&gt;Node27</title>
<path fill="none" stroke="#191970" d="M1744.8213,-136.122C1803.3663,-126.2478 1919.4671,-106.6602 2018,-90 2019.4465,-89.7554 2020.9119,-89.5076 2022.3903,-89.2575"/>
<polygon fill="#191970" stroke="#191970" points="2022.9971,-92.7047 2032.273,-87.5854 2021.8293,-85.8028 2022.9971,-92.7047"/>
</g>
<!-- Node23&#45;&gt;Node2 -->
<g id="edge32" class="edge">
<title>Node23&#45;&gt;Node2</title>
<path fill="none" stroke="#191970" d="M904.1045,-71.9339C908.704,-70.8058 913.4693,-69.7664 918,-69 1121.2505,-34.6189 1363.183,-22.6801 1492.8633,-18.5879"/>
<polygon fill="#191970" stroke="#191970" points="1493.2611,-22.0774 1503.1491,-18.2724 1493.0464,-15.0807 1493.2611,-22.0774"/>
</g>
<!-- Node23&#45;&gt;Node15 -->
<g id="edge33" class="edge">
<title>Node23&#45;&gt;Node15</title>
<path fill="none" stroke="#191970" d="M851.81,-76.4614C764.471,-66.3281 482.6988,-33.6363 376.244,-21.2852"/>
<polygon fill="#191970" stroke="#191970" points="376.5429,-17.7965 366.2062,-20.1206 375.7361,-24.7499 376.5429,-17.7965"/>
</g>
<!-- Node24 -->
<g id="node25" class="node">
<title>Node24</title>
<polygon fill="#ffffff" stroke="#bfbfbf" points="844.3154,-6.5 844.3154,-26.5 911.6846,-26.5 911.6846,-6.5 844.3154,-6.5"/>
<text text-anchor="middle" x="878" y="-12.9" font-family="Helvetica,sans-Serif" font-size="12.00" fill="#000000">exception</text>
</g>
<!-- Node23&#45;&gt;Node24 -->
<g id="edge34" class="edge">
<title>Node23&#45;&gt;Node24</title>
<path fill="none" stroke="#191970" d="M878,-69.378C878,-60.7041 878,-47.9355 878,-37.1186"/>
<polygon fill="#191970" stroke="#191970" points="881.5001,-36.8062 878,-26.8062 874.5001,-36.8062 881.5001,-36.8062"/>
</g>
<!-- Node23&#45;&gt;Node25 -->
<g id="edge35" class="edge">
<title>Node23&#45;&gt;Node25</title>
<path fill="none" stroke="#191970" d="M851.8224,-77.7428C769.6845,-72.1585 509.7464,-53.9467 295,-33 257.1191,-29.305 213.6994,-24.1668 184.7378,-20.6102"/>
<polygon fill="#191970" stroke="#191970" points="185.1127,-17.13 174.759,-19.377 184.2542,-24.0771 185.1127,-17.13"/>
</g>
<!-- Node28 -->
<g id="node29" class="node">
<title>Node28</title>
<polygon fill="#ffffff" stroke="#bfbfbf" points="2037.6436,-6.5 2037.6436,-26.5 2122.3564,-26.5 2122.3564,-6.5 2037.6436,-6.5"/>
<text text-anchor="middle" x="2080" y="-12.9" font-family="Helvetica,sans-Serif" font-size="12.00" fill="#000000">Eigen/Dense</text>
</g>
<!-- Node27&#45;&gt;Node28 -->
<g id="edge38" class="edge">
<title>Node27&#45;&gt;Node28</title>
<path fill="none" stroke="#191970" d="M2080,-69.378C2080,-60.7041 2080,-47.9355 2080,-37.1186"/>
<polygon fill="#191970" stroke="#191970" points="2083.5001,-36.8062 2080,-26.8062 2076.5001,-36.8062 2083.5001,-36.8062"/>
</g>
<!-- Node35&#45;&gt;Node2 -->
<g id="edge51" class="edge">
<title>Node35&#45;&gt;Node2</title>
<path fill="none" stroke="#191970" d="M1806.5403,-270.4545C1854.0127,-243.6247 1989.5498,-169.3864 2110,-126 2173.5938,-103.0934 2296.8765,-118.6411 2251,-69 2231.8803,-48.3114 1857.5766,-28.7399 1679.1201,-20.5415"/>
<polygon fill="#191970" stroke="#191970" points="1679.1019,-17.0371 1668.9526,-20.0769 1678.7824,-24.0298 1679.1019,-17.0371"/>
</g>
<!-- Node35&#45;&gt;Node9 -->
<g id="edge52" class="edge">
<title>Node35&#45;&gt;Node9</title>
<path fill="none" stroke="#191970" d="M1733.95,-271.5728C1718.7408,-269.1124 1702.2318,-266.4473 1687,-264 1587.8678,-248.0725 1471.905,-229.6064 1407.5154,-219.3677"/>
<polygon fill="#191970" stroke="#191970" points="1407.6786,-215.8497 1397.253,-217.736 1406.5794,-222.7629 1407.6786,-215.8497"/>
</g>
<!-- Node36&#45;&gt;Node2 -->
<g id="edge54" class="edge">
<title>Node36&#45;&gt;Node2</title>
<path fill="none" stroke="#191970" d="M1416.816,-341.4547C1538.848,-337.3252 1774.9638,-325.7974 1853,-297 1926.5789,-269.8475 1927.8865,-232.0733 1997,-195 2054.0961,-164.373 2232.3519,-143.4312 2269,-90 2274.2792,-82.3032 2275.3417,-75.8479 2269,-69 2249.2475,-47.6709 1861.1341,-28.2932 1678.9518,-20.3314"/>
<polygon fill="#191970" stroke="#191970" points="1678.9863,-16.8297 1668.8438,-19.8921 1678.6824,-23.8231 1678.9863,-16.8297"/>
</g>
<!-- Node36&#45;&gt;Node8 -->
<g id="edge59" class="edge">
<title>Node36&#45;&gt;Node8</title>
<path fill="none" stroke="#191970" d="M1318.2212,-333.378C1293.5157,-322.8614 1254.6697,-306.3256 1226.9995,-294.5471"/>
<polygon fill="#191970" stroke="#191970" points="1228.2917,-291.2933 1217.7197,-290.5969 1225.55,-297.734 1228.2917,-291.2933"/>
</g>
<!-- Node36&#45;&gt;Node9 -->
<g id="edge60" class="edge">
<title>Node36&#45;&gt;Node9</title>
<path fill="none" stroke="#191970" d="M1343.2555,-333.1422C1345.8959,-311.3584 1352.0652,-260.4618 1355.5287,-231.8882"/>
<polygon fill="#191970" stroke="#191970" points="1359.0215,-232.1582 1356.7503,-221.8097 1352.0724,-231.3159 1359.0215,-232.1582"/>
</g>
<!-- Node36&#45;&gt;Node34 -->
<g id="edge61" class="edge">
<title>Node36&#45;&gt;Node34</title>
<path fill="none" stroke="#191970" d="M1289.5715,-333.4702C1154.7561,-307.6794 798.7596,-239.5757 686.4535,-218.0911"/>
<polygon fill="#191970" stroke="#191970" points="686.8411,-214.6019 676.3615,-216.1605 685.5257,-221.4772 686.8411,-214.6019"/>
</g>
<!-- Node36&#45;&gt;Node37 -->
<g id="edge55" class="edge">
<title>Node36&#45;&gt;Node37</title>
<path fill="none" stroke="#191970" d="M1416.7492,-340.0712C1537.8318,-334.0862 1784.2643,-320.1173 1992,-297 2005.339,-295.5156 2019.5491,-293.6064 2033.1521,-291.6164"/>
<polygon fill="#191970" stroke="#191970" points="2034.0381,-295.023 2043.4116,-290.0846 2033.0044,-288.0997 2034.0381,-295.023"/>
</g>
<!-- Node37&#45;&gt;Node2 -->
<g id="edge56" class="edge">
<title>Node37&#45;&gt;Node2</title>
<path fill="none" stroke="#191970" d="M2126.4823,-270.3441C2146.0751,-261.5119 2172.787,-247.1254 2191,-228 2226.2313,-191.0037 2207.04,-161.2694 2244,-126 2275.0629,-96.3579 2351.2608,-100.4223 2322,-69 2300.3978,-45.802 1872.1118,-27.0883 1679.0147,-19.795"/>
<polygon fill="#191970" stroke="#191970" points="1679.0035,-16.2922 1668.8792,-19.4146 1678.7409,-23.2873 1679.0035,-16.2922"/>
</g>
<!-- Node37&#45;&gt;Node22 -->
<g id="edge58" class="edge">
<title>Node37&#45;&gt;Node22</title>
<path fill="none" stroke="#191970" d="M2145.5825,-270.4106C2171.319,-262.5946 2202.7047,-249.3904 2224,-228 2258.7099,-193.135 2231.1013,-159.6397 2267,-126 2274.3088,-119.1511 2326.4546,-102.225 2363.492,-90.7975"/>
<polygon fill="#191970" stroke="#191970" points="2364.953,-94.0104 2373.488,-87.7331 2362.9013,-87.3178 2364.953,-94.0104"/>
</g>
<!-- Node38 -->
<g id="node37" class="node">
<title>Node38</title>
<polygon fill="#ffffff" stroke="#bfbfbf" points="2005.6211,-195.5 2005.6211,-227.5 2182.3789,-227.5 2182.3789,-195.5 2005.6211,-195.5"/>
<text text-anchor="start" x="2013.6211" y="-213.9" font-family="Helvetica,sans-Serif" font-size="12.00" fill="#000000">../third_party_libs</text>
<text text-anchor="middle" x="2094" y="-201.9" font-family="Helvetica,sans-Serif" font-size="12.00" fill="#000000">/alglib/alglib/src/interpolation.h</text>
</g>
<!-- Node37&#45;&gt;Node38 -->
<g id="edge57" class="edge">
<title>Node37&#45;&gt;Node38</title>
<path fill="none" stroke="#191970" d="M2099.9671,-270.3188C2099.0936,-261.7084 2097.8029,-248.9862 2096.6452,-237.5741"/>
<polygon fill="#191970" stroke="#191970" points="2100.1266,-237.2132 2095.6351,-227.6175 2093.1624,-237.9198 2100.1266,-237.2132"/>
</g>
<!-- Node39&#45;&gt;Node2 -->
<g id="edge65" class="edge">
<title>Node39&#45;&gt;Node2</title>
<path fill="none" stroke="#191970" d="M1766.1805,-201.4326C1799.1996,-183.5729 1871.6595,-146.3169 1937,-126 2025.2602,-98.5564 2199.18,-137.3862 2137,-69 2106.845,-35.8352 1827.9371,-23.1255 1678.9071,-18.6714"/>
<polygon fill="#191970" stroke="#191970" points="1678.9426,-15.171 1668.8446,-18.3773 1678.738,-22.1681 1678.9426,-15.171"/>
</g>
<!-- Node39&#45;&gt;Node10 -->
<g id="edge66" class="edge">
<title>Node39&#45;&gt;Node10</title>
<path fill="none" stroke="#191970" d="M1741.9503,-201.3188C1735.7732,-190.9231 1726.0344,-174.5336 1718.4043,-161.6927"/>
<polygon fill="#191970" stroke="#191970" points="1721.1917,-159.5319 1713.0745,-152.723 1715.1739,-163.1077 1721.1917,-159.5319"/>
</g>
<!-- Node39&#45;&gt;Node12 -->
<g id="edge67" class="edge">
<title>Node39&#45;&gt;Node12</title>
<path fill="none" stroke="#191970" d="M1732.5646,-201.4576C1703.2348,-182.9389 1636.8445,-143.6904 1575,-126 1533.8674,-114.2342 1248.4378,-90.9252 1142.4775,-82.5699"/>
<polygon fill="#191970" stroke="#191970" points="1142.7484,-79.0805 1132.5048,-81.7859 1142.1997,-86.0589 1142.7484,-79.0805"/>
</g>
<!-- Node41&#45;&gt;Node2 -->
<g id="edge69" class="edge">
<title>Node41&#45;&gt;Node2</title>
<path fill="none" stroke="#191970" d="M1597.7535,-264.1926C1603.9609,-232.5902 1612.2636,-162.8805 1575,-126 1524.1389,-75.6618 1302.6881,-143.3539 1255,-90 1248.7802,-83.0412 1248.9393,-76.0978 1255,-69 1270.409,-50.9543 1400.592,-34.5884 1493.0135,-25.0895"/>
<polygon fill="#191970" stroke="#191970" points="1493.6452,-28.5434 1503.2402,-24.0504 1492.9376,-21.5793 1493.6452,-28.5434"/>
</g>
<!-- Node41&#45;&gt;Node9 -->
<g id="edge70" class="edge">
<title>Node41&#45;&gt;Node9</title>
<path fill="none" stroke="#191970" d="M1539.2637,-264.4966C1497.6401,-252.327 1441.106,-235.7979 1402.3025,-224.4529"/>
<polygon fill="#191970" stroke="#191970" points="1402.9284,-220.9894 1392.348,-221.5424 1400.964,-227.7081 1402.9284,-220.9894"/>
</g>
<!-- Node41&#45;&gt;Node39 -->
<g id="edge71" class="edge">
<title>Node41&#45;&gt;Node39</title>
<path fill="none" stroke="#191970" d="M1629.7178,-264.4966C1655.7603,-252.8282 1690.7476,-237.1521 1715.9047,-225.8803"/>
<polygon fill="#191970" stroke="#191970" points="1717.6648,-228.9271 1725.3595,-221.6441 1714.8025,-222.539 1717.6648,-228.9271"/>
</g>
<!-- Node43&#45;&gt;Node25 -->
<g id="edge81" class="edge">
<title>Node43&#45;&gt;Node25</title>
<path fill="none" stroke="#191970" d="M427.9824,-270.2078C399.1277,-250.1658 334.4212,-203.9185 285,-159 239.1561,-117.3329 190.8674,-62.3896 167.0727,-34.4639"/>
<polygon fill="#191970" stroke="#191970" points="169.6384,-32.0777 160.5043,-26.7093 164.297,-36.6021 169.6384,-32.0777"/>
</g>
<!-- Node43&#45;&gt;Node34 -->
<g id="edge80" class="edge">
<title>Node43&#45;&gt;Node34</title>
<path fill="none" stroke="#191970" d="M473.3904,-270.4668C511.7983,-257.7867 577.7242,-236.0217 617.839,-222.778"/>
<polygon fill="#191970" stroke="#191970" points="619.0504,-226.064 627.4491,-219.6053 616.8559,-219.4168 619.0504,-226.064"/>
</g>
<!-- Node44&#45;&gt;Node2 -->
<g id="edge83" class="edge">
<title>Node44&#45;&gt;Node2</title>
<path fill="none" stroke="#191970" d="M647.3775,-333.3717C657.4356,-313.7309 678.6523,-268.8047 685,-228 687.2545,-213.5076 686.792,-209.5568 685,-195 682.9849,-178.6311 678.0151,-175.3689 676,-159 674.208,-144.4432 667.4669,-137.9289 676,-126 721.6285,-62.2132 766.1326,-84.5602 843,-69 964.7224,-44.3598 1322.058,-27.1399 1492.9235,-20.0765"/>
<polygon fill="#191970" stroke="#191970" points="1493.3101,-23.5637 1503.1581,-19.6564 1493.0229,-16.5696 1493.3101,-23.5637"/>
</g>
<!-- Node44&#45;&gt;Node11 -->
<g id="edge88" class="edge">
<title>Node44&#45;&gt;Node11</title>
<path fill="none" stroke="#191970" d="M614.7361,-333.3964C597.6622,-325.7864 576.4273,-313.7724 563,-297 514.5067,-236.4258 499.2514,-141.4342 494.7526,-99.9878"/>
<polygon fill="#191970" stroke="#191970" points="498.2118,-99.4005 493.7503,-89.7909 491.2454,-100.0853 498.2118,-99.4005"/>
</g>
<!-- Node44&#45;&gt;Node34 -->
<g id="edge87" class="edge">
<title>Node44&#45;&gt;Node34</title>
<path fill="none" stroke="#191970" d="M643.2565,-333.1713C644.3669,-323.7573 645.9663,-309.4612 647,-297 648.8554,-274.6338 650.261,-248.9196 651.1023,-231.5805"/>
<polygon fill="#191970" stroke="#191970" points="654.602,-231.6675 651.5727,-221.515 647.6096,-231.3407 654.602,-231.6675"/>
</g>
<!-- Node44&#45;&gt;Node41 -->
<g id="edge85" class="edge">
<title>Node44&#45;&gt;Node41</title>
<path fill="none" stroke="#191970" d="M713.945,-338.7389C883.8688,-327.494 1310.0251,-299.2925 1500.0254,-286.7189"/>
<polygon fill="#191970" stroke="#191970" points="1500.5228,-290.1937 1510.2698,-286.041 1500.0605,-283.209 1500.5228,-290.1937"/>
</g>
<!-- Node44&#45;&gt;Node43 -->
<g id="edge84" class="edge">
<title>Node44&#45;&gt;Node43</title>
<path fill="none" stroke="#191970" d="M610.0272,-333.378C575.9379,-322.5859 521.8261,-305.455 484.478,-293.6312"/>
<polygon fill="#191970" stroke="#191970" points="485.4835,-290.2784 474.8934,-290.5969 483.3707,-296.952 485.4835,-290.2784"/>
</g>
<!-- Node45 -->
<g id="node43" class="node">
<title>Node45</title>
<polygon fill="#ffffff" stroke="#bfbfbf" points="571.6465,-270.5 571.6465,-290.5 638.3535,-290.5 638.3535,-270.5 571.6465,-270.5"/>
<text text-anchor="middle" x="605" y="-276.9" font-family="Helvetica,sans-Serif" font-size="12.00" fill="#000000">pthread.h</text>
</g>
<!-- Node44&#45;&gt;Node45 -->
<g id="edge86" class="edge">
<title>Node44&#45;&gt;Node45</title>
<path fill="none" stroke="#191970" d="M636.0553,-333.378C630.7466,-324.3389 622.8263,-310.853 616.3132,-299.7631"/>
<polygon fill="#191970" stroke="#191970" points="619.1351,-297.6566 611.0529,-290.8062 613.0991,-301.2016 619.1351,-297.6566"/>
</g>
<!-- Node50&#45;&gt;Node11 -->
<g id="edge105" class="edge">
<title>Node50&#45;&gt;Node11</title>
<path fill="none" stroke="#191970" d="M360.3854,-132.378C389.8815,-120.6169 438.258,-101.3275 467.7123,-89.5831"/>
<polygon fill="#191970" stroke="#191970" points="469.2871,-92.7232 477.2795,-85.7683 466.6944,-86.221 469.2871,-92.7232"/>
</g>
<!-- Node50&#45;&gt;Node12 -->
<g id="edge104" class="edge">
<title>Node50&#45;&gt;Node12</title>
<path fill="none" stroke="#191970" d="M376.0195,-139.1351C509.7867,-128.162 932.2776,-93.5046 1063.6339,-82.7292"/>
<polygon fill="#191970" stroke="#191970" points="1063.9734,-86.2133 1073.6537,-81.9073 1063.401,-79.2367 1063.9734,-86.2133"/>
</g>
<!-- Node50&#45;&gt;Node15 -->
<g id="edge103" class="edge">
<title>Node50&#45;&gt;Node15</title>
<path fill="none" stroke="#191970" d="M335,-132.1889C335,-111.4121 335,-64.1771 335,-36.923"/>
<polygon fill="#191970" stroke="#191970" points="338.5001,-36.6014 335,-26.6014 331.5001,-36.6015 338.5001,-36.6014"/>
</g>
</g>
</svg>
