<?xml version="1.0" encoding="UTF-8" standalone="no"?>
<!DOCTYPE svg PUBLIC "-//W3C//DTD SVG 1.1//EN"
 "http://www.w3.org/Graphics/SVG/1.1/DTD/svg11.dtd">
<!-- Generated by graphviz version 2.40.1 (20161225.0304)
 -->
<!-- Title: /home/kpenev/projects/git/poet/poet_src/Evolve/StopHistoryInterval.h Pages: 1 -->
<!--zoomable 185 -->
<svg id="main" version="1.1" xmlns="http://www.w3.org/2000/svg" xmlns:xlink="http://www.w3.org/1999/xlink" xml:space="preserve" onload="init(evt)">
<style type="text/css"><![CDATA[
.edge:hover path { stroke: red; }
.edge:hover polygon { stroke: red; fill: red; }
]]></style>
<script type="text/javascript"><![CDATA[
var edges = document.getElementsByTagName('g');
if (edges && edges.length) {
  for (var i=0;i<edges.length;i++) {
    if (edges[i].id.substr(0,4)=='edge') {
      edges[i].setAttribute('class','edge');
    }
  }
}
]]></script>
        <defs>
                <circle id="rim" cx="0" cy="0" r="7"/>
                <circle id="rim2" cx="0" cy="0" r="3.5"/>
                <g id="zoomPlus">
                        <use xlink:href="#rim" fill="#404040">
                                <set attributeName="fill" to="#808080" begin="zoomplus.mouseover" end="zoomplus.mouseout"/>
                        </use>
                        <path d="M-4,0h8M0,-4v8" fill="none" stroke="white" stroke-width="1.5" pointer-events="none"/>
                </g>
                <g id="zoomMin">
                        <use xlink:href="#rim" fill="#404040">
                                <set attributeName="fill" to="#808080" begin="zoomminus.mouseover" end="zoomminus.mouseout"/>
                        </use>
                        <path d="M-4,0h8" fill="none" stroke="white" stroke-width="1.5" pointer-events="none"/>
                </g>
                <g id="dirArrow">
                        <path fill="none" stroke="white" stroke-width="1.5" d="M0,-3.0v7 M-2.5,-0.5L0,-3.0L2.5,-0.5"/>
                </g>
               <g id="resetDef">
                       <use xlink:href="#rim2" fill="#404040">
                               <set attributeName="fill" to="#808080" begin="reset.mouseover" end="reset.mouseout"/>
                       </use>
               </g>
        </defs>

<script type="text/javascript">
var viewWidth = 623;
var viewHeight = 185;
var sectionId = 'dynsection-0';
</script>
<script xlink:href="svgpan.js"/>
<svg id="graph" class="graph">
<g id="viewport">
<title>/home/kpenev/projects/git/poet/poet_src/Evolve/StopHistoryInterval.h</title>
<polygon fill="#ffffff" stroke="transparent" points="-4,4 -4,-181 619,-181 619,4 -4,4"/>
<!-- Node0 -->
<g id="node1" class="node">
<title>Node0</title>
<polygon fill="#bfbfbf" stroke="#000000" points="298,-129.5 298,-176.5 445,-176.5 445,-129.5 298,-129.5"/>
<text text-anchor="start" x="306" y="-162.9" font-family="Helvetica,sans-Serif" font-size="12.00" fill="#000000">/home/kpenev/projects</text>
<text text-anchor="start" x="306" y="-149.9" font-family="Helvetica,sans-Serif" font-size="12.00" fill="#000000">/git/poet/poet_src/Evolve</text>
<text text-anchor="middle" x="371.5" y="-136.9" font-family="Helvetica,sans-Serif" font-size="12.00" fill="#000000">/StopHistoryInterval.h</text>
</g>
<!-- Node1 -->
<g id="node2" class="node">
<title>Node1</title>
<g id="a_node2"><a xlink:href="SharedLibraryExportMacros_8h_source.html" target="_top" xlink:title="../Core/SharedLibraryExport\lMacros.h">
<polygon fill="#ffffff" stroke="#000000" points="0,-.5 0,-34.5 165,-34.5 165,-.5 0,-.5"/>
<text text-anchor="start" x="8" y="-20.9" font-family="Helvetica,sans-Serif" font-size="12.00" fill="#000000">../Core/SharedLibraryExport</text>
<text text-anchor="middle" x="82.5" y="-7.9" font-family="Helvetica,sans-Serif" font-size="12.00" fill="#000000">Macros.h</text>
</a>
</g>
</g>
<!-- Node0&#45;&gt;Node1 -->
<g id="edge1" class="edge">
<title>Node0&#45;&gt;Node1</title>
<path fill="none" stroke="#191970" d="M297.7596,-141.5304C255.265,-132.6862 202.0162,-117.6651 159.5,-93 137.0938,-80.0014 116.4152,-58.9996 102.1417,-42.4424"/>
<polygon fill="#191970" stroke="#191970" points="104.7776,-40.1387 95.6697,-34.7259 99.4143,-44.637 104.7776,-40.1387"/>
</g>
<!-- Node2 -->
<g id="node3" class="node">
<title>Node2</title>
<g id="a_node3"><a xlink:href="Error_8h.html" target="_top" xlink:title="Defines the exception hierarchy used by this code. ">
<polygon fill="#ffffff" stroke="#000000" points="169,-71.5 169,-92.5 260,-92.5 260,-71.5 169,-71.5"/>
<text text-anchor="middle" x="214.5" y="-78.9" font-family="Helvetica,sans-Serif" font-size="12.00" fill="#000000">../Core/Error.h</text>
</a>
</g>
</g>
<!-- Node0&#45;&gt;Node2 -->
<g id="edge2" class="edge">
<title>Node0&#45;&gt;Node2</title>
<path fill="none" stroke="#191970" d="M319.2213,-129.358C295.5033,-118.6321 268.1773,-106.2744 247.3872,-96.8726"/>
<polygon fill="#191970" stroke="#191970" points="248.5954,-93.5777 238.0416,-92.6462 245.711,-99.9559 248.5954,-93.5777"/>
</g>
<!-- Node6 -->
<g id="node7" class="node">
<title>Node6</title>
<polygon fill="#ffffff" stroke="#bfbfbf" points="278,-71.5 278,-92.5 337,-92.5 337,-71.5 278,-71.5"/>
<text text-anchor="middle" x="307.5" y="-78.9" font-family="Helvetica,sans-Serif" font-size="12.00" fill="#000000">valarray</text>
</g>
<!-- Node0&#45;&gt;Node6 -->
<g id="edge7" class="edge">
<title>Node0&#45;&gt;Node6</title>
<path fill="none" stroke="#191970" d="M350.1889,-129.358C341.6142,-119.8454 331.8826,-109.0494 323.8787,-100.1701"/>
<polygon fill="#191970" stroke="#191970" points="326.3918,-97.7306 317.0966,-92.6462 321.1923,-102.4174 326.3918,-97.7306"/>
</g>
<!-- Node7 -->
<g id="node8" class="node">
<title>Node7</title>
<polygon fill="#ffffff" stroke="#bfbfbf" points="355.5,-71.5 355.5,-92.5 387.5,-92.5 387.5,-71.5 355.5,-71.5"/>
<text text-anchor="middle" x="371.5" y="-78.9" font-family="Helvetica,sans-Serif" font-size="12.00" fill="#000000">list</text>
</g>
<!-- Node0&#45;&gt;Node7 -->
<g id="edge8" class="edge">
<title>Node0&#45;&gt;Node7</title>
<path fill="none" stroke="#191970" d="M371.5,-129.358C371.5,-120.719 371.5,-111.0215 371.5,-102.6624"/>
<polygon fill="#191970" stroke="#191970" points="375.0001,-102.6462 371.5,-92.6462 368.0001,-102.6463 375.0001,-102.6462"/>
</g>
<!-- Node8 -->
<g id="node9" class="node">
<title>Node8</title>
<polygon fill="#ffffff" stroke="#bfbfbf" points="406,-71.5 406,-92.5 465,-92.5 465,-71.5 406,-71.5"/>
<text text-anchor="middle" x="435.5" y="-78.9" font-family="Helvetica,sans-Serif" font-size="12.00" fill="#000000">ostream</text>
</g>
<!-- Node0&#45;&gt;Node8 -->
<g id="edge9" class="edge">
<title>Node0&#45;&gt;Node8</title>
<path fill="none" stroke="#191970" d="M392.8111,-129.358C401.3858,-119.8454 411.1174,-109.0494 419.1213,-100.1701"/>
<polygon fill="#191970" stroke="#191970" points="421.8077,-102.4174 425.9034,-92.6462 416.6082,-97.7306 421.8077,-102.4174"/>
</g>
<!-- Node9 -->
<g id="node10" class="node">
<title>Node9</title>
<polygon fill="#ffffff" stroke="#bfbfbf" points="483,-71.5 483,-92.5 538,-92.5 538,-71.5 483,-71.5"/>
<text text-anchor="middle" x="510.5" y="-78.9" font-family="Helvetica,sans-Serif" font-size="12.00" fill="#000000">cassert</text>
</g>
<!-- Node0&#45;&gt;Node9 -->
<g id="edge10" class="edge">
<title>Node0&#45;&gt;Node9</title>
<path fill="none" stroke="#191970" d="M417.785,-129.358C438.4986,-118.7777 462.3205,-106.6096 480.6305,-97.2571"/>
<polygon fill="#191970" stroke="#191970" points="482.344,-100.3121 489.6574,-92.6462 479.1598,-94.0782 482.344,-100.3121"/>
</g>
<!-- Node10 -->
<g id="node11" class="node">
<title>Node10</title>
<polygon fill="#ffffff" stroke="#bfbfbf" points="556,-71.5 556,-92.5 615,-92.5 615,-71.5 556,-71.5"/>
<text text-anchor="middle" x="585.5" y="-78.9" font-family="Helvetica,sans-Serif" font-size="12.00" fill="#000000">iomanip</text>
</g>
<!-- Node0&#45;&gt;Node10 -->
<g id="edge11" class="edge">
<title>Node0&#45;&gt;Node10</title>
<path fill="none" stroke="#191970" d="M442.4617,-129.4566C476.9623,-118.0102 517.1227,-104.6859 546.091,-95.075"/>
<polygon fill="#191970" stroke="#191970" points="547.4539,-98.3104 555.843,-91.8395 545.2496,-91.6666 547.4539,-98.3104"/>
</g>
<!-- Node2&#45;&gt;Node1 -->
<g id="edge3" class="edge">
<title>Node2&#45;&gt;Node1</title>
<path fill="none" stroke="#191970" d="M192.9981,-71.4934C175.02,-62.7086 148.7963,-49.8948 126.407,-38.9546"/>
<polygon fill="#191970" stroke="#191970" points="127.9241,-35.8004 117.4027,-34.5547 124.8509,-42.0897 127.9241,-35.8004"/>
</g>
<!-- Node3 -->
<g id="node4" class="node">
<title>Node3</title>
<polygon fill="#ffffff" stroke="#bfbfbf" points="183.5,-7 183.5,-28 245.5,-28 245.5,-7 183.5,-7"/>
<text text-anchor="middle" x="214.5" y="-14.4" font-family="Helvetica,sans-Serif" font-size="12.00" fill="#000000">iostream</text>
</g>
<!-- Node2&#45;&gt;Node3 -->
<g id="edge4" class="edge">
<title>Node2&#45;&gt;Node3</title>
<path fill="none" stroke="#191970" d="M214.5,-71.3491C214.5,-62.4397 214.5,-49.4599 214.5,-38.4761"/>
<polygon fill="#191970" stroke="#191970" points="218.0001,-38.3822 214.5,-28.3823 211.0001,-38.3823 218.0001,-38.3822"/>
</g>
<!-- Node4 -->
<g id="node5" class="node">
<title>Node4</title>
<polygon fill="#ffffff" stroke="#bfbfbf" points="263.5,-7 263.5,-28 331.5,-28 331.5,-7 263.5,-7"/>
<text text-anchor="middle" x="297.5" y="-14.4" font-family="Helvetica,sans-Serif" font-size="12.00" fill="#000000">exception</text>
</g>
<!-- Node2&#45;&gt;Node4 -->
<g id="edge5" class="edge">
<title>Node2&#45;&gt;Node4</title>
<path fill="none" stroke="#191970" d="M228.2058,-71.3491C241.0613,-61.359 260.5023,-46.2512 275.5235,-34.5781"/>
<polygon fill="#191970" stroke="#191970" points="278.0254,-37.0665 283.7739,-28.1667 273.7301,-31.5392 278.0254,-37.0665"/>
</g>
<!-- Node5 -->
<g id="node6" class="node">
<title>Node5</title>
<polygon fill="#ffffff" stroke="#bfbfbf" points="349.5,-7 349.5,-28 395.5,-28 395.5,-7 349.5,-7"/>
<text text-anchor="middle" x="372.5" y="-14.4" font-family="Helvetica,sans-Serif" font-size="12.00" fill="#000000">string</text>
</g>
<!-- Node2&#45;&gt;Node5 -->
<g id="edge6" class="edge">
<title>Node2&#45;&gt;Node5</title>
<path fill="none" stroke="#191970" d="M246.5992,-71.4538C272.3735,-62.6471 309.2857,-49.2678 340.5,-35 342.0441,-34.2942 343.6158,-33.5443 345.1924,-32.7672"/>
<polygon fill="#191970" stroke="#191970" points="346.8515,-35.8495 354.1169,-28.1382 343.6284,-29.6356 346.8515,-35.8495"/>
</g>
</g>
</svg>
        <g id="navigator" transform="translate(0 0)" fill="#404254">
                <rect fill="#f2f5e9" fill-opacity="0.5" stroke="#606060" stroke-width=".5" x="0" y="0" width="60" height="60"/>
                <use id="zoomplus" xlink:href="#zoomPlus" x="17" y="9" onmousedown="handleZoom(evt,'in')"/>
                <use id="zoomminus" xlink:href="#zoomMin" x="42" y="9" onmousedown="handleZoom(evt,'out')"/>
                <use id="reset" xlink:href="#resetDef" x="30" y="36" onmousedown="handleReset()"/>
                <g id="arrowUp" xlink:href="#dirArrow" transform="translate(30 24)" onmousedown="handlePan(0,-1)">
                  <use xlink:href="#rim" fill="#404040">
                        <set attributeName="fill" to="#808080" begin="arrowUp.mouseover" end="arrowUp.mouseout"/>
                  </use>
                  <path fill="none" stroke="white" stroke-width="1.5" d="M0,-3.0v7 M-2.5,-0.5L0,-3.0L2.5,-0.5"/>
                </g>
                <g id="arrowRight" xlink:href="#dirArrow" transform="rotate(90) translate(36 -43)" onmousedown="handlePan(1,0)">
                  <use xlink:href="#rim" fill="#404040">
                        <set attributeName="fill" to="#808080" begin="arrowRight.mouseover" end="arrowRight.mouseout"/>
                  </use>
                  <path fill="none" stroke="white" stroke-width="1.5" d="M0,-3.0v7 M-2.5,-0.5L0,-3.0L2.5,-0.5"/>
                </g>
                <g id="arrowDown" xlink:href="#dirArrow" transform="rotate(180) translate(-30 -48)" onmousedown="handlePan(0,1)">
                  <use xlink:href="#rim" fill="#404040">
                        <set attributeName="fill" to="#808080" begin="arrowDown.mouseover" end="arrowDown.mouseout"/>
                  </use>
                  <path fill="none" stroke="white" stroke-width="1.5" d="M0,-3.0v7 M-2.5,-0.5L0,-3.0L2.5,-0.5"/>
                </g>
                <g id="arrowLeft" xlink:href="#dirArrow" transform="rotate(270) translate(-36 17)" onmousedown="handlePan(-1,0)">
                  <use xlink:href="#rim" fill="#404040">
                        <set attributeName="fill" to="#808080" begin="arrowLeft.mouseover" end="arrowLeft.mouseout"/>
                  </use>
                  <path fill="none" stroke="white" stroke-width="1.5" d="M0,-3.0v7 M-2.5,-0.5L0,-3.0L2.5,-0.5"/>
                </g>
        </g>
        <svg viewBox="0 0 15 15" width="100%" height="30px" preserveAspectRatio="xMaxYMin meet">
         <g id="arrow_out" transform="scale(0.3 0.3)">
          <a xlink:href="StopHistoryInterval_8h__incl_org.svg" target="_base">
           <rect id="button" ry="5" rx="5" y="6" x="6" height="38" width="38"
                fill="#f2f5e9" fill-opacity="0.5" stroke="#606060" stroke-width="1.0"/>
           <path id="arrow"
             d="M 11.500037,31.436501 C 11.940474,20.09759 22.043105,11.32322 32.158766,21.979434 L 37.068811,17.246167 C 37.068811,17.246167 37.088388,32 37.088388,32 L 22.160133,31.978069 C 22.160133,31.978069 26.997745,27.140456 26.997745,27.140456 C 18.528582,18.264221 13.291696,25.230495 11.500037,31.436501 z"
             style="fill:#404040;"/>
          </a>
         </g>
        </svg>
</svg>
