<?xml version="1.0" encoding="UTF-8" standalone="no"?>
<!DOCTYPE svg PUBLIC "-//W3C//DTD SVG 1.1//EN"
 "http://www.w3.org/Graphics/SVG/1.1/DTD/svg11.dtd">
<!-- Generated by graphviz version 2.40.1 (20161225.0304)
 -->
<!-- Title: /home/kpenev/projects/git/poet/poet_src/Evolve/StoppingCondition.cpp Pages: 1 -->
<!--zoomable 301 -->
<svg id="main" version="1.1" xmlns="http://www.w3.org/2000/svg" xmlns:xlink="http://www.w3.org/1999/xlink" xml:space="preserve" onload="init(evt)">
<style type="text/css"><![CDATA[
.edge:hover path { stroke: red; }
.edge:hover polygon { stroke: red; fill: red; }
]]></style>
<script type="text/javascript"><![CDATA[
var edges = document.getElementsByTagName('g');
if (edges && edges.length) {
  for (var i=0;i<edges.length;i++) {
    if (edges[i].id.substr(0,4)=='edge') {
      edges[i].setAttribute('class','edge');
    }
  }
}
]]></script>
        <defs>
                <circle id="rim" cx="0" cy="0" r="7"/>
                <circle id="rim2" cx="0" cy="0" r="3.5"/>
                <g id="zoomPlus">
                        <use xlink:href="#rim" fill="#404040">
                                <set attributeName="fill" to="#808080" begin="zoomplus.mouseover" end="zoomplus.mouseout"/>
                        </use>
                        <path d="M-4,0h8M0,-4v8" fill="none" stroke="white" stroke-width="1.5" pointer-events="none"/>
                </g>
                <g id="zoomMin">
                        <use xlink:href="#rim" fill="#404040">
                                <set attributeName="fill" to="#808080" begin="zoomminus.mouseover" end="zoomminus.mouseout"/>
                        </use>
                        <path d="M-4,0h8" fill="none" stroke="white" stroke-width="1.5" pointer-events="none"/>
                </g>
                <g id="dirArrow">
                        <path fill="none" stroke="white" stroke-width="1.5" d="M0,-3.0v7 M-2.5,-0.5L0,-3.0L2.5,-0.5"/>
                </g>
               <g id="resetDef">
                       <use xlink:href="#rim2" fill="#404040">
                               <set attributeName="fill" to="#808080" begin="reset.mouseover" end="reset.mouseout"/>
                       </use>
               </g>
        </defs>

<script type="text/javascript">
var viewWidth = 1512;
var viewHeight = 301;
var sectionId = 'dynsection-0';
</script>
<script xlink:href="svgpan.js"/>
<svg id="graph" class="graph">
<g id="viewport">
<title>/home/kpenev/projects/git/poet/poet_src/Evolve/StoppingCondition.cpp</title>
<polygon fill="#ffffff" stroke="transparent" points="-4,4 -4,-297 1508,-297 1508,4 -4,4"/>
<!-- Node0 -->
<g id="node1" class="node">
<title>Node0</title>
<polygon fill="#bfbfbf" stroke="#000000" points="527,-245.5 527,-292.5 674,-292.5 674,-245.5 527,-245.5"/>
<text text-anchor="start" x="535" y="-278.9" font-family="Helvetica,sans-Serif" font-size="12.00" fill="#000000">/home/kpenev/projects</text>
<text text-anchor="start" x="535" y="-265.9" font-family="Helvetica,sans-Serif" font-size="12.00" fill="#000000">/git/poet/poet_src/Evolve</text>
<text text-anchor="middle" x="600.5" y="-252.9" font-family="Helvetica,sans-Serif" font-size="12.00" fill="#000000">/StoppingCondition.cpp</text>
</g>
<!-- Node1 -->
<g id="node2" class="node">
<title>Node1</title>
<g id="a_node2"><a xlink:href="StoppingCondition_8h.html" target="_top" xlink:title="Defines the various stopping conditions needed by OrbitSolver. ">
<polygon fill="#ffffff" stroke="#000000" points="537.5,-187.5 537.5,-208.5 663.5,-208.5 663.5,-187.5 537.5,-187.5"/>
<text text-anchor="middle" x="600.5" y="-194.9" font-family="Helvetica,sans-Serif" font-size="12.00" fill="#000000">StoppingCondition.h</text>
</a>
</g>
</g>
<!-- Node0&#45;&gt;Node1 -->
<g id="edge1" class="edge">
<title>Node0&#45;&gt;Node1</title>
<path fill="none" stroke="#191970" d="M600.5,-245.358C600.5,-236.719 600.5,-227.0215 600.5,-218.6624"/>
<polygon fill="#191970" stroke="#191970" points="604.0001,-218.6462 600.5,-208.6462 597.0001,-218.6463 604.0001,-218.6462"/>
</g>
<!-- Node2 -->
<g id="node3" class="node">
<title>Node2</title>
<g id="a_node3"><a xlink:href="SharedLibraryExportMacros_8h_source.html" target="_top" xlink:title="../Core/SharedLibraryExport\lMacros.h">
<polygon fill="#ffffff" stroke="#000000" points="0,-.5 0,-34.5 165,-34.5 165,-.5 0,-.5"/>
<text text-anchor="start" x="8" y="-20.9" font-family="Helvetica,sans-Serif" font-size="12.00" fill="#000000">../Core/SharedLibraryExport</text>
<text text-anchor="middle" x="82.5" y="-7.9" font-family="Helvetica,sans-Serif" font-size="12.00" fill="#000000">Macros.h</text>
</a>
</g>
</g>
<!-- Node1&#45;&gt;Node2 -->
<g id="edge2" class="edge">
<title>Node1&#45;&gt;Node2</title>
<path fill="none" stroke="#191970" d="M537.1569,-191.9866C419.6117,-179.6376 173.9014,-147.8686 110.5,-93 96.452,-80.8427 89.4436,-60.9623 85.9518,-44.653"/>
<polygon fill="#191970" stroke="#191970" points="89.3516,-43.7848 84.1263,-34.5682 82.4635,-45.0317 89.3516,-43.7848"/>
</g>
<!-- Node3 -->
<g id="node4" class="node">
<title>Node3</title>
<g id="a_node4"><a xlink:href="Core_2Common_8h.html" target="_top" xlink:title="Declaration of some general purpose utilities. ">
<polygon fill="#ffffff" stroke="#000000" points="544,-129.5 544,-150.5 657,-150.5 657,-129.5 544,-129.5"/>
<text text-anchor="middle" x="600.5" y="-136.9" font-family="Helvetica,sans-Serif" font-size="12.00" fill="#000000">../Core/Common.h</text>
</a>
</g>
</g>
<!-- Node1&#45;&gt;Node3 -->
<g id="edge3" class="edge">
<title>Node1&#45;&gt;Node3</title>
<path fill="none" stroke="#191970" d="M600.5,-187.3619C600.5,-179.9219 600.5,-169.7427 600.5,-160.7276"/>
<polygon fill="#191970" stroke="#191970" points="604.0001,-160.5706 600.5,-150.5707 597.0001,-160.5707 604.0001,-160.5706"/>
</g>
<!-- Node15 -->
<g id="node16" class="node">
<title>Node15</title>
<polygon fill="#ffffff" stroke="#bfbfbf" points="1449,-71.5 1449,-92.5 1504,-92.5 1504,-71.5 1449,-71.5"/>
<text text-anchor="middle" x="1476.5" y="-78.9" font-family="Helvetica,sans-Serif" font-size="12.00" fill="#000000">cassert</text>
</g>
<!-- Node1&#45;&gt;Node15 -->
<g id="edge25" class="edge">
<title>Node1&#45;&gt;Node15</title>
<path fill="none" stroke="#191970" d="M663.5524,-193.8455C802.6579,-183.8791 1146.1185,-154.8729 1438.7646,-93.1236"/>
<polygon fill="#191970" stroke="#191970" points="1439.6632,-96.5109 1448.7162,-91.0069 1438.2068,-89.664 1439.6632,-96.5109"/>
</g>
<!-- Node3&#45;&gt;Node2 -->
<g id="edge16" class="edge">
<title>Node3&#45;&gt;Node2</title>
<path fill="none" stroke="#191970" d="M543.8288,-136.7593C428.4076,-129.7936 174.0239,-112.4412 139.5,-93 119.6976,-81.8488 104.649,-60.6938 95.0007,-43.6078"/>
<polygon fill="#191970" stroke="#191970" points="98,-41.794 90.2003,-34.6235 91.826,-45.0929 98,-41.794"/>
</g>
<!-- Node4 -->
<g id="node5" class="node">
<title>Node4</title>
<polygon fill="#ffffff" stroke="#bfbfbf" points="220.5,-71.5 220.5,-92.5 252.5,-92.5 252.5,-71.5 220.5,-71.5"/>
<text text-anchor="middle" x="236.5" y="-78.9" font-family="Helvetica,sans-Serif" font-size="12.00" fill="#000000">list</text>
</g>
<!-- Node3&#45;&gt;Node4 -->
<g id="edge4" class="edge">
<title>Node3&#45;&gt;Node4</title>
<path fill="none" stroke="#191970" d="M543.7323,-136.9329C477.6575,-132.3045 365.4477,-121.1603 262.2989,-92.6101"/>
<polygon fill="#191970" stroke="#191970" points="263.2417,-89.2396 252.6666,-89.885 261.3361,-95.9752 263.2417,-89.2396"/>
</g>
<!-- Node5 -->
<g id="node6" class="node">
<title>Node5</title>
<polygon fill="#ffffff" stroke="#bfbfbf" points="271,-71.5 271,-92.5 330,-92.5 330,-71.5 271,-71.5"/>
<text text-anchor="middle" x="300.5" y="-78.9" font-family="Helvetica,sans-Serif" font-size="12.00" fill="#000000">valarray</text>
</g>
<!-- Node3&#45;&gt;Node5 -->
<g id="edge5" class="edge">
<title>Node3&#45;&gt;Node5</title>
<path fill="none" stroke="#191970" d="M543.9205,-131.4322C493.0141,-123.3569 416.0117,-110.2378 339.9819,-92.9478"/>
<polygon fill="#191970" stroke="#191970" points="340.7641,-89.5363 330.2341,-90.7065 339.1955,-96.3583 340.7641,-89.5363"/>
</g>
<!-- Node6 -->
<g id="node7" class="node">
<title>Node6</title>
<polygon fill="#ffffff" stroke="#bfbfbf" points="348.5,-71.5 348.5,-92.5 392.5,-92.5 392.5,-71.5 348.5,-71.5"/>
<text text-anchor="middle" x="370.5" y="-78.9" font-family="Helvetica,sans-Serif" font-size="12.00" fill="#000000">limits</text>
</g>
<!-- Node3&#45;&gt;Node6 -->
<g id="edge6" class="edge">
<title>Node3&#45;&gt;Node6</title>
<path fill="none" stroke="#191970" d="M548.9717,-129.4466C510.8452,-121.2722 457.5064,-109.0736 402.6502,-93.1356"/>
<polygon fill="#191970" stroke="#191970" points="403.3372,-89.6894 392.7558,-90.2244 401.3613,-96.4048 403.3372,-89.6894"/>
</g>
<!-- Node7 -->
<g id="node8" class="node">
<title>Node7</title>
<polygon fill="#ffffff" stroke="#bfbfbf" points="411,-71.5 411,-92.5 470,-92.5 470,-71.5 411,-71.5"/>
<text text-anchor="middle" x="440.5" y="-78.9" font-family="Helvetica,sans-Serif" font-size="12.00" fill="#000000">sstream</text>
</g>
<!-- Node3&#45;&gt;Node7 -->
<g id="edge7" class="edge">
<title>Node3&#45;&gt;Node7</title>
<path fill="none" stroke="#191970" d="M571.5252,-129.4966C545.6667,-120.1229 507.6013,-106.3242 479.1543,-96.0122"/>
<polygon fill="#191970" stroke="#191970" points="480.1233,-92.6406 469.5291,-92.5231 477.7377,-99.2216 480.1233,-92.6406"/>
</g>
<!-- Node8 -->
<g id="node9" class="node">
<title>Node8</title>
<polygon fill="#ffffff" stroke="#bfbfbf" points="400.5,-7 400.5,-28 462.5,-28 462.5,-7 400.5,-7"/>
<text text-anchor="middle" x="431.5" y="-14.4" font-family="Helvetica,sans-Serif" font-size="12.00" fill="#000000">iostream</text>
</g>
<!-- Node3&#45;&gt;Node8 -->
<g id="edge8" class="edge">
<title>Node3&#45;&gt;Node8</title>
<path fill="none" stroke="#191970" d="M578.9639,-129.3634C561.7642,-120.5055 537.3422,-107.1015 517.5,-93 492.4488,-75.1966 466.272,-51.3423 449.4764,-35.2499"/>
<polygon fill="#191970" stroke="#191970" points="451.6477,-32.4802 442.0309,-28.034 446.776,-37.5069 451.6477,-32.4802"/>
</g>
<!-- Node9 -->
<g id="node10" class="node">
<title>Node9</title>
<polygon fill="#ffffff" stroke="#bfbfbf" points="527,-71.5 527,-92.5 580,-92.5 580,-71.5 527,-71.5"/>
<text text-anchor="middle" x="553.5" y="-78.9" font-family="Helvetica,sans-Serif" font-size="12.00" fill="#000000">iterator</text>
</g>
<!-- Node3&#45;&gt;Node9 -->
<g id="edge9" class="edge">
<title>Node3&#45;&gt;Node9</title>
<path fill="none" stroke="#191970" d="M591.8795,-129.3619C585.3205,-121.2678 576.1344,-109.9318 568.3938,-100.3796"/>
<polygon fill="#191970" stroke="#191970" points="571.081,-98.1364 562.0659,-92.5707 565.6425,-102.5436 571.081,-98.1364"/>
</g>
<!-- Node10 -->
<g id="node11" class="node">
<title>Node10</title>
<polygon fill="#ffffff" stroke="#bfbfbf" points="598.5,-71.5 598.5,-92.5 698.5,-92.5 698.5,-71.5 598.5,-71.5"/>
<text text-anchor="middle" x="648.5" y="-78.9" font-family="Helvetica,sans-Serif" font-size="12.00" fill="#000000">gsl/gsl_vector.h</text>
</g>
<!-- Node3&#45;&gt;Node10 -->
<g id="edge10" class="edge">
<title>Node3&#45;&gt;Node10</title>
<path fill="none" stroke="#191970" d="M609.3039,-129.3619C616.0025,-121.2678 625.384,-109.9318 633.2893,-100.3796"/>
<polygon fill="#191970" stroke="#191970" points="636.0725,-102.5061 639.7519,-92.5707 630.6798,-98.0431 636.0725,-102.5061"/>
</g>
<!-- Node11 -->
<g id="node12" class="node">
<title>Node11</title>
<polygon fill="#ffffff" stroke="#bfbfbf" points="716.5,-71.5 716.5,-92.5 816.5,-92.5 816.5,-71.5 716.5,-71.5"/>
<text text-anchor="middle" x="766.5" y="-78.9" font-family="Helvetica,sans-Serif" font-size="12.00" fill="#000000">gsl/gsl_matrix.h</text>
</g>
<!-- Node3&#45;&gt;Node11 -->
<g id="edge11" class="edge">
<title>Node3&#45;&gt;Node11</title>
<path fill="none" stroke="#191970" d="M630.5613,-129.4966C657.5067,-120.082 697.2275,-106.2036 726.7822,-95.8773"/>
<polygon fill="#191970" stroke="#191970" points="728.0964,-99.1257 736.3823,-92.5231 725.7874,-92.5174 728.0964,-99.1257"/>
</g>
<!-- Node12 -->
<g id="node13" class="node">
<title>Node12</title>
<polygon fill="#ffffff" stroke="#bfbfbf" points="835,-71.5 835,-92.5 932,-92.5 932,-71.5 835,-71.5"/>
<text text-anchor="middle" x="883.5" y="-78.9" font-family="Helvetica,sans-Serif" font-size="12.00" fill="#000000">gsl/gsl_linalg.h</text>
</g>
<!-- Node3&#45;&gt;Node12 -->
<g id="edge12" class="edge">
<title>Node3&#45;&gt;Node12</title>
<path fill="none" stroke="#191970" d="M651.7492,-129.4966C700.5793,-119.489 774.0193,-104.4377 825.0926,-93.9704"/>
<polygon fill="#191970" stroke="#191970" points="825.9015,-97.3775 834.9951,-91.9409 824.496,-90.52 825.9015,-97.3775"/>
</g>
<!-- Node13 -->
<g id="node14" class="node">
<title>Node13</title>
<polygon fill="#ffffff" stroke="#bfbfbf" points="950.5,-71.5 950.5,-92.5 1040.5,-92.5 1040.5,-71.5 950.5,-71.5"/>
<text text-anchor="middle" x="995.5" y="-78.9" font-family="Helvetica,sans-Serif" font-size="12.00" fill="#000000">gsl/gsl_blas.h</text>
</g>
<!-- Node3&#45;&gt;Node13 -->
<g id="edge13" class="edge">
<title>Node3&#45;&gt;Node13</title>
<path fill="none" stroke="#191970" d="M657.2088,-133.218C722.7869,-125.1386 834.2008,-110.6861 940.2994,-92.9506"/>
<polygon fill="#191970" stroke="#191970" points="940.9392,-96.3922 950.219,-91.2801 939.7766,-89.4894 940.9392,-96.3922"/>
</g>
<!-- Node14 -->
<g id="node15" class="node">
<title>Node14</title>
<polygon fill="#ffffff" stroke="#bfbfbf" points="1058.5,-71.5 1058.5,-92.5 1148.5,-92.5 1148.5,-71.5 1058.5,-71.5"/>
<text text-anchor="middle" x="1103.5" y="-78.9" font-family="Helvetica,sans-Serif" font-size="12.00" fill="#000000">gsl/gsl_poly.h</text>
</g>
<!-- Node3&#45;&gt;Node14 -->
<g id="edge14" class="edge">
<title>Node3&#45;&gt;Node14</title>
<path fill="none" stroke="#191970" d="M657.0755,-135.8428C740.5146,-129.3225 901.6469,-115.2485 1048.3862,-93.053"/>
<polygon fill="#191970" stroke="#191970" points="1049.1211,-96.4814 1058.4772,-91.5102 1048.0631,-89.5618 1049.1211,-96.4814"/>
</g>
<!-- Node3&#45;&gt;Node15 -->
<g id="edge15" class="edge">
<title>Node3&#45;&gt;Node15</title>
<path fill="none" stroke="#191970" d="M657.201,-138.6048C817.1659,-134.3923 1270.7655,-120.4749 1438.8174,-92.9068"/>
<polygon fill="#191970" stroke="#191970" points="1439.4909,-96.3425 1448.7541,-91.2002 1438.3059,-89.4435 1439.4909,-96.3425"/>
</g>
<!-- Node16 -->
<g id="node17" class="node">
<title>Node16</title>
<g id="a_node17"><a xlink:href="Error_8h.html" target="_top" xlink:title="Defines the exception hierarchy used by this code. ">
<polygon fill="#ffffff" stroke="#000000" points="149,-71.5 149,-92.5 202,-92.5 202,-71.5 149,-71.5"/>
<text text-anchor="middle" x="175.5" y="-78.9" font-family="Helvetica,sans-Serif" font-size="12.00" fill="#000000">Error.h</text>
</a>
</g>
</g>
<!-- Node3&#45;&gt;Node16 -->
<g id="edge17" class="edge">
<title>Node3&#45;&gt;Node16</title>
<path fill="none" stroke="#191970" d="M543.9453,-136.3075C469.7862,-130.7723 335.6136,-118.3758 212.1087,-92.8061"/>
<polygon fill="#191970" stroke="#191970" points="212.606,-89.3341 202.0996,-90.6996 211.1644,-96.1841 212.606,-89.3341"/>
</g>
<!-- Node19 -->
<g id="node20" class="node">
<title>Node19</title>
<g id="a_node20"><a xlink:href="AstronomicalConstants_8h.html" target="_top" xlink:title="Defines various astronomical constants. ">
<polygon fill="#ffffff" stroke="#000000" points="1166.5,-71.5 1166.5,-92.5 1316.5,-92.5 1316.5,-71.5 1166.5,-71.5"/>
<text text-anchor="middle" x="1241.5" y="-78.9" font-family="Helvetica,sans-Serif" font-size="12.00" fill="#000000">AstronomicalConstants.h</text>
</a>
</g>
</g>
<!-- Node3&#45;&gt;Node19 -->
<g id="edge22" class="edge">
<title>Node3&#45;&gt;Node19</title>
<path fill="none" stroke="#191970" d="M657.1139,-136.088C756.1023,-129.0584 967.3027,-113.2194 1156.2922,-93.0912"/>
<polygon fill="#191970" stroke="#191970" points="1156.8444,-96.5522 1166.4146,-92.0067 1156.0987,-89.592 1156.8444,-96.5522"/>
</g>
<!-- Node20 -->
<g id="node21" class="node">
<title>Node20</title>
<g id="a_node21"><a xlink:href="IncludeEigen_8h_source.html" target="_top" xlink:title="IncludeEigen.h">
<polygon fill="#ffffff" stroke="#000000" points="1334,-71.5 1334,-92.5 1431,-92.5 1431,-71.5 1334,-71.5"/>
<text text-anchor="middle" x="1382.5" y="-78.9" font-family="Helvetica,sans-Serif" font-size="12.00" fill="#000000">IncludeEigen.h</text>
</a>
</g>
</g>
<!-- Node3&#45;&gt;Node20 -->
<g id="edge23" class="edge">
<title>Node3&#45;&gt;Node20</title>
<path fill="none" stroke="#191970" d="M657.136,-138.7529C777.944,-135.5687 1069.9583,-125.0839 1323.6027,-93.1195"/>
<polygon fill="#191970" stroke="#191970" points="1324.2702,-96.5629 1333.7476,-91.8269 1323.3853,-89.619 1324.2702,-96.5629"/>
</g>
<!-- Node16&#45;&gt;Node2 -->
<g id="edge18" class="edge">
<title>Node16&#45;&gt;Node2</title>
<path fill="none" stroke="#191970" d="M160.1429,-71.3491C148.1537,-63.034 131.0524,-51.1734 115.9497,-40.699"/>
<polygon fill="#191970" stroke="#191970" points="117.5539,-37.5522 107.3421,-34.7292 113.5646,-43.3042 117.5539,-37.5522"/>
</g>
<!-- Node16&#45;&gt;Node8 -->
<g id="edge19" class="edge">
<title>Node16&#45;&gt;Node8</title>
<path fill="none" stroke="#191970" d="M202.1862,-73.6575C205.3182,-72.7343 208.4747,-71.8293 211.5,-71 273.5743,-53.9842 346.2472,-36.8477 390.5641,-26.7066"/>
<polygon fill="#191970" stroke="#191970" points="391.4139,-30.1028 400.3857,-24.4675 389.8579,-23.2779 391.4139,-30.1028"/>
</g>
<!-- Node17 -->
<g id="node18" class="node">
<title>Node17</title>
<polygon fill="#ffffff" stroke="#bfbfbf" points="183.5,-7 183.5,-28 251.5,-28 251.5,-7 183.5,-7"/>
<text text-anchor="middle" x="217.5" y="-14.4" font-family="Helvetica,sans-Serif" font-size="12.00" fill="#000000">exception</text>
</g>
<!-- Node16&#45;&gt;Node17 -->
<g id="edge20" class="edge">
<title>Node16&#45;&gt;Node17</title>
<path fill="none" stroke="#191970" d="M182.4354,-71.3491C188.5391,-61.9757 197.5765,-48.0969 204.9475,-36.777"/>
<polygon fill="#191970" stroke="#191970" points="207.8901,-38.6721 210.4139,-28.3823 202.0241,-34.8524 207.8901,-38.6721"/>
</g>
<!-- Node18 -->
<g id="node19" class="node">
<title>Node18</title>
<polygon fill="#ffffff" stroke="#bfbfbf" points="269.5,-7 269.5,-28 315.5,-28 315.5,-7 269.5,-7"/>
<text text-anchor="middle" x="292.5" y="-14.4" font-family="Helvetica,sans-Serif" font-size="12.00" fill="#000000">string</text>
</g>
<!-- Node16&#45;&gt;Node18 -->
<g id="edge21" class="edge">
<title>Node16&#45;&gt;Node18</title>
<path fill="none" stroke="#191970" d="M194.5585,-71.4934C213.5107,-61.0454 242.801,-44.8982 264.4163,-32.9821"/>
<polygon fill="#191970" stroke="#191970" points="266.382,-35.895 273.4497,-28.0021 263.0025,-29.7649 266.382,-35.895"/>
</g>
<!-- Node21 -->
<g id="node22" class="node">
<title>Node21</title>
<polygon fill="#ffffff" stroke="#bfbfbf" points="1339.5,-7 1339.5,-28 1425.5,-28 1425.5,-7 1339.5,-7"/>
<text text-anchor="middle" x="1382.5" y="-14.4" font-family="Helvetica,sans-Serif" font-size="12.00" fill="#000000">Eigen/Dense</text>
</g>
<!-- Node20&#45;&gt;Node21 -->
<g id="edge24" class="edge">
<title>Node20&#45;&gt;Node21</title>
<path fill="none" stroke="#191970" d="M1382.5,-71.3491C1382.5,-62.4397 1382.5,-49.4599 1382.5,-38.4761"/>
<polygon fill="#191970" stroke="#191970" points="1386.0001,-38.3822 1382.5,-28.3823 1379.0001,-38.3823 1386.0001,-38.3822"/>
</g>
</g>
</svg>
        <g id="navigator" transform="translate(0 0)" fill="#404254">
                <rect fill="#f2f5e9" fill-opacity="0.5" stroke="#606060" stroke-width=".5" x="0" y="0" width="60" height="60"/>
                <use id="zoomplus" xlink:href="#zoomPlus" x="17" y="9" onmousedown="handleZoom(evt,'in')"/>
                <use id="zoomminus" xlink:href="#zoomMin" x="42" y="9" onmousedown="handleZoom(evt,'out')"/>
                <use id="reset" xlink:href="#resetDef" x="30" y="36" onmousedown="handleReset()"/>
                <g id="arrowUp" xlink:href="#dirArrow" transform="translate(30 24)" onmousedown="handlePan(0,-1)">
                  <use xlink:href="#rim" fill="#404040">
                        <set attributeName="fill" to="#808080" begin="arrowUp.mouseover" end="arrowUp.mouseout"/>
                  </use>
                  <path fill="none" stroke="white" stroke-width="1.5" d="M0,-3.0v7 M-2.5,-0.5L0,-3.0L2.5,-0.5"/>
                </g>
                <g id="arrowRight" xlink:href="#dirArrow" transform="rotate(90) translate(36 -43)" onmousedown="handlePan(1,0)">
                  <use xlink:href="#rim" fill="#404040">
                        <set attributeName="fill" to="#808080" begin="arrowRight.mouseover" end="arrowRight.mouseout"/>
                  </use>
                  <path fill="none" stroke="white" stroke-width="1.5" d="M0,-3.0v7 M-2.5,-0.5L0,-3.0L2.5,-0.5"/>
                </g>
                <g id="arrowDown" xlink:href="#dirArrow" transform="rotate(180) translate(-30 -48)" onmousedown="handlePan(0,1)">
                  <use xlink:href="#rim" fill="#404040">
                        <set attributeName="fill" to="#808080" begin="arrowDown.mouseover" end="arrowDown.mouseout"/>
                  </use>
                  <path fill="none" stroke="white" stroke-width="1.5" d="M0,-3.0v7 M-2.5,-0.5L0,-3.0L2.5,-0.5"/>
                </g>
                <g id="arrowLeft" xlink:href="#dirArrow" transform="rotate(270) translate(-36 17)" onmousedown="handlePan(-1,0)">
                  <use xlink:href="#rim" fill="#404040">
                        <set attributeName="fill" to="#808080" begin="arrowLeft.mouseover" end="arrowLeft.mouseout"/>
                  </use>
                  <path fill="none" stroke="white" stroke-width="1.5" d="M0,-3.0v7 M-2.5,-0.5L0,-3.0L2.5,-0.5"/>
                </g>
        </g>
        <svg viewBox="0 0 15 15" width="100%" height="30px" preserveAspectRatio="xMaxYMin meet">
         <g id="arrow_out" transform="scale(0.3 0.3)">
          <a xlink:href="StoppingCondition_8cpp__incl_org.svg" target="_base">
           <rect id="button" ry="5" rx="5" y="6" x="6" height="38" width="38"
                fill="#f2f5e9" fill-opacity="0.5" stroke="#606060" stroke-width="1.0"/>
           <path id="arrow"
             d="M 11.500037,31.436501 C 11.940474,20.09759 22.043105,11.32322 32.158766,21.979434 L 37.068811,17.246167 C 37.068811,17.246167 37.088388,32 37.088388,32 L 22.160133,31.978069 C 22.160133,31.978069 26.997745,27.140456 26.997745,27.140456 C 18.528582,18.264221 13.291696,25.230495 11.500037,31.436501 z"
             style="fill:#404040;"/>
          </a>
         </g>
        </svg>
</svg>
