<?xml version="1.0" encoding="UTF-8" standalone="no"?>
<!DOCTYPE svg PUBLIC "-//W3C//DTD SVG 1.1//EN"
 "http://www.w3.org/Graphics/SVG/1.1/DTD/svg11.dtd">
<!-- Generated by graphviz version 2.40.1 (20161225.0304)
 -->
<!-- Title: /Users/kpenev/projects/git/poet/poet_src/Evolve/StopHistoryInterval.cpp Pages: 1 -->
<!--zoomable 236 -->
<svg id="main" version="1.1" xmlns="http://www.w3.org/2000/svg" xmlns:xlink="http://www.w3.org/1999/xlink" xml:space="preserve" onload="init(evt)">
<style type="text/css"><![CDATA[
.edge:hover path { stroke: red; }
.edge:hover polygon { stroke: red; fill: red; }
]]></style>
<script type="text/javascript"><![CDATA[
var edges = document.getElementsByTagName('g');
if (edges && edges.length) {
  for (var i=0;i<edges.length;i++) {
    if (edges[i].id.substr(0,4)=='edge') {
      edges[i].setAttribute('class','edge');
    }
  }
}
]]></script>
        <defs>
                <circle id="rim" cx="0" cy="0" r="7"/>
                <circle id="rim2" cx="0" cy="0" r="3.5"/>
                <g id="zoomPlus">
                        <use xlink:href="#rim" fill="#404040">
                                <set attributeName="fill" to="#808080" begin="zoomplus.mouseover" end="zoomplus.mouseout"/>
                        </use>
                        <path d="M-4,0h8M0,-4v8" fill="none" stroke="white" stroke-width="1.5" pointer-events="none"/>
                </g>
                <g id="zoomMin">
                        <use xlink:href="#rim" fill="#404040">
                                <set attributeName="fill" to="#808080" begin="zoomminus.mouseover" end="zoomminus.mouseout"/>
                        </use>
                        <path d="M-4,0h8" fill="none" stroke="white" stroke-width="1.5" pointer-events="none"/>
                </g>
                <g id="dirArrow">
                        <path fill="none" stroke="white" stroke-width="1.5" d="M0,-3.0v7 M-2.5,-0.5L0,-3.0L2.5,-0.5"/>
                </g>
               <g id="resetDef">
                       <use xlink:href="#rim2" fill="#404040">
                               <set attributeName="fill" to="#808080" begin="reset.mouseover" end="reset.mouseout"/>
                       </use>
               </g>
        </defs>

<script type="text/javascript">
var viewWidth = 620;
var viewHeight = 236;
var sectionId = 'dynsection-0';
</script>
<script xlink:href="svgpan.js"/>
<svg id="graph" class="graph">
<g id="viewport">
<title>/Users/kpenev/projects/git/poet/poet_src/Evolve/StopHistoryInterval.cpp</title>
<polygon fill="#ffffff" stroke="transparent" points="-4,4 -4,-232 615.7129,-232 615.7129,4 -4,4"/>
<!-- Node0 -->
<g id="node1" class="node">
<title>Node0</title>
<polygon fill="#bfbfbf" stroke="#000000" points="296.9971,-183.5 296.9971,-227.5 444.4053,-227.5 444.4053,-183.5 296.9971,-183.5"/>
<text text-anchor="start" x="304.9971" y="-213.9" font-family="Helvetica,sans-Serif" font-size="12.00" fill="#000000">/Users/kpenev/projects</text>
<text text-anchor="start" x="304.9971" y="-201.9" font-family="Helvetica,sans-Serif" font-size="12.00" fill="#000000">/git/poet/poet_src/Evolve</text>
<text text-anchor="middle" x="370.7012" y="-189.9" font-family="Helvetica,sans-Serif" font-size="12.00" fill="#000000">/StopHistoryInterval.cpp</text>
</g>
<!-- Node1 -->
<g id="node2" class="node">
<title>Node1</title>
<g id="a_node2"><a xlink:href="StopHistoryInterval_8h.html" target="_top" xlink:title="Declares the StopHistoryInterval class. ">
<polygon fill="#ffffff" stroke="#000000" points="307.0107,-126.5 307.0107,-146.5 434.3916,-146.5 434.3916,-126.5 307.0107,-126.5"/>
<text text-anchor="middle" x="370.7012" y="-132.9" font-family="Helvetica,sans-Serif" font-size="12.00" fill="#000000">StopHistoryInterval.h</text>
</a>
</g>
</g>
<!-- Node0&#45;&gt;Node1 -->
<g id="edge1" class="edge">
<title>Node0&#45;&gt;Node1</title>
<path fill="none" stroke="#191970" d="M370.7012,-183.2882C370.7012,-174.8377 370.7012,-165.2557 370.7012,-156.9736"/>
<polygon fill="#191970" stroke="#191970" points="374.2013,-156.7136 370.7012,-146.7137 367.2013,-156.7137 374.2013,-156.7136"/>
</g>
<!-- Node2 -->
<g id="node3" class="node">
<title>Node2</title>
<g id="a_node3"><a xlink:href="SharedLibraryExportMacros_8h_source.html" target="_top" xlink:title="../Core/SharedLibraryExport\lMacros.h">
<polygon fill="#ffffff" stroke="#000000" points="0,-.5 0,-32.5 165.4023,-32.5 165.4023,-.5 0,-.5"/>
<text text-anchor="start" x="8" y="-18.9" font-family="Helvetica,sans-Serif" font-size="12.00" fill="#000000">../Core/SharedLibraryExport</text>
<text text-anchor="middle" x="82.7012" y="-6.9" font-family="Helvetica,sans-Serif" font-size="12.00" fill="#000000">Macros.h</text>
</a>
</g>
</g>
<!-- Node1&#45;&gt;Node2 -->
<g id="edge2" class="edge">
<title>Node1&#45;&gt;Node2</title>
<path fill="none" stroke="#191970" d="M306.6588,-131.4835C263.1317,-125.9513 205.3867,-114.3405 159.7012,-90 136.923,-77.8642 116.0817,-57.0953 101.8429,-40.7243"/>
<polygon fill="#191970" stroke="#191970" points="104.1443,-38.024 95.0235,-32.6332 98.7919,-42.5352 104.1443,-38.024"/>
</g>
<!-- Node3 -->
<g id="node4" class="node">
<title>Node3</title>
<g id="a_node4"><a xlink:href="Error_8h.html" target="_top" xlink:title="Defines the exception hierarchy used by this code. ">
<polygon fill="#ffffff" stroke="#000000" points="169.0195,-69.5 169.0195,-89.5 260.3828,-89.5 260.3828,-69.5 169.0195,-69.5"/>
<text text-anchor="middle" x="214.7012" y="-75.9" font-family="Helvetica,sans-Serif" font-size="12.00" fill="#000000">../Core/Error.h</text>
</a>
</g>
</g>
<!-- Node1&#45;&gt;Node3 -->
<g id="edge3" class="edge">
<title>Node1&#45;&gt;Node3</title>
<path fill="none" stroke="#191970" d="M343.1706,-126.4408C317.7412,-117.1492 279.7696,-103.275 251.698,-93.0181"/>
<polygon fill="#191970" stroke="#191970" points="252.8123,-89.699 242.2184,-89.5544 250.4099,-96.2738 252.8123,-89.699"/>
</g>
<!-- Node7 -->
<g id="node8" class="node">
<title>Node7</title>
<polygon fill="#ffffff" stroke="#bfbfbf" points="278.3613,-69.5 278.3613,-89.5 337.041,-89.5 337.041,-69.5 278.3613,-69.5"/>
<text text-anchor="middle" x="307.7012" y="-75.9" font-family="Helvetica,sans-Serif" font-size="12.00" fill="#000000">valarray</text>
</g>
<!-- Node1&#45;&gt;Node7 -->
<g id="edge8" class="edge">
<title>Node1&#45;&gt;Node7</title>
<path fill="none" stroke="#191970" d="M359.438,-126.3095C350.3001,-118.0419 337.222,-106.2093 326.5012,-96.5096"/>
<polygon fill="#191970" stroke="#191970" points="328.6304,-93.716 318.8668,-89.6022 323.934,-98.9068 328.6304,-93.716"/>
</g>
<!-- Node8 -->
<g id="node9" class="node">
<title>Node8</title>
<polygon fill="#ffffff" stroke="#bfbfbf" points="355.3682,-69.5 355.3682,-89.5 386.0342,-89.5 386.0342,-69.5 355.3682,-69.5"/>
<text text-anchor="middle" x="370.7012" y="-75.9" font-family="Helvetica,sans-Serif" font-size="12.00" fill="#000000">list</text>
</g>
<!-- Node1&#45;&gt;Node8 -->
<g id="edge9" class="edge">
<title>Node1&#45;&gt;Node8</title>
<path fill="none" stroke="#191970" d="M370.7012,-126.3095C370.7012,-118.9335 370.7012,-108.72 370.7012,-99.715"/>
<polygon fill="#191970" stroke="#191970" points="374.2013,-99.6022 370.7012,-89.6022 367.2013,-99.6023 374.2013,-99.6022"/>
</g>
<!-- Node9 -->
<g id="node10" class="node">
<title>Node9</title>
<polygon fill="#ffffff" stroke="#bfbfbf" points="404.0273,-69.5 404.0273,-89.5 463.375,-89.5 463.375,-69.5 404.0273,-69.5"/>
<text text-anchor="middle" x="433.7012" y="-75.9" font-family="Helvetica,sans-Serif" font-size="12.00" fill="#000000">ostream</text>
</g>
<!-- Node1&#45;&gt;Node9 -->
<g id="edge10" class="edge">
<title>Node1&#45;&gt;Node9</title>
<path fill="none" stroke="#191970" d="M381.9643,-126.3095C391.1022,-118.0419 404.1804,-106.2093 414.9011,-96.5096"/>
<polygon fill="#191970" stroke="#191970" points="417.4684,-98.9068 422.5355,-89.6022 412.772,-93.716 417.4684,-98.9068"/>
</g>
<!-- Node10 -->
<g id="node11" class="node">
<title>Node10</title>
<polygon fill="#ffffff" stroke="#bfbfbf" points="481.3623,-69.5 481.3623,-89.5 536.04,-89.5 536.04,-69.5 481.3623,-69.5"/>
<text text-anchor="middle" x="508.7012" y="-75.9" font-family="Helvetica,sans-Serif" font-size="12.00" fill="#000000">cassert</text>
</g>
<!-- Node1&#45;&gt;Node10 -->
<g id="edge11" class="edge">
<title>Node1&#45;&gt;Node10</title>
<path fill="none" stroke="#191970" d="M395.0551,-126.4408C417.1874,-117.2992 450.0595,-103.7216 474.7643,-93.5174"/>
<polygon fill="#191970" stroke="#191970" points="476.22,-96.703 484.1265,-89.6504 473.5477,-90.2332 476.22,-96.703"/>
</g>
<!-- Node11 -->
<g id="node12" class="node">
<title>Node11</title>
<polygon fill="#ffffff" stroke="#bfbfbf" points="553.6895,-69.5 553.6895,-89.5 611.7129,-89.5 611.7129,-69.5 553.6895,-69.5"/>
<text text-anchor="middle" x="582.7012" y="-75.9" font-family="Helvetica,sans-Serif" font-size="12.00" fill="#000000">iomanip</text>
</g>
<!-- Node1&#45;&gt;Node11 -->
<g id="edge12" class="edge">
<title>Node1&#45;&gt;Node11</title>
<path fill="none" stroke="#191970" d="M408.7423,-126.4328C441.9435,-117.6244 491.6766,-104.377 543.8876,-90.2069"/>
<polygon fill="#191970" stroke="#191970" points="544.9296,-93.5508 553.662,-87.5511 543.0941,-86.7957 544.9296,-93.5508"/>
</g>
<!-- Node3&#45;&gt;Node2 -->
<g id="edge4" class="edge">
<title>Node3&#45;&gt;Node2</title>
<path fill="none" stroke="#191970" d="M193.4931,-69.378C175.2381,-60.6654 148.3269,-47.8214 125.5987,-36.9738"/>
<polygon fill="#191970" stroke="#191970" points="127.0086,-33.7686 116.4762,-32.6199 123.9935,-40.0859 127.0086,-33.7686"/>
</g>
<!-- Node4 -->
<g id="node5" class="node">
<title>Node4</title>
<polygon fill="#ffffff" stroke="#bfbfbf" points="183.6943,-6.5 183.6943,-26.5 245.708,-26.5 245.708,-6.5 183.6943,-6.5"/>
<text text-anchor="middle" x="214.7012" y="-12.9" font-family="Helvetica,sans-Serif" font-size="12.00" fill="#000000">iostream</text>
</g>
<!-- Node3&#45;&gt;Node4 -->
<g id="edge5" class="edge">
<title>Node3&#45;&gt;Node4</title>
<path fill="none" stroke="#191970" d="M214.7012,-69.378C214.7012,-60.7041 214.7012,-47.9355 214.7012,-37.1186"/>
<polygon fill="#191970" stroke="#191970" points="218.2013,-36.8062 214.7012,-26.8062 211.2013,-36.8062 218.2013,-36.8062"/>
</g>
<!-- Node5 -->
<g id="node6" class="node">
<title>Node5</title>
<polygon fill="#ffffff" stroke="#bfbfbf" points="264.0166,-6.5 264.0166,-26.5 331.3857,-26.5 331.3857,-6.5 264.0166,-6.5"/>
<text text-anchor="middle" x="297.7012" y="-12.9" font-family="Helvetica,sans-Serif" font-size="12.00" fill="#000000">exception</text>
</g>
<!-- Node3&#45;&gt;Node5 -->
<g id="edge6" class="edge">
<title>Node3&#45;&gt;Node5</title>
<path fill="none" stroke="#191970" d="M228.0366,-69.378C240.9841,-59.5503 260.857,-44.4661 276.0687,-32.9198"/>
<polygon fill="#191970" stroke="#191970" points="278.5496,-35.4308 284.3989,-26.5969 274.3174,-29.8551 278.5496,-35.4308"/>
</g>
<!-- Node6 -->
<g id="node7" class="node">
<title>Node6</title>
<polygon fill="#ffffff" stroke="#bfbfbf" points="349.0293,-6.5 349.0293,-26.5 394.373,-26.5 394.373,-6.5 349.0293,-6.5"/>
<text text-anchor="middle" x="371.7012" y="-12.9" font-family="Helvetica,sans-Serif" font-size="12.00" fill="#000000">string</text>
</g>
<!-- Node3&#45;&gt;Node6 -->
<g id="edge7" class="edge">
<title>Node3&#45;&gt;Node6</title>
<path fill="none" stroke="#191970" d="M245.4612,-69.4549C271.2631,-60.7201 308.8907,-47.2565 340.7012,-33 342.0573,-32.3922 343.4362,-31.7506 344.8213,-31.0871"/>
<polygon fill="#191970" stroke="#191970" points="346.5249,-34.1478 353.8752,-26.5173 343.3708,-27.8987 346.5249,-34.1478"/>
</g>
</g>
</svg>
        <g id="navigator" transform="translate(0 0)" fill="#404254">
                <rect fill="#f2f5e9" fill-opacity="0.5" stroke="#606060" stroke-width=".5" x="0" y="0" width="60" height="60"/>
                <use id="zoomplus" xlink:href="#zoomPlus" x="17" y="9" onmousedown="handleZoom(evt,'in')"/>
                <use id="zoomminus" xlink:href="#zoomMin" x="42" y="9" onmousedown="handleZoom(evt,'out')"/>
                <use id="reset" xlink:href="#resetDef" x="30" y="36" onmousedown="handleReset()"/>
                <g id="arrowUp" xlink:href="#dirArrow" transform="translate(30 24)" onmousedown="handlePan(0,-1)">
                  <use xlink:href="#rim" fill="#404040">
                        <set attributeName="fill" to="#808080" begin="arrowUp.mouseover" end="arrowUp.mouseout"/>
                  </use>
                  <path fill="none" stroke="white" stroke-width="1.5" d="M0,-3.0v7 M-2.5,-0.5L0,-3.0L2.5,-0.5"/>
                </g>
                <g id="arrowRight" xlink:href="#dirArrow" transform="rotate(90) translate(36 -43)" onmousedown="handlePan(1,0)">
                  <use xlink:href="#rim" fill="#404040">
                        <set attributeName="fill" to="#808080" begin="arrowRight.mouseover" end="arrowRight.mouseout"/>
                  </use>
                  <path fill="none" stroke="white" stroke-width="1.5" d="M0,-3.0v7 M-2.5,-0.5L0,-3.0L2.5,-0.5"/>
                </g>
                <g id="arrowDown" xlink:href="#dirArrow" transform="rotate(180) translate(-30 -48)" onmousedown="handlePan(0,1)">
                  <use xlink:href="#rim" fill="#404040">
                        <set attributeName="fill" to="#808080" begin="arrowDown.mouseover" end="arrowDown.mouseout"/>
                  </use>
                  <path fill="none" stroke="white" stroke-width="1.5" d="M0,-3.0v7 M-2.5,-0.5L0,-3.0L2.5,-0.5"/>
                </g>
                <g id="arrowLeft" xlink:href="#dirArrow" transform="rotate(270) translate(-36 17)" onmousedown="handlePan(-1,0)">
                  <use xlink:href="#rim" fill="#404040">
                        <set attributeName="fill" to="#808080" begin="arrowLeft.mouseover" end="arrowLeft.mouseout"/>
                  </use>
                  <path fill="none" stroke="white" stroke-width="1.5" d="M0,-3.0v7 M-2.5,-0.5L0,-3.0L2.5,-0.5"/>
                </g>
        </g>
        <svg viewBox="0 0 15 15" width="100%" height="30px" preserveAspectRatio="xMaxYMin meet">
         <g id="arrow_out" transform="scale(0.3 0.3)">
          <a xlink:href="StopHistoryInterval_8cpp__incl_org.svg" target="_base">
           <rect id="button" ry="5" rx="5" y="6" x="6" height="38" width="38"
                fill="#f2f5e9" fill-opacity="0.5" stroke="#606060" stroke-width="1.0"/>
           <path id="arrow"
             d="M 11.500037,31.436501 C 11.940474,20.09759 22.043105,11.32322 32.158766,21.979434 L 37.068811,17.246167 C 37.068811,17.246167 37.088388,32 37.088388,32 L 22.160133,31.978069 C 22.160133,31.978069 26.997745,27.140456 26.997745,27.140456 C 18.528582,18.264221 13.291696,25.230495 11.500037,31.436501 z"
             style="fill:#404040;"/>
          </a>
         </g>
        </svg>
</svg>
