<?xml version="1.0" encoding="UTF-8" standalone="no"?>
<!DOCTYPE svg PUBLIC "-//W3C//DTD SVG 1.1//EN"
 "http://www.w3.org/Graphics/SVG/1.1/DTD/svg11.dtd">
<!-- Generated by graphviz version 2.40.1 (20161225.0304)
 -->
<!-- Title: /home/kpenev/projects/git/poet/poet_src/unit_tests/testEvolve/testGravitationalPotential.cpp Pages: 1 -->
<svg width="2536pt" height="456pt"
 viewBox="0.00 0.00 2536.00 456.00" xmlns="http://www.w3.org/2000/svg" xmlns:xlink="http://www.w3.org/1999/xlink">
<g id="graph0" class="graph" transform="scale(1 1) rotate(0) translate(4 452)">
<title>/home/kpenev/projects/git/poet/poet_src/unit_tests/testEvolve/testGravitationalPotential.cpp</title>
<polygon fill="#ffffff" stroke="transparent" points="-4,4 -4,-452 2532,-452 2532,4 -4,4"/>
<!-- Node0 -->
<g id="node1" class="node">
<title>Node0</title>
<polygon fill="#bfbfbf" stroke="#000000" points="917.5,-387.5 917.5,-447.5 1113.5,-447.5 1113.5,-387.5 917.5,-387.5"/>
<text text-anchor="start" x="925.5" y="-433.9" font-family="Helvetica,sans-Serif" font-size="12.00" fill="#000000">/home/kpenev/projects</text>
<text text-anchor="start" x="925.5" y="-420.9" font-family="Helvetica,sans-Serif" font-size="12.00" fill="#000000">/git/poet/poet_src/unit</text>
<text text-anchor="start" x="925.5" y="-407.9" font-family="Helvetica,sans-Serif" font-size="12.00" fill="#000000">_tests/testEvolve/testGravitational</text>
<text text-anchor="middle" x="1015.5" y="-394.9" font-family="Helvetica,sans-Serif" font-size="12.00" fill="#000000">Potential.cpp</text>
</g>
<!-- Node1 -->
<g id="node2" class="node">
<title>Node1</title>
<g id="a_node2"><a xlink:href="testGravitationalPotential_8h.html" target="_top" xlink:title="Unit tests that check the expansion of the gravitational potential vs. analytic expressions. ">
<polygon fill="#ffffff" stroke="#000000" points="935.5,-329.5 935.5,-350.5 1095.5,-350.5 1095.5,-329.5 935.5,-329.5"/>
<text text-anchor="middle" x="1015.5" y="-336.9" font-family="Helvetica,sans-Serif" font-size="12.00" fill="#000000">testGravitationalPotential.h</text>
</a>
</g>
</g>
<!-- Node0&#45;&gt;Node1 -->
<g id="edge1" class="edge">
<title>Node0&#45;&gt;Node1</title>
<path fill="none" stroke="#191970" d="M1015.5,-387.3146C1015.5,-378.4318 1015.5,-368.9169 1015.5,-360.7662"/>
<polygon fill="#191970" stroke="#191970" points="1019.0001,-360.6845 1015.5,-350.6845 1012.0001,-360.6846 1019.0001,-360.6845"/>
</g>
<!-- Node2 -->
<g id="node3" class="node">
<title>Node2</title>
<g id="a_node3"><a xlink:href="EccentricOrbit_8h.html" target="_top" xlink:title="Declare an interface for working with eccentric orbits. ">
<polygon fill="#ffffff" stroke="#000000" points="965,-200.5 965,-221.5 1066,-221.5 1066,-200.5 965,-200.5"/>
<text text-anchor="middle" x="1015.5" y="-207.9" font-family="Helvetica,sans-Serif" font-size="12.00" fill="#000000">EccentricOrbit.h</text>
</a>
</g>
</g>
<!-- Node1&#45;&gt;Node2 -->
<g id="edge2" class="edge">
<title>Node1&#45;&gt;Node2</title>
<path fill="none" stroke="#191970" d="M1015.5,-329.4434C1015.5,-308.1828 1015.5,-259.8614 1015.5,-231.9518"/>
<polygon fill="#191970" stroke="#191970" points="1019.0001,-231.7024 1015.5,-221.7025 1012.0001,-231.7025 1019.0001,-231.7024"/>
</g>
<!-- Node7 -->
<g id="node8" class="node">
<title>Node7</title>
<polygon fill="#ffffff" stroke="#bfbfbf" points="766,-71.5 766,-92.5 825,-92.5 825,-71.5 766,-71.5"/>
<text text-anchor="middle" x="795.5" y="-78.9" font-family="Helvetica,sans-Serif" font-size="12.00" fill="#000000">sstream</text>
</g>
<!-- Node1&#45;&gt;Node7 -->
<g id="edge63" class="edge">
<title>Node1&#45;&gt;Node7</title>
<path fill="none" stroke="#191970" d="M981.7995,-329.3958C919.1204,-307.6232 786.1243,-251.2962 732.5,-151 721.3239,-130.0968 743.4327,-110.5756 764.4697,-97.6693"/>
<polygon fill="#191970" stroke="#191970" points="766.4104,-100.5902 773.3197,-92.5582 762.9097,-94.5285 766.4104,-100.5902"/>
</g>
<!-- Node8 -->
<g id="node9" class="node">
<title>Node8</title>
<polygon fill="#ffffff" stroke="#bfbfbf" points="1262.5,-7 1262.5,-28 1324.5,-28 1324.5,-7 1262.5,-7"/>
<text text-anchor="middle" x="1293.5" y="-14.4" font-family="Helvetica,sans-Serif" font-size="12.00" fill="#000000">iostream</text>
</g>
<!-- Node1&#45;&gt;Node8 -->
<g id="edge61" class="edge">
<title>Node1&#45;&gt;Node8</title>
<path fill="none" stroke="#191970" d="M935.4423,-332.5207C810.8003,-318.633 584.5,-283.4434 584.5,-211 584.5,-211 584.5,-211 584.5,-140 584.5,-94.7059 618.0319,-89.2194 659.5,-71 713.5934,-47.2335 1120.119,-25.8235 1252.1914,-19.432"/>
<polygon fill="#191970" stroke="#191970" points="1252.4847,-22.9221 1262.3052,-18.946 1252.1487,-15.9301 1252.4847,-22.9221"/>
</g>
<!-- Node25 -->
<g id="node26" class="node">
<title>Node25</title>
<polygon fill="#ffffff" stroke="#bfbfbf" points="2402,-71.5 2402,-92.5 2461,-92.5 2461,-71.5 2402,-71.5"/>
<text text-anchor="middle" x="2431.5" y="-78.9" font-family="Helvetica,sans-Serif" font-size="12.00" fill="#000000">iomanip</text>
</g>
<!-- Node1&#45;&gt;Node25 -->
<g id="edge62" class="edge">
<title>Node1&#45;&gt;Node25</title>
<path fill="none" stroke="#191970" d="M1095.8614,-331.4624C1176.5229,-322.6746 1304.287,-308.1607 1414.5,-293 1816.5403,-237.6961 1935.0396,-289.5021 2316.5,-151 2351.4705,-138.3028 2387.589,-114.5741 2409.798,-98.5318"/>
<polygon fill="#191970" stroke="#191970" points="2411.8899,-101.338 2417.8718,-92.5934 2407.7424,-95.699 2411.8899,-101.338"/>
</g>
<!-- Node26 -->
<g id="node27" class="node">
<title>Node26</title>
<g id="a_node27"><a xlink:href="TidalPotential_8h.html" target="_top" xlink:title="Declare an interface for calculating the tidal potential due to a companion in an eccentric orbit...">
<polygon fill="#ffffff" stroke="#000000" points="1304,-271.5 1304,-292.5 1405,-292.5 1405,-271.5 1304,-271.5"/>
<text text-anchor="middle" x="1354.5" y="-278.9" font-family="Helvetica,sans-Serif" font-size="12.00" fill="#000000">TidalPotential.h</text>
</a>
</g>
</g>
<!-- Node1&#45;&gt;Node26 -->
<g id="edge31" class="edge">
<title>Node1&#45;&gt;Node26</title>
<path fill="none" stroke="#191970" d="M1079.5387,-329.4817C1133.7967,-320.5082 1213.9424,-307.1091 1293.5596,-293.1477"/>
<polygon fill="#191970" stroke="#191970" points="1294.5269,-296.5315 1303.7702,-291.3536 1293.3154,-289.6371 1294.5269,-296.5315"/>
</g>
<!-- Node28 -->
<g id="node29" class="node">
<title>Node28</title>
<g id="a_node29"><a xlink:href="TidalPotentialExpansion_8h.html" target="_top" xlink:title="Declare an interface for evaluating the expansion of the tidal potential. ">
<polygon fill="#ffffff" stroke="#000000" points="1127.5,-271.5 1127.5,-292.5 1285.5,-292.5 1285.5,-271.5 1127.5,-271.5"/>
<text text-anchor="middle" x="1206.5" y="-278.9" font-family="Helvetica,sans-Serif" font-size="12.00" fill="#000000">TidalPotentialExpansion.h</text>
</a>
</g>
</g>
<!-- Node1&#45;&gt;Node28 -->
<g id="edge34" class="edge">
<title>Node1&#45;&gt;Node28</title>
<path fill="none" stroke="#191970" d="M1050.0887,-329.4966C1081.4964,-319.9592 1127.9897,-305.8408 1162.1253,-295.475"/>
<polygon fill="#191970" stroke="#191970" points="1163.2949,-298.7778 1171.8465,-292.5231 1161.2609,-292.0798 1163.2949,-298.7778"/>
</g>
<!-- Node35 -->
<g id="node36" class="node">
<title>Node35</title>
<g id="a_node36"><a xlink:href="unit__tests_2shared_2Common_8h.html" target="_top" xlink:title="Functions and classes of general use for all unit tests. ">
<polygon fill="#ffffff" stroke="#000000" points="428.5,-129.5 428.5,-150.5 552.5,-150.5 552.5,-129.5 428.5,-129.5"/>
<text text-anchor="middle" x="490.5" y="-136.9" font-family="Helvetica,sans-Serif" font-size="12.00" fill="#000000">../shared/Common.h</text>
</a>
</g>
</g>
<!-- Node1&#45;&gt;Node35 -->
<g id="edge53" class="edge">
<title>Node1&#45;&gt;Node35</title>
<path fill="none" stroke="#191970" d="M935.2438,-335.6186C815.2451,-328.4562 599.9316,-313.0111 570.5,-293 524.2005,-261.52 502.8752,-194.5265 494.7283,-160.6016"/>
<polygon fill="#191970" stroke="#191970" points="498.1409,-159.8238 492.5313,-150.8359 491.3115,-161.3603 498.1409,-159.8238"/>
</g>
<!-- Node3 -->
<g id="node4" class="node">
<title>Node3</title>
<g id="a_node4"><a xlink:href="Core_2Common_8h.html" target="_top" xlink:title="Declaration of some general purpose utilities. ">
<polygon fill="#ffffff" stroke="#000000" points="1257.5,-129.5 1257.5,-150.5 1379.5,-150.5 1379.5,-129.5 1257.5,-129.5"/>
<text text-anchor="middle" x="1318.5" y="-136.9" font-family="Helvetica,sans-Serif" font-size="12.00" fill="#000000">../../Core/Common.h</text>
</a>
</g>
</g>
<!-- Node2&#45;&gt;Node3 -->
<g id="edge3" class="edge">
<title>Node2&#45;&gt;Node3</title>
<path fill="none" stroke="#191970" d="M1060.535,-200.4472C1114.6117,-187.7758 1205.2818,-166.5297 1263.4603,-152.8971"/>
<polygon fill="#191970" stroke="#191970" points="1264.2801,-156.2999 1273.2178,-150.6107 1262.683,-149.4845 1264.2801,-156.2999"/>
</g>
<!-- Node2&#45;&gt;Node8 -->
<g id="edge29" class="edge">
<title>Node2&#45;&gt;Node8</title>
<path fill="none" stroke="#191970" d="M1016.5487,-200.3032C1017.6339,-182.5566 1016.8979,-147.1846 996.5,-129 889.5885,-33.6894 582.7182,-176.5815 679.5,-71 698.881,-49.8568 1116.6271,-26.5954 1251.7447,-19.6003"/>
<polygon fill="#191970" stroke="#191970" points="1252.2799,-23.0775 1262.0868,-19.0681 1251.9201,-16.0867 1252.2799,-23.0775"/>
</g>
<!-- Node20 -->
<g id="node21" class="node">
<title>Node20</title>
<g id="a_node21"><a xlink:href="AstronomicalConstants_8h.html" target="_top" xlink:title="Defines various astronomical constants. ">
<polygon fill="#ffffff" stroke="#000000" points="842.5,-71.5 842.5,-92.5 992.5,-92.5 992.5,-71.5 842.5,-71.5"/>
<text text-anchor="middle" x="917.5" y="-78.9" font-family="Helvetica,sans-Serif" font-size="12.00" fill="#000000">AstronomicalConstants.h</text>
</a>
</g>
</g>
<!-- Node2&#45;&gt;Node20 -->
<g id="edge25" class="edge">
<title>Node2&#45;&gt;Node20</title>
<path fill="none" stroke="#191970" d="M964.8857,-202.1753C935.4359,-194.1618 900.6422,-179.0874 882.5,-151 871.8003,-134.435 884.8839,-114.1764 897.991,-99.9087"/>
<polygon fill="#191970" stroke="#191970" points="900.6048,-102.2426 905.1242,-92.6601 895.6154,-97.3327 900.6048,-102.2426"/>
</g>
<!-- Node22 -->
<g id="node23" class="node">
<title>Node22</title>
<polygon fill="#ffffff" stroke="#bfbfbf" points="801.5,-7 801.5,-28 887.5,-28 887.5,-7 801.5,-7"/>
<text text-anchor="middle" x="844.5" y="-14.4" font-family="Helvetica,sans-Serif" font-size="12.00" fill="#000000">Eigen/Dense</text>
</g>
<!-- Node2&#45;&gt;Node22 -->
<g id="edge26" class="edge">
<title>Node2&#45;&gt;Node22</title>
<path fill="none" stroke="#191970" d="M964.9273,-206.1923C906.9108,-199.351 809.8317,-183.7988 732.5,-151 690.0573,-132.9987 668.145,-133.7053 646.5,-93 641.9093,-84.3669 640.5558,-78.7635 646.5,-71 664.0543,-48.073 738.8388,-32.7227 791.2918,-24.5513"/>
<polygon fill="#191970" stroke="#191970" points="792.0972,-27.9693 801.461,-23.0126 791.0499,-21.0481 792.0972,-27.9693"/>
</g>
<!-- Node23 -->
<g id="node24" class="node">
<title>Node23</title>
<polygon fill="#ffffff" stroke="#bfbfbf" points="892,-129.5 892,-150.5 987,-150.5 987,-129.5 892,-129.5"/>
<text text-anchor="middle" x="939.5" y="-136.9" font-family="Helvetica,sans-Serif" font-size="12.00" fill="#000000">gsl/gsl_errno.h</text>
</g>
<!-- Node2&#45;&gt;Node23 -->
<g id="edge27" class="edge">
<title>Node2&#45;&gt;Node23</title>
<path fill="none" stroke="#191970" d="M1003.9572,-200.2166C991.9046,-188.957 972.8025,-171.1116 958.517,-157.7658"/>
<polygon fill="#191970" stroke="#191970" points="960.8481,-155.1539 951.1514,-150.8849 956.0694,-160.2691 960.8481,-155.1539"/>
</g>
<!-- Node24 -->
<g id="node25" class="node">
<title>Node24</title>
<polygon fill="#ffffff" stroke="#bfbfbf" points="741.5,-129.5 741.5,-150.5 835.5,-150.5 835.5,-129.5 741.5,-129.5"/>
<text text-anchor="middle" x="788.5" y="-136.9" font-family="Helvetica,sans-Serif" font-size="12.00" fill="#000000">gsl/gsl_roots.h</text>
</g>
<!-- Node2&#45;&gt;Node24 -->
<g id="edge28" class="edge">
<title>Node2&#45;&gt;Node24</title>
<path fill="none" stroke="#191970" d="M981.5158,-200.3706C941.6995,-187.917 875.6467,-167.2573 832.091,-153.6342"/>
<polygon fill="#191970" stroke="#191970" points="832.9342,-150.2308 822.3453,-150.586 830.8445,-156.9116 832.9342,-150.2308"/>
</g>
<!-- Node2&#45;&gt;Node25 -->
<g id="edge30" class="edge">
<title>Node2&#45;&gt;Node25</title>
<path fill="none" stroke="#191970" d="M1066.1799,-204.1655C1109.2706,-198.6244 1172.8301,-191.0872 1228.5,-187 1460.6793,-169.9538 2048.5849,-203.0319 2275.5,-151 2300.58,-145.2491 2363.4918,-115.5123 2401.3186,-97.0029"/>
<polygon fill="#191970" stroke="#191970" points="2402.9262,-100.1127 2410.3568,-92.5604 2399.8384,-93.8305 2402.9262,-100.1127"/>
</g>
<!-- Node4 -->
<g id="node5" class="node">
<title>Node4</title>
<polygon fill="#ffffff" stroke="#bfbfbf" points="1233.5,-71.5 1233.5,-92.5 1265.5,-92.5 1265.5,-71.5 1233.5,-71.5"/>
<text text-anchor="middle" x="1249.5" y="-78.9" font-family="Helvetica,sans-Serif" font-size="12.00" fill="#000000">list</text>
</g>
<!-- Node3&#45;&gt;Node4 -->
<g id="edge4" class="edge">
<title>Node3&#45;&gt;Node4</title>
<path fill="none" stroke="#191970" d="M1305.8443,-129.3619C1295.8261,-120.9408 1281.6332,-109.0105 1269.9987,-99.2308"/>
<polygon fill="#191970" stroke="#191970" points="1271.9824,-96.326 1262.0754,-92.5707 1267.4782,-101.6844 1271.9824,-96.326"/>
</g>
<!-- Node5 -->
<g id="node6" class="node">
<title>Node5</title>
<polygon fill="#ffffff" stroke="#bfbfbf" points="689,-71.5 689,-92.5 748,-92.5 748,-71.5 689,-71.5"/>
<text text-anchor="middle" x="718.5" y="-78.9" font-family="Helvetica,sans-Serif" font-size="12.00" fill="#000000">valarray</text>
</g>
<!-- Node3&#45;&gt;Node5 -->
<g id="edge5" class="edge">
<title>Node3&#45;&gt;Node5</title>
<path fill="none" stroke="#191970" d="M1257.2613,-135.5688C1128.3811,-126.1483 835.2589,-104.1936 758.3245,-92.8696"/>
<polygon fill="#191970" stroke="#191970" points="758.672,-89.3798 748.2369,-91.2128 757.5374,-96.2873 758.672,-89.3798"/>
</g>
<!-- Node6 -->
<g id="node7" class="node">
<title>Node6</title>
<polygon fill="#ffffff" stroke="#bfbfbf" points="1321.5,-71.5 1321.5,-92.5 1365.5,-92.5 1365.5,-71.5 1321.5,-71.5"/>
<text text-anchor="middle" x="1343.5" y="-78.9" font-family="Helvetica,sans-Serif" font-size="12.00" fill="#000000">limits</text>
</g>
<!-- Node3&#45;&gt;Node6 -->
<g id="edge6" class="edge">
<title>Node3&#45;&gt;Node6</title>
<path fill="none" stroke="#191970" d="M1323.0854,-129.3619C1326.398,-121.6766 1330.9704,-111.0686 1334.9483,-101.8399"/>
<polygon fill="#191970" stroke="#191970" points="1338.1995,-103.1393 1338.9437,-92.5707 1331.7712,-100.3685 1338.1995,-103.1393"/>
</g>
<!-- Node3&#45;&gt;Node7 -->
<g id="edge7" class="edge">
<title>Node3&#45;&gt;Node7</title>
<path fill="none" stroke="#191970" d="M1257.2382,-135.4869C1149.6219,-127.3307 929.798,-109.5961 835.3274,-93.0321"/>
<polygon fill="#191970" stroke="#191970" points="835.7126,-89.5443 825.244,-91.1748 834.4445,-96.4285 835.7126,-89.5443"/>
</g>
<!-- Node3&#45;&gt;Node8 -->
<g id="edge8" class="edge">
<title>Node3&#45;&gt;Node8</title>
<path fill="none" stroke="#191970" d="M1316.2814,-129.1289C1312.1198,-108.737 1303.0799,-64.4414 1297.7232,-38.1936"/>
<polygon fill="#191970" stroke="#191970" points="1301.1069,-37.2699 1295.6779,-28.1718 1294.2483,-38.6697 1301.1069,-37.2699"/>
</g>
<!-- Node9 -->
<g id="node10" class="node">
<title>Node9</title>
<polygon fill="#ffffff" stroke="#bfbfbf" points="1384,-71.5 1384,-92.5 1437,-92.5 1437,-71.5 1384,-71.5"/>
<text text-anchor="middle" x="1410.5" y="-78.9" font-family="Helvetica,sans-Serif" font-size="12.00" fill="#000000">iterator</text>
</g>
<!-- Node3&#45;&gt;Node9 -->
<g id="edge9" class="edge">
<title>Node3&#45;&gt;Node9</title>
<path fill="none" stroke="#191970" d="M1335.3742,-129.3619C1349.2506,-120.6138 1369.134,-108.0786 1384.9597,-98.1015"/>
<polygon fill="#191970" stroke="#191970" points="1387.1401,-100.8645 1393.7328,-92.5707 1383.4069,-94.943 1387.1401,-100.8645"/>
</g>
<!-- Node10 -->
<g id="node11" class="node">
<title>Node10</title>
<polygon fill="#ffffff" stroke="#bfbfbf" points="1455.5,-71.5 1455.5,-92.5 1555.5,-92.5 1555.5,-71.5 1455.5,-71.5"/>
<text text-anchor="middle" x="1505.5" y="-78.9" font-family="Helvetica,sans-Serif" font-size="12.00" fill="#000000">gsl/gsl_vector.h</text>
</g>
<!-- Node3&#45;&gt;Node10 -->
<g id="edge10" class="edge">
<title>Node3&#45;&gt;Node10</title>
<path fill="none" stroke="#191970" d="M1352.3643,-129.4966C1382.9823,-120.0001 1428.2434,-105.9619 1461.6236,-95.6087"/>
<polygon fill="#191970" stroke="#191970" points="1463.0579,-98.8284 1471.5722,-92.5231 1460.9842,-92.1426 1463.0579,-98.8284"/>
</g>
<!-- Node11 -->
<g id="node12" class="node">
<title>Node11</title>
<polygon fill="#ffffff" stroke="#bfbfbf" points="1573.5,-71.5 1573.5,-92.5 1673.5,-92.5 1673.5,-71.5 1573.5,-71.5"/>
<text text-anchor="middle" x="1623.5" y="-78.9" font-family="Helvetica,sans-Serif" font-size="12.00" fill="#000000">gsl/gsl_matrix.h</text>
</g>
<!-- Node3&#45;&gt;Node11 -->
<g id="edge11" class="edge">
<title>Node3&#45;&gt;Node11</title>
<path fill="none" stroke="#191970" d="M1373.7332,-129.4966C1427.225,-119.3244 1508.1196,-103.9412 1563.2487,-93.4576"/>
<polygon fill="#191970" stroke="#191970" points="1564.0602,-96.8661 1573.2303,-91.5595 1562.7524,-89.9893 1564.0602,-96.8661"/>
</g>
<!-- Node12 -->
<g id="node13" class="node">
<title>Node12</title>
<polygon fill="#ffffff" stroke="#bfbfbf" points="1692,-71.5 1692,-92.5 1789,-92.5 1789,-71.5 1692,-71.5"/>
<text text-anchor="middle" x="1740.5" y="-78.9" font-family="Helvetica,sans-Serif" font-size="12.00" fill="#000000">gsl/gsl_linalg.h</text>
</g>
<!-- Node3&#45;&gt;Node12 -->
<g id="edge12" class="edge">
<title>Node3&#45;&gt;Node12</title>
<path fill="none" stroke="#191970" d="M1379.5279,-131.6561C1386.2659,-130.7516 1393.0276,-129.8511 1399.5,-129 1522.0172,-112.8886 1555.5793,-112.8149 1681.7504,-93.0443"/>
<polygon fill="#191970" stroke="#191970" points="1682.4709,-96.474 1691.8033,-91.4584 1681.38,-89.5595 1682.4709,-96.474"/>
</g>
<!-- Node13 -->
<g id="node14" class="node">
<title>Node13</title>
<polygon fill="#ffffff" stroke="#bfbfbf" points="1807.5,-71.5 1807.5,-92.5 1897.5,-92.5 1897.5,-71.5 1807.5,-71.5"/>
<text text-anchor="middle" x="1852.5" y="-78.9" font-family="Helvetica,sans-Serif" font-size="12.00" fill="#000000">gsl/gsl_blas.h</text>
</g>
<!-- Node3&#45;&gt;Node13 -->
<g id="edge13" class="edge">
<title>Node3&#45;&gt;Node13</title>
<path fill="none" stroke="#191970" d="M1379.9385,-131.361C1386.5364,-130.5215 1393.1541,-129.7168 1399.5,-129 1573.2321,-109.3759 1620.6257,-118.4657 1797.5839,-92.9999"/>
<polygon fill="#191970" stroke="#191970" points="1798.0929,-96.4628 1807.4845,-91.5588 1797.0846,-89.5358 1798.0929,-96.4628"/>
</g>
<!-- Node14 -->
<g id="node15" class="node">
<title>Node14</title>
<polygon fill="#ffffff" stroke="#bfbfbf" points="1125.5,-71.5 1125.5,-92.5 1215.5,-92.5 1215.5,-71.5 1125.5,-71.5"/>
<text text-anchor="middle" x="1170.5" y="-78.9" font-family="Helvetica,sans-Serif" font-size="12.00" fill="#000000">gsl/gsl_poly.h</text>
</g>
<!-- Node3&#45;&gt;Node14 -->
<g id="edge14" class="edge">
<title>Node3&#45;&gt;Node14</title>
<path fill="none" stroke="#191970" d="M1291.6983,-129.4966C1268.062,-120.2337 1233.3997,-106.6499 1207.1921,-96.3793"/>
<polygon fill="#191970" stroke="#191970" points="1208.1901,-93.0113 1197.6024,-92.6212 1205.6359,-99.5287 1208.1901,-93.0113"/>
</g>
<!-- Node15 -->
<g id="node16" class="node">
<title>Node15</title>
<polygon fill="#ffffff" stroke="#bfbfbf" points="2026,-71.5 2026,-92.5 2081,-92.5 2081,-71.5 2026,-71.5"/>
<text text-anchor="middle" x="2053.5" y="-78.9" font-family="Helvetica,sans-Serif" font-size="12.00" fill="#000000">cassert</text>
</g>
<!-- Node3&#45;&gt;Node15 -->
<g id="edge15" class="edge">
<title>Node3&#45;&gt;Node15</title>
<path fill="none" stroke="#191970" d="M1379.9173,-131.1589C1386.5193,-130.358 1393.1437,-129.6176 1399.5,-129 1670.6929,-102.6481 1742.4003,-135.7244 2011.5,-93 2012.7981,-92.7939 2014.1142,-92.5648 2015.4399,-92.3169"/>
<polygon fill="#191970" stroke="#191970" points="2016.612,-95.6446 2025.649,-90.1144 2015.1358,-88.8021 2016.612,-95.6446"/>
</g>
<!-- Node16 -->
<g id="node17" class="node">
<title>Node16</title>
<g id="a_node17"><a xlink:href="SharedLibraryExportMacros_8h_source.html" target="_top" xlink:title="../Core/SharedLibraryExport\lMacros.h">
<polygon fill="#ffffff" stroke="#000000" points="1955,-.5 1955,-34.5 2120,-34.5 2120,-.5 1955,-.5"/>
<text text-anchor="start" x="1963" y="-20.9" font-family="Helvetica,sans-Serif" font-size="12.00" fill="#000000">../Core/SharedLibraryExport</text>
<text text-anchor="middle" x="2037.5" y="-7.9" font-family="Helvetica,sans-Serif" font-size="12.00" fill="#000000">Macros.h</text>
</a>
</g>
</g>
<!-- Node3&#45;&gt;Node16 -->
<g id="edge16" class="edge">
<title>Node3&#45;&gt;Node16</title>
<path fill="none" stroke="#191970" d="M1379.9194,-131.1806C1386.521,-130.3755 1393.1448,-129.6283 1399.5,-129 1527.7898,-116.3177 1864.4388,-153.0763 1978.5,-93 1998.8667,-82.2728 2014.4539,-61.0835 2024.478,-43.8763"/>
<polygon fill="#191970" stroke="#191970" points="2027.7085,-45.2657 2029.4696,-34.8182 2021.5778,-41.8872 2027.7085,-45.2657"/>
</g>
<!-- Node17 -->
<g id="node18" class="node">
<title>Node17</title>
<g id="a_node18"><a xlink:href="Error_8h.html" target="_top" xlink:title="Defines the exception hierarchy used by this code. ">
<polygon fill="#ffffff" stroke="#000000" points="1916,-71.5 1916,-92.5 1969,-92.5 1969,-71.5 1916,-71.5"/>
<text text-anchor="middle" x="1942.5" y="-78.9" font-family="Helvetica,sans-Serif" font-size="12.00" fill="#000000">Error.h</text>
</a>
</g>
</g>
<!-- Node3&#45;&gt;Node17 -->
<g id="edge17" class="edge">
<title>Node3&#45;&gt;Node17</title>
<path fill="none" stroke="#191970" d="M1379.9252,-131.2375C1386.5256,-130.4216 1393.1476,-129.6562 1399.5,-129 1620.9134,-106.1287 1682.602,-133.4453 1905.8649,-92.7121"/>
<polygon fill="#191970" stroke="#191970" points="1906.7339,-96.1108 1915.9303,-90.8499 1905.4604,-89.2276 1906.7339,-96.1108"/>
</g>
<!-- Node3&#45;&gt;Node20 -->
<g id="edge22" class="edge">
<title>Node3&#45;&gt;Node20</title>
<path fill="none" stroke="#191970" d="M1257.1602,-131.1279C1188.4996,-121.197 1076.8764,-105.0519 1000.4622,-93.9995"/>
<polygon fill="#191970" stroke="#191970" points="1000.7877,-90.5103 990.3896,-92.5426 999.7856,-97.4382 1000.7877,-90.5103"/>
</g>
<!-- Node21 -->
<g id="node22" class="node">
<title>Node21</title>
<g id="a_node22"><a xlink:href="IncludeEigen_8h_source.html" target="_top" xlink:title="IncludeEigen.h">
<polygon fill="#ffffff" stroke="#000000" points="1010,-71.5 1010,-92.5 1107,-92.5 1107,-71.5 1010,-71.5"/>
<text text-anchor="middle" x="1058.5" y="-78.9" font-family="Helvetica,sans-Serif" font-size="12.00" fill="#000000">IncludeEigen.h</text>
</a>
</g>
</g>
<!-- Node3&#45;&gt;Node21 -->
<g id="edge23" class="edge">
<title>Node3&#45;&gt;Node21</title>
<path fill="none" stroke="#191970" d="M1271.416,-129.4966C1227.6527,-119.7341 1162.3734,-105.1718 1115.6434,-94.7474"/>
<polygon fill="#191970" stroke="#191970" points="1116.1945,-91.2844 1105.6723,-92.5231 1114.6704,-98.1164 1116.1945,-91.2844"/>
</g>
<!-- Node17&#45;&gt;Node8 -->
<g id="edge19" class="edge">
<title>Node17&#45;&gt;Node8</title>
<path fill="none" stroke="#191970" d="M1915.9209,-73.1994C1912.7696,-72.3584 1909.5794,-71.598 1906.5,-71 1694.2699,-29.7876 1434.5009,-20.3003 1334.9859,-18.134"/>
<polygon fill="#191970" stroke="#191970" points="1334.8255,-14.6301 1324.7561,-17.9252 1334.6826,-21.6286 1334.8255,-14.6301"/>
</g>
<!-- Node17&#45;&gt;Node16 -->
<g id="edge18" class="edge">
<title>Node17&#45;&gt;Node16</title>
<path fill="none" stroke="#191970" d="M1958.1873,-71.3491C1970.5489,-62.9563 1988.2304,-50.9514 2003.763,-40.4057"/>
<polygon fill="#191970" stroke="#191970" points="2005.8163,-43.2421 2012.1237,-34.7292 2001.8843,-37.4507 2005.8163,-43.2421"/>
</g>
<!-- Node18 -->
<g id="node19" class="node">
<title>Node18</title>
<polygon fill="#ffffff" stroke="#bfbfbf" points="1868.5,-7 1868.5,-28 1936.5,-28 1936.5,-7 1868.5,-7"/>
<text text-anchor="middle" x="1902.5" y="-14.4" font-family="Helvetica,sans-Serif" font-size="12.00" fill="#000000">exception</text>
</g>
<!-- Node17&#45;&gt;Node18 -->
<g id="edge20" class="edge">
<title>Node17&#45;&gt;Node18</title>
<path fill="none" stroke="#191970" d="M1935.8948,-71.3491C1930.1394,-62.0685 1921.645,-48.3712 1914.6637,-37.114"/>
<polygon fill="#191970" stroke="#191970" points="1917.4935,-35.0361 1909.2487,-28.3823 1911.5446,-38.7254 1917.4935,-35.0361"/>
</g>
<!-- Node19 -->
<g id="node20" class="node">
<title>Node19</title>
<polygon fill="#ffffff" stroke="#bfbfbf" points="630.5,-7 630.5,-28 676.5,-28 676.5,-7 630.5,-7"/>
<text text-anchor="middle" x="653.5" y="-14.4" font-family="Helvetica,sans-Serif" font-size="12.00" fill="#000000">string</text>
</g>
<!-- Node17&#45;&gt;Node19 -->
<g id="edge21" class="edge">
<title>Node17&#45;&gt;Node19</title>
<path fill="none" stroke="#191970" d="M1915.951,-73.032C1912.7944,-72.2211 1909.5946,-71.5135 1906.5,-71 1662.1558,-30.4576 1039.4167,-54.4906 792.5,-35 756.1645,-32.1318 714.7387,-26.625 686.6328,-22.5515"/>
<polygon fill="#191970" stroke="#191970" points="686.9544,-19.0612 676.5515,-21.069 685.9359,-25.9867 686.9544,-19.0612"/>
</g>
<!-- Node21&#45;&gt;Node22 -->
<g id="edge24" class="edge">
<title>Node21&#45;&gt;Node22</title>
<path fill="none" stroke="#191970" d="M1023.6409,-71.4934C986.9552,-60.4363 929.092,-42.9962 889.1022,-30.9432"/>
<polygon fill="#191970" stroke="#191970" points="889.9288,-27.5369 879.3442,-28.0021 887.9087,-34.2391 889.9288,-27.5369"/>
</g>
<!-- Node26&#45;&gt;Node2 -->
<g id="edge32" class="edge">
<title>Node26&#45;&gt;Node2</title>
<path fill="none" stroke="#191970" d="M1304.1143,-271.4472C1243.2751,-258.7051 1141.0367,-237.2924 1075.993,-223.6696"/>
<polygon fill="#191970" stroke="#191970" points="1076.3905,-220.177 1065.8853,-221.5527 1074.9555,-227.0283 1076.3905,-220.177"/>
</g>
<!-- Node27 -->
<g id="node28" class="node">
<title>Node27</title>
<polygon fill="#ffffff" stroke="#bfbfbf" points="2479,-71.5 2479,-92.5 2528,-92.5 2528,-71.5 2479,-71.5"/>
<text text-anchor="middle" x="2503.5" y="-78.9" font-family="Helvetica,sans-Serif" font-size="12.00" fill="#000000">cmath</text>
</g>
<!-- Node26&#45;&gt;Node27 -->
<g id="edge33" class="edge">
<title>Node26&#45;&gt;Node27</title>
<path fill="none" stroke="#191970" d="M1405.0913,-278.2383C1585.8562,-264.3845 2198.8978,-213.7412 2384.5,-151 2420.6503,-138.7797 2458.0342,-114.9325 2481.0277,-98.7339"/>
<polygon fill="#191970" stroke="#191970" points="2483.305,-101.4076 2489.3872,-92.7325 2479.2226,-95.7213 2483.305,-101.4076"/>
</g>
<!-- Node28&#45;&gt;Node2 -->
<g id="edge35" class="edge">
<title>Node28&#45;&gt;Node2</title>
<path fill="none" stroke="#191970" d="M1177.9054,-271.3706C1144.8972,-259.1005 1090.4594,-238.8645 1053.8103,-225.241"/>
<polygon fill="#191970" stroke="#191970" points="1054.5706,-221.7897 1043.9777,-221.586 1052.1316,-228.351 1054.5706,-221.7897"/>
</g>
<!-- Node28&#45;&gt;Node15 -->
<g id="edge52" class="edge">
<title>Node28&#45;&gt;Node15</title>
<path fill="none" stroke="#191970" d="M1266.3837,-271.4736C1313.3673,-262.42 1374.2549,-248.6908 1395.5,-235 1418.3716,-220.261 1410.0534,-200.8059 1433.5,-187 1655.1273,-56.5013 1752.0322,-142.0769 2004.5,-93 2008.1828,-92.2841 2012.012,-91.4981 2015.8343,-90.6857"/>
<polygon fill="#191970" stroke="#191970" points="2016.8071,-94.0559 2025.8308,-88.504 2015.3144,-87.2169 2016.8071,-94.0559"/>
</g>
<!-- Node29 -->
<g id="node30" class="node">
<title>Node29</title>
<g id="a_node30"><a xlink:href="TidalPotentialTerms_8h.html" target="_top" xlink:title="Declare an interface for evaluating the expansion of the tidal potential. ">
<polygon fill="#ffffff" stroke="#000000" points="1237,-194 1237,-228 1386,-228 1386,-194 1237,-194"/>
<text text-anchor="start" x="1245" y="-214.4" font-family="Helvetica,sans-Serif" font-size="12.00" fill="#000000">../../Evolve/TidalPotential</text>
<text text-anchor="middle" x="1311.5" y="-201.4" font-family="Helvetica,sans-Serif" font-size="12.00" fill="#000000">Terms.h</text>
</a>
</g>
</g>
<!-- Node28&#45;&gt;Node29 -->
<g id="edge36" class="edge">
<title>Node28&#45;&gt;Node29</title>
<path fill="none" stroke="#191970" d="M1222.4472,-271.2166C1237.008,-261.3708 1259.0159,-246.4893 1277.5096,-233.984"/>
<polygon fill="#191970" stroke="#191970" points="1279.6648,-236.7518 1285.9882,-228.2508 1275.7437,-230.953 1279.6648,-236.7518"/>
</g>
<!-- Node34 -->
<g id="node35" class="node">
<title>Node34</title>
<polygon fill="#ffffff" stroke="#bfbfbf" points="1442,-187.5 1442,-234.5 1565,-234.5 1565,-187.5 1442,-187.5"/>
<text text-anchor="start" x="1450" y="-220.9" font-family="Helvetica,sans-Serif" font-size="12.00" fill="#000000">boost/math/special</text>
<text text-anchor="start" x="1450" y="-207.9" font-family="Helvetica,sans-Serif" font-size="12.00" fill="#000000">_functions/spherical</text>
<text text-anchor="middle" x="1503.5" y="-194.9" font-family="Helvetica,sans-Serif" font-size="12.00" fill="#000000">_harmonic.hpp</text>
</g>
<!-- Node28&#45;&gt;Node34 -->
<g id="edge51" class="edge">
<title>Node28&#45;&gt;Node34</title>
<path fill="none" stroke="#191970" d="M1263.6326,-271.4199C1308.4661,-262.7402 1372.3108,-249.5465 1427.5,-235 1428.9634,-234.6143 1430.4405,-234.2177 1431.9274,-233.8119"/>
<polygon fill="#191970" stroke="#191970" points="1433.1677,-237.0988 1441.8432,-231.0172 1431.2687,-230.3613 1433.1677,-237.0988"/>
</g>
<!-- Node29&#45;&gt;Node3 -->
<g id="edge50" class="edge">
<title>Node29&#45;&gt;Node3</title>
<path fill="none" stroke="#191970" d="M1313.1945,-193.8129C1314.1795,-183.8221 1315.4272,-171.1666 1316.4652,-160.6389"/>
<polygon fill="#191970" stroke="#191970" points="1319.9529,-160.9342 1317.4511,-150.639 1312.9867,-160.2473 1319.9529,-160.9342"/>
</g>
<!-- Node29&#45;&gt;Node5 -->
<g id="edge38" class="edge">
<title>Node29&#45;&gt;Node5</title>
<path fill="none" stroke="#191970" d="M1261.3974,-193.9218C1205.4633,-175.4474 1111.9551,-146.3201 1029.5,-129 912.888,-104.5051 878.1088,-117.3623 758.1967,-93.1276"/>
<polygon fill="#191970" stroke="#191970" points="758.7653,-89.6712 748.2639,-91.0756 757.349,-96.5265 758.7653,-89.6712"/>
</g>
<!-- Node29&#45;&gt;Node27 -->
<g id="edge37" class="edge">
<title>Node29&#45;&gt;Node27</title>
<path fill="none" stroke="#191970" d="M1386.0544,-194.4392C1401.6603,-191.5065 1418.064,-188.8143 1433.5,-187 1633.3942,-163.5052 2141.99,-194.5144 2338.5,-151 2388.7761,-139.867 2443.159,-114.2006 2475.2278,-97.5034"/>
<polygon fill="#191970" stroke="#191970" points="2477.2302,-100.4038 2484.4345,-92.6354 2473.9582,-94.2156 2477.2302,-100.4038"/>
</g>
<!-- Node30 -->
<g id="node31" class="node">
<title>Node30</title>
<g id="a_node31"><a xlink:href="EccentricityExpansionCoefficients_8h.html" target="_top" xlink:title="Declares a class which provides the [ &#160;coefficients]{InclinationEccentricity_pms1}. ">
<polygon fill="#ffffff" stroke="#000000" points="2058.5,-129.5 2058.5,-150.5 2266.5,-150.5 2266.5,-129.5 2058.5,-129.5"/>
<text text-anchor="middle" x="2162.5" y="-136.9" font-family="Helvetica,sans-Serif" font-size="12.00" fill="#000000">EccentricityExpansionCoefficients.h</text>
</a>
</g>
</g>
<!-- Node29&#45;&gt;Node30 -->
<g id="edge39" class="edge">
<title>Node29&#45;&gt;Node30</title>
<path fill="none" stroke="#191970" d="M1386.0908,-194.7336C1401.6941,-191.7795 1418.0875,-189.0042 1433.5,-187 1649.661,-158.891 1904.1709,-147.3403 2048.099,-142.7842"/>
<polygon fill="#191970" stroke="#191970" points="2048.3823,-146.2772 2058.2687,-142.4682 2048.1648,-139.2806 2048.3823,-146.2772"/>
</g>
<!-- Node30&#45;&gt;Node7 -->
<g id="edge47" class="edge">
<title>Node30&#45;&gt;Node7</title>
<path fill="none" stroke="#191970" d="M2058.0701,-139.6242C1791.2229,-138.1396 1088.1757,-130.7982 835.46,-92.9436"/>
<polygon fill="#191970" stroke="#191970" points="835.6317,-89.4284 825.2129,-91.3518 834.5571,-96.3454 835.6317,-89.4284"/>
</g>
<!-- Node30&#45;&gt;Node8 -->
<g id="edge46" class="edge">
<title>Node30&#45;&gt;Node8</title>
<path fill="none" stroke="#191970" d="M2155.3462,-129.4881C2143.8235,-113.554 2119.4866,-83.7911 2090.5,-71 2021.1923,-40.4162 1489.5614,-23.065 1335.3212,-18.6386"/>
<polygon fill="#191970" stroke="#191970" points="1334.9749,-15.1274 1324.8796,-18.3422 1334.7763,-22.1246 1334.9749,-15.1274"/>
</g>
<!-- Node30&#45;&gt;Node15 -->
<g id="edge48" class="edge">
<title>Node30&#45;&gt;Node15</title>
<path fill="none" stroke="#191970" d="M2142.7609,-129.4966C2125.8899,-120.5194 2101.3915,-107.4835 2082.3262,-97.3387"/>
<polygon fill="#191970" stroke="#191970" points="2083.9327,-94.2289 2073.4606,-92.6212 2080.6445,-100.4086 2083.9327,-94.2289"/>
</g>
<!-- Node30&#45;&gt;Node16 -->
<g id="edge40" class="edge">
<title>Node30&#45;&gt;Node16</title>
<path fill="none" stroke="#191970" d="M2248.3308,-129.4587C2292.9411,-122.0283 2340.9411,-110.2783 2354.5,-93 2360.5363,-85.3079 2360.8125,-78.4671 2354.5,-71 2340.0147,-53.8651 2218.6531,-37.1477 2130.3961,-27.0838"/>
<polygon fill="#191970" stroke="#191970" points="2130.6768,-23.5934 2120.3474,-25.9503 2129.8921,-30.5493 2130.6768,-23.5934"/>
</g>
<!-- Node30&#45;&gt;Node17 -->
<g id="edge41" class="edge">
<title>Node30&#45;&gt;Node17</title>
<path fill="none" stroke="#191970" d="M2122.6597,-129.4966C2081.7665,-118.7157 2018.6711,-102.0815 1979.0292,-91.6304"/>
<polygon fill="#191970" stroke="#191970" points="1979.802,-88.2146 1969.2401,-89.0497 1978.0174,-94.9834 1979.802,-88.2146"/>
</g>
<!-- Node30&#45;&gt;Node25 -->
<g id="edge44" class="edge">
<title>Node30&#45;&gt;Node25</title>
<path fill="none" stroke="#191970" d="M2215.8171,-129.473C2261.4883,-120.3098 2328.9619,-106.4259 2387.5,-93 2388.939,-92.67 2390.4033,-92.3293 2391.8813,-91.9812"/>
<polygon fill="#191970" stroke="#191970" points="2392.813,-95.357 2401.7158,-89.6132 2391.1743,-88.5515 2392.813,-95.357"/>
</g>
<!-- Node30&#45;&gt;Node27 -->
<g id="edge45" class="edge">
<title>Node30&#45;&gt;Node27</title>
<path fill="none" stroke="#191970" d="M2259.7362,-129.4676C2318.1436,-122.1285 2393.9807,-110.8221 2468.7084,-93.1647"/>
<polygon fill="#191970" stroke="#191970" points="2469.8601,-96.4876 2478.7653,-90.7477 2468.2243,-89.6814 2469.8601,-96.4876"/>
</g>
<!-- Node31 -->
<g id="node32" class="node">
<title>Node31</title>
<polygon fill="#ffffff" stroke="#bfbfbf" points="2138,-71.5 2138,-92.5 2187,-92.5 2187,-71.5 2138,-71.5"/>
<text text-anchor="middle" x="2162.5" y="-78.9" font-family="Helvetica,sans-Serif" font-size="12.00" fill="#000000">vector</text>
</g>
<!-- Node30&#45;&gt;Node31 -->
<g id="edge42" class="edge">
<title>Node30&#45;&gt;Node31</title>
<path fill="none" stroke="#191970" d="M2162.5,-129.3619C2162.5,-121.9219 2162.5,-111.7427 2162.5,-102.7276"/>
<polygon fill="#191970" stroke="#191970" points="2166.0001,-102.5706 2162.5,-92.5707 2159.0001,-102.5707 2166.0001,-102.5706"/>
</g>
<!-- Node32 -->
<g id="node33" class="node">
<title>Node32</title>
<polygon fill="#ffffff" stroke="#bfbfbf" points="2205.5,-71.5 2205.5,-92.5 2261.5,-92.5 2261.5,-71.5 2205.5,-71.5"/>
<text text-anchor="middle" x="2233.5" y="-78.9" font-family="Helvetica,sans-Serif" font-size="12.00" fill="#000000">fstream</text>
</g>
<!-- Node30&#45;&gt;Node32 -->
<g id="edge43" class="edge">
<title>Node30&#45;&gt;Node32</title>
<path fill="none" stroke="#191970" d="M2175.5225,-129.3619C2185.9312,-120.859 2200.7194,-108.7785 2212.7551,-98.9466"/>
<polygon fill="#191970" stroke="#191970" points="2215.0299,-101.6077 2220.5601,-92.5707 2210.6013,-96.1866 2215.0299,-101.6077"/>
</g>
<!-- Node33 -->
<g id="node34" class="node">
<title>Node33</title>
<polygon fill="#ffffff" stroke="#bfbfbf" points="2279.5,-71.5 2279.5,-92.5 2345.5,-92.5 2345.5,-71.5 2279.5,-71.5"/>
<text text-anchor="middle" x="2312.5" y="-78.9" font-family="Helvetica,sans-Serif" font-size="12.00" fill="#000000">algorithm</text>
</g>
<!-- Node30&#45;&gt;Node33 -->
<g id="edge49" class="edge">
<title>Node30&#45;&gt;Node33</title>
<path fill="none" stroke="#191970" d="M2189.6639,-129.4966C2213.8003,-120.1639 2249.281,-106.4447 2275.9117,-96.1475"/>
<polygon fill="#191970" stroke="#191970" points="2277.2204,-99.394 2285.2852,-92.5231 2274.6959,-92.8651 2277.2204,-99.394"/>
</g>
<!-- Node35&#45;&gt;Node5 -->
<g id="edge57" class="edge">
<title>Node35&#45;&gt;Node5</title>
<path fill="none" stroke="#191970" d="M531.7891,-129.4966C573.5494,-118.8734 637.6513,-102.5668 678.8245,-92.0929"/>
<polygon fill="#191970" stroke="#191970" points="679.9422,-95.4201 688.7707,-89.5627 678.2164,-88.6362 679.9422,-95.4201"/>
</g>
<!-- Node35&#45;&gt;Node7 -->
<g id="edge58" class="edge">
<title>Node35&#45;&gt;Node7</title>
<path fill="none" stroke="#191970" d="M552.6632,-130.8192C604.4717,-122.7576 680.3773,-109.9992 755.6374,-93.028"/>
<polygon fill="#191970" stroke="#191970" points="756.7973,-96.3534 765.7683,-90.7167 755.2403,-89.5287 756.7973,-96.3534"/>
</g>
<!-- Node35&#45;&gt;Node19 -->
<g id="edge60" class="edge">
<title>Node35&#45;&gt;Node19</title>
<path fill="none" stroke="#191970" d="M501.7389,-129.4214C516.8501,-115.4083 544.7959,-90.2231 570.5,-71 588.6868,-57.3988 610.276,-43.5484 626.8767,-33.3487"/>
<polygon fill="#191970" stroke="#191970" points="628.8088,-36.2701 635.5328,-28.0824 625.1705,-30.2899 628.8088,-36.2701"/>
</g>
<!-- Node36 -->
<g id="node37" class="node">
<title>Node36</title>
<polygon fill="#ffffff" stroke="#bfbfbf" points="69,-71.5 69,-92.5 228,-92.5 228,-71.5 69,-71.5"/>
<text text-anchor="middle" x="148.5" y="-78.9" font-family="Helvetica,sans-Serif" font-size="12.00" fill="#000000">../Evolve/StopInformation.h</text>
</g>
<!-- Node35&#45;&gt;Node36 -->
<g id="edge54" class="edge">
<title>Node35&#45;&gt;Node36</title>
<path fill="none" stroke="#191970" d="M428.5664,-129.4966C370.0354,-119.5703 282.2452,-104.6819 220.5936,-94.2264"/>
<polygon fill="#191970" stroke="#191970" points="220.9942,-90.7444 210.5498,-92.5231 219.8238,-97.6459 220.9942,-90.7444"/>
</g>
<!-- Node37 -->
<g id="node38" class="node">
<title>Node37</title>
<polygon fill="#ffffff" stroke="#bfbfbf" points="246.5,-71.5 246.5,-92.5 434.5,-92.5 434.5,-71.5 246.5,-71.5"/>
<text text-anchor="middle" x="340.5" y="-78.9" font-family="Helvetica,sans-Serif" font-size="12.00" fill="#000000">../Core/AstronomicalConstants.h</text>
</g>
<!-- Node35&#45;&gt;Node37 -->
<g id="edge55" class="edge">
<title>Node35&#45;&gt;Node37</title>
<path fill="none" stroke="#191970" d="M463.3361,-129.4966C439.1997,-120.1639 403.719,-106.4447 377.0883,-96.1475"/>
<polygon fill="#191970" stroke="#191970" points="378.3041,-92.8651 367.7148,-92.5231 375.7796,-99.394 378.3041,-92.8651"/>
</g>
<!-- Node38 -->
<g id="node39" class="node">
<title>Node38</title>
<polygon fill="#ffffff" stroke="#bfbfbf" points="453,-71.5 453,-92.5 518,-92.5 518,-71.5 453,-71.5"/>
<text text-anchor="middle" x="485.5" y="-78.9" font-family="Helvetica,sans-Serif" font-size="12.00" fill="#000000">cpptest.h</text>
</g>
<!-- Node35&#45;&gt;Node38 -->
<g id="edge56" class="edge">
<title>Node35&#45;&gt;Node38</title>
<path fill="none" stroke="#191970" d="M489.5829,-129.3619C488.9415,-121.9219 488.064,-111.7427 487.2869,-102.7276"/>
<polygon fill="#191970" stroke="#191970" points="490.7573,-102.2331 486.4113,-92.5707 483.7832,-102.8343 490.7573,-102.2331"/>
</g>
<!-- Node39 -->
<g id="node40" class="node">
<title>Node39</title>
<polygon fill="#ffffff" stroke="#bfbfbf" points="0,-71.5 0,-92.5 51,-92.5 51,-71.5 0,-71.5"/>
<text text-anchor="middle" x="25.5" y="-78.9" font-family="Helvetica,sans-Serif" font-size="12.00" fill="#000000">cstdlib</text>
</g>
<!-- Node35&#45;&gt;Node39 -->
<g id="edge59" class="edge">
<title>Node35&#45;&gt;Node39</title>
<path fill="none" stroke="#191970" d="M428.4889,-137.2185C346.238,-132.6506 196.5765,-121.2873 61.4558,-93.1092"/>
<polygon fill="#191970" stroke="#191970" points="61.849,-89.6147 51.3402,-90.9619 60.3955,-96.4621 61.849,-89.6147"/>
</g>
</g>
</svg>
