<?xml version="1.0" encoding="UTF-8" standalone="no"?>
<!DOCTYPE svg PUBLIC "-//W3C//DTD SVG 1.1//EN"
 "http://www.w3.org/Graphics/SVG/1.1/DTD/svg11.dtd">
<!-- Generated by graphviz version 2.40.1 (20161225.0304)
 -->
<!-- Title: /Users/kpenev/projects/git/poet/poet_src/unit_tests/testEvolve/testGravitationalPotential.h Pages: 1 -->
<!--zoomable 386 -->
<svg id="main" version="1.1" xmlns="http://www.w3.org/2000/svg" xmlns:xlink="http://www.w3.org/1999/xlink" xml:space="preserve" onload="init(evt)">
<style type="text/css"><![CDATA[
.edge:hover path { stroke: red; }
.edge:hover polygon { stroke: red; fill: red; }
]]></style>
<script type="text/javascript"><![CDATA[
var edges = document.getElementsByTagName('g');
if (edges && edges.length) {
  for (var i=0;i<edges.length;i++) {
    if (edges[i].id.substr(0,4)=='edge') {
      edges[i].setAttribute('class','edge');
    }
  }
}
]]></script>
        <defs>
                <circle id="rim" cx="0" cy="0" r="7"/>
                <circle id="rim2" cx="0" cy="0" r="3.5"/>
                <g id="zoomPlus">
                        <use xlink:href="#rim" fill="#404040">
                                <set attributeName="fill" to="#808080" begin="zoomplus.mouseover" end="zoomplus.mouseout"/>
                        </use>
                        <path d="M-4,0h8M0,-4v8" fill="none" stroke="white" stroke-width="1.5" pointer-events="none"/>
                </g>
                <g id="zoomMin">
                        <use xlink:href="#rim" fill="#404040">
                                <set attributeName="fill" to="#808080" begin="zoomminus.mouseover" end="zoomminus.mouseout"/>
                        </use>
                        <path d="M-4,0h8" fill="none" stroke="white" stroke-width="1.5" pointer-events="none"/>
                </g>
                <g id="dirArrow">
                        <path fill="none" stroke="white" stroke-width="1.5" d="M0,-3.0v7 M-2.5,-0.5L0,-3.0L2.5,-0.5"/>
                </g>
               <g id="resetDef">
                       <use xlink:href="#rim2" fill="#404040">
                               <set attributeName="fill" to="#808080" begin="reset.mouseover" end="reset.mouseout"/>
                       </use>
               </g>
        </defs>

<script type="text/javascript">
var viewWidth = 2511;
var viewHeight = 386;
var sectionId = 'dynsection-0';
</script>
<script xlink:href="svgpan.js"/>
<svg id="graph" class="graph">
<g id="viewport">
<title>/Users/kpenev/projects/git/poet/poet_src/unit_tests/testEvolve/testGravitationalPotential.h</title>
<polygon fill="#ffffff" stroke="transparent" points="-4,4 -4,-382 2507.3457,-382 2507.3457,4 -4,4"/>
<!-- Node0 -->
<g id="node1" class="node">
<title>Node0</title>
<polygon fill="#bfbfbf" stroke="#000000" points="913.6318,-321.5 913.6318,-377.5 1110.3818,-377.5 1110.3818,-321.5 913.6318,-321.5"/>
<text text-anchor="start" x="921.6318" y="-363.9" font-family="Helvetica,sans-Serif" font-size="12.00" fill="#000000">/Users/kpenev/projects</text>
<text text-anchor="start" x="921.6318" y="-351.9" font-family="Helvetica,sans-Serif" font-size="12.00" fill="#000000">/git/poet/poet_src/unit</text>
<text text-anchor="start" x="921.6318" y="-339.9" font-family="Helvetica,sans-Serif" font-size="12.00" fill="#000000">_tests/testEvolve/testGravitational</text>
<text text-anchor="middle" x="1012.0068" y="-327.9" font-family="Helvetica,sans-Serif" font-size="12.00" fill="#000000">Potential.h</text>
</g>
<!-- Node1 -->
<g id="node2" class="node">
<title>Node1</title>
<g id="a_node2"><a xlink:href="EccentricOrbit_8h.html" target="_top" xlink:title="Declare an interface for working with eccentric orbits. ">
<polygon fill="#ffffff" stroke="#000000" points="961.3271,-195.5 961.3271,-215.5 1062.6865,-215.5 1062.6865,-195.5 961.3271,-195.5"/>
<text text-anchor="middle" x="1012.0068" y="-201.9" font-family="Helvetica,sans-Serif" font-size="12.00" fill="#000000">EccentricOrbit.h</text>
</a>
</g>
</g>
<!-- Node0&#45;&gt;Node1 -->
<g id="edge1" class="edge">
<title>Node0&#45;&gt;Node1</title>
<path fill="none" stroke="#191970" d="M1012.0068,-321.3935C1012.0068,-293.2861 1012.0068,-250.7471 1012.0068,-225.7798"/>
<polygon fill="#191970" stroke="#191970" points="1015.5069,-225.6598 1012.0068,-215.6598 1008.5069,-225.6599 1015.5069,-225.6598"/>
</g>
<!-- Node6 -->
<g id="node7" class="node">
<title>Node6</title>
<polygon fill="#ffffff" stroke="#bfbfbf" points="763.6699,-69.5 763.6699,-89.5 822.3438,-89.5 822.3438,-69.5 763.6699,-69.5"/>
<text text-anchor="middle" x="793.0068" y="-75.9" font-family="Helvetica,sans-Serif" font-size="12.00" fill="#000000">sstream</text>
</g>
<!-- Node0&#45;&gt;Node6 -->
<g id="edge62" class="edge">
<title>Node0&#45;&gt;Node6</title>
<path fill="none" stroke="#191970" d="M941.2752,-321.4108C873.3478,-290.1517 774.7836,-232.5069 731.0068,-147 720.3474,-126.1794 742.3727,-107.0134 763.0611,-94.4669"/>
<polygon fill="#191970" stroke="#191970" points="764.7966,-97.5064 771.7466,-89.5096 761.3267,-91.4269 764.7966,-97.5064"/>
</g>
<!-- Node7 -->
<g id="node8" class="node">
<title>Node7</title>
<polygon fill="#ffffff" stroke="#bfbfbf" points="1254,-6.5 1254,-26.5 1316.0137,-26.5 1316.0137,-6.5 1254,-6.5"/>
<text text-anchor="middle" x="1285.0068" y="-12.9" font-family="Helvetica,sans-Serif" font-size="12.00" fill="#000000">iostream</text>
</g>
<!-- Node0&#45;&gt;Node7 -->
<g id="edge60" class="edge">
<title>Node0&#45;&gt;Node7</title>
<path fill="none" stroke="#191970" d="M913.5856,-336.5225C786.9301,-317.0113 583.0068,-274.8319 583.0068,-205.5 583.0068,-205.5 583.0068,-205.5 583.0068,-136.5 583.0068,-90.99 618.1209,-86.7968 660.0068,-69 713.5514,-46.2495 1113.268,-24.8959 1243.8621,-18.462"/>
<polygon fill="#191970" stroke="#191970" points="1244.0508,-21.9571 1253.8677,-17.9724 1243.7086,-14.9654 1244.0508,-21.9571"/>
</g>
<!-- Node24 -->
<g id="node25" class="node">
<title>Node24</title>
<polygon fill="#ffffff" stroke="#bfbfbf" points="2378.9951,-69.5 2378.9951,-89.5 2437.0186,-89.5 2437.0186,-69.5 2378.9951,-69.5"/>
<text text-anchor="middle" x="2408.0068" y="-75.9" font-family="Helvetica,sans-Serif" font-size="12.00" fill="#000000">iomanip</text>
</g>
<!-- Node0&#45;&gt;Node24 -->
<g id="edge61" class="edge">
<title>Node0&#45;&gt;Node24</title>
<path fill="none" stroke="#191970" d="M1110.6802,-346.3502C1329.735,-336.7104 1870.6306,-298.2078 2293.0068,-147 2327.8717,-134.5186 2364.066,-111.2809 2386.316,-95.602"/>
<polygon fill="#191970" stroke="#191970" points="2388.5954,-98.2743 2394.6786,-89.5998 2384.5137,-92.5874 2388.5954,-98.2743"/>
</g>
<!-- Node25 -->
<g id="node26" class="node">
<title>Node25</title>
<g id="a_node26"><a xlink:href="TidalPotential_8h.html" target="_top" xlink:title="Declare an interface for calculating the tidal potential due to a companion in an eccentric orbit...">
<polygon fill="#ffffff" stroke="#000000" points="1294.8682,-264.5 1294.8682,-284.5 1393.1455,-284.5 1393.1455,-264.5 1294.8682,-264.5"/>
<text text-anchor="middle" x="1344.0068" y="-270.9" font-family="Helvetica,sans-Serif" font-size="12.00" fill="#000000">TidalPotential.h</text>
</a>
</g>
</g>
<!-- Node0&#45;&gt;Node25 -->
<g id="edge30" class="edge">
<title>Node0&#45;&gt;Node25</title>
<path fill="none" stroke="#191970" d="M1110.7189,-327.2006C1169.2501,-313.9782 1241.2162,-297.7208 1289.61,-286.7884"/>
<polygon fill="#191970" stroke="#191970" points="1290.5826,-290.157 1299.5656,-284.5394 1289.0401,-283.3291 1290.5826,-290.157"/>
</g>
<!-- Node27 -->
<g id="node28" class="node">
<title>Node27</title>
<g id="a_node28"><a xlink:href="TidalPotentialExpansion_8h.html" target="_top" xlink:title="Declare an interface for evaluating the expansion of the tidal potential. ">
<polygon fill="#ffffff" stroke="#000000" points="1122.8486,-264.5 1122.8486,-284.5 1277.165,-284.5 1277.165,-264.5 1122.8486,-264.5"/>
<text text-anchor="middle" x="1200.0068" y="-270.9" font-family="Helvetica,sans-Serif" font-size="12.00" fill="#000000">TidalPotentialExpansion.h</text>
</a>
</g>
</g>
<!-- Node0&#45;&gt;Node27 -->
<g id="edge33" class="edge">
<title>Node0&#45;&gt;Node27</title>
<path fill="none" stroke="#191970" d="M1082.2784,-321.4661C1110.5683,-310.1803 1141.9261,-297.6705 1165.1611,-288.4012"/>
<polygon fill="#191970" stroke="#191970" points="1166.5977,-291.5964 1174.5889,-284.6401 1164.0039,-285.0947 1166.5977,-291.5964"/>
</g>
<!-- Node34 -->
<g id="node35" class="node">
<title>Node34</title>
<g id="a_node35"><a xlink:href="unit__tests_2shared_2Common_8h.html" target="_top" xlink:title="Functions and classes of general use for all unit tests. ">
<polygon fill="#ffffff" stroke="#000000" points="426.6494,-126.5 426.6494,-146.5 551.3643,-146.5 551.3643,-126.5 426.6494,-126.5"/>
<text text-anchor="middle" x="489.0068" y="-132.9" font-family="Helvetica,sans-Serif" font-size="12.00" fill="#000000">../shared/Common.h</text>
</a>
</g>
</g>
<!-- Node0&#45;&gt;Node34 -->
<g id="edge52" class="edge">
<title>Node0&#45;&gt;Node34</title>
<path fill="none" stroke="#191970" d="M913.4385,-345.349C800.2035,-338.8457 623.0519,-322.8228 569.0068,-285 524.1709,-253.622 502.1639,-188.9232 493.5484,-156.2712"/>
<polygon fill="#191970" stroke="#191970" points="496.934,-155.3821 491.1263,-146.5208 490.1404,-157.0697 496.934,-155.3821"/>
</g>
<!-- Node2 -->
<g id="node3" class="node">
<title>Node2</title>
<g id="a_node3"><a xlink:href="Core_2Common_8h.html" target="_top" xlink:title="Declaration of some general purpose utilities. ">
<polygon fill="#ffffff" stroke="#000000" points="1247.9893,-126.5 1247.9893,-146.5 1372.0244,-146.5 1372.0244,-126.5 1247.9893,-126.5"/>
<text text-anchor="middle" x="1310.0068" y="-132.9" font-family="Helvetica,sans-Serif" font-size="12.00" fill="#000000">../../Core/Common.h</text>
</a>
</g>
</g>
<!-- Node1&#45;&gt;Node2 -->
<g id="edge2" class="edge">
<title>Node1&#45;&gt;Node2</title>
<path fill="none" stroke="#191970" d="M1055.3386,-195.4668C1108.6372,-183.1259 1199.1011,-162.1795 1256.6315,-148.8587"/>
<polygon fill="#191970" stroke="#191970" points="1257.6701,-152.2109 1266.6228,-146.5453 1256.091,-145.3913 1257.6701,-152.2109"/>
</g>
<!-- Node1&#45;&gt;Node7 -->
<g id="edge28" class="edge">
<title>Node1&#45;&gt;Node7</title>
<path fill="none" stroke="#191970" d="M1012.9241,-195.3969C1013.8622,-178.2735 1012.9759,-143.6915 993.0068,-126 886.5149,-31.6536 581.8363,-173.8475 678.0068,-69 697.1725,-48.1051 1110.1522,-25.3777 1243.728,-18.5494"/>
<polygon fill="#191970" stroke="#191970" points="1244.1426,-22.033 1253.9521,-18.03 1243.7874,-15.042 1244.1426,-22.033"/>
</g>
<!-- Node19 -->
<g id="node20" class="node">
<title>Node19</title>
<g id="a_node20"><a xlink:href="AstronomicalConstants_8h.html" target="_top" xlink:title="Defines various astronomical constants. ">
<polygon fill="#ffffff" stroke="#000000" points="840.3096,-69.5 840.3096,-89.5 989.7041,-89.5 989.7041,-69.5 840.3096,-69.5"/>
<text text-anchor="middle" x="915.0068" y="-75.9" font-family="Helvetica,sans-Serif" font-size="12.00" fill="#000000">AstronomicalConstants.h</text>
</a>
</g>
</g>
<!-- Node1&#45;&gt;Node19 -->
<g id="edge24" class="edge">
<title>Node1&#45;&gt;Node19</title>
<path fill="none" stroke="#191970" d="M961.1785,-196.7686C932.3912,-188.9398 898.6949,-174.2705 881.0068,-147 870.621,-130.9877 883.0132,-111.3804 895.6523,-97.4324"/>
<polygon fill="#191970" stroke="#191970" points="898.4781,-99.5478 902.9522,-89.944 893.4656,-94.6615 898.4781,-99.5478"/>
</g>
<!-- Node21 -->
<g id="node22" class="node">
<title>Node21</title>
<polygon fill="#ffffff" stroke="#bfbfbf" points="799.6504,-6.5 799.6504,-26.5 884.3633,-26.5 884.3633,-6.5 799.6504,-6.5"/>
<text text-anchor="middle" x="842.0068" y="-12.9" font-family="Helvetica,sans-Serif" font-size="12.00" fill="#000000">Eigen/Dense</text>
</g>
<!-- Node1&#45;&gt;Node21 -->
<g id="edge25" class="edge">
<title>Node1&#45;&gt;Node21</title>
<path fill="none" stroke="#191970" d="M961.3211,-200.7937C903.6992,-194.1304 807.692,-178.9965 731.0068,-147 688.6875,-129.3425 666.6984,-130.4004 645.0068,-90 640.5918,-81.777 639.32,-76.4008 645.0068,-69 662.5462,-46.1743 737.3268,-31.16 789.5285,-23.2456"/>
<polygon fill="#191970" stroke="#191970" points="790.2602,-26.6757 799.6442,-21.7571 789.2412,-19.7502 790.2602,-26.6757"/>
</g>
<!-- Node22 -->
<g id="node23" class="node">
<title>Node22</title>
<polygon fill="#ffffff" stroke="#bfbfbf" points="889.6523,-126.5 889.6523,-146.5 984.3613,-146.5 984.3613,-126.5 889.6523,-126.5"/>
<text text-anchor="middle" x="937.0068" y="-132.9" font-family="Helvetica,sans-Serif" font-size="12.00" fill="#000000">gsl/gsl_errno.h</text>
</g>
<!-- Node1&#45;&gt;Node22 -->
<g id="edge26" class="edge">
<title>Node1&#45;&gt;Node22</title>
<path fill="none" stroke="#191970" d="M1000.9403,-195.3188C989.0867,-184.4135 970.0637,-166.9123 955.8449,-153.831"/>
<polygon fill="#191970" stroke="#191970" points="957.8478,-150.9178 948.1187,-146.723 953.1084,-156.0693 957.8478,-150.9178"/>
</g>
<!-- Node23 -->
<g id="node24" class="node">
<title>Node23</title>
<polygon fill="#ffffff" stroke="#bfbfbf" points="740.3203,-126.5 740.3203,-146.5 833.6934,-146.5 833.6934,-126.5 740.3203,-126.5"/>
<text text-anchor="middle" x="787.0068" y="-132.9" font-family="Helvetica,sans-Serif" font-size="12.00" fill="#000000">gsl/gsl_roots.h</text>
</g>
<!-- Node1&#45;&gt;Node23 -->
<g id="edge27" class="edge">
<title>Node1&#45;&gt;Node23</title>
<path fill="none" stroke="#191970" d="M979.2899,-195.4668C939.7142,-183.3303 872.9993,-162.871 829.4856,-149.5268"/>
<polygon fill="#191970" stroke="#191970" points="830.35,-146.1311 819.7633,-146.5453 828.2976,-152.8235 830.35,-146.1311"/>
</g>
<!-- Node1&#45;&gt;Node24 -->
<g id="edge29" class="edge">
<title>Node1&#45;&gt;Node24</title>
<path fill="none" stroke="#191970" d="M1063.0205,-198.9649C1105.2805,-193.8024 1166.9494,-186.8476 1221.0068,-183 1449.9006,-166.7083 2029.2056,-197.7031 2253.0068,-147 2277.9044,-141.3594 2340.5347,-112.2173 2378.122,-94.1172"/>
<polygon fill="#191970" stroke="#191970" points="2380.0763,-97.0599 2387.5538,-89.5541 2377.0277,-90.7586 2380.0763,-97.0599"/>
</g>
<!-- Node3 -->
<g id="node4" class="node">
<title>Node3</title>
<polygon fill="#ffffff" stroke="#bfbfbf" points="1226.6738,-69.5 1226.6738,-89.5 1257.3398,-89.5 1257.3398,-69.5 1226.6738,-69.5"/>
<text text-anchor="middle" x="1242.0068" y="-75.9" font-family="Helvetica,sans-Serif" font-size="12.00" fill="#000000">list</text>
</g>
<!-- Node2&#45;&gt;Node3 -->
<g id="edge3" class="edge">
<title>Node2&#45;&gt;Node3</title>
<path fill="none" stroke="#191970" d="M1297.8498,-126.3095C1287.8899,-117.9608 1273.5934,-105.9769 1261.9593,-96.2249"/>
<polygon fill="#191970" stroke="#191970" points="1263.9708,-93.344 1254.0586,-89.6022 1259.4739,-98.7086 1263.9708,-93.344"/>
</g>
<!-- Node4 -->
<g id="node5" class="node">
<title>Node4</title>
<polygon fill="#ffffff" stroke="#bfbfbf" points="686.667,-69.5 686.667,-89.5 745.3467,-89.5 745.3467,-69.5 686.667,-69.5"/>
<text text-anchor="middle" x="716.0068" y="-75.9" font-family="Helvetica,sans-Serif" font-size="12.00" fill="#000000">valarray</text>
</g>
<!-- Node2&#45;&gt;Node4 -->
<g id="edge4" class="edge">
<title>Node2&#45;&gt;Node4</title>
<path fill="none" stroke="#191970" d="M1247.7425,-132.697C1127.2731,-125.1135 865.2767,-107.4668 755.8024,-89.7918"/>
<polygon fill="#191970" stroke="#191970" points="756.1379,-86.2989 745.6941,-88.0816 754.9701,-93.2009 756.1379,-86.2989"/>
</g>
<!-- Node5 -->
<g id="node6" class="node">
<title>Node5</title>
<polygon fill="#ffffff" stroke="#bfbfbf" points="1313.3428,-69.5 1313.3428,-89.5 1356.6709,-89.5 1356.6709,-69.5 1313.3428,-69.5"/>
<text text-anchor="middle" x="1335.0068" y="-75.9" font-family="Helvetica,sans-Serif" font-size="12.00" fill="#000000">limits</text>
</g>
<!-- Node2&#45;&gt;Node5 -->
<g id="edge5" class="edge">
<title>Node2&#45;&gt;Node5</title>
<path fill="none" stroke="#191970" d="M1314.4763,-126.3095C1317.8181,-118.6903 1322.4878,-108.0435 1326.5294,-98.8285"/>
<polygon fill="#191970" stroke="#191970" points="1329.7646,-100.166 1330.576,-89.6022 1323.3541,-97.3543 1329.7646,-100.166"/>
</g>
<!-- Node2&#45;&gt;Node6 -->
<g id="edge6" class="edge">
<title>Node2&#45;&gt;Node6</title>
<path fill="none" stroke="#191970" d="M1247.7855,-131.8063C1140.8962,-123.5267 925.6503,-105.8538 832.3186,-89.93"/>
<polygon fill="#191970" stroke="#191970" points="832.8084,-86.4621 822.3484,-88.1471 831.5761,-93.3528 832.8084,-86.4621"/>
</g>
<!-- Node2&#45;&gt;Node7 -->
<g id="edge7" class="edge">
<title>Node2&#45;&gt;Node7</title>
<path fill="none" stroke="#191970" d="M1307.8753,-126.2689C1303.7425,-106.4314 1294.5736,-62.4204 1289.1851,-36.5557"/>
<polygon fill="#191970" stroke="#191970" points="1292.599,-35.7812 1287.1329,-26.7052 1285.7461,-37.2089 1292.599,-35.7812"/>
</g>
<!-- Node8 -->
<g id="node9" class="node">
<title>Node8</title>
<polygon fill="#ffffff" stroke="#bfbfbf" points="1374.333,-69.5 1374.333,-89.5 1427.6807,-89.5 1427.6807,-69.5 1374.333,-69.5"/>
<text text-anchor="middle" x="1401.0068" y="-75.9" font-family="Helvetica,sans-Serif" font-size="12.00" fill="#000000">iterator</text>
</g>
<!-- Node2&#45;&gt;Node8 -->
<g id="edge8" class="edge">
<title>Node2&#45;&gt;Node8</title>
<path fill="none" stroke="#191970" d="M1326.2758,-126.3095C1340.1221,-117.6366 1360.2314,-105.0407 1376.1029,-95.0992"/>
<polygon fill="#191970" stroke="#191970" points="1378.2619,-97.8768 1384.8787,-89.6022 1374.546,-91.9445 1378.2619,-97.8768"/>
</g>
<!-- Node9 -->
<g id="node10" class="node">
<title>Node9</title>
<polygon fill="#ffffff" stroke="#bfbfbf" points="1445.6484,-69.5 1445.6484,-89.5 1544.3652,-89.5 1544.3652,-69.5 1445.6484,-69.5"/>
<text text-anchor="middle" x="1495.0068" y="-75.9" font-family="Helvetica,sans-Serif" font-size="12.00" fill="#000000">gsl/gsl_vector.h</text>
</g>
<!-- Node2&#45;&gt;Node9 -->
<g id="edge9" class="edge">
<title>Node2&#45;&gt;Node9</title>
<path fill="none" stroke="#191970" d="M1342.6553,-126.4408C1373.207,-117.0275 1419.0248,-102.9107 1452.4346,-92.6169"/>
<polygon fill="#191970" stroke="#191970" points="1453.8481,-95.8438 1462.3742,-89.5544 1451.7869,-89.1541 1453.8481,-95.8438"/>
</g>
<!-- Node10 -->
<g id="node11" class="node">
<title>Node10</title>
<polygon fill="#ffffff" stroke="#bfbfbf" points="1562.3262,-69.5 1562.3262,-89.5 1661.6875,-89.5 1661.6875,-69.5 1562.3262,-69.5"/>
<text text-anchor="middle" x="1612.0068" y="-75.9" font-family="Helvetica,sans-Serif" font-size="12.00" fill="#000000">gsl/gsl_matrix.h</text>
</g>
<!-- Node2&#45;&gt;Node10 -->
<g id="edge10" class="edge">
<title>Node2&#45;&gt;Node10</title>
<path fill="none" stroke="#191970" d="M1363.3032,-126.4408C1416.2275,-116.4517 1497.2144,-101.1661 1552.2809,-90.7728"/>
<polygon fill="#191970" stroke="#191970" points="1553.0714,-94.1855 1562.2487,-88.8914 1551.7731,-87.3069 1553.0714,-94.1855"/>
</g>
<!-- Node11 -->
<g id="node12" class="node">
<title>Node11</title>
<polygon fill="#ffffff" stroke="#bfbfbf" points="1679.6494,-69.5 1679.6494,-89.5 1774.3643,-89.5 1774.3643,-69.5 1679.6494,-69.5"/>
<text text-anchor="middle" x="1727.0068" y="-75.9" font-family="Helvetica,sans-Serif" font-size="12.00" fill="#000000">gsl/gsl_linalg.h</text>
</g>
<!-- Node2&#45;&gt;Node11 -->
<g id="edge11" class="edge">
<title>Node2&#45;&gt;Node11</title>
<path fill="none" stroke="#191970" d="M1372.1443,-128.542C1463.1494,-116.8813 1625.9644,-95.9957 1669.4743,-90.036"/>
<polygon fill="#191970" stroke="#191970" points="1669.9751,-93.5 1679.3801,-88.6219 1668.9858,-86.5703 1669.9751,-93.5"/>
</g>
<!-- Node12 -->
<g id="node13" class="node">
<title>Node12</title>
<polygon fill="#ffffff" stroke="#bfbfbf" points="1792.6523,-69.5 1792.6523,-89.5 1881.3613,-89.5 1881.3613,-69.5 1792.6523,-69.5"/>
<text text-anchor="middle" x="1837.0068" y="-75.9" font-family="Helvetica,sans-Serif" font-size="12.00" fill="#000000">gsl/gsl_blas.h</text>
</g>
<!-- Node2&#45;&gt;Node12 -->
<g id="edge12" class="edge">
<title>Node2&#45;&gt;Node12</title>
<path fill="none" stroke="#191970" d="M1372.2128,-128.2988C1378.8904,-127.4888 1385.587,-126.7063 1392.0068,-126 1562.2542,-107.2685 1608.5429,-114.4065 1782.5615,-89.9292"/>
<polygon fill="#191970" stroke="#191970" points="1783.1619,-93.3792 1792.5698,-88.5067 1782.1768,-86.4488 1783.1619,-93.3792"/>
</g>
<!-- Node13 -->
<g id="node14" class="node">
<title>Node13</title>
<polygon fill="#ffffff" stroke="#bfbfbf" points="1121.0947,-69.5 1121.0947,-89.5 1208.9189,-89.5 1208.9189,-69.5 1121.0947,-69.5"/>
<text text-anchor="middle" x="1165.0068" y="-75.9" font-family="Helvetica,sans-Serif" font-size="12.00" fill="#000000">gsl/gsl_poly.h</text>
</g>
<!-- Node2&#45;&gt;Node13 -->
<g id="edge13" class="edge">
<title>Node2&#45;&gt;Node13</title>
<path fill="none" stroke="#191970" d="M1284.4175,-126.4408C1261.0597,-117.2587 1226.3173,-103.6013 1200.3211,-93.3822"/>
<polygon fill="#191970" stroke="#191970" points="1201.4153,-90.0516 1190.8281,-89.6504 1198.8543,-96.5663 1201.4153,-90.0516"/>
</g>
<!-- Node14 -->
<g id="node15" class="node">
<title>Node14</title>
<polygon fill="#ffffff" stroke="#bfbfbf" points="2006.668,-69.5 2006.668,-89.5 2061.3457,-89.5 2061.3457,-69.5 2006.668,-69.5"/>
<text text-anchor="middle" x="2034.0068" y="-75.9" font-family="Helvetica,sans-Serif" font-size="12.00" fill="#000000">cassert</text>
</g>
<!-- Node2&#45;&gt;Node14 -->
<g id="edge14" class="edge">
<title>Node2&#45;&gt;Node14</title>
<path fill="none" stroke="#191970" d="M1372.1914,-128.0894C1378.8732,-127.3194 1385.5765,-126.6036 1392.0068,-126 1658.4256,-100.9922 1728.6361,-131.3817 1993.0068,-90 1994.0957,-89.8296 1995.1978,-89.643 1996.3077,-89.4429"/>
<polygon fill="#191970" stroke="#191970" points="1997.2945,-92.8124 2006.3673,-87.3411 1995.8628,-85.9604 1997.2945,-92.8124"/>
</g>
<!-- Node15 -->
<g id="node16" class="node">
<title>Node15</title>
<g id="a_node16"><a xlink:href="SharedLibraryExportMacros_8h_source.html" target="_top" xlink:title="../Core/SharedLibraryExport\lMacros.h">
<polygon fill="#ffffff" stroke="#000000" points="1936.3057,-.5 1936.3057,-32.5 2101.708,-32.5 2101.708,-.5 1936.3057,-.5"/>
<text text-anchor="start" x="1944.3057" y="-18.9" font-family="Helvetica,sans-Serif" font-size="12.00" fill="#000000">../Core/SharedLibraryExport</text>
<text text-anchor="middle" x="2019.0068" y="-6.9" font-family="Helvetica,sans-Serif" font-size="12.00" fill="#000000">Macros.h</text>
</a>
</g>
</g>
<!-- Node2&#45;&gt;Node15 -->
<g id="edge15" class="edge">
<title>Node2&#45;&gt;Node15</title>
<path fill="none" stroke="#191970" d="M1372.1936,-128.1121C1378.8749,-127.3378 1385.5776,-126.6147 1392.0068,-126 1517.9081,-113.9619 1847.7565,-148.2744 1960.0068,-90 1980.3476,-79.4402 1996.0917,-58.4339 2006.1803,-41.573"/>
<polygon fill="#191970" stroke="#191970" points="2009.3093,-43.1504 2011.1964,-32.725 2003.2198,-39.6981 2009.3093,-43.1504"/>
</g>
<!-- Node16 -->
<g id="node17" class="node">
<title>Node16</title>
<g id="a_node17"><a xlink:href="Error_8h.html" target="_top" xlink:title="Defines the exception hierarchy used by this code. ">
<polygon fill="#ffffff" stroke="#000000" points="1898.998,-69.5 1898.998,-89.5 1951.0156,-89.5 1951.0156,-69.5 1898.998,-69.5"/>
<text text-anchor="middle" x="1925.0068" y="-75.9" font-family="Helvetica,sans-Serif" font-size="12.00" fill="#000000">Error.h</text>
</a>
</g>
</g>
<!-- Node2&#45;&gt;Node16 -->
<g id="edge16" class="edge">
<title>Node2&#45;&gt;Node16</title>
<path fill="none" stroke="#191970" d="M1372.1993,-128.1702C1378.8795,-127.3848 1385.5804,-126.6432 1392.0068,-126 1609.5799,-104.2227 1669.992,-129.3658 1888.9151,-89.8454"/>
<polygon fill="#191970" stroke="#191970" points="1889.5781,-93.2823 1898.7849,-88.0396 1888.3183,-86.3966 1889.5781,-93.2823"/>
</g>
<!-- Node2&#45;&gt;Node19 -->
<g id="edge21" class="edge">
<title>Node2&#45;&gt;Node19</title>
<path fill="none" stroke="#191970" d="M1247.8536,-127.531C1179.482,-117.6648 1069.4133,-101.7814 994.7353,-91.0051"/>
<polygon fill="#191970" stroke="#191970" points="994.8382,-87.4838 984.4408,-89.5196 993.8383,-94.412 994.8382,-87.4838"/>
</g>
<!-- Node20 -->
<g id="node21" class="node">
<title>Node20</title>
<g id="a_node21"><a xlink:href="IncludeEigen_8h_source.html" target="_top" xlink:title="IncludeEigen.h">
<polygon fill="#ffffff" stroke="#000000" points="1007.3096,-69.5 1007.3096,-89.5 1102.7041,-89.5 1102.7041,-69.5 1007.3096,-69.5"/>
<text text-anchor="middle" x="1055.0068" y="-75.9" font-family="Helvetica,sans-Serif" font-size="12.00" fill="#000000">IncludeEigen.h</text>
</a>
</g>
</g>
<!-- Node2&#45;&gt;Node20 -->
<g id="edge22" class="edge">
<title>Node2&#45;&gt;Node20</title>
<path fill="none" stroke="#191970" d="M1265.0049,-126.4408C1221.7132,-116.7638 1156.1835,-102.116 1109.8579,-91.7608"/>
<polygon fill="#191970" stroke="#191970" points="1110.5097,-88.3202 1099.987,-89.5544 1108.9826,-95.1516 1110.5097,-88.3202"/>
</g>
<!-- Node16&#45;&gt;Node7 -->
<g id="edge18" class="edge">
<title>Node16&#45;&gt;Node7</title>
<path fill="none" stroke="#191970" d="M1898.7771,-71.0021C1895.8393,-70.2386 1892.8731,-69.5483 1890.0068,-69 1680.6925,-28.9599 1424.7351,-19.4191 1326.2895,-17.1768"/>
<polygon fill="#191970" stroke="#191970" points="1326.2382,-13.675 1316.1654,-16.9596 1326.088,-20.6734 1326.2382,-13.675"/>
</g>
<!-- Node16&#45;&gt;Node15 -->
<g id="edge17" class="edge">
<title>Node16&#45;&gt;Node15</title>
<path fill="none" stroke="#191970" d="M1940.1096,-69.378C1952.5455,-61.0432 1970.6227,-48.9277 1986.3367,-38.3959"/>
<polygon fill="#191970" stroke="#191970" points="1988.4145,-41.2168 1994.7728,-32.742 1984.5173,-35.402 1988.4145,-41.2168"/>
</g>
<!-- Node17 -->
<g id="node18" class="node">
<title>Node17</title>
<polygon fill="#ffffff" stroke="#bfbfbf" points="1851.3223,-6.5 1851.3223,-26.5 1918.6914,-26.5 1918.6914,-6.5 1851.3223,-6.5"/>
<text text-anchor="middle" x="1885.0068" y="-12.9" font-family="Helvetica,sans-Serif" font-size="12.00" fill="#000000">exception</text>
</g>
<!-- Node16&#45;&gt;Node17 -->
<g id="edge19" class="edge">
<title>Node16&#45;&gt;Node17</title>
<path fill="none" stroke="#191970" d="M1918.5801,-69.378C1912.7831,-60.2476 1904.1053,-46.5801 1897.0245,-35.4278"/>
<polygon fill="#191970" stroke="#191970" points="1899.8653,-33.3723 1891.5505,-26.8062 1893.9558,-37.1244 1899.8653,-33.3723"/>
</g>
<!-- Node18 -->
<g id="node19" class="node">
<title>Node18</title>
<polygon fill="#ffffff" stroke="#bfbfbf" points="629.335,-6.5 629.335,-26.5 674.6787,-26.5 674.6787,-6.5 629.335,-6.5"/>
<text text-anchor="middle" x="652.0068" y="-12.9" font-family="Helvetica,sans-Serif" font-size="12.00" fill="#000000">string</text>
</g>
<!-- Node16&#45;&gt;Node18 -->
<g id="edge20" class="edge">
<title>Node16&#45;&gt;Node18</title>
<path fill="none" stroke="#191970" d="M1898.8048,-70.846C1895.8618,-70.1117 1892.8868,-69.471 1890.0068,-69 1648.857,-29.5633 1034.6649,-51.4187 791.0068,-33 754.6935,-30.255 713.2639,-25.0698 685.1511,-21.2418"/>
<polygon fill="#191970" stroke="#191970" points="685.4519,-17.7502 675.067,-19.8491 684.4941,-24.6844 685.4519,-17.7502"/>
</g>
<!-- Node20&#45;&gt;Node21 -->
<g id="edge23" class="edge">
<title>Node20&#45;&gt;Node21</title>
<path fill="none" stroke="#191970" d="M1020.7847,-69.378C984.1419,-58.54 925.8851,-41.3091 885.8936,-29.4806"/>
<polygon fill="#191970" stroke="#191970" points="886.7261,-26.077 876.144,-26.5969 884.7407,-32.7895 886.7261,-26.077"/>
</g>
<!-- Node25&#45;&gt;Node1 -->
<g id="edge31" class="edge">
<title>Node25&#45;&gt;Node1</title>
<path fill="none" stroke="#191970" d="M1295.7312,-264.4668C1235.9827,-252.0492 1134.3126,-230.919 1070.2819,-217.6114"/>
<polygon fill="#191970" stroke="#191970" points="1070.8438,-214.1534 1060.3408,-215.5453 1069.4193,-221.007 1070.8438,-214.1534"/>
</g>
<!-- Node26 -->
<g id="node27" class="node">
<title>Node26</title>
<polygon fill="#ffffff" stroke="#bfbfbf" points="2454.668,-69.5 2454.668,-89.5 2503.3457,-89.5 2503.3457,-69.5 2454.668,-69.5"/>
<text text-anchor="middle" x="2479.0068" y="-75.9" font-family="Helvetica,sans-Serif" font-size="12.00" fill="#000000">cmath</text>
</g>
<!-- Node25&#45;&gt;Node26 -->
<g id="edge32" class="edge">
<title>Node25&#45;&gt;Node26</title>
<path fill="none" stroke="#191970" d="M1393.3885,-270.9226C1571.2488,-257.6352 2178.2737,-208.6912 2362.0068,-147 2397.9218,-134.941 2435.1025,-111.2201 2457.6481,-95.3589"/>
<polygon fill="#191970" stroke="#191970" points="2459.7275,-98.1747 2465.8156,-89.5036 2455.649,-92.4856 2459.7275,-98.1747"/>
</g>
<!-- Node27&#45;&gt;Node1 -->
<g id="edge34" class="edge">
<title>Node27&#45;&gt;Node1</title>
<path fill="none" stroke="#191970" d="M1172.67,-264.4668C1140.0896,-252.5091 1085.4964,-232.4722 1049.1201,-219.1214"/>
<polygon fill="#191970" stroke="#191970" points="1049.9703,-215.7052 1039.3766,-215.5453 1047.5584,-222.2765 1049.9703,-215.7052"/>
</g>
<!-- Node27&#45;&gt;Node14 -->
<g id="edge51" class="edge">
<title>Node27&#45;&gt;Node14</title>
<path fill="none" stroke="#191970" d="M1256.3696,-264.4524C1303.1352,-255.3984 1365.349,-241.4769 1387.0068,-228 1409.2322,-214.17 1402.2498,-195.9365 1425.0068,-183 1644.7232,-58.099 1737.8103,-137.6867 1986.0068,-90 1989.4624,-89.3361 1993.0506,-88.6135 1996.6391,-87.8684"/>
<polygon fill="#191970" stroke="#191970" points="1997.5904,-91.2444 2006.6425,-85.7389 1996.1329,-84.3978 1997.5904,-91.2444"/>
</g>
<!-- Node28 -->
<g id="node29" class="node">
<title>Node28</title>
<g id="a_node29"><a xlink:href="TidalPotentialTerms_8h.html" target="_top" xlink:title="Declare an interface for evaluating the expansion of the tidal potential. ">
<polygon fill="#ffffff" stroke="#000000" points="1230.1943,-189.5 1230.1943,-221.5 1377.8193,-221.5 1377.8193,-189.5 1230.1943,-189.5"/>
<text text-anchor="start" x="1238.1943" y="-207.9" font-family="Helvetica,sans-Serif" font-size="12.00" fill="#000000">../../Evolve/TidalPotential</text>
<text text-anchor="middle" x="1304.0068" y="-195.9" font-family="Helvetica,sans-Serif" font-size="12.00" fill="#000000">Terms.h</text>
</a>
</g>
</g>
<!-- Node27&#45;&gt;Node28 -->
<g id="edge35" class="edge">
<title>Node27&#45;&gt;Node28</title>
<path fill="none" stroke="#191970" d="M1215.3524,-264.3188C1229.9857,-254.6102 1252.4985,-239.6738 1271.1753,-227.2825"/>
<polygon fill="#191970" stroke="#191970" points="1273.3159,-230.0626 1279.7137,-221.6175 1269.4459,-224.2296 1273.3159,-230.0626"/>
</g>
<!-- Node33 -->
<g id="node34" class="node">
<title>Node33</title>
<polygon fill="#ffffff" stroke="#bfbfbf" points="1433.9766,-183.5 1433.9766,-227.5 1556.0371,-227.5 1556.0371,-183.5 1433.9766,-183.5"/>
<text text-anchor="start" x="1441.9766" y="-213.9" font-family="Helvetica,sans-Serif" font-size="12.00" fill="#000000">boost/math/special</text>
<text text-anchor="start" x="1441.9766" y="-201.9" font-family="Helvetica,sans-Serif" font-size="12.00" fill="#000000">_functions/spherical</text>
<text text-anchor="middle" x="1495.0068" y="-189.9" font-family="Helvetica,sans-Serif" font-size="12.00" fill="#000000">_harmonic.hpp</text>
</g>
<!-- Node27&#45;&gt;Node33 -->
<g id="edge50" class="edge">
<title>Node27&#45;&gt;Node33</title>
<path fill="none" stroke="#191970" d="M1253.6412,-264.4588C1298.3657,-255.7764 1363.6463,-242.3838 1420.0068,-228 1421.2664,-227.6785 1422.5365,-227.3497 1423.8146,-227.0145"/>
<polygon fill="#191970" stroke="#191970" points="1424.9869,-230.3234 1433.7278,-224.3362 1423.1611,-223.5656 1424.9869,-230.3234"/>
</g>
<!-- Node28&#45;&gt;Node2 -->
<g id="edge49" class="edge">
<title>Node28&#45;&gt;Node2</title>
<path fill="none" stroke="#191970" d="M1305.3984,-189.4966C1306.2425,-179.7901 1307.3277,-167.3104 1308.233,-156.8996"/>
<polygon fill="#191970" stroke="#191970" points="1311.7452,-156.9098 1309.1247,-146.6441 1304.7715,-156.3033 1311.7452,-156.9098"/>
</g>
<!-- Node28&#45;&gt;Node4 -->
<g id="edge37" class="edge">
<title>Node28&#45;&gt;Node4</title>
<path fill="none" stroke="#191970" d="M1255.8323,-189.3911C1200.8169,-171.5432 1107.8323,-143.039 1026.0068,-126 910.1923,-101.8832 875.9419,-113.2056 755.6852,-89.9013"/>
<polygon fill="#191970" stroke="#191970" points="756.2116,-86.4377 745.7225,-87.9304 754.8531,-93.3046 756.2116,-86.4377"/>
</g>
<!-- Node28&#45;&gt;Node26 -->
<g id="edge36" class="edge">
<title>Node28&#45;&gt;Node26</title>
<path fill="none" stroke="#191970" d="M1377.9839,-190.0058C1393.4595,-187.254 1409.7192,-184.7212 1425.0068,-183 1621.9242,-160.8294 2122.4712,-189.5669 2316.0068,-147 2365.8886,-136.0288 2419.9452,-110.7113 2451.5741,-94.3918"/>
<polygon fill="#191970" stroke="#191970" points="2453.4068,-97.3829 2460.6405,-89.6418 2450.1582,-91.1824 2453.4068,-97.3829"/>
</g>
<!-- Node29 -->
<g id="node30" class="node">
<title>Node29</title>
<g id="a_node30"><a xlink:href="EccentricityExpansionCoefficients_8h.html" target="_top" xlink:title="Declares a class which provides the [ &#160;coefficients]{InclinationEccentricity_pms1}. ">
<polygon fill="#ffffff" stroke="#000000" points="2037.9619,-126.5 2037.9619,-146.5 2244.0518,-146.5 2244.0518,-126.5 2037.9619,-126.5"/>
<text text-anchor="middle" x="2141.0068" y="-132.9" font-family="Helvetica,sans-Serif" font-size="12.00" fill="#000000">EccentricityExpansionCoefficients.h</text>
</a>
</g>
</g>
<!-- Node28&#45;&gt;Node29 -->
<g id="edge38" class="edge">
<title>Node28&#45;&gt;Node29</title>
<path fill="none" stroke="#191970" d="M1378.0183,-190.2955C1393.4914,-187.5227 1409.7414,-184.9081 1425.0068,-183 1637.0012,-156.5014 1886.3121,-144.6375 2027.7868,-139.6927"/>
<polygon fill="#191970" stroke="#191970" points="2027.911,-143.1906 2037.7846,-139.3485 2027.6701,-136.1948 2027.911,-143.1906"/>
</g>
<!-- Node29&#45;&gt;Node6 -->
<g id="edge46" class="edge">
<title>Node29&#45;&gt;Node6</title>
<path fill="none" stroke="#191970" d="M2037.6096,-135.9508C1774.2689,-134.0587 1082.0981,-125.8659 832.8417,-89.9329"/>
<polygon fill="#191970" stroke="#191970" points="833.1417,-86.439 822.7343,-88.4226 832.1072,-93.3621 833.1417,-86.439"/>
</g>
<!-- Node29&#45;&gt;Node7 -->
<g id="edge45" class="edge">
<title>Node29&#45;&gt;Node7</title>
<path fill="none" stroke="#191970" d="M2134.1179,-126.4691C2122.8054,-110.9432 2098.6644,-81.5734 2070.0068,-69 2001.7565,-39.0554 1479.2673,-22.0091 1326.7049,-17.6341"/>
<polygon fill="#191970" stroke="#191970" points="1326.4662,-14.126 1316.371,-17.341 1326.2677,-21.1232 1326.4662,-14.126"/>
</g>
<!-- Node29&#45;&gt;Node14 -->
<g id="edge47" class="edge">
<title>Node29&#45;&gt;Node14</title>
<path fill="none" stroke="#191970" d="M2121.8774,-126.3095C2105.2162,-117.434 2080.8427,-104.4499 2061.9897,-94.4068"/>
<polygon fill="#191970" stroke="#191970" points="2063.4421,-91.2148 2052.9707,-89.6022 2060.1509,-97.3929 2063.4421,-91.2148"/>
</g>
<!-- Node29&#45;&gt;Node15 -->
<g id="edge39" class="edge">
<title>Node29&#45;&gt;Node15</title>
<path fill="none" stroke="#191970" d="M2224.3081,-126.4714C2269.2614,-119.1614 2318.301,-107.4429 2332.0068,-90 2337.7733,-82.6612 2338.036,-76.1246 2332.0068,-69 2317.7769,-52.1845 2199.1846,-35.8907 2112.1691,-26.0288"/>
<polygon fill="#191970" stroke="#191970" points="2112.3179,-22.5236 2101.9902,-24.888 2111.5382,-29.4801 2112.3179,-22.5236"/>
</g>
<!-- Node29&#45;&gt;Node16 -->
<g id="edge40" class="edge">
<title>Node29&#45;&gt;Node16</title>
<path fill="none" stroke="#191970" d="M2102.8876,-126.4408C2062.7787,-115.8565 2000.1352,-99.3255 1960.8894,-88.969"/>
<polygon fill="#191970" stroke="#191970" points="1961.7647,-85.5803 1951.2027,-86.4128 1959.9786,-92.3486 1961.7647,-85.5803"/>
</g>
<!-- Node29&#45;&gt;Node24 -->
<g id="edge43" class="edge">
<title>Node29&#45;&gt;Node24</title>
<path fill="none" stroke="#191970" d="M2191.8247,-126.4754C2237.297,-117.3806 2305.7309,-103.3854 2365.0068,-90 2366.2718,-89.7144 2367.5568,-89.4208 2368.8537,-89.1215"/>
<polygon fill="#191970" stroke="#191970" points="2369.965,-92.4555 2378.8949,-86.754 2368.3586,-85.6423 2369.965,-92.4555"/>
</g>
<!-- Node29&#45;&gt;Node26 -->
<g id="edge44" class="edge">
<title>Node29&#45;&gt;Node26</title>
<path fill="none" stroke="#191970" d="M2231.4643,-126.4855C2290.0226,-119.1193 2367.9787,-107.663 2444.7722,-90.0268"/>
<polygon fill="#191970" stroke="#191970" points="2445.6743,-93.4104 2454.6175,-87.7299 2444.0838,-86.5935 2445.6743,-93.4104"/>
</g>
<!-- Node30 -->
<g id="node31" class="node">
<title>Node30</title>
<polygon fill="#ffffff" stroke="#bfbfbf" points="2116.668,-69.5 2116.668,-89.5 2165.3457,-89.5 2165.3457,-69.5 2116.668,-69.5"/>
<text text-anchor="middle" x="2141.0068" y="-75.9" font-family="Helvetica,sans-Serif" font-size="12.00" fill="#000000">vector</text>
</g>
<!-- Node29&#45;&gt;Node30 -->
<g id="edge41" class="edge">
<title>Node29&#45;&gt;Node30</title>
<path fill="none" stroke="#191970" d="M2141.0068,-126.3095C2141.0068,-118.9335 2141.0068,-108.72 2141.0068,-99.715"/>
<polygon fill="#191970" stroke="#191970" points="2144.5069,-99.6022 2141.0068,-89.6022 2137.5069,-99.6023 2144.5069,-99.6022"/>
</g>
<!-- Node31 -->
<g id="node32" class="node">
<title>Node31</title>
<polygon fill="#ffffff" stroke="#bfbfbf" points="2183.0029,-69.5 2183.0029,-89.5 2239.0107,-89.5 2239.0107,-69.5 2183.0029,-69.5"/>
<text text-anchor="middle" x="2211.0068" y="-75.9" font-family="Helvetica,sans-Serif" font-size="12.00" fill="#000000">fstream</text>
</g>
<!-- Node29&#45;&gt;Node31 -->
<g id="edge42" class="edge">
<title>Node29&#45;&gt;Node31</title>
<path fill="none" stroke="#191970" d="M2153.5214,-126.3095C2163.8738,-117.8798 2178.7775,-105.7439 2190.8155,-95.9415"/>
<polygon fill="#191970" stroke="#191970" points="2193.0562,-98.6306 2198.6006,-89.6022 2188.6362,-93.2025 2193.0562,-98.6306"/>
</g>
<!-- Node32 -->
<g id="node33" class="node">
<title>Node32</title>
<polygon fill="#ffffff" stroke="#bfbfbf" points="2257.3301,-69.5 2257.3301,-89.5 2322.6836,-89.5 2322.6836,-69.5 2257.3301,-69.5"/>
<text text-anchor="middle" x="2290.0068" y="-75.9" font-family="Helvetica,sans-Serif" font-size="12.00" fill="#000000">algorithm</text>
</g>
<!-- Node29&#45;&gt;Node32 -->
<g id="edge48" class="edge">
<title>Node29&#45;&gt;Node32</title>
<path fill="none" stroke="#191970" d="M2167.3021,-126.4408C2191.4844,-117.1898 2227.5416,-103.3961 2254.3183,-93.1527"/>
<polygon fill="#191970" stroke="#191970" points="2255.635,-96.3964 2263.7243,-89.5544 2253.1338,-89.8585 2255.635,-96.3964"/>
</g>
<!-- Node34&#45;&gt;Node4 -->
<g id="edge56" class="edge">
<title>Node34&#45;&gt;Node4</title>
<path fill="none" stroke="#191970" d="M529.0673,-126.4408C570.6923,-115.9887 635.4115,-99.7376 676.7399,-89.36"/>
<polygon fill="#191970" stroke="#191970" points="677.6132,-92.7494 686.4597,-86.9193 675.9084,-85.9602 677.6132,-92.7494"/>
</g>
<!-- Node34&#45;&gt;Node6 -->
<g id="edge57" class="edge">
<title>Node34&#45;&gt;Node6</title>
<path fill="none" stroke="#191970" d="M551.4271,-127.16C603.0088,-119.0742 678.3375,-106.4237 753.1872,-90.0316"/>
<polygon fill="#191970" stroke="#191970" points="754.2567,-93.3796 763.2639,-87.8011 752.7438,-86.5451 754.2567,-93.3796"/>
</g>
<!-- Node34&#45;&gt;Node18 -->
<g id="edge59" class="edge">
<title>Node34&#45;&gt;Node18</title>
<path fill="none" stroke="#191970" d="M500.0037,-126.3832C515.0709,-112.7201 543.2093,-87.9053 569.0068,-69 587.341,-55.5641 609.0882,-41.8846 625.7219,-31.8589"/>
<polygon fill="#191970" stroke="#191970" points="627.5896,-34.8202 634.3826,-26.6897 624.0019,-28.8094 627.5896,-34.8202"/>
</g>
<!-- Node35 -->
<g id="node36" class="node">
<title>Node35</title>
<polygon fill="#ffffff" stroke="#bfbfbf" points="67.9688,-69.5 67.9688,-89.5 228.0449,-89.5 228.0449,-69.5 67.9688,-69.5"/>
<text text-anchor="middle" x="148.0068" y="-75.9" font-family="Helvetica,sans-Serif" font-size="12.00" fill="#000000">../Evolve/StopInformation.h</text>
</g>
<!-- Node34&#45;&gt;Node35 -->
<g id="edge53" class="edge">
<title>Node34&#45;&gt;Node35</title>
<path fill="none" stroke="#191970" d="M428.8278,-126.4408C369.8742,-116.5863 280.0824,-101.5771 217.9753,-91.1956"/>
<polygon fill="#191970" stroke="#191970" points="218.3105,-87.7032 207.8703,-89.5065 217.1564,-94.6074 218.3105,-87.7032"/>
</g>
<!-- Node36 -->
<g id="node37" class="node">
<title>Node36</title>
<polygon fill="#ffffff" stroke="#bfbfbf" points="245.6367,-69.5 245.6367,-89.5 434.377,-89.5 434.377,-69.5 245.6367,-69.5"/>
<text text-anchor="middle" x="340.0068" y="-75.9" font-family="Helvetica,sans-Serif" font-size="12.00" fill="#000000">../Core/AstronomicalConstants.h</text>
</g>
<!-- Node34&#45;&gt;Node36 -->
<g id="edge54" class="edge">
<title>Node34&#45;&gt;Node36</title>
<path fill="none" stroke="#191970" d="M462.7116,-126.4408C438.5293,-117.1898 402.472,-103.3961 375.6954,-93.1527"/>
<polygon fill="#191970" stroke="#191970" points="376.8798,-89.8585 366.2894,-89.5544 374.3787,-96.3964 376.8798,-89.8585"/>
</g>
<!-- Node37 -->
<g id="node38" class="node">
<title>Node37</title>
<polygon fill="#ffffff" stroke="#bfbfbf" points="452.6582,-69.5 452.6582,-89.5 517.3555,-89.5 517.3555,-69.5 452.6582,-69.5"/>
<text text-anchor="middle" x="485.0068" y="-75.9" font-family="Helvetica,sans-Serif" font-size="12.00" fill="#000000">cpptest.h</text>
</g>
<!-- Node34&#45;&gt;Node37 -->
<g id="edge55" class="edge">
<title>Node34&#45;&gt;Node37</title>
<path fill="none" stroke="#191970" d="M488.2917,-126.3095C487.7741,-118.9335 487.0574,-108.72 486.4254,-99.715"/>
<polygon fill="#191970" stroke="#191970" points="489.9073,-99.3327 485.7158,-89.6022 482.9245,-99.8227 489.9073,-99.3327"/>
</g>
<!-- Node38 -->
<g id="node39" class="node">
<title>Node38</title>
<polygon fill="#ffffff" stroke="#bfbfbf" points="0,-69.5 0,-89.5 50.0137,-89.5 50.0137,-69.5 0,-69.5"/>
<text text-anchor="middle" x="25.0068" y="-75.9" font-family="Helvetica,sans-Serif" font-size="12.00" fill="#000000">cstdlib</text>
</g>
<!-- Node34&#45;&gt;Node38 -->
<g id="edge58" class="edge">
<title>Node34&#45;&gt;Node38</title>
<path fill="none" stroke="#191970" d="M426.4747,-133.503C344.3165,-128.7327 195.5511,-117.2287 60.2489,-89.9232"/>
<polygon fill="#191970" stroke="#191970" points="60.6172,-86.4259 50.1177,-87.8434 59.2095,-93.2829 60.6172,-86.4259"/>
</g>
</g>
</svg>
        <g id="navigator" transform="translate(0 0)" fill="#404254">
                <rect fill="#f2f5e9" fill-opacity="0.5" stroke="#606060" stroke-width=".5" x="0" y="0" width="60" height="60"/>
                <use id="zoomplus" xlink:href="#zoomPlus" x="17" y="9" onmousedown="handleZoom(evt,'in')"/>
                <use id="zoomminus" xlink:href="#zoomMin" x="42" y="9" onmousedown="handleZoom(evt,'out')"/>
                <use id="reset" xlink:href="#resetDef" x="30" y="36" onmousedown="handleReset()"/>
                <g id="arrowUp" xlink:href="#dirArrow" transform="translate(30 24)" onmousedown="handlePan(0,-1)">
                  <use xlink:href="#rim" fill="#404040">
                        <set attributeName="fill" to="#808080" begin="arrowUp.mouseover" end="arrowUp.mouseout"/>
                  </use>
                  <path fill="none" stroke="white" stroke-width="1.5" d="M0,-3.0v7 M-2.5,-0.5L0,-3.0L2.5,-0.5"/>
                </g>
                <g id="arrowRight" xlink:href="#dirArrow" transform="rotate(90) translate(36 -43)" onmousedown="handlePan(1,0)">
                  <use xlink:href="#rim" fill="#404040">
                        <set attributeName="fill" to="#808080" begin="arrowRight.mouseover" end="arrowRight.mouseout"/>
                  </use>
                  <path fill="none" stroke="white" stroke-width="1.5" d="M0,-3.0v7 M-2.5,-0.5L0,-3.0L2.5,-0.5"/>
                </g>
                <g id="arrowDown" xlink:href="#dirArrow" transform="rotate(180) translate(-30 -48)" onmousedown="handlePan(0,1)">
                  <use xlink:href="#rim" fill="#404040">
                        <set attributeName="fill" to="#808080" begin="arrowDown.mouseover" end="arrowDown.mouseout"/>
                  </use>
                  <path fill="none" stroke="white" stroke-width="1.5" d="M0,-3.0v7 M-2.5,-0.5L0,-3.0L2.5,-0.5"/>
                </g>
                <g id="arrowLeft" xlink:href="#dirArrow" transform="rotate(270) translate(-36 17)" onmousedown="handlePan(-1,0)">
                  <use xlink:href="#rim" fill="#404040">
                        <set attributeName="fill" to="#808080" begin="arrowLeft.mouseover" end="arrowLeft.mouseout"/>
                  </use>
                  <path fill="none" stroke="white" stroke-width="1.5" d="M0,-3.0v7 M-2.5,-0.5L0,-3.0L2.5,-0.5"/>
                </g>
        </g>
        <svg viewBox="0 0 15 15" width="100%" height="30px" preserveAspectRatio="xMaxYMin meet">
         <g id="arrow_out" transform="scale(0.3 0.3)">
          <a xlink:href="testGravitationalPotential_8h__incl_org.svg" target="_base">
           <rect id="button" ry="5" rx="5" y="6" x="6" height="38" width="38"
                fill="#f2f5e9" fill-opacity="0.5" stroke="#606060" stroke-width="1.0"/>
           <path id="arrow"
             d="M 11.500037,31.436501 C 11.940474,20.09759 22.043105,11.32322 32.158766,21.979434 L 37.068811,17.246167 C 37.068811,17.246167 37.088388,32 37.088388,32 L 22.160133,31.978069 C 22.160133,31.978069 26.997745,27.140456 26.997745,27.140456 C 18.528582,18.264221 13.291696,25.230495 11.500037,31.436501 z"
             style="fill:#404040;"/>
          </a>
         </g>
        </svg>
</svg>
