<?xml version="1.0" encoding="UTF-8" standalone="no"?>
<!DOCTYPE svg PUBLIC "-//W3C//DTD SVG 1.1//EN"
 "http://www.w3.org/Graphics/SVG/1.1/DTD/svg11.dtd">
<!-- Generated by graphviz version 2.40.1 (20161225.0304)
 -->
<!-- Title: /home/kpenev/projects/git/poet/poet_src/unit_tests/testEvolve/TidalPotentialExpansion.cpp Pages: 1 -->
<svg width="2036pt" height="398pt"
 viewBox="0.00 0.00 2035.50 398.00" xmlns="http://www.w3.org/2000/svg" xmlns:xlink="http://www.w3.org/1999/xlink">
<g id="graph0" class="graph" transform="scale(1 1) rotate(0) translate(4 394)">
<title>/home/kpenev/projects/git/poet/poet_src/unit_tests/testEvolve/TidalPotentialExpansion.cpp</title>
<polygon fill="#ffffff" stroke="transparent" points="-4,4 -4,-394 2031.5,-394 2031.5,4 -4,4"/>
<!-- Node0 -->
<g id="node1" class="node">
<title>Node0</title>
<polygon fill="#bfbfbf" stroke="#000000" points="1392,-329.5 1392,-389.5 1576,-389.5 1576,-329.5 1392,-329.5"/>
<text text-anchor="start" x="1400" y="-375.9" font-family="Helvetica,sans-Serif" font-size="12.00" fill="#000000">/home/kpenev/projects</text>
<text text-anchor="start" x="1400" y="-362.9" font-family="Helvetica,sans-Serif" font-size="12.00" fill="#000000">/git/poet/poet_src/unit</text>
<text text-anchor="start" x="1400" y="-349.9" font-family="Helvetica,sans-Serif" font-size="12.00" fill="#000000">_tests/testEvolve/TidalPotential</text>
<text text-anchor="middle" x="1484" y="-336.9" font-family="Helvetica,sans-Serif" font-size="12.00" fill="#000000">Expansion.cpp</text>
</g>
<!-- Node1 -->
<g id="node2" class="node">
<title>Node1</title>
<g id="a_node2"><a xlink:href="TidalPotentialExpansion_8h.html" target="_top" xlink:title="Declare an interface for evaluating the expansion of the tidal potential. ">
<polygon fill="#ffffff" stroke="#000000" points="1405,-271.5 1405,-292.5 1563,-292.5 1563,-271.5 1405,-271.5"/>
<text text-anchor="middle" x="1484" y="-278.9" font-family="Helvetica,sans-Serif" font-size="12.00" fill="#000000">TidalPotentialExpansion.h</text>
</a>
</g>
</g>
<!-- Node0&#45;&gt;Node1 -->
<g id="edge1" class="edge">
<title>Node0&#45;&gt;Node1</title>
<path fill="none" stroke="#191970" d="M1484,-329.3146C1484,-320.4318 1484,-310.9169 1484,-302.7662"/>
<polygon fill="#191970" stroke="#191970" points="1487.5001,-302.6845 1484,-292.6845 1480.5001,-302.6846 1487.5001,-302.6845"/>
</g>
<!-- Node2 -->
<g id="node3" class="node">
<title>Node2</title>
<g id="a_node3"><a xlink:href="EccentricOrbit_8h.html" target="_top" xlink:title="Declare an interface for working with eccentric orbits. ">
<polygon fill="#ffffff" stroke="#000000" points="250.5,-200.5 250.5,-221.5 351.5,-221.5 351.5,-200.5 250.5,-200.5"/>
<text text-anchor="middle" x="301" y="-207.9" font-family="Helvetica,sans-Serif" font-size="12.00" fill="#000000">EccentricOrbit.h</text>
</a>
</g>
</g>
<!-- Node1&#45;&gt;Node2 -->
<g id="edge2" class="edge">
<title>Node1&#45;&gt;Node2</title>
<path fill="none" stroke="#191970" d="M1404.5431,-277.2312C1182.6422,-263.9134 559.6655,-226.5243 361.9939,-214.6607"/>
<polygon fill="#191970" stroke="#191970" points="361.9883,-211.1541 351.7965,-214.0486 361.5688,-218.1415 361.9883,-211.1541"/>
</g>
<!-- Node15 -->
<g id="node16" class="node">
<title>Node15</title>
<polygon fill="#ffffff" stroke="#bfbfbf" points="1415.5,-71.5 1415.5,-92.5 1470.5,-92.5 1470.5,-71.5 1415.5,-71.5"/>
<text text-anchor="middle" x="1443" y="-78.9" font-family="Helvetica,sans-Serif" font-size="12.00" fill="#000000">cassert</text>
</g>
<!-- Node1&#45;&gt;Node15 -->
<g id="edge47" class="edge">
<title>Node1&#45;&gt;Node15</title>
<path fill="none" stroke="#191970" d="M1474.2344,-271.3471C1466.6694,-262.3775 1456.7101,-248.8297 1452,-235 1436.6346,-189.8845 1438.3649,-133.0008 1440.7901,-102.9029"/>
<polygon fill="#191970" stroke="#191970" points="1444.2923,-103.0371 1441.7194,-92.7595 1437.3215,-102.3985 1444.2923,-103.0371"/>
</g>
<!-- Node26 -->
<g id="node27" class="node">
<title>Node26</title>
<g id="a_node27"><a xlink:href="TidalPotentialTerms_8h.html" target="_top" xlink:title="Declare an interface for evaluating the expansion of the tidal potential. ">
<polygon fill="#ffffff" stroke="#000000" points="1460.5,-194 1460.5,-228 1609.5,-228 1609.5,-194 1460.5,-194"/>
<text text-anchor="start" x="1468.5" y="-214.4" font-family="Helvetica,sans-Serif" font-size="12.00" fill="#000000">../../Evolve/TidalPotential</text>
<text text-anchor="middle" x="1535" y="-201.4" font-family="Helvetica,sans-Serif" font-size="12.00" fill="#000000">Terms.h</text>
</a>
</g>
</g>
<!-- Node1&#45;&gt;Node26 -->
<g id="edge31" class="edge">
<title>Node1&#45;&gt;Node26</title>
<path fill="none" stroke="#191970" d="M1491.7458,-271.2166C1498.3381,-262.039 1508.0733,-248.4862 1516.6394,-236.5609"/>
<polygon fill="#191970" stroke="#191970" points="1519.6172,-238.4146 1522.6086,-228.2508 1513.9319,-234.3308 1519.6172,-238.4146"/>
</g>
<!-- Node32 -->
<g id="node33" class="node">
<title>Node32</title>
<polygon fill="#ffffff" stroke="#bfbfbf" points="1627.5,-187.5 1627.5,-234.5 1750.5,-234.5 1750.5,-187.5 1627.5,-187.5"/>
<text text-anchor="start" x="1635.5" y="-220.9" font-family="Helvetica,sans-Serif" font-size="12.00" fill="#000000">boost/math/special</text>
<text text-anchor="start" x="1635.5" y="-207.9" font-family="Helvetica,sans-Serif" font-size="12.00" fill="#000000">_functions/spherical</text>
<text text-anchor="middle" x="1689" y="-194.9" font-family="Helvetica,sans-Serif" font-size="12.00" fill="#000000">_harmonic.hpp</text>
</g>
<!-- Node1&#45;&gt;Node32 -->
<g id="edge46" class="edge">
<title>Node1&#45;&gt;Node32</title>
<path fill="none" stroke="#191970" d="M1514.6906,-271.3706C1541.7462,-262.0001 1582.2162,-247.9836 1617.3523,-235.8146"/>
<polygon fill="#191970" stroke="#191970" points="1618.8016,-239.0167 1627.1055,-232.4366 1616.5107,-232.4021 1618.8016,-239.0167"/>
</g>
<!-- Node3 -->
<g id="node4" class="node">
<title>Node3</title>
<g id="a_node4"><a xlink:href="Core_2Common_8h.html" target="_top" xlink:title="Declaration of some general purpose utilities. ">
<polygon fill="#ffffff" stroke="#000000" points="971,-129.5 971,-150.5 1093,-150.5 1093,-129.5 971,-129.5"/>
<text text-anchor="middle" x="1032" y="-136.9" font-family="Helvetica,sans-Serif" font-size="12.00" fill="#000000">../../Core/Common.h</text>
</a>
</g>
</g>
<!-- Node2&#45;&gt;Node3 -->
<g id="edge3" class="edge">
<title>Node2&#45;&gt;Node3</title>
<path fill="none" stroke="#191970" d="M351.533,-206.0919C478.8771,-193.7233 813.255,-161.2461 960.5671,-146.9381"/>
<polygon fill="#191970" stroke="#191970" points="961.2301,-150.3902 970.8449,-145.9398 960.5534,-143.423 961.2301,-150.3902"/>
</g>
<!-- Node8 -->
<g id="node9" class="node">
<title>Node8</title>
<polygon fill="#ffffff" stroke="#bfbfbf" points="524,-7 524,-28 586,-28 586,-7 524,-7"/>
<text text-anchor="middle" x="555" y="-14.4" font-family="Helvetica,sans-Serif" font-size="12.00" fill="#000000">iostream</text>
</g>
<!-- Node2&#45;&gt;Node8 -->
<g id="edge29" class="edge">
<title>Node2&#45;&gt;Node8</title>
<path fill="none" stroke="#191970" d="M279.2948,-200.4755C233.9952,-177.1747 136.9511,-119.4554 179,-71 189.921,-58.4151 418.0945,-32.341 513.5673,-21.9322"/>
<polygon fill="#191970" stroke="#191970" points="514.1627,-25.3882 523.7265,-20.8292 513.4071,-18.4291 514.1627,-25.3882"/>
</g>
<!-- Node20 -->
<g id="node21" class="node">
<title>Node20</title>
<g id="a_node21"><a xlink:href="AstronomicalConstants_8h.html" target="_top" xlink:title="Defines various astronomical constants. ">
<polygon fill="#ffffff" stroke="#000000" points="188,-71.5 188,-92.5 338,-92.5 338,-71.5 188,-71.5"/>
<text text-anchor="middle" x="263" y="-78.9" font-family="Helvetica,sans-Serif" font-size="12.00" fill="#000000">AstronomicalConstants.h</text>
</a>
</g>
</g>
<!-- Node2&#45;&gt;Node20 -->
<g id="edge25" class="edge">
<title>Node2&#45;&gt;Node20</title>
<path fill="none" stroke="#191970" d="M297.7836,-200.3874C294.1592,-188.4034 288.1068,-168.3157 283,-151 278.2117,-134.7642 272.8793,-116.3501 268.9254,-102.6306"/>
<polygon fill="#191970" stroke="#191970" points="272.2156,-101.4078 266.0868,-92.7656 265.4886,-103.3435 272.2156,-101.4078"/>
</g>
<!-- Node22 -->
<g id="node23" class="node">
<title>Node22</title>
<polygon fill="#ffffff" stroke="#bfbfbf" points="287,-7 287,-28 373,-28 373,-7 287,-7"/>
<text text-anchor="middle" x="330" y="-14.4" font-family="Helvetica,sans-Serif" font-size="12.00" fill="#000000">Eigen/Dense</text>
</g>
<!-- Node2&#45;&gt;Node22 -->
<g id="edge26" class="edge">
<title>Node2&#45;&gt;Node22</title>
<path fill="none" stroke="#191970" d="M258.9964,-200.4707C217.7722,-189.1865 159.2115,-170.2809 146,-151 125.9024,-121.6694 124.6548,-99.4355 146,-71 161.8019,-49.9491 228.3743,-34.4808 276.9127,-25.7369"/>
<polygon fill="#191970" stroke="#191970" points="277.7263,-29.1478 286.9717,-23.9736 276.5176,-22.2529 277.7263,-29.1478"/>
</g>
<!-- Node23 -->
<g id="node24" class="node">
<title>Node23</title>
<polygon fill="#ffffff" stroke="#bfbfbf" points="291.5,-129.5 291.5,-150.5 386.5,-150.5 386.5,-129.5 291.5,-129.5"/>
<text text-anchor="middle" x="339" y="-136.9" font-family="Helvetica,sans-Serif" font-size="12.00" fill="#000000">gsl/gsl_errno.h</text>
</g>
<!-- Node2&#45;&gt;Node23 -->
<g id="edge27" class="edge">
<title>Node2&#45;&gt;Node23</title>
<path fill="none" stroke="#191970" d="M306.7714,-200.2166C312.4629,-189.5825 321.2984,-173.0741 328.2798,-160.0299"/>
<polygon fill="#191970" stroke="#191970" points="331.5413,-161.3531 333.1743,-150.8849 325.3697,-158.0499 331.5413,-161.3531"/>
</g>
<!-- Node24 -->
<g id="node25" class="node">
<title>Node24</title>
<polygon fill="#ffffff" stroke="#bfbfbf" points="0,-129.5 0,-150.5 94,-150.5 94,-129.5 0,-129.5"/>
<text text-anchor="middle" x="47" y="-136.9" font-family="Helvetica,sans-Serif" font-size="12.00" fill="#000000">gsl/gsl_roots.h</text>
</g>
<!-- Node2&#45;&gt;Node24 -->
<g id="edge28" class="edge">
<title>Node2&#45;&gt;Node24</title>
<path fill="none" stroke="#191970" d="M263.2479,-200.4472C218.3846,-187.9067 143.4761,-166.9677 94.659,-153.322"/>
<polygon fill="#191970" stroke="#191970" points="95.5324,-149.932 84.9593,-150.6107 93.6479,-156.6736 95.5324,-149.932"/>
</g>
<!-- Node25 -->
<g id="node26" class="node">
<title>Node25</title>
<polygon fill="#ffffff" stroke="#bfbfbf" points="1488.5,-71.5 1488.5,-92.5 1547.5,-92.5 1547.5,-71.5 1488.5,-71.5"/>
<text text-anchor="middle" x="1518" y="-78.9" font-family="Helvetica,sans-Serif" font-size="12.00" fill="#000000">iomanip</text>
</g>
<!-- Node2&#45;&gt;Node25 -->
<g id="edge30" class="edge">
<title>Node2&#45;&gt;Node25</title>
<path fill="none" stroke="#191970" d="M351.7346,-208.5674C478.53,-202.1908 819.3484,-183.2221 1102,-151 1267.5741,-132.1247 1312.2869,-129.6865 1478.1639,-93.2343"/>
<polygon fill="#191970" stroke="#191970" points="1479.212,-96.5873 1488.223,-91.0149 1477.7038,-89.7517 1479.212,-96.5873"/>
</g>
<!-- Node4 -->
<g id="node5" class="node">
<title>Node4</title>
<polygon fill="#ffffff" stroke="#bfbfbf" points="1149,-71.5 1149,-92.5 1181,-92.5 1181,-71.5 1149,-71.5"/>
<text text-anchor="middle" x="1165" y="-78.9" font-family="Helvetica,sans-Serif" font-size="12.00" fill="#000000">list</text>
</g>
<!-- Node3&#45;&gt;Node4 -->
<g id="edge4" class="edge">
<title>Node3&#45;&gt;Node4</title>
<path fill="none" stroke="#191970" d="M1056.4613,-129.3883C1076.4772,-120.6978 1105.7514,-107.971 1139.2959,-93.2985"/>
<polygon fill="#191970" stroke="#191970" points="1141.1083,-96.3259 1148.8662,-89.1103 1138.3019,-89.9131 1141.1083,-96.3259"/>
</g>
<!-- Node5 -->
<g id="node6" class="node">
<title>Node5</title>
<polygon fill="#ffffff" stroke="#bfbfbf" points="1261.5,-71.5 1261.5,-92.5 1320.5,-92.5 1320.5,-71.5 1261.5,-71.5"/>
<text text-anchor="middle" x="1291" y="-78.9" font-family="Helvetica,sans-Serif" font-size="12.00" fill="#000000">valarray</text>
</g>
<!-- Node3&#45;&gt;Node5 -->
<g id="edge5" class="edge">
<title>Node3&#45;&gt;Node5</title>
<path fill="none" stroke="#191970" d="M1086.0178,-129.4705C1128.4212,-120.9753 1189.1508,-108.3055 1251.264,-93.0729"/>
<polygon fill="#191970" stroke="#191970" points="1252.3741,-96.4039 1261.242,-90.6064 1250.6943,-89.6085 1252.3741,-96.4039"/>
</g>
<!-- Node6 -->
<g id="node7" class="node">
<title>Node6</title>
<polygon fill="#ffffff" stroke="#bfbfbf" points="1199,-71.5 1199,-92.5 1243,-92.5 1243,-71.5 1199,-71.5"/>
<text text-anchor="middle" x="1221" y="-78.9" font-family="Helvetica,sans-Serif" font-size="12.00" fill="#000000">limits</text>
</g>
<!-- Node3&#45;&gt;Node6 -->
<g id="edge6" class="edge">
<title>Node3&#45;&gt;Node6</title>
<path fill="none" stroke="#191970" d="M1069.5199,-129.4325C1099.5701,-120.8364 1143.0014,-108.1183 1189.1279,-93.1868"/>
<polygon fill="#191970" stroke="#191970" points="1190.2721,-96.4951 1198.6962,-90.0698 1188.1039,-89.8394 1190.2721,-96.4951"/>
</g>
<!-- Node7 -->
<g id="node8" class="node">
<title>Node7</title>
<polygon fill="#ffffff" stroke="#bfbfbf" points="1338.5,-71.5 1338.5,-92.5 1397.5,-92.5 1397.5,-71.5 1338.5,-71.5"/>
<text text-anchor="middle" x="1368" y="-78.9" font-family="Helvetica,sans-Serif" font-size="12.00" fill="#000000">sstream</text>
</g>
<!-- Node3&#45;&gt;Node7 -->
<g id="edge7" class="edge">
<title>Node3&#45;&gt;Node7</title>
<path fill="none" stroke="#191970" d="M1093.2043,-132.6293C1151.4974,-125.0945 1241.831,-112.0831 1328.2484,-93.2111"/>
<polygon fill="#191970" stroke="#191970" points="1329.2136,-96.5822 1338.2204,-91.003 1327.7002,-89.7478 1329.2136,-96.5822"/>
</g>
<!-- Node3&#45;&gt;Node8 -->
<g id="edge8" class="edge">
<title>Node3&#45;&gt;Node8</title>
<path fill="none" stroke="#191970" d="M970.8762,-139.1273C838.0005,-136.5958 532.2058,-127.0899 501,-93 483.8051,-74.2159 508.4141,-49.8538 529.7695,-33.9575"/>
<polygon fill="#191970" stroke="#191970" points="531.8751,-36.755 537.9965,-28.1075 527.8185,-31.0502 531.8751,-36.755"/>
</g>
<!-- Node9 -->
<g id="node10" class="node">
<title>Node9</title>
<polygon fill="#ffffff" stroke="#bfbfbf" points="509.5,-71.5 509.5,-92.5 562.5,-92.5 562.5,-71.5 509.5,-71.5"/>
<text text-anchor="middle" x="536" y="-78.9" font-family="Helvetica,sans-Serif" font-size="12.00" fill="#000000">iterator</text>
</g>
<!-- Node3&#45;&gt;Node9 -->
<g id="edge9" class="edge">
<title>Node3&#45;&gt;Node9</title>
<path fill="none" stroke="#191970" d="M970.7875,-137.5372C884.0934,-133.2146 720.6048,-121.992 572.7536,-92.7967"/>
<polygon fill="#191970" stroke="#191970" points="573.0813,-89.2927 562.588,-90.7556 571.7033,-96.1557 573.0813,-89.2927"/>
</g>
<!-- Node10 -->
<g id="node11" class="node">
<title>Node10</title>
<polygon fill="#ffffff" stroke="#bfbfbf" points="581,-71.5 581,-92.5 681,-92.5 681,-71.5 581,-71.5"/>
<text text-anchor="middle" x="631" y="-78.9" font-family="Helvetica,sans-Serif" font-size="12.00" fill="#000000">gsl/gsl_vector.h</text>
</g>
<!-- Node3&#45;&gt;Node10 -->
<g id="edge10" class="edge">
<title>Node3&#45;&gt;Node10</title>
<path fill="none" stroke="#191970" d="M970.7069,-132.4729C904.3072,-124.1168 795.0112,-109.7778 691.2101,-93.1418"/>
<polygon fill="#191970" stroke="#191970" points="691.6133,-89.6617 681.1836,-91.5249 690.4988,-96.5724 691.6133,-89.6617"/>
</g>
<!-- Node11 -->
<g id="node12" class="node">
<title>Node11</title>
<polygon fill="#ffffff" stroke="#bfbfbf" points="699,-71.5 699,-92.5 799,-92.5 799,-71.5 699,-71.5"/>
<text text-anchor="middle" x="749" y="-78.9" font-family="Helvetica,sans-Serif" font-size="12.00" fill="#000000">gsl/gsl_matrix.h</text>
</g>
<!-- Node3&#45;&gt;Node11 -->
<g id="edge11" class="edge">
<title>Node3&#45;&gt;Node11</title>
<path fill="none" stroke="#191970" d="M980.7508,-129.4966C932.518,-119.6115 860.2737,-104.8052 809.2916,-94.3566"/>
<polygon fill="#191970" stroke="#191970" points="809.8912,-90.9068 799.3921,-92.3277 808.4857,-97.7643 809.8912,-90.9068"/>
</g>
<!-- Node12 -->
<g id="node13" class="node">
<title>Node12</title>
<polygon fill="#ffffff" stroke="#bfbfbf" points="817.5,-71.5 817.5,-92.5 914.5,-92.5 914.5,-71.5 817.5,-71.5"/>
<text text-anchor="middle" x="866" y="-78.9" font-family="Helvetica,sans-Serif" font-size="12.00" fill="#000000">gsl/gsl_linalg.h</text>
</g>
<!-- Node3&#45;&gt;Node12 -->
<g id="edge12" class="edge">
<title>Node3&#45;&gt;Node12</title>
<path fill="none" stroke="#191970" d="M1001.9387,-129.4966C974.9933,-120.082 935.2725,-106.2036 905.7178,-95.8773"/>
<polygon fill="#191970" stroke="#191970" points="906.7126,-92.5174 896.1177,-92.5231 904.4036,-99.1257 906.7126,-92.5174"/>
</g>
<!-- Node13 -->
<g id="node14" class="node">
<title>Node13</title>
<polygon fill="#ffffff" stroke="#bfbfbf" points="933,-71.5 933,-92.5 1023,-92.5 1023,-71.5 933,-71.5"/>
<text text-anchor="middle" x="978" y="-78.9" font-family="Helvetica,sans-Serif" font-size="12.00" fill="#000000">gsl/gsl_blas.h</text>
</g>
<!-- Node3&#45;&gt;Node13 -->
<g id="edge13" class="edge">
<title>Node3&#45;&gt;Node13</title>
<path fill="none" stroke="#191970" d="M1022.0956,-129.3619C1014.4836,-121.1861 1003.792,-109.7025 994.843,-100.0907"/>
<polygon fill="#191970" stroke="#191970" points="997.2175,-97.5046 987.8416,-92.5707 992.0942,-102.2746 997.2175,-97.5046"/>
</g>
<!-- Node14 -->
<g id="node15" class="node">
<title>Node14</title>
<polygon fill="#ffffff" stroke="#bfbfbf" points="1041,-71.5 1041,-92.5 1131,-92.5 1131,-71.5 1041,-71.5"/>
<text text-anchor="middle" x="1086" y="-78.9" font-family="Helvetica,sans-Serif" font-size="12.00" fill="#000000">gsl/gsl_poly.h</text>
</g>
<!-- Node3&#45;&gt;Node14 -->
<g id="edge14" class="edge">
<title>Node3&#45;&gt;Node14</title>
<path fill="none" stroke="#191970" d="M1041.9044,-129.3619C1049.5164,-121.1861 1060.208,-109.7025 1069.157,-100.0907"/>
<polygon fill="#191970" stroke="#191970" points="1071.9058,-102.2746 1076.1584,-92.5707 1066.7825,-97.5046 1071.9058,-102.2746"/>
</g>
<!-- Node3&#45;&gt;Node15 -->
<g id="edge15" class="edge">
<title>Node3&#45;&gt;Node15</title>
<path fill="none" stroke="#191970" d="M1093.2677,-135.5734C1165.8494,-129.606 1290.4539,-117.0888 1405.2088,-93.1301"/>
<polygon fill="#191970" stroke="#191970" points="1406.1607,-96.5061 1415.216,-91.0059 1404.7072,-89.6587 1406.1607,-96.5061"/>
</g>
<!-- Node16 -->
<g id="node17" class="node">
<title>Node16</title>
<g id="a_node17"><a xlink:href="SharedLibraryExportMacros_8h_source.html" target="_top" xlink:title="../Core/SharedLibraryExport\lMacros.h">
<polygon fill="#ffffff" stroke="#000000" points="1641.5,-.5 1641.5,-34.5 1806.5,-34.5 1806.5,-.5 1641.5,-.5"/>
<text text-anchor="start" x="1649.5" y="-20.9" font-family="Helvetica,sans-Serif" font-size="12.00" fill="#000000">../Core/SharedLibraryExport</text>
<text text-anchor="middle" x="1724" y="-7.9" font-family="Helvetica,sans-Serif" font-size="12.00" fill="#000000">Macros.h</text>
</a>
</g>
</g>
<!-- Node3&#45;&gt;Node16 -->
<g id="edge16" class="edge">
<title>Node3&#45;&gt;Node16</title>
<path fill="none" stroke="#191970" d="M1093.0047,-138.3344C1242.2827,-133.8567 1617.4059,-120.0292 1667,-93 1686.9551,-82.1243 1701.9913,-60.947 1711.5959,-43.7823"/>
<polygon fill="#191970" stroke="#191970" points="1714.7913,-45.2266 1716.3698,-34.75 1708.6025,-41.9556 1714.7913,-45.2266"/>
</g>
<!-- Node17 -->
<g id="node18" class="node">
<title>Node17</title>
<g id="a_node18"><a xlink:href="Error_8h.html" target="_top" xlink:title="Defines the exception hierarchy used by this code. ">
<polygon fill="#ffffff" stroke="#000000" points="1604.5,-71.5 1604.5,-92.5 1657.5,-92.5 1657.5,-71.5 1604.5,-71.5"/>
<text text-anchor="middle" x="1631" y="-78.9" font-family="Helvetica,sans-Serif" font-size="12.00" fill="#000000">Error.h</text>
</a>
</g>
</g>
<!-- Node3&#45;&gt;Node17 -->
<g id="edge17" class="edge">
<title>Node3&#45;&gt;Node17</title>
<path fill="none" stroke="#191970" d="M1093.1484,-135.6881C1191.1961,-128.513 1389.5732,-112.9211 1557,-93 1569.1699,-91.552 1582.422,-89.677 1594.3051,-87.8864"/>
<polygon fill="#191970" stroke="#191970" points="1594.9803,-91.3239 1604.3338,-86.3476 1593.9186,-84.4049 1594.9803,-91.3239"/>
</g>
<!-- Node3&#45;&gt;Node20 -->
<g id="edge22" class="edge">
<title>Node3&#45;&gt;Node20</title>
<path fill="none" stroke="#191970" d="M970.9547,-137.0783C852.8316,-131.1485 584.5549,-116.3371 348.2419,-93.0728"/>
<polygon fill="#191970" stroke="#191970" points="348.3759,-89.5691 338.0793,-92.0651 347.6851,-96.5349 348.3759,-89.5691"/>
</g>
<!-- Node21 -->
<g id="node22" class="node">
<title>Node21</title>
<g id="a_node22"><a xlink:href="IncludeEigen_8h_source.html" target="_top" xlink:title="IncludeEigen.h">
<polygon fill="#ffffff" stroke="#000000" points="355.5,-71.5 355.5,-92.5 452.5,-92.5 452.5,-71.5 355.5,-71.5"/>
<text text-anchor="middle" x="404" y="-78.9" font-family="Helvetica,sans-Serif" font-size="12.00" fill="#000000">IncludeEigen.h</text>
</a>
</g>
</g>
<!-- Node3&#45;&gt;Node21 -->
<g id="edge23" class="edge">
<title>Node3&#45;&gt;Node21</title>
<path fill="none" stroke="#191970" d="M970.7763,-136.7151C866.8856,-130.737 649.5583,-116.4825 467,-93 465.6992,-92.8327 464.3843,-92.6574 463.0593,-92.4752"/>
<polygon fill="#191970" stroke="#191970" points="463.1762,-88.9548 452.7732,-90.9617 462.1571,-95.8802 463.1762,-88.9548"/>
</g>
<!-- Node17&#45;&gt;Node8 -->
<g id="edge19" class="edge">
<title>Node17&#45;&gt;Node8</title>
<path fill="none" stroke="#191970" d="M1604.2679,-73.9623C1599.5506,-72.7929 1594.6587,-71.7369 1590,-71 1393.3954,-39.9007 763.5138,-22.5951 596.1564,-18.4704"/>
<polygon fill="#191970" stroke="#191970" points="596.1183,-14.9685 586.0358,-18.2232 595.9473,-21.9664 596.1183,-14.9685"/>
</g>
<!-- Node17&#45;&gt;Node16 -->
<g id="edge18" class="edge">
<title>Node17&#45;&gt;Node16</title>
<path fill="none" stroke="#191970" d="M1646.3571,-71.3491C1658.3463,-63.034 1675.4476,-51.1734 1690.5503,-40.699"/>
<polygon fill="#191970" stroke="#191970" points="1692.9354,-43.3042 1699.1579,-34.7292 1688.9461,-37.5522 1692.9354,-43.3042"/>
</g>
<!-- Node18 -->
<g id="node19" class="node">
<title>Node18</title>
<polygon fill="#ffffff" stroke="#bfbfbf" points="1555,-7 1555,-28 1623,-28 1623,-7 1555,-7"/>
<text text-anchor="middle" x="1589" y="-14.4" font-family="Helvetica,sans-Serif" font-size="12.00" fill="#000000">exception</text>
</g>
<!-- Node17&#45;&gt;Node18 -->
<g id="edge20" class="edge">
<title>Node17&#45;&gt;Node18</title>
<path fill="none" stroke="#191970" d="M1624.0646,-71.3491C1617.9609,-61.9757 1608.9235,-48.0969 1601.5525,-36.777"/>
<polygon fill="#191970" stroke="#191970" points="1604.4759,-34.8524 1596.0861,-28.3823 1598.6099,-38.6721 1604.4759,-34.8524"/>
</g>
<!-- Node19 -->
<g id="node20" class="node">
<title>Node19</title>
<polygon fill="#ffffff" stroke="#bfbfbf" points="1491,-7 1491,-28 1537,-28 1537,-7 1491,-7"/>
<text text-anchor="middle" x="1514" y="-14.4" font-family="Helvetica,sans-Serif" font-size="12.00" fill="#000000">string</text>
</g>
<!-- Node17&#45;&gt;Node19 -->
<g id="edge21" class="edge">
<title>Node17&#45;&gt;Node19</title>
<path fill="none" stroke="#191970" d="M1611.9415,-71.4934C1592.9893,-61.0454 1563.699,-44.8982 1542.0837,-32.9821"/>
<polygon fill="#191970" stroke="#191970" points="1543.4975,-29.7649 1533.0503,-28.0021 1540.118,-35.895 1543.4975,-29.7649"/>
</g>
<!-- Node21&#45;&gt;Node22 -->
<g id="edge24" class="edge">
<title>Node21&#45;&gt;Node22</title>
<path fill="none" stroke="#191970" d="M391.7804,-71.3491C380.426,-61.4524 363.3094,-46.5332 349.97,-34.9063"/>
<polygon fill="#191970" stroke="#191970" points="352.0759,-32.0989 342.2377,-28.1667 347.4764,-37.3758 352.0759,-32.0989"/>
</g>
<!-- Node26&#45;&gt;Node3 -->
<g id="edge45" class="edge">
<title>Node26&#45;&gt;Node3</title>
<path fill="none" stroke="#191970" d="M1460.239,-200.4472C1363.9924,-186.8617 1197.9183,-163.4199 1103.354,-150.0718"/>
<polygon fill="#191970" stroke="#191970" points="1103.6998,-146.586 1093.3087,-148.6539 1102.7213,-153.5173 1103.6998,-146.586"/>
</g>
<!-- Node26&#45;&gt;Node5 -->
<g id="edge33" class="edge">
<title>Node26&#45;&gt;Node5</title>
<path fill="none" stroke="#191970" d="M1502.5987,-193.8698C1454.7935,-168.5957 1366.0821,-121.695 1320.1898,-97.4323"/>
<polygon fill="#191970" stroke="#191970" points="1321.5533,-94.1942 1311.0769,-92.6144 1318.2816,-100.3825 1321.5533,-94.1942"/>
</g>
<!-- Node27 -->
<g id="node28" class="node">
<title>Node27</title>
<polygon fill="#ffffff" stroke="#bfbfbf" points="1978.5,-71.5 1978.5,-92.5 2027.5,-92.5 2027.5,-71.5 1978.5,-71.5"/>
<text text-anchor="middle" x="2003" y="-78.9" font-family="Helvetica,sans-Serif" font-size="12.00" fill="#000000">cmath</text>
</g>
<!-- Node26&#45;&gt;Node27 -->
<g id="edge32" class="edge">
<title>Node26&#45;&gt;Node27</title>
<path fill="none" stroke="#191970" d="M1594.1672,-193.9674C1602.4993,-191.6061 1610.9612,-189.2277 1619,-187 1771.0349,-144.8675 1812.8468,-138.9264 1968.2501,-93.1255"/>
<polygon fill="#191970" stroke="#191970" points="1969.5649,-96.3867 1978.1626,-90.1956 1967.5807,-89.6738 1969.5649,-96.3867"/>
</g>
<!-- Node28 -->
<g id="node29" class="node">
<title>Node28</title>
<g id="a_node29"><a xlink:href="EccentricityExpansionCoefficients_8h.html" target="_top" xlink:title="Declares a class which provides the [ &#160;coefficients]{InclinationEccentricity_pms1}. ">
<polygon fill="#ffffff" stroke="#000000" points="1527,-129.5 1527,-150.5 1735,-150.5 1735,-129.5 1527,-129.5"/>
<text text-anchor="middle" x="1631" y="-136.9" font-family="Helvetica,sans-Serif" font-size="12.00" fill="#000000">EccentricityExpansionCoefficients.h</text>
</a>
</g>
</g>
<!-- Node26&#45;&gt;Node28 -->
<g id="edge34" class="edge">
<title>Node26&#45;&gt;Node28</title>
<path fill="none" stroke="#191970" d="M1558.2389,-193.8129C1573.4539,-182.5601 1593.2397,-167.9269 1608.3373,-156.7609"/>
<polygon fill="#191970" stroke="#191970" points="1610.656,-159.3993 1616.6149,-150.639 1606.4936,-153.7713 1610.656,-159.3993"/>
</g>
<!-- Node28&#45;&gt;Node7 -->
<g id="edge42" class="edge">
<title>Node28&#45;&gt;Node7</title>
<path fill="none" stroke="#191970" d="M1575.5301,-129.4533C1532.2752,-120.9802 1470.5022,-108.3375 1407.47,-93.0007"/>
<polygon fill="#191970" stroke="#191970" points="1408.3011,-89.6009 1397.7552,-90.6177 1406.6334,-96.3994 1408.3011,-89.6009"/>
</g>
<!-- Node28&#45;&gt;Node8 -->
<g id="edge41" class="edge">
<title>Node28&#45;&gt;Node8</title>
<path fill="none" stroke="#191970" d="M1623.5967,-129.4351C1611.6861,-113.4302 1586.5838,-83.574 1557,-71 1467.6403,-33.0196 773.9732,-20.6158 596.3319,-18.0459"/>
<polygon fill="#191970" stroke="#191970" points="596.1494,-14.543 586.1007,-17.9006 596.0499,-21.5423 596.1494,-14.543"/>
</g>
<!-- Node28&#45;&gt;Node15 -->
<g id="edge43" class="edge">
<title>Node28&#45;&gt;Node15</title>
<path fill="none" stroke="#191970" d="M1596.9546,-129.4966C1564.0177,-119.3353 1514.226,-103.974 1480.2472,-93.4912"/>
<polygon fill="#191970" stroke="#191970" points="1481.2659,-90.1427 1470.6785,-90.5391 1479.2022,-96.8316 1481.2659,-90.1427"/>
</g>
<!-- Node28&#45;&gt;Node16 -->
<g id="edge35" class="edge">
<title>Node28&#45;&gt;Node16</title>
<path fill="none" stroke="#191970" d="M1653.8485,-129.472C1668.933,-121.4444 1688.05,-109.0399 1700,-93 1710.5488,-78.8409 1716.5531,-59.8966 1719.918,-44.5269"/>
<polygon fill="#191970" stroke="#191970" points="1723.383,-45.0434 1721.8493,-34.5602 1716.5108,-43.7117 1723.383,-45.0434"/>
</g>
<!-- Node28&#45;&gt;Node17 -->
<g id="edge36" class="edge">
<title>Node28&#45;&gt;Node17</title>
<path fill="none" stroke="#191970" d="M1631,-129.3619C1631,-121.9219 1631,-111.7427 1631,-102.7276"/>
<polygon fill="#191970" stroke="#191970" points="1634.5001,-102.5706 1631,-92.5707 1627.5001,-102.5707 1634.5001,-102.5706"/>
</g>
<!-- Node28&#45;&gt;Node25 -->
<g id="edge39" class="edge">
<title>Node28&#45;&gt;Node25</title>
<path fill="none" stroke="#191970" d="M1610.5366,-129.4966C1592.9669,-120.4786 1567.4179,-107.3649 1547.6149,-97.2006"/>
<polygon fill="#191970" stroke="#191970" points="1549.1879,-94.0738 1538.6931,-92.6212 1545.9914,-100.3014 1549.1879,-94.0738"/>
</g>
<!-- Node28&#45;&gt;Node27 -->
<g id="edge40" class="edge">
<title>Node28&#45;&gt;Node27</title>
<path fill="none" stroke="#191970" d="M1735.0294,-130.2888C1799.7471,-123.1271 1884.7173,-111.6983 1968.3333,-92.8335"/>
<polygon fill="#191970" stroke="#191970" points="1969.293,-96.2043 1978.2576,-90.5575 1967.7282,-89.3814 1969.293,-96.2043"/>
</g>
<!-- Node29 -->
<g id="node30" class="node">
<title>Node29</title>
<polygon fill="#ffffff" stroke="#bfbfbf" points="1752.5,-71.5 1752.5,-92.5 1801.5,-92.5 1801.5,-71.5 1752.5,-71.5"/>
<text text-anchor="middle" x="1777" y="-78.9" font-family="Helvetica,sans-Serif" font-size="12.00" fill="#000000">vector</text>
</g>
<!-- Node28&#45;&gt;Node29 -->
<g id="edge37" class="edge">
<title>Node28&#45;&gt;Node29</title>
<path fill="none" stroke="#191970" d="M1657.4395,-129.4966C1681.3394,-120.0022 1716.6668,-105.968 1742.7268,-95.6154"/>
<polygon fill="#191970" stroke="#191970" points="1744.2163,-98.7898 1752.2176,-91.8451 1741.6319,-92.2843 1744.2163,-98.7898"/>
</g>
<!-- Node30 -->
<g id="node31" class="node">
<title>Node30</title>
<polygon fill="#ffffff" stroke="#bfbfbf" points="1820,-71.5 1820,-92.5 1876,-92.5 1876,-71.5 1820,-71.5"/>
<text text-anchor="middle" x="1848" y="-78.9" font-family="Helvetica,sans-Serif" font-size="12.00" fill="#000000">fstream</text>
</g>
<!-- Node28&#45;&gt;Node30 -->
<g id="edge38" class="edge">
<title>Node28&#45;&gt;Node30</title>
<path fill="none" stroke="#191970" d="M1672.9337,-129.4749C1707.3413,-120.7436 1757.5581,-107.7844 1809.9431,-93.2395"/>
<polygon fill="#191970" stroke="#191970" points="1811.0541,-96.5634 1819.7465,-90.5059 1809.1738,-89.8206 1811.0541,-96.5634"/>
</g>
<!-- Node31 -->
<g id="node32" class="node">
<title>Node31</title>
<polygon fill="#ffffff" stroke="#bfbfbf" points="1894,-71.5 1894,-92.5 1960,-92.5 1960,-71.5 1894,-71.5"/>
<text text-anchor="middle" x="1927" y="-78.9" font-family="Helvetica,sans-Serif" font-size="12.00" fill="#000000">algorithm</text>
</g>
<!-- Node28&#45;&gt;Node31 -->
<g id="edge44" class="edge">
<title>Node28&#45;&gt;Node31</title>
<path fill="none" stroke="#191970" d="M1695.2005,-129.4581C1744.3975,-121.073 1814.1606,-108.5235 1883.7649,-93.1723"/>
<polygon fill="#191970" stroke="#191970" points="1884.582,-96.5761 1893.5831,-90.9877 1883.0616,-89.7432 1884.582,-96.5761"/>
</g>
</g>
</svg>
