<?xml version="1.0" encoding="UTF-8" standalone="no"?>
<!DOCTYPE svg PUBLIC "-//W3C//DTD SVG 1.1//EN"
 "http://www.w3.org/Graphics/SVG/1.1/DTD/svg11.dtd">
<!-- Generated by graphviz version 2.40.1 (20161225.0304)
 -->
<!-- Title: /Users/kpenev/projects/git/poet/poet_src/unit_tests/testEvolve/TransformedSolution.h Pages: 1 -->
<svg width="1566pt" height="305pt"
 viewBox="0.00 0.00 1566.00 305.00" xmlns="http://www.w3.org/2000/svg" xmlns:xlink="http://www.w3.org/1999/xlink">
<g id="graph0" class="graph" transform="scale(1 1) rotate(0) translate(4 301)">
<title>/Users/kpenev/projects/git/poet/poet_src/unit_tests/testEvolve/TransformedSolution.h</title>
<polygon fill="#ffffff" stroke="transparent" points="-4,4 -4,-301 1562.0049,-301 1562.0049,4 -4,4"/>
<!-- Node0 -->
<g id="node1" class="node">
<title>Node0</title>
<polygon fill="#bfbfbf" stroke="#000000" points="518.834,-252.5 518.834,-296.5 749.832,-296.5 749.832,-252.5 518.834,-252.5"/>
<text text-anchor="start" x="526.834" y="-282.9" font-family="Helvetica,sans-Serif" font-size="12.00" fill="#000000">/Users/kpenev/projects</text>
<text text-anchor="start" x="526.834" y="-270.9" font-family="Helvetica,sans-Serif" font-size="12.00" fill="#000000">/git/poet/poet_src/unit</text>
<text text-anchor="middle" x="634.333" y="-258.9" font-family="Helvetica,sans-Serif" font-size="12.00" fill="#000000">_tests/testEvolve/TransformedSolution.h</text>
</g>
<!-- Node1 -->
<g id="node2" class="node">
<title>Node1</title>
<g id="a_node2"><a xlink:href="RealEvolutionQuantity_8h.html" target="_top" xlink:title="Declare an inumeration for the various quantities tracked by the evolution and checked. ">
<polygon fill="#ffffff" stroke="#000000" points="284.4043,-195.5 284.4043,-215.5 428.2617,-215.5 428.2617,-195.5 284.4043,-195.5"/>
<text text-anchor="middle" x="356.333" y="-201.9" font-family="Helvetica,sans-Serif" font-size="12.00" fill="#000000">RealEvolutionQuantity.h</text>
</a>
</g>
</g>
<!-- Node0&#45;&gt;Node1 -->
<g id="edge1" class="edge">
<title>Node0&#45;&gt;Node1</title>
<path fill="none" stroke="#191970" d="M545.6077,-252.4783C499.805,-241.11 445.5852,-227.6525 406.9422,-218.0613"/>
<polygon fill="#191970" stroke="#191970" points="407.5215,-214.5989 396.9728,-215.5869 405.8352,-221.3928 407.5215,-214.5989"/>
</g>
<!-- Node2 -->
<g id="node3" class="node">
<title>Node2</title>
<g id="a_node3"><a xlink:href="Functions_8h.html" target="_top" xlink:title="A hierarchy of classes representing functions. ">
<polygon fill="#ffffff" stroke="#000000" points="749.6426,-195.5 749.6426,-215.5 877.0234,-215.5 877.0234,-195.5 749.6426,-195.5"/>
<text text-anchor="middle" x="813.333" y="-201.9" font-family="Helvetica,sans-Serif" font-size="12.00" fill="#000000">../../Core/Functions.h</text>
</a>
</g>
</g>
<!-- Node0&#45;&gt;Node2 -->
<g id="edge2" class="edge">
<title>Node0&#45;&gt;Node2</title>
<path fill="none" stroke="#191970" d="M691.4619,-252.4783C719.6986,-241.5937 752.9035,-228.7941 777.5169,-219.3062"/>
<polygon fill="#191970" stroke="#191970" points="779.0938,-222.4495 787.1656,-215.5869 776.576,-215.9179 779.0938,-222.4495"/>
</g>
<!-- Node5 -->
<g id="node6" class="node">
<title>Node5</title>
<polygon fill="#ffffff" stroke="#bfbfbf" points="0,-69.5 0,-89.5 30.666,-89.5 30.666,-69.5 0,-69.5"/>
<text text-anchor="middle" x="15.333" y="-75.9" font-family="Helvetica,sans-Serif" font-size="12.00" fill="#000000">list</text>
</g>
<!-- Node0&#45;&gt;Node5 -->
<g id="edge38" class="edge">
<title>Node0&#45;&gt;Node5</title>
<path fill="none" stroke="#191970" d="M584.7776,-252.4829C545.323,-235.4474 488.4335,-211.9769 437.333,-195 266.774,-138.3358 213.9466,-149.7457 40.1331,-89.9153"/>
<polygon fill="#191970" stroke="#191970" points="41.2804,-86.6087 30.6856,-86.6345 38.984,-93.2214 41.2804,-86.6087"/>
</g>
<!-- Node28 -->
<g id="node29" class="node">
<title>Node28</title>
<polygon fill="#ffffff" stroke="#bfbfbf" points="894.9941,-195.5 894.9941,-215.5 943.6719,-215.5 943.6719,-195.5 894.9941,-195.5"/>
<text text-anchor="middle" x="919.333" y="-201.9" font-family="Helvetica,sans-Serif" font-size="12.00" fill="#000000">vector</text>
</g>
<!-- Node0&#45;&gt;Node28 -->
<g id="edge37" class="edge">
<title>Node0&#45;&gt;Node28</title>
<path fill="none" stroke="#191970" d="M737.7919,-252.4417C780.9385,-242.7678 831.7033,-230.7729 885.221,-216.1748"/>
<polygon fill="#191970" stroke="#191970" points="886.1749,-219.5425 894.8896,-213.5171 884.3196,-212.7929 886.1749,-219.5425"/>
</g>
<!-- Node3 -->
<g id="node4" class="node">
<title>Node3</title>
<g id="a_node4"><a xlink:href="SharedLibraryExportMacros_8h_source.html" target="_top" xlink:title="../Core/SharedLibraryExport\lMacros.h">
<polygon fill="#ffffff" stroke="#000000" points="1329.6318,-.5 1329.6318,-32.5 1495.0342,-32.5 1495.0342,-.5 1329.6318,-.5"/>
<text text-anchor="start" x="1337.6318" y="-18.9" font-family="Helvetica,sans-Serif" font-size="12.00" fill="#000000">../Core/SharedLibraryExport</text>
<text text-anchor="middle" x="1412.333" y="-6.9" font-family="Helvetica,sans-Serif" font-size="12.00" fill="#000000">Macros.h</text>
</a>
</g>
</g>
<!-- Node2&#45;&gt;Node3 -->
<g id="edge3" class="edge">
<title>Node2&#45;&gt;Node3</title>
<path fill="none" stroke="#191970" d="M877.3956,-196.0314C880.4146,-195.6651 883.4054,-195.3188 886.333,-195 993.7721,-183.2998 1277.2072,-212.1073 1371.333,-159 1404.0913,-140.5172 1408.9037,-125.8341 1420.333,-90 1425.2292,-74.649 1423.4001,-56.6799 1420.2639,-42.3514"/>
<polygon fill="#191970" stroke="#191970" points="1423.658,-41.4967 1417.8268,-32.651 1416.869,-43.2025 1423.658,-41.4967"/>
</g>
<!-- Node4 -->
<g id="node5" class="node">
<title>Node4</title>
<g id="a_node5"><a xlink:href="Core_2Common_8h.html" target="_top" xlink:title="Declaration of some general purpose utilities. ">
<polygon fill="#ffffff" stroke="#000000" points="597.9893,-132.5 597.9893,-152.5 672.6768,-152.5 672.6768,-132.5 597.9893,-132.5"/>
<text text-anchor="middle" x="635.333" y="-138.9" font-family="Helvetica,sans-Serif" font-size="12.00" fill="#000000">Common.h</text>
</a>
</g>
</g>
<!-- Node2&#45;&gt;Node4 -->
<g id="edge4" class="edge">
<title>Node2&#45;&gt;Node4</title>
<path fill="none" stroke="#191970" d="M784.7342,-195.378C754.5018,-184.6777 706.6633,-167.7461 673.2901,-155.9343"/>
<polygon fill="#191970" stroke="#191970" points="674.4556,-152.6341 663.8608,-152.5969 672.12,-159.2329 674.4556,-152.6341"/>
</g>
<!-- Node2&#45;&gt;Node5 -->
<g id="edge30" class="edge">
<title>Node2&#45;&gt;Node5</title>
<path fill="none" stroke="#191970" d="M749.5395,-199.9797C673.094,-192.6387 550.0817,-178.3084 508.333,-159 488.0308,-149.6104 490.9425,-134.6944 470.333,-126 296.2521,-52.5613 228.0213,-134.2719 40.7013,-89.6005"/>
<polygon fill="#191970" stroke="#191970" points="41.3694,-86.1603 30.8213,-87.1543 39.687,-92.9551 41.3694,-86.1603"/>
</g>
<!-- Node6 -->
<g id="node7" class="node">
<title>Node6</title>
<polygon fill="#ffffff" stroke="#bfbfbf" points="1244.9932,-69.5 1244.9932,-89.5 1303.6729,-89.5 1303.6729,-69.5 1244.9932,-69.5"/>
<text text-anchor="middle" x="1274.333" y="-75.9" font-family="Helvetica,sans-Serif" font-size="12.00" fill="#000000">valarray</text>
</g>
<!-- Node2&#45;&gt;Node6 -->
<g id="edge29" class="edge">
<title>Node2&#45;&gt;Node6</title>
<path fill="none" stroke="#191970" d="M877.4042,-196.1072C880.4209,-195.7207 883.4089,-195.3493 886.333,-195 928.2252,-189.9953 1234.0534,-188.3794 1264.333,-159 1279.7938,-143.9989 1280.2088,-118.0555 1278.1235,-99.8975"/>
<polygon fill="#191970" stroke="#191970" points="1281.5494,-99.1402 1276.6141,-89.7651 1274.6258,-100.1717 1281.5494,-99.1402"/>
</g>
<!-- Node7 -->
<g id="node8" class="node">
<title>Node7</title>
<polygon fill="#ffffff" stroke="#bfbfbf" points="48.6689,-69.5 48.6689,-89.5 91.9971,-89.5 91.9971,-69.5 48.6689,-69.5"/>
<text text-anchor="middle" x="70.333" y="-75.9" font-family="Helvetica,sans-Serif" font-size="12.00" fill="#000000">limits</text>
</g>
<!-- Node2&#45;&gt;Node7 -->
<g id="edge28" class="edge">
<title>Node2&#45;&gt;Node7</title>
<path fill="none" stroke="#191970" d="M749.3952,-198.3679C682.1744,-190.1655 581.3911,-175.666 546.333,-159 526.1311,-149.3964 528.9222,-134.7426 508.333,-126 343.8023,-56.1368 280.5747,-125.7553 102.0783,-89.9123"/>
<polygon fill="#191970" stroke="#191970" points="102.6125,-86.4484 92.1075,-87.8253 101.1783,-93.2999 102.6125,-86.4484"/>
</g>
<!-- Node9 -->
<g id="node10" class="node">
<title>Node9</title>
<polygon fill="#ffffff" stroke="#bfbfbf" points="1164.3262,-6.5 1164.3262,-26.5 1226.3398,-26.5 1226.3398,-6.5 1164.3262,-6.5"/>
<text text-anchor="middle" x="1195.333" y="-12.9" font-family="Helvetica,sans-Serif" font-size="12.00" fill="#000000">iostream</text>
</g>
<!-- Node2&#45;&gt;Node9 -->
<g id="edge32" class="edge">
<title>Node2&#45;&gt;Node9</title>
<path fill="none" stroke="#191970" d="M877.4021,-196.0891C880.4194,-195.7074 883.408,-195.3421 886.333,-195 974.7572,-184.659 1214.1326,-212.4442 1285.333,-159 1318.7321,-133.9301 1335.0268,-104.0569 1312.333,-69 1309.8554,-65.1727 1262.6327,-44.7431 1228.9491,-30.528"/>
<polygon fill="#191970" stroke="#191970" points="1230.0007,-27.1734 1219.4259,-26.522 1227.2865,-33.6258 1230.0007,-27.1734"/>
</g>
<!-- Node10 -->
<g id="node11" class="node">
<title>Node10</title>
<polygon fill="#ffffff" stroke="#bfbfbf" points="109.6592,-69.5 109.6592,-89.5 163.0068,-89.5 163.0068,-69.5 109.6592,-69.5"/>
<text text-anchor="middle" x="136.333" y="-75.9" font-family="Helvetica,sans-Serif" font-size="12.00" fill="#000000">iterator</text>
</g>
<!-- Node2&#45;&gt;Node10 -->
<g id="edge31" class="edge">
<title>Node2&#45;&gt;Node10</title>
<path fill="none" stroke="#191970" d="M749.1591,-199.9016C703.0277,-194.0638 640.2459,-182.3267 589.333,-159 567.4319,-148.9656 568.7481,-134.8267 546.333,-126 393.5867,-65.8505 337.8217,-120.0069 173.2977,-90.0616"/>
<polygon fill="#191970" stroke="#191970" points="173.8119,-86.5967 163.3345,-88.1703 172.5063,-93.4739 173.8119,-86.5967"/>
</g>
<!-- Node17 -->
<g id="node18" class="node">
<title>Node17</title>
<g id="a_node18"><a xlink:href="Error_8h.html" target="_top" xlink:title="Defines the exception hierarchy used by this code. ">
<polygon fill="#ffffff" stroke="#000000" points="1359.3242,-69.5 1359.3242,-89.5 1411.3418,-89.5 1411.3418,-69.5 1359.3242,-69.5"/>
<text text-anchor="middle" x="1385.333" y="-75.9" font-family="Helvetica,sans-Serif" font-size="12.00" fill="#000000">Error.h</text>
</a>
</g>
</g>
<!-- Node2&#45;&gt;Node17 -->
<g id="edge26" class="edge">
<title>Node2&#45;&gt;Node17</title>
<path fill="none" stroke="#191970" d="M877.3972,-196.0466C880.4158,-195.6762 883.4061,-195.3249 886.333,-195 988.0215,-183.7109 1260.3996,-216.0466 1345.333,-159 1365.5972,-145.3893 1376.0843,-118.2983 1381.1441,-99.55"/>
<polygon fill="#191970" stroke="#191970" points="1384.5919,-100.1817 1383.5289,-89.6403 1377.7862,-98.5438 1384.5919,-100.1817"/>
</g>
<!-- Node23 -->
<g id="node24" class="node">
<title>Node23</title>
<polygon fill="#ffffff" stroke="#bfbfbf" points="690.9941,-132.5 690.9941,-152.5 739.6719,-152.5 739.6719,-132.5 690.9941,-132.5"/>
<text text-anchor="middle" x="715.333" y="-138.9" font-family="Helvetica,sans-Serif" font-size="12.00" fill="#000000">cmath</text>
</g>
<!-- Node2&#45;&gt;Node23 -->
<g id="edge27" class="edge">
<title>Node2&#45;&gt;Node23</title>
<path fill="none" stroke="#191970" d="M797.5876,-195.378C782.0144,-185.3666 757.9557,-169.9003 739.8737,-158.2762"/>
<polygon fill="#191970" stroke="#191970" points="741.3438,-155.0604 731.0393,-152.5969 737.5585,-160.9487 741.3438,-155.0604"/>
</g>
<!-- Node24 -->
<g id="node25" class="node">
<title>Node24</title>
<polygon fill="#ffffff" stroke="#bfbfbf" points="757.3066,-126.5 757.3066,-158.5 869.3594,-158.5 869.3594,-126.5 757.3066,-126.5"/>
<text text-anchor="start" x="765.3066" y="-144.9" font-family="Helvetica,sans-Serif" font-size="12.00" fill="#000000">boost/serialization</text>
<text text-anchor="middle" x="813.333" y="-132.9" font-family="Helvetica,sans-Serif" font-size="12.00" fill="#000000">/base_object.hpp</text>
</g>
<!-- Node2&#45;&gt;Node24 -->
<g id="edge33" class="edge">
<title>Node2&#45;&gt;Node24</title>
<path fill="none" stroke="#191970" d="M813.333,-195.378C813.333,-188.2008 813.333,-178.2202 813.333,-168.8614"/>
<polygon fill="#191970" stroke="#191970" points="816.8331,-168.7419 813.333,-158.742 809.8331,-168.742 816.8331,-168.7419"/>
</g>
<!-- Node25 -->
<g id="node26" class="node">
<title>Node25</title>
<polygon fill="#ffffff" stroke="#bfbfbf" points="887.3086,-126.5 887.3086,-158.5 997.3574,-158.5 997.3574,-126.5 887.3086,-126.5"/>
<text text-anchor="start" x="895.3086" y="-144.9" font-family="Helvetica,sans-Serif" font-size="12.00" fill="#000000">boost/archive/text</text>
<text text-anchor="middle" x="942.333" y="-132.9" font-family="Helvetica,sans-Serif" font-size="12.00" fill="#000000">_oarchive.hpp</text>
</g>
<!-- Node2&#45;&gt;Node25 -->
<g id="edge34" class="edge">
<title>Node2&#45;&gt;Node25</title>
<path fill="none" stroke="#191970" d="M834.0591,-195.378C851.7576,-186.7345 877.7818,-174.025 899.8807,-163.2325"/>
<polygon fill="#191970" stroke="#191970" points="901.6259,-166.2754 909.0756,-158.742 898.554,-159.9854 901.6259,-166.2754"/>
</g>
<!-- Node26 -->
<g id="node27" class="node">
<title>Node26</title>
<polygon fill="#ffffff" stroke="#bfbfbf" points="1015.3086,-126.5 1015.3086,-158.5 1125.3574,-158.5 1125.3574,-126.5 1015.3086,-126.5"/>
<text text-anchor="start" x="1023.3086" y="-144.9" font-family="Helvetica,sans-Serif" font-size="12.00" fill="#000000">boost/archive/text</text>
<text text-anchor="middle" x="1070.333" y="-132.9" font-family="Helvetica,sans-Serif" font-size="12.00" fill="#000000">_iarchive.hpp</text>
</g>
<!-- Node2&#45;&gt;Node26 -->
<g id="edge35" class="edge">
<title>Node2&#45;&gt;Node26</title>
<path fill="none" stroke="#191970" d="M855.927,-195.443C892.9253,-186.6611 948.208,-173.4294 1005.271,-159.2464"/>
<polygon fill="#191970" stroke="#191970" points="1006.3316,-162.5893 1015.1891,-156.7761 1004.6397,-155.7968 1006.3316,-162.5893"/>
</g>
<!-- Node27 -->
<g id="node28" class="node">
<title>Node27</title>
<polygon fill="#ffffff" stroke="#bfbfbf" points="1143.3066,-126.5 1143.3066,-158.5 1255.3594,-158.5 1255.3594,-126.5 1143.3066,-126.5"/>
<text text-anchor="start" x="1151.3066" y="-144.9" font-family="Helvetica,sans-Serif" font-size="12.00" fill="#000000">boost/serialization</text>
<text text-anchor="middle" x="1199.333" y="-132.9" font-family="Helvetica,sans-Serif" font-size="12.00" fill="#000000">/export.hpp</text>
</g>
<!-- Node2&#45;&gt;Node27 -->
<g id="edge36" class="edge">
<title>Node2&#45;&gt;Node27</title>
<path fill="none" stroke="#191970" d="M877.1228,-196.3017C958.9667,-184.4948 1094.3123,-164.9504 1133.0682,-158.8442"/>
<polygon fill="#191970" stroke="#191970" points="1133.7609,-162.277 1143.0449,-157.1725 1132.604,-155.3733 1133.7609,-162.277"/>
</g>
<!-- Node4&#45;&gt;Node3 -->
<g id="edge17" class="edge">
<title>Node4&#45;&gt;Node3</title>
<path fill="none" stroke="#191970" d="M659.8609,-132.4971C666.9973,-129.9697 674.8801,-127.539 682.333,-126 907.4736,-79.5083 977.8621,-155.1335 1198.333,-90 1216.8386,-84.5329 1218.5403,-76.4677 1236.333,-69 1268.3019,-55.5825 1304.8646,-44.0918 1336.3517,-35.3116"/>
<polygon fill="#191970" stroke="#191970" points="1337.6676,-38.5799 1346.3841,-32.5571 1335.8143,-31.8297 1337.6676,-38.5799"/>
</g>
<!-- Node4&#45;&gt;Node5 -->
<g id="edge5" class="edge">
<title>Node4&#45;&gt;Node5</title>
<path fill="none" stroke="#191970" d="M597.8832,-137.1085C572.6238,-133.6015 538.5218,-129.1175 508.333,-126 303.6305,-104.8608 244.028,-139.4952 40.6135,-89.6102"/>
<polygon fill="#191970" stroke="#191970" points="41.3668,-86.191 30.8173,-87.1703 39.6749,-92.9835 41.3668,-86.191"/>
</g>
<!-- Node4&#45;&gt;Node6 -->
<g id="edge6" class="edge">
<title>Node4&#45;&gt;Node6</title>
<path fill="none" stroke="#191970" d="M659.8568,-132.477C666.9931,-129.9493 674.8769,-127.5235 682.333,-126 921.9072,-77.0489 989.6464,-127.143 1231.333,-90 1232.4343,-89.8307 1233.5489,-89.647 1234.6716,-89.4509"/>
<polygon fill="#191970" stroke="#191970" points="1235.7415,-92.8063 1244.8604,-87.4123 1234.3681,-85.9423 1235.7415,-92.8063"/>
</g>
<!-- Node4&#45;&gt;Node7 -->
<g id="edge7" class="edge">
<title>Node4&#45;&gt;Node7</title>
<path fill="none" stroke="#191970" d="M597.794,-134.6554C581.9684,-131.579 563.3132,-128.2532 546.333,-126 352.467,-100.2743 296.731,-130.1603 102.0816,-89.9423"/>
<polygon fill="#191970" stroke="#191970" points="102.6095,-86.4768 92.1033,-87.8449 101.1695,-93.3271 102.6095,-86.4768"/>
</g>
<!-- Node8 -->
<g id="node9" class="node">
<title>Node8</title>
<polygon fill="#ffffff" stroke="#bfbfbf" points="460.9961,-69.5 460.9961,-89.5 519.6699,-89.5 519.6699,-69.5 460.9961,-69.5"/>
<text text-anchor="middle" x="490.333" y="-75.9" font-family="Helvetica,sans-Serif" font-size="12.00" fill="#000000">sstream</text>
</g>
<!-- Node4&#45;&gt;Node8 -->
<g id="edge8" class="edge">
<title>Node4&#45;&gt;Node8</title>
<path fill="none" stroke="#191970" d="M612.0362,-132.378C587.9372,-121.9073 550.1051,-105.4699 523.0193,-93.7016"/>
<polygon fill="#191970" stroke="#191970" points="524.1384,-90.3718 513.572,-89.5969 521.3489,-96.792 524.1384,-90.3718"/>
</g>
<!-- Node4&#45;&gt;Node9 -->
<g id="edge9" class="edge">
<title>Node4&#45;&gt;Node9</title>
<path fill="none" stroke="#191970" d="M662.6992,-132.3322C688.8907,-122.3545 729.3293,-106.302 763.333,-90 780.733,-81.6582 783.0082,-75.0455 801.333,-69 866.2742,-47.5754 1066.8149,-27.8572 1154.0707,-20.0446"/>
<polygon fill="#191970" stroke="#191970" points="1154.482,-23.5219 1164.1334,-19.1515 1153.8631,-16.5493 1154.482,-23.5219"/>
</g>
<!-- Node4&#45;&gt;Node10 -->
<g id="edge10" class="edge">
<title>Node4&#45;&gt;Node10</title>
<path fill="none" stroke="#191970" d="M608.1095,-132.4378C600.5061,-129.973 592.1768,-127.5894 584.333,-126 406.9257,-90.0517 354.1454,-123.4363 173.1689,-90.0513"/>
<polygon fill="#191970" stroke="#191970" points="173.8055,-86.6097 163.3299,-88.1943 172.5073,-93.4883 173.8055,-86.6097"/>
</g>
<!-- Node11 -->
<g id="node12" class="node">
<title>Node11</title>
<polygon fill="#ffffff" stroke="#bfbfbf" points="537.9746,-69.5 537.9746,-89.5 636.6914,-89.5 636.6914,-69.5 537.9746,-69.5"/>
<text text-anchor="middle" x="587.333" y="-75.9" font-family="Helvetica,sans-Serif" font-size="12.00" fill="#000000">gsl/gsl_vector.h</text>
</g>
<!-- Node4&#45;&gt;Node11 -->
<g id="edge11" class="edge">
<title>Node4&#45;&gt;Node11</title>
<path fill="none" stroke="#191970" d="M627.621,-132.378C620.5253,-123.0649 609.8332,-109.0316 601.2467,-97.7617"/>
<polygon fill="#191970" stroke="#191970" points="604.0299,-95.6394 595.1854,-89.8062 598.4618,-99.8817 604.0299,-95.6394"/>
</g>
<!-- Node12 -->
<g id="node13" class="node">
<title>Node12</title>
<polygon fill="#ffffff" stroke="#bfbfbf" points="654.6523,-69.5 654.6523,-89.5 754.0137,-89.5 754.0137,-69.5 654.6523,-69.5"/>
<text text-anchor="middle" x="704.333" y="-75.9" font-family="Helvetica,sans-Serif" font-size="12.00" fill="#000000">gsl/gsl_matrix.h</text>
</g>
<!-- Node4&#45;&gt;Node12 -->
<g id="edge12" class="edge">
<title>Node4&#45;&gt;Node12</title>
<path fill="none" stroke="#191970" d="M646.4191,-132.378C656.919,-122.791 672.8975,-108.202 685.4131,-96.7747"/>
<polygon fill="#191970" stroke="#191970" points="688.0203,-99.1336 693.0453,-89.8062 683.3004,-93.9642 688.0203,-99.1336"/>
</g>
<!-- Node13 -->
<g id="node14" class="node">
<title>Node13</title>
<polygon fill="#ffffff" stroke="#bfbfbf" points="809.9756,-69.5 809.9756,-89.5 904.6904,-89.5 904.6904,-69.5 809.9756,-69.5"/>
<text text-anchor="middle" x="857.333" y="-75.9" font-family="Helvetica,sans-Serif" font-size="12.00" fill="#000000">gsl/gsl_linalg.h</text>
</g>
<!-- Node4&#45;&gt;Node13 -->
<g id="edge13" class="edge">
<title>Node4&#45;&gt;Node13</title>
<path fill="none" stroke="#191970" d="M663.0491,-132.3675C669.3574,-130.1738 676.0515,-127.9339 682.333,-126 723.6242,-113.2874 771.0175,-100.8226 806.0605,-92.0035"/>
<polygon fill="#191970" stroke="#191970" points="807.2079,-95.3244 816.0593,-89.5017 805.5088,-88.5337 807.2079,-95.3244"/>
</g>
<!-- Node14 -->
<g id="node15" class="node">
<title>Node14</title>
<polygon fill="#ffffff" stroke="#bfbfbf" points="922.9785,-69.5 922.9785,-89.5 1011.6875,-89.5 1011.6875,-69.5 922.9785,-69.5"/>
<text text-anchor="middle" x="967.333" y="-75.9" font-family="Helvetica,sans-Serif" font-size="12.00" fill="#000000">gsl/gsl_blas.h</text>
</g>
<!-- Node4&#45;&gt;Node14 -->
<g id="edge14" class="edge">
<title>Node4&#45;&gt;Node14</title>
<path fill="none" stroke="#191970" d="M661.4237,-132.3886C668.1615,-130.0415 675.4554,-127.7277 682.333,-126 780.0572,-101.4513 809.2293,-107.5112 912.9266,-89.9953"/>
<polygon fill="#191970" stroke="#191970" points="913.5999,-93.4309 922.8607,-88.2842 912.4116,-86.5325 913.5999,-93.4309"/>
</g>
<!-- Node15 -->
<g id="node16" class="node">
<title>Node15</title>
<polygon fill="#ffffff" stroke="#bfbfbf" points="1029.4209,-69.5 1029.4209,-89.5 1117.2451,-89.5 1117.2451,-69.5 1029.4209,-69.5"/>
<text text-anchor="middle" x="1073.333" y="-75.9" font-family="Helvetica,sans-Serif" font-size="12.00" fill="#000000">gsl/gsl_poly.h</text>
</g>
<!-- Node4&#45;&gt;Node15 -->
<g id="edge15" class="edge">
<title>Node4&#45;&gt;Node15</title>
<path fill="none" stroke="#191970" d="M660.8764,-132.3284C667.7506,-129.9245 675.2468,-127.5985 682.333,-126 826.5358,-93.4709 869.1541,-111.8696 1019.1042,-90.0585"/>
<polygon fill="#191970" stroke="#191970" points="1019.7639,-93.4989 1029.1386,-88.5627 1018.7318,-86.5754 1019.7639,-93.4989"/>
</g>
<!-- Node16 -->
<g id="node17" class="node">
<title>Node16</title>
<polygon fill="#ffffff" stroke="#bfbfbf" points="1134.9941,-69.5 1134.9941,-89.5 1189.6719,-89.5 1189.6719,-69.5 1134.9941,-69.5"/>
<text text-anchor="middle" x="1162.333" y="-75.9" font-family="Helvetica,sans-Serif" font-size="12.00" fill="#000000">cassert</text>
</g>
<!-- Node4&#45;&gt;Node16 -->
<g id="edge16" class="edge">
<title>Node4&#45;&gt;Node16</title>
<path fill="none" stroke="#191970" d="M660.36,-132.3791C667.3668,-129.914 675.058,-127.545 682.333,-126 872.7797,-85.5544 929.7491,-124.5622 1124.9482,-89.9253"/>
<polygon fill="#191970" stroke="#191970" points="1125.7405,-93.3387 1134.9537,-88.1074 1124.489,-86.4515 1125.7405,-93.3387"/>
</g>
<!-- Node4&#45;&gt;Node17 -->
<g id="edge18" class="edge">
<title>Node4&#45;&gt;Node17</title>
<path fill="none" stroke="#191970" d="M659.8486,-132.4365C666.9848,-129.9082 674.8705,-127.4922 682.333,-126 957.3459,-71.01 1033.2765,-117.9901 1312.333,-90 1324.3545,-88.7942 1337.4317,-87.0508 1349.1531,-85.3299"/>
<polygon fill="#191970" stroke="#191970" points="1349.6783,-88.7903 1359.0442,-83.8374 1348.6339,-81.8687 1349.6783,-88.7903"/>
</g>
<!-- Node20 -->
<g id="node21" class="node">
<title>Node20</title>
<g id="a_node21"><a xlink:href="AstronomicalConstants_8h.html" target="_top" xlink:title="Defines various astronomical constants. ">
<polygon fill="#ffffff" stroke="#000000" points="180.6357,-69.5 180.6357,-89.5 330.0303,-89.5 330.0303,-69.5 180.6357,-69.5"/>
<text text-anchor="middle" x="255.333" y="-75.9" font-family="Helvetica,sans-Serif" font-size="12.00" fill="#000000">AstronomicalConstants.h</text>
</a>
</g>
</g>
<!-- Node4&#45;&gt;Node20 -->
<g id="edge23" class="edge">
<title>Node4&#45;&gt;Node20</title>
<path fill="none" stroke="#191970" d="M607.2513,-132.4567C599.8665,-130.0804 591.8595,-127.7357 584.333,-126 561.0257,-120.6249 429.8209,-102.6962 340.3116,-90.7367"/>
<polygon fill="#191970" stroke="#191970" points="340.5322,-87.2351 330.1571,-89.3816 339.6062,-94.1736 340.5322,-87.2351"/>
</g>
<!-- Node21 -->
<g id="node22" class="node">
<title>Node21</title>
<g id="a_node22"><a xlink:href="IncludeEigen_8h_source.html" target="_top" xlink:title="IncludeEigen.h">
<polygon fill="#ffffff" stroke="#000000" points="347.6357,-69.5 347.6357,-89.5 443.0303,-89.5 443.0303,-69.5 347.6357,-69.5"/>
<text text-anchor="middle" x="395.333" y="-75.9" font-family="Helvetica,sans-Serif" font-size="12.00" fill="#000000">IncludeEigen.h</text>
</a>
</g>
</g>
<!-- Node4&#45;&gt;Node21 -->
<g id="edge24" class="edge">
<title>Node4&#45;&gt;Node21</title>
<path fill="none" stroke="#191970" d="M605.5084,-132.4552C598.5855,-130.2338 591.2254,-127.9601 584.333,-126 539.2806,-113.1877 487.6057,-100.6174 449.6883,-91.7832"/>
<polygon fill="#191970" stroke="#191970" points="450.3994,-88.3553 439.8673,-89.5069 448.8188,-95.1745 450.3994,-88.3553"/>
</g>
<!-- Node17&#45;&gt;Node3 -->
<g id="edge19" class="edge">
<title>Node17&#45;&gt;Node3</title>
<path fill="none" stroke="#191970" d="M1389.671,-69.378C1392.8462,-61.9693 1397.3016,-51.5733 1401.4225,-41.9578"/>
<polygon fill="#191970" stroke="#191970" points="1404.6499,-43.3122 1405.3722,-32.742 1398.2159,-40.5547 1404.6499,-43.3122"/>
</g>
<!-- Node17&#45;&gt;Node9 -->
<g id="edge20" class="edge">
<title>Node17&#45;&gt;Node9</title>
<path fill="none" stroke="#191970" d="M1359.0811,-72.1449C1328.949,-63.5224 1278.1672,-48.438 1235.333,-33 1233.0671,-32.1833 1230.7414,-31.3124 1228.4063,-30.4137"/>
<polygon fill="#191970" stroke="#191970" points="1229.4697,-27.0701 1218.884,-26.6297 1226.8847,-33.5753 1229.4697,-27.0701"/>
</g>
<!-- Node18 -->
<g id="node19" class="node">
<title>Node18</title>
<polygon fill="#ffffff" stroke="#bfbfbf" points="1244.6484,-6.5 1244.6484,-26.5 1312.0176,-26.5 1312.0176,-6.5 1244.6484,-6.5"/>
<text text-anchor="middle" x="1278.333" y="-12.9" font-family="Helvetica,sans-Serif" font-size="12.00" fill="#000000">exception</text>
</g>
<!-- Node17&#45;&gt;Node18 -->
<g id="edge21" class="edge">
<title>Node17&#45;&gt;Node18</title>
<path fill="none" stroke="#191970" d="M1368.1416,-69.378C1350.9042,-59.2288 1324.1453,-43.4736 1304.3161,-31.7985"/>
<polygon fill="#191970" stroke="#191970" points="1305.8748,-28.6546 1295.4817,-26.5969 1302.3232,-34.6867 1305.8748,-28.6546"/>
</g>
<!-- Node19 -->
<g id="node20" class="node">
<title>Node19</title>
<polygon fill="#ffffff" stroke="#bfbfbf" points="1512.6611,-6.5 1512.6611,-26.5 1558.0049,-26.5 1558.0049,-6.5 1512.6611,-6.5"/>
<text text-anchor="middle" x="1535.333" y="-12.9" font-family="Helvetica,sans-Serif" font-size="12.00" fill="#000000">string</text>
</g>
<!-- Node17&#45;&gt;Node19 -->
<g id="edge22" class="edge">
<title>Node17&#45;&gt;Node19</title>
<path fill="none" stroke="#191970" d="M1411.6985,-70.2019C1436.059,-61.3757 1473.094,-47.3577 1504.333,-33 1505.5171,-32.4558 1506.7196,-31.8874 1507.9292,-31.3027"/>
<polygon fill="#191970" stroke="#191970" points="1509.8126,-34.2721 1517.1517,-26.6308 1506.6493,-28.0276 1509.8126,-34.2721"/>
</g>
<!-- Node22 -->
<g id="node23" class="node">
<title>Node22</title>
<polygon fill="#ffffff" stroke="#bfbfbf" points="352.9766,-6.5 352.9766,-26.5 437.6895,-26.5 437.6895,-6.5 352.9766,-6.5"/>
<text text-anchor="middle" x="395.333" y="-12.9" font-family="Helvetica,sans-Serif" font-size="12.00" fill="#000000">Eigen/Dense</text>
</g>
<!-- Node21&#45;&gt;Node22 -->
<g id="edge25" class="edge">
<title>Node21&#45;&gt;Node22</title>
<path fill="none" stroke="#191970" d="M395.333,-69.378C395.333,-60.7041 395.333,-47.9355 395.333,-37.1186"/>
<polygon fill="#191970" stroke="#191970" points="398.8331,-36.8062 395.333,-26.8062 391.8331,-36.8062 398.8331,-36.8062"/>
</g>
</g>
</svg>
