<?xml version="1.0" encoding="UTF-8" standalone="no"?>
<!DOCTYPE svg PUBLIC "-//W3C//DTD SVG 1.1//EN"
 "http://www.w3.org/Graphics/SVG/1.1/DTD/svg11.dtd">
<!-- Generated by graphviz version 2.40.1 (20161225.0304)
 -->
<!-- Title: /Users/kpenev/projects/git/poet/poet_src/unit_tests/testEvolve/TransformedSolution.h Pages: 1 -->
<svg width="572pt" height="215pt"
 viewBox="0.00 0.00 571.88 215.00" xmlns="http://www.w3.org/2000/svg" xmlns:xlink="http://www.w3.org/1999/xlink">
<g id="graph0" class="graph" transform="scale(1 1) rotate(0) translate(4 211)">
<title>/Users/kpenev/projects/git/poet/poet_src/unit_tests/testEvolve/TransformedSolution.h</title>
<polygon fill="#ffffff" stroke="transparent" points="-4,4 -4,-211 567.8779,-211 567.8779,4 -4,4"/>
<!-- Node29 -->
<g id="node1" class="node">
<title>Node29</title>
<polygon fill="#bfbfbf" stroke="#000000" points="206.543,-162.5 206.543,-206.5 437.541,-206.5 437.541,-162.5 206.543,-162.5"/>
<text text-anchor="start" x="214.543" y="-192.9" font-family="Helvetica,sans-Serif" font-size="12.00" fill="#000000">/Users/kpenev/projects</text>
<text text-anchor="start" x="214.543" y="-180.9" font-family="Helvetica,sans-Serif" font-size="12.00" fill="#000000">/git/poet/poet_src/unit</text>
<text text-anchor="middle" x="322.042" y="-168.9" font-family="Helvetica,sans-Serif" font-size="12.00" fill="#000000">_tests/testEvolve/TransformedSolution.h</text>
</g>
<!-- Node30 -->
<g id="node2" class="node">
<title>Node30</title>
<g id="a_node2"><a xlink:href="testOrbitSolver_8h.html" target="_top" xlink:title="Declares the test suite that exercises the OrbitSolver class and some other clasess necessary to acco...">
<polygon fill="#ffffff" stroke="#000000" points="103.665,-81.5 103.665,-125.5 302.4189,-125.5 302.4189,-81.5 103.665,-81.5"/>
<text text-anchor="start" x="111.665" y="-111.9" font-family="Helvetica,sans-Serif" font-size="12.00" fill="#000000">/Users/kpenev/projects</text>
<text text-anchor="start" x="111.665" y="-99.9" font-family="Helvetica,sans-Serif" font-size="12.00" fill="#000000">/git/poet/poet_src/unit</text>
<text text-anchor="middle" x="203.042" y="-87.9" font-family="Helvetica,sans-Serif" font-size="12.00" fill="#000000">_tests/testEvolve/testOrbitSolver.h</text>
</a>
</g>
</g>
<!-- Node29&#45;&gt;Node30 -->
<g id="edge1" class="edge">
<title>Node29&#45;&gt;Node30</title>
<path fill="none" stroke="#191970" d="M280.9988,-156.563C266.1287,-146.4414 249.5515,-135.1577 235.5199,-125.6068"/>
<polygon fill="#191970" stroke="#191970" points="279.2886,-159.6328 289.5247,-162.3664 283.2275,-153.8461 279.2886,-159.6328"/>
</g>
<!-- Node33 -->
<g id="node5" class="node">
<title>Node33</title>
<g id="a_node5"><a xlink:href="TransformedSolution_8cpp_source.html" target="_top" xlink:title="/Users/kpenev/projects\l/git/poet/poet_src/unit\l_tests/testEvolve/TransformedSolution.cpp">
<polygon fill="#ffffff" stroke="#000000" points="320.2061,-81.5 320.2061,-125.5 563.8779,-125.5 563.8779,-81.5 320.2061,-81.5"/>
<text text-anchor="start" x="328.2061" y="-111.9" font-family="Helvetica,sans-Serif" font-size="12.00" fill="#000000">/Users/kpenev/projects</text>
<text text-anchor="start" x="328.2061" y="-99.9" font-family="Helvetica,sans-Serif" font-size="12.00" fill="#000000">/git/poet/poet_src/unit</text>
<text text-anchor="middle" x="442.042" y="-87.9" font-family="Helvetica,sans-Serif" font-size="12.00" fill="#000000">_tests/testEvolve/TransformedSolution.cpp</text>
</a>
</g>
</g>
<!-- Node29&#45;&gt;Node33 -->
<g id="edge4" class="edge">
<title>Node29&#45;&gt;Node33</title>
<path fill="none" stroke="#191970" d="M363.4301,-156.563C378.4252,-146.4414 395.1417,-135.1577 409.2911,-125.6068"/>
<polygon fill="#191970" stroke="#191970" points="361.1629,-153.8706 354.8325,-162.3664 365.0792,-159.6726 361.1629,-153.8706"/>
</g>
<!-- Node31 -->
<g id="node3" class="node">
<title>Node31</title>
<g id="a_node3"><a xlink:href="testEvolve_8cpp_source.html" target="_top" xlink:title="/Users/kpenev/projects\l/git/poet/poet_src/unit\l_tests/testEvolve/testEvolve.cpp">
<polygon fill="#ffffff" stroke="#000000" points="0,-.5 0,-44.5 188.084,-44.5 188.084,-.5 0,-.5"/>
<text text-anchor="start" x="8" y="-30.9" font-family="Helvetica,sans-Serif" font-size="12.00" fill="#000000">/Users/kpenev/projects</text>
<text text-anchor="start" x="8" y="-18.9" font-family="Helvetica,sans-Serif" font-size="12.00" fill="#000000">/git/poet/poet_src/unit</text>
<text text-anchor="middle" x="94.042" y="-6.9" font-family="Helvetica,sans-Serif" font-size="12.00" fill="#000000">_tests/testEvolve/testEvolve.cpp</text>
</a>
</g>
</g>
<!-- Node30&#45;&gt;Node31 -->
<g id="edge2" class="edge">
<title>Node30&#45;&gt;Node31</title>
<path fill="none" stroke="#191970" d="M165.0655,-75.279C151.5437,-65.2306 136.523,-54.0685 123.7907,-44.6068"/>
<polygon fill="#191970" stroke="#191970" points="163.1432,-78.211 173.2573,-81.3664 167.3184,-72.5925 163.1432,-78.211"/>
</g>
<!-- Node32 -->
<g id="node4" class="node">
<title>Node32</title>
<g id="a_node4"><a xlink:href="testOrbitSolver_8cpp.html" target="_top" xlink:title="Defines some of the methods of the test suite that exercises the OrbitSolver class and the other clas...">
<polygon fill="#ffffff" stroke="#000000" points="206.3281,-.5 206.3281,-44.5 417.7559,-44.5 417.7559,-.5 206.3281,-.5"/>
<text text-anchor="start" x="214.3281" y="-30.9" font-family="Helvetica,sans-Serif" font-size="12.00" fill="#000000">/Users/kpenev/projects</text>
<text text-anchor="start" x="214.3281" y="-18.9" font-family="Helvetica,sans-Serif" font-size="12.00" fill="#000000">/git/poet/poet_src/unit</text>
<text text-anchor="middle" x="312.042" y="-6.9" font-family="Helvetica,sans-Serif" font-size="12.00" fill="#000000">_tests/testEvolve/testOrbitSolver.cpp</text>
</a>
</g>
</g>
<!-- Node30&#45;&gt;Node32 -->
<g id="edge3" class="edge">
<title>Node30&#45;&gt;Node32</title>
<path fill="none" stroke="#191970" d="M241.0185,-75.279C254.5403,-65.2306 269.561,-54.0685 282.2933,-44.6068"/>
<polygon fill="#191970" stroke="#191970" points="238.7655,-72.5925 232.8267,-81.3664 242.9408,-78.211 238.7655,-72.5925"/>
</g>
</g>
</svg>
