<?xml version="1.0" encoding="UTF-8" standalone="no"?>
<!DOCTYPE svg PUBLIC "-//W3C//DTD SVG 1.1//EN"
 "http://www.w3.org/Graphics/SVG/1.1/DTD/svg11.dtd">
<!-- Generated by graphviz version 2.40.1 (20161225.0304)
 -->
<!-- Title: /home/kpenev/projects/git/poet/poet_src/StellarEvolution/YRECIO.h Pages: 1 -->
<svg width="1163pt" height="198pt"
 viewBox="0.00 0.00 1163.49 198.00" xmlns="http://www.w3.org/2000/svg" xmlns:xlink="http://www.w3.org/1999/xlink">
<g id="graph0" class="graph" transform="scale(1 1) rotate(0) translate(4 194)">
<title>/home/kpenev/projects/git/poet/poet_src/StellarEvolution/YRECIO.h</title>
<polygon fill="#ffffff" stroke="transparent" points="-4,4 -4,-194 1159.4893,-194 1159.4893,4 -4,4"/>
<!-- Node0 -->
<g id="node1" class="node">
<title>Node0</title>
<polygon fill="#bfbfbf" stroke="#000000" points="484.4893,-142.5 484.4893,-189.5 679.4893,-189.5 679.4893,-142.5 484.4893,-142.5"/>
<text text-anchor="start" x="492.4893" y="-175.9" font-family="Helvetica,sans-Serif" font-size="12.00" fill="#000000">/home/kpenev/projects</text>
<text text-anchor="start" x="492.4893" y="-162.9" font-family="Helvetica,sans-Serif" font-size="12.00" fill="#000000">/git/poet/poet_src/StellarEvolution</text>
<text text-anchor="middle" x="581.9893" y="-149.9" font-family="Helvetica,sans-Serif" font-size="12.00" fill="#000000">/YRECIO.h</text>
</g>
<!-- Node1 -->
<g id="node2" class="node">
<title>Node1</title>
<g id="a_node2"><a xlink:href="SharedLibraryExportMacros_8h_source.html" target="_top" xlink:title="../Core/SharedLibraryExport\lMacros.h">
<polygon fill="#ffffff" stroke="#000000" points="82.4893,-.5 82.4893,-34.5 247.4893,-34.5 247.4893,-.5 82.4893,-.5"/>
<text text-anchor="start" x="90.4893" y="-20.9" font-family="Helvetica,sans-Serif" font-size="12.00" fill="#000000">../Core/SharedLibraryExport</text>
<text text-anchor="middle" x="164.9893" y="-7.9" font-family="Helvetica,sans-Serif" font-size="12.00" fill="#000000">Macros.h</text>
</a>
</g>
</g>
<!-- Node0&#45;&gt;Node1 -->
<g id="edge1" class="edge">
<title>Node0&#45;&gt;Node1</title>
<path fill="none" stroke="#191970" d="M484.1876,-162.7591C328.8831,-156.5941 40.1387,-140.5814 8.9893,-106 -19.0469,-74.8748 25.4652,-52.0225 74.018,-37.3437"/>
<polygon fill="#191970" stroke="#191970" points="75.1333,-40.6646 83.7622,-34.5169 73.183,-33.9417 75.1333,-40.6646"/>
</g>
<!-- Node2 -->
<g id="node3" class="node">
<title>Node2</title>
<polygon fill="#ffffff" stroke="#bfbfbf" points="18.4893,-78 18.4893,-99 129.4893,-99 129.4893,-78 18.4893,-78"/>
<text text-anchor="middle" x="73.9893" y="-85.4" font-family="Helvetica,sans-Serif" font-size="12.00" fill="#000000">StellarEvolution.h</text>
</g>
<!-- Node0&#45;&gt;Node2 -->
<g id="edge2" class="edge">
<title>Node0&#45;&gt;Node2</title>
<path fill="none" stroke="#191970" d="M484.3602,-156.5705C393.9818,-146.9532 256.1364,-130.0255 137.9893,-106 131.8409,-104.7497 125.4115,-103.2392 119.0991,-101.6359"/>
<polygon fill="#191970" stroke="#191970" points="119.8948,-98.2261 109.3331,-99.0639 118.112,-104.9953 119.8948,-98.2261"/>
</g>
<!-- Node3 -->
<g id="node4" class="node">
<title>Node3</title>
<polygon fill="#ffffff" stroke="#bfbfbf" points="147.4893,-78 147.4893,-99 222.4893,-99 222.4893,-78 147.4893,-78"/>
<text text-anchor="middle" x="184.9893" y="-85.4" font-family="Helvetica,sans-Serif" font-size="12.00" fill="#000000">Common.h</text>
</g>
<!-- Node0&#45;&gt;Node3 -->
<g id="edge3" class="edge">
<title>Node0&#45;&gt;Node3</title>
<path fill="none" stroke="#191970" d="M484.4205,-154.499C413.3683,-144.8763 315.2314,-128.9899 230.9893,-106 227.2026,-104.9666 223.2938,-103.7406 219.4285,-102.4244"/>
<polygon fill="#191970" stroke="#191970" points="220.5989,-99.1258 210.0045,-99.025 218.2236,-105.7106 220.5989,-99.1258"/>
</g>
<!-- Node4 -->
<g id="node5" class="node">
<title>Node4</title>
<g id="a_node5"><a xlink:href="AstronomicalConstants_8h.html" target="_top" xlink:title="Defines various astronomical constants. ">
<polygon fill="#ffffff" stroke="#000000" points="239.9893,-78 239.9893,-99 389.9893,-99 389.9893,-78 239.9893,-78"/>
<text text-anchor="middle" x="314.9893" y="-85.4" font-family="Helvetica,sans-Serif" font-size="12.00" fill="#000000">AstronomicalConstants.h</text>
</a>
</g>
</g>
<!-- Node0&#45;&gt;Node4 -->
<g id="edge4" class="edge">
<title>Node0&#45;&gt;Node4</title>
<path fill="none" stroke="#191970" d="M500.793,-142.4318C455.0206,-129.1458 399.5044,-113.0315 361.1409,-101.8961"/>
<polygon fill="#191970" stroke="#191970" points="361.8656,-98.462 351.2863,-99.0356 359.9143,-105.1846 361.8656,-98.462"/>
</g>
<!-- Node5 -->
<g id="node6" class="node">
<title>Node5</title>
<polygon fill="#ffffff" stroke="#bfbfbf" points="407.9893,-78 407.9893,-99 509.9893,-99 509.9893,-78 407.9893,-78"/>
<text text-anchor="middle" x="458.9893" y="-85.4" font-family="Helvetica,sans-Serif" font-size="12.00" fill="#000000">dirent_hacked.h</text>
</g>
<!-- Node0&#45;&gt;Node5 -->
<g id="edge5" class="edge">
<title>Node0&#45;&gt;Node5</title>
<path fill="none" stroke="#191970" d="M544.4169,-142.3263C524.9245,-130.0446 501.6328,-115.3689 484.297,-104.4459"/>
<polygon fill="#191970" stroke="#191970" points="486.1524,-101.4782 475.826,-99.1085 482.4208,-107.4006 486.1524,-101.4782"/>
</g>
<!-- Node6 -->
<g id="node7" class="node">
<title>Node6</title>
<g id="a_node7"><a xlink:href="Error_8h.html" target="_top" xlink:title="Defines the exception hierarchy used by this code. ">
<polygon fill="#ffffff" stroke="#000000" points="528.4893,-78 528.4893,-99 581.4893,-99 581.4893,-78 528.4893,-78"/>
<text text-anchor="middle" x="554.9893" y="-85.4" font-family="Helvetica,sans-Serif" font-size="12.00" fill="#000000">Error.h</text>
</a>
</g>
</g>
<!-- Node0&#45;&gt;Node6 -->
<g id="edge6" class="edge">
<title>Node0&#45;&gt;Node6</title>
<path fill="none" stroke="#191970" d="M573.7417,-142.3263C570.0125,-131.622 565.6497,-119.0993 562.0711,-108.8274"/>
<polygon fill="#191970" stroke="#191970" points="565.2803,-107.4003 558.6852,-99.1085 558.67,-109.7033 565.2803,-107.4003"/>
</g>
<!-- Node9 -->
<g id="node10" class="node">
<title>Node9</title>
<polygon fill="#ffffff" stroke="#bfbfbf" points="596.9893,-7 596.9893,-28 642.9893,-28 642.9893,-7 596.9893,-7"/>
<text text-anchor="middle" x="619.9893" y="-14.4" font-family="Helvetica,sans-Serif" font-size="12.00" fill="#000000">string</text>
</g>
<!-- Node0&#45;&gt;Node9 -->
<g id="edge12" class="edge">
<title>Node0&#45;&gt;Node9</title>
<path fill="none" stroke="#191970" d="M588.0105,-142.4697C595.3679,-113.7178 607.6989,-65.5297 614.7044,-38.1529"/>
<polygon fill="#191970" stroke="#191970" points="618.1814,-38.6831 617.2698,-28.1276 611.3999,-36.9478 618.1814,-38.6831"/>
</g>
<!-- Node10 -->
<g id="node11" class="node">
<title>Node10</title>
<polygon fill="#ffffff" stroke="#bfbfbf" points="637.9893,-78 637.9893,-99 693.9893,-99 693.9893,-78 637.9893,-78"/>
<text text-anchor="middle" x="665.9893" y="-85.4" font-family="Helvetica,sans-Serif" font-size="12.00" fill="#000000">fstream</text>
</g>
<!-- Node0&#45;&gt;Node10 -->
<g id="edge11" class="edge">
<title>Node0&#45;&gt;Node10</title>
<path fill="none" stroke="#191970" d="M607.6485,-142.3263C620.3497,-130.6079 635.413,-116.7102 647.0517,-105.9721"/>
<polygon fill="#191970" stroke="#191970" points="649.5147,-108.4619 654.4911,-99.1085 644.768,-103.3171 649.5147,-108.4619"/>
</g>
<!-- Node11 -->
<g id="node12" class="node">
<title>Node11</title>
<polygon fill="#ffffff" stroke="#bfbfbf" points="712.4893,-78 712.4893,-99 767.4893,-99 767.4893,-78 712.4893,-78"/>
<text text-anchor="middle" x="739.9893" y="-85.4" font-family="Helvetica,sans-Serif" font-size="12.00" fill="#000000">cassert</text>
</g>
<!-- Node0&#45;&gt;Node11 -->
<g id="edge13" class="edge">
<title>Node0&#45;&gt;Node11</title>
<path fill="none" stroke="#191970" d="M630.253,-142.3263C655.9812,-129.7065 686.8621,-114.5592 709.3013,-103.5526"/>
<polygon fill="#191970" stroke="#191970" points="710.9249,-106.6547 718.3617,-99.1085 707.8422,-100.37 710.9249,-106.6547"/>
</g>
<!-- Node12 -->
<g id="node13" class="node">
<title>Node12</title>
<polygon fill="#ffffff" stroke="#bfbfbf" points="785.9893,-71.5 785.9893,-105.5 895.9893,-105.5 895.9893,-71.5 785.9893,-71.5"/>
<text text-anchor="start" x="793.9893" y="-91.9" font-family="Helvetica,sans-Serif" font-size="12.00" fill="#000000">boost/archive/text</text>
<text text-anchor="middle" x="840.9893" y="-78.9" font-family="Helvetica,sans-Serif" font-size="12.00" fill="#000000">_oarchive.hpp</text>
</g>
<!-- Node0&#45;&gt;Node12 -->
<g id="edge14" class="edge">
<title>Node0&#45;&gt;Node12</title>
<path fill="none" stroke="#191970" d="M660.7527,-142.4318C697.6187,-131.4005 741.0008,-118.4193 775.9646,-107.9572"/>
<polygon fill="#191970" stroke="#191970" points="777.0136,-111.2967 785.5906,-105.0768 775.0069,-104.5905 777.0136,-111.2967"/>
</g>
<!-- Node13 -->
<g id="node14" class="node">
<title>Node13</title>
<polygon fill="#ffffff" stroke="#bfbfbf" points="913.9893,-71.5 913.9893,-105.5 1023.9893,-105.5 1023.9893,-71.5 913.9893,-71.5"/>
<text text-anchor="start" x="921.9893" y="-91.9" font-family="Helvetica,sans-Serif" font-size="12.00" fill="#000000">boost/archive/text</text>
<text text-anchor="middle" x="968.9893" y="-78.9" font-family="Helvetica,sans-Serif" font-size="12.00" fill="#000000">_iarchive.hpp</text>
</g>
<!-- Node0&#45;&gt;Node13 -->
<g id="edge15" class="edge">
<title>Node0&#45;&gt;Node13</title>
<path fill="none" stroke="#191970" d="M679.5967,-150.0477C741.3884,-139.435 823.1201,-124.4572 904.0418,-106.127"/>
<polygon fill="#191970" stroke="#191970" points="904.9348,-109.5132 913.9049,-103.875 903.3766,-102.6888 904.9348,-109.5132"/>
</g>
<!-- Node14 -->
<g id="node15" class="node">
<title>Node14</title>
<polygon fill="#ffffff" stroke="#bfbfbf" points="1042.4893,-71.5 1042.4893,-105.5 1155.4893,-105.5 1155.4893,-71.5 1042.4893,-71.5"/>
<text text-anchor="start" x="1050.4893" y="-91.9" font-family="Helvetica,sans-Serif" font-size="12.00" fill="#000000">boost/serialization</text>
<text text-anchor="middle" x="1098.9893" y="-78.9" font-family="Helvetica,sans-Serif" font-size="12.00" fill="#000000">/base_object.hpp</text>
</g>
<!-- Node0&#45;&gt;Node14 -->
<g id="edge16" class="edge">
<title>Node0&#45;&gt;Node14</title>
<path fill="none" stroke="#191970" d="M679.7892,-156.61C769.2091,-147.1927 905.1965,-130.7851 1032.2996,-105.998"/>
<polygon fill="#191970" stroke="#191970" points="1033.0801,-109.4116 1042.2144,-104.0436 1031.7263,-102.5437 1033.0801,-109.4116"/>
</g>
<!-- Node6&#45;&gt;Node1 -->
<g id="edge7" class="edge">
<title>Node6&#45;&gt;Node1</title>
<path fill="none" stroke="#191970" d="M535.9983,-77.9438C530.6321,-75.33 524.6966,-72.7732 518.9893,-71 432.6773,-44.1838 330.2045,-30.5703 257.7772,-23.8129"/>
<polygon fill="#191970" stroke="#191970" points="258.037,-20.3222 247.7616,-22.9042 257.4044,-27.2935 258.037,-20.3222"/>
</g>
<!-- Node7 -->
<g id="node8" class="node">
<title>Node7</title>
<polygon fill="#ffffff" stroke="#bfbfbf" points="430.9893,-7 430.9893,-28 492.9893,-28 492.9893,-7 430.9893,-7"/>
<text text-anchor="middle" x="461.9893" y="-14.4" font-family="Helvetica,sans-Serif" font-size="12.00" fill="#000000">iostream</text>
</g>
<!-- Node6&#45;&gt;Node7 -->
<g id="edge8" class="edge">
<title>Node6&#45;&gt;Node7</title>
<path fill="none" stroke="#191970" d="M540.8646,-77.7166C525.7555,-66.1818 501.5934,-47.7354 483.9891,-34.2955"/>
<polygon fill="#191970" stroke="#191970" points="486.0145,-31.4385 475.9422,-28.1522 481.7668,-37.0024 486.0145,-31.4385"/>
</g>
<!-- Node8 -->
<g id="node9" class="node">
<title>Node8</title>
<polygon fill="#ffffff" stroke="#bfbfbf" points="510.9893,-7 510.9893,-28 578.9893,-28 578.9893,-7 510.9893,-7"/>
<text text-anchor="middle" x="544.9893" y="-14.4" font-family="Helvetica,sans-Serif" font-size="12.00" fill="#000000">exception</text>
</g>
<!-- Node6&#45;&gt;Node8 -->
<g id="edge9" class="edge">
<title>Node6&#45;&gt;Node8</title>
<path fill="none" stroke="#191970" d="M553.4705,-77.7166C552.0021,-67.291 549.7385,-51.2192 547.919,-38.3011"/>
<polygon fill="#191970" stroke="#191970" points="551.3829,-37.7989 546.5224,-28.3849 544.4514,-38.7753 551.3829,-37.7989"/>
</g>
<!-- Node6&#45;&gt;Node9 -->
<g id="edge10" class="edge">
<title>Node6&#45;&gt;Node9</title>
<path fill="none" stroke="#191970" d="M564.8614,-77.7166C574.9787,-66.6655 590.9038,-49.2703 603.0418,-36.0118"/>
<polygon fill="#191970" stroke="#191970" points="605.8533,-38.1241 610.0243,-28.3849 600.6902,-33.3973 605.8533,-38.1241"/>
</g>
</g>
</svg>
