<?xml version="1.0" encoding="UTF-8" standalone="no"?>
<!DOCTYPE svg PUBLIC "-//W3C//DTD SVG 1.1//EN"
 "http://www.w3.org/Graphics/SVG/1.1/DTD/svg11.dtd">
<!-- Generated by graphviz version 2.40.1 (20161225.0304)
 -->
<!-- Title: /Users/kpenev/projects/git/poet/poet_src/Evolve/ZoneOrientation.h Pages: 1 -->
<svg width="1517pt" height="236pt"
 viewBox="0.00 0.00 1517.40 236.00" xmlns="http://www.w3.org/2000/svg" xmlns:xlink="http://www.w3.org/1999/xlink">
<g id="graph0" class="graph" transform="scale(1 1) rotate(0) translate(4 232)">
<title>/Users/kpenev/projects/git/poet/poet_src/Evolve/ZoneOrientation.h</title>
<polygon fill="#ffffff" stroke="transparent" points="-4,4 -4,-232 1513.3984,-232 1513.3984,4 -4,4"/>
<!-- Node0 -->
<g id="node1" class="node">
<title>Node0</title>
<polygon fill="#bfbfbf" stroke="#000000" points="300.9971,-183.5 300.9971,-227.5 448.4053,-227.5 448.4053,-183.5 300.9971,-183.5"/>
<text text-anchor="start" x="308.9971" y="-213.9" font-family="Helvetica,sans-Serif" font-size="12.00" fill="#000000">/Users/kpenev/projects</text>
<text text-anchor="start" x="308.9971" y="-201.9" font-family="Helvetica,sans-Serif" font-size="12.00" fill="#000000">/git/poet/poet_src/Evolve</text>
<text text-anchor="middle" x="374.7012" y="-189.9" font-family="Helvetica,sans-Serif" font-size="12.00" fill="#000000">/ZoneOrientation.h</text>
</g>
<!-- Node1 -->
<g id="node2" class="node">
<title>Node1</title>
<g id="a_node2"><a xlink:href="SharedLibraryExportMacros_8h_source.html" target="_top" xlink:title="../Core/SharedLibraryExport\lMacros.h">
<polygon fill="#ffffff" stroke="#000000" points="0,-.5 0,-32.5 165.4023,-32.5 165.4023,-.5 0,-.5"/>
<text text-anchor="start" x="8" y="-18.9" font-family="Helvetica,sans-Serif" font-size="12.00" fill="#000000">../Core/SharedLibraryExport</text>
<text text-anchor="middle" x="82.7012" y="-6.9" font-family="Helvetica,sans-Serif" font-size="12.00" fill="#000000">Macros.h</text>
</a>
</g>
</g>
<!-- Node0&#45;&gt;Node1 -->
<g id="edge1" class="edge">
<title>Node0&#45;&gt;Node1</title>
<path fill="none" stroke="#191970" d="M300.6222,-202.361C214.6365,-197.0591 80.2987,-183.0943 46.7012,-147 23.0117,-121.5501 29.1924,-101.8091 40.7012,-69 44.3903,-58.483 51.1705,-48.5077 58.2226,-40.133"/>
<polygon fill="#191970" stroke="#191970" points="60.8879,-42.4035 64.9751,-32.6288 55.6844,-37.7212 60.8879,-42.4035"/>
</g>
<!-- Node2 -->
<g id="node3" class="node">
<title>Node2</title>
<g id="a_node3"><a xlink:href="DissipationQuantities_8h.html" target="_top" xlink:title="Declaration of enumerations of dissipation quantities and derivatives. ">
<polygon fill="#ffffff" stroke="#000000" points="55.3359,-126.5 55.3359,-146.5 194.0664,-146.5 194.0664,-126.5 55.3359,-126.5"/>
<text text-anchor="middle" x="124.7012" y="-132.9" font-family="Helvetica,sans-Serif" font-size="12.00" fill="#000000">DissipationQuantities.h</text>
</a>
</g>
</g>
<!-- Node0&#45;&gt;Node2 -->
<g id="edge2" class="edge">
<title>Node0&#45;&gt;Node2</title>
<path fill="none" stroke="#191970" d="M300.7076,-185.0778C258.5928,-173.4541 207.154,-159.257 170.7897,-149.2204"/>
<polygon fill="#191970" stroke="#191970" points="171.5239,-145.7923 160.9531,-146.5055 169.6615,-152.54 171.5239,-145.7923"/>
</g>
<!-- Node5 -->
<g id="node6" class="node">
<title>Node5</title>
<g id="a_node6"><a xlink:href="Core_2Common_8h.html" target="_top" xlink:title="Declaration of some general purpose utilities. ">
<polygon fill="#ffffff" stroke="#000000" points="530.6846,-126.5 530.6846,-146.5 644.7178,-146.5 644.7178,-126.5 530.6846,-126.5"/>
<text text-anchor="middle" x="587.7012" y="-132.9" font-family="Helvetica,sans-Serif" font-size="12.00" fill="#000000">../Core/Common.h</text>
</a>
</g>
</g>
<!-- Node0&#45;&gt;Node5 -->
<g id="edge6" class="edge">
<title>Node0&#45;&gt;Node5</title>
<path fill="none" stroke="#191970" d="M442.6813,-183.4783C477.0281,-172.3518 517.5524,-159.2242 547.0192,-149.6787"/>
<polygon fill="#191970" stroke="#191970" points="548.1288,-152.9984 556.5635,-146.5869 545.9715,-146.339 548.1288,-152.9984"/>
</g>
<!-- Node21 -->
<g id="node22" class="node">
<title>Node21</title>
<g id="a_node22"><a xlink:href="IncludeEigen_8h_source.html" target="_top" xlink:title="IncludeEigen.h">
<polygon fill="#ffffff" stroke="#000000" points="1414.0039,-69.5 1414.0039,-89.5 1509.3984,-89.5 1509.3984,-69.5 1414.0039,-69.5"/>
<text text-anchor="middle" x="1461.7012" y="-75.9" font-family="Helvetica,sans-Serif" font-size="12.00" fill="#000000">IncludeEigen.h</text>
</a>
</g>
</g>
<!-- Node0&#45;&gt;Node21 -->
<g id="edge28" class="edge">
<title>Node0&#45;&gt;Node21</title>
<path fill="none" stroke="#191970" d="M448.7042,-199.0996C616.8856,-184.1449 1040.7976,-144.1456 1403.866,-90.2045"/>
<polygon fill="#191970" stroke="#191970" points="1404.4051,-93.6629 1413.7793,-88.7259 1403.3724,-86.7395 1404.4051,-93.6629"/>
</g>
<!-- Node2&#45;&gt;Node1 -->
<g id="edge3" class="edge">
<title>Node2&#45;&gt;Node1</title>
<path fill="none" stroke="#191970" d="M93.9622,-126.4762C77.0763,-119.2149 57.6017,-107.5447 47.7012,-90 38.6433,-73.9486 47.8957,-55.178 59.1542,-40.6237"/>
<polygon fill="#191970" stroke="#191970" points="62.1451,-42.5042 65.8916,-32.5939 56.7827,-38.0048 62.1451,-42.5042"/>
</g>
<!-- Node3 -->
<g id="node4" class="node">
<title>Node3</title>
<polygon fill="#ffffff" stroke="#bfbfbf" points="57.0273,-69.5 57.0273,-89.5 116.375,-89.5 116.375,-69.5 57.0273,-69.5"/>
<text text-anchor="middle" x="86.7012" y="-75.9" font-family="Helvetica,sans-Serif" font-size="12.00" fill="#000000">ostream</text>
</g>
<!-- Node2&#45;&gt;Node3 -->
<g id="edge4" class="edge">
<title>Node2&#45;&gt;Node3</title>
<path fill="none" stroke="#191970" d="M117.9075,-126.3095C112.6659,-118.4472 105.275,-107.3608 99.0016,-97.9507"/>
<polygon fill="#191970" stroke="#191970" points="101.8952,-95.9813 93.436,-89.6022 96.0709,-99.8642 101.8952,-95.9813"/>
</g>
<!-- Node4 -->
<g id="node5" class="node">
<title>Node4</title>
<polygon fill="#ffffff" stroke="#bfbfbf" points="134.3623,-69.5 134.3623,-89.5 189.04,-89.5 189.04,-69.5 134.3623,-69.5"/>
<text text-anchor="middle" x="161.7012" y="-75.9" font-family="Helvetica,sans-Serif" font-size="12.00" fill="#000000">cassert</text>
</g>
<!-- Node2&#45;&gt;Node4 -->
<g id="edge5" class="edge">
<title>Node2&#45;&gt;Node4</title>
<path fill="none" stroke="#191970" d="M131.316,-126.3095C136.3671,-118.5282 143.4679,-107.589 149.5351,-98.2423"/>
<polygon fill="#191970" stroke="#191970" points="152.6346,-99.8957 155.1436,-89.6022 146.7631,-96.0844 152.6346,-99.8957"/>
</g>
<!-- Node5&#45;&gt;Node1 -->
<g id="edge19" class="edge">
<title>Node5&#45;&gt;Node1</title>
<path fill="none" stroke="#191970" d="M530.5268,-131.5523C445.2706,-123.7338 289.1276,-107.5925 235.7012,-90 217.373,-83.9648 214.935,-77.6798 197.7012,-69 175.4334,-57.7849 150.2828,-46.185 129.1929,-36.7504"/>
<polygon fill="#191970" stroke="#191970" points="130.3729,-33.4446 119.8136,-32.5771 127.5272,-39.8401 130.3729,-33.4446"/>
</g>
<!-- Node5&#45;&gt;Node4 -->
<g id="edge18" class="edge">
<title>Node5&#45;&gt;Node4</title>
<path fill="none" stroke="#191970" d="M530.5935,-131.9489C455.1068,-125.3988 318.1706,-111.6631 202.7012,-90 201.6179,-89.7968 200.5208,-89.5813 199.4153,-89.3557"/>
<polygon fill="#191970" stroke="#191970" points="199.9034,-85.8785 189.3804,-87.1105 198.3749,-92.7096 199.9034,-85.8785"/>
</g>
<!-- Node6 -->
<g id="node7" class="node">
<title>Node6</title>
<polygon fill="#ffffff" stroke="#bfbfbf" points="314.3682,-69.5 314.3682,-89.5 345.0342,-89.5 345.0342,-69.5 314.3682,-69.5"/>
<text text-anchor="middle" x="329.7012" y="-75.9" font-family="Helvetica,sans-Serif" font-size="12.00" fill="#000000">list</text>
</g>
<!-- Node5&#45;&gt;Node6 -->
<g id="edge7" class="edge">
<title>Node5&#45;&gt;Node6</title>
<path fill="none" stroke="#191970" d="M530.4121,-128.3565C482.756,-120.8032 413.466,-108.0047 354.7012,-90 354.6027,-89.9698 354.5041,-89.9394 354.4054,-89.9088"/>
<polygon fill="#191970" stroke="#191970" points="355.7202,-86.6626 345.1261,-86.5454 353.3348,-93.2436 355.7202,-86.6626"/>
</g>
<!-- Node7 -->
<g id="node8" class="node">
<title>Node7</title>
<polygon fill="#ffffff" stroke="#bfbfbf" points="363.3613,-69.5 363.3613,-89.5 422.041,-89.5 422.041,-69.5 363.3613,-69.5"/>
<text text-anchor="middle" x="392.7012" y="-75.9" font-family="Helvetica,sans-Serif" font-size="12.00" fill="#000000">valarray</text>
</g>
<!-- Node5&#45;&gt;Node7 -->
<g id="edge8" class="edge">
<title>Node5&#45;&gt;Node7</title>
<path fill="none" stroke="#191970" d="M553.288,-126.4408C519.4532,-116.5506 467.8556,-101.4682 432.3267,-91.0828"/>
<polygon fill="#191970" stroke="#191970" points="432.8879,-87.6005 422.3075,-88.1542 430.9239,-94.3193 432.8879,-87.6005"/>
</g>
<!-- Node8 -->
<g id="node9" class="node">
<title>Node8</title>
<polygon fill="#ffffff" stroke="#bfbfbf" points="440.0371,-69.5 440.0371,-89.5 483.3652,-89.5 483.3652,-69.5 440.0371,-69.5"/>
<text text-anchor="middle" x="461.7012" y="-75.9" font-family="Helvetica,sans-Serif" font-size="12.00" fill="#000000">limits</text>
</g>
<!-- Node5&#45;&gt;Node8 -->
<g id="edge9" class="edge">
<title>Node5&#45;&gt;Node8</title>
<path fill="none" stroke="#191970" d="M565.4649,-126.4408C545.3124,-117.3241 515.4075,-103.7957 492.8721,-93.6011"/>
<polygon fill="#191970" stroke="#191970" points="494.2688,-90.3915 483.7151,-89.4587 491.3836,-96.7693 494.2688,-90.3915"/>
</g>
<!-- Node9 -->
<g id="node10" class="node">
<title>Node9</title>
<polygon fill="#ffffff" stroke="#bfbfbf" points="501.3643,-69.5 501.3643,-89.5 560.0381,-89.5 560.0381,-69.5 501.3643,-69.5"/>
<text text-anchor="middle" x="530.7012" y="-75.9" font-family="Helvetica,sans-Serif" font-size="12.00" fill="#000000">sstream</text>
</g>
<!-- Node5&#45;&gt;Node9 -->
<g id="edge10" class="edge">
<title>Node5&#45;&gt;Node9</title>
<path fill="none" stroke="#191970" d="M577.5107,-126.3095C569.3241,-118.1229 557.6421,-106.441 547.9966,-96.7955"/>
<polygon fill="#191970" stroke="#191970" points="550.3494,-94.1984 540.8034,-89.6022 545.3996,-99.1482 550.3494,-94.1984"/>
</g>
<!-- Node10 -->
<g id="node11" class="node">
<title>Node10</title>
<polygon fill="#ffffff" stroke="#bfbfbf" points="434.6943,-6.5 434.6943,-26.5 496.708,-26.5 496.708,-6.5 434.6943,-6.5"/>
<text text-anchor="middle" x="465.7012" y="-12.9" font-family="Helvetica,sans-Serif" font-size="12.00" fill="#000000">iostream</text>
</g>
<!-- Node5&#45;&gt;Node10 -->
<g id="edge11" class="edge">
<title>Node5&#45;&gt;Node10</title>
<path fill="none" stroke="#191970" d="M587.3116,-126.1861C586.2608,-111.844 582.443,-85.7556 568.7012,-69 552.8074,-49.6205 527.9113,-36.6554 506.5773,-28.4581"/>
<polygon fill="#191970" stroke="#191970" points="507.6652,-25.1298 497.071,-25.0214 505.2853,-31.7128 507.6652,-25.1298"/>
</g>
<!-- Node11 -->
<g id="node12" class="node">
<title>Node11</title>
<polygon fill="#ffffff" stroke="#bfbfbf" points="616.0273,-69.5 616.0273,-89.5 669.375,-89.5 669.375,-69.5 616.0273,-69.5"/>
<text text-anchor="middle" x="642.7012" y="-75.9" font-family="Helvetica,sans-Serif" font-size="12.00" fill="#000000">iterator</text>
</g>
<!-- Node5&#45;&gt;Node11 -->
<g id="edge12" class="edge">
<title>Node5&#45;&gt;Node11</title>
<path fill="none" stroke="#191970" d="M597.5341,-126.3095C605.3552,-118.204 616.4826,-106.672 625.7355,-97.0826"/>
<polygon fill="#191970" stroke="#191970" points="628.5284,-99.2288 632.9534,-89.6022 623.491,-94.3681 628.5284,-99.2288"/>
</g>
<!-- Node12 -->
<g id="node13" class="node">
<title>Node12</title>
<polygon fill="#ffffff" stroke="#bfbfbf" points="687.3428,-69.5 687.3428,-89.5 786.0596,-89.5 786.0596,-69.5 687.3428,-69.5"/>
<text text-anchor="middle" x="736.7012" y="-75.9" font-family="Helvetica,sans-Serif" font-size="12.00" fill="#000000">gsl/gsl_vector.h</text>
</g>
<!-- Node5&#45;&gt;Node12 -->
<g id="edge13" class="edge">
<title>Node5&#45;&gt;Node12</title>
<path fill="none" stroke="#191970" d="M613.9964,-126.4408C638.1787,-117.1898 674.236,-103.3961 701.0126,-93.1527"/>
<polygon fill="#191970" stroke="#191970" points="702.3293,-96.3964 710.4186,-89.5544 699.8282,-89.8585 702.3293,-96.3964"/>
</g>
<!-- Node13 -->
<g id="node14" class="node">
<title>Node13</title>
<polygon fill="#ffffff" stroke="#bfbfbf" points="804.0205,-69.5 804.0205,-89.5 903.3818,-89.5 903.3818,-69.5 804.0205,-69.5"/>
<text text-anchor="middle" x="853.7012" y="-75.9" font-family="Helvetica,sans-Serif" font-size="12.00" fill="#000000">gsl/gsl_matrix.h</text>
</g>
<!-- Node5&#45;&gt;Node13 -->
<g id="edge14" class="edge">
<title>Node5&#45;&gt;Node13</title>
<path fill="none" stroke="#191970" d="M634.6443,-126.4408C679.8982,-116.7435 748.4467,-102.0545 796.7876,-91.6958"/>
<polygon fill="#191970" stroke="#191970" points="797.736,-95.0721 806.7807,-89.5544 796.2693,-88.2274 797.736,-95.0721"/>
</g>
<!-- Node14 -->
<g id="node15" class="node">
<title>Node14</title>
<polygon fill="#ffffff" stroke="#bfbfbf" points="921.3438,-69.5 921.3438,-89.5 1016.0586,-89.5 1016.0586,-69.5 921.3438,-69.5"/>
<text text-anchor="middle" x="968.7012" y="-75.9" font-family="Helvetica,sans-Serif" font-size="12.00" fill="#000000">gsl/gsl_linalg.h</text>
</g>
<!-- Node5&#45;&gt;Node14 -->
<g id="edge15" class="edge">
<title>Node5&#45;&gt;Node14</title>
<path fill="none" stroke="#191970" d="M644.7634,-129.0956C707.6593,-120.7635 812.0687,-106.4302 911.1848,-90.2035"/>
<polygon fill="#191970" stroke="#191970" points="911.7686,-93.6546 921.067,-88.5763 910.6312,-86.7476 911.7686,-93.6546"/>
</g>
<!-- Node15 -->
<g id="node16" class="node">
<title>Node15</title>
<polygon fill="#ffffff" stroke="#bfbfbf" points="1034.3467,-69.5 1034.3467,-89.5 1123.0557,-89.5 1123.0557,-69.5 1034.3467,-69.5"/>
<text text-anchor="middle" x="1078.7012" y="-75.9" font-family="Helvetica,sans-Serif" font-size="12.00" fill="#000000">gsl/gsl_blas.h</text>
</g>
<!-- Node5&#45;&gt;Node15 -->
<g id="edge16" class="edge">
<title>Node5&#45;&gt;Node15</title>
<path fill="none" stroke="#191970" d="M644.8171,-132.001C726.5035,-125.2179 881.5921,-111.047 1024.0247,-89.9847"/>
<polygon fill="#191970" stroke="#191970" points="1024.8836,-93.3953 1034.2568,-88.4563 1023.8494,-86.4721 1024.8836,-93.3953"/>
</g>
<!-- Node16 -->
<g id="node17" class="node">
<title>Node16</title>
<polygon fill="#ffffff" stroke="#bfbfbf" points="1140.7891,-69.5 1140.7891,-89.5 1228.6133,-89.5 1228.6133,-69.5 1140.7891,-69.5"/>
<text text-anchor="middle" x="1184.7012" y="-75.9" font-family="Helvetica,sans-Serif" font-size="12.00" fill="#000000">gsl/gsl_poly.h</text>
</g>
<!-- Node5&#45;&gt;Node16 -->
<g id="edge17" class="edge">
<title>Node5&#45;&gt;Node16</title>
<path fill="none" stroke="#191970" d="M645.1098,-133.6798C742.7828,-128.4249 947.6764,-115.4232 1130.4517,-90.0455"/>
<polygon fill="#191970" stroke="#191970" points="1131.1008,-93.4888 1140.5169,-88.6322 1130.1274,-86.5568 1131.1008,-93.4888"/>
</g>
<!-- Node17 -->
<g id="node18" class="node">
<title>Node17</title>
<g id="a_node18"><a xlink:href="Error_8h.html" target="_top" xlink:title="Defines the exception hierarchy used by this code. ">
<polygon fill="#ffffff" stroke="#000000" points="244.6924,-69.5 244.6924,-89.5 296.71,-89.5 296.71,-69.5 244.6924,-69.5"/>
<text text-anchor="middle" x="270.7012" y="-75.9" font-family="Helvetica,sans-Serif" font-size="12.00" fill="#000000">Error.h</text>
</a>
</g>
</g>
<!-- Node5&#45;&gt;Node17 -->
<g id="edge20" class="edge">
<title>Node5&#45;&gt;Node17</title>
<path fill="none" stroke="#191970" d="M530.5676,-129.2665C475.4809,-121.8002 389.6509,-108.8774 306.8025,-90.0416"/>
<polygon fill="#191970" stroke="#191970" points="307.5084,-86.6126 296.9777,-87.7764 305.9357,-93.4337 307.5084,-86.6126"/>
</g>
<!-- Node20 -->
<g id="node21" class="node">
<title>Node20</title>
<g id="a_node21"><a xlink:href="AstronomicalConstants_8h.html" target="_top" xlink:title="Defines various astronomical constants. ">
<polygon fill="#ffffff" stroke="#000000" points="1247.0039,-69.5 1247.0039,-89.5 1396.3984,-89.5 1396.3984,-69.5 1247.0039,-69.5"/>
<text text-anchor="middle" x="1321.7012" y="-75.9" font-family="Helvetica,sans-Serif" font-size="12.00" fill="#000000">AstronomicalConstants.h</text>
</a>
</g>
</g>
<!-- Node5&#45;&gt;Node20 -->
<g id="edge25" class="edge">
<title>Node5&#45;&gt;Node20</title>
<path fill="none" stroke="#191970" d="M644.7368,-133.4376C756.2859,-127.2265 1011.3712,-111.9343 1236.5931,-90.0651"/>
<polygon fill="#191970" stroke="#191970" points="1237.0053,-93.5415 1246.6174,-89.0854 1236.3243,-86.5747 1237.0053,-93.5415"/>
</g>
<!-- Node5&#45;&gt;Node21 -->
<g id="edge26" class="edge">
<title>Node5&#45;&gt;Node21</title>
<path fill="none" stroke="#191970" d="M644.9486,-135.7731C777.0579,-133.5514 1113.524,-124.7813 1403.5073,-90.1431"/>
<polygon fill="#191970" stroke="#191970" points="1404.2946,-93.5735 1413.8029,-88.8999 1403.4554,-86.624 1404.2946,-93.5735"/>
</g>
<!-- Node17&#45;&gt;Node1 -->
<g id="edge21" class="edge">
<title>Node17&#45;&gt;Node1</title>
<path fill="none" stroke="#191970" d="M244.5606,-70.7401C217.7238,-61.7469 175.086,-47.4587 140.308,-35.8044"/>
<polygon fill="#191970" stroke="#191970" points="141.3208,-32.4526 130.7269,-32.5937 139.0966,-39.0898 141.3208,-32.4526"/>
</g>
<!-- Node17&#45;&gt;Node10 -->
<g id="edge22" class="edge">
<title>Node17&#45;&gt;Node10</title>
<path fill="none" stroke="#191970" d="M296.9997,-71.0035C329.8278,-60.3975 386.3347,-42.1415 424.8245,-29.7063"/>
<polygon fill="#191970" stroke="#191970" points="426.2419,-32.9266 434.6816,-26.5217 424.0899,-26.2656 426.2419,-32.9266"/>
</g>
<!-- Node18 -->
<g id="node19" class="node">
<title>Node18</title>
<polygon fill="#ffffff" stroke="#bfbfbf" points="200.0166,-6.5 200.0166,-26.5 267.3857,-26.5 267.3857,-6.5 200.0166,-6.5"/>
<text text-anchor="middle" x="233.7012" y="-12.9" font-family="Helvetica,sans-Serif" font-size="12.00" fill="#000000">exception</text>
</g>
<!-- Node17&#45;&gt;Node18 -->
<g id="edge23" class="edge">
<title>Node17&#45;&gt;Node18</title>
<path fill="none" stroke="#191970" d="M264.7565,-69.378C259.4478,-60.3389 251.5275,-46.853 245.0144,-35.7631"/>
<polygon fill="#191970" stroke="#191970" points="247.8363,-33.6566 239.754,-26.8062 241.8003,-37.2016 247.8363,-33.6566"/>
</g>
<!-- Node19 -->
<g id="node20" class="node">
<title>Node19</title>
<polygon fill="#ffffff" stroke="#bfbfbf" points="285.0293,-6.5 285.0293,-26.5 330.373,-26.5 330.373,-6.5 285.0293,-6.5"/>
<text text-anchor="middle" x="307.7012" y="-12.9" font-family="Helvetica,sans-Serif" font-size="12.00" fill="#000000">string</text>
</g>
<!-- Node17&#45;&gt;Node19 -->
<g id="edge24" class="edge">
<title>Node17&#45;&gt;Node19</title>
<path fill="none" stroke="#191970" d="M276.6459,-69.378C281.9545,-60.3389 289.8748,-46.853 296.3879,-35.7631"/>
<polygon fill="#191970" stroke="#191970" points="299.6021,-37.2016 301.6483,-26.8062 293.566,-33.6566 299.6021,-37.2016"/>
</g>
<!-- Node22 -->
<g id="node23" class="node">
<title>Node22</title>
<polygon fill="#ffffff" stroke="#bfbfbf" points="1419.3447,-6.5 1419.3447,-26.5 1504.0576,-26.5 1504.0576,-6.5 1419.3447,-6.5"/>
<text text-anchor="middle" x="1461.7012" y="-12.9" font-family="Helvetica,sans-Serif" font-size="12.00" fill="#000000">Eigen/Dense</text>
</g>
<!-- Node21&#45;&gt;Node22 -->
<g id="edge27" class="edge">
<title>Node21&#45;&gt;Node22</title>
<path fill="none" stroke="#191970" d="M1461.7012,-69.378C1461.7012,-60.7041 1461.7012,-47.9355 1461.7012,-37.1186"/>
<polygon fill="#191970" stroke="#191970" points="1465.2013,-36.8062 1461.7012,-26.8062 1458.2013,-36.8062 1465.2013,-36.8062"/>
</g>
</g>
</svg>
