<?xml version="1.0" encoding="UTF-8" standalone="no"?>
<!DOCTYPE svg PUBLIC "-//W3C//DTD SVG 1.1//EN"
 "http://www.w3.org/Graphics/SVG/1.1/DTD/svg11.dtd">
<!-- Generated by graphviz version 2.40.1 (20161225.0304)
 -->
<!-- Title: /home/kpenev/projects/git/poet/poet_src/Evolve/BrokenPowerlawPhaseLagZone.h Pages: 1 -->
<svg width="2423pt" height="559pt"
 viewBox="0.00 0.00 2423.00 559.00" xmlns="http://www.w3.org/2000/svg" xmlns:xlink="http://www.w3.org/1999/xlink">
<g id="graph0" class="graph" transform="scale(1 1) rotate(0) translate(4 555)">
<title>/home/kpenev/projects/git/poet/poet_src/Evolve/BrokenPowerlawPhaseLagZone.h</title>
<polygon fill="#ffffff" stroke="transparent" points="-4,4 -4,-555 2419,-555 2419,4 -4,4"/>
<!-- Node0 -->
<g id="node1" class="node">
<title>Node0</title>
<polygon fill="#bfbfbf" stroke="#000000" points="1231.5,-503.5 1231.5,-550.5 1434.5,-550.5 1434.5,-503.5 1231.5,-503.5"/>
<text text-anchor="start" x="1239.5" y="-536.9" font-family="Helvetica,sans-Serif" font-size="12.00" fill="#000000">/home/kpenev/projects</text>
<text text-anchor="start" x="1239.5" y="-523.9" font-family="Helvetica,sans-Serif" font-size="12.00" fill="#000000">/git/poet/poet_src/Evolve</text>
<text text-anchor="middle" x="1333" y="-510.9" font-family="Helvetica,sans-Serif" font-size="12.00" fill="#000000">/BrokenPowerlawPhaseLagZone.h</text>
</g>
<!-- Node1 -->
<g id="node2" class="node">
<title>Node1</title>
<g id="a_node2"><a xlink:href="SharedLibraryExportMacros_8h_source.html" target="_top" xlink:title="../Core/SharedLibraryExport\lMacros.h">
<polygon fill="#ffffff" stroke="#000000" points="1267.5,-.5 1267.5,-34.5 1432.5,-34.5 1432.5,-.5 1267.5,-.5"/>
<text text-anchor="start" x="1275.5" y="-20.9" font-family="Helvetica,sans-Serif" font-size="12.00" fill="#000000">../Core/SharedLibraryExport</text>
<text text-anchor="middle" x="1350" y="-7.9" font-family="Helvetica,sans-Serif" font-size="12.00" fill="#000000">Macros.h</text>
</a>
</g>
</g>
<!-- Node0&#45;&gt;Node1 -->
<g id="edge1" class="edge">
<title>Node0&#45;&gt;Node1</title>
<path fill="none" stroke="#191970" d="M1434.7919,-524.2237C1704.1409,-515.5315 2415,-483.2813 2415,-385 2415,-385 2415,-385 2415,-140 2415,-101.8657 2397.5841,-89.0646 2364,-71 2284.1647,-28.0572 1677.9961,-19.5832 1442.8366,-17.9111"/>
<polygon fill="#191970" stroke="#191970" points="1442.6215,-14.4096 1432.5978,-17.8409 1442.5735,-21.4094 1442.6215,-14.4096"/>
</g>
<!-- Node2 -->
<g id="node3" class="node">
<title>Node2</title>
<g id="a_node3"><a xlink:href="DissipatingZone_8h.html" target="_top" xlink:title="Declares a class representing one zone of a body dissipative to tidal distortions. ">
<polygon fill="#ffffff" stroke="#000000" points="1209,-316.5 1209,-337.5 1323,-337.5 1323,-316.5 1209,-316.5"/>
<text text-anchor="middle" x="1266" y="-323.9" font-family="Helvetica,sans-Serif" font-size="12.00" fill="#000000">DissipatingZone.h</text>
</a>
</g>
</g>
<!-- Node0&#45;&gt;Node2 -->
<g id="edge2" class="edge">
<title>Node0&#45;&gt;Node2</title>
<path fill="none" stroke="#191970" d="M1325.0511,-503.272C1311.8005,-463.718 1285.4192,-384.9677 1272.9005,-347.5986"/>
<polygon fill="#191970" stroke="#191970" points="1276.1198,-346.1896 1269.6245,-337.8193 1269.4823,-348.4132 1276.1198,-346.1896"/>
</g>
<!-- Node39 -->
<g id="node40" class="node">
<title>Node39</title>
<g id="a_node40"><a xlink:href="DissipatingBody_8h.html" target="_top" xlink:title="Declares the DissipatingBody class. ">
<polygon fill="#ffffff" stroke="#000000" points="1679,-374.5 1679,-395.5 1793,-395.5 1793,-374.5 1679,-374.5"/>
<text text-anchor="middle" x="1736" y="-381.9" font-family="Helvetica,sans-Serif" font-size="12.00" fill="#000000">DissipatingBody.h</text>
</a>
</g>
</g>
<!-- Node0&#45;&gt;Node39 -->
<g id="edge72" class="edge">
<title>Node0&#45;&gt;Node39</title>
<path fill="none" stroke="#191970" d="M1434.6523,-511.7036C1484.9305,-502.2168 1545.8579,-487.7902 1598,-467 1641.2594,-449.7515 1686.845,-420.0807 1713.2866,-401.5551"/>
<polygon fill="#191970" stroke="#191970" points="1715.3596,-404.3758 1721.4888,-395.7338 1711.3082,-398.6673 1715.3596,-404.3758"/>
</g>
<!-- Node41 -->
<g id="node42" class="node">
<title>Node41</title>
<g id="a_node42"><a xlink:href="BinarySystem_8h.html" target="_top" xlink:title="Defines the BinarySystem class. ">
<polygon fill="#ffffff" stroke="#000000" points="474.5,-439 474.5,-460 575.5,-460 575.5,-439 474.5,-439"/>
<text text-anchor="middle" x="525" y="-446.4" font-family="Helvetica,sans-Serif" font-size="12.00" fill="#000000">BinarySystem.h</text>
</a>
</g>
</g>
<!-- Node0&#45;&gt;Node41 -->
<g id="edge83" class="edge">
<title>Node0&#45;&gt;Node41</title>
<path fill="none" stroke="#191970" d="M1231.4844,-517.263C1061.3276,-500.9423 723.6634,-468.555 585.7849,-455.3302"/>
<polygon fill="#191970" stroke="#191970" points="586.1033,-451.8448 575.8148,-454.3739 585.4349,-458.8128 586.1033,-451.8448"/>
</g>
<!-- Node46 -->
<g id="node47" class="node">
<title>Node46</title>
<g id="a_node47"><a xlink:href="LagForcingFrequencyBreakCondition_8h.html" target="_top" xlink:title="Declares a stopping condition satisfied when a forcing frequency reaches a critical value...">
<polygon fill="#ffffff" stroke="#000000" points="1423,-432.5 1423,-466.5 1589,-466.5 1589,-432.5 1423,-432.5"/>
<text text-anchor="start" x="1431" y="-452.9" font-family="Helvetica,sans-Serif" font-size="12.00" fill="#000000">LagForcingFrequencyBreak</text>
<text text-anchor="middle" x="1506" y="-439.9" font-family="Helvetica,sans-Serif" font-size="12.00" fill="#000000">Condition.h</text>
</a>
</g>
</g>
<!-- Node0&#45;&gt;Node46 -->
<g id="edge101" class="edge">
<title>Node0&#45;&gt;Node46</title>
<path fill="none" stroke="#191970" d="M1385.8457,-503.3263C1409.0605,-492.9267 1436.1066,-480.8106 1458.6542,-470.7098"/>
<polygon fill="#191970" stroke="#191970" points="1460.3225,-473.7977 1468.0177,-466.5152 1457.4607,-467.4094 1460.3225,-473.7977"/>
</g>
<!-- Node47 -->
<g id="node48" class="node">
<title>Node47</title>
<g id="a_node48"><a xlink:href="LagSpinBreakCondition_8h.html" target="_top" xlink:title="Declares a stopping condition monitoring for critical spin frequencies. ">
<polygon fill="#ffffff" stroke="#000000" points="934.5,-439 934.5,-460 1089.5,-460 1089.5,-439 934.5,-439"/>
<text text-anchor="middle" x="1012" y="-446.4" font-family="Helvetica,sans-Serif" font-size="12.00" fill="#000000">LagSpinBreakCondition.h</text>
</a>
</g>
</g>
<!-- Node0&#45;&gt;Node47 -->
<g id="edge108" class="edge">
<title>Node0&#45;&gt;Node47</title>
<path fill="none" stroke="#191970" d="M1235.382,-503.4318C1179.5327,-489.9479 1111.6173,-473.5509 1065.4386,-462.4019"/>
<polygon fill="#191970" stroke="#191970" points="1066.1801,-458.9804 1055.638,-460.0356 1064.5372,-465.7849 1066.1801,-458.9804"/>
</g>
<!-- Node2&#45;&gt;Node1 -->
<g id="edge32" class="edge">
<title>Node2&#45;&gt;Node1</title>
<path fill="none" stroke="#191970" d="M1323.2177,-321.4991C1343.3683,-319.6412 1366.1809,-317.6274 1387,-316 1448.0556,-311.2273 1883.2105,-309.2789 1937,-280 1982.4775,-255.2455 2059.7317,-142.1562 2076,-93 2079.0721,-83.7174 2082.655,-78.1635 2076,-71 2054.7542,-48.1309 1633.8061,-28.6927 1442.8204,-21.0129"/>
<polygon fill="#191970" stroke="#191970" points="1442.925,-17.5144 1432.7932,-20.612 1442.6453,-24.5088 1442.925,-17.5144"/>
</g>
<!-- Node3 -->
<g id="node4" class="node">
<title>Node3</title>
<g id="a_node4"><a xlink:href="ZoneOrientation_8h.html" target="_top" xlink:title="Declares a class for orientations of zones of DissipatingBody objects. ">
<polygon fill="#ffffff" stroke="#000000" points="752.5,-187.5 752.5,-208.5 865.5,-208.5 865.5,-187.5 752.5,-187.5"/>
<text text-anchor="middle" x="809" y="-194.9" font-family="Helvetica,sans-Serif" font-size="12.00" fill="#000000">ZoneOrientation.h</text>
</a>
</g>
</g>
<!-- Node2&#45;&gt;Node3 -->
<g id="edge3" class="edge">
<title>Node2&#45;&gt;Node3</title>
<path fill="none" stroke="#191970" d="M1228.6018,-316.4434C1145.7969,-293.0696 947.1212,-236.9883 856.0506,-211.2812"/>
<polygon fill="#191970" stroke="#191970" points="856.8488,-207.8699 846.274,-208.5216 854.9471,-214.6066 856.8488,-207.8699"/>
</g>
<!-- Node4 -->
<g id="node5" class="node">
<title>Node4</title>
<g id="a_node5"><a xlink:href="DissipationQuantities_8h.html" target="_top" xlink:title="Declaration of enumerations of dissipation quantities and derivatives. ">
<polygon fill="#ffffff" stroke="#000000" points="823,-129.5 823,-150.5 963,-150.5 963,-129.5 823,-129.5"/>
<text text-anchor="middle" x="893" y="-136.9" font-family="Helvetica,sans-Serif" font-size="12.00" fill="#000000">DissipationQuantities.h</text>
</a>
</g>
</g>
<!-- Node2&#45;&gt;Node4 -->
<g id="edge51" class="edge">
<title>Node2&#45;&gt;Node4</title>
<path fill="none" stroke="#191970" d="M1244.8772,-316.4103C1182.1936,-284.9844 997.0374,-192.1582 923.5546,-155.3183"/>
<polygon fill="#191970" stroke="#191970" points="924.8616,-152.0583 914.3535,-150.7054 921.7243,-158.316 924.8616,-152.0583"/>
</g>
<!-- Node7 -->
<g id="node8" class="node">
<title>Node7</title>
<g id="a_node8"><a xlink:href="Core_2Common_8h.html" target="_top" xlink:title="Declaration of some general purpose utilities. ">
<polygon fill="#ffffff" stroke="#000000" points="1281.5,-129.5 1281.5,-150.5 1394.5,-150.5 1394.5,-129.5 1281.5,-129.5"/>
<text text-anchor="middle" x="1338" y="-136.9" font-family="Helvetica,sans-Serif" font-size="12.00" fill="#000000">../Core/Common.h</text>
</a>
</g>
</g>
<!-- Node2&#45;&gt;Node7 -->
<g id="edge69" class="edge">
<title>Node2&#45;&gt;Node7</title>
<path fill="none" stroke="#191970" d="M1323.313,-321.4679C1435.3652,-310.5193 1673.1281,-286.578 1679,-280 1689.3589,-268.3953 1688.8748,-257.0193 1679,-245 1626.6564,-181.2885 1575.7156,-233.5532 1497,-209 1450.4005,-194.4645 1399.0143,-170.6445 1367.6189,-155.1431"/>
<polygon fill="#191970" stroke="#191970" points="1369.0559,-151.9486 1358.5448,-150.6188 1365.9324,-158.2132 1369.0559,-151.9486"/>
</g>
<!-- Node9 -->
<g id="node10" class="node">
<title>Node9</title>
<polygon fill="#ffffff" stroke="#bfbfbf" points="2007.5,-71.5 2007.5,-92.5 2066.5,-92.5 2066.5,-71.5 2007.5,-71.5"/>
<text text-anchor="middle" x="2037" y="-78.9" font-family="Helvetica,sans-Serif" font-size="12.00" fill="#000000">valarray</text>
</g>
<!-- Node2&#45;&gt;Node9 -->
<g id="edge70" class="edge">
<title>Node2&#45;&gt;Node9</title>
<path fill="none" stroke="#191970" d="M1323.2212,-321.5433C1343.3721,-319.6892 1366.184,-317.6665 1387,-316 1444.7313,-311.378 1857.0141,-309.252 1907,-280 1942.9584,-258.9569 2003.4402,-147.1752 2027.0946,-101.4836"/>
<polygon fill="#191970" stroke="#191970" points="2030.2251,-103.0493 2031.6825,-92.5552 2023.999,-99.85 2030.2251,-103.0493"/>
</g>
<!-- Node19 -->
<g id="node20" class="node">
<title>Node19</title>
<g id="a_node20"><a xlink:href="Error_8h.html" target="_top" xlink:title="Defines the exception hierarchy used by this code. ">
<polygon fill="#ffffff" stroke="#000000" points="261.5,-71.5 261.5,-92.5 314.5,-92.5 314.5,-71.5 261.5,-71.5"/>
<text text-anchor="middle" x="288" y="-78.9" font-family="Helvetica,sans-Serif" font-size="12.00" fill="#000000">Error.h</text>
</a>
</g>
</g>
<!-- Node2&#45;&gt;Node19 -->
<g id="edge33" class="edge">
<title>Node2&#45;&gt;Node19</title>
<path fill="none" stroke="#191970" d="M1208.9729,-325.3135C1028.8781,-319.7784 482.2855,-301.2961 451,-280 413.356,-254.3757 435.2871,-223.4567 408,-187 380.5779,-150.363 338.5321,-117.2583 312.184,-98.4014"/>
<polygon fill="#191970" stroke="#191970" points="314.0866,-95.4605 303.8942,-92.5681 310.0583,-101.1852 314.0866,-95.4605"/>
</g>
<!-- Node25 -->
<g id="node26" class="node">
<title>Node25</title>
<g id="a_node26"><a xlink:href="TidalPotentialTerms_8h.html" target="_top" xlink:title="Declare an interface for evaluating the expansion of the tidal potential. ">
<polygon fill="#ffffff" stroke="#000000" points="1764,-252 1764,-273 1898,-273 1898,-252 1764,-252"/>
<text text-anchor="middle" x="1831" y="-259.4" font-family="Helvetica,sans-Serif" font-size="12.00" fill="#000000">TidalPotentialTerms.h</text>
</a>
</g>
</g>
<!-- Node2&#45;&gt;Node25 -->
<g id="edge34" class="edge">
<title>Node2&#45;&gt;Node25</title>
<path fill="none" stroke="#191970" d="M1323.1136,-321.7375C1408.0354,-313.7415 1572.5693,-297.5914 1712,-280 1725.5037,-278.2963 1739.8453,-276.3257 1753.7228,-274.3346"/>
<polygon fill="#191970" stroke="#191970" points="1754.3326,-277.7828 1763.7271,-272.8846 1753.3284,-270.8552 1754.3326,-277.7828"/>
</g>
<!-- Node33 -->
<g id="node34" class="node">
<title>Node33</title>
<g id="a_node34"><a xlink:href="SpinOrbitLockInfo_8h.html" target="_top" xlink:title="Defines the SpinOrbitLockInfo class. ">
<polygon fill="#ffffff" stroke="#000000" points="574,-187.5 574,-208.5 696,-208.5 696,-187.5 574,-187.5"/>
<text text-anchor="middle" x="635" y="-194.9" font-family="Helvetica,sans-Serif" font-size="12.00" fill="#000000">SpinOrbitLockInfo.h</text>
</a>
</g>
</g>
<!-- Node2&#45;&gt;Node33 -->
<g id="edge52" class="edge">
<title>Node2&#45;&gt;Node33</title>
<path fill="none" stroke="#191970" d="M1208.8843,-325.5078C1092.8989,-321.8736 833.7657,-310.51 751,-280 712.2191,-265.7042 674.5005,-234.9836 653.0734,-215.4698"/>
<polygon fill="#191970" stroke="#191970" points="655.3949,-212.8491 645.6906,-208.5972 650.6253,-217.9727 655.3949,-212.8491"/>
</g>
<!-- Node34 -->
<g id="node35" class="node">
<title>Node34</title>
<g id="a_node35"><a xlink:href="CombinedStoppingCondition_8h.html" target="_top" xlink:title="Declares a class for a stopping condition that combines other stopping conditions. ">
<polygon fill="#ffffff" stroke="#000000" points="760,-252 760,-273 942,-273 942,-252 760,-252"/>
<text text-anchor="middle" x="851" y="-259.4" font-family="Helvetica,sans-Serif" font-size="12.00" fill="#000000">CombinedStoppingCondition.h</text>
</a>
</g>
</g>
<!-- Node2&#45;&gt;Node34 -->
<g id="edge55" class="edge">
<title>Node2&#45;&gt;Node34</title>
<path fill="none" stroke="#191970" d="M1208.7317,-318.0993C1136.0189,-306.7981 1010.2576,-287.2521 928.874,-274.6033"/>
<polygon fill="#191970" stroke="#191970" points="929.1018,-271.0968 918.6829,-273.0194 928.0267,-278.0137 929.1018,-271.0968"/>
</g>
<!-- Node36 -->
<g id="node37" class="node">
<title>Node36</title>
<g id="a_node37"><a xlink:href="BreakLockCondition_8h.html" target="_top" xlink:title="Declares a class for a stopping condition monitoring when a locked zone loses the lock...">
<polygon fill="#ffffff" stroke="#000000" points="1534.5,-252 1534.5,-273 1669.5,-273 1669.5,-252 1534.5,-252"/>
<text text-anchor="middle" x="1602" y="-259.4" font-family="Helvetica,sans-Serif" font-size="12.00" fill="#000000">BreakLockCondition.h</text>
</a>
</g>
</g>
<!-- Node2&#45;&gt;Node36 -->
<g id="edge62" class="edge">
<title>Node2&#45;&gt;Node36</title>
<path fill="none" stroke="#191970" d="M1320.732,-316.4934C1379.9184,-305.1317 1474.2124,-287.0307 1537.0932,-274.9598"/>
<polygon fill="#191970" stroke="#191970" points="1538.1306,-278.3246 1547.2914,-273.0021 1536.8109,-271.4502 1538.1306,-278.3246"/>
</g>
<!-- Node37 -->
<g id="node38" class="node">
<title>Node37</title>
<g id="a_node38"><a xlink:href="SynchronizedCondition_8h.html" target="_top" xlink:title="Declares a stopping condition monitoring spin&#45;orbit synchronization. ">
<polygon fill="#ffffff" stroke="#000000" points="1326,-252 1326,-273 1478,-273 1478,-252 1326,-252"/>
<text text-anchor="middle" x="1402" y="-259.4" font-family="Helvetica,sans-Serif" font-size="12.00" fill="#000000">SynchronizedCondition.h</text>
</a>
</g>
</g>
<!-- Node2&#45;&gt;Node37 -->
<g id="edge65" class="edge">
<title>Node2&#45;&gt;Node37</title>
<path fill="none" stroke="#191970" d="M1288.1534,-316.4934C1310.5786,-305.8579 1345.4555,-289.3171 1370.699,-277.345"/>
<polygon fill="#191970" stroke="#191970" points="1372.3205,-280.4497 1379.856,-273.0021 1369.3209,-274.1249 1372.3205,-280.4497"/>
</g>
<!-- Node38 -->
<g id="node39" class="node">
<title>Node38</title>
<polygon fill="#ffffff" stroke="#bfbfbf" points="1188,-245.5 1188,-279.5 1308,-279.5 1308,-245.5 1188,-245.5"/>
<text text-anchor="start" x="1196" y="-265.9" font-family="Helvetica,sans-Serif" font-size="12.00" fill="#000000">boost/math/special</text>
<text text-anchor="middle" x="1248" y="-252.9" font-family="Helvetica,sans-Serif" font-size="12.00" fill="#000000">_functions/sign.hpp</text>
</g>
<!-- Node2&#45;&gt;Node38 -->
<g id="edge71" class="edge">
<title>Node2&#45;&gt;Node38</title>
<path fill="none" stroke="#191970" d="M1263.0277,-316.3491C1260.9891,-309.0442 1258.1869,-299.0031 1255.5542,-289.5693"/>
<polygon fill="#191970" stroke="#191970" points="1258.8674,-288.4203 1252.8081,-279.7292 1252.125,-290.302 1258.8674,-288.4203"/>
</g>
<!-- Node3&#45;&gt;Node1 -->
<g id="edge4" class="edge">
<title>Node3&#45;&gt;Node1</title>
<path fill="none" stroke="#191970" d="M805.2827,-187.4189C797.5266,-163.2126 782.728,-103.3978 813,-71 842.6714,-39.245 1111.4307,-25.4167 1257.1125,-20.2105"/>
<polygon fill="#191970" stroke="#191970" points="1257.5127,-23.6987 1267.3839,-19.8505 1257.2674,-16.703 1257.5127,-23.6987"/>
</g>
<!-- Node3&#45;&gt;Node4 -->
<g id="edge5" class="edge">
<title>Node3&#45;&gt;Node4</title>
<path fill="none" stroke="#191970" d="M824.4069,-187.3619C836.9582,-178.6955 854.8922,-166.3126 869.2745,-156.3819"/>
<polygon fill="#191970" stroke="#191970" points="871.4505,-159.1327 877.6908,-150.5707 867.4731,-153.3725 871.4505,-159.1327"/>
</g>
<!-- Node3&#45;&gt;Node7 -->
<g id="edge9" class="edge">
<title>Node3&#45;&gt;Node7</title>
<path fill="none" stroke="#191970" d="M865.6123,-191.793C964.0197,-181.0035 1166.1408,-158.8428 1271.2277,-147.321"/>
<polygon fill="#191970" stroke="#191970" points="1271.8366,-150.7753 1281.3956,-146.2062 1271.0737,-143.817 1271.8366,-150.7753"/>
</g>
<!-- Node23 -->
<g id="node24" class="node">
<title>Node23</title>
<g id="a_node24"><a xlink:href="IncludeEigen_8h_source.html" target="_top" xlink:title="IncludeEigen.h">
<polygon fill="#ffffff" stroke="#000000" points="668.5,-71.5 668.5,-92.5 765.5,-92.5 765.5,-71.5 668.5,-71.5"/>
<text text-anchor="middle" x="717" y="-78.9" font-family="Helvetica,sans-Serif" font-size="12.00" fill="#000000">IncludeEigen.h</text>
</a>
</g>
</g>
<!-- Node3&#45;&gt;Node23 -->
<g id="edge31" class="edge">
<title>Node3&#45;&gt;Node23</title>
<path fill="none" stroke="#191970" d="M788.0277,-187.4065C773.6271,-179.1974 755.0147,-166.6038 743,-151 732.0465,-136.7745 725.2911,-117.4261 721.4216,-102.8378"/>
<polygon fill="#191970" stroke="#191970" points="724.7428,-101.6789 719.0033,-92.7734 717.9366,-103.3144 724.7428,-101.6789"/>
</g>
<!-- Node4&#45;&gt;Node1 -->
<g id="edge6" class="edge">
<title>Node4&#45;&gt;Node1</title>
<path fill="none" stroke="#191970" d="M901.4327,-129.4946C914.6488,-113.8495 941.8645,-84.794 972,-71 1021.2795,-48.4431 1161.8606,-32.8726 1256.9792,-24.5679"/>
<polygon fill="#191970" stroke="#191970" points="1257.5261,-28.0339 1267.1891,-23.6891 1256.9257,-21.0597 1257.5261,-28.0339"/>
</g>
<!-- Node5 -->
<g id="node6" class="node">
<title>Node5</title>
<polygon fill="#ffffff" stroke="#bfbfbf" points="822.5,-71.5 822.5,-92.5 881.5,-92.5 881.5,-71.5 822.5,-71.5"/>
<text text-anchor="middle" x="852" y="-78.9" font-family="Helvetica,sans-Serif" font-size="12.00" fill="#000000">ostream</text>
</g>
<!-- Node4&#45;&gt;Node5 -->
<g id="edge7" class="edge">
<title>Node4&#45;&gt;Node5</title>
<path fill="none" stroke="#191970" d="M885.48,-129.3619C879.8739,-121.4313 872.0678,-110.3885 865.4032,-100.9606"/>
<polygon fill="#191970" stroke="#191970" points="868.1028,-98.7161 859.4724,-92.5707 862.3867,-102.7568 868.1028,-98.7161"/>
</g>
<!-- Node6 -->
<g id="node7" class="node">
<title>Node6</title>
<polygon fill="#ffffff" stroke="#bfbfbf" points="1819.5,-71.5 1819.5,-92.5 1874.5,-92.5 1874.5,-71.5 1819.5,-71.5"/>
<text text-anchor="middle" x="1847" y="-78.9" font-family="Helvetica,sans-Serif" font-size="12.00" fill="#000000">cassert</text>
</g>
<!-- Node4&#45;&gt;Node6 -->
<g id="edge8" class="edge">
<title>Node4&#45;&gt;Node6</title>
<path fill="none" stroke="#191970" d="M963.1712,-129.8752C966.1514,-129.5572 969.1039,-129.2632 972,-129 1340.343,-95.5304 1441.3116,-154.948 1809.1349,-92.9626"/>
<polygon fill="#191970" stroke="#191970" points="1809.9906,-96.3673 1819.2605,-91.237 1808.8146,-89.4667 1809.9906,-96.3673"/>
</g>
<!-- Node7&#45;&gt;Node1 -->
<g id="edge22" class="edge">
<title>Node7&#45;&gt;Node1</title>
<path fill="none" stroke="#191970" d="M1394.5598,-131.0886C1399.4413,-130.3646 1404.3061,-129.6589 1409,-129 1472.4351,-120.0954 1652.6275,-141.0404 1695,-93 1701.4678,-85.667 1701.3622,-78.4248 1695,-71 1678.6925,-51.9687 1539.4468,-35.1969 1442.9261,-25.709"/>
<polygon fill="#191970" stroke="#191970" points="1443.1383,-22.2133 1432.8465,-24.7293 1442.461,-29.1804 1443.1383,-22.2133"/>
</g>
<!-- Node7&#45;&gt;Node6 -->
<g id="edge21" class="edge">
<title>Node7&#45;&gt;Node6</title>
<path fill="none" stroke="#191970" d="M1394.5357,-130.905C1399.4225,-130.2209 1404.295,-129.5745 1409,-129 1583.8421,-107.6496 1633.1737,-126.6799 1809.38,-93.0178"/>
<polygon fill="#191970" stroke="#191970" points="1810.086,-96.4461 1819.2364,-91.1056 1808.7528,-89.5742 1810.086,-96.4461"/>
</g>
<!-- Node8 -->
<g id="node9" class="node">
<title>Node8</title>
<polygon fill="#ffffff" stroke="#bfbfbf" points="1230,-71.5 1230,-92.5 1262,-92.5 1262,-71.5 1230,-71.5"/>
<text text-anchor="middle" x="1246" y="-78.9" font-family="Helvetica,sans-Serif" font-size="12.00" fill="#000000">list</text>
</g>
<!-- Node7&#45;&gt;Node8 -->
<g id="edge10" class="edge">
<title>Node7&#45;&gt;Node8</title>
<path fill="none" stroke="#191970" d="M1321.1258,-129.3619C1307.076,-120.5044 1286.868,-107.7646 1270.9487,-97.7285"/>
<polygon fill="#191970" stroke="#191970" points="1272.4761,-94.554 1262.1502,-92.1817 1268.7429,-100.4755 1272.4761,-94.554"/>
</g>
<!-- Node7&#45;&gt;Node9 -->
<g id="edge11" class="edge">
<title>Node7&#45;&gt;Node9</title>
<path fill="none" stroke="#191970" d="M1394.61,-135.3027C1531.8496,-123.9152 1879.6495,-95.0563 1997.3588,-85.2893"/>
<polygon fill="#191970" stroke="#191970" points="1997.6994,-88.7731 2007.3757,-84.4581 1997.1205,-81.7971 1997.6994,-88.7731"/>
</g>
<!-- Node10 -->
<g id="node11" class="node">
<title>Node10</title>
<polygon fill="#ffffff" stroke="#bfbfbf" points="606,-71.5 606,-92.5 650,-92.5 650,-71.5 606,-71.5"/>
<text text-anchor="middle" x="628" y="-78.9" font-family="Helvetica,sans-Serif" font-size="12.00" fill="#000000">limits</text>
</g>
<!-- Node7&#45;&gt;Node10 -->
<g id="edge12" class="edge">
<title>Node7&#45;&gt;Node10</title>
<path fill="none" stroke="#191970" d="M1281.4091,-136.9672C1135.4018,-129.0224 751.5555,-107.3363 660.0318,-92.4913"/>
<polygon fill="#191970" stroke="#191970" points="660.6123,-89.0394 650.1438,-90.671 659.3449,-95.9237 660.6123,-89.0394"/>
</g>
<!-- Node11 -->
<g id="node12" class="node">
<title>Node11</title>
<polygon fill="#ffffff" stroke="#bfbfbf" points="1742.5,-71.5 1742.5,-92.5 1801.5,-92.5 1801.5,-71.5 1742.5,-71.5"/>
<text text-anchor="middle" x="1772" y="-78.9" font-family="Helvetica,sans-Serif" font-size="12.00" fill="#000000">sstream</text>
</g>
<!-- Node7&#45;&gt;Node11 -->
<g id="edge13" class="edge">
<title>Node7&#45;&gt;Node11</title>
<path fill="none" stroke="#191970" d="M1394.5508,-131.023C1399.4343,-130.3132 1404.302,-129.6288 1409,-129 1550.4169,-110.0738 1587.5938,-118.3579 1728,-93 1729.4529,-92.7376 1730.9289,-92.4546 1732.417,-92.1555"/>
<polygon fill="#191970" stroke="#191970" points="1733.2733,-95.551 1742.2938,-89.9939 1731.7767,-88.7129 1733.2733,-95.551"/>
</g>
<!-- Node12 -->
<g id="node13" class="node">
<title>Node12</title>
<polygon fill="#ffffff" stroke="#bfbfbf" points="326,-7 326,-28 388,-28 388,-7 326,-7"/>
<text text-anchor="middle" x="357" y="-14.4" font-family="Helvetica,sans-Serif" font-size="12.00" fill="#000000">iostream</text>
</g>
<!-- Node7&#45;&gt;Node12 -->
<g id="edge14" class="edge">
<title>Node7&#45;&gt;Node12</title>
<path fill="none" stroke="#191970" d="M1281.3075,-132.8552C1214.9347,-124.2922 1101.7616,-109.0741 1005,-93 953.6655,-84.4723 941.4954,-78.4949 890,-71 707.4172,-44.4259 487.714,-26.9088 398.0836,-20.371"/>
<polygon fill="#191970" stroke="#191970" points="398.2856,-16.8766 388.0592,-19.6462 397.7807,-23.8583 398.2856,-16.8766"/>
</g>
<!-- Node13 -->
<g id="node14" class="node">
<title>Node13</title>
<polygon fill="#ffffff" stroke="#bfbfbf" points="1280.5,-71.5 1280.5,-92.5 1333.5,-92.5 1333.5,-71.5 1280.5,-71.5"/>
<text text-anchor="middle" x="1307" y="-78.9" font-family="Helvetica,sans-Serif" font-size="12.00" fill="#000000">iterator</text>
</g>
<!-- Node7&#45;&gt;Node13 -->
<g id="edge15" class="edge">
<title>Node7&#45;&gt;Node13</title>
<path fill="none" stroke="#191970" d="M1332.3141,-129.3619C1328.1628,-121.5949 1322.4159,-110.8426 1317.4469,-101.5458"/>
<polygon fill="#191970" stroke="#191970" points="1320.4504,-99.7401 1312.6498,-92.5707 1314.2769,-103.0398 1320.4504,-99.7401"/>
</g>
<!-- Node14 -->
<g id="node15" class="node">
<title>Node14</title>
<polygon fill="#ffffff" stroke="#bfbfbf" points="1352,-71.5 1352,-92.5 1452,-92.5 1452,-71.5 1352,-71.5"/>
<text text-anchor="middle" x="1402" y="-78.9" font-family="Helvetica,sans-Serif" font-size="12.00" fill="#000000">gsl/gsl_vector.h</text>
</g>
<!-- Node7&#45;&gt;Node14 -->
<g id="edge16" class="edge">
<title>Node7&#45;&gt;Node14</title>
<path fill="none" stroke="#191970" d="M1349.7386,-129.3619C1358.9406,-121.0226 1371.9401,-109.2418 1382.6717,-99.5162"/>
<polygon fill="#191970" stroke="#191970" points="1385.2763,-101.8793 1390.3358,-92.5707 1380.5756,-96.6924 1385.2763,-101.8793"/>
</g>
<!-- Node15 -->
<g id="node16" class="node">
<title>Node15</title>
<polygon fill="#ffffff" stroke="#bfbfbf" points="1470,-71.5 1470,-92.5 1570,-92.5 1570,-71.5 1470,-71.5"/>
<text text-anchor="middle" x="1520" y="-78.9" font-family="Helvetica,sans-Serif" font-size="12.00" fill="#000000">gsl/gsl_matrix.h</text>
</g>
<!-- Node7&#45;&gt;Node15 -->
<g id="edge17" class="edge">
<title>Node7&#45;&gt;Node15</title>
<path fill="none" stroke="#191970" d="M1370.9588,-129.4966C1400.7582,-120.0001 1444.8091,-105.9619 1477.2968,-95.6087"/>
<polygon fill="#191970" stroke="#191970" points="1478.5142,-98.8942 1486.9794,-92.5231 1476.3887,-92.2247 1478.5142,-98.8942"/>
</g>
<!-- Node16 -->
<g id="node17" class="node">
<title>Node16</title>
<polygon fill="#ffffff" stroke="#bfbfbf" points="1588.5,-71.5 1588.5,-92.5 1685.5,-92.5 1685.5,-71.5 1588.5,-71.5"/>
<text text-anchor="middle" x="1637" y="-78.9" font-family="Helvetica,sans-Serif" font-size="12.00" fill="#000000">gsl/gsl_linalg.h</text>
</g>
<!-- Node7&#45;&gt;Node16 -->
<g id="edge18" class="edge">
<title>Node7&#45;&gt;Node16</title>
<path fill="none" stroke="#191970" d="M1392.1466,-129.4966C1444.6355,-119.3149 1524.0385,-103.9123 1578.0863,-93.4281"/>
<polygon fill="#191970" stroke="#191970" points="1579.0559,-96.8053 1588.2064,-91.465 1577.7229,-89.9334 1579.0559,-96.8053"/>
</g>
<!-- Node17 -->
<g id="node18" class="node">
<title>Node17</title>
<polygon fill="#ffffff" stroke="#bfbfbf" points="1014,-71.5 1014,-92.5 1104,-92.5 1104,-71.5 1014,-71.5"/>
<text text-anchor="middle" x="1059" y="-78.9" font-family="Helvetica,sans-Serif" font-size="12.00" fill="#000000">gsl/gsl_blas.h</text>
</g>
<!-- Node7&#45;&gt;Node17 -->
<g id="edge19" class="edge">
<title>Node7&#45;&gt;Node17</title>
<path fill="none" stroke="#191970" d="M1287.4752,-129.4966C1238.5541,-119.3267 1164.5772,-103.9479 1114.1483,-93.4645"/>
<polygon fill="#191970" stroke="#191970" points="1114.5799,-89.9795 1104.0768,-91.3708 1113.1551,-96.833 1114.5799,-89.9795"/>
</g>
<!-- Node18 -->
<g id="node19" class="node">
<title>Node18</title>
<polygon fill="#ffffff" stroke="#bfbfbf" points="1122,-71.5 1122,-92.5 1212,-92.5 1212,-71.5 1122,-71.5"/>
<text text-anchor="middle" x="1167" y="-78.9" font-family="Helvetica,sans-Serif" font-size="12.00" fill="#000000">gsl/gsl_poly.h</text>
</g>
<!-- Node7&#45;&gt;Node18 -->
<g id="edge20" class="edge">
<title>Node7&#45;&gt;Node18</title>
<path fill="none" stroke="#191970" d="M1307.0332,-129.4966C1279.1556,-120.0411 1238.003,-106.0829 1207.5176,-95.7428"/>
<polygon fill="#191970" stroke="#191970" points="1208.6192,-92.4207 1198.0249,-92.5231 1206.3707,-99.0497 1208.6192,-92.4207"/>
</g>
<!-- Node7&#45;&gt;Node19 -->
<g id="edge23" class="edge">
<title>Node7&#45;&gt;Node19</title>
<path fill="none" stroke="#191970" d="M1281.1751,-136.8611C1091.0623,-126.3596 480.4615,-92.6312 324.527,-84.0177"/>
<polygon fill="#191970" stroke="#191970" points="324.6868,-80.5213 314.5089,-83.4643 324.3007,-87.5106 324.6868,-80.5213"/>
</g>
<!-- Node22 -->
<g id="node23" class="node">
<title>Node22</title>
<g id="a_node23"><a xlink:href="AstronomicalConstants_8h.html" target="_top" xlink:title="Defines various astronomical constants. ">
<polygon fill="#ffffff" stroke="#000000" points="2123,-71.5 2123,-92.5 2273,-92.5 2273,-71.5 2123,-71.5"/>
<text text-anchor="middle" x="2198" y="-78.9" font-family="Helvetica,sans-Serif" font-size="12.00" fill="#000000">AstronomicalConstants.h</text>
</a>
</g>
</g>
<!-- Node7&#45;&gt;Node22 -->
<g id="edge28" class="edge">
<title>Node7&#45;&gt;Node22</title>
<path fill="none" stroke="#191970" d="M1394.6995,-136.4756C1555.7791,-126.4507 2008.8366,-98.1656 2076,-93 2087.8443,-92.089 2100.3284,-91.0519 2112.6091,-89.987"/>
<polygon fill="#191970" stroke="#191970" points="2113.2026,-93.4485 2122.8585,-89.0881 2112.5909,-86.4752 2113.2026,-93.4485"/>
</g>
<!-- Node7&#45;&gt;Node23 -->
<g id="edge29" class="edge">
<title>Node7&#45;&gt;Node23</title>
<path fill="none" stroke="#191970" d="M1281.2429,-135.3832C1184.9021,-127.4425 983.2404,-110.3709 813,-93 801.0047,-91.776 788.1777,-90.3722 775.9315,-88.9861"/>
<polygon fill="#191970" stroke="#191970" points="776.1449,-85.4878 765.8123,-87.8302 775.3504,-92.4426 776.1449,-85.4878"/>
</g>
<!-- Node19&#45;&gt;Node1 -->
<g id="edge24" class="edge">
<title>Node19&#45;&gt;Node1</title>
<path fill="none" stroke="#191970" d="M314.6746,-78.0819C331.6297,-75.717 354.0634,-72.819 374,-71 697.7288,-41.4628 1083.4609,-26.174 1257.1429,-20.3485"/>
<polygon fill="#191970" stroke="#191970" points="1257.3897,-23.8423 1267.2677,-20.0116 1257.1568,-16.8462 1257.3897,-23.8423"/>
</g>
<!-- Node19&#45;&gt;Node12 -->
<g id="edge25" class="edge">
<title>Node19&#45;&gt;Node12</title>
<path fill="none" stroke="#191970" d="M299.3939,-71.3491C309.8185,-61.6044 325.4521,-46.9905 337.8035,-35.4445"/>
<polygon fill="#191970" stroke="#191970" points="340.4433,-37.768 345.3585,-28.3823 335.6631,-32.6543 340.4433,-37.768"/>
</g>
<!-- Node20 -->
<g id="node21" class="node">
<title>Node20</title>
<polygon fill="#ffffff" stroke="#bfbfbf" points="240,-7 240,-28 308,-28 308,-7 240,-7"/>
<text text-anchor="middle" x="274" y="-14.4" font-family="Helvetica,sans-Serif" font-size="12.00" fill="#000000">exception</text>
</g>
<!-- Node19&#45;&gt;Node20 -->
<g id="edge26" class="edge">
<title>Node19&#45;&gt;Node20</title>
<path fill="none" stroke="#191970" d="M285.6882,-71.3491C283.7544,-62.4397 280.937,-49.4599 278.553,-38.4761"/>
<polygon fill="#191970" stroke="#191970" points="281.9036,-37.4123 276.362,-28.3823 275.0629,-38.8972 281.9036,-37.4123"/>
</g>
<!-- Node21 -->
<g id="node22" class="node">
<title>Node21</title>
<polygon fill="#ffffff" stroke="#bfbfbf" points="74,-7 74,-28 120,-28 120,-7 74,-7"/>
<text text-anchor="middle" x="97" y="-14.4" font-family="Helvetica,sans-Serif" font-size="12.00" fill="#000000">string</text>
</g>
<!-- Node19&#45;&gt;Node21 -->
<g id="edge27" class="edge">
<title>Node19&#45;&gt;Node21</title>
<path fill="none" stroke="#191970" d="M261.4423,-73.0316C227.0565,-61.4196 167.1373,-41.1851 129.9048,-28.6118"/>
<polygon fill="#191970" stroke="#191970" points="130.6392,-25.1657 120.045,-25.2822 128.3995,-31.7978 130.6392,-25.1657"/>
</g>
<!-- Node24 -->
<g id="node25" class="node">
<title>Node24</title>
<polygon fill="#ffffff" stroke="#bfbfbf" points="674,-7 674,-28 760,-28 760,-7 674,-7"/>
<text text-anchor="middle" x="717" y="-14.4" font-family="Helvetica,sans-Serif" font-size="12.00" fill="#000000">Eigen/Dense</text>
</g>
<!-- Node23&#45;&gt;Node24 -->
<g id="edge30" class="edge">
<title>Node23&#45;&gt;Node24</title>
<path fill="none" stroke="#191970" d="M717,-71.3491C717,-62.4397 717,-49.4599 717,-38.4761"/>
<polygon fill="#191970" stroke="#191970" points="720.5001,-38.3822 717,-28.3823 713.5001,-38.3823 720.5001,-38.3822"/>
</g>
<!-- Node25&#45;&gt;Node7 -->
<g id="edge50" class="edge">
<title>Node25&#45;&gt;Node7</title>
<path fill="none" stroke="#191970" d="M1783.0586,-251.9971C1772.196,-249.6578 1760.7073,-247.2154 1750,-245 1669.2542,-228.2929 1645.8969,-236.0385 1568,-209 1547.7198,-201.9606 1545.0943,-194.5537 1525,-187 1485.7613,-172.2496 1440.165,-160.6837 1403.8202,-152.7163"/>
<polygon fill="#191970" stroke="#191970" points="1404.3401,-149.2481 1393.8274,-150.5648 1402.8667,-156.0913 1404.3401,-149.2481"/>
</g>
<!-- Node25&#45;&gt;Node9 -->
<g id="edge36" class="edge">
<title>Node25&#45;&gt;Node9</title>
<path fill="none" stroke="#191970" d="M1843.2693,-251.7495C1877.6184,-221.6523 1974.9785,-136.3441 2017.1348,-99.4062"/>
<polygon fill="#191970" stroke="#191970" points="2019.5803,-101.9169 2024.795,-92.6942 2014.9671,-96.652 2019.5803,-101.9169"/>
</g>
<!-- Node26 -->
<g id="node27" class="node">
<title>Node26</title>
<polygon fill="#ffffff" stroke="#bfbfbf" points="1879.5,-129.5 1879.5,-150.5 1928.5,-150.5 1928.5,-129.5 1879.5,-129.5"/>
<text text-anchor="middle" x="1904" y="-136.9" font-family="Helvetica,sans-Serif" font-size="12.00" fill="#000000">cmath</text>
</g>
<!-- Node25&#45;&gt;Node26 -->
<g id="edge35" class="edge">
<title>Node25&#45;&gt;Node26</title>
<path fill="none" stroke="#191970" d="M1837.9367,-251.9426C1844.9257,-241.2235 1855.9426,-224.1001 1865,-209 1874.7964,-192.6677 1885.3998,-173.8267 1893.074,-159.9636"/>
<polygon fill="#191970" stroke="#191970" points="1896.3316,-161.3037 1898.0909,-150.8559 1890.2003,-157.9262 1896.3316,-161.3037"/>
</g>
<!-- Node27 -->
<g id="node28" class="node">
<title>Node27</title>
<g id="a_node28"><a xlink:href="EccentricityExpansionCoefficients_8h.html" target="_top" xlink:title="Declares a class which provides the [ &#160;coefficients]{InclinationEccentricity_pms1}. ">
<polygon fill="#ffffff" stroke="#000000" points="1577,-187.5 1577,-208.5 1785,-208.5 1785,-187.5 1577,-187.5"/>
<text text-anchor="middle" x="1681" y="-194.9" font-family="Helvetica,sans-Serif" font-size="12.00" fill="#000000">EccentricityExpansionCoefficients.h</text>
</a>
</g>
</g>
<!-- Node25&#45;&gt;Node27 -->
<g id="edge37" class="edge">
<title>Node25&#45;&gt;Node27</title>
<path fill="none" stroke="#191970" d="M1806.5661,-251.9934C1781.6145,-241.2642 1742.6864,-224.5251 1714.7898,-212.5296"/>
<polygon fill="#191970" stroke="#191970" points="1715.9928,-209.2371 1705.4235,-208.5021 1713.2276,-215.6678 1715.9928,-209.2371"/>
</g>
<!-- Node27&#45;&gt;Node1 -->
<g id="edge38" class="edge">
<title>Node27&#45;&gt;Node1</title>
<path fill="none" stroke="#191970" d="M1697.4302,-187.4824C1719.8923,-173.3163 1761.6651,-147.7248 1799,-129 1835.6725,-110.6074 1861.3423,-127.2022 1884,-93 1889.4,-84.8486 1890.5603,-78.2504 1884,-71 1855.0214,-38.9731 1587.868,-25.2735 1442.7704,-20.1541"/>
<polygon fill="#191970" stroke="#191970" points="1442.6543,-16.648 1432.5393,-19.8002 1442.4123,-23.6439 1442.6543,-16.648"/>
</g>
<!-- Node27&#45;&gt;Node6 -->
<g id="edge47" class="edge">
<title>Node27&#45;&gt;Node6</title>
<path fill="none" stroke="#191970" d="M1589.438,-187.4686C1538.3945,-177.9476 1490.207,-160.4168 1518,-129 1559.5987,-81.9774 1731.1644,-104.4762 1809.281,-92.8014"/>
<polygon fill="#191970" stroke="#191970" points="1809.9957,-96.229 1819.2175,-91.0128 1808.7556,-89.3398 1809.9957,-96.229"/>
</g>
<!-- Node27&#45;&gt;Node7 -->
<g id="edge40" class="edge">
<title>Node27&#45;&gt;Node7</title>
<path fill="none" stroke="#191970" d="M1618.8853,-187.4966C1558.3545,-177.2611 1466.622,-161.7495 1404.6038,-151.2624"/>
<polygon fill="#191970" stroke="#191970" points="1404.9765,-147.7759 1394.5329,-149.5595 1403.8093,-154.6779 1404.9765,-147.7759"/>
</g>
<!-- Node27&#45;&gt;Node11 -->
<g id="edge46" class="edge">
<title>Node27&#45;&gt;Node11</title>
<path fill="none" stroke="#191970" d="M1592.0654,-187.4724C1546.9134,-180.1054 1498.7316,-168.4137 1485,-151 1478.9456,-143.3222 1478.6531,-136.4379 1485,-129 1518.0108,-90.3146 1660.8622,-101.513 1711,-93 1717.843,-91.8381 1725.11,-90.5634 1732.1531,-89.3065"/>
<polygon fill="#191970" stroke="#191970" points="1733.0137,-92.708 1742.2362,-87.493 1731.7745,-85.8185 1733.0137,-92.708"/>
</g>
<!-- Node27&#45;&gt;Node12 -->
<g id="edge45" class="edge">
<title>Node27&#45;&gt;Node12</title>
<path fill="none" stroke="#191970" d="M1576.9782,-193.5719C1363.02,-184.2875 887.4591,-162.679 814,-151 715.4083,-135.3253 692.8595,-120.8743 597,-93 526.7127,-72.5617 445.6036,-46.5288 397.9598,-30.984"/>
<polygon fill="#191970" stroke="#191970" points="398.9096,-27.6123 388.3171,-27.8319 396.7346,-34.2658 398.9096,-27.6123"/>
</g>
<!-- Node27&#45;&gt;Node19 -->
<g id="edge39" class="edge">
<title>Node27&#45;&gt;Node19</title>
<path fill="none" stroke="#191970" d="M1576.7478,-193.6974C1373.8604,-185.1353 932.5625,-165.536 781,-151 609.747,-134.5755 406.7336,-101.9736 324.8997,-88.284"/>
<polygon fill="#191970" stroke="#191970" points="325.0655,-84.7629 314.6238,-86.5576 323.9057,-91.6661 325.0655,-84.7629"/>
</g>
<!-- Node27&#45;&gt;Node26 -->
<g id="edge44" class="edge">
<title>Node27&#45;&gt;Node26</title>
<path fill="none" stroke="#191970" d="M1721.3836,-187.4966C1763.7581,-176.4755 1829.6518,-159.3372 1869.6231,-148.9411"/>
<polygon fill="#191970" stroke="#191970" points="1870.6426,-152.2924 1879.4396,-146.3879 1868.8805,-145.5178 1870.6426,-152.2924"/>
</g>
<!-- Node28 -->
<g id="node29" class="node">
<title>Node28</title>
<polygon fill="#ffffff" stroke="#bfbfbf" points="1058.5,-129.5 1058.5,-150.5 1107.5,-150.5 1107.5,-129.5 1058.5,-129.5"/>
<text text-anchor="middle" x="1083" y="-136.9" font-family="Helvetica,sans-Serif" font-size="12.00" fill="#000000">vector</text>
</g>
<!-- Node27&#45;&gt;Node28 -->
<g id="edge41" class="edge">
<title>Node27&#45;&gt;Node28</title>
<path fill="none" stroke="#191970" d="M1576.8363,-187.8972C1439.6913,-174.5955 1205.6813,-151.8989 1117.7567,-143.3711"/>
<polygon fill="#191970" stroke="#191970" points="1118.0659,-139.8847 1107.7747,-142.4029 1117.3901,-146.852 1118.0659,-139.8847"/>
</g>
<!-- Node29 -->
<g id="node30" class="node">
<title>Node29</title>
<polygon fill="#ffffff" stroke="#bfbfbf" points="1607,-129.5 1607,-150.5 1663,-150.5 1663,-129.5 1607,-129.5"/>
<text text-anchor="middle" x="1635" y="-136.9" font-family="Helvetica,sans-Serif" font-size="12.00" fill="#000000">fstream</text>
</g>
<!-- Node27&#45;&gt;Node29 -->
<g id="edge42" class="edge">
<title>Node27&#45;&gt;Node29</title>
<path fill="none" stroke="#191970" d="M1672.5629,-187.3619C1666.2083,-179.3496 1657.3342,-168.1605 1649.8069,-158.6696"/>
<polygon fill="#191970" stroke="#191970" points="1652.3399,-156.2308 1643.3836,-150.5707 1646.8554,-160.5805 1652.3399,-156.2308"/>
</g>
<!-- Node30 -->
<g id="node31" class="node">
<title>Node30</title>
<polygon fill="#ffffff" stroke="#bfbfbf" points="981.5,-129.5 981.5,-150.5 1040.5,-150.5 1040.5,-129.5 981.5,-129.5"/>
<text text-anchor="middle" x="1011" y="-136.9" font-family="Helvetica,sans-Serif" font-size="12.00" fill="#000000">iomanip</text>
</g>
<!-- Node27&#45;&gt;Node30 -->
<g id="edge43" class="edge">
<title>Node27&#45;&gt;Node30</title>
<path fill="none" stroke="#191970" d="M1576.8631,-192.8836C1428.8777,-185.1778 1163.9906,-169.6675 1050.8741,-150.9971"/>
<polygon fill="#191970" stroke="#191970" points="1051.1829,-147.4985 1040.7321,-149.2394 1049.9875,-154.3957 1051.1829,-147.4985"/>
</g>
<!-- Node31 -->
<g id="node32" class="node">
<title>Node31</title>
<polygon fill="#ffffff" stroke="#bfbfbf" points="1681,-129.5 1681,-150.5 1747,-150.5 1747,-129.5 1681,-129.5"/>
<text text-anchor="middle" x="1714" y="-136.9" font-family="Helvetica,sans-Serif" font-size="12.00" fill="#000000">algorithm</text>
</g>
<!-- Node27&#45;&gt;Node31 -->
<g id="edge48" class="edge">
<title>Node27&#45;&gt;Node31</title>
<path fill="none" stroke="#191970" d="M1687.0527,-187.3619C1691.4719,-179.5949 1697.5896,-168.8426 1702.8791,-159.5458"/>
<polygon fill="#191970" stroke="#191970" points="1706.0824,-160.9932 1707.9857,-150.5707 1699.9983,-157.5315 1706.0824,-160.9932"/>
</g>
<!-- Node32 -->
<g id="node33" class="node">
<title>Node32</title>
<polygon fill="#ffffff" stroke="#bfbfbf" points="1527,-129.5 1527,-150.5 1589,-150.5 1589,-129.5 1527,-129.5"/>
<text text-anchor="middle" x="1558" y="-136.9" font-family="Helvetica,sans-Serif" font-size="12.00" fill="#000000">sqlite3.h</text>
</g>
<!-- Node27&#45;&gt;Node32 -->
<g id="edge49" class="edge">
<title>Node27&#45;&gt;Node32</title>
<path fill="none" stroke="#191970" d="M1658.7256,-187.4966C1639.4281,-178.397 1611.2871,-165.1273 1589.652,-154.9253"/>
<polygon fill="#191970" stroke="#191970" points="1591.062,-151.7206 1580.5243,-150.6212 1588.0764,-158.052 1591.062,-151.7206"/>
</g>
<!-- Node33&#45;&gt;Node1 -->
<g id="edge53" class="edge">
<title>Node33&#45;&gt;Node1</title>
<path fill="none" stroke="#191970" d="M620.904,-187.3784C591.6211,-164.0986 529.6833,-107.7319 564,-71 587.3573,-45.9989 1054.5164,-27.3922 1257.3419,-20.4607"/>
<polygon fill="#191970" stroke="#191970" points="1257.5093,-23.9571 1267.3847,-20.1196 1257.2717,-16.9611 1257.5093,-23.9571"/>
</g>
<!-- Node33&#45;&gt;Node12 -->
<g id="edge54" class="edge">
<title>Node33&#45;&gt;Node12</title>
<path fill="none" stroke="#191970" d="M618.4424,-187.2495C571.6049,-156.8388 437.9524,-70.0608 382.055,-33.7677"/>
<polygon fill="#191970" stroke="#191970" points="383.7641,-30.7044 373.4709,-28.1942 379.9521,-36.5754 383.7641,-30.7044"/>
</g>
<!-- Node34&#45;&gt;Node1 -->
<g id="edge56" class="edge">
<title>Node34&#45;&gt;Node1</title>
<path fill="none" stroke="#191970" d="M825.7449,-251.8204C803.3256,-241.9174 770.0276,-226.159 743,-209 705.3101,-185.0719 566.5711,-103.6675 597,-71 619.1974,-47.1696 1060.9874,-28.0885 1257.326,-20.7507"/>
<polygon fill="#191970" stroke="#191970" points="1257.478,-24.2476 1267.3411,-20.3787 1257.218,-17.2524 1257.478,-24.2476"/>
</g>
<!-- Node34&#45;&gt;Node28 -->
<g id="edge61" class="edge">
<title>Node34&#45;&gt;Node28</title>
<path fill="none" stroke="#191970" d="M863.5179,-251.7711C882.4891,-235.9258 920.1223,-206.0871 956,-187 972.3876,-178.2817 1016.8801,-162.436 1048.5701,-151.573"/>
<polygon fill="#191970" stroke="#191970" points="1050.0215,-154.7761 1058.3573,-148.2365 1047.7628,-148.1505 1050.0215,-154.7761"/>
</g>
<!-- Node35 -->
<g id="node36" class="node">
<title>Node35</title>
<g id="a_node36"><a xlink:href="StoppingCondition_8h.html" target="_top" xlink:title="Defines the various stopping conditions needed by OrbitSolver. ">
<polygon fill="#ffffff" stroke="#000000" points="1275,-187.5 1275,-208.5 1401,-208.5 1401,-187.5 1275,-187.5"/>
<text text-anchor="middle" x="1338" y="-194.9" font-family="Helvetica,sans-Serif" font-size="12.00" fill="#000000">StoppingCondition.h</text>
</a>
</g>
</g>
<!-- Node34&#45;&gt;Node35 -->
<g id="edge57" class="edge">
<title>Node34&#45;&gt;Node35</title>
<path fill="none" stroke="#191970" d="M930.3288,-251.9934C1022.9789,-239.7225 1174.9842,-219.5904 1264.8802,-207.6842"/>
<polygon fill="#191970" stroke="#191970" points="1265.5363,-211.128 1274.9902,-206.3452 1264.6172,-204.1886 1265.5363,-211.128"/>
</g>
<!-- Node35&#45;&gt;Node1 -->
<g id="edge58" class="edge">
<title>Node35&#45;&gt;Node1</title>
<path fill="none" stroke="#191970" d="M1304.0636,-187.4414C1219.5134,-161.1172 1006.1495,-94.5678 1005,-93 999.2184,-85.1147 998.6378,-78.4248 1005,-71 1021.3075,-51.9687 1160.5532,-35.1969 1257.0739,-25.709"/>
<polygon fill="#191970" stroke="#191970" points="1257.539,-29.1804 1267.1535,-24.7293 1256.8617,-22.2133 1257.539,-29.1804"/>
</g>
<!-- Node35&#45;&gt;Node6 -->
<g id="edge60" class="edge">
<title>Node35&#45;&gt;Node6</title>
<path fill="none" stroke="#191970" d="M1358.5844,-187.39C1389.6475,-171.8824 1450.7545,-143.3185 1506,-129 1635.034,-95.5571 1675.5253,-119.8562 1809.4163,-93.0463"/>
<polygon fill="#191970" stroke="#191970" points="1810.1324,-96.4724 1819.2203,-91.0262 1808.7197,-89.6164 1810.1324,-96.4724"/>
</g>
<!-- Node35&#45;&gt;Node7 -->
<g id="edge59" class="edge">
<title>Node35&#45;&gt;Node7</title>
<path fill="none" stroke="#191970" d="M1338,-187.3619C1338,-179.9219 1338,-169.7427 1338,-160.7276"/>
<polygon fill="#191970" stroke="#191970" points="1341.5001,-160.5706 1338,-150.5707 1334.5001,-160.5707 1341.5001,-160.5706"/>
</g>
<!-- Node36&#45;&gt;Node1 -->
<g id="edge63" class="edge">
<title>Node36&#45;&gt;Node1</title>
<path fill="none" stroke="#191970" d="M1665.1111,-251.9714C1719.3839,-241.9934 1792.6529,-226.0335 1817,-209 1852.1494,-184.409 1841.9198,-160.5363 1871,-129 1893.1176,-105.0144 1937.9582,-95.1316 1916,-71 1884.8511,-36.768 1595.5088,-23.9784 1443.039,-19.5867"/>
<polygon fill="#191970" stroke="#191970" points="1442.8452,-16.08 1432.7506,-19.2971 1442.6482,-23.0772 1442.8452,-16.08"/>
</g>
<!-- Node36&#45;&gt;Node35 -->
<g id="edge64" class="edge">
<title>Node36&#45;&gt;Node35</title>
<path fill="none" stroke="#191970" d="M1558.9963,-251.9934C1513.068,-240.7723 1440.2334,-222.9775 1390.8431,-210.9105"/>
<polygon fill="#191970" stroke="#191970" points="1391.5303,-207.4755 1380.9853,-208.5021 1389.8689,-214.2755 1391.5303,-207.4755"/>
</g>
<!-- Node37&#45;&gt;Node1 -->
<g id="edge66" class="edge">
<title>Node37&#45;&gt;Node1</title>
<path fill="none" stroke="#191970" d="M1476.0823,-251.9624C1492.5152,-249.648 1509.8467,-247.2248 1526,-245 1585.5285,-236.8013 1744.5948,-243.2051 1794,-209 1827.1883,-186.0225 1808.8295,-157.9112 1837,-129 1859.5057,-105.9025 1883.8133,-120.8925 1900,-93 1904.9077,-84.5431 1906.5707,-78.2409 1900,-71 1869.9267,-37.8594 1591.5127,-24.6074 1442.7444,-19.8574"/>
<polygon fill="#191970" stroke="#191970" points="1442.8041,-16.3577 1432.6996,-19.5433 1442.5853,-23.3543 1442.8041,-16.3577"/>
</g>
<!-- Node37&#45;&gt;Node33 -->
<g id="edge68" class="edge">
<title>Node37&#45;&gt;Node33</title>
<path fill="none" stroke="#191970" d="M1356.7649,-251.9595C1343.9709,-249.3134 1329.9923,-246.7361 1317,-245 1063.6397,-211.1441 997.752,-229.9543 743,-209 731.1135,-208.0223 718.5043,-206.8558 706.256,-205.6536"/>
<polygon fill="#191970" stroke="#191970" points="706.3739,-202.1481 696.076,-204.6387 705.6794,-209.1136 706.3739,-202.1481"/>
</g>
<!-- Node37&#45;&gt;Node35 -->
<g id="edge67" class="edge">
<title>Node37&#45;&gt;Node35</title>
<path fill="none" stroke="#191970" d="M1391.4317,-251.8491C1381.8546,-242.1972 1367.5376,-227.7684 1356.1336,-216.2753"/>
<polygon fill="#191970" stroke="#191970" points="1358.3259,-213.5156 1348.7979,-208.8823 1353.3569,-218.4461 1358.3259,-213.5156"/>
</g>
<!-- Node39&#45;&gt;Node1 -->
<g id="edge73" class="edge">
<title>Node39&#45;&gt;Node1</title>
<path fill="none" stroke="#191970" d="M1791.8881,-374.4713C1833.8531,-366.0458 1892.528,-353.1567 1943,-338 2126.6835,-282.8402 2413.6705,-210.4456 2282,-71 2253.4765,-40.7922 1672.5617,-24.6496 1442.5783,-19.4228"/>
<polygon fill="#191970" stroke="#191970" points="1442.6334,-15.9232 1432.557,-19.1969 1442.4756,-22.9214 1442.6334,-15.9232"/>
</g>
<!-- Node39&#45;&gt;Node2 -->
<g id="edge74" class="edge">
<title>Node39&#45;&gt;Node2</title>
<path fill="none" stroke="#191970" d="M1678.8387,-377.946C1591.7103,-367.194 1426.0377,-346.7493 1333.2504,-335.299"/>
<polygon fill="#191970" stroke="#191970" points="1333.4841,-331.8014 1323.1307,-334.0502 1332.6267,-338.7487 1333.4841,-331.8014"/>
</g>
<!-- Node39&#45;&gt;Node6 -->
<g id="edge82" class="edge">
<title>Node39&#45;&gt;Node6</title>
<path fill="none" stroke="#191970" d="M1767.1034,-374.4249C1805.9474,-359.5761 1871.5914,-328.7705 1907,-280 1947.2508,-224.56 1973.6358,-187.5134 1938,-129 1926.29,-109.7723 1903.9044,-98.0673 1884.2671,-91.1471"/>
<polygon fill="#191970" stroke="#191970" points="1885.2055,-87.7724 1874.614,-88.0362 1883.0583,-94.4349 1885.2055,-87.7724"/>
</g>
<!-- Node39&#45;&gt;Node7 -->
<g id="edge80" class="edge">
<title>Node39&#45;&gt;Node7</title>
<path fill="none" stroke="#191970" d="M1736.3897,-374.3684C1736.7288,-348.1812 1733.7315,-280.1502 1696,-245 1639.1725,-192.0601 1598.0894,-235.2667 1525,-209 1505.1692,-201.8733 1502.4256,-195.1668 1483,-187 1451.4673,-173.7431 1414.8106,-161.8912 1386.2435,-153.4052"/>
<polygon fill="#191970" stroke="#191970" points="1387.0788,-150.0028 1376.4979,-150.5472 1385.1088,-156.7199 1387.0788,-150.0028"/>
</g>
<!-- Node39&#45;&gt;Node9 -->
<g id="edge81" class="edge">
<title>Node39&#45;&gt;Node9</title>
<path fill="none" stroke="#191970" d="M1780.27,-374.47C1807.4104,-366.8314 1842.1671,-354.8625 1870,-338 1961.1259,-282.7916 1976.5441,-248.2804 2020,-151 2026.9087,-135.5341 2031.2967,-116.8106 2033.8806,-102.7723"/>
<polygon fill="#191970" stroke="#191970" points="2037.3726,-103.112 2035.5798,-92.67 2030.4695,-101.9509 2037.3726,-103.112"/>
</g>
<!-- Node39&#45;&gt;Node22 -->
<g id="edge79" class="edge">
<title>Node39&#45;&gt;Node22</title>
<path fill="none" stroke="#191970" d="M1782.0817,-374.4698C1815.4195,-366.2112 1861.2333,-353.5306 1900,-338 2014.5998,-292.0895 2062.9183,-300.3144 2146,-209 2174.1845,-178.0227 2188.1805,-129.708 2194.1845,-102.4705"/>
<polygon fill="#191970" stroke="#191970" points="2197.6462,-103.0124 2196.2272,-92.5131 2190.789,-101.6057 2197.6462,-103.0124"/>
</g>
<!-- Node40 -->
<g id="node41" class="node">
<title>Node40</title>
<g id="a_node41"><a xlink:href="OrbitalExpressions_8h.html" target="_top" xlink:title="A collection of functions which calculate various quantities for two body orbits. ...">
<polygon fill="#ffffff" stroke="#000000" points="2183,-316.5 2183,-337.5 2349,-337.5 2349,-316.5 2183,-316.5"/>
<text text-anchor="middle" x="2266" y="-323.9" font-family="Helvetica,sans-Serif" font-size="12.00" fill="#000000">../Core/OrbitalExpressions.h</text>
</a>
</g>
</g>
<!-- Node39&#45;&gt;Node40 -->
<g id="edge75" class="edge">
<title>Node39&#45;&gt;Node40</title>
<path fill="none" stroke="#191970" d="M1793.0962,-378.8907C1875.9363,-370.0067 2034.2868,-352.9495 2169,-338 2170.2792,-337.858 2171.5678,-337.7148 2172.8642,-337.5706"/>
<polygon fill="#191970" stroke="#191970" points="2173.3775,-341.0351 2182.9274,-336.4471 2172.6007,-334.0783 2173.3775,-341.0351"/>
</g>
<!-- Node40&#45;&gt;Node1 -->
<g id="edge76" class="edge">
<title>Node40&#45;&gt;Node1</title>
<path fill="none" stroke="#191970" d="M2277.0871,-316.4311C2297.5087,-295.7648 2339,-247.6649 2339,-198 2339,-198 2339,-198 2339,-140 2339,-107.5312 2340.9317,-90.5389 2315,-71 2280.5234,-45.0228 1677.7441,-26.2348 1442.7386,-19.867"/>
<polygon fill="#191970" stroke="#191970" points="1442.5952,-16.3619 1432.5046,-19.5912 1442.4066,-23.3594 1442.5952,-16.3619"/>
</g>
<!-- Node40&#45;&gt;Node22 -->
<g id="edge78" class="edge">
<title>Node40&#45;&gt;Node22</title>
<path fill="none" stroke="#191970" d="M2263.0781,-316.4727C2252.7048,-279.0982 2217.5292,-152.3626 2203.6747,-102.4457"/>
<polygon fill="#191970" stroke="#191970" points="2207.0346,-101.4637 2200.9876,-92.764 2200.2895,-103.3359 2207.0346,-101.4637"/>
</g>
<!-- Node40&#45;&gt;Node26 -->
<g id="edge77" class="edge">
<title>Node40&#45;&gt;Node26</title>
<path fill="none" stroke="#191970" d="M2245.5001,-316.4103C2184.6651,-284.9844 2004.9693,-192.1582 1933.6536,-155.3183"/>
<polygon fill="#191970" stroke="#191970" points="1935.2147,-152.1854 1924.7238,-150.7054 1932.002,-158.4046 1935.2147,-152.1854"/>
</g>
<!-- Node41&#45;&gt;Node1 -->
<g id="edge84" class="edge">
<title>Node41&#45;&gt;Node1</title>
<path fill="none" stroke="#191970" d="M514.7784,-438.7093C505.368,-428.3628 491.4726,-411.9951 482,-396 467.7844,-371.9961 466.4151,-364.5981 458,-338 422.0605,-224.4046 352.2447,-157.6696 434,-71 461.9394,-41.3811 1029.6674,-24.9451 1257.0364,-19.5294"/>
<polygon fill="#191970" stroke="#191970" points="1257.3611,-23.0228 1267.2756,-19.2875 1257.1957,-16.0247 1257.3611,-23.0228"/>
</g>
<!-- Node41&#45;&gt;Node7 -->
<g id="edge91" class="edge">
<title>Node41&#45;&gt;Node7</title>
<path fill="none" stroke="#191970" d="M563.2974,-438.9913C599.3636,-428.8441 654.7557,-412.6112 702,-396 936.2507,-313.6371 1211.0692,-195.5066 1304.7761,-154.5989"/>
<polygon fill="#191970" stroke="#191970" points="1306.2741,-157.7639 1314.0345,-150.5509 1303.4698,-151.3502 1306.2741,-157.7639"/>
</g>
<!-- Node41&#45;&gt;Node10 -->
<g id="edge98" class="edge">
<title>Node41&#45;&gt;Node10</title>
<path fill="none" stroke="#191970" d="M518.9452,-438.8173C498.564,-402.2564 434.6235,-282.3439 451,-245 481.4149,-175.6436 557.5165,-122.7751 599.3449,-97.8239"/>
<polygon fill="#191970" stroke="#191970" points="601.3414,-100.7112 608.2127,-92.6467 597.8121,-94.666 601.3414,-100.7112"/>
</g>
<!-- Node41&#45;&gt;Node12 -->
<g id="edge99" class="edge">
<title>Node41&#45;&gt;Node12</title>
<path fill="none" stroke="#191970" d="M511.7672,-438.7522C491.3059,-422.6095 450.2417,-392.0746 411,-374 358.1007,-349.6348 326.963,-378.387 285,-338 198.8493,-255.0847 189.525,-172.9498 252,-71 256.1898,-64.1629 294.6279,-45.6349 323.7948,-32.2996"/>
<polygon fill="#191970" stroke="#191970" points="325.608,-35.3204 333.2678,-28.0007 322.7153,-28.946 325.608,-35.3204"/>
</g>
<!-- Node41&#45;&gt;Node19 -->
<g id="edge93" class="edge">
<title>Node41&#45;&gt;Node19</title>
<path fill="none" stroke="#191970" d="M474.1276,-447.4378C358.6228,-442.2339 84.4261,-426.7399 57,-396 -38.0327,-289.4846 180.3513,-145.3298 260.1997,-97.8689"/>
<polygon fill="#191970" stroke="#191970" points="262.371,-100.6526 269.2202,-92.5693 258.8251,-94.6171 262.371,-100.6526"/>
</g>
<!-- Node41&#45;&gt;Node21 -->
<g id="edge97" class="edge">
<title>Node41&#45;&gt;Node21</title>
<path fill="none" stroke="#191970" d="M474.4614,-446.5398C357.3885,-439.3147 74.8303,-419.6284 39,-396 9.5925,-376.6071 0,-362.2263 0,-327 0,-327 0,-327 0,-140 0,-93.7817 42.9639,-54.824 71.7044,-33.9339"/>
<polygon fill="#191970" stroke="#191970" points="73.9265,-36.6504 80.1039,-28.0428 69.907,-30.9195 73.9265,-36.6504"/>
</g>
<!-- Node41&#45;&gt;Node22 -->
<g id="edge90" class="edge">
<title>Node41&#45;&gt;Node22</title>
<path fill="none" stroke="#191970" d="M575.7122,-447.5437C801.0126,-438.2507 1711.5098,-394.1749 1970,-280 2065.6108,-237.7688 2150.5858,-141.2256 2183.5015,-100.58"/>
<polygon fill="#191970" stroke="#191970" points="2186.3852,-102.5777 2189.8898,-92.5793 2180.915,-98.2099 2186.3852,-102.5777"/>
</g>
<!-- Node41&#45;&gt;Node30 -->
<g id="edge100" class="edge">
<title>Node41&#45;&gt;Node30</title>
<path fill="none" stroke="#191970" d="M533.6615,-438.7873C561.503,-405.0581 652.6407,-300.0329 751,-245 800.7084,-217.1877 821.0118,-229.8972 874,-209 879.4527,-206.8496 942.216,-175.0151 980.8733,-155.3475"/>
<polygon fill="#191970" stroke="#191970" points="982.808,-158.2901 990.1325,-150.6349 979.6328,-152.0517 982.808,-158.2901"/>
</g>
<!-- Node41&#45;&gt;Node34 -->
<g id="edge86" class="edge">
<title>Node41&#45;&gt;Node34</title>
<path fill="none" stroke="#191970" d="M562.8704,-438.9089C593.1184,-429.684 636.0742,-414.8401 671,-396 734.1813,-361.9179 799.7931,-307.6146 831.5105,-279.9439"/>
<polygon fill="#191970" stroke="#191970" points="833.9815,-282.4316 839.1755,-273.1972 829.3566,-277.1771 833.9815,-282.4316"/>
</g>
<!-- Node41&#45;&gt;Node39 -->
<g id="edge85" class="edge">
<title>Node41&#45;&gt;Node39</title>
<path fill="none" stroke="#191970" d="M575.8769,-446.7902C768.214,-436.546 1451.0368,-400.1776 1668.768,-388.5809"/>
<polygon fill="#191970" stroke="#191970" points="1668.9812,-392.0746 1678.7808,-388.0476 1668.6088,-385.0845 1668.9812,-392.0746"/>
</g>
<!-- Node41&#45;&gt;Node40 -->
<g id="edge92" class="edge">
<title>Node41&#45;&gt;Node40</title>
<path fill="none" stroke="#191970" d="M575.5131,-447.2463C651.3894,-443.871 799.2983,-437.3297 925,-432 1314.7559,-415.4746 1413.6281,-432.7424 1802,-396 1943.8932,-382.576 2108.6265,-355.26 2198.6615,-339.3189"/>
<polygon fill="#191970" stroke="#191970" points="2199.5,-342.7248 2208.7328,-337.528 2198.2744,-335.8329 2199.5,-342.7248"/>
</g>
<!-- Node42 -->
<g id="node43" class="node">
<title>Node42</title>
<g id="a_node43"><a xlink:href="SecondaryDeathCondition_8h.html" target="_top" xlink:title="Declares a stopping condition class monitoring for the death of the secondary object. ">
<polygon fill="#ffffff" stroke="#000000" points="460,-252 460,-273 628,-273 628,-252 460,-252"/>
<text text-anchor="middle" x="544" y="-259.4" font-family="Helvetica,sans-Serif" font-size="12.00" fill="#000000">SecondaryDeathCondition.h</text>
</a>
</g>
</g>
<!-- Node41&#45;&gt;Node42 -->
<g id="edge87" class="edge">
<title>Node41&#45;&gt;Node42</title>
<path fill="none" stroke="#191970" d="M526.076,-438.9103C529.1184,-408.966 537.8251,-323.2743 541.8775,-283.3898"/>
<polygon fill="#191970" stroke="#191970" points="545.3597,-283.742 542.8885,-273.4394 538.3955,-283.0343 545.3597,-283.742"/>
</g>
<!-- Node43 -->
<g id="node44" class="node">
<title>Node43</title>
<polygon fill="#ffffff" stroke="#bfbfbf" points="66.5,-374.5 66.5,-395.5 161.5,-395.5 161.5,-374.5 66.5,-374.5"/>
<text text-anchor="middle" x="114" y="-381.9" font-family="Helvetica,sans-Serif" font-size="12.00" fill="#000000">gsl/gsl_errno.h</text>
</g>
<!-- Node41&#45;&gt;Node43 -->
<g id="edge94" class="edge">
<title>Node41&#45;&gt;Node43</title>
<path fill="none" stroke="#191970" d="M474.4811,-442.5237C407.6507,-433.149 285.9527,-415.5733 171.5429,-396.0407"/>
<polygon fill="#191970" stroke="#191970" points="172.0072,-392.5693 161.5593,-394.328 170.8235,-399.4685 172.0072,-392.5693"/>
</g>
<!-- Node44 -->
<g id="node45" class="node">
<title>Node44</title>
<polygon fill="#ffffff" stroke="#bfbfbf" points="180,-374.5 180,-395.5 284,-395.5 284,-374.5 180,-374.5"/>
<text text-anchor="middle" x="232" y="-381.9" font-family="Helvetica,sans-Serif" font-size="12.00" fill="#000000">gsl/gsl_odeiv2.h</text>
</g>
<!-- Node41&#45;&gt;Node44 -->
<g id="edge95" class="edge">
<title>Node41&#45;&gt;Node44</title>
<path fill="none" stroke="#191970" d="M477.2724,-438.9934C425.9797,-427.702 344.4499,-409.7543 289.6209,-397.6845"/>
<polygon fill="#191970" stroke="#191970" points="290.2258,-394.2339 279.7072,-395.5021 288.7209,-401.0702 290.2258,-394.2339"/>
</g>
<!-- Node45 -->
<g id="node46" class="node">
<title>Node45</title>
<polygon fill="#ffffff" stroke="#bfbfbf" points="302,-374.5 302,-395.5 402,-395.5 402,-374.5 302,-374.5"/>
<text text-anchor="middle" x="352" y="-381.9" font-family="Helvetica,sans-Serif" font-size="12.00" fill="#000000">gsl/gsl_siman.h</text>
</g>
<!-- Node41&#45;&gt;Node45 -->
<g id="edge96" class="edge">
<title>Node41&#45;&gt;Node45</title>
<path fill="none" stroke="#191970" d="M496.8195,-438.9934C467.6651,-428.1237 421.9659,-411.0855 389.713,-399.0606"/>
<polygon fill="#191970" stroke="#191970" points="390.7611,-395.7161 380.1684,-395.5021 388.3156,-402.2751 390.7611,-395.7161"/>
</g>
<!-- Node42&#45;&gt;Node1 -->
<g id="edge88" class="edge">
<title>Node42&#45;&gt;Node1</title>
<path fill="none" stroke="#191970" d="M531.0804,-251.8792C494.5499,-220.6459 396.5342,-127.7384 450,-71 477.372,-41.9526 1032.5737,-25.2276 1257.0388,-19.6306"/>
<polygon fill="#191970" stroke="#191970" points="1257.2407,-23.1268 1267.151,-19.3804 1257.0675,-16.1289 1257.2407,-23.1268"/>
</g>
<!-- Node42&#45;&gt;Node35 -->
<g id="edge89" class="edge">
<title>Node42&#45;&gt;Node35</title>
<path fill="none" stroke="#191970" d="M628.0903,-255.3057C665.6905,-252.1108 710.5628,-248.3281 751,-245 935.7686,-229.7928 1153.3108,-212.5467 1264.4851,-203.7808"/>
<polygon fill="#191970" stroke="#191970" points="1264.888,-207.26 1274.582,-202.9849 1264.3379,-200.2816 1264.888,-207.26"/>
</g>
<!-- Node46&#45;&gt;Node1 -->
<g id="edge102" class="edge">
<title>Node46&#45;&gt;Node1</title>
<path fill="none" stroke="#191970" d="M1589.1206,-446.4561C1806.8314,-437.3826 2377,-406.0718 2377,-327 2377,-327 2377,-327 2377,-140 2377,-104.7737 2367.9347,-89.5689 2338,-71 2300.3366,-47.6369 1681.1062,-27.1681 1442.6172,-20.1148"/>
<polygon fill="#191970" stroke="#191970" points="1442.6778,-16.6151 1432.5791,-19.8192 1442.4717,-23.6121 1442.6778,-16.6151"/>
</g>
<!-- Node46&#45;&gt;Node19 -->
<g id="edge106" class="edge">
<title>Node46&#45;&gt;Node19</title>
<path fill="none" stroke="#191970" d="M1422.9887,-444.9252C1199.5659,-431.3112 591.1105,-385.2745 424,-280 354.8616,-236.4449 311.8861,-143.5674 295.5274,-102.387"/>
<polygon fill="#191970" stroke="#191970" points="298.7233,-100.9467 291.8608,-92.8748 292.1918,-103.4644 298.7233,-100.9467"/>
</g>
<!-- Node46&#45;&gt;Node28 -->
<g id="edge107" class="edge">
<title>Node46&#45;&gt;Node28</title>
<path fill="none" stroke="#191970" d="M1422.9346,-435.2632C1356.5823,-420.3874 1264.3655,-391.4766 1200,-338 1140.3601,-288.4496 1103.8768,-200.1381 1089.7371,-160.3851"/>
<polygon fill="#191970" stroke="#191970" points="1092.9806,-159.0547 1086.4107,-150.7428 1086.3633,-161.3375 1092.9806,-159.0547"/>
</g>
<!-- Node46&#45;&gt;Node35 -->
<g id="edge103" class="edge">
<title>Node46&#45;&gt;Node35</title>
<path fill="none" stroke="#191970" d="M1510.0989,-432.3913C1518.1889,-394.0974 1531.7822,-300.4983 1487,-245 1475.8678,-231.2039 1437.259,-219.2431 1402.1343,-210.8401"/>
<polygon fill="#191970" stroke="#191970" points="1402.8782,-207.4198 1392.3455,-208.5658 1401.2939,-214.2382 1402.8782,-207.4198"/>
</g>
<!-- Node46&#45;&gt;Node39 -->
<g id="edge104" class="edge">
<title>Node46&#45;&gt;Node39</title>
<path fill="none" stroke="#191970" d="M1566.7306,-432.469C1604.7664,-421.8025 1653.0792,-408.2539 1688.3454,-398.364"/>
<polygon fill="#191970" stroke="#191970" points="1689.7017,-401.6187 1698.3852,-395.5485 1687.8115,-394.8788 1689.7017,-401.6187"/>
</g>
<!-- Node46&#45;&gt;Node40 -->
<g id="edge105" class="edge">
<title>Node46&#45;&gt;Node40</title>
<path fill="none" stroke="#191970" d="M1589.2142,-446.1196C1694.5541,-440.7027 1881.1997,-427.3034 2038,-396 2106.2449,-382.3757 2183.2839,-356.8497 2228.0696,-340.9551"/>
<polygon fill="#191970" stroke="#191970" points="2229.4237,-344.188 2237.6598,-337.5234 2227.0652,-337.5972 2229.4237,-344.188"/>
</g>
<!-- Node47&#45;&gt;Node1 -->
<g id="edge109" class="edge">
<title>Node47&#45;&gt;Node1</title>
<path fill="none" stroke="#191970" d="M989.3848,-438.9623C935.7045,-413.6816 796.8741,-346.7202 687,-280 663.8143,-265.9207 660.3051,-258.8808 637,-245 606.2621,-226.6921 585.6018,-238.2501 565,-209 529.5007,-158.5987 508.8895,-116.0244 551,-71 574.8142,-45.5379 1051.9709,-27.128 1257.326,-20.3537"/>
<polygon fill="#191970" stroke="#191970" points="1257.6105,-23.8463 1267.4905,-20.0206 1257.3812,-16.8501 1257.6105,-23.8463"/>
</g>
<!-- Node47&#45;&gt;Node19 -->
<g id="edge112" class="edge">
<title>Node47&#45;&gt;Node19</title>
<path fill="none" stroke="#191970" d="M934.4733,-443.397C809.1686,-430.4734 558.2009,-391.6746 380,-280 315.1661,-239.37 293.0877,-222.5575 266,-151 259.7793,-134.5668 266.9065,-115.5129 274.6621,-101.5969"/>
<polygon fill="#191970" stroke="#191970" points="277.7598,-103.2394 279.9755,-92.8788 271.7825,-99.5963 277.7598,-103.2394"/>
</g>
<!-- Node47&#45;&gt;Node28 -->
<g id="edge113" class="edge">
<title>Node47&#45;&gt;Node28</title>
<path fill="none" stroke="#191970" d="M1005.6211,-438.7785C993.8717,-417.9826 970,-370.3915 970,-327 970,-327 970,-327 970,-262.5 970,-213.4401 1019.5722,-175.629 1053.0495,-155.6878"/>
<polygon fill="#191970" stroke="#191970" points="1055.081,-158.5573 1062.0104,-150.5427 1051.5954,-152.4868 1055.081,-158.5573"/>
</g>
<!-- Node47&#45;&gt;Node35 -->
<g id="edge110" class="edge">
<title>Node47&#45;&gt;Node35</title>
<path fill="none" stroke="#191970" d="M1017.6703,-438.7043C1036.0759,-404.7287 1097.6932,-299.0524 1179,-245 1204.5171,-228.0363 1236.3051,-217.0537 1264.7368,-210.0112"/>
<polygon fill="#191970" stroke="#191970" points="1265.7054,-213.379 1274.6377,-207.6812 1264.1018,-206.5651 1265.7054,-213.379"/>
</g>
<!-- Node47&#45;&gt;Node39 -->
<g id="edge111" class="edge">
<title>Node47&#45;&gt;Node39</title>
<path fill="none" stroke="#191970" d="M1089.8243,-442.5668C1232.5584,-429.8508 1533.886,-403.006 1668.5283,-391.0109"/>
<polygon fill="#191970" stroke="#191970" points="1669.0564,-394.4779 1678.7063,-390.1042 1668.4352,-387.5055 1669.0564,-394.4779"/>
</g>
</g>
</svg>
