<?xml version="1.0" encoding="UTF-8" standalone="no"?>
<!DOCTYPE svg PUBLIC "-//W3C//DTD SVG 1.1//EN"
 "http://www.w3.org/Graphics/SVG/1.1/DTD/svg11.dtd">
<!-- Generated by graphviz version 2.40.1 (20161225.0304)
 -->
<!-- Title: /Users/kpenev/projects/git/poet/poet_src/Evolve/BrokenPowerlawPhaseLagZone.h Pages: 1 -->
<svg width="3014pt" height="533pt"
 viewBox="0.00 0.00 3013.67 533.00" xmlns="http://www.w3.org/2000/svg" xmlns:xlink="http://www.w3.org/1999/xlink">
<g id="graph0" class="graph" transform="scale(1 1) rotate(0) translate(4 529)">
<title>/Users/kpenev/projects/git/poet/poet_src/Evolve/BrokenPowerlawPhaseLagZone.h</title>
<polygon fill="#ffffff" stroke="transparent" points="-4,4 -4,-529 3009.6719,-529 3009.6719,4 -4,4"/>
<!-- Node0 -->
<g id="node1" class="node">
<title>Node0</title>
<polygon fill="#bfbfbf" stroke="#000000" points="1851.2813,-480.5 1851.2813,-524.5 2052.0625,-524.5 2052.0625,-480.5 1851.2813,-480.5"/>
<text text-anchor="start" x="1859.2813" y="-510.9" font-family="Helvetica,sans-Serif" font-size="12.00" fill="#000000">/Users/kpenev/projects</text>
<text text-anchor="start" x="1859.2813" y="-498.9" font-family="Helvetica,sans-Serif" font-size="12.00" fill="#000000">/git/poet/poet_src/Evolve</text>
<text text-anchor="middle" x="1951.6719" y="-486.9" font-family="Helvetica,sans-Serif" font-size="12.00" fill="#000000">/BrokenPowerlawPhaseLagZone.h</text>
</g>
<!-- Node1 -->
<g id="node2" class="node">
<title>Node1</title>
<g id="a_node2"><a xlink:href="SharedLibraryExportMacros_8h_source.html" target="_top" xlink:title="../Core/SharedLibraryExport\lMacros.h">
<polygon fill="#ffffff" stroke="#000000" points="1934.9707,-.5 1934.9707,-32.5 2100.373,-32.5 2100.373,-.5 1934.9707,-.5"/>
<text text-anchor="start" x="1942.9707" y="-18.9" font-family="Helvetica,sans-Serif" font-size="12.00" fill="#000000">../Core/SharedLibraryExport</text>
<text text-anchor="middle" x="2017.6719" y="-6.9" font-family="Helvetica,sans-Serif" font-size="12.00" fill="#000000">Macros.h</text>
</a>
</g>
</g>
<!-- Node0&#45;&gt;Node1 -->
<g id="edge1" class="edge">
<title>Node0&#45;&gt;Node1</title>
<path fill="none" stroke="#191970" d="M2052.2564,-499.78C2315.709,-491.3254 3005.6719,-460.0612 3005.6719,-364.5 3005.6719,-364.5 3005.6719,-364.5 3005.6719,-136.5 3005.6719,-46.911 2357.2196,-23.722 2110.9904,-18.1461"/>
<polygon fill="#191970" stroke="#191970" points="2110.7074,-14.6391 2100.6323,-17.9166 2110.5523,-21.6374 2110.7074,-14.6391"/>
</g>
<!-- Node2 -->
<g id="node3" class="node">
<title>Node2</title>
<g id="a_node3"><a xlink:href="DissipatingZone_8h.html" target="_top" xlink:title="Declares a class representing one zone of a body dissipative to tidal distortions. ">
<polygon fill="#ffffff" stroke="#000000" points="1334.6455,-297.5 1334.6455,-317.5 1446.6982,-317.5 1446.6982,-297.5 1334.6455,-297.5"/>
<text text-anchor="middle" x="1390.6719" y="-303.9" font-family="Helvetica,sans-Serif" font-size="12.00" fill="#000000">DissipatingZone.h</text>
</a>
</g>
</g>
<!-- Node0&#45;&gt;Node2 -->
<g id="edge2" class="edge">
<title>Node0&#45;&gt;Node2</title>
<path fill="none" stroke="#191970" d="M1850.9952,-492.7168C1787.0614,-484.405 1703.3475,-469.596 1632.6719,-444 1546.0524,-412.6297 1453.9847,-352.0938 1412.8083,-323.3696"/>
<polygon fill="#191970" stroke="#191970" points="1414.7808,-320.4779 1404.5886,-317.5846 1410.7519,-326.2023 1414.7808,-320.4779"/>
</g>
<!-- Node37 -->
<g id="node38" class="node">
<title>Node37</title>
<g id="a_node38"><a xlink:href="DissipatingBody_8h.html" target="_top" xlink:title="Declares the DissipatingBody class. ">
<polygon fill="#ffffff" stroke="#000000" points="1928.0879,-354.5 1928.0879,-374.5 2039.2559,-374.5 2039.2559,-354.5 1928.0879,-354.5"/>
<text text-anchor="middle" x="1983.6719" y="-360.9" font-family="Helvetica,sans-Serif" font-size="12.00" fill="#000000">DissipatingBody.h</text>
</a>
</g>
</g>
<!-- Node0&#45;&gt;Node37 -->
<g id="edge68" class="edge">
<title>Node0&#45;&gt;Node37</title>
<path fill="none" stroke="#191970" d="M1967.7516,-480.3381C1974.3822,-469.8643 1981.2955,-456.8573 1984.6719,-444 1989.8277,-424.3664 1988.7298,-401.0547 1986.8619,-384.7701"/>
<polygon fill="#191970" stroke="#191970" points="1990.316,-384.1939 1985.513,-374.7503 1983.3786,-385.1279 1990.316,-384.1939"/>
</g>
<!-- Node39 -->
<g id="node40" class="node">
<title>Node39</title>
<g id="a_node40"><a xlink:href="BinarySystem_8h.html" target="_top" xlink:title="Defines the BinarySystem class. ">
<polygon fill="#ffffff" stroke="#000000" points="2417.6572,-417.5 2417.6572,-437.5 2517.6865,-437.5 2517.6865,-417.5 2417.6572,-417.5"/>
<text text-anchor="middle" x="2467.6719" y="-423.9" font-family="Helvetica,sans-Serif" font-size="12.00" fill="#000000">BinarySystem.h</text>
</a>
</g>
</g>
<!-- Node0&#45;&gt;Node39 -->
<g id="edge79" class="edge">
<title>Node0&#45;&gt;Node39</title>
<path fill="none" stroke="#191970" d="M2052.0801,-487.9058C2157.6962,-472.5546 2320.4246,-448.9022 2407.6146,-436.2293"/>
<polygon fill="#191970" stroke="#191970" points="2408.2151,-439.6788 2417.6077,-434.7768 2407.2082,-432.7516 2408.2151,-439.6788"/>
</g>
<!-- Node44 -->
<g id="node45" class="node">
<title>Node44</title>
<g id="a_node45"><a xlink:href="LagForcingFrequencyBreakCondition_8h.html" target="_top" xlink:title="Declares a stopping condition satisfied when a forcing frequency reaches a critical value...">
<polygon fill="#ffffff" stroke="#000000" points="1641.6328,-411.5 1641.6328,-443.5 1805.7109,-443.5 1805.7109,-411.5 1641.6328,-411.5"/>
<text text-anchor="start" x="1649.6328" y="-429.9" font-family="Helvetica,sans-Serif" font-size="12.00" fill="#000000">LagForcingFrequencyBreak</text>
<text text-anchor="middle" x="1723.6719" y="-417.9" font-family="Helvetica,sans-Serif" font-size="12.00" fill="#000000">Condition.h</text>
</a>
</g>
</g>
<!-- Node0&#45;&gt;Node44 -->
<g id="edge96" class="edge">
<title>Node0&#45;&gt;Node44</title>
<path fill="none" stroke="#191970" d="M1884.4975,-480.4032C1852.1393,-469.759 1813.6889,-457.1109 1782.4993,-446.8511"/>
<polygon fill="#191970" stroke="#191970" points="1783.2378,-443.4096 1772.6448,-443.6095 1781.0504,-450.0591 1783.2378,-443.4096"/>
</g>
<!-- Node45 -->
<g id="node46" class="node">
<title>Node45</title>
<g id="a_node46"><a xlink:href="LagSpinBreakCondition_8h.html" target="_top" xlink:title="Declares a stopping condition monitoring for critical spin frequencies. ">
<polygon fill="#ffffff" stroke="#000000" points="1823.624,-417.5 1823.624,-437.5 1975.7197,-437.5 1975.7197,-417.5 1823.624,-417.5"/>
<text text-anchor="middle" x="1899.6719" y="-423.9" font-family="Helvetica,sans-Serif" font-size="12.00" fill="#000000">LagSpinBreakCondition.h</text>
</a>
</g>
</g>
<!-- Node0&#45;&gt;Node45 -->
<g id="edge103" class="edge">
<title>Node0&#45;&gt;Node45</title>
<path fill="none" stroke="#191970" d="M1936.3514,-480.4032C1928.7513,-469.4415 1919.6777,-456.3546 1912.4566,-445.9396"/>
<polygon fill="#191970" stroke="#191970" points="1915.2455,-443.8191 1906.6713,-437.5954 1909.4929,-447.8076 1915.2455,-443.8191"/>
</g>
<!-- Node2&#45;&gt;Node1 -->
<g id="edge32" class="edge">
<title>Node2&#45;&gt;Node1</title>
<path fill="none" stroke="#191970" d="M1446.7378,-305.1709C1551.151,-300.2693 1771.2739,-287.1227 1842.6719,-261 1927.0673,-230.1219 1953.8599,-217.4349 2009.6719,-147 2032.0417,-118.7693 2036.352,-104.7139 2031.6719,-69 2030.5217,-60.2227 2028.3334,-50.8256 2026.0228,-42.4426"/>
<polygon fill="#191970" stroke="#191970" points="2029.3767,-41.4417 2023.2051,-32.83 2022.6594,-43.4108 2029.3767,-41.4417"/>
</g>
<!-- Node3 -->
<g id="node4" class="node">
<title>Node3</title>
<g id="a_node4"><a xlink:href="ZoneOrientation_8h.html" target="_top" xlink:title="Declares a class for orientations of zones of DissipatingBody objects. ">
<polygon fill="#ffffff" stroke="#000000" points="1250.6426,-183.5 1250.6426,-203.5 1362.7012,-203.5 1362.7012,-183.5 1250.6426,-183.5"/>
<text text-anchor="middle" x="1306.6719" y="-189.9" font-family="Helvetica,sans-Serif" font-size="12.00" fill="#000000">ZoneOrientation.h</text>
</a>
</g>
</g>
<!-- Node2&#45;&gt;Node3 -->
<g id="edge3" class="edge">
<title>Node2&#45;&gt;Node3</title>
<path fill="none" stroke="#191970" d="M1383.2174,-297.3833C1369.0562,-278.1645 1338.0835,-236.1301 1320.1798,-211.8322"/>
<polygon fill="#191970" stroke="#191970" points="1322.9801,-209.7323 1314.2304,-203.7579 1317.3447,-213.8847 1322.9801,-209.7323"/>
</g>
<!-- Node4 -->
<g id="node5" class="node">
<title>Node4</title>
<g id="a_node5"><a xlink:href="DissipationQuantities_8h.html" target="_top" xlink:title="Declaration of enumerations of dissipation quantities and derivatives. ">
<polygon fill="#ffffff" stroke="#000000" points="1016.3066,-126.5 1016.3066,-146.5 1155.0371,-146.5 1155.0371,-126.5 1016.3066,-126.5"/>
<text text-anchor="middle" x="1085.6719" y="-132.9" font-family="Helvetica,sans-Serif" font-size="12.00" fill="#000000">DissipationQuantities.h</text>
</a>
</g>
</g>
<!-- Node2&#45;&gt;Node4 -->
<g id="edge49" class="edge">
<title>Node2&#45;&gt;Node4</title>
<path fill="none" stroke="#191970" d="M1334.6106,-298.4103C1248.1458,-283.1121 1088.7381,-249.3869 1055.6719,-204 1044.562,-188.7505 1056.1306,-168.7345 1067.9802,-154.4675"/>
<polygon fill="#191970" stroke="#191970" points="1070.768,-156.6004 1074.8202,-146.8111 1065.5478,-151.9367 1070.768,-156.6004"/>
</g>
<!-- Node7 -->
<g id="node8" class="node">
<title>Node7</title>
<g id="a_node8"><a xlink:href="Core_2Common_8h.html" target="_top" xlink:title="Declaration of some general purpose utilities. ">
<polygon fill="#ffffff" stroke="#000000" points="1336.6553,-126.5 1336.6553,-146.5 1450.6885,-146.5 1450.6885,-126.5 1336.6553,-126.5"/>
<text text-anchor="middle" x="1393.6719" y="-132.9" font-family="Helvetica,sans-Serif" font-size="12.00" fill="#000000">../Core/Common.h</text>
</a>
</g>
</g>
<!-- Node2&#45;&gt;Node7 -->
<g id="edge66" class="edge">
<title>Node2&#45;&gt;Node7</title>
<path fill="none" stroke="#191970" d="M1390.8506,-297.3153C1391.333,-269.8178 1392.6688,-193.6748 1393.314,-156.8993"/>
<polygon fill="#191970" stroke="#191970" points="1396.8143,-156.9075 1393.4903,-146.8476 1389.8154,-156.7846 1396.8143,-156.9075"/>
</g>
<!-- Node9 -->
<g id="node10" class="node">
<title>Node9</title>
<polygon fill="#ffffff" stroke="#bfbfbf" points="1874.332,-69.5 1874.332,-89.5 1933.0117,-89.5 1933.0117,-69.5 1874.332,-69.5"/>
<text text-anchor="middle" x="1903.6719" y="-75.9" font-family="Helvetica,sans-Serif" font-size="12.00" fill="#000000">valarray</text>
</g>
<!-- Node2&#45;&gt;Node9 -->
<g id="edge67" class="edge">
<title>Node2&#45;&gt;Node9</title>
<path fill="none" stroke="#191970" d="M1409.409,-297.4666C1434.9737,-283.8982 1482.3361,-259.1902 1523.6719,-240 1649.0433,-181.7961 1801.3703,-120.1248 1868.7436,-93.2988"/>
<polygon fill="#191970" stroke="#191970" points="1870.054,-96.5444 1878.0542,-89.5983 1867.4685,-90.0393 1870.054,-96.5444"/>
</g>
<!-- Node19 -->
<g id="node20" class="node">
<title>Node19</title>
<g id="a_node20"><a xlink:href="Error_8h.html" target="_top" xlink:title="Defines the exception hierarchy used by this code. ">
<polygon fill="#ffffff" stroke="#000000" points="79.6631,-69.5 79.6631,-89.5 131.6807,-89.5 131.6807,-69.5 79.6631,-69.5"/>
<text text-anchor="middle" x="105.6719" y="-75.9" font-family="Helvetica,sans-Serif" font-size="12.00" fill="#000000">Error.h</text>
</a>
</g>
</g>
<!-- Node2&#45;&gt;Node19 -->
<g id="edge33" class="edge">
<title>Node2&#45;&gt;Node19</title>
<path fill="none" stroke="#191970" d="M1334.3987,-302.663C1258.189,-295.69 1118.0749,-281.3745 999.6719,-261 886.5058,-241.5267 858.0901,-235.5212 747.6719,-204 645.8991,-174.9468 626.0998,-148.4597 522.6719,-126 359.1991,-90.5015 309.9156,-121.4338 141.8307,-89.8854"/>
<polygon fill="#191970" stroke="#191970" points="142.3868,-86.4283 131.9057,-87.9765 141.0647,-93.3023 142.3868,-86.4283"/>
</g>
<!-- Node25 -->
<g id="node26" class="node">
<title>Node25</title>
<g id="a_node26"><a xlink:href="TidalPotentialTerms_8h.html" target="_top" xlink:title="Declare an interface for evaluating the expansion of the tidal potential. ">
<polygon fill="#ffffff" stroke="#000000" points="1064.2002,-183.5 1064.2002,-203.5 1195.1436,-203.5 1195.1436,-183.5 1064.2002,-183.5"/>
<text text-anchor="middle" x="1129.6719" y="-189.9" font-family="Helvetica,sans-Serif" font-size="12.00" fill="#000000">TidalPotentialTerms.h</text>
</a>
</g>
</g>
<!-- Node2&#45;&gt;Node25 -->
<g id="edge34" class="edge">
<title>Node2&#45;&gt;Node25</title>
<path fill="none" stroke="#191970" d="M1367.5099,-297.3833C1320.8827,-277.0174 1215.5981,-231.031 1162.1357,-207.6796"/>
<polygon fill="#191970" stroke="#191970" points="1163.3469,-204.3894 1152.782,-203.5941 1160.545,-210.8042 1163.3469,-204.3894"/>
</g>
<!-- Node32 -->
<g id="node33" class="node">
<title>Node32</title>
<g id="a_node33"><a xlink:href="SpinOrbitLockInfo_8h.html" target="_top" xlink:title="Defines the SpinOrbitLockInfo class. ">
<polygon fill="#ffffff" stroke="#000000" points="149.9756,-69.5 149.9756,-89.5 271.3682,-89.5 271.3682,-69.5 149.9756,-69.5"/>
<text text-anchor="middle" x="210.6719" y="-75.9" font-family="Helvetica,sans-Serif" font-size="12.00" fill="#000000">SpinOrbitLockInfo.h</text>
</a>
</g>
</g>
<!-- Node2&#45;&gt;Node32 -->
<g id="edge50" class="edge">
<title>Node2&#45;&gt;Node32</title>
<path fill="none" stroke="#191970" d="M1334.5287,-299.5274C1277.4511,-291.121 1186.5794,-276.9083 1108.6719,-261 899.3412,-218.2557 842.5977,-219.6307 641.6719,-147 621.6701,-139.7698 619.0716,-132.0163 598.6719,-126 591.139,-123.7784 391.403,-100.4305 281.5275,-87.6893"/>
<polygon fill="#191970" stroke="#191970" points="281.8449,-84.2027 271.5084,-86.528 281.0389,-91.1561 281.8449,-84.2027"/>
</g>
<!-- Node33 -->
<g id="node34" class="node">
<title>Node33</title>
<g id="a_node34"><a xlink:href="CombinedStoppingCondition_8h.html" target="_top" xlink:title="Declares a class for a stopping condition that combines other stopping conditions. ">
<polygon fill="#ffffff" stroke="#000000" points="2079.2822,-240.5 2079.2822,-260.5 2258.0615,-260.5 2258.0615,-240.5 2079.2822,-240.5"/>
<text text-anchor="middle" x="2168.6719" y="-246.9" font-family="Helvetica,sans-Serif" font-size="12.00" fill="#000000">CombinedStoppingCondition.h</text>
</a>
</g>
</g>
<!-- Node2&#45;&gt;Node33 -->
<g id="edge53" class="edge">
<title>Node2&#45;&gt;Node33</title>
<path fill="none" stroke="#191970" d="M1446.9367,-303.3778C1577.7079,-293.7968 1903.554,-269.9238 2068.9607,-257.8053"/>
<polygon fill="#191970" stroke="#191970" points="2069.4184,-261.2813 2079.1358,-257.0598 2068.9068,-254.3 2069.4184,-261.2813"/>
</g>
<!-- Node35 -->
<g id="node36" class="node">
<title>Node35</title>
<g id="a_node36"><a xlink:href="BreakLockCondition_8h.html" target="_top" xlink:title="Declares a class for a stopping condition monitoring when a locked zone loses the lock...">
<polygon fill="#ffffff" stroke="#000000" points="1532.9697,-240.5 1532.9697,-260.5 1666.374,-260.5 1666.374,-240.5 1532.9697,-240.5"/>
<text text-anchor="middle" x="1599.6719" y="-246.9" font-family="Helvetica,sans-Serif" font-size="12.00" fill="#000000">BreakLockCondition.h</text>
</a>
</g>
</g>
<!-- Node2&#45;&gt;Node35 -->
<g id="edge60" class="edge">
<title>Node2&#45;&gt;Node35</title>
<path fill="none" stroke="#191970" d="M1427.5558,-297.4408C1462.5173,-287.9058 1515.1742,-273.5448 1553.0339,-263.2195"/>
<polygon fill="#191970" stroke="#191970" points="1554.0791,-266.5623 1562.8058,-260.5544 1552.2372,-259.809 1554.0791,-266.5623"/>
</g>
<!-- Node36 -->
<g id="node37" class="node">
<title>Node36</title>
<g id="a_node37"><a xlink:href="SynchronizedCondition_8h.html" target="_top" xlink:title="Declares a stopping condition monitoring spin&#45;orbit synchronization. ">
<polygon fill="#ffffff" stroke="#000000" points="1683.9629,-240.5 1683.9629,-260.5 1833.3809,-260.5 1833.3809,-240.5 1683.9629,-240.5"/>
<text text-anchor="middle" x="1758.6719" y="-246.9" font-family="Helvetica,sans-Serif" font-size="12.00" fill="#000000">SynchronizedCondition.h</text>
</a>
</g>
</g>
<!-- Node2&#45;&gt;Node36 -->
<g id="edge63" class="edge">
<title>Node2&#45;&gt;Node36</title>
<path fill="none" stroke="#191970" d="M1446.9637,-298.7809C1510.3885,-288.9569 1613.7607,-272.9455 1683.9167,-262.0789"/>
<polygon fill="#191970" stroke="#191970" points="1684.6714,-265.5038 1694.0178,-260.5143 1683.5999,-258.5863 1684.6714,-265.5038"/>
</g>
<!-- Node3&#45;&gt;Node1 -->
<g id="edge4" class="edge">
<title>Node3&#45;&gt;Node1</title>
<path fill="none" stroke="#191970" d="M1362.8235,-187.4336C1459.3577,-175.8781 1662.0774,-146.6542 1824.6719,-90 1844.0053,-83.2635 1846.8383,-77.0285 1865.6719,-69 1894.7337,-56.6113 1927.802,-44.9171 1955.6567,-35.724"/>
<polygon fill="#191970" stroke="#191970" points="1956.859,-39.0133 1965.2766,-32.5795 1954.6841,-32.3597 1956.859,-39.0133"/>
</g>
<!-- Node3&#45;&gt;Node4 -->
<g id="edge5" class="edge">
<title>Node3&#45;&gt;Node4</title>
<path fill="none" stroke="#191970" d="M1267.6702,-183.4408C1230.544,-173.8652 1174.5469,-159.4225 1134.4775,-149.0879"/>
<polygon fill="#191970" stroke="#191970" points="1135.2119,-145.6628 1124.6547,-146.5544 1133.4637,-152.441 1135.2119,-145.6628"/>
</g>
<!-- Node3&#45;&gt;Node7 -->
<g id="edge9" class="edge">
<title>Node3&#45;&gt;Node7</title>
<path fill="none" stroke="#191970" d="M1322.2257,-183.3095C1335.4634,-174.6366 1354.6887,-162.0407 1369.8626,-152.0992"/>
<polygon fill="#191970" stroke="#191970" points="1371.8062,-155.0102 1378.2527,-146.6022 1367.9699,-149.1549 1371.8062,-155.0102"/>
</g>
<!-- Node23 -->
<g id="node24" class="node">
<title>Node23</title>
<g id="a_node24"><a xlink:href="IncludeEigen_8h_source.html" target="_top" xlink:title="IncludeEigen.h">
<polygon fill="#ffffff" stroke="#000000" points="1005.9746,-69.5 1005.9746,-89.5 1101.3691,-89.5 1101.3691,-69.5 1005.9746,-69.5"/>
<text text-anchor="middle" x="1053.6719" y="-75.9" font-family="Helvetica,sans-Serif" font-size="12.00" fill="#000000">IncludeEigen.h</text>
</a>
</g>
</g>
<!-- Node3&#45;&gt;Node23 -->
<g id="edge31" class="edge">
<title>Node3&#45;&gt;Node23</title>
<path fill="none" stroke="#191970" d="M1285.9552,-183.3935C1258.2498,-169.953 1207.5301,-145.6112 1163.6719,-126 1138.3949,-114.6974 1109.5552,-102.5328 1087.7487,-93.4815"/>
<polygon fill="#191970" stroke="#191970" points="1088.8409,-90.1456 1078.2625,-89.5561 1086.1644,-96.6137 1088.8409,-90.1456"/>
</g>
<!-- Node4&#45;&gt;Node1 -->
<g id="edge6" class="edge">
<title>Node4&#45;&gt;Node1</title>
<path fill="none" stroke="#191970" d="M1026.4279,-126.4776C971.0211,-116.5028 895.4917,-101.1183 886.6719,-90 880.8714,-82.6879 880.227,-75.7509 886.6719,-69 922.2923,-31.6878 1660.1551,-20.2655 1924.4877,-17.3633"/>
<polygon fill="#191970" stroke="#191970" points="1924.8641,-20.8595 1934.8256,-17.2515 1924.7883,-13.8599 1924.8641,-20.8595"/>
</g>
<!-- Node5 -->
<g id="node6" class="node">
<title>Node5</title>
<polygon fill="#ffffff" stroke="#bfbfbf" points="703.998,-69.5 703.998,-89.5 763.3457,-89.5 763.3457,-69.5 703.998,-69.5"/>
<text text-anchor="middle" x="733.6719" y="-75.9" font-family="Helvetica,sans-Serif" font-size="12.00" fill="#000000">ostream</text>
</g>
<!-- Node4&#45;&gt;Node5 -->
<g id="edge7" class="edge">
<title>Node4&#45;&gt;Node5</title>
<path fill="none" stroke="#191970" d="M1016.1586,-127.1276C942.9267,-117.0941 831.3828,-101.3197 773.2676,-89.8917"/>
<polygon fill="#191970" stroke="#191970" points="773.8945,-86.4476 763.3973,-87.8825 772.4982,-93.307 773.8945,-86.4476"/>
</g>
<!-- Node6 -->
<g id="node7" class="node">
<title>Node6</title>
<polygon fill="#ffffff" stroke="#bfbfbf" points="895.333,-69.5 895.333,-89.5 950.0107,-89.5 950.0107,-69.5 895.333,-69.5"/>
<text text-anchor="middle" x="922.6719" y="-75.9" font-family="Helvetica,sans-Serif" font-size="12.00" fill="#000000">cassert</text>
</g>
<!-- Node4&#45;&gt;Node6 -->
<g id="edge8" class="edge">
<title>Node4&#45;&gt;Node6</title>
<path fill="none" stroke="#191970" d="M1056.906,-126.4408C1029.8089,-116.9651 989.0822,-102.7233 959.5973,-92.4126"/>
<polygon fill="#191970" stroke="#191970" points="960.6598,-89.0763 950.065,-89.0792 958.3491,-95.684 960.6598,-89.0763"/>
</g>
<!-- Node7&#45;&gt;Node1 -->
<g id="edge22" class="edge">
<title>Node7&#45;&gt;Node1</title>
<path fill="none" stroke="#191970" d="M1450.9343,-132.1607C1544.8959,-124.6411 1727.5706,-108.2343 1789.6719,-90 1810.0788,-84.0081 1812.8076,-76.5999 1832.6719,-69 1867.4381,-55.6988 1907.0122,-44.0253 1940.6119,-35.0847"/>
<polygon fill="#191970" stroke="#191970" points="1941.5953,-38.4452 1950.377,-32.5181 1939.8158,-31.6752 1941.5953,-38.4452"/>
</g>
<!-- Node7&#45;&gt;Node6 -->
<g id="edge21" class="edge">
<title>Node7&#45;&gt;Node6</title>
<path fill="none" stroke="#191970" d="M1336.2673,-131.3207C1236.1927,-122.1195 1033.7706,-102.699 963.6719,-90 962.5874,-89.8035 961.4892,-89.594 960.3826,-89.3737"/>
<polygon fill="#191970" stroke="#191970" points="960.8617,-85.8953 950.3423,-87.158 959.3531,-92.7308 960.8617,-85.8953"/>
</g>
<!-- Node8 -->
<g id="node9" class="node">
<title>Node8</title>
<polygon fill="#ffffff" stroke="#bfbfbf" points="1225.3389,-69.5 1225.3389,-89.5 1256.0049,-89.5 1256.0049,-69.5 1225.3389,-69.5"/>
<text text-anchor="middle" x="1240.6719" y="-75.9" font-family="Helvetica,sans-Serif" font-size="12.00" fill="#000000">list</text>
</g>
<!-- Node7&#45;&gt;Node8 -->
<g id="edge10" class="edge">
<title>Node7&#45;&gt;Node8</title>
<path fill="none" stroke="#191970" d="M1364.0024,-126.4337C1339.6703,-118.0405 1304.1628,-105.4796 1265.4652,-90.1655"/>
<polygon fill="#191970" stroke="#191970" points="1266.6859,-86.8843 1256.1008,-86.43 1264.0922,-93.3861 1266.6859,-86.8843"/>
</g>
<!-- Node7&#45;&gt;Node9 -->
<g id="edge11" class="edge">
<title>Node7&#45;&gt;Node9</title>
<path fill="none" stroke="#191970" d="M1450.9629,-130.6754C1533.2649,-122.2204 1689.6987,-105.8235 1822.6719,-90 1836.1158,-88.4002 1850.7984,-86.5332 1863.9259,-84.8209"/>
<polygon fill="#191970" stroke="#191970" points="1864.6081,-88.2614 1874.0671,-83.4888 1863.6964,-81.321 1864.6081,-88.2614"/>
</g>
<!-- Node10 -->
<g id="node11" class="node">
<title>Node10</title>
<polygon fill="#ffffff" stroke="#bfbfbf" points="2169.0078,-69.5 2169.0078,-89.5 2212.3359,-89.5 2212.3359,-69.5 2169.0078,-69.5"/>
<text text-anchor="middle" x="2190.6719" y="-75.9" font-family="Helvetica,sans-Serif" font-size="12.00" fill="#000000">limits</text>
</g>
<!-- Node7&#45;&gt;Node10 -->
<g id="edge12" class="edge">
<title>Node7&#45;&gt;Node10</title>
<path fill="none" stroke="#191970" d="M1450.8516,-134.9969C1601.0674,-130.7414 2005.2382,-117.2362 2158.6787,-89.6189"/>
<polygon fill="#191970" stroke="#191970" points="2159.6779,-92.992 2168.8523,-87.6928 2158.3757,-86.1142 2159.6779,-92.992"/>
</g>
<!-- Node11 -->
<g id="node12" class="node">
<title>Node11</title>
<polygon fill="#ffffff" stroke="#bfbfbf" points="781.335,-69.5 781.335,-89.5 840.0088,-89.5 840.0088,-69.5 781.335,-69.5"/>
<text text-anchor="middle" x="810.6719" y="-75.9" font-family="Helvetica,sans-Serif" font-size="12.00" fill="#000000">sstream</text>
</g>
<!-- Node7&#45;&gt;Node11 -->
<g id="edge13" class="edge">
<title>Node7&#45;&gt;Node11</title>
<path fill="none" stroke="#191970" d="M1336.5586,-132.1201C1242.5949,-124.7217 1049.5645,-108.7124 886.6719,-90 874.7996,-88.6362 861.9143,-86.9386 850.1841,-85.3088"/>
<polygon fill="#191970" stroke="#191970" points="850.6186,-81.8355 840.2277,-83.904 849.6406,-88.7669 850.6186,-81.8355"/>
</g>
<!-- Node12 -->
<g id="node13" class="node">
<title>Node12</title>
<polygon fill="#ffffff" stroke="#bfbfbf" points="179.665,-6.5 179.665,-26.5 241.6787,-26.5 241.6787,-6.5 179.665,-6.5"/>
<text text-anchor="middle" x="210.6719" y="-12.9" font-family="Helvetica,sans-Serif" font-size="12.00" fill="#000000">iostream</text>
</g>
<!-- Node7&#45;&gt;Node12 -->
<g id="edge14" class="edge">
<title>Node7&#45;&gt;Node12</title>
<path fill="none" stroke="#191970" d="M1336.5379,-132.5384C1242.297,-125.5478 1058.5313,-109.865 996.6719,-90 978.2997,-84.1001 977.1763,-74.471 958.6719,-69 824.5319,-29.3407 388.4933,-19.2698 251.9459,-17.0584"/>
<polygon fill="#191970" stroke="#191970" points="251.9479,-13.5581 241.8944,-16.9012 251.8384,-20.5572 251.9479,-13.5581"/>
</g>
<!-- Node13 -->
<g id="node14" class="node">
<title>Node13</title>
<polygon fill="#ffffff" stroke="#bfbfbf" points="1273.998,-69.5 1273.998,-89.5 1327.3457,-89.5 1327.3457,-69.5 1273.998,-69.5"/>
<text text-anchor="middle" x="1300.6719" y="-75.9" font-family="Helvetica,sans-Serif" font-size="12.00" fill="#000000">iterator</text>
</g>
<!-- Node7&#45;&gt;Node13 -->
<g id="edge15" class="edge">
<title>Node7&#45;&gt;Node13</title>
<path fill="none" stroke="#191970" d="M1377.0453,-126.3095C1362.8948,-117.6366 1342.3435,-105.0407 1326.1232,-95.0992"/>
<polygon fill="#191970" stroke="#191970" points="1327.5095,-91.8438 1317.1545,-89.6022 1323.8515,-97.812 1327.5095,-91.8438"/>
</g>
<!-- Node14 -->
<g id="node15" class="node">
<title>Node14</title>
<polygon fill="#ffffff" stroke="#bfbfbf" points="1345.3135,-69.5 1345.3135,-89.5 1444.0303,-89.5 1444.0303,-69.5 1345.3135,-69.5"/>
<text text-anchor="middle" x="1394.6719" y="-75.9" font-family="Helvetica,sans-Serif" font-size="12.00" fill="#000000">gsl/gsl_vector.h</text>
</g>
<!-- Node7&#45;&gt;Node14 -->
<g id="edge16" class="edge">
<title>Node7&#45;&gt;Node14</title>
<path fill="none" stroke="#191970" d="M1393.8507,-126.3095C1393.9801,-118.9335 1394.1592,-108.72 1394.3172,-99.715"/>
<polygon fill="#191970" stroke="#191970" points="1397.8186,-99.6621 1394.4946,-89.6022 1390.8197,-99.5393 1397.8186,-99.6621"/>
</g>
<!-- Node15 -->
<g id="node16" class="node">
<title>Node15</title>
<polygon fill="#ffffff" stroke="#bfbfbf" points="1461.9912,-69.5 1461.9912,-89.5 1561.3525,-89.5 1561.3525,-69.5 1461.9912,-69.5"/>
<text text-anchor="middle" x="1511.6719" y="-75.9" font-family="Helvetica,sans-Serif" font-size="12.00" fill="#000000">gsl/gsl_matrix.h</text>
</g>
<!-- Node7&#45;&gt;Node15 -->
<g id="edge17" class="edge">
<title>Node7&#45;&gt;Node15</title>
<path fill="none" stroke="#191970" d="M1414.4963,-126.4408C1433.086,-117.461 1460.5369,-104.2008 1481.5252,-94.0624"/>
<polygon fill="#191970" stroke="#191970" points="1483.1766,-97.1517 1490.6587,-89.6504 1480.1319,-90.8485 1483.1766,-97.1517"/>
</g>
<!-- Node16 -->
<g id="node17" class="node">
<title>Node16</title>
<polygon fill="#ffffff" stroke="#bfbfbf" points="1579.3145,-69.5 1579.3145,-89.5 1674.0293,-89.5 1674.0293,-69.5 1579.3145,-69.5"/>
<text text-anchor="middle" x="1626.6719" y="-75.9" font-family="Helvetica,sans-Serif" font-size="12.00" fill="#000000">gsl/gsl_linalg.h</text>
</g>
<!-- Node7&#45;&gt;Node16 -->
<g id="edge18" class="edge">
<title>Node7&#45;&gt;Node16</title>
<path fill="none" stroke="#191970" d="M1434.7913,-126.4408C1474.0992,-116.8246 1533.4718,-102.3 1575.7523,-91.9567"/>
<polygon fill="#191970" stroke="#191970" points="1576.6905,-95.3305 1585.5724,-89.5544 1575.0271,-88.531 1576.6905,-95.3305"/>
</g>
<!-- Node17 -->
<g id="node18" class="node">
<title>Node17</title>
<polygon fill="#ffffff" stroke="#bfbfbf" points="1692.3174,-69.5 1692.3174,-89.5 1781.0264,-89.5 1781.0264,-69.5 1692.3174,-69.5"/>
<text text-anchor="middle" x="1736.6719" y="-75.9" font-family="Helvetica,sans-Serif" font-size="12.00" fill="#000000">gsl/gsl_blas.h</text>
</g>
<!-- Node7&#45;&gt;Node17 -->
<g id="edge19" class="edge">
<title>Node7&#45;&gt;Node17</title>
<path fill="none" stroke="#191970" d="M1450.7927,-127.87C1506.9919,-119.2525 1595.4948,-105.3444 1682.1836,-90.042"/>
<polygon fill="#191970" stroke="#191970" points="1682.961,-93.4589 1692.1964,-88.2668 1681.739,-86.5664 1682.961,-93.4589"/>
</g>
<!-- Node18 -->
<g id="node19" class="node">
<title>Node18</title>
<polygon fill="#ffffff" stroke="#bfbfbf" points="1119.7598,-69.5 1119.7598,-89.5 1207.584,-89.5 1207.584,-69.5 1119.7598,-69.5"/>
<text text-anchor="middle" x="1163.6719" y="-75.9" font-family="Helvetica,sans-Serif" font-size="12.00" fill="#000000">gsl/gsl_poly.h</text>
</g>
<!-- Node7&#45;&gt;Node18 -->
<g id="edge20" class="edge">
<title>Node7&#45;&gt;Node18</title>
<path fill="none" stroke="#191970" d="M1353.0819,-126.4408C1314.3619,-116.8449 1255.9192,-102.3613 1214.2002,-92.0222"/>
<polygon fill="#191970" stroke="#191970" points="1214.7905,-88.5627 1204.2422,-89.5544 1213.1066,-95.3572 1214.7905,-88.5627"/>
</g>
<!-- Node7&#45;&gt;Node19 -->
<g id="edge23" class="edge">
<title>Node7&#45;&gt;Node19</title>
<path fill="none" stroke="#191970" d="M1336.4944,-133.7236C1289.962,-131.5042 1222.5827,-128.3812 1163.6719,-126 939.6019,-116.943 381.2285,-126.7011 141.9848,-89.7675"/>
<polygon fill="#191970" stroke="#191970" points="142.303,-86.2739 131.8751,-88.1469 141.195,-93.1857 142.303,-86.2739"/>
</g>
<!-- Node22 -->
<g id="node23" class="node">
<title>Node22</title>
<g id="a_node23"><a xlink:href="AstronomicalConstants_8h.html" target="_top" xlink:title="Defines various astronomical constants. ">
<polygon fill="#ffffff" stroke="#000000" points="2268.9746,-69.5 2268.9746,-89.5 2418.3691,-89.5 2418.3691,-69.5 2268.9746,-69.5"/>
<text text-anchor="middle" x="2343.6719" y="-75.9" font-family="Helvetica,sans-Serif" font-size="12.00" fill="#000000">AstronomicalConstants.h</text>
</a>
</g>
</g>
<!-- Node7&#45;&gt;Node22 -->
<g id="edge28" class="edge">
<title>Node7&#45;&gt;Node22</title>
<path fill="none" stroke="#191970" d="M1450.928,-133.8723C1585.4783,-127.5687 1932.2897,-110.5741 2221.6719,-90 2233.5999,-89.152 2246.1762,-88.1697 2258.5401,-87.153"/>
<polygon fill="#191970" stroke="#191970" points="2259.1821,-90.6117 2268.8569,-86.2932 2258.6007,-83.6359 2259.1821,-90.6117"/>
</g>
<!-- Node7&#45;&gt;Node23 -->
<g id="edge29" class="edge">
<title>Node7&#45;&gt;Node23</title>
<path fill="none" stroke="#191970" d="M1336.4328,-127.4275C1281.4073,-118.6305 1195.6276,-104.7206 1111.5328,-90.1262"/>
<polygon fill="#191970" stroke="#191970" points="1112.0058,-86.6559 1101.5538,-88.3897 1110.8057,-93.5523 1112.0058,-86.6559"/>
</g>
<!-- Node19&#45;&gt;Node1 -->
<g id="edge24" class="edge">
<title>Node19&#45;&gt;Node1</title>
<path fill="none" stroke="#191970" d="M131.8717,-70.8321C134.8151,-70.1004 137.7908,-69.4641 140.6719,-69 229.4049,-54.7067 1558.5136,-26.0724 1924.8139,-18.4181"/>
<polygon fill="#191970" stroke="#191970" points="1924.9244,-21.9167 1934.8491,-18.2087 1924.7782,-14.9182 1924.9244,-21.9167"/>
</g>
<!-- Node19&#45;&gt;Node12 -->
<g id="edge25" class="edge">
<title>Node19&#45;&gt;Node12</title>
<path fill="none" stroke="#191970" d="M122.5419,-69.378C139.4572,-59.2288 165.7158,-43.4736 185.1744,-31.7985"/>
<polygon fill="#191970" stroke="#191970" points="187.0695,-34.7432 193.8437,-26.5969 183.468,-28.7407 187.0695,-34.7432"/>
</g>
<!-- Node20 -->
<g id="node21" class="node">
<title>Node20</title>
<polygon fill="#ffffff" stroke="#bfbfbf" points="71.9873,-6.5 71.9873,-26.5 139.3564,-26.5 139.3564,-6.5 71.9873,-6.5"/>
<text text-anchor="middle" x="105.6719" y="-12.9" font-family="Helvetica,sans-Serif" font-size="12.00" fill="#000000">exception</text>
</g>
<!-- Node19&#45;&gt;Node20 -->
<g id="edge26" class="edge">
<title>Node19&#45;&gt;Node20</title>
<path fill="none" stroke="#191970" d="M105.6719,-69.378C105.6719,-60.7041 105.6719,-47.9355 105.6719,-37.1186"/>
<polygon fill="#191970" stroke="#191970" points="109.172,-36.8062 105.6719,-26.8062 102.172,-36.8062 109.172,-36.8062"/>
</g>
<!-- Node21 -->
<g id="node22" class="node">
<title>Node21</title>
<polygon fill="#ffffff" stroke="#bfbfbf" points="0,-6.5 0,-26.5 45.3438,-26.5 45.3438,-6.5 0,-6.5"/>
<text text-anchor="middle" x="22.6719" y="-12.9" font-family="Helvetica,sans-Serif" font-size="12.00" fill="#000000">string</text>
</g>
<!-- Node19&#45;&gt;Node21 -->
<g id="edge27" class="edge">
<title>Node19&#45;&gt;Node21</title>
<path fill="none" stroke="#191970" d="M92.3365,-69.378C79.3889,-59.5503 59.516,-44.4661 44.3044,-32.9198"/>
<polygon fill="#191970" stroke="#191970" points="46.0556,-29.8551 35.9742,-26.5969 41.8234,-35.4308 46.0556,-29.8551"/>
</g>
<!-- Node24 -->
<g id="node25" class="node">
<title>Node24</title>
<polygon fill="#ffffff" stroke="#bfbfbf" points="1011.3154,-6.5 1011.3154,-26.5 1096.0283,-26.5 1096.0283,-6.5 1011.3154,-6.5"/>
<text text-anchor="middle" x="1053.6719" y="-12.9" font-family="Helvetica,sans-Serif" font-size="12.00" fill="#000000">Eigen/Dense</text>
</g>
<!-- Node23&#45;&gt;Node24 -->
<g id="edge30" class="edge">
<title>Node23&#45;&gt;Node24</title>
<path fill="none" stroke="#191970" d="M1053.6719,-69.378C1053.6719,-60.7041 1053.6719,-47.9355 1053.6719,-37.1186"/>
<polygon fill="#191970" stroke="#191970" points="1057.172,-36.8062 1053.6719,-26.8062 1050.172,-36.8062 1057.172,-36.8062"/>
</g>
<!-- Node25&#45;&gt;Node7 -->
<g id="edge48" class="edge">
<title>Node25&#45;&gt;Node7</title>
<path fill="none" stroke="#191970" d="M1176.2621,-183.4408C1221.1757,-173.7435 1289.2088,-159.0545 1337.1863,-148.6958"/>
<polygon fill="#191970" stroke="#191970" points="1338.0681,-152.0861 1347.1042,-146.5544 1336.5907,-145.2438 1338.0681,-152.0861"/>
</g>
<!-- Node25&#45;&gt;Node9 -->
<g id="edge36" class="edge">
<title>Node25&#45;&gt;Node9</title>
<path fill="none" stroke="#191970" d="M1195.4443,-184.4467C1262.0694,-175.2256 1368.0769,-160.4153 1459.6719,-147 1608.8747,-125.1472 1786.0517,-97.7874 1863.777,-85.714"/>
<polygon fill="#191970" stroke="#191970" points="1864.7273,-89.1084 1874.0711,-84.114 1863.6521,-82.1914 1864.7273,-89.1084"/>
</g>
<!-- Node26 -->
<g id="node27" class="node">
<title>Node26</title>
<polygon fill="#ffffff" stroke="#bfbfbf" points="637.333,-69.5 637.333,-89.5 686.0107,-89.5 686.0107,-69.5 637.333,-69.5"/>
<text text-anchor="middle" x="661.6719" y="-75.9" font-family="Helvetica,sans-Serif" font-size="12.00" fill="#000000">cmath</text>
</g>
<!-- Node25&#45;&gt;Node26 -->
<g id="edge35" class="edge">
<title>Node25&#45;&gt;Node26</title>
<path fill="none" stroke="#191970" d="M1092.6323,-183.4958C1041.6705,-169.8536 946.992,-144.9469 865.6719,-126 793.1343,-109.0994 771.5268,-109.7146 696.0837,-90.1924"/>
<polygon fill="#191970" stroke="#191970" points="696.6608,-86.7254 686.1,-87.574 694.8849,-93.4964 696.6608,-86.7254"/>
</g>
<!-- Node27 -->
<g id="node28" class="node">
<title>Node27</title>
<g id="a_node28"><a xlink:href="EccentricityExpansionCoefficients_8h.html" target="_top" xlink:title="Declares a class which provides the [ &#160;coefficients]{InclinationEccentricity_pms1}. ">
<polygon fill="#ffffff" stroke="#000000" points="650.627,-126.5 650.627,-146.5 856.7168,-146.5 856.7168,-126.5 650.627,-126.5"/>
<text text-anchor="middle" x="753.6719" y="-132.9" font-family="Helvetica,sans-Serif" font-size="12.00" fill="#000000">EccentricityExpansionCoefficients.h</text>
</a>
</g>
</g>
<!-- Node25&#45;&gt;Node27 -->
<g id="edge37" class="edge">
<title>Node25&#45;&gt;Node27</title>
<path fill="none" stroke="#191970" d="M1064.1777,-183.5714C998.8014,-173.6606 898.4178,-158.4429 829.5945,-148.0095"/>
<polygon fill="#191970" stroke="#191970" points="830.0888,-144.5446 819.6771,-146.5061 829.0395,-151.4655 830.0888,-144.5446"/>
</g>
<!-- Node27&#45;&gt;Node1 -->
<g id="edge38" class="edge">
<title>Node27&#45;&gt;Node1</title>
<path fill="none" stroke="#191970" d="M699.5677,-126.4362C654.5756,-115.8392 601.8993,-96.8036 628.6719,-69 651.183,-45.6219 1617.2145,-24.4522 1924.7083,-18.2955"/>
<polygon fill="#191970" stroke="#191970" points="1925.0005,-21.7905 1934.9286,-18.0916 1924.8608,-14.7919 1925.0005,-21.7905"/>
</g>
<!-- Node27&#45;&gt;Node6 -->
<g id="edge46" class="edge">
<title>Node27&#45;&gt;Node6</title>
<path fill="none" stroke="#191970" d="M783.4967,-126.4408C811.9699,-116.8374 854.9578,-102.3385 885.6169,-91.9978"/>
<polygon fill="#191970" stroke="#191970" points="886.747,-95.3105 895.1039,-88.7981 884.5098,-88.6776 886.747,-95.3105"/>
</g>
<!-- Node27&#45;&gt;Node11 -->
<g id="edge45" class="edge">
<title>Node27&#45;&gt;Node11</title>
<path fill="none" stroke="#191970" d="M763.8623,-126.3095C772.0489,-118.1229 783.7309,-106.441 793.3764,-96.7955"/>
<polygon fill="#191970" stroke="#191970" points="795.9734,-99.1482 800.5696,-89.6022 791.0237,-94.1984 795.9734,-99.1482"/>
</g>
<!-- Node27&#45;&gt;Node12 -->
<g id="edge44" class="edge">
<title>Node27&#45;&gt;Node12</title>
<path fill="none" stroke="#191970" d="M652.1737,-126.4673C543.9514,-115.4742 384.339,-98.3011 356.6719,-90 311.25,-76.3718 262.9163,-49.2167 234.8269,-32.0017"/>
<polygon fill="#191970" stroke="#191970" points="236.4502,-28.8896 226.1105,-26.5786 232.7523,-34.8332 236.4502,-28.8896"/>
</g>
<!-- Node27&#45;&gt;Node19 -->
<g id="edge39" class="edge">
<title>Node27&#45;&gt;Node19</title>
<path fill="none" stroke="#191970" d="M650.4372,-129.2509C493.4182,-118.1477 206.6951,-97.5428 142.1663,-89.5382"/>
<polygon fill="#191970" stroke="#191970" points="142.2983,-86.0201 131.8957,-88.0293 141.2807,-92.9458 142.2983,-86.0201"/>
</g>
<!-- Node27&#45;&gt;Node26 -->
<g id="edge43" class="edge">
<title>Node27&#45;&gt;Node26</title>
<path fill="none" stroke="#191970" d="M737.2241,-126.3095C723.2257,-117.6366 702.8954,-105.0407 686.8495,-95.0992"/>
<polygon fill="#191970" stroke="#191970" points="688.3213,-91.8938 677.9772,-89.6022 684.6346,-97.8442 688.3213,-91.8938"/>
</g>
<!-- Node28 -->
<g id="node29" class="node">
<title>Node28</title>
<polygon fill="#ffffff" stroke="#bfbfbf" points="2102.333,-69.5 2102.333,-89.5 2151.0107,-89.5 2151.0107,-69.5 2102.333,-69.5"/>
<text text-anchor="middle" x="2126.6719" y="-75.9" font-family="Helvetica,sans-Serif" font-size="12.00" fill="#000000">vector</text>
</g>
<!-- Node27&#45;&gt;Node28 -->
<g id="edge40" class="edge">
<title>Node27&#45;&gt;Node28</title>
<path fill="none" stroke="#191970" d="M856.8611,-132.169C902.9997,-130.2493 958.0597,-127.9816 1007.6719,-126 1422.7603,-109.4209 1526.7233,-109.7708 1941.6719,-90 1994.0228,-87.5057 2054.6672,-83.9336 2091.8468,-81.6657"/>
<polygon fill="#191970" stroke="#191970" points="2092.3736,-85.1401 2102.1406,-81.0345 2091.9451,-78.1532 2092.3736,-85.1401"/>
</g>
<!-- Node29 -->
<g id="node30" class="node">
<title>Node29</title>
<polygon fill="#ffffff" stroke="#bfbfbf" points="365.668,-69.5 365.668,-89.5 421.6758,-89.5 421.6758,-69.5 365.668,-69.5"/>
<text text-anchor="middle" x="393.6719" y="-75.9" font-family="Helvetica,sans-Serif" font-size="12.00" fill="#000000">fstream</text>
</g>
<!-- Node27&#45;&gt;Node29 -->
<g id="edge41" class="edge">
<title>Node27&#45;&gt;Node29</title>
<path fill="none" stroke="#191970" d="M660.8542,-126.4722C598.4537,-118.9501 514.2586,-107.2965 431.6589,-89.9988"/>
<polygon fill="#191970" stroke="#191970" points="432.3654,-86.5709 421.8565,-87.9175 430.9115,-93.4182 432.3654,-86.5709"/>
</g>
<!-- Node30 -->
<g id="node31" class="node">
<title>Node30</title>
<polygon fill="#ffffff" stroke="#bfbfbf" points="439.6602,-69.5 439.6602,-89.5 497.6836,-89.5 497.6836,-69.5 439.6602,-69.5"/>
<text text-anchor="middle" x="468.6719" y="-75.9" font-family="Helvetica,sans-Serif" font-size="12.00" fill="#000000">iomanip</text>
</g>
<!-- Node27&#45;&gt;Node30 -->
<g id="edge42" class="edge">
<title>Node27&#45;&gt;Node30</title>
<path fill="none" stroke="#191970" d="M692.7262,-126.4867C644.9052,-118.2967 576.4705,-105.8462 508.1458,-90.2132"/>
<polygon fill="#191970" stroke="#191970" points="508.5997,-86.7259 498.0684,-87.8837 507.0232,-93.546 508.5997,-86.7259"/>
</g>
<!-- Node31 -->
<g id="node32" class="node">
<title>Node31</title>
<polygon fill="#ffffff" stroke="#bfbfbf" points="515.9951,-69.5 515.9951,-89.5 581.3486,-89.5 581.3486,-69.5 515.9951,-69.5"/>
<text text-anchor="middle" x="548.6719" y="-75.9" font-family="Helvetica,sans-Serif" font-size="12.00" fill="#000000">algorithm</text>
</g>
<!-- Node27&#45;&gt;Node31 -->
<g id="edge47" class="edge">
<title>Node27&#45;&gt;Node31</title>
<path fill="none" stroke="#191970" d="M717.4939,-126.4408C682.2967,-116.6542 628.815,-101.7837 591.509,-91.4108"/>
<polygon fill="#191970" stroke="#191970" points="592.0165,-87.9192 581.4444,-88.6124 590.1413,-94.6634 592.0165,-87.9192"/>
</g>
<!-- Node32&#45;&gt;Node1 -->
<g id="edge51" class="edge">
<title>Node32&#45;&gt;Node1</title>
<path fill="none" stroke="#191970" d="M271.6092,-73.1436C288.4583,-71.5752 306.76,-70.0468 323.6719,-69 933.4089,-31.2592 1668.3681,-20.2034 1924.3728,-17.3726"/>
<polygon fill="#191970" stroke="#191970" points="1924.7797,-20.8685 1934.7409,-17.2596 1924.7033,-13.8689 1924.7797,-20.8685"/>
</g>
<!-- Node32&#45;&gt;Node12 -->
<g id="edge52" class="edge">
<title>Node32&#45;&gt;Node12</title>
<path fill="none" stroke="#191970" d="M210.6719,-69.378C210.6719,-60.7041 210.6719,-47.9355 210.6719,-37.1186"/>
<polygon fill="#191970" stroke="#191970" points="214.172,-36.8062 210.6719,-26.8062 207.172,-36.8062 214.172,-36.8062"/>
</g>
<!-- Node33&#45;&gt;Node1 -->
<g id="edge54" class="edge">
<title>Node33&#45;&gt;Node1</title>
<path fill="none" stroke="#191970" d="M2177.2817,-240.3026C2201.186,-210.7129 2263.9076,-123.4815 2221.6719,-69 2207.4996,-50.7187 2157.5205,-37.6852 2110.583,-29.177"/>
<polygon fill="#191970" stroke="#191970" points="2111.0817,-25.7111 2100.6272,-27.4299 2109.8717,-32.6058 2111.0817,-25.7111"/>
</g>
<!-- Node33&#45;&gt;Node28 -->
<g id="edge59" class="edge">
<title>Node33&#45;&gt;Node28</title>
<path fill="none" stroke="#191970" d="M2166.6623,-240.4359C2162.363,-219.1837 2151.7583,-168.2128 2140.6719,-126 2138.3787,-117.2685 2135.5545,-107.706 2133.0448,-99.5353"/>
<polygon fill="#191970" stroke="#191970" points="2136.3207,-98.2839 2129.9977,-89.7828 2129.6393,-100.3715 2136.3207,-98.2839"/>
</g>
<!-- Node34 -->
<g id="node35" class="node">
<title>Node34</title>
<g id="a_node35"><a xlink:href="StoppingCondition_8h.html" target="_top" xlink:title="Defines the various stopping conditions needed by OrbitSolver. ">
<polygon fill="#ffffff" stroke="#000000" points="1786.6309,-183.5 1786.6309,-203.5 1910.7129,-203.5 1910.7129,-183.5 1786.6309,-183.5"/>
<text text-anchor="middle" x="1848.6719" y="-189.9" font-family="Helvetica,sans-Serif" font-size="12.00" fill="#000000">StoppingCondition.h</text>
</a>
</g>
</g>
<!-- Node33&#45;&gt;Node34 -->
<g id="edge55" class="edge">
<title>Node33&#45;&gt;Node34</title>
<path fill="none" stroke="#191970" d="M2112.1989,-240.4408C2057.104,-230.627 1973.3082,-215.7008 1915.0538,-205.3243"/>
<polygon fill="#191970" stroke="#191970" points="1915.3075,-201.8145 1904.8487,-203.5065 1914.0799,-208.706 1915.3075,-201.8145"/>
</g>
<!-- Node34&#45;&gt;Node1 -->
<g id="edge56" class="edge">
<title>Node34&#45;&gt;Node1</title>
<path fill="none" stroke="#191970" d="M1911.0333,-184.5779C1937.6598,-178.0154 1967.427,-166.6523 1988.6719,-147 2017.3505,-120.4712 2020.853,-72.4081 2019.8884,-42.5993"/>
<polygon fill="#191970" stroke="#191970" points="2023.379,-42.3234 2019.3693,-32.5167 2016.3882,-42.6834 2023.379,-42.3234"/>
</g>
<!-- Node34&#45;&gt;Node6 -->
<g id="edge58" class="edge">
<title>Node34&#45;&gt;Node6</title>
<path fill="none" stroke="#191970" d="M1786.3899,-189.9362C1641.0333,-180.8128 1268.5976,-152.771 963.6719,-90 962.5923,-89.7778 961.4986,-89.5455 960.3959,-89.3052"/>
<polygon fill="#191970" stroke="#191970" points="960.9101,-85.8315 950.3774,-86.9768 959.3255,-92.6498 960.9101,-85.8315"/>
</g>
<!-- Node34&#45;&gt;Node7 -->
<g id="edge57" class="edge">
<title>Node34&#45;&gt;Node7</title>
<path fill="none" stroke="#191970" d="M1786.3601,-185.6939C1701.1421,-175.0182 1548.8318,-155.9376 1461.0464,-144.9403"/>
<polygon fill="#191970" stroke="#191970" points="1461.2882,-141.4433 1450.9307,-143.6731 1460.418,-148.3891 1461.2882,-141.4433"/>
</g>
<!-- Node35&#45;&gt;Node1 -->
<g id="edge61" class="edge">
<title>Node35&#45;&gt;Node1</title>
<path fill="none" stroke="#191970" d="M1623.8257,-240.3981C1692.0837,-211.6583 1885.1134,-129.0044 1941.6719,-90 1962.2601,-75.8018 1982.4612,-55.8969 1996.8554,-40.3817"/>
<polygon fill="#191970" stroke="#191970" points="1999.6837,-42.474 2003.8247,-32.7219 1994.506,-37.7631 1999.6837,-42.474"/>
</g>
<!-- Node35&#45;&gt;Node34 -->
<g id="edge62" class="edge">
<title>Node35&#45;&gt;Node34</title>
<path fill="none" stroke="#191970" d="M1643.6149,-240.4408C1685.7994,-230.7841 1749.6076,-216.1774 1794.8267,-205.826"/>
<polygon fill="#191970" stroke="#191970" points="1795.7832,-209.1977 1804.7501,-203.5544 1794.2212,-202.3742 1795.7832,-209.1977"/>
</g>
<!-- Node36&#45;&gt;Node1 -->
<g id="edge64" class="edge">
<title>Node36&#45;&gt;Node1</title>
<path fill="none" stroke="#191970" d="M1758.465,-240.1378C1758.7655,-225.2474 1761.6498,-197.9497 1777.6719,-183 1835.0935,-129.4215 1888.1897,-194.5803 1950.6719,-147 1984.9278,-120.9141 2003.1594,-72.3658 2011.5914,-42.4015"/>
<polygon fill="#191970" stroke="#191970" points="2014.9985,-43.208 2014.1754,-32.6451 2008.2318,-41.4157 2014.9985,-43.208"/>
</g>
<!-- Node36&#45;&gt;Node34 -->
<g id="edge65" class="edge">
<title>Node36&#45;&gt;Node34</title>
<path fill="none" stroke="#191970" d="M1774.7621,-240.3095C1788.4562,-231.6366 1808.3445,-219.0407 1824.0416,-209.0992"/>
<polygon fill="#191970" stroke="#191970" points="1826.1455,-211.9097 1832.721,-203.6022 1822.4001,-205.9959 1826.1455,-211.9097"/>
</g>
<!-- Node37&#45;&gt;Node1 -->
<g id="edge69" class="edge">
<title>Node37&#45;&gt;Node1</title>
<path fill="none" stroke="#191970" d="M2039.477,-361.0296C2142.3284,-354.1896 2353.7909,-337.8903 2380.6719,-318 2397.3498,-305.6593 2451.4146,-167.3057 2455.6719,-147 2460.3258,-124.8026 2448.4638,-69.7778 2447.6719,-69 2424.0808,-45.8286 2229.9529,-29.7161 2110.743,-21.8999"/>
<polygon fill="#191970" stroke="#191970" points="2110.7219,-18.3913 2100.5166,-21.2377 2110.2695,-25.3767 2110.7219,-18.3913"/>
</g>
<!-- Node37&#45;&gt;Node2 -->
<g id="edge70" class="edge">
<title>Node37&#45;&gt;Node2</title>
<path fill="none" stroke="#191970" d="M1927.8976,-359.0632C1911.1105,-357.4307 1892.6417,-355.6384 1875.6719,-354 1726.1461,-339.5634 1550.673,-322.7787 1457.2121,-313.8513"/>
<polygon fill="#191970" stroke="#191970" points="1457.3403,-310.3477 1447.0528,-312.881 1456.6747,-317.316 1457.3403,-310.3477"/>
</g>
<!-- Node37&#45;&gt;Node6 -->
<g id="edge78" class="edge">
<title>Node37&#45;&gt;Node6</title>
<path fill="none" stroke="#191970" d="M1927.9262,-358.7414C1911.14,-357.0989 1892.6645,-355.3818 1875.6719,-354 1631.5103,-334.1453 1567.4668,-357.2976 1325.6719,-318 1227.2472,-302.0036 1196.1744,-308.8185 1108.6719,-261 1031.2942,-218.7145 963.6562,-135.2107 935.9842,-98.0679"/>
<polygon fill="#191970" stroke="#191970" points="938.5656,-95.6696 929.8284,-89.677 932.9216,-99.8102 938.5656,-95.6696"/>
</g>
<!-- Node37&#45;&gt;Node7 -->
<g id="edge76" class="edge">
<title>Node37&#45;&gt;Node7</title>
<path fill="none" stroke="#191970" d="M1927.9695,-357.6981C1815.0207,-343.1262 1563.5673,-306.4915 1490.6719,-261 1448.6451,-234.7725 1417.5992,-183.4936 1402.9858,-155.6294"/>
<polygon fill="#191970" stroke="#191970" points="1406.0045,-153.8437 1398.3555,-146.5127 1399.7633,-157.0136 1406.0045,-153.8437"/>
</g>
<!-- Node37&#45;&gt;Node9 -->
<g id="edge77" class="edge">
<title>Node37&#45;&gt;Node9</title>
<path fill="none" stroke="#191970" d="M1980.8246,-354.3567C1969.1603,-312.8026 1924.9045,-155.1413 1909.2223,-99.2735"/>
<polygon fill="#191970" stroke="#191970" points="1912.5574,-98.2037 1906.485,-89.5218 1905.8179,-100.0956 1912.5574,-98.2037"/>
</g>
<!-- Node37&#45;&gt;Node22 -->
<g id="edge75" class="edge">
<title>Node37&#45;&gt;Node22</title>
<path fill="none" stroke="#191970" d="M2015.3918,-354.482C2085.2495,-332.1958 2247.7055,-279.0608 2266.6719,-261 2313.8371,-216.0866 2298.1385,-185.9151 2323.6719,-126 2327.4439,-117.1488 2331.6476,-107.3634 2335.2239,-99.0617"/>
<polygon fill="#191970" stroke="#191970" points="2338.4572,-100.4025 2339.2037,-89.834 2332.0295,-97.6303 2338.4572,-100.4025"/>
</g>
<!-- Node38 -->
<g id="node39" class="node">
<title>Node38</title>
<g id="a_node39"><a xlink:href="OrbitalExpressions_8h.html" target="_top" xlink:title="A collection of functions which calculate various quantities for two body orbits. ...">
<polygon fill="#ffffff" stroke="#000000" points="2205.6426,-297.5 2205.6426,-317.5 2371.7012,-317.5 2371.7012,-297.5 2205.6426,-297.5"/>
<text text-anchor="middle" x="2288.6719" y="-303.9" font-family="Helvetica,sans-Serif" font-size="12.00" fill="#000000">../Core/OrbitalExpressions.h</text>
</a>
</g>
</g>
<!-- Node37&#45;&gt;Node38 -->
<g id="edge71" class="edge">
<title>Node37&#45;&gt;Node38</title>
<path fill="none" stroke="#191970" d="M2037.4977,-354.4408C2089.9013,-344.6473 2169.5473,-329.7626 2225.0565,-319.3888"/>
<polygon fill="#191970" stroke="#191970" points="2225.9415,-322.7841 2235.1283,-317.5065 2224.6555,-315.9032 2225.9415,-322.7841"/>
</g>
<!-- Node38&#45;&gt;Node1 -->
<g id="edge72" class="edge">
<title>Node38&#45;&gt;Node1</title>
<path fill="none" stroke="#191970" d="M2303.1312,-297.3022C2350.7631,-262.5368 2495.9059,-146.5284 2427.6719,-69 2407.0481,-45.567 2225.0529,-29.7347 2110.5763,-21.9962"/>
<polygon fill="#191970" stroke="#191970" points="2110.6128,-18.491 2100.402,-21.3177 2110.1469,-25.4755 2110.6128,-18.491"/>
</g>
<!-- Node38&#45;&gt;Node22 -->
<g id="edge74" class="edge">
<title>Node38&#45;&gt;Node22</title>
<path fill="none" stroke="#191970" d="M2291.1061,-297.4089C2299.5168,-262.5428 2327.4561,-146.7219 2338.8108,-99.6513"/>
<polygon fill="#191970" stroke="#191970" points="2342.2607,-100.2752 2341.2033,-89.7332 2335.4558,-98.6336 2342.2607,-100.2752"/>
</g>
<!-- Node38&#45;&gt;Node26 -->
<g id="edge73" class="edge">
<title>Node38&#45;&gt;Node26</title>
<path fill="none" stroke="#191970" d="M2205.3922,-306.2145C2064.4657,-303.196 1770.2227,-293.2522 1523.6719,-261 1396.8841,-244.4144 1361.693,-248.1039 1241.6719,-204 1223.5598,-197.3444 1221.8425,-189.4942 1203.6719,-183 1120.2703,-153.192 1094.3321,-165.2855 1007.6719,-147 968.3288,-138.6985 959.1078,-133.8486 919.6719,-126 823.4518,-106.8501 794.9662,-112.9955 695.8801,-90.025"/>
<polygon fill="#191970" stroke="#191970" points="696.6026,-86.5995 686.066,-87.7094 694.995,-93.4124 696.6026,-86.5995"/>
</g>
<!-- Node39&#45;&gt;Node1 -->
<g id="edge80" class="edge">
<title>Node39&#45;&gt;Node1</title>
<path fill="none" stroke="#191970" d="M2517.8242,-423.9724C2563.109,-418.8176 2630.0534,-406.1431 2679.6719,-375 2712.6876,-354.2776 2735.6719,-346.4802 2735.6719,-307.5 2735.6719,-307.5 2735.6719,-307.5 2735.6719,-136.5 2735.6719,-51.476 2639.4791,-88.2885 2556.6719,-69 2474.3452,-49.8235 2241.7445,-31.6843 2110.5936,-22.5863"/>
<polygon fill="#191970" stroke="#191970" points="2110.7715,-19.0904 2100.5543,-21.8938 2110.2897,-26.0738 2110.7715,-19.0904"/>
</g>
<!-- Node39&#45;&gt;Node7 -->
<g id="edge87" class="edge">
<title>Node39&#45;&gt;Node7</title>
<path fill="none" stroke="#191970" d="M2417.4025,-418.6833C2222.3478,-384.4669 1526.2245,-262.2941 1523.6719,-261 1510.246,-254.1938 1443.3917,-187.1104 1411.1371,-154.3373"/>
<polygon fill="#191970" stroke="#191970" points="1413.2402,-151.4837 1403.7358,-146.802 1408.2462,-156.3888 1413.2402,-151.4837"/>
</g>
<!-- Node39&#45;&gt;Node10 -->
<g id="edge94" class="edge">
<title>Node39&#45;&gt;Node10</title>
<path fill="none" stroke="#191970" d="M2474.3699,-417.3906C2484.3876,-402.6388 2504.2857,-374.7184 2524.6719,-354 2575.3702,-302.4756 2682.3239,-299.0779 2640.6719,-240 2590.1699,-168.3695 2316.3944,-105.6283 2222.3843,-85.9127"/>
<polygon fill="#191970" stroke="#191970" points="2223.0936,-82.4854 2212.5908,-83.8786 2221.6701,-89.3391 2223.0936,-82.4854"/>
</g>
<!-- Node39&#45;&gt;Node12 -->
<g id="edge95" class="edge">
<title>Node39&#45;&gt;Node12</title>
<path fill="none" stroke="#191970" d="M2417.3466,-425.5153C2233.192,-417.8534 1578.8328,-387.1165 1043.6719,-318 603.1721,-261.1091 300.0145,-470.3664 70.6719,-90 65.8526,-82.0072 65.3557,-76.6713 70.6719,-69 76.6353,-60.3948 130.6817,-41.7857 169.8402,-29.1988"/>
<polygon fill="#191970" stroke="#191970" points="170.9729,-32.5113 179.4366,-26.1383 168.8459,-25.8423 170.9729,-32.5113"/>
</g>
<!-- Node39&#45;&gt;Node19 -->
<g id="edge89" class="edge">
<title>Node39&#45;&gt;Node19</title>
<path fill="none" stroke="#191970" d="M2417.3549,-425.3556C2320.2807,-420.631 2100.6576,-407.084 1918.6719,-375 1882.0465,-368.543 1874.4186,-359.7262 1837.6719,-354 1552.6674,-309.5879 1475.5008,-356.7531 1189.6719,-318 720.2373,-254.3533 604.2583,-209.9365 141.927,-90.2045"/>
<polygon fill="#191970" stroke="#191970" points="142.5418,-86.7483 131.9838,-87.6317 140.7882,-93.5252 142.5418,-86.7483"/>
</g>
<!-- Node39&#45;&gt;Node21 -->
<g id="edge93" class="edge">
<title>Node39&#45;&gt;Node21</title>
<path fill="none" stroke="#191970" d="M2417.5146,-423.7144C2168.8195,-404.9356 1078.5219,-322.5009 1043.6719,-318 903.4376,-299.8886 869.0348,-290.1442 730.6719,-261 624.2383,-238.5812 598.1672,-230.4849 492.6719,-204 301.326,-155.9621 219.2445,-211.3179 63.6719,-90 46.2805,-76.438 35.1443,-53.3176 28.9329,-36.6247"/>
<polygon fill="#191970" stroke="#191970" points="32.1006,-35.0722 25.546,-26.7482 25.4792,-37.3429 32.1006,-35.0722"/>
</g>
<!-- Node39&#45;&gt;Node22 -->
<g id="edge86" class="edge">
<title>Node39&#45;&gt;Node22</title>
<path fill="none" stroke="#191970" d="M2517.6889,-420.115C2567.8616,-411.638 2640.2608,-396.1323 2658.6719,-375 2698.328,-329.4825 2705.691,-291.1783 2673.6719,-240 2617.4504,-150.1375 2494.9119,-109.2868 2416.009,-91.6983"/>
<polygon fill="#191970" stroke="#191970" points="2416.6464,-88.2554 2406.1331,-89.5672 2415.1698,-95.0979 2416.6464,-88.2554"/>
</g>
<!-- Node39&#45;&gt;Node33 -->
<g id="edge82" class="edge">
<title>Node39&#45;&gt;Node33</title>
<path fill="none" stroke="#191970" d="M2417.4804,-419.3404C2357.6414,-407.1648 2258.0409,-378.8063 2196.6719,-318 2183.7449,-305.1916 2176.5137,-285.5454 2172.6538,-270.745"/>
<polygon fill="#191970" stroke="#191970" points="2175.9663,-269.5306 2170.3208,-260.5652 2169.1432,-271.0943 2175.9663,-269.5306"/>
</g>
<!-- Node39&#45;&gt;Node37 -->
<g id="edge81" class="edge">
<title>Node39&#45;&gt;Node37</title>
<path fill="none" stroke="#191970" d="M2417.5972,-421.5229C2339.7036,-412.141 2184.8255,-393.15 2053.6719,-375 2052.3709,-374.82 2051.0566,-374.6367 2049.7322,-374.4507"/>
<polygon fill="#191970" stroke="#191970" points="2049.8339,-370.9298 2039.4397,-372.982 2048.845,-377.8596 2049.8339,-370.9298"/>
</g>
<!-- Node39&#45;&gt;Node38 -->
<g id="edge88" class="edge">
<title>Node39&#45;&gt;Node38</title>
<path fill="none" stroke="#191970" d="M2517.8058,-423.2307C2581.4696,-415.9437 2678.7464,-397.435 2640.6719,-354 2623.7797,-334.7296 2480.311,-320.874 2381.8329,-313.5295"/>
<polygon fill="#191970" stroke="#191970" points="2382.0825,-310.0385 2371.8528,-312.7959 2381.5693,-317.0196 2382.0825,-310.0385"/>
</g>
<!-- Node40 -->
<g id="node41" class="node">
<title>Node40</title>
<g id="a_node41"><a xlink:href="SecondaryDeathCondition_8h.html" target="_top" xlink:title="Declares a stopping condition class monitoring for the death of the secondary object. ">
<polygon fill="#ffffff" stroke="#000000" points="2465.6221,-240.5 2465.6221,-260.5 2631.7217,-260.5 2631.7217,-240.5 2465.6221,-240.5"/>
<text text-anchor="middle" x="2548.6719" y="-246.9" font-family="Helvetica,sans-Serif" font-size="12.00" fill="#000000">SecondaryDeathCondition.h</text>
</a>
</g>
</g>
<!-- Node39&#45;&gt;Node40 -->
<g id="edge83" class="edge">
<title>Node39&#45;&gt;Node40</title>
<path fill="none" stroke="#191970" d="M2470.3487,-417.2922C2474.2716,-402.8906 2482.1584,-375.9182 2491.6719,-354 2504.9982,-323.2975 2524.4914,-289.6886 2536.8774,-269.3497"/>
<polygon fill="#191970" stroke="#191970" points="2539.9105,-271.0992 2542.1747,-260.7491 2533.9503,-267.4282 2539.9105,-271.0992"/>
</g>
<!-- Node41 -->
<g id="node42" class="node">
<title>Node41</title>
<polygon fill="#ffffff" stroke="#bfbfbf" points="2763.3174,-354.5 2763.3174,-374.5 2858.0264,-374.5 2858.0264,-354.5 2763.3174,-354.5"/>
<text text-anchor="middle" x="2810.6719" y="-360.9" font-family="Helvetica,sans-Serif" font-size="12.00" fill="#000000">gsl/gsl_errno.h</text>
</g>
<!-- Node39&#45;&gt;Node41 -->
<g id="edge90" class="edge">
<title>Node39&#45;&gt;Node41</title>
<path fill="none" stroke="#191970" d="M2517.9144,-418.2718C2580.4407,-406.7874 2686.9932,-387.2165 2752.8519,-375.12"/>
<polygon fill="#191970" stroke="#191970" points="2753.8563,-378.4941 2763.0595,-373.2451 2752.5917,-371.6093 2753.8563,-378.4941"/>
</g>
<!-- Node42 -->
<g id="node43" class="node">
<title>Node42</title>
<polygon fill="#ffffff" stroke="#bfbfbf" points="2875.6436,-354.5 2875.6436,-374.5 2977.7002,-374.5 2977.7002,-354.5 2875.6436,-354.5"/>
<text text-anchor="middle" x="2926.6719" y="-360.9" font-family="Helvetica,sans-Serif" font-size="12.00" fill="#000000">gsl/gsl_odeiv2.h</text>
</g>
<!-- Node39&#45;&gt;Node42 -->
<g id="edge91" class="edge">
<title>Node39&#45;&gt;Node42</title>
<path fill="none" stroke="#191970" d="M2517.8441,-421.5912C2591.6405,-412.7477 2734.0314,-395.1044 2865.3903,-375.1478"/>
<polygon fill="#191970" stroke="#191970" points="2866.2761,-378.5532 2875.633,-373.5835 2865.2192,-371.6335 2866.2761,-378.5532"/>
</g>
<!-- Node43 -->
<g id="node44" class="node">
<title>Node43</title>
<polygon fill="#ffffff" stroke="#bfbfbf" points="2533.3193,-354.5 2533.3193,-374.5 2632.0244,-374.5 2632.0244,-354.5 2533.3193,-354.5"/>
<text text-anchor="middle" x="2582.6719" y="-360.9" font-family="Helvetica,sans-Serif" font-size="12.00" fill="#000000">gsl/gsl_siman.h</text>
</g>
<!-- Node39&#45;&gt;Node43 -->
<g id="edge92" class="edge">
<title>Node39&#45;&gt;Node43</title>
<path fill="none" stroke="#191970" d="M2486.1486,-417.378C2504.8425,-407.137 2533.9557,-391.188 2555.3229,-379.4825"/>
<polygon fill="#191970" stroke="#191970" points="2557.1524,-382.4711 2564.241,-374.5969 2553.7892,-376.3319 2557.1524,-382.4711"/>
</g>
<!-- Node40&#45;&gt;Node1 -->
<g id="edge84" class="edge">
<title>Node40&#45;&gt;Node1</title>
<path fill="none" stroke="#191970" d="M2551.9807,-240.0899C2561.0975,-209.1495 2582.9612,-116.9285 2536.6719,-69 2507.728,-39.0311 2252.2212,-25.0197 2110.8266,-19.5098"/>
<polygon fill="#191970" stroke="#191970" points="2110.5577,-15.997 2100.4312,-19.1119 2110.29,-22.9919 2110.5577,-15.997"/>
</g>
<!-- Node40&#45;&gt;Node34 -->
<g id="edge85" class="edge">
<title>Node40&#45;&gt;Node34</title>
<path fill="none" stroke="#191970" d="M2465.2776,-243.7093C2326.9147,-232.4426 2052.1998,-210.073 1921.3019,-199.4142"/>
<polygon fill="#191970" stroke="#191970" points="1921.2404,-195.8976 1910.9893,-198.5744 1920.6722,-202.8746 1921.2404,-195.8976"/>
</g>
<!-- Node44&#45;&gt;Node1 -->
<g id="edge97" class="edge">
<title>Node44&#45;&gt;Node1</title>
<path fill="none" stroke="#191970" d="M1641.3753,-423.4278C1373.9607,-409.6577 546.6719,-362.6048 546.6719,-307.5 546.6719,-307.5 546.6719,-307.5 546.6719,-193.5 546.6719,-92.5414 286.42,-141.5074 356.6719,-69 370.417,-54.8135 1577.1919,-26.4569 1924.8971,-18.5747"/>
<polygon fill="#191970" stroke="#191970" points="1925.0134,-22.0731 1934.9316,-18.3475 1924.8549,-15.0749 1925.0134,-22.0731"/>
</g>
<!-- Node44&#45;&gt;Node19 -->
<g id="edge101" class="edge">
<title>Node44&#45;&gt;Node19</title>
<path fill="none" stroke="#191970" d="M1641.4489,-425.6078C1316.9241,-417.6074 142.6719,-383.4139 142.6719,-307.5 142.6719,-307.5 142.6719,-307.5 142.6719,-193.5 142.6719,-158.6742 126.8571,-120.6586 115.9063,-98.5094"/>
<polygon fill="#191970" stroke="#191970" points="118.9714,-96.8162 111.2914,-89.5177 112.7437,-100.0126 118.9714,-96.8162"/>
</g>
<!-- Node44&#45;&gt;Node28 -->
<g id="edge102" class="edge">
<title>Node44&#45;&gt;Node28</title>
<path fill="none" stroke="#191970" d="M1742.3012,-411.4132C1809.4011,-353.4708 2038.3798,-155.7423 2107.05,-96.4439"/>
<polygon fill="#191970" stroke="#191970" points="2109.6749,-98.8016 2114.9561,-89.6168 2105.0999,-93.5035 2109.6749,-98.8016"/>
</g>
<!-- Node44&#45;&gt;Node34 -->
<g id="edge98" class="edge">
<title>Node44&#45;&gt;Node34</title>
<path fill="none" stroke="#191970" d="M1739.919,-411.3126C1766.7396,-383.4297 1819.6027,-323.308 1842.6719,-261 1848.2248,-246.002 1849.5723,-227.8992 1849.6148,-214.218"/>
<polygon fill="#191970" stroke="#191970" points="1853.1083,-213.8582 1849.4072,-203.9309 1846.1097,-213.9995 1853.1083,-213.8582"/>
</g>
<!-- Node44&#45;&gt;Node37 -->
<g id="edge99" class="edge">
<title>Node44&#45;&gt;Node37</title>
<path fill="none" stroke="#191970" d="M1789.9536,-411.4394C1834.292,-400.6959 1891.7683,-386.7689 1932.5691,-376.8826"/>
<polygon fill="#191970" stroke="#191970" points="1933.4101,-380.2802 1942.3046,-374.5236 1931.7616,-373.477 1933.4101,-380.2802"/>
</g>
<!-- Node44&#45;&gt;Node38 -->
<g id="edge100" class="edge">
<title>Node44&#45;&gt;Node38</title>
<path fill="none" stroke="#191970" d="M1805.9945,-412.4716C1808.9221,-411.9696 1811.8215,-411.4776 1814.6719,-411 1918.4488,-393.612 1945.8353,-397.2855 2048.6719,-375 2119.5605,-359.6378 2200.4837,-335.4634 2247.9272,-320.5968"/>
<polygon fill="#191970" stroke="#191970" points="2249.0413,-323.9155 2257.5274,-317.5723 2246.9378,-317.239 2249.0413,-323.9155"/>
</g>
<!-- Node45&#45;&gt;Node1 -->
<g id="edge104" class="edge">
<title>Node45&#45;&gt;Node1</title>
<path fill="none" stroke="#191970" d="M1976.1137,-419.1992C2099.6937,-404.4261 2336.0642,-370.1404 2400.6719,-318 2464.4478,-266.5308 2457.8364,-228.0948 2469.6719,-147 2474.6931,-112.5954 2488.1057,-93.7361 2463.6719,-69 2439.341,-44.368 2234.0444,-28.6424 2110.6308,-21.3226"/>
<polygon fill="#191970" stroke="#191970" points="2110.6098,-17.8155 2100.4223,-20.7252 2110.2008,-24.8035 2110.6098,-17.8155"/>
</g>
<!-- Node45&#45;&gt;Node19 -->
<g id="edge107" class="edge">
<title>Node45&#45;&gt;Node19</title>
<path fill="none" stroke="#191970" d="M1853.0673,-417.4541C1840.6384,-415.0492 1827.1853,-412.6913 1814.6719,-411 1281.9248,-338.993 1128.214,-456.1318 608.6719,-318 412.9132,-265.9532 200.5397,-139.2656 129.9712,-95.0418"/>
<polygon fill="#191970" stroke="#191970" points="131.6636,-91.9713 121.338,-89.598 127.9299,-97.8924 131.6636,-91.9713"/>
</g>
<!-- Node45&#45;&gt;Node28 -->
<g id="edge108" class="edge">
<title>Node45&#45;&gt;Node28</title>
<path fill="none" stroke="#191970" d="M1900.3762,-417.2314C1901.8118,-402.2814 1906.0962,-374.1164 1918.6719,-354 1952.4285,-300.0019 1985.3843,-308.6138 2027.6719,-261 2047.8901,-238.2352 2048.9384,-229.4363 2065.6719,-204 2082.2711,-178.7678 2089.299,-174.0807 2102.6719,-147 2110.2327,-131.6889 2116.5868,-113.3856 2120.8538,-99.7037"/>
<polygon fill="#191970" stroke="#191970" points="2124.2836,-100.4516 2123.8115,-89.8672 2117.5801,-98.4358 2124.2836,-100.4516"/>
</g>
<!-- Node45&#45;&gt;Node34 -->
<g id="edge105" class="edge">
<title>Node45&#45;&gt;Node34</title>
<path fill="none" stroke="#191970" d="M1896.3023,-417.1671C1893.0253,-406.6695 1888.1847,-389.8823 1885.6719,-375 1875.655,-315.6753 1893.4518,-297.4772 1875.6719,-240 1872.6252,-230.151 1867.1824,-220.1458 1861.9778,-211.9522"/>
<polygon fill="#191970" stroke="#191970" points="1864.8289,-209.9199 1856.3433,-203.5759 1859.0207,-213.8269 1864.8289,-209.9199"/>
</g>
<!-- Node45&#45;&gt;Node37 -->
<g id="edge106" class="edge">
<title>Node45&#45;&gt;Node37</title>
<path fill="none" stroke="#191970" d="M1913.1679,-417.378C1926.394,-407.4584 1946.7603,-392.1837 1962.2091,-380.597"/>
<polygon fill="#191970" stroke="#191970" points="1964.3093,-383.397 1970.2093,-374.5969 1960.1093,-377.797 1964.3093,-383.397"/>
</g>
</g>
</svg>
