<?xml version="1.0" encoding="UTF-8" standalone="no"?>
<!DOCTYPE svg PUBLIC "-//W3C//DTD SVG 1.1//EN"
 "http://www.w3.org/Graphics/SVG/1.1/DTD/svg11.dtd">
<!-- Generated by graphviz version 2.40.1 (20161225.0304)
 -->
<!-- Title: /Users/kpenev/projects/git/poet/poet_src/Evolve/BrokenPowerlawPhaseLagZone.h Pages: 1 -->
<!--zoomable 644 -->
<svg id="main" version="1.1" xmlns="http://www.w3.org/2000/svg" xmlns:xlink="http://www.w3.org/1999/xlink" xml:space="preserve" onload="init(evt)">
<style type="text/css"><![CDATA[
.edge:hover path { stroke: red; }
.edge:hover polygon { stroke: red; fill: red; }
]]></style>
<script type="text/javascript"><![CDATA[
var edges = document.getElementsByTagName('g');
if (edges && edges.length) {
  for (var i=0;i<edges.length;i++) {
    if (edges[i].id.substr(0,4)=='edge') {
      edges[i].setAttribute('class','edge');
    }
  }
}
]]></script>
        <defs>
                <circle id="rim" cx="0" cy="0" r="7"/>
                <circle id="rim2" cx="0" cy="0" r="3.5"/>
                <g id="zoomPlus">
                        <use xlink:href="#rim" fill="#404040">
                                <set attributeName="fill" to="#808080" begin="zoomplus.mouseover" end="zoomplus.mouseout"/>
                        </use>
                        <path d="M-4,0h8M0,-4v8" fill="none" stroke="white" stroke-width="1.5" pointer-events="none"/>
                </g>
                <g id="zoomMin">
                        <use xlink:href="#rim" fill="#404040">
                                <set attributeName="fill" to="#808080" begin="zoomminus.mouseover" end="zoomminus.mouseout"/>
                        </use>
                        <path d="M-4,0h8" fill="none" stroke="white" stroke-width="1.5" pointer-events="none"/>
                </g>
                <g id="dirArrow">
                        <path fill="none" stroke="white" stroke-width="1.5" d="M0,-3.0v7 M-2.5,-0.5L0,-3.0L2.5,-0.5"/>
                </g>
               <g id="resetDef">
                       <use xlink:href="#rim2" fill="#404040">
                               <set attributeName="fill" to="#808080" begin="reset.mouseover" end="reset.mouseout"/>
                       </use>
               </g>
        </defs>

<script type="text/javascript">
var viewWidth = 1257;
var viewHeight = 644;
var sectionId = 'dynsection-1';
</script>
<script xlink:href="svgpan.js"/>
<svg id="graph" class="graph">
<g id="viewport">
<title>/Users/kpenev/projects/git/poet/poet_src/Evolve/BrokenPowerlawPhaseLagZone.h</title>
<polygon fill="#ffffff" stroke="transparent" points="-4,4 -4,-640 1253.4219,-640 1253.4219,4 -4,4"/>
<!-- Node46 -->
<g id="node1" class="node">
<title>Node46</title>
<polygon fill="#bfbfbf" stroke="#000000" points="556.3232,-591.5 556.3232,-635.5 757.1045,-635.5 757.1045,-591.5 556.3232,-591.5"/>
<text text-anchor="start" x="564.3232" y="-621.9" font-family="Helvetica,sans-Serif" font-size="12.00" fill="#000000">/Users/kpenev/projects</text>
<text text-anchor="start" x="564.3232" y="-609.9" font-family="Helvetica,sans-Serif" font-size="12.00" fill="#000000">/git/poet/poet_src/Evolve</text>
<text text-anchor="middle" x="656.7139" y="-597.9" font-family="Helvetica,sans-Serif" font-size="12.00" fill="#000000">/BrokenPowerlawPhaseLagZone.h</text>
</g>
<!-- Node47 -->
<g id="node2" class="node">
<title>Node47</title>
<g id="a_node2"><a xlink:href="BrokenPowerlawPhaseLagZone_8cpp_source.html" target="_top" xlink:title="/Users/kpenev/projects\l/git/poet/poet_src/Evolve\l/BrokenPowerlawPhaseLagZone.cpp">
<polygon fill="#ffffff" stroke="#000000" points="253.9863,-510.5 253.9863,-554.5 467.4414,-554.5 467.4414,-510.5 253.9863,-510.5"/>
<text text-anchor="start" x="261.9863" y="-540.9" font-family="Helvetica,sans-Serif" font-size="12.00" fill="#000000">/Users/kpenev/projects</text>
<text text-anchor="start" x="261.9863" y="-528.9" font-family="Helvetica,sans-Serif" font-size="12.00" fill="#000000">/git/poet/poet_src/Evolve</text>
<text text-anchor="middle" x="360.7139" y="-516.9" font-family="Helvetica,sans-Serif" font-size="12.00" fill="#000000">/BrokenPowerlawPhaseLagZone.cpp</text>
</a>
</g>
</g>
<!-- Node46&#45;&gt;Node47 -->
<g id="edge1" class="edge">
<title>Node46&#45;&gt;Node47</title>
<path fill="none" stroke="#191970" d="M566.4849,-588.809C526.5402,-577.8782 479.9357,-565.1249 441.1902,-554.5222"/>
<polygon fill="#191970" stroke="#191970" points="565.6523,-592.2098 576.2216,-591.4734 567.5,-585.458 565.6523,-592.2098"/>
</g>
<!-- Node48 -->
<g id="node3" class="node">
<title>Node48</title>
<g id="a_node3"><a xlink:href="EvolvingStellarZone_8h.html" target="_top" xlink:title="Declares a base class for all stellar zones. ">
<polygon fill="#ffffff" stroke="#000000" points="485.6885,-510.5 485.6885,-554.5 623.7393,-554.5 623.7393,-510.5 485.6885,-510.5"/>
<text text-anchor="start" x="493.6885" y="-540.9" font-family="Helvetica,sans-Serif" font-size="12.00" fill="#000000">/Users/kpenev/projects</text>
<text text-anchor="start" x="493.6885" y="-528.9" font-family="Helvetica,sans-Serif" font-size="12.00" fill="#000000">/git/poet/poet_src/Star</text>
<text text-anchor="middle" x="554.7139" y="-516.9" font-family="Helvetica,sans-Serif" font-size="12.00" fill="#000000">/EvolvingStellarZone.h</text>
</a>
</g>
</g>
<!-- Node46&#45;&gt;Node48 -->
<g id="edge2" class="edge">
<title>Node46&#45;&gt;Node48</title>
<path fill="none" stroke="#191970" d="M620.8178,-584.9943C608.2577,-575.0201 594.3543,-563.9792 582.5521,-554.6068"/>
<polygon fill="#191970" stroke="#191970" points="618.8342,-587.8884 628.8419,-591.3664 623.1874,-582.4066 618.8342,-587.8884"/>
</g>
<!-- Node65 -->
<g id="node20" class="node">
<title>Node65</title>
<g id="a_node20"><a xlink:href="PlanetZone_8h.html" target="_top" xlink:title="Declares a class for the single zone of LockedPlanet objects. ">
<polygon fill="#ffffff" stroke="#000000" points="584.0059,-348.5 584.0059,-392.5 729.4219,-392.5 729.4219,-348.5 584.0059,-348.5"/>
<text text-anchor="start" x="592.0059" y="-378.9" font-family="Helvetica,sans-Serif" font-size="12.00" fill="#000000">/Users/kpenev/projects</text>
<text text-anchor="start" x="592.0059" y="-366.9" font-family="Helvetica,sans-Serif" font-size="12.00" fill="#000000">/git/poet/poet_src/Planet</text>
<text text-anchor="middle" x="656.7139" y="-354.9" font-family="Helvetica,sans-Serif" font-size="12.00" fill="#000000">/PlanetZone.h</text>
</a>
</g>
</g>
<!-- Node46&#45;&gt;Node65 -->
<g id="edge23" class="edge">
<title>Node46&#45;&gt;Node65</title>
<path fill="none" stroke="#191970" d="M656.7139,-581.0746C656.7139,-530.8401 656.7139,-435.5218 656.7139,-392.5201"/>
<polygon fill="#191970" stroke="#191970" points="653.214,-581.0747 656.7139,-591.0747 660.214,-581.0747 653.214,-581.0747"/>
</g>
<!-- Node70 -->
<g id="node25" class="node">
<title>Node70</title>
<g id="a_node25"><a xlink:href="LagForcingFrequencyBreakCondition_8cpp.html" target="_top" xlink:title="Definitions of some of the methods of the LagForcingFrequencyBreakCondition class. ">
<polygon fill="#ffffff" stroke="#000000" points="684.3164,-510.5 684.3164,-554.5 925.1113,-554.5 925.1113,-510.5 684.3164,-510.5"/>
<text text-anchor="start" x="692.3164" y="-540.9" font-family="Helvetica,sans-Serif" font-size="12.00" fill="#000000">/Users/kpenev/projects</text>
<text text-anchor="start" x="692.3164" y="-528.9" font-family="Helvetica,sans-Serif" font-size="12.00" fill="#000000">/git/poet/poet_src/Evolve</text>
<text text-anchor="middle" x="804.7139" y="-516.9" font-family="Helvetica,sans-Serif" font-size="12.00" fill="#000000">/LagForcingFrequencyBreakCondition.cpp</text>
</a>
</g>
</g>
<!-- Node46&#45;&gt;Node70 -->
<g id="edge33" class="edge">
<title>Node46&#45;&gt;Node70</title>
<path fill="none" stroke="#191970" d="M705.9513,-586.5525C724.901,-576.1814 746.2993,-564.4701 764.3211,-554.6068"/>
<polygon fill="#191970" stroke="#191970" points="704.2473,-583.4951 697.1555,-591.3664 707.608,-589.6356 704.2473,-583.4951"/>
</g>
<!-- Node71 -->
<g id="node26" class="node">
<title>Node71</title>
<g id="a_node26"><a xlink:href="LagSpinBreakCondition_8cpp_source.html" target="_top" xlink:title="/Users/kpenev/projects\l/git/poet/poet_src/Evolve\l/LagSpinBreakCondition.cpp">
<polygon fill="#ffffff" stroke="#000000" points="942.6621,-510.5 942.6621,-554.5 1110.7656,-554.5 1110.7656,-510.5 942.6621,-510.5"/>
<text text-anchor="start" x="950.6621" y="-540.9" font-family="Helvetica,sans-Serif" font-size="12.00" fill="#000000">/Users/kpenev/projects</text>
<text text-anchor="start" x="950.6621" y="-528.9" font-family="Helvetica,sans-Serif" font-size="12.00" fill="#000000">/git/poet/poet_src/Evolve</text>
<text text-anchor="middle" x="1026.7139" y="-516.9" font-family="Helvetica,sans-Serif" font-size="12.00" fill="#000000">/LagSpinBreakCondition.cpp</text>
</a>
</g>
</g>
<!-- Node46&#45;&gt;Node71 -->
<g id="edge34" class="edge">
<title>Node46&#45;&gt;Node71</title>
<path fill="none" stroke="#191970" d="M767.2163,-590.9351C818.0087,-580.365 878.9987,-567.3937 933.7139,-555 936.6301,-554.3394 939.596,-553.6605 942.5902,-552.9691"/>
<polygon fill="#191970" stroke="#191970" points="766.2777,-587.5553 757.1987,-593.0162 767.7016,-594.4089 766.2777,-587.5553"/>
</g>
<!-- Node49 -->
<g id="node4" class="node">
<title>Node49</title>
<g id="a_node4"><a xlink:href="EvolvingStellarCore_8h.html" target="_top" xlink:title="Declaration of the class representing stellar cores. ">
<polygon fill="#ffffff" stroke="#000000" points="147.6885,-429.5 147.6885,-473.5 285.7393,-473.5 285.7393,-429.5 147.6885,-429.5"/>
<text text-anchor="start" x="155.6885" y="-459.9" font-family="Helvetica,sans-Serif" font-size="12.00" fill="#000000">/Users/kpenev/projects</text>
<text text-anchor="start" x="155.6885" y="-447.9" font-family="Helvetica,sans-Serif" font-size="12.00" fill="#000000">/git/poet/poet_src/Star</text>
<text text-anchor="middle" x="216.7139" y="-435.9" font-family="Helvetica,sans-Serif" font-size="12.00" fill="#000000">/EvolvingStellarCore.h</text>
</a>
</g>
</g>
<!-- Node48&#45;&gt;Node49 -->
<g id="edge3" class="edge">
<title>Node48&#45;&gt;Node49</title>
<path fill="none" stroke="#191970" d="M475.3566,-509.7675C394.7958,-490.7471 371.7144,-492.685 294.7139,-474 291.8376,-473.3021 288.9084,-472.5672 285.9543,-471.8062"/>
<polygon fill="#191970" stroke="#191970" points="474.933,-513.2651 485.4735,-512.1938 476.5655,-506.4581 474.933,-513.2651"/>
</g>
<!-- Node63 -->
<g id="node18" class="node">
<title>Node63</title>
<g id="a_node18"><a xlink:href="EvolvingStellarEnvelope_8h.html" target="_top" xlink:title="Declares a class representing convective zones in low mass evolving stars or the whole star for high ...">
<polygon fill="#ffffff" stroke="#000000" points="303.3379,-429.5 303.3379,-473.5 462.0898,-473.5 462.0898,-429.5 303.3379,-429.5"/>
<text text-anchor="start" x="311.3379" y="-459.9" font-family="Helvetica,sans-Serif" font-size="12.00" fill="#000000">/Users/kpenev/projects</text>
<text text-anchor="start" x="311.3379" y="-447.9" font-family="Helvetica,sans-Serif" font-size="12.00" fill="#000000">/git/poet/poet_src/Star</text>
<text text-anchor="middle" x="382.7139" y="-435.9" font-family="Helvetica,sans-Serif" font-size="12.00" fill="#000000">/EvolvingStellarEnvelope.h</text>
</a>
</g>
</g>
<!-- Node48&#45;&gt;Node63 -->
<g id="edge20" class="edge">
<title>Node48&#45;&gt;Node63</title>
<path fill="none" stroke="#191970" d="M498.3872,-505.9741C476.1453,-495.4997 450.8854,-483.604 429.6568,-473.6068"/>
<polygon fill="#191970" stroke="#191970" points="497.1759,-509.2723 507.7141,-510.3664 500.1583,-502.9394 497.1759,-509.2723"/>
</g>
<!-- Node64 -->
<g id="node19" class="node">
<title>Node64</title>
<g id="a_node19"><a xlink:href="EvolvingStellarZone_8cpp.html" target="_top" xlink:title="Definitions of some of the methods of EvolvingStellarZone. ">
<polygon fill="#ffffff" stroke="#000000" points="480.3447,-429.5 480.3447,-473.5 629.083,-473.5 629.083,-429.5 480.3447,-429.5"/>
<text text-anchor="start" x="488.3447" y="-459.9" font-family="Helvetica,sans-Serif" font-size="12.00" fill="#000000">/Users/kpenev/projects</text>
<text text-anchor="start" x="488.3447" y="-447.9" font-family="Helvetica,sans-Serif" font-size="12.00" fill="#000000">/git/poet/poet_src/Star</text>
<text text-anchor="middle" x="554.7139" y="-435.9" font-family="Helvetica,sans-Serif" font-size="12.00" fill="#000000">/EvolvingStellarZone.cpp</text>
</a>
</g>
</g>
<!-- Node48&#45;&gt;Node64 -->
<g id="edge22" class="edge">
<title>Node48&#45;&gt;Node64</title>
<path fill="none" stroke="#191970" d="M554.7139,-500.2457C554.7139,-491.3118 554.7139,-481.8188 554.7139,-473.6068"/>
<polygon fill="#191970" stroke="#191970" points="551.214,-500.3664 554.7139,-510.3664 558.214,-500.3664 551.214,-500.3664"/>
</g>
<!-- Node50 -->
<g id="node5" class="node">
<title>Node50</title>
<g id="a_node5"><a xlink:href="EvolvingStar_8h.html" target="_top" xlink:title="Declares the class for stars that user pre&#45;tabulated stellar evolution tracks. ">
<polygon fill="#ffffff" stroke="#000000" points="250.6885,-348.5 250.6885,-392.5 388.7393,-392.5 388.7393,-348.5 250.6885,-348.5"/>
<text text-anchor="start" x="258.6885" y="-378.9" font-family="Helvetica,sans-Serif" font-size="12.00" fill="#000000">/Users/kpenev/projects</text>
<text text-anchor="start" x="258.6885" y="-366.9" font-family="Helvetica,sans-Serif" font-size="12.00" fill="#000000">/git/poet/poet_src/Star</text>
<text text-anchor="middle" x="319.7139" y="-354.9" font-family="Helvetica,sans-Serif" font-size="12.00" fill="#000000">/EvolvingStar.h</text>
</a>
</g>
</g>
<!-- Node49&#45;&gt;Node50 -->
<g id="edge4" class="edge">
<title>Node49&#45;&gt;Node50</title>
<path fill="none" stroke="#191970" d="M252.9619,-422.9943C265.6451,-413.0201 279.6848,-401.9792 291.6027,-392.6068"/>
<polygon fill="#191970" stroke="#191970" points="250.5561,-420.4336 244.8591,-429.3664 254.8832,-425.936 250.5561,-420.4336"/>
</g>
<!-- Node51 -->
<g id="node6" class="node">
<title>Node51</title>
<g id="a_node6"><a xlink:href="Star_2CInterface_8h.html" target="_top" xlink:title="Declare C&#45;style functions for accessing the functionality of the Star library. ">
<polygon fill="#ffffff" stroke="#000000" points="834.6885,-180.5 834.6885,-224.5 972.7393,-224.5 972.7393,-180.5 834.6885,-180.5"/>
<text text-anchor="start" x="842.6885" y="-210.9" font-family="Helvetica,sans-Serif" font-size="12.00" fill="#000000">/Users/kpenev/projects</text>
<text text-anchor="start" x="842.6885" y="-198.9" font-family="Helvetica,sans-Serif" font-size="12.00" fill="#000000">/git/poet/poet_src/Star</text>
<text text-anchor="middle" x="903.7139" y="-186.9" font-family="Helvetica,sans-Serif" font-size="12.00" fill="#000000">/CInterface.h</text>
</a>
</g>
</g>
<!-- Node50&#45;&gt;Node51 -->
<g id="edge5" class="edge">
<title>Node50&#45;&gt;Node51</title>
<path fill="none" stroke="#191970" d="M398.9493,-363.6657C502.6281,-353.9977 678.2289,-334.9265 738.7139,-312 793.044,-291.4065 847.5494,-250.2821 878.3213,-224.7087"/>
<polygon fill="#191970" stroke="#191970" points="398.4735,-360.1947 388.838,-364.6 399.1177,-367.165 398.4735,-360.1947"/>
</g>
<!-- Node56 -->
<g id="node11" class="node">
<title>Node56</title>
<g id="a_node11"><a xlink:href="MakeStar_8h.html" target="_top" xlink:title="Declares functions for creating stars used by unit tests. ">
<polygon fill="#ffffff" stroke="#000000" points="243.6748,-267.5 243.6748,-311.5 395.7529,-311.5 395.7529,-267.5 243.6748,-267.5"/>
<text text-anchor="start" x="251.6748" y="-297.9" font-family="Helvetica,sans-Serif" font-size="12.00" fill="#000000">/Users/kpenev/projects</text>
<text text-anchor="start" x="251.6748" y="-285.9" font-family="Helvetica,sans-Serif" font-size="12.00" fill="#000000">/git/poet/poet_src/unit</text>
<text text-anchor="middle" x="319.7139" y="-273.9" font-family="Helvetica,sans-Serif" font-size="12.00" fill="#000000">_tests/shared/MakeStar.h</text>
</a>
</g>
</g>
<!-- Node50&#45;&gt;Node56 -->
<g id="edge11" class="edge">
<title>Node50&#45;&gt;Node56</title>
<path fill="none" stroke="#191970" d="M319.7139,-338.2457C319.7139,-329.3118 319.7139,-319.8188 319.7139,-311.6068"/>
<polygon fill="#191970" stroke="#191970" points="316.214,-338.3664 319.7139,-348.3664 323.214,-338.3664 316.214,-338.3664"/>
</g>
<!-- Node61 -->
<g id="node16" class="node">
<title>Node61</title>
<g id="a_node16"><a xlink:href="testOrbitSolver_8h.html" target="_top" xlink:title="Declares the test suite that exercises the OrbitSolver class and some other clasess necessary to acco...">
<polygon fill="#ffffff" stroke="#000000" points="20.3369,-180.5 20.3369,-224.5 219.0908,-224.5 219.0908,-180.5 20.3369,-180.5"/>
<text text-anchor="start" x="28.3369" y="-210.9" font-family="Helvetica,sans-Serif" font-size="12.00" fill="#000000">/Users/kpenev/projects</text>
<text text-anchor="start" x="28.3369" y="-198.9" font-family="Helvetica,sans-Serif" font-size="12.00" fill="#000000">/git/poet/poet_src/unit</text>
<text text-anchor="middle" x="119.7139" y="-186.9" font-family="Helvetica,sans-Serif" font-size="12.00" fill="#000000">_tests/testEvolve/testOrbitSolver.h</text>
</a>
</g>
</g>
<!-- Node50&#45;&gt;Node61 -->
<g id="edge19" class="edge">
<title>Node50&#45;&gt;Node61</title>
<path fill="none" stroke="#191970" d="M276.5624,-342.7398C262.8503,-333.4114 247.8446,-322.6584 234.7139,-312 200.0389,-283.8537 163.1975,-247.4806 140.8172,-224.564"/>
<polygon fill="#191970" stroke="#191970" points="274.6534,-345.6738 284.9046,-348.3503 278.56,-339.8652 274.6534,-345.6738"/>
</g>
<!-- Node52 -->
<g id="node7" class="node">
<title>Node52</title>
<g id="a_node7"><a xlink:href="Evolve_2CInterface_8h.html" target="_top" xlink:title="Declare C&#45;style functions for accessing the functionality of the Evolve library. ">
<polygon fill="#ffffff" stroke="#000000" points="939.0098,-87.5 939.0098,-131.5 1086.418,-131.5 1086.418,-87.5 939.0098,-87.5"/>
<text text-anchor="start" x="947.0098" y="-117.9" font-family="Helvetica,sans-Serif" font-size="12.00" fill="#000000">/Users/kpenev/projects</text>
<text text-anchor="start" x="947.0098" y="-105.9" font-family="Helvetica,sans-Serif" font-size="12.00" fill="#000000">/git/poet/poet_src/Evolve</text>
<text text-anchor="middle" x="1012.7139" y="-93.9" font-family="Helvetica,sans-Serif" font-size="12.00" fill="#000000">/CInterface.h</text>
</a>
</g>
</g>
<!-- Node51&#45;&gt;Node52 -->
<g id="edge6" class="edge">
<title>Node51&#45;&gt;Node52</title>
<path fill="none" stroke="#191970" d="M937.546,-173.6341C953.3889,-160.1167 971.9672,-144.2655 986.6901,-131.7038"/>
<polygon fill="#191970" stroke="#191970" points="934.881,-171.307 929.5453,-180.4603 939.4244,-176.6322 934.881,-171.307"/>
</g>
<!-- Node55 -->
<g id="node10" class="node">
<title>Node55</title>
<g id="a_node10"><a xlink:href="Star_2CInterface_8cpp.html" target="_top" xlink:title="The definitions of the functions declared in CInterface.h. ">
<polygon fill="#ffffff" stroke="#000000" points="782.6885,-.5 782.6885,-44.5 920.7393,-44.5 920.7393,-.5 782.6885,-.5"/>
<text text-anchor="start" x="790.6885" y="-30.9" font-family="Helvetica,sans-Serif" font-size="12.00" fill="#000000">/Users/kpenev/projects</text>
<text text-anchor="start" x="790.6885" y="-18.9" font-family="Helvetica,sans-Serif" font-size="12.00" fill="#000000">/git/poet/poet_src/Star</text>
<text text-anchor="middle" x="851.7139" y="-6.9" font-family="Helvetica,sans-Serif" font-size="12.00" fill="#000000">/CInterface.cpp</text>
</a>
</g>
</g>
<!-- Node51&#45;&gt;Node55 -->
<g id="edge10" class="edge">
<title>Node51&#45;&gt;Node55</title>
<path fill="none" stroke="#191970" d="M894.4377,-170.3901C883.9811,-134.1943 867.2549,-76.296 858.1422,-44.7521"/>
<polygon fill="#191970" stroke="#191970" points="891.1997,-171.7927 897.3376,-180.4285 897.9247,-169.8499 891.1997,-171.7927"/>
</g>
<!-- Node53 -->
<g id="node8" class="node">
<title>Node53</title>
<g id="a_node8"><a xlink:href="Evolve_2CInterface_8cpp.html" target="_top" xlink:title="The definitions of the functions declared in CInterface.h. ">
<polygon fill="#ffffff" stroke="#000000" points="939.0098,-.5 939.0098,-44.5 1086.418,-44.5 1086.418,-.5 939.0098,-.5"/>
<text text-anchor="start" x="947.0098" y="-30.9" font-family="Helvetica,sans-Serif" font-size="12.00" fill="#000000">/Users/kpenev/projects</text>
<text text-anchor="start" x="947.0098" y="-18.9" font-family="Helvetica,sans-Serif" font-size="12.00" fill="#000000">/git/poet/poet_src/Evolve</text>
<text text-anchor="middle" x="1012.7139" y="-6.9" font-family="Helvetica,sans-Serif" font-size="12.00" fill="#000000">/CInterface.cpp</text>
</a>
</g>
</g>
<!-- Node52&#45;&gt;Node53 -->
<g id="edge7" class="edge">
<title>Node52&#45;&gt;Node53</title>
<path fill="none" stroke="#191970" d="M1012.7139,-77.0893C1012.7139,-66.2369 1012.7139,-54.3979 1012.7139,-44.5276"/>
<polygon fill="#191970" stroke="#191970" points="1009.214,-77.0953 1012.7139,-87.0953 1016.214,-77.0954 1009.214,-77.0953"/>
</g>
<!-- Node54 -->
<g id="node9" class="node">
<title>Node54</title>
<g id="a_node9"><a xlink:href="Planet_2CInterface_8cpp.html" target="_top" xlink:title="The definitions of the functions declared in CInterface.h. ">
<polygon fill="#ffffff" stroke="#000000" points="1104.0059,-.5 1104.0059,-44.5 1249.4219,-44.5 1249.4219,-.5 1104.0059,-.5"/>
<text text-anchor="start" x="1112.0059" y="-30.9" font-family="Helvetica,sans-Serif" font-size="12.00" fill="#000000">/Users/kpenev/projects</text>
<text text-anchor="start" x="1112.0059" y="-18.9" font-family="Helvetica,sans-Serif" font-size="12.00" fill="#000000">/git/poet/poet_src/Planet</text>
<text text-anchor="middle" x="1176.7139" y="-6.9" font-family="Helvetica,sans-Serif" font-size="12.00" fill="#000000">/CInterface.cpp</text>
</a>
</g>
</g>
<!-- Node52&#45;&gt;Node54 -->
<g id="edge8" class="edge">
<title>Node52&#45;&gt;Node54</title>
<path fill="none" stroke="#191970" d="M1063.4418,-82.5895C1086.4025,-70.4091 1113.2109,-56.1876 1134.9817,-44.6384"/>
<polygon fill="#191970" stroke="#191970" points="1061.7161,-79.5429 1054.5223,-87.3211 1064.9965,-85.7267 1061.7161,-79.5429"/>
</g>
<!-- Node52&#45;&gt;Node55 -->
<g id="edge9" class="edge">
<title>Node52&#45;&gt;Node55</title>
<path fill="none" stroke="#191970" d="M962.6145,-82.4276C940.1404,-70.2833 913.9607,-56.1365 892.6826,-44.6384"/>
<polygon fill="#191970" stroke="#191970" points="961.2086,-85.6462 971.6702,-87.3211 964.5364,-79.4878 961.2086,-85.6462"/>
</g>
<!-- Node57 -->
<g id="node12" class="node">
<title>Node57</title>
<g id="a_node12"><a xlink:href="MakeStar_8cpp.html" target="_top" xlink:title="Implement the functions defined in MakeStar.h. ">
<polygon fill="#ffffff" stroke="#000000" points="237.3379,-180.5 237.3379,-224.5 402.0898,-224.5 402.0898,-180.5 237.3379,-180.5"/>
<text text-anchor="start" x="245.3379" y="-210.9" font-family="Helvetica,sans-Serif" font-size="12.00" fill="#000000">/Users/kpenev/projects</text>
<text text-anchor="start" x="245.3379" y="-198.9" font-family="Helvetica,sans-Serif" font-size="12.00" fill="#000000">/git/poet/poet_src/unit</text>
<text text-anchor="middle" x="319.7139" y="-186.9" font-family="Helvetica,sans-Serif" font-size="12.00" fill="#000000">_tests/shared/MakeStar.cpp</text>
</a>
</g>
</g>
<!-- Node56&#45;&gt;Node57 -->
<g id="edge12" class="edge">
<title>Node56&#45;&gt;Node57</title>
<path fill="none" stroke="#191970" d="M319.7139,-257.0893C319.7139,-246.2369 319.7139,-234.3979 319.7139,-224.5276"/>
<polygon fill="#191970" stroke="#191970" points="316.214,-257.0953 319.7139,-267.0953 323.214,-257.0954 316.214,-257.0953"/>
</g>
<!-- Node58 -->
<g id="node13" class="node">
<title>Node58</title>
<g id="a_node13"><a xlink:href="testDifferentialEquations_8h.html" target="_top" xlink:title="Unit tests that check the differential equations for eccentricity and semimajor against analytic expr...">
<polygon fill="#ffffff" stroke="#000000" points="420.4482,-174.5 420.4482,-230.5 606.9795,-230.5 606.9795,-174.5 420.4482,-174.5"/>
<text text-anchor="start" x="428.4482" y="-216.9" font-family="Helvetica,sans-Serif" font-size="12.00" fill="#000000">/Users/kpenev/projects</text>
<text text-anchor="start" x="428.4482" y="-204.9" font-family="Helvetica,sans-Serif" font-size="12.00" fill="#000000">/git/poet/poet_src/unit</text>
<text text-anchor="start" x="428.4482" y="-192.9" font-family="Helvetica,sans-Serif" font-size="12.00" fill="#000000">_tests/testEvolve/testDifferential</text>
<text text-anchor="middle" x="513.7139" y="-180.9" font-family="Helvetica,sans-Serif" font-size="12.00" fill="#000000">Equations.h</text>
</a>
</g>
</g>
<!-- Node56&#45;&gt;Node58 -->
<g id="edge13" class="edge">
<title>Node56&#45;&gt;Node58</title>
<path fill="none" stroke="#191970" d="M378.2021,-263.2707C401.1763,-252.9679 427.5914,-241.1219 450.9631,-230.6408"/>
<polygon fill="#191970" stroke="#191970" points="376.6114,-260.1482 368.919,-267.4338 379.4757,-266.5354 376.6114,-260.1482"/>
</g>
<!-- Node56&#45;&gt;Node61 -->
<g id="edge16" class="edge">
<title>Node56&#45;&gt;Node61</title>
<path fill="none" stroke="#191970" d="M259.5532,-263.3301C231.1053,-250.9553 197.5152,-236.3436 170.3868,-224.5427"/>
<polygon fill="#191970" stroke="#191970" points="258.4207,-266.6543 268.9869,-267.4338 261.213,-260.2353 258.4207,-266.6543"/>
</g>
<!-- Node59 -->
<g id="node14" class="node">
<title>Node59</title>
<g id="a_node14"><a xlink:href="testDifferentialEquations_8cpp.html" target="_top" xlink:title="Implement the non&#45;inline methods of test_DifferentialEquations. ">
<polygon fill="#ffffff" stroke="#000000" points="229.4482,-81.5 229.4482,-137.5 415.9795,-137.5 415.9795,-81.5 229.4482,-81.5"/>
<text text-anchor="start" x="237.4482" y="-123.9" font-family="Helvetica,sans-Serif" font-size="12.00" fill="#000000">/Users/kpenev/projects</text>
<text text-anchor="start" x="237.4482" y="-111.9" font-family="Helvetica,sans-Serif" font-size="12.00" fill="#000000">/git/poet/poet_src/unit</text>
<text text-anchor="start" x="237.4482" y="-99.9" font-family="Helvetica,sans-Serif" font-size="12.00" fill="#000000">_tests/testEvolve/testDifferential</text>
<text text-anchor="middle" x="322.7139" y="-87.9" font-family="Helvetica,sans-Serif" font-size="12.00" fill="#000000">Equations.cpp</text>
</a>
</g>
</g>
<!-- Node58&#45;&gt;Node59 -->
<g id="edge14" class="edge">
<title>Node58&#45;&gt;Node59</title>
<path fill="none" stroke="#191970" d="M447.0058,-170.0191C425.3261,-159.463 401.4626,-147.8436 380.4909,-137.6323"/>
<polygon fill="#191970" stroke="#191970" points="445.6255,-173.2398 456.1486,-174.4708 448.6899,-166.9462 445.6255,-173.2398"/>
</g>
<!-- Node60 -->
<g id="node15" class="node">
<title>Node60</title>
<g id="a_node15"><a xlink:href="testEvolve_8cpp_source.html" target="_top" xlink:title="/Users/kpenev/projects\l/git/poet/poet_src/unit\l_tests/testEvolve/testEvolve.cpp">
<polygon fill="#ffffff" stroke="#000000" points="433.6719,-87.5 433.6719,-131.5 621.7559,-131.5 621.7559,-87.5 433.6719,-87.5"/>
<text text-anchor="start" x="441.6719" y="-117.9" font-family="Helvetica,sans-Serif" font-size="12.00" fill="#000000">/Users/kpenev/projects</text>
<text text-anchor="start" x="441.6719" y="-105.9" font-family="Helvetica,sans-Serif" font-size="12.00" fill="#000000">/git/poet/poet_src/unit</text>
<text text-anchor="middle" x="527.7139" y="-93.9" font-family="Helvetica,sans-Serif" font-size="12.00" fill="#000000">_tests/testEvolve/testEvolve.cpp</text>
</a>
</g>
</g>
<!-- Node58&#45;&gt;Node60 -->
<g id="edge15" class="edge">
<title>Node58&#45;&gt;Node60</title>
<path fill="none" stroke="#191970" d="M519.4521,-164.3819C521.1282,-153.2474 522.9042,-141.4497 524.3783,-131.6577"/>
<polygon fill="#191970" stroke="#191970" points="515.98,-163.9349 517.9523,-174.3446 522.902,-164.977 515.98,-163.9349"/>
</g>
<!-- Node61&#45;&gt;Node60 -->
<g id="edge17" class="edge">
<title>Node61&#45;&gt;Node60</title>
<path fill="none" stroke="#191970" d="M211.3061,-178.0291C217.1859,-176.62 223.026,-175.2641 228.7139,-174 315.1726,-154.7845 338.3938,-157.829 424.7139,-138 433.2128,-136.0477 442.0629,-133.8516 450.8486,-131.567"/>
<polygon fill="#191970" stroke="#191970" points="210.2805,-174.6765 201.3931,-180.4439 211.9374,-181.4776 210.2805,-174.6765"/>
</g>
<!-- Node62 -->
<g id="node17" class="node">
<title>Node62</title>
<g id="a_node17"><a xlink:href="testOrbitSolver_8cpp.html" target="_top" xlink:title="Defines some of the methods of the test suite that exercises the OrbitSolver class and the other clas...">
<polygon fill="#ffffff" stroke="#000000" points="0,-87.5 0,-131.5 211.4277,-131.5 211.4277,-87.5 0,-87.5"/>
<text text-anchor="start" x="8" y="-117.9" font-family="Helvetica,sans-Serif" font-size="12.00" fill="#000000">/Users/kpenev/projects</text>
<text text-anchor="start" x="8" y="-105.9" font-family="Helvetica,sans-Serif" font-size="12.00" fill="#000000">/git/poet/poet_src/unit</text>
<text text-anchor="middle" x="105.7139" y="-93.9" font-family="Helvetica,sans-Serif" font-size="12.00" fill="#000000">_tests/testEvolve/testOrbitSolver.cpp</text>
</a>
</g>
</g>
<!-- Node61&#45;&gt;Node62 -->
<g id="edge18" class="edge">
<title>Node61&#45;&gt;Node62</title>
<path fill="none" stroke="#191970" d="M114.8577,-170.2412C112.9429,-157.5215 110.7912,-143.2283 109.0564,-131.7038"/>
<polygon fill="#191970" stroke="#191970" points="111.4464,-171.0928 116.3961,-180.4603 118.3684,-170.0507 111.4464,-171.0928"/>
</g>
<!-- Node63&#45;&gt;Node50 -->
<g id="edge21" class="edge">
<title>Node63&#45;&gt;Node50</title>
<path fill="none" stroke="#191970" d="M359.2051,-421.2745C351.8079,-411.7638 343.7811,-401.4436 336.9081,-392.6068"/>
<polygon fill="#191970" stroke="#191970" points="356.5967,-423.6217 365.4988,-429.3664 362.1221,-419.324 356.5967,-423.6217"/>
</g>
<!-- Node66 -->
<g id="node21" class="node">
<title>Node66</title>
<g id="a_node21"><a xlink:href="Planet_8h.html" target="_top" xlink:title="Declares a class for planets that are always locked to the orbit. ">
<polygon fill="#ffffff" stroke="#000000" points="584.0059,-267.5 584.0059,-311.5 729.4219,-311.5 729.4219,-267.5 584.0059,-267.5"/>
<text text-anchor="start" x="592.0059" y="-297.9" font-family="Helvetica,sans-Serif" font-size="12.00" fill="#000000">/Users/kpenev/projects</text>
<text text-anchor="start" x="592.0059" y="-285.9" font-family="Helvetica,sans-Serif" font-size="12.00" fill="#000000">/git/poet/poet_src/Planet</text>
<text text-anchor="middle" x="656.7139" y="-273.9" font-family="Helvetica,sans-Serif" font-size="12.00" fill="#000000">/Planet.h</text>
</a>
</g>
</g>
<!-- Node65&#45;&gt;Node66 -->
<g id="edge24" class="edge">
<title>Node65&#45;&gt;Node66</title>
<path fill="none" stroke="#191970" d="M656.7139,-338.2457C656.7139,-329.3118 656.7139,-319.8188 656.7139,-311.6068"/>
<polygon fill="#191970" stroke="#191970" points="653.214,-338.3664 656.7139,-348.3664 660.214,-338.3664 653.214,-338.3664"/>
</g>
<!-- Node66&#45;&gt;Node58 -->
<g id="edge28" class="edge">
<title>Node66&#45;&gt;Node58</title>
<path fill="none" stroke="#191970" d="M611.3743,-261.9158C594.9377,-251.9159 576.3616,-240.6143 559.8565,-230.5728"/>
<polygon fill="#191970" stroke="#191970" points="609.8966,-265.1136 620.2589,-267.3211 613.5349,-259.1334 609.8966,-265.1136"/>
</g>
<!-- Node66&#45;&gt;Node61 -->
<g id="edge29" class="edge">
<title>Node66&#45;&gt;Node61</title>
<path fill="none" stroke="#191970" d="M573.9239,-281.1629C487.3523,-271.7506 347.7706,-254.6128 228.7139,-231 219.2168,-229.1164 209.3171,-226.8957 199.5256,-224.5386"/>
<polygon fill="#191970" stroke="#191970" points="573.6355,-284.652 583.9531,-282.2445 574.3861,-277.6924 573.6355,-284.652"/>
</g>
<!-- Node67 -->
<g id="node22" class="node">
<title>Node67</title>
<g id="a_node22"><a xlink:href="Planet_2CInterface_8h.html" target="_top" xlink:title="Declare C&#45;style functions for working with LockedPlanet instances. ">
<polygon fill="#ffffff" stroke="#000000" points="991.0059,-180.5 991.0059,-224.5 1136.4219,-224.5 1136.4219,-180.5 991.0059,-180.5"/>
<text text-anchor="start" x="999.0059" y="-210.9" font-family="Helvetica,sans-Serif" font-size="12.00" fill="#000000">/Users/kpenev/projects</text>
<text text-anchor="start" x="999.0059" y="-198.9" font-family="Helvetica,sans-Serif" font-size="12.00" fill="#000000">/git/poet/poet_src/Planet</text>
<text text-anchor="middle" x="1063.7139" y="-186.9" font-family="Helvetica,sans-Serif" font-size="12.00" fill="#000000">/CInterface.h</text>
</a>
</g>
</g>
<!-- Node66&#45;&gt;Node67 -->
<g id="edge25" class="edge">
<title>Node66&#45;&gt;Node67</title>
<path fill="none" stroke="#191970" d="M739.6629,-278.2293C805.8025,-268.3677 900.4791,-252.2884 981.7139,-231 988.8577,-229.1279 996.2709,-226.9283 1003.5887,-224.5952"/>
<polygon fill="#191970" stroke="#191970" points="739.0901,-274.7759 729.7084,-279.6987 740.1123,-281.7008 739.0901,-274.7759"/>
</g>
<!-- Node68 -->
<g id="node23" class="node">
<title>Node68</title>
<g id="a_node23"><a xlink:href="testTidalTorquePower_8h.html" target="_top" xlink:title="Declare a unit tests class that check the calculations of tidal torque and power. ...">
<polygon fill="#ffffff" stroke="#000000" points="624.8906,-174.5 624.8906,-230.5 816.5371,-230.5 816.5371,-174.5 624.8906,-174.5"/>
<text text-anchor="start" x="632.8906" y="-216.9" font-family="Helvetica,sans-Serif" font-size="12.00" fill="#000000">/Users/kpenev/projects</text>
<text text-anchor="start" x="632.8906" y="-204.9" font-family="Helvetica,sans-Serif" font-size="12.00" fill="#000000">/git/poet/poet_src/unit</text>
<text text-anchor="start" x="632.8906" y="-192.9" font-family="Helvetica,sans-Serif" font-size="12.00" fill="#000000">_tests/testEvolve/testTidalTorque</text>
<text text-anchor="middle" x="720.7139" y="-180.9" font-family="Helvetica,sans-Serif" font-size="12.00" fill="#000000">Power.h</text>
</a>
</g>
</g>
<!-- Node66&#45;&gt;Node68 -->
<g id="edge30" class="edge">
<title>Node66&#45;&gt;Node68</title>
<path fill="none" stroke="#191970" d="M679.1775,-258.9635C685.9242,-249.7922 693.2933,-239.7748 699.9266,-230.7577"/>
<polygon fill="#191970" stroke="#191970" points="676.3018,-256.9661 673.1955,-267.0953 681.9405,-261.1141 676.3018,-256.9661"/>
</g>
<!-- Node67&#45;&gt;Node52 -->
<g id="edge26" class="edge">
<title>Node67&#45;&gt;Node52</title>
<path fill="none" stroke="#191970" d="M1046.6489,-171.3816C1039.5199,-158.3816 1031.3996,-143.574 1024.8901,-131.7038"/>
<polygon fill="#191970" stroke="#191970" points="1043.7504,-173.3751 1051.6276,-180.4603 1049.8881,-170.0092 1043.7504,-173.3751"/>
</g>
<!-- Node67&#45;&gt;Node54 -->
<g id="edge27" class="edge">
<title>Node67&#45;&gt;Node54</title>
<path fill="none" stroke="#191970" d="M1083.0008,-171.7774C1105.656,-135.6896 1142.687,-76.7021 1162.7445,-44.7521"/>
<polygon fill="#191970" stroke="#191970" points="1079.9225,-170.0981 1077.5699,-180.4285 1085.8511,-173.82 1079.9225,-170.0981"/>
</g>
<!-- Node68&#45;&gt;Node60 -->
<g id="edge31" class="edge">
<title>Node68&#45;&gt;Node60</title>
<path fill="none" stroke="#191970" d="M653.357,-170.0431C626.9588,-157.3227 597.3496,-143.0551 573.5081,-131.5666"/>
<polygon fill="#191970" stroke="#191970" points="652.0177,-173.2828 662.5458,-174.4708 655.0565,-166.9768 652.0177,-173.2828"/>
</g>
<!-- Node69 -->
<g id="node24" class="node">
<title>Node69</title>
<g id="a_node24"><a xlink:href="testTidalTorquePower_8cpp.html" target="_top" xlink:title="Define the non&#45;inline methods of test_TidalTorquePower and actually run the tests if compiled in stan...">
<polygon fill="#ffffff" stroke="#000000" points="639.8906,-81.5 639.8906,-137.5 831.5371,-137.5 831.5371,-81.5 639.8906,-81.5"/>
<text text-anchor="start" x="647.8906" y="-123.9" font-family="Helvetica,sans-Serif" font-size="12.00" fill="#000000">/Users/kpenev/projects</text>
<text text-anchor="start" x="647.8906" y="-111.9" font-family="Helvetica,sans-Serif" font-size="12.00" fill="#000000">/git/poet/poet_src/unit</text>
<text text-anchor="start" x="647.8906" y="-99.9" font-family="Helvetica,sans-Serif" font-size="12.00" fill="#000000">_tests/testEvolve/testTidalTorque</text>
<text text-anchor="middle" x="735.7139" y="-87.9" font-family="Helvetica,sans-Serif" font-size="12.00" fill="#000000">Power.cpp</text>
</a>
</g>
</g>
<!-- Node68&#45;&gt;Node69 -->
<g id="edge32" class="edge">
<title>Node68&#45;&gt;Node69</title>
<path fill="none" stroke="#191970" d="M726.8512,-164.4485C728.3022,-155.4526 729.8235,-146.0203 731.1881,-137.5597"/>
<polygon fill="#191970" stroke="#191970" points="723.3921,-163.9148 725.2551,-174.3446 730.3028,-165.0295 723.3921,-163.9148"/>
</g>
</g>
</svg>
        <g id="navigator" transform="translate(0 0)" fill="#404254">
                <rect fill="#f2f5e9" fill-opacity="0.5" stroke="#606060" stroke-width=".5" x="0" y="0" width="60" height="60"/>
                <use id="zoomplus" xlink:href="#zoomPlus" x="17" y="9" onmousedown="handleZoom(evt,'in')"/>
                <use id="zoomminus" xlink:href="#zoomMin" x="42" y="9" onmousedown="handleZoom(evt,'out')"/>
                <use id="reset" xlink:href="#resetDef" x="30" y="36" onmousedown="handleReset()"/>
                <g id="arrowUp" xlink:href="#dirArrow" transform="translate(30 24)" onmousedown="handlePan(0,-1)">
                  <use xlink:href="#rim" fill="#404040">
                        <set attributeName="fill" to="#808080" begin="arrowUp.mouseover" end="arrowUp.mouseout"/>
                  </use>
                  <path fill="none" stroke="white" stroke-width="1.5" d="M0,-3.0v7 M-2.5,-0.5L0,-3.0L2.5,-0.5"/>
                </g>
                <g id="arrowRight" xlink:href="#dirArrow" transform="rotate(90) translate(36 -43)" onmousedown="handlePan(1,0)">
                  <use xlink:href="#rim" fill="#404040">
                        <set attributeName="fill" to="#808080" begin="arrowRight.mouseover" end="arrowRight.mouseout"/>
                  </use>
                  <path fill="none" stroke="white" stroke-width="1.5" d="M0,-3.0v7 M-2.5,-0.5L0,-3.0L2.5,-0.5"/>
                </g>
                <g id="arrowDown" xlink:href="#dirArrow" transform="rotate(180) translate(-30 -48)" onmousedown="handlePan(0,1)">
                  <use xlink:href="#rim" fill="#404040">
                        <set attributeName="fill" to="#808080" begin="arrowDown.mouseover" end="arrowDown.mouseout"/>
                  </use>
                  <path fill="none" stroke="white" stroke-width="1.5" d="M0,-3.0v7 M-2.5,-0.5L0,-3.0L2.5,-0.5"/>
                </g>
                <g id="arrowLeft" xlink:href="#dirArrow" transform="rotate(270) translate(-36 17)" onmousedown="handlePan(-1,0)">
                  <use xlink:href="#rim" fill="#404040">
                        <set attributeName="fill" to="#808080" begin="arrowLeft.mouseover" end="arrowLeft.mouseout"/>
                  </use>
                  <path fill="none" stroke="white" stroke-width="1.5" d="M0,-3.0v7 M-2.5,-0.5L0,-3.0L2.5,-0.5"/>
                </g>
        </g>
        <svg viewBox="0 0 15 15" width="100%" height="30px" preserveAspectRatio="xMaxYMin meet">
         <g id="arrow_out" transform="scale(0.3 0.3)">
          <a xlink:href="BrokenPowerlawPhaseLagZone_8h__dep__incl_org.svg" target="_base">
           <rect id="button" ry="5" rx="5" y="6" x="6" height="38" width="38"
                fill="#f2f5e9" fill-opacity="0.5" stroke="#606060" stroke-width="1.0"/>
           <path id="arrow"
             d="M 11.500037,31.436501 C 11.940474,20.09759 22.043105,11.32322 32.158766,21.979434 L 37.068811,17.246167 C 37.068811,17.246167 37.088388,32 37.088388,32 L 22.160133,31.978069 C 22.160133,31.978069 26.997745,27.140456 26.997745,27.140456 C 18.528582,18.264221 13.291696,25.230495 11.500037,31.436501 z"
             style="fill:#404040;"/>
          </a>
         </g>
        </svg>
</svg>
