<?xml version="1.0" encoding="UTF-8" standalone="no"?>
<!DOCTYPE svg PUBLIC "-//W3C//DTD SVG 1.1//EN"
 "http://www.w3.org/Graphics/SVG/1.1/DTD/svg11.dtd">
<!-- Generated by graphviz version 2.40.1 (20161225.0304)
 -->
<!-- Title: TwoPhaseLagZone Pages: 1 -->
<svg width="198pt" height="226pt"
 viewBox="0.00 0.00 197.76 226.00" xmlns="http://www.w3.org/2000/svg" xmlns:xlink="http://www.w3.org/1999/xlink">
<g id="graph0" class="graph" transform="scale(1 1) rotate(0) translate(4 222)">
<title>TwoPhaseLagZone</title>
<polygon fill="#ffffff" stroke="transparent" points="-4,4 -4,-222 193.7598,-222 193.7598,4 -4,4"/>
<!-- Node2 -->
<g id="node1" class="node">
<title>Node2</title>
<polygon fill="#bfbfbf" stroke="#000000" points="0,-.5 0,-120.5 189.7598,-120.5 189.7598,-.5 0,-.5"/>
<text text-anchor="middle" x="94.8799" y="-106.9" font-family="Helvetica,sans-Serif" font-size="12.00" fill="#000000">TwoPhaseLagZone</text>
<polyline fill="none" stroke="#000000" points="0,-100.5 189.7598,-100.5 "/>
<text text-anchor="start" x="8" y="-86.9" font-family="Helvetica,sans-Serif" font-size="12.00" fill="#000000">&#45; __equilibrium_modified_lag</text>
<text text-anchor="start" x="8" y="-74.9" font-family="Helvetica,sans-Serif" font-size="12.00" fill="#000000">&#45; __inertial_modified_lag</text>
<polyline fill="none" stroke="#000000" points="0,-68.5 189.7598,-68.5 "/>
<text text-anchor="start" x="8" y="-54.9" font-family="Helvetica,sans-Serif" font-size="12.00" fill="#000000">+ TwoPhaseLagZone()</text>
<text text-anchor="start" x="8" y="-42.9" font-family="Helvetica,sans-Serif" font-size="12.00" fill="#000000">+ set_equilibrium_modified_lag()</text>
<text text-anchor="start" x="8" y="-30.9" font-family="Helvetica,sans-Serif" font-size="12.00" fill="#000000">+ set_inertial_modified_lag()</text>
<text text-anchor="start" x="8" y="-18.9" font-family="Helvetica,sans-Serif" font-size="12.00" fill="#000000">+ modified_phase_lag()</text>
<text text-anchor="start" x="8" y="-6.9" font-family="Helvetica,sans-Serif" font-size="12.00" fill="#000000">+ love_coefficient()</text>
</g>
<!-- Node3 -->
<g id="node2" class="node">
<title>Node3</title>
<polygon fill="#ffffff" stroke="#bfbfbf" points="43.8574,-157.5 43.8574,-217.5 145.9023,-217.5 145.9023,-157.5 43.8574,-157.5"/>
<text text-anchor="middle" x="94.8799" y="-203.9" font-family="Helvetica,sans-Serif" font-size="12.00" fill="#000000">DissipatingZone</text>
<polyline fill="none" stroke="#bfbfbf" points="43.8574,-197.5 145.9023,-197.5 "/>
<text text-anchor="middle" x="94.8799" y="-183.9" font-family="Helvetica,sans-Serif" font-size="12.00" fill="#000000"> </text>
<polyline fill="none" stroke="#bfbfbf" points="43.8574,-177.5 145.9023,-177.5 "/>
<text text-anchor="middle" x="94.8799" y="-163.9" font-family="Helvetica,sans-Serif" font-size="12.00" fill="#000000"> </text>
</g>
<!-- Node3&#45;&gt;Node2 -->
<g id="edge1" class="edge">
<title>Node3&#45;&gt;Node2</title>
<path fill="none" stroke="#191970" d="M94.8799,-147.373C94.8799,-138.8433 94.8799,-129.6596 94.8799,-120.57"/>
<polygon fill="none" stroke="#191970" points="91.38,-147.4027 94.8799,-157.4028 98.38,-147.4028 91.38,-147.4027"/>
</g>
</g>
</svg>
