<?xml version="1.0" encoding="UTF-8" standalone="no"?>
<!DOCTYPE svg PUBLIC "-//W3C//DTD SVG 1.1//EN"
 "http://www.w3.org/Graphics/SVG/1.1/DTD/svg11.dtd">
<!-- Generated by graphviz version 2.40.1 (20161225.0304)
 -->
<!-- Title: Core::Error::GSLZeroStep Pages: 1 -->
<svg width="163pt" height="437pt"
 viewBox="0.00 0.00 163.00 437.00" xmlns="http://www.w3.org/2000/svg" xmlns:xlink="http://www.w3.org/1999/xlink">
<g id="graph0" class="graph" transform="scale(1 1) rotate(0) translate(4 433)">
<title>Core::Error::GSLZeroStep</title>
<polygon fill="#ffffff" stroke="transparent" points="-4,4 -4,-433 159,-433 159,4 -4,4"/>
<!-- Node0 -->
<g id="node1" class="node">
<title>Node0</title>
<polygon fill="#bfbfbf" stroke="#000000" points="0,-.5 0,-76.5 155,-76.5 155,-.5 0,-.5"/>
<text text-anchor="middle" x="77.5" y="-62.9" font-family="Helvetica,sans-Serif" font-size="12.00" fill="#000000">Core::Error::GSLZeroStep</text>
<polyline fill="none" stroke="#000000" points="0,-55.5 155,-55.5 "/>
<text text-anchor="middle" x="77.5" y="-41.9" font-family="Helvetica,sans-Serif" font-size="12.00" fill="#000000"> </text>
<polyline fill="none" stroke="#000000" points="0,-34.5 155,-34.5 "/>
<text text-anchor="start" x="8" y="-20.9" font-family="Helvetica,sans-Serif" font-size="12.00" fill="#000000">+ GSLZeroStep()</text>
<text text-anchor="start" x="8" y="-7.9" font-family="Helvetica,sans-Serif" font-size="12.00" fill="#000000">+ what()</text>
</g>
<!-- Node1 -->
<g id="node2" class="node">
<title>Node1</title>
<g id="a_node2"><a xlink:href="classCore_1_1Error_1_1Runtime.html" target="_top" xlink:title="Any runtime error. ">
<polygon fill="#ffffff" stroke="#000000" points="14.5,-113.5 14.5,-189.5 140.5,-189.5 140.5,-113.5 14.5,-113.5"/>
<text text-anchor="middle" x="77.5" y="-175.9" font-family="Helvetica,sans-Serif" font-size="12.00" fill="#000000">Core::Error::Runtime</text>
<polyline fill="none" stroke="#000000" points="14.5,-168.5 140.5,-168.5 "/>
<text text-anchor="middle" x="77.5" y="-154.9" font-family="Helvetica,sans-Serif" font-size="12.00" fill="#000000"> </text>
<polyline fill="none" stroke="#000000" points="14.5,-147.5 140.5,-147.5 "/>
<text text-anchor="start" x="22.5" y="-133.9" font-family="Helvetica,sans-Serif" font-size="12.00" fill="#000000">+ Runtime()</text>
<text text-anchor="start" x="22.5" y="-120.9" font-family="Helvetica,sans-Serif" font-size="12.00" fill="#000000">+ what()</text>
</a>
</g>
</g>
<!-- Node1&#45;&gt;Node0 -->
<g id="edge1" class="edge">
<title>Node1&#45;&gt;Node0</title>
<path fill="none" stroke="#191970" d="M77.5,-103.0745C77.5,-94.2625 77.5,-85.183 77.5,-76.7172"/>
<polygon fill="none" stroke="#191970" points="74.0001,-103.2433 77.5,-113.2434 81.0001,-103.2434 74.0001,-103.2433"/>
</g>
<!-- Node2 -->
<g id="node3" class="node">
<title>Node2</title>
<g id="a_node3"><a xlink:href="classCore_1_1Error_1_1General.html" target="_top" xlink:title="The base class of all exceptions. ">
<polygon fill="#ffffff" stroke="#000000" points="15.5,-226.5 15.5,-328.5 139.5,-328.5 139.5,-226.5 15.5,-226.5"/>
<text text-anchor="middle" x="77.5" y="-314.9" font-family="Helvetica,sans-Serif" font-size="12.00" fill="#000000">Core::Error::General</text>
<polyline fill="none" stroke="#000000" points="15.5,-307.5 139.5,-307.5 "/>
<text text-anchor="start" x="23.5" y="-293.9" font-family="Helvetica,sans-Serif" font-size="12.00" fill="#000000">&#45; message</text>
<polyline fill="none" stroke="#000000" points="15.5,-286.5 139.5,-286.5 "/>
<text text-anchor="start" x="23.5" y="-272.9" font-family="Helvetica,sans-Serif" font-size="12.00" fill="#000000">+ General()</text>
<text text-anchor="start" x="23.5" y="-259.9" font-family="Helvetica,sans-Serif" font-size="12.00" fill="#000000">+ what()</text>
<text text-anchor="start" x="23.5" y="-246.9" font-family="Helvetica,sans-Serif" font-size="12.00" fill="#000000">+ get_message()</text>
<text text-anchor="start" x="23.5" y="-233.9" font-family="Helvetica,sans-Serif" font-size="12.00" fill="#000000">+ ~General()</text>
</a>
</g>
</g>
<!-- Node2&#45;&gt;Node1 -->
<g id="edge2" class="edge">
<title>Node2&#45;&gt;Node1</title>
<path fill="none" stroke="#191970" d="M77.5,-216.0925C77.5,-207.0432 77.5,-197.95 77.5,-189.5605"/>
<polygon fill="none" stroke="#191970" points="74.0001,-216.2509 77.5,-226.251 81.0001,-216.251 74.0001,-216.2509"/>
</g>
<!-- Node3 -->
<g id="node4" class="node">
<title>Node3</title>
<polygon fill="#ffffff" stroke="#bfbfbf" points="32.5,-365.5 32.5,-428.5 122.5,-428.5 122.5,-365.5 32.5,-365.5"/>
<text text-anchor="middle" x="77.5" y="-414.9" font-family="Helvetica,sans-Serif" font-size="12.00" fill="#000000">std::exception</text>
<polyline fill="none" stroke="#bfbfbf" points="32.5,-407.5 122.5,-407.5 "/>
<text text-anchor="middle" x="77.5" y="-393.9" font-family="Helvetica,sans-Serif" font-size="12.00" fill="#000000"> </text>
<polyline fill="none" stroke="#bfbfbf" points="32.5,-386.5 122.5,-386.5 "/>
<text text-anchor="middle" x="77.5" y="-372.9" font-family="Helvetica,sans-Serif" font-size="12.00" fill="#000000"> </text>
</g>
<!-- Node3&#45;&gt;Node2 -->
<g id="edge3" class="edge">
<title>Node3&#45;&gt;Node2</title>
<path fill="none" stroke="#191970" d="M77.5,-355.2029C77.5,-346.6709 77.5,-337.6006 77.5,-328.7815"/>
<polygon fill="none" stroke="#191970" points="74.0001,-355.2899 77.5,-365.2899 81.0001,-355.29 74.0001,-355.2899"/>
</g>
</g>
</svg>
