<?xml version="1.0" encoding="UTF-8" standalone="no"?>
<!DOCTYPE svg PUBLIC "-//W3C//DTD SVG 1.1//EN"
 "http://www.w3.org/Graphics/SVG/1.1/DTD/svg11.dtd">
<!-- Generated by graphviz version 2.40.1 (20161225.0304)
 -->
<!-- Title: Core::Error::NonGSLZeroStep Pages: 1 -->
<svg width="185pt" height="420pt"
 viewBox="0.00 0.00 185.40 420.00" xmlns="http://www.w3.org/2000/svg" xmlns:xlink="http://www.w3.org/1999/xlink">
<g id="graph0" class="graph" transform="scale(1 1) rotate(0) translate(4 416)">
<title>Core::Error::NonGSLZeroStep</title>
<polygon fill="#ffffff" stroke="transparent" points="-4,4 -4,-416 181.3965,-416 181.3965,4 -4,4"/>
<!-- Node0 -->
<g id="node1" class="node">
<title>Node0</title>
<polygon fill="#bfbfbf" stroke="#000000" points="0,-.5 0,-72.5 177.3965,-72.5 177.3965,-.5 0,-.5"/>
<text text-anchor="middle" x="88.6982" y="-58.9" font-family="Helvetica,sans-Serif" font-size="12.00" fill="#000000">Core::Error::NonGSLZeroStep</text>
<polyline fill="none" stroke="#000000" points="0,-52.5 177.3965,-52.5 "/>
<text text-anchor="middle" x="88.6982" y="-38.9" font-family="Helvetica,sans-Serif" font-size="12.00" fill="#000000"> </text>
<polyline fill="none" stroke="#000000" points="0,-32.5 177.3965,-32.5 "/>
<text text-anchor="start" x="8" y="-18.9" font-family="Helvetica,sans-Serif" font-size="12.00" fill="#000000">+ NonGSLZeroStep()</text>
<text text-anchor="start" x="8" y="-6.9" font-family="Helvetica,sans-Serif" font-size="12.00" fill="#000000">+ what()</text>
</g>
<!-- Node1 -->
<g id="node2" class="node">
<title>Node1</title>
<g id="a_node2"><a xlink:href="classCore_1_1Error_1_1Runtime.html" target="_top" xlink:title="Any runtime error. ">
<polygon fill="#ffffff" stroke="#000000" points="25.3506,-109.5 25.3506,-181.5 152.0459,-181.5 152.0459,-109.5 25.3506,-109.5"/>
<text text-anchor="middle" x="88.6982" y="-167.9" font-family="Helvetica,sans-Serif" font-size="12.00" fill="#000000">Core::Error::Runtime</text>
<polyline fill="none" stroke="#000000" points="25.3506,-161.5 152.0459,-161.5 "/>
<text text-anchor="middle" x="88.6982" y="-147.9" font-family="Helvetica,sans-Serif" font-size="12.00" fill="#000000"> </text>
<polyline fill="none" stroke="#000000" points="25.3506,-141.5 152.0459,-141.5 "/>
<text text-anchor="start" x="33.3506" y="-127.9" font-family="Helvetica,sans-Serif" font-size="12.00" fill="#000000">+ Runtime()</text>
<text text-anchor="start" x="33.3506" y="-115.9" font-family="Helvetica,sans-Serif" font-size="12.00" fill="#000000">+ what()</text>
</a>
</g>
</g>
<!-- Node1&#45;&gt;Node0 -->
<g id="edge1" class="edge">
<title>Node1&#45;&gt;Node0</title>
<path fill="none" stroke="#191970" d="M88.6982,-99.0301C88.6982,-90.2017 88.6982,-81.0859 88.6982,-72.6369"/>
<polygon fill="none" stroke="#191970" points="85.1983,-99.2045 88.6982,-109.2046 92.1983,-99.2046 85.1983,-99.2045"/>
</g>
<!-- Node2 -->
<g id="node3" class="node">
<title>Node2</title>
<g id="a_node3"><a xlink:href="classCore_1_1Error_1_1General.html" target="_top" xlink:title="The base class of all exceptions. ">
<polygon fill="#ffffff" stroke="#000000" points="26.3467,-218.5 26.3467,-314.5 151.0498,-314.5 151.0498,-218.5 26.3467,-218.5"/>
<text text-anchor="middle" x="88.6982" y="-300.9" font-family="Helvetica,sans-Serif" font-size="12.00" fill="#000000">Core::Error::General</text>
<polyline fill="none" stroke="#000000" points="26.3467,-294.5 151.0498,-294.5 "/>
<text text-anchor="start" x="34.3467" y="-280.9" font-family="Helvetica,sans-Serif" font-size="12.00" fill="#000000">&#45; message</text>
<polyline fill="none" stroke="#000000" points="26.3467,-274.5 151.0498,-274.5 "/>
<text text-anchor="start" x="34.3467" y="-260.9" font-family="Helvetica,sans-Serif" font-size="12.00" fill="#000000">+ General()</text>
<text text-anchor="start" x="34.3467" y="-248.9" font-family="Helvetica,sans-Serif" font-size="12.00" fill="#000000">+ what()</text>
<text text-anchor="start" x="34.3467" y="-236.9" font-family="Helvetica,sans-Serif" font-size="12.00" fill="#000000">+ get_message()</text>
<text text-anchor="start" x="34.3467" y="-224.9" font-family="Helvetica,sans-Serif" font-size="12.00" fill="#000000">+ ~General()</text>
</a>
</g>
</g>
<!-- Node2&#45;&gt;Node1 -->
<g id="edge2" class="edge">
<title>Node2&#45;&gt;Node1</title>
<path fill="none" stroke="#191970" d="M88.6982,-208.1597C88.6982,-199.0889 88.6982,-189.9532 88.6982,-181.5697"/>
<polygon fill="none" stroke="#191970" points="85.1983,-208.3299 88.6982,-218.3299 92.1983,-208.33 85.1983,-208.3299"/>
</g>
<!-- Node3 -->
<g id="node4" class="node">
<title>Node3</title>
<polygon fill="#ffffff" stroke="#bfbfbf" points="43.6758,-351.5 43.6758,-411.5 133.7207,-411.5 133.7207,-351.5 43.6758,-351.5"/>
<text text-anchor="middle" x="88.6982" y="-397.9" font-family="Helvetica,sans-Serif" font-size="12.00" fill="#000000">std::exception</text>
<polyline fill="none" stroke="#bfbfbf" points="43.6758,-391.5 133.7207,-391.5 "/>
<text text-anchor="middle" x="88.6982" y="-377.9" font-family="Helvetica,sans-Serif" font-size="12.00" fill="#000000"> </text>
<polyline fill="none" stroke="#bfbfbf" points="43.6758,-371.5 133.7207,-371.5 "/>
<text text-anchor="middle" x="88.6982" y="-357.9" font-family="Helvetica,sans-Serif" font-size="12.00" fill="#000000"> </text>
</g>
<!-- Node3&#45;&gt;Node2 -->
<g id="edge3" class="edge">
<title>Node3&#45;&gt;Node2</title>
<path fill="none" stroke="#191970" d="M88.6982,-341.1983C88.6982,-332.655 88.6982,-323.5538 88.6982,-314.7497"/>
<polygon fill="none" stroke="#191970" points="85.1983,-341.2851 88.6982,-351.2851 92.1983,-341.2851 85.1983,-341.2851"/>
</g>
</g>
</svg>
