<?xml version="1.0" encoding="UTF-8" standalone="no"?>
<!DOCTYPE svg PUBLIC "-//W3C//DTD SVG 1.1//EN"
 "http://www.w3.org/Graphics/SVG/1.1/DTD/svg11.dtd">
<!-- Generated by graphviz version 2.40.1 (20161225.0304)
 -->
<!-- Title: Core::ZeroFunction Pages: 1 -->
<svg width="217pt" height="634pt"
 viewBox="0.00 0.00 217.00 634.00" xmlns="http://www.w3.org/2000/svg" xmlns:xlink="http://www.w3.org/1999/xlink">
<g id="graph0" class="graph" transform="scale(1 1) rotate(0) translate(4 630)">
<title>Core::ZeroFunction</title>
<polygon fill="#ffffff" stroke="transparent" points="-4,4 -4,-630 213,-630 213,4 -4,4"/>
<!-- Node0 -->
<g id="node1" class="node">
<title>Node0</title>
<polygon fill="#bfbfbf" stroke="#000000" points="44.5,-.5 44.5,-128.5 164.5,-128.5 164.5,-.5 44.5,-.5"/>
<text text-anchor="middle" x="104.5" y="-114.9" font-family="Helvetica,sans-Serif" font-size="12.00" fill="#000000">Core::ZeroFunction</text>
<polyline fill="none" stroke="#000000" points="44.5,-107.5 164.5,-107.5 "/>
<text text-anchor="middle" x="104.5" y="-93.9" font-family="Helvetica,sans-Serif" font-size="12.00" fill="#000000"> </text>
<polyline fill="none" stroke="#000000" points="44.5,-86.5 164.5,-86.5 "/>
<text text-anchor="start" x="52.5" y="-72.9" font-family="Helvetica,sans-Serif" font-size="12.00" fill="#000000">+ deriv()</text>
<text text-anchor="start" x="52.5" y="-59.9" font-family="Helvetica,sans-Serif" font-size="12.00" fill="#000000">+ operator()()</text>
<text text-anchor="start" x="52.5" y="-46.9" font-family="Helvetica,sans-Serif" font-size="12.00" fill="#000000">+ range_high()</text>
<text text-anchor="start" x="52.5" y="-33.9" font-family="Helvetica,sans-Serif" font-size="12.00" fill="#000000">+ range_low()</text>
<text text-anchor="start" x="52.5" y="-20.9" font-family="Helvetica,sans-Serif" font-size="12.00" fill="#000000">+ crossings()</text>
<text text-anchor="start" x="52.5" y="-7.9" font-family="Helvetica,sans-Serif" font-size="12.00" fill="#000000">&#45; serialize()</text>
</g>
<!-- Node1 -->
<g id="node2" class="node">
<title>Node1</title>
<g id="a_node2"><a xlink:href="classCore_1_1OneArgumentDiffFunction.html" target="_top" xlink:title="A class representing a once differentiable function of a single argument. ">
<polygon fill="#ffffff" stroke="#000000" points="10.5,-166.5 10.5,-255.5 198.5,-255.5 198.5,-166.5 10.5,-166.5"/>
<text text-anchor="middle" x="104.5" y="-241.9" font-family="Helvetica,sans-Serif" font-size="12.00" fill="#000000">Core::OneArgumentDiffFunction</text>
<polyline fill="none" stroke="#000000" points="10.5,-234.5 198.5,-234.5 "/>
<text text-anchor="middle" x="104.5" y="-220.9" font-family="Helvetica,sans-Serif" font-size="12.00" fill="#000000"> </text>
<polyline fill="none" stroke="#000000" points="10.5,-213.5 198.5,-213.5 "/>
<text text-anchor="start" x="18.5" y="-199.9" font-family="Helvetica,sans-Serif" font-size="12.00" fill="#000000">+ deriv()</text>
<text text-anchor="start" x="18.5" y="-186.9" font-family="Helvetica,sans-Serif" font-size="12.00" fill="#000000">+ ~OneArgumentDiffFunction()</text>
<text text-anchor="start" x="18.5" y="-173.9" font-family="Helvetica,sans-Serif" font-size="12.00" fill="#000000">&#45; serialize()</text>
</a>
</g>
</g>
<!-- Node1&#45;&gt;Node0 -->
<g id="edge1" class="edge">
<title>Node1&#45;&gt;Node0</title>
<path fill="none" stroke="#191970" d="M104.5,-155.9924C104.5,-147.075 104.5,-137.7725 104.5,-128.6605"/>
<polygon fill="none" stroke="#191970" points="101.0001,-156.2491 104.5,-166.2491 108.0001,-156.2492 101.0001,-156.2491"/>
</g>
<!-- Node2 -->
<g id="node3" class="node">
<title>Node2</title>
<g id="a_node3"><a xlink:href="classCore_1_1OneArgumentFunction.html" target="_top" xlink:title="{Core::OneArgumentFunction\l\&lt; double, double \&gt;\n||+ operator()()\l+ range_high()\l+ range_low()\l+ crossings()\l+ ~OneArgumentFunction()\l&#45; serialize()\l}">
<polygon fill="#ffffff" stroke="#000000" points="19.5,-293.5 19.5,-434.5 189.5,-434.5 189.5,-293.5 19.5,-293.5"/>
<text text-anchor="start" x="27.5" y="-420.9" font-family="Helvetica,sans-Serif" font-size="12.00" fill="#000000">Core::OneArgumentFunction</text>
<text text-anchor="middle" x="104.5" y="-407.9" font-family="Helvetica,sans-Serif" font-size="12.00" fill="#000000">&lt; double, double &gt;</text>
<polyline fill="none" stroke="#000000" points="19.5,-400.5 189.5,-400.5 "/>
<text text-anchor="middle" x="104.5" y="-386.9" font-family="Helvetica,sans-Serif" font-size="12.00" fill="#000000"> </text>
<polyline fill="none" stroke="#000000" points="19.5,-379.5 189.5,-379.5 "/>
<text text-anchor="start" x="27.5" y="-365.9" font-family="Helvetica,sans-Serif" font-size="12.00" fill="#000000">+ operator()()</text>
<text text-anchor="start" x="27.5" y="-352.9" font-family="Helvetica,sans-Serif" font-size="12.00" fill="#000000">+ range_high()</text>
<text text-anchor="start" x="27.5" y="-339.9" font-family="Helvetica,sans-Serif" font-size="12.00" fill="#000000">+ range_low()</text>
<text text-anchor="start" x="27.5" y="-326.9" font-family="Helvetica,sans-Serif" font-size="12.00" fill="#000000">+ crossings()</text>
<text text-anchor="start" x="27.5" y="-313.9" font-family="Helvetica,sans-Serif" font-size="12.00" fill="#000000">+ ~OneArgumentFunction()</text>
<text text-anchor="start" x="27.5" y="-300.9" font-family="Helvetica,sans-Serif" font-size="12.00" fill="#000000">&#45; serialize()</text>
</a>
</g>
</g>
<!-- Node2&#45;&gt;Node1 -->
<g id="edge2" class="edge">
<title>Node2&#45;&gt;Node1</title>
<path fill="none" stroke="#191970" d="M104.5,-283.0703C104.5,-273.63 104.5,-264.2799 104.5,-255.5977"/>
<polygon fill="none" stroke="#191970" points="101.0001,-283.3221 104.5,-293.3221 108.0001,-283.3222 101.0001,-283.3221"/>
</g>
<!-- Node3 -->
<g id="node4" class="node">
<title>Node3</title>
<g id="a_node4"><a xlink:href="classCore_1_1OneArgumentFunction.html" target="_top" xlink:title="The base class for functions which take a single argument and return a single value. ">
<polygon fill="#ffffff" stroke="#000000" points="0,-484.5 0,-625.5 209,-625.5 209,-484.5 0,-484.5"/>
<text text-anchor="start" x="8" y="-611.9" font-family="Helvetica,sans-Serif" font-size="12.00" fill="#000000">Core::OneArgumentFunction</text>
<text text-anchor="middle" x="104.5" y="-598.9" font-family="Helvetica,sans-Serif" font-size="12.00" fill="#000000">&lt; InputDataType, OutputDataType &gt;</text>
<polyline fill="none" stroke="#000000" points="0,-591.5 209,-591.5 "/>
<text text-anchor="middle" x="104.5" y="-577.9" font-family="Helvetica,sans-Serif" font-size="12.00" fill="#000000"> </text>
<polyline fill="none" stroke="#000000" points="0,-570.5 209,-570.5 "/>
<text text-anchor="start" x="8" y="-556.9" font-family="Helvetica,sans-Serif" font-size="12.00" fill="#000000">+ operator()()</text>
<text text-anchor="start" x="8" y="-543.9" font-family="Helvetica,sans-Serif" font-size="12.00" fill="#000000">+ range_high()</text>
<text text-anchor="start" x="8" y="-530.9" font-family="Helvetica,sans-Serif" font-size="12.00" fill="#000000">+ range_low()</text>
<text text-anchor="start" x="8" y="-517.9" font-family="Helvetica,sans-Serif" font-size="12.00" fill="#000000">+ crossings()</text>
<text text-anchor="start" x="8" y="-504.9" font-family="Helvetica,sans-Serif" font-size="12.00" fill="#000000">+ ~OneArgumentFunction()</text>
<text text-anchor="start" x="8" y="-491.9" font-family="Helvetica,sans-Serif" font-size="12.00" fill="#000000">&#45; serialize()</text>
</a>
</g>
</g>
<!-- Node3&#45;&gt;Node2 -->
<g id="edge3" class="edge">
<title>Node3&#45;&gt;Node2</title>
<path fill="none" stroke="#ffa500" d="M104.5,-474.4027C104.5,-461.179 104.5,-447.5645 104.5,-434.6073"/>
<polygon fill="#ffa500" stroke="#ffa500" points="101.0001,-474.4213 104.5,-484.4213 108.0001,-474.4213 101.0001,-474.4213"/>
<text text-anchor="middle" x="156" y="-456.4" font-family="Helvetica,sans-Serif" font-size="12.00" fill="#000000"> &lt; double, double &gt;</text>
</g>
</g>
</svg>
