<?xml version="1.0" encoding="UTF-8" standalone="no"?>
<!DOCTYPE svg PUBLIC "-//W3C//DTD SVG 1.1//EN"
 "http://www.w3.org/Graphics/SVG/1.1/DTD/svg11.dtd">
<!-- Generated by graphviz version 2.40.1 (20161225.0304)
 -->
<!-- Title: ExponentialPlusFunc Pages: 1 -->
<svg width="380pt" height="686pt"
 viewBox="0.00 0.00 380.00 686.00" xmlns="http://www.w3.org/2000/svg" xmlns:xlink="http://www.w3.org/1999/xlink">
<g id="graph0" class="graph" transform="scale(1 1) rotate(0) translate(4 682)">
<title>ExponentialPlusFunc</title>
<polygon fill="#ffffff" stroke="transparent" points="-4,4 -4,-682 376,-682 376,4 -4,4"/>
<!-- Node0 -->
<g id="node1" class="node">
<title>Node0</title>
<polygon fill="#bfbfbf" stroke="#000000" points="125,-.5 125,-180.5 274,-180.5 274,-.5 125,-.5"/>
<text text-anchor="middle" x="199.5" y="-166.9" font-family="Helvetica,sans-Serif" font-size="12.00" fill="#000000">ExponentialPlusFunc</text>
<polyline fill="none" stroke="#000000" points="125,-159.5 274,-159.5 "/>
<text text-anchor="start" x="133" y="-145.9" font-family="Helvetica,sans-Serif" font-size="12.00" fill="#000000">&#45; __scale</text>
<text text-anchor="start" x="133" y="-132.9" font-family="Helvetica,sans-Serif" font-size="12.00" fill="#000000">&#45; __rate</text>
<text text-anchor="start" x="133" y="-119.9" font-family="Helvetica,sans-Serif" font-size="12.00" fill="#000000">&#45; __deriv_x</text>
<text text-anchor="start" x="133" y="-106.9" font-family="Helvetica,sans-Serif" font-size="12.00" fill="#000000">&#45; __offset</text>
<polyline fill="none" stroke="#000000" points="125,-99.5 274,-99.5 "/>
<text text-anchor="start" x="133" y="-85.9" font-family="Helvetica,sans-Serif" font-size="12.00" fill="#000000">+ ExponentialPlusFunc()</text>
<text text-anchor="start" x="133" y="-72.9" font-family="Helvetica,sans-Serif" font-size="12.00" fill="#000000">+ operator()()</text>
<text text-anchor="start" x="133" y="-59.9" font-family="Helvetica,sans-Serif" font-size="12.00" fill="#000000">+ deriv()</text>
<text text-anchor="start" x="133" y="-46.9" font-family="Helvetica,sans-Serif" font-size="12.00" fill="#000000">+ order()</text>
<text text-anchor="start" x="133" y="-33.9" font-family="Helvetica,sans-Serif" font-size="12.00" fill="#000000">+ range_high()</text>
<text text-anchor="start" x="133" y="-20.9" font-family="Helvetica,sans-Serif" font-size="12.00" fill="#000000">+ range_low()</text>
<text text-anchor="start" x="133" y="-7.9" font-family="Helvetica,sans-Serif" font-size="12.00" fill="#000000">+ crossings()</text>
</g>
<!-- Node1 -->
<g id="node2" class="node">
<title>Node1</title>
<g id="a_node2"><a xlink:href="classCore_1_1OneArgumentDiffFunction.html" target="_top" xlink:title="A class representing a once differentiable function of a single argument. ">
<polygon fill="#ffffff" stroke="#000000" points="10.5,-218.5 10.5,-307.5 198.5,-307.5 198.5,-218.5 10.5,-218.5"/>
<text text-anchor="middle" x="104.5" y="-293.9" font-family="Helvetica,sans-Serif" font-size="12.00" fill="#000000">Core::OneArgumentDiffFunction</text>
<polyline fill="none" stroke="#000000" points="10.5,-286.5 198.5,-286.5 "/>
<text text-anchor="middle" x="104.5" y="-272.9" font-family="Helvetica,sans-Serif" font-size="12.00" fill="#000000"> </text>
<polyline fill="none" stroke="#000000" points="10.5,-265.5 198.5,-265.5 "/>
<text text-anchor="start" x="18.5" y="-251.9" font-family="Helvetica,sans-Serif" font-size="12.00" fill="#000000">+ deriv()</text>
<text text-anchor="start" x="18.5" y="-238.9" font-family="Helvetica,sans-Serif" font-size="12.00" fill="#000000">+ ~OneArgumentDiffFunction()</text>
<text text-anchor="start" x="18.5" y="-225.9" font-family="Helvetica,sans-Serif" font-size="12.00" fill="#000000">&#45; serialize()</text>
</a>
</g>
</g>
<!-- Node1&#45;&gt;Node0 -->
<g id="edge1" class="edge">
<title>Node1&#45;&gt;Node0</title>
<path fill="none" stroke="#191970" d="M134.1196,-209.2171C139.1413,-200.0987 144.4752,-190.4135 149.8458,-180.6615"/>
<polygon fill="none" stroke="#191970" points="130.9704,-207.68 129.2121,-218.128 137.1021,-211.0569 130.9704,-207.68"/>
</g>
<!-- Node2 -->
<g id="node3" class="node">
<title>Node2</title>
<g id="a_node3"><a xlink:href="classCore_1_1OneArgumentFunction.html" target="_top" xlink:title="{Core::OneArgumentFunction\l\&lt; double, double \&gt;\n||+ operator()()\l+ range_high()\l+ range_low()\l+ crossings()\l+ ~OneArgumentFunction()\l&#45; serialize()\l}">
<polygon fill="#ffffff" stroke="#000000" points="19.5,-345.5 19.5,-486.5 189.5,-486.5 189.5,-345.5 19.5,-345.5"/>
<text text-anchor="start" x="27.5" y="-472.9" font-family="Helvetica,sans-Serif" font-size="12.00" fill="#000000">Core::OneArgumentFunction</text>
<text text-anchor="middle" x="104.5" y="-459.9" font-family="Helvetica,sans-Serif" font-size="12.00" fill="#000000">&lt; double, double &gt;</text>
<polyline fill="none" stroke="#000000" points="19.5,-452.5 189.5,-452.5 "/>
<text text-anchor="middle" x="104.5" y="-438.9" font-family="Helvetica,sans-Serif" font-size="12.00" fill="#000000"> </text>
<polyline fill="none" stroke="#000000" points="19.5,-431.5 189.5,-431.5 "/>
<text text-anchor="start" x="27.5" y="-417.9" font-family="Helvetica,sans-Serif" font-size="12.00" fill="#000000">+ operator()()</text>
<text text-anchor="start" x="27.5" y="-404.9" font-family="Helvetica,sans-Serif" font-size="12.00" fill="#000000">+ range_high()</text>
<text text-anchor="start" x="27.5" y="-391.9" font-family="Helvetica,sans-Serif" font-size="12.00" fill="#000000">+ range_low()</text>
<text text-anchor="start" x="27.5" y="-378.9" font-family="Helvetica,sans-Serif" font-size="12.00" fill="#000000">+ crossings()</text>
<text text-anchor="start" x="27.5" y="-365.9" font-family="Helvetica,sans-Serif" font-size="12.00" fill="#000000">+ ~OneArgumentFunction()</text>
<text text-anchor="start" x="27.5" y="-352.9" font-family="Helvetica,sans-Serif" font-size="12.00" fill="#000000">&#45; serialize()</text>
</a>
</g>
</g>
<!-- Node2&#45;&gt;Node1 -->
<g id="edge2" class="edge">
<title>Node2&#45;&gt;Node1</title>
<path fill="none" stroke="#191970" d="M104.5,-335.0703C104.5,-325.63 104.5,-316.2799 104.5,-307.5977"/>
<polygon fill="none" stroke="#191970" points="101.0001,-335.3221 104.5,-345.3221 108.0001,-335.3222 101.0001,-335.3221"/>
</g>
<!-- Node3 -->
<g id="node4" class="node">
<title>Node3</title>
<g id="a_node4"><a xlink:href="classCore_1_1OneArgumentFunction.html" target="_top" xlink:title="The base class for functions which take a single argument and return a single value. ">
<polygon fill="#ffffff" stroke="#000000" points="0,-536.5 0,-677.5 209,-677.5 209,-536.5 0,-536.5"/>
<text text-anchor="start" x="8" y="-663.9" font-family="Helvetica,sans-Serif" font-size="12.00" fill="#000000">Core::OneArgumentFunction</text>
<text text-anchor="middle" x="104.5" y="-650.9" font-family="Helvetica,sans-Serif" font-size="12.00" fill="#000000">&lt; InputDataType, OutputDataType &gt;</text>
<polyline fill="none" stroke="#000000" points="0,-643.5 209,-643.5 "/>
<text text-anchor="middle" x="104.5" y="-629.9" font-family="Helvetica,sans-Serif" font-size="12.00" fill="#000000"> </text>
<polyline fill="none" stroke="#000000" points="0,-622.5 209,-622.5 "/>
<text text-anchor="start" x="8" y="-608.9" font-family="Helvetica,sans-Serif" font-size="12.00" fill="#000000">+ operator()()</text>
<text text-anchor="start" x="8" y="-595.9" font-family="Helvetica,sans-Serif" font-size="12.00" fill="#000000">+ range_high()</text>
<text text-anchor="start" x="8" y="-582.9" font-family="Helvetica,sans-Serif" font-size="12.00" fill="#000000">+ range_low()</text>
<text text-anchor="start" x="8" y="-569.9" font-family="Helvetica,sans-Serif" font-size="12.00" fill="#000000">+ crossings()</text>
<text text-anchor="start" x="8" y="-556.9" font-family="Helvetica,sans-Serif" font-size="12.00" fill="#000000">+ ~OneArgumentFunction()</text>
<text text-anchor="start" x="8" y="-543.9" font-family="Helvetica,sans-Serif" font-size="12.00" fill="#000000">&#45; serialize()</text>
</a>
</g>
</g>
<!-- Node3&#45;&gt;Node2 -->
<g id="edge3" class="edge">
<title>Node3&#45;&gt;Node2</title>
<path fill="none" stroke="#ffa500" d="M104.5,-526.4027C104.5,-513.179 104.5,-499.5645 104.5,-486.6073"/>
<polygon fill="#ffa500" stroke="#ffa500" points="101.0001,-526.4213 104.5,-536.4213 108.0001,-526.4213 101.0001,-526.4213"/>
<text text-anchor="middle" x="156" y="-508.4" font-family="Helvetica,sans-Serif" font-size="12.00" fill="#000000"> &lt; double, double &gt;</text>
</g>
<!-- Node4 -->
<g id="node5" class="node">
<title>Node4</title>
<g id="a_node5"><a xlink:href="classCore_1_1FunctionDerivatives.html" target="_top" xlink:title="A class representing arbitrary order derivatives of a function. ">
<polygon fill="#ffffff" stroke="#000000" points="217,-225 217,-301 372,-301 372,-225 217,-225"/>
<text text-anchor="middle" x="294.5" y="-287.4" font-family="Helvetica,sans-Serif" font-size="12.00" fill="#000000">Core::FunctionDerivatives</text>
<polyline fill="none" stroke="#000000" points="217,-280 372,-280 "/>
<text text-anchor="middle" x="294.5" y="-266.4" font-family="Helvetica,sans-Serif" font-size="12.00" fill="#000000"> </text>
<polyline fill="none" stroke="#000000" points="217,-259 372,-259 "/>
<text text-anchor="start" x="225" y="-245.4" font-family="Helvetica,sans-Serif" font-size="12.00" fill="#000000">+ order()</text>
<text text-anchor="start" x="225" y="-232.4" font-family="Helvetica,sans-Serif" font-size="12.00" fill="#000000">+ ~FunctionDerivatives()</text>
</a>
</g>
</g>
<!-- Node4&#45;&gt;Node0 -->
<g id="edge4" class="edge">
<title>Node4&#45;&gt;Node0</title>
<path fill="none" stroke="#8b1a1a" d="M268.4832,-215.759C262.4314,-204.7702 255.7902,-192.7111 249.0933,-180.551"/>
<polygon fill="none" stroke="#8b1a1a" points="265.5265,-217.6456 273.4164,-224.7167 271.6581,-214.2687 265.5265,-217.6456"/>
</g>
</g>
</svg>
