<?xml version="1.0" encoding="UTF-8" standalone="no"?>
<!DOCTYPE svg PUBLIC "-//W3C//DTD SVG 1.1//EN"
 "http://www.w3.org/Graphics/SVG/1.1/DTD/svg11.dtd">
<!-- Generated by graphviz version 2.40.1 (20161225.0304)
 -->
<!-- Title: Core::Error::CommandLine Pages: 1 -->
<svg width="168pt" height="437pt"
 viewBox="0.00 0.00 168.00 437.00" xmlns="http://www.w3.org/2000/svg" xmlns:xlink="http://www.w3.org/1999/xlink">
<g id="graph0" class="graph" transform="scale(1 1) rotate(0) translate(4 433)">
<title>Core::Error::CommandLine</title>
<polygon fill="#ffffff" stroke="transparent" points="-4,4 -4,-433 164,-433 164,4 -4,4"/>
<!-- Node4 -->
<g id="node1" class="node">
<title>Node4</title>
<polygon fill="#bfbfbf" stroke="#000000" points="0,-.5 0,-76.5 160,-76.5 160,-.5 0,-.5"/>
<text text-anchor="middle" x="80" y="-62.9" font-family="Helvetica,sans-Serif" font-size="12.00" fill="#000000">Core::Error::CommandLine</text>
<polyline fill="none" stroke="#000000" points="0,-55.5 160,-55.5 "/>
<text text-anchor="middle" x="80" y="-41.9" font-family="Helvetica,sans-Serif" font-size="12.00" fill="#000000"> </text>
<polyline fill="none" stroke="#000000" points="0,-34.5 160,-34.5 "/>
<text text-anchor="start" x="8" y="-20.9" font-family="Helvetica,sans-Serif" font-size="12.00" fill="#000000">+ CommandLine()</text>
<text text-anchor="start" x="8" y="-7.9" font-family="Helvetica,sans-Serif" font-size="12.00" fill="#000000">+ what()</text>
</g>
<!-- Node5 -->
<g id="node2" class="node">
<title>Node5</title>
<g id="a_node2"><a xlink:href="classCore_1_1Error_1_1Runtime.html" target="_top" xlink:title="Any runtime error. ">
<polygon fill="#ffffff" stroke="#000000" points="17,-113.5 17,-189.5 143,-189.5 143,-113.5 17,-113.5"/>
<text text-anchor="middle" x="80" y="-175.9" font-family="Helvetica,sans-Serif" font-size="12.00" fill="#000000">Core::Error::Runtime</text>
<polyline fill="none" stroke="#000000" points="17,-168.5 143,-168.5 "/>
<text text-anchor="middle" x="80" y="-154.9" font-family="Helvetica,sans-Serif" font-size="12.00" fill="#000000"> </text>
<polyline fill="none" stroke="#000000" points="17,-147.5 143,-147.5 "/>
<text text-anchor="start" x="25" y="-133.9" font-family="Helvetica,sans-Serif" font-size="12.00" fill="#000000">+ Runtime()</text>
<text text-anchor="start" x="25" y="-120.9" font-family="Helvetica,sans-Serif" font-size="12.00" fill="#000000">+ what()</text>
</a>
</g>
</g>
<!-- Node5&#45;&gt;Node4 -->
<g id="edge1" class="edge">
<title>Node5&#45;&gt;Node4</title>
<path fill="none" stroke="#191970" d="M80,-103.0745C80,-94.2625 80,-85.183 80,-76.7172"/>
<polygon fill="none" stroke="#191970" points="76.5001,-103.2433 80,-113.2434 83.5001,-103.2434 76.5001,-103.2433"/>
</g>
<!-- Node6 -->
<g id="node3" class="node">
<title>Node6</title>
<g id="a_node3"><a xlink:href="classCore_1_1Error_1_1General.html" target="_top" xlink:title="The base class of all exceptions. ">
<polygon fill="#ffffff" stroke="#000000" points="18,-226.5 18,-328.5 142,-328.5 142,-226.5 18,-226.5"/>
<text text-anchor="middle" x="80" y="-314.9" font-family="Helvetica,sans-Serif" font-size="12.00" fill="#000000">Core::Error::General</text>
<polyline fill="none" stroke="#000000" points="18,-307.5 142,-307.5 "/>
<text text-anchor="start" x="26" y="-293.9" font-family="Helvetica,sans-Serif" font-size="12.00" fill="#000000">&#45; message</text>
<polyline fill="none" stroke="#000000" points="18,-286.5 142,-286.5 "/>
<text text-anchor="start" x="26" y="-272.9" font-family="Helvetica,sans-Serif" font-size="12.00" fill="#000000">+ General()</text>
<text text-anchor="start" x="26" y="-259.9" font-family="Helvetica,sans-Serif" font-size="12.00" fill="#000000">+ what()</text>
<text text-anchor="start" x="26" y="-246.9" font-family="Helvetica,sans-Serif" font-size="12.00" fill="#000000">+ get_message()</text>
<text text-anchor="start" x="26" y="-233.9" font-family="Helvetica,sans-Serif" font-size="12.00" fill="#000000">+ ~General()</text>
</a>
</g>
</g>
<!-- Node6&#45;&gt;Node5 -->
<g id="edge2" class="edge">
<title>Node6&#45;&gt;Node5</title>
<path fill="none" stroke="#191970" d="M80,-216.0925C80,-207.0432 80,-197.95 80,-189.5605"/>
<polygon fill="none" stroke="#191970" points="76.5001,-216.2509 80,-226.251 83.5001,-216.251 76.5001,-216.2509"/>
</g>
<!-- Node7 -->
<g id="node4" class="node">
<title>Node7</title>
<polygon fill="#ffffff" stroke="#bfbfbf" points="35,-365.5 35,-428.5 125,-428.5 125,-365.5 35,-365.5"/>
<text text-anchor="middle" x="80" y="-414.9" font-family="Helvetica,sans-Serif" font-size="12.00" fill="#000000">std::exception</text>
<polyline fill="none" stroke="#bfbfbf" points="35,-407.5 125,-407.5 "/>
<text text-anchor="middle" x="80" y="-393.9" font-family="Helvetica,sans-Serif" font-size="12.00" fill="#000000"> </text>
<polyline fill="none" stroke="#bfbfbf" points="35,-386.5 125,-386.5 "/>
<text text-anchor="middle" x="80" y="-372.9" font-family="Helvetica,sans-Serif" font-size="12.00" fill="#000000"> </text>
</g>
<!-- Node7&#45;&gt;Node6 -->
<g id="edge3" class="edge">
<title>Node7&#45;&gt;Node6</title>
<path fill="none" stroke="#191970" d="M80,-355.2029C80,-346.6709 80,-337.6006 80,-328.7815"/>
<polygon fill="none" stroke="#191970" points="76.5001,-355.2899 80,-365.2899 83.5001,-355.29 76.5001,-355.2899"/>
</g>
</g>
</svg>
