<?xml version="1.0" encoding="UTF-8" standalone="no"?>
<!DOCTYPE svg PUBLIC "-//W3C//DTD SVG 1.1//EN"
 "http://www.w3.org/Graphics/SVG/1.1/DTD/svg11.dtd">
<!-- Generated by graphviz version 2.40.1 (20161225.0304)
 -->
<!-- Title: StellarEvolution::LogDerivatives Pages: 1 -->
<svg width="193pt" height="286pt"
 viewBox="0.00 0.00 193.42 286.00" xmlns="http://www.w3.org/2000/svg" xmlns:xlink="http://www.w3.org/1999/xlink">
<g id="graph0" class="graph" transform="scale(1 1) rotate(0) translate(4 282)">
<title>StellarEvolution::LogDerivatives</title>
<polygon fill="#ffffff" stroke="transparent" points="-4,4 -4,-282 189.418,-282 189.418,4 -4,4"/>
<!-- Node4 -->
<g id="node1" class="node">
<title>Node4</title>
<polygon fill="#bfbfbf" stroke="#000000" points="0,-.5 0,-168.5 185.418,-168.5 185.418,-.5 0,-.5"/>
<text text-anchor="middle" x="92.709" y="-154.9" font-family="Helvetica,sans-Serif" font-size="12.00" fill="#000000">StellarEvolution::LogDerivatives</text>
<polyline fill="none" stroke="#000000" points="0,-148.5 185.418,-148.5 "/>
<text text-anchor="start" x="8" y="-134.9" font-family="Helvetica,sans-Serif" font-size="12.00" fill="#000000">&#45; __x</text>
<text text-anchor="start" x="8" y="-122.9" font-family="Helvetica,sans-Serif" font-size="12.00" fill="#000000">&#45; __log_x</text>
<text text-anchor="start" x="8" y="-110.9" font-family="Helvetica,sans-Serif" font-size="12.00" fill="#000000">&#45; __log_y</text>
<text text-anchor="start" x="8" y="-98.9" font-family="Helvetica,sans-Serif" font-size="12.00" fill="#000000">&#45; __underlying_deriv</text>
<text text-anchor="start" x="8" y="-86.9" font-family="Helvetica,sans-Serif" font-size="12.00" fill="#000000">_values</text>
<text text-anchor="start" x="8" y="-74.9" font-family="Helvetica,sans-Serif" font-size="12.00" fill="#000000">&#45; __deriv_values</text>
<polyline fill="none" stroke="#000000" points="0,-68.5 185.418,-68.5 "/>
<text text-anchor="start" x="8" y="-54.9" font-family="Helvetica,sans-Serif" font-size="12.00" fill="#000000">+ LogDerivatives()</text>
<text text-anchor="start" x="8" y="-42.9" font-family="Helvetica,sans-Serif" font-size="12.00" fill="#000000">+ order()</text>
<text text-anchor="start" x="8" y="-30.9" font-family="Helvetica,sans-Serif" font-size="12.00" fill="#000000"># calc_deriv()</text>
<text text-anchor="start" x="8" y="-18.9" font-family="Helvetica,sans-Serif" font-size="12.00" fill="#000000">&#45; transform_log_x_deriv()</text>
<text text-anchor="start" x="8" y="-6.9" font-family="Helvetica,sans-Serif" font-size="12.00" fill="#000000">&#45; transform_log_y_deriv()</text>
</g>
<!-- Node5 -->
<g id="node2" class="node">
<title>Node5</title>
<g id="a_node2"><a xlink:href="classCore_1_1FunctionDerivatives.html" target="_top" xlink:title="A class representing arbitrary order derivatives of a function. ">
<polygon fill="#ffffff" stroke="#000000" points="15.6826,-205.5 15.6826,-277.5 169.7354,-277.5 169.7354,-205.5 15.6826,-205.5"/>
<text text-anchor="middle" x="92.709" y="-263.9" font-family="Helvetica,sans-Serif" font-size="12.00" fill="#000000">Core::FunctionDerivatives</text>
<polyline fill="none" stroke="#000000" points="15.6826,-257.5 169.7354,-257.5 "/>
<text text-anchor="middle" x="92.709" y="-243.9" font-family="Helvetica,sans-Serif" font-size="12.00" fill="#000000"> </text>
<polyline fill="none" stroke="#000000" points="15.6826,-237.5 169.7354,-237.5 "/>
<text text-anchor="start" x="23.6826" y="-223.9" font-family="Helvetica,sans-Serif" font-size="12.00" fill="#000000">+ order()</text>
<text text-anchor="start" x="23.6826" y="-211.9" font-family="Helvetica,sans-Serif" font-size="12.00" fill="#000000">+ ~FunctionDerivatives()</text>
</a>
</g>
</g>
<!-- Node5&#45;&gt;Node4 -->
<g id="edge1" class="edge">
<title>Node5&#45;&gt;Node4</title>
<path fill="none" stroke="#191970" d="M92.709,-195.45C92.709,-186.9475 92.709,-177.8286 92.709,-168.606"/>
<polygon fill="none" stroke="#191970" points="89.2091,-195.481 92.709,-205.481 96.2091,-195.4811 89.2091,-195.481"/>
</g>
</g>
</svg>
