<?xml version="1.0" encoding="UTF-8" standalone="no"?>
<!DOCTYPE svg PUBLIC "-//W3C//DTD SVG 1.1//EN"
 "http://www.w3.org/Graphics/SVG/1.1/DTD/svg11.dtd">
<!-- Generated by graphviz version 2.40.1 (20161225.0304)
 -->
<!-- Title: Core::InterpolatingFunctionALGLIB Pages: 1 -->
<svg width="381pt" height="673pt"
 viewBox="0.00 0.00 381.11 673.00" xmlns="http://www.w3.org/2000/svg" xmlns:xlink="http://www.w3.org/1999/xlink">
<g id="graph0" class="graph" transform="scale(1 1) rotate(0) translate(4 669)">
<title>Core::InterpolatingFunctionALGLIB</title>
<polygon fill="#ffffff" stroke="transparent" points="-4,4 -4,-669 377.1094,-669 377.1094,4 -4,4"/>
<!-- Node4 -->
<g id="node1" class="node">
<title>Node4</title>
<polygon fill="#bfbfbf" stroke="#000000" points="104.1865,-.5 104.1865,-180.5 292.6162,-180.5 292.6162,-.5 104.1865,-.5"/>
<text text-anchor="start" x="112.1865" y="-166.9" font-family="Helvetica,sans-Serif" font-size="12.00" fill="#000000">Core::InterpolatingFunction</text>
<text text-anchor="middle" x="198.4014" y="-154.9" font-family="Helvetica,sans-Serif" font-size="12.00" fill="#000000">ALGLIB</text>
<polyline fill="none" stroke="#000000" points="104.1865,-148.5 292.6162,-148.5 "/>
<text text-anchor="start" x="112.1865" y="-134.9" font-family="Helvetica,sans-Serif" font-size="12.00" fill="#000000">&#45; __min_x</text>
<text text-anchor="start" x="112.1865" y="-122.9" font-family="Helvetica,sans-Serif" font-size="12.00" fill="#000000">&#45; __max_x</text>
<polyline fill="none" stroke="#000000" points="104.1865,-116.5 292.6162,-116.5 "/>
<text text-anchor="start" x="112.1865" y="-102.9" font-family="Helvetica,sans-Serif" font-size="12.00" fill="#000000">+ InterpolatingFunctionALGLIB()</text>
<text text-anchor="start" x="112.1865" y="-90.9" font-family="Helvetica,sans-Serif" font-size="12.00" fill="#000000">+ InterpolatingFunctionALGLIB()</text>
<text text-anchor="start" x="112.1865" y="-78.9" font-family="Helvetica,sans-Serif" font-size="12.00" fill="#000000">+ InterpolatingFunctionALGLIB()</text>
<text text-anchor="start" x="112.1865" y="-66.9" font-family="Helvetica,sans-Serif" font-size="12.00" fill="#000000">+ operator()()</text>
<text text-anchor="start" x="112.1865" y="-54.9" font-family="Helvetica,sans-Serif" font-size="12.00" fill="#000000">+ deriv()</text>
<text text-anchor="start" x="112.1865" y="-42.9" font-family="Helvetica,sans-Serif" font-size="12.00" fill="#000000">+ range_high()</text>
<text text-anchor="start" x="112.1865" y="-30.9" font-family="Helvetica,sans-Serif" font-size="12.00" fill="#000000">+ range_low()</text>
<text text-anchor="start" x="112.1865" y="-18.9" font-family="Helvetica,sans-Serif" font-size="12.00" fill="#000000">+ crossings()</text>
<text text-anchor="start" x="112.1865" y="-6.9" font-family="Helvetica,sans-Serif" font-size="12.00" fill="#000000">&#45; serialize()</text>
</g>
<!-- Node5 -->
<g id="node2" class="node">
<title>Node5</title>
<g id="a_node2"><a xlink:href="classCore_1_1OneArgumentDiffFunction.html" target="_top" xlink:title="A class representing a once differentiable function of a single argument. ">
<polygon fill="#ffffff" stroke="#000000" points="10.8018,-229.5 10.8018,-313.5 198.001,-313.5 198.001,-229.5 10.8018,-229.5"/>
<text text-anchor="middle" x="104.4014" y="-299.9" font-family="Helvetica,sans-Serif" font-size="12.00" fill="#000000">Core::OneArgumentDiffFunction</text>
<polyline fill="none" stroke="#000000" points="10.8018,-293.5 198.001,-293.5 "/>
<text text-anchor="middle" x="104.4014" y="-279.9" font-family="Helvetica,sans-Serif" font-size="12.00" fill="#000000"> </text>
<polyline fill="none" stroke="#000000" points="10.8018,-273.5 198.001,-273.5 "/>
<text text-anchor="start" x="18.8018" y="-259.9" font-family="Helvetica,sans-Serif" font-size="12.00" fill="#000000">+ deriv()</text>
<text text-anchor="start" x="18.8018" y="-247.9" font-family="Helvetica,sans-Serif" font-size="12.00" fill="#000000">+ ~OneArgumentDiffFunction()</text>
<text text-anchor="start" x="18.8018" y="-235.9" font-family="Helvetica,sans-Serif" font-size="12.00" fill="#000000">&#45; serialize()</text>
</a>
</g>
</g>
<!-- Node5&#45;&gt;Node4 -->
<g id="edge1" class="edge">
<title>Node5&#45;&gt;Node4</title>
<path fill="none" stroke="#191970" d="M131.176,-219.9446C137.538,-207.6944 144.5109,-194.2678 151.4815,-180.8457"/>
<polygon fill="none" stroke="#191970" points="127.943,-218.5758 126.4402,-229.0635 134.1552,-221.8021 127.943,-218.5758"/>
</g>
<!-- Node6 -->
<g id="node3" class="node">
<title>Node6</title>
<g id="a_node3"><a xlink:href="classCore_1_1OneArgumentFunction.html" target="_top" xlink:title="{Core::OneArgumentFunction\l\&lt; double, double \&gt;\n||+ operator()()\l+ range_high()\l+ range_low()\l+ crossings()\l+ ~OneArgumentFunction()\l&#45; serialize()\l}">
<polygon fill="#ffffff" stroke="#000000" points="19.6963,-351.5 19.6963,-483.5 189.1064,-483.5 189.1064,-351.5 19.6963,-351.5"/>
<text text-anchor="start" x="27.6963" y="-469.9" font-family="Helvetica,sans-Serif" font-size="12.00" fill="#000000">Core::OneArgumentFunction</text>
<text text-anchor="middle" x="104.4014" y="-457.9" font-family="Helvetica,sans-Serif" font-size="12.00" fill="#000000">&lt; double, double &gt;</text>
<polyline fill="none" stroke="#000000" points="19.6963,-451.5 189.1064,-451.5 "/>
<text text-anchor="middle" x="104.4014" y="-437.9" font-family="Helvetica,sans-Serif" font-size="12.00" fill="#000000"> </text>
<polyline fill="none" stroke="#000000" points="19.6963,-431.5 189.1064,-431.5 "/>
<text text-anchor="start" x="27.6963" y="-417.9" font-family="Helvetica,sans-Serif" font-size="12.00" fill="#000000">+ operator()()</text>
<text text-anchor="start" x="27.6963" y="-405.9" font-family="Helvetica,sans-Serif" font-size="12.00" fill="#000000">+ range_high()</text>
<text text-anchor="start" x="27.6963" y="-393.9" font-family="Helvetica,sans-Serif" font-size="12.00" fill="#000000">+ range_low()</text>
<text text-anchor="start" x="27.6963" y="-381.9" font-family="Helvetica,sans-Serif" font-size="12.00" fill="#000000">+ crossings()</text>
<text text-anchor="start" x="27.6963" y="-369.9" font-family="Helvetica,sans-Serif" font-size="12.00" fill="#000000">+ ~OneArgumentFunction()</text>
<text text-anchor="start" x="27.6963" y="-357.9" font-family="Helvetica,sans-Serif" font-size="12.00" fill="#000000">&#45; serialize()</text>
</a>
</g>
</g>
<!-- Node6&#45;&gt;Node5 -->
<g id="edge2" class="edge">
<title>Node6&#45;&gt;Node5</title>
<path fill="none" stroke="#191970" d="M104.4014,-341.0838C104.4014,-331.6368 104.4014,-322.2662 104.4014,-313.6068"/>
<polygon fill="none" stroke="#191970" points="100.9015,-341.3348 104.4014,-351.3348 107.9015,-341.3349 100.9015,-341.3348"/>
</g>
<!-- Node7 -->
<g id="node4" class="node">
<title>Node7</title>
<g id="a_node4"><a xlink:href="classCore_1_1OneArgumentFunction.html" target="_top" xlink:title="The base class for functions which take a single argument and return a single value. ">
<polygon fill="#ffffff" stroke="#000000" points="0,-532.5 0,-664.5 208.8027,-664.5 208.8027,-532.5 0,-532.5"/>
<text text-anchor="start" x="8" y="-650.9" font-family="Helvetica,sans-Serif" font-size="12.00" fill="#000000">Core::OneArgumentFunction</text>
<text text-anchor="middle" x="104.4014" y="-638.9" font-family="Helvetica,sans-Serif" font-size="12.00" fill="#000000">&lt; InputDataType, OutputDataType &gt;</text>
<polyline fill="none" stroke="#000000" points="0,-632.5 208.8027,-632.5 "/>
<text text-anchor="middle" x="104.4014" y="-618.9" font-family="Helvetica,sans-Serif" font-size="12.00" fill="#000000"> </text>
<polyline fill="none" stroke="#000000" points="0,-612.5 208.8027,-612.5 "/>
<text text-anchor="start" x="8" y="-598.9" font-family="Helvetica,sans-Serif" font-size="12.00" fill="#000000">+ operator()()</text>
<text text-anchor="start" x="8" y="-586.9" font-family="Helvetica,sans-Serif" font-size="12.00" fill="#000000">+ range_high()</text>
<text text-anchor="start" x="8" y="-574.9" font-family="Helvetica,sans-Serif" font-size="12.00" fill="#000000">+ range_low()</text>
<text text-anchor="start" x="8" y="-562.9" font-family="Helvetica,sans-Serif" font-size="12.00" fill="#000000">+ crossings()</text>
<text text-anchor="start" x="8" y="-550.9" font-family="Helvetica,sans-Serif" font-size="12.00" fill="#000000">+ ~OneArgumentFunction()</text>
<text text-anchor="start" x="8" y="-538.9" font-family="Helvetica,sans-Serif" font-size="12.00" fill="#000000">&#45; serialize()</text>
</a>
</g>
</g>
<!-- Node7&#45;&gt;Node6 -->
<g id="edge3" class="edge">
<title>Node7&#45;&gt;Node6</title>
<path fill="none" stroke="#ffa500" d="M104.4014,-522.2295C104.4014,-509.4354 104.4014,-496.2521 104.4014,-483.7372"/>
<polygon fill="#ffa500" stroke="#ffa500" points="100.9015,-522.3865 104.4014,-532.3865 107.9015,-522.3866 100.9015,-522.3865"/>
<text text-anchor="middle" x="155.7793" y="-504.4" font-family="Helvetica,sans-Serif" font-size="12.00" fill="#000000"> &lt; double, double &gt;</text>
</g>
<!-- Node8 -->
<g id="node5" class="node">
<title>Node8</title>
<g id="a_node5"><a xlink:href="classCore_1_1SerializableSpline1dInterpolant.html" target="_top" xlink:title="A serializable (using boost serialization) alglib 1D interpolant. ">
<polygon fill="#ffffff" stroke="#000000" points="215.6934,-235.5 215.6934,-307.5 373.1094,-307.5 373.1094,-235.5 215.6934,-235.5"/>
<text text-anchor="start" x="223.6934" y="-293.9" font-family="Helvetica,sans-Serif" font-size="12.00" fill="#000000">Core::SerializableSpline1d</text>
<text text-anchor="middle" x="294.4014" y="-281.9" font-family="Helvetica,sans-Serif" font-size="12.00" fill="#000000">Interpolant</text>
<polyline fill="none" stroke="#000000" points="215.6934,-275.5 373.1094,-275.5 "/>
<text text-anchor="middle" x="294.4014" y="-261.9" font-family="Helvetica,sans-Serif" font-size="12.00" fill="#000000"> </text>
<polyline fill="none" stroke="#000000" points="215.6934,-255.5 373.1094,-255.5 "/>
<text text-anchor="start" x="223.6934" y="-241.9" font-family="Helvetica,sans-Serif" font-size="12.00" fill="#000000">&#45; serialize()</text>
</a>
</g>
</g>
<!-- Node8&#45;&gt;Node4 -->
<g id="edge4" class="edge">
<title>Node8&#45;&gt;Node4</title>
<path fill="none" stroke="#404040" d="M275.2051,-235.307C268.3586,-222.3985 260.2714,-207.1508 251.9589,-191.4782"/>
<polygon fill="none" stroke="#404040" points="251.8033,-191.1848 245.4582,-187.7585 246.1805,-180.5837 252.5257,-184.01 251.8033,-191.1848"/>
<text text-anchor="middle" x="287.417" y="-201.4" font-family="Helvetica,sans-Serif" font-size="12.00" fill="#000000"> &#45;__spline</text>
</g>
<!-- Node9 -->
<g id="node6" class="node">
<title>Node9</title>
<polygon fill="#ffffff" stroke="#bfbfbf" points="218.6875,-387.5 218.6875,-447.5 370.1152,-447.5 370.1152,-387.5 218.6875,-387.5"/>
<text text-anchor="middle" x="294.4014" y="-433.9" font-family="Helvetica,sans-Serif" font-size="12.00" fill="#000000">alglib::spline1dinterpolant</text>
<polyline fill="none" stroke="#bfbfbf" points="218.6875,-427.5 370.1152,-427.5 "/>
<text text-anchor="middle" x="294.4014" y="-413.9" font-family="Helvetica,sans-Serif" font-size="12.00" fill="#000000"> </text>
<polyline fill="none" stroke="#bfbfbf" points="218.6875,-407.5 370.1152,-407.5 "/>
<text text-anchor="middle" x="294.4014" y="-393.9" font-family="Helvetica,sans-Serif" font-size="12.00" fill="#000000"> </text>
</g>
<!-- Node9&#45;&gt;Node8 -->
<g id="edge5" class="edge">
<title>Node9&#45;&gt;Node8</title>
<path fill="none" stroke="#191970" d="M294.4014,-377.0088C294.4014,-355.266 294.4014,-328.688 294.4014,-307.647"/>
<polygon fill="none" stroke="#191970" points="290.9015,-377.2487 294.4014,-387.2487 297.9015,-377.2487 290.9015,-377.2487"/>
</g>
</g>
</svg>
