<?xml version="1.0" encoding="UTF-8" standalone="no"?>
<!DOCTYPE svg PUBLIC "-//W3C//DTD SVG 1.1//EN"
 "http://www.w3.org/Graphics/SVG/1.1/DTD/svg11.dtd">
<!-- Generated by graphviz version 2.40.1 (20161225.0304)
 -->
<!-- Title: Evolve::NoStopCondition Pages: 1 -->
<svg width="205pt" height="302pt"
 viewBox="0.00 0.00 205.00 302.00" xmlns="http://www.w3.org/2000/svg" xmlns:xlink="http://www.w3.org/1999/xlink">
<g id="graph0" class="graph" transform="scale(1 1) rotate(0) translate(4 298)">
<title>Evolve::NoStopCondition</title>
<polygon fill="#ffffff" stroke="transparent" points="-4,4 -4,-298 201,-298 201,4 -4,4"/>
<!-- Node0 -->
<g id="node1" class="node">
<title>Node0</title>
<polygon fill="#bfbfbf" stroke="#000000" points="22.5,-.5 22.5,-89.5 174.5,-89.5 174.5,-.5 22.5,-.5"/>
<text text-anchor="middle" x="98.5" y="-75.9" font-family="Helvetica,sans-Serif" font-size="12.00" fill="#000000">Evolve::NoStopCondition</text>
<polyline fill="none" stroke="#000000" points="22.5,-68.5 174.5,-68.5 "/>
<text text-anchor="middle" x="98.5" y="-54.9" font-family="Helvetica,sans-Serif" font-size="12.00" fill="#000000"> </text>
<polyline fill="none" stroke="#000000" points="22.5,-47.5 174.5,-47.5 "/>
<text text-anchor="start" x="30.5" y="-33.9" font-family="Helvetica,sans-Serif" font-size="12.00" fill="#000000">+ operator()()</text>
<text text-anchor="start" x="30.5" y="-20.9" font-family="Helvetica,sans-Serif" font-size="12.00" fill="#000000">+ type()</text>
<text text-anchor="start" x="30.5" y="-7.9" font-family="Helvetica,sans-Serif" font-size="12.00" fill="#000000">+ reached()</text>
</g>
<!-- Node1 -->
<g id="node2" class="node">
<title>Node1</title>
<g id="a_node2"><a xlink:href="classEvolve_1_1StoppingCondition.html" target="_top" xlink:title="A base class for all stopping conditions. ">
<polygon fill="#ffffff" stroke="#000000" points="0,-126.5 0,-293.5 197,-293.5 197,-126.5 0,-126.5"/>
<text text-anchor="middle" x="98.5" y="-279.9" font-family="Helvetica,sans-Serif" font-size="12.00" fill="#000000">Evolve::StoppingCondition</text>
<polyline fill="none" stroke="#000000" points="0,-272.5 197,-272.5 "/>
<text text-anchor="start" x="8" y="-258.9" font-family="Helvetica,sans-Serif" font-size="12.00" fill="#000000">&#45; __expected_crossing</text>
<text text-anchor="start" x="8" y="-245.9" font-family="Helvetica,sans-Serif" font-size="12.00" fill="#000000">_deriv_sign</text>
<polyline fill="none" stroke="#000000" points="0,-238.5 197,-238.5 "/>
<text text-anchor="start" x="8" y="-224.9" font-family="Helvetica,sans-Serif" font-size="12.00" fill="#000000">+ StoppingCondition()</text>
<text text-anchor="start" x="8" y="-211.9" font-family="Helvetica,sans-Serif" font-size="12.00" fill="#000000">+ operator()()</text>
<text text-anchor="start" x="8" y="-198.9" font-family="Helvetica,sans-Serif" font-size="12.00" fill="#000000">+ num_subconditions()</text>
<text text-anchor="start" x="8" y="-185.9" font-family="Helvetica,sans-Serif" font-size="12.00" fill="#000000">+ type()</text>
<text text-anchor="start" x="8" y="-172.9" font-family="Helvetica,sans-Serif" font-size="12.00" fill="#000000">+ reached()</text>
<text text-anchor="start" x="8" y="-159.9" font-family="Helvetica,sans-Serif" font-size="12.00" fill="#000000">+ expected_crossing_deriv_sign()</text>
<text text-anchor="start" x="8" y="-146.9" font-family="Helvetica,sans-Serif" font-size="12.00" fill="#000000">+ describe()</text>
<text text-anchor="start" x="8" y="-133.9" font-family="Helvetica,sans-Serif" font-size="12.00" fill="#000000">+ ~StoppingCondition()</text>
</a>
</g>
</g>
<!-- Node1&#45;&gt;Node0 -->
<g id="edge1" class="edge">
<title>Node1&#45;&gt;Node0</title>
<path fill="none" stroke="#191970" d="M98.5,-115.7655C98.5,-106.7078 98.5,-97.8427 98.5,-89.6191"/>
<polygon fill="none" stroke="#191970" points="95.0001,-116.0498 98.5,-126.0499 102.0001,-116.0499 95.0001,-116.0498"/>
</g>
</g>
</svg>
