<?xml version="1.0" encoding="UTF-8" standalone="no"?>
<!DOCTYPE svg PUBLIC "-//W3C//DTD SVG 1.1//EN"
 "http://www.w3.org/Graphics/SVG/1.1/DTD/svg11.dtd">
<!-- Generated by graphviz version 2.40.1 (20161225.0304)
 -->
<!-- Title: Core::ZeroDerivatives Pages: 1 -->
<svg width="163pt" height="198pt"
 viewBox="0.00 0.00 163.00 198.00" xmlns="http://www.w3.org/2000/svg" xmlns:xlink="http://www.w3.org/1999/xlink">
<g id="graph0" class="graph" transform="scale(1 1) rotate(0) translate(4 194)">
<title>Core::ZeroDerivatives</title>
<polygon fill="#ffffff" stroke="transparent" points="-4,4 -4,-194 159,-194 159,4 -4,4"/>
<!-- Node2 -->
<g id="node1" class="node">
<title>Node2</title>
<polygon fill="#bfbfbf" stroke="#000000" points="10.5,-.5 10.5,-76.5 144.5,-76.5 144.5,-.5 10.5,-.5"/>
<text text-anchor="middle" x="77.5" y="-62.9" font-family="Helvetica,sans-Serif" font-size="12.00" fill="#000000">Core::ZeroDerivatives</text>
<polyline fill="none" stroke="#000000" points="10.5,-55.5 144.5,-55.5 "/>
<text text-anchor="middle" x="77.5" y="-41.9" font-family="Helvetica,sans-Serif" font-size="12.00" fill="#000000"> </text>
<polyline fill="none" stroke="#000000" points="10.5,-34.5 144.5,-34.5 "/>
<text text-anchor="start" x="18.5" y="-20.9" font-family="Helvetica,sans-Serif" font-size="12.00" fill="#000000">+ ZeroDerivatives()</text>
<text text-anchor="start" x="18.5" y="-7.9" font-family="Helvetica,sans-Serif" font-size="12.00" fill="#000000">+ order()</text>
</g>
<!-- Node3 -->
<g id="node2" class="node">
<title>Node3</title>
<g id="a_node2"><a xlink:href="classCore_1_1FunctionDerivatives.html" target="_top" xlink:title="A class representing arbitrary order derivatives of a function. ">
<polygon fill="#ffffff" stroke="#000000" points="0,-113.5 0,-189.5 155,-189.5 155,-113.5 0,-113.5"/>
<text text-anchor="middle" x="77.5" y="-175.9" font-family="Helvetica,sans-Serif" font-size="12.00" fill="#000000">Core::FunctionDerivatives</text>
<polyline fill="none" stroke="#000000" points="0,-168.5 155,-168.5 "/>
<text text-anchor="middle" x="77.5" y="-154.9" font-family="Helvetica,sans-Serif" font-size="12.00" fill="#000000"> </text>
<polyline fill="none" stroke="#000000" points="0,-147.5 155,-147.5 "/>
<text text-anchor="start" x="8" y="-133.9" font-family="Helvetica,sans-Serif" font-size="12.00" fill="#000000">+ order()</text>
<text text-anchor="start" x="8" y="-120.9" font-family="Helvetica,sans-Serif" font-size="12.00" fill="#000000">+ ~FunctionDerivatives()</text>
</a>
</g>
</g>
<!-- Node3&#45;&gt;Node2 -->
<g id="edge1" class="edge">
<title>Node3&#45;&gt;Node2</title>
<path fill="none" stroke="#191970" d="M77.5,-103.0745C77.5,-94.2625 77.5,-85.183 77.5,-76.7172"/>
<polygon fill="none" stroke="#191970" points="74.0001,-103.2433 77.5,-113.2434 81.0001,-103.2434 74.0001,-103.2433"/>
</g>
</g>
</svg>
