<?xml version="1.0" encoding="UTF-8" standalone="no"?>
<!DOCTYPE svg PUBLIC "-//W3C//DTD SVG 1.1//EN"
 "http://www.w3.org/Graphics/SVG/1.1/DTD/svg11.dtd">
<!-- Generated by graphviz version 2.40.1 (20161225.0304)
 -->
<!-- Title: YRECEvolution Pages: 1 -->
<svg width="125pt" height="322pt"
 viewBox="0.00 0.00 124.83 322.00" xmlns="http://www.w3.org/2000/svg" xmlns:xlink="http://www.w3.org/1999/xlink">
<g id="graph0" class="graph" transform="scale(1 1) rotate(0) translate(4 318)">
<title>YRECEvolution</title>
<polygon fill="#ffffff" stroke="transparent" points="-4,4 -4,-318 120.8281,-318 120.8281,4 -4,4"/>
<!-- Node2 -->
<g id="node1" class="node">
<title>Node2</title>
<polygon fill="#bfbfbf" stroke="#000000" points="0,-.5 0,-216.5 116.8281,-216.5 116.8281,-.5 0,-.5"/>
<text text-anchor="middle" x="58.4141" y="-202.9" font-family="Helvetica,sans-Serif" font-size="12.00" fill="#000000">YRECEvolution</text>
<polyline fill="none" stroke="#000000" points="0,-196.5 116.8281,-196.5 "/>
<text text-anchor="start" x="8" y="-182.9" font-family="Helvetica,sans-Serif" font-size="12.00" fill="#000000">&#45; mass_list</text>
<text text-anchor="start" x="8" y="-170.9" font-family="Helvetica,sans-Serif" font-size="12.00" fill="#000000">&#45; ages</text>
<text text-anchor="start" x="8" y="-158.9" font-family="Helvetica,sans-Serif" font-size="12.00" fill="#000000">&#45; radii</text>
<text text-anchor="start" x="8" y="-146.9" font-family="Helvetica,sans-Serif" font-size="12.00" fill="#000000">&#45; luminosities</text>
<text text-anchor="start" x="8" y="-134.9" font-family="Helvetica,sans-Serif" font-size="12.00" fill="#000000">&#45; rad_masses</text>
<text text-anchor="start" x="8" y="-122.9" font-family="Helvetica,sans-Serif" font-size="12.00" fill="#000000">&#45; core_boundaries</text>
<text text-anchor="start" x="8" y="-110.9" font-family="Helvetica,sans-Serif" font-size="12.00" fill="#000000">&#45; conv_inertias</text>
<text text-anchor="start" x="8" y="-98.9" font-family="Helvetica,sans-Serif" font-size="12.00" fill="#000000">&#45; rad_inertias</text>
<polyline fill="none" stroke="#000000" points="0,-92.5 116.8281,-92.5 "/>
<text text-anchor="start" x="8" y="-78.9" font-family="Helvetica,sans-Serif" font-size="12.00" fill="#000000">+ YRECEvolution()</text>
<text text-anchor="start" x="8" y="-66.9" font-family="Helvetica,sans-Serif" font-size="12.00" fill="#000000">+ YRECEvolution()</text>
<text text-anchor="start" x="8" y="-54.9" font-family="Helvetica,sans-Serif" font-size="12.00" fill="#000000">&#45; read_model_file()</text>
<text text-anchor="start" x="8" y="-42.9" font-family="Helvetica,sans-Serif" font-size="12.00" fill="#000000">&#45; begin()</text>
<text text-anchor="start" x="8" y="-30.9" font-family="Helvetica,sans-Serif" font-size="12.00" fill="#000000">&#45; end()</text>
<text text-anchor="start" x="8" y="-18.9" font-family="Helvetica,sans-Serif" font-size="12.00" fill="#000000">&#45; move()</text>
<text text-anchor="start" x="8" y="-6.9" font-family="Helvetica,sans-Serif" font-size="12.00" fill="#000000">&#45; sort_masses()</text>
</g>
<!-- Node3 -->
<g id="node2" class="node">
<title>Node3</title>
<polygon fill="#ffffff" stroke="#bfbfbf" points="8.7246,-253.5 8.7246,-313.5 108.1035,-313.5 108.1035,-253.5 8.7246,-253.5"/>
<text text-anchor="middle" x="58.4141" y="-299.9" font-family="Helvetica,sans-Serif" font-size="12.00" fill="#000000">StellarEvolution</text>
<polyline fill="none" stroke="#bfbfbf" points="8.7246,-293.5 108.1035,-293.5 "/>
<text text-anchor="middle" x="58.4141" y="-279.9" font-family="Helvetica,sans-Serif" font-size="12.00" fill="#000000"> </text>
<polyline fill="none" stroke="#bfbfbf" points="8.7246,-273.5 108.1035,-273.5 "/>
<text text-anchor="middle" x="58.4141" y="-259.9" font-family="Helvetica,sans-Serif" font-size="12.00" fill="#000000"> </text>
</g>
<!-- Node3&#45;&gt;Node2 -->
<g id="edge1" class="edge">
<title>Node3&#45;&gt;Node2</title>
<path fill="none" stroke="#191970" d="M58.4141,-243.1519C58.4141,-234.9713 58.4141,-226.0066 58.4141,-216.711"/>
<polygon fill="none" stroke="#191970" points="54.9142,-243.4164 58.4141,-253.4164 61.9142,-243.4165 54.9142,-243.4164"/>
</g>
</g>
</svg>
