<?xml version="1.0" encoding="UTF-8" standalone="no"?>
<!DOCTYPE svg PUBLIC "-//W3C//DTD SVG 1.1//EN"
 "http://www.w3.org/Graphics/SVG/1.1/DTD/svg11.dtd">
<!-- Generated by graphviz version 2.40.1 (20161225.0304)
 -->
<!-- Title: Core::Error::General Pages: 1 -->
<svg width="132pt" height="211pt"
 viewBox="0.00 0.00 132.00 211.00" xmlns="http://www.w3.org/2000/svg" xmlns:xlink="http://www.w3.org/1999/xlink">
<g id="graph0" class="graph" transform="scale(1 1) rotate(0) translate(4 207)">
<title>Core::Error::General</title>
<polygon fill="#ffffff" stroke="transparent" points="-4,4 -4,-207 128,-207 128,4 -4,4"/>
<!-- Node12 -->
<g id="node1" class="node">
<title>Node12</title>
<polygon fill="#bfbfbf" stroke="#000000" points="0,-.5 0,-102.5 124,-102.5 124,-.5 0,-.5"/>
<text text-anchor="middle" x="62" y="-88.9" font-family="Helvetica,sans-Serif" font-size="12.00" fill="#000000">Core::Error::General</text>
<polyline fill="none" stroke="#000000" points="0,-81.5 124,-81.5 "/>
<text text-anchor="start" x="8" y="-67.9" font-family="Helvetica,sans-Serif" font-size="12.00" fill="#000000">&#45; message</text>
<polyline fill="none" stroke="#000000" points="0,-60.5 124,-60.5 "/>
<text text-anchor="start" x="8" y="-46.9" font-family="Helvetica,sans-Serif" font-size="12.00" fill="#000000">+ General()</text>
<text text-anchor="start" x="8" y="-33.9" font-family="Helvetica,sans-Serif" font-size="12.00" fill="#000000">+ what()</text>
<text text-anchor="start" x="8" y="-20.9" font-family="Helvetica,sans-Serif" font-size="12.00" fill="#000000">+ get_message()</text>
<text text-anchor="start" x="8" y="-7.9" font-family="Helvetica,sans-Serif" font-size="12.00" fill="#000000">+ ~General()</text>
</g>
<!-- Node13 -->
<g id="node2" class="node">
<title>Node13</title>
<polygon fill="#ffffff" stroke="#bfbfbf" points="17,-139.5 17,-202.5 107,-202.5 107,-139.5 17,-139.5"/>
<text text-anchor="middle" x="62" y="-188.9" font-family="Helvetica,sans-Serif" font-size="12.00" fill="#000000">std::exception</text>
<polyline fill="none" stroke="#bfbfbf" points="17,-181.5 107,-181.5 "/>
<text text-anchor="middle" x="62" y="-167.9" font-family="Helvetica,sans-Serif" font-size="12.00" fill="#000000"> </text>
<polyline fill="none" stroke="#bfbfbf" points="17,-160.5 107,-160.5 "/>
<text text-anchor="middle" x="62" y="-146.9" font-family="Helvetica,sans-Serif" font-size="12.00" fill="#000000"> </text>
</g>
<!-- Node13&#45;&gt;Node12 -->
<g id="edge1" class="edge">
<title>Node13&#45;&gt;Node12</title>
<path fill="none" stroke="#191970" d="M62,-129.2029C62,-120.6709 62,-111.6006 62,-102.7815"/>
<polygon fill="none" stroke="#191970" points="58.5001,-129.2899 62,-139.2899 65.5001,-129.29 58.5001,-129.2899"/>
</g>
</g>
</svg>
