<?xml version="1.0" encoding="UTF-8" standalone="no"?>
<!DOCTYPE svg PUBLIC "-//W3C//DTD SVG 1.1//EN"
 "http://www.w3.org/Graphics/SVG/1.1/DTD/svg11.dtd">
<!-- Generated by graphviz version 2.40.1 (20161225.0304)
 -->
<!-- Title: Core::CubicSplineDerivatives Pages: 1 -->
<svg width="180pt" height="214pt"
 viewBox="0.00 0.00 180.06 214.00" xmlns="http://www.w3.org/2000/svg" xmlns:xlink="http://www.w3.org/1999/xlink">
<g id="graph0" class="graph" transform="scale(1 1) rotate(0) translate(4 210)">
<title>Core::CubicSplineDerivatives</title>
<polygon fill="#ffffff" stroke="transparent" points="-4,4 -4,-210 176.0645,-210 176.0645,4 -4,4"/>
<!-- Node0 -->
<g id="node1" class="node">
<title>Node0</title>
<polygon fill="#bfbfbf" stroke="#000000" points="0,-.5 0,-96.5 172.0645,-96.5 172.0645,-.5 0,-.5"/>
<text text-anchor="middle" x="86.0322" y="-82.9" font-family="Helvetica,sans-Serif" font-size="12.00" fill="#000000">Core::CubicSplineDerivatives</text>
<polyline fill="none" stroke="#000000" points="0,-76.5 172.0645,-76.5 "/>
<text text-anchor="start" x="8" y="-62.9" font-family="Helvetica,sans-Serif" font-size="12.00" fill="#000000">&#45; zeroth</text>
<text text-anchor="start" x="8" y="-50.9" font-family="Helvetica,sans-Serif" font-size="12.00" fill="#000000">&#45; first</text>
<text text-anchor="start" x="8" y="-38.9" font-family="Helvetica,sans-Serif" font-size="12.00" fill="#000000">&#45; second</text>
<polyline fill="none" stroke="#000000" points="0,-32.5 172.0645,-32.5 "/>
<text text-anchor="start" x="8" y="-18.9" font-family="Helvetica,sans-Serif" font-size="12.00" fill="#000000">+ CubicSplineDerivatives()</text>
<text text-anchor="start" x="8" y="-6.9" font-family="Helvetica,sans-Serif" font-size="12.00" fill="#000000">+ order()</text>
</g>
<!-- Node1 -->
<g id="node2" class="node">
<title>Node1</title>
<g id="a_node2"><a xlink:href="classCore_1_1FunctionDerivatives.html" target="_top" xlink:title="A class representing arbitrary order derivatives of a function. ">
<polygon fill="#ffffff" stroke="#000000" points="9.0059,-133.5 9.0059,-205.5 163.0586,-205.5 163.0586,-133.5 9.0059,-133.5"/>
<text text-anchor="middle" x="86.0322" y="-191.9" font-family="Helvetica,sans-Serif" font-size="12.00" fill="#000000">Core::FunctionDerivatives</text>
<polyline fill="none" stroke="#000000" points="9.0059,-185.5 163.0586,-185.5 "/>
<text text-anchor="middle" x="86.0322" y="-171.9" font-family="Helvetica,sans-Serif" font-size="12.00" fill="#000000"> </text>
<polyline fill="none" stroke="#000000" points="9.0059,-165.5 163.0586,-165.5 "/>
<text text-anchor="start" x="17.0059" y="-151.9" font-family="Helvetica,sans-Serif" font-size="12.00" fill="#000000">+ order()</text>
<text text-anchor="start" x="17.0059" y="-139.9" font-family="Helvetica,sans-Serif" font-size="12.00" fill="#000000">+ ~FunctionDerivatives()</text>
</a>
</g>
</g>
<!-- Node1&#45;&gt;Node0 -->
<g id="edge1" class="edge">
<title>Node1&#45;&gt;Node0</title>
<path fill="none" stroke="#191970" d="M86.0322,-123.0005C86.0322,-114.4405 86.0322,-105.4848 86.0322,-96.8713"/>
<polygon fill="none" stroke="#191970" points="82.5323,-123.196 86.0322,-133.196 89.5323,-123.196 82.5323,-123.196"/>
</g>
</g>
</svg>
