<?xml version="1.0" encoding="UTF-8" standalone="no"?>
<!DOCTYPE svg PUBLIC "-//W3C//DTD SVG 1.1//EN"
 "http://www.w3.org/Graphics/SVG/1.1/DTD/svg11.dtd">
<!-- Generated by graphviz version 2.40.1 (20161225.0304)
 -->
<!-- Title: Core::SerializableSpline1dInterpolant Pages: 1 -->
<svg width="169pt" height="185pt"
 viewBox="0.00 0.00 169.00 185.00" xmlns="http://www.w3.org/2000/svg" xmlns:xlink="http://www.w3.org/1999/xlink">
<g id="graph0" class="graph" transform="scale(1 1) rotate(0) translate(4 181)">
<title>Core::SerializableSpline1dInterpolant</title>
<polygon fill="#ffffff" stroke="transparent" points="-4,4 -4,-181 165,-181 165,4 -4,4"/>
<!-- Node2 -->
<g id="node1" class="node">
<title>Node2</title>
<polygon fill="#bfbfbf" stroke="#000000" points="0,-.5 0,-76.5 161,-76.5 161,-.5 0,-.5"/>
<text text-anchor="start" x="8" y="-62.9" font-family="Helvetica,sans-Serif" font-size="12.00" fill="#000000">Core::SerializableSpline1d</text>
<text text-anchor="middle" x="80.5" y="-49.9" font-family="Helvetica,sans-Serif" font-size="12.00" fill="#000000">Interpolant</text>
<polyline fill="none" stroke="#000000" points="0,-42.5 161,-42.5 "/>
<text text-anchor="middle" x="80.5" y="-28.9" font-family="Helvetica,sans-Serif" font-size="12.00" fill="#000000"> </text>
<polyline fill="none" stroke="#000000" points="0,-21.5 161,-21.5 "/>
<text text-anchor="start" x="8" y="-7.9" font-family="Helvetica,sans-Serif" font-size="12.00" fill="#000000">&#45; serialize()</text>
</g>
<!-- Node3 -->
<g id="node2" class="node">
<title>Node3</title>
<polygon fill="#ffffff" stroke="#bfbfbf" points="3.5,-113.5 3.5,-176.5 157.5,-176.5 157.5,-113.5 3.5,-113.5"/>
<text text-anchor="middle" x="80.5" y="-162.9" font-family="Helvetica,sans-Serif" font-size="12.00" fill="#000000">alglib::spline1dinterpolant</text>
<polyline fill="none" stroke="#bfbfbf" points="3.5,-155.5 157.5,-155.5 "/>
<text text-anchor="middle" x="80.5" y="-141.9" font-family="Helvetica,sans-Serif" font-size="12.00" fill="#000000"> </text>
<polyline fill="none" stroke="#bfbfbf" points="3.5,-134.5 157.5,-134.5 "/>
<text text-anchor="middle" x="80.5" y="-120.9" font-family="Helvetica,sans-Serif" font-size="12.00" fill="#000000"> </text>
</g>
<!-- Node3&#45;&gt;Node2 -->
<g id="edge1" class="edge">
<title>Node3&#45;&gt;Node2</title>
<path fill="none" stroke="#191970" d="M80.5,-103.2844C80.5,-94.4986 80.5,-85.2728 80.5,-76.627"/>
<polygon fill="none" stroke="#191970" points="77.0001,-103.3348 80.5,-113.3348 84.0001,-103.3349 77.0001,-103.3348"/>
</g>
</g>
</svg>
