<?xml version="1.0" encoding="UTF-8" standalone="no"?>
<!DOCTYPE svg PUBLIC "-//W3C//DTD SVG 1.1//EN"
 "http://www.w3.org/Graphics/SVG/1.1/DTD/svg11.dtd">
<!-- Generated by graphviz version 2.40.1 (20161225.0304)
 -->
<!-- Title: Evolve::ExternalStoppingCondition Pages: 1 -->
<svg width="204pt" height="274pt"
 viewBox="0.00 0.00 203.77 274.00" xmlns="http://www.w3.org/2000/svg" xmlns:xlink="http://www.w3.org/1999/xlink">
<g id="graph0" class="graph" transform="scale(1 1) rotate(0) translate(4 270)">
<title>Evolve::ExternalStoppingCondition</title>
<polygon fill="#ffffff" stroke="transparent" points="-4,4 -4,-270 199.7656,-270 199.7656,4 -4,4"/>
<!-- Node3 -->
<g id="node1" class="node">
<title>Node3</title>
<polygon fill="#bfbfbf" stroke="#000000" points="22.8428,-.5 22.8428,-72.5 172.9229,-72.5 172.9229,-.5 22.8428,-.5"/>
<text text-anchor="start" x="30.8428" y="-58.9" font-family="Helvetica,sans-Serif" font-size="12.00" fill="#000000">Evolve::ExternalStopping</text>
<text text-anchor="middle" x="97.8828" y="-46.9" font-family="Helvetica,sans-Serif" font-size="12.00" fill="#000000">Condition</text>
<polyline fill="none" stroke="#000000" points="22.8428,-40.5 172.9229,-40.5 "/>
<text text-anchor="middle" x="97.8828" y="-26.9" font-family="Helvetica,sans-Serif" font-size="12.00" fill="#000000"> </text>
<polyline fill="none" stroke="#000000" points="22.8428,-20.5 172.9229,-20.5 "/>
<text text-anchor="start" x="30.8428" y="-6.9" font-family="Helvetica,sans-Serif" font-size="12.00" fill="#000000">+ type()</text>
</g>
<!-- Node4 -->
<g id="node2" class="node">
<title>Node4</title>
<g id="a_node2"><a xlink:href="classEvolve_1_1StoppingCondition.html" target="_top" xlink:title="A base class for all stopping conditions. ">
<polygon fill="#ffffff" stroke="#000000" points="0,-109.5 0,-265.5 195.7656,-265.5 195.7656,-109.5 0,-109.5"/>
<text text-anchor="middle" x="97.8828" y="-251.9" font-family="Helvetica,sans-Serif" font-size="12.00" fill="#000000">Evolve::StoppingCondition</text>
<polyline fill="none" stroke="#000000" points="0,-245.5 195.7656,-245.5 "/>
<text text-anchor="start" x="8" y="-231.9" font-family="Helvetica,sans-Serif" font-size="12.00" fill="#000000">&#45; __expected_crossing</text>
<text text-anchor="start" x="8" y="-219.9" font-family="Helvetica,sans-Serif" font-size="12.00" fill="#000000">_deriv_sign</text>
<polyline fill="none" stroke="#000000" points="0,-213.5 195.7656,-213.5 "/>
<text text-anchor="start" x="8" y="-199.9" font-family="Helvetica,sans-Serif" font-size="12.00" fill="#000000">+ StoppingCondition()</text>
<text text-anchor="start" x="8" y="-187.9" font-family="Helvetica,sans-Serif" font-size="12.00" fill="#000000">+ operator()()</text>
<text text-anchor="start" x="8" y="-175.9" font-family="Helvetica,sans-Serif" font-size="12.00" fill="#000000">+ num_subconditions()</text>
<text text-anchor="start" x="8" y="-163.9" font-family="Helvetica,sans-Serif" font-size="12.00" fill="#000000">+ type()</text>
<text text-anchor="start" x="8" y="-151.9" font-family="Helvetica,sans-Serif" font-size="12.00" fill="#000000">+ reached()</text>
<text text-anchor="start" x="8" y="-139.9" font-family="Helvetica,sans-Serif" font-size="12.00" fill="#000000">+ expected_crossing_deriv_sign()</text>
<text text-anchor="start" x="8" y="-127.9" font-family="Helvetica,sans-Serif" font-size="12.00" fill="#000000">+ describe()</text>
<text text-anchor="start" x="8" y="-115.9" font-family="Helvetica,sans-Serif" font-size="12.00" fill="#000000">+ ~StoppingCondition()</text>
</a>
</g>
</g>
<!-- Node4&#45;&gt;Node3 -->
<g id="edge1" class="edge">
<title>Node4&#45;&gt;Node3</title>
<path fill="none" stroke="#191970" d="M97.8828,-99.188C97.8828,-89.8974 97.8828,-80.8735 97.8828,-72.7013"/>
<polygon fill="none" stroke="#191970" points="94.3829,-99.3462 97.8828,-109.3462 101.3829,-99.3462 94.3829,-99.3462"/>
</g>
</g>
</svg>
