<?xml version="1.0" encoding="UTF-8" standalone="no"?>
<!DOCTYPE svg PUBLIC "-//W3C//DTD SVG 1.1//EN"
 "http://www.w3.org/Graphics/SVG/1.1/DTD/svg11.dtd">
<!-- Generated by graphviz version 2.40.1 (20161225.0304)
 -->
<!-- Title: StellarEvolution::RemoveLogDeriv Pages: 1 -->
<svg width="196pt" height="454pt"
 viewBox="0.00 0.00 196.00 454.00" xmlns="http://www.w3.org/2000/svg" xmlns:xlink="http://www.w3.org/1999/xlink">
<g id="graph0" class="graph" transform="scale(1 1) rotate(0) translate(4 450)">
<title>StellarEvolution::RemoveLogDeriv</title>
<polygon fill="#ffffff" stroke="transparent" points="-4,4 -4,-450 192,-450 192,4 -4,4"/>
<!-- Node0 -->
<g id="node1" class="node">
<title>Node0</title>
<polygon fill="#bfbfbf" stroke="#000000" points="18,-.5 18,-115.5 170,-115.5 170,-.5 18,-.5"/>
<text text-anchor="start" x="26" y="-101.9" font-family="Helvetica,sans-Serif" font-size="12.00" fill="#000000">StellarEvolution::Remove</text>
<text text-anchor="middle" x="94" y="-88.9" font-family="Helvetica,sans-Serif" font-size="12.00" fill="#000000">LogDeriv</text>
<polyline fill="none" stroke="#000000" points="18,-81.5 170,-81.5 "/>
<text text-anchor="start" x="26" y="-67.9" font-family="Helvetica,sans-Serif" font-size="12.00" fill="#000000">&#45; __log_deriv</text>
<text text-anchor="start" x="26" y="-54.9" font-family="Helvetica,sans-Serif" font-size="12.00" fill="#000000">&#45; __delete_deriv</text>
<polyline fill="none" stroke="#000000" points="18,-47.5 170,-47.5 "/>
<text text-anchor="start" x="26" y="-33.9" font-family="Helvetica,sans-Serif" font-size="12.00" fill="#000000">+ RemoveLogDeriv()</text>
<text text-anchor="start" x="26" y="-20.9" font-family="Helvetica,sans-Serif" font-size="12.00" fill="#000000">+ ~RemoveLogDeriv()</text>
<text text-anchor="start" x="26" y="-7.9" font-family="Helvetica,sans-Serif" font-size="12.00" fill="#000000"># calc_deriv()</text>
</g>
<!-- Node1 -->
<g id="node2" class="node">
<title>Node1</title>
<g id="a_node2"><a xlink:href="classStellarEvolution_1_1LogDerivatives.html" target="_top" xlink:title="Calculate dy/dx given dy/dx, dy/dln(x), dln(y)/dx or dln(y)/dln(x). ">
<polygon fill="#ffffff" stroke="#000000" points="0,-152.5 0,-332.5 188,-332.5 188,-152.5 0,-152.5"/>
<text text-anchor="middle" x="94" y="-318.9" font-family="Helvetica,sans-Serif" font-size="12.00" fill="#000000">StellarEvolution::LogDerivatives</text>
<polyline fill="none" stroke="#000000" points="0,-311.5 188,-311.5 "/>
<text text-anchor="start" x="8" y="-297.9" font-family="Helvetica,sans-Serif" font-size="12.00" fill="#000000">&#45; __x</text>
<text text-anchor="start" x="8" y="-284.9" font-family="Helvetica,sans-Serif" font-size="12.00" fill="#000000">&#45; __log_x</text>
<text text-anchor="start" x="8" y="-271.9" font-family="Helvetica,sans-Serif" font-size="12.00" fill="#000000">&#45; __log_y</text>
<text text-anchor="start" x="8" y="-258.9" font-family="Helvetica,sans-Serif" font-size="12.00" fill="#000000">&#45; __underlying_deriv</text>
<text text-anchor="start" x="8" y="-245.9" font-family="Helvetica,sans-Serif" font-size="12.00" fill="#000000">_values</text>
<text text-anchor="start" x="8" y="-232.9" font-family="Helvetica,sans-Serif" font-size="12.00" fill="#000000">&#45; __deriv_values</text>
<polyline fill="none" stroke="#000000" points="0,-225.5 188,-225.5 "/>
<text text-anchor="start" x="8" y="-211.9" font-family="Helvetica,sans-Serif" font-size="12.00" fill="#000000">+ LogDerivatives()</text>
<text text-anchor="start" x="8" y="-198.9" font-family="Helvetica,sans-Serif" font-size="12.00" fill="#000000">+ order()</text>
<text text-anchor="start" x="8" y="-185.9" font-family="Helvetica,sans-Serif" font-size="12.00" fill="#000000"># calc_deriv()</text>
<text text-anchor="start" x="8" y="-172.9" font-family="Helvetica,sans-Serif" font-size="12.00" fill="#000000">&#45; transform_log_x_deriv()</text>
<text text-anchor="start" x="8" y="-159.9" font-family="Helvetica,sans-Serif" font-size="12.00" fill="#000000">&#45; transform_log_y_deriv()</text>
</a>
</g>
</g>
<!-- Node1&#45;&gt;Node0 -->
<g id="edge1" class="edge">
<title>Node1&#45;&gt;Node0</title>
<path fill="none" stroke="#191970" d="M94,-142.1389C94,-133.0629 94,-124.0924 94,-115.5825"/>
<polygon fill="none" stroke="#191970" points="90.5001,-142.4119 94,-152.4119 97.5001,-142.412 90.5001,-142.4119"/>
</g>
<!-- Node2 -->
<g id="node3" class="node">
<title>Node2</title>
<g id="a_node3"><a xlink:href="classCore_1_1FunctionDerivatives.html" target="_top" xlink:title="A class representing arbitrary order derivatives of a function. ">
<polygon fill="#ffffff" stroke="#000000" points="16.5,-369.5 16.5,-445.5 171.5,-445.5 171.5,-369.5 16.5,-369.5"/>
<text text-anchor="middle" x="94" y="-431.9" font-family="Helvetica,sans-Serif" font-size="12.00" fill="#000000">Core::FunctionDerivatives</text>
<polyline fill="none" stroke="#000000" points="16.5,-424.5 171.5,-424.5 "/>
<text text-anchor="middle" x="94" y="-410.9" font-family="Helvetica,sans-Serif" font-size="12.00" fill="#000000"> </text>
<polyline fill="none" stroke="#000000" points="16.5,-403.5 171.5,-403.5 "/>
<text text-anchor="start" x="24.5" y="-389.9" font-family="Helvetica,sans-Serif" font-size="12.00" fill="#000000">+ order()</text>
<text text-anchor="start" x="24.5" y="-376.9" font-family="Helvetica,sans-Serif" font-size="12.00" fill="#000000">+ ~FunctionDerivatives()</text>
</a>
</g>
</g>
<!-- Node2&#45;&gt;Node1 -->
<g id="edge2" class="edge">
<title>Node2&#45;&gt;Node1</title>
<path fill="none" stroke="#191970" d="M94,-359.2199C94,-350.7495 94,-341.6941 94,-332.5136"/>
<polygon fill="none" stroke="#191970" points="90.5001,-359.2309 94,-369.231 97.5001,-359.231 90.5001,-359.2309"/>
</g>
</g>
</svg>
