<?xml version="1.0" encoding="UTF-8" standalone="no"?>
<!DOCTYPE svg PUBLIC "-//W3C//DTD SVG 1.1//EN"
 "http://www.w3.org/Graphics/SVG/1.1/DTD/svg11.dtd">
<!-- Generated by graphviz version 2.40.1 (20161225.0304)
 -->
<!-- Title: /Users/kpenev/projects/git/poet/poet_src/ConstSolutionIterator.h Pages: 1 -->
<svg width="194pt" height="134pt"
 viewBox="0.00 0.00 194.10 134.00" xmlns="http://www.w3.org/2000/svg" xmlns:xlink="http://www.w3.org/1999/xlink">
<g id="graph0" class="graph" transform="scale(1 1) rotate(0) translate(4 130)">
<title>/Users/kpenev/projects/git/poet/poet_src/ConstSolutionIterator.h</title>
<polygon fill="#ffffff" stroke="transparent" points="-4,4 -4,-130 190.1035,-130 190.1035,4 -4,4"/>
<!-- Node52 -->
<g id="node1" class="node">
<title>Node52</title>
<polygon fill="#bfbfbf" stroke="#000000" points="0,-81.5 0,-125.5 186.1035,-125.5 186.1035,-81.5 0,-81.5"/>
<text text-anchor="start" x="8" y="-111.9" font-family="Helvetica,sans-Serif" font-size="12.00" fill="#000000">/Users/kpenev/projects</text>
<text text-anchor="start" x="8" y="-99.9" font-family="Helvetica,sans-Serif" font-size="12.00" fill="#000000">/git/poet/poet_src/ConstSolution</text>
<text text-anchor="middle" x="93.0518" y="-87.9" font-family="Helvetica,sans-Serif" font-size="12.00" fill="#000000">Iterator.h</text>
</g>
<!-- Node53 -->
<g id="node2" class="node">
<title>Node53</title>
<g id="a_node2"><a xlink:href="ConstSolutionIterator_8cpp_source.html" target="_top" xlink:title="/Users/kpenev/projects\l/git/poet/poet_src/ConstSolution\lIterator.cpp">
<polygon fill="#ffffff" stroke="#000000" points="0,-.5 0,-44.5 186.1035,-44.5 186.1035,-.5 0,-.5"/>
<text text-anchor="start" x="8" y="-30.9" font-family="Helvetica,sans-Serif" font-size="12.00" fill="#000000">/Users/kpenev/projects</text>
<text text-anchor="start" x="8" y="-18.9" font-family="Helvetica,sans-Serif" font-size="12.00" fill="#000000">/git/poet/poet_src/ConstSolution</text>
<text text-anchor="middle" x="93.0518" y="-6.9" font-family="Helvetica,sans-Serif" font-size="12.00" fill="#000000">Iterator.cpp</text>
</a>
</g>
</g>
<!-- Node52&#45;&gt;Node53 -->
<g id="edge1" class="edge">
<title>Node52&#45;&gt;Node53</title>
<path fill="none" stroke="#191970" d="M93.0518,-71.2457C93.0518,-62.3118 93.0518,-52.8188 93.0518,-44.6068"/>
<polygon fill="#191970" stroke="#191970" points="89.5519,-71.3664 93.0518,-81.3664 96.5519,-71.3664 89.5519,-71.3664"/>
</g>
</g>
</svg>
