<?xml version="1.0" encoding="UTF-8" standalone="no"?>
<!DOCTYPE svg PUBLIC "-//W3C//DTD SVG 1.1//EN"
 "http://www.w3.org/Graphics/SVG/1.1/DTD/svg11.dtd">
<!-- Generated by graphviz version 2.40.1 (20161225.0304)
 -->
<!-- Title: /home/kpenev/projects/git/poet/poet_src/Core/Common.cpp Pages: 1 -->
<svg width="1401pt" height="243pt"
 viewBox="0.00 0.00 1400.50 243.00" xmlns="http://www.w3.org/2000/svg" xmlns:xlink="http://www.w3.org/1999/xlink">
<g id="graph0" class="graph" transform="scale(1 1) rotate(0) translate(4 239)">
<title>/home/kpenev/projects/git/poet/poet_src/Core/Common.cpp</title>
<polygon fill="#ffffff" stroke="transparent" points="-4,4 -4,-239 1396.5,-239 1396.5,4 -4,4"/>
<!-- Node0 -->
<g id="node1" class="node">
<title>Node0</title>
<polygon fill="#bfbfbf" stroke="#000000" points="420.5,-187.5 420.5,-234.5 557.5,-234.5 557.5,-187.5 420.5,-187.5"/>
<text text-anchor="start" x="428.5" y="-220.9" font-family="Helvetica,sans-Serif" font-size="12.00" fill="#000000">/home/kpenev/projects</text>
<text text-anchor="start" x="428.5" y="-207.9" font-family="Helvetica,sans-Serif" font-size="12.00" fill="#000000">/git/poet/poet_src/Core</text>
<text text-anchor="middle" x="489" y="-194.9" font-family="Helvetica,sans-Serif" font-size="12.00" fill="#000000">/Common.cpp</text>
</g>
<!-- Node1 -->
<g id="node2" class="node">
<title>Node1</title>
<g id="a_node2"><a xlink:href="Core_2Common_8h.html" target="_top" xlink:title="Declaration of some general purpose utilities. ">
<polygon fill="#ffffff" stroke="#000000" points="451.5,-129.5 451.5,-150.5 526.5,-150.5 526.5,-129.5 451.5,-129.5"/>
<text text-anchor="middle" x="489" y="-136.9" font-family="Helvetica,sans-Serif" font-size="12.00" fill="#000000">Common.h</text>
</a>
</g>
</g>
<!-- Node0&#45;&gt;Node1 -->
<g id="edge1" class="edge">
<title>Node0&#45;&gt;Node1</title>
<path fill="none" stroke="#191970" d="M489,-187.358C489,-178.719 489,-169.0215 489,-160.6624"/>
<polygon fill="#191970" stroke="#191970" points="492.5001,-160.6462 489,-150.6462 485.5001,-160.6463 492.5001,-160.6462"/>
</g>
<!-- Node2 -->
<g id="node3" class="node">
<title>Node2</title>
<polygon fill="#ffffff" stroke="#bfbfbf" points="0,-71.5 0,-92.5 32,-92.5 32,-71.5 0,-71.5"/>
<text text-anchor="middle" x="16" y="-78.9" font-family="Helvetica,sans-Serif" font-size="12.00" fill="#000000">list</text>
</g>
<!-- Node1&#45;&gt;Node2 -->
<g id="edge2" class="edge">
<title>Node1&#45;&gt;Node2</title>
<path fill="none" stroke="#191970" d="M451.2863,-137.5503C361.3479,-131.4757 135.4168,-114.7862 42.069,-92.4971"/>
<polygon fill="#191970" stroke="#191970" points="42.6987,-89.0458 32.1441,-89.9671 40.9696,-95.8288 42.6987,-89.0458"/>
</g>
<!-- Node3 -->
<g id="node4" class="node">
<title>Node3</title>
<polygon fill="#ffffff" stroke="#bfbfbf" points="50.5,-71.5 50.5,-92.5 109.5,-92.5 109.5,-71.5 50.5,-71.5"/>
<text text-anchor="middle" x="80" y="-78.9" font-family="Helvetica,sans-Serif" font-size="12.00" fill="#000000">valarray</text>
</g>
<!-- Node1&#45;&gt;Node3 -->
<g id="edge3" class="edge">
<title>Node1&#45;&gt;Node3</title>
<path fill="none" stroke="#191970" d="M451.4119,-137.0835C385.9173,-131.6008 246.5557,-118.1594 119.5951,-92.8685"/>
<polygon fill="#191970" stroke="#191970" points="120.1944,-89.419 109.6991,-90.8677 118.8071,-96.2801 120.1944,-89.419"/>
</g>
<!-- Node4 -->
<g id="node5" class="node">
<title>Node4</title>
<polygon fill="#ffffff" stroke="#bfbfbf" points="128,-71.5 128,-92.5 172,-92.5 172,-71.5 128,-71.5"/>
<text text-anchor="middle" x="150" y="-78.9" font-family="Helvetica,sans-Serif" font-size="12.00" fill="#000000">limits</text>
</g>
<!-- Node1&#45;&gt;Node4 -->
<g id="edge4" class="edge">
<title>Node1&#45;&gt;Node4</title>
<path fill="none" stroke="#191970" d="M451.0878,-136.5516C394.3358,-130.8843 283.9191,-117.9046 182.0277,-92.9014"/>
<polygon fill="#191970" stroke="#191970" points="182.7462,-89.4734 172.1959,-90.444 181.0488,-96.2645 182.7462,-89.4734"/>
</g>
<!-- Node5 -->
<g id="node6" class="node">
<title>Node5</title>
<polygon fill="#ffffff" stroke="#bfbfbf" points="190.5,-71.5 190.5,-92.5 249.5,-92.5 249.5,-71.5 190.5,-71.5"/>
<text text-anchor="middle" x="220" y="-78.9" font-family="Helvetica,sans-Serif" font-size="12.00" fill="#000000">sstream</text>
</g>
<!-- Node1&#45;&gt;Node5 -->
<g id="edge5" class="edge">
<title>Node1&#45;&gt;Node5</title>
<path fill="none" stroke="#191970" d="M451.4797,-132.6285C406.7349,-123.73 329.7338,-108.0762 264,-93 262.561,-92.67 261.0967,-92.3293 259.6187,-91.9812"/>
<polygon fill="#191970" stroke="#191970" points="260.3257,-88.5515 249.7842,-89.6132 258.687,-95.357 260.3257,-88.5515"/>
</g>
<!-- Node6 -->
<g id="node7" class="node">
<title>Node6</title>
<polygon fill="#ffffff" stroke="#bfbfbf" points="181,-7 181,-28 243,-28 243,-7 181,-7"/>
<text text-anchor="middle" x="212" y="-14.4" font-family="Helvetica,sans-Serif" font-size="12.00" fill="#000000">iostream</text>
</g>
<!-- Node1&#45;&gt;Node6 -->
<g id="edge6" class="edge">
<title>Node1&#45;&gt;Node6</title>
<path fill="none" stroke="#191970" d="M451.3494,-132.6976C417.3245,-125.2945 366.3824,-112.1828 325,-93 290.6065,-77.057 254.8733,-51.386 233.0301,-34.4783"/>
<polygon fill="#191970" stroke="#191970" points="235.1278,-31.6753 225.1013,-28.2516 230.8043,-37.1806 235.1278,-31.6753"/>
</g>
<!-- Node7 -->
<g id="node8" class="node">
<title>Node7</title>
<polygon fill="#ffffff" stroke="#bfbfbf" points="415.5,-71.5 415.5,-92.5 468.5,-92.5 468.5,-71.5 415.5,-71.5"/>
<text text-anchor="middle" x="442" y="-78.9" font-family="Helvetica,sans-Serif" font-size="12.00" fill="#000000">iterator</text>
</g>
<!-- Node1&#45;&gt;Node7 -->
<g id="edge7" class="edge">
<title>Node1&#45;&gt;Node7</title>
<path fill="none" stroke="#191970" d="M480.3795,-129.3619C473.8205,-121.2678 464.6344,-109.9318 456.8938,-100.3796"/>
<polygon fill="#191970" stroke="#191970" points="459.581,-98.1364 450.5659,-92.5707 454.1425,-102.5436 459.581,-98.1364"/>
</g>
<!-- Node8 -->
<g id="node9" class="node">
<title>Node8</title>
<polygon fill="#ffffff" stroke="#bfbfbf" points="487,-71.5 487,-92.5 587,-92.5 587,-71.5 487,-71.5"/>
<text text-anchor="middle" x="537" y="-78.9" font-family="Helvetica,sans-Serif" font-size="12.00" fill="#000000">gsl/gsl_vector.h</text>
</g>
<!-- Node1&#45;&gt;Node8 -->
<g id="edge8" class="edge">
<title>Node1&#45;&gt;Node8</title>
<path fill="none" stroke="#191970" d="M497.8039,-129.3619C504.5025,-121.2678 513.884,-109.9318 521.7893,-100.3796"/>
<polygon fill="#191970" stroke="#191970" points="524.5725,-102.5061 528.2519,-92.5707 519.1798,-98.0431 524.5725,-102.5061"/>
</g>
<!-- Node9 -->
<g id="node10" class="node">
<title>Node9</title>
<polygon fill="#ffffff" stroke="#bfbfbf" points="605,-71.5 605,-92.5 705,-92.5 705,-71.5 605,-71.5"/>
<text text-anchor="middle" x="655" y="-78.9" font-family="Helvetica,sans-Serif" font-size="12.00" fill="#000000">gsl/gsl_matrix.h</text>
</g>
<!-- Node1&#45;&gt;Node9 -->
<g id="edge9" class="edge">
<title>Node1&#45;&gt;Node9</title>
<path fill="none" stroke="#191970" d="M519.0613,-129.4966C546.0067,-120.082 585.7275,-106.2036 615.2822,-95.8773"/>
<polygon fill="#191970" stroke="#191970" points="616.5964,-99.1257 624.8823,-92.5231 614.2874,-92.5174 616.5964,-99.1257"/>
</g>
<!-- Node10 -->
<g id="node11" class="node">
<title>Node10</title>
<polygon fill="#ffffff" stroke="#bfbfbf" points="723.5,-71.5 723.5,-92.5 820.5,-92.5 820.5,-71.5 723.5,-71.5"/>
<text text-anchor="middle" x="772" y="-78.9" font-family="Helvetica,sans-Serif" font-size="12.00" fill="#000000">gsl/gsl_linalg.h</text>
</g>
<!-- Node1&#45;&gt;Node10 -->
<g id="edge10" class="edge">
<title>Node1&#45;&gt;Node10</title>
<path fill="none" stroke="#191970" d="M526.5802,-132.298C574.3798,-122.5017 657.4399,-105.4787 713.5436,-93.9805"/>
<polygon fill="#191970" stroke="#191970" points="714.2506,-97.4084 723.3443,-91.9718 712.8452,-90.5509 714.2506,-97.4084"/>
</g>
<!-- Node11 -->
<g id="node12" class="node">
<title>Node11</title>
<polygon fill="#ffffff" stroke="#bfbfbf" points="839,-71.5 839,-92.5 929,-92.5 929,-71.5 839,-71.5"/>
<text text-anchor="middle" x="884" y="-78.9" font-family="Helvetica,sans-Serif" font-size="12.00" fill="#000000">gsl/gsl_blas.h</text>
</g>
<!-- Node1&#45;&gt;Node11 -->
<g id="edge11" class="edge">
<title>Node1&#45;&gt;Node11</title>
<path fill="none" stroke="#191970" d="M526.5945,-135.5519C587.6221,-128.1685 712.2477,-112.4154 828.571,-92.988"/>
<polygon fill="#191970" stroke="#191970" points="829.4386,-96.3913 838.719,-91.2801 828.2768,-89.4884 829.4386,-96.3913"/>
</g>
<!-- Node12 -->
<g id="node13" class="node">
<title>Node12</title>
<polygon fill="#ffffff" stroke="#bfbfbf" points="947,-71.5 947,-92.5 1037,-92.5 1037,-71.5 947,-71.5"/>
<text text-anchor="middle" x="992" y="-78.9" font-family="Helvetica,sans-Serif" font-size="12.00" fill="#000000">gsl/gsl_poly.h</text>
</g>
<!-- Node1&#45;&gt;Node12 -->
<g id="edge12" class="edge">
<title>Node1&#45;&gt;Node12</title>
<path fill="none" stroke="#191970" d="M526.7061,-137.2914C602.5109,-131.5793 778.9285,-116.9424 937.0692,-93.0247"/>
<polygon fill="#191970" stroke="#191970" points="937.6209,-96.4811 946.9772,-91.5102 936.5631,-89.5615 937.6209,-96.4811"/>
</g>
<!-- Node13 -->
<g id="node14" class="node">
<title>Node13</title>
<polygon fill="#ffffff" stroke="#bfbfbf" points="1055.5,-71.5 1055.5,-92.5 1110.5,-92.5 1110.5,-71.5 1055.5,-71.5"/>
<text text-anchor="middle" x="1083" y="-78.9" font-family="Helvetica,sans-Serif" font-size="12.00" fill="#000000">cassert</text>
</g>
<!-- Node1&#45;&gt;Node13 -->
<g id="edge13" class="edge">
<title>Node1&#45;&gt;Node13</title>
<path fill="none" stroke="#191970" d="M526.5109,-139.4761C615.2714,-137.6749 845.0945,-129.7235 1045.1634,-92.8025"/>
<polygon fill="#191970" stroke="#191970" points="1046.0859,-96.1906 1055.2697,-90.9078 1044.796,-89.3105 1046.0859,-96.1906"/>
</g>
<!-- Node14 -->
<g id="node15" class="node">
<title>Node14</title>
<g id="a_node15"><a xlink:href="SharedLibraryExportMacros_8h_source.html" target="_top" xlink:title="../Core/SharedLibraryExport\lMacros.h">
<polygon fill="#ffffff" stroke="#000000" points="261.5,-.5 261.5,-34.5 426.5,-34.5 426.5,-.5 261.5,-.5"/>
<text text-anchor="start" x="269.5" y="-20.9" font-family="Helvetica,sans-Serif" font-size="12.00" fill="#000000">../Core/SharedLibraryExport</text>
<text text-anchor="middle" x="344" y="-7.9" font-family="Helvetica,sans-Serif" font-size="12.00" fill="#000000">Macros.h</text>
</a>
</g>
</g>
<!-- Node1&#45;&gt;Node14 -->
<g id="edge14" class="edge">
<title>Node1&#45;&gt;Node14</title>
<path fill="none" stroke="#191970" d="M451.1383,-133.71C410.1919,-126.0447 348.8885,-111.7596 335,-93 324.7554,-79.1623 327.2861,-59.8266 332.2336,-44.1872"/>
<polygon fill="#191970" stroke="#191970" points="335.6134,-45.1329 335.7238,-34.5387 329.0308,-42.7517 335.6134,-45.1329"/>
</g>
<!-- Node15 -->
<g id="node16" class="node">
<title>Node15</title>
<g id="a_node16"><a xlink:href="Error_8h.html" target="_top" xlink:title="Defines the exception hierarchy used by this code. ">
<polygon fill="#ffffff" stroke="#000000" points="344.5,-71.5 344.5,-92.5 397.5,-92.5 397.5,-71.5 344.5,-71.5"/>
<text text-anchor="middle" x="371" y="-78.9" font-family="Helvetica,sans-Serif" font-size="12.00" fill="#000000">Error.h</text>
</a>
</g>
</g>
<!-- Node1&#45;&gt;Node15 -->
<g id="edge15" class="edge">
<title>Node1&#45;&gt;Node15</title>
<path fill="none" stroke="#191970" d="M467.6311,-129.4966C449.201,-120.4378 422.3629,-107.2462 401.6449,-97.0628"/>
<polygon fill="#191970" stroke="#191970" points="403.1271,-93.8914 392.6087,-92.6212 400.0392,-100.1735 403.1271,-93.8914"/>
</g>
<!-- Node18 -->
<g id="node19" class="node">
<title>Node18</title>
<g id="a_node19"><a xlink:href="AstronomicalConstants_8h.html" target="_top" xlink:title="Defines various astronomical constants. ">
<polygon fill="#ffffff" stroke="#000000" points="1128,-71.5 1128,-92.5 1278,-92.5 1278,-71.5 1128,-71.5"/>
<text text-anchor="middle" x="1203" y="-78.9" font-family="Helvetica,sans-Serif" font-size="12.00" fill="#000000">AstronomicalConstants.h</text>
</a>
</g>
</g>
<!-- Node1&#45;&gt;Node18 -->
<g id="edge20" class="edge">
<title>Node1&#45;&gt;Node18</title>
<path fill="none" stroke="#191970" d="M526.7621,-137.9458C623.3672,-132.5287 887.5596,-116.6961 1117.6817,-93.1996"/>
<polygon fill="#191970" stroke="#191970" points="1118.3321,-96.6512 1127.9216,-92.1466 1117.616,-89.688 1118.3321,-96.6512"/>
</g>
<!-- Node19 -->
<g id="node20" class="node">
<title>Node19</title>
<g id="a_node20"><a xlink:href="IncludeEigen_8h_source.html" target="_top" xlink:title="IncludeEigen.h">
<polygon fill="#ffffff" stroke="#000000" points="1295.5,-71.5 1295.5,-92.5 1392.5,-92.5 1392.5,-71.5 1295.5,-71.5"/>
<text text-anchor="middle" x="1344" y="-78.9" font-family="Helvetica,sans-Serif" font-size="12.00" fill="#000000">IncludeEigen.h</text>
</a>
</g>
</g>
<!-- Node1&#45;&gt;Node19 -->
<g id="edge21" class="edge">
<title>Node1&#45;&gt;Node19</title>
<path fill="none" stroke="#191970" d="M526.554,-139.5435C639.7787,-137.7957 987.8206,-129.7022 1285.1392,-93.1041"/>
<polygon fill="#191970" stroke="#191970" points="1285.7587,-96.5541 1295.25,-91.846 1284.8943,-89.6077 1285.7587,-96.5541"/>
</g>
<!-- Node15&#45;&gt;Node6 -->
<g id="edge17" class="edge">
<title>Node15&#45;&gt;Node6</title>
<path fill="none" stroke="#191970" d="M344.4212,-71.82C320.2311,-62.4797 283.5829,-48.1407 252,-35 249.673,-34.0318 247.2758,-33.0199 244.8657,-31.992"/>
<polygon fill="#191970" stroke="#191970" points="246.1969,-28.7545 235.6285,-28.0065 243.4237,-35.1818 246.1969,-28.7545"/>
</g>
<!-- Node15&#45;&gt;Node14 -->
<g id="edge16" class="edge">
<title>Node15&#45;&gt;Node14</title>
<path fill="none" stroke="#191970" d="M366.5415,-71.3491C363.4186,-63.8888 359.101,-53.5746 355.0796,-43.968"/>
<polygon fill="#191970" stroke="#191970" points="358.3022,-42.6021 351.2122,-34.7292 351.8451,-45.3051 358.3022,-42.6021"/>
</g>
<!-- Node16 -->
<g id="node17" class="node">
<title>Node16</title>
<polygon fill="#ffffff" stroke="#bfbfbf" points="509,-7 509,-28 577,-28 577,-7 509,-7"/>
<text text-anchor="middle" x="543" y="-14.4" font-family="Helvetica,sans-Serif" font-size="12.00" fill="#000000">exception</text>
</g>
<!-- Node15&#45;&gt;Node16 -->
<g id="edge18" class="edge">
<title>Node15&#45;&gt;Node16</title>
<path fill="none" stroke="#191970" d="M397.7906,-72.5661C423.9571,-63.275 464.8599,-48.5467 500,-35 502.6791,-33.9672 505.4453,-32.8829 508.2225,-31.7815"/>
<polygon fill="#191970" stroke="#191970" points="509.6185,-34.9927 517.5961,-28.0208 507.012,-28.4961 509.6185,-34.9927"/>
</g>
<!-- Node17 -->
<g id="node18" class="node">
<title>Node17</title>
<polygon fill="#ffffff" stroke="#bfbfbf" points="445,-7 445,-28 491,-28 491,-7 445,-7"/>
<text text-anchor="middle" x="468" y="-14.4" font-family="Helvetica,sans-Serif" font-size="12.00" fill="#000000">string</text>
</g>
<!-- Node15&#45;&gt;Node17 -->
<g id="edge19" class="edge">
<title>Node15&#45;&gt;Node17</title>
<path fill="none" stroke="#191970" d="M387.0176,-71.3491C402.3223,-61.1723 425.6138,-45.6847 443.2955,-33.9272"/>
<polygon fill="#191970" stroke="#191970" points="445.5695,-36.6183 451.9586,-28.1667 441.6935,-30.7893 445.5695,-36.6183"/>
</g>
<!-- Node20 -->
<g id="node21" class="node">
<title>Node20</title>
<polygon fill="#ffffff" stroke="#bfbfbf" points="1301,-7 1301,-28 1387,-28 1387,-7 1301,-7"/>
<text text-anchor="middle" x="1344" y="-14.4" font-family="Helvetica,sans-Serif" font-size="12.00" fill="#000000">Eigen/Dense</text>
</g>
<!-- Node19&#45;&gt;Node20 -->
<g id="edge22" class="edge">
<title>Node19&#45;&gt;Node20</title>
<path fill="none" stroke="#191970" d="M1344,-71.3491C1344,-62.4397 1344,-49.4599 1344,-38.4761"/>
<polygon fill="#191970" stroke="#191970" points="1347.5001,-38.3822 1344,-28.3823 1340.5001,-38.3823 1347.5001,-38.3822"/>
</g>
</g>
</svg>
