<?xml version="1.0" encoding="UTF-8" standalone="no"?>
<!DOCTYPE svg PUBLIC "-//W3C//DTD SVG 1.1//EN"
 "http://www.w3.org/Graphics/SVG/1.1/DTD/svg11.dtd">
<!-- Generated by graphviz version 2.40.1 (20161225.0304)
 -->
<!-- Title: /Users/kpenev/projects/git/poet/poet_src/StellarEvolution Pages: 1 -->
<svg width="140pt" height="152pt"
 viewBox="0.00 0.00 140.00 152.00" xmlns="http://www.w3.org/2000/svg" xmlns:xlink="http://www.w3.org/1999/xlink">
<g id="graph0" class="graph" transform="scale(1 1) rotate(0) translate(4 148)">
<title>/Users/kpenev/projects/git/poet/poet_src/StellarEvolution</title>
<polygon fill="#ffffff" stroke="transparent" points="-4,4 -4,-148 136,-148 136,4 -4,4"/>
<g id="clust1" class="cluster">
<title>clusterdir_e247b8950c2da2f51dd8497aec65ce0d</title>
<g id="a_clust1"><a xlink:href="dir_e247b8950c2da2f51dd8497aec65ce0d.html" target="_top" xlink:title="poet_src">
<polygon fill="#ddddee" stroke="#000000" points="8,-64 8,-136 124,-136 124,-64 8,-64"/>
<text text-anchor="middle" x="66" y="-122.4" font-family="Helvetica,sans-Serif" font-size="12.00" fill="#000000">poet_src</text>
</a>
</g>
</g>
<!-- dir_775c09f450d254cf7dec4bdc09cace5f -->
<g id="node1" class="node">
<title>dir_775c09f450d254cf7dec4bdc09cace5f</title>
<g id="a_node1"><a xlink:href="dir_775c09f450d254cf7dec4bdc09cace5f.html" target="_top" xlink:title="StellarEvolution">
<polygon fill="#eeeeff" stroke="#000000" points="115.8796,-108 16.1204,-108 16.1204,-72 115.8796,-72 115.8796,-108"/>
<text text-anchor="middle" x="66" y="-86.4" font-family="Helvetica,sans-Serif" font-size="12.00" fill="#000000">StellarEvolution</text>
</a>
</g>
</g>
<!-- dir_08389f9c72fab3fa939892ce5a81a233 -->
<g id="node2" class="node">
<title>dir_08389f9c72fab3fa939892ce5a81a233</title>
<g id="a_node2"><a xlink:href="dir_08389f9c72fab3fa939892ce5a81a233.html" target="_top" xlink:title="Core">
<polygon fill="none" stroke="#000000" points="93,-36 39,-36 39,0 93,0 93,-36"/>
<text text-anchor="middle" x="66" y="-14.4" font-family="Helvetica,sans-Serif" font-size="12.00" fill="#000000">Core</text>
</a>
</g>
</g>
<!-- dir_775c09f450d254cf7dec4bdc09cace5f&#45;&gt;dir_08389f9c72fab3fa939892ce5a81a233 -->
<g id="edge1" class="edge">
<title>dir_775c09f450d254cf7dec4bdc09cace5f&#45;&gt;dir_08389f9c72fab3fa939892ce5a81a233</title>
<path fill="none" stroke="#000000" d="M66,-71.8314C66,-64.131 66,-54.9743 66,-46.4166"/>
<polygon fill="#000000" stroke="#000000" points="69.5001,-46.4132 66,-36.4133 62.5001,-46.4133 69.5001,-46.4132"/>
<g id="a_edge1&#45;headlabel"><a xlink:href="dir_000008_000002.html" target="_top" xlink:title="14">
<text text-anchor="middle" x="72.3393" y="-46.4079" font-family="Helvetica,sans-Serif" font-size="12.00" fill="#000000">14</text>
</a>
</g>
</g>
</g>
</svg>
