<?xml version="1.0" encoding="UTF-8" standalone="no"?>
<!DOCTYPE svg PUBLIC "-//W3C//DTD SVG 1.1//EN"
 "http://www.w3.org/Graphics/SVG/1.1/DTD/svg11.dtd">
<!-- Generated by graphviz version 2.40.1 (20161225.0304)
 -->
<!-- Title: /Users/kpenev/projects/git/poet/poet_src/Evolve/DissipationQuantities.h Pages: 1 -->
<svg width="323pt" height="122pt"
 viewBox="0.00 0.00 323.04 122.00" xmlns="http://www.w3.org/2000/svg" xmlns:xlink="http://www.w3.org/1999/xlink">
<g id="graph0" class="graph" transform="scale(1 1) rotate(0) translate(4 118)">
<title>/Users/kpenev/projects/git/poet/poet_src/Evolve/DissipationQuantities.h</title>
<polygon fill="#ffffff" stroke="transparent" points="-4,4 -4,-118 319.04,-118 319.04,4 -4,4"/>
<!-- Node0 -->
<g id="node1" class="node">
<title>Node0</title>
<polygon fill="#bfbfbf" stroke="#000000" points="138.9971,-69.5 138.9971,-113.5 286.4053,-113.5 286.4053,-69.5 138.9971,-69.5"/>
<text text-anchor="start" x="146.9971" y="-99.9" font-family="Helvetica,sans-Serif" font-size="12.00" fill="#000000">/Users/kpenev/projects</text>
<text text-anchor="start" x="146.9971" y="-87.9" font-family="Helvetica,sans-Serif" font-size="12.00" fill="#000000">/git/poet/poet_src/Evolve</text>
<text text-anchor="middle" x="212.7012" y="-75.9" font-family="Helvetica,sans-Serif" font-size="12.00" fill="#000000">/DissipationQuantities.h</text>
</g>
<!-- Node1 -->
<g id="node2" class="node">
<title>Node1</title>
<g id="a_node2"><a xlink:href="SharedLibraryExportMacros_8h_source.html" target="_top" xlink:title="../Core/SharedLibraryExport\lMacros.h">
<polygon fill="#ffffff" stroke="#000000" points="0,-.5 0,-32.5 165.4023,-32.5 165.4023,-.5 0,-.5"/>
<text text-anchor="start" x="8" y="-18.9" font-family="Helvetica,sans-Serif" font-size="12.00" fill="#000000">../Core/SharedLibraryExport</text>
<text text-anchor="middle" x="82.7012" y="-6.9" font-family="Helvetica,sans-Serif" font-size="12.00" fill="#000000">Macros.h</text>
</a>
</g>
</g>
<!-- Node0&#45;&gt;Node1 -->
<g id="edge1" class="edge">
<title>Node0&#45;&gt;Node1</title>
<path fill="none" stroke="#191970" d="M174.4,-69.4032C157.2114,-59.4866 137.0078,-47.8308 119.9458,-37.9873"/>
<polygon fill="#191970" stroke="#191970" points="121.2401,-34.6933 110.8292,-32.7277 117.742,-40.7566 121.2401,-34.6933"/>
</g>
<!-- Node2 -->
<g id="node3" class="node">
<title>Node2</title>
<polygon fill="#ffffff" stroke="#bfbfbf" points="183.0273,-6.5 183.0273,-26.5 242.375,-26.5 242.375,-6.5 183.0273,-6.5"/>
<text text-anchor="middle" x="212.7012" y="-12.9" font-family="Helvetica,sans-Serif" font-size="12.00" fill="#000000">ostream</text>
</g>
<!-- Node0&#45;&gt;Node2 -->
<g id="edge2" class="edge">
<title>Node0&#45;&gt;Node2</title>
<path fill="none" stroke="#191970" d="M212.7012,-69.4032C212.7012,-59.1059 212.7012,-46.9331 212.7012,-36.8616"/>
<polygon fill="#191970" stroke="#191970" points="216.2013,-36.5953 212.7012,-26.5954 209.2013,-36.5954 216.2013,-36.5953"/>
</g>
<!-- Node3 -->
<g id="node4" class="node">
<title>Node3</title>
<polygon fill="#ffffff" stroke="#bfbfbf" points="260.3623,-6.5 260.3623,-26.5 315.04,-26.5 315.04,-6.5 260.3623,-6.5"/>
<text text-anchor="middle" x="287.7012" y="-12.9" font-family="Helvetica,sans-Serif" font-size="12.00" fill="#000000">cassert</text>
</g>
<!-- Node0&#45;&gt;Node3 -->
<g id="edge3" class="edge">
<title>Node0&#45;&gt;Node3</title>
<path fill="none" stroke="#191970" d="M234.798,-69.4032C246.2025,-57.9986 259.9076,-44.2936 270.5106,-33.6905"/>
<polygon fill="#191970" stroke="#191970" points="273.0096,-36.1413 277.6058,-26.5954 268.0598,-31.1916 273.0096,-36.1413"/>
</g>
</g>
</svg>
