<?xml version="1.0" encoding="UTF-8" standalone="no"?>
<!DOCTYPE svg PUBLIC "-//W3C//DTD SVG 1.1//EN"
 "http://www.w3.org/Graphics/SVG/1.1/DTD/svg11.dtd">
<!-- Generated by graphviz version 2.40.1 (20161225.0304)
 -->
<!-- Title: /Users/kpenev/projects/git/poet/poet_src/Evolve/DissipatingBody.h Pages: 1 -->
<!--zoomable 407 -->
<svg id="main" version="1.1" xmlns="http://www.w3.org/2000/svg" xmlns:xlink="http://www.w3.org/1999/xlink" xml:space="preserve" onload="init(evt)">
<style type="text/css"><![CDATA[
.edge:hover path { stroke: red; }
.edge:hover polygon { stroke: red; fill: red; }
]]></style>
<script type="text/javascript"><![CDATA[
var edges = document.getElementsByTagName('g');
if (edges && edges.length) {
  for (var i=0;i<edges.length;i++) {
    if (edges[i].id.substr(0,4)=='edge') {
      edges[i].setAttribute('class','edge');
    }
  }
}
]]></script>
        <defs>
                <circle id="rim" cx="0" cy="0" r="7"/>
                <circle id="rim2" cx="0" cy="0" r="3.5"/>
                <g id="zoomPlus">
                        <use xlink:href="#rim" fill="#404040">
                                <set attributeName="fill" to="#808080" begin="zoomplus.mouseover" end="zoomplus.mouseout"/>
                        </use>
                        <path d="M-4,0h8M0,-4v8" fill="none" stroke="white" stroke-width="1.5" pointer-events="none"/>
                </g>
                <g id="zoomMin">
                        <use xlink:href="#rim" fill="#404040">
                                <set attributeName="fill" to="#808080" begin="zoomminus.mouseover" end="zoomminus.mouseout"/>
                        </use>
                        <path d="M-4,0h8" fill="none" stroke="white" stroke-width="1.5" pointer-events="none"/>
                </g>
                <g id="dirArrow">
                        <path fill="none" stroke="white" stroke-width="1.5" d="M0,-3.0v7 M-2.5,-0.5L0,-3.0L2.5,-0.5"/>
                </g>
               <g id="resetDef">
                       <use xlink:href="#rim2" fill="#404040">
                               <set attributeName="fill" to="#808080" begin="reset.mouseover" end="reset.mouseout"/>
                       </use>
               </g>
        </defs>

<script type="text/javascript">
var viewWidth = 2375;
var viewHeight = 407;
var sectionId = 'dynsection-0';
</script>
<script xlink:href="svgpan.js"/>
<svg id="graph" class="graph">
<g id="viewport">
<title>/Users/kpenev/projects/git/poet/poet_src/Evolve/DissipatingBody.h</title>
<polygon fill="#ffffff" stroke="transparent" points="-4,4 -4,-403 2370.6963,-403 2370.6963,4 -4,4"/>
<!-- Node0 -->
<g id="node1" class="node">
<title>Node0</title>
<polygon fill="#bfbfbf" stroke="#000000" points="1146.2959,-354.5 1146.2959,-398.5 1293.7041,-398.5 1293.7041,-354.5 1146.2959,-354.5"/>
<text text-anchor="start" x="1154.2959" y="-384.9" font-family="Helvetica,sans-Serif" font-size="12.00" fill="#000000">/Users/kpenev/projects</text>
<text text-anchor="start" x="1154.2959" y="-372.9" font-family="Helvetica,sans-Serif" font-size="12.00" fill="#000000">/git/poet/poet_src/Evolve</text>
<text text-anchor="middle" x="1220" y="-360.9" font-family="Helvetica,sans-Serif" font-size="12.00" fill="#000000">/DissipatingBody.h</text>
</g>
<!-- Node1 -->
<g id="node2" class="node">
<title>Node1</title>
<g id="a_node2"><a xlink:href="SharedLibraryExportMacros_8h_source.html" target="_top" xlink:title="../Core/SharedLibraryExport\lMacros.h">
<polygon fill="#ffffff" stroke="#000000" points="361.2988,-.5 361.2988,-32.5 526.7012,-32.5 526.7012,-.5 361.2988,-.5"/>
<text text-anchor="start" x="369.2988" y="-18.9" font-family="Helvetica,sans-Serif" font-size="12.00" fill="#000000">../Core/SharedLibraryExport</text>
<text text-anchor="middle" x="444" y="-6.9" font-family="Helvetica,sans-Serif" font-size="12.00" fill="#000000">Macros.h</text>
</a>
</g>
</g>
<!-- Node0&#45;&gt;Node1 -->
<g id="edge1" class="edge">
<title>Node0&#45;&gt;Node1</title>
<path fill="none" stroke="#191970" d="M1197.9414,-354.4303C1138.637,-296.5756 968.4212,-140.0978 794,-69 748.7324,-50.548 624.5222,-34.7515 536.9917,-25.438"/>
<polygon fill="#191970" stroke="#191970" points="537.3532,-21.9568 527.0416,-24.3903 536.6201,-28.9184 537.3532,-21.9568"/>
</g>
<!-- Node2 -->
<g id="node3" class="node">
<title>Node2</title>
<g id="a_node3"><a xlink:href="DissipatingZone_8h.html" target="_top" xlink:title="Declares a class representing one zone of a body dissipative to tidal distortions. ">
<polygon fill="#ffffff" stroke="#000000" points="759.9736,-297.5 759.9736,-317.5 872.0264,-317.5 872.0264,-297.5 759.9736,-297.5"/>
<text text-anchor="middle" x="816" y="-303.9" font-family="Helvetica,sans-Serif" font-size="12.00" fill="#000000">DissipatingZone.h</text>
</a>
</g>
</g>
<!-- Node0&#45;&gt;Node2 -->
<g id="edge2" class="edge">
<title>Node0&#45;&gt;Node2</title>
<path fill="none" stroke="#191970" d="M1145.9002,-363.8443C1070.4059,-350.9505 954.4222,-331.1414 881.9967,-318.7717"/>
<polygon fill="#191970" stroke="#191970" points="882.5215,-315.3107 872.0749,-317.0772 881.3429,-322.2108 882.5215,-315.3107"/>
</g>
<!-- Node6 -->
<g id="node7" class="node">
<title>Node6</title>
<polygon fill="#ffffff" stroke="#bfbfbf" points="179.6611,-69.5 179.6611,-89.5 234.3389,-89.5 234.3389,-69.5 179.6611,-69.5"/>
<text text-anchor="middle" x="207" y="-75.9" font-family="Helvetica,sans-Serif" font-size="12.00" fill="#000000">cassert</text>
</g>
<!-- Node0&#45;&gt;Node6 -->
<g id="edge75" class="edge">
<title>Node0&#45;&gt;Node6</title>
<path fill="none" stroke="#191970" d="M1145.9761,-372.7597C881.6526,-358.9219 0,-308.4242 0,-250.5 0,-250.5 0,-250.5 0,-193.5 0,-117.0612 109.6425,-91.5019 169.3347,-83.2509"/>
<polygon fill="#191970" stroke="#191970" points="170.039,-86.6893 179.512,-81.9446 169.1478,-79.7462 170.039,-86.6893"/>
</g>
<!-- Node7 -->
<g id="node8" class="node">
<title>Node7</title>
<g id="a_node8"><a xlink:href="Core_2Common_8h.html" target="_top" xlink:title="Declaration of some general purpose utilities. ">
<polygon fill="#ffffff" stroke="#000000" points="1209.9834,-126.5 1209.9834,-146.5 1324.0166,-146.5 1324.0166,-126.5 1209.9834,-126.5"/>
<text text-anchor="middle" x="1267" y="-132.9" font-family="Helvetica,sans-Serif" font-size="12.00" fill="#000000">../Core/Common.h</text>
</a>
</g>
</g>
<!-- Node0&#45;&gt;Node7 -->
<g id="edge73" class="edge">
<title>Node0&#45;&gt;Node7</title>
<path fill="none" stroke="#191970" d="M1219.0557,-354.3774C1218.1712,-317.7404 1219.2537,-242.5988 1239,-183 1242.2731,-173.121 1247.9331,-163.1118 1253.3114,-154.9232"/>
<polygon fill="#191970" stroke="#191970" points="1256.293,-156.7657 1259.1218,-146.5555 1250.5432,-152.7732 1256.293,-156.7657"/>
</g>
<!-- Node9 -->
<g id="node10" class="node">
<title>Node9</title>
<polygon fill="#ffffff" stroke="#bfbfbf" points="1962.6602,-69.5 1962.6602,-89.5 2021.3398,-89.5 2021.3398,-69.5 1962.6602,-69.5"/>
<text text-anchor="middle" x="1992" y="-75.9" font-family="Helvetica,sans-Serif" font-size="12.00" fill="#000000">valarray</text>
</g>
<!-- Node0&#45;&gt;Node9 -->
<g id="edge74" class="edge">
<title>Node0&#45;&gt;Node9</title>
<path fill="none" stroke="#191970" d="M1293.8115,-369.4079C1460.1732,-352.4295 1850,-306.6539 1850,-250.5 1850,-250.5 1850,-250.5 1850,-193.5 1850,-162.3342 1847.9423,-148.9757 1869,-126 1880.622,-113.3194 1921.1806,-99.4554 1952.5824,-90.1949"/>
<polygon fill="#191970" stroke="#191970" points="1953.7716,-93.4946 1962.4078,-87.3573 1951.8293,-86.7694 1953.7716,-93.4946"/>
</g>
<!-- Node22 -->
<g id="node23" class="node">
<title>Node22</title>
<g id="a_node23"><a xlink:href="AstronomicalConstants_8h.html" target="_top" xlink:title="Defines various astronomical constants. ">
<polygon fill="#ffffff" stroke="#000000" points="2039.3027,-69.5 2039.3027,-89.5 2188.6973,-89.5 2188.6973,-69.5 2039.3027,-69.5"/>
<text text-anchor="middle" x="2114" y="-75.9" font-family="Helvetica,sans-Serif" font-size="12.00" fill="#000000">AstronomicalConstants.h</text>
</a>
</g>
</g>
<!-- Node0&#45;&gt;Node22 -->
<g id="edge72" class="edge">
<title>Node0&#45;&gt;Node22</title>
<path fill="none" stroke="#191970" d="M1293.7483,-373.3081C1500.7242,-363.3749 2072,-328.8607 2072,-250.5 2072,-250.5 2072,-250.5 2072,-193.5 2072,-158.2234 2089.9268,-120.3823 2102.3564,-98.3846"/>
<polygon fill="#191970" stroke="#191970" points="2105.3984,-100.1161 2107.4375,-89.7193 2099.36,-96.5753 2105.3984,-100.1161"/>
</g>
<!-- Node37 -->
<g id="node38" class="node">
<title>Node37</title>
<g id="a_node38"><a xlink:href="OrbitalExpressions_8h.html" target="_top" xlink:title="A collection of functions which calculate various quantities for two body orbits. ...">
<polygon fill="#ffffff" stroke="#000000" points="1877.9707,-126.5 1877.9707,-146.5 2044.0293,-146.5 2044.0293,-126.5 1877.9707,-126.5"/>
<text text-anchor="middle" x="1961" y="-132.9" font-family="Helvetica,sans-Serif" font-size="12.00" fill="#000000">../Core/OrbitalExpressions.h</text>
</a>
</g>
</g>
<!-- Node0&#45;&gt;Node37 -->
<g id="edge68" class="edge">
<title>Node0&#45;&gt;Node37</title>
<path fill="none" stroke="#191970" d="M1293.7395,-373.717C1452.7521,-367.1582 1817.3564,-348.913 1864,-318 1921.7351,-279.7361 1947.6538,-195.3401 1956.8344,-156.625"/>
<polygon fill="#191970" stroke="#191970" points="1960.3131,-157.1063 1959.0783,-146.5836 1953.4816,-155.5796 1960.3131,-157.1063"/>
</g>
<!-- Node2&#45;&gt;Node1 -->
<g id="edge32" class="edge">
<title>Node2&#45;&gt;Node1</title>
<path fill="none" stroke="#191970" d="M812.3549,-297.278C805.641,-277.5074 792,-232.5352 792,-193.5 792,-193.5 792,-193.5 792,-136.5 792,-105.3342 796.2794,-89.7214 773,-69 738.9044,-38.651 621.7918,-25.7684 536.989,-20.351"/>
<polygon fill="#191970" stroke="#191970" points="537.0107,-16.8458 526.8151,-19.7267 536.5819,-23.8327 537.0107,-16.8458"/>
</g>
<!-- Node3 -->
<g id="node4" class="node">
<title>Node3</title>
<g id="a_node4"><a xlink:href="ZoneOrientation_8h.html" target="_top" xlink:title="Declares a class for orientations of zones of DissipatingBody objects. ">
<polygon fill="#ffffff" stroke="#000000" points="651.9707,-183.5 651.9707,-203.5 764.0293,-203.5 764.0293,-183.5 651.9707,-183.5"/>
<text text-anchor="middle" x="708" y="-189.9" font-family="Helvetica,sans-Serif" font-size="12.00" fill="#000000">ZoneOrientation.h</text>
</a>
</g>
</g>
<!-- Node2&#45;&gt;Node3 -->
<g id="edge3" class="edge">
<title>Node2&#45;&gt;Node3</title>
<path fill="none" stroke="#191970" d="M806.4157,-297.3833C788.0488,-277.9959 747.6861,-235.3909 724.7655,-211.1969"/>
<polygon fill="#191970" stroke="#191970" points="727.1364,-208.6104 717.718,-203.7579 722.0547,-213.4246 727.1364,-208.6104"/>
</g>
<!-- Node4 -->
<g id="node5" class="node">
<title>Node4</title>
<g id="a_node5"><a xlink:href="DissipationQuantities_8h.html" target="_top" xlink:title="Declaration of enumerations of dissipation quantities and derivatives. ">
<polygon fill="#ffffff" stroke="#000000" points="190.6348,-126.5 190.6348,-146.5 329.3652,-146.5 329.3652,-126.5 190.6348,-126.5"/>
<text text-anchor="middle" x="260" y="-132.9" font-family="Helvetica,sans-Serif" font-size="12.00" fill="#000000">DissipationQuantities.h</text>
</a>
</g>
</g>
<!-- Node2&#45;&gt;Node4 -->
<g id="edge49" class="edge">
<title>Node2&#45;&gt;Node4</title>
<path fill="none" stroke="#191970" d="M783.2954,-297.4416C687.7949,-268.07 409.3451,-182.4317 302.4597,-149.5586"/>
<polygon fill="#191970" stroke="#191970" points="303.2505,-146.1401 292.6634,-146.5458 301.1927,-152.8308 303.2505,-146.1401"/>
</g>
<!-- Node2&#45;&gt;Node7 -->
<g id="edge66" class="edge">
<title>Node2&#45;&gt;Node7</title>
<path fill="none" stroke="#191970" d="M842.5284,-297.4416C919.5251,-268.2477 1143.1318,-183.4656 1230.9704,-150.1609"/>
<polygon fill="#191970" stroke="#191970" points="1232.3955,-153.3638 1240.5051,-146.5458 1229.9137,-146.8185 1232.3955,-153.3638"/>
</g>
<!-- Node2&#45;&gt;Node9 -->
<g id="edge67" class="edge">
<title>Node2&#45;&gt;Node9</title>
<path fill="none" stroke="#191970" d="M872.2346,-297.6088C925.2997,-288.2538 1007.0755,-273.7829 1078,-261 1355.023,-211.0716 1425.221,-203.3958 1701,-147 1810.4249,-124.623 1839.9402,-117.9608 1952.9161,-89.9533"/>
<polygon fill="#191970" stroke="#191970" points="1953.7825,-93.3445 1962.6457,-87.5398 1952.0971,-86.5504 1953.7825,-93.3445"/>
</g>
<!-- Node19 -->
<g id="node20" class="node">
<title>Node19</title>
<g id="a_node20"><a xlink:href="Error_8h.html" target="_top" xlink:title="Defines the exception hierarchy used by this code. ">
<polygon fill="#ffffff" stroke="#000000" points="895.9912,-69.5 895.9912,-89.5 948.0088,-89.5 948.0088,-69.5 895.9912,-69.5"/>
<text text-anchor="middle" x="922" y="-75.9" font-family="Helvetica,sans-Serif" font-size="12.00" fill="#000000">Error.h</text>
</a>
</g>
</g>
<!-- Node2&#45;&gt;Node19 -->
<g id="edge33" class="edge">
<title>Node2&#45;&gt;Node19</title>
<path fill="none" stroke="#191970" d="M820.6915,-297.4089C836.9695,-262.3957 891.2028,-145.743 912.9067,-99.0591"/>
<polygon fill="#191970" stroke="#191970" points="916.2004,-100.2767 917.2425,-89.7332 909.8528,-97.3256 916.2004,-100.2767"/>
</g>
<!-- Node25 -->
<g id="node26" class="node">
<title>Node25</title>
<g id="a_node26"><a xlink:href="TidalPotentialTerms_8h.html" target="_top" xlink:title="Declare an interface for evaluating the expansion of the tidal potential. ">
<polygon fill="#ffffff" stroke="#000000" points="1247.5283,-183.5 1247.5283,-203.5 1378.4717,-203.5 1378.4717,-183.5 1247.5283,-183.5"/>
<text text-anchor="middle" x="1313" y="-189.9" font-family="Helvetica,sans-Serif" font-size="12.00" fill="#000000">TidalPotentialTerms.h</text>
</a>
</g>
</g>
<!-- Node2&#45;&gt;Node25 -->
<g id="edge34" class="edge">
<title>Node2&#45;&gt;Node25</title>
<path fill="none" stroke="#191970" d="M859.6698,-297.4832C950.6992,-276.6032 1160.4764,-228.4853 1259.4551,-205.7819"/>
<polygon fill="#191970" stroke="#191970" points="1260.2872,-209.182 1269.2516,-203.5348 1258.7222,-202.3592 1260.2872,-209.182"/>
</g>
<!-- Node32 -->
<g id="node33" class="node">
<title>Node32</title>
<g id="a_node33"><a xlink:href="SpinOrbitLockInfo_8h.html" target="_top" xlink:title="Defines the SpinOrbitLockInfo class. ">
<polygon fill="#ffffff" stroke="#000000" points="2245.3037,-69.5 2245.3037,-89.5 2366.6963,-89.5 2366.6963,-69.5 2245.3037,-69.5"/>
<text text-anchor="middle" x="2306" y="-75.9" font-family="Helvetica,sans-Serif" font-size="12.00" fill="#000000">SpinOrbitLockInfo.h</text>
</a>
</g>
</g>
<!-- Node2&#45;&gt;Node32 -->
<g id="edge50" class="edge">
<title>Node2&#45;&gt;Node32</title>
<path fill="none" stroke="#191970" d="M872.2144,-302.8648C1047.892,-287.8127 1601.7923,-236.0603 2053,-147 2128.3135,-132.1345 2214.3529,-107.5102 2264.1976,-92.4698"/>
<polygon fill="#191970" stroke="#191970" points="2265.4165,-95.7576 2273.9689,-89.504 2263.3834,-89.0593 2265.4165,-95.7576"/>
</g>
<!-- Node33 -->
<g id="node34" class="node">
<title>Node33</title>
<g id="a_node34"><a xlink:href="CombinedStoppingCondition_8h.html" target="_top" xlink:title="Declares a class for a stopping condition that combines other stopping conditions. ">
<polygon fill="#ffffff" stroke="#000000" points="346.6104,-240.5 346.6104,-260.5 525.3896,-260.5 525.3896,-240.5 346.6104,-240.5"/>
<text text-anchor="middle" x="436" y="-246.9" font-family="Helvetica,sans-Serif" font-size="12.00" fill="#000000">CombinedStoppingCondition.h</text>
</a>
</g>
</g>
<!-- Node2&#45;&gt;Node33 -->
<g id="edge53" class="edge">
<title>Node2&#45;&gt;Node33</title>
<path fill="none" stroke="#191970" d="M759.9297,-299.0895C694.5653,-289.2848 586.1734,-273.026 512.9629,-262.0444"/>
<polygon fill="#191970" stroke="#191970" points="513.2828,-258.5533 502.8742,-260.5311 512.2444,-265.4759 513.2828,-258.5533"/>
</g>
<!-- Node35 -->
<g id="node36" class="node">
<title>Node35</title>
<g id="a_node36"><a xlink:href="BreakLockCondition_8h.html" target="_top" xlink:title="Declares a class for a stopping condition monitoring when a locked zone loses the lock...">
<polygon fill="#ffffff" stroke="#000000" points="195.2979,-240.5 195.2979,-260.5 328.7021,-260.5 328.7021,-240.5 195.2979,-240.5"/>
<text text-anchor="middle" x="262" y="-246.9" font-family="Helvetica,sans-Serif" font-size="12.00" fill="#000000">BreakLockCondition.h</text>
</a>
</g>
</g>
<!-- Node2&#45;&gt;Node35 -->
<g id="edge60" class="edge">
<title>Node2&#45;&gt;Node35</title>
<path fill="none" stroke="#191970" d="M759.6288,-302.7576C671.9855,-295.2207 497.5015,-279.5636 338.6639,-261.0385"/>
<polygon fill="#191970" stroke="#191970" points="339.0482,-257.5597 328.7086,-259.8712 338.2329,-264.5121 339.0482,-257.5597"/>
</g>
<!-- Node36 -->
<g id="node37" class="node">
<title>Node36</title>
<g id="a_node37"><a xlink:href="SynchronizedCondition_8h.html" target="_top" xlink:title="Declares a stopping condition monitoring spin&#45;orbit synchronization. ">
<polygon fill="#ffffff" stroke="#000000" points="28.291,-240.5 28.291,-260.5 177.709,-260.5 177.709,-240.5 28.291,-240.5"/>
<text text-anchor="middle" x="103" y="-246.9" font-family="Helvetica,sans-Serif" font-size="12.00" fill="#000000">SynchronizedCondition.h</text>
</a>
</g>
</g>
<!-- Node2&#45;&gt;Node36 -->
<g id="edge63" class="edge">
<title>Node2&#45;&gt;Node36</title>
<path fill="none" stroke="#191970" d="M759.8684,-304.3426C651.3585,-298.0241 405.0382,-282.6373 188.0642,-261.1705"/>
<polygon fill="#191970" stroke="#191970" points="188.3789,-257.6846 178.0813,-260.1764 187.6852,-264.6502 188.3789,-257.6846"/>
</g>
<!-- Node3&#45;&gt;Node1 -->
<g id="edge4" class="edge">
<title>Node3&#45;&gt;Node1</title>
<path fill="none" stroke="#191970" d="M651.8102,-185.1286C562.3059,-170.5102 393.873,-137.311 359,-90 343.779,-69.3501 366.6214,-50.5217 392.4401,-37.0918"/>
<polygon fill="#191970" stroke="#191970" points="394.2071,-40.1234 401.6391,-32.5725 391.1204,-33.8406 394.2071,-40.1234"/>
</g>
<!-- Node3&#45;&gt;Node4 -->
<g id="edge5" class="edge">
<title>Node3&#45;&gt;Node4</title>
<path fill="none" stroke="#191970" d="M651.7141,-186.3386C572.9666,-176.3194 429.5134,-158.0676 339.7792,-146.6505"/>
<polygon fill="#191970" stroke="#191970" points="340.0122,-143.152 329.6504,-145.3618 339.1287,-150.096 340.0122,-143.152"/>
</g>
<!-- Node3&#45;&gt;Node7 -->
<g id="edge9" class="edge">
<title>Node3&#45;&gt;Node7</title>
<path fill="none" stroke="#191970" d="M764.1585,-187.7736C867.6587,-177.22 1088.0845,-154.7436 1199.5169,-143.3811"/>
<polygon fill="#191970" stroke="#191970" points="1200.0343,-146.8466 1209.6277,-142.3501 1199.3242,-139.8827 1200.0343,-146.8466"/>
</g>
<!-- Node23 -->
<g id="node24" class="node">
<title>Node23</title>
<g id="a_node24"><a xlink:href="IncludeEigen_8h_source.html" target="_top" xlink:title="IncludeEigen.h">
<polygon fill="#ffffff" stroke="#000000" points="1782.3027,-69.5 1782.3027,-89.5 1877.6973,-89.5 1877.6973,-69.5 1782.3027,-69.5"/>
<text text-anchor="middle" x="1830" y="-75.9" font-family="Helvetica,sans-Serif" font-size="12.00" fill="#000000">IncludeEigen.h</text>
</a>
</g>
</g>
<!-- Node3&#45;&gt;Node23 -->
<g id="edge31" class="edge">
<title>Node3&#45;&gt;Node23</title>
<path fill="none" stroke="#191970" d="M764.127,-190.4702C873.6817,-184.3028 1123.6101,-168.9879 1333,-147 1492.4307,-130.2583 1679.5832,-102.6877 1772.1356,-88.5211"/>
<polygon fill="#191970" stroke="#191970" points="1772.7858,-91.9624 1782.139,-86.9857 1771.7237,-85.0434 1772.7858,-91.9624"/>
</g>
<!-- Node4&#45;&gt;Node1 -->
<g id="edge6" class="edge">
<title>Node4&#45;&gt;Node1</title>
<path fill="none" stroke="#191970" d="M226.833,-126.4345C193.7454,-114.7064 150.5605,-93.7447 171,-69 193.7046,-41.5131 281.1213,-28.2668 350.9997,-21.979"/>
<polygon fill="#191970" stroke="#191970" points="351.5106,-25.448 361.1726,-21.1009 350.9086,-18.4739 351.5106,-25.448"/>
</g>
<!-- Node5 -->
<g id="node6" class="node">
<title>Node5</title>
<polygon fill="#ffffff" stroke="#bfbfbf" points="252.3262,-69.5 252.3262,-89.5 311.6738,-89.5 311.6738,-69.5 252.3262,-69.5"/>
<text text-anchor="middle" x="282" y="-75.9" font-family="Helvetica,sans-Serif" font-size="12.00" fill="#000000">ostream</text>
</g>
<!-- Node4&#45;&gt;Node5 -->
<g id="edge7" class="edge">
<title>Node4&#45;&gt;Node5</title>
<path fill="none" stroke="#191970" d="M263.9332,-126.3095C266.8426,-118.7714 270.8959,-108.2696 274.4262,-99.123"/>
<polygon fill="#191970" stroke="#191970" points="277.7653,-100.1918 278.1009,-89.6022 271.2348,-97.6712 277.7653,-100.1918"/>
</g>
<!-- Node4&#45;&gt;Node6 -->
<g id="edge8" class="edge">
<title>Node4&#45;&gt;Node6</title>
<path fill="none" stroke="#191970" d="M250.5247,-126.3095C242.9879,-118.204 232.2651,-106.672 223.3487,-97.0826"/>
<polygon fill="#191970" stroke="#191970" points="225.766,-94.5423 216.3933,-89.6022 220.6396,-99.3089 225.766,-94.5423"/>
</g>
<!-- Node7&#45;&gt;Node1 -->
<g id="edge22" class="edge">
<title>Node7&#45;&gt;Node1</title>
<path fill="none" stroke="#191970" d="M1209.8633,-131.8469C1119.0769,-124.0602 946.1061,-107.5115 887,-90 866.6077,-83.9584 864.3657,-75.1307 844,-69 741.6329,-38.1843 619.1396,-25.4518 536.9095,-20.1938"/>
<polygon fill="#191970" stroke="#191970" points="537.0309,-16.6947 526.8348,-19.5741 536.601,-23.6815 537.0309,-16.6947"/>
</g>
<!-- Node7&#45;&gt;Node6 -->
<g id="edge21" class="edge">
<title>Node7&#45;&gt;Node6</title>
<path fill="none" stroke="#191970" d="M1209.8383,-135.6956C1026.0579,-132.8331 450.8176,-121.6518 244.4917,-89.8393"/>
<polygon fill="#191970" stroke="#191970" points="244.7901,-86.3424 234.3613,-88.2105 243.6788,-93.2537 244.7901,-86.3424"/>
</g>
<!-- Node8 -->
<g id="node9" class="node">
<title>Node8</title>
<polygon fill="#ffffff" stroke="#bfbfbf" points="1328.667,-69.5 1328.667,-89.5 1359.333,-89.5 1359.333,-69.5 1328.667,-69.5"/>
<text text-anchor="middle" x="1344" y="-75.9" font-family="Helvetica,sans-Serif" font-size="12.00" fill="#000000">list</text>
</g>
<!-- Node7&#45;&gt;Node8 -->
<g id="edge10" class="edge">
<title>Node7&#45;&gt;Node8</title>
<path fill="none" stroke="#191970" d="M1280.7661,-126.3095C1292.2631,-117.7987 1308.8634,-105.5102 1322.1707,-95.6594"/>
<polygon fill="#191970" stroke="#191970" points="1324.3981,-98.3652 1330.3531,-89.6022 1320.2332,-92.7389 1324.3981,-98.3652"/>
</g>
<!-- Node7&#45;&gt;Node9 -->
<g id="edge11" class="edge">
<title>Node7&#45;&gt;Node9</title>
<path fill="none" stroke="#191970" d="M1324.2399,-134.0621C1462.8894,-127.9305 1814.7884,-110.9573 1952.3994,-89.7327"/>
<polygon fill="#191970" stroke="#191970" points="1953.0067,-93.1801 1962.3212,-88.1314 1951.8913,-86.2695 1953.0067,-93.1801"/>
</g>
<!-- Node10 -->
<g id="node11" class="node">
<title>Node10</title>
<polygon fill="#ffffff" stroke="#bfbfbf" points="1377.3359,-69.5 1377.3359,-89.5 1420.6641,-89.5 1420.6641,-69.5 1377.3359,-69.5"/>
<text text-anchor="middle" x="1399" y="-75.9" font-family="Helvetica,sans-Serif" font-size="12.00" fill="#000000">limits</text>
</g>
<!-- Node7&#45;&gt;Node10 -->
<g id="edge12" class="edge">
<title>Node7&#45;&gt;Node10</title>
<path fill="none" stroke="#191970" d="M1290.2951,-126.4408C1311.8918,-117.1149 1344.1797,-103.1724 1367.9579,-92.9045"/>
<polygon fill="#191970" stroke="#191970" points="1369.4583,-96.0691 1377.2514,-88.8914 1366.6832,-89.6426 1369.4583,-96.0691"/>
</g>
<!-- Node11 -->
<g id="node12" class="node">
<title>Node11</title>
<polygon fill="#ffffff" stroke="#bfbfbf" points="705.6631,-69.5 705.6631,-89.5 764.3369,-89.5 764.3369,-69.5 705.6631,-69.5"/>
<text text-anchor="middle" x="735" y="-75.9" font-family="Helvetica,sans-Serif" font-size="12.00" fill="#000000">sstream</text>
</g>
<!-- Node7&#45;&gt;Node11 -->
<g id="edge13" class="edge">
<title>Node7&#45;&gt;Node11</title>
<path fill="none" stroke="#191970" d="M1209.8142,-130.3729C1101.2836,-118.7447 867.9685,-93.7466 774.7081,-83.7544"/>
<polygon fill="#191970" stroke="#191970" points="774.8807,-80.253 764.5647,-82.6676 774.1349,-87.2131 774.8807,-80.253"/>
</g>
<!-- Node12 -->
<g id="node13" class="node">
<title>Node12</title>
<polygon fill="#ffffff" stroke="#bfbfbf" points="1335.9932,-6.5 1335.9932,-26.5 1398.0068,-26.5 1398.0068,-6.5 1335.9932,-6.5"/>
<text text-anchor="middle" x="1367" y="-12.9" font-family="Helvetica,sans-Serif" font-size="12.00" fill="#000000">iostream</text>
</g>
<!-- Node7&#45;&gt;Node12 -->
<g id="edge14" class="edge">
<title>Node7&#45;&gt;Node12</title>
<path fill="none" stroke="#191970" d="M1324.3277,-131.8075C1447.7655,-121.5706 1728.1663,-97.5464 1735,-90 1780.0808,-40.218 1513.8698,-22.9486 1408.5254,-18.1118"/>
<polygon fill="#191970" stroke="#191970" points="1408.4054,-14.6031 1398.2601,-17.6566 1408.0952,-21.5963 1408.4054,-14.6031"/>
</g>
<!-- Node13 -->
<g id="node14" class="node">
<title>Node13</title>
<polygon fill="#ffffff" stroke="#bfbfbf" points="1438.3262,-69.5 1438.3262,-89.5 1491.6738,-89.5 1491.6738,-69.5 1438.3262,-69.5"/>
<text text-anchor="middle" x="1465" y="-75.9" font-family="Helvetica,sans-Serif" font-size="12.00" fill="#000000">iterator</text>
</g>
<!-- Node7&#45;&gt;Node13 -->
<g id="edge15" class="edge">
<title>Node7&#45;&gt;Node13</title>
<path fill="none" stroke="#191970" d="M1302.653,-126.4792C1333.6371,-117.7374 1379.9762,-104.5836 1428.5231,-90.4105"/>
<polygon fill="#191970" stroke="#191970" points="1429.6427,-93.7297 1438.2581,-87.5632 1427.6776,-87.0112 1429.6427,-93.7297"/>
</g>
<!-- Node14 -->
<g id="node15" class="node">
<title>Node14</title>
<polygon fill="#ffffff" stroke="#bfbfbf" points="1509.6416,-69.5 1509.6416,-89.5 1608.3584,-89.5 1608.3584,-69.5 1509.6416,-69.5"/>
<text text-anchor="middle" x="1559" y="-75.9" font-family="Helvetica,sans-Serif" font-size="12.00" fill="#000000">gsl/gsl_vector.h</text>
</g>
<!-- Node7&#45;&gt;Node14 -->
<g id="edge16" class="edge">
<title>Node7&#45;&gt;Node14</title>
<path fill="none" stroke="#191970" d="M1318.5316,-126.4408C1369.1358,-116.5625 1446.2748,-101.5046 1499.4708,-91.1204"/>
<polygon fill="#191970" stroke="#191970" points="1500.3001,-94.5247 1509.4442,-89.1736 1498.9589,-87.6544 1500.3001,-94.5247"/>
</g>
<!-- Node15 -->
<g id="node16" class="node">
<title>Node15</title>
<polygon fill="#ffffff" stroke="#bfbfbf" points="1626.3193,-69.5 1626.3193,-89.5 1725.6807,-89.5 1725.6807,-69.5 1626.3193,-69.5"/>
<text text-anchor="middle" x="1676" y="-75.9" font-family="Helvetica,sans-Serif" font-size="12.00" fill="#000000">gsl/gsl_matrix.h</text>
</g>
<!-- Node7&#45;&gt;Node15 -->
<g id="edge17" class="edge">
<title>Node7&#45;&gt;Node15</title>
<path fill="none" stroke="#191970" d="M1324.0962,-129.698C1391.3731,-121.5079 1506.7763,-106.9125 1615.9295,-90.1135"/>
<polygon fill="#191970" stroke="#191970" points="1616.7857,-93.5228 1626.1324,-88.5339 1615.7146,-86.6052 1616.7857,-93.5228"/>
</g>
<!-- Node16 -->
<g id="node17" class="node">
<title>Node16</title>
<polygon fill="#ffffff" stroke="#bfbfbf" points="1003.6426,-69.5 1003.6426,-89.5 1098.3574,-89.5 1098.3574,-69.5 1003.6426,-69.5"/>
<text text-anchor="middle" x="1051" y="-75.9" font-family="Helvetica,sans-Serif" font-size="12.00" fill="#000000">gsl/gsl_linalg.h</text>
</g>
<!-- Node7&#45;&gt;Node16 -->
<g id="edge18" class="edge">
<title>Node7&#45;&gt;Node16</title>
<path fill="none" stroke="#191970" d="M1228.8807,-126.4408C1192.6714,-116.8855 1138.0961,-102.4837 1098.9505,-92.1536"/>
<polygon fill="#191970" stroke="#191970" points="1099.6629,-88.7219 1089.1008,-89.5544 1097.8768,-95.4902 1099.6629,-88.7219"/>
</g>
<!-- Node17 -->
<g id="node18" class="node">
<title>Node17</title>
<polygon fill="#ffffff" stroke="#bfbfbf" points="1116.6455,-69.5 1116.6455,-89.5 1205.3545,-89.5 1205.3545,-69.5 1116.6455,-69.5"/>
<text text-anchor="middle" x="1161" y="-75.9" font-family="Helvetica,sans-Serif" font-size="12.00" fill="#000000">gsl/gsl_blas.h</text>
</g>
<!-- Node7&#45;&gt;Node17 -->
<g id="edge19" class="edge">
<title>Node7&#45;&gt;Node17</title>
<path fill="none" stroke="#191970" d="M1248.0493,-126.3095C1231.5439,-117.434 1207.3981,-104.4499 1188.7214,-94.4068"/>
<polygon fill="#191970" stroke="#191970" points="1190.2516,-91.2557 1179.7866,-89.6022 1186.9364,-97.4209 1190.2516,-91.2557"/>
</g>
<!-- Node18 -->
<g id="node19" class="node">
<title>Node18</title>
<polygon fill="#ffffff" stroke="#bfbfbf" points="1223.0879,-69.5 1223.0879,-89.5 1310.9121,-89.5 1310.9121,-69.5 1223.0879,-69.5"/>
<text text-anchor="middle" x="1267" y="-75.9" font-family="Helvetica,sans-Serif" font-size="12.00" fill="#000000">gsl/gsl_poly.h</text>
</g>
<!-- Node7&#45;&gt;Node18 -->
<g id="edge20" class="edge">
<title>Node7&#45;&gt;Node18</title>
<path fill="none" stroke="#191970" d="M1267,-126.3095C1267,-118.9335 1267,-108.72 1267,-99.715"/>
<polygon fill="#191970" stroke="#191970" points="1270.5001,-99.6022 1267,-89.6022 1263.5001,-99.6023 1270.5001,-99.6022"/>
</g>
<!-- Node7&#45;&gt;Node19 -->
<g id="edge23" class="edge">
<title>Node7&#45;&gt;Node19</title>
<path fill="none" stroke="#191970" d="M1209.643,-127.0236C1138.2455,-115.2275 1018.4153,-95.4295 958.4672,-85.525"/>
<polygon fill="#191970" stroke="#191970" points="958.777,-82.0288 948.3402,-83.8519 957.6359,-88.9352 958.777,-82.0288"/>
</g>
<!-- Node7&#45;&gt;Node22 -->
<g id="edge28" class="edge">
<title>Node7&#45;&gt;Node22</title>
<path fill="none" stroke="#191970" d="M1324.0457,-134.263C1449.5039,-129.0749 1759.0282,-114.808 2028.9322,-90.0475"/>
<polygon fill="#191970" stroke="#191970" points="2029.2844,-93.5299 2038.92,-89.1247 2028.6403,-86.5596 2029.2844,-93.5299"/>
</g>
<!-- Node7&#45;&gt;Node23 -->
<g id="edge29" class="edge">
<title>Node7&#45;&gt;Node23</title>
<path fill="none" stroke="#191970" d="M1324.3966,-131.7206C1437.0669,-122.2479 1683.5512,-101.054 1768,-90 1769.2787,-89.8326 1770.5714,-89.6583 1771.874,-89.4781"/>
<polygon fill="#191970" stroke="#191970" points="1772.6023,-92.9089 1781.9899,-87.9973 1771.5884,-85.9827 1772.6023,-92.9089"/>
</g>
<!-- Node19&#45;&gt;Node1 -->
<g id="edge24" class="edge">
<title>Node19&#45;&gt;Node1</title>
<path fill="none" stroke="#191970" d="M895.8675,-72.0898C891.2711,-70.9444 886.5141,-69.8588 882,-69 763.9154,-46.5347 625.9885,-31.8822 536.9351,-23.9069"/>
<polygon fill="#191970" stroke="#191970" points="537.1305,-20.4106 526.8606,-23.0145 536.5128,-27.3833 537.1305,-20.4106"/>
</g>
<!-- Node19&#45;&gt;Node12 -->
<g id="edge25" class="edge">
<title>Node19&#45;&gt;Node12</title>
<path fill="none" stroke="#191970" d="M948.1396,-72.1264C952.7352,-70.977 957.4901,-69.8805 962,-69 1093.6553,-43.2963 1251.9179,-26.9102 1325.5515,-20.1084"/>
<polygon fill="#191970" stroke="#191970" points="1326.1476,-23.5687 1335.7882,-19.1744 1325.5115,-16.5976 1326.1476,-23.5687"/>
</g>
<!-- Node20 -->
<g id="node21" class="node">
<title>Node20</title>
<polygon fill="#ffffff" stroke="#bfbfbf" points="851.3154,-6.5 851.3154,-26.5 918.6846,-26.5 918.6846,-6.5 851.3154,-6.5"/>
<text text-anchor="middle" x="885" y="-12.9" font-family="Helvetica,sans-Serif" font-size="12.00" fill="#000000">exception</text>
</g>
<!-- Node19&#45;&gt;Node20 -->
<g id="edge26" class="edge">
<title>Node19&#45;&gt;Node20</title>
<path fill="none" stroke="#191970" d="M916.0553,-69.378C910.7466,-60.3389 902.8263,-46.853 896.3132,-35.7631"/>
<polygon fill="#191970" stroke="#191970" points="899.1351,-33.6566 891.0529,-26.8062 893.0991,-37.2016 899.1351,-33.6566"/>
</g>
<!-- Node21 -->
<g id="node22" class="node">
<title>Node21</title>
<polygon fill="#ffffff" stroke="#bfbfbf" points="936.3281,-6.5 936.3281,-26.5 981.6719,-26.5 981.6719,-6.5 936.3281,-6.5"/>
<text text-anchor="middle" x="959" y="-12.9" font-family="Helvetica,sans-Serif" font-size="12.00" fill="#000000">string</text>
</g>
<!-- Node19&#45;&gt;Node21 -->
<g id="edge27" class="edge">
<title>Node19&#45;&gt;Node21</title>
<path fill="none" stroke="#191970" d="M927.9447,-69.378C933.2534,-60.3389 941.1737,-46.853 947.6868,-35.7631"/>
<polygon fill="#191970" stroke="#191970" points="950.9009,-37.2016 952.9471,-26.8062 944.8649,-33.6566 950.9009,-37.2016"/>
</g>
<!-- Node24 -->
<g id="node25" class="node">
<title>Node24</title>
<polygon fill="#ffffff" stroke="#bfbfbf" points="1787.6436,-6.5 1787.6436,-26.5 1872.3564,-26.5 1872.3564,-6.5 1787.6436,-6.5"/>
<text text-anchor="middle" x="1830" y="-12.9" font-family="Helvetica,sans-Serif" font-size="12.00" fill="#000000">Eigen/Dense</text>
</g>
<!-- Node23&#45;&gt;Node24 -->
<g id="edge30" class="edge">
<title>Node23&#45;&gt;Node24</title>
<path fill="none" stroke="#191970" d="M1830,-69.378C1830,-60.7041 1830,-47.9355 1830,-37.1186"/>
<polygon fill="#191970" stroke="#191970" points="1833.5001,-36.8062 1830,-26.8062 1826.5001,-36.8062 1833.5001,-36.8062"/>
</g>
<!-- Node25&#45;&gt;Node7 -->
<g id="edge48" class="edge">
<title>Node25&#45;&gt;Node7</title>
<path fill="none" stroke="#191970" d="M1304.7761,-183.3095C1298.3656,-175.3661 1289.2994,-164.1319 1281.6556,-154.6602"/>
<polygon fill="#191970" stroke="#191970" points="1284.1566,-152.1862 1275.1527,-146.6022 1278.7092,-156.5823 1284.1566,-152.1862"/>
</g>
<!-- Node25&#45;&gt;Node9 -->
<g id="edge36" class="edge">
<title>Node25&#45;&gt;Node9</title>
<path fill="none" stroke="#191970" d="M1378.5909,-184.6924C1442.9731,-175.8625 1543.9069,-161.5266 1631,-147 1680.9551,-138.6678 1693.1511,-134.9455 1743,-126 1833.1112,-109.8293 1858.8234,-110.2805 1952.3756,-89.9798"/>
<polygon fill="#191970" stroke="#191970" points="1953.2411,-93.3733 1962.2597,-87.8133 1951.7422,-86.5356 1953.2411,-93.3733"/>
</g>
<!-- Node26 -->
<g id="node27" class="node">
<title>Node26</title>
<polygon fill="#ffffff" stroke="#bfbfbf" points="1895.6611,-69.5 1895.6611,-89.5 1944.3389,-89.5 1944.3389,-69.5 1895.6611,-69.5"/>
<text text-anchor="middle" x="1920" y="-75.9" font-family="Helvetica,sans-Serif" font-size="12.00" fill="#000000">cmath</text>
</g>
<!-- Node25&#45;&gt;Node26 -->
<g id="edge35" class="edge">
<title>Node25&#45;&gt;Node26</title>
<path fill="none" stroke="#191970" d="M1364.6627,-183.4512C1434.362,-169.9708 1562.4175,-145.4743 1672,-126 1764.2239,-109.6105 1791.0561,-112.5227 1885.6137,-90.0918"/>
<polygon fill="#191970" stroke="#191970" points="1886.697,-93.4311 1895.601,-87.6892 1885.0597,-86.6253 1886.697,-93.4311"/>
</g>
<!-- Node27 -->
<g id="node28" class="node">
<title>Node27</title>
<g id="a_node28"><a xlink:href="EccentricityExpansionCoefficients_8h.html" target="_top" xlink:title="Declares a class which provides the [ &#160;coefficients]{InclinationEccentricity_pms1}. ">
<polygon fill="#ffffff" stroke="#000000" points="551.9551,-126.5 551.9551,-146.5 758.0449,-146.5 758.0449,-126.5 551.9551,-126.5"/>
<text text-anchor="middle" x="655" y="-132.9" font-family="Helvetica,sans-Serif" font-size="12.00" fill="#000000">EccentricityExpansionCoefficients.h</text>
</a>
</g>
</g>
<!-- Node25&#45;&gt;Node27 -->
<g id="edge37" class="edge">
<title>Node25&#45;&gt;Node27</title>
<path fill="none" stroke="#191970" d="M1247.5028,-187.8262C1135.7149,-178.1425 906.7952,-158.312 768.5228,-146.334"/>
<polygon fill="#191970" stroke="#191970" points="768.5804,-142.826 758.3156,-145.4498 767.9762,-149.7999 768.5804,-142.826"/>
</g>
<!-- Node27&#45;&gt;Node1 -->
<g id="edge38" class="edge">
<title>Node27&#45;&gt;Node1</title>
<path fill="none" stroke="#191970" d="M580.4673,-126.4685C533.943,-118.7312 479.8005,-106.5445 463,-90 450.563,-77.7525 445.9091,-58.506 444.314,-42.7799"/>
<polygon fill="#191970" stroke="#191970" points="447.7921,-42.3318 443.6403,-32.5844 440.8073,-42.7934 447.7921,-42.3318"/>
</g>
<!-- Node27&#45;&gt;Node6 -->
<g id="edge46" class="edge">
<title>Node27&#45;&gt;Node6</title>
<path fill="none" stroke="#191970" d="M551.807,-129.7819C470.4667,-123.3427 354.15,-111.6079 244.3222,-89.9998"/>
<polygon fill="#191970" stroke="#191970" points="244.8889,-86.5439 234.3969,-88.0162 243.517,-93.4082 244.8889,-86.5439"/>
</g>
<!-- Node27&#45;&gt;Node11 -->
<g id="edge45" class="edge">
<title>Node27&#45;&gt;Node11</title>
<path fill="none" stroke="#191970" d="M669.3024,-126.3095C681.2474,-117.7987 698.4945,-105.5102 712.3202,-95.6594"/>
<polygon fill="#191970" stroke="#191970" points="714.7082,-98.2555 720.8214,-89.6022 710.6462,-92.5545 714.7082,-98.2555"/>
</g>
<!-- Node27&#45;&gt;Node12 -->
<g id="edge44" class="edge">
<title>Node27&#45;&gt;Node12</title>
<path fill="none" stroke="#191970" d="M758.1503,-129.6593C817.5308,-123.5067 892.8614,-111.8844 957,-90 975.2625,-83.7688 976.6987,-75.1163 995,-69 1055.7318,-48.7033 1242.1446,-28.6566 1325.7159,-20.4167"/>
<polygon fill="#191970" stroke="#191970" points="1326.2447,-23.8817 1335.8566,-19.4251 1325.5634,-16.915 1326.2447,-23.8817"/>
</g>
<!-- Node27&#45;&gt;Node19 -->
<g id="edge39" class="edge">
<title>Node27&#45;&gt;Node19</title>
<path fill="none" stroke="#191970" d="M702.1196,-126.4408C754.7013,-115.2155 838.6144,-97.3014 886.1284,-87.158"/>
<polygon fill="#191970" stroke="#191970" points="886.9239,-90.5671 895.9728,-85.0564 885.4624,-83.7214 886.9239,-90.5671"/>
</g>
<!-- Node27&#45;&gt;Node26 -->
<g id="edge43" class="edge">
<title>Node27&#45;&gt;Node26</title>
<path fill="none" stroke="#191970" d="M758.1267,-134.2052C1027.3474,-127.9942 1740.0537,-110.0662 1885.147,-89.7378"/>
<polygon fill="#191970" stroke="#191970" points="1885.976,-93.1507 1895.3134,-88.1443 1884.892,-86.2352 1885.976,-93.1507"/>
</g>
<!-- Node28 -->
<g id="node29" class="node">
<title>Node28</title>
<polygon fill="#ffffff" stroke="#bfbfbf" points="367.6611,-69.5 367.6611,-89.5 416.3389,-89.5 416.3389,-69.5 367.6611,-69.5"/>
<text text-anchor="middle" x="392" y="-75.9" font-family="Helvetica,sans-Serif" font-size="12.00" fill="#000000">vector</text>
</g>
<!-- Node27&#45;&gt;Node28 -->
<g id="edge40" class="edge">
<title>Node27&#45;&gt;Node28</title>
<path fill="none" stroke="#191970" d="M601.5909,-126.4894C555.8629,-117.6734 488.3577,-104.0767 430,-90 428.7649,-89.7021 427.5092,-89.3922 426.2422,-89.0735"/>
<polygon fill="#191970" stroke="#191970" points="427.0285,-85.6615 416.4682,-86.5157 425.2563,-92.4335 427.0285,-85.6615"/>
</g>
<!-- Node29 -->
<g id="node30" class="node">
<title>Node29</title>
<polygon fill="#ffffff" stroke="#bfbfbf" points="471.9961,-69.5 471.9961,-89.5 528.0039,-89.5 528.0039,-69.5 471.9961,-69.5"/>
<text text-anchor="middle" x="500" y="-75.9" font-family="Helvetica,sans-Serif" font-size="12.00" fill="#000000">fstream</text>
</g>
<!-- Node27&#45;&gt;Node29 -->
<g id="edge41" class="edge">
<title>Node27&#45;&gt;Node29</title>
<path fill="none" stroke="#191970" d="M627.6459,-126.4408C602.3795,-117.1492 564.6513,-103.275 536.7597,-93.0181"/>
<polygon fill="#191970" stroke="#191970" points="537.9344,-89.721 527.3409,-89.5544 535.5184,-96.2908 537.9344,-89.721"/>
</g>
<!-- Node30 -->
<g id="node31" class="node">
<title>Node30</title>
<polygon fill="#ffffff" stroke="#bfbfbf" points="545.9883,-69.5 545.9883,-89.5 604.0117,-89.5 604.0117,-69.5 545.9883,-69.5"/>
<text text-anchor="middle" x="575" y="-75.9" font-family="Helvetica,sans-Serif" font-size="12.00" fill="#000000">iomanip</text>
</g>
<!-- Node27&#45;&gt;Node30 -->
<g id="edge42" class="edge">
<title>Node27&#45;&gt;Node30</title>
<path fill="none" stroke="#191970" d="M640.6976,-126.3095C628.7526,-117.7987 611.5055,-105.5102 597.6798,-95.6594"/>
<polygon fill="#191970" stroke="#191970" points="599.3538,-92.5545 589.1786,-89.6022 595.2918,-98.2555 599.3538,-92.5545"/>
</g>
<!-- Node31 -->
<g id="node32" class="node">
<title>Node31</title>
<polygon fill="#ffffff" stroke="#bfbfbf" points="622.3232,-69.5 622.3232,-89.5 687.6768,-89.5 687.6768,-69.5 622.3232,-69.5"/>
<text text-anchor="middle" x="655" y="-75.9" font-family="Helvetica,sans-Serif" font-size="12.00" fill="#000000">algorithm</text>
</g>
<!-- Node27&#45;&gt;Node31 -->
<g id="edge47" class="edge">
<title>Node27&#45;&gt;Node31</title>
<path fill="none" stroke="#191970" d="M655,-126.3095C655,-118.9335 655,-108.72 655,-99.715"/>
<polygon fill="#191970" stroke="#191970" points="658.5001,-99.6022 655,-89.6022 651.5001,-99.6023 658.5001,-99.6022"/>
</g>
<!-- Node32&#45;&gt;Node1 -->
<g id="edge51" class="edge">
<title>Node32&#45;&gt;Node1</title>
<path fill="none" stroke="#191970" d="M2245.0758,-70.383C2240.3201,-69.851 2235.5861,-69.3792 2231,-69 1615.5599,-18.1082 1459.1906,-53.7904 842,-33 737.6051,-29.4834 617.8523,-24.3727 537.2039,-20.7731"/>
<polygon fill="#191970" stroke="#191970" points="537.2213,-17.2705 527.0748,-20.3198 536.9083,-24.2635 537.2213,-17.2705"/>
</g>
<!-- Node32&#45;&gt;Node12 -->
<g id="edge52" class="edge">
<title>Node32&#45;&gt;Node12</title>
<path fill="none" stroke="#191970" d="M2245.0595,-70.5612C2240.3075,-69.9886 2235.5788,-69.4589 2231,-69 1915.3513,-37.3637 1532.7811,-22.2038 1408.286,-17.859"/>
<polygon fill="#191970" stroke="#191970" points="1408.181,-14.3534 1398.0662,-17.5066 1407.9396,-21.3493 1408.181,-14.3534"/>
</g>
<!-- Node33&#45;&gt;Node1 -->
<g id="edge54" class="edge">
<title>Node33&#45;&gt;Node1</title>
<path fill="none" stroke="#191970" d="M390.1448,-240.4146C294.7343,-217.4088 89.5193,-156.2198 162,-69 185.8249,-40.3303 278.2253,-27.2381 350.8477,-21.3088"/>
<polygon fill="#191970" stroke="#191970" points="351.2577,-24.7875 360.9545,-20.5188 350.7122,-17.8088 351.2577,-24.7875"/>
</g>
<!-- Node33&#45;&gt;Node28 -->
<g id="edge59" class="edge">
<title>Node33&#45;&gt;Node28</title>
<path fill="none" stroke="#191970" d="M433.3794,-240.3153C426.304,-212.8178 406.7116,-136.6748 397.2489,-99.8993"/>
<polygon fill="#191970" stroke="#191970" points="400.5441,-98.6599 394.6625,-89.8476 393.7649,-100.4043 400.5441,-98.6599"/>
</g>
<!-- Node34 -->
<g id="node35" class="node">
<title>Node34</title>
<g id="a_node35"><a xlink:href="StoppingCondition_8h.html" target="_top" xlink:title="Defines the various stopping conditions needed by OrbitSolver. ">
<polygon fill="#ffffff" stroke="#000000" points="65.959,-183.5 65.959,-203.5 190.041,-203.5 190.041,-183.5 65.959,-183.5"/>
<text text-anchor="middle" x="128" y="-189.9" font-family="Helvetica,sans-Serif" font-size="12.00" fill="#000000">StoppingCondition.h</text>
</a>
</g>
</g>
<!-- Node33&#45;&gt;Node34 -->
<g id="edge55" class="edge">
<title>Node33&#45;&gt;Node34</title>
<path fill="none" stroke="#191970" d="M381.6448,-240.4408C328.7257,-230.6473 248.2963,-215.7626 192.2411,-205.3888"/>
<polygon fill="#191970" stroke="#191970" points="192.5402,-201.8848 182.0702,-203.5065 191.2663,-208.7679 192.5402,-201.8848"/>
</g>
<!-- Node34&#45;&gt;Node1 -->
<g id="edge56" class="edge">
<title>Node34&#45;&gt;Node1</title>
<path fill="none" stroke="#191970" d="M120.6602,-183.4069C104.7936,-160.2653 70.9845,-102.7797 100,-69 116.2533,-50.078 254.7091,-33.72 350.9278,-24.493"/>
<polygon fill="#191970" stroke="#191970" points="351.3521,-27.9686 360.9772,-23.5404 350.6915,-20.9999 351.3521,-27.9686"/>
</g>
<!-- Node34&#45;&gt;Node6 -->
<g id="edge58" class="edge">
<title>Node34&#45;&gt;Node6</title>
<path fill="none" stroke="#191970" d="M135.0107,-183.3833C148.2706,-164.2488 177.2029,-122.4984 194.0738,-98.1529"/>
<polygon fill="#191970" stroke="#191970" points="197.0723,-99.9708 199.8914,-89.7579 191.3188,-95.9837 197.0723,-99.9708"/>
</g>
<!-- Node34&#45;&gt;Node7 -->
<g id="edge57" class="edge">
<title>Node34&#45;&gt;Node7</title>
<path fill="none" stroke="#191970" d="M190.0465,-190.395C386.7086,-180.5532 995.2215,-150.1009 1199.4092,-139.8825"/>
<polygon fill="#191970" stroke="#191970" points="1199.8763,-143.3636 1209.6888,-139.3681 1199.5264,-136.3724 1199.8763,-143.3636"/>
</g>
<!-- Node35&#45;&gt;Node1 -->
<g id="edge61" class="edge">
<title>Node35&#45;&gt;Node1</title>
<path fill="none" stroke="#191970" d="M200.1758,-240.4601C143.1822,-230.5757 66.0665,-215.3534 57,-204 30.013,-170.206 -24.1992,-168.3463 86,-69 105.4526,-51.4631 251.4931,-34.4946 350.9333,-24.7964"/>
<polygon fill="#191970" stroke="#191970" points="351.3897,-28.2687 361.0068,-23.8232 350.7165,-21.3011 351.3897,-28.2687"/>
</g>
<!-- Node35&#45;&gt;Node34 -->
<g id="edge62" class="edge">
<title>Node35&#45;&gt;Node34</title>
<path fill="none" stroke="#191970" d="M238.3519,-240.4408C216.9563,-231.3396 185.2242,-217.8416 161.2721,-207.6531"/>
<polygon fill="#191970" stroke="#191970" points="162.4345,-204.3441 151.8624,-203.6504 159.6944,-210.7855 162.4345,-204.3441"/>
</g>
<!-- Node36&#45;&gt;Node1 -->
<g id="edge64" class="edge">
<title>Node36&#45;&gt;Node1</title>
<path fill="none" stroke="#191970" d="M78.7976,-240.3793C63.1756,-232.636 43.6617,-220.4773 32,-204 -3.564,-153.7503 9.5671,-99.5738 63,-69 110.6474,-41.7366 254.2715,-27.8368 350.9216,-21.3813"/>
<polygon fill="#191970" stroke="#191970" points="351.2491,-24.8675 360.9999,-20.7237 350.7932,-17.8824 351.2491,-24.8675"/>
</g>
<!-- Node36&#45;&gt;Node34 -->
<g id="edge65" class="edge">
<title>Node36&#45;&gt;Node34</title>
<path fill="none" stroke="#191970" d="M107.4695,-240.3095C110.8113,-232.6903 115.4809,-222.0435 119.5226,-212.8285"/>
<polygon fill="#191970" stroke="#191970" points="122.7578,-214.166 123.5692,-203.6022 116.3473,-211.3543 122.7578,-214.166"/>
</g>
<!-- Node37&#45;&gt;Node1 -->
<g id="edge69" class="edge">
<title>Node37&#45;&gt;Node1</title>
<path fill="none" stroke="#191970" d="M2044.2059,-131.184C2104.4547,-125.396 2178.5842,-113.5954 2198,-90 2203.9304,-82.793 2204.5115,-75.6867 2198,-69 2171.7122,-42.005 879.6582,-34.2804 842,-33 737.6062,-29.4505 617.8533,-24.3458 537.2044,-20.7565"/>
<polygon fill="#191970" stroke="#191970" points="537.2214,-17.2539 527.0753,-20.3046 536.9093,-24.2469 537.2214,-17.2539"/>
</g>
<!-- Node37&#45;&gt;Node22 -->
<g id="edge71" class="edge">
<title>Node37&#45;&gt;Node22</title>
<path fill="none" stroke="#191970" d="M1988.0011,-126.4408C2012.8326,-117.1898 2049.8579,-103.3961 2077.3534,-93.1527"/>
<polygon fill="#191970" stroke="#191970" points="2078.863,-96.3253 2087.0119,-89.5544 2076.4192,-89.7658 2078.863,-96.3253"/>
</g>
<!-- Node37&#45;&gt;Node26 -->
<g id="edge70" class="edge">
<title>Node37&#45;&gt;Node26</title>
<path fill="none" stroke="#191970" d="M1953.67,-126.3095C1948.0146,-118.4472 1940.0402,-107.3608 1933.2716,-97.9507"/>
<polygon fill="#191970" stroke="#191970" points="1935.9472,-95.6765 1927.2665,-89.6022 1930.2645,-99.7641 1935.9472,-95.6765"/>
</g>
</g>
</svg>
        <g id="navigator" transform="translate(0 0)" fill="#404254">
                <rect fill="#f2f5e9" fill-opacity="0.5" stroke="#606060" stroke-width=".5" x="0" y="0" width="60" height="60"/>
                <use id="zoomplus" xlink:href="#zoomPlus" x="17" y="9" onmousedown="handleZoom(evt,'in')"/>
                <use id="zoomminus" xlink:href="#zoomMin" x="42" y="9" onmousedown="handleZoom(evt,'out')"/>
                <use id="reset" xlink:href="#resetDef" x="30" y="36" onmousedown="handleReset()"/>
                <g id="arrowUp" xlink:href="#dirArrow" transform="translate(30 24)" onmousedown="handlePan(0,-1)">
                  <use xlink:href="#rim" fill="#404040">
                        <set attributeName="fill" to="#808080" begin="arrowUp.mouseover" end="arrowUp.mouseout"/>
                  </use>
                  <path fill="none" stroke="white" stroke-width="1.5" d="M0,-3.0v7 M-2.5,-0.5L0,-3.0L2.5,-0.5"/>
                </g>
                <g id="arrowRight" xlink:href="#dirArrow" transform="rotate(90) translate(36 -43)" onmousedown="handlePan(1,0)">
                  <use xlink:href="#rim" fill="#404040">
                        <set attributeName="fill" to="#808080" begin="arrowRight.mouseover" end="arrowRight.mouseout"/>
                  </use>
                  <path fill="none" stroke="white" stroke-width="1.5" d="M0,-3.0v7 M-2.5,-0.5L0,-3.0L2.5,-0.5"/>
                </g>
                <g id="arrowDown" xlink:href="#dirArrow" transform="rotate(180) translate(-30 -48)" onmousedown="handlePan(0,1)">
                  <use xlink:href="#rim" fill="#404040">
                        <set attributeName="fill" to="#808080" begin="arrowDown.mouseover" end="arrowDown.mouseout"/>
                  </use>
                  <path fill="none" stroke="white" stroke-width="1.5" d="M0,-3.0v7 M-2.5,-0.5L0,-3.0L2.5,-0.5"/>
                </g>
                <g id="arrowLeft" xlink:href="#dirArrow" transform="rotate(270) translate(-36 17)" onmousedown="handlePan(-1,0)">
                  <use xlink:href="#rim" fill="#404040">
                        <set attributeName="fill" to="#808080" begin="arrowLeft.mouseover" end="arrowLeft.mouseout"/>
                  </use>
                  <path fill="none" stroke="white" stroke-width="1.5" d="M0,-3.0v7 M-2.5,-0.5L0,-3.0L2.5,-0.5"/>
                </g>
        </g>
        <svg viewBox="0 0 15 15" width="100%" height="30px" preserveAspectRatio="xMaxYMin meet">
         <g id="arrow_out" transform="scale(0.3 0.3)">
          <a xlink:href="DissipatingBody_8h__incl_org.svg" target="_base">
           <rect id="button" ry="5" rx="5" y="6" x="6" height="38" width="38"
                fill="#f2f5e9" fill-opacity="0.5" stroke="#606060" stroke-width="1.0"/>
           <path id="arrow"
             d="M 11.500037,31.436501 C 11.940474,20.09759 22.043105,11.32322 32.158766,21.979434 L 37.068811,17.246167 C 37.068811,17.246167 37.088388,32 37.088388,32 L 22.160133,31.978069 C 22.160133,31.978069 26.997745,27.140456 26.997745,27.140456 C 18.528582,18.264221 13.291696,25.230495 11.500037,31.436501 z"
             style="fill:#404040;"/>
          </a>
         </g>
        </svg>
</svg>
