<?xml version="1.0" encoding="UTF-8" standalone="no"?>
<!DOCTYPE svg PUBLIC "-//W3C//DTD SVG 1.1//EN"
 "http://www.w3.org/Graphics/SVG/1.1/DTD/svg11.dtd">
<!-- Generated by graphviz version 2.40.1 (20161225.0304)
 -->
<!-- Title: /Users/kpenev/projects/git/poet/poet_src/Evolve/DissipationQuantities.cpp Pages: 1 -->
<svg width="323pt" height="179pt"
 viewBox="0.00 0.00 323.04 179.00" xmlns="http://www.w3.org/2000/svg" xmlns:xlink="http://www.w3.org/1999/xlink">
<g id="graph0" class="graph" transform="scale(1 1) rotate(0) translate(4 175)">
<title>/Users/kpenev/projects/git/poet/poet_src/Evolve/DissipationQuantities.cpp</title>
<polygon fill="#ffffff" stroke="transparent" points="-4,4 -4,-175 319.04,-175 319.04,4 -4,4"/>
<!-- Node0 -->
<g id="node1" class="node">
<title>Node0</title>
<polygon fill="#bfbfbf" stroke="#000000" points="135.332,-126.5 135.332,-170.5 290.0703,-170.5 290.0703,-126.5 135.332,-126.5"/>
<text text-anchor="start" x="143.332" y="-156.9" font-family="Helvetica,sans-Serif" font-size="12.00" fill="#000000">/Users/kpenev/projects</text>
<text text-anchor="start" x="143.332" y="-144.9" font-family="Helvetica,sans-Serif" font-size="12.00" fill="#000000">/git/poet/poet_src/Evolve</text>
<text text-anchor="middle" x="212.7012" y="-132.9" font-family="Helvetica,sans-Serif" font-size="12.00" fill="#000000">/DissipationQuantities.cpp</text>
</g>
<!-- Node1 -->
<g id="node2" class="node">
<title>Node1</title>
<g id="a_node2"><a xlink:href="DissipationQuantities_8h.html" target="_top" xlink:title="Declaration of enumerations of dissipation quantities and derivatives. ">
<polygon fill="#ffffff" stroke="#000000" points="143.3359,-69.5 143.3359,-89.5 282.0664,-89.5 282.0664,-69.5 143.3359,-69.5"/>
<text text-anchor="middle" x="212.7012" y="-75.9" font-family="Helvetica,sans-Serif" font-size="12.00" fill="#000000">DissipationQuantities.h</text>
</a>
</g>
</g>
<!-- Node0&#45;&gt;Node1 -->
<g id="edge1" class="edge">
<title>Node0&#45;&gt;Node1</title>
<path fill="none" stroke="#191970" d="M212.7012,-126.2882C212.7012,-117.8377 212.7012,-108.2557 212.7012,-99.9736"/>
<polygon fill="#191970" stroke="#191970" points="216.2013,-99.7136 212.7012,-89.7137 209.2013,-99.7137 216.2013,-99.7136"/>
</g>
<!-- Node2 -->
<g id="node3" class="node">
<title>Node2</title>
<g id="a_node3"><a xlink:href="SharedLibraryExportMacros_8h_source.html" target="_top" xlink:title="../Core/SharedLibraryExport\lMacros.h">
<polygon fill="#ffffff" stroke="#000000" points="0,-.5 0,-32.5 165.4023,-32.5 165.4023,-.5 0,-.5"/>
<text text-anchor="start" x="8" y="-18.9" font-family="Helvetica,sans-Serif" font-size="12.00" fill="#000000">../Core/SharedLibraryExport</text>
<text text-anchor="middle" x="82.7012" y="-6.9" font-family="Helvetica,sans-Serif" font-size="12.00" fill="#000000">Macros.h</text>
</a>
</g>
</g>
<!-- Node1&#45;&gt;Node2 -->
<g id="edge2" class="edge">
<title>Node1&#45;&gt;Node2</title>
<path fill="none" stroke="#191970" d="M191.8144,-69.378C173.9159,-60.7041 147.568,-47.9355 125.2475,-37.1186"/>
<polygon fill="#191970" stroke="#191970" points="126.4898,-33.8314 115.9645,-32.6199 123.4371,-40.1306 126.4898,-33.8314"/>
</g>
<!-- Node3 -->
<g id="node4" class="node">
<title>Node3</title>
<polygon fill="#ffffff" stroke="#bfbfbf" points="183.0273,-6.5 183.0273,-26.5 242.375,-26.5 242.375,-6.5 183.0273,-6.5"/>
<text text-anchor="middle" x="212.7012" y="-12.9" font-family="Helvetica,sans-Serif" font-size="12.00" fill="#000000">ostream</text>
</g>
<!-- Node1&#45;&gt;Node3 -->
<g id="edge3" class="edge">
<title>Node1&#45;&gt;Node3</title>
<path fill="none" stroke="#191970" d="M212.7012,-69.378C212.7012,-60.7041 212.7012,-47.9355 212.7012,-37.1186"/>
<polygon fill="#191970" stroke="#191970" points="216.2013,-36.8062 212.7012,-26.8062 209.2013,-36.8062 216.2013,-36.8062"/>
</g>
<!-- Node4 -->
<g id="node5" class="node">
<title>Node4</title>
<polygon fill="#ffffff" stroke="#bfbfbf" points="260.3623,-6.5 260.3623,-26.5 315.04,-26.5 315.04,-6.5 260.3623,-6.5"/>
<text text-anchor="middle" x="287.7012" y="-12.9" font-family="Helvetica,sans-Serif" font-size="12.00" fill="#000000">cassert</text>
</g>
<!-- Node1&#45;&gt;Node4 -->
<g id="edge4" class="edge">
<title>Node1&#45;&gt;Node4</title>
<path fill="none" stroke="#191970" d="M224.7512,-69.378C236.2729,-59.6997 253.8635,-44.9236 267.5237,-33.449"/>
<polygon fill="#191970" stroke="#191970" points="270.026,-35.9181 275.4319,-26.8062 265.5236,-30.5582 270.026,-35.9181"/>
</g>
</g>
</svg>
