<?xml version="1.0" encoding="UTF-8" standalone="no"?>
<!DOCTYPE svg PUBLIC "-//W3C//DTD SVG 1.1//EN"
 "http://www.w3.org/Graphics/SVG/1.1/DTD/svg11.dtd">
<!-- Generated by graphviz version 2.40.1 (20161225.0304)
 -->
<!-- Title: /home/kpenev/projects/git/poet/poet_src/Evolve/EccentricityExpansionCoefficients.h Pages: 1 -->
<!--zoomable 243 -->
<svg id="main" version="1.1" xmlns="http://www.w3.org/2000/svg" xmlns:xlink="http://www.w3.org/1999/xlink" xml:space="preserve" onload="init(evt)">
<style type="text/css"><![CDATA[
.edge:hover path { stroke: red; }
.edge:hover polygon { stroke: red; fill: red; }
]]></style>
<script type="text/javascript"><![CDATA[
var edges = document.getElementsByTagName('g');
if (edges && edges.length) {
  for (var i=0;i<edges.length;i++) {
    if (edges[i].id.substr(0,4)=='edge') {
      edges[i].setAttribute('class','edge');
    }
  }
}
]]></script>
        <defs>
                <circle id="rim" cx="0" cy="0" r="7"/>
                <circle id="rim2" cx="0" cy="0" r="3.5"/>
                <g id="zoomPlus">
                        <use xlink:href="#rim" fill="#404040">
                                <set attributeName="fill" to="#808080" begin="zoomplus.mouseover" end="zoomplus.mouseout"/>
                        </use>
                        <path d="M-4,0h8M0,-4v8" fill="none" stroke="white" stroke-width="1.5" pointer-events="none"/>
                </g>
                <g id="zoomMin">
                        <use xlink:href="#rim" fill="#404040">
                                <set attributeName="fill" to="#808080" begin="zoomminus.mouseover" end="zoomminus.mouseout"/>
                        </use>
                        <path d="M-4,0h8" fill="none" stroke="white" stroke-width="1.5" pointer-events="none"/>
                </g>
                <g id="dirArrow">
                        <path fill="none" stroke="white" stroke-width="1.5" d="M0,-3.0v7 M-2.5,-0.5L0,-3.0L2.5,-0.5"/>
                </g>
               <g id="resetDef">
                       <use xlink:href="#rim2" fill="#404040">
                               <set attributeName="fill" to="#808080" begin="reset.mouseover" end="reset.mouseout"/>
                       </use>
               </g>
        </defs>

<script type="text/javascript">
var viewWidth = 1794;
var viewHeight = 243;
var sectionId = 'dynsection-0';
</script>
<script xlink:href="svgpan.js"/>
<svg id="graph" class="graph">
<g id="viewport">
<title>/home/kpenev/projects/git/poet/poet_src/Evolve/EccentricityExpansionCoefficients.h</title>
<polygon fill="#ffffff" stroke="transparent" points="-4,4 -4,-239 1789.9151,-239 1789.9151,4 -4,4"/>
<!-- Node0 -->
<g id="node1" class="node">
<title>Node0</title>
<polygon fill="#bfbfbf" stroke="#000000" points="1245.4151,-187.5 1245.4151,-234.5 1456.4151,-234.5 1456.4151,-187.5 1245.4151,-187.5"/>
<text text-anchor="start" x="1253.4151" y="-220.9" font-family="Helvetica,sans-Serif" font-size="12.00" fill="#000000">/home/kpenev/projects</text>
<text text-anchor="start" x="1253.4151" y="-207.9" font-family="Helvetica,sans-Serif" font-size="12.00" fill="#000000">/git/poet/poet_src/Evolve</text>
<text text-anchor="middle" x="1350.9151" y="-194.9" font-family="Helvetica,sans-Serif" font-size="12.00" fill="#000000">/EccentricityExpansionCoefficients.h</text>
</g>
<!-- Node1 -->
<g id="node2" class="node">
<title>Node1</title>
<g id="a_node2"><a xlink:href="SharedLibraryExportMacros_8h_source.html" target="_top" xlink:title="../Core/SharedLibraryExport\lMacros.h">
<polygon fill="#ffffff" stroke="#000000" points="836.4151,-.5 836.4151,-34.5 1001.4151,-34.5 1001.4151,-.5 836.4151,-.5"/>
<text text-anchor="start" x="844.4151" y="-20.9" font-family="Helvetica,sans-Serif" font-size="12.00" fill="#000000">../Core/SharedLibraryExport</text>
<text text-anchor="middle" x="918.9151" y="-7.9" font-family="Helvetica,sans-Serif" font-size="12.00" fill="#000000">Macros.h</text>
</a>
</g>
</g>
<!-- Node0&#45;&gt;Node1 -->
<g id="edge1" class="edge">
<title>Node0&#45;&gt;Node1</title>
<path fill="none" stroke="#191970" d="M1344.0136,-187.4981C1333.3092,-155.5166 1309.4818,-99.0653 1267.9151,-71 1227.1915,-43.504 1100.5984,-29.4646 1011.6599,-22.811"/>
<polygon fill="#191970" stroke="#191970" points="1011.7798,-19.3106 1001.5518,-22.0743 1011.2709,-26.292 1011.7798,-19.3106"/>
</g>
<!-- Node2 -->
<g id="node3" class="node">
<title>Node2</title>
<g id="a_node3"><a xlink:href="Error_8h.html" target="_top" xlink:title="Defines the exception hierarchy used by this code. ">
<polygon fill="#ffffff" stroke="#000000" points="131.4151,-71.5 131.4151,-92.5 222.4151,-92.5 222.4151,-71.5 131.4151,-71.5"/>
<text text-anchor="middle" x="176.9151" y="-78.9" font-family="Helvetica,sans-Serif" font-size="12.00" fill="#000000">../Core/Error.h</text>
</a>
</g>
</g>
<!-- Node0&#45;&gt;Node2 -->
<g id="edge2" class="edge">
<title>Node0&#45;&gt;Node2</title>
<path fill="none" stroke="#191970" d="M1245.2053,-203.1269C1047.9174,-187.7147 610.2417,-150.1367 232.5099,-92.9743"/>
<polygon fill="#191970" stroke="#191970" points="232.8887,-89.4917 222.4763,-91.4491 231.8367,-96.4122 232.8887,-89.4917"/>
</g>
<!-- Node3 -->
<g id="node4" class="node">
<title>Node3</title>
<polygon fill="#ffffff" stroke="#bfbfbf" points="62.9151,-7 62.9151,-28 124.9151,-28 124.9151,-7 62.9151,-7"/>
<text text-anchor="middle" x="93.9151" y="-14.4" font-family="Helvetica,sans-Serif" font-size="12.00" fill="#000000">iostream</text>
</g>
<!-- Node0&#45;&gt;Node3 -->
<g id="edge29" class="edge">
<title>Node0&#45;&gt;Node3</title>
<path fill="none" stroke="#191970" d="M1245.2374,-210.1056C941.8741,-206.4061 84.9101,-187.6 5.9151,-93 -14.2248,-68.8817 22.9115,-46.1058 54.965,-32.002"/>
<polygon fill="#191970" stroke="#191970" points="56.3952,-35.1974 64.2487,-28.0858 53.6745,-28.7477 56.3952,-35.1974"/>
</g>
<!-- Node6 -->
<g id="node7" class="node">
<title>Node6</title>
<g id="a_node7"><a xlink:href="Core_2Common_8h.html" target="_top" xlink:title="Declaration of some general purpose utilities. ">
<polygon fill="#ffffff" stroke="#000000" points="818.4151,-129.5 818.4151,-150.5 931.4151,-150.5 931.4151,-129.5 818.4151,-129.5"/>
<text text-anchor="middle" x="874.9151" y="-136.9" font-family="Helvetica,sans-Serif" font-size="12.00" fill="#000000">../Core/Common.h</text>
</a>
</g>
</g>
<!-- Node0&#45;&gt;Node6 -->
<g id="edge7" class="edge">
<title>Node0&#45;&gt;Node6</title>
<path fill="none" stroke="#191970" d="M1245.2752,-195.2428C1152.6142,-181.4215 1020.7051,-161.746 941.8717,-149.9872"/>
<polygon fill="#191970" stroke="#191970" points="941.9896,-146.4662 931.5827,-148.4525 940.9569,-153.3896 941.9896,-146.4662"/>
</g>
<!-- Node10 -->
<g id="node11" class="node">
<title>Node10</title>
<polygon fill="#ffffff" stroke="#bfbfbf" points="15.4151,-71.5 15.4151,-92.5 74.4151,-92.5 74.4151,-71.5 15.4151,-71.5"/>
<text text-anchor="middle" x="44.9151" y="-78.9" font-family="Helvetica,sans-Serif" font-size="12.00" fill="#000000">sstream</text>
</g>
<!-- Node0&#45;&gt;Node10 -->
<g id="edge30" class="edge">
<title>Node0&#45;&gt;Node10</title>
<path fill="none" stroke="#191970" d="M1245.3903,-205.9905C1084.9392,-197.8167 770.13,-179.5955 503.9151,-151 324.4309,-131.7207 279.9214,-123 101.9151,-93 96.3248,-92.0579 90.4392,-90.9987 84.6581,-89.9193"/>
<polygon fill="#191970" stroke="#191970" points="84.9292,-86.4082 74.451,-87.9758 83.6198,-93.2846 84.9292,-86.4082"/>
</g>
<!-- Node17 -->
<g id="node18" class="node">
<title>Node17</title>
<polygon fill="#ffffff" stroke="#bfbfbf" points="1430.4151,-71.5 1430.4151,-92.5 1485.4151,-92.5 1485.4151,-71.5 1430.4151,-71.5"/>
<text text-anchor="middle" x="1457.9151" y="-78.9" font-family="Helvetica,sans-Serif" font-size="12.00" fill="#000000">cassert</text>
</g>
<!-- Node0&#45;&gt;Node17 -->
<g id="edge31" class="edge">
<title>Node0&#45;&gt;Node17</title>
<path fill="none" stroke="#191970" d="M1341.9244,-187.4661C1336.8323,-169.907 1333.5079,-146.099 1344.9151,-129 1349.4503,-122.2017 1389.3468,-106.5996 1420.464,-95.2307"/>
<polygon fill="#191970" stroke="#191970" points="1421.9914,-98.4002 1430.2026,-91.7048 1419.6083,-91.8183 1421.9914,-98.4002"/>
</g>
<!-- Node21 -->
<g id="node22" class="node">
<title>Node21</title>
<polygon fill="#ffffff" stroke="#bfbfbf" points="1353.4151,-129.5 1353.4151,-150.5 1402.4151,-150.5 1402.4151,-129.5 1353.4151,-129.5"/>
<text text-anchor="middle" x="1377.9151" y="-136.9" font-family="Helvetica,sans-Serif" font-size="12.00" fill="#000000">vector</text>
</g>
<!-- Node0&#45;&gt;Node21 -->
<g id="edge25" class="edge">
<title>Node0&#45;&gt;Node21</title>
<path fill="none" stroke="#191970" d="M1359.9057,-187.358C1363.2648,-178.5249 1367.0447,-168.5851 1370.271,-160.101"/>
<polygon fill="#191970" stroke="#191970" points="1373.5834,-161.2373 1373.8665,-150.6462 1367.0405,-158.7491 1373.5834,-161.2373"/>
</g>
<!-- Node22 -->
<g id="node23" class="node">
<title>Node22</title>
<polygon fill="#ffffff" stroke="#bfbfbf" points="1420.9151,-129.5 1420.9151,-150.5 1476.9151,-150.5 1476.9151,-129.5 1420.9151,-129.5"/>
<text text-anchor="middle" x="1448.9151" y="-136.9" font-family="Helvetica,sans-Serif" font-size="12.00" fill="#000000">fstream</text>
</g>
<!-- Node0&#45;&gt;Node22 -->
<g id="edge26" class="edge">
<title>Node0&#45;&gt;Node22</title>
<path fill="none" stroke="#191970" d="M1383.5476,-187.358C1397.4816,-177.263 1413.4106,-165.7226 1426.0556,-156.5615"/>
<polygon fill="#191970" stroke="#191970" points="1428.1757,-159.3476 1434.2203,-150.6462 1424.0687,-153.6789 1428.1757,-159.3476"/>
</g>
<!-- Node23 -->
<g id="node24" class="node">
<title>Node23</title>
<polygon fill="#ffffff" stroke="#bfbfbf" points="1495.4151,-129.5 1495.4151,-150.5 1554.4151,-150.5 1554.4151,-129.5 1495.4151,-129.5"/>
<text text-anchor="middle" x="1524.9151" y="-136.9" font-family="Helvetica,sans-Serif" font-size="12.00" fill="#000000">iomanip</text>
</g>
<!-- Node0&#45;&gt;Node23 -->
<g id="edge27" class="edge">
<title>Node0&#45;&gt;Node23</title>
<path fill="none" stroke="#191970" d="M1408.8545,-187.358C1435.4975,-176.4865 1466.2485,-163.9386 1489.4011,-154.4913"/>
<polygon fill="#191970" stroke="#191970" points="1490.8878,-157.6649 1498.8243,-150.6462 1488.2431,-151.1837 1490.8878,-157.6649"/>
</g>
<!-- Node24 -->
<g id="node25" class="node">
<title>Node24</title>
<polygon fill="#ffffff" stroke="#bfbfbf" points="1572.4151,-129.5 1572.4151,-150.5 1621.4151,-150.5 1621.4151,-129.5 1572.4151,-129.5"/>
<text text-anchor="middle" x="1596.9151" y="-136.9" font-family="Helvetica,sans-Serif" font-size="12.00" fill="#000000">cmath</text>
</g>
<!-- Node0&#45;&gt;Node24 -->
<g id="edge28" class="edge">
<title>Node0&#45;&gt;Node24</title>
<path fill="none" stroke="#191970" d="M1437.9798,-187.4743C1474.1001,-177.4743 1516.6131,-165.3971 1562.2944,-151.4249"/>
<polygon fill="#191970" stroke="#191970" points="1563.5586,-154.698 1572.0892,-148.4147 1561.5022,-148.0069 1563.5586,-154.698"/>
</g>
<!-- Node25 -->
<g id="node26" class="node">
<title>Node25</title>
<polygon fill="#ffffff" stroke="#bfbfbf" points="1639.9151,-129.5 1639.9151,-150.5 1705.9151,-150.5 1705.9151,-129.5 1639.9151,-129.5"/>
<text text-anchor="middle" x="1672.9151" y="-136.9" font-family="Helvetica,sans-Serif" font-size="12.00" fill="#000000">algorithm</text>
</g>
<!-- Node0&#45;&gt;Node25 -->
<g id="edge32" class="edge">
<title>Node0&#45;&gt;Node25</title>
<path fill="none" stroke="#191970" d="M1456.5396,-189.539C1506.4156,-179.1223 1566.9727,-166.071 1629.4381,-151.2894"/>
<polygon fill="#191970" stroke="#191970" points="1630.5593,-154.6205 1639.4785,-148.9023 1628.9401,-147.8103 1630.5593,-154.6205"/>
</g>
<!-- Node26 -->
<g id="node27" class="node">
<title>Node26</title>
<polygon fill="#ffffff" stroke="#bfbfbf" points="1723.9151,-129.5 1723.9151,-150.5 1785.9151,-150.5 1785.9151,-129.5 1723.9151,-129.5"/>
<text text-anchor="middle" x="1754.9151" y="-136.9" font-family="Helvetica,sans-Serif" font-size="12.00" fill="#000000">sqlite3.h</text>
</g>
<!-- Node0&#45;&gt;Node26 -->
<g id="edge33" class="edge">
<title>Node0&#45;&gt;Node26</title>
<path fill="none" stroke="#191970" d="M1456.602,-196.5752C1526.9872,-186.2635 1621.6505,-171.0469 1713.5197,-151.1536"/>
<polygon fill="#191970" stroke="#191970" points="1714.5281,-154.5158 1723.5496,-148.9604 1713.0328,-147.6774 1714.5281,-154.5158"/>
</g>
<!-- Node2&#45;&gt;Node1 -->
<g id="edge3" class="edge">
<title>Node2&#45;&gt;Node1</title>
<path fill="none" stroke="#191970" d="M222.4622,-72.4541C225.6541,-71.9196 228.8284,-71.4273 231.9151,-71 443.4117,-41.7223 693.9234,-27.2642 826.253,-21.1925"/>
<polygon fill="#191970" stroke="#191970" points="826.5207,-24.684 836.352,-20.7349 826.2038,-17.6912 826.5207,-24.684"/>
</g>
<!-- Node2&#45;&gt;Node3 -->
<g id="edge4" class="edge">
<title>Node2&#45;&gt;Node3</title>
<path fill="none" stroke="#191970" d="M163.2093,-71.3491C150.3538,-61.359 130.9128,-46.2512 115.8915,-34.5781"/>
<polygon fill="#191970" stroke="#191970" points="117.6849,-31.5392 107.6412,-28.1667 113.3896,-37.0665 117.6849,-31.5392"/>
</g>
<!-- Node4 -->
<g id="node5" class="node">
<title>Node4</title>
<polygon fill="#ffffff" stroke="#bfbfbf" points="142.9151,-7 142.9151,-28 210.9151,-28 210.9151,-7 142.9151,-7"/>
<text text-anchor="middle" x="176.9151" y="-14.4" font-family="Helvetica,sans-Serif" font-size="12.00" fill="#000000">exception</text>
</g>
<!-- Node2&#45;&gt;Node4 -->
<g id="edge5" class="edge">
<title>Node2&#45;&gt;Node4</title>
<path fill="none" stroke="#191970" d="M176.9151,-71.3491C176.9151,-62.4397 176.9151,-49.4599 176.9151,-38.4761"/>
<polygon fill="#191970" stroke="#191970" points="180.4152,-38.3822 176.9151,-28.3823 173.4152,-38.3823 180.4152,-38.3822"/>
</g>
<!-- Node5 -->
<g id="node6" class="node">
<title>Node5</title>
<polygon fill="#ffffff" stroke="#bfbfbf" points="228.9151,-7 228.9151,-28 274.9151,-28 274.9151,-7 228.9151,-7"/>
<text text-anchor="middle" x="251.9151" y="-14.4" font-family="Helvetica,sans-Serif" font-size="12.00" fill="#000000">string</text>
</g>
<!-- Node2&#45;&gt;Node5 -->
<g id="edge6" class="edge">
<title>Node2&#45;&gt;Node5</title>
<path fill="none" stroke="#191970" d="M189.2998,-71.3491C200.8077,-61.4524 218.1556,-46.5332 231.6752,-34.9063"/>
<polygon fill="#191970" stroke="#191970" points="234.2122,-37.3408 239.5119,-28.1667 229.6479,-32.0335 234.2122,-37.3408"/>
</g>
<!-- Node6&#45;&gt;Node1 -->
<g id="edge20" class="edge">
<title>Node6&#45;&gt;Node1</title>
<path fill="none" stroke="#191970" d="M881.661,-129.1528C887.2051,-119.8494 894.9317,-105.9367 899.9151,-93 905.936,-77.3699 910.58,-59.1805 913.7692,-44.572"/>
<polygon fill="#191970" stroke="#191970" points="917.222,-45.1589 915.8333,-34.6555 910.3689,-43.7324 917.222,-45.1589"/>
</g>
<!-- Node6&#45;&gt;Node2 -->
<g id="edge21" class="edge">
<title>Node6&#45;&gt;Node2</title>
<path fill="none" stroke="#191970" d="M818.1212,-136.7594C686.4119,-129.1007 362.1892,-109.3875 232.5559,-92.8953"/>
<polygon fill="#191970" stroke="#191970" points="232.8319,-89.4014 222.4599,-91.5628 231.9159,-96.3412 232.8319,-89.4014"/>
</g>
<!-- Node6&#45;&gt;Node3 -->
<g id="edge12" class="edge">
<title>Node6&#45;&gt;Node3</title>
<path fill="none" stroke="#191970" d="M818.2976,-138.1466C647.8933,-132.3482 149.7771,-113.7011 121.9151,-93 104.8042,-80.2869 98.1431,-55.9331 95.5539,-38.3158"/>
<polygon fill="#191970" stroke="#191970" points="99.0041,-37.6795 94.3911,-28.1416 92.0494,-38.4744 99.0041,-37.6795"/>
</g>
<!-- Node7 -->
<g id="node8" class="node">
<title>Node7</title>
<polygon fill="#ffffff" stroke="#bfbfbf" points="858.9151,-71.5 858.9151,-92.5 890.9151,-92.5 890.9151,-71.5 858.9151,-71.5"/>
<text text-anchor="middle" x="874.9151" y="-78.9" font-family="Helvetica,sans-Serif" font-size="12.00" fill="#000000">list</text>
</g>
<!-- Node6&#45;&gt;Node7 -->
<g id="edge8" class="edge">
<title>Node6&#45;&gt;Node7</title>
<path fill="none" stroke="#191970" d="M874.9151,-129.3619C874.9151,-121.9219 874.9151,-111.7427 874.9151,-102.7276"/>
<polygon fill="#191970" stroke="#191970" points="878.4152,-102.5706 874.9151,-92.5707 871.4152,-102.5707 878.4152,-102.5706"/>
</g>
<!-- Node8 -->
<g id="node9" class="node">
<title>Node8</title>
<polygon fill="#ffffff" stroke="#bfbfbf" points="947.4151,-71.5 947.4151,-92.5 1006.4151,-92.5 1006.4151,-71.5 947.4151,-71.5"/>
<text text-anchor="middle" x="976.9151" y="-78.9" font-family="Helvetica,sans-Serif" font-size="12.00" fill="#000000">valarray</text>
</g>
<!-- Node6&#45;&gt;Node8 -->
<g id="edge9" class="edge">
<title>Node6&#45;&gt;Node8</title>
<path fill="none" stroke="#191970" d="M893.6234,-129.3619C909.2957,-120.4502 931.8792,-107.6087 949.5778,-97.5447"/>
<polygon fill="#191970" stroke="#191970" points="951.3625,-100.5562 958.3253,-92.5707 947.9023,-94.4712 951.3625,-100.5562"/>
</g>
<!-- Node9 -->
<g id="node10" class="node">
<title>Node9</title>
<polygon fill="#ffffff" stroke="#bfbfbf" points="1024.9151,-71.5 1024.9151,-92.5 1068.9151,-92.5 1068.9151,-71.5 1024.9151,-71.5"/>
<text text-anchor="middle" x="1046.9151" y="-78.9" font-family="Helvetica,sans-Serif" font-size="12.00" fill="#000000">limits</text>
</g>
<!-- Node6&#45;&gt;Node9 -->
<g id="edge10" class="edge">
<title>Node6&#45;&gt;Node9</title>
<path fill="none" stroke="#191970" d="M907.1748,-129.4423C933.7801,-120.6919 972.7417,-107.7789 1014.9528,-93.2946"/>
<polygon fill="#191970" stroke="#191970" points="1016.2643,-96.5448 1024.582,-89.9824 1013.9873,-89.9255 1016.2643,-96.5448"/>
</g>
<!-- Node6&#45;&gt;Node10 -->
<g id="edge11" class="edge">
<title>Node6&#45;&gt;Node10</title>
<path fill="none" stroke="#191970" d="M818.3251,-137.98C662.5682,-132.2027 229.7762,-114.6281 88.9151,-93 87.4558,-92.7759 85.9742,-92.5257 84.4815,-92.2543"/>
<polygon fill="#191970" stroke="#191970" points="85.0866,-88.8055 74.5852,-90.2096 83.6702,-95.6607 85.0866,-88.8055"/>
</g>
<!-- Node11 -->
<g id="node12" class="node">
<title>Node11</title>
<polygon fill="#ffffff" stroke="#bfbfbf" points="1087.4151,-71.5 1087.4151,-92.5 1140.4151,-92.5 1140.4151,-71.5 1087.4151,-71.5"/>
<text text-anchor="middle" x="1113.9151" y="-78.9" font-family="Helvetica,sans-Serif" font-size="12.00" fill="#000000">iterator</text>
</g>
<!-- Node6&#45;&gt;Node11 -->
<g id="edge13" class="edge">
<title>Node6&#45;&gt;Node11</title>
<path fill="none" stroke="#191970" d="M924.7916,-129.4588C963.8561,-120.9746 1019.7527,-108.336 1077.567,-92.9674"/>
<polygon fill="#191970" stroke="#191970" points="1078.4848,-96.345 1087.2378,-90.3755 1076.6726,-89.5836 1078.4848,-96.345"/>
</g>
<!-- Node12 -->
<g id="node13" class="node">
<title>Node12</title>
<polygon fill="#ffffff" stroke="#bfbfbf" points="1158.9151,-71.5 1158.9151,-92.5 1258.9151,-92.5 1258.9151,-71.5 1158.9151,-71.5"/>
<text text-anchor="middle" x="1208.9151" y="-78.9" font-family="Helvetica,sans-Serif" font-size="12.00" fill="#000000">gsl/gsl_vector.h</text>
</g>
<!-- Node6&#45;&gt;Node12 -->
<g id="edge14" class="edge">
<title>Node6&#45;&gt;Node12</title>
<path fill="none" stroke="#191970" d="M931.5765,-130.572C985.0349,-121.6189 1067.6926,-107.6269 1148.8275,-93.1771"/>
<polygon fill="#191970" stroke="#191970" points="1149.4829,-96.6155 1158.7124,-91.413 1148.253,-89.7244 1149.4829,-96.6155"/>
</g>
<!-- Node13 -->
<g id="node14" class="node">
<title>Node13</title>
<polygon fill="#ffffff" stroke="#bfbfbf" points="240.9151,-71.5 240.9151,-92.5 340.9151,-92.5 340.9151,-71.5 240.9151,-71.5"/>
<text text-anchor="middle" x="290.9151" y="-78.9" font-family="Helvetica,sans-Serif" font-size="12.00" fill="#000000">gsl/gsl_matrix.h</text>
</g>
<!-- Node6&#45;&gt;Node13 -->
<g id="edge15" class="edge">
<title>Node6&#45;&gt;Node13</title>
<path fill="none" stroke="#191970" d="M818.3889,-136.7077C723.7609,-130.8088 527.1381,-116.8978 351.0392,-93.0504"/>
<polygon fill="#191970" stroke="#191970" points="351.4565,-89.575 341.0744,-91.6872 350.5077,-96.5104 351.4565,-89.575"/>
</g>
<!-- Node14 -->
<g id="node15" class="node">
<title>Node14</title>
<polygon fill="#ffffff" stroke="#bfbfbf" points="359.4151,-71.5 359.4151,-92.5 456.4151,-92.5 456.4151,-71.5 359.4151,-71.5"/>
<text text-anchor="middle" x="407.9151" y="-78.9" font-family="Helvetica,sans-Serif" font-size="12.00" fill="#000000">gsl/gsl_linalg.h</text>
</g>
<!-- Node6&#45;&gt;Node14 -->
<g id="edge16" class="edge">
<title>Node6&#45;&gt;Node14</title>
<path fill="none" stroke="#191970" d="M818.1735,-134.8009C741.0532,-127.4418 598.6284,-112.8145 466.8791,-93.056"/>
<polygon fill="#191970" stroke="#191970" points="467.0162,-89.537 456.6051,-91.5014 465.9689,-96.4582 467.0162,-89.537"/>
</g>
<!-- Node15 -->
<g id="node16" class="node">
<title>Node15</title>
<polygon fill="#ffffff" stroke="#bfbfbf" points="474.9151,-71.5 474.9151,-92.5 564.9151,-92.5 564.9151,-71.5 474.9151,-71.5"/>
<text text-anchor="middle" x="519.9151" y="-78.9" font-family="Helvetica,sans-Serif" font-size="12.00" fill="#000000">gsl/gsl_blas.h</text>
</g>
<!-- Node6&#45;&gt;Node15 -->
<g id="edge17" class="edge">
<title>Node6&#45;&gt;Node15</title>
<path fill="none" stroke="#191970" d="M818.1989,-131.9395C759.7232,-123.4497 665.6666,-109.2971 574.8761,-93.1154"/>
<polygon fill="#191970" stroke="#191970" points="575.4272,-89.6585 564.9665,-91.3387 574.1918,-96.5486 575.4272,-89.6585"/>
</g>
<!-- Node16 -->
<g id="node17" class="node">
<title>Node16</title>
<polygon fill="#ffffff" stroke="#bfbfbf" points="582.9151,-71.5 582.9151,-92.5 672.9151,-92.5 672.9151,-71.5 582.9151,-71.5"/>
<text text-anchor="middle" x="627.9151" y="-78.9" font-family="Helvetica,sans-Serif" font-size="12.00" fill="#000000">gsl/gsl_poly.h</text>
</g>
<!-- Node6&#45;&gt;Node16 -->
<g id="edge18" class="edge">
<title>Node6&#45;&gt;Node16</title>
<path fill="none" stroke="#191970" d="M830.1852,-129.4966C788.6973,-119.7545 726.8547,-105.2328 682.4807,-94.813"/>
<polygon fill="#191970" stroke="#191970" points="683.2641,-91.4018 672.7288,-92.5231 681.6639,-98.2165 683.2641,-91.4018"/>
</g>
<!-- Node6&#45;&gt;Node17 -->
<g id="edge19" class="edge">
<title>Node6&#45;&gt;Node17</title>
<path fill="none" stroke="#191970" d="M931.7588,-139.0493C1029.9489,-136.5521 1237.6054,-127.5115 1420.1064,-93.0442"/>
<polygon fill="#191970" stroke="#191970" points="1420.9925,-96.4381 1430.1535,-91.1158 1419.6729,-89.5636 1420.9925,-96.4381"/>
</g>
<!-- Node18 -->
<g id="node19" class="node">
<title>Node18</title>
<g id="a_node19"><a xlink:href="AstronomicalConstants_8h.html" target="_top" xlink:title="Defines various astronomical constants. ">
<polygon fill="#ffffff" stroke="#000000" points="690.9151,-71.5 690.9151,-92.5 840.9151,-92.5 840.9151,-71.5 690.9151,-71.5"/>
<text text-anchor="middle" x="765.9151" y="-78.9" font-family="Helvetica,sans-Serif" font-size="12.00" fill="#000000">AstronomicalConstants.h</text>
</a>
</g>
</g>
<!-- Node6&#45;&gt;Node18 -->
<g id="edge22" class="edge">
<title>Node6&#45;&gt;Node18</title>
<path fill="none" stroke="#191970" d="M855.176,-129.4966C838.3049,-120.5194 813.8065,-107.4835 794.7413,-97.3387"/>
<polygon fill="#191970" stroke="#191970" points="796.3478,-94.2289 785.8756,-92.6212 793.0595,-100.4086 796.3478,-94.2289"/>
</g>
<!-- Node19 -->
<g id="node20" class="node">
<title>Node19</title>
<g id="a_node20"><a xlink:href="IncludeEigen_8h_source.html" target="_top" xlink:title="IncludeEigen.h">
<polygon fill="#ffffff" stroke="#000000" points="1315.4151,-71.5 1315.4151,-92.5 1412.4151,-92.5 1412.4151,-71.5 1315.4151,-71.5"/>
<text text-anchor="middle" x="1363.9151" y="-78.9" font-family="Helvetica,sans-Serif" font-size="12.00" fill="#000000">IncludeEigen.h</text>
</a>
</g>
</g>
<!-- Node6&#45;&gt;Node19 -->
<g id="edge23" class="edge">
<title>Node6&#45;&gt;Node19</title>
<path fill="none" stroke="#191970" d="M931.4873,-133.29C1024.8758,-122.2132 1210.3737,-100.2115 1305.1696,-88.9678"/>
<polygon fill="#191970" stroke="#191970" points="1305.6437,-92.4362 1315.1618,-87.7826 1304.8192,-85.4849 1305.6437,-92.4362"/>
</g>
<!-- Node20 -->
<g id="node21" class="node">
<title>Node20</title>
<polygon fill="#ffffff" stroke="#bfbfbf" points="1320.9151,-7 1320.9151,-28 1406.9151,-28 1406.9151,-7 1320.9151,-7"/>
<text text-anchor="middle" x="1363.9151" y="-14.4" font-family="Helvetica,sans-Serif" font-size="12.00" fill="#000000">Eigen/Dense</text>
</g>
<!-- Node19&#45;&gt;Node20 -->
<g id="edge24" class="edge">
<title>Node19&#45;&gt;Node20</title>
<path fill="none" stroke="#191970" d="M1363.9151,-71.3491C1363.9151,-62.4397 1363.9151,-49.4599 1363.9151,-38.4761"/>
<polygon fill="#191970" stroke="#191970" points="1367.4152,-38.3822 1363.9151,-28.3823 1360.4152,-38.3823 1367.4152,-38.3822"/>
</g>
</g>
</svg>
        <g id="navigator" transform="translate(0 0)" fill="#404254">
                <rect fill="#f2f5e9" fill-opacity="0.5" stroke="#606060" stroke-width=".5" x="0" y="0" width="60" height="60"/>
                <use id="zoomplus" xlink:href="#zoomPlus" x="17" y="9" onmousedown="handleZoom(evt,'in')"/>
                <use id="zoomminus" xlink:href="#zoomMin" x="42" y="9" onmousedown="handleZoom(evt,'out')"/>
                <use id="reset" xlink:href="#resetDef" x="30" y="36" onmousedown="handleReset()"/>
                <g id="arrowUp" xlink:href="#dirArrow" transform="translate(30 24)" onmousedown="handlePan(0,-1)">
                  <use xlink:href="#rim" fill="#404040">
                        <set attributeName="fill" to="#808080" begin="arrowUp.mouseover" end="arrowUp.mouseout"/>
                  </use>
                  <path fill="none" stroke="white" stroke-width="1.5" d="M0,-3.0v7 M-2.5,-0.5L0,-3.0L2.5,-0.5"/>
                </g>
                <g id="arrowRight" xlink:href="#dirArrow" transform="rotate(90) translate(36 -43)" onmousedown="handlePan(1,0)">
                  <use xlink:href="#rim" fill="#404040">
                        <set attributeName="fill" to="#808080" begin="arrowRight.mouseover" end="arrowRight.mouseout"/>
                  </use>
                  <path fill="none" stroke="white" stroke-width="1.5" d="M0,-3.0v7 M-2.5,-0.5L0,-3.0L2.5,-0.5"/>
                </g>
                <g id="arrowDown" xlink:href="#dirArrow" transform="rotate(180) translate(-30 -48)" onmousedown="handlePan(0,1)">
                  <use xlink:href="#rim" fill="#404040">
                        <set attributeName="fill" to="#808080" begin="arrowDown.mouseover" end="arrowDown.mouseout"/>
                  </use>
                  <path fill="none" stroke="white" stroke-width="1.5" d="M0,-3.0v7 M-2.5,-0.5L0,-3.0L2.5,-0.5"/>
                </g>
                <g id="arrowLeft" xlink:href="#dirArrow" transform="rotate(270) translate(-36 17)" onmousedown="handlePan(-1,0)">
                  <use xlink:href="#rim" fill="#404040">
                        <set attributeName="fill" to="#808080" begin="arrowLeft.mouseover" end="arrowLeft.mouseout"/>
                  </use>
                  <path fill="none" stroke="white" stroke-width="1.5" d="M0,-3.0v7 M-2.5,-0.5L0,-3.0L2.5,-0.5"/>
                </g>
        </g>
        <svg viewBox="0 0 15 15" width="100%" height="30px" preserveAspectRatio="xMaxYMin meet">
         <g id="arrow_out" transform="scale(0.3 0.3)">
          <a xlink:href="EccentricityExpansionCoefficients_8h__incl_org.svg" target="_base">
           <rect id="button" ry="5" rx="5" y="6" x="6" height="38" width="38"
                fill="#f2f5e9" fill-opacity="0.5" stroke="#606060" stroke-width="1.0"/>
           <path id="arrow"
             d="M 11.500037,31.436501 C 11.940474,20.09759 22.043105,11.32322 32.158766,21.979434 L 37.068811,17.246167 C 37.068811,17.246167 37.088388,32 37.088388,32 L 22.160133,31.978069 C 22.160133,31.978069 26.997745,27.140456 26.997745,27.140456 C 18.528582,18.264221 13.291696,25.230495 11.500037,31.436501 z"
             style="fill:#404040;"/>
          </a>
         </g>
        </svg>
</svg>
