<?xml version="1.0" encoding="UTF-8" standalone="no"?>
<!DOCTYPE svg PUBLIC "-//W3C//DTD SVG 1.1//EN"
 "http://www.w3.org/Graphics/SVG/1.1/DTD/svg11.dtd">
<!-- Generated by graphviz version 2.40.1 (20161225.0304)
 -->
<!-- Title: /Users/kpenev/projects/git/poet/poet_src/Evolve/EccentricityExpansionCoefficients.h Pages: 1 -->
<svg width="821pt" height="179pt"
 viewBox="0.00 0.00 821.38 179.00" xmlns="http://www.w3.org/2000/svg" xmlns:xlink="http://www.w3.org/1999/xlink">
<g id="graph0" class="graph" transform="scale(1 1) rotate(0) translate(4 175)">
<title>/Users/kpenev/projects/git/poet/poet_src/Evolve/EccentricityExpansionCoefficients.h</title>
<polygon fill="#ffffff" stroke="transparent" points="-4,4 -4,-175 817.3779,-175 817.3779,4 -4,4"/>
<!-- Node0 -->
<g id="node1" class="node">
<title>Node0</title>
<polygon fill="#bfbfbf" stroke="#000000" points="341.9893,-126.5 341.9893,-170.5 551.4131,-170.5 551.4131,-126.5 341.9893,-126.5"/>
<text text-anchor="start" x="349.9893" y="-156.9" font-family="Helvetica,sans-Serif" font-size="12.00" fill="#000000">/Users/kpenev/projects</text>
<text text-anchor="start" x="349.9893" y="-144.9" font-family="Helvetica,sans-Serif" font-size="12.00" fill="#000000">/git/poet/poet_src/Evolve</text>
<text text-anchor="middle" x="446.7012" y="-132.9" font-family="Helvetica,sans-Serif" font-size="12.00" fill="#000000">/EccentricityExpansionCoefficients.h</text>
</g>
<!-- Node1 -->
<g id="node2" class="node">
<title>Node1</title>
<g id="a_node2"><a xlink:href="SharedLibraryExportMacros_8h_source.html" target="_top" xlink:title="../Core/SharedLibraryExport\lMacros.h">
<polygon fill="#ffffff" stroke="#000000" points="0,-.5 0,-32.5 165.4023,-32.5 165.4023,-.5 0,-.5"/>
<text text-anchor="start" x="8" y="-18.9" font-family="Helvetica,sans-Serif" font-size="12.00" fill="#000000">../Core/SharedLibraryExport</text>
<text text-anchor="middle" x="82.7012" y="-6.9" font-family="Helvetica,sans-Serif" font-size="12.00" fill="#000000">Macros.h</text>
</a>
</g>
</g>
<!-- Node0&#45;&gt;Node1 -->
<g id="edge1" class="edge">
<title>Node0&#45;&gt;Node1</title>
<path fill="none" stroke="#191970" d="M341.8451,-134.5932C293.2265,-125.7336 235.5331,-111.7059 186.7012,-90 157.7573,-77.1344 128.6386,-55.6504 108.6052,-39.2231"/>
<polygon fill="#191970" stroke="#191970" points="110.7843,-36.4829 100.8663,-32.7569 106.296,-41.8546 110.7843,-36.4829"/>
</g>
<!-- Node2 -->
<g id="node3" class="node">
<title>Node2</title>
<g id="a_node3"><a xlink:href="Error_8h.html" target="_top" xlink:title="Defines the exception hierarchy used by this code. ">
<polygon fill="#ffffff" stroke="#000000" points="206.0195,-69.5 206.0195,-89.5 297.3828,-89.5 297.3828,-69.5 206.0195,-69.5"/>
<text text-anchor="middle" x="251.7012" y="-75.9" font-family="Helvetica,sans-Serif" font-size="12.00" fill="#000000">../Core/Error.h</text>
</a>
</g>
</g>
<!-- Node0&#45;&gt;Node2 -->
<g id="edge2" class="edge">
<title>Node0&#45;&gt;Node2</title>
<path fill="none" stroke="#191970" d="M384.4658,-126.4783C353.295,-115.4486 316.5666,-102.4524 289.6513,-92.9285"/>
<polygon fill="#191970" stroke="#191970" points="290.8023,-89.6232 280.2075,-89.5869 288.4672,-96.2222 290.8023,-89.6232"/>
</g>
<!-- Node3 -->
<g id="node4" class="node">
<title>Node3</title>
<polygon fill="#ffffff" stroke="#bfbfbf" points="183.6943,-6.5 183.6943,-26.5 245.708,-26.5 245.708,-6.5 183.6943,-6.5"/>
<text text-anchor="middle" x="214.7012" y="-12.9" font-family="Helvetica,sans-Serif" font-size="12.00" fill="#000000">iostream</text>
</g>
<!-- Node0&#45;&gt;Node3 -->
<g id="edge11" class="edge">
<title>Node0&#45;&gt;Node3</title>
<path fill="none" stroke="#191970" d="M341.7774,-137.0481C281.8783,-128.1085 215.1196,-113.2259 196.7012,-90 184.2819,-74.3392 192.9816,-51.3332 202.0847,-35.2438"/>
<polygon fill="#191970" stroke="#191970" points="205.0933,-37.0327 207.3345,-26.6776 199.1249,-33.375 205.0933,-37.0327"/>
</g>
<!-- Node6 -->
<g id="node7" class="node">
<title>Node6</title>
<polygon fill="#ffffff" stroke="#bfbfbf" points="315.3623,-69.5 315.3623,-89.5 364.04,-89.5 364.04,-69.5 315.3623,-69.5"/>
<text text-anchor="middle" x="339.7012" y="-75.9" font-family="Helvetica,sans-Serif" font-size="12.00" fill="#000000">vector</text>
</g>
<!-- Node0&#45;&gt;Node6 -->
<g id="edge7" class="edge">
<title>Node0&#45;&gt;Node6</title>
<path fill="none" stroke="#191970" d="M412.5515,-126.4783C396.7979,-116.3194 378.4571,-104.4922 364.1195,-95.2464"/>
<polygon fill="#191970" stroke="#191970" points="365.6441,-92.0649 355.3431,-89.5869 361.8504,-97.9478 365.6441,-92.0649"/>
</g>
<!-- Node7 -->
<g id="node8" class="node">
<title>Node7</title>
<polygon fill="#ffffff" stroke="#bfbfbf" points="381.6973,-69.5 381.6973,-89.5 437.7051,-89.5 437.7051,-69.5 381.6973,-69.5"/>
<text text-anchor="middle" x="409.7012" y="-75.9" font-family="Helvetica,sans-Serif" font-size="12.00" fill="#000000">fstream</text>
</g>
<!-- Node0&#45;&gt;Node7 -->
<g id="edge8" class="edge">
<title>Node0&#45;&gt;Node7</title>
<path fill="none" stroke="#191970" d="M434.7905,-126.2882C430.0016,-117.3575 424.5351,-107.1632 419.9297,-98.5749"/>
<polygon fill="#191970" stroke="#191970" points="422.9884,-96.8725 415.1781,-89.7137 416.8194,-100.1806 422.9884,-96.8725"/>
</g>
<!-- Node8 -->
<g id="node9" class="node">
<title>Node8</title>
<polygon fill="#ffffff" stroke="#bfbfbf" points="455.6895,-69.5 455.6895,-89.5 513.7129,-89.5 513.7129,-69.5 455.6895,-69.5"/>
<text text-anchor="middle" x="484.7012" y="-75.9" font-family="Helvetica,sans-Serif" font-size="12.00" fill="#000000">iomanip</text>
</g>
<!-- Node0&#45;&gt;Node8 -->
<g id="edge9" class="edge">
<title>Node0&#45;&gt;Node8</title>
<path fill="none" stroke="#191970" d="M458.9338,-126.2882C463.8521,-117.3575 469.4664,-107.1632 474.1962,-98.5749"/>
<polygon fill="#191970" stroke="#191970" points="477.318,-100.1616 479.0763,-89.7137 471.1863,-96.7847 477.318,-100.1616"/>
</g>
<!-- Node9 -->
<g id="node10" class="node">
<title>Node9</title>
<polygon fill="#ffffff" stroke="#bfbfbf" points="531.3623,-69.5 531.3623,-89.5 580.04,-89.5 580.04,-69.5 531.3623,-69.5"/>
<text text-anchor="middle" x="555.7012" y="-75.9" font-family="Helvetica,sans-Serif" font-size="12.00" fill="#000000">cmath</text>
</g>
<!-- Node0&#45;&gt;Node9 -->
<g id="edge10" class="edge">
<title>Node0&#45;&gt;Node9</title>
<path fill="none" stroke="#191970" d="M481.4891,-126.4783C497.6901,-116.2226 516.5769,-104.2667 531.2426,-94.9829"/>
<polygon fill="#191970" stroke="#191970" points="533.1895,-97.8929 539.7669,-89.5869 529.4454,-91.9783 533.1895,-97.8929"/>
</g>
<!-- Node10 -->
<g id="node11" class="node">
<title>Node10</title>
<polygon fill="#ffffff" stroke="#bfbfbf" points="598.3643,-69.5 598.3643,-89.5 657.0381,-89.5 657.0381,-69.5 598.3643,-69.5"/>
<text text-anchor="middle" x="627.7012" y="-75.9" font-family="Helvetica,sans-Serif" font-size="12.00" fill="#000000">sstream</text>
</g>
<!-- Node0&#45;&gt;Node10 -->
<g id="edge12" class="edge">
<title>Node0&#45;&gt;Node10</title>
<path fill="none" stroke="#191970" d="M504.4683,-126.4783C533.1474,-115.5453 566.895,-102.6802 591.8162,-93.1799"/>
<polygon fill="#191970" stroke="#191970" points="593.1441,-96.4194 601.2414,-89.5869 590.6506,-89.8786 593.1441,-96.4194"/>
</g>
<!-- Node11 -->
<g id="node12" class="node">
<title>Node11</title>
<polygon fill="#ffffff" stroke="#bfbfbf" points="675.3623,-69.5 675.3623,-89.5 730.04,-89.5 730.04,-69.5 675.3623,-69.5"/>
<text text-anchor="middle" x="702.7012" y="-75.9" font-family="Helvetica,sans-Serif" font-size="12.00" fill="#000000">cassert</text>
</g>
<!-- Node0&#45;&gt;Node11 -->
<g id="edge13" class="edge">
<title>Node0&#45;&gt;Node11</title>
<path fill="none" stroke="#191970" d="M530.4985,-126.4412C568.8554,-116.2662 615.1237,-103.8843 665.4545,-90.0402"/>
<polygon fill="#191970" stroke="#191970" points="666.5243,-93.3759 675.2354,-87.3454 664.6649,-86.6274 666.5243,-93.3759"/>
</g>
<!-- Node12 -->
<g id="node13" class="node">
<title>Node12</title>
<polygon fill="#ffffff" stroke="#bfbfbf" points="748.0244,-69.5 748.0244,-89.5 813.3779,-89.5 813.3779,-69.5 748.0244,-69.5"/>
<text text-anchor="middle" x="780.7012" y="-75.9" font-family="Helvetica,sans-Serif" font-size="12.00" fill="#000000">algorithm</text>
</g>
<!-- Node0&#45;&gt;Node12 -->
<g id="edge14" class="edge">
<title>Node0&#45;&gt;Node12</title>
<path fill="none" stroke="#191970" d="M551.6954,-128.7102C604.7844,-118.4045 670.4249,-105.2099 737.7734,-90.1385"/>
<polygon fill="#191970" stroke="#191970" points="738.7328,-93.5102 747.7212,-87.9014 737.1969,-86.6808 738.7328,-93.5102"/>
</g>
<!-- Node2&#45;&gt;Node1 -->
<g id="edge3" class="edge">
<title>Node2&#45;&gt;Node1</title>
<path fill="none" stroke="#191970" d="M224.5484,-69.378C200.6571,-60.4717 165.1852,-47.2485 135.6912,-36.2537"/>
<polygon fill="#191970" stroke="#191970" points="136.5361,-32.8334 125.9435,-32.6199 134.091,-39.3925 136.5361,-32.8334"/>
</g>
<!-- Node2&#45;&gt;Node3 -->
<g id="edge4" class="edge">
<title>Node2&#45;&gt;Node3</title>
<path fill="none" stroke="#191970" d="M245.7565,-69.378C240.4478,-60.3389 232.5275,-46.853 226.0144,-35.7631"/>
<polygon fill="#191970" stroke="#191970" points="228.8363,-33.6566 220.754,-26.8062 222.8003,-37.2016 228.8363,-33.6566"/>
</g>
<!-- Node4 -->
<g id="node5" class="node">
<title>Node4</title>
<polygon fill="#ffffff" stroke="#bfbfbf" points="264.0166,-6.5 264.0166,-26.5 331.3857,-26.5 331.3857,-6.5 264.0166,-6.5"/>
<text text-anchor="middle" x="297.7012" y="-12.9" font-family="Helvetica,sans-Serif" font-size="12.00" fill="#000000">exception</text>
</g>
<!-- Node2&#45;&gt;Node4 -->
<g id="edge5" class="edge">
<title>Node2&#45;&gt;Node4</title>
<path fill="none" stroke="#191970" d="M259.0919,-69.378C265.8252,-60.1563 275.9379,-46.3063 284.1246,-35.094"/>
<polygon fill="#191970" stroke="#191970" points="287.1057,-36.9464 290.176,-26.8062 281.4523,-32.8185 287.1057,-36.9464"/>
</g>
<!-- Node5 -->
<g id="node6" class="node">
<title>Node5</title>
<polygon fill="#ffffff" stroke="#bfbfbf" points="349.0293,-6.5 349.0293,-26.5 394.373,-26.5 394.373,-6.5 349.0293,-6.5"/>
<text text-anchor="middle" x="371.7012" y="-12.9" font-family="Helvetica,sans-Serif" font-size="12.00" fill="#000000">string</text>
</g>
<!-- Node2&#45;&gt;Node5 -->
<g id="edge6" class="edge">
<title>Node2&#45;&gt;Node5</title>
<path fill="none" stroke="#191970" d="M271.1687,-69.3832C289.2146,-59.9924 316.7996,-45.6046 340.7012,-33 341.6719,-32.4881 342.6594,-31.9666 343.6564,-31.4394"/>
<polygon fill="#191970" stroke="#191970" points="345.5015,-34.4227 352.696,-26.6452 342.2216,-28.2386 345.5015,-34.4227"/>
</g>
</g>
</svg>
