<?xml version="1.0" encoding="UTF-8" standalone="no"?>
<!DOCTYPE svg PUBLIC "-//W3C//DTD SVG 1.1//EN"
 "http://www.w3.org/Graphics/SVG/1.1/DTD/svg11.dtd">
<!-- Generated by graphviz version 2.40.1 (20161225.0304)
 -->
<!-- Title: /Users/kpenev/projects/git/poet/poet_src/Core/Error.h Pages: 1 -->
<svg width="402pt" height="122pt"
 viewBox="0.00 0.00 402.37 122.00" xmlns="http://www.w3.org/2000/svg" xmlns:xlink="http://www.w3.org/1999/xlink">
<g id="graph0" class="graph" transform="scale(1 1) rotate(0) translate(4 118)">
<title>/Users/kpenev/projects/git/poet/poet_src/Core/Error.h</title>
<polygon fill="#ffffff" stroke="transparent" points="-4,4 -4,-118 398.373,-118 398.373,4 -4,4"/>
<!-- Node0 -->
<g id="node1" class="node">
<title>Node0</title>
<polygon fill="#bfbfbf" stroke="#000000" points="186.6758,-69.5 186.6758,-113.5 324.7266,-113.5 324.7266,-69.5 186.6758,-69.5"/>
<text text-anchor="start" x="194.6758" y="-99.9" font-family="Helvetica,sans-Serif" font-size="12.00" fill="#000000">/Users/kpenev/projects</text>
<text text-anchor="start" x="194.6758" y="-87.9" font-family="Helvetica,sans-Serif" font-size="12.00" fill="#000000">/git/poet/poet_src/Core</text>
<text text-anchor="middle" x="255.7012" y="-75.9" font-family="Helvetica,sans-Serif" font-size="12.00" fill="#000000">/Error.h</text>
</g>
<!-- Node1 -->
<g id="node2" class="node">
<title>Node1</title>
<g id="a_node2"><a xlink:href="SharedLibraryExportMacros_8h_source.html" target="_top" xlink:title="../Core/SharedLibraryExport\lMacros.h">
<polygon fill="#ffffff" stroke="#000000" points="0,-.5 0,-32.5 165.4023,-32.5 165.4023,-.5 0,-.5"/>
<text text-anchor="start" x="8" y="-18.9" font-family="Helvetica,sans-Serif" font-size="12.00" fill="#000000">../Core/SharedLibraryExport</text>
<text text-anchor="middle" x="82.7012" y="-6.9" font-family="Helvetica,sans-Serif" font-size="12.00" fill="#000000">Macros.h</text>
</a>
</g>
</g>
<!-- Node0&#45;&gt;Node1 -->
<g id="edge1" class="edge">
<title>Node0&#45;&gt;Node1</title>
<path fill="none" stroke="#191970" d="M204.7312,-69.4032C180.8164,-59.0355 152.5161,-46.7666 129.1928,-36.6553"/>
<polygon fill="#191970" stroke="#191970" points="130.4276,-33.3759 119.8605,-32.6095 127.6432,-39.7984 130.4276,-33.3759"/>
</g>
<!-- Node2 -->
<g id="node3" class="node">
<title>Node2</title>
<polygon fill="#ffffff" stroke="#bfbfbf" points="183.6943,-6.5 183.6943,-26.5 245.708,-26.5 245.708,-6.5 183.6943,-6.5"/>
<text text-anchor="middle" x="214.7012" y="-12.9" font-family="Helvetica,sans-Serif" font-size="12.00" fill="#000000">iostream</text>
</g>
<!-- Node0&#45;&gt;Node2 -->
<g id="edge2" class="edge">
<title>Node0&#45;&gt;Node2</title>
<path fill="none" stroke="#191970" d="M243.6216,-69.4032C237.7503,-58.663 230.7636,-45.8825 225.1283,-35.574"/>
<polygon fill="#191970" stroke="#191970" points="228.0878,-33.691 220.22,-26.5954 221.9457,-37.0487 228.0878,-33.691"/>
</g>
<!-- Node3 -->
<g id="node4" class="node">
<title>Node3</title>
<polygon fill="#ffffff" stroke="#bfbfbf" points="264.0166,-6.5 264.0166,-26.5 331.3857,-26.5 331.3857,-6.5 264.0166,-6.5"/>
<text text-anchor="middle" x="297.7012" y="-12.9" font-family="Helvetica,sans-Serif" font-size="12.00" fill="#000000">exception</text>
</g>
<!-- Node0&#45;&gt;Node3 -->
<g id="edge3" class="edge">
<title>Node0&#45;&gt;Node3</title>
<path fill="none" stroke="#191970" d="M268.0754,-69.4032C274.0899,-58.663 281.247,-45.8825 287.0197,-35.574"/>
<polygon fill="#191970" stroke="#191970" points="290.2155,-37.0306 292.0478,-26.5954 284.1079,-33.6103 290.2155,-37.0306"/>
</g>
<!-- Node4 -->
<g id="node5" class="node">
<title>Node4</title>
<polygon fill="#ffffff" stroke="#bfbfbf" points="349.0293,-6.5 349.0293,-26.5 394.373,-26.5 394.373,-6.5 349.0293,-6.5"/>
<text text-anchor="middle" x="371.7012" y="-12.9" font-family="Helvetica,sans-Serif" font-size="12.00" fill="#000000">string</text>
</g>
<!-- Node0&#45;&gt;Node4 -->
<g id="edge4" class="edge">
<title>Node0&#45;&gt;Node4</title>
<path fill="none" stroke="#191970" d="M289.8776,-69.4032C308.3729,-57.445 330.7801,-42.9576 347.4665,-32.1689"/>
<polygon fill="#191970" stroke="#191970" points="349.5897,-34.9641 356.087,-26.5954 345.789,-29.0857 349.5897,-34.9641"/>
</g>
</g>
</svg>
