<?xml version="1.0" encoding="UTF-8" standalone="no"?>
<!DOCTYPE svg PUBLIC "-//W3C//DTD SVG 1.1//EN"
 "http://www.w3.org/Graphics/SVG/1.1/DTD/svg11.dtd">
<!-- Generated by graphviz version 2.40.1 (20161225.0304)
 -->
<!-- Title: /home/kpenev/projects/git/poet/poet_src/Star/EvolvingStellarCore.h Pages: 1 -->
<svg width="1167pt" height="418pt"
 viewBox="0.00 0.00 1167.00 418.00" xmlns="http://www.w3.org/2000/svg" xmlns:xlink="http://www.w3.org/1999/xlink">
<g id="graph0" class="graph" transform="scale(1 1) rotate(0) translate(4 414)">
<title>/home/kpenev/projects/git/poet/poet_src/Star/EvolvingStellarCore.h</title>
<polygon fill="#ffffff" stroke="transparent" points="-4,4 -4,-414 1163,-414 1163,4 -4,4"/>
<!-- Node67 -->
<g id="node1" class="node">
<title>Node67</title>
<polygon fill="#bfbfbf" stroke="#000000" points="696,-362.5 696,-409.5 833,-409.5 833,-362.5 696,-362.5"/>
<text text-anchor="start" x="704" y="-395.9" font-family="Helvetica,sans-Serif" font-size="12.00" fill="#000000">/home/kpenev/projects</text>
<text text-anchor="start" x="704" y="-382.9" font-family="Helvetica,sans-Serif" font-size="12.00" fill="#000000">/git/poet/poet_src/Star</text>
<text text-anchor="middle" x="764.5" y="-369.9" font-family="Helvetica,sans-Serif" font-size="12.00" fill="#000000">/EvolvingStellarCore.h</text>
</g>
<!-- Node68 -->
<g id="node2" class="node">
<title>Node68</title>
<g id="a_node2"><a xlink:href="EvolvingStar_8h.html" target="_top" xlink:title="Declares the class for stars that user pre&#45;tabulated stellar evolution tracks. ">
<polygon fill="#ffffff" stroke="#000000" points="616,-278.5 616,-325.5 753,-325.5 753,-278.5 616,-278.5"/>
<text text-anchor="start" x="624" y="-311.9" font-family="Helvetica,sans-Serif" font-size="12.00" fill="#000000">/home/kpenev/projects</text>
<text text-anchor="start" x="624" y="-298.9" font-family="Helvetica,sans-Serif" font-size="12.00" fill="#000000">/git/poet/poet_src/Star</text>
<text text-anchor="middle" x="684.5" y="-285.9" font-family="Helvetica,sans-Serif" font-size="12.00" fill="#000000">/EvolvingStar.h</text>
</a>
</g>
</g>
<!-- Node67&#45;&gt;Node68 -->
<g id="edge1" class="edge">
<title>Node67&#45;&gt;Node68</title>
<path fill="none" stroke="#191970" d="M734.6472,-354.6546C725.4887,-345.0381 715.5702,-334.6237 706.9907,-325.6152"/>
<polygon fill="#191970" stroke="#191970" points="732.3581,-357.3261 741.7892,-362.1537 737.4271,-352.4985 732.3581,-357.3261"/>
</g>
<!-- Node81 -->
<g id="node15" class="node">
<title>Node81</title>
<g id="a_node15"><a xlink:href="EvolvingStellarCore_8cpp_source.html" target="_top" xlink:title="/home/kpenev/projects\l/git/poet/poet_src/Star\l/EvolvingStellarCore.cpp">
<polygon fill="#ffffff" stroke="#000000" points="771,-278.5 771,-325.5 920,-325.5 920,-278.5 771,-278.5"/>
<text text-anchor="start" x="779" y="-311.9" font-family="Helvetica,sans-Serif" font-size="12.00" fill="#000000">/home/kpenev/projects</text>
<text text-anchor="start" x="779" y="-298.9" font-family="Helvetica,sans-Serif" font-size="12.00" fill="#000000">/git/poet/poet_src/Star</text>
<text text-anchor="middle" x="845.5" y="-285.9" font-family="Helvetica,sans-Serif" font-size="12.00" fill="#000000">/EvolvingStellarCore.cpp</text>
</a>
</g>
</g>
<!-- Node67&#45;&gt;Node81 -->
<g id="edge17" class="edge">
<title>Node67&#45;&gt;Node81</title>
<path fill="none" stroke="#191970" d="M794.4507,-354.94C803.7999,-345.2445 813.9554,-334.7129 822.7282,-325.6152"/>
<polygon fill="#191970" stroke="#191970" points="791.9166,-352.5257 787.4947,-362.1537 796.9555,-357.3847 791.9166,-352.5257"/>
</g>
<!-- Node69 -->
<g id="node3" class="node">
<title>Node69</title>
<g id="a_node3"><a xlink:href="Star_2CInterface_8h.html" target="_top" xlink:title="Declare C&#45;style functions for accessing the functionality of the Star library. ">
<polygon fill="#ffffff" stroke="#000000" points="313,-194.5 313,-241.5 450,-241.5 450,-194.5 313,-194.5"/>
<text text-anchor="start" x="321" y="-227.9" font-family="Helvetica,sans-Serif" font-size="12.00" fill="#000000">/home/kpenev/projects</text>
<text text-anchor="start" x="321" y="-214.9" font-family="Helvetica,sans-Serif" font-size="12.00" fill="#000000">/git/poet/poet_src/Star</text>
<text text-anchor="middle" x="381.5" y="-201.9" font-family="Helvetica,sans-Serif" font-size="12.00" fill="#000000">/CInterface.h</text>
</a>
</g>
</g>
<!-- Node68&#45;&gt;Node69 -->
<g id="edge2" class="edge">
<title>Node68&#45;&gt;Node69</title>
<path fill="none" stroke="#191970" d="M605.9705,-280.2294C557.7424,-266.8593 496.5528,-249.8958 450.245,-237.058"/>
<polygon fill="#191970" stroke="#191970" points="605.173,-283.6403 615.7446,-282.9391 607.0431,-276.8947 605.173,-283.6403"/>
</g>
<!-- Node74 -->
<g id="node8" class="node">
<title>Node74</title>
<g id="a_node8"><a xlink:href="MakeStar_8h.html" target="_top" xlink:title="Declares functions for creating stars used by unit tests. ">
<polygon fill="#ffffff" stroke="#000000" points="608.5,-194.5 608.5,-241.5 760.5,-241.5 760.5,-194.5 608.5,-194.5"/>
<text text-anchor="start" x="616.5" y="-227.9" font-family="Helvetica,sans-Serif" font-size="12.00" fill="#000000">/home/kpenev/projects</text>
<text text-anchor="start" x="616.5" y="-214.9" font-family="Helvetica,sans-Serif" font-size="12.00" fill="#000000">/git/poet/poet_src/unit</text>
<text text-anchor="middle" x="684.5" y="-201.9" font-family="Helvetica,sans-Serif" font-size="12.00" fill="#000000">_tests/shared/MakeStar.h</text>
</a>
</g>
</g>
<!-- Node68&#45;&gt;Node74 -->
<g id="edge8" class="edge">
<title>Node68&#45;&gt;Node74</title>
<path fill="none" stroke="#191970" d="M684.5,-268.0664C684.5,-259.1933 684.5,-249.821 684.5,-241.6152"/>
<polygon fill="#191970" stroke="#191970" points="681.0001,-268.1536 684.5,-278.1537 688.0001,-268.1537 681.0001,-268.1536"/>
</g>
<!-- Node79 -->
<g id="node13" class="node">
<title>Node79</title>
<g id="a_node13"><a xlink:href="testOrbitSolver_8h.html" target="_top" xlink:title="Declares the test suite that exercises the OrbitSolver class and some other clasess necessary to acco...">
<polygon fill="#ffffff" stroke="#000000" points="795.5,-104 795.5,-151 993.5,-151 993.5,-104 795.5,-104"/>
<text text-anchor="start" x="803.5" y="-137.4" font-family="Helvetica,sans-Serif" font-size="12.00" fill="#000000">/home/kpenev/projects</text>
<text text-anchor="start" x="803.5" y="-124.4" font-family="Helvetica,sans-Serif" font-size="12.00" fill="#000000">/git/poet/poet_src/unit</text>
<text text-anchor="middle" x="894.5" y="-111.4" font-family="Helvetica,sans-Serif" font-size="12.00" fill="#000000">_tests/testEvolve/testOrbitSolver.h</text>
</a>
</g>
</g>
<!-- Node68&#45;&gt;Node79 -->
<g id="edge16" class="edge">
<title>Node68&#45;&gt;Node79</title>
<path fill="none" stroke="#191970" d="M728.1957,-272.7426C741.7027,-263.2803 756.4532,-252.51 769.5,-242 806.1694,-212.4605 845.8302,-175.1188 870.4191,-151.2665"/>
<polygon fill="#191970" stroke="#191970" points="726.1913,-269.8733 719.9727,-278.4512 730.1832,-275.6235 726.1913,-269.8733"/>
</g>
<!-- Node70 -->
<g id="node4" class="node">
<title>Node70</title>
<g id="a_node4"><a xlink:href="Evolve_2CInterface_8h.html" target="_top" xlink:title="Declare C&#45;style functions for accessing the functionality of the Evolve library. ">
<polygon fill="#ffffff" stroke="#000000" points="192,-104 192,-151 339,-151 339,-104 192,-104"/>
<text text-anchor="start" x="200" y="-137.4" font-family="Helvetica,sans-Serif" font-size="12.00" fill="#000000">/home/kpenev/projects</text>
<text text-anchor="start" x="200" y="-124.4" font-family="Helvetica,sans-Serif" font-size="12.00" fill="#000000">/git/poet/poet_src/Evolve</text>
<text text-anchor="middle" x="265.5" y="-111.4" font-family="Helvetica,sans-Serif" font-size="12.00" fill="#000000">/CInterface.h</text>
</a>
</g>
</g>
<!-- Node69&#45;&gt;Node70 -->
<g id="edge3" class="edge">
<title>Node69&#45;&gt;Node70</title>
<path fill="none" stroke="#191970" d="M343.0565,-188.0075C327.7336,-176.0529 310.3481,-162.4893 295.9267,-151.2381"/>
<polygon fill="#191970" stroke="#191970" points="341.2879,-191.0668 351.3252,-194.4584 345.5937,-185.5477 341.2879,-191.0668"/>
</g>
<!-- Node73 -->
<g id="node7" class="node">
<title>Node73</title>
<g id="a_node7"><a xlink:href="Star_2CInterface_8cpp.html" target="_top" xlink:title="The definitions of the functions declared in CInterface.h. ">
<polygon fill="#ffffff" stroke="#000000" points="328,-7 328,-54 465,-54 465,-7 328,-7"/>
<text text-anchor="start" x="336" y="-40.4" font-family="Helvetica,sans-Serif" font-size="12.00" fill="#000000">/home/kpenev/projects</text>
<text text-anchor="start" x="336" y="-27.4" font-family="Helvetica,sans-Serif" font-size="12.00" fill="#000000">/git/poet/poet_src/Star</text>
<text text-anchor="middle" x="396.5" y="-14.4" font-family="Helvetica,sans-Serif" font-size="12.00" fill="#000000">/CInterface.cpp</text>
</a>
</g>
</g>
<!-- Node69&#45;&gt;Node73 -->
<g id="edge7" class="edge">
<title>Node69&#45;&gt;Node73</title>
<path fill="none" stroke="#191970" d="M384.1973,-184.2839C387.2035,-146.706 391.9867,-86.9162 394.6157,-54.0542"/>
<polygon fill="#191970" stroke="#191970" points="380.7085,-184.0057 383.3998,-194.253 387.6862,-184.564 380.7085,-184.0057"/>
</g>
<!-- Node71 -->
<g id="node5" class="node">
<title>Node71</title>
<g id="a_node5"><a xlink:href="Evolve_2CInterface_8cpp.html" target="_top" xlink:title="The definitions of the functions declared in CInterface.h. ">
<polygon fill="#ffffff" stroke="#000000" points="0,-7 0,-54 147,-54 147,-7 0,-7"/>
<text text-anchor="start" x="8" y="-40.4" font-family="Helvetica,sans-Serif" font-size="12.00" fill="#000000">/home/kpenev/projects</text>
<text text-anchor="start" x="8" y="-27.4" font-family="Helvetica,sans-Serif" font-size="12.00" fill="#000000">/git/poet/poet_src/Evolve</text>
<text text-anchor="middle" x="73.5" y="-14.4" font-family="Helvetica,sans-Serif" font-size="12.00" fill="#000000">/CInterface.cpp</text>
</a>
</g>
</g>
<!-- Node70&#45;&gt;Node71 -->
<g id="edge4" class="edge">
<title>Node70&#45;&gt;Node71</title>
<path fill="none" stroke="#191970" d="M209.5509,-99.234C181.2275,-84.9248 147.2368,-67.7524 120.3159,-54.1518"/>
<polygon fill="#191970" stroke="#191970" points="208.0276,-102.3858 218.5315,-103.7711 211.1842,-96.1378 208.0276,-102.3858"/>
</g>
<!-- Node72 -->
<g id="node6" class="node">
<title>Node72</title>
<g id="a_node6"><a xlink:href="Planet_2CInterface_8cpp.html" target="_top" xlink:title="The definitions of the functions declared in CInterface.h. ">
<polygon fill="#ffffff" stroke="#000000" points="165,-7 165,-54 310,-54 310,-7 165,-7"/>
<text text-anchor="start" x="173" y="-40.4" font-family="Helvetica,sans-Serif" font-size="12.00" fill="#000000">/home/kpenev/projects</text>
<text text-anchor="start" x="173" y="-27.4" font-family="Helvetica,sans-Serif" font-size="12.00" fill="#000000">/git/poet/poet_src/Planet</text>
<text text-anchor="middle" x="237.5" y="-14.4" font-family="Helvetica,sans-Serif" font-size="12.00" fill="#000000">/CInterface.cpp</text>
</a>
</g>
</g>
<!-- Node70&#45;&gt;Node72 -->
<g id="edge5" class="edge">
<title>Node70&#45;&gt;Node72</title>
<path fill="none" stroke="#191970" d="M255.8022,-93.904C252.0264,-80.8236 247.7882,-66.1412 244.3417,-54.2017"/>
<polygon fill="#191970" stroke="#191970" points="252.4425,-94.8854 258.5786,-103.5225 259.1679,-92.944 252.4425,-94.8854"/>
</g>
<!-- Node70&#45;&gt;Node73 -->
<g id="edge6" class="edge">
<title>Node70&#45;&gt;Node73</title>
<path fill="none" stroke="#191970" d="M305.6637,-97.7604C324.4939,-83.8175 346.6267,-67.4291 364.3306,-54.3201"/>
<polygon fill="#191970" stroke="#191970" points="303.5001,-95.0074 297.5462,-103.7711 307.6657,-100.6331 303.5001,-95.0074"/>
</g>
<!-- Node75 -->
<g id="node9" class="node">
<title>Node75</title>
<g id="a_node9"><a xlink:href="MakeStar_8cpp.html" target="_top" xlink:title="Implement the functions defined in MakeStar.h. ">
<polygon fill="#ffffff" stroke="#000000" points="409.5,-104 409.5,-151 573.5,-151 573.5,-104 409.5,-104"/>
<text text-anchor="start" x="417.5" y="-137.4" font-family="Helvetica,sans-Serif" font-size="12.00" fill="#000000">/home/kpenev/projects</text>
<text text-anchor="start" x="417.5" y="-124.4" font-family="Helvetica,sans-Serif" font-size="12.00" fill="#000000">/git/poet/poet_src/unit</text>
<text text-anchor="middle" x="491.5" y="-111.4" font-family="Helvetica,sans-Serif" font-size="12.00" fill="#000000">_tests/shared/MakeStar.cpp</text>
</a>
</g>
</g>
<!-- Node74&#45;&gt;Node75 -->
<g id="edge9" class="edge">
<title>Node74&#45;&gt;Node75</title>
<path fill="none" stroke="#191970" d="M625.0651,-190.1303C598.3978,-177.6257 567.2775,-163.033 541.7882,-151.0807"/>
<polygon fill="#191970" stroke="#191970" points="623.7554,-193.3818 634.2953,-194.4584 626.7273,-187.0439 623.7554,-193.3818"/>
</g>
<!-- Node76 -->
<g id="node10" class="node">
<title>Node76</title>
<g id="a_node10"><a xlink:href="testDifferentialEquations_8h.html" target="_top" xlink:title="Unit tests that check the differential equations for eccentricity and semimajor against analytic expr...">
<polygon fill="#ffffff" stroke="#000000" points="591.5,-97.5 591.5,-157.5 777.5,-157.5 777.5,-97.5 591.5,-97.5"/>
<text text-anchor="start" x="599.5" y="-143.9" font-family="Helvetica,sans-Serif" font-size="12.00" fill="#000000">/home/kpenev/projects</text>
<text text-anchor="start" x="599.5" y="-130.9" font-family="Helvetica,sans-Serif" font-size="12.00" fill="#000000">/git/poet/poet_src/unit</text>
<text text-anchor="start" x="599.5" y="-117.9" font-family="Helvetica,sans-Serif" font-size="12.00" fill="#000000">_tests/testEvolve/testDifferential</text>
<text text-anchor="middle" x="684.5" y="-104.9" font-family="Helvetica,sans-Serif" font-size="12.00" fill="#000000">Equations.h</text>
</a>
</g>
</g>
<!-- Node74&#45;&gt;Node76 -->
<g id="edge10" class="edge">
<title>Node74&#45;&gt;Node76</title>
<path fill="none" stroke="#191970" d="M684.5,-184.0234C684.5,-175.3454 684.5,-166.0766 684.5,-157.6077"/>
<polygon fill="#191970" stroke="#191970" points="681.0001,-184.2222 684.5,-194.2222 688.0001,-184.2222 681.0001,-184.2222"/>
</g>
<!-- Node74&#45;&gt;Node79 -->
<g id="edge13" class="edge">
<title>Node74&#45;&gt;Node79</title>
<path fill="none" stroke="#191970" d="M748.411,-190.4574C777.5944,-177.8808 811.8056,-163.1374 839.7823,-151.0807"/>
<polygon fill="#191970" stroke="#191970" points="746.9251,-187.2865 739.1268,-194.4584 749.6955,-193.715 746.9251,-187.2865"/>
</g>
<!-- Node77 -->
<g id="node11" class="node">
<title>Node77</title>
<g id="a_node11"><a xlink:href="testDifferentialEquations_8cpp.html" target="_top" xlink:title="Implement the non&#45;inline methods of test_DifferentialEquations. ">
<polygon fill="#ffffff" stroke="#000000" points="537.5,-.5 537.5,-60.5 723.5,-60.5 723.5,-.5 537.5,-.5"/>
<text text-anchor="start" x="545.5" y="-46.9" font-family="Helvetica,sans-Serif" font-size="12.00" fill="#000000">/home/kpenev/projects</text>
<text text-anchor="start" x="545.5" y="-33.9" font-family="Helvetica,sans-Serif" font-size="12.00" fill="#000000">/git/poet/poet_src/unit</text>
<text text-anchor="start" x="545.5" y="-20.9" font-family="Helvetica,sans-Serif" font-size="12.00" fill="#000000">_tests/testEvolve/testDifferential</text>
<text text-anchor="middle" x="630.5" y="-7.9" font-family="Helvetica,sans-Serif" font-size="12.00" fill="#000000">Equations.cpp</text>
</a>
</g>
</g>
<!-- Node76&#45;&gt;Node77 -->
<g id="edge11" class="edge">
<title>Node76&#45;&gt;Node77</title>
<path fill="none" stroke="#191970" d="M662.6891,-88.3211C657.5523,-79.0939 652.1551,-69.399 647.2795,-60.641"/>
<polygon fill="#191970" stroke="#191970" points="659.7879,-90.3054 667.7101,-97.3403 665.904,-86.9005 659.7879,-90.3054"/>
</g>
<!-- Node78 -->
<g id="node12" class="node">
<title>Node78</title>
<g id="a_node12"><a xlink:href="testEvolve_8cpp_source.html" target="_top" xlink:title="/home/kpenev/projects\l/git/poet/poet_src/unit\l_tests/testEvolve/testEvolve.cpp">
<polygon fill="#ffffff" stroke="#000000" points="741.5,-7 741.5,-54 929.5,-54 929.5,-7 741.5,-7"/>
<text text-anchor="start" x="749.5" y="-40.4" font-family="Helvetica,sans-Serif" font-size="12.00" fill="#000000">/home/kpenev/projects</text>
<text text-anchor="start" x="749.5" y="-27.4" font-family="Helvetica,sans-Serif" font-size="12.00" fill="#000000">/git/poet/poet_src/unit</text>
<text text-anchor="middle" x="835.5" y="-14.4" font-family="Helvetica,sans-Serif" font-size="12.00" fill="#000000">_tests/testEvolve/testEvolve.cpp</text>
</a>
</g>
</g>
<!-- Node76&#45;&gt;Node78 -->
<g id="edge12" class="edge">
<title>Node76&#45;&gt;Node78</title>
<path fill="none" stroke="#191970" d="M739.9839,-91.858C759.5355,-79.2984 781.0173,-65.4988 798.6488,-54.1726"/>
<polygon fill="#191970" stroke="#191970" points="737.9716,-88.9907 731.4496,-97.3403 741.7549,-94.8803 737.9716,-88.9907"/>
</g>
<!-- Node79&#45;&gt;Node78 -->
<g id="edge14" class="edge">
<title>Node79&#45;&gt;Node78</title>
<path fill="none" stroke="#191970" d="M874.5322,-94.6716C866.4601,-81.4005 857.3211,-66.3753 849.9165,-54.2017"/>
<polygon fill="#191970" stroke="#191970" points="871.7287,-96.7976 879.9157,-103.5225 877.7093,-93.1599 871.7287,-96.7976"/>
</g>
<!-- Node80 -->
<g id="node14" class="node">
<title>Node80</title>
<g id="a_node14"><a xlink:href="testOrbitSolver_8cpp.html" target="_top" xlink:title="Defines some of the methods of the test suite that exercises the OrbitSolver class and the other clas...">
<polygon fill="#ffffff" stroke="#000000" points="948,-7 948,-54 1159,-54 1159,-7 948,-7"/>
<text text-anchor="start" x="956" y="-40.4" font-family="Helvetica,sans-Serif" font-size="12.00" fill="#000000">/home/kpenev/projects</text>
<text text-anchor="start" x="956" y="-27.4" font-family="Helvetica,sans-Serif" font-size="12.00" fill="#000000">/git/poet/poet_src/unit</text>
<text text-anchor="middle" x="1053.5" y="-14.4" font-family="Helvetica,sans-Serif" font-size="12.00" fill="#000000">_tests/testEvolve/testOrbitSolver.cpp</text>
</a>
</g>
</g>
<!-- Node79&#45;&gt;Node80 -->
<g id="edge15" class="edge">
<title>Node79&#45;&gt;Node80</title>
<path fill="none" stroke="#191970" d="M942.0555,-98.4882C965.2612,-84.3312 992.8227,-67.5169 1014.7305,-54.1518"/>
<polygon fill="#191970" stroke="#191970" points="940.1098,-95.5752 933.3958,-103.7711 943.7554,-101.551 940.1098,-95.5752"/>
</g>
</g>
</svg>
