<?xml version="1.0" encoding="UTF-8" standalone="no"?>
<!DOCTYPE svg PUBLIC "-//W3C//DTD SVG 1.1//EN"
 "http://www.w3.org/Graphics/SVG/1.1/DTD/svg11.dtd">
<!-- Generated by graphviz version 2.40.1 (20161225.0304)
 -->
<!-- Title: /home/kpenev/projects/git/poet/poet_src/Star/EvolvingStellarZone.h Pages: 1 -->
<svg width="3470pt" height="656pt"
 viewBox="0.00 0.00 3470.00 656.00" xmlns="http://www.w3.org/2000/svg" xmlns:xlink="http://www.w3.org/1999/xlink">
<g id="graph0" class="graph" transform="scale(1 1) rotate(0) translate(4 652)">
<title>/home/kpenev/projects/git/poet/poet_src/Star/EvolvingStellarZone.h</title>
<polygon fill="#ffffff" stroke="transparent" points="-4,4 -4,-652 3466,-652 3466,4 -4,4"/>
<!-- Node0 -->
<g id="node1" class="node">
<title>Node0</title>
<polygon fill="#bfbfbf" stroke="#000000" points="3241,-600.5 3241,-647.5 3379,-647.5 3379,-600.5 3241,-600.5"/>
<text text-anchor="start" x="3249" y="-633.9" font-family="Helvetica,sans-Serif" font-size="12.00" fill="#000000">/home/kpenev/projects</text>
<text text-anchor="start" x="3249" y="-620.9" font-family="Helvetica,sans-Serif" font-size="12.00" fill="#000000">/git/poet/poet_src/Star</text>
<text text-anchor="middle" x="3310" y="-607.9" font-family="Helvetica,sans-Serif" font-size="12.00" fill="#000000">/EvolvingStellarZone.h</text>
</g>
<!-- Node1 -->
<g id="node2" class="node">
<title>Node1</title>
<g id="a_node2"><a xlink:href="SharedLibraryExportMacros_8h_source.html" target="_top" xlink:title="../Core/SharedLibraryExport\lMacros.h">
<polygon fill="#ffffff" stroke="#000000" points="1326.5,-.5 1326.5,-34.5 1491.5,-34.5 1491.5,-.5 1326.5,-.5"/>
<text text-anchor="start" x="1334.5" y="-20.9" font-family="Helvetica,sans-Serif" font-size="12.00" fill="#000000">../Core/SharedLibraryExport</text>
<text text-anchor="middle" x="1409" y="-7.9" font-family="Helvetica,sans-Serif" font-size="12.00" fill="#000000">Macros.h</text>
</a>
</g>
</g>
<!-- Node0&#45;&gt;Node1 -->
<g id="edge1" class="edge">
<title>Node0&#45;&gt;Node1</title>
<path fill="none" stroke="#191970" d="M3319.9841,-600.3C3331.2428,-571.3812 3348,-520.7403 3348,-475.5 3348,-475.5 3348,-475.5 3348,-346.5 3348,-243.0339 3339.0567,-201.2554 3265,-129 3209.6627,-75.0087 3176.9827,-85.2799 3101,-71 2943.9456,-41.4837 1832.4473,-23.5042 1501.6536,-18.7636"/>
<polygon fill="#191970" stroke="#191970" points="1501.6746,-15.2636 1491.6257,-18.6205 1501.5747,-22.2629 1501.6746,-15.2636"/>
</g>
<!-- Node2 -->
<g id="node3" class="node">
<title>Node2</title>
<g id="a_node3"><a xlink:href="BrokenPowerlawPhaseLagZone_8h.html" target="_top" xlink:title="Declares the class that provides the phase lag function to DissipatingZone objects. ">
<polygon fill="#ffffff" stroke="#000000" points="900.5,-529.5 900.5,-563.5 1057.5,-563.5 1057.5,-529.5 900.5,-529.5"/>
<text text-anchor="start" x="908.5" y="-549.9" font-family="Helvetica,sans-Serif" font-size="12.00" fill="#000000">../Evolve/BrokenPowerlaw</text>
<text text-anchor="middle" x="979" y="-536.9" font-family="Helvetica,sans-Serif" font-size="12.00" fill="#000000">PhaseLagZone.h</text>
</a>
</g>
</g>
<!-- Node0&#45;&gt;Node2 -->
<g id="edge2" class="edge">
<title>Node0&#45;&gt;Node2</title>
<path fill="none" stroke="#191970" d="M3240.8702,-621.7016C2904.9474,-610.533 1443.8911,-561.9565 1067.6339,-549.4469"/>
<polygon fill="#191970" stroke="#191970" points="1067.7275,-545.9481 1057.6166,-549.1138 1067.4948,-552.9443 1067.7275,-545.9481"/>
</g>
<!-- Node49 -->
<g id="node36" class="node">
<title>Node49</title>
<g id="a_node36"><a xlink:href="Functions_8h.html" target="_top" xlink:title="A hierarchy of classes representing functions. ">
<polygon fill="#ffffff" stroke="#000000" points="2505.5,-200.5 2505.5,-221.5 2622.5,-221.5 2622.5,-200.5 2505.5,-200.5"/>
<text text-anchor="middle" x="2564" y="-207.9" font-family="Helvetica,sans-Serif" font-size="12.00" fill="#000000">../Core/Functions.h</text>
</a>
</g>
</g>
<!-- Node0&#45;&gt;Node49 -->
<g id="edge90" class="edge">
<title>Node0&#45;&gt;Node49</title>
<path fill="none" stroke="#191970" d="M3299.8187,-600.2454C3269.4978,-532.7894 3172.6263,-339.6855 3025,-258 2991.5274,-239.4787 2753.3046,-222.534 2633.0659,-215.0475"/>
<polygon fill="#191970" stroke="#191970" points="2633.058,-211.5405 2622.8612,-214.4172 2632.6264,-218.5272 2633.058,-211.5405"/>
</g>
<!-- Node54 -->
<g id="node41" class="node">
<title>Node54</title>
<g id="a_node41"><a xlink:href="EvolvingStellarQuantity_8h.html" target="_top" xlink:title="Declares a class implementing the intepolation of a single stellar quantity from stellar evolution tr...">
<polygon fill="#ffffff" stroke="#000000" points="2492.5,-329.5 2492.5,-363.5 2647.5,-363.5 2647.5,-329.5 2492.5,-329.5"/>
<text text-anchor="start" x="2500.5" y="-349.9" font-family="Helvetica,sans-Serif" font-size="12.00" fill="#000000">../StellarEvolution</text>
<text text-anchor="middle" x="2570" y="-336.9" font-family="Helvetica,sans-Serif" font-size="12.00" fill="#000000">/EvolvingStellarQuantity.h</text>
</a>
</g>
</g>
<!-- Node0&#45;&gt;Node54 -->
<g id="edge104" class="edge">
<title>Node0&#45;&gt;Node54</title>
<path fill="none" stroke="#191970" d="M3247.2272,-600.4602C3104.914,-547.0928 2759.6848,-417.6318 2625.0538,-367.1452"/>
<polygon fill="#191970" stroke="#191970" points="2625.9408,-363.7399 2615.3486,-363.5057 2623.4829,-370.2942 2625.9408,-363.7399"/>
</g>
<!-- Node65 -->
<g id="node50" class="node">
<title>Node65</title>
<polygon fill="#ffffff" stroke="#bfbfbf" points="3376,-536 3376,-557 3462,-557 3462,-536 3376,-536"/>
<text text-anchor="middle" x="3419" y="-543.4" font-family="Helvetica,sans-Serif" font-size="12.00" fill="#000000">initializer_list</text>
</g>
<!-- Node0&#45;&gt;Node65 -->
<g id="edge136" class="edge">
<title>Node0&#45;&gt;Node65</title>
<path fill="none" stroke="#191970" d="M3343.2959,-600.3263C3360.2526,-588.2699 3380.4539,-573.9066 3395.722,-563.0509"/>
<polygon fill="#191970" stroke="#191970" points="3397.9579,-565.7557 3404.0797,-557.1085 3393.9016,-560.0507 3397.9579,-565.7557"/>
</g>
<!-- Node2&#45;&gt;Node1 -->
<g id="edge3" class="edge">
<title>Node2&#45;&gt;Node1</title>
<path fill="none" stroke="#191970" d="M900.1269,-543.849C667.4366,-534.9889 0,-501.6722 0,-411 0,-411 0,-411 0,-146.5 0,-103.6388 21.7759,-90.3909 60,-71 115.8728,-42.656 1019.6584,-24.3348 1315.8319,-19.069"/>
<polygon fill="#191970" stroke="#191970" points="1316.1725,-22.5636 1326.109,-18.8871 1316.0486,-15.5647 1316.1725,-22.5636"/>
</g>
<!-- Node3 -->
<g id="node4" class="node">
<title>Node3</title>
<g id="a_node4"><a xlink:href="DissipatingZone_8h.html" target="_top" xlink:title="Declares a class representing one zone of a body dissipative to tidal distortions. ">
<polygon fill="#ffffff" stroke="#000000" points="743,-336 743,-357 857,-357 857,-336 743,-336"/>
<text text-anchor="middle" x="800" y="-343.4" font-family="Helvetica,sans-Serif" font-size="12.00" fill="#000000">DissipatingZone.h</text>
</a>
</g>
</g>
<!-- Node2&#45;&gt;Node3 -->
<g id="edge4" class="edge">
<title>Node2&#45;&gt;Node3</title>
<path fill="none" stroke="#191970" d="M900.3349,-534.4088C853.7476,-525.4617 801.1265,-511.601 787,-493 758.6957,-455.7306 777.5834,-396.7346 790.5976,-366.2254"/>
<polygon fill="#191970" stroke="#191970" points="793.8166,-367.6006 794.7092,-357.0434 787.4279,-364.7397 793.8166,-367.6006"/>
</g>
<!-- Node40 -->
<g id="node26" class="node">
<title>Node40</title>
<g id="a_node26"><a xlink:href="DissipatingBody_8h.html" target="_top" xlink:title="Declares the DissipatingBody class. ">
<polygon fill="#ffffff" stroke="#000000" points="900,-400.5 900,-421.5 1014,-421.5 1014,-400.5 900,-400.5"/>
<text text-anchor="middle" x="957" y="-407.9" font-family="Helvetica,sans-Serif" font-size="12.00" fill="#000000">DissipatingBody.h</text>
</a>
</g>
</g>
<!-- Node2&#45;&gt;Node40 -->
<g id="edge50" class="edge">
<title>Node2&#45;&gt;Node40</title>
<path fill="none" stroke="#191970" d="M976.2137,-529.3388C972.1871,-504.5388 964.7491,-458.7274 960.4032,-431.9609"/>
<polygon fill="#191970" stroke="#191970" points="963.8065,-431.0821 958.749,-421.7723 956.897,-432.204 963.8065,-431.0821"/>
</g>
<!-- Node42 -->
<g id="node28" class="node">
<title>Node42</title>
<g id="a_node28"><a xlink:href="BinarySystem_8h.html" target="_top" xlink:title="Defines the BinarySystem class. ">
<polygon fill="#ffffff" stroke="#000000" points="1506.5,-465 1506.5,-486 1607.5,-486 1607.5,-465 1506.5,-465"/>
<text text-anchor="middle" x="1557" y="-472.4" font-family="Helvetica,sans-Serif" font-size="12.00" fill="#000000">BinarySystem.h</text>
</a>
</g>
</g>
<!-- Node2&#45;&gt;Node42 -->
<g id="edge61" class="edge">
<title>Node2&#45;&gt;Node42</title>
<path fill="none" stroke="#191970" d="M1057.5532,-536.8507C1174.2021,-522.5219 1390.7565,-495.9209 1496.1805,-482.9709"/>
<polygon fill="#191970" stroke="#191970" points="1496.8362,-486.4168 1506.3348,-481.7236 1495.9827,-479.469 1496.8362,-486.4168"/>
</g>
<!-- Node47 -->
<g id="node34" class="node">
<title>Node47</title>
<g id="a_node34"><a xlink:href="LagForcingFrequencyBreakCondition_8h.html" target="_top" xlink:title="Declares a stopping condition satisfied when a forcing frequency reaches a critical value...">
<polygon fill="#ffffff" stroke="#ff0000" points="1051,-458.5 1051,-492.5 1217,-492.5 1217,-458.5 1051,-458.5"/>
<text text-anchor="start" x="1059" y="-478.9" font-family="Helvetica,sans-Serif" font-size="12.00" fill="#000000">LagForcingFrequencyBreak</text>
<text text-anchor="middle" x="1134" y="-465.9" font-family="Helvetica,sans-Serif" font-size="12.00" fill="#000000">Condition.h</text>
</a>
</g>
</g>
<!-- Node2&#45;&gt;Node47 -->
<g id="edge79" class="edge">
<title>Node2&#45;&gt;Node47</title>
<path fill="none" stroke="#191970" d="M1016.1264,-529.4937C1037.5371,-519.6862 1064.6517,-507.266 1087.4759,-496.8111"/>
<polygon fill="#191970" stroke="#191970" points="1089.0054,-499.9602 1096.6394,-492.6136 1086.0902,-493.5961 1089.0054,-499.9602"/>
</g>
<!-- Node48 -->
<g id="node35" class="node">
<title>Node48</title>
<g id="a_node35"><a xlink:href="LagSpinBreakCondition_8h.html" target="_top" xlink:title="Declares a stopping condition monitoring for critical spin frequencies. ">
<polygon fill="#ffffff" stroke="#ff0000" points="795.5,-465 795.5,-486 950.5,-486 950.5,-465 795.5,-465"/>
<text text-anchor="middle" x="873" y="-472.4" font-family="Helvetica,sans-Serif" font-size="12.00" fill="#000000">LagSpinBreakCondition.h</text>
</a>
</g>
</g>
<!-- Node2&#45;&gt;Node48 -->
<g id="edge85" class="edge">
<title>Node2&#45;&gt;Node48</title>
<path fill="none" stroke="#191970" d="M953.6104,-529.4937C936.6599,-518.1401 914.4819,-503.285 897.68,-492.031"/>
<polygon fill="#191970" stroke="#191970" points="899.2223,-488.8514 888.9661,-486.1943 895.3267,-494.6673 899.2223,-488.8514"/>
</g>
<!-- Node3&#45;&gt;Node1 -->
<g id="edge24" class="edge">
<title>Node3&#45;&gt;Node1</title>
<path fill="none" stroke="#191970" d="M742.6224,-345.3266C619.7342,-342.1101 335.1259,-330.7028 247,-293 195.7204,-271.0611 152,-266.7756 152,-211 152,-211 152,-211 152,-146.5 152,29.1789 365.7324,-93.2228 540,-71 821.1486,-35.1476 1156.6487,-23.1135 1316.0476,-19.2405"/>
<polygon fill="#191970" stroke="#191970" points="1316.3759,-22.7338 1326.2898,-18.997 1316.2095,-15.7358 1316.3759,-22.7338"/>
</g>
<!-- Node4 -->
<g id="node5" class="node">
<title>Node4</title>
<g id="a_node5"><a xlink:href="ZoneOrientation_8h.html" target="_top" xlink:title="Declares a class for orientations of zones of DissipatingBody objects. ">
<polygon fill="#ffffff" stroke="#ff0000" points="578.5,-200.5 578.5,-221.5 691.5,-221.5 691.5,-200.5 578.5,-200.5"/>
<text text-anchor="middle" x="635" y="-207.9" font-family="Helvetica,sans-Serif" font-size="12.00" fill="#000000">ZoneOrientation.h</text>
</a>
</g>
</g>
<!-- Node3&#45;&gt;Node4 -->
<g id="edge5" class="edge">
<title>Node3&#45;&gt;Node4</title>
<path fill="none" stroke="#191970" d="M742.8122,-341.0273C654.6768,-332.0097 493.9794,-313.0232 477,-293 445.6052,-255.9774 512.2136,-233.5168 568.3835,-221.6861"/>
<polygon fill="#191970" stroke="#191970" points="569.256,-225.0806 578.3647,-219.6692 567.8695,-218.2193 569.256,-225.0806"/>
</g>
<!-- Node5 -->
<g id="node6" class="node">
<title>Node5</title>
<g id="a_node6"><a xlink:href="DissipationQuantities_8h.html" target="_top" xlink:title="Declaration of enumerations of dissipation quantities and derivatives. ">
<polygon fill="#ffffff" stroke="#ff0000" points="566,-136 566,-157 706,-157 706,-136 566,-136"/>
<text text-anchor="middle" x="636" y="-143.4" font-family="Helvetica,sans-Serif" font-size="12.00" fill="#000000">DissipationQuantities.h</text>
</a>
</g>
</g>
<!-- Node3&#45;&gt;Node5 -->
<g id="edge30" class="edge">
<title>Node3&#45;&gt;Node5</title>
<path fill="none" stroke="#191970" d="M742.7392,-341.4087C651.578,-332.7187 481.8536,-313.9212 464,-293 416.4099,-237.2328 529.9943,-184.8058 594.7743,-160.568"/>
<polygon fill="#191970" stroke="#191970" points="596.1528,-163.7904 604.3364,-157.0615 593.7427,-157.2184 596.1528,-163.7904"/>
</g>
<!-- Node8 -->
<g id="node8" class="node">
<title>Node8</title>
<g id="a_node8"><a xlink:href="Core_2Common_8h.html" target="_top" xlink:title="Declaration of some general purpose utilities. ">
<polygon fill="#ffffff" stroke="#ff0000" points="1589.5,-136 1589.5,-157 1702.5,-157 1702.5,-136 1589.5,-136"/>
<text text-anchor="middle" x="1646" y="-143.4" font-family="Helvetica,sans-Serif" font-size="12.00" fill="#000000">../Core/Common.h</text>
</a>
</g>
</g>
<!-- Node3&#45;&gt;Node8 -->
<g id="edge47" class="edge">
<title>Node3&#45;&gt;Node8</title>
<path fill="none" stroke="#191970" d="M857.1884,-343.8193C1027.4687,-335.6543 1521.2243,-310.5787 1551,-293 1599.7582,-264.2146 1627.9397,-199.4439 1639.6143,-166.524"/>
<polygon fill="#191970" stroke="#191970" points="1642.9332,-167.6352 1642.8299,-157.0409 1636.304,-165.3872 1642.9332,-167.6352"/>
</g>
<!-- Node10 -->
<g id="node10" class="node">
<title>Node10</title>
<polygon fill="#ffffff" stroke="#bfbfbf" points="1503.5,-71.5 1503.5,-92.5 1562.5,-92.5 1562.5,-71.5 1503.5,-71.5"/>
<text text-anchor="middle" x="1533" y="-78.9" font-family="Helvetica,sans-Serif" font-size="12.00" fill="#000000">valarray</text>
</g>
<!-- Node3&#45;&gt;Node10 -->
<g id="edge48" class="edge">
<title>Node3&#45;&gt;Node10</title>
<path fill="none" stroke="#191970" d="M857.1013,-336.3902C898.2621,-327.8978 954.5164,-313.7783 1001,-293 1122.3165,-238.771 1127.2457,-177.4081 1251,-129 1333.0724,-96.8963 1436.9544,-86.7161 1492.9113,-83.4915"/>
<polygon fill="#191970" stroke="#191970" points="1493.3138,-86.9752 1503.1145,-82.9508 1492.9433,-79.985 1493.3138,-86.9752"/>
</g>
<!-- Node20 -->
<g id="node15" class="node">
<title>Node20</title>
<g id="a_node15"><a xlink:href="Error_8h.html" target="_top" xlink:title="Defines the exception hierarchy used by this code. ">
<polygon fill="#ffffff" stroke="#ff0000" points="3038.5,-71.5 3038.5,-92.5 3091.5,-92.5 3091.5,-71.5 3038.5,-71.5"/>
<text text-anchor="middle" x="3065" y="-78.9" font-family="Helvetica,sans-Serif" font-size="12.00" fill="#000000">Error.h</text>
</a>
</g>
</g>
<!-- Node3&#45;&gt;Node20 -->
<g id="edge25" class="edge">
<title>Node3&#45;&gt;Node20</title>
<path fill="none" stroke="#191970" d="M857.1079,-343.7268C936.7911,-339.938 1085.8627,-333.1425 1213,-329 1388.397,-323.2851 2623.3727,-341.5963 2792,-293 2899.4445,-262.0358 2926.2503,-240.2896 3008,-164 3027.6788,-145.6355 3044.4526,-119.3875 3054.6075,-101.5719"/>
<polygon fill="#191970" stroke="#191970" points="3057.7673,-103.0902 3059.5445,-92.6454 3051.6418,-99.7022 3057.7673,-103.0902"/>
</g>
<!-- Node26 -->
<g id="node18" class="node">
<title>Node26</title>
<g id="a_node18"><a xlink:href="TidalPotentialTerms_8h.html" target="_top" xlink:title="Declare an interface for evaluating the expansion of the tidal potential. ">
<polygon fill="#ffffff" stroke="#ff0000" points="1298,-200.5 1298,-221.5 1432,-221.5 1432,-200.5 1298,-200.5"/>
<text text-anchor="middle" x="1365" y="-207.9" font-family="Helvetica,sans-Serif" font-size="12.00" fill="#000000">TidalPotentialTerms.h</text>
</a>
</g>
</g>
<!-- Node3&#45;&gt;Node26 -->
<g id="edge26" class="edge">
<title>Node3&#45;&gt;Node26</title>
<path fill="none" stroke="#191970" d="M854.6211,-335.9629C906.5793,-325.7324 986.8571,-309.3869 1056,-293 1149.3644,-270.8726 1257.5434,-241.2362 1317.9519,-224.3231"/>
<polygon fill="#191970" stroke="#191970" points="1318.9031,-227.6915 1327.5858,-221.6202 1317.0121,-220.9517 1318.9031,-227.6915"/>
</g>
<!-- Node34 -->
<g id="node20" class="node">
<title>Node34</title>
<g id="a_node20"><a xlink:href="SpinOrbitLockInfo_8h.html" target="_top" xlink:title="Defines the SpinOrbitLockInfo class. ">
<polygon fill="#ffffff" stroke="#000000" points="892,-200.5 892,-221.5 1014,-221.5 1014,-200.5 892,-200.5"/>
<text text-anchor="middle" x="953" y="-207.9" font-family="Helvetica,sans-Serif" font-size="12.00" fill="#000000">SpinOrbitLockInfo.h</text>
</a>
</g>
</g>
<!-- Node3&#45;&gt;Node34 -->
<g id="edge31" class="edge">
<title>Node3&#45;&gt;Node34</title>
<path fill="none" stroke="#191970" d="M857.3363,-337.5886C905.725,-328.7583 969.5299,-313.5778 985,-293 999.4417,-273.7902 984.0634,-247.2365 970.0529,-229.6114"/>
<polygon fill="#191970" stroke="#191970" points="972.5439,-227.1361 963.4216,-221.7477 967.1926,-231.6487 972.5439,-227.1361"/>
</g>
<!-- Node35 -->
<g id="node21" class="node">
<title>Node35</title>
<g id="a_node21"><a xlink:href="CombinedStoppingCondition_8h.html" target="_top" xlink:title="Declares a class for a stopping condition that combines other stopping conditions. ">
<polygon fill="#ffffff" stroke="#ff0000" points="794,-265 794,-286 976,-286 976,-265 794,-265"/>
<text text-anchor="middle" x="885" y="-272.4" font-family="Helvetica,sans-Serif" font-size="12.00" fill="#000000">CombinedStoppingCondition.h</text>
</a>
</g>
</g>
<!-- Node3&#45;&gt;Node35 -->
<g id="edge34" class="edge">
<title>Node3&#45;&gt;Node35</title>
<path fill="none" stroke="#191970" d="M812.9097,-335.7166C826.5935,-324.2866 848.4019,-306.0702 864.4524,-292.6633"/>
<polygon fill="#191970" stroke="#191970" points="866.8163,-295.2492 872.2473,-286.1522 862.3288,-289.8768 866.8163,-295.2492"/>
</g>
<!-- Node37 -->
<g id="node23" class="node">
<title>Node37</title>
<g id="a_node23"><a xlink:href="BreakLockCondition_8h.html" target="_top" xlink:title="Declares a class for a stopping condition monitoring when a locked zone loses the lock...">
<polygon fill="#ffffff" stroke="#000000" points="256.5,-265 256.5,-286 391.5,-286 391.5,-265 256.5,-265"/>
<text text-anchor="middle" x="324" y="-272.4" font-family="Helvetica,sans-Serif" font-size="12.00" fill="#000000">BreakLockCondition.h</text>
</a>
</g>
</g>
<!-- Node3&#45;&gt;Node37 -->
<g id="edge40" class="edge">
<title>Node3&#45;&gt;Node37</title>
<path fill="none" stroke="#191970" d="M742.6996,-340.091C665.8275,-331.1802 525.1782,-313.7782 406,-293 397.6512,-291.5444 388.8588,-289.8458 380.2564,-288.09"/>
<polygon fill="#191970" stroke="#191970" points="380.7865,-284.6254 370.2831,-286.0137 379.3598,-291.4785 380.7865,-284.6254"/>
</g>
<!-- Node38 -->
<g id="node24" class="node">
<title>Node38</title>
<g id="a_node24"><a xlink:href="SynchronizedCondition_8h.html" target="_top" xlink:title="Declares a stopping condition monitoring spin&#45;orbit synchronization. ">
<polygon fill="#ffffff" stroke="#000000" points="486,-265 486,-286 638,-286 638,-265 486,-265"/>
<text text-anchor="middle" x="562" y="-272.4" font-family="Helvetica,sans-Serif" font-size="12.00" fill="#000000">SynchronizedCondition.h</text>
</a>
</g>
</g>
<!-- Node3&#45;&gt;Node38 -->
<g id="edge43" class="edge">
<title>Node3&#45;&gt;Node38</title>
<path fill="none" stroke="#191970" d="M764.626,-335.9472C722.7642,-323.4591 652.9846,-302.6425 607.2311,-288.9933"/>
<polygon fill="#191970" stroke="#191970" points="608.1515,-285.6155 597.5682,-286.1107 606.1503,-292.3234 608.1515,-285.6155"/>
</g>
<!-- Node39 -->
<g id="node25" class="node">
<title>Node39</title>
<polygon fill="#ffffff" stroke="#bfbfbf" points="656,-258.5 656,-292.5 776,-292.5 776,-258.5 656,-258.5"/>
<text text-anchor="start" x="664" y="-278.9" font-family="Helvetica,sans-Serif" font-size="12.00" fill="#000000">boost/math/special</text>
<text text-anchor="middle" x="716" y="-265.9" font-family="Helvetica,sans-Serif" font-size="12.00" fill="#000000">_functions/sign.hpp</text>
</g>
<!-- Node3&#45;&gt;Node39 -->
<g id="edge49" class="edge">
<title>Node3&#45;&gt;Node39</title>
<path fill="none" stroke="#191970" d="M787.2422,-335.7166C775.8571,-326.0935 758.7809,-311.6601 744.2008,-299.3363"/>
<polygon fill="#191970" stroke="#191970" points="746.3062,-296.5332 736.4094,-292.7508 741.7874,-301.8793 746.3062,-296.5332"/>
</g>
<!-- Node4&#45;&gt;Node1 -->
<g id="edge6" class="edge">
<title>Node4&#45;&gt;Node1</title>
<path fill="none" stroke="#191970" d="M659.843,-200.35C676.8083,-192.1926 699.0202,-179.6841 715,-164 749.5985,-130.0417 730.7305,-96.4372 772,-71 817.17,-43.1587 1150.3544,-27.0575 1316.0195,-20.6934"/>
<polygon fill="#191970" stroke="#191970" points="1316.3409,-24.1838 1326.2007,-20.3064 1316.075,-17.1888 1316.3409,-24.1838"/>
</g>
<!-- Node4&#45;&gt;Node5 -->
<g id="edge7" class="edge">
<title>Node4&#45;&gt;Node5</title>
<path fill="none" stroke="#191970" d="M635.1651,-200.3491C635.3033,-191.4397 635.5045,-178.4599 635.6748,-167.4761"/>
<polygon fill="#191970" stroke="#191970" points="639.1757,-167.4354 635.8313,-157.3823 632.1766,-167.3268 639.1757,-167.4354"/>
</g>
<!-- Node4&#45;&gt;Node8 -->
<g id="edge10" class="edge">
<title>Node4&#45;&gt;Node8</title>
<path fill="none" stroke="#191970" d="M691.8253,-201.1106C694.9242,-200.7021 697.9976,-200.3276 701,-200 1005.831,-166.7413 1083.916,-182.457 1390,-164 1454.304,-160.1224 1527.6469,-155.0415 1579.2981,-151.354"/>
<polygon fill="#191970" stroke="#191970" points="1579.6055,-154.8411 1589.33,-150.6359 1579.1056,-147.859 1579.6055,-154.8411"/>
</g>
<!-- Node5&#45;&gt;Node1 -->
<g id="edge8" class="edge">
<title>Node5&#45;&gt;Node1</title>
<path fill="none" stroke="#191970" d="M643.8874,-135.8742C657.3239,-118.7115 686.4766,-85.3645 720,-71 773.4213,-48.1094 1140.6953,-29.2207 1316.1103,-21.3897"/>
<polygon fill="#191970" stroke="#191970" points="1316.5259,-24.8748 1326.3609,-20.935 1316.2155,-17.8817 1316.5259,-24.8748"/>
</g>
<!-- Node7 -->
<g id="node7" class="node">
<title>Node7</title>
<polygon fill="#ffffff" stroke="#bfbfbf" points="800.5,-71.5 800.5,-92.5 855.5,-92.5 855.5,-71.5 800.5,-71.5"/>
<text text-anchor="middle" x="828" y="-78.9" font-family="Helvetica,sans-Serif" font-size="12.00" fill="#000000">cassert</text>
</g>
<!-- Node5&#45;&gt;Node7 -->
<g id="edge9" class="edge">
<title>Node5&#45;&gt;Node7</title>
<path fill="none" stroke="#191970" d="M667.2754,-135.9934C701.0763,-124.6384 754.915,-106.552 790.8469,-94.4811"/>
<polygon fill="#191970" stroke="#191970" points="792.1103,-97.749 800.4751,-91.2466 789.8811,-91.1134 792.1103,-97.749"/>
</g>
<!-- Node8&#45;&gt;Node1 -->
<g id="edge18" class="edge">
<title>Node8&#45;&gt;Node1</title>
<path fill="none" stroke="#191970" d="M1638.338,-135.91C1626.0812,-119.6953 1600.5232,-88.7354 1572,-71 1548.7871,-56.5665 1521.2689,-45.6059 1495.5156,-37.4831"/>
<polygon fill="#191970" stroke="#191970" points="1496.3304,-34.0726 1485.7445,-34.5076 1494.2911,-40.769 1496.3304,-34.0726"/>
</g>
<!-- Node8&#45;&gt;Node7 -->
<g id="edge17" class="edge">
<title>Node8&#45;&gt;Node7</title>
<path fill="none" stroke="#191970" d="M1589.3491,-140.8423C1552.7454,-137.2606 1504.0771,-132.6363 1461,-129 1235.3321,-109.9506 964.047,-91.1967 865.8189,-84.5404"/>
<polygon fill="#191970" stroke="#191970" points="865.9947,-81.0444 855.7813,-83.8615 865.5223,-88.0284 865.9947,-81.0444"/>
</g>
<!-- Node9 -->
<g id="node9" class="node">
<title>Node9</title>
<polygon fill="#ffffff" stroke="#bfbfbf" points="2391,-71.5 2391,-92.5 2423,-92.5 2423,-71.5 2391,-71.5"/>
<text text-anchor="middle" x="2407" y="-78.9" font-family="Helvetica,sans-Serif" font-size="12.00" fill="#000000">list</text>
</g>
<!-- Node8&#45;&gt;Node9 -->
<g id="edge11" class="edge">
<title>Node8&#45;&gt;Node9</title>
<path fill="none" stroke="#191970" d="M1702.577,-141.7047C1855.268,-128.7631 2271.5779,-93.478 2380.586,-84.2388"/>
<polygon fill="#191970" stroke="#191970" points="2381.038,-87.7131 2390.7067,-83.381 2380.4468,-80.7381 2381.038,-87.7131"/>
</g>
<!-- Node8&#45;&gt;Node10 -->
<g id="edge12" class="edge">
<title>Node8&#45;&gt;Node10</title>
<path fill="none" stroke="#191970" d="M1627.5931,-135.9934C1609.2888,-125.5454 1580.9999,-109.3982 1560.1236,-97.4821"/>
<polygon fill="#191970" stroke="#191970" points="1561.8189,-94.4197 1551.399,-92.5021 1558.3488,-100.4991 1561.8189,-94.4197"/>
</g>
<!-- Node11 -->
<g id="node11" class="node">
<title>Node11</title>
<polygon fill="#ffffff" stroke="#bfbfbf" points="1735,-71.5 1735,-92.5 1779,-92.5 1779,-71.5 1735,-71.5"/>
<text text-anchor="middle" x="1757" y="-78.9" font-family="Helvetica,sans-Serif" font-size="12.00" fill="#000000">limits</text>
</g>
<!-- Node8&#45;&gt;Node11 -->
<g id="edge13" class="edge">
<title>Node8&#45;&gt;Node11</title>
<path fill="none" stroke="#191970" d="M1664.3294,-135.8491C1682.1644,-125.4855 1709.4773,-109.6145 1729.8372,-97.7838"/>
<polygon fill="#191970" stroke="#191970" points="1731.7556,-100.7171 1738.6434,-92.6667 1728.2386,-94.6647 1731.7556,-100.7171"/>
</g>
<!-- Node12 -->
<g id="node12" class="node">
<title>Node12</title>
<polygon fill="#ffffff" stroke="#bfbfbf" points="1657.5,-71.5 1657.5,-92.5 1716.5,-92.5 1716.5,-71.5 1657.5,-71.5"/>
<text text-anchor="middle" x="1687" y="-78.9" font-family="Helvetica,sans-Serif" font-size="12.00" fill="#000000">sstream</text>
</g>
<!-- Node8&#45;&gt;Node12 -->
<g id="edge14" class="edge">
<title>Node8&#45;&gt;Node12</title>
<path fill="none" stroke="#191970" d="M1652.7703,-135.8491C1658.6697,-126.5685 1667.3764,-112.8712 1674.5322,-101.614"/>
<polygon fill="#191970" stroke="#191970" points="1677.6718,-103.1992 1680.0826,-92.8823 1671.7643,-99.444 1677.6718,-103.1992"/>
</g>
<!-- Node13 -->
<g id="node13" class="node">
<title>Node13</title>
<polygon fill="#ffffff" stroke="#bfbfbf" points="2967,-7 2967,-28 3029,-28 3029,-7 2967,-7"/>
<text text-anchor="middle" x="2998" y="-14.4" font-family="Helvetica,sans-Serif" font-size="12.00" fill="#000000">iostream</text>
</g>
<!-- Node8&#45;&gt;Node13 -->
<g id="edge15" class="edge">
<title>Node8&#45;&gt;Node13</title>
<path fill="none" stroke="#191970" d="M1642.5281,-135.9929C1637.8494,-119.6035 1631.9319,-88.0669 1649,-71 1696.3671,-23.6365 2735.1003,-18.2006 2956.6638,-17.5797"/>
<polygon fill="#191970" stroke="#191970" points="2956.8933,-21.0792 2966.8841,-17.5529 2956.8749,-14.0792 2956.8933,-21.0792"/>
</g>
<!-- Node14 -->
<g id="node14" class="node">
<title>Node14</title>
<polygon fill="#ffffff" stroke="#bfbfbf" points="2184.5,-71.5 2184.5,-92.5 2237.5,-92.5 2237.5,-71.5 2184.5,-71.5"/>
<text text-anchor="middle" x="2211" y="-78.9" font-family="Helvetica,sans-Serif" font-size="12.00" fill="#000000">iterator</text>
</g>
<!-- Node8&#45;&gt;Node14 -->
<g id="edge16" class="edge">
<title>Node8&#45;&gt;Node14</title>
<path fill="none" stroke="#191970" d="M1702.5004,-140.05C1817.9302,-126.8726 2078.0239,-97.1805 2174.2755,-86.1924"/>
<polygon fill="#191970" stroke="#191970" points="2174.8547,-89.6491 2184.3931,-85.0374 2174.0607,-82.6943 2174.8547,-89.6491"/>
</g>
<!-- Node8&#45;&gt;Node20 -->
<g id="edge19" class="edge">
<title>Node8&#45;&gt;Node20</title>
<path fill="none" stroke="#191970" d="M1702.6808,-143.349C1768.7662,-139.713 1881.2878,-133.6396 1978,-129 2389.9003,-109.2397 2889.7863,-89.0017 3028.0425,-83.4712"/>
<polygon fill="#191970" stroke="#191970" points="3028.2516,-86.9657 3038.1038,-83.0691 3027.972,-79.9713 3028.2516,-86.9657"/>
</g>
<!-- Node23 -->
<g id="node17" class="node">
<title>Node23</title>
<g id="a_node17"><a xlink:href="AstronomicalConstants_8h.html" target="_top" xlink:title="Defines various astronomical constants. ">
<polygon fill="#ffffff" stroke="#000000" points="1128,-71.5 1128,-92.5 1278,-92.5 1278,-71.5 1128,-71.5"/>
<text text-anchor="middle" x="1203" y="-78.9" font-family="Helvetica,sans-Serif" font-size="12.00" fill="#000000">AstronomicalConstants.h</text>
</a>
</g>
</g>
<!-- Node8&#45;&gt;Node23 -->
<g id="edge23" class="edge">
<title>Node8&#45;&gt;Node23</title>
<path fill="none" stroke="#191970" d="M1589.4438,-138.2655C1512.4058,-127.0489 1373.9554,-106.8908 1285.3779,-93.9941"/>
<polygon fill="#191970" stroke="#191970" points="1285.7653,-90.5137 1275.3653,-92.5363 1284.7567,-97.4406 1285.7653,-90.5137"/>
</g>
<!-- Node20&#45;&gt;Node1 -->
<g id="edge20" class="edge">
<title>Node20&#45;&gt;Node1</title>
<path fill="none" stroke="#191970" d="M3038.3175,-80.9607C2858.4195,-73.9538 1820.1604,-33.5144 1501.7907,-21.1141"/>
<polygon fill="#191970" stroke="#191970" points="1501.8046,-17.6121 1491.676,-20.7202 1501.5321,-24.6068 1501.8046,-17.6121"/>
</g>
<!-- Node20&#45;&gt;Node13 -->
<g id="edge21" class="edge">
<title>Node20&#45;&gt;Node13</title>
<path fill="none" stroke="#191970" d="M3053.9363,-71.3491C3043.8139,-61.6044 3028.6335,-46.9905 3016.6401,-35.4445"/>
<polygon fill="#191970" stroke="#191970" points="3018.9357,-32.7962 3009.3041,-28.3823 3014.0809,-37.8392 3018.9357,-32.7962"/>
</g>
<!-- Node22 -->
<g id="node16" class="node">
<title>Node22</title>
<polygon fill="#ffffff" stroke="#bfbfbf" points="3354,-7 3354,-28 3400,-28 3400,-7 3354,-7"/>
<text text-anchor="middle" x="3377" y="-14.4" font-family="Helvetica,sans-Serif" font-size="12.00" fill="#000000">string</text>
</g>
<!-- Node20&#45;&gt;Node22 -->
<g id="edge22" class="edge">
<title>Node20&#45;&gt;Node22</title>
<path fill="none" stroke="#191970" d="M3091.6009,-76.5008C3148.4374,-64.7509 3281.5955,-37.223 3343.8376,-24.3557"/>
<polygon fill="#191970" stroke="#191970" points="3344.8151,-27.7277 3353.8995,-22.2756 3343.3979,-20.8726 3344.8151,-27.7277"/>
</g>
<!-- Node26&#45;&gt;Node8 -->
<g id="edge29" class="edge">
<title>Node26&#45;&gt;Node8</title>
<path fill="none" stroke="#191970" d="M1410.7729,-200.4934C1459.8628,-189.2254 1537.8312,-171.3288 1590.4114,-159.2597"/>
<polygon fill="#191970" stroke="#191970" points="1591.2832,-162.6507 1600.2467,-157.0021 1589.7171,-155.8281 1591.2832,-162.6507"/>
</g>
<!-- Node26&#45;&gt;Node10 -->
<g id="edge28" class="edge">
<title>Node26&#45;&gt;Node10</title>
<path fill="none" stroke="#191970" d="M1352.2385,-200.3726C1334.0264,-183.9316 1304.7019,-151.8461 1323,-129 1343.899,-102.9066 1438.2089,-90.3263 1493.0749,-85.118"/>
<polygon fill="#191970" stroke="#191970" points="1493.5193,-88.5921 1503.1614,-84.2011 1492.8856,-81.6208 1493.5193,-88.5921"/>
</g>
<!-- Node27 -->
<g id="node19" class="node">
<title>Node27</title>
<polygon fill="#ffffff" stroke="#bfbfbf" points="1331.5,-136 1331.5,-157 1380.5,-157 1380.5,-136 1331.5,-136"/>
<text text-anchor="middle" x="1356" y="-143.4" font-family="Helvetica,sans-Serif" font-size="12.00" fill="#000000">cmath</text>
</g>
<!-- Node26&#45;&gt;Node27 -->
<g id="edge27" class="edge">
<title>Node26&#45;&gt;Node27</title>
<path fill="none" stroke="#191970" d="M1363.5138,-200.3491C1362.2707,-191.4397 1360.4595,-178.4599 1358.9269,-167.4761"/>
<polygon fill="#191970" stroke="#191970" points="1362.3669,-166.8026 1357.5185,-157.3823 1355.4341,-167.77 1362.3669,-166.8026"/>
</g>
<!-- Node34&#45;&gt;Node1 -->
<g id="edge32" class="edge">
<title>Node34&#45;&gt;Node1</title>
<path fill="none" stroke="#191970" d="M959.3789,-200.1344C976.106,-172.7873 1024.2395,-101.1483 1086,-71 1125.5549,-51.6913 1235.4695,-36.1642 1316.1335,-26.9102"/>
<polygon fill="#191970" stroke="#191970" points="1316.7724,-30.3603 1326.3152,-25.7574 1315.9849,-23.4047 1316.7724,-30.3603"/>
</g>
<!-- Node34&#45;&gt;Node13 -->
<g id="edge33" class="edge">
<title>Node34&#45;&gt;Node13</title>
<path fill="none" stroke="#191970" d="M1014.2508,-208.285C1169.8444,-201.2148 1577.4878,-181.5621 1712,-164 1920.5536,-136.7709 1967.4895,-98.5574 2176,-71 2473.6114,-31.6667 2835.8369,-20.8668 2956.6086,-18.2531"/>
<polygon fill="#191970" stroke="#191970" points="2956.9509,-21.7468 2966.8754,-18.0382 2956.8043,-14.7483 2956.9509,-21.7468"/>
</g>
<!-- Node35&#45;&gt;Node1 -->
<g id="edge35" class="edge">
<title>Node35&#45;&gt;Node1</title>
<path fill="none" stroke="#191970" d="M881.7829,-264.8477C877.8092,-249.6129 872.7457,-221.1124 883,-200 923.5158,-116.5831 961.8257,-107.6774 1047,-71 1094.032,-50.7473 1225.378,-34.7865 1316.2005,-25.7433"/>
<polygon fill="#191970" stroke="#191970" points="1316.628,-29.2183 1326.2371,-24.7556 1315.9424,-22.2519 1316.628,-29.2183"/>
</g>
<!-- Node36 -->
<g id="node22" class="node">
<title>Node36</title>
<g id="a_node22"><a xlink:href="StoppingCondition_8h.html" target="_top" xlink:title="Defines the various stopping conditions needed by OrbitSolver. ">
<polygon fill="#ffffff" stroke="#000000" points="710,-200.5 710,-221.5 836,-221.5 836,-200.5 710,-200.5"/>
<text text-anchor="middle" x="773" y="-207.9" font-family="Helvetica,sans-Serif" font-size="12.00" fill="#000000">StoppingCondition.h</text>
</a>
</g>
</g>
<!-- Node35&#45;&gt;Node36 -->
<g id="edge36" class="edge">
<title>Node35&#45;&gt;Node36</title>
<path fill="none" stroke="#191970" d="M866.5055,-264.8491C848.5098,-254.4855 820.9508,-238.6145 800.4076,-226.7838"/>
<polygon fill="#191970" stroke="#191970" points="801.9344,-223.6243 791.522,-221.6667 798.441,-229.6903 801.9344,-223.6243"/>
</g>
<!-- Node36&#45;&gt;Node1 -->
<g id="edge37" class="edge">
<title>Node36&#45;&gt;Node1</title>
<path fill="none" stroke="#191970" d="M770.5491,-200.2899C765.2172,-173.9234 755.7721,-105.5157 792,-71 829.1237,-35.6308 1153.5027,-23.2666 1316.4332,-19.2617"/>
<polygon fill="#191970" stroke="#191970" points="1316.5377,-22.7603 1326.4507,-19.021 1316.3695,-15.7623 1316.5377,-22.7603"/>
</g>
<!-- Node36&#45;&gt;Node7 -->
<g id="edge39" class="edge">
<title>Node36&#45;&gt;Node7</title>
<path fill="none" stroke="#191970" d="M777.5009,-200.4434C786.6461,-178.9938 807.5348,-130.0002 819.3823,-102.2125"/>
<polygon fill="#191970" stroke="#191970" points="822.7345,-103.274 823.4369,-92.7025 816.2953,-100.5286 822.7345,-103.274"/>
</g>
<!-- Node36&#45;&gt;Node8 -->
<g id="edge38" class="edge">
<title>Node36&#45;&gt;Node8</title>
<path fill="none" stroke="#191970" d="M836.0835,-204.3673C851.428,-202.8436 867.7969,-201.2929 883,-200 951.3508,-194.1874 1406.4651,-162.9023 1579.449,-151.0526"/>
<polygon fill="#191970" stroke="#191970" points="1579.7081,-154.5432 1589.4455,-150.368 1579.2297,-147.5595 1579.7081,-154.5432"/>
</g>
<!-- Node37&#45;&gt;Node1 -->
<g id="edge41" class="edge">
<title>Node37&#45;&gt;Node1</title>
<path fill="none" stroke="#191970" d="M333.265,-264.8418C364.8408,-229.3855 472.8037,-115.1568 590,-71 656.4317,-45.9701 1115.7453,-27.4889 1316,-20.5286"/>
<polygon fill="#191970" stroke="#191970" points="1316.3339,-24.0192 1326.2071,-20.176 1316.0922,-17.0234 1316.3339,-24.0192"/>
</g>
<!-- Node37&#45;&gt;Node36 -->
<g id="edge42" class="edge">
<title>Node37&#45;&gt;Node36</title>
<path fill="none" stroke="#191970" d="M391.7945,-266.1005C465.1498,-255.88 585.8488,-238.9182 699.8409,-222.1606"/>
<polygon fill="#191970" stroke="#191970" points="700.406,-225.6152 709.7896,-220.696 699.3865,-218.6898 700.406,-225.6152"/>
</g>
<!-- Node38&#45;&gt;Node1 -->
<g id="edge44" class="edge">
<title>Node38&#45;&gt;Node1</title>
<path fill="none" stroke="#191970" d="M557.8713,-264.8614C548.6335,-239.1491 529.2012,-172.5442 557,-129 589.9557,-77.378 622.7195,-86.3862 682,-71 799.3444,-40.5433 1148.2282,-25.709 1316.3688,-20.1722"/>
<polygon fill="#191970" stroke="#191970" points="1316.5627,-23.6678 1326.4436,-19.8444 1316.3351,-16.6715 1316.5627,-23.6678"/>
</g>
<!-- Node38&#45;&gt;Node34 -->
<g id="edge46" class="edge">
<title>Node38&#45;&gt;Node34</title>
<path fill="none" stroke="#191970" d="M610.9114,-264.9888C622.7058,-262.5763 635.285,-260.1042 647,-258 727.1787,-243.5983 819.6761,-229.7753 881.8022,-220.8938"/>
<polygon fill="#191970" stroke="#191970" points="882.4816,-224.3324 891.8881,-219.4572 881.4945,-217.4024 882.4816,-224.3324"/>
</g>
<!-- Node38&#45;&gt;Node36 -->
<g id="edge45" class="edge">
<title>Node38&#45;&gt;Node36</title>
<path fill="none" stroke="#191970" d="M596.3704,-264.9934C632.5418,-253.9363 689.5939,-236.4962 729.0231,-224.4432"/>
<polygon fill="#191970" stroke="#191970" points="730.1043,-227.7726 738.6443,-221.5021 728.0579,-221.0784 730.1043,-227.7726"/>
</g>
<!-- Node40&#45;&gt;Node1 -->
<g id="edge51" class="edge">
<title>Node40&#45;&gt;Node1</title>
<path fill="none" stroke="#191970" d="M899.7146,-408.8637C768.3498,-403.6002 448.6808,-388.6177 344,-364 210.4874,-332.6019 76,-348.1549 76,-211 76,-211 76,-211 76,-146.5 76,-96.3029 113.5243,-89.9674 160,-71 265.9566,-27.7575 1045.1139,-19.4536 1316.2796,-17.87"/>
<polygon fill="#191970" stroke="#191970" points="1316.5055,-21.3688 1326.4855,-17.8122 1316.4658,-14.369 1316.5055,-21.3688"/>
</g>
<!-- Node40&#45;&gt;Node3 -->
<g id="edge52" class="edge">
<title>Node40&#45;&gt;Node3</title>
<path fill="none" stroke="#191970" d="M931.4258,-400.4934C905.1958,-389.7174 864.209,-372.8788 834.9848,-360.8727"/>
<polygon fill="#191970" stroke="#191970" points="836.1431,-357.5648 825.5632,-357.0021 833.483,-364.0397 836.1431,-357.5648"/>
</g>
<!-- Node40&#45;&gt;Node7 -->
<g id="edge60" class="edge">
<title>Node40&#45;&gt;Node7</title>
<path fill="none" stroke="#191970" d="M899.9995,-405.7318C738.9383,-390.276 289.3639,-342.9858 247,-293 93.5293,-111.9177 639.0081,-86.2349 790.1841,-82.5985"/>
<polygon fill="#191970" stroke="#191970" points="790.4523,-86.0935 800.3723,-82.373 790.2973,-79.0953 790.4523,-86.0935"/>
</g>
<!-- Node40&#45;&gt;Node8 -->
<g id="edge58" class="edge">
<title>Node40&#45;&gt;Node8</title>
<path fill="none" stroke="#191970" d="M1014.4287,-405.0593C1131.5528,-392.9175 1387.7906,-366.2101 1397,-364 1483.0416,-343.3512 1513.4073,-347.6478 1583,-293 1613.1549,-269.3208 1617.2917,-257.4075 1632,-222 1639.3251,-204.3662 1642.836,-182.8296 1644.5077,-167.2778"/>
<polygon fill="#191970" stroke="#191970" points="1648.0083,-167.4287 1645.4282,-157.1528 1641.0371,-166.7948 1648.0083,-167.4287"/>
</g>
<!-- Node40&#45;&gt;Node10 -->
<g id="edge59" class="edge">
<title>Node40&#45;&gt;Node10</title>
<path fill="none" stroke="#191970" d="M968.9021,-400.3343C1021.4137,-353.4766 1233.2885,-166.5461 1313,-129 1372.0033,-101.208 1447.6421,-89.6751 1493.1066,-85.0151"/>
<polygon fill="#191970" stroke="#191970" points="1493.5413,-88.4895 1503.1596,-84.0468 1492.8701,-81.5218 1493.5413,-88.4895"/>
</g>
<!-- Node40&#45;&gt;Node23 -->
<g id="edge57" class="edge">
<title>Node40&#45;&gt;Node23</title>
<path fill="none" stroke="#191970" d="M961.9545,-400.2705C980.5739,-360.74 1049.7662,-220.7736 1137,-129 1148.3078,-117.1037 1163.0184,-106.288 1175.6809,-98.0392"/>
<polygon fill="#191970" stroke="#191970" points="1177.8659,-100.7994 1184.4613,-92.5077 1174.1347,-94.8767 1177.8659,-100.7994"/>
</g>
<!-- Node41 -->
<g id="node27" class="node">
<title>Node41</title>
<g id="a_node27"><a xlink:href="OrbitalExpressions_8h.html" target="_top" xlink:title="A collection of functions which calculate various quantities for two body orbits. ...">
<polygon fill="#ffffff" stroke="#000000" points="1222,-336 1222,-357 1388,-357 1388,-336 1222,-336"/>
<text text-anchor="middle" x="1305" y="-343.4" font-family="Helvetica,sans-Serif" font-size="12.00" fill="#000000">../Core/OrbitalExpressions.h</text>
</a>
</g>
</g>
<!-- Node40&#45;&gt;Node41 -->
<g id="edge53" class="edge">
<title>Node40&#45;&gt;Node41</title>
<path fill="none" stroke="#191970" d="M1013.6867,-400.4934C1075.1133,-389.1083 1173.0514,-370.956 1238.1775,-358.8852"/>
<polygon fill="#191970" stroke="#191970" points="1239.1429,-362.266 1248.3375,-357.0021 1237.8671,-355.3832 1239.1429,-362.266"/>
</g>
<!-- Node41&#45;&gt;Node1 -->
<g id="edge54" class="edge">
<title>Node41&#45;&gt;Node1</title>
<path fill="none" stroke="#191970" d="M1301.8461,-335.7846C1295.133,-311.5069 1280.6968,-250.4924 1289,-200 1294.405,-167.1318 1296.4953,-157.9331 1313,-129 1332.021,-95.6559 1361.7926,-63.036 1383.1381,-41.7808"/>
<polygon fill="#191970" stroke="#191970" points="1385.6149,-44.254 1390.3054,-34.754 1380.7144,-39.2555 1385.6149,-44.254"/>
</g>
<!-- Node41&#45;&gt;Node23 -->
<g id="edge56" class="edge">
<title>Node41&#45;&gt;Node23</title>
<path fill="none" stroke="#191970" d="M1298.0118,-335.9453C1280.3974,-308.7653 1234.0882,-233.6146 1213,-164 1206.8853,-143.8147 1204.4959,-119.7602 1203.5695,-102.9432"/>
<polygon fill="#191970" stroke="#191970" points="1207.0515,-102.4375 1203.1342,-92.5935 1200.0576,-102.7318 1207.0515,-102.4375"/>
</g>
<!-- Node41&#45;&gt;Node27 -->
<g id="edge55" class="edge">
<title>Node41&#45;&gt;Node27</title>
<path fill="none" stroke="#191970" d="M1309.843,-335.8922C1318.5661,-317.795 1338.5049,-280.7131 1365,-258 1393.3761,-233.6744 1421.0134,-253.5828 1441,-222 1446.2287,-213.7377 1445.7264,-208.5596 1441,-200 1434.9156,-188.9811 1408.6592,-173.3748 1386.9186,-161.8599"/>
<polygon fill="#191970" stroke="#191970" points="1388.4371,-158.7047 1377.9496,-157.2007 1385.2102,-164.9166 1388.4371,-158.7047"/>
</g>
<!-- Node42&#45;&gt;Node1 -->
<g id="edge62" class="edge">
<title>Node42&#45;&gt;Node1</title>
<path fill="none" stroke="#191970" d="M1506.2123,-471.3717C1390.6539,-460.5818 1118,-426.6327 1118,-346.5 1118,-346.5 1118,-346.5 1118,-275.5 1118,-184.61 1060.6819,-140.7136 1119,-71 1143.8639,-41.2777 1240.7262,-27.9994 1315.7435,-22.1104"/>
<polygon fill="#191970" stroke="#191970" points="1316.4641,-25.5663 1326.174,-21.3276 1315.9401,-18.5859 1316.4641,-25.5663"/>
</g>
<!-- Node42&#45;&gt;Node8 -->
<g id="edge69" class="edge">
<title>Node42&#45;&gt;Node8</title>
<path fill="none" stroke="#191970" d="M1599.5097,-464.9104C1621.6613,-456.9991 1646.8189,-443.6997 1660,-422 1710.3911,-339.0427 1672.2195,-214.7632 1654.1295,-166.5849"/>
<polygon fill="#191970" stroke="#191970" points="1657.2955,-165.0685 1650.4167,-157.0104 1650.769,-167.5994 1657.2955,-165.0685"/>
</g>
<!-- Node42&#45;&gt;Node11 -->
<g id="edge76" class="edge">
<title>Node42&#45;&gt;Node11</title>
<path fill="none" stroke="#191970" d="M1607.6075,-473.2273C1679.7844,-468.8047 1806.7142,-456.2483 1835,-422 1841.2265,-414.461 1836.779,-409.6146 1835,-400 1825.7342,-349.9228 1807.5719,-342.0855 1794,-293 1775.1377,-224.7807 1763.8719,-141.3806 1759.3324,-103.0726"/>
<polygon fill="#191970" stroke="#191970" points="1762.7589,-102.2325 1758.1385,-92.6983 1755.8048,-103.0329 1762.7589,-102.2325"/>
</g>
<!-- Node42&#45;&gt;Node13 -->
<g id="edge77" class="edge">
<title>Node42&#45;&gt;Node13</title>
<path fill="none" stroke="#191970" d="M1607.6217,-474.9477C1843.3752,-471.9145 2834.6321,-453.9442 3129,-364 3197.242,-343.1486 3227.7388,-348.165 3273,-293 3336.6942,-215.3688 3379.8286,-147.6865 3315,-71 3297.3519,-50.1239 3121.0615,-29.8673 3039.2773,-21.5083"/>
<polygon fill="#191970" stroke="#191970" points="3039.3901,-18.002 3029.0888,-20.4786 3038.6862,-24.9665 3039.3901,-18.002"/>
</g>
<!-- Node42&#45;&gt;Node20 -->
<g id="edge71" class="edge">
<title>Node42&#45;&gt;Node20</title>
<path fill="none" stroke="#191970" d="M1607.5799,-474.096C1877.406,-466.0849 3139.1696,-421.8747 3248,-293 3295.098,-237.2275 3286.9436,-184.0473 3239,-129 3221.1257,-108.4772 3147.2046,-94.1442 3101.6564,-87.0648"/>
<polygon fill="#191970" stroke="#191970" points="3101.9791,-83.5739 3091.5688,-85.5429 3100.9348,-90.4956 3101.9791,-83.5739"/>
</g>
<!-- Node42&#45;&gt;Node22 -->
<g id="edge75" class="edge">
<title>Node42&#45;&gt;Node22</title>
<path fill="none" stroke="#191970" d="M1607.6316,-474.3967C1818.038,-469.665 2624.1101,-450.0478 2877,-422 3019.7894,-406.1634 3061.9862,-418.2856 3195,-364 3279.6968,-329.4335 3307.3696,-305.8249 3344,-222 3371.4057,-159.2849 3376.3018,-76.7975 3377.01,-38.5955"/>
<polygon fill="#191970" stroke="#191970" points="3380.5134,-38.2676 3377.1156,-28.2324 3373.5138,-38.1961 3380.5134,-38.2676"/>
</g>
<!-- Node42&#45;&gt;Node23 -->
<g id="edge68" class="edge">
<title>Node42&#45;&gt;Node23</title>
<path fill="none" stroke="#191970" d="M1506.1637,-469.5442C1454.9994,-462.404 1374.4992,-448.0074 1309,-422 1262.6695,-403.6038 1238.784,-406.6629 1213,-364 1161.6447,-279.0261 1185.3364,-151.849 1197.4355,-102.5511"/>
<polygon fill="#191970" stroke="#191970" points="1200.854,-103.3099 1199.9442,-92.7542 1194.0728,-101.5733 1200.854,-103.3099"/>
</g>
<!-- Node42&#45;&gt;Node35 -->
<g id="edge64" class="edge">
<title>Node42&#45;&gt;Node35</title>
<path fill="none" stroke="#191970" d="M1506.4017,-472.5143C1404.248,-466.0005 1176.9008,-448.9061 1104,-422 1022.1583,-391.794 940.716,-325.2894 904.4979,-293.332"/>
<polygon fill="#191970" stroke="#191970" points="906.4713,-290.4016 896.6823,-286.3486 901.8073,-295.6215 906.4713,-290.4016"/>
</g>
<!-- Node42&#45;&gt;Node40 -->
<g id="edge63" class="edge">
<title>Node42&#45;&gt;Node40</title>
<path fill="none" stroke="#191970" d="M1506.2012,-471.2634C1411.8249,-463.1924 1203.1131,-444.4041 1028,-422 1026.8865,-421.8575 1025.7635,-421.7115 1024.6331,-421.5623"/>
<polygon fill="#191970" stroke="#191970" points="1024.6973,-418.0384 1014.3143,-420.146 1023.7454,-424.9734 1024.6973,-418.0384"/>
</g>
<!-- Node42&#45;&gt;Node41 -->
<g id="edge70" class="edge">
<title>Node42&#45;&gt;Node41</title>
<path fill="none" stroke="#191970" d="M1506.4505,-469.7256C1446.8026,-461.9173 1352.4949,-446.13 1327,-422 1312.1148,-407.9117 1307.1219,-384.3846 1305.5381,-367.3329"/>
<polygon fill="#191970" stroke="#191970" points="1309.0241,-366.9944 1304.92,-357.2268 1302.0371,-367.4219 1309.0241,-366.9944"/>
</g>
<!-- Node43 -->
<g id="node29" class="node">
<title>Node43</title>
<g id="a_node29"><a xlink:href="SecondaryDeathCondition_8h.html" target="_top" xlink:title="Declares a stopping condition class monitoring for the death of the secondary object. ">
<polygon fill="#ffffff" stroke="#000000" points="1374,-265 1374,-286 1542,-286 1542,-265 1374,-265"/>
<text text-anchor="middle" x="1458" y="-272.4" font-family="Helvetica,sans-Serif" font-size="12.00" fill="#000000">SecondaryDeathCondition.h</text>
</a>
</g>
</g>
<!-- Node42&#45;&gt;Node43 -->
<g id="edge65" class="edge">
<title>Node42&#45;&gt;Node43</title>
<path fill="none" stroke="#191970" d="M1587.8317,-464.9891C1619.0915,-452.4576 1660.7767,-429.4571 1645,-400 1614.4634,-342.9841 1545.0198,-307.5931 1499.8895,-289.7356"/>
<polygon fill="#191970" stroke="#191970" points="1500.963,-286.3989 1490.3728,-286.0863 1498.4567,-292.9348 1500.963,-286.3989"/>
</g>
<!-- Node44 -->
<g id="node30" class="node">
<title>Node44</title>
<polygon fill="#ffffff" stroke="#bfbfbf" points="1730.5,-400.5 1730.5,-421.5 1825.5,-421.5 1825.5,-400.5 1730.5,-400.5"/>
<text text-anchor="middle" x="1778" y="-407.9" font-family="Helvetica,sans-Serif" font-size="12.00" fill="#000000">gsl/gsl_errno.h</text>
</g>
<!-- Node42&#45;&gt;Node44 -->
<g id="edge72" class="edge">
<title>Node42&#45;&gt;Node44</title>
<path fill="none" stroke="#191970" d="M1592.9993,-464.9934C1630.9653,-453.9129 1690.8943,-436.4223 1732.2011,-424.3666"/>
<polygon fill="#191970" stroke="#191970" points="1733.3972,-427.6637 1742.0161,-421.5021 1731.436,-420.944 1733.3972,-427.6637"/>
</g>
<!-- Node45 -->
<g id="node31" class="node">
<title>Node45</title>
<polygon fill="#ffffff" stroke="#bfbfbf" points="1336,-400.5 1336,-421.5 1440,-421.5 1440,-400.5 1336,-400.5"/>
<text text-anchor="middle" x="1388" y="-407.9" font-family="Helvetica,sans-Serif" font-size="12.00" fill="#000000">gsl/gsl_odeiv2.h</text>
</g>
<!-- Node42&#45;&gt;Node45 -->
<g id="edge73" class="edge">
<title>Node42&#45;&gt;Node45</title>
<path fill="none" stroke="#191970" d="M1529.4711,-464.9934C1501.1135,-454.1705 1456.7327,-437.2323 1425.2492,-425.2164"/>
<polygon fill="#191970" stroke="#191970" points="1426.1078,-421.7979 1415.5171,-421.5021 1423.6118,-428.3378 1426.1078,-421.7979"/>
</g>
<!-- Node46 -->
<g id="node32" class="node">
<title>Node46</title>
<polygon fill="#ffffff" stroke="#bfbfbf" points="1458,-400.5 1458,-421.5 1558,-421.5 1558,-400.5 1458,-400.5"/>
<text text-anchor="middle" x="1508" y="-407.9" font-family="Helvetica,sans-Serif" font-size="12.00" fill="#000000">gsl/gsl_siman.h</text>
</g>
<!-- Node42&#45;&gt;Node46 -->
<g id="edge74" class="edge">
<title>Node42&#45;&gt;Node46</title>
<path fill="none" stroke="#191970" d="M1548.9086,-464.8491C1541.7172,-455.3829 1531.035,-441.3216 1522.3897,-429.9415"/>
<polygon fill="#191970" stroke="#191970" points="1525.1034,-427.7278 1516.2672,-421.8823 1519.5295,-431.9624 1525.1034,-427.7278"/>
</g>
<!-- Node31 -->
<g id="node33" class="node">
<title>Node31</title>
<polygon fill="#ffffff" stroke="#bfbfbf" points="1576.5,-400.5 1576.5,-421.5 1635.5,-421.5 1635.5,-400.5 1576.5,-400.5"/>
<text text-anchor="middle" x="1606" y="-407.9" font-family="Helvetica,sans-Serif" font-size="12.00" fill="#000000">iomanip</text>
</g>
<!-- Node42&#45;&gt;Node31 -->
<g id="edge78" class="edge">
<title>Node42&#45;&gt;Node31</title>
<path fill="none" stroke="#191970" d="M1565.0914,-464.8491C1572.2828,-455.3829 1582.965,-441.3216 1591.6103,-429.9415"/>
<polygon fill="#191970" stroke="#191970" points="1594.4705,-431.9624 1597.7328,-421.8823 1588.8966,-427.7278 1594.4705,-431.9624"/>
</g>
<!-- Node43&#45;&gt;Node1 -->
<g id="edge66" class="edge">
<title>Node43&#45;&gt;Node1</title>
<path fill="none" stroke="#191970" d="M1458.4747,-264.6845C1458.9476,-249.9694 1459.2036,-222.8541 1456,-200 1448.0837,-143.5266 1429.1603,-79.3553 1417.8876,-44.1461"/>
<polygon fill="#191970" stroke="#191970" points="1421.2061,-43.033 1414.7909,-34.6012 1414.5478,-45.1932 1421.2061,-43.033"/>
</g>
<!-- Node43&#45;&gt;Node36 -->
<g id="edge67" class="edge">
<title>Node43&#45;&gt;Node36</title>
<path fill="none" stroke="#191970" d="M1373.7035,-267.84C1261.6271,-257.6137 1057.3896,-238.8322 883,-222 871.1348,-220.8548 858.5522,-219.6178 846.2986,-218.4009"/>
<polygon fill="#191970" stroke="#191970" points="846.4036,-214.8941 836.1059,-217.386 845.7099,-221.8597 846.4036,-214.8941"/>
</g>
<!-- Node47&#45;&gt;Node1 -->
<g id="edge80" class="edge">
<title>Node47&#45;&gt;Node1</title>
<path fill="none" stroke="#191970" d="M1164.3647,-458.4284C1194.2073,-442.0818 1241.349,-417.4006 1284,-400 1402.3689,-351.7082 1482.0775,-400.6708 1551,-293 1580.3093,-247.213 1474.8838,-102.0681 1429.1579,-42.9385"/>
<polygon fill="#191970" stroke="#191970" points="1431.7732,-40.6004 1422.8677,-34.8607 1426.2501,-44.9011 1431.7732,-40.6004"/>
</g>
<!-- Node47&#45;&gt;Node20 -->
<g id="edge84" class="edge">
<title>Node47&#45;&gt;Node20</title>
<path fill="none" stroke="#191970" d="M1187.0614,-458.4582C1216.0585,-448.6769 1252.3998,-435.6501 1284,-422 1303.7072,-413.4872 1306.196,-405.2946 1327,-400 1478.9841,-361.3204 2581.7699,-377.6904 2738,-364 2764.416,-361.6852 3192.7002,-313.0968 3210,-293 3257.6242,-237.6762 3247.0185,-185.6664 3201,-129 3188.2791,-113.3357 3137.4525,-98.7243 3101.6806,-90.0752"/>
<polygon fill="#191970" stroke="#191970" points="3102.1149,-86.5817 3091.5785,-87.6929 3100.5081,-93.3948 3102.1149,-86.5817"/>
</g>
<!-- Node47&#45;&gt;Node36 -->
<g id="edge81" class="edge">
<title>Node47&#45;&gt;Node36</title>
<path fill="none" stroke="#191970" d="M1050.7961,-464.4108C840.0185,-435.4933 298.0974,-355.681 247,-293 237.1712,-280.943 236.4442,-269.4259 247,-258 279.7286,-222.5734 616.839,-227.2663 699.5309,-221.8033"/>
<polygon fill="#191970" stroke="#191970" points="700.1559,-225.2625 709.8188,-220.9176 699.5554,-218.2883 700.1559,-225.2625"/>
</g>
<!-- Node47&#45;&gt;Node40 -->
<g id="edge82" class="edge">
<title>Node47&#45;&gt;Node40</title>
<path fill="none" stroke="#191970" d="M1087.0319,-458.3845C1058.3906,-447.9474 1022.2437,-434.7753 995.3353,-424.9696"/>
<polygon fill="#191970" stroke="#191970" points="996.4646,-421.6561 985.8706,-421.5206 994.0679,-428.233 996.4646,-421.6561"/>
</g>
<!-- Node47&#45;&gt;Node41 -->
<g id="edge83" class="edge">
<title>Node47&#45;&gt;Node41</title>
<path fill="none" stroke="#191970" d="M1151.2219,-458.321C1167.6644,-442.341 1193.4967,-418.3103 1218,-400 1236.6958,-386.0293 1259.1657,-372.2817 1276.5863,-362.221"/>
<polygon fill="#191970" stroke="#191970" points="1278.734,-365.0256 1285.6889,-357.0331 1275.2678,-358.944 1278.734,-365.0256"/>
</g>
<!-- Node48&#45;&gt;Node1 -->
<g id="edge86" class="edge">
<title>Node48&#45;&gt;Node1</title>
<path fill="none" stroke="#191970" d="M795.4341,-473.0342C641.9308,-467.5585 304.6166,-452.3979 193,-422 119.0661,-401.8647 38,-423.1267 38,-346.5 38,-346.5 38,-346.5 38,-146.5 38,-101.637 64.4674,-90.2302 105,-71 159.5288,-45.1294 1026.8364,-25.258 1316.0012,-19.3243"/>
<polygon fill="#191970" stroke="#191970" points="1316.1151,-22.8228 1326.0415,-19.1191 1315.972,-15.8243 1316.1151,-22.8228"/>
</g>
<!-- Node48&#45;&gt;Node20 -->
<g id="edge89" class="edge">
<title>Node48&#45;&gt;Node20</title>
<path fill="none" stroke="#191970" d="M916.9332,-464.9962C991.2008,-447.7719 1146.5278,-414.0364 1280,-400 1584.4258,-367.9855 2358.0745,-429.9055 2657,-364 2695.2973,-355.5564 2700.0588,-338.9216 2738,-329 2812.7892,-309.4428 3032.0213,-350.2199 3084,-293 3132.664,-239.429 3095.2907,-143.5482 3075.3938,-102.0521"/>
<polygon fill="#191970" stroke="#191970" points="3078.4611,-100.3591 3070.8867,-92.9512 3072.1882,-103.4657 3078.4611,-100.3591"/>
</g>
<!-- Node48&#45;&gt;Node36 -->
<g id="edge87" class="edge">
<title>Node48&#45;&gt;Node36</title>
<path fill="none" stroke="#191970" d="M795.3052,-471.9835C625.2217,-463.9095 233.4654,-443.1097 214,-422 164.589,-368.4151 164.3959,-311.4062 214,-258 249.3027,-219.9913 612.9604,-227.3313 699.6772,-221.7884"/>
<polygon fill="#191970" stroke="#191970" points="700.1489,-225.2612 709.821,-220.9368 699.5632,-218.2858 700.1489,-225.2612"/>
</g>
<!-- Node48&#45;&gt;Node40 -->
<g id="edge88" class="edge">
<title>Node48&#45;&gt;Node40</title>
<path fill="none" stroke="#191970" d="M886.8709,-464.8491C899.8813,-454.859 919.5565,-439.7512 934.7587,-428.0781"/>
<polygon fill="#191970" stroke="#191970" points="937.3086,-430.533 943.1085,-421.6667 933.0454,-424.981 937.3086,-430.533"/>
</g>
<!-- Node49&#45;&gt;Node1 -->
<g id="edge91" class="edge">
<title>Node49&#45;&gt;Node1</title>
<path fill="none" stroke="#191970" d="M2505.3488,-203.964C2472.497,-197.7079 2432.1948,-185.9637 2402,-164 2361.6268,-134.6326 2382.4137,-95.6514 2339,-71 2267.5318,-30.4186 1723.2004,-20.552 1502.0078,-18.2092"/>
<polygon fill="#191970" stroke="#191970" points="1501.7578,-14.7065 1491.7222,-18.1032 1501.6856,-21.7061 1501.7578,-14.7065"/>
</g>
<!-- Node49&#45;&gt;Node8 -->
<g id="edge92" class="edge">
<title>Node49&#45;&gt;Node8</title>
<path fill="none" stroke="#191970" d="M2505.1785,-206.8671C2342.1066,-195.4094 1884.9728,-163.2906 1712.7615,-151.1908"/>
<polygon fill="#191970" stroke="#191970" points="1712.7898,-147.6842 1702.569,-150.4746 1712.2991,-154.667 1712.7898,-147.6842"/>
</g>
<!-- Node49&#45;&gt;Node9 -->
<g id="edge97" class="edge">
<title>Node49&#45;&gt;Node9</title>
<path fill="none" stroke="#191970" d="M2514.3797,-200.4296C2478.2126,-191.7073 2433.452,-178.4527 2421,-164 2406.558,-147.2376 2404.3876,-121.1705 2404.9733,-102.9387"/>
<polygon fill="#191970" stroke="#191970" points="2408.4792,-102.9513 2405.609,-92.7527 2401.4928,-102.5152 2408.4792,-102.9513"/>
</g>
<!-- Node49&#45;&gt;Node10 -->
<g id="edge96" class="edge">
<title>Node49&#45;&gt;Node10</title>
<path fill="none" stroke="#191970" d="M2505.4742,-206.1022C2414.9172,-198.1192 2245.209,-181.4345 2187,-164 2153.2979,-153.9057 2149.9304,-138.2981 2116,-129 1915.2305,-73.9826 1856.4066,-110.8268 1649,-93 1623.5969,-90.8166 1595.0895,-88.1167 1572.6922,-85.9383"/>
<polygon fill="#191970" stroke="#191970" points="1572.8404,-82.4361 1562.5473,-84.9466 1572.1593,-89.4029 1572.8404,-82.4361"/>
</g>
<!-- Node49&#45;&gt;Node11 -->
<g id="edge95" class="edge">
<title>Node49&#45;&gt;Node11</title>
<path fill="none" stroke="#191970" d="M2505.4651,-204.9288C2447.1281,-198.0528 2355.3349,-184.9896 2278,-164 2236.1802,-152.6496 2229.1111,-139.217 2187,-129 2041.5722,-93.7161 1862.0064,-84.8846 1789.5644,-82.7031"/>
<polygon fill="#191970" stroke="#191970" points="1789.3675,-79.1964 1779.2741,-82.417 1789.1729,-86.1937 1789.3675,-79.1964"/>
</g>
<!-- Node49&#45;&gt;Node13 -->
<g id="edge99" class="edge">
<title>Node49&#45;&gt;Node13</title>
<path fill="none" stroke="#191970" d="M2622.7337,-206.9387C2722.1952,-199.5818 2915.4267,-183.0356 2940,-164 2979.8497,-133.1305 2992.3823,-70.7946 2996.2769,-38.2872"/>
<polygon fill="#191970" stroke="#191970" points="2999.7796,-38.4398 2997.3248,-28.1333 2992.8166,-37.7211 2999.7796,-38.4398"/>
</g>
<!-- Node49&#45;&gt;Node14 -->
<g id="edge98" class="edge">
<title>Node49&#45;&gt;Node14</title>
<path fill="none" stroke="#191970" d="M2505.4807,-203.4026C2461.3838,-196.4489 2400.0044,-184.1169 2349,-164 2305.6767,-146.9126 2260.1106,-117.1925 2233.6903,-98.6133"/>
<polygon fill="#191970" stroke="#191970" points="2235.6703,-95.7266 2225.4952,-92.774 2231.6082,-101.4275 2235.6703,-95.7266"/>
</g>
<!-- Node49&#45;&gt;Node20 -->
<g id="edge93" class="edge">
<title>Node49&#45;&gt;Node20</title>
<path fill="none" stroke="#191970" d="M2622.6539,-208.6089C2720.3607,-203.9073 2911.7679,-191.4329 2973,-164 2989.8684,-156.4427 3025.8753,-121.7335 3047.5026,-99.966"/>
<polygon fill="#191970" stroke="#191970" points="3050.23,-102.1849 3054.7578,-92.6063 3045.245,-97.2706 3050.23,-102.1849"/>
</g>
<!-- Node49&#45;&gt;Node27 -->
<g id="edge94" class="edge">
<title>Node49&#45;&gt;Node27</title>
<path fill="none" stroke="#191970" d="M2505.2089,-208.1376C2459.3809,-205.9096 2394.1453,-202.7452 2337,-200 2001.0067,-183.8594 1916.7218,-185.0445 1581,-164 1513.6267,-159.7768 1435.0249,-153.3114 1390.8261,-149.5349"/>
<polygon fill="#191970" stroke="#191970" points="1390.8834,-146.027 1380.6205,-148.6583 1390.2843,-153.0013 1390.8834,-146.027"/>
</g>
<!-- Node50 -->
<g id="node37" class="node">
<title>Node50</title>
<polygon fill="#ffffff" stroke="#bfbfbf" points="2429.5,-129.5 2429.5,-163.5 2542.5,-163.5 2542.5,-129.5 2429.5,-129.5"/>
<text text-anchor="start" x="2437.5" y="-149.9" font-family="Helvetica,sans-Serif" font-size="12.00" fill="#000000">boost/serialization</text>
<text text-anchor="middle" x="2486" y="-136.9" font-family="Helvetica,sans-Serif" font-size="12.00" fill="#000000">/base_object.hpp</text>
</g>
<!-- Node49&#45;&gt;Node50 -->
<g id="edge100" class="edge">
<title>Node49&#45;&gt;Node50</title>
<path fill="none" stroke="#191970" d="M2551.1199,-200.3491C2541.2523,-192.1894 2527.2561,-180.6156 2514.7666,-170.2877"/>
<polygon fill="#191970" stroke="#191970" points="2516.7722,-167.4046 2506.8353,-163.7292 2512.3113,-172.7991 2516.7722,-167.4046"/>
</g>
<!-- Node51 -->
<g id="node38" class="node">
<title>Node51</title>
<polygon fill="#ffffff" stroke="#bfbfbf" points="2561,-129.5 2561,-163.5 2671,-163.5 2671,-129.5 2561,-129.5"/>
<text text-anchor="start" x="2569" y="-149.9" font-family="Helvetica,sans-Serif" font-size="12.00" fill="#000000">boost/archive/text</text>
<text text-anchor="middle" x="2616" y="-136.9" font-family="Helvetica,sans-Serif" font-size="12.00" fill="#000000">_oarchive.hpp</text>
</g>
<!-- Node49&#45;&gt;Node51 -->
<g id="edge101" class="edge">
<title>Node49&#45;&gt;Node51</title>
<path fill="none" stroke="#191970" d="M2572.5867,-200.3491C2578.8519,-192.578 2587.6135,-181.7101 2595.6264,-171.7711"/>
<polygon fill="#191970" stroke="#191970" points="2598.5582,-173.711 2602.1098,-163.7292 2593.1086,-169.3176 2598.5582,-173.711"/>
</g>
<!-- Node52 -->
<g id="node39" class="node">
<title>Node52</title>
<polygon fill="#ffffff" stroke="#bfbfbf" points="2689,-129.5 2689,-163.5 2799,-163.5 2799,-129.5 2689,-129.5"/>
<text text-anchor="start" x="2697" y="-149.9" font-family="Helvetica,sans-Serif" font-size="12.00" fill="#000000">boost/archive/text</text>
<text text-anchor="middle" x="2744" y="-136.9" font-family="Helvetica,sans-Serif" font-size="12.00" fill="#000000">_iarchive.hpp</text>
</g>
<!-- Node49&#45;&gt;Node52 -->
<g id="edge102" class="edge">
<title>Node49&#45;&gt;Node52</title>
<path fill="none" stroke="#191970" d="M2593.3207,-200.4934C2618.5991,-191.4353 2655.8319,-178.0936 2686.9607,-166.9391"/>
<polygon fill="#191970" stroke="#191970" points="2688.1722,-170.223 2696.4054,-163.5547 2685.8108,-163.6332 2688.1722,-170.223"/>
</g>
<!-- Node53 -->
<g id="node40" class="node">
<title>Node53</title>
<polygon fill="#ffffff" stroke="#bfbfbf" points="2817.5,-129.5 2817.5,-163.5 2930.5,-163.5 2930.5,-129.5 2817.5,-129.5"/>
<text text-anchor="start" x="2825.5" y="-149.9" font-family="Helvetica,sans-Serif" font-size="12.00" fill="#000000">boost/serialization</text>
<text text-anchor="middle" x="2874" y="-136.9" font-family="Helvetica,sans-Serif" font-size="12.00" fill="#000000">/export.hpp</text>
</g>
<!-- Node49&#45;&gt;Node53 -->
<g id="edge103" class="edge">
<title>Node49&#45;&gt;Node53</title>
<path fill="none" stroke="#191970" d="M2622.9071,-200.8276C2670.1517,-192.4017 2738.3674,-179.6386 2807.0461,-164.1384"/>
<polygon fill="#191970" stroke="#191970" points="2808.2061,-167.464 2817.1799,-161.8319 2806.6525,-160.6386 2808.2061,-167.464"/>
</g>
<!-- Node54&#45;&gt;Node1 -->
<g id="edge105" class="edge">
<title>Node54&#45;&gt;Node1</title>
<path fill="none" stroke="#191970" d="M2492.2085,-344.537C2389.9895,-340.5832 2205.4407,-328.6936 2052,-293 1963.3851,-272.3863 1927.1847,-283.3494 1860,-222 1805.0965,-171.8651 1847.9429,-114.9858 1788,-71 1743.8241,-38.5839 1599.284,-25.7306 1502.0202,-20.6878"/>
<polygon fill="#191970" stroke="#191970" points="1502.0403,-17.1845 1491.8781,-20.1812 1501.6911,-24.1758 1502.0403,-17.1845"/>
</g>
<!-- Node54&#45;&gt;Node9 -->
<g id="edge131" class="edge">
<title>Node54&#45;&gt;Node9</title>
<path fill="none" stroke="#191970" d="M2647.64,-336.4045C2744.433,-323.4979 2898.4367,-301.7728 2908,-293 2962.7253,-242.7984 2990.1529,-183.77 2940,-129 2905.4606,-91.2809 2535.905,-83.6761 2433.2932,-82.2872"/>
<polygon fill="#191970" stroke="#191970" points="2433.2125,-78.786 2423.1689,-82.159 2433.1238,-85.7854 2433.2125,-78.786"/>
</g>
<!-- Node54&#45;&gt;Node10 -->
<g id="edge130" class="edge">
<title>Node54&#45;&gt;Node10</title>
<path fill="none" stroke="#191970" d="M2492.2324,-345.1789C2322.4917,-341.6407 1923.6404,-329.5874 1794,-293 1674.8081,-259.3614 1619.894,-264.1236 1547,-164 1534.1088,-146.2932 1531.578,-120.7881 1531.6566,-102.9383"/>
<polygon fill="#191970" stroke="#191970" points="1535.1622,-102.8205 1531.9878,-92.7124 1528.1658,-102.5938 1535.1622,-102.8205"/>
</g>
<!-- Node54&#45;&gt;Node12 -->
<g id="edge135" class="edge">
<title>Node54&#45;&gt;Node12</title>
<path fill="none" stroke="#191970" d="M2492.2743,-345.176C2312.7947,-341.5158 1880.6266,-329.0288 1826,-293 1787.1709,-267.3904 1802.9709,-239.2429 1778,-200 1754.3549,-162.8407 1721.9125,-122.9175 1702.8315,-100.3413"/>
<polygon fill="#191970" stroke="#191970" points="1705.3684,-97.9221 1696.2189,-92.58 1700.0401,-102.4618 1705.3684,-97.9221"/>
</g>
<!-- Node54&#45;&gt;Node13 -->
<g id="edge133" class="edge">
<title>Node54&#45;&gt;Node13</title>
<path fill="none" stroke="#191970" d="M2647.7227,-336.5156C2667.9862,-333.9863 2689.8031,-331.3282 2710,-329 2785.6976,-320.2739 2990.3471,-339.1248 3051,-293 3131.5041,-231.7789 3153.5069,-157.4405 3101,-71 3087.5132,-48.7971 3061.4881,-35.3886 3038.9737,-27.5478"/>
<polygon fill="#191970" stroke="#191970" points="3039.8526,-24.154 3029.2612,-24.4222 3037.7082,-30.8174 3039.8526,-24.154"/>
</g>
<!-- Node54&#45;&gt;Node20 -->
<g id="edge129" class="edge">
<title>Node54&#45;&gt;Node20</title>
<path fill="none" stroke="#191970" d="M2647.7367,-336.6347C2668,-334.1037 2689.8134,-331.4151 2710,-329 2779.9568,-320.6304 2973.3821,-340.9541 3025,-293 3078.6603,-243.1485 3073.5205,-145.5586 3068.2251,-102.8507"/>
<polygon fill="#191970" stroke="#191970" points="3071.6714,-102.2203 3066.8435,-92.7894 3064.7365,-103.1726 3071.6714,-102.2203"/>
</g>
<!-- Node54&#45;&gt;Node22 -->
<g id="edge132" class="edge">
<title>Node54&#45;&gt;Node22</title>
<path fill="none" stroke="#191970" d="M2647.7083,-336.388C2667.972,-333.8604 2689.7926,-331.2351 2710,-329 2792.9892,-319.8209 3007.9427,-327.4491 3084,-293 3216.3012,-233.076 3327.0476,-88.6417 3363.9191,-36.5967"/>
<polygon fill="#191970" stroke="#191970" points="3366.8868,-38.4602 3369.7503,-28.2596 3361.1507,-34.4481 3366.8868,-38.4602"/>
</g>
<!-- Node54&#45;&gt;Node49 -->
<g id="edge120" class="edge">
<title>Node54&#45;&gt;Node49</title>
<path fill="none" stroke="#191970" d="M2647.531,-337.9895C2704.1652,-329.9882 2774.062,-315.7744 2792,-293 2801.6251,-280.7798 2801.8265,-270.0588 2792,-258 2772.1493,-233.6399 2692.2873,-221.5322 2632.6447,-215.7802"/>
<polygon fill="#191970" stroke="#191970" points="2632.7915,-212.2789 2622.512,-214.8446 2632.1478,-219.2493 2632.7915,-212.2789"/>
</g>
<!-- Node55 -->
<g id="node42" class="node">
<title>Node55</title>
<g id="a_node42"><a xlink:href="AllowedGridGrowth_8h.html" target="_top" xlink:title="Declares &amp; defines a class describing how the mass&#45;[Fe/H] interpolation grid is allowed to grow...">
<polygon fill="#ffffff" stroke="#000000" points="2196.5,-200.5 2196.5,-221.5 2327.5,-221.5 2327.5,-200.5 2196.5,-200.5"/>
<text text-anchor="middle" x="2262" y="-207.9" font-family="Helvetica,sans-Serif" font-size="12.00" fill="#000000">AllowedGridGrowth.h</text>
</a>
</g>
</g>
<!-- Node54&#45;&gt;Node55 -->
<g id="edge106" class="edge">
<title>Node54&#45;&gt;Node55</title>
<path fill="none" stroke="#191970" d="M2492.4595,-342.0005C2416.3977,-335.9351 2307.6422,-322.3035 2278,-293 2261.9508,-277.1342 2259.5,-250.2642 2260.0464,-231.6268"/>
<polygon fill="#191970" stroke="#191970" points="2263.5484,-231.6966 2260.6566,-221.5041 2256.5611,-231.2753 2263.5484,-231.6966"/>
</g>
<!-- Node56 -->
<g id="node43" class="node">
<title>Node56</title>
<g id="a_node43"><a xlink:href="RemoveLogDeriv_8h.html" target="_top" xlink:title="Declares a class to switch from logarithmic to linear derivative. ">
<polygon fill="#ffffff" stroke="#ff0000" points="1987,-136 1987,-157 2107,-157 2107,-136 1987,-136"/>
<text text-anchor="middle" x="2047" y="-143.4" font-family="Helvetica,sans-Serif" font-size="12.00" fill="#000000">RemoveLogDeriv.h</text>
</a>
</g>
</g>
<!-- Node54&#45;&gt;Node56 -->
<g id="edge108" class="edge">
<title>Node54&#45;&gt;Node56</title>
<path fill="none" stroke="#191970" d="M2492.3418,-341.0668C2424.5545,-334.5156 2333.5816,-320.7229 2311,-293 2301.1759,-280.9392 2306.214,-272.801 2311,-258 2319.6915,-231.1209 2355.2597,-221.5548 2337,-200 2305.546,-162.8698 2168.7048,-173.6049 2121,-164 2113.9709,-162.5848 2106.5936,-160.9823 2099.3322,-159.3359"/>
<polygon fill="#191970" stroke="#191970" points="2100.0766,-155.9157 2089.5456,-157.0768 2098.5022,-162.7364 2100.0766,-155.9157"/>
</g>
<!-- Node58 -->
<g id="node44" class="node">
<title>Node58</title>
<g id="a_node44"><a xlink:href="SumDerivatives_8h.html" target="_top" xlink:title="Declares &amp; defines a class for the derivative of a quantity which is the sum of two other quantities...">
<polygon fill="#ffffff" stroke="#000000" points="2671.5,-265 2671.5,-286 2782.5,-286 2782.5,-265 2671.5,-265"/>
<text text-anchor="middle" x="2727" y="-272.4" font-family="Helvetica,sans-Serif" font-size="12.00" fill="#000000">SumDerivatives.h</text>
</a>
</g>
</g>
<!-- Node54&#45;&gt;Node58 -->
<g id="edge110" class="edge">
<title>Node54&#45;&gt;Node58</title>
<path fill="none" stroke="#191970" d="M2607.6054,-329.4937C2633.9899,-317.5619 2668.9256,-301.7629 2694.1836,-290.3405"/>
<polygon fill="#191970" stroke="#191970" points="2695.6827,-293.5039 2703.3521,-286.1943 2692.7983,-287.1258 2695.6827,-293.5039"/>
</g>
<!-- Node59 -->
<g id="node45" class="node">
<title>Node59</title>
<g id="a_node45"><a xlink:href="InterpolatedDerivatives_8h_source.html" target="_top" xlink:title="InterpolatedDerivatives.h">
<polygon fill="#ffffff" stroke="#ff0000" points="2319.5,-265 2319.5,-286 2468.5,-286 2468.5,-265 2319.5,-265"/>
<text text-anchor="middle" x="2394" y="-272.4" font-family="Helvetica,sans-Serif" font-size="12.00" fill="#000000">InterpolatedDerivatives.h</text>
</a>
</g>
</g>
<!-- Node54&#45;&gt;Node59 -->
<g id="edge113" class="edge">
<title>Node54&#45;&gt;Node59</title>
<path fill="none" stroke="#191970" d="M2527.8436,-329.4937C2497.9146,-317.4201 2458.1701,-301.3868 2429.7828,-289.9351"/>
<polygon fill="#191970" stroke="#191970" points="2430.8334,-286.5849 2420.2502,-286.0896 2428.2146,-293.0766 2430.8334,-286.5849"/>
</g>
<!-- Node60 -->
<g id="node46" class="node">
<title>Node60</title>
<g id="a_node46"><a xlink:href="mass__feh__interp_8h.html" target="_top" xlink:title="Define a single function performing mass&#45;[Fe/H] interpolations. ">
<polygon fill="#ffffff" stroke="#ff0000" points="1868.5,-200.5 1868.5,-221.5 1983.5,-221.5 1983.5,-200.5 1868.5,-200.5"/>
<text text-anchor="middle" x="1926" y="-207.9" font-family="Helvetica,sans-Serif" font-size="12.00" fill="#000000">mass_feh_interp.h</text>
</a>
</g>
</g>
<!-- Node54&#45;&gt;Node60 -->
<g id="edge119" class="edge">
<title>Node54&#45;&gt;Node60</title>
<path fill="none" stroke="#191970" d="M2492.382,-340.356C2411.7898,-332.974 2282.4302,-318.3045 2173,-293 2096.1461,-275.2284 2009.2424,-243.5601 1961.7386,-225.2141"/>
<polygon fill="#191970" stroke="#191970" points="1962.8062,-221.874 1952.2176,-221.5113 1960.269,-228.398 1962.8062,-221.874"/>
</g>
<!-- Node62 -->
<g id="node47" class="node">
<title>Node62</title>
<g id="a_node47"><a xlink:href="InterpSolutionIterator_8h_source.html" target="_top" xlink:title="../Core/InterpSolutionIterator.h">
<polygon fill="#ffffff" stroke="#ff0000" points="2002,-200.5 2002,-221.5 2178,-221.5 2178,-200.5 2002,-200.5"/>
<text text-anchor="middle" x="2090" y="-207.9" font-family="Helvetica,sans-Serif" font-size="12.00" fill="#000000">../Core/InterpSolutionIterator.h</text>
</a>
</g>
</g>
<!-- Node54&#45;&gt;Node62 -->
<g id="edge121" class="edge">
<title>Node54&#45;&gt;Node62</title>
<path fill="none" stroke="#191970" d="M2492.3043,-339.4873C2428.051,-332.2107 2335.0227,-318.2394 2257,-293 2204.695,-276.08 2148.1228,-245.4131 2116.0769,-226.7572"/>
<polygon fill="#191970" stroke="#191970" points="2117.7247,-223.6658 2107.3316,-221.6084 2114.1732,-229.698 2117.7247,-223.6658"/>
</g>
<!-- Node64 -->
<g id="node48" class="node">
<title>Node64</title>
<g id="a_node48"><a xlink:href="InterpolatingFunctionALGLIB_8h_source.html" target="_top" xlink:title="../Core/InterpolatingFunction\lALGLIB.h">
<polygon fill="#ffffff" stroke="#ff0000" points="2486.5,-258.5 2486.5,-292.5 2653.5,-292.5 2653.5,-258.5 2486.5,-258.5"/>
<text text-anchor="start" x="2494.5" y="-278.9" font-family="Helvetica,sans-Serif" font-size="12.00" fill="#000000">../Core/InterpolatingFunction</text>
<text text-anchor="middle" x="2570" y="-265.9" font-family="Helvetica,sans-Serif" font-size="12.00" fill="#000000">ALGLIB.h</text>
</a>
</g>
</g>
<!-- Node54&#45;&gt;Node64 -->
<g id="edge125" class="edge">
<title>Node54&#45;&gt;Node64</title>
<path fill="none" stroke="#191970" d="M2570,-329.3129C2570,-321.2895 2570,-311.5475 2570,-302.5691"/>
<polygon fill="#191970" stroke="#191970" points="2573.5001,-302.5288 2570,-292.5288 2566.5001,-302.5289 2573.5001,-302.5288"/>
</g>
<!-- Node30 -->
<g id="node49" class="node">
<title>Node30</title>
<polygon fill="#ffffff" stroke="#bfbfbf" points="2960,-265 2960,-286 3016,-286 3016,-265 2960,-265"/>
<text text-anchor="middle" x="2988" y="-272.4" font-family="Helvetica,sans-Serif" font-size="12.00" fill="#000000">fstream</text>
</g>
<!-- Node54&#45;&gt;Node30 -->
<g id="edge134" class="edge">
<title>Node54&#45;&gt;Node30</title>
<path fill="none" stroke="#191970" d="M2647.7135,-336.5117C2749.3689,-323.2809 2917.9054,-300.7169 2946,-293 2949.3777,-292.0722 2952.8455,-290.9408 2956.2707,-289.7041"/>
<polygon fill="#191970" stroke="#191970" points="2957.6593,-292.9193 2965.7013,-286.0217 2955.1131,-286.3988 2957.6593,-292.9193"/>
</g>
<!-- Node55&#45;&gt;Node1 -->
<g id="edge107" class="edge">
<title>Node55&#45;&gt;Node1</title>
<path fill="none" stroke="#191970" d="M2196.2581,-201.0904C2115.4585,-188.7678 1987.7679,-168.7687 1978,-164 1977.5716,-163.7909 1877.4335,-71.1983 1877,-71 1812.1433,-41.3369 1618.4216,-27.2595 1501.5358,-21.2995"/>
<polygon fill="#191970" stroke="#191970" points="1501.6788,-17.8024 1491.5166,-20.7989 1501.3294,-24.7937 1501.6788,-17.8024"/>
</g>
<!-- Node56&#45;&gt;Node1 -->
<g id="edge109" class="edge">
<title>Node56&#45;&gt;Node1</title>
<path fill="none" stroke="#191970" d="M2040.3388,-135.9483C2028.9151,-118.8923 2003.8133,-85.6951 1973,-71 1931.5881,-51.2504 1650.9267,-31.8691 1501.7733,-22.8108"/>
<polygon fill="#191970" stroke="#191970" points="1501.8975,-19.3121 1491.7047,-22.2029 1501.4756,-26.2993 1501.8975,-19.3121"/>
</g>
<!-- Node58&#45;&gt;Node1 -->
<g id="edge111" class="edge">
<title>Node58&#45;&gt;Node1</title>
<path fill="none" stroke="#191970" d="M2689.8608,-264.9844C2681.0771,-262.5975 2671.7268,-260.1378 2663,-258 2530.9897,-225.6617 2484.8006,-239.819 2372,-164 2321.6275,-130.142 2327.7713,-94.9441 2272,-71 2202.6575,-41.2295 1709.8015,-25.219 1501.5337,-19.7198"/>
<polygon fill="#191970" stroke="#191970" points="1501.6215,-16.221 1491.5333,-19.458 1501.4383,-23.2186 1501.6215,-16.221"/>
</g>
<!-- Node58&#45;&gt;Node49 -->
<g id="edge112" class="edge">
<title>Node58&#45;&gt;Node49</title>
<path fill="none" stroke="#191970" d="M2700.4485,-264.9934C2673.0976,-254.1705 2630.2925,-237.2323 2599.9267,-225.2164"/>
<polygon fill="#191970" stroke="#191970" points="2601.1265,-221.9271 2590.5402,-221.5021 2598.5508,-228.4361 2601.1265,-221.9271"/>
</g>
<!-- Node59&#45;&gt;Node1 -->
<g id="edge114" class="edge">
<title>Node59&#45;&gt;Node1</title>
<path fill="none" stroke="#191970" d="M2390.9374,-264.9378C2385.7285,-248.7602 2373.6509,-217.8491 2353,-200 2321.5644,-172.8293 2042.5392,-80.1116 2002,-71 1909.2965,-50.1639 1643.9317,-31.6638 1501.694,-22.8897"/>
<polygon fill="#191970" stroke="#191970" points="1501.8653,-19.3937 1491.6697,-22.2748 1501.4367,-26.3806 1501.8653,-19.3937"/>
</g>
<!-- Node59&#45;&gt;Node49 -->
<g id="edge118" class="edge">
<title>Node59&#45;&gt;Node49</title>
<path fill="none" stroke="#191970" d="M2421.6918,-264.9934C2450.3407,-254.1237 2495.2474,-237.0855 2526.941,-225.0606"/>
<polygon fill="#191970" stroke="#191970" points="2528.212,-228.3219 2536.3201,-221.5021 2525.7288,-221.7771 2528.212,-228.3219"/>
</g>
<!-- Node59&#45;&gt;Node60 -->
<g id="edge115" class="edge">
<title>Node59&#45;&gt;Node60</title>
<path fill="none" stroke="#191970" d="M2319.2604,-266.2113C2240.8551,-256.3119 2113.7681,-239.8291 1993.8238,-222.0896"/>
<polygon fill="#191970" stroke="#191970" points="1994.1318,-218.597 1983.7262,-220.5906 1993.1039,-225.5211 1994.1318,-218.597"/>
</g>
<!-- Node60&#45;&gt;Node1 -->
<g id="edge116" class="edge">
<title>Node60&#45;&gt;Node1</title>
<path fill="none" stroke="#191970" d="M1921.5636,-200.2823C1909.765,-173.2821 1874.7944,-102.3901 1821,-71 1768.4722,-40.349 1606.3711,-26.8645 1501.8479,-21.2305"/>
<polygon fill="#191970" stroke="#191970" points="1501.7734,-17.7219 1491.6038,-20.6935 1501.4068,-24.7123 1501.7734,-17.7219"/>
</g>
<!-- Node60&#45;&gt;Node7 -->
<g id="edge117" class="edge">
<title>Node60&#45;&gt;Node7</title>
<path fill="none" stroke="#191970" d="M1868.2799,-205.5823C1793.756,-198.1894 1660.1869,-183.588 1547,-164 1476.5564,-151.8091 1460.673,-139.7816 1390,-129 1194.0164,-99.1014 956.4715,-87.0961 865.7185,-83.3833"/>
<polygon fill="#191970" stroke="#191970" points="865.7725,-79.8828 855.6407,-82.9807 865.493,-86.8772 865.7725,-79.8828"/>
</g>
<!-- Node62&#45;&gt;Node1 -->
<g id="edge122" class="edge">
<title>Node62&#45;&gt;Node1</title>
<path fill="none" stroke="#191970" d="M2038.9641,-200.4504C2010.0389,-193.0413 1973.9585,-181.3153 1945,-164 1893.7401,-133.3499 1901.9641,-96.5907 1848,-71 1788.5468,-42.8063 1611.9152,-28.3832 1501.6646,-21.9295"/>
<polygon fill="#191970" stroke="#191970" points="1501.7229,-18.4271 1491.5387,-21.3481 1501.3217,-25.4156 1501.7229,-18.4271"/>
</g>
<!-- Node62&#45;&gt;Node8 -->
<g id="edge123" class="edge">
<title>Node62&#45;&gt;Node8</title>
<path fill="none" stroke="#191970" d="M2017.6756,-200.4934C1933.2272,-188.2256 1794.6915,-168.1005 1712.7251,-156.1932"/>
<polygon fill="#191970" stroke="#191970" points="1713.1715,-152.7214 1702.7721,-154.7473 1712.1651,-159.6486 1713.1715,-152.7214"/>
</g>
<!-- Node62&#45;&gt;Node10 -->
<g id="edge124" class="edge">
<title>Node62&#45;&gt;Node10</title>
<path fill="none" stroke="#191970" d="M2001.9822,-200.9185C1998.952,-200.6033 1995.9511,-200.2962 1993,-200 1901.5551,-190.8214 1658.6616,-213.1436 1581,-164 1558.8887,-150.0081 1545.7498,-121.8727 1538.9537,-102.4933"/>
<polygon fill="#191970" stroke="#191970" points="1542.2184,-101.2132 1535.8139,-92.7732 1535.5573,-103.3649 1542.2184,-101.2132"/>
</g>
<!-- Node64&#45;&gt;Node1 -->
<g id="edge126" class="edge">
<title>Node64&#45;&gt;Node1</title>
<path fill="none" stroke="#191970" d="M2526.7205,-258.3996C2457.6934,-230.899 2328.6196,-178.4619 2311,-164 2272.2162,-132.1668 2290.6446,-95.7524 2247,-71 2183.5183,-34.9973 1706.6221,-22.5839 1501.9022,-18.8845"/>
<polygon fill="#191970" stroke="#191970" points="1501.8306,-15.3828 1491.77,-18.7045 1501.7063,-22.3817 1501.8306,-15.3828"/>
</g>
<!-- Node64&#45;&gt;Node49 -->
<g id="edge127" class="edge">
<title>Node64&#45;&gt;Node49</title>
<path fill="none" stroke="#191970" d="M2568.3921,-258.2152C2567.6306,-250.029 2566.7153,-240.1899 2565.9179,-231.6172"/>
<polygon fill="#191970" stroke="#191970" points="2569.4025,-231.2882 2564.9912,-221.6554 2562.4326,-231.9366 2569.4025,-231.2882"/>
</g>
<!-- Node64&#45;&gt;Node62 -->
<g id="edge128" class="edge">
<title>Node64&#45;&gt;Node62</title>
<path fill="none" stroke="#191970" d="M2486.3046,-259.3317C2483.5053,-258.8701 2480.7311,-258.4247 2478,-258 2424.0096,-249.6048 2284.391,-233.1712 2188.2501,-222.1358"/>
<polygon fill="#191970" stroke="#191970" points="2188.5457,-218.6469 2178.2121,-220.9851 2187.7484,-225.6013 2188.5457,-218.6469"/>
</g>
</g>
</svg>
