<?xml version="1.0" encoding="UTF-8" standalone="no"?>
<!DOCTYPE svg PUBLIC "-//W3C//DTD SVG 1.1//EN"
 "http://www.w3.org/Graphics/SVG/1.1/DTD/svg11.dtd">
<!-- Generated by graphviz version 2.40.1 (20161225.0304)
 -->
<!-- Title: /home/kpenev/projects/git/poet/poet_src/Star/EvolvingStar.h Pages: 1 -->
<svg width="3691pt" height="585pt"
 viewBox="0.00 0.00 3691.00 585.00" xmlns="http://www.w3.org/2000/svg" xmlns:xlink="http://www.w3.org/1999/xlink">
<g id="graph0" class="graph" transform="scale(1 1) rotate(0) translate(4 581)">
<title>/home/kpenev/projects/git/poet/poet_src/Star/EvolvingStar.h</title>
<polygon fill="#ffffff" stroke="transparent" points="-4,4 -4,-581 3687,-581 3687,4 -4,4"/>
<!-- Node0 -->
<g id="node1" class="node">
<title>Node0</title>
<polygon fill="#bfbfbf" stroke="#000000" points="1203.5,-529.5 1203.5,-576.5 1340.5,-576.5 1340.5,-529.5 1203.5,-529.5"/>
<text text-anchor="start" x="1211.5" y="-562.9" font-family="Helvetica,sans-Serif" font-size="12.00" fill="#000000">/home/kpenev/projects</text>
<text text-anchor="start" x="1211.5" y="-549.9" font-family="Helvetica,sans-Serif" font-size="12.00" fill="#000000">/git/poet/poet_src/Star</text>
<text text-anchor="middle" x="1272" y="-536.9" font-family="Helvetica,sans-Serif" font-size="12.00" fill="#000000">/EvolvingStar.h</text>
</g>
<!-- Node1 -->
<g id="node2" class="node">
<title>Node1</title>
<g id="a_node2"><a xlink:href="SharedLibraryExportMacros_8h_source.html" target="_top" xlink:title="../Core/SharedLibraryExport\lMacros.h">
<polygon fill="#ffffff" stroke="#000000" points="1132.5,-.5 1132.5,-34.5 1297.5,-34.5 1297.5,-.5 1132.5,-.5"/>
<text text-anchor="start" x="1140.5" y="-20.9" font-family="Helvetica,sans-Serif" font-size="12.00" fill="#000000">../Core/SharedLibraryExport</text>
<text text-anchor="middle" x="1215" y="-7.9" font-family="Helvetica,sans-Serif" font-size="12.00" fill="#000000">Macros.h</text>
</a>
</g>
</g>
<!-- Node0&#45;&gt;Node1 -->
<g id="edge1" class="edge">
<title>Node0&#45;&gt;Node1</title>
<path fill="none" stroke="#191970" d="M1203.1607,-549.3132C938.3371,-534.6831 0,-478.5381 0,-417.5 0,-417.5 0,-417.5 0,-146.5 0,-101.0421 27.8429,-90.3006 69,-71 116.3523,-48.7941 857.6532,-27.0073 1122.1369,-19.9042"/>
<polygon fill="#191970" stroke="#191970" points="1122.5763,-23.3938 1132.4791,-19.6274 1122.389,-16.3963 1122.5763,-23.3938"/>
</g>
<!-- Node2 -->
<g id="node3" class="node">
<title>Node2</title>
<g id="a_node3"><a xlink:href="SaturatingSkumanichWindBody_8h.html" target="_top" xlink:title="Decrales a body subject to angular momentum loss . ">
<polygon fill="#ffffff" stroke="#000000" points="618.5,-471.5 618.5,-492.5 815.5,-492.5 815.5,-471.5 618.5,-471.5"/>
<text text-anchor="middle" x="717" y="-478.9" font-family="Helvetica,sans-Serif" font-size="12.00" fill="#000000">SaturatingSkumanichWindBody.h</text>
</a>
</g>
</g>
<!-- Node0&#45;&gt;Node2 -->
<g id="edge2" class="edge">
<title>Node0&#45;&gt;Node2</title>
<path fill="none" stroke="#191970" d="M1203.3895,-544.2228C1104.252,-531.5404 920.6888,-508.0575 809.6198,-493.8487"/>
<polygon fill="#191970" stroke="#191970" points="809.7976,-490.343 799.4343,-492.5456 808.9093,-497.2864 809.7976,-490.343"/>
</g>
<!-- Node47 -->
<g id="node27" class="node">
<title>Node47</title>
<g id="a_node27"><a xlink:href="ExponentialDecayDiffRotBody_8h.html" target="_top" xlink:title="Declares a DissipatingBody with exponentially decaying differential rotation coupling. ">
<polygon fill="#ffffff" stroke="#000000" points="814.5,-407 814.5,-428 1003.5,-428 1003.5,-407 814.5,-407"/>
<text text-anchor="middle" x="909" y="-414.4" font-family="Helvetica,sans-Serif" font-size="12.00" fill="#000000">ExponentialDecayDiffRotBody.h</text>
</a>
</g>
</g>
<!-- Node0&#45;&gt;Node47 -->
<g id="edge58" class="edge">
<title>Node0&#45;&gt;Node47</title>
<path fill="none" stroke="#191970" d="M1208.7702,-529.3977C1133.1873,-501.1842 1009.1371,-454.879 946.9862,-431.6794"/>
<polygon fill="#191970" stroke="#191970" points="948.1523,-428.3789 937.5597,-428.1607 945.7043,-434.9369 948.1523,-428.3789"/>
</g>
<!-- Node48 -->
<g id="node28" class="node">
<title>Node48</title>
<g id="a_node28"><a xlink:href="Interpolator_8h.html" target="_top" xlink:title="Defines the StellarEvolution class needed for interpolating among stellar evolution tracks...">
<polygon fill="#ffffff" stroke="#000000" points="2818,-400.5 2818,-434.5 2928,-434.5 2928,-400.5 2818,-400.5"/>
<text text-anchor="start" x="2826" y="-420.9" font-family="Helvetica,sans-Serif" font-size="12.00" fill="#000000">../StellarEvolution</text>
<text text-anchor="middle" x="2873" y="-407.9" font-family="Helvetica,sans-Serif" font-size="12.00" fill="#000000">/Interpolator.h</text>
</a>
</g>
</g>
<!-- Node0&#45;&gt;Node48 -->
<g id="edge62" class="edge">
<title>Node0&#45;&gt;Node48</title>
<path fill="none" stroke="#191970" d="M1340.5367,-547.1994C1603.9009,-524.9097 2549.0159,-444.9203 2807.3434,-423.0568"/>
<polygon fill="#191970" stroke="#191970" points="2808.017,-426.5124 2817.6862,-422.1815 2807.4266,-419.5373 2808.017,-426.5124"/>
</g>
<!-- Node72 -->
<g id="node48" class="node">
<title>Node72</title>
<g id="a_node48"><a xlink:href="EvolvingStellarCore_8h.html" target="_top" xlink:title="Declaration of the class representing stellar cores. ">
<polygon fill="#ffffff" stroke="#000000" points="1265,-471.5 1265,-492.5 1399,-492.5 1399,-471.5 1265,-471.5"/>
<text text-anchor="middle" x="1332" y="-478.9" font-family="Helvetica,sans-Serif" font-size="12.00" fill="#000000">EvolvingStellarCore.h</text>
</a>
</g>
</g>
<!-- Node0&#45;&gt;Node72 -->
<g id="edge126" class="edge">
<title>Node0&#45;&gt;Node72</title>
<path fill="none" stroke="#191970" d="M1291.9791,-529.358C1299.9359,-519.9425 1308.9553,-509.2696 1316.4148,-500.4425"/>
<polygon fill="#191970" stroke="#191970" points="1319.2219,-502.5433 1323.0032,-492.6462 1313.8753,-498.0251 1319.2219,-502.5433"/>
</g>
<!-- Node78 -->
<g id="node50" class="node">
<title>Node78</title>
<g id="a_node50"><a xlink:href="EvolvingStellarEnvelope_8h.html" target="_top" xlink:title="Declares a class representing convective zones in low mass evolving stars or the whole star for high ...">
<polygon fill="#ffffff" stroke="#000000" points="1417,-471.5 1417,-492.5 1575,-492.5 1575,-471.5 1417,-471.5"/>
<text text-anchor="middle" x="1496" y="-478.9" font-family="Helvetica,sans-Serif" font-size="12.00" fill="#000000">EvolvingStellarEnvelope.h</text>
</a>
</g>
</g>
<!-- Node0&#45;&gt;Node78 -->
<g id="edge134" class="edge">
<title>Node0&#45;&gt;Node78</title>
<path fill="none" stroke="#191970" d="M1340.7297,-531.2151C1377.2842,-519.6287 1421.1055,-505.7389 1452.8593,-495.674"/>
<polygon fill="#191970" stroke="#191970" points="1454.2454,-498.9064 1462.7205,-492.5484 1452.1303,-492.2336 1454.2454,-498.9064"/>
</g>
<!-- Node2&#45;&gt;Node1 -->
<g id="edge3" class="edge">
<title>Node2&#45;&gt;Node1</title>
<path fill="none" stroke="#191970" d="M618.2676,-472.4171C429.9485,-452.8001 38,-404.9503 38,-346.5 38,-346.5 38,-346.5 38,-146.5 38,-76.5875 108.7341,-90.0539 176,-71 265.5696,-45.6283 884.7189,-26.4241 1122.3875,-19.9086"/>
<polygon fill="#191970" stroke="#191970" points="1122.4892,-23.4072 1132.39,-19.6357 1122.2983,-16.4098 1122.4892,-23.4072"/>
</g>
<!-- Node3 -->
<g id="node4" class="node">
<title>Node3</title>
<g id="a_node4"><a xlink:href="DissipatingBody_8h.html" target="_top" xlink:title="Declares the DissipatingBody class. ">
<polygon fill="#ffffff" stroke="#000000" points="726.5,-336 726.5,-357 889.5,-357 889.5,-336 726.5,-336"/>
<text text-anchor="middle" x="808" y="-343.4" font-family="Helvetica,sans-Serif" font-size="12.00" fill="#000000">../Evolve/DissipatingBody.h</text>
</a>
</g>
</g>
<!-- Node2&#45;&gt;Node3 -->
<g id="edge4" class="edge">
<title>Node2&#45;&gt;Node3</title>
<path fill="none" stroke="#191970" d="M724.1406,-471.3675C739.4905,-448.5115 775.8084,-394.4337 795.2289,-365.5163"/>
<polygon fill="#191970" stroke="#191970" points="798.2228,-367.336 800.8926,-357.0831 792.4117,-363.4333 798.2228,-367.336"/>
</g>
<!-- Node42 -->
<g id="node21" class="node">
<title>Node42</title>
<g id="a_node21"><a xlink:href="BinarySystem_8h.html" target="_top" xlink:title="Defines the BinarySystem class. ">
<polygon fill="#ffffff" stroke="#000000" points="566.5,-407 566.5,-428 715.5,-428 715.5,-407 566.5,-407"/>
<text text-anchor="middle" x="641" y="-414.4" font-family="Helvetica,sans-Serif" font-size="12.00" fill="#000000">../Evolve/BinarySystem.h</text>
</a>
</g>
</g>
<!-- Node2&#45;&gt;Node42 -->
<g id="edge41" class="edge">
<title>Node2&#45;&gt;Node42</title>
<path fill="none" stroke="#191970" d="M704.4501,-471.3491C692.7888,-461.4524 675.2096,-446.5332 661.5097,-434.9063"/>
<polygon fill="#191970" stroke="#191970" points="663.4576,-431.9689 653.5685,-428.1667 658.9281,-437.3059 663.4576,-431.9689"/>
</g>
<!-- Node3&#45;&gt;Node1 -->
<g id="edge5" class="edge">
<title>Node3&#45;&gt;Node1</title>
<path fill="none" stroke="#191970" d="M786.8528,-335.9239C749.6881,-317.7086 669.8696,-280.2354 599,-258 524.8959,-234.7497 476.9354,-282.3103 428,-222 409.8649,-199.6495 434.0069,-167.1387 456,-129 472.4357,-100.4985 472.9331,-86.4139 502,-71 555.5134,-42.6224 941.9039,-26.4169 1122.4648,-20.3188"/>
<polygon fill="#191970" stroke="#191970" points="1122.6038,-23.8162 1132.4812,-19.9838 1122.3698,-16.8201 1122.6038,-23.8162"/>
</g>
<!-- Node4 -->
<g id="node5" class="node">
<title>Node4</title>
<g id="a_node5"><a xlink:href="DissipatingZone_8h.html" target="_top" xlink:title="Declares a class representing one zone of a body dissipative to tidal distortions. ">
<polygon fill="#ffffff" stroke="#ff0000" points="802,-265 802,-286 916,-286 916,-265 802,-265"/>
<text text-anchor="middle" x="859" y="-272.4" font-family="Helvetica,sans-Serif" font-size="12.00" fill="#000000">DissipatingZone.h</text>
</a>
</g>
</g>
<!-- Node3&#45;&gt;Node4 -->
<g id="edge6" class="edge">
<title>Node3&#45;&gt;Node4</title>
<path fill="none" stroke="#191970" d="M815.7458,-335.7166C823.5342,-324.874 835.7092,-307.9244 845.1606,-294.7667"/>
<polygon fill="#191970" stroke="#191970" points="848.1899,-296.5486 851.1813,-286.3849 842.5046,-292.4648 848.1899,-296.5486"/>
</g>
<!-- Node8 -->
<g id="node8" class="node">
<title>Node8</title>
<polygon fill="#ffffff" stroke="#bfbfbf" points="869.5,-71.5 869.5,-92.5 924.5,-92.5 924.5,-71.5 869.5,-71.5"/>
<text text-anchor="middle" x="897" y="-78.9" font-family="Helvetica,sans-Serif" font-size="12.00" fill="#000000">cassert</text>
</g>
<!-- Node3&#45;&gt;Node8 -->
<g id="edge40" class="edge">
<title>Node3&#45;&gt;Node8</title>
<path fill="none" stroke="#191970" d="M800.8533,-335.8225C779.2399,-302.0756 718.8612,-195.9932 766,-129 777.0417,-113.3076 824.8042,-98.9963 859.4744,-90.3923"/>
<polygon fill="#191970" stroke="#191970" points="860.4129,-93.7663 869.311,-88.0153 858.7686,-86.9621 860.4129,-93.7663"/>
</g>
<!-- Node9 -->
<g id="node9" class="node">
<title>Node9</title>
<g id="a_node9"><a xlink:href="Core_2Common_8h.html" target="_top" xlink:title="Declaration of some general purpose utilities. ">
<polygon fill="#ffffff" stroke="#ff0000" points="1123.5,-136 1123.5,-157 1236.5,-157 1236.5,-136 1123.5,-136"/>
<text text-anchor="middle" x="1180" y="-143.4" font-family="Helvetica,sans-Serif" font-size="12.00" fill="#000000">../Core/Common.h</text>
</a>
</g>
</g>
<!-- Node3&#45;&gt;Node9 -->
<g id="edge38" class="edge">
<title>Node3&#45;&gt;Node9</title>
<path fill="none" stroke="#191970" d="M832.9695,-335.8829C856.8776,-325.5301 893.8184,-309.0426 925,-293 1010.7979,-248.8578 1108.8843,-190.0529 1154.3611,-162.2886"/>
<polygon fill="#191970" stroke="#191970" points="1156.2879,-165.2129 1162.9899,-157.0072 1152.6335,-159.2425 1156.2879,-165.2129"/>
</g>
<!-- Node11 -->
<g id="node11" class="node">
<title>Node11</title>
<polygon fill="#ffffff" stroke="#bfbfbf" points="1793.5,-71.5 1793.5,-92.5 1852.5,-92.5 1852.5,-71.5 1793.5,-71.5"/>
<text text-anchor="middle" x="1823" y="-78.9" font-family="Helvetica,sans-Serif" font-size="12.00" fill="#000000">valarray</text>
</g>
<!-- Node3&#45;&gt;Node11 -->
<g id="edge39" class="edge">
<title>Node3&#45;&gt;Node11</title>
<path fill="none" stroke="#191970" d="M889.6535,-343.7501C1097.5951,-336.4333 1632.9573,-315.5047 1664,-293 1700.0157,-266.89 1676.2374,-236.9551 1701,-200 1728.9741,-158.2522 1773.8201,-119.7593 1800.6435,-98.7123"/>
<polygon fill="#191970" stroke="#191970" points="1802.8996,-101.3923 1808.6749,-92.5099 1798.621,-95.852 1802.8996,-101.3923"/>
</g>
<!-- Node24 -->
<g id="node17" class="node">
<title>Node24</title>
<g id="a_node17"><a xlink:href="AstronomicalConstants_8h.html" target="_top" xlink:title="Defines various astronomical constants. ">
<polygon fill="#ffffff" stroke="#000000" points="231,-71.5 231,-92.5 381,-92.5 381,-71.5 231,-71.5"/>
<text text-anchor="middle" x="306" y="-78.9" font-family="Helvetica,sans-Serif" font-size="12.00" fill="#000000">AstronomicalConstants.h</text>
</a>
</g>
</g>
<!-- Node3&#45;&gt;Node24 -->
<g id="edge37" class="edge">
<title>Node3&#45;&gt;Node24</title>
<path fill="none" stroke="#191970" d="M776.3418,-335.9492C724.7479,-318.8693 619.2223,-284.4145 529,-258 469.8169,-240.6729 444.7017,-258.5049 395,-222 352.6405,-190.8878 325.448,-132.9933 313.3235,-102.3079"/>
<polygon fill="#191970" stroke="#191970" points="316.4877,-100.7815 309.6631,-92.6773 309.9443,-103.2685 316.4877,-100.7815"/>
</g>
<!-- Node41 -->
<g id="node20" class="node">
<title>Node41</title>
<g id="a_node20"><a xlink:href="OrbitalExpressions_8h.html" target="_top" xlink:title="A collection of functions which calculate various quantities for two body orbits. ...">
<polygon fill="#ffffff" stroke="#ff0000" points="171,-200.5 171,-221.5 337,-221.5 337,-200.5 171,-200.5"/>
<text text-anchor="middle" x="254" y="-207.9" font-family="Helvetica,sans-Serif" font-size="12.00" fill="#000000">../Core/OrbitalExpressions.h</text>
</a>
</g>
</g>
<!-- Node3&#45;&gt;Node41 -->
<g id="edge34" class="edge">
<title>Node3&#45;&gt;Node41</title>
<path fill="none" stroke="#191970" d="M764.9895,-335.9803C664.7744,-311.4692 415.9778,-250.6173 306.792,-223.9121"/>
<polygon fill="#191970" stroke="#191970" points="307.5283,-220.4891 296.9831,-221.513 305.8652,-227.2887 307.5283,-220.4891"/>
</g>
<!-- Node4&#45;&gt;Node1 -->
<g id="edge27" class="edge">
<title>Node4&#45;&gt;Node1</title>
<path fill="none" stroke="#191970" d="M845.5247,-264.9369C823.828,-246.9672 781.9707,-208.0816 766,-164 751.7836,-124.7607 748.0731,-99.0242 779,-71 803.9162,-48.4223 1001.4243,-31.5618 1121.9002,-23.2564"/>
<polygon fill="#191970" stroke="#191970" points="1122.493,-26.7242 1132.2318,-22.5521 1122.0168,-19.7404 1122.493,-26.7242"/>
</g>
<!-- Node5 -->
<g id="node6" class="node">
<title>Node5</title>
<g id="a_node6"><a xlink:href="ZoneOrientation_8h.html" target="_top" xlink:title="Declares a class for orientations of zones of DissipatingBody objects. ">
<polygon fill="#ffffff" stroke="#000000" points="839.5,-200.5 839.5,-221.5 952.5,-221.5 952.5,-200.5 839.5,-200.5"/>
<text text-anchor="middle" x="896" y="-207.9" font-family="Helvetica,sans-Serif" font-size="12.00" fill="#000000">ZoneOrientation.h</text>
</a>
</g>
</g>
<!-- Node4&#45;&gt;Node5 -->
<g id="edge7" class="edge">
<title>Node4&#45;&gt;Node5</title>
<path fill="none" stroke="#191970" d="M865.1098,-264.8491C870.4336,-255.5685 878.2909,-241.8712 884.7486,-230.614"/>
<polygon fill="#191970" stroke="#191970" points="887.8175,-232.298 889.7575,-221.8823 881.7456,-228.8149 887.8175,-232.298"/>
</g>
<!-- Node6 -->
<g id="node7" class="node">
<title>Node6</title>
<g id="a_node7"><a xlink:href="DissipationQuantities_8h.html" target="_top" xlink:title="Declaration of enumerations of dissipation quantities and derivatives. ">
<polygon fill="#ffffff" stroke="#ff0000" points="775,-136 775,-157 915,-157 915,-136 775,-136"/>
<text text-anchor="middle" x="845" y="-143.4" font-family="Helvetica,sans-Serif" font-size="12.00" fill="#000000">DissipationQuantities.h</text>
</a>
</g>
</g>
<!-- Node4&#45;&gt;Node6 -->
<g id="edge29" class="edge">
<title>Node4&#45;&gt;Node6</title>
<path fill="none" stroke="#191970" d="M851.3079,-264.6571C844.4479,-254.2737 834.9046,-237.8811 831,-222 826.4485,-203.4879 831.3503,-182.0992 836.5644,-166.8239"/>
<polygon fill="#191970" stroke="#191970" points="839.8881,-167.9284 840.1118,-157.3359 833.3313,-165.477 839.8881,-167.9284"/>
</g>
<!-- Node4&#45;&gt;Node9 -->
<g id="edge32" class="edge">
<title>Node4&#45;&gt;Node9</title>
<path fill="none" stroke="#191970" d="M885.2688,-264.9434C942.6654,-241.8774 1079.3207,-186.9599 1144.3847,-160.8127"/>
<polygon fill="#191970" stroke="#191970" points="1145.8448,-163.998 1153.8184,-157.0216 1143.2345,-157.5029 1145.8448,-163.998"/>
</g>
<!-- Node4&#45;&gt;Node11 -->
<g id="edge33" class="edge">
<title>Node4&#45;&gt;Node11</title>
<path fill="none" stroke="#191970" d="M908.4973,-264.9543C1024.133,-240.3932 1321.0941,-177.7581 1570,-129 1645.3121,-114.2471 1733.4702,-98.1306 1783.3238,-89.1232"/>
<polygon fill="#191970" stroke="#191970" points="1784.1425,-92.5321 1793.3622,-87.3121 1782.8996,-85.6433 1784.1425,-92.5321"/>
</g>
<!-- Node21 -->
<g id="node15" class="node">
<title>Node21</title>
<g id="a_node15"><a xlink:href="Error_8h.html" target="_top" xlink:title="Defines the exception hierarchy used by this code. ">
<polygon fill="#ffffff" stroke="#ff0000" points="2658.5,-71.5 2658.5,-92.5 2711.5,-92.5 2711.5,-71.5 2658.5,-71.5"/>
<text text-anchor="middle" x="2685" y="-78.9" font-family="Helvetica,sans-Serif" font-size="12.00" fill="#000000">Error.h</text>
</a>
</g>
</g>
<!-- Node4&#45;&gt;Node21 -->
<g id="edge28" class="edge">
<title>Node4&#45;&gt;Node21</title>
<path fill="none" stroke="#191970" d="M916.0896,-273.5671C1119.1147,-266.5532 1799.1533,-241.8152 1895,-222 2011.095,-197.9987 2029.3456,-155.0421 2145,-129 2241.4129,-107.2905 2543.1204,-89.5664 2648.3522,-83.9018"/>
<polygon fill="#191970" stroke="#191970" points="2648.6835,-87.3891 2658.4827,-83.3611 2648.3104,-80.3991 2648.6835,-87.3891"/>
</g>
<!-- Node36 -->
<g id="node19" class="node">
<title>Node36</title>
<g id="a_node19"><a xlink:href="CombinedStoppingCondition_8h.html" target="_top" xlink:title="Declares a class for a stopping condition that combines other stopping conditions. ">
<polygon fill="#ffffff" stroke="#ff0000" points="437,-200.5 437,-221.5 619,-221.5 619,-200.5 437,-200.5"/>
<text text-anchor="middle" x="528" y="-207.9" font-family="Helvetica,sans-Serif" font-size="12.00" fill="#000000">CombinedStoppingCondition.h</text>
</a>
</g>
</g>
<!-- Node4&#45;&gt;Node36 -->
<g id="edge30" class="edge">
<title>Node4&#45;&gt;Node36</title>
<path fill="none" stroke="#191970" d="M805.0825,-264.9934C746.7768,-253.6317 653.886,-235.5307 591.9409,-223.4598"/>
<polygon fill="#191970" stroke="#191970" points="592.3793,-219.9795 581.8945,-221.5021 591.0404,-226.8502 592.3793,-219.9795"/>
</g>
<!-- Node5&#45;&gt;Node1 -->
<g id="edge8" class="edge">
<title>Node5&#45;&gt;Node1</title>
<path fill="none" stroke="#191970" d="M905.3664,-200.3126C918.6566,-183.7913 939.7188,-151.6002 924,-129 897.7434,-91.2487 853.2566,-130.7513 827,-93 821.417,-84.9729 820.5756,-78.371 827,-71 846.1443,-49.0348 1013.5812,-32.4999 1122.1568,-23.9701"/>
<polygon fill="#191970" stroke="#191970" points="1122.448,-27.4581 1132.1471,-23.1947 1121.9063,-20.4791 1122.448,-27.4581"/>
</g>
<!-- Node5&#45;&gt;Node6 -->
<g id="edge9" class="edge">
<title>Node5&#45;&gt;Node6</title>
<path fill="none" stroke="#191970" d="M887.5784,-200.3491C880.0934,-190.8829 868.9752,-176.8216 859.977,-165.4415"/>
<polygon fill="#191970" stroke="#191970" points="862.5524,-163.0556 853.6046,-157.3823 857.0615,-167.3973 862.5524,-163.0556"/>
</g>
<!-- Node5&#45;&gt;Node9 -->
<g id="edge12" class="edge">
<title>Node5&#45;&gt;Node9</title>
<path fill="none" stroke="#191970" d="M942.2616,-200.4934C991.8756,-189.2254 1070.6764,-171.3288 1123.8179,-159.2597"/>
<polygon fill="#191970" stroke="#191970" points="1124.7817,-162.63 1133.7582,-157.0021 1123.2314,-155.8038 1124.7817,-162.63"/>
</g>
<!-- Node25 -->
<g id="node18" class="node">
<title>Node25</title>
<g id="a_node18"><a xlink:href="IncludeEigen_8h_source.html" target="_top" xlink:title="IncludeEigen.h">
<polygon fill="#ffffff" stroke="#ff0000" points="981.5,-71.5 981.5,-92.5 1078.5,-92.5 1078.5,-71.5 981.5,-71.5"/>
<text text-anchor="middle" x="1030" y="-78.9" font-family="Helvetica,sans-Serif" font-size="12.00" fill="#000000">IncludeEigen.h</text>
</a>
</g>
</g>
<!-- Node5&#45;&gt;Node25 -->
<g id="edge26" class="edge">
<title>Node5&#45;&gt;Node25</title>
<path fill="none" stroke="#191970" d="M911.4223,-200.3472C924.1509,-191.2716 942.4239,-177.5775 957,-164 978.6154,-143.8655 1000.8144,-118.0557 1014.9679,-100.8219"/>
<polygon fill="#191970" stroke="#191970" points="1018.0033,-102.6362 1021.5902,-92.667 1012.5693,-98.2235 1018.0033,-102.6362"/>
</g>
<!-- Node6&#45;&gt;Node1 -->
<g id="edge10" class="edge">
<title>Node6&#45;&gt;Node1</title>
<path fill="none" stroke="#191970" d="M827.2194,-135.8107C804.3625,-120.7752 769.7816,-92.783 789,-71 810.6827,-46.4239 1003.6364,-30.3648 1122.2983,-22.7197"/>
<polygon fill="#191970" stroke="#191970" points="1122.7205,-26.2 1132.4784,-22.0727 1122.2765,-19.2141 1122.7205,-26.2"/>
</g>
<!-- Node6&#45;&gt;Node8 -->
<g id="edge11" class="edge">
<title>Node6&#45;&gt;Node8</title>
<path fill="none" stroke="#191970" d="M853.5867,-135.8491C861.2185,-126.3829 872.5547,-112.3216 881.7293,-100.9415"/>
<polygon fill="#191970" stroke="#191970" points="884.6751,-102.8641 888.2267,-92.8823 879.2255,-98.4706 884.6751,-102.8641"/>
</g>
<!-- Node9&#45;&gt;Node1 -->
<g id="edge19" class="edge">
<title>Node9&#45;&gt;Node1</title>
<path fill="none" stroke="#191970" d="M1164.4369,-135.8079C1145.5734,-121.4523 1117.8455,-94.9741 1131,-71 1138.1632,-57.9451 1150.0139,-47.6189 1162.5874,-39.6631"/>
<polygon fill="#191970" stroke="#191970" points="1164.4963,-42.6013 1171.3589,-34.5295 1160.9605,-36.5599 1164.4963,-42.6013"/>
</g>
<!-- Node9&#45;&gt;Node8 -->
<g id="edge18" class="edge">
<title>Node9&#45;&gt;Node8</title>
<path fill="none" stroke="#191970" d="M1137.9908,-135.9725C1128.4686,-133.6345 1118.3945,-131.1988 1109,-129 1048.1295,-114.753 977.1639,-99.2423 934.7226,-90.0831"/>
<polygon fill="#191970" stroke="#191970" points="935.3408,-86.636 924.8279,-87.9513 933.8664,-93.479 935.3408,-86.636"/>
</g>
<!-- Node10 -->
<g id="node10" class="node">
<title>Node10</title>
<polygon fill="#ffffff" stroke="#bfbfbf" points="2129,-71.5 2129,-92.5 2161,-92.5 2161,-71.5 2129,-71.5"/>
<text text-anchor="middle" x="2145" y="-78.9" font-family="Helvetica,sans-Serif" font-size="12.00" fill="#000000">list</text>
</g>
<!-- Node9&#45;&gt;Node10 -->
<g id="edge13" class="edge">
<title>Node9&#45;&gt;Node10</title>
<path fill="none" stroke="#191970" d="M1236.7624,-142.706C1419.6996,-130.4786 1989.4233,-92.3987 2118.7203,-83.7565"/>
<polygon fill="#191970" stroke="#191970" points="2119.1385,-87.2365 2128.8828,-83.0773 2118.6716,-80.2521 2119.1385,-87.2365"/>
</g>
<!-- Node9&#45;&gt;Node11 -->
<g id="edge14" class="edge">
<title>Node9&#45;&gt;Node11</title>
<path fill="none" stroke="#191970" d="M1236.7799,-140.8043C1364.7738,-127.9652 1673.2013,-97.0265 1783.1981,-85.9926"/>
<polygon fill="#191970" stroke="#191970" points="1783.6101,-89.4689 1793.2108,-84.9882 1782.9114,-82.5039 1783.6101,-89.4689"/>
</g>
<!-- Node12 -->
<g id="node12" class="node">
<title>Node12</title>
<polygon fill="#ffffff" stroke="#bfbfbf" points="1173,-71.5 1173,-92.5 1217,-92.5 1217,-71.5 1173,-71.5"/>
<text text-anchor="middle" x="1195" y="-78.9" font-family="Helvetica,sans-Serif" font-size="12.00" fill="#000000">limits</text>
</g>
<!-- Node9&#45;&gt;Node12 -->
<g id="edge15" class="edge">
<title>Node9&#45;&gt;Node12</title>
<path fill="none" stroke="#191970" d="M1182.4769,-135.8491C1184.5705,-126.8469 1187.6304,-113.6891 1190.2015,-102.6335"/>
<polygon fill="#191970" stroke="#191970" points="1193.6131,-103.4152 1192.4692,-92.8823 1186.795,-101.8295 1193.6131,-103.4152"/>
</g>
<!-- Node13 -->
<g id="node13" class="node">
<title>Node13</title>
<polygon fill="#ffffff" stroke="#bfbfbf" points="1235.5,-71.5 1235.5,-92.5 1294.5,-92.5 1294.5,-71.5 1235.5,-71.5"/>
<text text-anchor="middle" x="1265" y="-78.9" font-family="Helvetica,sans-Serif" font-size="12.00" fill="#000000">sstream</text>
</g>
<!-- Node9&#45;&gt;Node13 -->
<g id="edge16" class="edge">
<title>Node9&#45;&gt;Node13</title>
<path fill="none" stroke="#191970" d="M1194.036,-135.8491C1207.3244,-125.7656 1227.4835,-110.4684 1242.9241,-98.7517"/>
<polygon fill="#191970" stroke="#191970" points="1245.0927,-101.4998 1250.9431,-92.6667 1240.8612,-95.9235 1245.0927,-101.4998"/>
</g>
<!-- Node14 -->
<g id="node14" class="node">
<title>Node14</title>
<polygon fill="#ffffff" stroke="#bfbfbf" points="2692,-7 2692,-28 2754,-28 2754,-7 2692,-7"/>
<text text-anchor="middle" x="2723" y="-14.4" font-family="Helvetica,sans-Serif" font-size="12.00" fill="#000000">iostream</text>
</g>
<!-- Node9&#45;&gt;Node14 -->
<g id="edge17" class="edge">
<title>Node9&#45;&gt;Node14</title>
<path fill="none" stroke="#191970" d="M1172.6826,-135.885C1162.459,-119.6369 1146.9619,-88.6329 1164,-71 1191.1479,-42.9044 2436.7236,-21.9802 2681.5026,-18.1356"/>
<polygon fill="#191970" stroke="#191970" points="2681.8045,-21.6314 2691.7486,-17.9755 2681.6951,-14.6322 2681.8045,-21.6314"/>
</g>
<!-- Node9&#45;&gt;Node21 -->
<g id="edge20" class="edge">
<title>Node9&#45;&gt;Node21</title>
<path fill="none" stroke="#191970" d="M1236.5104,-143.9161C1312.3702,-140.4585 1451.334,-134.1634 1570,-129 1993.5201,-110.5718 2507.5819,-89.3113 2648.0388,-83.5215"/>
<polygon fill="#191970" stroke="#191970" points="2648.4001,-87.0097 2658.2475,-83.1008 2648.1119,-80.0156 2648.4001,-87.0097"/>
</g>
<!-- Node9&#45;&gt;Node24 -->
<g id="edge24" class="edge">
<title>Node9&#45;&gt;Node24</title>
<path fill="none" stroke="#191970" d="M1123.3278,-142.3177C973.9739,-131.2956 568.9142,-101.4027 391.3498,-88.2987"/>
<polygon fill="#191970" stroke="#191970" points="391.5,-84.8004 381.2695,-87.5548 390.9847,-91.7814 391.5,-84.8004"/>
</g>
<!-- Node9&#45;&gt;Node25 -->
<g id="edge25" class="edge">
<title>Node9&#45;&gt;Node25</title>
<path fill="none" stroke="#191970" d="M1155.5661,-135.9934C1130.6145,-125.2642 1091.6864,-108.5251 1063.7898,-96.5296"/>
<polygon fill="#191970" stroke="#191970" points="1064.9928,-93.2371 1054.4235,-92.5021 1062.2276,-99.6678 1064.9928,-93.2371"/>
</g>
<!-- Node21&#45;&gt;Node1 -->
<g id="edge21" class="edge">
<title>Node21&#45;&gt;Node1</title>
<path fill="none" stroke="#191970" d="M2658.2305,-80.8254C2492.1931,-73.5401 1600.5451,-34.4168 1308.0214,-21.5816"/>
<polygon fill="#191970" stroke="#191970" points="1308.0142,-18.078 1297.8704,-21.1361 1307.7073,-25.0712 1308.0142,-18.078"/>
</g>
<!-- Node21&#45;&gt;Node14 -->
<g id="edge22" class="edge">
<title>Node21&#45;&gt;Node14</title>
<path fill="none" stroke="#191970" d="M2691.2749,-71.3491C2696.7426,-62.0685 2704.8123,-48.3712 2711.4445,-37.114"/>
<polygon fill="#191970" stroke="#191970" points="2714.5282,-38.7748 2716.5887,-28.3823 2708.4971,-35.2216 2714.5282,-38.7748"/>
</g>
<!-- Node23 -->
<g id="node16" class="node">
<title>Node23</title>
<polygon fill="#ffffff" stroke="#bfbfbf" points="3004,-7 3004,-28 3050,-28 3050,-7 3004,-7"/>
<text text-anchor="middle" x="3027" y="-14.4" font-family="Helvetica,sans-Serif" font-size="12.00" fill="#000000">string</text>
</g>
<!-- Node21&#45;&gt;Node23 -->
<g id="edge23" class="edge">
<title>Node21&#45;&gt;Node23</title>
<path fill="none" stroke="#191970" d="M2711.5516,-76.9925C2773.2262,-65.3609 2926.0588,-36.5372 2993.7831,-23.7646"/>
<polygon fill="#191970" stroke="#191970" points="2994.7166,-27.1503 3003.8947,-21.8576 2993.4193,-20.2716 2994.7166,-27.1503"/>
</g>
<!-- Node36&#45;&gt;Node1 -->
<g id="edge31" class="edge">
<title>Node36&#45;&gt;Node1</title>
<path fill="none" stroke="#191970" d="M504.9777,-200.3707C490.9108,-192.5077 474.1128,-180.3304 466,-164 459.0791,-150.0689 456.8937,-141.6115 466,-129 513.9671,-62.5694 560.8023,-87.7991 641,-71 808.3562,-35.9436 1007.9801,-23.8504 1122.2684,-19.684"/>
<polygon fill="#191970" stroke="#191970" points="1122.5094,-23.1778 1132.38,-19.328 1122.2631,-16.1822 1122.5094,-23.1778"/>
</g>
<!-- Node41&#45;&gt;Node1 -->
<g id="edge35" class="edge">
<title>Node41&#45;&gt;Node1</title>
<path fill="none" stroke="#191970" d="M245.9768,-200.2067C227.707,-174.244 187.1874,-107.7387 222,-71 252.6755,-38.6273 880.9205,-23.6568 1121.966,-19.0885"/>
<polygon fill="#191970" stroke="#191970" points="1122.1777,-22.5853 1132.1102,-18.8981 1122.0462,-15.5865 1122.1777,-22.5853"/>
</g>
<!-- Node41&#45;&gt;Node24 -->
<g id="edge36" class="edge">
<title>Node41&#45;&gt;Node24</title>
<path fill="none" stroke="#191970" d="M258.2554,-200.4434C266.9017,-178.9938 286.6511,-130.0002 297.8523,-102.2125"/>
<polygon fill="#191970" stroke="#191970" points="301.1933,-103.2859 301.6858,-92.7025 294.7009,-100.6687 301.1933,-103.2859"/>
</g>
<!-- Node42&#45;&gt;Node1 -->
<g id="edge42" class="edge">
<title>Node42&#45;&gt;Node1</title>
<path fill="none" stroke="#191970" d="M632.251,-406.7514C613.9383,-384.3578 572.5549,-334.3332 564,-329 407.1039,-231.1893 274.6741,-368.5874 162,-222 128.6085,-178.5582 62.854,-179.2426 207,-71 243.2429,-43.7843 879.3395,-25.6141 1121.9935,-19.6455"/>
<polygon fill="#191970" stroke="#191970" points="1122.2917,-23.1394 1132.2031,-19.3959 1122.1205,-16.1415 1122.2917,-23.1394"/>
</g>
<!-- Node42&#45;&gt;Node3 -->
<g id="edge43" class="edge">
<title>Node42&#45;&gt;Node3</title>
<path fill="none" stroke="#191970" d="M666.0016,-406.8706C694.6154,-394.7054 741.6474,-374.7098 773.6785,-361.0918"/>
<polygon fill="#191970" stroke="#191970" points="775.2672,-364.2196 783.1006,-357.086 772.5284,-357.7776 775.2672,-364.2196"/>
</g>
<!-- Node42&#45;&gt;Node9 -->
<g id="edge48" class="edge">
<title>Node42&#45;&gt;Node9</title>
<path fill="none" stroke="#191970" d="M715.7432,-410.9191C768.7862,-404.1511 840.6372,-390.6434 899,-364 1012.3523,-312.2532 1121.7617,-206.766 1162.887,-164.5531"/>
<polygon fill="#191970" stroke="#191970" points="1165.546,-166.8379 1169.9704,-157.2111 1160.5083,-161.9777 1165.546,-166.8379"/>
</g>
<!-- Node42&#45;&gt;Node12 -->
<g id="edge55" class="edge">
<title>Node42&#45;&gt;Node12</title>
<path fill="none" stroke="#191970" d="M645.8308,-406.8638C650.713,-396.0833 658.4507,-378.9132 665,-364 710.711,-259.9127 674.6127,-196.6167 766,-129 770.0044,-126.0372 1063.6373,-95.5388 1162.7433,-85.3178"/>
<polygon fill="#191970" stroke="#191970" points="1163.1901,-88.7904 1172.7785,-84.2836 1162.4724,-81.8273 1163.1901,-88.7904"/>
</g>
<!-- Node42&#45;&gt;Node14 -->
<g id="edge56" class="edge">
<title>Node42&#45;&gt;Node14</title>
<path fill="none" stroke="#191970" d="M715.6283,-408.1755C743.8912,-405.0151 776.3855,-401.8257 806,-400 863.1225,-396.4785 2825.8867,-404.8204 2866,-364 2881.5865,-348.1387 2929.7342,-286.1249 2851,-129 2829.2235,-85.5419 2782.3741,-51.7985 2751.7996,-33.2914"/>
<polygon fill="#191970" stroke="#191970" points="2753.273,-30.0974 2742.8793,-28.0431 2749.7233,-36.1307 2753.273,-30.0974"/>
</g>
<!-- Node42&#45;&gt;Node21 -->
<g id="edge50" class="edge">
<title>Node42&#45;&gt;Node21</title>
<path fill="none" stroke="#191970" d="M715.645,-408.4293C743.9098,-405.2983 776.4011,-402.0625 806,-400 1176.9725,-374.1495 2135.1336,-441.6572 2476,-293 2571.1063,-251.5226 2645.8348,-144.8749 2673.4553,-101.1432"/>
<polygon fill="#191970" stroke="#191970" points="2676.4677,-102.9265 2678.7638,-92.5835 2670.5189,-99.2372 2676.4677,-102.9265"/>
</g>
<!-- Node42&#45;&gt;Node23 -->
<g id="edge54" class="edge">
<title>Node42&#45;&gt;Node23</title>
<path fill="none" stroke="#191970" d="M715.6281,-408.1723C743.8909,-405.0116 776.3853,-401.8227 806,-400 863.7882,-396.4433 2842.4047,-396.9668 2890,-364 3002.3877,-286.1549 3022.5821,-100.6807 3026.2076,-38.3444"/>
<polygon fill="#191970" stroke="#191970" points="3029.7114,-38.3525 3026.7103,-28.1916 3022.72,-38.0063 3029.7114,-38.3525"/>
</g>
<!-- Node42&#45;&gt;Node24 -->
<g id="edge47" class="edge">
<title>Node42&#45;&gt;Node24</title>
<path fill="none" stroke="#191970" d="M566.396,-415.2944C429.0551,-410.46 147.475,-396.644 118,-364 35.7303,-272.8852 212.4213,-142.9839 280.6234,-98.0324"/>
<polygon fill="#191970" stroke="#191970" points="282.6481,-100.8907 289.1205,-92.5027 278.8299,-95.0237 282.6481,-100.8907"/>
</g>
<!-- Node42&#45;&gt;Node36 -->
<g id="edge44" class="edge">
<title>Node42&#45;&gt;Node36</title>
<path fill="none" stroke="#191970" d="M636.1193,-406.7298C628.424,-389.9216 612.8181,-356.5252 598,-329 578.8473,-293.423 554.3423,-253.185 539.9872,-230.0831"/>
<polygon fill="#191970" stroke="#191970" points="542.9361,-228.1975 534.6723,-221.5672 536.9977,-231.9037 542.9361,-228.1975"/>
</g>
<!-- Node42&#45;&gt;Node41 -->
<g id="edge49" class="edge">
<title>Node42&#45;&gt;Node41</title>
<path fill="none" stroke="#191970" d="M566.4409,-415.0523C432.2833,-409.8749 161.4428,-395.5956 133,-364 89.8962,-316.1183 177.6751,-254.9093 225.6162,-226.6223"/>
<polygon fill="#191970" stroke="#191970" points="227.4386,-229.6115 234.3434,-221.5757 223.9344,-223.5518 227.4386,-229.6115"/>
</g>
<!-- Node43 -->
<g id="node22" class="node">
<title>Node43</title>
<g id="a_node22"><a xlink:href="SecondaryDeathCondition_8h.html" target="_top" xlink:title="Declares a stopping condition class monitoring for the death of the secondary object. ">
<polygon fill="#ffffff" stroke="#ff0000" points="475,-136 475,-157 643,-157 643,-136 475,-136"/>
<text text-anchor="middle" x="559" y="-143.4" font-family="Helvetica,sans-Serif" font-size="12.00" fill="#000000">SecondaryDeathCondition.h</text>
</a>
</g>
</g>
<!-- Node42&#45;&gt;Node43 -->
<g id="edge45" class="edge">
<title>Node42&#45;&gt;Node43</title>
<path fill="none" stroke="#191970" d="M643.2963,-406.719C649.7789,-373.5412 665.4216,-270.9285 628,-200 619.5651,-184.0125 604.0163,-171.3107 589.8114,-162.3027"/>
<polygon fill="#191970" stroke="#191970" points="591.5972,-159.2926 581.2162,-157.1748 588.0108,-165.304 591.5972,-159.2926"/>
</g>
<!-- Node44 -->
<g id="node23" class="node">
<title>Node44</title>
<polygon fill="#ffffff" stroke="#bfbfbf" points="142.5,-336 142.5,-357 237.5,-357 237.5,-336 142.5,-336"/>
<text text-anchor="middle" x="190" y="-343.4" font-family="Helvetica,sans-Serif" font-size="12.00" fill="#000000">gsl/gsl_errno.h</text>
</g>
<!-- Node42&#45;&gt;Node44 -->
<g id="edge51" class="edge">
<title>Node42&#45;&gt;Node44</title>
<path fill="none" stroke="#191970" d="M566.2966,-411.0145C486.5773,-403.2447 356.8949,-388.1621 247,-364 241.6921,-362.833 236.1641,-361.4086 230.7293,-359.8816"/>
<polygon fill="#191970" stroke="#191970" points="231.6966,-356.5179 221.1154,-357.0553 229.7223,-363.2337 231.6966,-356.5179"/>
</g>
<!-- Node45 -->
<g id="node24" class="node">
<title>Node45</title>
<polygon fill="#ffffff" stroke="#bfbfbf" points="256,-336 256,-357 360,-357 360,-336 256,-336"/>
<text text-anchor="middle" x="308" y="-343.4" font-family="Helvetica,sans-Serif" font-size="12.00" fill="#000000">gsl/gsl_odeiv2.h</text>
</g>
<!-- Node42&#45;&gt;Node45 -->
<g id="edge52" class="edge">
<title>Node42&#45;&gt;Node45</title>
<path fill="none" stroke="#191970" d="M579.6408,-406.9727C524.2994,-397.1127 440.8134,-381.3303 369,-364 363.645,-362.7077 358.0548,-361.2526 352.5256,-359.7477"/>
<polygon fill="#191970" stroke="#191970" points="353.2755,-356.3233 342.7029,-357.0093 351.3956,-363.0662 353.2755,-356.3233"/>
</g>
<!-- Node46 -->
<g id="node25" class="node">
<title>Node46</title>
<polygon fill="#ffffff" stroke="#bfbfbf" points="378,-336 378,-357 478,-357 478,-336 378,-336"/>
<text text-anchor="middle" x="428" y="-343.4" font-family="Helvetica,sans-Serif" font-size="12.00" fill="#000000">gsl/gsl_siman.h</text>
</g>
<!-- Node42&#45;&gt;Node46 -->
<g id="edge53" class="edge">
<title>Node42&#45;&gt;Node46</title>
<path fill="none" stroke="#191970" d="M609.1117,-406.8706C571.9084,-394.4695 510.2935,-373.9312 469.4199,-360.3066"/>
<polygon fill="#191970" stroke="#191970" points="470.3516,-356.9279 459.7579,-357.086 468.1379,-363.5687 470.3516,-356.9279"/>
</g>
<!-- Node32 -->
<g id="node26" class="node">
<title>Node32</title>
<polygon fill="#ffffff" stroke="#bfbfbf" points="496.5,-336 496.5,-357 555.5,-357 555.5,-336 496.5,-336"/>
<text text-anchor="middle" x="526" y="-343.4" font-family="Helvetica,sans-Serif" font-size="12.00" fill="#000000">iomanip</text>
</g>
<!-- Node42&#45;&gt;Node32 -->
<g id="edge57" class="edge">
<title>Node42&#45;&gt;Node32</title>
<path fill="none" stroke="#191970" d="M623.534,-406.7166C604.5111,-394.972 573.8826,-376.0623 552.0248,-362.5675"/>
<polygon fill="#191970" stroke="#191970" points="553.6012,-359.4275 543.2536,-357.1522 549.9239,-365.3838 553.6012,-359.4275"/>
</g>
<!-- Node43&#45;&gt;Node1 -->
<g id="edge46" class="edge">
<title>Node43&#45;&gt;Node1</title>
<path fill="none" stroke="#191970" d="M573.5827,-135.7572C597.5403,-118.7412 647.3405,-85.9862 695,-71 772.2856,-46.698 994.6963,-30.2712 1122.2138,-22.5554"/>
<polygon fill="#191970" stroke="#191970" points="1122.5874,-26.0394 1132.3603,-21.9477 1122.1689,-19.0519 1122.5874,-26.0394"/>
</g>
<!-- Node47&#45;&gt;Node1 -->
<g id="edge59" class="edge">
<title>Node47&#45;&gt;Node1</title>
<path fill="none" stroke="#191970" d="M916.9428,-406.6158C924.1325,-396.2031 934.4242,-379.7908 940,-364 964.4861,-294.6543 973.0073,-272.7134 962,-200 957.0554,-167.3364 961.8291,-153.7962 940,-129 914.5042,-100.0387 881.8738,-125.4511 861,-93 855.7104,-84.7766 854.6235,-78.4125 861,-71 877.9001,-51.3539 1023.0162,-34.5999 1122.1221,-25.3074"/>
<polygon fill="#191970" stroke="#191970" points="1122.5289,-28.7848 1132.1632,-24.3766 1121.8827,-21.8147 1122.5289,-28.7848"/>
</g>
<!-- Node47&#45;&gt;Node3 -->
<g id="edge60" class="edge">
<title>Node47&#45;&gt;Node3</title>
<path fill="none" stroke="#191970" d="M893.6603,-406.7166C877.1024,-395.0769 850.533,-376.3994 831.3726,-362.9303"/>
<polygon fill="#191970" stroke="#191970" points="833.3469,-360.0399 823.1532,-357.1522 829.3212,-365.7665 833.3469,-360.0399"/>
</g>
<!-- Node47&#45;&gt;Node5 -->
<g id="edge61" class="edge">
<title>Node47&#45;&gt;Node5</title>
<path fill="none" stroke="#191970" d="M912.756,-406.81C921.3233,-380.7979 940.4182,-312.3502 925,-258 922.1862,-248.0813 916.6196,-238.2026 911.1092,-230.0804"/>
<polygon fill="#191970" stroke="#191970" points="913.768,-227.7851 905.0614,-221.748 908.1029,-231.8969 913.768,-227.7851"/>
</g>
<!-- Node48&#45;&gt;Node1 -->
<g id="edge63" class="edge">
<title>Node48&#45;&gt;Node1</title>
<path fill="none" stroke="#191970" d="M2888.5673,-400.219C2920.5172,-362.5505 2987.5372,-270.7513 2951,-200 2904.839,-110.6129 2860.686,-102.0656 2765,-71 2626.9147,-26.1689 1621.3458,-18.9036 1307.9813,-17.7271"/>
<polygon fill="#191970" stroke="#191970" points="1307.5865,-14.2257 1297.5739,-17.6893 1307.5611,-21.2257 1307.5865,-14.2257"/>
</g>
<!-- Node48&#45;&gt;Node10 -->
<g id="edge116" class="edge">
<title>Node48&#45;&gt;Node10</title>
<path fill="none" stroke="#191970" d="M2817.9584,-406.4512C2774.7213,-396.6532 2719.3356,-381.2504 2704,-364 2633.3452,-284.5233 2737.7885,-200.4214 2659,-129 2622.5647,-95.9716 2270.6662,-85.0275 2171.117,-82.5791"/>
<polygon fill="#191970" stroke="#191970" points="2171.0957,-79.0777 2161.0153,-82.3389 2170.9292,-86.0757 2171.0957,-79.0777"/>
</g>
<!-- Node48&#45;&gt;Node11 -->
<g id="edge115" class="edge">
<title>Node48&#45;&gt;Node11</title>
<path fill="none" stroke="#191970" d="M2817.9722,-408.0637C2768.0822,-398.51 2699.3378,-382.5302 2679,-364 2596.4441,-288.7816 2679.9146,-195.2468 2590,-129 2575.2189,-118.1097 2018.4336,-91.1824 1862.9563,-83.8623"/>
<polygon fill="#191970" stroke="#191970" points="1863.0394,-80.3625 1852.8861,-83.3892 1862.7108,-87.3548 1863.0394,-80.3625"/>
</g>
<!-- Node48&#45;&gt;Node14 -->
<g id="edge118" class="edge">
<title>Node48&#45;&gt;Node14</title>
<path fill="none" stroke="#191970" d="M2928.1243,-415.2112C3086.969,-408.3517 3535.7198,-387.0097 3557,-364 3567.5619,-352.5798 3564.5087,-342.6233 3557,-329 3542.5368,-302.759 3517.3506,-317.4282 3500,-293 3478.3371,-262.5004 3481,-248.41 3481,-211 3481,-211 3481,-211 3481,-146.5 3481,-73.1803 2922.7138,-30.6963 2764.3956,-20.1228"/>
<polygon fill="#191970" stroke="#191970" points="2764.3366,-16.6114 2754.1277,-19.4445 2763.8752,-23.5961 2764.3366,-16.6114"/>
</g>
<!-- Node48&#45;&gt;Node21 -->
<g id="edge114" class="edge">
<title>Node48&#45;&gt;Node21</title>
<path fill="none" stroke="#191970" d="M2874.9981,-400.4977C2879.7676,-351.3142 2886.441,-207.4108 2813,-129 2789.1468,-103.5327 2750.3276,-91.8109 2721.6842,-86.4489"/>
<polygon fill="#191970" stroke="#191970" points="2722.0824,-82.9666 2711.6384,-84.7475 2720.9135,-89.8683 2722.0824,-82.9666"/>
</g>
<!-- Node48&#45;&gt;Node23 -->
<g id="edge117" class="edge">
<title>Node48&#45;&gt;Node23</title>
<path fill="none" stroke="#191970" d="M2928.2253,-415.9613C3088.9551,-411.1394 3548.9253,-394.7792 3609,-364 3654.6312,-340.6209 3683,-326.7717 3683,-275.5 3683,-275.5 3683,-275.5 3683,-146.5 3683,-66.2581 3596.3374,-92.3936 3519,-71 3431.8986,-46.9055 3155.7239,-26.2838 3060.027,-19.6972"/>
<polygon fill="#191970" stroke="#191970" points="3060.2601,-16.2051 3050.045,-19.0162 3059.7836,-23.1889 3060.2601,-16.2051"/>
</g>
<!-- Node49 -->
<g id="node29" class="node">
<title>Node49</title>
<g id="a_node29"><a xlink:href="EvolvingStellarQuantity_8h.html" target="_top" xlink:title="Declares a class implementing the intepolation of a single stellar quantity from stellar evolution tr...">
<polygon fill="#ffffff" stroke="#000000" points="1720,-336 1720,-357 1872,-357 1872,-336 1720,-336"/>
<text text-anchor="middle" x="1796" y="-343.4" font-family="Helvetica,sans-Serif" font-size="12.00" fill="#000000">EvolvingStellarQuantity.h</text>
</a>
</g>
</g>
<!-- Node48&#45;&gt;Node49 -->
<g id="edge64" class="edge">
<title>Node48&#45;&gt;Node49</title>
<path fill="none" stroke="#191970" d="M2817.7378,-413.8569C2642.0743,-402.2765 2095.5508,-366.2475 1882.3801,-352.1945"/>
<polygon fill="#191970" stroke="#191970" points="1882.3866,-348.6874 1872.178,-351.5219 1881.9261,-355.6723 1882.3866,-348.6874"/>
</g>
<!-- Node54 -->
<g id="node34" class="node">
<title>Node54</title>
<polygon fill="#ffffff" stroke="#bfbfbf" points="2211.5,-129.5 2211.5,-163.5 2324.5,-163.5 2324.5,-129.5 2211.5,-129.5"/>
<text text-anchor="start" x="2219.5" y="-149.9" font-family="Helvetica,sans-Serif" font-size="12.00" fill="#000000">boost/serialization</text>
<text text-anchor="middle" x="2268" y="-136.9" font-family="Helvetica,sans-Serif" font-size="12.00" fill="#000000">/base_object.hpp</text>
</g>
<!-- Node48&#45;&gt;Node54 -->
<g id="edge122" class="edge">
<title>Node48&#45;&gt;Node54</title>
<path fill="none" stroke="#191970" d="M2817.747,-412.2065C2742.0375,-404.2085 2610.6851,-387.4494 2569,-364 2514.3766,-333.2723 2525.0717,-296.9855 2476,-258 2427.2834,-219.2966 2363.1728,-187.2759 2319.0738,-167.6286"/>
<polygon fill="#191970" stroke="#191970" points="2320.2665,-164.3296 2309.7037,-163.5059 2317.4473,-170.7369 2320.2665,-164.3296"/>
</g>
<!-- Node55 -->
<g id="node35" class="node">
<title>Node55</title>
<polygon fill="#ffffff" stroke="#bfbfbf" points="2343,-129.5 2343,-163.5 2453,-163.5 2453,-129.5 2343,-129.5"/>
<text text-anchor="start" x="2351" y="-149.9" font-family="Helvetica,sans-Serif" font-size="12.00" fill="#000000">boost/archive/text</text>
<text text-anchor="middle" x="2398" y="-136.9" font-family="Helvetica,sans-Serif" font-size="12.00" fill="#000000">_oarchive.hpp</text>
</g>
<!-- Node48&#45;&gt;Node55 -->
<g id="edge120" class="edge">
<title>Node48&#45;&gt;Node55</title>
<path fill="none" stroke="#191970" d="M2817.8108,-411.7734C2749.8766,-403.826 2639.3964,-387.702 2606,-364 2536.9409,-314.9877 2571.3703,-257.2826 2509,-200 2494.3755,-186.5685 2475.7636,-175.8436 2457.9784,-167.6284"/>
<polygon fill="#191970" stroke="#191970" points="2459.34,-164.4036 2448.7788,-163.5602 2456.5089,-170.8056 2459.34,-164.4036"/>
</g>
<!-- Node56 -->
<g id="node36" class="node">
<title>Node56</title>
<polygon fill="#ffffff" stroke="#bfbfbf" points="2471,-129.5 2471,-163.5 2581,-163.5 2581,-129.5 2471,-129.5"/>
<text text-anchor="start" x="2479" y="-149.9" font-family="Helvetica,sans-Serif" font-size="12.00" fill="#000000">boost/archive/text</text>
<text text-anchor="middle" x="2526" y="-136.9" font-family="Helvetica,sans-Serif" font-size="12.00" fill="#000000">_iarchive.hpp</text>
</g>
<!-- Node48&#45;&gt;Node56 -->
<g id="edge121" class="edge">
<title>Node48&#45;&gt;Node56</title>
<path fill="none" stroke="#191970" d="M2817.9603,-410.8148C2756.3004,-402.3773 2661.2695,-386.2346 2633,-364 2616.652,-351.1419 2561.7422,-228.4335 2537.5785,-173.2061"/>
<polygon fill="#191970" stroke="#191970" points="2540.6473,-171.4872 2533.4407,-163.7209 2534.2312,-174.2862 2540.6473,-171.4872"/>
</g>
<!-- Node31 -->
<g id="node41" class="node">
<title>Node31</title>
<polygon fill="#ffffff" stroke="#bfbfbf" points="2411,-265 2411,-286 2467,-286 2467,-265 2411,-265"/>
<text text-anchor="middle" x="2439" y="-272.4" font-family="Helvetica,sans-Serif" font-size="12.00" fill="#000000">fstream</text>
</g>
<!-- Node48&#45;&gt;Node31 -->
<g id="edge119" class="edge">
<title>Node48&#45;&gt;Node31</title>
<path fill="none" stroke="#191970" d="M2817.6442,-416.3127C2722.5825,-413.2518 2533.4535,-402.3787 2481,-364 2458.7782,-347.741 2447.8652,-316.6501 2442.845,-295.9907"/>
<polygon fill="#191970" stroke="#191970" points="2446.22,-295.039 2440.6778,-286.0093 2439.3794,-296.5243 2446.22,-295.039"/>
</g>
<!-- Node65 -->
<g id="node42" class="node">
<title>Node65</title>
<g id="a_node42"><a xlink:href="InterpolationQuantities_8h.html" target="_top" xlink:title="Defines constant to serve as identifier of the various quantities handled by the stellar evolution in...">
<polygon fill="#ffffff" stroke="#ff0000" points="3509,-265 3509,-286 3655,-286 3655,-265 3509,-265"/>
<text text-anchor="middle" x="3582" y="-272.4" font-family="Helvetica,sans-Serif" font-size="12.00" fill="#000000">InterpolationQuantities.h</text>
</a>
</g>
</g>
<!-- Node48&#45;&gt;Node65 -->
<g id="edge106" class="edge">
<title>Node48&#45;&gt;Node65</title>
<path fill="none" stroke="#191970" d="M2928.1369,-415.4164C3092.2383,-408.9504 3567.5367,-388.2019 3590,-364 3606.8912,-345.8015 3599.3816,-315.5055 3591.4761,-295.5163"/>
<polygon fill="#191970" stroke="#191970" points="3594.601,-293.9234 3587.4331,-286.1213 3588.1711,-296.6904 3594.601,-293.9234"/>
</g>
<!-- Node66 -->
<g id="node43" class="node">
<title>Node66</title>
<g id="a_node43"><a xlink:href="ThreadedInterpolation_8h.html" target="_top" xlink:title="Declaration of a class that handles multithreaded stellar evolution interpolation. ">
<polygon fill="#ffffff" stroke="#ff0000" points="2713,-336 2713,-357 2857,-357 2857,-336 2713,-336"/>
<text text-anchor="middle" x="2785" y="-343.4" font-family="Helvetica,sans-Serif" font-size="12.00" fill="#000000">ThreadedInterpolation.h</text>
</a>
</g>
</g>
<!-- Node48&#45;&gt;Node66 -->
<g id="edge108" class="edge">
<title>Node48&#45;&gt;Node66</title>
<path fill="none" stroke="#191970" d="M2851.6977,-400.3129C2837.8809,-389.1653 2819.9523,-374.7001 2806.1633,-363.5749"/>
<polygon fill="#191970" stroke="#191970" points="2808.1669,-360.6943 2798.1864,-357.139 2803.7714,-366.1423 2808.1669,-360.6943"/>
</g>
<!-- Node68 -->
<g id="node44" class="node">
<title>Node68</title>
<g id="a_node44"><a xlink:href="StellarZone_8h.html" target="_top" xlink:title="Defines tags for the stellar zone. ">
<polygon fill="#ffffff" stroke="#000000" points="3027.5,-336 3027.5,-357 3154.5,-357 3154.5,-336 3027.5,-336"/>
<text text-anchor="middle" x="3091" y="-343.4" font-family="Helvetica,sans-Serif" font-size="12.00" fill="#000000">../Core/StellarZone.h</text>
</a>
</g>
</g>
<!-- Node48&#45;&gt;Node68 -->
<g id="edge113" class="edge">
<title>Node48&#45;&gt;Node68</title>
<path fill="none" stroke="#191970" d="M2925.2164,-400.4937C2963.097,-388.1565 3013.6721,-371.6848 3048.9609,-360.1916"/>
<polygon fill="#191970" stroke="#191970" points="3050.061,-363.5144 3058.4856,-357.0896 3047.8933,-356.8585 3050.061,-363.5144"/>
</g>
<!-- Node69 -->
<g id="node45" class="node">
<title>Node69</title>
<polygon fill="#ffffff" stroke="#bfbfbf" points="3172.5,-329.5 3172.5,-363.5 3285.5,-363.5 3285.5,-329.5 3172.5,-329.5"/>
<text text-anchor="start" x="3180.5" y="-349.9" font-family="Helvetica,sans-Serif" font-size="12.00" fill="#000000">boost/serialization</text>
<text text-anchor="middle" x="3229" y="-336.9" font-family="Helvetica,sans-Serif" font-size="12.00" fill="#000000">/list.hpp</text>
</g>
<!-- Node48&#45;&gt;Node69 -->
<g id="edge123" class="edge">
<title>Node48&#45;&gt;Node69</title>
<path fill="none" stroke="#191970" d="M2928.2465,-408.7159C2984.8605,-399.4061 3075.6068,-383.6322 3162.5834,-364.2392"/>
<polygon fill="#191970" stroke="#191970" points="3163.3589,-367.6523 3172.3471,-362.0431 3161.8228,-360.8229 3163.3589,-367.6523"/>
</g>
<!-- Node70 -->
<g id="node46" class="node">
<title>Node70</title>
<polygon fill="#ffffff" stroke="#bfbfbf" points="3303.5,-329.5 3303.5,-363.5 3416.5,-363.5 3416.5,-329.5 3303.5,-329.5"/>
<text text-anchor="start" x="3311.5" y="-349.9" font-family="Helvetica,sans-Serif" font-size="12.00" fill="#000000">boost/serialization</text>
<text text-anchor="middle" x="3360" y="-336.9" font-family="Helvetica,sans-Serif" font-size="12.00" fill="#000000">/valarray.hpp</text>
</g>
<!-- Node48&#45;&gt;Node70 -->
<g id="edge124" class="edge">
<title>Node48&#45;&gt;Node70</title>
<path fill="none" stroke="#191970" d="M2928.011,-412.9489C3006.9555,-405.885 3157.0218,-390.4752 3293.1915,-364.2227"/>
<polygon fill="#191970" stroke="#191970" points="3294.2434,-367.5835 3303.387,-362.2314 3292.9015,-360.7133 3294.2434,-367.5835"/>
</g>
<!-- Node71 -->
<g id="node47" class="node">
<title>Node71</title>
<polygon fill="#ffffff" stroke="#bfbfbf" points="3434.5,-329.5 3434.5,-363.5 3547.5,-363.5 3547.5,-329.5 3434.5,-329.5"/>
<text text-anchor="start" x="3442.5" y="-349.9" font-family="Helvetica,sans-Serif" font-size="12.00" fill="#000000">boost/serialization</text>
<text text-anchor="middle" x="3491" y="-336.9" font-family="Helvetica,sans-Serif" font-size="12.00" fill="#000000">/vector.hpp</text>
</g>
<!-- Node48&#45;&gt;Node71 -->
<g id="edge125" class="edge">
<title>Node48&#45;&gt;Node71</title>
<path fill="none" stroke="#191970" d="M2928.3619,-415.1978C3026.6516,-410.4466 3238.0844,-397.2348 3424.4284,-364.1284"/>
<polygon fill="#191970" stroke="#191970" points="3425.1844,-367.5486 3434.406,-362.3321 3423.9441,-360.6594 3425.1844,-367.5486"/>
</g>
<!-- Node49&#45;&gt;Node1 -->
<g id="edge65" class="edge">
<title>Node49&#45;&gt;Node1</title>
<path fill="none" stroke="#191970" d="M1719.6475,-338.9631C1627.5923,-329.267 1478.6757,-311.4628 1426,-293 1367.1575,-272.3757 1335.9858,-276.1081 1305,-222 1270.9086,-162.4689 1374.5243,-128.4291 1337,-71 1327.8333,-56.9708 1314.0815,-46.5973 1299.0747,-38.9339"/>
<polygon fill="#191970" stroke="#191970" points="1300.1397,-35.5682 1289.5984,-34.5041 1297.1753,-41.9096 1300.1397,-35.5682"/>
</g>
<!-- Node49&#45;&gt;Node10 -->
<g id="edge101" class="edge">
<title>Node49&#45;&gt;Node10</title>
<path fill="none" stroke="#191970" d="M1872.2625,-339.9163C1969.6511,-330.746 2127.8347,-312.9866 2146,-293 2194.3797,-239.7696 2167.9538,-144.0594 2153.0151,-102.3531"/>
<polygon fill="#191970" stroke="#191970" points="2156.2904,-101.119 2149.5171,-92.972 2149.7315,-103.5647 2156.2904,-101.119"/>
</g>
<!-- Node49&#45;&gt;Node11 -->
<g id="edge100" class="edge">
<title>Node49&#45;&gt;Node11</title>
<path fill="none" stroke="#191970" d="M1795.3788,-335.9482C1794.8878,-317.9355 1796.4298,-280.9777 1815,-258 1839.5077,-227.6756 1873.8297,-254.7417 1895,-222 1922.1298,-180.0415 1873.7954,-126.6154 1843.9416,-99.4969"/>
<polygon fill="#191970" stroke="#191970" points="1845.9059,-96.5629 1836.0894,-92.5771 1841.2778,-101.8146 1845.9059,-96.5629"/>
</g>
<!-- Node49&#45;&gt;Node13 -->
<g id="edge105" class="edge">
<title>Node49&#45;&gt;Node13</title>
<path fill="none" stroke="#191970" d="M1719.9783,-344.8434C1573.8183,-340.8684 1265.1427,-328.3419 1233,-293 1194.229,-250.3701 1229.6818,-219.2649 1246,-164 1252.0522,-143.5029 1257.3904,-119.6629 1260.855,-102.9892"/>
<polygon fill="#191970" stroke="#191970" points="1264.3803,-103.2164 1262.9401,-92.7199 1257.5202,-101.8235 1264.3803,-103.2164"/>
</g>
<!-- Node49&#45;&gt;Node14 -->
<g id="edge103" class="edge">
<title>Node49&#45;&gt;Node14</title>
<path fill="none" stroke="#191970" d="M1872.1819,-343.668C1958.2782,-338.9229 2101.9381,-326.3154 2221,-293 2318.5184,-265.7128 2332.25,-229.8976 2429,-200 2514.8734,-173.4635 2545.7678,-200.2805 2628,-164 2675.5771,-143.0092 2697.3278,-139.3015 2721,-93 2729.5976,-76.1836 2729.1534,-54.3892 2727.1204,-38.5422"/>
<polygon fill="#191970" stroke="#191970" points="2730.5032,-37.5312 2725.4659,-28.2105 2723.5913,-38.6381 2730.5032,-37.5312"/>
</g>
<!-- Node49&#45;&gt;Node21 -->
<g id="edge99" class="edge">
<title>Node49&#45;&gt;Node21</title>
<path fill="none" stroke="#191970" d="M1872.124,-342.373C1948.5555,-336.6613 2068.9987,-323.3585 2169,-293 2260.4943,-265.2241 2271.714,-228.4531 2363,-200 2460.5223,-169.6031 2497.3498,-207.0175 2590,-164 2622.5072,-148.9069 2652.4637,-119.3525 2669.7251,-100.1538"/>
<polygon fill="#191970" stroke="#191970" points="2672.3579,-102.4599 2676.316,-92.6322 2667.0932,-97.8466 2672.3579,-102.4599"/>
</g>
<!-- Node49&#45;&gt;Node23 -->
<g id="edge102" class="edge">
<title>Node49&#45;&gt;Node23</title>
<path fill="none" stroke="#191970" d="M1872.1602,-342.8014C1967.6445,-337.0763 2135.9263,-323.3792 2277,-293 2367.8906,-273.4274 2587.788,-196.2221 2675,-164 2794.3479,-119.9048 2932.9192,-59.4346 2994.5614,-32.0393"/>
<polygon fill="#191970" stroke="#191970" points="2996.0682,-35.1997 3003.7793,-27.934 2993.2203,-28.8051 2996.0682,-35.1997"/>
</g>
<!-- Node50 -->
<g id="node30" class="node">
<title>Node50</title>
<g id="a_node30"><a xlink:href="AllowedGridGrowth_8h.html" target="_top" xlink:title="Declares &amp; defines a class describing how the mass&#45;[Fe/H] interpolation grid is allowed to grow...">
<polygon fill="#ffffff" stroke="#000000" points="1313.5,-200.5 1313.5,-221.5 1444.5,-221.5 1444.5,-200.5 1313.5,-200.5"/>
<text text-anchor="middle" x="1379" y="-207.9" font-family="Helvetica,sans-Serif" font-size="12.00" fill="#000000">AllowedGridGrowth.h</text>
</a>
</g>
</g>
<!-- Node49&#45;&gt;Node50 -->
<g id="edge66" class="edge">
<title>Node49&#45;&gt;Node50</title>
<path fill="none" stroke="#191970" d="M1719.8504,-337.6021C1642.0096,-327.7546 1526.9047,-310.8949 1486,-293 1450.5705,-277.5004 1416.3004,-247.8478 1396.4529,-228.7694"/>
<polygon fill="#191970" stroke="#191970" points="1398.6916,-226.0622 1389.1054,-221.5505 1393.7857,-231.0555 1398.6916,-226.0622"/>
</g>
<!-- Node51 -->
<g id="node31" class="node">
<title>Node51</title>
<g id="a_node31"><a xlink:href="RemoveLogDeriv_8h.html" target="_top" xlink:title="Declares a class to switch from logarithmic to linear derivative. ">
<polygon fill="#ffffff" stroke="#ff0000" points="1579,-136 1579,-157 1699,-157 1699,-136 1579,-136"/>
<text text-anchor="middle" x="1639" y="-143.4" font-family="Helvetica,sans-Serif" font-size="12.00" fill="#000000">RemoveLogDeriv.h</text>
</a>
</g>
</g>
<!-- Node49&#45;&gt;Node51 -->
<g id="edge68" class="edge">
<title>Node49&#45;&gt;Node51</title>
<path fill="none" stroke="#191970" d="M1787.559,-335.7471C1762.1089,-303.3266 1685.9006,-206.246 1653.6609,-165.1763"/>
<polygon fill="#191970" stroke="#191970" points="1656.4106,-163.0108 1647.4827,-157.306 1650.9044,-167.3331 1656.4106,-163.0108"/>
</g>
<!-- Node58 -->
<g id="node32" class="node">
<title>Node58</title>
<g id="a_node32"><a xlink:href="SumDerivatives_8h.html" target="_top" xlink:title="Declares &amp; defines a class for the derivative of a quantity which is the sum of two other quantities...">
<polygon fill="#ffffff" stroke="#000000" points="2008.5,-265 2008.5,-286 2119.5,-286 2119.5,-265 2008.5,-265"/>
<text text-anchor="middle" x="2064" y="-272.4" font-family="Helvetica,sans-Serif" font-size="12.00" fill="#000000">SumDerivatives.h</text>
</a>
</g>
</g>
<!-- Node49&#45;&gt;Node58 -->
<g id="edge70" class="edge">
<title>Node49&#45;&gt;Node58</title>
<path fill="none" stroke="#191970" d="M1836.6737,-335.9664C1877.8712,-325.2658 1943.4116,-308.1565 2000,-293 2005.2157,-291.603 2010.6671,-290.1309 2016.0931,-288.658"/>
<polygon fill="#191970" stroke="#191970" points="2017.0464,-292.0259 2025.7758,-286.022 2015.2076,-285.2718 2017.0464,-292.0259"/>
</g>
<!-- Node53 -->
<g id="node33" class="node">
<title>Node53</title>
<g id="a_node33"><a xlink:href="Functions_8h.html" target="_top" xlink:title="A hierarchy of classes representing functions. ">
<polygon fill="#ffffff" stroke="#ff0000" points="2061.5,-200.5 2061.5,-221.5 2140.5,-221.5 2140.5,-200.5 2061.5,-200.5"/>
<text text-anchor="middle" x="2101" y="-207.9" font-family="Helvetica,sans-Serif" font-size="12.00" fill="#000000">Functions.h</text>
</a>
</g>
</g>
<!-- Node49&#45;&gt;Node53 -->
<g id="edge90" class="edge">
<title>Node49&#45;&gt;Node53</title>
<path fill="none" stroke="#191970" d="M1872.3285,-339.4353C1965.4277,-330.0332 2112.5269,-312.3309 2129,-293 2144.5122,-274.7967 2129.9582,-247.5772 2116.6993,-229.5609"/>
<polygon fill="#191970" stroke="#191970" points="2119.3455,-227.2627 2110.4319,-221.5356 2113.8285,-231.5713 2119.3455,-227.2627"/>
</g>
<!-- Node59 -->
<g id="node37" class="node">
<title>Node59</title>
<g id="a_node37"><a xlink:href="InterpolatedDerivatives_8h_source.html" target="_top" xlink:title="InterpolatedDerivatives.h">
<polygon fill="#ffffff" stroke="#ff0000" points="1505.5,-265 1505.5,-286 1654.5,-286 1654.5,-265 1505.5,-265"/>
<text text-anchor="middle" x="1580" y="-272.4" font-family="Helvetica,sans-Serif" font-size="12.00" fill="#000000">InterpolatedDerivatives.h</text>
</a>
</g>
</g>
<!-- Node49&#45;&gt;Node59 -->
<g id="edge83" class="edge">
<title>Node49&#45;&gt;Node59</title>
<path fill="none" stroke="#191970" d="M1763.6626,-335.8706C1725.8555,-323.4432 1663.1883,-302.8443 1621.7407,-289.2203"/>
<polygon fill="#191970" stroke="#191970" points="1622.7981,-285.8837 1612.2052,-286.086 1620.6122,-292.5337 1622.7981,-285.8837"/>
</g>
<!-- Node60 -->
<g id="node38" class="node">
<title>Node60</title>
<g id="a_node38"><a xlink:href="mass__feh__interp_8h.html" target="_top" xlink:title="Define a single function performing mass&#45;[Fe/H] interpolations. ">
<polygon fill="#ffffff" stroke="#ff0000" points="1462.5,-200.5 1462.5,-221.5 1577.5,-221.5 1577.5,-200.5 1462.5,-200.5"/>
<text text-anchor="middle" x="1520" y="-207.9" font-family="Helvetica,sans-Serif" font-size="12.00" fill="#000000">mass_feh_interp.h</text>
</a>
</g>
</g>
<!-- Node49&#45;&gt;Node60 -->
<g id="edge89" class="edge">
<title>Node49&#45;&gt;Node60</title>
<path fill="none" stroke="#191970" d="M1719.7421,-343.6509C1640.7104,-338.9055 1524.8805,-326.312 1497,-293 1482.0501,-275.1377 1494.2103,-248.2064 1505.7757,-230.1324"/>
<polygon fill="#191970" stroke="#191970" points="1508.8664,-231.8132 1511.6227,-221.5832 1503.0885,-227.8615 1508.8664,-231.8132"/>
</g>
<!-- Node62 -->
<g id="node39" class="node">
<title>Node62</title>
<g id="a_node39"><a xlink:href="InterpSolutionIterator_8h_source.html" target="_top" xlink:title="../Core/InterpSolutionIterator.h">
<polygon fill="#ffffff" stroke="#ff0000" points="1710,-200.5 1710,-221.5 1886,-221.5 1886,-200.5 1710,-200.5"/>
<text text-anchor="middle" x="1798" y="-207.9" font-family="Helvetica,sans-Serif" font-size="12.00" fill="#000000">../Core/InterpSolutionIterator.h</text>
</a>
</g>
</g>
<!-- Node49&#45;&gt;Node62 -->
<g id="edge91" class="edge">
<title>Node49&#45;&gt;Node62</title>
<path fill="none" stroke="#191970" d="M1792.0999,-335.8663C1786.5024,-319.2406 1777.3507,-286.0846 1782,-258 1783.5046,-248.9115 1786.5415,-239.2199 1789.5692,-231.0129"/>
<polygon fill="#191970" stroke="#191970" points="1792.8807,-232.1555 1793.2831,-221.5683 1786.3663,-229.5937 1792.8807,-232.1555"/>
</g>
<!-- Node64 -->
<g id="node40" class="node">
<title>Node64</title>
<g id="a_node40"><a xlink:href="InterpolatingFunctionALGLIB_8h_source.html" target="_top" xlink:title="../Core/InterpolatingFunction\lALGLIB.h">
<polygon fill="#ffffff" stroke="#ff0000" points="1823.5,-258.5 1823.5,-292.5 1990.5,-292.5 1990.5,-258.5 1823.5,-258.5"/>
<text text-anchor="start" x="1831.5" y="-278.9" font-family="Helvetica,sans-Serif" font-size="12.00" fill="#000000">../Core/InterpolatingFunction</text>
<text text-anchor="middle" x="1907" y="-265.9" font-family="Helvetica,sans-Serif" font-size="12.00" fill="#000000">ALGLIB.h</text>
</a>
</g>
</g>
<!-- Node49&#45;&gt;Node64 -->
<g id="edge95" class="edge">
<title>Node49&#45;&gt;Node64</title>
<path fill="none" stroke="#191970" d="M1812.8585,-335.7166C1828.3906,-325.7817 1851.9385,-310.7195 1871.5971,-298.1451"/>
<polygon fill="#191970" stroke="#191970" points="1873.4922,-301.0877 1880.0304,-292.7508 1869.7203,-295.1908 1873.4922,-301.0877"/>
</g>
<!-- Node49&#45;&gt;Node31 -->
<g id="edge104" class="edge">
<title>Node49&#45;&gt;Node31</title>
<path fill="none" stroke="#191970" d="M1872.1411,-342.6259C2010.8716,-335.086 2299.4896,-317.0473 2397,-293 2400.48,-292.1418 2404.0459,-291.038 2407.5579,-289.8027"/>
<polygon fill="#191970" stroke="#191970" points="2409.1368,-292.9445 2417.1966,-286.0676 2406.6075,-286.4174 2409.1368,-292.9445"/>
</g>
<!-- Node50&#45;&gt;Node1 -->
<g id="edge67" class="edge">
<title>Node50&#45;&gt;Node1</title>
<path fill="none" stroke="#191970" d="M1382.4478,-200.2056C1389.8375,-174.8078 1404.267,-110.4455 1375,-71 1365.4311,-58.1033 1334.7032,-46.4389 1302.6985,-37.3174"/>
<polygon fill="#191970" stroke="#191970" points="1303.318,-33.8576 1292.7471,-34.5697 1301.4548,-40.6051 1303.318,-33.8576"/>
</g>
<!-- Node51&#45;&gt;Node1 -->
<g id="edge69" class="edge">
<title>Node51&#45;&gt;Node1</title>
<path fill="none" stroke="#191970" d="M1621.6793,-135.7957C1594.4403,-119.4281 1539.4812,-88.2668 1489,-71 1430.2999,-50.9219 1361.7996,-37.5469 1307.9745,-29.1914"/>
<polygon fill="#191970" stroke="#191970" points="1308.1694,-25.6809 1297.7569,-27.638 1307.1172,-32.6014 1308.1694,-25.6809"/>
</g>
<!-- Node58&#45;&gt;Node1 -->
<g id="edge71" class="edge">
<title>Node58&#45;&gt;Node1</title>
<path fill="none" stroke="#191970" d="M2058.7657,-264.951C2040.6984,-229.8402 1977.0798,-116.5765 1887,-71 1836.6047,-45.5022 1480.1422,-28.0388 1307.8278,-20.9903"/>
<polygon fill="#191970" stroke="#191970" points="1307.887,-17.49 1297.7533,-20.5815 1307.6031,-24.4842 1307.887,-17.49"/>
</g>
<!-- Node58&#45;&gt;Node53 -->
<g id="edge72" class="edge">
<title>Node58&#45;&gt;Node53</title>
<path fill="none" stroke="#191970" d="M2070.1098,-264.8491C2075.4336,-255.5685 2083.2909,-241.8712 2089.7486,-230.614"/>
<polygon fill="#191970" stroke="#191970" points="2092.8175,-232.298 2094.7575,-221.8823 2086.7456,-228.8149 2092.8175,-232.298"/>
</g>
<!-- Node53&#45;&gt;Node1 -->
<g id="edge73" class="edge">
<title>Node53&#45;&gt;Node1</title>
<path fill="none" stroke="#191970" d="M2097.4832,-200.117C2087.9879,-172.7288 2058.9789,-101.0015 2007,-71 1947.7542,-36.8041 1504.0035,-23.47 1307.8123,-19.2073"/>
<polygon fill="#191970" stroke="#191970" points="1307.8792,-15.7081 1297.8066,-18.9932 1307.7294,-22.7065 1307.8792,-15.7081"/>
</g>
<!-- Node53&#45;&gt;Node9 -->
<g id="edge74" class="edge">
<title>Node53&#45;&gt;Node9</title>
<path fill="none" stroke="#191970" d="M2061.4258,-208.2285C1918.3041,-198.2053 1426.5911,-163.7694 1246.6504,-151.1677"/>
<polygon fill="#191970" stroke="#191970" points="1246.7484,-147.6661 1236.5283,-150.4588 1246.2593,-154.649 1246.7484,-147.6661"/>
</g>
<!-- Node53&#45;&gt;Node10 -->
<g id="edge78" class="edge">
<title>Node53&#45;&gt;Node10</title>
<path fill="none" stroke="#191970" d="M2104.6007,-200.4434C2111.9168,-178.9938 2128.6278,-130.0002 2138.1058,-102.2125"/>
<polygon fill="#191970" stroke="#191970" points="2141.4339,-103.297 2141.3495,-92.7025 2134.8086,-101.0372 2141.4339,-103.297"/>
</g>
<!-- Node53&#45;&gt;Node11 -->
<g id="edge77" class="edge">
<title>Node53&#45;&gt;Node11</title>
<path fill="none" stroke="#191970" d="M2078.2501,-200.4434C2028.8483,-177.5195 1911.6482,-123.1353 1854.8928,-96.7992"/>
<polygon fill="#191970" stroke="#191970" points="1856.2186,-93.556 1845.6744,-92.5216 1853.2721,-99.9057 1856.2186,-93.556"/>
</g>
<!-- Node53&#45;&gt;Node12 -->
<g id="edge76" class="edge">
<title>Node53&#45;&gt;Node12</title>
<path fill="none" stroke="#191970" d="M2061.1817,-209.0553C1972.5546,-204.3819 1752.4345,-190.8633 1570,-164 1415.9846,-141.3214 1377.1351,-134.1643 1227,-93 1226.9009,-92.9728 1226.8016,-92.9455 1226.7021,-92.918"/>
<polygon fill="#191970" stroke="#191970" points="1227.8521,-89.6094 1217.2668,-90.0584 1225.8217,-96.3085 1227.8521,-89.6094"/>
</g>
<!-- Node53&#45;&gt;Node14 -->
<g id="edge79" class="edge">
<title>Node53&#45;&gt;Node14</title>
<path fill="none" stroke="#191970" d="M2098.5533,-200.2943C2093.2313,-173.938 2083.8066,-105.5518 2120,-71 2160.5291,-32.3091 2551.9766,-20.9539 2681.5691,-18.2405"/>
<polygon fill="#191970" stroke="#191970" points="2681.9372,-21.7339 2691.8641,-18.0318 2681.7952,-14.7353 2681.9372,-21.7339"/>
</g>
<!-- Node53&#45;&gt;Node21 -->
<g id="edge75" class="edge">
<title>Node53&#45;&gt;Node21</title>
<path fill="none" stroke="#191970" d="M2110.1317,-200.4216C2126.5897,-182.1818 2163.2355,-145.2138 2203,-129 2283.751,-96.0742 2550.1226,-85.6482 2648.269,-82.8776"/>
<polygon fill="#191970" stroke="#191970" points="2648.4093,-86.3752 2658.3104,-82.6045 2648.2189,-79.3778 2648.4093,-86.3752"/>
</g>
<!-- Node53&#45;&gt;Node54 -->
<g id="edge80" class="edge">
<title>Node53&#45;&gt;Node54</title>
<path fill="none" stroke="#191970" d="M2128.2031,-200.4934C2151.4537,-191.5134 2185.6048,-178.3233 2214.332,-167.2281"/>
<polygon fill="#191970" stroke="#191970" points="2215.7754,-170.4226 2223.8428,-163.5547 2213.2533,-163.8927 2215.7754,-170.4226"/>
</g>
<!-- Node53&#45;&gt;Node55 -->
<g id="edge81" class="edge">
<title>Node53&#45;&gt;Node55</title>
<path fill="none" stroke="#191970" d="M2140.7563,-203.8311C2185.2815,-195.6143 2259.7945,-181.3034 2333.0467,-164.1483"/>
<polygon fill="#191970" stroke="#191970" points="2333.975,-167.5254 2342.9029,-161.8207 2332.3661,-160.7128 2333.975,-167.5254"/>
</g>
<!-- Node53&#45;&gt;Node56 -->
<g id="edge82" class="edge">
<title>Node53&#45;&gt;Node56</title>
<path fill="none" stroke="#191970" d="M2140.5532,-207.6447C2205.5247,-201.7442 2339.0001,-187.9903 2461.0664,-164.0358"/>
<polygon fill="#191970" stroke="#191970" points="2461.8325,-167.4521 2470.9569,-162.0672 2460.466,-160.5867 2461.8325,-167.4521"/>
</g>
<!-- Node59&#45;&gt;Node1 -->
<g id="edge84" class="edge">
<title>Node59&#45;&gt;Node1</title>
<path fill="none" stroke="#191970" d="M1584.3465,-264.8538C1589.8449,-249.6265 1597.4183,-221.135 1587,-200 1545.3773,-115.562 1503.5346,-112.4261 1419,-71 1384.2886,-53.9897 1343.5122,-41.9105 1307.5766,-33.5883"/>
<polygon fill="#191970" stroke="#191970" points="1308.1027,-30.1193 1297.5784,-31.3397 1306.5667,-36.9487 1308.1027,-30.1193"/>
</g>
<!-- Node59&#45;&gt;Node53 -->
<g id="edge88" class="edge">
<title>Node59&#45;&gt;Node53</title>
<path fill="none" stroke="#191970" d="M1654.6466,-266.2587C1762.6114,-252.8926 1959.4477,-228.5242 2051.3092,-217.1517"/>
<polygon fill="#191970" stroke="#191970" points="2051.957,-220.5984 2061.4512,-215.8962 2051.0969,-213.6514 2051.957,-220.5984"/>
</g>
<!-- Node59&#45;&gt;Node60 -->
<g id="edge85" class="edge">
<title>Node59&#45;&gt;Node60</title>
<path fill="none" stroke="#191970" d="M1570.0922,-264.8491C1561.1137,-255.1972 1547.6915,-240.7684 1537.0002,-229.2753"/>
<polygon fill="#191970" stroke="#191970" points="1539.4968,-226.8203 1530.123,-221.8823 1534.3715,-231.588 1539.4968,-226.8203"/>
</g>
<!-- Node60&#45;&gt;Node1 -->
<g id="edge86" class="edge">
<title>Node60&#45;&gt;Node1</title>
<path fill="none" stroke="#191970" d="M1504.4963,-200.4554C1492.0001,-191.5486 1474.3696,-178.0324 1461,-164 1425.8596,-127.1176 1435.5067,-100.5357 1394,-71 1368.5951,-52.9222 1337.0286,-40.8772 1307.5106,-32.8834"/>
<polygon fill="#191970" stroke="#191970" points="1308.1478,-29.4333 1297.5906,-30.3249 1306.3996,-36.2115 1308.1478,-29.4333"/>
</g>
<!-- Node60&#45;&gt;Node8 -->
<g id="edge87" class="edge">
<title>Node60&#45;&gt;Node8</title>
<path fill="none" stroke="#191970" d="M1462.4376,-201.1996C1459.5869,-200.7792 1456.7624,-200.3765 1454,-200 1303.8744,-179.5366 1262.4271,-198.9528 1115,-164 1046.5205,-147.7645 970.3906,-115.7027 928.6657,-96.8387"/>
<polygon fill="#191970" stroke="#191970" points="929.8661,-93.5394 919.3156,-92.5712 926.9596,-99.9074 929.8661,-93.5394"/>
</g>
<!-- Node62&#45;&gt;Node1 -->
<g id="edge92" class="edge">
<title>Node62&#45;&gt;Node1</title>
<path fill="none" stroke="#191970" d="M1789.1223,-200.3825C1774.1124,-183.0698 1742.0151,-148.7167 1708,-129 1635.2825,-86.8496 1609.6314,-91.0202 1528,-71 1454.839,-53.0572 1370.6049,-39.0265 1307.9621,-29.8436"/>
<polygon fill="#191970" stroke="#191970" points="1308.1055,-26.3278 1297.7065,-28.3552 1307.1001,-33.2553 1308.1055,-26.3278"/>
</g>
<!-- Node62&#45;&gt;Node9 -->
<g id="edge93" class="edge">
<title>Node62&#45;&gt;Node9</title>
<path fill="none" stroke="#191970" d="M1709.7841,-201.793C1584.7892,-188.7474 1358.9001,-165.1716 1246.8126,-153.4732"/>
<polygon fill="#191970" stroke="#191970" points="1246.9636,-149.97 1236.6543,-152.4129 1246.2369,-156.9322 1246.9636,-149.97"/>
</g>
<!-- Node62&#45;&gt;Node11 -->
<g id="edge94" class="edge">
<title>Node62&#45;&gt;Node11</title>
<path fill="none" stroke="#191970" d="M1800.0459,-200.4434C1804.1844,-179.0883 1813.6141,-130.4313 1819.0114,-102.5809"/>
<polygon fill="#191970" stroke="#191970" points="1822.4593,-103.1858 1820.9259,-92.7025 1815.5871,-101.8539 1822.4593,-103.1858"/>
</g>
<!-- Node64&#45;&gt;Node1 -->
<g id="edge96" class="edge">
<title>Node64&#45;&gt;Node1</title>
<path fill="none" stroke="#191970" d="M1910.0152,-258.4043C1916.2771,-216.5785 1925.2656,-109.693 1862,-71 1815.858,-42.7797 1475.1504,-26.8004 1307.5613,-20.5713"/>
<polygon fill="#191970" stroke="#191970" points="1307.6332,-17.0717 1297.5113,-20.2017 1307.3759,-24.0669 1307.6332,-17.0717"/>
</g>
<!-- Node64&#45;&gt;Node53 -->
<g id="edge97" class="edge">
<title>Node64&#45;&gt;Node53</title>
<path fill="none" stroke="#191970" d="M1958.225,-258.469C1989.8943,-247.9398 2030.0101,-234.6023 2059.6499,-224.7478"/>
<polygon fill="#191970" stroke="#191970" points="2060.8877,-228.0248 2069.2727,-221.5485 2058.6792,-221.3823 2060.8877,-228.0248"/>
</g>
<!-- Node64&#45;&gt;Node62 -->
<g id="edge98" class="edge">
<title>Node64&#45;&gt;Node62</title>
<path fill="none" stroke="#191970" d="M1878.0762,-258.3845C1861.5213,-248.5883 1840.8946,-236.3826 1824.7221,-226.8126"/>
<polygon fill="#191970" stroke="#191970" points="1826.1676,-223.6012 1815.7791,-221.5206 1822.6028,-229.6255 1826.1676,-223.6012"/>
</g>
<!-- Node65&#45;&gt;Node23 -->
<g id="edge107" class="edge">
<title>Node65&#45;&gt;Node23</title>
<path fill="none" stroke="#191970" d="M3581.0862,-264.7809C3577.5062,-230.1082 3561.1679,-120.3877 3495,-71 3460.2222,-45.0419 3161.3623,-25.3489 3060.2645,-19.378"/>
<polygon fill="#191970" stroke="#191970" points="3060.2103,-15.8689 3050.0233,-18.7803 3059.8024,-22.857 3060.2103,-15.8689"/>
</g>
<!-- Node66&#45;&gt;Node1 -->
<g id="edge109" class="edge">
<title>Node66&#45;&gt;Node1</title>
<path fill="none" stroke="#191970" d="M2792.2304,-335.7979C2806.5186,-313.5774 2837,-260.3863 2837,-211 2837,-211 2837,-211 2837,-146.5 2837,-128.3675 2847.3384,-109.9432 2721,-71 2586.581,-29.566 1615.1989,-19.991 1307.9266,-17.9882"/>
<polygon fill="#191970" stroke="#191970" points="1307.7381,-14.487 1297.7158,-17.9228 1307.6932,-21.4868 1307.7381,-14.487"/>
</g>
<!-- Node66&#45;&gt;Node10 -->
<g id="edge112" class="edge">
<title>Node66&#45;&gt;Node10</title>
<path fill="none" stroke="#191970" d="M2780.8559,-335.8935C2766,-299.4757 2711.5437,-179.0302 2623,-129 2583.5003,-106.6813 2265.7004,-88.3423 2171.3297,-83.3467"/>
<polygon fill="#191970" stroke="#191970" points="2171.3714,-79.8442 2161.2021,-82.8166 2171.0054,-86.8346 2171.3714,-79.8442"/>
</g>
<!-- Node66&#45;&gt;Node64 -->
<g id="edge111" class="edge">
<title>Node66&#45;&gt;Node64</title>
<path fill="none" stroke="#191970" d="M2712.7505,-344.4246C2575.7699,-339.8676 2268.7901,-326.6821 2000.5058,-292.9677"/>
<polygon fill="#191970" stroke="#191970" points="2000.9387,-289.4946 1990.5777,-291.7084 2000.0577,-296.439 2000.9387,-289.4946"/>
</g>
<!-- Node66&#45;&gt;Node65 -->
<g id="edge110" class="edge">
<title>Node66&#45;&gt;Node65</title>
<path fill="none" stroke="#191970" d="M2857.1341,-340.074C3005.0514,-326.8969 3341.9706,-296.8828 3498.8111,-282.9108"/>
<polygon fill="#191970" stroke="#191970" points="3499.2276,-286.3877 3508.8776,-282.014 3498.6064,-279.4153 3499.2276,-286.3877"/>
</g>
<!-- Node72&#45;&gt;Node1 -->
<g id="edge127" class="edge">
<title>Node72&#45;&gt;Node1</title>
<path fill="none" stroke="#191970" d="M1315.8532,-471.4432C1255.9463,-431.1727 1046.1096,-280.0182 973,-93 969.44,-83.8933 966.8776,-78.6237 973,-71 991.8541,-47.5225 1062.4252,-33.7251 1122.5292,-26.0405"/>
<polygon fill="#191970" stroke="#191970" points="1122.964,-29.5135 1132.4592,-24.8133 1122.1054,-22.5664 1122.964,-29.5135"/>
</g>
<!-- Node72&#45;&gt;Node49 -->
<g id="edge133" class="edge">
<title>Node72&#45;&gt;Node49</title>
<path fill="none" stroke="#191970" d="M1339.8304,-471.2992C1353.7224,-453.2146 1384.5767,-416.9252 1420,-400 1469.7242,-376.2419 1614.8249,-360.6998 1709.5463,-352.7737"/>
<polygon fill="#191970" stroke="#191970" points="1710.014,-356.2471 1719.6928,-351.9376 1709.4391,-349.2708 1710.014,-356.2471"/>
</g>
<!-- Node72&#45;&gt;Node53 -->
<g id="edge132" class="edge">
<title>Node72&#45;&gt;Node53</title>
<path fill="none" stroke="#191970" d="M1399.28,-471.8993C1573.5706,-445.6234 2028.3575,-376.3178 2059,-364 2110.5879,-343.2625 2136.1459,-342.2232 2162,-293 2169.2334,-279.2285 2168.8662,-271.9582 2162,-258 2155.6047,-244.999 2143.6919,-234.5825 2132.0794,-226.8922"/>
<polygon fill="#191970" stroke="#191970" points="2133.7092,-223.7861 2123.3541,-221.5452 2130.0517,-229.7546 2133.7092,-223.7861"/>
</g>
<!-- Node73 -->
<g id="node49" class="node">
<title>Node73</title>
<g id="a_node49"><a xlink:href="EvolvingStellarZone_8h.html" target="_top" xlink:title="Declares a base class for all stellar zones. ">
<polygon fill="#ffffff" stroke="#ff0000" points="1428.5,-407 1428.5,-428 1563.5,-428 1563.5,-407 1428.5,-407"/>
<text text-anchor="middle" x="1496" y="-414.4" font-family="Helvetica,sans-Serif" font-size="12.00" fill="#000000">EvolvingStellarZone.h</text>
</a>
</g>
</g>
<!-- Node72&#45;&gt;Node73 -->
<g id="edge128" class="edge">
<title>Node72&#45;&gt;Node73</title>
<path fill="none" stroke="#191970" d="M1358.7144,-471.4934C1386.233,-460.6705 1429.3008,-443.7323 1459.8529,-431.7164"/>
<polygon fill="#191970" stroke="#191970" points="1461.2719,-434.9193 1469.297,-428.0021 1458.7098,-428.405 1461.2719,-434.9193"/>
</g>
<!-- Node73&#45;&gt;Node1 -->
<g id="edge129" class="edge">
<title>Node73&#45;&gt;Node1</title>
<path fill="none" stroke="#191970" d="M1428.3155,-409.0739C1360.3032,-396.6062 1258.8972,-366.1914 1211,-293 1202.4821,-279.9838 1207.0517,-273.0461 1211,-258 1232.3664,-176.577 1282.6336,-174.423 1304,-93 1306.4818,-83.5424 1308.814,-79.5106 1304,-71 1296.5719,-57.8679 1284.4892,-47.6044 1271.589,-39.7372"/>
<polygon fill="#191970" stroke="#191970" points="1273.0065,-36.5189 1262.5747,-34.6678 1269.5753,-42.6203 1273.0065,-36.5189"/>
</g>
<!-- Node73&#45;&gt;Node49 -->
<g id="edge131" class="edge">
<title>Node73&#45;&gt;Node49</title>
<path fill="none" stroke="#191970" d="M1540.5891,-406.9472C1594.0198,-394.302 1683.5319,-373.1174 1741.1478,-359.4817"/>
<polygon fill="#191970" stroke="#191970" points="1742.241,-362.8197 1751.1661,-357.1107 1740.6289,-356.0079 1742.241,-362.8197"/>
</g>
<!-- Node73&#45;&gt;Node53 -->
<g id="edge130" class="edge">
<title>Node73&#45;&gt;Node53</title>
<path fill="none" stroke="#191970" d="M1563.6651,-415.4031C1715.5371,-409.0838 2075.7471,-384.5532 2146,-293 2161.7431,-272.4837 2140.4858,-245.7609 2122.1698,-228.4926"/>
<polygon fill="#191970" stroke="#191970" points="2124.3974,-225.789 2114.6165,-221.7164 2119.7229,-230.9995 2124.3974,-225.789"/>
</g>
<!-- Node78&#45;&gt;Node73 -->
<g id="edge135" class="edge">
<title>Node78&#45;&gt;Node73</title>
<path fill="none" stroke="#191970" d="M1496,-471.3491C1496,-462.4397 1496,-449.4599 1496,-438.4761"/>
<polygon fill="#191970" stroke="#191970" points="1499.5001,-438.3822 1496,-428.3823 1492.5001,-438.3823 1499.5001,-438.3822"/>
</g>
</g>
</svg>
