<?xml version="1.0" encoding="UTF-8" standalone="no"?>
<!DOCTYPE svg PUBLIC "-//W3C//DTD SVG 1.1//EN"
 "http://www.w3.org/Graphics/SVG/1.1/DTD/svg11.dtd">
<!-- Generated by graphviz version 2.40.1 (20161225.0304)
 -->
<!-- Title: /home/kpenev/projects/git/poet/poet_src/Star/EvolvingStellarCore.h Pages: 1 -->
<svg width="3341pt" height="643pt"
 viewBox="0.00 0.00 3341.00 643.00" xmlns="http://www.w3.org/2000/svg" xmlns:xlink="http://www.w3.org/1999/xlink">
<g id="graph0" class="graph" transform="scale(1 1) rotate(0) translate(4 639)">
<title>/home/kpenev/projects/git/poet/poet_src/Star/EvolvingStellarCore.h</title>
<polygon fill="#ffffff" stroke="transparent" points="-4,4 -4,-639 3337,-639 3337,4 -4,4"/>
<!-- Node0 -->
<g id="node1" class="node">
<title>Node0</title>
<polygon fill="#bfbfbf" stroke="#000000" points="2110.5,-587.5 2110.5,-634.5 2247.5,-634.5 2247.5,-587.5 2110.5,-587.5"/>
<text text-anchor="start" x="2118.5" y="-620.9" font-family="Helvetica,sans-Serif" font-size="12.00" fill="#000000">/home/kpenev/projects</text>
<text text-anchor="start" x="2118.5" y="-607.9" font-family="Helvetica,sans-Serif" font-size="12.00" fill="#000000">/git/poet/poet_src/Star</text>
<text text-anchor="middle" x="2179" y="-594.9" font-family="Helvetica,sans-Serif" font-size="12.00" fill="#000000">/EvolvingStellarCore.h</text>
</g>
<!-- Node1 -->
<g id="node2" class="node">
<title>Node1</title>
<g id="a_node2"><a xlink:href="SharedLibraryExportMacros_8h_source.html" target="_top" xlink:title="../Core/SharedLibraryExport\lMacros.h">
<polygon fill="#ffffff" stroke="#000000" points="1509.5,-.5 1509.5,-34.5 1674.5,-34.5 1674.5,-.5 1509.5,-.5"/>
<text text-anchor="start" x="1517.5" y="-20.9" font-family="Helvetica,sans-Serif" font-size="12.00" fill="#000000">../Core/SharedLibraryExport</text>
<text text-anchor="middle" x="1592" y="-7.9" font-family="Helvetica,sans-Serif" font-size="12.00" fill="#000000">Macros.h</text>
</a>
</g>
</g>
<!-- Node0&#45;&gt;Node1 -->
<g id="edge1" class="edge">
<title>Node0&#45;&gt;Node1</title>
<path fill="none" stroke="#191970" d="M2110.4913,-610.4079C1740.7516,-606.7739 0,-583.9083 0,-475.5 0,-475.5 0,-475.5 0,-146.5 0,-104.1861 20.3764,-90.3631 58,-71 122.1847,-37.9671 1176.9622,-22.5223 1499.2234,-18.5595"/>
<polygon fill="#191970" stroke="#191970" points="1499.5037,-22.0565 1509.4602,-18.4345 1499.4182,-15.057 1499.5037,-22.0565"/>
</g>
<!-- Node2 -->
<g id="node3" class="node">
<title>Node2</title>
<g id="a_node3"><a xlink:href="EvolvingStellarZone_8h.html" target="_top" xlink:title="Declares a base class for all stellar zones. ">
<polygon fill="#ffffff" stroke="#000000" points="2159.5,-529.5 2159.5,-550.5 2294.5,-550.5 2294.5,-529.5 2159.5,-529.5"/>
<text text-anchor="middle" x="2227" y="-536.9" font-family="Helvetica,sans-Serif" font-size="12.00" fill="#000000">EvolvingStellarZone.h</text>
</a>
</g>
</g>
<!-- Node0&#45;&gt;Node2 -->
<g id="edge2" class="edge">
<title>Node0&#45;&gt;Node2</title>
<path fill="none" stroke="#191970" d="M2194.9833,-587.358C2201.2175,-578.1366 2208.267,-567.7092 2214.1611,-558.9908"/>
<polygon fill="#191970" stroke="#191970" points="2217.1013,-560.8909 2219.8026,-550.6462 2211.3022,-556.9704 2217.1013,-560.8909"/>
</g>
<!-- Node50 -->
<g id="node33" class="node">
<title>Node50</title>
<g id="a_node33"><a xlink:href="Functions_8h.html" target="_top" xlink:title="A hierarchy of classes representing functions. ">
<polygon fill="#ffffff" stroke="#000000" points="2011.5,-200.5 2011.5,-221.5 2128.5,-221.5 2128.5,-200.5 2011.5,-200.5"/>
<text text-anchor="middle" x="2070" y="-207.9" font-family="Helvetica,sans-Serif" font-size="12.00" fill="#000000">../Core/Functions.h</text>
</a>
</g>
</g>
<!-- Node0&#45;&gt;Node50 -->
<g id="edge132" class="edge">
<title>Node0&#45;&gt;Node50</title>
<path fill="none" stroke="#191970" d="M2157.6977,-587.4848C2136.7842,-561.8858 2108,-518.7897 2108,-475.5 2108,-475.5 2108,-475.5 2108,-333.5 2108,-295.8964 2091.4639,-254.5973 2080.2083,-230.8419"/>
<polygon fill="#191970" stroke="#191970" points="2083.3178,-229.2336 2075.7714,-221.797 2077.0332,-232.3165 2083.3178,-229.2336"/>
</g>
<!-- Node55 -->
<g id="node38" class="node">
<title>Node55</title>
<g id="a_node38"><a xlink:href="EvolvingStellarQuantity_8h.html" target="_top" xlink:title="Declares a class implementing the intepolation of a single stellar quantity from stellar evolution tr...">
<polygon fill="#ffffff" stroke="#000000" points="2377.5,-387.5 2377.5,-421.5 2532.5,-421.5 2532.5,-387.5 2377.5,-387.5"/>
<text text-anchor="start" x="2385.5" y="-407.9" font-family="Helvetica,sans-Serif" font-size="12.00" fill="#000000">../StellarEvolution</text>
<text text-anchor="middle" x="2455" y="-394.9" font-family="Helvetica,sans-Serif" font-size="12.00" fill="#000000">/EvolvingStellarQuantity.h</text>
</a>
</g>
</g>
<!-- Node0&#45;&gt;Node55 -->
<g id="edge133" class="edge">
<title>Node0&#45;&gt;Node55</title>
<path fill="none" stroke="#191970" d="M2238.0996,-587.3754C2259.6895,-577.5427 2283.7607,-565.1124 2304,-551 2355.7067,-514.9461 2406.3218,-460.9247 2433.8187,-429.5457"/>
<polygon fill="#191970" stroke="#191970" points="2436.7115,-431.5522 2440.6206,-421.7049 2431.4238,-426.9651 2436.7115,-431.5522"/>
</g>
<!-- Node2&#45;&gt;Node1 -->
<g id="edge3" class="edge">
<title>Node2&#45;&gt;Node1</title>
<path fill="none" stroke="#191970" d="M2294.5204,-538.8651C2534.6493,-533.9474 3333,-509.6882 3333,-404.5 3333,-404.5 3333,-404.5 3333,-269 3333,-105.8913 3179.649,-119.7631 3024,-71 2897.0096,-31.2153 1981.972,-20.5617 1684.8842,-18.1357"/>
<polygon fill="#191970" stroke="#191970" points="1684.6068,-14.6334 1674.5789,-18.0528 1684.5504,-21.6332 1684.6068,-14.6334"/>
</g>
<!-- Node3 -->
<g id="node4" class="node">
<title>Node3</title>
<g id="a_node4"><a xlink:href="BrokenPowerlawPhaseLagZone_8h.html" target="_top" xlink:title="Declares the class that provides the phase lag function to DissipatingZone objects. ">
<polygon fill="#ffffff" stroke="#000000" points="796.5,-458.5 796.5,-492.5 953.5,-492.5 953.5,-458.5 796.5,-458.5"/>
<text text-anchor="start" x="804.5" y="-478.9" font-family="Helvetica,sans-Serif" font-size="12.00" fill="#000000">../Evolve/BrokenPowerlaw</text>
<text text-anchor="middle" x="875" y="-465.9" font-family="Helvetica,sans-Serif" font-size="12.00" fill="#000000">PhaseLagZone.h</text>
</a>
</g>
</g>
<!-- Node2&#45;&gt;Node3 -->
<g id="edge4" class="edge">
<title>Node2&#45;&gt;Node3</title>
<path fill="none" stroke="#191970" d="M2159.4915,-536.7794C1935.4495,-526.091 1216.452,-491.7897 963.8011,-479.7364"/>
<polygon fill="#191970" stroke="#191970" points="963.7217,-476.2288 953.5662,-479.2482 963.388,-483.2208 963.7217,-476.2288"/>
</g>
<!-- Node2&#45;&gt;Node50 -->
<g id="edge69" class="edge">
<title>Node2&#45;&gt;Node50</title>
<path fill="none" stroke="#191970" d="M2230.1019,-529.2161C2236.3799,-506.4069 2250,-451.5058 2250,-404.5 2250,-404.5 2250,-404.5 2250,-333.5 2250,-273.1827 2180.0664,-240.4649 2127.3803,-224.3748"/>
<polygon fill="#191970" stroke="#191970" points="2128.3446,-221.0102 2117.7641,-221.561 2126.3787,-227.7285 2128.3446,-221.0102"/>
</g>
<!-- Node2&#45;&gt;Node55 -->
<g id="edge83" class="edge">
<title>Node2&#45;&gt;Node55</title>
<path fill="none" stroke="#191970" d="M2244.8908,-529.3675C2281.951,-507.3427 2367.7946,-456.326 2417.5296,-426.7686"/>
<polygon fill="#191970" stroke="#191970" points="2419.5677,-429.6288 2426.3761,-421.5111 2415.9915,-423.6113 2419.5677,-429.6288"/>
</g>
<!-- Node66 -->
<g id="node50" class="node">
<title>Node66</title>
<polygon fill="#ffffff" stroke="#bfbfbf" points="2136,-465 2136,-486 2222,-486 2222,-465 2136,-465"/>
<text text-anchor="middle" x="2179" y="-472.4" font-family="Helvetica,sans-Serif" font-size="12.00" fill="#000000">initializer_list</text>
</g>
<!-- Node2&#45;&gt;Node66 -->
<g id="edge131" class="edge">
<title>Node2&#45;&gt;Node66</title>
<path fill="none" stroke="#191970" d="M2219.0738,-529.3491C2212.0291,-519.8829 2201.5649,-505.8216 2193.096,-494.4415"/>
<polygon fill="#191970" stroke="#191970" points="2195.8764,-492.3151 2187.0984,-486.3823 2190.2608,-496.4942 2195.8764,-492.3151"/>
</g>
<!-- Node3&#45;&gt;Node1 -->
<g id="edge5" class="edge">
<title>Node3&#45;&gt;Node1</title>
<path fill="none" stroke="#191970" d="M796.2571,-470.3738C587.8975,-455.7625 38,-409.958 38,-333.5 38,-333.5 38,-333.5 38,-146.5 38,-103.6388 59.7387,-90.3174 98,-71 160.5997,-39.3946 1182.5929,-23.0197 1499.2289,-18.6879"/>
<polygon fill="#191970" stroke="#191970" points="1499.3407,-22.1868 1509.2921,-18.551 1499.2454,-15.1874 1499.3407,-22.1868"/>
</g>
<!-- Node4 -->
<g id="node5" class="node">
<title>Node4</title>
<g id="a_node5"><a xlink:href="DissipatingZone_8h.html" target="_top" xlink:title="Declares a class representing one zone of a body dissipative to tidal distortions. ">
<polygon fill="#ffffff" stroke="#ff0000" points="622,-258.5 622,-279.5 736,-279.5 736,-258.5 622,-258.5"/>
<text text-anchor="middle" x="679" y="-265.9" font-family="Helvetica,sans-Serif" font-size="12.00" fill="#000000">DissipatingZone.h</text>
</a>
</g>
</g>
<!-- Node3&#45;&gt;Node4 -->
<g id="edge6" class="edge">
<title>Node3&#45;&gt;Node4</title>
<path fill="none" stroke="#191970" d="M834.1327,-458.4281C814.5788,-449.2047 791.465,-436.6903 773,-422 740.4438,-396.0991 733.61,-386.5496 712,-351 699.9859,-331.2363 690.6798,-306.3212 685.0574,-289.171"/>
<polygon fill="#191970" stroke="#191970" points="688.3881,-288.095 682.0414,-279.6115 681.7124,-290.2012 688.3881,-288.095"/>
</g>
<!-- Node41 -->
<g id="node28" class="node">
<title>Node41</title>
<g id="a_node28"><a xlink:href="DissipatingBody_8h.html" target="_top" xlink:title="Declares the DissipatingBody class. ">
<polygon fill="#ffffff" stroke="#ff0000" points="721,-323 721,-344 835,-344 835,-323 721,-323"/>
<text text-anchor="middle" x="778" y="-330.4" font-family="Helvetica,sans-Serif" font-size="12.00" fill="#000000">DissipatingBody.h</text>
</a>
</g>
</g>
<!-- Node3&#45;&gt;Node41 -->
<g id="edge43" class="edge">
<title>Node3&#45;&gt;Node41</title>
<path fill="none" stroke="#191970" d="M831.8147,-458.3347C815.8239,-449.7974 799.1368,-437.8505 789,-422 775.9603,-401.6103 774.7439,-373.1231 775.7735,-354.03"/>
<polygon fill="#191970" stroke="#191970" points="779.2669,-354.2511 776.5669,-344.0061 772.2887,-353.6987 779.2669,-354.2511"/>
</g>
<!-- Node43 -->
<g id="node29" class="node">
<title>Node43</title>
<g id="a_node29"><a xlink:href="BinarySystem_8h.html" target="_top" xlink:title="Defines the BinarySystem class. ">
<polygon fill="#ffffff" stroke="#ff0000" points="1155.5,-394 1155.5,-415 1256.5,-415 1256.5,-394 1155.5,-394"/>
<text text-anchor="middle" x="1206" y="-401.4" font-family="Helvetica,sans-Serif" font-size="12.00" fill="#000000">BinarySystem.h</text>
</a>
</g>
</g>
<!-- Node3&#45;&gt;Node43 -->
<g id="edge50" class="edge">
<title>Node3&#45;&gt;Node43</title>
<path fill="none" stroke="#191970" d="M953.6733,-461.8788C1007.98,-452.0103 1081.7065,-437.6896 1146,-422 1151.2707,-420.7138 1156.7713,-419.2624 1162.211,-417.7595"/>
<polygon fill="#191970" stroke="#191970" points="1163.2059,-421.1155 1171.8739,-415.0231 1161.2985,-414.3803 1163.2059,-421.1155"/>
</g>
<!-- Node48 -->
<g id="node30" class="node">
<title>Node48</title>
<g id="a_node30"><a xlink:href="LagForcingFrequencyBreakCondition_8h.html" target="_top" xlink:title="Declares a stopping condition satisfied when a forcing frequency reaches a critical value...">
<polygon fill="#ffffff" stroke="#ff0000" points="971,-387.5 971,-421.5 1137,-421.5 1137,-387.5 971,-387.5"/>
<text text-anchor="start" x="979" y="-407.9" font-family="Helvetica,sans-Serif" font-size="12.00" fill="#000000">LagForcingFrequencyBreak</text>
<text text-anchor="middle" x="1054" y="-394.9" font-family="Helvetica,sans-Serif" font-size="12.00" fill="#000000">Condition.h</text>
</a>
</g>
</g>
<!-- Node3&#45;&gt;Node48 -->
<g id="edge59" class="edge">
<title>Node3&#45;&gt;Node48</title>
<path fill="none" stroke="#191970" d="M917.875,-458.4937C942.9306,-448.5555 974.7501,-435.9343 1001.3238,-425.3939"/>
<polygon fill="#191970" stroke="#191970" points="1002.8495,-428.5541 1010.8545,-421.6136 1000.2685,-422.0473 1002.8495,-428.5541"/>
</g>
<!-- Node49 -->
<g id="node32" class="node">
<title>Node49</title>
<g id="a_node32"><a xlink:href="LagSpinBreakCondition_8h.html" target="_top" xlink:title="Declares a stopping condition monitoring for critical spin frequencies. ">
<polygon fill="#ffffff" stroke="#ff0000" points="797.5,-394 797.5,-415 952.5,-415 952.5,-394 797.5,-394"/>
<text text-anchor="middle" x="875" y="-401.4" font-family="Helvetica,sans-Serif" font-size="12.00" fill="#000000">LagSpinBreakCondition.h</text>
</a>
</g>
</g>
<!-- Node3&#45;&gt;Node49 -->
<g id="edge64" class="edge">
<title>Node3&#45;&gt;Node49</title>
<path fill="none" stroke="#191970" d="M875,-458.3129C875,-448.4273 875,-435.9327 875,-425.472"/>
<polygon fill="#191970" stroke="#191970" points="878.5001,-425.139 875,-415.139 871.5001,-425.139 878.5001,-425.139"/>
</g>
<!-- Node4&#45;&gt;Node1 -->
<g id="edge34" class="edge">
<title>Node4&#45;&gt;Node1</title>
<path fill="none" stroke="#191970" d="M621.9781,-267.2162C550.9753,-263.6904 426.6453,-253.2002 325,-222 269.8966,-205.0859 241.0082,-211.9369 209,-164 186.0143,-129.5756 175.2999,-100.8276 204,-71 226.4869,-47.6297 1191.8283,-25.7481 1499.1027,-19.3643"/>
<polygon fill="#191970" stroke="#191970" points="1499.3904,-22.8592 1509.3158,-19.1528 1499.2454,-15.8607 1499.3904,-22.8592"/>
</g>
<!-- Node5 -->
<g id="node6" class="node">
<title>Node5</title>
<g id="a_node6"><a xlink:href="ZoneOrientation_8h.html" target="_top" xlink:title="Declares a class for orientations of zones of DissipatingBody objects. ">
<polygon fill="#ffffff" stroke="#000000" points="367.5,-200.5 367.5,-221.5 480.5,-221.5 480.5,-200.5 367.5,-200.5"/>
<text text-anchor="middle" x="424" y="-207.9" font-family="Helvetica,sans-Serif" font-size="12.00" fill="#000000">ZoneOrientation.h</text>
</a>
</g>
</g>
<!-- Node4&#45;&gt;Node5 -->
<g id="edge7" class="edge">
<title>Node4&#45;&gt;Node5</title>
<path fill="none" stroke="#191970" d="M632.8214,-258.4966C589.8998,-248.7341 525.8758,-234.1718 480.0445,-223.7474"/>
<polygon fill="#191970" stroke="#191970" points="480.7924,-220.3282 470.2652,-221.5231 479.2399,-227.1538 480.7924,-220.3282"/>
</g>
<!-- Node6 -->
<g id="node7" class="node">
<title>Node6</title>
<g id="a_node7"><a xlink:href="DissipationQuantities_8h.html" target="_top" xlink:title="Declaration of enumerations of dissipation quantities and derivatives. ">
<polygon fill="#ffffff" stroke="#ff0000" points="218,-136 218,-157 358,-157 358,-136 218,-136"/>
<text text-anchor="middle" x="288" y="-143.4" font-family="Helvetica,sans-Serif" font-size="12.00" fill="#000000">DissipationQuantities.h</text>
</a>
</g>
</g>
<!-- Node4&#45;&gt;Node6 -->
<g id="edge40" class="edge">
<title>Node4&#45;&gt;Node6</title>
<path fill="none" stroke="#191970" d="M621.7896,-265.1969C542.1654,-259.1349 402.6751,-245.5021 358,-222 333.0786,-208.8897 312.3208,-183.3233 300.0398,-165.5963"/>
<polygon fill="#191970" stroke="#191970" points="302.8696,-163.5311 294.4132,-157.1483 297.0435,-167.4115 302.8696,-163.5311"/>
</g>
<!-- Node9 -->
<g id="node9" class="node">
<title>Node9</title>
<g id="a_node9"><a xlink:href="Core_2Common_8h.html" target="_top" xlink:title="Declaration of some general purpose utilities. ">
<polygon fill="#ffffff" stroke="#000000" points="920.5,-136 920.5,-157 1033.5,-157 1033.5,-136 920.5,-136"/>
<text text-anchor="middle" x="977" y="-143.4" font-family="Helvetica,sans-Serif" font-size="12.00" fill="#000000">../Core/Common.h</text>
</a>
</g>
</g>
<!-- Node4&#45;&gt;Node9 -->
<g id="edge41" class="edge">
<title>Node4&#45;&gt;Node9</title>
<path fill="none" stroke="#191970" d="M700.1301,-258.2771C728.4266,-244.1044 780.362,-218.7427 826,-200 862.058,-185.1916 903.8943,-170.5619 934.3738,-160.3538"/>
<polygon fill="#191970" stroke="#191970" points="935.8667,-163.5458 944.2502,-157.0676 933.6567,-156.9038 935.8667,-163.5458"/>
</g>
<!-- Node11 -->
<g id="node11" class="node">
<title>Node11</title>
<polygon fill="#ffffff" stroke="#bfbfbf" points="1328.5,-71.5 1328.5,-92.5 1387.5,-92.5 1387.5,-71.5 1328.5,-71.5"/>
<text text-anchor="middle" x="1358" y="-78.9" font-family="Helvetica,sans-Serif" font-size="12.00" fill="#000000">valarray</text>
</g>
<!-- Node4&#45;&gt;Node11 -->
<g id="edge42" class="edge">
<title>Node4&#45;&gt;Node11</title>
<path fill="none" stroke="#191970" d="M722.7576,-258.4344C791.7378,-241.3213 929.5834,-205.2645 1043,-164 1079.0883,-150.8699 1085.295,-140.2919 1122,-129 1204.4833,-103.6248 1231.0662,-112.7508 1318.4097,-93.1914"/>
<polygon fill="#191970" stroke="#191970" points="1319.2454,-96.5906 1328.2051,-90.936 1317.6747,-89.7691 1319.2454,-96.5906"/>
</g>
<!-- Node21 -->
<g id="node21" class="node">
<title>Node21</title>
<g id="a_node21"><a xlink:href="Error_8h.html" target="_top" xlink:title="Defines the exception hierarchy used by this code. ">
<polygon fill="#ffffff" stroke="#000000" points="2842.5,-71.5 2842.5,-92.5 2895.5,-92.5 2895.5,-71.5 2842.5,-71.5"/>
<text text-anchor="middle" x="2869" y="-78.9" font-family="Helvetica,sans-Serif" font-size="12.00" fill="#000000">Error.h</text>
</a>
</g>
</g>
<!-- Node4&#45;&gt;Node21 -->
<g id="edge35" class="edge">
<title>Node4&#45;&gt;Node21</title>
<path fill="none" stroke="#191970" d="M736.055,-267.8906C1032.4402,-262.079 2386.1481,-234.9198 2474,-222 2571.0695,-207.7247 2594.6539,-197.1432 2687,-164 2742.0101,-144.2568 2803.5259,-114.94 2839.1029,-97.2312"/>
<polygon fill="#191970" stroke="#191970" points="2841.0498,-100.1706 2848.4226,-92.5619 2837.9142,-93.9121 2841.0498,-100.1706"/>
</g>
<!-- Node27 -->
<g id="node26" class="node">
<title>Node27</title>
<g id="a_node26"><a xlink:href="TidalPotentialTerms_8h.html" target="_top" xlink:title="Declare an interface for evaluating the expansion of the tidal potential. ">
<polygon fill="#ffffff" stroke="#ff0000" points="1020,-200.5 1020,-221.5 1154,-221.5 1154,-200.5 1020,-200.5"/>
<text text-anchor="middle" x="1087" y="-207.9" font-family="Helvetica,sans-Serif" font-size="12.00" fill="#000000">TidalPotentialTerms.h</text>
</a>
</g>
</g>
<!-- Node4&#45;&gt;Node27 -->
<g id="edge36" class="edge">
<title>Node4&#45;&gt;Node27</title>
<path fill="none" stroke="#191970" d="M736.1603,-260.8743C807.5626,-250.724 930.0207,-233.3157 1009.7312,-221.9843"/>
<polygon fill="#191970" stroke="#191970" points="1010.309,-225.4374 1019.7169,-220.5648 1009.3238,-218.5071 1010.309,-225.4374"/>
</g>
<!-- Node5&#45;&gt;Node1 -->
<g id="edge8" class="edge">
<title>Node5&#45;&gt;Node1</title>
<path fill="none" stroke="#191970" d="M419.5298,-200.4881C411.563,-183.0138 393.2469,-148.0328 367,-129 319.045,-94.2256 205.9545,-113.7107 247,-71 268.7041,-48.4154 1197.9375,-26.1249 1498.9528,-19.4851"/>
<polygon fill="#191970" stroke="#191970" points="1499.4727,-22.9746 1509.3933,-19.2555 1499.3188,-15.9763 1499.4727,-22.9746"/>
</g>
<!-- Node5&#45;&gt;Node6 -->
<g id="edge9" class="edge">
<title>Node5&#45;&gt;Node6</title>
<path fill="none" stroke="#191970" d="M401.8466,-200.4934C379.4214,-189.8579 344.5445,-173.3171 319.301,-161.345"/>
<polygon fill="#191970" stroke="#191970" points="320.6791,-158.1249 310.144,-157.0021 317.6795,-164.4497 320.6791,-158.1249"/>
</g>
<!-- Node5&#45;&gt;Node9 -->
<g id="edge12" class="edge">
<title>Node5&#45;&gt;Node9</title>
<path fill="none" stroke="#191970" d="M480.5819,-204.4005C583.488,-192.3979 800.763,-167.0557 910.5381,-154.2519"/>
<polygon fill="#191970" stroke="#191970" points="910.9709,-157.7252 920.4981,-153.0902 910.1599,-150.7724 910.9709,-157.7252"/>
</g>
<!-- Node25 -->
<g id="node25" class="node">
<title>Node25</title>
<g id="a_node25"><a xlink:href="IncludeEigen_8h_source.html" target="_top" xlink:title="IncludeEigen.h">
<polygon fill="#ffffff" stroke="#ff0000" points="329.5,-71.5 329.5,-92.5 426.5,-92.5 426.5,-71.5 329.5,-71.5"/>
<text text-anchor="middle" x="378" y="-78.9" font-family="Helvetica,sans-Serif" font-size="12.00" fill="#000000">IncludeEigen.h</text>
</a>
</g>
</g>
<!-- Node5&#45;&gt;Node25 -->
<g id="edge33" class="edge">
<title>Node5&#45;&gt;Node25</title>
<path fill="none" stroke="#191970" d="M421.4707,-200.4765C417.5578,-184.7073 409.4897,-154.1153 400,-129 396.5589,-119.8926 392.1028,-110.0994 388.1018,-101.8221"/>
<polygon fill="#191970" stroke="#191970" points="391.1213,-100.0326 383.546,-92.6255 384.8487,-103.1399 391.1213,-100.0326"/>
</g>
<!-- Node6&#45;&gt;Node1 -->
<g id="edge10" class="edge">
<title>Node6&#45;&gt;Node1</title>
<path fill="none" stroke="#191970" d="M264.2762,-135.8094C234.9803,-121.2357 191.606,-94.2803 214,-71 236.3091,-47.808 1193.6098,-25.826 1499.2455,-19.388"/>
<polygon fill="#191970" stroke="#191970" points="1499.4809,-22.8839 1509.4052,-19.1746 1499.3339,-15.8854 1499.4809,-22.8839"/>
</g>
<!-- Node8 -->
<g id="node8" class="node">
<title>Node8</title>
<polygon fill="#ffffff" stroke="#bfbfbf" points="256.5,-71.5 256.5,-92.5 311.5,-92.5 311.5,-71.5 256.5,-71.5"/>
<text text-anchor="middle" x="284" y="-78.9" font-family="Helvetica,sans-Serif" font-size="12.00" fill="#000000">cassert</text>
</g>
<!-- Node6&#45;&gt;Node8 -->
<g id="edge11" class="edge">
<title>Node6&#45;&gt;Node8</title>
<path fill="none" stroke="#191970" d="M287.3395,-135.8491C286.787,-126.9397 285.982,-113.9599 285.3008,-102.9761"/>
<polygon fill="#191970" stroke="#191970" points="288.7872,-102.6464 284.6749,-92.8823 281.8006,-103.0798 288.7872,-102.6464"/>
</g>
<!-- Node9&#45;&gt;Node1 -->
<g id="edge25" class="edge">
<title>Node9&#45;&gt;Node1</title>
<path fill="none" stroke="#191970" d="M1019.2451,-135.9916C1067.7716,-123.7306 1144.2654,-103.768 1172,-93 1192.0118,-85.2304 1194.5361,-77.4861 1215,-71 1309.0832,-41.1799 1421.6515,-27.9455 1499.1455,-22.0936"/>
<polygon fill="#191970" stroke="#191970" points="1499.6472,-25.5665 1509.3665,-21.3492 1499.1387,-18.585 1499.6472,-25.5665"/>
</g>
<!-- Node9&#45;&gt;Node8 -->
<g id="edge24" class="edge">
<title>Node9&#45;&gt;Node8</title>
<path fill="none" stroke="#191970" d="M920.3761,-143.4596C786.5479,-136.0275 452.7385,-115.9869 321.9318,-93.0021"/>
<polygon fill="#191970" stroke="#191970" points="322.2278,-89.4978 311.7592,-91.1284 320.9597,-96.382 322.2278,-89.4978"/>
</g>
<!-- Node10 -->
<g id="node10" class="node">
<title>Node10</title>
<polygon fill="#ffffff" stroke="#bfbfbf" points="1848,-71.5 1848,-92.5 1880,-92.5 1880,-71.5 1848,-71.5"/>
<text text-anchor="middle" x="1864" y="-78.9" font-family="Helvetica,sans-Serif" font-size="12.00" fill="#000000">list</text>
</g>
<!-- Node9&#45;&gt;Node10 -->
<g id="edge13" class="edge">
<title>Node9&#45;&gt;Node10</title>
<path fill="none" stroke="#191970" d="M1033.8352,-142.3671C1205.6955,-129.8699 1715.5825,-92.7925 1837.5663,-83.9222"/>
<polygon fill="#191970" stroke="#191970" points="1838.1148,-87.3916 1847.8346,-83.1755 1837.607,-80.4101 1838.1148,-87.3916"/>
</g>
<!-- Node9&#45;&gt;Node11 -->
<g id="edge14" class="edge">
<title>Node9&#45;&gt;Node11</title>
<path fill="none" stroke="#191970" d="M1016.6357,-135.9132C1026.8098,-133.4212 1037.7706,-130.9315 1048,-129 1164.6662,-106.9708 1198.8606,-117.4336 1318.338,-93.1268"/>
<polygon fill="#191970" stroke="#191970" points="1319.1549,-96.532 1328.2358,-91.0742 1317.7334,-89.6778 1319.1549,-96.532"/>
</g>
<!-- Node12 -->
<g id="node12" class="node">
<title>Node12</title>
<polygon fill="#ffffff" stroke="#bfbfbf" points="1482,-71.5 1482,-92.5 1526,-92.5 1526,-71.5 1482,-71.5"/>
<text text-anchor="middle" x="1504" y="-78.9" font-family="Helvetica,sans-Serif" font-size="12.00" fill="#000000">limits</text>
</g>
<!-- Node9&#45;&gt;Node12 -->
<g id="edge15" class="edge">
<title>Node9&#45;&gt;Node12</title>
<path fill="none" stroke="#191970" d="M1033.6484,-139.5668C1144.0218,-126.0581 1384.6779,-96.6039 1471.7452,-85.9477"/>
<polygon fill="#191970" stroke="#191970" points="1472.3168,-89.4039 1481.8176,-84.7149 1471.4664,-82.4558 1472.3168,-89.4039"/>
</g>
<!-- Node13 -->
<g id="node13" class="node">
<title>Node13</title>
<polygon fill="#ffffff" stroke="#bfbfbf" points="2933.5,-71.5 2933.5,-92.5 2992.5,-92.5 2992.5,-71.5 2933.5,-71.5"/>
<text text-anchor="middle" x="2963" y="-78.9" font-family="Helvetica,sans-Serif" font-size="12.00" fill="#000000">sstream</text>
</g>
<!-- Node9&#45;&gt;Node13 -->
<g id="edge16" class="edge">
<title>Node9&#45;&gt;Node13</title>
<path fill="none" stroke="#191970" d="M1033.6494,-141.9941C1086.8843,-137.9346 1168.7968,-132.1371 1240,-129 1609.7278,-112.7103 2536.9333,-131.6124 2905,-93 2910.9422,-92.3766 2917.1858,-91.4667 2923.2854,-90.4331"/>
<polygon fill="#191970" stroke="#191970" points="2924.1234,-93.8382 2933.3359,-88.6056 2922.871,-86.9512 2924.1234,-93.8382"/>
</g>
<!-- Node14 -->
<g id="node14" class="node">
<title>Node14</title>
<polygon fill="#ffffff" stroke="#bfbfbf" points="2879,-7 2879,-28 2941,-28 2941,-7 2879,-7"/>
<text text-anchor="middle" x="2910" y="-14.4" font-family="Helvetica,sans-Serif" font-size="12.00" fill="#000000">iostream</text>
</g>
<!-- Node9&#45;&gt;Node14 -->
<g id="edge17" class="edge">
<title>Node9&#45;&gt;Node14</title>
<path fill="none" stroke="#191970" d="M1019.3927,-135.9114C1028.8033,-133.5998 1038.734,-131.1907 1048,-129 1118.5115,-112.3294 1139.0019,-118.0208 1207,-93 1226.7762,-85.7231 1228.595,-76.2616 1249,-71 1597.8986,18.9657 2518.1629,-112.6836 2870,-35 2873.4349,-34.2416 2876.9388,-33.1831 2880.374,-31.9582"/>
<polygon fill="#191970" stroke="#191970" points="2881.7912,-35.1607 2889.7583,-28.1767 2879.1749,-28.668 2881.7912,-35.1607"/>
</g>
<!-- Node15 -->
<g id="node15" class="node">
<title>Node15</title>
<polygon fill="#ffffff" stroke="#bfbfbf" points="1257.5,-71.5 1257.5,-92.5 1310.5,-92.5 1310.5,-71.5 1257.5,-71.5"/>
<text text-anchor="middle" x="1284" y="-78.9" font-family="Helvetica,sans-Serif" font-size="12.00" fill="#000000">iterator</text>
</g>
<!-- Node9&#45;&gt;Node15 -->
<g id="edge18" class="edge">
<title>Node9&#45;&gt;Node15</title>
<path fill="none" stroke="#191970" d="M1017.8281,-135.999C1027.6809,-133.5862 1038.1955,-131.1114 1048,-129 1134.1561,-110.4463 1157.0382,-112.434 1243,-93 1244.4377,-92.675 1245.901,-92.3336 1247.3771,-91.9804"/>
<polygon fill="#191970" stroke="#191970" points="1248.3206,-95.3523 1257.1697,-89.5261 1246.6188,-88.5623 1248.3206,-95.3523"/>
</g>
<!-- Node16 -->
<g id="node16" class="node">
<title>Node16</title>
<polygon fill="#ffffff" stroke="#bfbfbf" points="613,-71.5 613,-92.5 713,-92.5 713,-71.5 613,-71.5"/>
<text text-anchor="middle" x="663" y="-78.9" font-family="Helvetica,sans-Serif" font-size="12.00" fill="#000000">gsl/gsl_vector.h</text>
</g>
<!-- Node9&#45;&gt;Node16 -->
<g id="edge19" class="edge">
<title>Node9&#45;&gt;Node16</title>
<path fill="none" stroke="#191970" d="M925.7602,-135.9453C914.6304,-133.6542 902.9208,-131.2449 892,-129 834.5929,-117.1993 769.0856,-103.757 722.8826,-94.2798"/>
<polygon fill="#191970" stroke="#191970" points="723.5341,-90.8406 713.0347,-92.2599 722.1275,-97.6979 723.5341,-90.8406"/>
</g>
<!-- Node17 -->
<g id="node17" class="node">
<title>Node17</title>
<polygon fill="#ffffff" stroke="#bfbfbf" points="731,-71.5 731,-92.5 831,-92.5 831,-71.5 731,-71.5"/>
<text text-anchor="middle" x="781" y="-78.9" font-family="Helvetica,sans-Serif" font-size="12.00" fill="#000000">gsl/gsl_matrix.h</text>
</g>
<!-- Node9&#45;&gt;Node17 -->
<g id="edge20" class="edge">
<title>Node9&#45;&gt;Node17</title>
<path fill="none" stroke="#191970" d="M945.073,-135.9934C911.7578,-125.03 859.3736,-107.7913 822.7853,-95.7508"/>
<polygon fill="#191970" stroke="#191970" points="823.5063,-92.3035 812.9133,-92.5021 821.3181,-98.9527 823.5063,-92.3035"/>
</g>
<!-- Node18 -->
<g id="node18" class="node">
<title>Node18</title>
<polygon fill="#ffffff" stroke="#bfbfbf" points="849.5,-71.5 849.5,-92.5 946.5,-92.5 946.5,-71.5 849.5,-71.5"/>
<text text-anchor="middle" x="898" y="-78.9" font-family="Helvetica,sans-Serif" font-size="12.00" fill="#000000">gsl/gsl_linalg.h</text>
</g>
<!-- Node9&#45;&gt;Node18 -->
<g id="edge21" class="edge">
<title>Node9&#45;&gt;Node18</title>
<path fill="none" stroke="#191970" d="M963.9548,-135.8491C951.7188,-125.859 933.2147,-110.7512 918.9174,-99.0781"/>
<polygon fill="#191970" stroke="#191970" points="921.0243,-96.2799 911.0646,-92.6667 916.5972,-101.7022 921.0243,-96.2799"/>
</g>
<!-- Node19 -->
<g id="node19" class="node">
<title>Node19</title>
<polygon fill="#ffffff" stroke="#bfbfbf" points="965,-71.5 965,-92.5 1055,-92.5 1055,-71.5 965,-71.5"/>
<text text-anchor="middle" x="1010" y="-78.9" font-family="Helvetica,sans-Serif" font-size="12.00" fill="#000000">gsl/gsl_blas.h</text>
</g>
<!-- Node9&#45;&gt;Node19 -->
<g id="edge22" class="edge">
<title>Node9&#45;&gt;Node19</title>
<path fill="none" stroke="#191970" d="M982.4493,-135.8491C987.15,-126.6613 994.0655,-113.1447 999.7918,-101.9524"/>
<polygon fill="#191970" stroke="#191970" points="1002.9934,-103.3789 1004.4323,-92.8823 996.7616,-100.1906 1002.9934,-103.3789"/>
</g>
<!-- Node20 -->
<g id="node20" class="node">
<title>Node20</title>
<polygon fill="#ffffff" stroke="#bfbfbf" points="1073,-71.5 1073,-92.5 1163,-92.5 1163,-71.5 1073,-71.5"/>
<text text-anchor="middle" x="1118" y="-78.9" font-family="Helvetica,sans-Serif" font-size="12.00" fill="#000000">gsl/gsl_poly.h</text>
</g>
<!-- Node9&#45;&gt;Node20 -->
<g id="edge23" class="edge">
<title>Node9&#45;&gt;Node20</title>
<path fill="none" stroke="#191970" d="M999.9679,-135.9934C1023.3199,-125.3111 1059.6955,-108.6712 1085.8935,-96.687"/>
<polygon fill="#191970" stroke="#191970" points="1087.4042,-99.8448 1095.0419,-92.5021 1084.4922,-93.4792 1087.4042,-99.8448"/>
</g>
<!-- Node9&#45;&gt;Node21 -->
<g id="edge26" class="edge">
<title>Node9&#45;&gt;Node21</title>
<path fill="none" stroke="#191970" d="M1033.6548,-142.1125C1086.8936,-138.1361 1168.8086,-132.3943 1240,-129 1876.9883,-98.629 2655.0939,-85.3042 2832.0333,-82.5524"/>
<polygon fill="#191970" stroke="#191970" points="2832.1733,-86.0507 2842.1182,-82.3969 2832.0654,-79.0516 2832.1733,-86.0507"/>
</g>
<!-- Node24 -->
<g id="node24" class="node">
<title>Node24</title>
<g id="a_node24"><a xlink:href="AstronomicalConstants_8h.html" target="_top" xlink:title="Defines various astronomical constants. ">
<polygon fill="#ffffff" stroke="#000000" points="445,-71.5 445,-92.5 595,-92.5 595,-71.5 445,-71.5"/>
<text text-anchor="middle" x="520" y="-78.9" font-family="Helvetica,sans-Serif" font-size="12.00" fill="#000000">AstronomicalConstants.h</text>
</a>
</g>
</g>
<!-- Node9&#45;&gt;Node24 -->
<g id="edge31" class="edge">
<title>Node9&#45;&gt;Node24</title>
<path fill="none" stroke="#191970" d="M929.0237,-135.9354C916.9715,-133.4711 904.0407,-130.9889 892,-129 767.9599,-108.5113 733.6779,-109.3182 605.329,-93.1555"/>
<polygon fill="#191970" stroke="#191970" points="605.4642,-89.6447 595.103,-91.8571 604.5824,-96.5889 605.4642,-89.6447"/>
</g>
<!-- Node9&#45;&gt;Node25 -->
<g id="edge32" class="edge">
<title>Node9&#45;&gt;Node25</title>
<path fill="none" stroke="#191970" d="M920.3337,-142.5624C823.4069,-135.4625 619.4032,-118.9323 436.7415,-92.9987"/>
<polygon fill="#191970" stroke="#191970" points="437.077,-89.5111 426.6817,-91.5577 436.0843,-96.4404 437.077,-89.5111"/>
</g>
<!-- Node21&#45;&gt;Node1 -->
<g id="edge27" class="edge">
<title>Node21&#45;&gt;Node1</title>
<path fill="none" stroke="#191970" d="M2842.4225,-75.4973C2834.3091,-73.7508 2825.3305,-72.0557 2817,-71 2598.2632,-43.2801 1931.4282,-25.3907 1684.8996,-19.5727"/>
<polygon fill="#191970" stroke="#191970" points="1684.6187,-16.0652 1674.5392,-19.3295 1684.4543,-23.0633 1684.6187,-16.0652"/>
</g>
<!-- Node21&#45;&gt;Node14 -->
<g id="edge28" class="edge">
<title>Node21&#45;&gt;Node14</title>
<path fill="none" stroke="#191970" d="M2875.7703,-71.3491C2881.6697,-62.0685 2890.3764,-48.3712 2897.5322,-37.114"/>
<polygon fill="#191970" stroke="#191970" points="2900.6718,-38.6992 2903.0826,-28.3823 2894.7643,-34.944 2900.6718,-38.6992"/>
</g>
<!-- Node22 -->
<g id="node22" class="node">
<title>Node22</title>
<polygon fill="#ffffff" stroke="#bfbfbf" points="2793,-7 2793,-28 2861,-28 2861,-7 2793,-7"/>
<text text-anchor="middle" x="2827" y="-14.4" font-family="Helvetica,sans-Serif" font-size="12.00" fill="#000000">exception</text>
</g>
<!-- Node21&#45;&gt;Node22 -->
<g id="edge29" class="edge">
<title>Node21&#45;&gt;Node22</title>
<path fill="none" stroke="#191970" d="M2862.0646,-71.3491C2855.9609,-61.9757 2846.9235,-48.0969 2839.5525,-36.777"/>
<polygon fill="#191970" stroke="#191970" points="2842.4759,-34.8524 2834.0861,-28.3823 2836.6099,-38.6721 2842.4759,-34.8524"/>
</g>
<!-- Node23 -->
<g id="node23" class="node">
<title>Node23</title>
<polygon fill="#ffffff" stroke="#bfbfbf" points="3198,-7 3198,-28 3244,-28 3244,-7 3198,-7"/>
<text text-anchor="middle" x="3221" y="-14.4" font-family="Helvetica,sans-Serif" font-size="12.00" fill="#000000">string</text>
</g>
<!-- Node21&#45;&gt;Node23 -->
<g id="edge30" class="edge">
<title>Node21&#45;&gt;Node23</title>
<path fill="none" stroke="#191970" d="M2895.7596,-76.658C2905.0154,-74.833 2915.4583,-72.7993 2925,-71 3020.2573,-53.0369 3132.9998,-32.9953 3187.7875,-23.3338"/>
<polygon fill="#191970" stroke="#191970" points="3188.7088,-26.7255 3197.9499,-21.5436 3187.4943,-19.8316 3188.7088,-26.7255"/>
</g>
<!-- Node27&#45;&gt;Node9 -->
<g id="edge39" class="edge">
<title>Node27&#45;&gt;Node9</title>
<path fill="none" stroke="#191970" d="M1068.8357,-200.3491C1051.1614,-189.9855 1024.0945,-174.1145 1003.9181,-162.2838"/>
<polygon fill="#191970" stroke="#191970" points="1005.588,-159.2057 995.1912,-157.1667 1002.0473,-165.2442 1005.588,-159.2057"/>
</g>
<!-- Node27&#45;&gt;Node11 -->
<g id="edge38" class="edge">
<title>Node27&#45;&gt;Node11</title>
<path fill="none" stroke="#191970" d="M1094.3718,-200.3358C1107.1952,-182.6372 1135.3796,-147.3342 1168,-129 1225.8017,-96.5128 1250.5989,-109.3495 1318.3193,-93.2565"/>
<polygon fill="#191970" stroke="#191970" points="1319.3199,-96.614 1328.1677,-90.786 1317.6166,-89.8244 1319.3199,-96.614"/>
</g>
<!-- Node28 -->
<g id="node27" class="node">
<title>Node28</title>
<polygon fill="#ffffff" stroke="#bfbfbf" points="1248.5,-136 1248.5,-157 1297.5,-157 1297.5,-136 1248.5,-136"/>
<text text-anchor="middle" x="1273" y="-143.4" font-family="Helvetica,sans-Serif" font-size="12.00" fill="#000000">cmath</text>
</g>
<!-- Node27&#45;&gt;Node28 -->
<g id="edge37" class="edge">
<title>Node27&#45;&gt;Node28</title>
<path fill="none" stroke="#191970" d="M1117.2981,-200.4934C1150.5586,-188.9595 1203.8473,-170.4804 1238.6402,-158.4151"/>
<polygon fill="#191970" stroke="#191970" points="1240.0646,-161.6257 1248.3659,-155.0425 1237.7711,-155.0121 1240.0646,-161.6257"/>
</g>
<!-- Node41&#45;&gt;Node1 -->
<g id="edge44" class="edge">
<title>Node41&#45;&gt;Node1</title>
<path fill="none" stroke="#191970" d="M720.813,-328.9686C559.7508,-315.4461 114,-272.4689 114,-211 114,-211 114,-211 114,-146.5 114,-100.1322 143.73,-90.0583 186,-71 245.794,-44.0406 1195.1957,-24.6556 1499.1609,-19.1156"/>
<polygon fill="#191970" stroke="#191970" points="1499.3313,-22.6131 1509.2661,-18.9322 1499.2042,-15.6143 1499.3313,-22.6131"/>
</g>
<!-- Node41&#45;&gt;Node4 -->
<g id="edge45" class="edge">
<title>Node41&#45;&gt;Node4</title>
<path fill="none" stroke="#191970" d="M761.6522,-322.8491C746.0319,-312.6723 722.2602,-297.1847 704.2138,-285.4272"/>
<polygon fill="#191970" stroke="#191970" points="705.6614,-282.193 695.3721,-279.6667 701.8402,-288.0581 705.6614,-282.193"/>
</g>
<!-- Node41&#45;&gt;Node8 -->
<g id="edge49" class="edge">
<title>Node41&#45;&gt;Node8</title>
<path fill="none" stroke="#191970" d="M720.5297,-325.9475C587.1594,-307.0286 263.7992,-252.6669 209,-164 200.822,-150.7677 201.4673,-142.6101 209,-129 217.2404,-114.1113 232.3862,-103.3087 246.9211,-95.8432"/>
<polygon fill="#191970" stroke="#191970" points="248.7589,-98.846 256.3057,-91.4098 245.7688,-92.5167 248.7589,-98.846"/>
</g>
<!-- Node41&#45;&gt;Node9 -->
<g id="edge47" class="edge">
<title>Node41&#45;&gt;Node9</title>
<path fill="none" stroke="#191970" d="M786.672,-322.7721C806.0143,-299.1729 854.714,-241.5523 902,-200 917.5212,-186.3608 936.4768,-172.863 951.4478,-162.8373"/>
<polygon fill="#191970" stroke="#191970" points="953.7668,-165.5005 960.1881,-157.0733 949.9131,-159.6568 953.7668,-165.5005"/>
</g>
<!-- Node41&#45;&gt;Node11 -->
<g id="edge48" class="edge">
<title>Node41&#45;&gt;Node11</title>
<path fill="none" stroke="#191970" d="M835.3155,-322.9545C929.9892,-304.5651 1113.5178,-264.5144 1163,-222 1197.5399,-192.3238 1171.7284,-158.9856 1206,-129 1208.2044,-127.0713 1274.254,-107.054 1318.5518,-93.7723"/>
<polygon fill="#191970" stroke="#191970" points="1319.6168,-97.107 1328.1922,-90.8852 1317.6084,-90.4013 1319.6168,-97.107"/>
</g>
<!-- Node41&#45;&gt;Node24 -->
<g id="edge46" class="edge">
<title>Node41&#45;&gt;Node24</title>
<path fill="none" stroke="#191970" d="M775.1732,-322.8688C770.6826,-307.4083 760.7775,-278.349 745,-258 688.2832,-184.8497 594.6705,-124.8113 548.1085,-97.6483"/>
<polygon fill="#191970" stroke="#191970" points="549.5951,-94.4655 539.1825,-92.5088 546.1021,-100.5318 549.5951,-94.4655"/>
</g>
<!-- Node43&#45;&gt;Node1 -->
<g id="edge51" class="edge">
<title>Node43&#45;&gt;Node1</title>
<path fill="none" stroke="#191970" d="M1210.1406,-393.8999C1217.081,-376.7509 1232.0787,-342.2009 1250,-316 1333.1267,-194.4691 1353.8037,-157.441 1473,-71 1491.1256,-57.8554 1512.9952,-46.8854 1533.0153,-38.3703"/>
<polygon fill="#191970" stroke="#191970" points="1534.4578,-41.5614 1542.3657,-34.5106 1531.7868,-35.091 1534.4578,-41.5614"/>
</g>
<!-- Node43&#45;&gt;Node9 -->
<g id="edge54" class="edge">
<title>Node43&#45;&gt;Node9</title>
<path fill="none" stroke="#191970" d="M1198.1918,-393.9705C1175.696,-363.8574 1110.5353,-278.2455 1082,-258 1045.5136,-232.1132 1015.9511,-256.9302 988,-222 975.7619,-206.7062 973.9918,-183.8893 974.6798,-167.3435"/>
<polygon fill="#191970" stroke="#191970" points="978.1932,-167.2937 975.4503,-157.0601 971.2128,-166.7706 978.1932,-167.2937"/>
</g>
<!-- Node43&#45;&gt;Node12 -->
<g id="edge57" class="edge">
<title>Node43&#45;&gt;Node12</title>
<path fill="none" stroke="#191970" d="M1215.6023,-393.7824C1242.9579,-363.2844 1323.7255,-273.4807 1392,-200 1425.1919,-164.277 1464.5533,-123.0696 1486.667,-100.0221"/>
<polygon fill="#191970" stroke="#191970" points="1489.3291,-102.3031 1493.7312,-92.666 1484.2801,-97.4545 1489.3291,-102.3031"/>
</g>
<!-- Node43&#45;&gt;Node14 -->
<g id="edge58" class="edge">
<title>Node43&#45;&gt;Node14</title>
<path fill="none" stroke="#191970" d="M1256.7742,-403.5857C1537.6686,-398.4463 2889.996,-372.6147 2927,-351 2983.8605,-317.7867 3059.3131,-126.5808 3024,-71 3008.0088,-45.8308 2976.6968,-32.2946 2950.9289,-25.1401"/>
<polygon fill="#191970" stroke="#191970" points="2951.5635,-21.6902 2941.0092,-22.6161 2949.8373,-28.474 2951.5635,-21.6902"/>
</g>
<!-- Node43&#45;&gt;Node21 -->
<g id="edge55" class="edge">
<title>Node43&#45;&gt;Node21</title>
<path fill="none" stroke="#191970" d="M1256.6796,-403.5624C1534.0326,-398.349 2856.9019,-372.3961 2893,-351 2950.2437,-317.0706 2951.4945,-286.1997 2969,-222 2979.8735,-182.1225 2991.1556,-163.8938 2969,-129 2955.0897,-107.092 2927.9558,-95.2134 2905.4587,-88.8822"/>
<polygon fill="#191970" stroke="#191970" points="2906.0672,-85.4254 2895.5126,-86.3474 2904.3385,-92.2086 2906.0672,-85.4254"/>
</g>
<!-- Node43&#45;&gt;Node23 -->
<g id="edge56" class="edge">
<title>Node43&#45;&gt;Node23</title>
<path fill="none" stroke="#191970" d="M1256.6871,-403.5377C1540.1801,-398.084 2918.0034,-370.6067 2957,-351 3097.014,-280.6036 3186.3156,-97.7317 3212.7633,-37.2462"/>
<polygon fill="#191970" stroke="#191970" points="3215.994,-38.5929 3216.7199,-28.023 3209.5609,-35.8332 3215.994,-38.5929"/>
</g>
<!-- Node43&#45;&gt;Node24 -->
<g id="edge53" class="edge">
<title>Node43&#45;&gt;Node24</title>
<path fill="none" stroke="#191970" d="M1185.2683,-393.8708C1111.3881,-356.1236 853.7606,-225.6175 636,-129 609.7574,-117.3565 579.7039,-105.2122 556.7635,-96.1856"/>
<polygon fill="#191970" stroke="#191970" points="557.9869,-92.9059 547.3992,-92.5184 555.4344,-99.424 557.9869,-92.9059"/>
</g>
<!-- Node43&#45;&gt;Node41 -->
<g id="edge52" class="edge">
<title>Node43&#45;&gt;Node41</title>
<path fill="none" stroke="#191970" d="M1172.8885,-393.9472C1164.2015,-391.4256 1154.8005,-388.9133 1146,-387 1042.064,-364.4029 919.4921,-348.733 845.3179,-340.4331"/>
<polygon fill="#191970" stroke="#191970" points="845.5041,-336.9324 835.1797,-339.3109 844.7339,-343.8899 845.5041,-336.9324"/>
</g>
<!-- Node48&#45;&gt;Node1 -->
<g id="edge60" class="edge">
<title>Node48&#45;&gt;Node1</title>
<path fill="none" stroke="#191970" d="M1066.8185,-387.4454C1090.6685,-355.5119 1143.1455,-284.2926 1184,-222 1210.4604,-181.6547 1200.9318,-157.3121 1240,-129 1297.9677,-86.9918 1329.7308,-117.4907 1397,-93 1417.1719,-85.656 1420.2751,-79.4717 1440,-71 1468.5127,-58.754 1500.8533,-47.0761 1528.3516,-37.773"/>
<polygon fill="#191970" stroke="#191970" points="1529.4933,-41.0818 1537.862,-34.5844 1527.2681,-34.4449 1529.4933,-41.0818"/>
</g>
<!-- Node48&#45;&gt;Node21 -->
<g id="edge62" class="edge">
<title>Node48&#45;&gt;Node21</title>
<path fill="none" stroke="#191970" d="M1137.0532,-388.1696C1140.4065,-387.7329 1143.7318,-387.3396 1147,-387 1241.4017,-377.191 2773.0983,-398.9584 2855,-351 2883.7116,-334.1876 2922.2473,-254.0999 2931,-222 2941.8735,-182.1225 2949.3897,-166.0171 2931,-129 2924.5351,-115.9867 2912.555,-105.6107 2900.8367,-97.9535"/>
<polygon fill="#191970" stroke="#191970" points="2902.3916,-94.8038 2892.0223,-92.6293 2898.7723,-100.7956 2902.3916,-94.8038"/>
</g>
<!-- Node48&#45;&gt;Node41 -->
<g id="edge61" class="edge">
<title>Node48&#45;&gt;Node41</title>
<path fill="none" stroke="#191970" d="M987.8911,-387.4937C939.1124,-374.9456 873.7076,-358.1204 828.9498,-346.6066"/>
<polygon fill="#191970" stroke="#191970" points="829.7217,-343.1913 819.1651,-344.0896 827.9777,-349.9706 829.7217,-343.1913"/>
</g>
<!-- Node30 -->
<g id="node31" class="node">
<title>Node30</title>
<polygon fill="#ffffff" stroke="#bfbfbf" points="1400.5,-200.5 1400.5,-221.5 1449.5,-221.5 1449.5,-200.5 1400.5,-200.5"/>
<text text-anchor="middle" x="1425" y="-207.9" font-family="Helvetica,sans-Serif" font-size="12.00" fill="#000000">vector</text>
</g>
<!-- Node48&#45;&gt;Node30 -->
<g id="edge63" class="edge">
<title>Node48&#45;&gt;Node30</title>
<path fill="none" stroke="#191970" d="M1086.5986,-387.4978C1158.0328,-350.2403 1327.4287,-261.8896 1395.7154,-226.2738"/>
<polygon fill="#191970" stroke="#191970" points="1397.4113,-229.3368 1404.6592,-221.609 1394.1741,-223.1302 1397.4113,-229.3368"/>
</g>
<!-- Node49&#45;&gt;Node1 -->
<g id="edge65" class="edge">
<title>Node49&#45;&gt;Node1</title>
<path fill="none" stroke="#191970" d="M797.2985,-402.1378C596.5142,-393.9358 76,-358.4529 76,-211 76,-211 76,-211 76,-146.5 76,-102.7967 99.7643,-90.2493 139,-71 200.0438,-41.0514 1187.8512,-23.614 1498.9486,-18.8452"/>
<polygon fill="#191970" stroke="#191970" points="1499.3392,-22.3398 1509.2847,-18.6877 1499.2325,-15.3406 1499.3392,-22.3398"/>
</g>
<!-- Node49&#45;&gt;Node21 -->
<g id="edge67" class="edge">
<title>Node49&#45;&gt;Node21</title>
<path fill="none" stroke="#191970" d="M919.4708,-393.9974C933.0453,-391.2135 948.0662,-388.5532 962,-387 1300.0006,-349.3227 2155.4774,-400.1583 2492,-351 2610.5287,-333.6857 2655.5465,-351.0321 2752,-280 2814.8628,-233.7054 2849.952,-142.6236 2863.0218,-102.1759"/>
<polygon fill="#191970" stroke="#191970" points="2866.3679,-103.2022 2866.0022,-92.6136 2859.685,-101.1191 2866.3679,-103.2022"/>
</g>
<!-- Node49&#45;&gt;Node41 -->
<g id="edge66" class="edge">
<title>Node49&#45;&gt;Node41</title>
<path fill="none" stroke="#191970" d="M860.2678,-393.7166C844.5089,-382.1818 819.3075,-363.7354 800.946,-350.2955"/>
<polygon fill="#191970" stroke="#191970" points="802.6896,-347.2344 792.553,-344.1522 798.5551,-352.883 802.6896,-347.2344"/>
</g>
<!-- Node49&#45;&gt;Node30 -->
<g id="edge68" class="edge">
<title>Node49&#45;&gt;Node30</title>
<path fill="none" stroke="#191970" d="M904.6743,-393.975C972.7524,-369.8397 1145.4324,-308.6822 1290,-258 1324.2075,-246.0076 1363.3276,-232.3997 1390.6187,-222.9238"/>
<polygon fill="#191970" stroke="#191970" points="1391.8078,-226.216 1400.1071,-219.6303 1389.5123,-219.603 1391.8078,-226.216"/>
</g>
<!-- Node50&#45;&gt;Node1 -->
<g id="edge70" class="edge">
<title>Node50&#45;&gt;Node1</title>
<path fill="none" stroke="#191970" d="M2011.1958,-200.8712C1959.0106,-191.3231 1887.1133,-176.6338 1861,-164 1801.8286,-135.3724 1803.4578,-102.9279 1746,-71 1721.3199,-57.2859 1692.4901,-46.1361 1666.4922,-37.6346"/>
<polygon fill="#191970" stroke="#191970" points="1667.2722,-34.2097 1656.6815,-34.5062 1665.1455,-40.8789 1667.2722,-34.2097"/>
</g>
<!-- Node50&#45;&gt;Node9 -->
<g id="edge71" class="edge">
<title>Node50&#45;&gt;Node9</title>
<path fill="none" stroke="#191970" d="M2011.2259,-200.9562C2008.4488,-200.6057 2005.6963,-200.284 2003,-200 1665.3791,-164.4404 1578.941,-183.2707 1240,-164 1173.151,-160.1993 1096.8011,-155.0263 1043.6494,-151.2913"/>
<polygon fill="#191970" stroke="#191970" points="1043.8919,-147.7998 1033.6705,-150.5879 1043.3996,-154.7825 1043.8919,-147.7998"/>
</g>
<!-- Node50&#45;&gt;Node10 -->
<g id="edge76" class="edge">
<title>Node50&#45;&gt;Node10</title>
<path fill="none" stroke="#191970" d="M2015.9291,-200.4977C1963.8089,-189.8981 1891.4652,-173.7428 1882,-164 1866.2825,-147.8217 1862.9901,-121.237 1862.8443,-102.74"/>
<polygon fill="#191970" stroke="#191970" points="1866.3447,-102.7528 1863.0643,-92.6786 1859.3464,-102.5997 1866.3447,-102.7528"/>
</g>
<!-- Node50&#45;&gt;Node11 -->
<g id="edge75" class="edge">
<title>Node50&#45;&gt;Node11</title>
<path fill="none" stroke="#191970" d="M2011.2017,-201.1565C2008.4312,-200.7525 2005.6865,-200.3646 2003,-200 1854.6141,-179.862 1815.2505,-191.2247 1668,-164 1569.1595,-145.7257 1455.5365,-112.439 1397.1498,-94.4065"/>
<polygon fill="#191970" stroke="#191970" points="1398.1729,-91.0594 1387.5847,-91.4359 1396.0967,-97.7444 1398.1729,-91.0594"/>
</g>
<!-- Node50&#45;&gt;Node12 -->
<g id="edge74" class="edge">
<title>Node50&#45;&gt;Node12</title>
<path fill="none" stroke="#191970" d="M2011.3873,-201.1912C1945.9284,-190.1256 1844.1572,-172.559 1806,-164 1706.6451,-141.7137 1590.8995,-108.1085 1536.016,-91.703"/>
<polygon fill="#191970" stroke="#191970" points="1536.7675,-88.2744 1526.1835,-88.753 1534.7559,-94.9791 1536.7675,-88.2744"/>
</g>
<!-- Node50&#45;&gt;Node14 -->
<g id="edge78" class="edge">
<title>Node50&#45;&gt;Node14</title>
<path fill="none" stroke="#191970" d="M2025.5622,-200.4534C1992.6864,-191.6465 1951.9598,-178.2671 1942,-164 1933.0958,-151.245 1931.5695,-140.5404 1942,-129 2080.9859,24.7754 2669.5133,-87.6216 2870,-35 2873.2259,-34.1533 2876.5246,-33.0807 2879.7757,-31.8848"/>
<polygon fill="#191970" stroke="#191970" points="2881.3181,-35.0361 2889.2659,-28.0302 2878.6839,-28.5506 2881.3181,-35.0361"/>
</g>
<!-- Node50&#45;&gt;Node15 -->
<g id="edge77" class="edge">
<title>Node50&#45;&gt;Node15</title>
<path fill="none" stroke="#191970" d="M2011.2158,-201.0464C2008.4414,-200.6718 2005.6922,-200.3203 2003,-200 1788.365,-174.4658 1729.5974,-208.122 1518,-164 1443.9948,-148.5685 1361.4065,-115.7207 1316.8368,-96.6134"/>
<polygon fill="#191970" stroke="#191970" points="1318.2259,-93.4009 1307.6583,-92.6416 1315.4459,-99.8252 1318.2259,-93.4009"/>
</g>
<!-- Node50&#45;&gt;Node21 -->
<g id="edge72" class="edge">
<title>Node50&#45;&gt;Node21</title>
<path fill="none" stroke="#191970" d="M2011.3617,-201.458C1989.5978,-194.762 1967.0526,-183.3718 1954,-164 1945.3078,-151.0996 1943.243,-140.2366 1954,-129 1985.7249,-95.8605 2733.2795,-96.7858 2779,-93 2796.5015,-91.5508 2815.8412,-89.2757 2832.0933,-87.1697"/>
<polygon fill="#191970" stroke="#191970" points="2832.8232,-90.6036 2842.2769,-85.8205 2831.9039,-83.6643 2832.8232,-90.6036"/>
</g>
<!-- Node50&#45;&gt;Node28 -->
<g id="edge73" class="edge">
<title>Node50&#45;&gt;Node28</title>
<path fill="none" stroke="#191970" d="M2011.2218,-200.9941C2008.4458,-200.6335 2005.6946,-200.2992 2003,-200 1730.8716,-169.7797 1660.3007,-192.6262 1388,-164 1360.8295,-161.1436 1330.2612,-156.4192 1307.4736,-152.5987"/>
<polygon fill="#191970" stroke="#191970" points="1308.0367,-149.1443 1297.5912,-150.9169 1306.8623,-156.0451 1308.0367,-149.1443"/>
</g>
<!-- Node51 -->
<g id="node34" class="node">
<title>Node51</title>
<polygon fill="#ffffff" stroke="#bfbfbf" points="2159.5,-129.5 2159.5,-163.5 2272.5,-163.5 2272.5,-129.5 2159.5,-129.5"/>
<text text-anchor="start" x="2167.5" y="-149.9" font-family="Helvetica,sans-Serif" font-size="12.00" fill="#000000">boost/serialization</text>
<text text-anchor="middle" x="2216" y="-136.9" font-family="Helvetica,sans-Serif" font-size="12.00" fill="#000000">/base_object.hpp</text>
</g>
<!-- Node50&#45;&gt;Node51 -->
<g id="edge79" class="edge">
<title>Node50&#45;&gt;Node51</title>
<path fill="none" stroke="#191970" d="M2093.7824,-200.4934C2113.8441,-191.6305 2143.1886,-178.6667 2168.0955,-167.6633"/>
<polygon fill="#191970" stroke="#191970" points="2169.6627,-170.7973 2177.3955,-163.5547 2166.834,-164.3943 2169.6627,-170.7973"/>
</g>
<!-- Node52 -->
<g id="node35" class="node">
<title>Node52</title>
<polygon fill="#ffffff" stroke="#bfbfbf" points="2419,-129.5 2419,-163.5 2529,-163.5 2529,-129.5 2419,-129.5"/>
<text text-anchor="start" x="2427" y="-149.9" font-family="Helvetica,sans-Serif" font-size="12.00" fill="#000000">boost/archive/text</text>
<text text-anchor="middle" x="2474" y="-136.9" font-family="Helvetica,sans-Serif" font-size="12.00" fill="#000000">_oarchive.hpp</text>
</g>
<!-- Node50&#45;&gt;Node52 -->
<g id="edge80" class="edge">
<title>Node50&#45;&gt;Node52</title>
<path fill="none" stroke="#191970" d="M2128.7494,-205.2171C2194.7113,-198.2021 2305.0553,-184.9032 2408.9215,-164.078"/>
<polygon fill="#191970" stroke="#191970" points="2409.8489,-167.4611 2418.9512,-162.0391 2408.4543,-160.6014 2409.8489,-167.4611"/>
</g>
<!-- Node53 -->
<g id="node36" class="node">
<title>Node53</title>
<polygon fill="#ffffff" stroke="#bfbfbf" points="2291,-129.5 2291,-163.5 2401,-163.5 2401,-129.5 2291,-129.5"/>
<text text-anchor="start" x="2299" y="-149.9" font-family="Helvetica,sans-Serif" font-size="12.00" fill="#000000">boost/archive/text</text>
<text text-anchor="middle" x="2346" y="-136.9" font-family="Helvetica,sans-Serif" font-size="12.00" fill="#000000">_iarchive.hpp</text>
</g>
<!-- Node50&#45;&gt;Node53 -->
<g id="edge81" class="edge">
<title>Node50&#45;&gt;Node53</title>
<path fill="none" stroke="#191970" d="M2120.7068,-200.4844C2161.5706,-191.8454 2220.7247,-178.971 2281.176,-164.1486"/>
<polygon fill="#191970" stroke="#191970" points="2282.0158,-167.5464 2290.8866,-161.7533 2280.3393,-160.7501 2282.0158,-167.5464"/>
</g>
<!-- Node54 -->
<g id="node37" class="node">
<title>Node54</title>
<polygon fill="#ffffff" stroke="#bfbfbf" points="2547.5,-129.5 2547.5,-163.5 2660.5,-163.5 2660.5,-129.5 2547.5,-129.5"/>
<text text-anchor="start" x="2555.5" y="-149.9" font-family="Helvetica,sans-Serif" font-size="12.00" fill="#000000">boost/serialization</text>
<text text-anchor="middle" x="2604" y="-136.9" font-family="Helvetica,sans-Serif" font-size="12.00" fill="#000000">/export.hpp</text>
</g>
<!-- Node50&#45;&gt;Node54 -->
<g id="edge82" class="edge">
<title>Node50&#45;&gt;Node54</title>
<path fill="none" stroke="#191970" d="M2128.7862,-208.1036C2215.9665,-203.1469 2384.7246,-191.0176 2537.227,-163.9651"/>
<polygon fill="#191970" stroke="#191970" points="2538.0257,-167.3777 2547.2475,-162.1616 2536.7856,-160.4884 2538.0257,-167.3777"/>
</g>
<!-- Node55&#45;&gt;Node1 -->
<g id="edge84" class="edge">
<title>Node55&#45;&gt;Node1</title>
<path fill="none" stroke="#191970" d="M2532.699,-395.8236C2661.1859,-379.8828 2909.7617,-341.7895 2970,-280 3035.5978,-212.713 3067.1759,-138.6958 3002,-71 2979.1173,-47.2326 1995.6941,-25.5702 1685.0287,-19.3096"/>
<polygon fill="#191970" stroke="#191970" points="1684.7741,-15.8039 1674.7058,-19.1022 1684.6335,-22.8024 1684.7741,-15.8039"/>
</g>
<!-- Node55&#45;&gt;Node10 -->
<g id="edge126" class="edge">
<title>Node55&#45;&gt;Node10</title>
<path fill="none" stroke="#191970" d="M2532.7066,-388.7577C2628.6952,-367.5511 2783.4633,-326.9988 2817,-280 2822.6794,-272.0408 2821.0339,-266.9069 2817,-258 2781.1392,-178.8194 2750.42,-161.9875 2670,-129 2596.5206,-98.8595 2021.399,-85.2486 1890.4659,-82.5233"/>
<polygon fill="#191970" stroke="#191970" points="1890.2425,-79.0181 1880.1729,-82.3127 1890.0992,-86.0167 1890.2425,-79.0181"/>
</g>
<!-- Node55&#45;&gt;Node11 -->
<g id="edge125" class="edge">
<title>Node55&#45;&gt;Node11</title>
<path fill="none" stroke="#191970" d="M2377.1672,-402.8872C2187.0332,-398.471 1702.9677,-384.2258 1545,-351 1456.375,-332.3592 1405.6917,-354.3629 1354,-280 1316.151,-225.5511 1337.6023,-140.7611 1350.4845,-102.252"/>
<polygon fill="#191970" stroke="#191970" points="1353.8342,-103.2762 1353.8343,-92.6814 1347.2272,-100.9637 1353.8342,-103.2762"/>
</g>
<!-- Node55&#45;&gt;Node13 -->
<g id="edge130" class="edge">
<title>Node55&#45;&gt;Node13</title>
<path fill="none" stroke="#191970" d="M2532.7852,-401.5699C2715.2818,-394.319 3157.248,-374.4187 3179,-351 3263.4325,-260.0982 3069.8111,-140.1839 2992.8276,-97.7221"/>
<polygon fill="#191970" stroke="#191970" points="2994.0768,-94.417 2983.6209,-92.7072 2990.7284,-100.5643 2994.0768,-94.417"/>
</g>
<!-- Node55&#45;&gt;Node14 -->
<g id="edge128" class="edge">
<title>Node55&#45;&gt;Node14</title>
<path fill="none" stroke="#191970" d="M2532.5051,-401.4115C2718.5313,-393.6691 3176.8205,-372.5071 3202,-351 3296.6401,-270.1631 3288.4858,-155.3903 3197,-71 3161.7855,-38.5167 3022.0727,-24.8338 2951.4002,-19.8986"/>
<polygon fill="#191970" stroke="#191970" points="2951.2976,-16.3839 2941.0856,-19.2063 2950.8288,-23.3682 2951.2976,-16.3839"/>
</g>
<!-- Node55&#45;&gt;Node21 -->
<g id="edge124" class="edge">
<title>Node55&#45;&gt;Node21</title>
<path fill="none" stroke="#191970" d="M2532.6153,-401.4329C2711.8328,-393.9753 3140.8415,-373.8201 3162,-351 3172.5763,-339.5931 3167.2762,-330.6334 3162,-316 3125.385,-214.4496 3095.8823,-190.2623 3007,-129 2976.1486,-107.7356 2934.8284,-95.3474 2905.4653,-88.6806"/>
<polygon fill="#191970" stroke="#191970" points="2906.1279,-85.2431 2895.6147,-86.5559 2904.6519,-92.0857 2906.1279,-85.2431"/>
</g>
<!-- Node55&#45;&gt;Node23 -->
<g id="edge127" class="edge">
<title>Node55&#45;&gt;Node23</title>
<path fill="none" stroke="#191970" d="M2532.8265,-403.2102C2717.7815,-399.57 3172.5992,-387.0251 3231,-351 3335.8422,-286.3271 3259.5972,-98.9627 3230.7771,-37.3775"/>
<polygon fill="#191970" stroke="#191970" points="3233.9119,-35.8199 3226.4442,-28.3044 3227.5953,-38.8365 3233.9119,-35.8199"/>
</g>
<!-- Node55&#45;&gt;Node50 -->
<g id="edge107" class="edge">
<title>Node55&#45;&gt;Node50</title>
<path fill="none" stroke="#191970" d="M2377.2443,-388.9545C2352.5082,-380.9345 2326.53,-368.9148 2307,-351 2273.4422,-320.2176 2299.1874,-286.9055 2264,-258 2244.8126,-242.238 2186.3139,-229.3947 2138.529,-221.1416"/>
<polygon fill="#191970" stroke="#191970" points="2138.9559,-217.6642 2128.5128,-219.4507 2137.7907,-224.5665 2138.9559,-217.6642"/>
</g>
<!-- Node56 -->
<g id="node39" class="node">
<title>Node56</title>
<g id="a_node39"><a xlink:href="AllowedGridGrowth_8h.html" target="_top" xlink:title="Declares &amp; defines a class describing how the mass&#45;[Fe/H] interpolation grid is allowed to grow...">
<polygon fill="#ffffff" stroke="#000000" points="1362.5,-258.5 1362.5,-279.5 1493.5,-279.5 1493.5,-258.5 1362.5,-258.5"/>
<text text-anchor="middle" x="1428" y="-265.9" font-family="Helvetica,sans-Serif" font-size="12.00" fill="#000000">AllowedGridGrowth.h</text>
</a>
</g>
</g>
<!-- Node55&#45;&gt;Node56 -->
<g id="edge85" class="edge">
<title>Node55&#45;&gt;Node56</title>
<path fill="none" stroke="#191970" d="M2377.4344,-401.7449C2207.043,-395.2799 1804.6272,-377.6416 1671,-351 1593.9528,-335.6389 1507.6734,-302.4973 1461.4914,-283.3834"/>
<polygon fill="#191970" stroke="#191970" points="1462.8395,-280.1535 1452.263,-279.5291 1460.1417,-286.6128 1462.8395,-280.1535"/>
</g>
<!-- Node57 -->
<g id="node40" class="node">
<title>Node57</title>
<g id="a_node40"><a xlink:href="RemoveLogDeriv_8h.html" target="_top" xlink:title="Declares a class to switch from logarithmic to linear derivative. ">
<polygon fill="#ffffff" stroke="#000000" points="1730,-323 1730,-344 1850,-344 1850,-323 1730,-323"/>
<text text-anchor="middle" x="1790" y="-330.4" font-family="Helvetica,sans-Serif" font-size="12.00" fill="#000000">RemoveLogDeriv.h</text>
</a>
</g>
</g>
<!-- Node55&#45;&gt;Node57 -->
<g id="edge87" class="edge">
<title>Node55&#45;&gt;Node57</title>
<path fill="none" stroke="#191970" d="M2377.4874,-401.375C2263.4566,-395.9106 2044.0803,-382.0923 1860,-351 1852.614,-349.7525 1844.8592,-348.1329 1837.311,-346.3832"/>
<polygon fill="#191970" stroke="#191970" points="1838.0974,-342.9726 1827.5553,-344.0284 1836.4549,-349.7772 1838.0974,-342.9726"/>
</g>
<!-- Node59 -->
<g id="node42" class="node">
<title>Node59</title>
<g id="a_node42"><a xlink:href="SumDerivatives_8h.html" target="_top" xlink:title="Declares &amp; defines a class for the derivative of a quantity which is the sum of two other quantities...">
<polygon fill="#ffffff" stroke="#000000" points="2454.5,-258.5 2454.5,-279.5 2565.5,-279.5 2565.5,-258.5 2454.5,-258.5"/>
<text text-anchor="middle" x="2510" y="-265.9" font-family="Helvetica,sans-Serif" font-size="12.00" fill="#000000">SumDerivatives.h</text>
</a>
</g>
</g>
<!-- Node55&#45;&gt;Node59 -->
<g id="edge94" class="edge">
<title>Node55&#45;&gt;Node59</title>
<path fill="none" stroke="#191970" d="M2469.5399,-387.2163C2477.2687,-377.2109 2486.3206,-364.0467 2492,-351 2500.6375,-331.1579 2505.3106,-306.7486 2507.7125,-289.7445"/>
<polygon fill="#191970" stroke="#191970" points="2511.1923,-290.1237 2508.9816,-279.7621 2504.2482,-289.2408 2511.1923,-290.1237"/>
</g>
<!-- Node60 -->
<g id="node43" class="node">
<title>Node60</title>
<g id="a_node43"><a xlink:href="InterpolatedDerivatives_8h_source.html" target="_top" xlink:title="InterpolatedDerivatives.h">
<polygon fill="#ffffff" stroke="#000000" points="1868.5,-323 1868.5,-344 2017.5,-344 2017.5,-323 1868.5,-323"/>
<text text-anchor="middle" x="1943" y="-330.4" font-family="Helvetica,sans-Serif" font-size="12.00" fill="#000000">InterpolatedDerivatives.h</text>
</a>
</g>
</g>
<!-- Node55&#45;&gt;Node60 -->
<g id="edge97" class="edge">
<title>Node55&#45;&gt;Node60</title>
<path fill="none" stroke="#191970" d="M2377.3936,-396.376C2292.1923,-387.0689 2151.4738,-370.5544 2031,-351 2021.8538,-349.5155 2012.2069,-347.776 2002.7856,-345.9802"/>
<polygon fill="#191970" stroke="#191970" points="2003.1693,-342.4894 1992.6855,-344.0188 2001.8349,-349.361 2003.1693,-342.4894"/>
</g>
<!-- Node61 -->
<g id="node44" class="node">
<title>Node61</title>
<g id="a_node44"><a xlink:href="mass__feh__interp_8h.html" target="_top" xlink:title="Define a single function performing mass&#45;[Fe/H] interpolations. ">
<polygon fill="#ffffff" stroke="#000000" points="1878.5,-200.5 1878.5,-221.5 1993.5,-221.5 1993.5,-200.5 1878.5,-200.5"/>
<text text-anchor="middle" x="1936" y="-207.9" font-family="Helvetica,sans-Serif" font-size="12.00" fill="#000000">mass_feh_interp.h</text>
</a>
</g>
</g>
<!-- Node55&#45;&gt;Node61 -->
<g id="edge106" class="edge">
<title>Node55&#45;&gt;Node61</title>
<path fill="none" stroke="#191970" d="M2396.0933,-387.4797C2362.6962,-377.5056 2320.2615,-364.2866 2283,-351 2166.2579,-309.3724 2030.787,-252.0307 1969.3483,-225.5199"/>
<polygon fill="#191970" stroke="#191970" points="1970.7054,-222.2936 1960.1376,-221.5369 1967.927,-228.7186 1970.7054,-222.2936"/>
</g>
<!-- Node63 -->
<g id="node46" class="node">
<title>Node63</title>
<g id="a_node46"><a xlink:href="InterpSolutionIterator_8h_source.html" target="_top" xlink:title="../Core/InterpSolutionIterator.h">
<polygon fill="#ffffff" stroke="#000000" points="1550,-258.5 1550,-279.5 1726,-279.5 1726,-258.5 1550,-258.5"/>
<text text-anchor="middle" x="1638" y="-265.9" font-family="Helvetica,sans-Serif" font-size="12.00" fill="#000000">../Core/InterpSolutionIterator.h</text>
</a>
</g>
</g>
<!-- Node55&#45;&gt;Node63 -->
<g id="edge108" class="edge">
<title>Node55&#45;&gt;Node63</title>
<path fill="none" stroke="#191970" d="M2377.3334,-401.8749C2200.6981,-395.4712 1779.6097,-377.5999 1721,-351 1690.7685,-337.2795 1665.2261,-307.5164 1650.7602,-287.8764"/>
<polygon fill="#191970" stroke="#191970" points="1653.564,-285.7798 1644.9161,-279.659 1647.8595,-289.8367 1653.564,-285.7798"/>
</g>
<!-- Node65 -->
<g id="node48" class="node">
<title>Node65</title>
<g id="a_node48"><a xlink:href="InterpolatingFunctionALGLIB_8h_source.html" target="_top" xlink:title="../Core/InterpolatingFunction\lALGLIB.h">
<polygon fill="#ffffff" stroke="#000000" points="2315.5,-316.5 2315.5,-350.5 2482.5,-350.5 2482.5,-316.5 2315.5,-316.5"/>
<text text-anchor="start" x="2323.5" y="-336.9" font-family="Helvetica,sans-Serif" font-size="12.00" fill="#000000">../Core/InterpolatingFunction</text>
<text text-anchor="middle" x="2399" y="-323.9" font-family="Helvetica,sans-Serif" font-size="12.00" fill="#000000">ALGLIB.h</text>
</a>
</g>
</g>
<!-- Node55&#45;&gt;Node65 -->
<g id="edge119" class="edge">
<title>Node55&#45;&gt;Node65</title>
<path fill="none" stroke="#191970" d="M2441.444,-387.3129C2434.6342,-378.679 2426.2547,-368.0551 2418.7452,-358.5341"/>
<polygon fill="#191970" stroke="#191970" points="2421.3722,-356.213 2412.4312,-350.5288 2415.876,-360.548 2421.3722,-356.213"/>
</g>
<!-- Node31 -->
<g id="node49" class="node">
<title>Node31</title>
<polygon fill="#ffffff" stroke="#bfbfbf" points="3097,-323 3097,-344 3153,-344 3153,-323 3097,-323"/>
<text text-anchor="middle" x="3125" y="-330.4" font-family="Helvetica,sans-Serif" font-size="12.00" fill="#000000">fstream</text>
</g>
<!-- Node55&#45;&gt;Node31 -->
<g id="edge129" class="edge">
<title>Node55&#45;&gt;Node31</title>
<path fill="none" stroke="#191970" d="M2532.5845,-400.8907C2676.7614,-393.6875 2980.6301,-376.0395 3083,-351 3086.4817,-350.1484 3090.0486,-349.0489 3093.5612,-347.8161"/>
<polygon fill="#191970" stroke="#191970" points="3095.1388,-350.9586 3103.2006,-344.0842 3092.6115,-344.4307 3095.1388,-350.9586"/>
</g>
<!-- Node56&#45;&gt;Node1 -->
<g id="edge86" class="edge">
<title>Node56&#45;&gt;Node1</title>
<path fill="none" stroke="#191970" d="M1435.1612,-258.1858C1441.4571,-248.668 1450.8594,-234.4291 1459,-222 1500.998,-157.8772 1550.09,-82.206 1575.253,-43.3668"/>
<polygon fill="#191970" stroke="#191970" points="1578.3284,-45.0567 1580.8275,-34.7608 1572.4533,-41.2511 1578.3284,-45.0567"/>
</g>
<!-- Node57&#45;&gt;Node1 -->
<g id="edge88" class="edge">
<title>Node57&#45;&gt;Node1</title>
<path fill="none" stroke="#191970" d="M1782.1177,-322.685C1755.3678,-285.9767 1669.5675,-168.1834 1667,-164 1642.1583,-123.5232 1617.9586,-73.8508 1604.039,-43.9861"/>
<polygon fill="#191970" stroke="#191970" points="1607.1003,-42.267 1599.7265,-34.6593 1600.7466,-45.2049 1607.1003,-42.267"/>
</g>
<!-- Node58 -->
<g id="node41" class="node">
<title>Node58</title>
<g id="a_node41"><a xlink:href="LogDerivatives_8h.html" target="_top" xlink:title="Declares a class for differentiating functions of log(arg) w.r.t. arg. ">
<polygon fill="#ffffff" stroke="#000000" points="1782.5,-258.5 1782.5,-279.5 1927.5,-279.5 1927.5,-258.5 1782.5,-258.5"/>
<text text-anchor="middle" x="1855" y="-265.9" font-family="Helvetica,sans-Serif" font-size="12.00" fill="#000000">../Core/LogDerivatives.h</text>
</a>
</g>
</g>
<!-- Node57&#45;&gt;Node58 -->
<g id="edge89" class="edge">
<title>Node57&#45;&gt;Node58</title>
<path fill="none" stroke="#191970" d="M1800.7334,-322.8491C1810.5537,-313.1044 1825.2809,-298.4905 1836.9164,-286.9445"/>
<polygon fill="#191970" stroke="#191970" points="1839.4003,-289.4104 1844.0334,-279.8823 1834.4697,-284.4416 1839.4003,-289.4104"/>
</g>
<!-- Node58&#45;&gt;Node1 -->
<g id="edge90" class="edge">
<title>Node58&#45;&gt;Node1</title>
<path fill="none" stroke="#191970" d="M1831.4675,-258.4541C1812.655,-249.6476 1785.9007,-236.2684 1764,-222 1729.571,-199.5693 1717.9837,-195.833 1692,-164 1662.5872,-127.9661 1671.1709,-108.7531 1644,-71 1636.6265,-60.7547 1627.3313,-50.5568 1618.646,-41.8548"/>
<polygon fill="#191970" stroke="#191970" points="1620.8378,-39.1036 1611.2341,-34.6292 1615.9514,-44.1159 1620.8378,-39.1036"/>
</g>
<!-- Node58&#45;&gt;Node21 -->
<g id="edge92" class="edge">
<title>Node58&#45;&gt;Node21</title>
<path fill="none" stroke="#191970" d="M1927.7453,-267.4141C2119.9213,-262.8799 2631.3304,-248.4557 2703,-222 2769.5963,-197.417 2828.0327,-133.2557 2854.2836,-101.0382"/>
<polygon fill="#191970" stroke="#191970" points="2857.3106,-102.8565 2860.8143,-92.8578 2851.84,-98.4892 2857.3106,-102.8565"/>
</g>
<!-- Node58&#45;&gt;Node30 -->
<g id="edge93" class="edge">
<title>Node58&#45;&gt;Node30</title>
<path fill="none" stroke="#191970" d="M1782.0564,-259.1611C1688.3848,-246.5263 1529.5963,-225.1083 1459.7391,-215.6857"/>
<polygon fill="#191970" stroke="#191970" points="1460.0829,-212.2005 1449.7047,-214.3323 1459.1471,-219.1377 1460.0829,-212.2005"/>
</g>
<!-- Node58&#45;&gt;Node50 -->
<g id="edge91" class="edge">
<title>Node58&#45;&gt;Node50</title>
<path fill="none" stroke="#191970" d="M1893.9349,-258.4966C1929.5926,-248.8773 1982.5242,-234.5981 2021.0358,-224.209"/>
<polygon fill="#191970" stroke="#191970" points="2022.2489,-227.5069 2030.9921,-221.5231 2020.4256,-220.7485 2022.2489,-227.5069"/>
</g>
<!-- Node59&#45;&gt;Node1 -->
<g id="edge95" class="edge">
<title>Node59&#45;&gt;Node1</title>
<path fill="none" stroke="#191970" d="M2546.7353,-258.3652C2610.2574,-238.0683 2729.9006,-190.315 2687,-129 2643.8768,-67.3668 2601.6702,-86.1976 2528,-71 2368.7884,-38.1559 1888.1597,-23.9941 1684.6424,-19.3566"/>
<polygon fill="#191970" stroke="#191970" points="1684.6513,-15.856 1674.575,-19.1298 1684.4936,-22.8542 1684.6513,-15.856"/>
</g>
<!-- Node59&#45;&gt;Node50 -->
<g id="edge96" class="edge">
<title>Node59&#45;&gt;Node50</title>
<path fill="none" stroke="#191970" d="M2454.2737,-261.6543C2373.9734,-251.0692 2225.8348,-231.5419 2138.8144,-220.071"/>
<polygon fill="#191970" stroke="#191970" points="2139.1451,-216.5844 2128.7734,-218.7474 2138.2302,-223.5244 2139.1451,-216.5844"/>
</g>
<!-- Node60&#45;&gt;Node1 -->
<g id="edge98" class="edge">
<title>Node60&#45;&gt;Node1</title>
<path fill="none" stroke="#191970" d="M1945.1076,-322.9873C1947.6244,-307.4177 1950.0134,-277.9267 1937,-258 1918.5163,-229.6968 1899.6514,-238.2329 1870,-222 1823.5771,-196.5854 1808.9505,-194.9231 1766,-164 1716.2134,-128.1552 1711.3471,-110.0104 1664,-71 1651.4026,-60.6207 1637.0513,-49.7724 1624.494,-40.5789"/>
<polygon fill="#191970" stroke="#191970" points="1626.2787,-37.5494 1616.1307,-34.5047 1622.1651,-43.2132 1626.2787,-37.5494"/>
</g>
<!-- Node60&#45;&gt;Node30 -->
<g id="edge105" class="edge">
<title>Node60&#45;&gt;Node30</title>
<path fill="none" stroke="#191970" d="M1896.0496,-322.9177C1884.0137,-320.4256 1871.0609,-317.9348 1859,-316 1718.5594,-293.471 1675.8052,-325.3724 1541,-280 1538.564,-279.1801 1484.951,-247.0561 1451.4742,-226.9342"/>
<polygon fill="#191970" stroke="#191970" points="1452.9989,-223.767 1442.6253,-221.6131 1449.3915,-229.7659 1452.9989,-223.767"/>
</g>
<!-- Node60&#45;&gt;Node50 -->
<g id="edge104" class="edge">
<title>Node60&#45;&gt;Node50</title>
<path fill="none" stroke="#191970" d="M1954.2704,-322.6289C1976.2608,-301.4177 2025.0645,-254.3433 2051.7328,-228.6199"/>
<polygon fill="#191970" stroke="#191970" points="2054.1686,-231.1333 2058.9362,-221.6718 2049.3089,-226.0951 2054.1686,-231.1333"/>
</g>
<!-- Node60&#45;&gt;Node58 -->
<g id="edge103" class="edge">
<title>Node60&#45;&gt;Node58</title>
<path fill="none" stroke="#191970" d="M1928.4686,-322.8491C1914.7113,-312.7656 1893.8406,-297.4684 1877.8551,-285.7517"/>
<polygon fill="#191970" stroke="#191970" points="1879.6876,-282.7554 1869.553,-279.6667 1875.5494,-288.4013 1879.6876,-282.7554"/>
</g>
<!-- Node60&#45;&gt;Node61 -->
<g id="edge99" class="edge">
<title>Node60&#45;&gt;Node61</title>
<path fill="none" stroke="#191970" d="M1951.4732,-322.8178C1961.9552,-308.2536 1977.547,-281.3089 1970,-258 1966.6384,-247.6178 1960.031,-237.604 1953.5278,-229.5068"/>
<polygon fill="#191970" stroke="#191970" points="1956.1009,-227.1309 1946.929,-221.8274 1950.7917,-231.693 1956.1009,-227.1309"/>
</g>
<!-- Node61&#45;&gt;Node1 -->
<g id="edge100" class="edge">
<title>Node61&#45;&gt;Node1</title>
<path fill="none" stroke="#191970" d="M1891.1141,-200.4978C1864.8615,-193.0056 1831.8989,-181.1799 1806,-164 1759.0861,-132.8798 1766.1377,-103.2597 1720,-71 1700.8287,-57.5954 1677.7801,-46.6612 1656.5557,-38.2524"/>
<polygon fill="#191970" stroke="#191970" points="1657.5429,-34.8825 1646.9527,-34.5669 1655.0346,-41.4177 1657.5429,-34.8825"/>
</g>
<!-- Node61&#45;&gt;Node8 -->
<g id="edge102" class="edge">
<title>Node61&#45;&gt;Node8</title>
<path fill="none" stroke="#191970" d="M1878.4481,-209.8409C1722.5929,-206.3815 1279.3527,-194.4178 912,-164 651.2599,-142.41 581.0612,-147.5736 321.8737,-93.1501"/>
<polygon fill="#191970" stroke="#191970" points="322.2879,-89.6605 311.7808,-91.0209 320.843,-96.5098 322.2879,-89.6605"/>
</g>
<!-- Node62 -->
<g id="node45" class="node">
<title>Node62</title>
<polygon fill="#ffffff" stroke="#bfbfbf" points="1962.5,-129.5 1962.5,-163.5 2141.5,-163.5 2141.5,-129.5 1962.5,-129.5"/>
<text text-anchor="start" x="1970.5" y="-149.9" font-family="Helvetica,sans-Serif" font-size="12.00" fill="#000000">../third_party_libs</text>
<text text-anchor="middle" x="2052" y="-136.9" font-family="Helvetica,sans-Serif" font-size="12.00" fill="#000000">/alglib/alglib/src/interpolation.h</text>
</g>
<!-- Node61&#45;&gt;Node62 -->
<g id="edge101" class="edge">
<title>Node61&#45;&gt;Node62</title>
<path fill="none" stroke="#191970" d="M1954.8956,-200.4934C1970.4137,-191.8648 1992.9225,-179.3491 2012.3626,-168.5398"/>
<polygon fill="#191970" stroke="#191970" points="2014.289,-171.4733 2021.3279,-163.5547 2010.8872,-165.3555 2014.289,-171.4733"/>
</g>
<!-- Node63&#45;&gt;Node1 -->
<g id="edge109" class="edge">
<title>Node63&#45;&gt;Node1</title>
<path fill="none" stroke="#191970" d="M1631.7109,-258.1843C1626.6169,-248.9 1619.6997,-234.9978 1616,-222 1598.4223,-160.2464 1593.6958,-84.4795 1592.4402,-44.7621"/>
<polygon fill="#191970" stroke="#191970" points="1595.9336,-44.4613 1592.1703,-34.5574 1588.936,-44.6465 1595.9336,-44.4613"/>
</g>
<!-- Node63&#45;&gt;Node9 -->
<g id="edge117" class="edge">
<title>Node63&#45;&gt;Node9</title>
<path fill="none" stroke="#191970" d="M1549.777,-261.7059C1534.194,-260.4477 1518.1221,-259.1693 1503,-258 1448.3503,-253.7742 1055.9161,-253.4164 1011,-222 992.9529,-209.377 984.3295,-184.8227 980.314,-167.1386"/>
<polygon fill="#191970" stroke="#191970" points="983.7214,-166.3254 978.3663,-157.1836 976.8516,-167.6696 983.7214,-166.3254"/>
</g>
<!-- Node63&#45;&gt;Node11 -->
<g id="edge118" class="edge">
<title>Node63&#45;&gt;Node11</title>
<path fill="none" stroke="#191970" d="M1622.1437,-258.4103C1575.5692,-227.3051 1438.9248,-136.0462 1382.6511,-98.4634"/>
<polygon fill="#191970" stroke="#191970" points="1384.2892,-95.3487 1374.0294,-92.7054 1380.4015,-101.1698 1384.2892,-95.3487"/>
</g>
<!-- Node64 -->
<g id="node47" class="node">
<title>Node64</title>
<g id="a_node47"><a xlink:href="SerializableSpline1dInterpolant_8h_source.html" target="_top" xlink:title="SerializableSpline1dInterpolant.h">
<polygon fill="#ffffff" stroke="#000000" points="2271,-200.5 2271,-221.5 2465,-221.5 2465,-200.5 2271,-200.5"/>
<text text-anchor="middle" x="2368" y="-207.9" font-family="Helvetica,sans-Serif" font-size="12.00" fill="#000000">SerializableSpline1dInterpolant.h</text>
</a>
</g>
</g>
<!-- Node63&#45;&gt;Node64 -->
<g id="edge110" class="edge">
<title>Node63&#45;&gt;Node64</title>
<path fill="none" stroke="#191970" d="M1726.1533,-261.8474C1742.0786,-260.5616 1758.5336,-259.2374 1774,-258 1944.0853,-244.3926 2141.5845,-228.8087 2260.5638,-219.4441"/>
<polygon fill="#191970" stroke="#191970" points="2261.0698,-222.9152 2270.7643,-218.6413 2260.5205,-215.9368 2261.0698,-222.9152"/>
</g>
<!-- Node64&#45;&gt;Node1 -->
<g id="edge111" class="edge">
<title>Node64&#45;&gt;Node1</title>
<path fill="none" stroke="#191970" d="M2465.2842,-202.1593C2548.3874,-193.5976 2656.6039,-179.6422 2670,-164 2680.1184,-152.1851 2680.4183,-140.5514 2670,-129 2604.5144,-56.3918 1934.6258,-28.1829 1685.045,-20.1423"/>
<polygon fill="#191970" stroke="#191970" points="1685.0178,-16.6397 1674.9114,-19.8195 1684.7948,-23.6362 1685.0178,-16.6397"/>
</g>
<!-- Node64&#45;&gt;Node51 -->
<g id="edge113" class="edge">
<title>Node64&#45;&gt;Node51</title>
<path fill="none" stroke="#191970" d="M2343.2403,-200.4934C2322.2621,-191.5915 2291.5342,-178.5524 2265.5307,-167.518"/>
<polygon fill="#191970" stroke="#191970" points="2266.7637,-164.2391 2256.191,-163.5547 2264.0293,-170.683 2266.7637,-164.2391"/>
</g>
<!-- Node64&#45;&gt;Node52 -->
<g id="edge114" class="edge">
<title>Node64&#45;&gt;Node52</title>
<path fill="none" stroke="#191970" d="M2385.5037,-200.3491C2399.4244,-191.8786 2419.3914,-179.7288 2436.8374,-169.1131"/>
<polygon fill="#191970" stroke="#191970" points="2438.962,-171.9174 2445.6853,-163.7292 2435.3232,-165.9375 2438.962,-171.9174"/>
</g>
<!-- Node64&#45;&gt;Node53 -->
<g id="edge115" class="edge">
<title>Node64&#45;&gt;Node53</title>
<path fill="none" stroke="#191970" d="M2364.3671,-200.3491C2361.8491,-192.9665 2358.3777,-182.7892 2355.1303,-173.2684"/>
<polygon fill="#191970" stroke="#191970" points="2358.4175,-172.0639 2351.8766,-163.7292 2351.7923,-174.3237 2358.4175,-172.0639"/>
</g>
<!-- Node64&#45;&gt;Node54 -->
<g id="edge116" class="edge">
<title>Node64&#45;&gt;Node54</title>
<path fill="none" stroke="#191970" d="M2406.4427,-200.4934C2441.9465,-190.79 2495.4363,-176.171 2537.8069,-164.5909"/>
<polygon fill="#191970" stroke="#191970" points="2538.7686,-167.9565 2547.492,-161.9439 2536.9231,-161.2042 2538.7686,-167.9565"/>
</g>
<!-- Node64&#45;&gt;Node62 -->
<g id="edge112" class="edge">
<title>Node64&#45;&gt;Node62</title>
<path fill="none" stroke="#191970" d="M2316.5258,-200.4934C2270.331,-191.0644 2201.3957,-176.9938 2145.4785,-165.5803"/>
<polygon fill="#191970" stroke="#191970" points="2146.053,-162.1254 2135.555,-163.5547 2144.653,-168.984 2146.053,-162.1254"/>
</g>
<!-- Node65&#45;&gt;Node1 -->
<g id="edge120" class="edge">
<title>Node65&#45;&gt;Node1</title>
<path fill="none" stroke="#191970" d="M2482.7091,-325.1973C2601.0432,-311.1019 2803,-277.3296 2803,-211 2803,-211 2803,-211 2803,-146.5 2803,-51.0724 2695.4076,-90.5304 2602,-71 2428.3681,-34.6957 1899.6939,-22.372 1684.5504,-18.7898"/>
<polygon fill="#191970" stroke="#191970" points="1684.6012,-15.2903 1674.5451,-18.6258 1684.4864,-22.2894 1684.6012,-15.2903"/>
</g>
<!-- Node65&#45;&gt;Node50 -->
<g id="edge121" class="edge">
<title>Node65&#45;&gt;Node50</title>
<path fill="none" stroke="#191970" d="M2382.0764,-316.2747C2363.914,-298.8325 2333.4148,-272.4318 2302,-258 2250.1613,-234.1855 2186.3264,-222.3782 2138.7472,-216.5586"/>
<polygon fill="#191970" stroke="#191970" points="2138.885,-213.0511 2128.5474,-215.3719 2138.0759,-220.0042 2138.885,-213.0511"/>
</g>
<!-- Node65&#45;&gt;Node63 -->
<g id="edge123" class="edge">
<title>Node65&#45;&gt;Node63</title>
<path fill="none" stroke="#191970" d="M2315.3828,-326.4129C2173.7502,-314.4085 1887.3631,-290.1352 1736.3395,-277.335"/>
<polygon fill="#191970" stroke="#191970" points="1736.407,-273.8282 1726.1471,-276.4711 1735.8157,-280.8032 1736.407,-273.8282"/>
</g>
<!-- Node65&#45;&gt;Node64 -->
<g id="edge122" class="edge">
<title>Node65&#45;&gt;Node64</title>
<path fill="none" stroke="#191970" d="M2394.6896,-316.4669C2389.063,-294.2329 2379.2243,-255.354 2373.1931,-231.5212"/>
<polygon fill="#191970" stroke="#191970" points="2376.5652,-230.5793 2370.7188,-221.7436 2369.7791,-232.2967 2376.5652,-230.5793"/>
</g>
</g>
</svg>
