<?xml version="1.0" encoding="UTF-8" standalone="no"?>
<!DOCTYPE svg PUBLIC "-//W3C//DTD SVG 1.1//EN"
 "http://www.w3.org/Graphics/SVG/1.1/DTD/svg11.dtd">
<!-- Generated by graphviz version 2.40.1 (20161225.0304)
 -->
<!-- Title: /home/kpenev/projects/git/poet/poet_src/Star/EvolvingStar.h Pages: 1 -->
<!--zoomable 334 -->
<svg id="main" version="1.1" xmlns="http://www.w3.org/2000/svg" xmlns:xlink="http://www.w3.org/1999/xlink" xml:space="preserve" onload="init(evt)">
<style type="text/css"><![CDATA[
.edge:hover path { stroke: red; }
.edge:hover polygon { stroke: red; fill: red; }
]]></style>
<script type="text/javascript"><![CDATA[
var edges = document.getElementsByTagName('g');
if (edges && edges.length) {
  for (var i=0;i<edges.length;i++) {
    if (edges[i].id.substr(0,4)=='edge') {
      edges[i].setAttribute('class','edge');
    }
  }
}
]]></script>
        <defs>
                <circle id="rim" cx="0" cy="0" r="7"/>
                <circle id="rim2" cx="0" cy="0" r="3.5"/>
                <g id="zoomPlus">
                        <use xlink:href="#rim" fill="#404040">
                                <set attributeName="fill" to="#808080" begin="zoomplus.mouseover" end="zoomplus.mouseout"/>
                        </use>
                        <path d="M-4,0h8M0,-4v8" fill="none" stroke="white" stroke-width="1.5" pointer-events="none"/>
                </g>
                <g id="zoomMin">
                        <use xlink:href="#rim" fill="#404040">
                                <set attributeName="fill" to="#808080" begin="zoomminus.mouseover" end="zoomminus.mouseout"/>
                        </use>
                        <path d="M-4,0h8" fill="none" stroke="white" stroke-width="1.5" pointer-events="none"/>
                </g>
                <g id="dirArrow">
                        <path fill="none" stroke="white" stroke-width="1.5" d="M0,-3.0v7 M-2.5,-0.5L0,-3.0L2.5,-0.5"/>
                </g>
               <g id="resetDef">
                       <use xlink:href="#rim2" fill="#404040">
                               <set attributeName="fill" to="#808080" begin="reset.mouseover" end="reset.mouseout"/>
                       </use>
               </g>
        </defs>

<script type="text/javascript">
var viewWidth = 1167;
var viewHeight = 334;
var sectionId = 'dynsection-1';
</script>
<script xlink:href="svgpan.js"/>
<svg id="graph" class="graph">
<g id="viewport">
<title>/home/kpenev/projects/git/poet/poet_src/Star/EvolvingStar.h</title>
<polygon fill="#ffffff" stroke="transparent" points="-4,4 -4,-330 1163,-330 1163,4 -4,4"/>
<!-- Node79 -->
<g id="node1" class="node">
<title>Node79</title>
<polygon fill="#bfbfbf" stroke="#000000" points="616,-278.5 616,-325.5 753,-325.5 753,-278.5 616,-278.5"/>
<text text-anchor="start" x="624" y="-311.9" font-family="Helvetica,sans-Serif" font-size="12.00" fill="#000000">/home/kpenev/projects</text>
<text text-anchor="start" x="624" y="-298.9" font-family="Helvetica,sans-Serif" font-size="12.00" fill="#000000">/git/poet/poet_src/Star</text>
<text text-anchor="middle" x="684.5" y="-285.9" font-family="Helvetica,sans-Serif" font-size="12.00" fill="#000000">/EvolvingStar.h</text>
</g>
<!-- Node80 -->
<g id="node2" class="node">
<title>Node80</title>
<g id="a_node2"><a xlink:href="Star_2CInterface_8h.html" target="_top" xlink:title="Declare C&#45;style functions for accessing the functionality of the Star library. ">
<polygon fill="#ffffff" stroke="#000000" points="313,-194.5 313,-241.5 450,-241.5 450,-194.5 313,-194.5"/>
<text text-anchor="start" x="321" y="-227.9" font-family="Helvetica,sans-Serif" font-size="12.00" fill="#000000">/home/kpenev/projects</text>
<text text-anchor="start" x="321" y="-214.9" font-family="Helvetica,sans-Serif" font-size="12.00" fill="#000000">/git/poet/poet_src/Star</text>
<text text-anchor="middle" x="381.5" y="-201.9" font-family="Helvetica,sans-Serif" font-size="12.00" fill="#000000">/CInterface.h</text>
</a>
</g>
</g>
<!-- Node79&#45;&gt;Node80 -->
<g id="edge1" class="edge">
<title>Node79&#45;&gt;Node80</title>
<path fill="none" stroke="#191970" d="M605.9705,-280.2294C557.7424,-266.8593 496.5528,-249.8958 450.245,-237.058"/>
<polygon fill="#191970" stroke="#191970" points="605.173,-283.6403 615.7446,-282.9391 607.0431,-276.8947 605.173,-283.6403"/>
</g>
<!-- Node85 -->
<g id="node7" class="node">
<title>Node85</title>
<g id="a_node7"><a xlink:href="MakeStar_8h.html" target="_top" xlink:title="Declares functions for creating stars used by unit tests. ">
<polygon fill="#ffffff" stroke="#000000" points="608.5,-194.5 608.5,-241.5 760.5,-241.5 760.5,-194.5 608.5,-194.5"/>
<text text-anchor="start" x="616.5" y="-227.9" font-family="Helvetica,sans-Serif" font-size="12.00" fill="#000000">/home/kpenev/projects</text>
<text text-anchor="start" x="616.5" y="-214.9" font-family="Helvetica,sans-Serif" font-size="12.00" fill="#000000">/git/poet/poet_src/unit</text>
<text text-anchor="middle" x="684.5" y="-201.9" font-family="Helvetica,sans-Serif" font-size="12.00" fill="#000000">_tests/shared/MakeStar.h</text>
</a>
</g>
</g>
<!-- Node79&#45;&gt;Node85 -->
<g id="edge7" class="edge">
<title>Node79&#45;&gt;Node85</title>
<path fill="none" stroke="#191970" d="M684.5,-268.0664C684.5,-259.1933 684.5,-249.821 684.5,-241.6152"/>
<polygon fill="#191970" stroke="#191970" points="681.0001,-268.1536 684.5,-278.1537 688.0001,-268.1537 681.0001,-268.1536"/>
</g>
<!-- Node90 -->
<g id="node12" class="node">
<title>Node90</title>
<g id="a_node12"><a xlink:href="testOrbitSolver_8h.html" target="_top" xlink:title="Declares the test suite that exercises the OrbitSolver class and some other clasess necessary to acco...">
<polygon fill="#ffffff" stroke="#000000" points="795.5,-104 795.5,-151 993.5,-151 993.5,-104 795.5,-104"/>
<text text-anchor="start" x="803.5" y="-137.4" font-family="Helvetica,sans-Serif" font-size="12.00" fill="#000000">/home/kpenev/projects</text>
<text text-anchor="start" x="803.5" y="-124.4" font-family="Helvetica,sans-Serif" font-size="12.00" fill="#000000">/git/poet/poet_src/unit</text>
<text text-anchor="middle" x="894.5" y="-111.4" font-family="Helvetica,sans-Serif" font-size="12.00" fill="#000000">_tests/testEvolve/testOrbitSolver.h</text>
</a>
</g>
</g>
<!-- Node79&#45;&gt;Node90 -->
<g id="edge15" class="edge">
<title>Node79&#45;&gt;Node90</title>
<path fill="none" stroke="#191970" d="M728.1957,-272.7426C741.7027,-263.2803 756.4532,-252.51 769.5,-242 806.1694,-212.4605 845.8302,-175.1188 870.4191,-151.2665"/>
<polygon fill="#191970" stroke="#191970" points="726.1913,-269.8733 719.9727,-278.4512 730.1832,-275.6235 726.1913,-269.8733"/>
</g>
<!-- Node81 -->
<g id="node3" class="node">
<title>Node81</title>
<g id="a_node3"><a xlink:href="Evolve_2CInterface_8h.html" target="_top" xlink:title="Declare C&#45;style functions for accessing the functionality of the Evolve library. ">
<polygon fill="#ffffff" stroke="#000000" points="192,-104 192,-151 339,-151 339,-104 192,-104"/>
<text text-anchor="start" x="200" y="-137.4" font-family="Helvetica,sans-Serif" font-size="12.00" fill="#000000">/home/kpenev/projects</text>
<text text-anchor="start" x="200" y="-124.4" font-family="Helvetica,sans-Serif" font-size="12.00" fill="#000000">/git/poet/poet_src/Evolve</text>
<text text-anchor="middle" x="265.5" y="-111.4" font-family="Helvetica,sans-Serif" font-size="12.00" fill="#000000">/CInterface.h</text>
</a>
</g>
</g>
<!-- Node80&#45;&gt;Node81 -->
<g id="edge2" class="edge">
<title>Node80&#45;&gt;Node81</title>
<path fill="none" stroke="#191970" d="M343.0565,-188.0075C327.7336,-176.0529 310.3481,-162.4893 295.9267,-151.2381"/>
<polygon fill="#191970" stroke="#191970" points="341.2879,-191.0668 351.3252,-194.4584 345.5937,-185.5477 341.2879,-191.0668"/>
</g>
<!-- Node84 -->
<g id="node6" class="node">
<title>Node84</title>
<g id="a_node6"><a xlink:href="Star_2CInterface_8cpp.html" target="_top" xlink:title="The definitions of the functions declared in CInterface.h. ">
<polygon fill="#ffffff" stroke="#000000" points="328,-7 328,-54 465,-54 465,-7 328,-7"/>
<text text-anchor="start" x="336" y="-40.4" font-family="Helvetica,sans-Serif" font-size="12.00" fill="#000000">/home/kpenev/projects</text>
<text text-anchor="start" x="336" y="-27.4" font-family="Helvetica,sans-Serif" font-size="12.00" fill="#000000">/git/poet/poet_src/Star</text>
<text text-anchor="middle" x="396.5" y="-14.4" font-family="Helvetica,sans-Serif" font-size="12.00" fill="#000000">/CInterface.cpp</text>
</a>
</g>
</g>
<!-- Node80&#45;&gt;Node84 -->
<g id="edge6" class="edge">
<title>Node80&#45;&gt;Node84</title>
<path fill="none" stroke="#191970" d="M384.1973,-184.2839C387.2035,-146.706 391.9867,-86.9162 394.6157,-54.0542"/>
<polygon fill="#191970" stroke="#191970" points="380.7085,-184.0057 383.3998,-194.253 387.6862,-184.564 380.7085,-184.0057"/>
</g>
<!-- Node82 -->
<g id="node4" class="node">
<title>Node82</title>
<g id="a_node4"><a xlink:href="Evolve_2CInterface_8cpp.html" target="_top" xlink:title="The definitions of the functions declared in CInterface.h. ">
<polygon fill="#ffffff" stroke="#000000" points="0,-7 0,-54 147,-54 147,-7 0,-7"/>
<text text-anchor="start" x="8" y="-40.4" font-family="Helvetica,sans-Serif" font-size="12.00" fill="#000000">/home/kpenev/projects</text>
<text text-anchor="start" x="8" y="-27.4" font-family="Helvetica,sans-Serif" font-size="12.00" fill="#000000">/git/poet/poet_src/Evolve</text>
<text text-anchor="middle" x="73.5" y="-14.4" font-family="Helvetica,sans-Serif" font-size="12.00" fill="#000000">/CInterface.cpp</text>
</a>
</g>
</g>
<!-- Node81&#45;&gt;Node82 -->
<g id="edge3" class="edge">
<title>Node81&#45;&gt;Node82</title>
<path fill="none" stroke="#191970" d="M209.5509,-99.234C181.2275,-84.9248 147.2368,-67.7524 120.3159,-54.1518"/>
<polygon fill="#191970" stroke="#191970" points="208.0276,-102.3858 218.5315,-103.7711 211.1842,-96.1378 208.0276,-102.3858"/>
</g>
<!-- Node83 -->
<g id="node5" class="node">
<title>Node83</title>
<g id="a_node5"><a xlink:href="Planet_2CInterface_8cpp.html" target="_top" xlink:title="The definitions of the functions declared in CInterface.h. ">
<polygon fill="#ffffff" stroke="#000000" points="165,-7 165,-54 310,-54 310,-7 165,-7"/>
<text text-anchor="start" x="173" y="-40.4" font-family="Helvetica,sans-Serif" font-size="12.00" fill="#000000">/home/kpenev/projects</text>
<text text-anchor="start" x="173" y="-27.4" font-family="Helvetica,sans-Serif" font-size="12.00" fill="#000000">/git/poet/poet_src/Planet</text>
<text text-anchor="middle" x="237.5" y="-14.4" font-family="Helvetica,sans-Serif" font-size="12.00" fill="#000000">/CInterface.cpp</text>
</a>
</g>
</g>
<!-- Node81&#45;&gt;Node83 -->
<g id="edge4" class="edge">
<title>Node81&#45;&gt;Node83</title>
<path fill="none" stroke="#191970" d="M255.8022,-93.904C252.0264,-80.8236 247.7882,-66.1412 244.3417,-54.2017"/>
<polygon fill="#191970" stroke="#191970" points="252.4425,-94.8854 258.5786,-103.5225 259.1679,-92.944 252.4425,-94.8854"/>
</g>
<!-- Node81&#45;&gt;Node84 -->
<g id="edge5" class="edge">
<title>Node81&#45;&gt;Node84</title>
<path fill="none" stroke="#191970" d="M305.6637,-97.7604C324.4939,-83.8175 346.6267,-67.4291 364.3306,-54.3201"/>
<polygon fill="#191970" stroke="#191970" points="303.5001,-95.0074 297.5462,-103.7711 307.6657,-100.6331 303.5001,-95.0074"/>
</g>
<!-- Node86 -->
<g id="node8" class="node">
<title>Node86</title>
<g id="a_node8"><a xlink:href="MakeStar_8cpp.html" target="_top" xlink:title="Implement the functions defined in MakeStar.h. ">
<polygon fill="#ffffff" stroke="#000000" points="409.5,-104 409.5,-151 573.5,-151 573.5,-104 409.5,-104"/>
<text text-anchor="start" x="417.5" y="-137.4" font-family="Helvetica,sans-Serif" font-size="12.00" fill="#000000">/home/kpenev/projects</text>
<text text-anchor="start" x="417.5" y="-124.4" font-family="Helvetica,sans-Serif" font-size="12.00" fill="#000000">/git/poet/poet_src/unit</text>
<text text-anchor="middle" x="491.5" y="-111.4" font-family="Helvetica,sans-Serif" font-size="12.00" fill="#000000">_tests/shared/MakeStar.cpp</text>
</a>
</g>
</g>
<!-- Node85&#45;&gt;Node86 -->
<g id="edge8" class="edge">
<title>Node85&#45;&gt;Node86</title>
<path fill="none" stroke="#191970" d="M625.0651,-190.1303C598.3978,-177.6257 567.2775,-163.033 541.7882,-151.0807"/>
<polygon fill="#191970" stroke="#191970" points="623.7554,-193.3818 634.2953,-194.4584 626.7273,-187.0439 623.7554,-193.3818"/>
</g>
<!-- Node87 -->
<g id="node9" class="node">
<title>Node87</title>
<g id="a_node9"><a xlink:href="testDifferentialEquations_8h.html" target="_top" xlink:title="Unit tests that check the differential equations for eccentricity and semimajor against analytic expr...">
<polygon fill="#ffffff" stroke="#000000" points="591.5,-97.5 591.5,-157.5 777.5,-157.5 777.5,-97.5 591.5,-97.5"/>
<text text-anchor="start" x="599.5" y="-143.9" font-family="Helvetica,sans-Serif" font-size="12.00" fill="#000000">/home/kpenev/projects</text>
<text text-anchor="start" x="599.5" y="-130.9" font-family="Helvetica,sans-Serif" font-size="12.00" fill="#000000">/git/poet/poet_src/unit</text>
<text text-anchor="start" x="599.5" y="-117.9" font-family="Helvetica,sans-Serif" font-size="12.00" fill="#000000">_tests/testEvolve/testDifferential</text>
<text text-anchor="middle" x="684.5" y="-104.9" font-family="Helvetica,sans-Serif" font-size="12.00" fill="#000000">Equations.h</text>
</a>
</g>
</g>
<!-- Node85&#45;&gt;Node87 -->
<g id="edge9" class="edge">
<title>Node85&#45;&gt;Node87</title>
<path fill="none" stroke="#191970" d="M684.5,-184.0234C684.5,-175.3454 684.5,-166.0766 684.5,-157.6077"/>
<polygon fill="#191970" stroke="#191970" points="681.0001,-184.2222 684.5,-194.2222 688.0001,-184.2222 681.0001,-184.2222"/>
</g>
<!-- Node85&#45;&gt;Node90 -->
<g id="edge12" class="edge">
<title>Node85&#45;&gt;Node90</title>
<path fill="none" stroke="#191970" d="M748.411,-190.4574C777.5944,-177.8808 811.8056,-163.1374 839.7823,-151.0807"/>
<polygon fill="#191970" stroke="#191970" points="746.9251,-187.2865 739.1268,-194.4584 749.6955,-193.715 746.9251,-187.2865"/>
</g>
<!-- Node88 -->
<g id="node10" class="node">
<title>Node88</title>
<g id="a_node10"><a xlink:href="testDifferentialEquations_8cpp.html" target="_top" xlink:title="Implement the non&#45;inline methods of test_DifferentialEquations. ">
<polygon fill="#ffffff" stroke="#000000" points="537.5,-.5 537.5,-60.5 723.5,-60.5 723.5,-.5 537.5,-.5"/>
<text text-anchor="start" x="545.5" y="-46.9" font-family="Helvetica,sans-Serif" font-size="12.00" fill="#000000">/home/kpenev/projects</text>
<text text-anchor="start" x="545.5" y="-33.9" font-family="Helvetica,sans-Serif" font-size="12.00" fill="#000000">/git/poet/poet_src/unit</text>
<text text-anchor="start" x="545.5" y="-20.9" font-family="Helvetica,sans-Serif" font-size="12.00" fill="#000000">_tests/testEvolve/testDifferential</text>
<text text-anchor="middle" x="630.5" y="-7.9" font-family="Helvetica,sans-Serif" font-size="12.00" fill="#000000">Equations.cpp</text>
</a>
</g>
</g>
<!-- Node87&#45;&gt;Node88 -->
<g id="edge10" class="edge">
<title>Node87&#45;&gt;Node88</title>
<path fill="none" stroke="#191970" d="M662.6891,-88.3211C657.5523,-79.0939 652.1551,-69.399 647.2795,-60.641"/>
<polygon fill="#191970" stroke="#191970" points="659.7879,-90.3054 667.7101,-97.3403 665.904,-86.9005 659.7879,-90.3054"/>
</g>
<!-- Node89 -->
<g id="node11" class="node">
<title>Node89</title>
<g id="a_node11"><a xlink:href="testEvolve_8cpp_source.html" target="_top" xlink:title="/home/kpenev/projects\l/git/poet/poet_src/unit\l_tests/testEvolve/testEvolve.cpp">
<polygon fill="#ffffff" stroke="#000000" points="741.5,-7 741.5,-54 929.5,-54 929.5,-7 741.5,-7"/>
<text text-anchor="start" x="749.5" y="-40.4" font-family="Helvetica,sans-Serif" font-size="12.00" fill="#000000">/home/kpenev/projects</text>
<text text-anchor="start" x="749.5" y="-27.4" font-family="Helvetica,sans-Serif" font-size="12.00" fill="#000000">/git/poet/poet_src/unit</text>
<text text-anchor="middle" x="835.5" y="-14.4" font-family="Helvetica,sans-Serif" font-size="12.00" fill="#000000">_tests/testEvolve/testEvolve.cpp</text>
</a>
</g>
</g>
<!-- Node87&#45;&gt;Node89 -->
<g id="edge11" class="edge">
<title>Node87&#45;&gt;Node89</title>
<path fill="none" stroke="#191970" d="M739.9839,-91.858C759.5355,-79.2984 781.0173,-65.4988 798.6488,-54.1726"/>
<polygon fill="#191970" stroke="#191970" points="737.9716,-88.9907 731.4496,-97.3403 741.7549,-94.8803 737.9716,-88.9907"/>
</g>
<!-- Node90&#45;&gt;Node89 -->
<g id="edge13" class="edge">
<title>Node90&#45;&gt;Node89</title>
<path fill="none" stroke="#191970" d="M874.5322,-94.6716C866.4601,-81.4005 857.3211,-66.3753 849.9165,-54.2017"/>
<polygon fill="#191970" stroke="#191970" points="871.7287,-96.7976 879.9157,-103.5225 877.7093,-93.1599 871.7287,-96.7976"/>
</g>
<!-- Node91 -->
<g id="node13" class="node">
<title>Node91</title>
<g id="a_node13"><a xlink:href="testOrbitSolver_8cpp.html" target="_top" xlink:title="Defines some of the methods of the test suite that exercises the OrbitSolver class and the other clas...">
<polygon fill="#ffffff" stroke="#000000" points="948,-7 948,-54 1159,-54 1159,-7 948,-7"/>
<text text-anchor="start" x="956" y="-40.4" font-family="Helvetica,sans-Serif" font-size="12.00" fill="#000000">/home/kpenev/projects</text>
<text text-anchor="start" x="956" y="-27.4" font-family="Helvetica,sans-Serif" font-size="12.00" fill="#000000">/git/poet/poet_src/unit</text>
<text text-anchor="middle" x="1053.5" y="-14.4" font-family="Helvetica,sans-Serif" font-size="12.00" fill="#000000">_tests/testEvolve/testOrbitSolver.cpp</text>
</a>
</g>
</g>
<!-- Node90&#45;&gt;Node91 -->
<g id="edge14" class="edge">
<title>Node90&#45;&gt;Node91</title>
<path fill="none" stroke="#191970" d="M942.0555,-98.4882C965.2612,-84.3312 992.8227,-67.5169 1014.7305,-54.1518"/>
<polygon fill="#191970" stroke="#191970" points="940.1098,-95.5752 933.3958,-103.7711 943.7554,-101.551 940.1098,-95.5752"/>
</g>
</g>
</svg>
        <g id="navigator" transform="translate(0 0)" fill="#404254">
                <rect fill="#f2f5e9" fill-opacity="0.5" stroke="#606060" stroke-width=".5" x="0" y="0" width="60" height="60"/>
                <use id="zoomplus" xlink:href="#zoomPlus" x="17" y="9" onmousedown="handleZoom(evt,'in')"/>
                <use id="zoomminus" xlink:href="#zoomMin" x="42" y="9" onmousedown="handleZoom(evt,'out')"/>
                <use id="reset" xlink:href="#resetDef" x="30" y="36" onmousedown="handleReset()"/>
                <g id="arrowUp" xlink:href="#dirArrow" transform="translate(30 24)" onmousedown="handlePan(0,-1)">
                  <use xlink:href="#rim" fill="#404040">
                        <set attributeName="fill" to="#808080" begin="arrowUp.mouseover" end="arrowUp.mouseout"/>
                  </use>
                  <path fill="none" stroke="white" stroke-width="1.5" d="M0,-3.0v7 M-2.5,-0.5L0,-3.0L2.5,-0.5"/>
                </g>
                <g id="arrowRight" xlink:href="#dirArrow" transform="rotate(90) translate(36 -43)" onmousedown="handlePan(1,0)">
                  <use xlink:href="#rim" fill="#404040">
                        <set attributeName="fill" to="#808080" begin="arrowRight.mouseover" end="arrowRight.mouseout"/>
                  </use>
                  <path fill="none" stroke="white" stroke-width="1.5" d="M0,-3.0v7 M-2.5,-0.5L0,-3.0L2.5,-0.5"/>
                </g>
                <g id="arrowDown" xlink:href="#dirArrow" transform="rotate(180) translate(-30 -48)" onmousedown="handlePan(0,1)">
                  <use xlink:href="#rim" fill="#404040">
                        <set attributeName="fill" to="#808080" begin="arrowDown.mouseover" end="arrowDown.mouseout"/>
                  </use>
                  <path fill="none" stroke="white" stroke-width="1.5" d="M0,-3.0v7 M-2.5,-0.5L0,-3.0L2.5,-0.5"/>
                </g>
                <g id="arrowLeft" xlink:href="#dirArrow" transform="rotate(270) translate(-36 17)" onmousedown="handlePan(-1,0)">
                  <use xlink:href="#rim" fill="#404040">
                        <set attributeName="fill" to="#808080" begin="arrowLeft.mouseover" end="arrowLeft.mouseout"/>
                  </use>
                  <path fill="none" stroke="white" stroke-width="1.5" d="M0,-3.0v7 M-2.5,-0.5L0,-3.0L2.5,-0.5"/>
                </g>
        </g>
        <svg viewBox="0 0 15 15" width="100%" height="30px" preserveAspectRatio="xMaxYMin meet">
         <g id="arrow_out" transform="scale(0.3 0.3)">
          <a xlink:href="EvolvingStar_8h__dep__incl_org.svg" target="_base">
           <rect id="button" ry="5" rx="5" y="6" x="6" height="38" width="38"
                fill="#f2f5e9" fill-opacity="0.5" stroke="#606060" stroke-width="1.0"/>
           <path id="arrow"
             d="M 11.500037,31.436501 C 11.940474,20.09759 22.043105,11.32322 32.158766,21.979434 L 37.068811,17.246167 C 37.068811,17.246167 37.088388,32 37.088388,32 L 22.160133,31.978069 C 22.160133,31.978069 26.997745,27.140456 26.997745,27.140456 C 18.528582,18.264221 13.291696,25.230495 11.500037,31.436501 z"
             style="fill:#404040;"/>
          </a>
         </g>
        </svg>
</svg>
