<?xml version="1.0" encoding="UTF-8" standalone="no"?>
<!DOCTYPE svg PUBLIC "-//W3C//DTD SVG 1.1//EN"
 "http://www.w3.org/Graphics/SVG/1.1/DTD/svg11.dtd">
<!-- Generated by graphviz version 2.40.1 (20161225.0304)
 -->
<!-- Title: /home/kpenev/projects/git/poet/poet_src/Star/ExponentialDecayDiffRotBody.cpp Pages: 1 -->
<svg width="2070pt" height="546pt"
 viewBox="0.00 0.00 2070.00 546.00" xmlns="http://www.w3.org/2000/svg" xmlns:xlink="http://www.w3.org/1999/xlink">
<g id="graph0" class="graph" transform="scale(1 1) rotate(0) translate(4 542)">
<title>/home/kpenev/projects/git/poet/poet_src/Star/ExponentialDecayDiffRotBody.cpp</title>
<polygon fill="#ffffff" stroke="transparent" points="-4,4 -4,-542 2066,-542 2066,4 -4,4"/>
<!-- Node0 -->
<g id="node1" class="node">
<title>Node0</title>
<polygon fill="#bfbfbf" stroke="#000000" points="1845.5,-490.5 1845.5,-537.5 2050.5,-537.5 2050.5,-490.5 1845.5,-490.5"/>
<text text-anchor="start" x="1853.5" y="-523.9" font-family="Helvetica,sans-Serif" font-size="12.00" fill="#000000">/home/kpenev/projects</text>
<text text-anchor="start" x="1853.5" y="-510.9" font-family="Helvetica,sans-Serif" font-size="12.00" fill="#000000">/git/poet/poet_src/Star</text>
<text text-anchor="middle" x="1948" y="-497.9" font-family="Helvetica,sans-Serif" font-size="12.00" fill="#000000">/ExponentialDecayDiffRotBody.cpp</text>
</g>
<!-- Node1 -->
<g id="node2" class="node">
<title>Node1</title>
<g id="a_node2"><a xlink:href="ExponentialDecayDiffRotBody_8h.html" target="_top" xlink:title="Declares a DissipatingBody with exponentially decaying differential rotation coupling. ">
<polygon fill="#ffffff" stroke="#000000" points="1853.5,-432.5 1853.5,-453.5 2042.5,-453.5 2042.5,-432.5 1853.5,-432.5"/>
<text text-anchor="middle" x="1948" y="-439.9" font-family="Helvetica,sans-Serif" font-size="12.00" fill="#000000">ExponentialDecayDiffRotBody.h</text>
</a>
</g>
</g>
<!-- Node0&#45;&gt;Node1 -->
<g id="edge1" class="edge">
<title>Node0&#45;&gt;Node1</title>
<path fill="none" stroke="#191970" d="M1948,-490.358C1948,-481.719 1948,-472.0215 1948,-463.6624"/>
<polygon fill="#191970" stroke="#191970" points="1951.5001,-463.6462 1948,-453.6462 1944.5001,-463.6463 1951.5001,-463.6462"/>
</g>
<!-- Node2 -->
<g id="node3" class="node">
<title>Node2</title>
<g id="a_node3"><a xlink:href="SharedLibraryExportMacros_8h_source.html" target="_top" xlink:title="../Core/SharedLibraryExport\lMacros.h">
<polygon fill="#ffffff" stroke="#000000" points="1579.5,-.5 1579.5,-34.5 1744.5,-34.5 1744.5,-.5 1579.5,-.5"/>
<text text-anchor="start" x="1587.5" y="-20.9" font-family="Helvetica,sans-Serif" font-size="12.00" fill="#000000">../Core/SharedLibraryExport</text>
<text text-anchor="middle" x="1662" y="-7.9" font-family="Helvetica,sans-Serif" font-size="12.00" fill="#000000">Macros.h</text>
</a>
</g>
</g>
<!-- Node1&#45;&gt;Node2 -->
<g id="edge2" class="edge">
<title>Node1&#45;&gt;Node2</title>
<path fill="none" stroke="#191970" d="M1971.0696,-432.4077C2004.3807,-415.3399 2062,-378.3899 2062,-327 2062,-327 2062,-327 2062,-140 2062,-101.8657 2043.6452,-90.7107 2011,-71 1968.999,-45.6404 1843.0603,-31.0767 1754.5819,-23.7234"/>
<polygon fill="#191970" stroke="#191970" points="1754.777,-20.2278 1744.526,-22.9052 1754.2092,-27.2047 1754.777,-20.2278"/>
</g>
<!-- Node3 -->
<g id="node4" class="node">
<title>Node3</title>
<g id="a_node4"><a xlink:href="DissipatingBody_8h.html" target="_top" xlink:title="Declares the DissipatingBody class. ">
<polygon fill="#ffffff" stroke="#000000" points="688.5,-374.5 688.5,-395.5 851.5,-395.5 851.5,-374.5 688.5,-374.5"/>
<text text-anchor="middle" x="770" y="-381.9" font-family="Helvetica,sans-Serif" font-size="12.00" fill="#000000">../Evolve/DissipatingBody.h</text>
</a>
</g>
</g>
<!-- Node1&#45;&gt;Node3 -->
<g id="edge3" class="edge">
<title>Node1&#45;&gt;Node3</title>
<path fill="none" stroke="#191970" d="M1853.0944,-438.3272C1631.1766,-427.4009 1080.6335,-400.2943 861.8088,-389.5203"/>
<polygon fill="#191970" stroke="#191970" points="861.802,-386.0158 851.642,-389.0197 861.4577,-393.0073 861.802,-386.0158"/>
</g>
<!-- Node5 -->
<g id="node6" class="node">
<title>Node5</title>
<g id="a_node6"><a xlink:href="ZoneOrientation_8h.html" target="_top" xlink:title="Declares a class for orientations of zones of DissipatingBody objects. ">
<polygon fill="#ffffff" stroke="#000000" points="1705.5,-187.5 1705.5,-208.5 1818.5,-208.5 1818.5,-187.5 1705.5,-187.5"/>
<text text-anchor="middle" x="1762" y="-194.9" font-family="Helvetica,sans-Serif" font-size="12.00" fill="#000000">ZoneOrientation.h</text>
</a>
</g>
</g>
<!-- Node1&#45;&gt;Node5 -->
<g id="edge83" class="edge">
<title>Node1&#45;&gt;Node5</title>
<path fill="none" stroke="#191970" d="M1950.6693,-432.442C1958.1664,-400.0982 1975.9421,-301.1792 1929,-245 1915.8419,-229.2527 1869.376,-216.9531 1828.7888,-208.8926"/>
<polygon fill="#191970" stroke="#191970" points="1829.3727,-205.4408 1818.8911,-206.9856 1828.0484,-212.3144 1829.3727,-205.4408"/>
</g>
<!-- Node3&#45;&gt;Node2 -->
<g id="edge4" class="edge">
<title>Node3&#45;&gt;Node2</title>
<path fill="none" stroke="#191970" d="M851.614,-383.9324C1059.5899,-380.7766 1605.5976,-369.6443 1784,-338 1894.1016,-318.4707 2024,-374.3202 2024,-262.5 2024,-262.5 2024,-262.5 2024,-140 2024,-104.5529 2013.1545,-91.162 1984,-71 1947.7391,-45.9235 1836.6054,-31.5661 1755.0086,-24.1613"/>
<polygon fill="#191970" stroke="#191970" points="1754.9791,-20.6451 1744.7092,-23.2491 1754.3614,-27.6178 1754.9791,-20.6451"/>
</g>
<!-- Node4 -->
<g id="node5" class="node">
<title>Node4</title>
<g id="a_node5"><a xlink:href="DissipatingZone_8h.html" target="_top" xlink:title="Declares a class representing one zone of a body dissipative to tidal distortions. ">
<polygon fill="#ffffff" stroke="#000000" points="1181,-316.5 1181,-337.5 1295,-337.5 1295,-316.5 1181,-316.5"/>
<text text-anchor="middle" x="1238" y="-323.9" font-family="Helvetica,sans-Serif" font-size="12.00" fill="#000000">DissipatingZone.h</text>
</a>
</g>
</g>
<!-- Node3&#45;&gt;Node4 -->
<g id="edge5" class="edge">
<title>Node3&#45;&gt;Node4</title>
<path fill="none" stroke="#191970" d="M851.5194,-374.8972C942.1152,-363.6695 1086.7216,-345.7482 1170.9946,-335.3041"/>
<polygon fill="#191970" stroke="#191970" points="1171.4715,-338.7719 1180.9651,-334.0684 1170.6105,-331.825 1171.4715,-338.7719"/>
</g>
<!-- Node8 -->
<g id="node9" class="node">
<title>Node8</title>
<polygon fill="#ffffff" stroke="#bfbfbf" points="1634.5,-71.5 1634.5,-92.5 1689.5,-92.5 1689.5,-71.5 1634.5,-71.5"/>
<text text-anchor="middle" x="1662" y="-78.9" font-family="Helvetica,sans-Serif" font-size="12.00" fill="#000000">cassert</text>
</g>
<!-- Node3&#45;&gt;Node8 -->
<g id="edge82" class="edge">
<title>Node3&#45;&gt;Node8</title>
<path fill="none" stroke="#191970" d="M851.8661,-383.8222C1104.0746,-379.3532 1856.6103,-359.4185 1929,-280 1990.3466,-212.6968 1937.167,-203.2416 1815,-129 1779.0018,-107.1237 1731.9867,-94.6752 1699.6253,-88.16"/>
<polygon fill="#191970" stroke="#191970" points="1700.1462,-84.6961 1689.6658,-86.2487 1698.8269,-91.5707 1700.1462,-84.6961"/>
</g>
<!-- Node9 -->
<g id="node10" class="node">
<title>Node9</title>
<g id="a_node10"><a xlink:href="Core_2Common_8h.html" target="_top" xlink:title="Declaration of some general purpose utilities. ">
<polygon fill="#ffffff" stroke="#000000" points="999.5,-129.5 999.5,-150.5 1112.5,-150.5 1112.5,-129.5 999.5,-129.5"/>
<text text-anchor="middle" x="1056" y="-136.9" font-family="Helvetica,sans-Serif" font-size="12.00" fill="#000000">../Core/Common.h</text>
</a>
</g>
</g>
<!-- Node3&#45;&gt;Node9 -->
<g id="edge80" class="edge">
<title>Node3&#45;&gt;Node9</title>
<path fill="none" stroke="#191970" d="M688.1655,-375.8993C579.6916,-360.6068 409.1275,-323.3955 474,-245 501.2577,-212.0604 621.0671,-217.3446 663,-209 710.1898,-199.6093 721.6889,-195.7588 769,-187 863.7006,-169.4679 890.1233,-167.3071 989.3197,-151.1013"/>
<polygon fill="#191970" stroke="#191970" points="990.1754,-154.5078 999.4766,-149.4346 989.0418,-147.6002 990.1754,-154.5078"/>
</g>
<!-- Node11 -->
<g id="node12" class="node">
<title>Node11</title>
<polygon fill="#ffffff" stroke="#bfbfbf" points="229.5,-71.5 229.5,-92.5 288.5,-92.5 288.5,-71.5 229.5,-71.5"/>
<text text-anchor="middle" x="259" y="-78.9" font-family="Helvetica,sans-Serif" font-size="12.00" fill="#000000">valarray</text>
</g>
<!-- Node3&#45;&gt;Node11 -->
<g id="edge81" class="edge">
<title>Node3&#45;&gt;Node11</title>
<path fill="none" stroke="#191970" d="M688.3853,-376.0316C616.9305,-367.3814 519.0545,-353.3675 483,-338 395.0962,-300.5328 374.6344,-280.2848 311,-209 291.1014,-186.7091 288.4347,-178.6059 277,-151 270.4954,-135.2964 265.7904,-116.5902 262.8256,-102.619"/>
<polygon fill="#191970" stroke="#191970" points="266.2109,-101.698 260.8199,-92.5773 259.3465,-103.0691 266.2109,-101.698"/>
</g>
<!-- Node24 -->
<g id="node25" class="node">
<title>Node24</title>
<g id="a_node25"><a xlink:href="AstronomicalConstants_8h.html" target="_top" xlink:title="Defines various astronomical constants. ">
<polygon fill="#ffffff" stroke="#000000" points="0,-71.5 0,-92.5 150,-92.5 150,-71.5 0,-71.5"/>
<text text-anchor="middle" x="75" y="-78.9" font-family="Helvetica,sans-Serif" font-size="12.00" fill="#000000">AstronomicalConstants.h</text>
</a>
</g>
</g>
<!-- Node3&#45;&gt;Node24 -->
<g id="edge79" class="edge">
<title>Node3&#45;&gt;Node24</title>
<path fill="none" stroke="#191970" d="M688.4613,-381.7545C550.2115,-375.7048 275.6963,-361.1773 182,-338 99.3746,-317.5613 6,-347.6158 6,-262.5 6,-262.5 6,-262.5 6,-198 6,-158.7298 35.5709,-121.1625 55.9957,-99.8983"/>
<polygon fill="#191970" stroke="#191970" points="58.713,-102.13 63.2951,-92.5772 53.7559,-97.1875 58.713,-102.13"/>
</g>
<!-- Node41 -->
<g id="node42" class="node">
<title>Node41</title>
<g id="a_node42"><a xlink:href="OrbitalExpressions_8h.html" target="_top" xlink:title="A collection of functions which calculate various quantities for two body orbits. ...">
<polygon fill="#ffffff" stroke="#000000" points="34,-187.5 34,-208.5 200,-208.5 200,-187.5 34,-187.5"/>
<text text-anchor="middle" x="117" y="-194.9" font-family="Helvetica,sans-Serif" font-size="12.00" fill="#000000">../Core/OrbitalExpressions.h</text>
</a>
</g>
</g>
<!-- Node3&#45;&gt;Node41 -->
<g id="edge75" class="edge">
<title>Node3&#45;&gt;Node41</title>
<path fill="none" stroke="#191970" d="M688.4121,-381.9296C543.8314,-375.9281 254.0359,-361.1685 214,-338 166.8628,-310.722 137.3432,-250.2289 124.49,-218.4334"/>
<polygon fill="#191970" stroke="#191970" points="127.6483,-216.8974 120.7686,-208.8402 121.1221,-219.4291 127.6483,-216.8974"/>
</g>
<!-- Node4&#45;&gt;Node2 -->
<g id="edge35" class="edge">
<title>Node4&#45;&gt;Node2</title>
<path fill="none" stroke="#191970" d="M1260.5332,-316.3999C1278.1918,-307.6612 1303.0304,-294.399 1323,-280 1341.6244,-266.5709 1343.0064,-259.2632 1361,-245 1455.2838,-170.263 1491.8949,-169.2004 1585,-93 1604.2468,-77.2478 1624.2529,-57.5133 1639.0476,-42.1713"/>
<polygon fill="#191970" stroke="#191970" points="1641.907,-44.2445 1646.2776,-34.5931 1636.8422,-39.4125 1641.907,-44.2445"/>
</g>
<!-- Node4&#45;&gt;Node5 -->
<g id="edge6" class="edge">
<title>Node4&#45;&gt;Node5</title>
<path fill="none" stroke="#191970" d="M1295.4551,-325.741C1422.7314,-322.392 1719.764,-311.2779 1752,-280 1768.0898,-264.3884 1768.2585,-237.2676 1765.9505,-218.5143"/>
<polygon fill="#191970" stroke="#191970" points="1769.4023,-217.9331 1764.407,-208.5898 1762.4854,-219.0089 1769.4023,-217.9331"/>
</g>
<!-- Node6 -->
<g id="node7" class="node">
<title>Node6</title>
<g id="a_node7"><a xlink:href="DissipationQuantities_8h.html" target="_top" xlink:title="Declaration of enumerations of dissipation quantities and derivatives. ">
<polygon fill="#ffffff" stroke="#000000" points="1666,-129.5 1666,-150.5 1806,-150.5 1806,-129.5 1666,-129.5"/>
<text text-anchor="middle" x="1736" y="-136.9" font-family="Helvetica,sans-Serif" font-size="12.00" fill="#000000">DissipationQuantities.h</text>
</a>
</g>
</g>
<!-- Node4&#45;&gt;Node6 -->
<g id="edge54" class="edge">
<title>Node4&#45;&gt;Node6</title>
<path fill="none" stroke="#191970" d="M1295.3239,-322.7473C1375.1469,-316.1353 1515.1456,-301.835 1561,-280 1581.7307,-270.1284 1581.4255,-259.7766 1599,-245 1637.9101,-212.2845 1685.4109,-176.8202 1713.031,-156.616"/>
<polygon fill="#191970" stroke="#191970" points="1715.2442,-159.3339 1721.2639,-150.6153 1711.1211,-153.6771 1715.2442,-159.3339"/>
</g>
<!-- Node4&#45;&gt;Node9 -->
<g id="edge72" class="edge">
<title>Node4&#45;&gt;Node9</title>
<path fill="none" stroke="#191970" d="M1206.2765,-316.4432C1186.4299,-308.6739 1161.257,-296.5734 1143,-280 1104.714,-245.2446 1077.1312,-189.8031 1064.2167,-160.1933"/>
<polygon fill="#191970" stroke="#191970" points="1067.3916,-158.715 1060.2669,-150.8735 1060.9465,-161.4465 1067.3916,-158.715"/>
</g>
<!-- Node4&#45;&gt;Node11 -->
<g id="edge73" class="edge">
<title>Node4&#45;&gt;Node11</title>
<path fill="none" stroke="#191970" d="M1180.9946,-326.4077C1005.1856,-324.2157 479.1182,-314.7894 411,-280 334.6999,-241.0319 285.596,-144.1659 267.1877,-102.0669"/>
<polygon fill="#191970" stroke="#191970" points="270.3958,-100.667 263.2623,-92.8336 263.9538,-103.4058 270.3958,-100.667"/>
</g>
<!-- Node21 -->
<g id="node22" class="node">
<title>Node21</title>
<g id="a_node22"><a xlink:href="Error_8h.html" target="_top" xlink:title="Defines the exception hierarchy used by this code. ">
<polygon fill="#ffffff" stroke="#000000" points="312.5,-71.5 312.5,-92.5 365.5,-92.5 365.5,-71.5 312.5,-71.5"/>
<text text-anchor="middle" x="339" y="-78.9" font-family="Helvetica,sans-Serif" font-size="12.00" fill="#000000">Error.h</text>
</a>
</g>
</g>
<!-- Node4&#45;&gt;Node21 -->
<g id="edge36" class="edge">
<title>Node4&#45;&gt;Node21</title>
<path fill="none" stroke="#191970" d="M1180.7903,-325.8573C1014.2692,-322.2006 537.6046,-309.27 474,-280 401.4764,-246.6256 384.2124,-222.6493 349,-151 341.67,-136.085 339.326,-117.3215 338.7283,-103.1276"/>
<polygon fill="#191970" stroke="#191970" points="342.2239,-102.8265 338.5614,-92.8849 335.2249,-102.9406 342.2239,-102.8265"/>
</g>
<!-- Node27 -->
<g id="node28" class="node">
<title>Node27</title>
<g id="a_node28"><a xlink:href="TidalPotentialTerms_8h.html" target="_top" xlink:title="Declare an interface for evaluating the expansion of the tidal potential. ">
<polygon fill="#ffffff" stroke="#000000" points="483,-252 483,-273 617,-273 617,-252 483,-252"/>
<text text-anchor="middle" x="550" y="-259.4" font-family="Helvetica,sans-Serif" font-size="12.00" fill="#000000">TidalPotentialTerms.h</text>
</a>
</g>
</g>
<!-- Node4&#45;&gt;Node27 -->
<g id="edge37" class="edge">
<title>Node4&#45;&gt;Node27</title>
<path fill="none" stroke="#191970" d="M1180.8191,-321.6393C1057.5826,-310.0859 766.8367,-282.8284 627.3254,-269.7493"/>
<polygon fill="#191970" stroke="#191970" points="627.4238,-266.2432 617.1407,-268.7944 626.7704,-273.2127 627.4238,-266.2432"/>
</g>
<!-- Node35 -->
<g id="node36" class="node">
<title>Node35</title>
<g id="a_node36"><a xlink:href="SpinOrbitLockInfo_8h.html" target="_top" xlink:title="Defines the SpinOrbitLockInfo class. ">
<polygon fill="#ffffff" stroke="#000000" points="1234,-187.5 1234,-208.5 1356,-208.5 1356,-187.5 1234,-187.5"/>
<text text-anchor="middle" x="1295" y="-194.9" font-family="Helvetica,sans-Serif" font-size="12.00" fill="#000000">SpinOrbitLockInfo.h</text>
</a>
</g>
</g>
<!-- Node4&#45;&gt;Node35 -->
<g id="edge55" class="edge">
<title>Node4&#45;&gt;Node35</title>
<path fill="none" stroke="#191970" d="M1201.1039,-316.4143C1183.2449,-309.2252 1163.4506,-297.7203 1153,-280 1145.0979,-266.601 1143.8912,-257.6097 1153,-245 1162.9301,-231.2534 1199.6889,-219.2998 1233.3164,-210.8878"/>
<polygon fill="#191970" stroke="#191970" points="1234.2611,-214.2603 1243.1544,-208.5019 1232.6112,-207.4575 1234.2611,-214.2603"/>
</g>
<!-- Node36 -->
<g id="node37" class="node">
<title>Node36</title>
<g id="a_node37"><a xlink:href="CombinedStoppingCondition_8h.html" target="_top" xlink:title="Declares a class for a stopping condition that combines other stopping conditions. ">
<polygon fill="#ffffff" stroke="#000000" points="1370,-252 1370,-273 1552,-273 1552,-252 1370,-252"/>
<text text-anchor="middle" x="1461" y="-259.4" font-family="Helvetica,sans-Serif" font-size="12.00" fill="#000000">CombinedStoppingCondition.h</text>
</a>
</g>
</g>
<!-- Node4&#45;&gt;Node36 -->
<g id="edge58" class="edge">
<title>Node4&#45;&gt;Node36</title>
<path fill="none" stroke="#191970" d="M1274.3251,-316.4934C1312.7156,-305.3894 1373.3618,-287.8483 1415.0507,-275.7903"/>
<polygon fill="#191970" stroke="#191970" points="1416.0567,-279.1428 1424.6904,-273.0021 1414.1117,-272.4185 1416.0567,-279.1428"/>
</g>
<!-- Node38 -->
<g id="node39" class="node">
<title>Node38</title>
<g id="a_node39"><a xlink:href="BreakLockCondition_8h.html" target="_top" xlink:title="Declares a class for a stopping condition monitoring when a locked zone loses the lock...">
<polygon fill="#ffffff" stroke="#000000" points="1608.5,-252 1608.5,-273 1743.5,-273 1743.5,-252 1608.5,-252"/>
<text text-anchor="middle" x="1676" y="-259.4" font-family="Helvetica,sans-Serif" font-size="12.00" fill="#000000">BreakLockCondition.h</text>
</a>
</g>
</g>
<!-- Node4&#45;&gt;Node38 -->
<g id="edge65" class="edge">
<title>Node4&#45;&gt;Node38</title>
<path fill="none" stroke="#191970" d="M1295.2432,-320.8532C1365.7579,-312.957 1489.0995,-298.0892 1594,-280 1602.3515,-278.5599 1611.1453,-276.8697 1619.7484,-275.1177"/>
<polygon fill="#191970" stroke="#191970" points="1620.6441,-278.5064 1629.7222,-273.0438 1619.219,-271.6529 1620.6441,-278.5064"/>
</g>
<!-- Node39 -->
<g id="node40" class="node">
<title>Node39</title>
<g id="a_node40"><a xlink:href="SynchronizedCondition_8h.html" target="_top" xlink:title="Declares a stopping condition monitoring spin&#45;orbit synchronization. ">
<polygon fill="#ffffff" stroke="#000000" points="1162,-252 1162,-273 1314,-273 1314,-252 1162,-252"/>
<text text-anchor="middle" x="1238" y="-259.4" font-family="Helvetica,sans-Serif" font-size="12.00" fill="#000000">SynchronizedCondition.h</text>
</a>
</g>
</g>
<!-- Node4&#45;&gt;Node39 -->
<g id="edge68" class="edge">
<title>Node4&#45;&gt;Node39</title>
<path fill="none" stroke="#191970" d="M1238,-316.3491C1238,-307.4397 1238,-294.4599 1238,-283.4761"/>
<polygon fill="#191970" stroke="#191970" points="1241.5001,-283.3822 1238,-273.3823 1234.5001,-283.3823 1241.5001,-283.3822"/>
</g>
<!-- Node40 -->
<g id="node41" class="node">
<title>Node40</title>
<polygon fill="#ffffff" stroke="#bfbfbf" points="1800,-245.5 1800,-279.5 1920,-279.5 1920,-245.5 1800,-245.5"/>
<text text-anchor="start" x="1808" y="-265.9" font-family="Helvetica,sans-Serif" font-size="12.00" fill="#000000">boost/math/special</text>
<text text-anchor="middle" x="1860" y="-252.9" font-family="Helvetica,sans-Serif" font-size="12.00" fill="#000000">_functions/sign.hpp</text>
</g>
<!-- Node4&#45;&gt;Node40 -->
<g id="edge74" class="edge">
<title>Node4&#45;&gt;Node40</title>
<path fill="none" stroke="#191970" d="M1295.1361,-324.8602C1395.1621,-320.5006 1608.2721,-308.479 1786,-280 1787.2832,-279.7944 1788.5771,-279.5787 1789.879,-279.3541"/>
<polygon fill="#191970" stroke="#191970" points="1790.782,-282.7461 1799.9717,-277.4736 1789.4998,-275.8645 1790.782,-282.7461"/>
</g>
<!-- Node5&#45;&gt;Node2 -->
<g id="edge7" class="edge">
<title>Node5&#45;&gt;Node2</title>
<path fill="none" stroke="#191970" d="M1799.7621,-187.3473C1817.7108,-180.1761 1837.4978,-168.7078 1848,-151 1866.1374,-120.4184 1869.3862,-99.4047 1848,-71 1835.9805,-55.036 1794.9778,-42.3572 1754.5189,-33.3571"/>
<polygon fill="#191970" stroke="#191970" points="1755.0517,-29.8916 1744.5387,-31.2061 1753.5768,-36.7345 1755.0517,-29.8916"/>
</g>
<!-- Node5&#45;&gt;Node6 -->
<g id="edge8" class="edge">
<title>Node5&#45;&gt;Node6</title>
<path fill="none" stroke="#191970" d="M1757.2312,-187.3619C1753.7861,-179.6766 1749.0308,-169.0686 1744.8937,-159.8399"/>
<polygon fill="#191970" stroke="#191970" points="1748.023,-158.264 1740.7386,-150.5707 1741.6354,-161.1275 1748.023,-158.264"/>
</g>
<!-- Node5&#45;&gt;Node9 -->
<g id="edge12" class="edge">
<title>Node5&#45;&gt;Node9</title>
<path fill="none" stroke="#191970" d="M1705.4185,-193.3517C1576.4533,-182.7568 1261.204,-156.8581 1122.8963,-145.4957"/>
<polygon fill="#191970" stroke="#191970" points="1123.104,-142.0011 1112.851,-144.6705 1122.5308,-148.9776 1123.104,-142.0011"/>
</g>
<!-- Node25 -->
<g id="node26" class="node">
<title>Node25</title>
<g id="a_node26"><a xlink:href="IncludeEigen_8h_source.html" target="_top" xlink:title="IncludeEigen.h">
<polygon fill="#ffffff" stroke="#000000" points="1366.5,-71.5 1366.5,-92.5 1463.5,-92.5 1463.5,-71.5 1366.5,-71.5"/>
<text text-anchor="middle" x="1415" y="-78.9" font-family="Helvetica,sans-Serif" font-size="12.00" fill="#000000">IncludeEigen.h</text>
</a>
</g>
</g>
<!-- Node5&#45;&gt;Node25 -->
<g id="edge34" class="edge">
<title>Node5&#45;&gt;Node25</title>
<path fill="none" stroke="#191970" d="M1730.2862,-187.3983C1667.2979,-166.3416 1526.4685,-119.2632 1456.332,-95.817"/>
<polygon fill="#191970" stroke="#191970" points="1457.1084,-92.3863 1446.5146,-92.5352 1454.8891,-99.0251 1457.1084,-92.3863"/>
</g>
<!-- Node6&#45;&gt;Node2 -->
<g id="edge9" class="edge">
<title>Node6&#45;&gt;Node2</title>
<path fill="none" stroke="#191970" d="M1730.3682,-129.074C1723.1939,-115.3249 1710.2516,-91.0796 1698,-71 1692.3147,-61.6822 1685.7381,-51.7015 1679.7737,-42.9145"/>
<polygon fill="#191970" stroke="#191970" points="1682.6106,-40.8627 1674.0691,-34.5942 1676.8372,-44.821 1682.6106,-40.8627"/>
</g>
<!-- Node7 -->
<g id="node8" class="node">
<title>Node7</title>
<polygon fill="#ffffff" stroke="#bfbfbf" points="1746.5,-71.5 1746.5,-92.5 1805.5,-92.5 1805.5,-71.5 1746.5,-71.5"/>
<text text-anchor="middle" x="1776" y="-78.9" font-family="Helvetica,sans-Serif" font-size="12.00" fill="#000000">ostream</text>
</g>
<!-- Node6&#45;&gt;Node7 -->
<g id="edge10" class="edge">
<title>Node6&#45;&gt;Node7</title>
<path fill="none" stroke="#191970" d="M1743.3366,-129.3619C1748.806,-121.4313 1756.4217,-110.3885 1762.9237,-100.9606"/>
<polygon fill="#191970" stroke="#191970" points="1765.9138,-102.7899 1768.7099,-92.5707 1760.1513,-98.8157 1765.9138,-102.7899"/>
</g>
<!-- Node6&#45;&gt;Node8 -->
<g id="edge11" class="edge">
<title>Node6&#45;&gt;Node8</title>
<path fill="none" stroke="#191970" d="M1722.4273,-129.3619C1711.5788,-120.859 1696.1657,-108.7785 1683.6215,-98.9466"/>
<polygon fill="#191970" stroke="#191970" points="1685.5164,-95.9848 1675.4867,-92.5707 1681.1982,-101.4942 1685.5164,-95.9848"/>
</g>
<!-- Node9&#45;&gt;Node2 -->
<g id="edge25" class="edge">
<title>Node9&#45;&gt;Node2</title>
<path fill="none" stroke="#191970" d="M1112.649,-136.0655C1210.2679,-128.8752 1406.059,-112.5395 1472,-93 1492.9628,-86.7883 1495.9261,-79.6639 1516,-71 1543.7036,-59.0432 1575.0479,-47.3286 1601.5726,-37.924"/>
<polygon fill="#191970" stroke="#191970" points="1602.8399,-41.1885 1611.1111,-34.5676 1600.5163,-34.5854 1602.8399,-41.1885"/>
</g>
<!-- Node9&#45;&gt;Node8 -->
<g id="edge24" class="edge">
<title>Node9&#45;&gt;Node8</title>
<path fill="none" stroke="#191970" d="M1112.7386,-134.5696C1235.077,-122.8606 1520.9427,-95.5005 1624.0615,-85.6311"/>
<polygon fill="#191970" stroke="#191970" points="1624.6864,-89.0874 1634.3074,-84.6504 1624.0194,-82.1192 1624.6864,-89.0874"/>
</g>
<!-- Node10 -->
<g id="node11" class="node">
<title>Node10</title>
<polygon fill="#ffffff" stroke="#bfbfbf" points="908,-71.5 908,-92.5 940,-92.5 940,-71.5 908,-71.5"/>
<text text-anchor="middle" x="924" y="-78.9" font-family="Helvetica,sans-Serif" font-size="12.00" fill="#000000">list</text>
</g>
<!-- Node9&#45;&gt;Node10 -->
<g id="edge13" class="edge">
<title>Node9&#45;&gt;Node10</title>
<path fill="none" stroke="#191970" d="M1031.7755,-129.3645C1011.9511,-120.6597 982.9519,-107.9237 949.6425,-93.281"/>
<polygon fill="#191970" stroke="#191970" points="950.7003,-89.9228 940.1373,-89.1022 947.8831,-96.3308 950.7003,-89.9228"/>
</g>
<!-- Node9&#45;&gt;Node11 -->
<g id="edge14" class="edge">
<title>Node9&#45;&gt;Node11</title>
<path fill="none" stroke="#191970" d="M999.1746,-130.1112C996.0758,-129.7025 993.0024,-129.3278 990,-129 686.054,-95.8146 605.3797,-138.2878 303,-93 301.5399,-92.7813 300.0577,-92.5357 298.5644,-92.2682"/>
<polygon fill="#191970" stroke="#191970" points="299.1646,-88.8185 288.6656,-90.2399 297.7595,-95.676 299.1646,-88.8185"/>
</g>
<!-- Node12 -->
<g id="node13" class="node">
<title>Node12</title>
<polygon fill="#ffffff" stroke="#bfbfbf" points="958,-71.5 958,-92.5 1002,-92.5 1002,-71.5 958,-71.5"/>
<text text-anchor="middle" x="980" y="-78.9" font-family="Helvetica,sans-Serif" font-size="12.00" fill="#000000">limits</text>
</g>
<!-- Node9&#45;&gt;Node12 -->
<g id="edge15" class="edge">
<title>Node9&#45;&gt;Node12</title>
<path fill="none" stroke="#191970" d="M1042.0604,-129.3619C1030.8116,-120.7773 1014.7842,-108.5459 1001.835,-98.6636"/>
<polygon fill="#191970" stroke="#191970" points="1003.9241,-95.8551 993.8512,-92.5707 999.6774,-101.4198 1003.9241,-95.8551"/>
</g>
<!-- Node13 -->
<g id="node14" class="node">
<title>Node13</title>
<polygon fill="#ffffff" stroke="#bfbfbf" points="460.5,-71.5 460.5,-92.5 519.5,-92.5 519.5,-71.5 460.5,-71.5"/>
<text text-anchor="middle" x="490" y="-78.9" font-family="Helvetica,sans-Serif" font-size="12.00" fill="#000000">sstream</text>
</g>
<!-- Node9&#45;&gt;Node13 -->
<g id="edge16" class="edge">
<title>Node9&#45;&gt;Node13</title>
<path fill="none" stroke="#191970" d="M999.1635,-130.2072C996.0675,-129.7737 992.9978,-129.3675 990,-129 788.213,-104.266 734.6393,-125.7665 534,-93 532.5429,-92.762 531.0633,-92.4999 529.5721,-92.2185"/>
<polygon fill="#191970" stroke="#191970" points="530.1898,-88.7718 519.6826,-90.1314 528.7443,-95.621 530.1898,-88.7718"/>
</g>
<!-- Node14 -->
<g id="node15" class="node">
<title>Node14</title>
<polygon fill="#ffffff" stroke="#bfbfbf" points="454,-7 454,-28 516,-28 516,-7 454,-7"/>
<text text-anchor="middle" x="485" y="-14.4" font-family="Helvetica,sans-Serif" font-size="12.00" fill="#000000">iostream</text>
</g>
<!-- Node9&#45;&gt;Node14 -->
<g id="edge17" class="edge">
<title>Node9&#45;&gt;Node14</title>
<path fill="none" stroke="#191970" d="M999.1608,-130.2294C996.0655,-129.7902 992.9967,-129.3766 990,-129 896.3966,-117.2358 653.3499,-130.996 567,-93 538.6877,-80.5419 513.7625,-54.2066 499.0326,-36.1806"/>
<polygon fill="#191970" stroke="#191970" points="501.5938,-33.7764 492.6503,-28.0962 496.0995,-38.1139 501.5938,-33.7764"/>
</g>
<!-- Node15 -->
<g id="node16" class="node">
<title>Node15</title>
<polygon fill="#ffffff" stroke="#bfbfbf" points="1020.5,-71.5 1020.5,-92.5 1073.5,-92.5 1073.5,-71.5 1020.5,-71.5"/>
<text text-anchor="middle" x="1047" y="-78.9" font-family="Helvetica,sans-Serif" font-size="12.00" fill="#000000">iterator</text>
</g>
<!-- Node9&#45;&gt;Node15 -->
<g id="edge18" class="edge">
<title>Node9&#45;&gt;Node15</title>
<path fill="none" stroke="#191970" d="M1054.3493,-129.3619C1053.1948,-121.9219 1051.6153,-111.7427 1050.2163,-102.7276"/>
<polygon fill="#191970" stroke="#191970" points="1053.6323,-101.9157 1048.6403,-92.5707 1046.7151,-102.9891 1053.6323,-101.9157"/>
</g>
<!-- Node16 -->
<g id="node17" class="node">
<title>Node16</title>
<polygon fill="#ffffff" stroke="#bfbfbf" points="1092,-71.5 1092,-92.5 1192,-92.5 1192,-71.5 1092,-71.5"/>
<text text-anchor="middle" x="1142" y="-78.9" font-family="Helvetica,sans-Serif" font-size="12.00" fill="#000000">gsl/gsl_vector.h</text>
</g>
<!-- Node9&#45;&gt;Node16 -->
<g id="edge19" class="edge">
<title>Node9&#45;&gt;Node16</title>
<path fill="none" stroke="#191970" d="M1071.7737,-129.3619C1084.6239,-120.6955 1102.9848,-108.3126 1117.7097,-98.3819"/>
<polygon fill="#191970" stroke="#191970" points="1119.9925,-101.0639 1126.3263,-92.5707 1116.0785,-95.2604 1119.9925,-101.0639"/>
</g>
<!-- Node17 -->
<g id="node18" class="node">
<title>Node17</title>
<polygon fill="#ffffff" stroke="#bfbfbf" points="1210,-71.5 1210,-92.5 1310,-92.5 1310,-71.5 1210,-71.5"/>
<text text-anchor="middle" x="1260" y="-78.9" font-family="Helvetica,sans-Serif" font-size="12.00" fill="#000000">gsl/gsl_matrix.h</text>
</g>
<!-- Node9&#45;&gt;Node17 -->
<g id="edge20" class="edge">
<title>Node9&#45;&gt;Node17</title>
<path fill="none" stroke="#191970" d="M1092.9429,-129.4966C1126.6323,-119.9183 1176.5726,-105.7196 1213.0737,-95.3418"/>
<polygon fill="#191970" stroke="#191970" points="1214.3263,-98.6245 1222.9879,-92.5231 1212.4119,-91.8913 1214.3263,-98.6245"/>
</g>
<!-- Node18 -->
<g id="node19" class="node">
<title>Node18</title>
<polygon fill="#ffffff" stroke="#bfbfbf" points="576.5,-71.5 576.5,-92.5 673.5,-92.5 673.5,-71.5 576.5,-71.5"/>
<text text-anchor="middle" x="625" y="-78.9" font-family="Helvetica,sans-Serif" font-size="12.00" fill="#000000">gsl/gsl_linalg.h</text>
</g>
<!-- Node9&#45;&gt;Node18 -->
<g id="edge21" class="edge">
<title>Node9&#45;&gt;Node18</title>
<path fill="none" stroke="#191970" d="M999.1453,-130.3447C996.054,-129.8758 992.9903,-129.4243 990,-129 857.1707,-110.1541 820.4986,-113.6324 683.7154,-93.0195"/>
<polygon fill="#191970" stroke="#191970" points="684.1042,-89.5385 673.6913,-91.4932 683.0504,-96.4587 684.1042,-89.5385"/>
</g>
<!-- Node19 -->
<g id="node20" class="node">
<title>Node19</title>
<polygon fill="#ffffff" stroke="#bfbfbf" points="692,-71.5 692,-92.5 782,-92.5 782,-71.5 692,-71.5"/>
<text text-anchor="middle" x="737" y="-78.9" font-family="Helvetica,sans-Serif" font-size="12.00" fill="#000000">gsl/gsl_blas.h</text>
</g>
<!-- Node9&#45;&gt;Node19 -->
<g id="edge22" class="edge">
<title>Node9&#45;&gt;Node19</title>
<path fill="none" stroke="#191970" d="M999.3185,-130.3763C947.8127,-121.534 869.4686,-107.8423 791.9976,-93.1582"/>
<polygon fill="#191970" stroke="#191970" points="792.5422,-89.6991 782.0643,-91.2689 791.2342,-96.5758 792.5422,-89.6991"/>
</g>
<!-- Node20 -->
<g id="node21" class="node">
<title>Node20</title>
<polygon fill="#ffffff" stroke="#bfbfbf" points="800,-71.5 800,-92.5 890,-92.5 890,-71.5 800,-71.5"/>
<text text-anchor="middle" x="845" y="-78.9" font-family="Helvetica,sans-Serif" font-size="12.00" fill="#000000">gsl/gsl_poly.h</text>
</g>
<!-- Node9&#45;&gt;Node20 -->
<g id="edge23" class="edge">
<title>Node9&#45;&gt;Node20</title>
<path fill="none" stroke="#191970" d="M1017.7895,-129.4966C982.7951,-119.8773 930.8483,-105.5981 893.0533,-95.209"/>
<polygon fill="#191970" stroke="#191970" points="893.8522,-91.7988 883.2822,-92.5231 891.9968,-98.5485 893.8522,-91.7988"/>
</g>
<!-- Node9&#45;&gt;Node21 -->
<g id="edge26" class="edge">
<title>Node9&#45;&gt;Node21</title>
<path fill="none" stroke="#191970" d="M999.1688,-130.1633C996.0714,-129.7412 993,-129.3493 990,-129 751.522,-101.2311 690.2767,-112.736 451,-93 425.8995,-90.9297 397.6794,-88.1552 375.8456,-85.9107"/>
<polygon fill="#191970" stroke="#191970" points="375.9895,-82.407 365.6818,-84.8569 375.2675,-89.3697 375.9895,-82.407"/>
</g>
<!-- Node9&#45;&gt;Node24 -->
<g id="edge31" class="edge">
<title>Node9&#45;&gt;Node24</title>
<path fill="none" stroke="#191970" d="M999.1768,-130.0907C996.0774,-129.6873 993.0033,-129.3194 990,-129 649.3245,-92.7753 561.9543,-113.96 220,-93 200.6876,-91.8163 179.9427,-90.3554 160.3539,-88.8894"/>
<polygon fill="#191970" stroke="#191970" points="160.4648,-85.3879 150.2293,-88.1238 159.9369,-92.368 160.4648,-85.3879"/>
</g>
<!-- Node9&#45;&gt;Node25 -->
<g id="edge32" class="edge">
<title>Node9&#45;&gt;Node25</title>
<path fill="none" stroke="#191970" d="M1112.8846,-130.8097C1179.457,-120.0543 1289.1317,-102.3353 1356.4241,-91.4635"/>
<polygon fill="#191970" stroke="#191970" points="1357.127,-94.8954 1366.4408,-89.8452 1356.0105,-87.985 1357.127,-94.8954"/>
</g>
<!-- Node21&#45;&gt;Node2 -->
<g id="edge27" class="edge">
<title>Node21&#45;&gt;Node2</title>
<path fill="none" stroke="#191970" d="M365.616,-77.5906C380.8996,-75.2354 400.479,-72.5163 418,-71 882.7595,-30.7783 1001.3969,-63.8597 1467,-35 1500.2141,-32.9413 1536.5441,-29.8977 1568.7488,-26.9236"/>
<polygon fill="#191970" stroke="#191970" points="1569.4194,-30.3763 1579.0507,-25.9618 1568.7687,-23.4066 1569.4194,-30.3763"/>
</g>
<!-- Node21&#45;&gt;Node14 -->
<g id="edge28" class="edge">
<title>Node21&#45;&gt;Node14</title>
<path fill="none" stroke="#191970" d="M362.7824,-71.4934C386.9625,-60.8111 424.6279,-44.1712 451.7549,-32.187"/>
<polygon fill="#191970" stroke="#191970" points="453.4951,-35.2447 461.2278,-28.0021 450.6663,-28.8417 453.4951,-35.2447"/>
</g>
<!-- Node22 -->
<g id="node23" class="node">
<title>Node22</title>
<polygon fill="#ffffff" stroke="#bfbfbf" points="336,-7 336,-28 404,-28 404,-7 336,-7"/>
<text text-anchor="middle" x="370" y="-14.4" font-family="Helvetica,sans-Serif" font-size="12.00" fill="#000000">exception</text>
</g>
<!-- Node21&#45;&gt;Node22 -->
<g id="edge29" class="edge">
<title>Node21&#45;&gt;Node22</title>
<path fill="none" stroke="#191970" d="M344.119,-71.3491C348.5349,-62.1613 355.0312,-48.6447 360.4105,-37.4524"/>
<polygon fill="#191970" stroke="#191970" points="363.5924,-38.9115 364.7698,-28.3823 357.2833,-35.8792 363.5924,-38.9115"/>
</g>
<!-- Node23 -->
<g id="node24" class="node">
<title>Node23</title>
<polygon fill="#ffffff" stroke="#bfbfbf" points="272,-7 272,-28 318,-28 318,-7 272,-7"/>
<text text-anchor="middle" x="295" y="-14.4" font-family="Helvetica,sans-Serif" font-size="12.00" fill="#000000">string</text>
</g>
<!-- Node21&#45;&gt;Node23 -->
<g id="edge30" class="edge">
<title>Node21&#45;&gt;Node23</title>
<path fill="none" stroke="#191970" d="M331.7343,-71.3491C325.34,-61.9757 315.8723,-48.0969 308.1502,-36.777"/>
<polygon fill="#191970" stroke="#191970" points="310.9503,-34.6708 302.4236,-28.3823 305.1676,-38.6156 310.9503,-34.6708"/>
</g>
<!-- Node26 -->
<g id="node27" class="node">
<title>Node26</title>
<polygon fill="#ffffff" stroke="#bfbfbf" points="1372,-7 1372,-28 1458,-28 1458,-7 1372,-7"/>
<text text-anchor="middle" x="1415" y="-14.4" font-family="Helvetica,sans-Serif" font-size="12.00" fill="#000000">Eigen/Dense</text>
</g>
<!-- Node25&#45;&gt;Node26 -->
<g id="edge33" class="edge">
<title>Node25&#45;&gt;Node26</title>
<path fill="none" stroke="#191970" d="M1415,-71.3491C1415,-62.4397 1415,-49.4599 1415,-38.4761"/>
<polygon fill="#191970" stroke="#191970" points="1418.5001,-38.3822 1415,-28.3823 1411.5001,-38.3823 1418.5001,-38.3822"/>
</g>
<!-- Node27&#45;&gt;Node9 -->
<g id="edge53" class="edge">
<title>Node27&#45;&gt;Node9</title>
<path fill="none" stroke="#191970" d="M593.5792,-251.9497C686.0521,-229.5625 901.6734,-177.3617 1002.386,-152.9797"/>
<polygon fill="#191970" stroke="#191970" points="1003.4505,-156.3231 1012.3462,-150.5684 1001.8034,-149.5197 1003.4505,-156.3231"/>
</g>
<!-- Node27&#45;&gt;Node11 -->
<g id="edge39" class="edge">
<title>Node27&#45;&gt;Node11</title>
<path fill="none" stroke="#191970" d="M513.0872,-251.9575C484.1747,-242.8506 443.54,-228.1411 411,-209 357.046,-177.2624 302.9689,-126.4475 276.2233,-99.7322"/>
<polygon fill="#191970" stroke="#191970" points="278.6515,-97.2101 269.1283,-92.5669 273.6773,-102.1354 278.6515,-97.2101"/>
</g>
<!-- Node28 -->
<g id="node29" class="node">
<title>Node28</title>
<polygon fill="#ffffff" stroke="#bfbfbf" points="358.5,-129.5 358.5,-150.5 407.5,-150.5 407.5,-129.5 358.5,-129.5"/>
<text text-anchor="middle" x="383" y="-136.9" font-family="Helvetica,sans-Serif" font-size="12.00" fill="#000000">cmath</text>
</g>
<!-- Node27&#45;&gt;Node28 -->
<g id="edge38" class="edge">
<title>Node27&#45;&gt;Node28</title>
<path fill="none" stroke="#191970" d="M518.0566,-251.9476C494.1147,-243.0068 461.4124,-228.5189 437,-209 419.4869,-194.9974 404.2383,-174.2433 394.4528,-159.1553"/>
<polygon fill="#191970" stroke="#191970" points="397.3703,-157.2196 389.0946,-150.6042 391.4386,-160.9365 397.3703,-157.2196"/>
</g>
<!-- Node29 -->
<g id="node30" class="node">
<title>Node29</title>
<g id="a_node30"><a xlink:href="EccentricityExpansionCoefficients_8h.html" target="_top" xlink:title="Declares a class which provides the [ &#160;coefficients]{InclinationEccentricity_pms1}. ">
<polygon fill="#ffffff" stroke="#000000" points="446,-187.5 446,-208.5 654,-208.5 654,-187.5 446,-187.5"/>
<text text-anchor="middle" x="550" y="-194.9" font-family="Helvetica,sans-Serif" font-size="12.00" fill="#000000">EccentricityExpansionCoefficients.h</text>
</a>
</g>
</g>
<!-- Node27&#45;&gt;Node29 -->
<g id="edge40" class="edge">
<title>Node27&#45;&gt;Node29</title>
<path fill="none" stroke="#191970" d="M550,-251.8491C550,-242.9397 550,-229.9599 550,-218.9761"/>
<polygon fill="#191970" stroke="#191970" points="553.5001,-218.8822 550,-208.8823 546.5001,-218.8823 553.5001,-218.8822"/>
</g>
<!-- Node29&#45;&gt;Node2 -->
<g id="edge41" class="edge">
<title>Node29&#45;&gt;Node2</title>
<path fill="none" stroke="#191970" d="M539.8713,-187.2395C527.0883,-173.661 504.4229,-149.5918 485,-129 469.8991,-112.9903 459.1308,-113.4508 451,-93 447.3876,-83.914 444.2096,-78.0353 451,-71 490.2238,-30.3617 1410.6303,-38.5255 1467,-35 1500.213,-32.9228 1536.5427,-29.8748 1568.7475,-26.9025"/>
<polygon fill="#191970" stroke="#191970" points="1569.4178,-30.3552 1579.0495,-25.9414 1568.7676,-23.3855 1569.4178,-30.3552"/>
</g>
<!-- Node29&#45;&gt;Node8 -->
<g id="edge50" class="edge">
<title>Node29&#45;&gt;Node8</title>
<path fill="none" stroke="#191970" d="M555.049,-187.4532C563.3491,-171.4725 581.5335,-141.6482 607,-129 693.1536,-86.2109 1375.9245,-97.7801 1472,-93 1524.788,-90.3736 1585.7896,-86.7346 1624.1301,-84.3739"/>
<polygon fill="#191970" stroke="#191970" points="1624.5526,-87.8546 1634.3175,-83.7439 1624.1205,-80.8679 1624.5526,-87.8546"/>
</g>
<!-- Node29&#45;&gt;Node9 -->
<g id="edge43" class="edge">
<title>Node29&#45;&gt;Node9</title>
<path fill="none" stroke="#191970" d="M654.4553,-187.5574C758.6662,-177.0167 912.7859,-161.0658 988.9362,-151.0634"/>
<polygon fill="#191970" stroke="#191970" points="989.7049,-154.4917 999.1505,-149.6926 988.7738,-147.5538 989.7049,-154.4917"/>
</g>
<!-- Node29&#45;&gt;Node13 -->
<g id="edge49" class="edge">
<title>Node29&#45;&gt;Node13</title>
<path fill="none" stroke="#191970" d="M547.4122,-187.277C543.7931,-173.3225 536.4675,-148.4282 526,-129 520.5726,-118.9264 513.0575,-108.7259 506.2968,-100.4138"/>
<polygon fill="#191970" stroke="#191970" points="508.7646,-97.9109 499.6438,-92.52 503.4121,-102.422 508.7646,-97.9109"/>
</g>
<!-- Node29&#45;&gt;Node14 -->
<g id="edge48" class="edge">
<title>Node29&#45;&gt;Node14</title>
<path fill="none" stroke="#191970" d="M535.2247,-187.378C502.1209,-163.4242 424.3926,-106.2534 418,-93 406.5067,-69.1717 431.8667,-47.192 454.6125,-33.1667"/>
<polygon fill="#191970" stroke="#191970" points="456.5666,-36.0788 463.44,-28.0161 453.0389,-30.0327 456.5666,-36.0788"/>
</g>
<!-- Node29&#45;&gt;Node21 -->
<g id="edge42" class="edge">
<title>Node29&#45;&gt;Node21</title>
<path fill="none" stroke="#191970" d="M529.1514,-187.3892C510.8357,-178.0017 483.5166,-163.8399 460,-151 427.4405,-133.2228 390.4542,-111.9747 366.0376,-97.7987"/>
<polygon fill="#191970" stroke="#191970" points="367.7345,-94.7367 357.3306,-92.7339 364.2147,-100.7875 367.7345,-94.7367"/>
</g>
<!-- Node29&#45;&gt;Node28 -->
<g id="edge47" class="edge">
<title>Node29&#45;&gt;Node28</title>
<path fill="none" stroke="#191970" d="M519.7576,-187.4966C490.8765,-177.4661 447.4064,-162.3687 417.2594,-151.8985"/>
<polygon fill="#191970" stroke="#191970" points="418.1815,-148.5137 407.5867,-148.5391 415.8849,-155.1263 418.1815,-148.5137"/>
</g>
<!-- Node30 -->
<g id="node31" class="node">
<title>Node30</title>
<polygon fill="#ffffff" stroke="#bfbfbf" points="932.5,-129.5 932.5,-150.5 981.5,-150.5 981.5,-129.5 932.5,-129.5"/>
<text text-anchor="middle" x="957" y="-136.9" font-family="Helvetica,sans-Serif" font-size="12.00" fill="#000000">vector</text>
</g>
<!-- Node29&#45;&gt;Node30 -->
<g id="edge44" class="edge">
<title>Node29&#45;&gt;Node30</title>
<path fill="none" stroke="#191970" d="M650.4462,-187.4903C737.9252,-177.9665 859.1485,-163.7841 922.2787,-150.7588"/>
<polygon fill="#191970" stroke="#191970" points="923.2339,-154.1331 932.2661,-148.5952 921.7518,-147.2918 923.2339,-154.1331"/>
</g>
<!-- Node31 -->
<g id="node32" class="node">
<title>Node31</title>
<polygon fill="#ffffff" stroke="#bfbfbf" points="858,-129.5 858,-150.5 914,-150.5 914,-129.5 858,-129.5"/>
<text text-anchor="middle" x="886" y="-136.9" font-family="Helvetica,sans-Serif" font-size="12.00" fill="#000000">fstream</text>
</g>
<!-- Node29&#45;&gt;Node31 -->
<g id="edge45" class="edge">
<title>Node29&#45;&gt;Node31</title>
<path fill="none" stroke="#191970" d="M636.6088,-187.4889C694.1553,-179.7804 771.492,-168.0387 848.0086,-151.0122"/>
<polygon fill="#191970" stroke="#191970" points="848.8359,-154.4137 857.8203,-148.7985 847.2952,-147.5853 848.8359,-154.4137"/>
</g>
<!-- Node32 -->
<g id="node33" class="node">
<title>Node32</title>
<polygon fill="#ffffff" stroke="#bfbfbf" points="616.5,-129.5 616.5,-150.5 675.5,-150.5 675.5,-129.5 616.5,-129.5"/>
<text text-anchor="middle" x="646" y="-136.9" font-family="Helvetica,sans-Serif" font-size="12.00" fill="#000000">iomanip</text>
</g>
<!-- Node29&#45;&gt;Node32 -->
<g id="edge46" class="edge">
<title>Node29&#45;&gt;Node32</title>
<path fill="none" stroke="#191970" d="M567.6079,-187.3619C582.2229,-178.532 603.2238,-165.844 619.8112,-155.8224"/>
<polygon fill="#191970" stroke="#191970" points="621.7545,-158.7376 628.5037,-150.5707 618.1347,-152.7461 621.7545,-158.7376"/>
</g>
<!-- Node33 -->
<g id="node34" class="node">
<title>Node33</title>
<polygon fill="#ffffff" stroke="#bfbfbf" points="694,-129.5 694,-150.5 760,-150.5 760,-129.5 694,-129.5"/>
<text text-anchor="middle" x="727" y="-136.9" font-family="Helvetica,sans-Serif" font-size="12.00" fill="#000000">algorithm</text>
</g>
<!-- Node29&#45;&gt;Node33 -->
<g id="edge51" class="edge">
<title>Node29&#45;&gt;Node33</title>
<path fill="none" stroke="#191970" d="M582.0534,-187.4966C610.9092,-178.0411 653.5057,-164.0829 685.0608,-153.7428"/>
<polygon fill="#191970" stroke="#191970" points="686.4736,-156.963 694.8865,-150.5231 684.2938,-150.3111 686.4736,-156.963"/>
</g>
<!-- Node34 -->
<g id="node35" class="node">
<title>Node34</title>
<polygon fill="#ffffff" stroke="#bfbfbf" points="778,-129.5 778,-150.5 840,-150.5 840,-129.5 778,-129.5"/>
<text text-anchor="middle" x="809" y="-136.9" font-family="Helvetica,sans-Serif" font-size="12.00" fill="#000000">sqlite3.h</text>
</g>
<!-- Node29&#45;&gt;Node34 -->
<g id="edge52" class="edge">
<title>Node29&#45;&gt;Node34</title>
<path fill="none" stroke="#191970" d="M603.2976,-187.4461C645.5053,-178.8874 706.174,-166.142 767.7188,-151.2283"/>
<polygon fill="#191970" stroke="#191970" points="768.7162,-154.5876 777.6012,-148.8164 767.0565,-147.7872 768.7162,-154.5876"/>
</g>
<!-- Node35&#45;&gt;Node2 -->
<g id="edge56" class="edge">
<title>Node35&#45;&gt;Node2</title>
<path fill="none" stroke="#191970" d="M1316.5874,-187.3828C1375.3512,-158.4812 1539.0567,-77.9666 1618.1367,-39.0731"/>
<polygon fill="#191970" stroke="#191970" points="1619.9196,-42.0967 1627.3483,-34.5426 1616.8302,-35.8153 1619.9196,-42.0967"/>
</g>
<!-- Node35&#45;&gt;Node14 -->
<g id="edge57" class="edge">
<title>Node35&#45;&gt;Node14</title>
<path fill="none" stroke="#191970" d="M1302.1199,-187.4881C1317.4624,-163.4272 1349.8543,-103.897 1319,-71 1291.5931,-41.7787 690.5051,-23.1519 526.1903,-18.5935"/>
<polygon fill="#191970" stroke="#191970" points="526.102,-15.0898 516.0095,-18.3136 525.9095,-22.0872 526.102,-15.0898"/>
</g>
<!-- Node36&#45;&gt;Node2 -->
<g id="edge59" class="edge">
<title>Node36&#45;&gt;Node2</title>
<path fill="none" stroke="#191970" d="M1544.5879,-251.9702C1648.8668,-238.5855 1815.0435,-216.3355 1827,-209 1853.9076,-192.4916 1858.181,-181.0022 1868,-151 1879.0601,-117.2055 1890.7716,-99.1139 1869,-71 1854.4356,-52.1927 1802.5674,-38.8072 1754.3996,-30.1287"/>
<polygon fill="#191970" stroke="#191970" points="1754.9633,-26.6743 1744.5103,-28.4018 1753.7591,-33.5699 1754.9633,-26.6743"/>
</g>
<!-- Node36&#45;&gt;Node30 -->
<g id="edge64" class="edge">
<title>Node36&#45;&gt;Node30</title>
<path fill="none" stroke="#191970" d="M1408.9901,-251.9465C1323.501,-234.2162 1147.925,-196.1913 991.5929,-151.329"/>
<polygon fill="#191970" stroke="#191970" points="992.3782,-147.9129 981.7997,-148.5023 990.4369,-154.6383 992.3782,-147.9129"/>
</g>
<!-- Node37 -->
<g id="node38" class="node">
<title>Node37</title>
<g id="a_node38"><a xlink:href="StoppingCondition_8h.html" target="_top" xlink:title="Defines the various stopping conditions needed by OrbitSolver. ">
<polygon fill="#ffffff" stroke="#000000" points="1470,-187.5 1470,-208.5 1596,-208.5 1596,-187.5 1470,-187.5"/>
<text text-anchor="middle" x="1533" y="-194.9" font-family="Helvetica,sans-Serif" font-size="12.00" fill="#000000">StoppingCondition.h</text>
</a>
</g>
</g>
<!-- Node36&#45;&gt;Node37 -->
<g id="edge60" class="edge">
<title>Node36&#45;&gt;Node37</title>
<path fill="none" stroke="#191970" d="M1472.8893,-251.8491C1483.8707,-242.0116 1500.3916,-227.2117 1513.3362,-215.6155"/>
<polygon fill="#191970" stroke="#191970" points="1515.7393,-218.1617 1520.8523,-208.8823 1511.0686,-212.9479 1515.7393,-218.1617"/>
</g>
<!-- Node37&#45;&gt;Node2 -->
<g id="edge61" class="edge">
<title>Node37&#45;&gt;Node2</title>
<path fill="none" stroke="#191970" d="M1596.2905,-191.7658C1675.0619,-183.3573 1801.0043,-167.5214 1815,-151 1823.9082,-140.4842 1835.9869,-101.4873 1814,-71 1804.8796,-58.3536 1774.8833,-46.5769 1743.92,-37.3104"/>
<polygon fill="#191970" stroke="#191970" points="1744.8811,-33.9449 1734.3017,-34.5169 1742.9287,-40.6672 1744.8811,-33.9449"/>
</g>
<!-- Node37&#45;&gt;Node8 -->
<g id="edge63" class="edge">
<title>Node37&#45;&gt;Node8</title>
<path fill="none" stroke="#191970" d="M1557.1438,-187.4705C1574.2793,-179.2121 1597.139,-166.5316 1614,-151 1629.4957,-136.726 1642.7801,-116.6062 1651.4188,-101.7741"/>
<polygon fill="#191970" stroke="#191970" points="1654.5546,-103.3382 1656.4014,-92.9056 1648.4518,-99.9095 1654.5546,-103.3382"/>
</g>
<!-- Node37&#45;&gt;Node9 -->
<g id="edge62" class="edge">
<title>Node37&#45;&gt;Node9</title>
<path fill="none" stroke="#191970" d="M1469.6581,-190.298C1379.4012,-179.3234 1214.556,-159.2794 1122.5624,-148.0935"/>
<polygon fill="#191970" stroke="#191970" points="1122.8809,-144.6066 1112.5315,-146.8738 1122.0359,-151.5554 1122.8809,-144.6066"/>
</g>
<!-- Node38&#45;&gt;Node2 -->
<g id="edge66" class="edge">
<title>Node38&#45;&gt;Node2</title>
<path fill="none" stroke="#191970" d="M1743.7831,-252.0385C1826.1228,-239.0064 1955.0018,-217.4287 1962,-209 2001.1796,-161.8117 2001.3786,-118.0224 1962,-71 1935.9125,-39.8487 1833.1258,-26.8189 1755.0729,-21.3793"/>
<polygon fill="#191970" stroke="#191970" points="1754.9285,-17.8621 1744.7185,-20.6916 1754.4645,-24.8467 1754.9285,-17.8621"/>
</g>
<!-- Node38&#45;&gt;Node37 -->
<g id="edge67" class="edge">
<title>Node38&#45;&gt;Node37</title>
<path fill="none" stroke="#191970" d="M1652.7063,-251.9934C1629.0231,-241.3111 1592.1316,-224.6712 1565.5619,-212.687"/>
<polygon fill="#191970" stroke="#191970" points="1566.8384,-209.4233 1556.2837,-208.5021 1563.9603,-215.8042 1566.8384,-209.4233"/>
</g>
<!-- Node39&#45;&gt;Node2 -->
<g id="edge69" class="edge">
<title>Node39&#45;&gt;Node2</title>
<path fill="none" stroke="#191970" d="M1266.9003,-251.9799C1293.0765,-242.0667 1332.4164,-226.2001 1365,-209 1465.9914,-155.6892 1577.1375,-78.6617 1630.2797,-40.5905"/>
<polygon fill="#191970" stroke="#191970" points="1632.528,-43.2848 1638.6039,-34.6052 1628.4415,-37.6014 1632.528,-43.2848"/>
</g>
<!-- Node39&#45;&gt;Node35 -->
<g id="edge71" class="edge">
<title>Node39&#45;&gt;Node35</title>
<path fill="none" stroke="#191970" d="M1247.4124,-251.8491C1255.86,-242.2901 1268.4482,-228.0454 1278.5561,-216.6076"/>
<polygon fill="#191970" stroke="#191970" points="1281.3838,-218.6933 1285.3831,-208.8823 1276.1384,-214.0579 1281.3838,-218.6933"/>
</g>
<!-- Node39&#45;&gt;Node37 -->
<g id="edge70" class="edge">
<title>Node39&#45;&gt;Node37</title>
<path fill="none" stroke="#191970" d="M1286.0534,-251.9934C1337.6962,-240.702 1419.7825,-222.7543 1474.9858,-210.6845"/>
<polygon fill="#191970" stroke="#191970" points="1475.9456,-214.0574 1484.9672,-208.5021 1474.4503,-207.2189 1475.9456,-214.0574"/>
</g>
<!-- Node41&#45;&gt;Node2 -->
<g id="edge76" class="edge">
<title>Node41&#45;&gt;Node2</title>
<path fill="none" stroke="#191970" d="M121.7735,-187.2074C133.8428,-161.432 168.3391,-96.5384 220,-71 282.1296,-40.2864 1397.8147,-39.0993 1467,-35 1500.2196,-33.0317 1536.5509,-30.0093 1568.7551,-27.0271"/>
<polygon fill="#191970" stroke="#191970" points="1569.427,-30.4795 1579.0568,-26.0616 1568.7738,-23.5101 1569.427,-30.4795"/>
</g>
<!-- Node41&#45;&gt;Node24 -->
<g id="edge78" class="edge">
<title>Node41&#45;&gt;Node24</title>
<path fill="none" stroke="#191970" d="M113.124,-187.2949C106.123,-167.9588 91.2652,-126.9229 82.3053,-102.1767"/>
<polygon fill="#191970" stroke="#191970" points="85.562,-100.8903 78.8666,-92.6792 78.9802,-103.2734 85.562,-100.8903"/>
</g>
<!-- Node41&#45;&gt;Node28 -->
<g id="edge77" class="edge">
<title>Node41&#45;&gt;Node28</title>
<path fill="none" stroke="#191970" d="M165.1706,-187.4966C218.062,-175.9639 301.6723,-157.7331 348.4275,-147.5384"/>
<polygon fill="#191970" stroke="#191970" points="349.3494,-150.9197 358.3742,-145.3695 347.8581,-144.0804 349.3494,-150.9197"/>
</g>
</g>
</svg>
