<?xml version="1.0" encoding="UTF-8" standalone="no"?>
<!DOCTYPE svg PUBLIC "-//W3C//DTD SVG 1.1//EN"
 "http://www.w3.org/Graphics/SVG/1.1/DTD/svg11.dtd">
<!-- Generated by graphviz version 2.40.1 (20161225.0304)
 -->
<!-- Title: Graphical Class Hierarchy Pages: 1 -->
<svg width="379pt" height="143pt"
 viewBox="0.00 0.00 379.48 143.00" xmlns="http://www.w3.org/2000/svg" xmlns:xlink="http://www.w3.org/1999/xlink">
<g id="graph0" class="graph" transform="scale(1 1) rotate(0) translate(4 139)">
<title>Graphical Class Hierarchy</title>
<polygon fill="#ffffff" stroke="transparent" points="-4,4 -4,-139 375.4805,-139 375.4805,4 -4,4"/>
<!-- Node0 -->
<g id="node1" class="node">
<title>Node0</title>
<g id="a_node1"><a xlink:href="classStellarEvolution_1_1Interpolator.html" target="_top" xlink:title="A class that interpolates among stellar evolution tracks. ">
<polygon fill="#ffffff" stroke="#000000" points="0,-57.5 0,-77.5 166.75,-77.5 166.75,-57.5 0,-57.5"/>
<text text-anchor="middle" x="83.375" y="-63.9" font-family="Helvetica,sans-Serif" font-size="12.00" fill="#000000">StellarEvolution::Interpolator</text>
</a>
</g>
</g>
<!-- Node1 -->
<g id="node2" class="node">
<title>Node1</title>
<g id="a_node2"><a xlink:href="classStellarEvolution_1_1CustomStellarEvolution_1_1Interpolator.html" target="_top" xlink:title="A stellar evolution interpolator using only a single track, assumed to apply to all stars...">
<polygon fill="#ffffff" stroke="#000000" points="203.7402,-102.5 203.7402,-134.5 370.4902,-134.5 370.4902,-102.5 203.7402,-102.5"/>
<text text-anchor="start" x="211.7402" y="-120.9" font-family="Helvetica,sans-Serif" font-size="12.00" fill="#000000">StellarEvolution::Custom</text>
<text text-anchor="middle" x="287.1152" y="-108.9" font-family="Helvetica,sans-Serif" font-size="12.00" fill="#000000">StellarEvolution::Interpolator</text>
</a>
</g>
</g>
<!-- Node0&#45;&gt;Node1 -->
<g id="edge1" class="edge">
<title>Node0&#45;&gt;Node1</title>
<path fill="none" stroke="#191970" d="M133.6116,-80.0752C160.5604,-86.8209 194.0627,-95.2072 222.8865,-102.4223"/>
<polygon fill="#191970" stroke="#191970" points="134.1781,-76.6091 123.6275,-77.576 132.4783,-83.3995 134.1781,-76.6091"/>
</g>
<!-- Node2 -->
<g id="node3" class="node">
<title>Node2</title>
<g id="a_node3"><a xlink:href="classStellarEvolution_1_1MESA_1_1Interpolator.html" target="_top" xlink:title="A stellar evolution interpolator based on the MESA tracks. ">
<polygon fill="#ffffff" stroke="#000000" points="217.0879,-51.5 217.0879,-83.5 357.1426,-83.5 357.1426,-51.5 217.0879,-51.5"/>
<text text-anchor="start" x="225.0879" y="-69.9" font-family="Helvetica,sans-Serif" font-size="12.00" fill="#000000">StellarEvolution::MESA</text>
<text text-anchor="middle" x="287.1152" y="-57.9" font-family="Helvetica,sans-Serif" font-size="12.00" fill="#000000">::Interpolator</text>
</a>
</g>
</g>
<!-- Node0&#45;&gt;Node2 -->
<g id="edge2" class="edge">
<title>Node0&#45;&gt;Node2</title>
<path fill="none" stroke="#191970" d="M177.0118,-67.5C190.3929,-67.5 203.9646,-67.5 216.7955,-67.5"/>
<polygon fill="#191970" stroke="#191970" points="176.8318,-64.0001 166.8318,-67.5 176.8318,-71.0001 176.8318,-64.0001"/>
</g>
<!-- Node3 -->
<g id="node4" class="node">
<title>Node3</title>
<g id="a_node4"><a xlink:href="classStellarEvolution_1_1MockStellarEvolution.html" target="_top" xlink:title="Implements a StellarEvolution based on polynomial evolution quantities. ">
<polygon fill="#ffffff" stroke="#000000" points="202.75,-.5 202.75,-32.5 371.4805,-32.5 371.4805,-.5 202.75,-.5"/>
<text text-anchor="start" x="210.75" y="-18.9" font-family="Helvetica,sans-Serif" font-size="12.00" fill="#000000">StellarEvolution::MockStellar</text>
<text text-anchor="middle" x="287.1152" y="-6.9" font-family="Helvetica,sans-Serif" font-size="12.00" fill="#000000">Evolution</text>
</a>
</g>
</g>
<!-- Node0&#45;&gt;Node3 -->
<g id="edge3" class="edge">
<title>Node0&#45;&gt;Node3</title>
<path fill="none" stroke="#191970" d="M133.6116,-54.9248C160.5604,-48.1791 194.0627,-39.7928 222.8865,-32.5777"/>
<polygon fill="#191970" stroke="#191970" points="132.4783,-51.6005 123.6275,-57.424 134.1781,-58.3909 132.4783,-51.6005"/>
</g>
</g>
</svg>
