<?xml version="1.0" encoding="UTF-8" standalone="no"?>
<!DOCTYPE svg PUBLIC "-//W3C//DTD SVG 1.1//EN"
 "http://www.w3.org/Graphics/SVG/1.1/DTD/svg11.dtd">
<!-- Generated by graphviz version 2.40.1 (20161225.0304)
 -->
<!-- Title: Graphical Class Hierarchy Pages: 1 -->
<svg width="593pt" height="350pt"
 viewBox="0.00 0.00 593.00 350.00" xmlns="http://www.w3.org/2000/svg" xmlns:xlink="http://www.w3.org/1999/xlink">
<g id="graph0" class="graph" transform="scale(1 1) rotate(0) translate(4 346)">
<title>Graphical Class Hierarchy</title>
<polygon fill="#ffffff" stroke="transparent" points="-4,4 -4,-346 589,-346 589,4 -4,4"/>
<!-- Node0 -->
<g id="node1" class="node">
<title>Node0</title>
<g id="a_node1"><a xlink:href="classEvolve_1_1StoppingCondition.html" target="_top" xlink:title="A base class for all stopping conditions. ">
<polygon fill="#ffffff" stroke="#000000" points="0,-143.5 0,-164.5 159,-164.5 159,-143.5 0,-143.5"/>
<text text-anchor="middle" x="79.5" y="-150.9" font-family="Helvetica,sans-Serif" font-size="12.00" fill="#000000">Evolve::StoppingCondition</text>
</a>
</g>
</g>
<!-- Node1 -->
<g id="node2" class="node">
<title>Node1</title>
<g id="a_node2"><a xlink:href="classEvolve_1_1BreakLockCondition.html" target="_top" xlink:title="Satisfied when the maximum tidal torque that the planet can exert on the star is no longer sufficient...">
<polygon fill="#ffffff" stroke="#000000" points="211.5,-320.5 211.5,-341.5 379.5,-341.5 379.5,-320.5 211.5,-320.5"/>
<text text-anchor="middle" x="295.5" y="-327.9" font-family="Helvetica,sans-Serif" font-size="12.00" fill="#000000">Evolve::BreakLockCondition</text>
</a>
</g>
</g>
<!-- Node0&#45;&gt;Node1 -->
<g id="edge1" class="edge">
<title>Node0&#45;&gt;Node1</title>
<path fill="none" stroke="#191970" d="M88.1297,-173.8496C103.9959,-207.8261 141.1786,-276.7685 195,-311 201.0044,-314.8189 207.5861,-317.9328 214.418,-320.4685"/>
<polygon fill="#191970" stroke="#191970" points="91.2107,-172.1688 83.8952,-164.5049 84.8347,-175.058 91.2107,-172.1688"/>
</g>
<!-- Node2 -->
<g id="node3" class="node">
<title>Node2</title>
<g id="a_node3"><a xlink:href="classEvolve_1_1CombinedStoppingCondition.html" target="_top" xlink:title="A class combining the the outputs of multiple stopping conditions. ">
<polygon fill="#ffffff" stroke="#000000" points="214,-267 214,-301 377,-301 377,-267 214,-267"/>
<text text-anchor="start" x="222" y="-287.4" font-family="Helvetica,sans-Serif" font-size="12.00" fill="#000000">Evolve::CombinedStopping</text>
<text text-anchor="middle" x="295.5" y="-274.4" font-family="Helvetica,sans-Serif" font-size="12.00" fill="#000000">Condition</text>
</a>
</g>
</g>
<!-- Node0&#45;&gt;Node2 -->
<g id="edge2" class="edge">
<title>Node0&#45;&gt;Node2</title>
<path fill="none" stroke="#191970" d="M94.8452,-172.4672C115.2926,-195.8679 153.7207,-235.8172 195,-258 201.3501,-261.4124 208.1694,-264.3933 215.1563,-266.994"/>
<polygon fill="#191970" stroke="#191970" points="97.3182,-169.9742 88.1536,-164.6582 92.0028,-174.529 97.3182,-169.9742"/>
</g>
<!-- Node3 -->
<g id="node4" class="node">
<title>Node3</title>
<g id="a_node4"><a xlink:href="classEvolve_1_1ExternalStoppingCondition.html" target="_top" xlink:title="A base class for all external stopping conditions. ">
<polygon fill="#ffffff" stroke="#000000" points="219.5,-214 219.5,-248 371.5,-248 371.5,-214 219.5,-214"/>
<text text-anchor="start" x="227.5" y="-234.4" font-family="Helvetica,sans-Serif" font-size="12.00" fill="#000000">Evolve::ExternalStopping</text>
<text text-anchor="middle" x="295.5" y="-221.4" font-family="Helvetica,sans-Serif" font-size="12.00" fill="#000000">Condition</text>
</a>
</g>
</g>
<!-- Node0&#45;&gt;Node3 -->
<g id="edge3" class="edge">
<title>Node0&#45;&gt;Node3</title>
<path fill="none" stroke="#191970" d="M110.0195,-169.1098C132.9931,-180.0795 165.4693,-194.7368 195,-205 204.1927,-208.1949 213.979,-211.1987 223.6993,-213.9501"/>
<polygon fill="#191970" stroke="#191970" points="111.3192,-165.8508 100.7918,-164.6578 108.2775,-172.1554 111.3192,-165.8508"/>
</g>
<!-- Node5 -->
<g id="node6" class="node">
<title>Node5</title>
<g id="a_node6"><a xlink:href="classEvolve_1_1LagForcingFrequencyBreakCondition.html" target="_top" xlink:title="satisfied when a forcing frequency reaches a critical value. ">
<polygon fill="#ffffff" stroke="#000000" points="207,-161 207,-195 384,-195 384,-161 207,-161"/>
<text text-anchor="start" x="215" y="-181.4" font-family="Helvetica,sans-Serif" font-size="12.00" fill="#000000">Evolve::LagForcingFrequency</text>
<text text-anchor="middle" x="295.5" y="-168.4" font-family="Helvetica,sans-Serif" font-size="12.00" fill="#000000">BreakCondition</text>
</a>
</g>
</g>
<!-- Node0&#45;&gt;Node5 -->
<g id="edge5" class="edge">
<title>Node0&#45;&gt;Node5</title>
<path fill="none" stroke="#191970" d="M169.3001,-163.9778C181.6592,-165.351 194.3457,-166.7606 206.6869,-168.1319"/>
<polygon fill="#191970" stroke="#191970" points="169.3356,-160.4603 159.0102,-162.8345 168.5625,-167.4175 169.3356,-160.4603"/>
</g>
<!-- Node6 -->
<g id="node7" class="node">
<title>Node6</title>
<g id="a_node7"><a xlink:href="classEvolve_1_1NoStopCondition.html" target="_top" xlink:title="A stopping condition that is never satisfied. ">
<polygon fill="#ffffff" stroke="#000000" points="219.5,-120.5 219.5,-141.5 371.5,-141.5 371.5,-120.5 219.5,-120.5"/>
<text text-anchor="middle" x="295.5" y="-127.9" font-family="Helvetica,sans-Serif" font-size="12.00" fill="#000000">Evolve::NoStopCondition</text>
</a>
</g>
</g>
<!-- Node0&#45;&gt;Node6 -->
<g id="edge6" class="edge">
<title>Node0&#45;&gt;Node6</title>
<path fill="none" stroke="#191970" d="M169.2886,-144.4392C185.9434,-142.6657 203.1932,-140.829 219.3916,-139.1041"/>
<polygon fill="#191970" stroke="#191970" points="168.5834,-140.9944 159.0102,-145.5336 169.3246,-147.955 168.5834,-140.9944"/>
</g>
<!-- Node7 -->
<g id="node8" class="node">
<title>Node7</title>
<g id="a_node8"><a xlink:href="classEvolve_1_1SecondaryDeathCondition.html" target="_top" xlink:title="Satisfied when the planet enters below either the roche sphere or the stellar photosphere. ">
<polygon fill="#ffffff" stroke="#000000" points="195,-80.5 195,-101.5 396,-101.5 396,-80.5 195,-80.5"/>
<text text-anchor="middle" x="295.5" y="-87.9" font-family="Helvetica,sans-Serif" font-size="12.00" fill="#000000">Evolve::SecondaryDeathCondition</text>
</a>
</g>
</g>
<!-- Node0&#45;&gt;Node7 -->
<g id="edge7" class="edge">
<title>Node0&#45;&gt;Node7</title>
<path fill="none" stroke="#191970" d="M113.8831,-139.5493C136.6023,-130.4133 167.207,-118.8843 195,-111 207.6649,-107.4072 221.4054,-104.2204 234.5414,-101.505"/>
<polygon fill="#191970" stroke="#191970" points="112.2931,-136.4175 104.3496,-143.4284 114.9314,-142.9013 112.2931,-136.4175"/>
</g>
<!-- Node8 -->
<g id="node9" class="node">
<title>Node8</title>
<g id="a_node9"><a xlink:href="classEvolve_1_1SynchronizedCondition.html" target="_top" xlink:title="Satisfied when some multiples of the orbit and stellar rotation are synchronized. ...">
<polygon fill="#ffffff" stroke="#000000" points="203,-40.5 203,-61.5 388,-61.5 388,-40.5 203,-40.5"/>
<text text-anchor="middle" x="295.5" y="-47.9" font-family="Helvetica,sans-Serif" font-size="12.00" fill="#000000">Evolve::SynchronizedCondition</text>
</a>
</g>
</g>
<!-- Node0&#45;&gt;Node8 -->
<g id="edge8" class="edge">
<title>Node0&#45;&gt;Node8</title>
<path fill="none" stroke="#191970" d="M98.0742,-136.7349C119.6839,-117.6363 157.2445,-87.3996 195,-71 203.8113,-67.1727 213.3771,-64.0701 222.9869,-61.5569"/>
<polygon fill="#191970" stroke="#191970" points="95.6969,-134.1657 90.6059,-143.4573 100.38,-139.3685 95.6969,-134.1657"/>
</g>
<!-- Node9 -->
<g id="node10" class="node">
<title>Node9</title>
<g id="a_node10"><a xlink:href="classStar_1_1WindSaturationCondition.html" target="_top" xlink:title="Satisfied when the surface zone of a body is spinning at exactly the wind saturation frequency...">
<polygon fill="#ffffff" stroke="#000000" points="206,-.5 206,-21.5 385,-21.5 385,-.5 206,-.5"/>
<text text-anchor="middle" x="295.5" y="-7.9" font-family="Helvetica,sans-Serif" font-size="12.00" fill="#000000">Star::WindSaturationCondition</text>
</a>
</g>
</g>
<!-- Node0&#45;&gt;Node9 -->
<g id="edge9" class="edge">
<title>Node0&#45;&gt;Node9</title>
<path fill="none" stroke="#191970" d="M91.6223,-134.9494C110.2745,-107.3292 148.7459,-56.6688 195,-31 201.9221,-27.1586 209.4744,-24.0483 217.2287,-21.5311"/>
<polygon fill="#191970" stroke="#191970" points="88.657,-133.0884 86.0739,-143.3635 94.5009,-136.9419 88.657,-133.0884"/>
</g>
<!-- Node4 -->
<g id="node5" class="node">
<title>Node4</title>
<g id="a_node5"><a xlink:href="classEvolve_1_1RotFastCondition.html" target="_top" xlink:title="Satisfied when a zone is rotating faster than a threshold. ">
<polygon fill="#ffffff" stroke="#000000" points="432,-220.5 432,-241.5 585,-241.5 585,-220.5 432,-220.5"/>
<text text-anchor="middle" x="508.5" y="-227.9" font-family="Helvetica,sans-Serif" font-size="12.00" fill="#000000">Evolve::RotFastCondition</text>
</a>
</g>
</g>
<!-- Node3&#45;&gt;Node4 -->
<g id="edge4" class="edge">
<title>Node3&#45;&gt;Node4</title>
<path fill="none" stroke="#191970" d="M381.9442,-231C398.4038,-231 415.5265,-231 431.6621,-231"/>
<polygon fill="#191970" stroke="#191970" points="381.7963,-227.5001 371.7963,-231 381.7962,-234.5001 381.7963,-227.5001"/>
</g>
</g>
</svg>
