<?xml version="1.0" encoding="UTF-8" standalone="no"?>
<!DOCTYPE svg PUBLIC "-//W3C//DTD SVG 1.1//EN"
 "http://www.w3.org/Graphics/SVG/1.1/DTD/svg11.dtd">
<!-- Generated by graphviz version 2.40.1 (20161225.0304)
 -->
<!-- Title: /Users/kpenev/projects/git/poet/poet_src/StellarEvolution/Interpolator.h Pages: 1 -->
<svg width="1103pt" height="482pt"
 viewBox="0.00 0.00 1103.42 482.00" xmlns="http://www.w3.org/2000/svg" xmlns:xlink="http://www.w3.org/1999/xlink">
<g id="graph0" class="graph" transform="scale(1 1) rotate(0) translate(4 478)">
<title>/Users/kpenev/projects/git/poet/poet_src/StellarEvolution/Interpolator.h</title>
<polygon fill="#ffffff" stroke="transparent" points="-4,4 -4,-478 1099.418,-478 1099.418,4 -4,4"/>
<!-- Node47 -->
<g id="node1" class="node">
<title>Node47</title>
<polygon fill="#bfbfbf" stroke="#000000" points="567.3193,-429.5 567.3193,-473.5 762.0889,-473.5 762.0889,-429.5 567.3193,-429.5"/>
<text text-anchor="start" x="575.3193" y="-459.9" font-family="Helvetica,sans-Serif" font-size="12.00" fill="#000000">/Users/kpenev/projects</text>
<text text-anchor="start" x="575.3193" y="-447.9" font-family="Helvetica,sans-Serif" font-size="12.00" fill="#000000">/git/poet/poet_src/StellarEvolution</text>
<text text-anchor="middle" x="664.7041" y="-435.9" font-family="Helvetica,sans-Serif" font-size="12.00" fill="#000000">/Interpolator.h</text>
</g>
<!-- Node48 -->
<g id="node2" class="node">
<title>Node48</title>
<g id="a_node2"><a xlink:href="MESAIO_8h.html" target="_top" xlink:title="Defines the classes for generating stellar evolution interpolators from the MESA tracks. ">
<polygon fill="#ffffff" stroke="#000000" points="361.3193,-348.5 361.3193,-392.5 556.0889,-392.5 556.0889,-348.5 361.3193,-348.5"/>
<text text-anchor="start" x="369.3193" y="-378.9" font-family="Helvetica,sans-Serif" font-size="12.00" fill="#000000">/Users/kpenev/projects</text>
<text text-anchor="start" x="369.3193" y="-366.9" font-family="Helvetica,sans-Serif" font-size="12.00" fill="#000000">/git/poet/poet_src/StellarEvolution</text>
<text text-anchor="middle" x="458.7041" y="-354.9" font-family="Helvetica,sans-Serif" font-size="12.00" fill="#000000">/MESAIO.h</text>
</a>
</g>
</g>
<!-- Node47&#45;&gt;Node48 -->
<g id="edge1" class="edge">
<title>Node47&#45;&gt;Node48</title>
<path fill="none" stroke="#191970" d="M599.2512,-425.7637C572.0586,-415.0714 540.821,-402.7887 514.7112,-392.5222"/>
<polygon fill="#191970" stroke="#191970" points="598.0986,-429.0713 608.6858,-429.4734 600.6602,-422.5568 598.0986,-429.0713"/>
</g>
<!-- Node57 -->
<g id="node11" class="node">
<title>Node57</title>
<g id="a_node11"><a xlink:href="EvolvingStar_8h.html" target="_top" xlink:title="Declares the class for stars that user pre&#45;tabulated stellar evolution tracks. ">
<polygon fill="#ffffff" stroke="#000000" points="595.6787,-348.5 595.6787,-392.5 733.7295,-392.5 733.7295,-348.5 595.6787,-348.5"/>
<text text-anchor="start" x="603.6787" y="-378.9" font-family="Helvetica,sans-Serif" font-size="12.00" fill="#000000">/Users/kpenev/projects</text>
<text text-anchor="start" x="603.6787" y="-366.9" font-family="Helvetica,sans-Serif" font-size="12.00" fill="#000000">/git/poet/poet_src/Star</text>
<text text-anchor="middle" x="664.7041" y="-354.9" font-family="Helvetica,sans-Serif" font-size="12.00" fill="#000000">/EvolvingStar.h</text>
</a>
</g>
</g>
<!-- Node47&#45;&gt;Node57 -->
<g id="edge11" class="edge">
<title>Node47&#45;&gt;Node57</title>
<path fill="none" stroke="#191970" d="M664.7041,-419.2457C664.7041,-410.3118 664.7041,-400.8188 664.7041,-392.6068"/>
<polygon fill="#191970" stroke="#191970" points="661.2042,-419.3664 664.7041,-429.3664 668.2042,-419.3664 661.2042,-419.3664"/>
</g>
<!-- Node65 -->
<g id="node19" class="node">
<title>Node65</title>
<g id="a_node19"><a xlink:href="Interpolator_8cpp.html" target="_top" xlink:title="Defines some of the methods of the StellarEvolution class. ">
<polygon fill="#ffffff" stroke="#000000" points="751.3193,-348.5 751.3193,-392.5 946.0889,-392.5 946.0889,-348.5 751.3193,-348.5"/>
<text text-anchor="start" x="759.3193" y="-378.9" font-family="Helvetica,sans-Serif" font-size="12.00" fill="#000000">/Users/kpenev/projects</text>
<text text-anchor="start" x="759.3193" y="-366.9" font-family="Helvetica,sans-Serif" font-size="12.00" fill="#000000">/git/poet/poet_src/StellarEvolution</text>
<text text-anchor="middle" x="848.7041" y="-354.9" font-family="Helvetica,sans-Serif" font-size="12.00" fill="#000000">/Interpolator.cpp</text>
</a>
</g>
</g>
<!-- Node47&#45;&gt;Node65 -->
<g id="edge22" class="edge">
<title>Node47&#45;&gt;Node65</title>
<path fill="none" stroke="#191970" d="M724.324,-425.2543C748.2713,-414.7123 775.5737,-402.6933 798.4861,-392.6068"/>
<polygon fill="#191970" stroke="#191970" points="722.7251,-422.1339 714.9829,-429.3664 725.5455,-428.5406 722.7251,-422.1339"/>
</g>
<!-- Node49 -->
<g id="node3" class="node">
<title>Node49</title>
<g id="a_node3"><a xlink:href="StellarEvolution_2CInterface_8h.html" target="_top" xlink:title="Declare C&#45;style functions for accessing the functionality of the StellarEvolution library...">
<polygon fill="#ffffff" stroke="#000000" points="148.3193,-267.5 148.3193,-311.5 343.0889,-311.5 343.0889,-267.5 148.3193,-267.5"/>
<text text-anchor="start" x="156.3193" y="-297.9" font-family="Helvetica,sans-Serif" font-size="12.00" fill="#000000">/Users/kpenev/projects</text>
<text text-anchor="start" x="156.3193" y="-285.9" font-family="Helvetica,sans-Serif" font-size="12.00" fill="#000000">/git/poet/poet_src/StellarEvolution</text>
<text text-anchor="middle" x="245.7041" y="-273.9" font-family="Helvetica,sans-Serif" font-size="12.00" fill="#000000">/CInterface.h</text>
</a>
</g>
</g>
<!-- Node48&#45;&gt;Node49 -->
<g id="edge2" class="edge">
<title>Node48&#45;&gt;Node49</title>
<path fill="none" stroke="#191970" d="M391.3952,-344.9036C363.1927,-334.1788 330.7292,-321.8335 303.6144,-311.5222"/>
<polygon fill="#191970" stroke="#191970" points="390.1912,-348.1903 400.7823,-348.4734 392.6794,-341.6474 390.1912,-348.1903"/>
</g>
<!-- Node56 -->
<g id="node10" class="node">
<title>Node56</title>
<g id="a_node10"><a xlink:href="MESAIO_8cpp_source.html" target="_top" xlink:title="/Users/kpenev/projects\l/git/poet/poet_src/StellarEvolution\l/MESAIO.cpp">
<polygon fill="#ffffff" stroke="#000000" points="361.3193,-267.5 361.3193,-311.5 556.0889,-311.5 556.0889,-267.5 361.3193,-267.5"/>
<text text-anchor="start" x="369.3193" y="-297.9" font-family="Helvetica,sans-Serif" font-size="12.00" fill="#000000">/Users/kpenev/projects</text>
<text text-anchor="start" x="369.3193" y="-285.9" font-family="Helvetica,sans-Serif" font-size="12.00" fill="#000000">/git/poet/poet_src/StellarEvolution</text>
<text text-anchor="middle" x="458.7041" y="-273.9" font-family="Helvetica,sans-Serif" font-size="12.00" fill="#000000">/MESAIO.cpp</text>
</a>
</g>
</g>
<!-- Node48&#45;&gt;Node56 -->
<g id="edge10" class="edge">
<title>Node48&#45;&gt;Node56</title>
<path fill="none" stroke="#191970" d="M458.7041,-338.2457C458.7041,-329.3118 458.7041,-319.8188 458.7041,-311.6068"/>
<polygon fill="#191970" stroke="#191970" points="455.2042,-338.3664 458.7041,-348.3664 462.2042,-338.3664 455.2042,-338.3664"/>
</g>
<!-- Node50 -->
<g id="node4" class="node">
<title>Node50</title>
<g id="a_node4"><a xlink:href="Star_2CInterface_8h.html" target="_top" xlink:title="Declare C&#45;style functions for accessing the functionality of the Star library. ">
<polygon fill="#ffffff" stroke="#000000" points="255.6787,-180.5 255.6787,-224.5 393.7295,-224.5 393.7295,-180.5 255.6787,-180.5"/>
<text text-anchor="start" x="263.6787" y="-210.9" font-family="Helvetica,sans-Serif" font-size="12.00" fill="#000000">/Users/kpenev/projects</text>
<text text-anchor="start" x="263.6787" y="-198.9" font-family="Helvetica,sans-Serif" font-size="12.00" fill="#000000">/git/poet/poet_src/Star</text>
<text text-anchor="middle" x="324.7041" y="-186.9" font-family="Helvetica,sans-Serif" font-size="12.00" fill="#000000">/CInterface.h</text>
</a>
</g>
</g>
<!-- Node49&#45;&gt;Node50 -->
<g id="edge3" class="edge">
<title>Node49&#45;&gt;Node50</title>
<path fill="none" stroke="#191970" d="M273.0161,-259.4222C283.4281,-247.9559 295.0926,-235.1102 304.7021,-224.5276"/>
<polygon fill="#191970" stroke="#191970" points="270.1799,-257.3392 266.0486,-267.0953 275.3622,-262.0449 270.1799,-257.3392"/>
</g>
<!-- Node55 -->
<g id="node9" class="node">
<title>Node55</title>
<g id="a_node9"><a xlink:href="StellarEvolution_2CInterface_8cpp.html" target="_top" xlink:title="The definitions of the functions declared in CInterface.h. ">
<polygon fill="#ffffff" stroke="#000000" points="43.3193,-180.5 43.3193,-224.5 238.0889,-224.5 238.0889,-180.5 43.3193,-180.5"/>
<text text-anchor="start" x="51.3193" y="-210.9" font-family="Helvetica,sans-Serif" font-size="12.00" fill="#000000">/Users/kpenev/projects</text>
<text text-anchor="start" x="51.3193" y="-198.9" font-family="Helvetica,sans-Serif" font-size="12.00" fill="#000000">/git/poet/poet_src/StellarEvolution</text>
<text text-anchor="middle" x="140.7041" y="-186.9" font-family="Helvetica,sans-Serif" font-size="12.00" fill="#000000">/CInterface.cpp</text>
</a>
</g>
</g>
<!-- Node49&#45;&gt;Node55 -->
<g id="edge9" class="edge">
<title>Node49&#45;&gt;Node55</title>
<path fill="none" stroke="#191970" d="M210.8642,-260.6327C196.7118,-248.9064 180.6214,-235.5743 167.4228,-224.6384"/>
<polygon fill="#191970" stroke="#191970" points="209.0032,-263.636 218.9365,-267.3211 213.4693,-258.2458 209.0032,-263.636"/>
</g>
<!-- Node51 -->
<g id="node5" class="node">
<title>Node51</title>
<g id="a_node5"><a xlink:href="Evolve_2CInterface_8h.html" target="_top" xlink:title="Declare C&#45;style functions for accessing the functionality of the Evolve library. ">
<polygon fill="#ffffff" stroke="#000000" points="193,-87.5 193,-131.5 340.4082,-131.5 340.4082,-87.5 193,-87.5"/>
<text text-anchor="start" x="201" y="-117.9" font-family="Helvetica,sans-Serif" font-size="12.00" fill="#000000">/Users/kpenev/projects</text>
<text text-anchor="start" x="201" y="-105.9" font-family="Helvetica,sans-Serif" font-size="12.00" fill="#000000">/git/poet/poet_src/Evolve</text>
<text text-anchor="middle" x="266.7041" y="-93.9" font-family="Helvetica,sans-Serif" font-size="12.00" fill="#000000">/CInterface.h</text>
</a>
</g>
</g>
<!-- Node50&#45;&gt;Node51 -->
<g id="edge4" class="edge">
<title>Node50&#45;&gt;Node51</title>
<path fill="none" stroke="#191970" d="M305.5327,-171.7597C297.3689,-158.6694 288.0264,-143.6892 280.5516,-131.7038"/>
<polygon fill="#191970" stroke="#191970" points="302.6973,-173.8273 310.9589,-180.4603 308.6369,-170.123 302.6973,-173.8273"/>
</g>
<!-- Node54 -->
<g id="node8" class="node">
<title>Node54</title>
<g id="a_node8"><a xlink:href="Star_2CInterface_8cpp.html" target="_top" xlink:title="The definitions of the functions declared in CInterface.h. ">
<polygon fill="#ffffff" stroke="#000000" points="328.6787,-.5 328.6787,-44.5 466.7295,-44.5 466.7295,-.5 328.6787,-.5"/>
<text text-anchor="start" x="336.6787" y="-30.9" font-family="Helvetica,sans-Serif" font-size="12.00" fill="#000000">/Users/kpenev/projects</text>
<text text-anchor="start" x="336.6787" y="-18.9" font-family="Helvetica,sans-Serif" font-size="12.00" fill="#000000">/git/poet/poet_src/Star</text>
<text text-anchor="middle" x="397.7041" y="-6.9" font-family="Helvetica,sans-Serif" font-size="12.00" fill="#000000">/CInterface.cpp</text>
</a>
</g>
</g>
<!-- Node50&#45;&gt;Node54 -->
<g id="edge8" class="edge">
<title>Node50&#45;&gt;Node54</title>
<path fill="none" stroke="#191970" d="M337.5379,-170.855C352.2041,-134.6917 375.8319,-76.4314 388.6797,-44.7521"/>
<polygon fill="#191970" stroke="#191970" points="334.1702,-169.8461 333.6553,-180.4285 340.6571,-172.477 334.1702,-169.8461"/>
</g>
<!-- Node52 -->
<g id="node6" class="node">
<title>Node52</title>
<g id="a_node6"><a xlink:href="Evolve_2CInterface_8cpp.html" target="_top" xlink:title="The definitions of the functions declared in CInterface.h. ">
<polygon fill="#ffffff" stroke="#000000" points="0,-.5 0,-44.5 147.4082,-44.5 147.4082,-.5 0,-.5"/>
<text text-anchor="start" x="8" y="-30.9" font-family="Helvetica,sans-Serif" font-size="12.00" fill="#000000">/Users/kpenev/projects</text>
<text text-anchor="start" x="8" y="-18.9" font-family="Helvetica,sans-Serif" font-size="12.00" fill="#000000">/git/poet/poet_src/Evolve</text>
<text text-anchor="middle" x="73.7041" y="-6.9" font-family="Helvetica,sans-Serif" font-size="12.00" fill="#000000">/CInterface.cpp</text>
</a>
</g>
</g>
<!-- Node51&#45;&gt;Node52 -->
<g id="edge5" class="edge">
<title>Node51&#45;&gt;Node52</title>
<path fill="none" stroke="#191970" d="M208.2907,-83.1686C180.9151,-70.8283 148.6686,-56.2923 122.6035,-44.5427"/>
<polygon fill="#191970" stroke="#191970" points="207.1976,-86.515 217.7526,-87.4338 210.0743,-80.1334 207.1976,-86.515"/>
</g>
<!-- Node53 -->
<g id="node7" class="node">
<title>Node53</title>
<g id="a_node7"><a xlink:href="Planet_2CInterface_8cpp.html" target="_top" xlink:title="The definitions of the functions declared in CInterface.h. ">
<polygon fill="#ffffff" stroke="#000000" points="164.9961,-.5 164.9961,-44.5 310.4121,-44.5 310.4121,-.5 164.9961,-.5"/>
<text text-anchor="start" x="172.9961" y="-30.9" font-family="Helvetica,sans-Serif" font-size="12.00" fill="#000000">/Users/kpenev/projects</text>
<text text-anchor="start" x="172.9961" y="-18.9" font-family="Helvetica,sans-Serif" font-size="12.00" fill="#000000">/git/poet/poet_src/Planet</text>
<text text-anchor="middle" x="237.7041" y="-6.9" font-family="Helvetica,sans-Serif" font-size="12.00" fill="#000000">/CInterface.cpp</text>
</a>
</g>
</g>
<!-- Node51&#45;&gt;Node53 -->
<g id="edge6" class="edge">
<title>Node51&#45;&gt;Node53</title>
<path fill="none" stroke="#191970" d="M256.0123,-77.4246C252.3645,-66.4812 248.3706,-54.4996 245.0466,-44.5276"/>
<polygon fill="#191970" stroke="#191970" points="252.7531,-78.7153 259.2359,-87.0953 259.3939,-76.5017 252.7531,-78.7153"/>
</g>
<!-- Node51&#45;&gt;Node54 -->
<g id="edge7" class="edge">
<title>Node51&#45;&gt;Node54</title>
<path fill="none" stroke="#191970" d="M308.6917,-81.6151C326.6993,-69.6558 347.4408,-55.881 364.3693,-44.6384"/>
<polygon fill="#191970" stroke="#191970" points="306.4938,-78.8732 300.0999,-87.3211 310.3665,-84.7044 306.4938,-78.8732"/>
</g>
<!-- Node57&#45;&gt;Node50 -->
<g id="edge12" class="edge">
<title>Node57&#45;&gt;Node50</title>
<path fill="none" stroke="#191970" d="M632.3432,-341.2702C622.5936,-332.1201 612.0149,-321.8385 602.7041,-312 584.7111,-292.9872 587.1009,-280.5505 564.7041,-267 501.5987,-228.82 473.4958,-251.7012 402.7041,-231 396.062,-229.0577 389.1684,-226.8418 382.3513,-224.5232"/>
<polygon fill="#191970" stroke="#191970" points="630.2371,-344.091 639.9445,-348.3358 635.0029,-338.9639 630.2371,-344.091"/>
</g>
<!-- Node58 -->
<g id="node12" class="node">
<title>Node58</title>
<g id="a_node12"><a xlink:href="MakeStar_8h.html" target="_top" xlink:title="Declares functions for creating stars used by unit tests. ">
<polygon fill="#ffffff" stroke="#000000" points="611.665,-267.5 611.665,-311.5 763.7432,-311.5 763.7432,-267.5 611.665,-267.5"/>
<text text-anchor="start" x="619.665" y="-297.9" font-family="Helvetica,sans-Serif" font-size="12.00" fill="#000000">/Users/kpenev/projects</text>
<text text-anchor="start" x="619.665" y="-285.9" font-family="Helvetica,sans-Serif" font-size="12.00" fill="#000000">/git/poet/poet_src/unit</text>
<text text-anchor="middle" x="687.7041" y="-273.9" font-family="Helvetica,sans-Serif" font-size="12.00" fill="#000000">_tests/shared/MakeStar.h</text>
</a>
</g>
</g>
<!-- Node57&#45;&gt;Node58 -->
<g id="edge13" class="edge">
<title>Node57&#45;&gt;Node58</title>
<path fill="none" stroke="#191970" d="M673.7801,-338.5369C676.3409,-329.5183 679.0697,-319.9081 681.4268,-311.6068"/>
<polygon fill="#191970" stroke="#191970" points="670.3536,-337.7906 670.989,-348.3664 677.0874,-339.7027 670.3536,-337.7906"/>
</g>
<!-- Node63 -->
<g id="node17" class="node">
<title>Node63</title>
<g id="a_node17"><a xlink:href="testOrbitSolver_8h.html" target="_top" xlink:title="Declares the test suite that exercises the OrbitSolver class and some other clasess necessary to acco...">
<polygon fill="#ffffff" stroke="#000000" points="799.3271,-180.5 799.3271,-224.5 998.0811,-224.5 998.0811,-180.5 799.3271,-180.5"/>
<text text-anchor="start" x="807.3271" y="-210.9" font-family="Helvetica,sans-Serif" font-size="12.00" fill="#000000">/Users/kpenev/projects</text>
<text text-anchor="start" x="807.3271" y="-198.9" font-family="Helvetica,sans-Serif" font-size="12.00" fill="#000000">/git/poet/poet_src/unit</text>
<text text-anchor="middle" x="898.7041" y="-186.9" font-family="Helvetica,sans-Serif" font-size="12.00" fill="#000000">_tests/testEvolve/testOrbitSolver.h</text>
</a>
</g>
</g>
<!-- Node57&#45;&gt;Node63 -->
<g id="edge21" class="edge">
<title>Node57&#45;&gt;Node63</title>
<path fill="none" stroke="#191970" d="M719.6302,-343.7388C737.0794,-334.4573 756.1364,-323.4796 772.7041,-312 811.5334,-285.0957 851.9978,-248.0598 876.2733,-224.7017"/>
<polygon fill="#191970" stroke="#191970" points="717.9071,-340.6902 710.6736,-348.4315 721.1558,-346.8907 717.9071,-340.6902"/>
</g>
<!-- Node59 -->
<g id="node13" class="node">
<title>Node59</title>
<g id="a_node13"><a xlink:href="MakeStar_8cpp.html" target="_top" xlink:title="Implement the functions defined in MakeStar.h. ">
<polygon fill="#ffffff" stroke="#000000" points="411.3281,-180.5 411.3281,-224.5 576.0801,-224.5 576.0801,-180.5 411.3281,-180.5"/>
<text text-anchor="start" x="419.3281" y="-210.9" font-family="Helvetica,sans-Serif" font-size="12.00" fill="#000000">/Users/kpenev/projects</text>
<text text-anchor="start" x="419.3281" y="-198.9" font-family="Helvetica,sans-Serif" font-size="12.00" fill="#000000">/git/poet/poet_src/unit</text>
<text text-anchor="middle" x="493.7041" y="-186.9" font-family="Helvetica,sans-Serif" font-size="12.00" fill="#000000">_tests/shared/MakeStar.cpp</text>
</a>
</g>
</g>
<!-- Node58&#45;&gt;Node59 -->
<g id="edge14" class="edge">
<title>Node58&#45;&gt;Node59</title>
<path fill="none" stroke="#191970" d="M629.3483,-263.3301C601.7538,-250.9553 569.1714,-236.3436 542.8568,-224.5427"/>
<polygon fill="#191970" stroke="#191970" points="627.9422,-266.5354 638.4989,-267.4338 630.8066,-260.1482 627.9422,-266.5354"/>
</g>
<!-- Node60 -->
<g id="node14" class="node">
<title>Node60</title>
<g id="a_node14"><a xlink:href="testDifferentialEquations_8h.html" target="_top" xlink:title="Unit tests that check the differential equations for eccentricity and semimajor against analytic expr...">
<polygon fill="#ffffff" stroke="#000000" points="594.4385,-174.5 594.4385,-230.5 780.9697,-230.5 780.9697,-174.5 594.4385,-174.5"/>
<text text-anchor="start" x="602.4385" y="-216.9" font-family="Helvetica,sans-Serif" font-size="12.00" fill="#000000">/Users/kpenev/projects</text>
<text text-anchor="start" x="602.4385" y="-204.9" font-family="Helvetica,sans-Serif" font-size="12.00" fill="#000000">/git/poet/poet_src/unit</text>
<text text-anchor="start" x="602.4385" y="-192.9" font-family="Helvetica,sans-Serif" font-size="12.00" fill="#000000">_tests/testEvolve/testDifferential</text>
<text text-anchor="middle" x="687.7041" y="-180.9" font-family="Helvetica,sans-Serif" font-size="12.00" fill="#000000">Equations.h</text>
</a>
</g>
</g>
<!-- Node58&#45;&gt;Node60 -->
<g id="edge15" class="edge">
<title>Node58&#45;&gt;Node60</title>
<path fill="none" stroke="#191970" d="M687.7041,-256.986C687.7041,-248.3663 687.7041,-239.1307 687.7041,-230.7577"/>
<polygon fill="#191970" stroke="#191970" points="684.2042,-257.0953 687.7041,-267.0953 691.2042,-257.0954 684.2042,-257.0953"/>
</g>
<!-- Node58&#45;&gt;Node63 -->
<g id="edge18" class="edge">
<title>Node58&#45;&gt;Node63</title>
<path fill="none" stroke="#191970" d="M750.7824,-263.4914C780.8778,-251.0824 816.4992,-236.3949 845.2442,-224.5427"/>
<polygon fill="#191970" stroke="#191970" points="749.1319,-260.3861 741.2211,-267.4338 751.8002,-266.8575 749.1319,-260.3861"/>
</g>
<!-- Node61 -->
<g id="node15" class="node">
<title>Node61</title>
<g id="a_node15"><a xlink:href="testDifferentialEquations_8cpp.html" target="_top" xlink:title="Implement the non&#45;inline methods of test_DifferentialEquations. ">
<polygon fill="#ffffff" stroke="#000000" points="473.4385,-81.5 473.4385,-137.5 659.9697,-137.5 659.9697,-81.5 473.4385,-81.5"/>
<text text-anchor="start" x="481.4385" y="-123.9" font-family="Helvetica,sans-Serif" font-size="12.00" fill="#000000">/Users/kpenev/projects</text>
<text text-anchor="start" x="481.4385" y="-111.9" font-family="Helvetica,sans-Serif" font-size="12.00" fill="#000000">/git/poet/poet_src/unit</text>
<text text-anchor="start" x="481.4385" y="-99.9" font-family="Helvetica,sans-Serif" font-size="12.00" fill="#000000">_tests/testEvolve/testDifferential</text>
<text text-anchor="middle" x="566.7041" y="-87.9" font-family="Helvetica,sans-Serif" font-size="12.00" fill="#000000">Equations.cpp</text>
</a>
</g>
</g>
<!-- Node60&#45;&gt;Node61 -->
<g id="edge16" class="edge">
<title>Node60&#45;&gt;Node61</title>
<path fill="none" stroke="#191970" d="M643.0662,-168.1915C629.9476,-158.1086 615.7584,-147.2029 603.2119,-137.5597"/>
<polygon fill="#191970" stroke="#191970" points="641.0102,-171.0256 651.0717,-174.3446 645.2759,-165.4755 641.0102,-171.0256"/>
</g>
<!-- Node62 -->
<g id="node16" class="node">
<title>Node62</title>
<g id="a_node16"><a xlink:href="testEvolve_8cpp_source.html" target="_top" xlink:title="/Users/kpenev/projects\l/git/poet/poet_src/unit\l_tests/testEvolve/testEvolve.cpp">
<polygon fill="#ffffff" stroke="#000000" points="677.6621,-87.5 677.6621,-131.5 865.7461,-131.5 865.7461,-87.5 677.6621,-87.5"/>
<text text-anchor="start" x="685.6621" y="-117.9" font-family="Helvetica,sans-Serif" font-size="12.00" fill="#000000">/Users/kpenev/projects</text>
<text text-anchor="start" x="685.6621" y="-105.9" font-family="Helvetica,sans-Serif" font-size="12.00" fill="#000000">/git/poet/poet_src/unit</text>
<text text-anchor="middle" x="771.7041" y="-93.9" font-family="Helvetica,sans-Serif" font-size="12.00" fill="#000000">_tests/testEvolve/testEvolve.cpp</text>
</a>
</g>
</g>
<!-- Node60&#45;&gt;Node62 -->
<g id="edge17" class="edge">
<title>Node60&#45;&gt;Node62</title>
<path fill="none" stroke="#191970" d="M719.9883,-166.7568C730.6588,-154.943 742.2146,-142.1491 751.6907,-131.6577"/>
<polygon fill="#191970" stroke="#191970" points="717.2404,-164.5775 713.1348,-174.3446 722.4351,-169.2695 717.2404,-164.5775"/>
</g>
<!-- Node63&#45;&gt;Node62 -->
<g id="edge19" class="edge">
<title>Node63&#45;&gt;Node62</title>
<path fill="none" stroke="#191970" d="M860.2979,-174.3758C841.6217,-160.6995 819.4943,-144.496 802.0254,-131.7038"/>
<polygon fill="#191970" stroke="#191970" points="858.4709,-177.376 868.6069,-180.4603 862.6066,-171.7283 858.4709,-177.376"/>
</g>
<!-- Node64 -->
<g id="node18" class="node">
<title>Node64</title>
<g id="a_node18"><a xlink:href="testOrbitSolver_8cpp.html" target="_top" xlink:title="Defines some of the methods of the test suite that exercises the OrbitSolver class and the other clas...">
<polygon fill="#ffffff" stroke="#000000" points="883.9902,-87.5 883.9902,-131.5 1095.418,-131.5 1095.418,-87.5 883.9902,-87.5"/>
<text text-anchor="start" x="891.9902" y="-117.9" font-family="Helvetica,sans-Serif" font-size="12.00" fill="#000000">/Users/kpenev/projects</text>
<text text-anchor="start" x="891.9902" y="-105.9" font-family="Helvetica,sans-Serif" font-size="12.00" fill="#000000">/git/poet/poet_src/unit</text>
<text text-anchor="middle" x="989.7041" y="-93.9" font-family="Helvetica,sans-Serif" font-size="12.00" fill="#000000">_tests/testEvolve/testOrbitSolver.cpp</text>
</a>
</g>
</g>
<!-- Node63&#45;&gt;Node64 -->
<g id="edge20" class="edge">
<title>Node63&#45;&gt;Node64</title>
<path fill="none" stroke="#191970" d="M927.3138,-173.2615C940.4603,-159.8261 955.799,-144.1502 967.9778,-131.7038"/>
<polygon fill="#191970" stroke="#191970" points="924.762,-170.8649 920.2698,-180.4603 929.7653,-175.7606 924.762,-170.8649"/>
</g>
</g>
</svg>
