<?xml version="1.0" encoding="UTF-8" standalone="no"?>
<!DOCTYPE svg PUBLIC "-//W3C//DTD SVG 1.1//EN"
 "http://www.w3.org/Graphics/SVG/1.1/DTD/svg11.dtd">
<!-- Generated by graphviz version 2.40.1 (20161225.0304)
 -->
<!-- Title: /home/kpenev/projects/git/poet/poet_src/StellarEvolution/InterpolationQuantities.h Pages: 1 -->
<!--zoomable 670 -->
<svg id="main" version="1.1" xmlns="http://www.w3.org/2000/svg" xmlns:xlink="http://www.w3.org/1999/xlink" xml:space="preserve" onload="init(evt)">
<style type="text/css"><![CDATA[
.edge:hover path { stroke: red; }
.edge:hover polygon { stroke: red; fill: red; }
]]></style>
<script type="text/javascript"><![CDATA[
var edges = document.getElementsByTagName('g');
if (edges && edges.length) {
  for (var i=0;i<edges.length;i++) {
    if (edges[i].id.substr(0,4)=='edge') {
      edges[i].setAttribute('class','edge');
    }
  }
}
]]></script>
        <defs>
                <circle id="rim" cx="0" cy="0" r="7"/>
                <circle id="rim2" cx="0" cy="0" r="3.5"/>
                <g id="zoomPlus">
                        <use xlink:href="#rim" fill="#404040">
                                <set attributeName="fill" to="#808080" begin="zoomplus.mouseover" end="zoomplus.mouseout"/>
                        </use>
                        <path d="M-4,0h8M0,-4v8" fill="none" stroke="white" stroke-width="1.5" pointer-events="none"/>
                </g>
                <g id="zoomMin">
                        <use xlink:href="#rim" fill="#404040">
                                <set attributeName="fill" to="#808080" begin="zoomminus.mouseover" end="zoomminus.mouseout"/>
                        </use>
                        <path d="M-4,0h8" fill="none" stroke="white" stroke-width="1.5" pointer-events="none"/>
                </g>
                <g id="dirArrow">
                        <path fill="none" stroke="white" stroke-width="1.5" d="M0,-3.0v7 M-2.5,-0.5L0,-3.0L2.5,-0.5"/>
                </g>
               <g id="resetDef">
                       <use xlink:href="#rim2" fill="#404040">
                               <set attributeName="fill" to="#808080" begin="reset.mouseover" end="reset.mouseout"/>
                       </use>
               </g>
        </defs>

<script type="text/javascript">
var viewWidth = 1159;
var viewHeight = 670;
var sectionId = 'dynsection-1';
</script>
<script xlink:href="svgpan.js"/>
<svg id="graph" class="graph">
<g id="viewport">
<title>/home/kpenev/projects/git/poet/poet_src/StellarEvolution/InterpolationQuantities.h</title>
<polygon fill="#ffffff" stroke="transparent" points="-4,4 -4,-666 1155,-666 1155,4 -4,4"/>
<!-- Node3 -->
<g id="node1" class="node">
<title>Node3</title>
<polygon fill="#bfbfbf" stroke="#000000" points="667,-614.5 667,-661.5 862,-661.5 862,-614.5 667,-614.5"/>
<text text-anchor="start" x="675" y="-647.9" font-family="Helvetica,sans-Serif" font-size="12.00" fill="#000000">/home/kpenev/projects</text>
<text text-anchor="start" x="675" y="-634.9" font-family="Helvetica,sans-Serif" font-size="12.00" fill="#000000">/git/poet/poet_src/StellarEvolution</text>
<text text-anchor="middle" x="764.5" y="-621.9" font-family="Helvetica,sans-Serif" font-size="12.00" fill="#000000">/InterpolationQuantities.h</text>
</g>
<!-- Node4 -->
<g id="node2" class="node">
<title>Node4</title>
<g id="a_node2"><a xlink:href="Interpolator_8h.html" target="_top" xlink:title="Defines the StellarEvolution class needed for interpolating among stellar evolution tracks...">
<polygon fill="#ffffff" stroke="#000000" points="605,-446.5 605,-493.5 800,-493.5 800,-446.5 605,-446.5"/>
<text text-anchor="start" x="613" y="-479.9" font-family="Helvetica,sans-Serif" font-size="12.00" fill="#000000">/home/kpenev/projects</text>
<text text-anchor="start" x="613" y="-466.9" font-family="Helvetica,sans-Serif" font-size="12.00" fill="#000000">/git/poet/poet_src/StellarEvolution</text>
<text text-anchor="middle" x="702.5" y="-453.9" font-family="Helvetica,sans-Serif" font-size="12.00" fill="#000000">/Interpolator.h</text>
</a>
</g>
</g>
<!-- Node3&#45;&gt;Node4 -->
<g id="edge1" class="edge">
<title>Node3&#45;&gt;Node4</title>
<path fill="none" stroke="#191970" d="M737.6654,-606.108C731.5199,-597.4423 725.5976,-587.7465 721.5,-578 709.916,-550.4465 705.3943,-516.0688 703.6295,-493.6004"/>
<polygon fill="#191970" stroke="#191970" points="735.0506,-608.4572 743.8258,-614.394 740.6681,-604.2807 735.0506,-608.4572"/>
</g>
<!-- Node23 -->
<g id="node21" class="node">
<title>Node23</title>
<g id="a_node21"><a xlink:href="ThreadedInterpolation_8h.html" target="_top" xlink:title="Declaration of a class that handles multithreaded stellar evolution interpolation. ">
<polygon fill="#ffffff" stroke="#000000" points="730,-530.5 730,-577.5 925,-577.5 925,-530.5 730,-530.5"/>
<text text-anchor="start" x="738" y="-563.9" font-family="Helvetica,sans-Serif" font-size="12.00" fill="#000000">/home/kpenev/projects</text>
<text text-anchor="start" x="738" y="-550.9" font-family="Helvetica,sans-Serif" font-size="12.00" fill="#000000">/git/poet/poet_src/StellarEvolution</text>
<text text-anchor="middle" x="827.5" y="-537.9" font-family="Helvetica,sans-Serif" font-size="12.00" fill="#000000">/ThreadedInterpolation.h</text>
</a>
</g>
</g>
<!-- Node3&#45;&gt;Node23 -->
<g id="edge24" class="edge">
<title>Node3&#45;&gt;Node23</title>
<path fill="none" stroke="#191970" d="M788.4382,-606.0824C795.5303,-596.6262 803.166,-586.4454 809.7886,-577.6152"/>
<polygon fill="#191970" stroke="#191970" points="785.5848,-604.0536 782.3848,-614.1537 791.1848,-608.2537 785.5848,-604.0536"/>
</g>
<!-- Node5 -->
<g id="node3" class="node">
<title>Node5</title>
<g id="a_node3"><a xlink:href="MESAIO_8h.html" target="_top" xlink:title="Defines the classes for generating stellar evolution interpolators from the MESA tracks. ">
<polygon fill="#ffffff" stroke="#000000" points="399,-362.5 399,-409.5 594,-409.5 594,-362.5 399,-362.5"/>
<text text-anchor="start" x="407" y="-395.9" font-family="Helvetica,sans-Serif" font-size="12.00" fill="#000000">/home/kpenev/projects</text>
<text text-anchor="start" x="407" y="-382.9" font-family="Helvetica,sans-Serif" font-size="12.00" fill="#000000">/git/poet/poet_src/StellarEvolution</text>
<text text-anchor="middle" x="496.5" y="-369.9" font-family="Helvetica,sans-Serif" font-size="12.00" fill="#000000">/MESAIO.h</text>
</a>
</g>
</g>
<!-- Node4&#45;&gt;Node5 -->
<g id="edge2" class="edge">
<title>Node4&#45;&gt;Node5</title>
<path fill="none" stroke="#191970" d="M635.3581,-442.6217C609.1359,-431.9292 579.3709,-419.792 554.1425,-409.5047"/>
<polygon fill="#191970" stroke="#191970" points="634.2623,-445.9547 644.8436,-446.4896 636.9054,-439.4728 634.2623,-445.9547"/>
</g>
<!-- Node14 -->
<g id="node12" class="node">
<title>Node14</title>
<g id="a_node12"><a xlink:href="EvolvingStar_8h.html" target="_top" xlink:title="Declares the class for stars that user pre&#45;tabulated stellar evolution tracks. ">
<polygon fill="#ffffff" stroke="#000000" points="634,-362.5 634,-409.5 771,-409.5 771,-362.5 634,-362.5"/>
<text text-anchor="start" x="642" y="-395.9" font-family="Helvetica,sans-Serif" font-size="12.00" fill="#000000">/home/kpenev/projects</text>
<text text-anchor="start" x="642" y="-382.9" font-family="Helvetica,sans-Serif" font-size="12.00" fill="#000000">/git/poet/poet_src/Star</text>
<text text-anchor="middle" x="702.5" y="-369.9" font-family="Helvetica,sans-Serif" font-size="12.00" fill="#000000">/EvolvingStar.h</text>
</a>
</g>
</g>
<!-- Node4&#45;&gt;Node14 -->
<g id="edge12" class="edge">
<title>Node4&#45;&gt;Node14</title>
<path fill="none" stroke="#191970" d="M702.5,-436.0664C702.5,-427.1933 702.5,-417.821 702.5,-409.6152"/>
<polygon fill="#191970" stroke="#191970" points="699.0001,-436.1536 702.5,-446.1537 706.0001,-436.1537 699.0001,-436.1536"/>
</g>
<!-- Node22 -->
<g id="node20" class="node">
<title>Node22</title>
<g id="a_node20"><a xlink:href="Interpolator_8cpp.html" target="_top" xlink:title="Defines some of the methods of the StellarEvolution class. ">
<polygon fill="#ffffff" stroke="#000000" points="789,-362.5 789,-409.5 984,-409.5 984,-362.5 789,-362.5"/>
<text text-anchor="start" x="797" y="-395.9" font-family="Helvetica,sans-Serif" font-size="12.00" fill="#000000">/home/kpenev/projects</text>
<text text-anchor="start" x="797" y="-382.9" font-family="Helvetica,sans-Serif" font-size="12.00" fill="#000000">/git/poet/poet_src/StellarEvolution</text>
<text text-anchor="middle" x="886.5" y="-369.9" font-family="Helvetica,sans-Serif" font-size="12.00" fill="#000000">/Interpolator.cpp</text>
</a>
</g>
</g>
<!-- Node4&#45;&gt;Node22 -->
<g id="edge23" class="edge">
<title>Node4&#45;&gt;Node22</title>
<path fill="none" stroke="#191970" d="M763.5984,-442.1072C786.6779,-431.5709 812.693,-419.6945 834.826,-409.5903"/>
<polygon fill="#191970" stroke="#191970" points="761.8873,-439.0409 754.2439,-446.3778 764.7943,-445.4087 761.8873,-439.0409"/>
</g>
<!-- Node6 -->
<g id="node4" class="node">
<title>Node6</title>
<g id="a_node4"><a xlink:href="StellarEvolution_2CInterface_8h.html" target="_top" xlink:title="Declare C&#45;style functions for accessing the functionality of the StellarEvolution library...">
<polygon fill="#ffffff" stroke="#000000" points="186,-278.5 186,-325.5 381,-325.5 381,-278.5 186,-278.5"/>
<text text-anchor="start" x="194" y="-311.9" font-family="Helvetica,sans-Serif" font-size="12.00" fill="#000000">/home/kpenev/projects</text>
<text text-anchor="start" x="194" y="-298.9" font-family="Helvetica,sans-Serif" font-size="12.00" fill="#000000">/git/poet/poet_src/StellarEvolution</text>
<text text-anchor="middle" x="283.5" y="-285.9" font-family="Helvetica,sans-Serif" font-size="12.00" fill="#000000">/CInterface.h</text>
</a>
</g>
</g>
<!-- Node5&#45;&gt;Node6 -->
<g id="edge3" class="edge">
<title>Node5&#45;&gt;Node6</title>
<path fill="none" stroke="#191970" d="M427.4331,-358.7623C400.2334,-348.0357 369.3013,-335.8371 343.1012,-325.5047"/>
<polygon fill="#191970" stroke="#191970" points="426.2976,-362.0768 436.8844,-362.4896 428.8657,-355.5649 426.2976,-362.0768"/>
</g>
<!-- Node13 -->
<g id="node11" class="node">
<title>Node13</title>
<g id="a_node11"><a xlink:href="MESAIO_8cpp_source.html" target="_top" xlink:title="/home/kpenev/projects\l/git/poet/poet_src/StellarEvolution\l/MESAIO.cpp">
<polygon fill="#ffffff" stroke="#000000" points="399,-278.5 399,-325.5 594,-325.5 594,-278.5 399,-278.5"/>
<text text-anchor="start" x="407" y="-311.9" font-family="Helvetica,sans-Serif" font-size="12.00" fill="#000000">/home/kpenev/projects</text>
<text text-anchor="start" x="407" y="-298.9" font-family="Helvetica,sans-Serif" font-size="12.00" fill="#000000">/git/poet/poet_src/StellarEvolution</text>
<text text-anchor="middle" x="496.5" y="-285.9" font-family="Helvetica,sans-Serif" font-size="12.00" fill="#000000">/MESAIO.cpp</text>
</a>
</g>
</g>
<!-- Node5&#45;&gt;Node13 -->
<g id="edge11" class="edge">
<title>Node5&#45;&gt;Node13</title>
<path fill="none" stroke="#191970" d="M496.5,-352.0664C496.5,-343.1933 496.5,-333.821 496.5,-325.6152"/>
<polygon fill="#191970" stroke="#191970" points="493.0001,-352.1536 496.5,-362.1537 500.0001,-352.1537 493.0001,-352.1536"/>
</g>
<!-- Node7 -->
<g id="node5" class="node">
<title>Node7</title>
<g id="a_node5"><a xlink:href="Star_2CInterface_8h.html" target="_top" xlink:title="Declare C&#45;style functions for accessing the functionality of the Star library. ">
<polygon fill="#ffffff" stroke="#000000" points="295,-188 295,-235 432,-235 432,-188 295,-188"/>
<text text-anchor="start" x="303" y="-221.4" font-family="Helvetica,sans-Serif" font-size="12.00" fill="#000000">/home/kpenev/projects</text>
<text text-anchor="start" x="303" y="-208.4" font-family="Helvetica,sans-Serif" font-size="12.00" fill="#000000">/git/poet/poet_src/Star</text>
<text text-anchor="middle" x="363.5" y="-195.4" font-family="Helvetica,sans-Serif" font-size="12.00" fill="#000000">/CInterface.h</text>
</a>
</g>
</g>
<!-- Node6&#45;&gt;Node7 -->
<g id="edge4" class="edge">
<title>Node6&#45;&gt;Node7</title>
<path fill="none" stroke="#191970" d="M311.3961,-270.4425C321.6547,-258.8375 333.0859,-245.906 342.6213,-235.119"/>
<polygon fill="#191970" stroke="#191970" points="308.5198,-268.4117 304.5191,-278.2222 313.7645,-273.0479 308.5198,-268.4117"/>
</g>
<!-- Node12 -->
<g id="node10" class="node">
<title>Node12</title>
<g id="a_node10"><a xlink:href="StellarEvolution_2CInterface_8cpp.html" target="_top" xlink:title="The definitions of the functions declared in CInterface.h. ">
<polygon fill="#ffffff" stroke="#000000" points="82,-188 82,-235 277,-235 277,-188 82,-188"/>
<text text-anchor="start" x="90" y="-221.4" font-family="Helvetica,sans-Serif" font-size="12.00" fill="#000000">/home/kpenev/projects</text>
<text text-anchor="start" x="90" y="-208.4" font-family="Helvetica,sans-Serif" font-size="12.00" fill="#000000">/git/poet/poet_src/StellarEvolution</text>
<text text-anchor="middle" x="179.5" y="-195.4" font-family="Helvetica,sans-Serif" font-size="12.00" fill="#000000">/CInterface.cpp</text>
</a>
</g>
</g>
<!-- Node6&#45;&gt;Node12 -->
<g id="edge10" class="edge">
<title>Node6&#45;&gt;Node12</title>
<path fill="none" stroke="#191970" d="M248.6514,-271.675C235.0072,-259.802 219.5889,-246.3851 206.7791,-235.2381"/>
<polygon fill="#191970" stroke="#191970" points="246.6054,-274.5342 256.4467,-278.4584 251.2006,-269.2536 246.6054,-274.5342"/>
</g>
<!-- Node8 -->
<g id="node6" class="node">
<title>Node8</title>
<g id="a_node6"><a xlink:href="Evolve_2CInterface_8h.html" target="_top" xlink:title="Declare C&#45;style functions for accessing the functionality of the Evolve library. ">
<polygon fill="#ffffff" stroke="#000000" points="192,-91 192,-138 339,-138 339,-91 192,-91"/>
<text text-anchor="start" x="200" y="-124.4" font-family="Helvetica,sans-Serif" font-size="12.00" fill="#000000">/home/kpenev/projects</text>
<text text-anchor="start" x="200" y="-111.4" font-family="Helvetica,sans-Serif" font-size="12.00" fill="#000000">/git/poet/poet_src/Evolve</text>
<text text-anchor="middle" x="265.5" y="-98.4" font-family="Helvetica,sans-Serif" font-size="12.00" fill="#000000">/CInterface.h</text>
</a>
</g>
</g>
<!-- Node7&#45;&gt;Node8 -->
<g id="edge5" class="edge">
<title>Node7&#45;&gt;Node8</title>
<path fill="none" stroke="#191970" d="M332.1202,-180.4404C318.331,-166.7919 302.3941,-151.0176 289.5657,-138.3201"/>
<polygon fill="#191970" stroke="#191970" points="329.9571,-183.2239 339.5265,-187.7711 334.8814,-178.2488 329.9571,-183.2239"/>
</g>
<!-- Node11 -->
<g id="node9" class="node">
<title>Node11</title>
<g id="a_node9"><a xlink:href="Star_2CInterface_8cpp.html" target="_top" xlink:title="The definitions of the functions declared in CInterface.h. ">
<polygon fill="#ffffff" stroke="#000000" points="328,-.5 328,-47.5 465,-47.5 465,-.5 328,-.5"/>
<text text-anchor="start" x="336" y="-33.9" font-family="Helvetica,sans-Serif" font-size="12.00" fill="#000000">/home/kpenev/projects</text>
<text text-anchor="start" x="336" y="-20.9" font-family="Helvetica,sans-Serif" font-size="12.00" fill="#000000">/git/poet/poet_src/Star</text>
<text text-anchor="middle" x="396.5" y="-7.9" font-family="Helvetica,sans-Serif" font-size="12.00" fill="#000000">/CInterface.cpp</text>
</a>
</g>
</g>
<!-- Node7&#45;&gt;Node11 -->
<g id="edge9" class="edge">
<title>Node7&#45;&gt;Node11</title>
<path fill="none" stroke="#191970" d="M369.434,-177.7839C376.0477,-140.206 386.5707,-80.4162 392.3545,-47.5542"/>
<polygon fill="#191970" stroke="#191970" points="365.9659,-177.2977 367.6795,-187.753 372.8599,-178.5111 365.9659,-177.2977"/>
</g>
<!-- Node9 -->
<g id="node7" class="node">
<title>Node9</title>
<g id="a_node7"><a xlink:href="Evolve_2CInterface_8cpp.html" target="_top" xlink:title="The definitions of the functions declared in CInterface.h. ">
<polygon fill="#ffffff" stroke="#000000" points="0,-.5 0,-47.5 147,-47.5 147,-.5 0,-.5"/>
<text text-anchor="start" x="8" y="-33.9" font-family="Helvetica,sans-Serif" font-size="12.00" fill="#000000">/home/kpenev/projects</text>
<text text-anchor="start" x="8" y="-20.9" font-family="Helvetica,sans-Serif" font-size="12.00" fill="#000000">/git/poet/poet_src/Evolve</text>
<text text-anchor="middle" x="73.5" y="-7.9" font-family="Helvetica,sans-Serif" font-size="12.00" fill="#000000">/CInterface.cpp</text>
</a>
</g>
</g>
<!-- Node8&#45;&gt;Node9 -->
<g id="edge6" class="edge">
<title>Node8&#45;&gt;Node9</title>
<path fill="none" stroke="#191970" d="M206.373,-86.6303C179.844,-74.1257 148.8849,-59.533 123.5276,-47.5807"/>
<polygon fill="#191970" stroke="#191970" points="205.0177,-89.8607 215.5555,-90.9584 208.0022,-83.5288 205.0177,-89.8607"/>
</g>
<!-- Node10 -->
<g id="node8" class="node">
<title>Node10</title>
<g id="a_node8"><a xlink:href="Planet_2CInterface_8cpp.html" target="_top" xlink:title="The definitions of the functions declared in CInterface.h. ">
<polygon fill="#ffffff" stroke="#000000" points="165,-.5 165,-47.5 310,-47.5 310,-.5 165,-.5"/>
<text text-anchor="start" x="173" y="-33.9" font-family="Helvetica,sans-Serif" font-size="12.00" fill="#000000">/home/kpenev/projects</text>
<text text-anchor="start" x="173" y="-20.9" font-family="Helvetica,sans-Serif" font-size="12.00" fill="#000000">/git/poet/poet_src/Planet</text>
<text text-anchor="middle" x="237.5" y="-7.9" font-family="Helvetica,sans-Serif" font-size="12.00" fill="#000000">/CInterface.cpp</text>
</a>
</g>
</g>
<!-- Node8&#45;&gt;Node10 -->
<g id="edge7" class="edge">
<title>Node8&#45;&gt;Node10</title>
<path fill="none" stroke="#191970" d="M255.111,-80.9214C251.6864,-69.8526 247.9524,-57.7837 244.8075,-47.619"/>
<polygon fill="#191970" stroke="#191970" points="251.8439,-82.2035 258.1433,-90.7222 258.5312,-80.1345 251.8439,-82.2035"/>
</g>
<!-- Node8&#45;&gt;Node11 -->
<g id="edge8" class="edge">
<title>Node8&#45;&gt;Node11</title>
<path fill="none" stroke="#191970" d="M307.9557,-85.1699C325.4906,-73.0561 345.551,-59.1976 362.1388,-47.7381"/>
<polygon fill="#191970" stroke="#191970" points="305.8149,-82.3948 299.5767,-90.9584 309.7937,-88.1541 305.8149,-82.3948"/>
</g>
<!-- Node14&#45;&gt;Node7 -->
<g id="edge13" class="edge">
<title>Node14&#45;&gt;Node7</title>
<path fill="none" stroke="#191970" d="M669.2452,-355.3815C659.7041,-346.1841 649.4633,-335.9014 640.5,-326 622.2394,-305.8284 625.545,-292.4664 602.5,-278 540.3993,-239.0166 511.626,-263.4135 441.5,-242 434.825,-239.9617 427.9109,-237.6156 421.0821,-235.1486"/>
<polygon fill="#191970" stroke="#191970" points="667.056,-358.1301 676.7091,-362.4969 671.886,-353.0635 667.056,-358.1301"/>
</g>
<!-- Node15 -->
<g id="node13" class="node">
<title>Node15</title>
<g id="a_node13"><a xlink:href="MakeStar_8h.html" target="_top" xlink:title="Declares functions for creating stars used by unit tests. ">
<polygon fill="#ffffff" stroke="#000000" points="649.5,-278.5 649.5,-325.5 801.5,-325.5 801.5,-278.5 649.5,-278.5"/>
<text text-anchor="start" x="657.5" y="-311.9" font-family="Helvetica,sans-Serif" font-size="12.00" fill="#000000">/home/kpenev/projects</text>
<text text-anchor="start" x="657.5" y="-298.9" font-family="Helvetica,sans-Serif" font-size="12.00" fill="#000000">/git/poet/poet_src/unit</text>
<text text-anchor="middle" x="725.5" y="-285.9" font-family="Helvetica,sans-Serif" font-size="12.00" fill="#000000">_tests/shared/MakeStar.h</text>
</a>
</g>
</g>
<!-- Node14&#45;&gt;Node15 -->
<g id="edge14" class="edge">
<title>Node14&#45;&gt;Node15</title>
<path fill="none" stroke="#191970" d="M711.7122,-352.3556C714.1651,-343.3972 716.7627,-333.9102 719.0339,-325.6152"/>
<polygon fill="#191970" stroke="#191970" points="708.2946,-351.5843 709.0294,-362.1537 715.0461,-353.433 708.2946,-351.5843"/>
</g>
<!-- Node20 -->
<g id="node18" class="node">
<title>Node20</title>
<g id="a_node18"><a xlink:href="testOrbitSolver_8h.html" target="_top" xlink:title="Declares the test suite that exercises the OrbitSolver class and some other clasess necessary to acco...">
<polygon fill="#ffffff" stroke="#000000" points="836.5,-188 836.5,-235 1034.5,-235 1034.5,-188 836.5,-188"/>
<text text-anchor="start" x="844.5" y="-221.4" font-family="Helvetica,sans-Serif" font-size="12.00" fill="#000000">/home/kpenev/projects</text>
<text text-anchor="start" x="844.5" y="-208.4" font-family="Helvetica,sans-Serif" font-size="12.00" fill="#000000">/git/poet/poet_src/unit</text>
<text text-anchor="middle" x="935.5" y="-195.4" font-family="Helvetica,sans-Serif" font-size="12.00" fill="#000000">_tests/testEvolve/testOrbitSolver.h</text>
</a>
</g>
</g>
<!-- Node14&#45;&gt;Node20 -->
<g id="edge22" class="edge">
<title>Node14&#45;&gt;Node20</title>
<path fill="none" stroke="#191970" d="M759.691,-357.4834C776.5579,-348.2187 794.7151,-337.3727 810.5,-326 849.1819,-298.1303 888.9634,-259.6815 912.9627,-235.2032"/>
<polygon fill="#191970" stroke="#191970" points="757.6113,-354.6287 750.4765,-362.4611 760.9384,-360.7876 757.6113,-354.6287"/>
</g>
<!-- Node16 -->
<g id="node14" class="node">
<title>Node16</title>
<g id="a_node14"><a xlink:href="MakeStar_8cpp.html" target="_top" xlink:title="Implement the functions defined in MakeStar.h. ">
<polygon fill="#ffffff" stroke="#000000" points="450.5,-188 450.5,-235 614.5,-235 614.5,-188 450.5,-188"/>
<text text-anchor="start" x="458.5" y="-221.4" font-family="Helvetica,sans-Serif" font-size="12.00" fill="#000000">/home/kpenev/projects</text>
<text text-anchor="start" x="458.5" y="-208.4" font-family="Helvetica,sans-Serif" font-size="12.00" fill="#000000">/git/poet/poet_src/unit</text>
<text text-anchor="middle" x="532.5" y="-195.4" font-family="Helvetica,sans-Serif" font-size="12.00" fill="#000000">_tests/shared/MakeStar.cpp</text>
</a>
</g>
</g>
<!-- Node15&#45;&gt;Node16 -->
<g id="edge15" class="edge">
<title>Node15&#45;&gt;Node16</title>
<path fill="none" stroke="#191970" d="M666.0651,-274.1303C639.3978,-261.6257 608.2775,-247.033 582.7882,-235.0807"/>
<polygon fill="#191970" stroke="#191970" points="664.7554,-277.3818 675.2953,-278.4584 667.7273,-271.0439 664.7554,-277.3818"/>
</g>
<!-- Node17 -->
<g id="node15" class="node">
<title>Node17</title>
<g id="a_node15"><a xlink:href="testDifferentialEquations_8h.html" target="_top" xlink:title="Unit tests that check the differential equations for eccentricity and semimajor against analytic expr...">
<polygon fill="#ffffff" stroke="#000000" points="632.5,-181.5 632.5,-241.5 818.5,-241.5 818.5,-181.5 632.5,-181.5"/>
<text text-anchor="start" x="640.5" y="-227.9" font-family="Helvetica,sans-Serif" font-size="12.00" fill="#000000">/home/kpenev/projects</text>
<text text-anchor="start" x="640.5" y="-214.9" font-family="Helvetica,sans-Serif" font-size="12.00" fill="#000000">/git/poet/poet_src/unit</text>
<text text-anchor="start" x="640.5" y="-201.9" font-family="Helvetica,sans-Serif" font-size="12.00" fill="#000000">_tests/testEvolve/testDifferential</text>
<text text-anchor="middle" x="725.5" y="-188.9" font-family="Helvetica,sans-Serif" font-size="12.00" fill="#000000">Equations.h</text>
</a>
</g>
</g>
<!-- Node15&#45;&gt;Node17 -->
<g id="edge16" class="edge">
<title>Node15&#45;&gt;Node17</title>
<path fill="none" stroke="#191970" d="M725.5,-268.0234C725.5,-259.3454 725.5,-250.0766 725.5,-241.6077"/>
<polygon fill="#191970" stroke="#191970" points="722.0001,-268.2222 725.5,-278.2222 729.0001,-268.2222 722.0001,-268.2222"/>
</g>
<!-- Node15&#45;&gt;Node20 -->
<g id="edge19" class="edge">
<title>Node15&#45;&gt;Node20</title>
<path fill="none" stroke="#191970" d="M789.411,-274.4574C818.5944,-261.8808 852.8056,-247.1374 880.7823,-235.0807"/>
<polygon fill="#191970" stroke="#191970" points="787.9251,-271.2865 780.1268,-278.4584 790.6955,-277.715 787.9251,-271.2865"/>
</g>
<!-- Node18 -->
<g id="node16" class="node">
<title>Node18</title>
<g id="a_node16"><a xlink:href="testDifferentialEquations_8cpp.html" target="_top" xlink:title="Implement the non&#45;inline methods of test_DifferentialEquations. ">
<polygon fill="#ffffff" stroke="#000000" points="529.5,-84.5 529.5,-144.5 715.5,-144.5 715.5,-84.5 529.5,-84.5"/>
<text text-anchor="start" x="537.5" y="-130.9" font-family="Helvetica,sans-Serif" font-size="12.00" fill="#000000">/home/kpenev/projects</text>
<text text-anchor="start" x="537.5" y="-117.9" font-family="Helvetica,sans-Serif" font-size="12.00" fill="#000000">/git/poet/poet_src/unit</text>
<text text-anchor="start" x="537.5" y="-104.9" font-family="Helvetica,sans-Serif" font-size="12.00" fill="#000000">_tests/testEvolve/testDifferential</text>
<text text-anchor="middle" x="622.5" y="-91.9" font-family="Helvetica,sans-Serif" font-size="12.00" fill="#000000">Equations.cpp</text>
</a>
</g>
</g>
<!-- Node17&#45;&gt;Node18 -->
<g id="edge17" class="edge">
<title>Node17&#45;&gt;Node18</title>
<path fill="none" stroke="#191970" d="M686.0324,-174.3315C675.6063,-164.5127 664.4832,-154.0376 654.5054,-144.641"/>
<polygon fill="#191970" stroke="#191970" points="683.7953,-177.0324 693.4748,-181.3403 688.5944,-171.9364 683.7953,-177.0324"/>
</g>
<!-- Node19 -->
<g id="node17" class="node">
<title>Node19</title>
<g id="a_node17"><a xlink:href="testEvolve_8cpp_source.html" target="_top" xlink:title="/home/kpenev/projects\l/git/poet/poet_src/unit\l_tests/testEvolve/testEvolve.cpp">
<polygon fill="#ffffff" stroke="#000000" points="733.5,-91 733.5,-138 921.5,-138 921.5,-91 733.5,-91"/>
<text text-anchor="start" x="741.5" y="-124.4" font-family="Helvetica,sans-Serif" font-size="12.00" fill="#000000">/home/kpenev/projects</text>
<text text-anchor="start" x="741.5" y="-111.4" font-family="Helvetica,sans-Serif" font-size="12.00" fill="#000000">/git/poet/poet_src/unit</text>
<text text-anchor="middle" x="827.5" y="-98.4" font-family="Helvetica,sans-Serif" font-size="12.00" fill="#000000">_tests/testEvolve/testEvolve.cpp</text>
</a>
</g>
</g>
<!-- Node17&#45;&gt;Node19 -->
<g id="edge18" class="edge">
<title>Node17&#45;&gt;Node19</title>
<path fill="none" stroke="#191970" d="M764.5844,-174.3315C777.3533,-162.1885 791.1778,-149.0417 802.6071,-138.1726"/>
<polygon fill="#191970" stroke="#191970" points="762.0488,-171.9128 757.2143,-181.3403 766.8727,-176.9853 762.0488,-171.9128"/>
</g>
<!-- Node20&#45;&gt;Node19 -->
<g id="edge20" class="edge">
<title>Node20&#45;&gt;Node19</title>
<path fill="none" stroke="#191970" d="M901.3397,-180.819C886.0474,-167.0843 868.2897,-151.1352 854.0213,-138.3201"/>
<polygon fill="#191970" stroke="#191970" points="899.3017,-183.693 909.0802,-187.7711 903.9791,-178.4851 899.3017,-183.693"/>
</g>
<!-- Node21 -->
<g id="node19" class="node">
<title>Node21</title>
<g id="a_node19"><a xlink:href="testOrbitSolver_8cpp.html" target="_top" xlink:title="Defines some of the methods of the test suite that exercises the OrbitSolver class and the other clas...">
<polygon fill="#ffffff" stroke="#000000" points="940,-91 940,-138 1151,-138 1151,-91 940,-91"/>
<text text-anchor="start" x="948" y="-124.4" font-family="Helvetica,sans-Serif" font-size="12.00" fill="#000000">/home/kpenev/projects</text>
<text text-anchor="start" x="948" y="-111.4" font-family="Helvetica,sans-Serif" font-size="12.00" fill="#000000">/git/poet/poet_src/unit</text>
<text text-anchor="middle" x="1045.5" y="-98.4" font-family="Helvetica,sans-Serif" font-size="12.00" fill="#000000">_tests/testEvolve/testOrbitSolver.cpp</text>
</a>
</g>
</g>
<!-- Node20&#45;&gt;Node21 -->
<g id="edge21" class="edge">
<title>Node20&#45;&gt;Node21</title>
<path fill="none" stroke="#191970" d="M970.2929,-180.819C985.8684,-167.0843 1003.955,-151.1352 1018.4875,-138.3201"/>
<polygon fill="#191970" stroke="#191970" points="967.5945,-178.532 962.409,-187.7711 972.2243,-183.7823 967.5945,-178.532"/>
</g>
<!-- Node23&#45;&gt;Node4 -->
<g id="edge25" class="edge">
<title>Node23&#45;&gt;Node4</title>
<path fill="none" stroke="#191970" d="M783.717,-524.5779C768.6959,-514.4837 752.0858,-503.3217 737.8214,-493.736"/>
<polygon fill="#191970" stroke="#191970" points="782.0957,-527.7051 792.3479,-530.3778 786,-521.8951 782.0957,-527.7051"/>
</g>
<!-- Node24 -->
<g id="node22" class="node">
<title>Node24</title>
<g id="a_node22"><a xlink:href="ThreadedInterpolation_8cpp.html" target="_top" xlink:title="The implementation of some of the methods of the InterpolationQueue class. ">
<polygon fill="#ffffff" stroke="#000000" points="818,-446.5 818,-493.5 1013,-493.5 1013,-446.5 818,-446.5"/>
<text text-anchor="start" x="826" y="-479.9" font-family="Helvetica,sans-Serif" font-size="12.00" fill="#000000">/home/kpenev/projects</text>
<text text-anchor="start" x="826" y="-466.9" font-family="Helvetica,sans-Serif" font-size="12.00" fill="#000000">/git/poet/poet_src/StellarEvolution</text>
<text text-anchor="middle" x="915.5" y="-453.9" font-family="Helvetica,sans-Serif" font-size="12.00" fill="#000000">/ThreadedInterpolation.cpp</text>
</a>
</g>
</g>
<!-- Node23&#45;&gt;Node24 -->
<g id="edge26" class="edge">
<title>Node23&#45;&gt;Node24</title>
<path fill="none" stroke="#191970" d="M859.7405,-523.2249C869.9798,-513.4511 881.1359,-502.8021 890.7602,-493.6152"/>
<polygon fill="#191970" stroke="#191970" points="857.2988,-520.7171 852.4819,-530.1537 862.1321,-525.7806 857.2988,-520.7171"/>
</g>
</g>
</svg>
        <g id="navigator" transform="translate(0 0)" fill="#404254">
                <rect fill="#f2f5e9" fill-opacity="0.5" stroke="#606060" stroke-width=".5" x="0" y="0" width="60" height="60"/>
                <use id="zoomplus" xlink:href="#zoomPlus" x="17" y="9" onmousedown="handleZoom(evt,'in')"/>
                <use id="zoomminus" xlink:href="#zoomMin" x="42" y="9" onmousedown="handleZoom(evt,'out')"/>
                <use id="reset" xlink:href="#resetDef" x="30" y="36" onmousedown="handleReset()"/>
                <g id="arrowUp" xlink:href="#dirArrow" transform="translate(30 24)" onmousedown="handlePan(0,-1)">
                  <use xlink:href="#rim" fill="#404040">
                        <set attributeName="fill" to="#808080" begin="arrowUp.mouseover" end="arrowUp.mouseout"/>
                  </use>
                  <path fill="none" stroke="white" stroke-width="1.5" d="M0,-3.0v7 M-2.5,-0.5L0,-3.0L2.5,-0.5"/>
                </g>
                <g id="arrowRight" xlink:href="#dirArrow" transform="rotate(90) translate(36 -43)" onmousedown="handlePan(1,0)">
                  <use xlink:href="#rim" fill="#404040">
                        <set attributeName="fill" to="#808080" begin="arrowRight.mouseover" end="arrowRight.mouseout"/>
                  </use>
                  <path fill="none" stroke="white" stroke-width="1.5" d="M0,-3.0v7 M-2.5,-0.5L0,-3.0L2.5,-0.5"/>
                </g>
                <g id="arrowDown" xlink:href="#dirArrow" transform="rotate(180) translate(-30 -48)" onmousedown="handlePan(0,1)">
                  <use xlink:href="#rim" fill="#404040">
                        <set attributeName="fill" to="#808080" begin="arrowDown.mouseover" end="arrowDown.mouseout"/>
                  </use>
                  <path fill="none" stroke="white" stroke-width="1.5" d="M0,-3.0v7 M-2.5,-0.5L0,-3.0L2.5,-0.5"/>
                </g>
                <g id="arrowLeft" xlink:href="#dirArrow" transform="rotate(270) translate(-36 17)" onmousedown="handlePan(-1,0)">
                  <use xlink:href="#rim" fill="#404040">
                        <set attributeName="fill" to="#808080" begin="arrowLeft.mouseover" end="arrowLeft.mouseout"/>
                  </use>
                  <path fill="none" stroke="white" stroke-width="1.5" d="M0,-3.0v7 M-2.5,-0.5L0,-3.0L2.5,-0.5"/>
                </g>
        </g>
        <svg viewBox="0 0 15 15" width="100%" height="30px" preserveAspectRatio="xMaxYMin meet">
         <g id="arrow_out" transform="scale(0.3 0.3)">
          <a xlink:href="InterpolationQuantities_8h__dep__incl_org.svg" target="_base">
           <rect id="button" ry="5" rx="5" y="6" x="6" height="38" width="38"
                fill="#f2f5e9" fill-opacity="0.5" stroke="#606060" stroke-width="1.0"/>
           <path id="arrow"
             d="M 11.500037,31.436501 C 11.940474,20.09759 22.043105,11.32322 32.158766,21.979434 L 37.068811,17.246167 C 37.068811,17.246167 37.088388,32 37.088388,32 L 22.160133,31.978069 C 22.160133,31.978069 26.997745,27.140456 26.997745,27.140456 C 18.528582,18.264221 13.291696,25.230495 11.500037,31.436501 z"
             style="fill:#404040;"/>
          </a>
         </g>
        </svg>
</svg>
