<?xml version="1.0" encoding="UTF-8" standalone="no"?>
<!DOCTYPE svg PUBLIC "-//W3C//DTD SVG 1.1//EN"
 "http://www.w3.org/Graphics/SVG/1.1/DTD/svg11.dtd">
<!-- Generated by graphviz version 2.40.1 (20161225.0304)
 -->
<!-- Title: /home/kpenev/projects/git/poet/poet_src/unit_tests/testEvolve/InverseLinearLconvEvolution.h Pages: 1 -->
<svg width="426pt" height="237pt"
 viewBox="0.00 0.00 425.50 237.00" xmlns="http://www.w3.org/2000/svg" xmlns:xlink="http://www.w3.org/1999/xlink">
<g id="graph0" class="graph" transform="scale(1 1) rotate(0) translate(4 233)">
<title>/home/kpenev/projects/git/poet/poet_src/unit_tests/testEvolve/InverseLinearLconvEvolution.h</title>
<polygon fill="#ffffff" stroke="transparent" points="-4,4 -4,-233 421.5,-233 421.5,4 -4,4"/>
<!-- Node32 -->
<g id="node1" class="node">
<title>Node32</title>
<polygon fill="#bfbfbf" stroke="#000000" points="112,-168.5 112,-228.5 294,-228.5 294,-168.5 112,-168.5"/>
<text text-anchor="start" x="120" y="-214.9" font-family="Helvetica,sans-Serif" font-size="12.00" fill="#000000">/home/kpenev/projects</text>
<text text-anchor="start" x="120" y="-201.9" font-family="Helvetica,sans-Serif" font-size="12.00" fill="#000000">/git/poet/poet_src/unit</text>
<text text-anchor="start" x="120" y="-188.9" font-family="Helvetica,sans-Serif" font-size="12.00" fill="#000000">_tests/testEvolve/InverseLinear</text>
<text text-anchor="middle" x="203" y="-175.9" font-family="Helvetica,sans-Serif" font-size="12.00" fill="#000000">LconvEvolution.h</text>
</g>
<!-- Node33 -->
<g id="node2" class="node">
<title>Node33</title>
<g id="a_node2"><a xlink:href="testOrbitSolver_8h.html" target="_top" xlink:title="Declares the test suite that exercises the OrbitSolver class and some other clasess necessary to acco...">
<polygon fill="#ffffff" stroke="#000000" points="104,-84.5 104,-131.5 302,-131.5 302,-84.5 104,-84.5"/>
<text text-anchor="start" x="112" y="-117.9" font-family="Helvetica,sans-Serif" font-size="12.00" fill="#000000">/home/kpenev/projects</text>
<text text-anchor="start" x="112" y="-104.9" font-family="Helvetica,sans-Serif" font-size="12.00" fill="#000000">/git/poet/poet_src/unit</text>
<text text-anchor="middle" x="203" y="-91.9" font-family="Helvetica,sans-Serif" font-size="12.00" fill="#000000">_tests/testEvolve/testOrbitSolver.h</text>
</a>
</g>
</g>
<!-- Node32&#45;&gt;Node33 -->
<g id="edge1" class="edge">
<title>Node32&#45;&gt;Node33</title>
<path fill="none" stroke="#191970" d="M203,-158.3034C203,-149.2179 203,-139.8573 203,-131.7113"/>
<polygon fill="#191970" stroke="#191970" points="199.5001,-158.3648 203,-168.3648 206.5001,-158.3648 199.5001,-158.3648"/>
</g>
<!-- Node34 -->
<g id="node3" class="node">
<title>Node34</title>
<g id="a_node3"><a xlink:href="testEvolve_8cpp_source.html" target="_top" xlink:title="/home/kpenev/projects\l/git/poet/poet_src/unit\l_tests/testEvolve/testEvolve.cpp">
<polygon fill="#ffffff" stroke="#000000" points="0,-.5 0,-47.5 188,-47.5 188,-.5 0,-.5"/>
<text text-anchor="start" x="8" y="-33.9" font-family="Helvetica,sans-Serif" font-size="12.00" fill="#000000">/home/kpenev/projects</text>
<text text-anchor="start" x="8" y="-20.9" font-family="Helvetica,sans-Serif" font-size="12.00" fill="#000000">/git/poet/poet_src/unit</text>
<text text-anchor="middle" x="94" y="-7.9" font-family="Helvetica,sans-Serif" font-size="12.00" fill="#000000">_tests/testEvolve/testEvolve.cpp</text>
</a>
</g>
</g>
<!-- Node33&#45;&gt;Node34 -->
<g id="edge2" class="edge">
<title>Node33&#45;&gt;Node34</title>
<path fill="none" stroke="#191970" d="M164.0853,-78.0107C151.1821,-68.067 137.0063,-57.1425 124.8002,-47.736"/>
<polygon fill="#191970" stroke="#191970" points="162.29,-81.0459 172.3474,-84.3778 166.563,-75.5013 162.29,-81.0459"/>
</g>
<!-- Node35 -->
<g id="node4" class="node">
<title>Node35</title>
<g id="a_node4"><a xlink:href="testOrbitSolver_8cpp.html" target="_top" xlink:title="Defines some of the methods of the test suite that exercises the OrbitSolver class and the other clas...">
<polygon fill="#ffffff" stroke="#000000" points="206.5,-.5 206.5,-47.5 417.5,-47.5 417.5,-.5 206.5,-.5"/>
<text text-anchor="start" x="214.5" y="-33.9" font-family="Helvetica,sans-Serif" font-size="12.00" fill="#000000">/home/kpenev/projects</text>
<text text-anchor="start" x="214.5" y="-20.9" font-family="Helvetica,sans-Serif" font-size="12.00" fill="#000000">/git/poet/poet_src/unit</text>
<text text-anchor="middle" x="312" y="-7.9" font-family="Helvetica,sans-Serif" font-size="12.00" fill="#000000">_tests/testEvolve/testOrbitSolver.cpp</text>
</a>
</g>
</g>
<!-- Node33&#45;&gt;Node35 -->
<g id="edge3" class="edge">
<title>Node33&#45;&gt;Node35</title>
<path fill="none" stroke="#191970" d="M241.9147,-78.0107C254.8179,-68.067 268.9937,-57.1425 281.1998,-47.736"/>
<polygon fill="#191970" stroke="#191970" points="239.437,-75.5013 233.6526,-84.3778 243.71,-81.0459 239.437,-75.5013"/>
</g>
</g>
</svg>
