<?xml version="1.0" encoding="UTF-8" standalone="no"?>
<!DOCTYPE svg PUBLIC "-//W3C//DTD SVG 1.1//EN"
 "http://www.w3.org/Graphics/SVG/1.1/DTD/svg11.dtd">
<!-- Generated by graphviz version 2.40.1 (20161225.0304)
 -->
<!-- Title: /home/kpenev/projects/git/poet/poet_src/IO/IOColumns.h Pages: 1 -->
<svg width="145pt" height="114pt"
 viewBox="0.00 0.00 145.00 114.00" xmlns="http://www.w3.org/2000/svg" xmlns:xlink="http://www.w3.org/1999/xlink">
<g id="graph0" class="graph" transform="scale(1 1) rotate(0) translate(4 110)">
<title>/home/kpenev/projects/git/poet/poet_src/IO/IOColumns.h</title>
<polygon fill="#ffffff" stroke="transparent" points="-4,4 -4,-110 141,-110 141,4 -4,4"/>
<!-- Node0 -->
<g id="node1" class="node">
<title>Node0</title>
<polygon fill="#bfbfbf" stroke="#000000" points="0,-58.5 0,-105.5 137,-105.5 137,-58.5 0,-58.5"/>
<text text-anchor="start" x="8" y="-91.9" font-family="Helvetica,sans-Serif" font-size="12.00" fill="#000000">/home/kpenev/projects</text>
<text text-anchor="start" x="8" y="-78.9" font-family="Helvetica,sans-Serif" font-size="12.00" fill="#000000">/git/poet/poet_src/IO</text>
<text text-anchor="middle" x="68.5" y="-65.9" font-family="Helvetica,sans-Serif" font-size="12.00" fill="#000000">/IOColumns.h</text>
</g>
<!-- Node1 -->
<g id="node2" class="node">
<title>Node1</title>
<polygon fill="#ffffff" stroke="#bfbfbf" points="11,-.5 11,-21.5 60,-21.5 60,-.5 11,-.5"/>
<text text-anchor="middle" x="35.5" y="-7.9" font-family="Helvetica,sans-Serif" font-size="12.00" fill="#000000">vector</text>
</g>
<!-- Node0&#45;&gt;Node1 -->
<g id="edge1" class="edge">
<title>Node0&#45;&gt;Node1</title>
<path fill="none" stroke="#191970" d="M57.5115,-58.358C53.3608,-49.4278 48.6845,-39.3666 44.7129,-30.8218"/>
<polygon fill="#191970" stroke="#191970" points="47.8371,-29.2393 40.4482,-21.6462 41.4892,-32.1898 47.8371,-29.2393"/>
</g>
<!-- Node2 -->
<g id="node3" class="node">
<title>Node2</title>
<polygon fill="#ffffff" stroke="#bfbfbf" points="78.5,-.5 78.5,-21.5 124.5,-21.5 124.5,-.5 78.5,-.5"/>
<text text-anchor="middle" x="101.5" y="-7.9" font-family="Helvetica,sans-Serif" font-size="12.00" fill="#000000">string</text>
</g>
<!-- Node0&#45;&gt;Node2 -->
<g id="edge2" class="edge">
<title>Node0&#45;&gt;Node2</title>
<path fill="none" stroke="#191970" d="M79.4885,-58.358C83.6392,-49.4278 88.3155,-39.3666 92.2871,-30.8218"/>
<polygon fill="#191970" stroke="#191970" points="95.5108,-32.1898 96.5518,-21.6462 89.1629,-29.2393 95.5108,-32.1898"/>
</g>
</g>
</svg>
