<?xml version="1.0" encoding="UTF-8" standalone="no"?>
<!DOCTYPE svg PUBLIC "-//W3C//DTD SVG 1.1//EN"
 "http://www.w3.org/Graphics/SVG/1.1/DTD/svg11.dtd">
<!-- Generated by graphviz version 2.40.1 (20161225.0304)
 -->
<!-- Title: /Users/kpenev/projects/git/poet/poet_src/IO/IOColumns.h Pages: 1 -->
<svg width="146pt" height="110pt"
 viewBox="0.00 0.00 146.05 110.00" xmlns="http://www.w3.org/2000/svg" xmlns:xlink="http://www.w3.org/1999/xlink">
<g id="graph0" class="graph" transform="scale(1 1) rotate(0) translate(4 106)">
<title>/Users/kpenev/projects/git/poet/poet_src/IO/IOColumns.h</title>
<polygon fill="#ffffff" stroke="transparent" points="-4,4 -4,-106 142.0508,-106 142.0508,4 -4,4"/>
<!-- Node0 -->
<g id="node1" class="node">
<title>Node0</title>
<polygon fill="#bfbfbf" stroke="#000000" points="0,-57.5 0,-101.5 138.0508,-101.5 138.0508,-57.5 0,-57.5"/>
<text text-anchor="start" x="8" y="-87.9" font-family="Helvetica,sans-Serif" font-size="12.00" fill="#000000">/Users/kpenev/projects</text>
<text text-anchor="start" x="8" y="-75.9" font-family="Helvetica,sans-Serif" font-size="12.00" fill="#000000">/git/poet/poet_src/IO</text>
<text text-anchor="middle" x="69.0254" y="-63.9" font-family="Helvetica,sans-Serif" font-size="12.00" fill="#000000">/IOColumns.h</text>
</g>
<!-- Node1 -->
<g id="node2" class="node">
<title>Node1</title>
<polygon fill="#ffffff" stroke="#bfbfbf" points="12.6865,-.5 12.6865,-20.5 61.3643,-20.5 61.3643,-.5 12.6865,-.5"/>
<text text-anchor="middle" x="37.0254" y="-6.9" font-family="Helvetica,sans-Serif" font-size="12.00" fill="#000000">vector</text>
</g>
<!-- Node0&#45;&gt;Node1 -->
<g id="edge1" class="edge">
<title>Node0&#45;&gt;Node1</title>
<path fill="none" stroke="#191970" d="M58.7242,-57.2882C54.627,-48.4535 49.9563,-38.3823 46.0004,-29.8525"/>
<polygon fill="#191970" stroke="#191970" points="49.1446,-28.313 41.7622,-20.7137 42.7943,-31.2581 49.1446,-28.313"/>
</g>
<!-- Node2 -->
<g id="node3" class="node">
<title>Node2</title>
<polygon fill="#ffffff" stroke="#bfbfbf" points="79.3535,-.5 79.3535,-20.5 124.6973,-20.5 124.6973,-.5 79.3535,-.5"/>
<text text-anchor="middle" x="102.0254" y="-6.9" font-family="Helvetica,sans-Serif" font-size="12.00" fill="#000000">string</text>
</g>
<!-- Node0&#45;&gt;Node2 -->
<g id="edge2" class="edge">
<title>Node0&#45;&gt;Node2</title>
<path fill="none" stroke="#191970" d="M79.6484,-57.2882C83.8737,-48.4535 88.6904,-38.3823 92.7699,-29.8525"/>
<polygon fill="#191970" stroke="#191970" points="95.9835,-31.2451 97.1406,-20.7137 89.6685,-28.2249 95.9835,-31.2451"/>
</g>
</g>
</svg>
