<?xml version="1.0" encoding="UTF-8" standalone="no"?>
<!DOCTYPE svg PUBLIC "-//W3C//DTD SVG 1.1//EN"
 "http://www.w3.org/Graphics/SVG/1.1/DTD/svg11.dtd">
<!-- Generated by graphviz version 2.40.1 (20161225.0304)
 -->
<!-- Title: /home/kpenev/projects/git/poet/poet_src/IO/IOColumns.h Pages: 1 -->
<svg width="306pt" height="140pt"
 viewBox="0.00 0.00 306.00 140.00" xmlns="http://www.w3.org/2000/svg" xmlns:xlink="http://www.w3.org/1999/xlink">
<g id="graph0" class="graph" transform="scale(1 1) rotate(0) translate(4 136)">
<title>/home/kpenev/projects/git/poet/poet_src/IO/IOColumns.h</title>
<polygon fill="#ffffff" stroke="transparent" points="-4,4 -4,-136 302,-136 302,4 -4,4"/>
<!-- Node3 -->
<g id="node1" class="node">
<title>Node3</title>
<polygon fill="#bfbfbf" stroke="#000000" points="79,-84.5 79,-131.5 216,-131.5 216,-84.5 79,-84.5"/>
<text text-anchor="start" x="87" y="-117.9" font-family="Helvetica,sans-Serif" font-size="12.00" fill="#000000">/home/kpenev/projects</text>
<text text-anchor="start" x="87" y="-104.9" font-family="Helvetica,sans-Serif" font-size="12.00" fill="#000000">/git/poet/poet_src/IO</text>
<text text-anchor="middle" x="147.5" y="-91.9" font-family="Helvetica,sans-Serif" font-size="12.00" fill="#000000">/IOColumns.h</text>
</g>
<!-- Node4 -->
<g id="node2" class="node">
<title>Node4</title>
<g id="a_node2"><a xlink:href="IOColumns_8cpp_source.html" target="_top" xlink:title="/home/kpenev/projects\l/git/poet/poet_src/IO\l/IOColumns.cpp">
<polygon fill="#ffffff" stroke="#000000" points="0,-.5 0,-47.5 137,-47.5 137,-.5 0,-.5"/>
<text text-anchor="start" x="8" y="-33.9" font-family="Helvetica,sans-Serif" font-size="12.00" fill="#000000">/home/kpenev/projects</text>
<text text-anchor="start" x="8" y="-20.9" font-family="Helvetica,sans-Serif" font-size="12.00" fill="#000000">/git/poet/poet_src/IO</text>
<text text-anchor="middle" x="68.5" y="-7.9" font-family="Helvetica,sans-Serif" font-size="12.00" fill="#000000">/IOColumns.cpp</text>
</a>
</g>
</g>
<!-- Node3&#45;&gt;Node4 -->
<g id="edge1" class="edge">
<title>Node3&#45;&gt;Node4</title>
<path fill="none" stroke="#191970" d="M118.0204,-76.6546C108.9763,-67.0381 99.1819,-56.6237 90.7096,-47.6152"/>
<polygon fill="#191970" stroke="#191970" points="115.6725,-79.2669 125.0731,-84.1537 120.7717,-74.4712 115.6725,-79.2669"/>
</g>
<!-- Node5 -->
<g id="node3" class="node">
<title>Node5</title>
<g id="a_node3"><a xlink:href="poet_8h.html" target="_top" xlink:title="Defines the command line options class for the main executable. ">
<polygon fill="#ffffff" stroke="#000000" points="155,-7 155,-41 298,-41 298,-7 155,-7"/>
<text text-anchor="start" x="163" y="-27.4" font-family="Helvetica,sans-Serif" font-size="12.00" fill="#000000">/home/kpenev/projects</text>
<text text-anchor="middle" x="226.5" y="-14.4" font-family="Helvetica,sans-Serif" font-size="12.00" fill="#000000">/git/poet/poet_src/poet.h</text>
</a>
</g>
</g>
<!-- Node3&#45;&gt;Node5 -->
<g id="edge2" class="edge">
<title>Node3&#45;&gt;Node5</title>
<path fill="none" stroke="#191970" d="M176.7885,-76.8578C188.117,-64.8123 200.6486,-51.4875 210.2957,-41.2299"/>
<polygon fill="#191970" stroke="#191970" points="174.2283,-74.4712 169.9269,-84.1537 179.3275,-79.2669 174.2283,-74.4712"/>
</g>
</g>
</svg>
