<?xml version="1.0" encoding="UTF-8" standalone="no"?>
<!DOCTYPE svg PUBLIC "-//W3C//DTD SVG 1.1//EN"
 "http://www.w3.org/Graphics/SVG/1.1/DTD/svg11.dtd">
<!-- Generated by graphviz version 2.40.1 (20161225.0304)
 -->
<!-- Title: /Users/kpenev/projects/git/poet/poet_src/Evolve/LagForcingFrequencyBreakCondition.h Pages: 1 -->
<svg width="2447pt" height="464pt"
 viewBox="0.00 0.00 2447.04 464.00" xmlns="http://www.w3.org/2000/svg" xmlns:xlink="http://www.w3.org/1999/xlink">
<g id="graph0" class="graph" transform="scale(1 1) rotate(0) translate(4 460)">
<title>/Users/kpenev/projects/git/poet/poet_src/Evolve/LagForcingFrequencyBreakCondition.h</title>
<polygon fill="#ffffff" stroke="transparent" points="-4,4 -4,-460 2443.0401,-460 2443.0401,4 -4,4"/>
<!-- Node0 -->
<g id="node1" class="node">
<title>Node0</title>
<polygon fill="#bfbfbf" stroke="#000000" points="610.6113,-411.5 610.6113,-455.5 838.7324,-455.5 838.7324,-411.5 610.6113,-411.5"/>
<text text-anchor="start" x="618.6113" y="-441.9" font-family="Helvetica,sans-Serif" font-size="12.00" fill="#000000">/Users/kpenev/projects</text>
<text text-anchor="start" x="618.6113" y="-429.9" font-family="Helvetica,sans-Serif" font-size="12.00" fill="#000000">/git/poet/poet_src/Evolve</text>
<text text-anchor="middle" x="724.6719" y="-417.9" font-family="Helvetica,sans-Serif" font-size="12.00" fill="#000000">/LagForcingFrequencyBreakCondition.h</text>
</g>
<!-- Node1 -->
<g id="node2" class="node">
<title>Node1</title>
<g id="a_node2"><a xlink:href="SharedLibraryExportMacros_8h_source.html" target="_top" xlink:title="../Core/SharedLibraryExport\lMacros.h">
<polygon fill="#ffffff" stroke="#000000" points="989.9707,-.5 989.9707,-32.5 1155.373,-32.5 1155.373,-.5 989.9707,-.5"/>
<text text-anchor="start" x="997.9707" y="-18.9" font-family="Helvetica,sans-Serif" font-size="12.00" fill="#000000">../Core/SharedLibraryExport</text>
<text text-anchor="middle" x="1072.6719" y="-6.9" font-family="Helvetica,sans-Serif" font-size="12.00" fill="#000000">Macros.h</text>
</a>
</g>
</g>
<!-- Node0&#45;&gt;Node1 -->
<g id="edge1" class="edge">
<title>Node0&#45;&gt;Node1</title>
<path fill="none" stroke="#191970" d="M839.059,-431.0839C1222.3938,-422.2423 2437.6719,-387.874 2437.6719,-307.5 2437.6719,-307.5 2437.6719,-307.5 2437.6719,-136.5 2437.6719,-105.3342 2443.1448,-88.2973 2418.6719,-69 2369.5859,-30.2949 1463.3422,-19.6198 1166.1749,-17.1535"/>
<polygon fill="#191970" stroke="#191970" points="1165.8914,-13.6511 1155.8631,-17.0691 1165.8341,-20.6509 1165.8914,-13.6511"/>
</g>
<!-- Node2 -->
<g id="node3" class="node">
<title>Node2</title>
<g id="a_node3"><a xlink:href="StoppingCondition_8h.html" target="_top" xlink:title="Defines the various stopping conditions needed by OrbitSolver. ">
<polygon fill="#ffffff" stroke="#000000" points="1194.6309,-183.5 1194.6309,-203.5 1318.7129,-203.5 1318.7129,-183.5 1194.6309,-183.5"/>
<text text-anchor="middle" x="1256.6719" y="-189.9" font-family="Helvetica,sans-Serif" font-size="12.00" fill="#000000">StoppingCondition.h</text>
</a>
</g>
</g>
<!-- Node0&#45;&gt;Node2 -->
<g id="edge2" class="edge">
<title>Node0&#45;&gt;Node2</title>
<path fill="none" stroke="#191970" d="M773.7676,-411.3516C881.3711,-362.8086 1135.4999,-248.1641 1224.8943,-207.8357"/>
<polygon fill="#191970" stroke="#191970" points="1226.5608,-210.9237 1234.2369,-203.621 1223.6822,-204.5429 1226.5608,-210.9237"/>
</g>
<!-- Node16 -->
<g id="node17" class="node">
<title>Node16</title>
<g id="a_node17"><a xlink:href="Error_8h.html" target="_top" xlink:title="Defines the exception hierarchy used by this code. ">
<polygon fill="#ffffff" stroke="#000000" points="33.6631,-69.5 33.6631,-89.5 85.6807,-89.5 85.6807,-69.5 33.6631,-69.5"/>
<text text-anchor="middle" x="59.6719" y="-75.9" font-family="Helvetica,sans-Serif" font-size="12.00" fill="#000000">Error.h</text>
</a>
</g>
</g>
<!-- Node0&#45;&gt;Node16 -->
<g id="edge80" class="edge">
<title>Node0&#45;&gt;Node16</title>
<path fill="none" stroke="#191970" d="M610.4478,-420.455C439.6822,-399.3817 137.6719,-355.3486 137.6719,-307.5 137.6719,-307.5 137.6719,-307.5 137.6719,-193.5 137.6719,-152.9562 103.6523,-116.243 80.5472,-95.9839"/>
<polygon fill="#191970" stroke="#191970" points="82.8007,-93.3059 72.9035,-89.5249 78.2827,-98.6526 82.8007,-93.3059"/>
</g>
<!-- Node22 -->
<g id="node23" class="node">
<title>Node22</title>
<g id="a_node23"><a xlink:href="DissipatingBody_8h.html" target="_top" xlink:title="Declares the DissipatingBody class. ">
<polygon fill="#ffffff" stroke="#000000" points="1018.0879,-354.5 1018.0879,-374.5 1129.2559,-374.5 1129.2559,-354.5 1018.0879,-354.5"/>
<text text-anchor="middle" x="1073.6719" y="-360.9" font-family="Helvetica,sans-Serif" font-size="12.00" fill="#000000">DissipatingBody.h</text>
</a>
</g>
</g>
<!-- Node0&#45;&gt;Node22 -->
<g id="edge27" class="edge">
<title>Node0&#45;&gt;Node22</title>
<path fill="none" stroke="#191970" d="M836.0572,-411.4783C894.5365,-399.9165 963.9453,-386.1938 1012.5974,-376.5749"/>
<polygon fill="#191970" stroke="#191970" points="1013.5216,-379.96 1022.6528,-374.5869 1012.1638,-373.0929 1013.5216,-379.96"/>
</g>
<!-- Node30 -->
<g id="node31" class="node">
<title>Node30</title>
<polygon fill="#ffffff" stroke="#bfbfbf" points="243.333,-69.5 243.333,-89.5 292.0107,-89.5 292.0107,-69.5 243.333,-69.5"/>
<text text-anchor="middle" x="267.6719" y="-75.9" font-family="Helvetica,sans-Serif" font-size="12.00" fill="#000000">vector</text>
</g>
<!-- Node0&#45;&gt;Node30 -->
<g id="edge81" class="edge">
<title>Node0&#45;&gt;Node30</title>
<path fill="none" stroke="#191970" d="M610.4215,-419.5666C493.763,-402.0614 329.6719,-366.8842 329.6719,-307.5 329.6719,-307.5 329.6719,-307.5 329.6719,-193.5 329.6719,-155.7105 303.0551,-118.5008 284.7008,-97.3342"/>
<polygon fill="#191970" stroke="#191970" points="287.2013,-94.8805 277.9099,-89.7892 281.9984,-99.5635 287.2013,-94.8805"/>
</g>
<!-- Node38 -->
<g id="node39" class="node">
<title>Node38</title>
<g id="a_node39"><a xlink:href="OrbitalExpressions_8h.html" target="_top" xlink:title="A collection of functions which calculate various quantities for two body orbits. ...">
<polygon fill="#ffffff" stroke="#000000" points="657.6426,-126.5 657.6426,-146.5 823.7012,-146.5 823.7012,-126.5 657.6426,-126.5"/>
<text text-anchor="middle" x="740.6719" y="-132.9" font-family="Helvetica,sans-Serif" font-size="12.00" fill="#000000">../Core/OrbitalExpressions.h</text>
</a>
</g>
</g>
<!-- Node0&#45;&gt;Node38 -->
<g id="edge79" class="edge">
<title>Node0&#45;&gt;Node38</title>
<path fill="none" stroke="#191970" d="M719.2781,-411.347C713.6608,-386.3003 705.6719,-344.223 705.6719,-307.5 705.6719,-307.5 705.6719,-307.5 705.6719,-250.5 705.6719,-215.8492 720.6318,-177.7797 730.9907,-155.5723"/>
<polygon fill="#191970" stroke="#191970" points="734.1492,-157.0803 735.3561,-146.5544 727.8486,-154.0302 734.1492,-157.0803"/>
</g>
<!-- Node2&#45;&gt;Node1 -->
<g id="edge3" class="edge">
<title>Node2&#45;&gt;Node1</title>
<path fill="none" stroke="#191970" d="M1245.926,-183.2329C1226.4919,-164.6577 1184.2191,-124.2216 1148.6719,-90 1131.2179,-73.1969 1111.5587,-54.1819 1096.6081,-39.7028"/>
<polygon fill="#191970" stroke="#191970" points="1098.8735,-37.0244 1089.2557,-32.5804 1094.0029,-42.0521 1098.8735,-37.0244"/>
</g>
<!-- Node3 -->
<g id="node4" class="node">
<title>Node3</title>
<g id="a_node4"><a xlink:href="Core_2Common_8h.html" target="_top" xlink:title="Declaration of some general purpose utilities. ">
<polygon fill="#ffffff" stroke="#000000" points="1465.6553,-126.5 1465.6553,-146.5 1579.6885,-146.5 1579.6885,-126.5 1465.6553,-126.5"/>
<text text-anchor="middle" x="1522.6719" y="-132.9" font-family="Helvetica,sans-Serif" font-size="12.00" fill="#000000">../Core/Common.h</text>
</a>
</g>
</g>
<!-- Node2&#45;&gt;Node3 -->
<g id="edge4" class="edge">
<title>Node2&#45;&gt;Node3</title>
<path fill="none" stroke="#191970" d="M1303.615,-183.4408C1348.8689,-173.7435 1417.4174,-159.0545 1465.7583,-148.6958"/>
<polygon fill="#191970" stroke="#191970" points="1466.7067,-152.0721 1475.7514,-146.5544 1465.24,-145.2274 1466.7067,-152.0721"/>
</g>
<!-- Node15 -->
<g id="node16" class="node">
<title>Node15</title>
<polygon fill="#ffffff" stroke="#bfbfbf" points="1935.333,-69.5 1935.333,-89.5 1990.0107,-89.5 1990.0107,-69.5 1935.333,-69.5"/>
<text text-anchor="middle" x="1962.6719" y="-75.9" font-family="Helvetica,sans-Serif" font-size="12.00" fill="#000000">cassert</text>
</g>
<!-- Node2&#45;&gt;Node15 -->
<g id="edge26" class="edge">
<title>Node2&#45;&gt;Node15</title>
<path fill="none" stroke="#191970" d="M1318.888,-185.5285C1385.6807,-176.7972 1494.8535,-162.0256 1588.6719,-147 1729.587,-124.4315 1764.2355,-115.3779 1904.6719,-90 1911.37,-88.7896 1918.503,-87.4993 1925.3927,-86.2524"/>
<polygon fill="#191970" stroke="#191970" points="1926.0173,-89.6963 1935.2338,-84.4709 1924.7703,-82.8083 1926.0173,-89.6963"/>
</g>
<!-- Node3&#45;&gt;Node1 -->
<g id="edge17" class="edge">
<title>Node3&#45;&gt;Node1</title>
<path fill="none" stroke="#191970" d="M1579.8296,-129.2682C1682.7175,-116.2464 1888.5131,-90.1802 1888.6719,-90 1894.8416,-82.9968 1895.0562,-75.8082 1888.6719,-69 1864.2495,-42.9558 1374.1514,-25.4201 1165.4655,-19.1065"/>
<polygon fill="#191970" stroke="#191970" points="1165.5428,-15.6074 1155.4422,-18.8054 1165.3325,-22.6042 1165.5428,-15.6074"/>
</g>
<!-- Node4 -->
<g id="node5" class="node">
<title>Node4</title>
<polygon fill="#ffffff" stroke="#bfbfbf" points="1849.3389,-69.5 1849.3389,-89.5 1880.0049,-89.5 1880.0049,-69.5 1849.3389,-69.5"/>
<text text-anchor="middle" x="1864.6719" y="-75.9" font-family="Helvetica,sans-Serif" font-size="12.00" fill="#000000">list</text>
</g>
<!-- Node3&#45;&gt;Node4 -->
<g id="edge5" class="edge">
<title>Node3&#45;&gt;Node4</title>
<path fill="none" stroke="#191970" d="M1579.8593,-128.9806C1657.9726,-118.5918 1792.8895,-100.1916 1839.3314,-89.5393"/>
<polygon fill="#191970" stroke="#191970" points="1840.3355,-92.8949 1849.144,-87.0076 1838.5867,-86.1169 1840.3355,-92.8949"/>
</g>
<!-- Node5 -->
<g id="node6" class="node">
<title>Node5</title>
<polygon fill="#ffffff" stroke="#bfbfbf" points="2045.332,-69.5 2045.332,-89.5 2104.0117,-89.5 2104.0117,-69.5 2045.332,-69.5"/>
<text text-anchor="middle" x="2074.6719" y="-75.9" font-family="Helvetica,sans-Serif" font-size="12.00" fill="#000000">valarray</text>
</g>
<!-- Node3&#45;&gt;Node5 -->
<g id="edge6" class="edge">
<title>Node3&#45;&gt;Node5</title>
<path fill="none" stroke="#191970" d="M1579.9022,-131.6523C1669.3725,-123.9063 1847.7676,-107.788 1998.6719,-90 2010.54,-88.601 2023.4242,-86.893 2035.1545,-85.2643"/>
<polygon fill="#191970" stroke="#191970" points="2035.6966,-88.7226 2045.1113,-83.8633 2034.7211,-81.7909 2035.6966,-88.7226"/>
</g>
<!-- Node6 -->
<g id="node7" class="node">
<title>Node6</title>
<polygon fill="#ffffff" stroke="#bfbfbf" points="1158.0078,-69.5 1158.0078,-89.5 1201.3359,-89.5 1201.3359,-69.5 1158.0078,-69.5"/>
<text text-anchor="middle" x="1179.6719" y="-75.9" font-family="Helvetica,sans-Serif" font-size="12.00" fill="#000000">limits</text>
</g>
<!-- Node3&#45;&gt;Node6 -->
<g id="edge7" class="edge">
<title>Node3&#45;&gt;Node6</title>
<path fill="none" stroke="#191970" d="M1465.4987,-131.2874C1404.4241,-124.9884 1304.7756,-112.6132 1211.3732,-90.0986"/>
<polygon fill="#191970" stroke="#191970" points="1212.0285,-86.6556 1201.4823,-87.67 1210.3592,-93.4537 1212.0285,-86.6556"/>
</g>
<!-- Node7 -->
<g id="node8" class="node">
<title>Node7</title>
<polygon fill="#ffffff" stroke="#bfbfbf" points="799.335,-69.5 799.335,-89.5 858.0088,-89.5 858.0088,-69.5 799.335,-69.5"/>
<text text-anchor="middle" x="828.6719" y="-75.9" font-family="Helvetica,sans-Serif" font-size="12.00" fill="#000000">sstream</text>
</g>
<!-- Node3&#45;&gt;Node7 -->
<g id="edge8" class="edge">
<title>Node3&#45;&gt;Node7</title>
<path fill="none" stroke="#191970" d="M1465.4119,-133.9056C1331.3635,-127.602 999.2305,-110.5918 868.5792,-90.0014"/>
<polygon fill="#191970" stroke="#191970" points="868.8529,-86.4992 858.4159,-88.3208 867.7109,-93.4054 868.8529,-86.4992"/>
</g>
<!-- Node8 -->
<g id="node9" class="node">
<title>Node8</title>
<polygon fill="#ffffff" stroke="#bfbfbf" points="218.665,-6.5 218.665,-26.5 280.6787,-26.5 280.6787,-6.5 218.665,-6.5"/>
<text text-anchor="middle" x="249.6719" y="-12.9" font-family="Helvetica,sans-Serif" font-size="12.00" fill="#000000">iostream</text>
</g>
<!-- Node3&#45;&gt;Node8 -->
<g id="edge9" class="edge">
<title>Node3&#45;&gt;Node8</title>
<path fill="none" stroke="#191970" d="M1465.5021,-130.4435C1392.0133,-122.4171 1260.5455,-107.2438 1148.6719,-90 1097.754,-82.1517 1085.7924,-75.3962 1034.6719,-69 751.7702,-33.6031 408.3204,-21.0259 291.1394,-17.5882"/>
<polygon fill="#191970" stroke="#191970" points="290.9313,-14.0809 280.835,-17.2926 290.7304,-21.078 290.9313,-14.0809"/>
</g>
<!-- Node9 -->
<g id="node10" class="node">
<title>Node9</title>
<polygon fill="#ffffff" stroke="#bfbfbf" points="1218.998,-69.5 1218.998,-89.5 1272.3457,-89.5 1272.3457,-69.5 1218.998,-69.5"/>
<text text-anchor="middle" x="1245.6719" y="-75.9" font-family="Helvetica,sans-Serif" font-size="12.00" fill="#000000">iterator</text>
</g>
<!-- Node3&#45;&gt;Node9 -->
<g id="edge10" class="edge">
<title>Node3&#45;&gt;Node9</title>
<path fill="none" stroke="#191970" d="M1465.3771,-126.9952C1418.6416,-118.8903 1350.7375,-106.3171 1282.7545,-90.1028"/>
<polygon fill="#191970" stroke="#191970" points="1283.268,-86.6263 1272.7261,-87.6842 1281.6268,-93.4312 1283.268,-86.6263"/>
</g>
<!-- Node10 -->
<g id="node11" class="node">
<title>Node10</title>
<polygon fill="#ffffff" stroke="#bfbfbf" points="1290.3135,-69.5 1290.3135,-89.5 1389.0303,-89.5 1389.0303,-69.5 1290.3135,-69.5"/>
<text text-anchor="middle" x="1339.6719" y="-75.9" font-family="Helvetica,sans-Serif" font-size="12.00" fill="#000000">gsl/gsl_vector.h</text>
</g>
<!-- Node3&#45;&gt;Node10 -->
<g id="edge11" class="edge">
<title>Node3&#45;&gt;Node10</title>
<path fill="none" stroke="#191970" d="M1490.3764,-126.4408C1460.1549,-117.0275 1414.8325,-102.9107 1381.7839,-92.6169"/>
<polygon fill="#191970" stroke="#191970" points="1382.5402,-89.1866 1371.9518,-89.5544 1380.4585,-95.8699 1382.5402,-89.1866"/>
</g>
<!-- Node11 -->
<g id="node12" class="node">
<title>Node11</title>
<polygon fill="#ffffff" stroke="#bfbfbf" points="1406.9912,-69.5 1406.9912,-89.5 1506.3525,-89.5 1506.3525,-69.5 1406.9912,-69.5"/>
<text text-anchor="middle" x="1456.6719" y="-75.9" font-family="Helvetica,sans-Serif" font-size="12.00" fill="#000000">gsl/gsl_matrix.h</text>
</g>
<!-- Node3&#45;&gt;Node11 -->
<g id="edge12" class="edge">
<title>Node3&#45;&gt;Node11</title>
<path fill="none" stroke="#191970" d="M1510.8724,-126.3095C1501.2055,-117.9608 1487.3294,-105.9769 1476.0375,-96.2249"/>
<polygon fill="#191970" stroke="#191970" points="1478.2251,-93.4896 1468.3692,-89.6022 1473.6498,-98.7874 1478.2251,-93.4896"/>
</g>
<!-- Node12 -->
<g id="node13" class="node">
<title>Node12</title>
<polygon fill="#ffffff" stroke="#bfbfbf" points="1524.3145,-69.5 1524.3145,-89.5 1619.0293,-89.5 1619.0293,-69.5 1524.3145,-69.5"/>
<text text-anchor="middle" x="1571.6719" y="-75.9" font-family="Helvetica,sans-Serif" font-size="12.00" fill="#000000">gsl/gsl_linalg.h</text>
</g>
<!-- Node3&#45;&gt;Node12 -->
<g id="edge13" class="edge">
<title>Node3&#45;&gt;Node12</title>
<path fill="none" stroke="#191970" d="M1531.4321,-126.3095C1538.3303,-118.2851 1548.1156,-106.9022 1556.3092,-97.3708"/>
<polygon fill="#191970" stroke="#191970" points="1559.1227,-99.467 1562.9875,-89.6022 1553.8145,-94.9038 1559.1227,-99.467"/>
</g>
<!-- Node13 -->
<g id="node14" class="node">
<title>Node13</title>
<polygon fill="#ffffff" stroke="#bfbfbf" points="1637.3174,-69.5 1637.3174,-89.5 1726.0264,-89.5 1726.0264,-69.5 1637.3174,-69.5"/>
<text text-anchor="middle" x="1681.6719" y="-75.9" font-family="Helvetica,sans-Serif" font-size="12.00" fill="#000000">gsl/gsl_blas.h</text>
</g>
<!-- Node3&#45;&gt;Node13 -->
<g id="edge14" class="edge">
<title>Node3&#45;&gt;Node13</title>
<path fill="none" stroke="#191970" d="M1550.7319,-126.4408C1576.6503,-117.1492 1615.3522,-103.275 1643.9635,-93.0181"/>
<polygon fill="#191970" stroke="#191970" points="1645.3932,-96.2238 1653.6254,-89.5544 1643.0309,-89.6344 1645.3932,-96.2238"/>
</g>
<!-- Node14 -->
<g id="node15" class="node">
<title>Node14</title>
<polygon fill="#ffffff" stroke="#bfbfbf" points="1743.7598,-69.5 1743.7598,-89.5 1831.584,-89.5 1831.584,-69.5 1743.7598,-69.5"/>
<text text-anchor="middle" x="1787.6719" y="-75.9" font-family="Helvetica,sans-Serif" font-size="12.00" fill="#000000">gsl/gsl_poly.h</text>
</g>
<!-- Node3&#45;&gt;Node14 -->
<g id="edge15" class="edge">
<title>Node3&#45;&gt;Node14</title>
<path fill="none" stroke="#191970" d="M1569.4385,-126.4408C1615.3547,-116.5645 1685.3425,-101.5105 1733.6187,-91.1265"/>
<polygon fill="#191970" stroke="#191970" points="1734.5339,-94.5098 1743.5743,-88.9851 1733.0619,-87.6663 1734.5339,-94.5098"/>
</g>
<!-- Node3&#45;&gt;Node15 -->
<g id="edge16" class="edge">
<title>Node3&#45;&gt;Node15</title>
<path fill="none" stroke="#191970" d="M1579.8108,-129.1771C1588.4733,-128.0943 1597.3078,-127.0054 1605.6719,-126 1746.0144,-109.1294 1782.6555,-115.5945 1921.6719,-90 1922.7558,-89.8004 1923.8535,-89.5882 1924.9596,-89.3655"/>
<polygon fill="#191970" stroke="#191970" points="1925.9941,-92.7211 1934.9974,-87.1362 1924.4764,-85.8876 1925.9941,-92.7211"/>
</g>
<!-- Node3&#45;&gt;Node16 -->
<g id="edge18" class="edge">
<title>Node3&#45;&gt;Node16</title>
<path fill="none" stroke="#191970" d="M1465.2477,-135.508C1220.7522,-131.1678 271.3649,-113.0931 95.8659,-89.635"/>
<polygon fill="#191970" stroke="#191970" points="96.2788,-86.1581 85.8738,-88.1546 95.2529,-93.0825 96.2788,-86.1581"/>
</g>
<!-- Node19 -->
<g id="node20" class="node">
<title>Node19</title>
<g id="a_node20"><a xlink:href="AstronomicalConstants_8h.html" target="_top" xlink:title="Defines various astronomical constants. ">
<polygon fill="#ffffff" stroke="#000000" points="875.9746,-69.5 875.9746,-89.5 1025.3691,-89.5 1025.3691,-69.5 875.9746,-69.5"/>
<text text-anchor="middle" x="950.6719" y="-75.9" font-family="Helvetica,sans-Serif" font-size="12.00" fill="#000000">AstronomicalConstants.h</text>
</a>
</g>
</g>
<!-- Node3&#45;&gt;Node19 -->
<g id="edge23" class="edge">
<title>Node3&#45;&gt;Node19</title>
<path fill="none" stroke="#191970" d="M1465.4715,-130.8C1364.435,-120.7316 1153.9191,-99.7537 1035.783,-87.9814"/>
<polygon fill="#191970" stroke="#191970" points="1035.9917,-84.4849 1025.6939,-86.976 1035.2976,-91.4504 1035.9917,-84.4849"/>
</g>
<!-- Node20 -->
<g id="node21" class="node">
<title>Node20</title>
<g id="a_node21"><a xlink:href="IncludeEigen_8h_source.html" target="_top" xlink:title="IncludeEigen.h">
<polygon fill="#ffffff" stroke="#000000" points="2313.9746,-69.5 2313.9746,-89.5 2409.3691,-89.5 2409.3691,-69.5 2313.9746,-69.5"/>
<text text-anchor="middle" x="2361.6719" y="-75.9" font-family="Helvetica,sans-Serif" font-size="12.00" fill="#000000">IncludeEigen.h</text>
</a>
</g>
</g>
<!-- Node3&#45;&gt;Node20 -->
<g id="edge24" class="edge">
<title>Node3&#45;&gt;Node20</title>
<path fill="none" stroke="#191970" d="M1579.8845,-132.985C1700.076,-125.545 1987.625,-107.4524 2228.6719,-90 2253.2228,-88.2224 2280.3104,-86.1112 2303.5976,-84.2497"/>
<polygon fill="#191970" stroke="#191970" points="2303.9778,-87.7305 2313.6657,-83.4416 2303.4177,-80.753 2303.9778,-87.7305"/>
</g>
<!-- Node16&#45;&gt;Node1 -->
<g id="edge19" class="edge">
<title>Node16&#45;&gt;Node1</title>
<path fill="none" stroke="#191970" d="M85.8842,-70.9067C88.8252,-70.161 91.797,-69.501 94.6719,-69 262.9863,-39.6668 769.7098,-24.035 979.8248,-18.6692"/>
<polygon fill="#191970" stroke="#191970" points="979.9984,-22.166 989.9066,-18.4138 979.8211,-15.1683 979.9984,-22.166"/>
</g>
<!-- Node16&#45;&gt;Node8 -->
<g id="edge20" class="edge">
<title>Node16&#45;&gt;Node8</title>
<path fill="none" stroke="#191970" d="M85.6922,-70.8722C117.6928,-60.2615 172.3493,-42.1385 209.6944,-29.7557"/>
<polygon fill="#191970" stroke="#191970" points="210.8726,-33.0525 219.2628,-26.583 208.6694,-26.4082 210.8726,-33.0525"/>
</g>
<!-- Node17 -->
<g id="node18" class="node">
<title>Node17</title>
<polygon fill="#ffffff" stroke="#bfbfbf" points="62.9873,-6.5 62.9873,-26.5 130.3564,-26.5 130.3564,-6.5 62.9873,-6.5"/>
<text text-anchor="middle" x="96.6719" y="-12.9" font-family="Helvetica,sans-Serif" font-size="12.00" fill="#000000">exception</text>
</g>
<!-- Node16&#45;&gt;Node17 -->
<g id="edge21" class="edge">
<title>Node16&#45;&gt;Node17</title>
<path fill="none" stroke="#191970" d="M65.6166,-69.378C70.9252,-60.3389 78.8455,-46.853 85.3586,-35.7631"/>
<polygon fill="#191970" stroke="#191970" points="88.5728,-37.2016 90.619,-26.8062 82.5367,-33.6566 88.5728,-37.2016"/>
</g>
<!-- Node18 -->
<g id="node19" class="node">
<title>Node18</title>
<polygon fill="#ffffff" stroke="#bfbfbf" points="0,-6.5 0,-26.5 45.3438,-26.5 45.3438,-6.5 0,-6.5"/>
<text text-anchor="middle" x="22.6719" y="-12.9" font-family="Helvetica,sans-Serif" font-size="12.00" fill="#000000">string</text>
</g>
<!-- Node16&#45;&gt;Node18 -->
<g id="edge22" class="edge">
<title>Node16&#45;&gt;Node18</title>
<path fill="none" stroke="#191970" d="M53.7272,-69.378C48.4185,-60.3389 40.4982,-46.853 33.9851,-35.7631"/>
<polygon fill="#191970" stroke="#191970" points="36.807,-33.6566 28.7247,-26.8062 30.771,-37.2016 36.807,-33.6566"/>
</g>
<!-- Node21 -->
<g id="node22" class="node">
<title>Node21</title>
<polygon fill="#ffffff" stroke="#bfbfbf" points="2319.3154,-6.5 2319.3154,-26.5 2404.0283,-26.5 2404.0283,-6.5 2319.3154,-6.5"/>
<text text-anchor="middle" x="2361.6719" y="-12.9" font-family="Helvetica,sans-Serif" font-size="12.00" fill="#000000">Eigen/Dense</text>
</g>
<!-- Node20&#45;&gt;Node21 -->
<g id="edge25" class="edge">
<title>Node20&#45;&gt;Node21</title>
<path fill="none" stroke="#191970" d="M2361.6719,-69.378C2361.6719,-60.7041 2361.6719,-47.9355 2361.6719,-37.1186"/>
<polygon fill="#191970" stroke="#191970" points="2365.172,-36.8062 2361.6719,-26.8062 2358.172,-36.8062 2365.172,-36.8062"/>
</g>
<!-- Node22&#45;&gt;Node1 -->
<g id="edge28" class="edge">
<title>Node22&#45;&gt;Node1</title>
<path fill="none" stroke="#191970" d="M1017.6645,-358.2874C970.4093,-351.8399 901.5673,-339.5853 844.6719,-318 741.4318,-278.8322 629.6719,-303.9203 629.6719,-193.5 629.6719,-193.5 629.6719,-193.5 629.6719,-136.5 629.6719,-105.3342 625.0329,-89.3103 648.6719,-69 673.3059,-47.8347 862.6971,-31.0564 979.8739,-22.5692"/>
<polygon fill="#191970" stroke="#191970" points="980.2055,-26.0545 989.9296,-21.8483 979.7049,-19.0724 980.2055,-26.0545"/>
</g>
<!-- Node22&#45;&gt;Node3 -->
<g id="edge76" class="edge">
<title>Node22&#45;&gt;Node3</title>
<path fill="none" stroke="#191970" d="M1129.3513,-361.8435C1195.5247,-357.4987 1308.6839,-346.2979 1401.6719,-318 1457.3915,-301.0435 1481.5601,-305.0419 1519.6719,-261 1542.9526,-234.0968 1543.2003,-218.1456 1537.6719,-183 1536.2446,-173.9266 1533.3412,-164.2096 1530.4656,-156.0168"/>
<polygon fill="#191970" stroke="#191970" points="1533.7319,-154.7586 1526.9514,-146.6176 1527.1752,-157.2101 1533.7319,-154.7586"/>
</g>
<!-- Node22&#45;&gt;Node5 -->
<g id="edge77" class="edge">
<title>Node22&#45;&gt;Node5</title>
<path fill="none" stroke="#191970" d="M1129.3573,-364.1081C1340.8831,-361.8951 2082.6719,-347.2381 2082.6719,-250.5 2082.6719,-250.5 2082.6719,-250.5 2082.6719,-193.5 2082.6719,-160.5728 2079.3097,-122.4268 2076.9446,-99.6671"/>
<polygon fill="#191970" stroke="#191970" points="2080.4054,-99.1147 2075.8523,-89.5482 2073.4459,-99.8661 2080.4054,-99.1147"/>
</g>
<!-- Node22&#45;&gt;Node15 -->
<g id="edge78" class="edge">
<title>Node22&#45;&gt;Node15</title>
<path fill="none" stroke="#191970" d="M1129.5459,-363.0975C1322.0055,-357.5355 1945.6719,-333.1365 1945.6719,-250.5 1945.6719,-250.5 1945.6719,-250.5 1945.6719,-193.5 1945.6719,-160.3107 1952.8078,-122.2748 1957.8331,-99.6039"/>
<polygon fill="#191970" stroke="#191970" points="1961.2579,-100.3276 1960.0899,-89.7974 1954.4362,-98.7576 1961.2579,-100.3276"/>
</g>
<!-- Node22&#45;&gt;Node19 -->
<g id="edge75" class="edge">
<title>Node22&#45;&gt;Node19</title>
<path fill="none" stroke="#191970" d="M1017.9665,-354.4245C963.8105,-341.0401 889.6719,-311.5654 889.6719,-250.5 889.6719,-250.5 889.6719,-250.5 889.6719,-193.5 889.6719,-155.6506 916.1358,-118.204 934.2021,-97.0499"/>
<polygon fill="#191970" stroke="#191970" points="936.8584,-99.3296 940.8712,-89.5241 931.6194,-94.687 936.8584,-99.3296"/>
</g>
<!-- Node23 -->
<g id="node24" class="node">
<title>Node23</title>
<g id="a_node24"><a xlink:href="DissipatingZone_8h.html" target="_top" xlink:title="Declares a class representing one zone of a body dissipative to tidal distortions. ">
<polygon fill="#ffffff" stroke="#000000" points="1280.6455,-297.5 1280.6455,-317.5 1392.6982,-317.5 1392.6982,-297.5 1280.6455,-297.5"/>
<text text-anchor="middle" x="1336.6719" y="-303.9" font-family="Helvetica,sans-Serif" font-size="12.00" fill="#000000">DissipatingZone.h</text>
</a>
</g>
</g>
<!-- Node22&#45;&gt;Node23 -->
<g id="edge29" class="edge">
<title>Node22&#45;&gt;Node23</title>
<path fill="none" stroke="#191970" d="M1120.0856,-354.4408C1164.8291,-344.7435 1232.6045,-330.0545 1280.4002,-319.6958"/>
<polygon fill="#191970" stroke="#191970" points="1281.2488,-323.0932 1290.2806,-317.5544 1279.7661,-316.252 1281.2488,-323.0932"/>
</g>
<!-- Node22&#45;&gt;Node38 -->
<g id="edge71" class="edge">
<title>Node22&#45;&gt;Node38</title>
<path fill="none" stroke="#191970" d="M1017.6574,-355.7593C967.6231,-347.1661 898.7688,-333.1645 875.6719,-318 812.0575,-276.2335 767.3969,-193.7011 749.4458,-156.0506"/>
<polygon fill="#191970" stroke="#191970" points="752.4855,-154.2864 745.0974,-146.6925 746.1373,-157.2362 752.4855,-154.2864"/>
</g>
<!-- Node23&#45;&gt;Node1 -->
<g id="edge38" class="edge">
<title>Node23&#45;&gt;Node1</title>
<path fill="none" stroke="#191970" d="M1392.8875,-300.2517C1587.9312,-274.0254 2217.9821,-179.7604 2112.6719,-69 2080.304,-34.957 1414.805,-21.5845 1165.7042,-17.7595"/>
<polygon fill="#191970" stroke="#191970" points="1165.6404,-14.2582 1155.5884,-17.6059 1165.534,-21.2574 1165.6404,-14.2582"/>
</g>
<!-- Node23&#45;&gt;Node3 -->
<g id="edge69" class="edge">
<title>Node23&#45;&gt;Node3</title>
<path fill="none" stroke="#191970" d="M1393.09,-297.9266C1434.2371,-289.7849 1485.2218,-276.8959 1499.6719,-261 1525.6753,-232.3948 1526.8051,-184.3317 1524.9649,-157.0475"/>
<polygon fill="#191970" stroke="#191970" points="1528.4214,-156.3985 1524.0583,-146.7438 1521.4484,-157.0121 1528.4214,-156.3985"/>
</g>
<!-- Node23&#45;&gt;Node5 -->
<g id="edge70" class="edge">
<title>Node23&#45;&gt;Node5</title>
<path fill="none" stroke="#191970" d="M1392.9332,-298.4629C1504.2515,-279.4101 1759.1806,-229.9161 1959.6719,-147 1993.5164,-133.0031 2029.4489,-110.5276 2051.9635,-95.3981"/>
<polygon fill="#191970" stroke="#191970" points="2054.1725,-98.1282 2060.4649,-89.6043 2050.2303,-92.3438 2054.1725,-98.1282"/>
</g>
<!-- Node23&#45;&gt;Node16 -->
<g id="edge39" class="edge">
<title>Node23&#45;&gt;Node16</title>
<path fill="none" stroke="#191970" d="M1280.5717,-305.7145C1171.1031,-301.7006 921.5373,-289.9467 713.6719,-261 588.7514,-243.604 557.5264,-236.5456 435.6719,-204 308.6588,-170.0766 161.6477,-117.3841 95.3484,-92.877"/>
<polygon fill="#191970" stroke="#191970" points="96.3827,-89.5278 85.7897,-89.332 93.9486,-96.091 96.3827,-89.5278"/>
</g>
<!-- Node24 -->
<g id="node25" class="node">
<title>Node24</title>
<g id="a_node25"><a xlink:href="ZoneOrientation_8h.html" target="_top" xlink:title="Declares a class for orientations of zones of DissipatingBody objects. ">
<polygon fill="#ffffff" stroke="#000000" points="2148.6426,-183.5 2148.6426,-203.5 2260.7012,-203.5 2260.7012,-183.5 2148.6426,-183.5"/>
<text text-anchor="middle" x="2204.6719" y="-189.9" font-family="Helvetica,sans-Serif" font-size="12.00" fill="#000000">ZoneOrientation.h</text>
</a>
</g>
</g>
<!-- Node23&#45;&gt;Node24 -->
<g id="edge30" class="edge">
<title>Node23&#45;&gt;Node24</title>
<path fill="none" stroke="#191970" d="M1392.7152,-306.4778C1563.0631,-303.0598 2067.2164,-290.536 2134.6719,-261 2158.6813,-250.4873 2179.3142,-227.9005 2191.8359,-211.7504"/>
<polygon fill="#191970" stroke="#191970" points="2194.7693,-213.6711 2197.9278,-203.558 2189.1521,-209.4941 2194.7693,-213.6711"/>
</g>
<!-- Node25 -->
<g id="node26" class="node">
<title>Node25</title>
<g id="a_node26"><a xlink:href="DissipationQuantities_8h.html" target="_top" xlink:title="Declaration of enumerations of dissipation quantities and derivatives. ">
<polygon fill="#ffffff" stroke="#000000" points="2119.3066,-126.5 2119.3066,-146.5 2258.0371,-146.5 2258.0371,-126.5 2119.3066,-126.5"/>
<text text-anchor="middle" x="2188.6719" y="-132.9" font-family="Helvetica,sans-Serif" font-size="12.00" fill="#000000">DissipationQuantities.h</text>
</a>
</g>
</g>
<!-- Node23&#45;&gt;Node25 -->
<g id="edge55" class="edge">
<title>Node23&#45;&gt;Node25</title>
<path fill="none" stroke="#191970" d="M1392.9532,-306.098C1552.2103,-301.8207 1998.4089,-287.5817 2058.6719,-261 2104.3988,-240.8301 2103.5455,-217.5349 2139.6719,-183 2149.7692,-173.3474 2161.078,-162.6108 2170.285,-153.8884"/>
<polygon fill="#191970" stroke="#191970" points="2172.8959,-156.2363 2177.7517,-146.8197 2168.0835,-151.1529 2172.8959,-156.2363"/>
</g>
<!-- Node27 -->
<g id="node28" class="node">
<title>Node27</title>
<g id="a_node28"><a xlink:href="TidalPotentialTerms_8h.html" target="_top" xlink:title="Declare an interface for evaluating the expansion of the tidal potential. ">
<polygon fill="#ffffff" stroke="#000000" points="917.2002,-183.5 917.2002,-203.5 1048.1436,-203.5 1048.1436,-183.5 917.2002,-183.5"/>
<text text-anchor="middle" x="982.6719" y="-189.9" font-family="Helvetica,sans-Serif" font-size="12.00" fill="#000000">TidalPotentialTerms.h</text>
</a>
</g>
</g>
<!-- Node23&#45;&gt;Node27 -->
<g id="edge40" class="edge">
<title>Node23&#45;&gt;Node27</title>
<path fill="none" stroke="#191970" d="M1301.5465,-297.4529C1269.8505,-288.2864 1221.9962,-274.1973 1180.6719,-261 1124.699,-243.1245 1060.3915,-220.8831 1020.6402,-206.9338"/>
<polygon fill="#191970" stroke="#191970" points="1021.6779,-203.5887 1011.083,-203.5737 1019.3561,-210.1924 1021.6779,-203.5887"/>
</g>
<!-- Node34 -->
<g id="node35" class="node">
<title>Node34</title>
<g id="a_node35"><a xlink:href="SpinOrbitLockInfo_8h.html" target="_top" xlink:title="Defines the SpinOrbitLockInfo class. ">
<polygon fill="#ffffff" stroke="#000000" points="103.9756,-69.5 103.9756,-89.5 225.3682,-89.5 225.3682,-69.5 103.9756,-69.5"/>
<text text-anchor="middle" x="164.6719" y="-75.9" font-family="Helvetica,sans-Serif" font-size="12.00" fill="#000000">SpinOrbitLockInfo.h</text>
</a>
</g>
</g>
<!-- Node23&#45;&gt;Node34 -->
<g id="edge56" class="edge">
<title>Node23&#45;&gt;Node34</title>
<path fill="none" stroke="#191970" d="M1280.5137,-302.0266C1198.6467,-293.9051 1041.7786,-277.8052 908.6719,-261 732.2584,-238.7272 685.6712,-245.0976 512.6719,-204 435.1401,-185.5816 417.7198,-173.7997 342.6719,-147 292.7416,-129.1699 235.4922,-107.1805 199.7026,-93.2458"/>
<polygon fill="#191970" stroke="#191970" points="200.7893,-89.9129 190.201,-89.5393 198.2452,-96.4343 200.7893,-89.9129"/>
</g>
<!-- Node35 -->
<g id="node36" class="node">
<title>Node35</title>
<g id="a_node36"><a xlink:href="CombinedStoppingCondition_8h.html" target="_top" xlink:title="Declares a class for a stopping condition that combines other stopping conditions. ">
<polygon fill="#ffffff" stroke="#000000" points="917.2822,-240.5 917.2822,-260.5 1096.0615,-260.5 1096.0615,-240.5 917.2822,-240.5"/>
<text text-anchor="middle" x="1006.6719" y="-246.9" font-family="Helvetica,sans-Serif" font-size="12.00" fill="#000000">CombinedStoppingCondition.h</text>
</a>
</g>
</g>
<!-- Node23&#45;&gt;Node35 -->
<g id="edge59" class="edge">
<title>Node23&#45;&gt;Node35</title>
<path fill="none" stroke="#191970" d="M1280.3178,-297.7661C1223.3833,-287.932 1135.3808,-272.7315 1074.6198,-262.2365"/>
<polygon fill="#191970" stroke="#191970" points="1075.1853,-258.7824 1064.7354,-260.5292 1073.9937,-265.6802 1075.1853,-258.7824"/>
</g>
<!-- Node36 -->
<g id="node37" class="node">
<title>Node36</title>
<g id="a_node37"><a xlink:href="BreakLockCondition_8h.html" target="_top" xlink:title="Declares a class for a stopping condition monitoring when a locked zone loses the lock...">
<polygon fill="#ffffff" stroke="#000000" points="1189.9697,-240.5 1189.9697,-260.5 1323.374,-260.5 1323.374,-240.5 1189.9697,-240.5"/>
<text text-anchor="middle" x="1256.6719" y="-246.9" font-family="Helvetica,sans-Serif" font-size="12.00" fill="#000000">BreakLockCondition.h</text>
</a>
</g>
</g>
<!-- Node23&#45;&gt;Node36 -->
<g id="edge63" class="edge">
<title>Node23&#45;&gt;Node36</title>
<path fill="none" stroke="#191970" d="M1322.3695,-297.3095C1310.4245,-288.7987 1293.1774,-276.5102 1279.3517,-266.6594"/>
<polygon fill="#191970" stroke="#191970" points="1281.0256,-263.5545 1270.8504,-260.6022 1276.9637,-269.2555 1281.0256,-263.5545"/>
</g>
<!-- Node37 -->
<g id="node38" class="node">
<title>Node37</title>
<g id="a_node38"><a xlink:href="SynchronizedCondition_8h.html" target="_top" xlink:title="Declares a stopping condition monitoring spin&#45;orbit synchronization. ">
<polygon fill="#ffffff" stroke="#000000" points="1340.9629,-240.5 1340.9629,-260.5 1490.3809,-260.5 1490.3809,-240.5 1340.9629,-240.5"/>
<text text-anchor="middle" x="1415.6719" y="-246.9" font-family="Helvetica,sans-Serif" font-size="12.00" fill="#000000">SynchronizedCondition.h</text>
</a>
</g>
</g>
<!-- Node23&#45;&gt;Node37 -->
<g id="edge66" class="edge">
<title>Node23&#45;&gt;Node37</title>
<path fill="none" stroke="#191970" d="M1350.7955,-297.3095C1362.5912,-288.7987 1379.6227,-276.5102 1393.2755,-266.6594"/>
<polygon fill="#191970" stroke="#191970" points="1395.6089,-269.2918 1401.6705,-260.6022 1391.5131,-263.6151 1395.6089,-269.2918"/>
</g>
<!-- Node24&#45;&gt;Node1 -->
<g id="edge31" class="edge">
<title>Node24&#45;&gt;Node1</title>
<path fill="none" stroke="#191970" d="M2227.0639,-183.3857C2241.2516,-175.6451 2258.4283,-163.4871 2266.6719,-147 2279.2203,-121.9031 2248.4868,-71.7444 2244.6719,-69 2201.1325,-37.6792 1435.5866,-22.3547 1165.818,-17.9094"/>
<polygon fill="#191970" stroke="#191970" points="1165.7159,-14.4074 1155.66,-17.7433 1165.6014,-21.4064 1165.7159,-14.4074"/>
</g>
<!-- Node24&#45;&gt;Node3 -->
<g id="edge36" class="edge">
<title>Node24&#45;&gt;Node3</title>
<path fill="none" stroke="#191970" d="M2148.5712,-188.8112C2024.0432,-178.4035 1724.9418,-153.4053 1590.3333,-142.155"/>
<polygon fill="#191970" stroke="#191970" points="1590.4105,-138.6493 1580.1537,-141.3042 1589.8275,-145.625 1590.4105,-138.6493"/>
</g>
<!-- Node24&#45;&gt;Node20 -->
<g id="edge37" class="edge">
<title>Node24&#45;&gt;Node20</title>
<path fill="none" stroke="#191970" d="M2231.9816,-183.332C2251.8363,-175.2041 2278.7807,-162.6037 2299.6719,-147 2318.4639,-132.9641 2336.1711,-112.7123 2347.8122,-98.0566"/>
<polygon fill="#191970" stroke="#191970" points="2350.8802,-99.8108 2354.2319,-89.7601 2345.3441,-95.5269 2350.8802,-99.8108"/>
</g>
<!-- Node24&#45;&gt;Node25 -->
<g id="edge32" class="edge">
<title>Node24&#45;&gt;Node25</title>
<path fill="none" stroke="#191970" d="M2201.8114,-183.3095C2199.7182,-175.8524 2196.8109,-165.4951 2194.263,-156.4186"/>
<polygon fill="#191970" stroke="#191970" points="2197.58,-155.2842 2191.5076,-146.6022 2190.8405,-157.176 2197.58,-155.2842"/>
</g>
<!-- Node25&#45;&gt;Node1 -->
<g id="edge33" class="edge">
<title>Node25&#45;&gt;Node1</title>
<path fill="none" stroke="#191970" d="M2202.2146,-126.4017C2219.5416,-112.3157 2245.4236,-86.5297 2228.6719,-69 2192.143,-30.7745 1433.7863,-19.9141 1165.6191,-17.2624"/>
<polygon fill="#191970" stroke="#191970" points="1165.5537,-13.7617 1155.5201,-17.1641 1165.4855,-20.7613 1165.5537,-13.7617"/>
</g>
<!-- Node25&#45;&gt;Node15 -->
<g id="edge35" class="edge">
<title>Node25&#45;&gt;Node15</title>
<path fill="none" stroke="#191970" d="M2148.7878,-126.4408C2106.733,-115.834 2041,-99.2553 1999.9544,-88.9031"/>
<polygon fill="#191970" stroke="#191970" points="2000.6328,-85.4647 1990.0805,-86.4128 1998.9209,-92.2521 2000.6328,-85.4647"/>
</g>
<!-- Node26 -->
<g id="node27" class="node">
<title>Node26</title>
<polygon fill="#ffffff" stroke="#bfbfbf" points="2159.998,-69.5 2159.998,-89.5 2219.3457,-89.5 2219.3457,-69.5 2159.998,-69.5"/>
<text text-anchor="middle" x="2189.6719" y="-75.9" font-family="Helvetica,sans-Serif" font-size="12.00" fill="#000000">ostream</text>
</g>
<!-- Node25&#45;&gt;Node26 -->
<g id="edge34" class="edge">
<title>Node25&#45;&gt;Node26</title>
<path fill="none" stroke="#191970" d="M2188.8507,-126.3095C2188.9801,-118.9335 2189.1592,-108.72 2189.3172,-99.715"/>
<polygon fill="#191970" stroke="#191970" points="2192.8186,-99.6621 2189.4946,-89.6022 2185.8197,-99.5393 2192.8186,-99.6621"/>
</g>
<!-- Node27&#45;&gt;Node3 -->
<g id="edge54" class="edge">
<title>Node27&#45;&gt;Node3</title>
<path fill="none" stroke="#191970" d="M1048.3466,-186.5677C1151.7134,-175.6567 1351.2994,-154.5893 1455.5539,-143.5847"/>
<polygon fill="#191970" stroke="#191970" points="1456.0673,-147.05 1465.6446,-142.5195 1455.3324,-140.0887 1456.0673,-147.05"/>
</g>
<!-- Node27&#45;&gt;Node5 -->
<g id="edge42" class="edge">
<title>Node27&#45;&gt;Node5</title>
<path fill="none" stroke="#191970" d="M1048.2561,-189.7919C1159.5646,-183.2023 1392.4886,-168.1305 1588.6719,-147 1755.1754,-129.0662 1952.5578,-98.8699 2035.2015,-85.8208"/>
<polygon fill="#191970" stroke="#191970" points="2035.835,-89.2642 2045.1644,-84.2429 2034.7399,-82.3503 2035.835,-89.2642"/>
</g>
<!-- Node28 -->
<g id="node29" class="node">
<title>Node28</title>
<polygon fill="#ffffff" stroke="#bfbfbf" points="657.333,-69.5 657.333,-89.5 706.0107,-89.5 706.0107,-69.5 657.333,-69.5"/>
<text text-anchor="middle" x="681.6719" y="-75.9" font-family="Helvetica,sans-Serif" font-size="12.00" fill="#000000">cmath</text>
</g>
<!-- Node27&#45;&gt;Node28 -->
<g id="edge41" class="edge">
<title>Node27&#45;&gt;Node28</title>
<path fill="none" stroke="#191970" d="M962.1453,-183.2809C933.566,-169.2806 879.9633,-143.8435 832.6719,-126 793.2434,-111.1233 746.756,-97.3553 715.8825,-88.7232"/>
<polygon fill="#191970" stroke="#191970" points="716.6151,-85.2944 706.0436,-85.9985 714.7468,-92.0405 716.6151,-85.2944"/>
</g>
<!-- Node29 -->
<g id="node30" class="node">
<title>Node29</title>
<g id="a_node30"><a xlink:href="EccentricityExpansionCoefficients_8h.html" target="_top" xlink:title="Declares a class which provides the [ &#160;coefficients]{InclinationEccentricity_pms1}. ">
<polygon fill="#ffffff" stroke="#000000" points="395.627,-126.5 395.627,-146.5 601.7168,-146.5 601.7168,-126.5 395.627,-126.5"/>
<text text-anchor="middle" x="498.6719" y="-132.9" font-family="Helvetica,sans-Serif" font-size="12.00" fill="#000000">EccentricityExpansionCoefficients.h</text>
</a>
</g>
</g>
<!-- Node27&#45;&gt;Node29 -->
<g id="edge43" class="edge">
<title>Node27&#45;&gt;Node29</title>
<path fill="none" stroke="#191970" d="M917.1458,-185.7831C833.839,-175.9722 689.3896,-158.9606 593.9123,-147.7163"/>
<polygon fill="#191970" stroke="#191970" points="594.3054,-144.2385 583.9646,-146.5448 593.4866,-151.1905 594.3054,-144.2385"/>
</g>
<!-- Node29&#45;&gt;Node1 -->
<g id="edge44" class="edge">
<title>Node29&#45;&gt;Node1</title>
<path fill="none" stroke="#191970" d="M514.195,-126.477C540.8848,-109.4275 594.628,-75.9464 615.6719,-69 681.0977,-47.4036 865.9307,-31.0698 979.4907,-22.7153"/>
<polygon fill="#191970" stroke="#191970" points="979.8535,-26.1982 989.5727,-21.9807 979.3448,-19.2167 979.8535,-26.1982"/>
</g>
<!-- Node29&#45;&gt;Node7 -->
<g id="edge51" class="edge">
<title>Node29&#45;&gt;Node7</title>
<path fill="none" stroke="#191970" d="M556.9096,-126.4408C623.6246,-114.9173 731.1484,-96.345 788.9193,-86.3663"/>
<polygon fill="#191970" stroke="#191970" points="789.8481,-89.7578 799.1064,-84.6068 788.6566,-82.86 789.8481,-89.7578"/>
</g>
<!-- Node29&#45;&gt;Node8 -->
<g id="edge50" class="edge">
<title>Node29&#45;&gt;Node8</title>
<path fill="none" stroke="#191970" d="M444.3342,-126.4898C412.3399,-119.2102 371.7849,-107.5164 338.6719,-90 310.6622,-75.1833 283.2988,-50.6284 266.4696,-34.0184"/>
<polygon fill="#191970" stroke="#191970" points="268.6228,-31.219 259.0975,-26.5801 263.651,-36.1465 268.6228,-31.219"/>
</g>
<!-- Node29&#45;&gt;Node15 -->
<g id="edge52" class="edge">
<title>Node29&#45;&gt;Node15</title>
<path fill="none" stroke="#191970" d="M601.9227,-128.716C617.5795,-127.6968 633.5493,-126.7485 648.6719,-126 1199.3411,-98.7444 1339.3185,-136.8009 1888.6719,-90 1900.4515,-88.9965 1913.2194,-87.3773 1924.7802,-85.7078"/>
<polygon fill="#191970" stroke="#191970" points="1925.6243,-89.1205 1934.9949,-84.1766 1924.5865,-82.1978 1925.6243,-89.1205"/>
</g>
<!-- Node29&#45;&gt;Node16 -->
<g id="edge45" class="edge">
<title>Node29&#45;&gt;Node16</title>
<path fill="none" stroke="#191970" d="M395.3438,-129.6683C315.7264,-123.2286 202.8844,-111.5538 95.9174,-89.9677"/>
<polygon fill="#191970" stroke="#191970" points="96.417,-86.4974 85.9177,-87.9169 95.0106,-93.3547 96.417,-86.4974"/>
</g>
<!-- Node29&#45;&gt;Node28 -->
<g id="edge49" class="edge">
<title>Node29&#45;&gt;Node28</title>
<path fill="none" stroke="#191970" d="M530.9674,-126.4408C563.6995,-116.2455 614.146,-100.5327 647.5268,-90.1354"/>
<polygon fill="#191970" stroke="#191970" points="648.7932,-93.4068 657.3,-87.0913 646.7115,-86.7235 648.7932,-93.4068"/>
</g>
<!-- Node29&#45;&gt;Node30 -->
<g id="edge46" class="edge">
<title>Node29&#45;&gt;Node30</title>
<path fill="none" stroke="#191970" d="M455.2612,-126.4749C416.078,-117.323 356.8925,-103.243 305.6719,-90 304.4418,-89.682 303.1904,-89.3549 301.9271,-89.0217"/>
<polygon fill="#191970" stroke="#191970" points="302.7355,-85.6148 292.1696,-86.3975 300.9175,-92.3746 302.7355,-85.6148"/>
</g>
<!-- Node31 -->
<g id="node32" class="node">
<title>Node31</title>
<polygon fill="#ffffff" stroke="#bfbfbf" points="347.668,-69.5 347.668,-89.5 403.6758,-89.5 403.6758,-69.5 347.668,-69.5"/>
<text text-anchor="middle" x="375.6719" y="-75.9" font-family="Helvetica,sans-Serif" font-size="12.00" fill="#000000">fstream</text>
</g>
<!-- Node29&#45;&gt;Node31 -->
<g id="edge47" class="edge">
<title>Node29&#45;&gt;Node31</title>
<path fill="none" stroke="#191970" d="M476.9651,-126.4408C457.5004,-117.4205 428.7157,-104.0813 406.8007,-93.9255"/>
<polygon fill="#191970" stroke="#191970" points="408.1202,-90.6795 397.5754,-89.6504 405.1769,-97.0307 408.1202,-90.6795"/>
</g>
<!-- Node32 -->
<g id="node33" class="node">
<title>Node32</title>
<polygon fill="#ffffff" stroke="#bfbfbf" points="421.6602,-69.5 421.6602,-89.5 479.6836,-89.5 479.6836,-69.5 421.6602,-69.5"/>
<text text-anchor="middle" x="450.6719" y="-75.9" font-family="Helvetica,sans-Serif" font-size="12.00" fill="#000000">iomanip</text>
</g>
<!-- Node29&#45;&gt;Node32 -->
<g id="edge48" class="edge">
<title>Node29&#45;&gt;Node32</title>
<path fill="none" stroke="#191970" d="M490.0904,-126.3095C483.333,-118.2851 473.7475,-106.9022 465.721,-97.3708"/>
<polygon fill="#191970" stroke="#191970" points="468.2976,-94.9969 459.179,-89.6022 462.9432,-99.5059 468.2976,-94.9969"/>
</g>
<!-- Node33 -->
<g id="node34" class="node">
<title>Node33</title>
<polygon fill="#ffffff" stroke="#bfbfbf" points="497.9951,-69.5 497.9951,-89.5 563.3486,-89.5 563.3486,-69.5 497.9951,-69.5"/>
<text text-anchor="middle" x="530.6719" y="-75.9" font-family="Helvetica,sans-Serif" font-size="12.00" fill="#000000">algorithm</text>
</g>
<!-- Node29&#45;&gt;Node33 -->
<g id="edge53" class="edge">
<title>Node29&#45;&gt;Node33</title>
<path fill="none" stroke="#191970" d="M504.3928,-126.3095C508.7158,-118.6093 514.7748,-107.8166 519.9856,-98.5349"/>
<polygon fill="#191970" stroke="#191970" points="523.157,-100.0355 525.0004,-89.6022 517.0531,-96.6087 523.157,-100.0355"/>
</g>
<!-- Node34&#45;&gt;Node1 -->
<g id="edge57" class="edge">
<title>Node34&#45;&gt;Node1</title>
<path fill="none" stroke="#191970" d="M225.7154,-70.0264C228.7409,-69.6564 231.739,-69.3112 234.6719,-69 504.2589,-40.3902 824.4152,-25.6414 979.3888,-19.7134"/>
<polygon fill="#191970" stroke="#191970" points="979.9468,-23.1949 989.8071,-19.3187 979.6817,-16.1999 979.9468,-23.1949"/>
</g>
<!-- Node34&#45;&gt;Node8 -->
<g id="edge58" class="edge">
<title>Node34&#45;&gt;Node8</title>
<path fill="none" stroke="#191970" d="M178.3286,-69.378C191.7121,-59.4584 212.3209,-44.1837 227.9536,-32.597"/>
<polygon fill="#191970" stroke="#191970" points="230.0992,-35.3634 236.049,-26.5969 225.931,-29.7396 230.0992,-35.3634"/>
</g>
<!-- Node35&#45;&gt;Node1 -->
<g id="edge60" class="edge">
<title>Node35&#45;&gt;Node1</title>
<path fill="none" stroke="#191970" d="M979.0505,-240.4733C958.5898,-232.3364 930.5783,-219.6627 908.6719,-204 869.2988,-175.8491 867.9709,-159.1164 832.6719,-126 814.7418,-109.1786 800.9451,-112.3362 790.6719,-90 786.7719,-81.5205 784.7067,-76.1783 790.6719,-69 814.4968,-40.3303 906.8972,-27.2381 979.5195,-21.3088"/>
<polygon fill="#191970" stroke="#191970" points="979.9296,-24.7875 989.6264,-20.5188 979.384,-17.8088 979.9296,-24.7875"/>
</g>
<!-- Node35&#45;&gt;Node2 -->
<g id="edge61" class="edge">
<title>Node35&#45;&gt;Node2</title>
<path fill="none" stroke="#191970" d="M1050.7914,-240.4408C1093.1453,-230.7841 1157.2097,-216.1774 1202.6104,-205.826"/>
<polygon fill="#191970" stroke="#191970" points="1203.6019,-209.1898 1212.5737,-203.5544 1202.0458,-202.365 1203.6019,-209.1898"/>
</g>
<!-- Node35&#45;&gt;Node30 -->
<g id="edge62" class="edge">
<title>Node35&#45;&gt;Node30</title>
<path fill="none" stroke="#191970" d="M917.2152,-245.3948C794.4602,-236.2064 568.3415,-211.4046 386.6719,-147 367.6834,-140.2683 321.6058,-112.8179 292.6789,-95.0636"/>
<polygon fill="#191970" stroke="#191970" points="294.2947,-91.9481 283.9458,-89.6785 290.6206,-97.9064 294.2947,-91.9481"/>
</g>
<!-- Node36&#45;&gt;Node1 -->
<g id="edge64" class="edge">
<title>Node36&#45;&gt;Node1</title>
<path fill="none" stroke="#191970" d="M1236.2458,-240.3617C1221.0165,-232.0844 1200.3917,-219.2817 1185.6719,-204 1137.7482,-154.2469 1100.9134,-80.6258 1083.5792,-42.1089"/>
<polygon fill="#191970" stroke="#191970" points="1086.6494,-40.3975 1079.4053,-32.6661 1080.247,-43.2275 1086.6494,-40.3975"/>
</g>
<!-- Node36&#45;&gt;Node2 -->
<g id="edge65" class="edge">
<title>Node36&#45;&gt;Node2</title>
<path fill="none" stroke="#191970" d="M1256.6719,-240.3095C1256.6719,-232.9335 1256.6719,-222.72 1256.6719,-213.715"/>
<polygon fill="#191970" stroke="#191970" points="1260.172,-213.6022 1256.6719,-203.6022 1253.172,-213.6023 1260.172,-213.6022"/>
</g>
<!-- Node37&#45;&gt;Node1 -->
<g id="edge67" class="edge">
<title>Node37&#45;&gt;Node1</title>
<path fill="none" stroke="#191970" d="M1489.4737,-240.4851C1662.1751,-215.5934 2072.6152,-147.2543 1998.6719,-69 1970.3706,-39.0488 1395.1096,-23.4262 1165.8188,-18.3699"/>
<polygon fill="#191970" stroke="#191970" points="1165.5692,-14.8637 1155.4951,-18.1442 1165.4161,-21.862 1165.5692,-14.8637"/>
</g>
<!-- Node37&#45;&gt;Node2 -->
<g id="edge68" class="edge">
<title>Node37&#45;&gt;Node2</title>
<path fill="none" stroke="#191970" d="M1387.6119,-240.4408C1361.6934,-231.1492 1322.9916,-217.275 1294.3802,-207.0181"/>
<polygon fill="#191970" stroke="#191970" points="1295.3129,-203.6344 1284.7183,-203.5544 1292.9506,-210.2238 1295.3129,-203.6344"/>
</g>
<!-- Node38&#45;&gt;Node1 -->
<g id="edge72" class="edge">
<title>Node38&#45;&gt;Node1</title>
<path fill="none" stroke="#191970" d="M740.0478,-126.0827C739.7699,-111.1236 741.6762,-83.7413 757.6719,-69 789.3405,-39.8148 898.5793,-26.7176 979.5775,-20.9304"/>
<polygon fill="#191970" stroke="#191970" points="980.0706,-24.4048 989.807,-20.2273 979.5905,-17.4213 980.0706,-24.4048"/>
</g>
<!-- Node38&#45;&gt;Node19 -->
<g id="edge74" class="edge">
<title>Node38&#45;&gt;Node19</title>
<path fill="none" stroke="#191970" d="M777.7323,-126.4408C812.8611,-116.9058 865.7699,-102.5448 903.8107,-92.2195"/>
<polygon fill="#191970" stroke="#191970" points="904.8954,-95.5518 913.6294,-89.5544 903.0617,-88.7962 904.8954,-95.5518"/>
</g>
<!-- Node38&#45;&gt;Node28 -->
<g id="edge73" class="edge">
<title>Node38&#45;&gt;Node28</title>
<path fill="none" stroke="#191970" d="M730.1239,-126.3095C721.65,-118.1229 709.5581,-106.441 699.5742,-96.7955"/>
<polygon fill="#191970" stroke="#191970" points="701.7524,-94.0332 692.1286,-89.6022 696.8887,-99.0676 701.7524,-94.0332"/>
</g>
</g>
</svg>
