<?xml version="1.0" encoding="UTF-8" standalone="no"?>
<!DOCTYPE svg PUBLIC "-//W3C//DTD SVG 1.1//EN"
 "http://www.w3.org/Graphics/SVG/1.1/DTD/svg11.dtd">
<!-- Generated by graphviz version 2.40.1 (20161225.0304)
 -->
<!-- Title: /Users/kpenev/projects/git/poet/poet_src/Evolve/LagSpinBreakCondition.h Pages: 1 -->
<!--zoomable 725 -->
<svg id="main" version="1.1" xmlns="http://www.w3.org/2000/svg" xmlns:xlink="http://www.w3.org/1999/xlink" xml:space="preserve" onload="init(evt)">
<style type="text/css"><![CDATA[
.edge:hover path { stroke: red; }
.edge:hover polygon { stroke: red; fill: red; }
]]></style>
<script type="text/javascript"><![CDATA[
var edges = document.getElementsByTagName('g');
if (edges && edges.length) {
  for (var i=0;i<edges.length;i++) {
    if (edges[i].id.substr(0,4)=='edge') {
      edges[i].setAttribute('class','edge');
    }
  }
}
]]></script>
        <defs>
                <circle id="rim" cx="0" cy="0" r="7"/>
                <circle id="rim2" cx="0" cy="0" r="3.5"/>
                <g id="zoomPlus">
                        <use xlink:href="#rim" fill="#404040">
                                <set attributeName="fill" to="#808080" begin="zoomplus.mouseover" end="zoomplus.mouseout"/>
                        </use>
                        <path d="M-4,0h8M0,-4v8" fill="none" stroke="white" stroke-width="1.5" pointer-events="none"/>
                </g>
                <g id="zoomMin">
                        <use xlink:href="#rim" fill="#404040">
                                <set attributeName="fill" to="#808080" begin="zoomminus.mouseover" end="zoomminus.mouseout"/>
                        </use>
                        <path d="M-4,0h8" fill="none" stroke="white" stroke-width="1.5" pointer-events="none"/>
                </g>
                <g id="dirArrow">
                        <path fill="none" stroke="white" stroke-width="1.5" d="M0,-3.0v7 M-2.5,-0.5L0,-3.0L2.5,-0.5"/>
                </g>
               <g id="resetDef">
                       <use xlink:href="#rim2" fill="#404040">
                               <set attributeName="fill" to="#808080" begin="reset.mouseover" end="reset.mouseout"/>
                       </use>
               </g>
        </defs>

<script type="text/javascript">
var viewWidth = 1366;
var viewHeight = 725;
var sectionId = 'dynsection-1';
</script>
<script xlink:href="svgpan.js"/>
<svg id="graph" class="graph">
<g id="viewport">
<title>/Users/kpenev/projects/git/poet/poet_src/Evolve/LagSpinBreakCondition.h</title>
<polygon fill="#ffffff" stroke="transparent" points="-4,4 -4,-721 1362.1055,-721 1362.1055,4 -4,4"/>
<!-- Node39 -->
<g id="node1" class="node">
<title>Node39</title>
<polygon fill="#bfbfbf" stroke="#000000" points="590.6826,-672.5 590.6826,-716.5 746.1123,-716.5 746.1123,-672.5 590.6826,-672.5"/>
<text text-anchor="start" x="598.6826" y="-702.9" font-family="Helvetica,sans-Serif" font-size="12.00" fill="#000000">/Users/kpenev/projects</text>
<text text-anchor="start" x="598.6826" y="-690.9" font-family="Helvetica,sans-Serif" font-size="12.00" fill="#000000">/git/poet/poet_src/Evolve</text>
<text text-anchor="middle" x="668.3975" y="-678.9" font-family="Helvetica,sans-Serif" font-size="12.00" fill="#000000">/LagSpinBreakCondition.h</text>
</g>
<!-- Node40 -->
<g id="node2" class="node">
<title>Node40</title>
<g id="a_node2"><a xlink:href="BrokenPowerlawPhaseLagZone_8h.html" target="_top" xlink:title="Declares the class that provides the phase lag function to DissipatingZone objects. ">
<polygon fill="#ffffff" stroke="#000000" points="504.0068,-591.5 504.0068,-635.5 704.7881,-635.5 704.7881,-591.5 504.0068,-591.5"/>
<text text-anchor="start" x="512.0068" y="-621.9" font-family="Helvetica,sans-Serif" font-size="12.00" fill="#000000">/Users/kpenev/projects</text>
<text text-anchor="start" x="512.0068" y="-609.9" font-family="Helvetica,sans-Serif" font-size="12.00" fill="#000000">/git/poet/poet_src/Evolve</text>
<text text-anchor="middle" x="604.3975" y="-597.9" font-family="Helvetica,sans-Serif" font-size="12.00" fill="#000000">/BrokenPowerlawPhaseLagZone.h</text>
</a>
</g>
</g>
<!-- Node39&#45;&gt;Node40 -->
<g id="edge1" class="edge">
<title>Node39&#45;&gt;Node40</title>
<path fill="none" stroke="#191970" d="M644.5156,-664.2745C637.0009,-654.7638 628.8468,-644.4436 621.8646,-635.6068"/>
<polygon fill="#191970" stroke="#191970" points="641.9633,-666.6899 650.9092,-672.3664 647.4558,-662.3502 641.9633,-666.6899"/>
</g>
<!-- Node65 -->
<g id="node27" class="node">
<title>Node65</title>
<g id="a_node27"><a xlink:href="LagSpinBreakCondition_8cpp_source.html" target="_top" xlink:title="/Users/kpenev/projects\l/git/poet/poet_src/Evolve\l/LagSpinBreakCondition.cpp">
<polygon fill="#ffffff" stroke="#000000" points="689.3457,-510.5 689.3457,-554.5 857.4492,-554.5 857.4492,-510.5 689.3457,-510.5"/>
<text text-anchor="start" x="697.3457" y="-540.9" font-family="Helvetica,sans-Serif" font-size="12.00" fill="#000000">/Users/kpenev/projects</text>
<text text-anchor="start" x="697.3457" y="-528.9" font-family="Helvetica,sans-Serif" font-size="12.00" fill="#000000">/git/poet/poet_src/Evolve</text>
<text text-anchor="middle" x="773.3975" y="-516.9" font-family="Helvetica,sans-Serif" font-size="12.00" fill="#000000">/LagSpinBreakCondition.cpp</text>
</a>
</g>
</g>
<!-- Node39&#45;&gt;Node65 -->
<g id="edge36" class="edge">
<title>Node39&#45;&gt;Node65</title>
<path fill="none" stroke="#191970" d="M692.7997,-664.3322C699.7052,-655.3875 707.0611,-645.4527 713.3975,-636 731.554,-608.9139 750.0072,-576.1228 761.5643,-554.8117"/>
<polygon fill="#191970" stroke="#191970" points="690.0297,-662.1927 686.6268,-672.2261 695.544,-666.5047 690.0297,-662.1927"/>
</g>
<!-- Node41 -->
<g id="node3" class="node">
<title>Node41</title>
<g id="a_node3"><a xlink:href="BrokenPowerlawPhaseLagZone_8cpp_source.html" target="_top" xlink:title="/Users/kpenev/projects\l/git/poet/poet_src/Evolve\l/BrokenPowerlawPhaseLagZone.cpp">
<polygon fill="#ffffff" stroke="#000000" points="258.6699,-510.5 258.6699,-554.5 472.125,-554.5 472.125,-510.5 258.6699,-510.5"/>
<text text-anchor="start" x="266.6699" y="-540.9" font-family="Helvetica,sans-Serif" font-size="12.00" fill="#000000">/Users/kpenev/projects</text>
<text text-anchor="start" x="266.6699" y="-528.9" font-family="Helvetica,sans-Serif" font-size="12.00" fill="#000000">/git/poet/poet_src/Evolve</text>
<text text-anchor="middle" x="365.3975" y="-516.9" font-family="Helvetica,sans-Serif" font-size="12.00" fill="#000000">/BrokenPowerlawPhaseLagZone.cpp</text>
</a>
</g>
</g>
<!-- Node40&#45;&gt;Node41 -->
<g id="edge2" class="edge">
<title>Node40&#45;&gt;Node41</title>
<path fill="none" stroke="#191970" d="M529.6969,-588.1831C497.8613,-577.3936 461.0658,-564.9232 430.3766,-554.5222"/>
<polygon fill="#191970" stroke="#191970" points="528.811,-591.5783 539.4054,-591.4734 531.0579,-584.9487 528.811,-591.5783"/>
</g>
<!-- Node42 -->
<g id="node4" class="node">
<title>Node42</title>
<g id="a_node4"><a xlink:href="EvolvingStellarZone_8h.html" target="_top" xlink:title="Declares a base class for all stellar zones. ">
<polygon fill="#ffffff" stroke="#000000" points="490.3721,-510.5 490.3721,-554.5 628.4229,-554.5 628.4229,-510.5 490.3721,-510.5"/>
<text text-anchor="start" x="498.3721" y="-540.9" font-family="Helvetica,sans-Serif" font-size="12.00" fill="#000000">/Users/kpenev/projects</text>
<text text-anchor="start" x="498.3721" y="-528.9" font-family="Helvetica,sans-Serif" font-size="12.00" fill="#000000">/git/poet/poet_src/Star</text>
<text text-anchor="middle" x="559.3975" y="-516.9" font-family="Helvetica,sans-Serif" font-size="12.00" fill="#000000">/EvolvingStellarZone.h</text>
</a>
</g>
</g>
<!-- Node40&#45;&gt;Node42 -->
<g id="edge3" class="edge">
<title>Node40&#45;&gt;Node42</title>
<path fill="none" stroke="#191970" d="M587.124,-582.4077C581.9751,-573.1397 576.4396,-563.1759 571.679,-554.6068"/>
<polygon fill="#191970" stroke="#191970" points="584.185,-584.3246 592.101,-591.3664 590.3041,-580.925 584.185,-584.3246"/>
</g>
<!-- Node59 -->
<g id="node21" class="node">
<title>Node59</title>
<g id="a_node21"><a xlink:href="PlanetZone_8h.html" target="_top" xlink:title="Declares a class for the single zone of LockedPlanet objects. ">
<polygon fill="#ffffff" stroke="#000000" points="588.6895,-348.5 588.6895,-392.5 734.1055,-392.5 734.1055,-348.5 588.6895,-348.5"/>
<text text-anchor="start" x="596.6895" y="-378.9" font-family="Helvetica,sans-Serif" font-size="12.00" fill="#000000">/Users/kpenev/projects</text>
<text text-anchor="start" x="596.6895" y="-366.9" font-family="Helvetica,sans-Serif" font-size="12.00" fill="#000000">/git/poet/poet_src/Planet</text>
<text text-anchor="middle" x="661.3975" y="-354.9" font-family="Helvetica,sans-Serif" font-size="12.00" fill="#000000">/PlanetZone.h</text>
</a>
</g>
</g>
<!-- Node40&#45;&gt;Node59 -->
<g id="edge24" class="edge">
<title>Node40&#45;&gt;Node59</title>
<path fill="none" stroke="#191970" d="M624.6467,-582.7598C629.5367,-574.0917 634.2527,-564.4427 637.3975,-555 656.1769,-498.6108 660.3593,-427.9681 661.2265,-392.692"/>
<polygon fill="#191970" stroke="#191970" points="621.6221,-580.9985 619.5464,-591.3881 627.648,-584.5606 621.6221,-580.9985"/>
</g>
<!-- Node64 -->
<g id="node26" class="node">
<title>Node64</title>
<g id="a_node26"><a xlink:href="LagForcingFrequencyBreakCondition_8cpp.html" target="_top" xlink:title="Definitions of some of the methods of the LagForcingFrequencyBreakCondition class. ">
<polygon fill="#ffffff" stroke="#000000" points="0,-510.5 0,-554.5 240.7949,-554.5 240.7949,-510.5 0,-510.5"/>
<text text-anchor="start" x="8" y="-540.9" font-family="Helvetica,sans-Serif" font-size="12.00" fill="#000000">/Users/kpenev/projects</text>
<text text-anchor="start" x="8" y="-528.9" font-family="Helvetica,sans-Serif" font-size="12.00" fill="#000000">/git/poet/poet_src/Evolve</text>
<text text-anchor="middle" x="120.3975" y="-516.9" font-family="Helvetica,sans-Serif" font-size="12.00" fill="#000000">/LagForcingFrequencyBreakCondition.cpp</text>
</a>
</g>
</g>
<!-- Node40&#45;&gt;Node64 -->
<g id="edge34" class="edge">
<title>Node40&#45;&gt;Node64</title>
<path fill="none" stroke="#191970" d="M493.5781,-595.5118C423.5371,-584.075 331.133,-568.8623 249.3975,-555 246.5957,-554.5248 243.76,-554.0424 240.9004,-553.5546"/>
<polygon fill="#191970" stroke="#191970" points="493.3126,-599.0147 503.7458,-597.1712 494.4401,-592.1061 493.3126,-599.0147"/>
</g>
<!-- Node40&#45;&gt;Node65 -->
<g id="edge35" class="edge">
<title>Node40&#45;&gt;Node65</title>
<path fill="none" stroke="#191970" d="M659.7417,-586.9741C681.5957,-576.4997 706.415,-564.604 727.2733,-554.6068"/>
<polygon fill="#191970" stroke="#191970" points="658.0824,-583.888 650.5775,-591.3664 661.1079,-590.2004 658.0824,-583.888"/>
</g>
<!-- Node43 -->
<g id="node5" class="node">
<title>Node43</title>
<g id="a_node5"><a xlink:href="EvolvingStellarCore_8h.html" target="_top" xlink:title="Declaration of the class representing stellar cores. ">
<polygon fill="#ffffff" stroke="#000000" points="319.3721,-429.5 319.3721,-473.5 457.4229,-473.5 457.4229,-429.5 319.3721,-429.5"/>
<text text-anchor="start" x="327.3721" y="-459.9" font-family="Helvetica,sans-Serif" font-size="12.00" fill="#000000">/Users/kpenev/projects</text>
<text text-anchor="start" x="327.3721" y="-447.9" font-family="Helvetica,sans-Serif" font-size="12.00" fill="#000000">/git/poet/poet_src/Star</text>
<text text-anchor="middle" x="388.3975" y="-435.9" font-family="Helvetica,sans-Serif" font-size="12.00" fill="#000000">/EvolvingStellarCore.h</text>
</a>
</g>
</g>
<!-- Node42&#45;&gt;Node43 -->
<g id="edge4" class="edge">
<title>Node42&#45;&gt;Node43</title>
<path fill="none" stroke="#191970" d="M503.3983,-505.9741C481.2857,-495.4997 456.1726,-483.604 435.0675,-473.6068"/>
<polygon fill="#191970" stroke="#191970" points="502.1352,-509.2486 512.671,-510.3664 505.1319,-502.9224 502.1352,-509.2486"/>
</g>
<!-- Node57 -->
<g id="node19" class="node">
<title>Node57</title>
<g id="a_node19"><a xlink:href="EvolvingStellarEnvelope_8h.html" target="_top" xlink:title="Declares a class representing convective zones in low mass evolving stars or the whole star for high ...">
<polygon fill="#ffffff" stroke="#000000" points="475.0215,-429.5 475.0215,-473.5 633.7734,-473.5 633.7734,-429.5 475.0215,-429.5"/>
<text text-anchor="start" x="483.0215" y="-459.9" font-family="Helvetica,sans-Serif" font-size="12.00" fill="#000000">/Users/kpenev/projects</text>
<text text-anchor="start" x="483.0215" y="-447.9" font-family="Helvetica,sans-Serif" font-size="12.00" fill="#000000">/git/poet/poet_src/Star</text>
<text text-anchor="middle" x="554.3975" y="-435.9" font-family="Helvetica,sans-Serif" font-size="12.00" fill="#000000">/EvolvingStellarEnvelope.h</text>
</a>
</g>
</g>
<!-- Node42&#45;&gt;Node57 -->
<g id="edge21" class="edge">
<title>Node42&#45;&gt;Node57</title>
<path fill="none" stroke="#191970" d="M557.4065,-500.2457C556.855,-491.3118 556.269,-481.8188 555.7621,-473.6068"/>
<polygon fill="#191970" stroke="#191970" points="553.9216,-500.6011 558.0312,-510.3664 560.9083,-500.1697 553.9216,-500.6011"/>
</g>
<!-- Node58 -->
<g id="node20" class="node">
<title>Node58</title>
<g id="a_node20"><a xlink:href="EvolvingStellarZone_8cpp.html" target="_top" xlink:title="Definitions of some of the methods of EvolvingStellarZone. ">
<polygon fill="#ffffff" stroke="#000000" points="153.0283,-429.5 153.0283,-473.5 301.7666,-473.5 301.7666,-429.5 153.0283,-429.5"/>
<text text-anchor="start" x="161.0283" y="-459.9" font-family="Helvetica,sans-Serif" font-size="12.00" fill="#000000">/Users/kpenev/projects</text>
<text text-anchor="start" x="161.0283" y="-447.9" font-family="Helvetica,sans-Serif" font-size="12.00" fill="#000000">/git/poet/poet_src/Star</text>
<text text-anchor="middle" x="227.3975" y="-435.9" font-family="Helvetica,sans-Serif" font-size="12.00" fill="#000000">/EvolvingStellarZone.cpp</text>
</a>
</g>
</g>
<!-- Node42&#45;&gt;Node58 -->
<g id="edge23" class="edge">
<title>Node42&#45;&gt;Node58</title>
<path fill="none" stroke="#191970" d="M480.1112,-509.7605C404.291,-491.2696 382.8115,-491.4226 310.3975,-474 307.6395,-473.3364 304.8337,-472.6474 302.0024,-471.9404"/>
<polygon fill="#191970" stroke="#191970" points="479.5987,-513.239 490.1462,-512.2382 481.2767,-506.443 479.5987,-513.239"/>
</g>
<!-- Node44 -->
<g id="node6" class="node">
<title>Node44</title>
<g id="a_node6"><a xlink:href="EvolvingStar_8h.html" target="_top" xlink:title="Declares the class for stars that user pre&#45;tabulated stellar evolution tracks. ">
<polygon fill="#ffffff" stroke="#000000" points="359.3721,-348.5 359.3721,-392.5 497.4229,-392.5 497.4229,-348.5 359.3721,-348.5"/>
<text text-anchor="start" x="367.3721" y="-378.9" font-family="Helvetica,sans-Serif" font-size="12.00" fill="#000000">/Users/kpenev/projects</text>
<text text-anchor="start" x="367.3721" y="-366.9" font-family="Helvetica,sans-Serif" font-size="12.00" fill="#000000">/git/poet/poet_src/Star</text>
<text text-anchor="middle" x="428.3975" y="-354.9" font-family="Helvetica,sans-Serif" font-size="12.00" fill="#000000">/EvolvingStar.h</text>
</a>
</g>
</g>
<!-- Node43&#45;&gt;Node44 -->
<g id="edge5" class="edge">
<title>Node43&#45;&gt;Node44</title>
<path fill="none" stroke="#191970" d="M403.8948,-420.1179C408.4309,-410.9322 413.293,-401.0866 417.4805,-392.6068"/>
<polygon fill="#191970" stroke="#191970" points="400.6173,-418.8503 399.3276,-429.3664 406.8937,-421.9498 400.6173,-418.8503"/>
</g>
<!-- Node45 -->
<g id="node7" class="node">
<title>Node45</title>
<g id="a_node7"><a xlink:href="Star_2CInterface_8h.html" target="_top" xlink:title="Declare C&#45;style functions for accessing the functionality of the Star library. ">
<polygon fill="#ffffff" stroke="#000000" points="943.3721,-180.5 943.3721,-224.5 1081.4229,-224.5 1081.4229,-180.5 943.3721,-180.5"/>
<text text-anchor="start" x="951.3721" y="-210.9" font-family="Helvetica,sans-Serif" font-size="12.00" fill="#000000">/Users/kpenev/projects</text>
<text text-anchor="start" x="951.3721" y="-198.9" font-family="Helvetica,sans-Serif" font-size="12.00" fill="#000000">/git/poet/poet_src/Star</text>
<text text-anchor="middle" x="1012.3975" y="-186.9" font-family="Helvetica,sans-Serif" font-size="12.00" fill="#000000">/CInterface.h</text>
</a>
</g>
</g>
<!-- Node44&#45;&gt;Node45 -->
<g id="edge6" class="edge">
<title>Node44&#45;&gt;Node45</title>
<path fill="none" stroke="#191970" d="M507.8597,-357.6346C586.2125,-344.6082 700.2956,-324.6325 743.3975,-312 823.9618,-288.3877 913.5187,-249.1705 966.2914,-224.6351"/>
<polygon fill="#191970" stroke="#191970" points="506.8251,-354.2583 497.5317,-359.3459 507.9694,-361.1641 506.8251,-354.2583"/>
</g>
<!-- Node50 -->
<g id="node12" class="node">
<title>Node50</title>
<g id="a_node12"><a xlink:href="MakeStar_8h.html" target="_top" xlink:title="Declares functions for creating stars used by unit tests. ">
<polygon fill="#ffffff" stroke="#000000" points="352.3584,-267.5 352.3584,-311.5 504.4365,-311.5 504.4365,-267.5 352.3584,-267.5"/>
<text text-anchor="start" x="360.3584" y="-297.9" font-family="Helvetica,sans-Serif" font-size="12.00" fill="#000000">/Users/kpenev/projects</text>
<text text-anchor="start" x="360.3584" y="-285.9" font-family="Helvetica,sans-Serif" font-size="12.00" fill="#000000">/git/poet/poet_src/unit</text>
<text text-anchor="middle" x="428.3975" y="-273.9" font-family="Helvetica,sans-Serif" font-size="12.00" fill="#000000">_tests/shared/MakeStar.h</text>
</a>
</g>
</g>
<!-- Node44&#45;&gt;Node50 -->
<g id="edge12" class="edge">
<title>Node44&#45;&gt;Node50</title>
<path fill="none" stroke="#191970" d="M428.3975,-338.2457C428.3975,-329.3118 428.3975,-319.8188 428.3975,-311.6068"/>
<polygon fill="#191970" stroke="#191970" points="424.8976,-338.3664 428.3975,-348.3664 431.8976,-338.3664 424.8976,-338.3664"/>
</g>
<!-- Node55 -->
<g id="node17" class="node">
<title>Node55</title>
<g id="a_node17"><a xlink:href="testOrbitSolver_8h.html" target="_top" xlink:title="Declares the test suite that exercises the OrbitSolver class and some other clasess necessary to acco...">
<polygon fill="#ffffff" stroke="#000000" points="129.0205,-180.5 129.0205,-224.5 327.7744,-224.5 327.7744,-180.5 129.0205,-180.5"/>
<text text-anchor="start" x="137.0205" y="-210.9" font-family="Helvetica,sans-Serif" font-size="12.00" fill="#000000">/Users/kpenev/projects</text>
<text text-anchor="start" x="137.0205" y="-198.9" font-family="Helvetica,sans-Serif" font-size="12.00" fill="#000000">/git/poet/poet_src/unit</text>
<text text-anchor="middle" x="228.3975" y="-186.9" font-family="Helvetica,sans-Serif" font-size="12.00" fill="#000000">_tests/testEvolve/testOrbitSolver.h</text>
</a>
</g>
</g>
<!-- Node44&#45;&gt;Node55 -->
<g id="edge20" class="edge">
<title>Node44&#45;&gt;Node55</title>
<path fill="none" stroke="#191970" d="M385.246,-342.7398C371.5339,-333.4114 356.5282,-322.6584 343.3975,-312 308.7225,-283.8537 271.8811,-247.4806 249.5008,-224.564"/>
<polygon fill="#191970" stroke="#191970" points="383.337,-345.6738 393.5882,-348.3503 387.2435,-339.8652 383.337,-345.6738"/>
</g>
<!-- Node46 -->
<g id="node8" class="node">
<title>Node46</title>
<g id="a_node8"><a xlink:href="Evolve_2CInterface_8h.html" target="_top" xlink:title="Declare C&#45;style functions for accessing the functionality of the Evolve library. ">
<polygon fill="#ffffff" stroke="#000000" points="1047.6934,-87.5 1047.6934,-131.5 1195.1016,-131.5 1195.1016,-87.5 1047.6934,-87.5"/>
<text text-anchor="start" x="1055.6934" y="-117.9" font-family="Helvetica,sans-Serif" font-size="12.00" fill="#000000">/Users/kpenev/projects</text>
<text text-anchor="start" x="1055.6934" y="-105.9" font-family="Helvetica,sans-Serif" font-size="12.00" fill="#000000">/git/poet/poet_src/Evolve</text>
<text text-anchor="middle" x="1121.3975" y="-93.9" font-family="Helvetica,sans-Serif" font-size="12.00" fill="#000000">/CInterface.h</text>
</a>
</g>
</g>
<!-- Node45&#45;&gt;Node46 -->
<g id="edge7" class="edge">
<title>Node45&#45;&gt;Node46</title>
<path fill="none" stroke="#191970" d="M1046.2295,-173.6341C1062.0725,-160.1167 1080.6508,-144.2655 1095.3737,-131.7038"/>
<polygon fill="#191970" stroke="#191970" points="1043.5645,-171.307 1038.2289,-180.4603 1048.108,-176.6322 1043.5645,-171.307"/>
</g>
<!-- Node49 -->
<g id="node11" class="node">
<title>Node49</title>
<g id="a_node11"><a xlink:href="Star_2CInterface_8cpp.html" target="_top" xlink:title="The definitions of the functions declared in CInterface.h. ">
<polygon fill="#ffffff" stroke="#000000" points="891.3721,-.5 891.3721,-44.5 1029.4229,-44.5 1029.4229,-.5 891.3721,-.5"/>
<text text-anchor="start" x="899.3721" y="-30.9" font-family="Helvetica,sans-Serif" font-size="12.00" fill="#000000">/Users/kpenev/projects</text>
<text text-anchor="start" x="899.3721" y="-18.9" font-family="Helvetica,sans-Serif" font-size="12.00" fill="#000000">/git/poet/poet_src/Star</text>
<text text-anchor="middle" x="960.3975" y="-6.9" font-family="Helvetica,sans-Serif" font-size="12.00" fill="#000000">/CInterface.cpp</text>
</a>
</g>
</g>
<!-- Node45&#45;&gt;Node49 -->
<g id="edge11" class="edge">
<title>Node45&#45;&gt;Node49</title>
<path fill="none" stroke="#191970" d="M1003.1213,-170.3901C992.6647,-134.1943 975.9385,-76.296 966.8258,-44.7521"/>
<polygon fill="#191970" stroke="#191970" points="999.8833,-171.7927 1006.0212,-180.4285 1006.6083,-169.8499 999.8833,-171.7927"/>
</g>
<!-- Node47 -->
<g id="node9" class="node">
<title>Node47</title>
<g id="a_node9"><a xlink:href="Evolve_2CInterface_8cpp.html" target="_top" xlink:title="The definitions of the functions declared in CInterface.h. ">
<polygon fill="#ffffff" stroke="#000000" points="1047.6934,-.5 1047.6934,-44.5 1195.1016,-44.5 1195.1016,-.5 1047.6934,-.5"/>
<text text-anchor="start" x="1055.6934" y="-30.9" font-family="Helvetica,sans-Serif" font-size="12.00" fill="#000000">/Users/kpenev/projects</text>
<text text-anchor="start" x="1055.6934" y="-18.9" font-family="Helvetica,sans-Serif" font-size="12.00" fill="#000000">/git/poet/poet_src/Evolve</text>
<text text-anchor="middle" x="1121.3975" y="-6.9" font-family="Helvetica,sans-Serif" font-size="12.00" fill="#000000">/CInterface.cpp</text>
</a>
</g>
</g>
<!-- Node46&#45;&gt;Node47 -->
<g id="edge8" class="edge">
<title>Node46&#45;&gt;Node47</title>
<path fill="none" stroke="#191970" d="M1121.3975,-77.0893C1121.3975,-66.2369 1121.3975,-54.3979 1121.3975,-44.5276"/>
<polygon fill="#191970" stroke="#191970" points="1117.8976,-77.0953 1121.3975,-87.0953 1124.8976,-77.0954 1117.8976,-77.0953"/>
</g>
<!-- Node48 -->
<g id="node10" class="node">
<title>Node48</title>
<g id="a_node10"><a xlink:href="Planet_2CInterface_8cpp.html" target="_top" xlink:title="The definitions of the functions declared in CInterface.h. ">
<polygon fill="#ffffff" stroke="#000000" points="1212.6895,-.5 1212.6895,-44.5 1358.1055,-44.5 1358.1055,-.5 1212.6895,-.5"/>
<text text-anchor="start" x="1220.6895" y="-30.9" font-family="Helvetica,sans-Serif" font-size="12.00" fill="#000000">/Users/kpenev/projects</text>
<text text-anchor="start" x="1220.6895" y="-18.9" font-family="Helvetica,sans-Serif" font-size="12.00" fill="#000000">/git/poet/poet_src/Planet</text>
<text text-anchor="middle" x="1285.3975" y="-6.9" font-family="Helvetica,sans-Serif" font-size="12.00" fill="#000000">/CInterface.cpp</text>
</a>
</g>
</g>
<!-- Node46&#45;&gt;Node48 -->
<g id="edge9" class="edge">
<title>Node46&#45;&gt;Node48</title>
<path fill="none" stroke="#191970" d="M1172.1254,-82.5895C1195.0861,-70.4091 1221.8944,-56.1876 1243.6653,-44.6384"/>
<polygon fill="#191970" stroke="#191970" points="1170.3997,-79.5429 1163.2059,-87.3211 1173.6801,-85.7267 1170.3997,-79.5429"/>
</g>
<!-- Node46&#45;&gt;Node49 -->
<g id="edge10" class="edge">
<title>Node46&#45;&gt;Node49</title>
<path fill="none" stroke="#191970" d="M1071.298,-82.4276C1048.824,-70.2833 1022.6443,-56.1365 1001.3662,-44.6384"/>
<polygon fill="#191970" stroke="#191970" points="1069.8922,-85.6462 1080.3538,-87.3211 1073.22,-79.4878 1069.8922,-85.6462"/>
</g>
<!-- Node51 -->
<g id="node13" class="node">
<title>Node51</title>
<g id="a_node13"><a xlink:href="MakeStar_8cpp.html" target="_top" xlink:title="Implement the functions defined in MakeStar.h. ">
<polygon fill="#ffffff" stroke="#000000" points="346.0215,-180.5 346.0215,-224.5 510.7734,-224.5 510.7734,-180.5 346.0215,-180.5"/>
<text text-anchor="start" x="354.0215" y="-210.9" font-family="Helvetica,sans-Serif" font-size="12.00" fill="#000000">/Users/kpenev/projects</text>
<text text-anchor="start" x="354.0215" y="-198.9" font-family="Helvetica,sans-Serif" font-size="12.00" fill="#000000">/git/poet/poet_src/unit</text>
<text text-anchor="middle" x="428.3975" y="-186.9" font-family="Helvetica,sans-Serif" font-size="12.00" fill="#000000">_tests/shared/MakeStar.cpp</text>
</a>
</g>
</g>
<!-- Node50&#45;&gt;Node51 -->
<g id="edge13" class="edge">
<title>Node50&#45;&gt;Node51</title>
<path fill="none" stroke="#191970" d="M428.3975,-257.0893C428.3975,-246.2369 428.3975,-234.3979 428.3975,-224.5276"/>
<polygon fill="#191970" stroke="#191970" points="424.8976,-257.0953 428.3975,-267.0953 431.8976,-257.0954 424.8976,-257.0953"/>
</g>
<!-- Node52 -->
<g id="node14" class="node">
<title>Node52</title>
<g id="a_node14"><a xlink:href="testDifferentialEquations_8h.html" target="_top" xlink:title="Unit tests that check the differential equations for eccentricity and semimajor against analytic expr...">
<polygon fill="#ffffff" stroke="#000000" points="529.1318,-174.5 529.1318,-230.5 715.6631,-230.5 715.6631,-174.5 529.1318,-174.5"/>
<text text-anchor="start" x="537.1318" y="-216.9" font-family="Helvetica,sans-Serif" font-size="12.00" fill="#000000">/Users/kpenev/projects</text>
<text text-anchor="start" x="537.1318" y="-204.9" font-family="Helvetica,sans-Serif" font-size="12.00" fill="#000000">/git/poet/poet_src/unit</text>
<text text-anchor="start" x="537.1318" y="-192.9" font-family="Helvetica,sans-Serif" font-size="12.00" fill="#000000">_tests/testEvolve/testDifferential</text>
<text text-anchor="middle" x="622.3975" y="-180.9" font-family="Helvetica,sans-Serif" font-size="12.00" fill="#000000">Equations.h</text>
</a>
</g>
</g>
<!-- Node50&#45;&gt;Node52 -->
<g id="edge14" class="edge">
<title>Node50&#45;&gt;Node52</title>
<path fill="none" stroke="#191970" d="M486.8857,-263.2707C509.8599,-252.9679 536.275,-241.1219 559.6467,-230.6408"/>
<polygon fill="#191970" stroke="#191970" points="485.295,-260.1482 477.6026,-267.4338 488.1593,-266.5354 485.295,-260.1482"/>
</g>
<!-- Node50&#45;&gt;Node55 -->
<g id="edge17" class="edge">
<title>Node50&#45;&gt;Node55</title>
<path fill="none" stroke="#191970" d="M368.2368,-263.3301C339.7889,-250.9553 306.1988,-236.3436 279.0704,-224.5427"/>
<polygon fill="#191970" stroke="#191970" points="367.1043,-266.6543 377.6705,-267.4338 369.8966,-260.2353 367.1043,-266.6543"/>
</g>
<!-- Node53 -->
<g id="node15" class="node">
<title>Node53</title>
<g id="a_node15"><a xlink:href="testDifferentialEquations_8cpp.html" target="_top" xlink:title="Implement the non&#45;inline methods of test_DifferentialEquations. ">
<polygon fill="#ffffff" stroke="#000000" points="544.1318,-81.5 544.1318,-137.5 730.6631,-137.5 730.6631,-81.5 544.1318,-81.5"/>
<text text-anchor="start" x="552.1318" y="-123.9" font-family="Helvetica,sans-Serif" font-size="12.00" fill="#000000">/Users/kpenev/projects</text>
<text text-anchor="start" x="552.1318" y="-111.9" font-family="Helvetica,sans-Serif" font-size="12.00" fill="#000000">/git/poet/poet_src/unit</text>
<text text-anchor="start" x="552.1318" y="-99.9" font-family="Helvetica,sans-Serif" font-size="12.00" fill="#000000">_tests/testEvolve/testDifferential</text>
<text text-anchor="middle" x="637.3975" y="-87.9" font-family="Helvetica,sans-Serif" font-size="12.00" fill="#000000">Equations.cpp</text>
</a>
</g>
</g>
<!-- Node52&#45;&gt;Node53 -->
<g id="edge15" class="edge">
<title>Node52&#45;&gt;Node53</title>
<path fill="none" stroke="#191970" d="M628.5348,-164.4485C629.9857,-155.4526 631.5071,-146.0203 632.8717,-137.5597"/>
<polygon fill="#191970" stroke="#191970" points="625.0757,-163.9148 626.9387,-174.3446 631.9864,-165.0295 625.0757,-163.9148"/>
</g>
<!-- Node54 -->
<g id="node16" class="node">
<title>Node54</title>
<g id="a_node16"><a xlink:href="testEvolve_8cpp_source.html" target="_top" xlink:title="/Users/kpenev/projects\l/git/poet/poet_src/unit\l_tests/testEvolve/testEvolve.cpp">
<polygon fill="#ffffff" stroke="#000000" points="338.3555,-87.5 338.3555,-131.5 526.4395,-131.5 526.4395,-87.5 338.3555,-87.5"/>
<text text-anchor="start" x="346.3555" y="-117.9" font-family="Helvetica,sans-Serif" font-size="12.00" fill="#000000">/Users/kpenev/projects</text>
<text text-anchor="start" x="346.3555" y="-105.9" font-family="Helvetica,sans-Serif" font-size="12.00" fill="#000000">/git/poet/poet_src/unit</text>
<text text-anchor="middle" x="432.3975" y="-93.9" font-family="Helvetica,sans-Serif" font-size="12.00" fill="#000000">_tests/testEvolve/testEvolve.cpp</text>
</a>
</g>
</g>
<!-- Node52&#45;&gt;Node54 -->
<g id="edge16" class="edge">
<title>Node52&#45;&gt;Node54</title>
<path fill="none" stroke="#191970" d="M556.0876,-170.0431C530.0997,-157.3227 500.9508,-143.0551 477.4798,-131.5666"/>
<polygon fill="#191970" stroke="#191970" points="554.613,-173.218 565.1335,-174.4708 557.6905,-166.9308 554.613,-173.218"/>
</g>
<!-- Node55&#45;&gt;Node54 -->
<g id="edge18" class="edge">
<title>Node55&#45;&gt;Node54</title>
<path fill="none" stroke="#191970" d="M286.1051,-176.1921C317.024,-162.0967 354.6813,-144.9294 384.0462,-131.5425"/>
<polygon fill="#191970" stroke="#191970" points="284.3898,-173.1275 276.7426,-180.4603 287.2936,-179.4968 284.3898,-173.1275"/>
</g>
<!-- Node56 -->
<g id="node18" class="node">
<title>Node56</title>
<g id="a_node18"><a xlink:href="testOrbitSolver_8cpp.html" target="_top" xlink:title="Defines some of the methods of the test suite that exercises the OrbitSolver class and the other clas...">
<polygon fill="#ffffff" stroke="#000000" points="108.6836,-87.5 108.6836,-131.5 320.1113,-131.5 320.1113,-87.5 108.6836,-87.5"/>
<text text-anchor="start" x="116.6836" y="-117.9" font-family="Helvetica,sans-Serif" font-size="12.00" fill="#000000">/Users/kpenev/projects</text>
<text text-anchor="start" x="116.6836" y="-105.9" font-family="Helvetica,sans-Serif" font-size="12.00" fill="#000000">/git/poet/poet_src/unit</text>
<text text-anchor="middle" x="214.3975" y="-93.9" font-family="Helvetica,sans-Serif" font-size="12.00" fill="#000000">_tests/testEvolve/testOrbitSolver.cpp</text>
</a>
</g>
</g>
<!-- Node55&#45;&gt;Node56 -->
<g id="edge19" class="edge">
<title>Node55&#45;&gt;Node56</title>
<path fill="none" stroke="#191970" d="M223.5413,-170.2412C221.6265,-157.5215 219.4748,-143.2283 217.74,-131.7038"/>
<polygon fill="#191970" stroke="#191970" points="220.13,-171.0928 225.0797,-180.4603 227.052,-170.0507 220.13,-171.0928"/>
</g>
<!-- Node57&#45;&gt;Node44 -->
<g id="edge22" class="edge">
<title>Node57&#45;&gt;Node44</title>
<path fill="none" stroke="#191970" d="M511.3809,-423.8465C495.5234,-413.6524 477.7816,-402.247 462.7859,-392.6068"/>
<polygon fill="#191970" stroke="#191970" points="509.6629,-426.9029 519.9674,-429.3664 513.4483,-421.0146 509.6629,-426.9029"/>
</g>
<!-- Node60 -->
<g id="node22" class="node">
<title>Node60</title>
<g id="a_node22"><a xlink:href="Planet_8h.html" target="_top" xlink:title="Declares a class for planets that are always locked to the orbit. ">
<polygon fill="#ffffff" stroke="#000000" points="588.6895,-267.5 588.6895,-311.5 734.1055,-311.5 734.1055,-267.5 588.6895,-267.5"/>
<text text-anchor="start" x="596.6895" y="-297.9" font-family="Helvetica,sans-Serif" font-size="12.00" fill="#000000">/Users/kpenev/projects</text>
<text text-anchor="start" x="596.6895" y="-285.9" font-family="Helvetica,sans-Serif" font-size="12.00" fill="#000000">/git/poet/poet_src/Planet</text>
<text text-anchor="middle" x="661.3975" y="-273.9" font-family="Helvetica,sans-Serif" font-size="12.00" fill="#000000">/Planet.h</text>
</a>
</g>
</g>
<!-- Node59&#45;&gt;Node60 -->
<g id="edge25" class="edge">
<title>Node59&#45;&gt;Node60</title>
<path fill="none" stroke="#191970" d="M661.3975,-338.2457C661.3975,-329.3118 661.3975,-319.8188 661.3975,-311.6068"/>
<polygon fill="#191970" stroke="#191970" points="657.8976,-338.3664 661.3975,-348.3664 664.8976,-338.3664 657.8976,-338.3664"/>
</g>
<!-- Node60&#45;&gt;Node52 -->
<g id="edge29" class="edge">
<title>Node60&#45;&gt;Node52</title>
<path fill="none" stroke="#191970" d="M647.2034,-257.8364C643.2316,-248.9761 638.9419,-239.4068 635.0647,-230.7577"/>
<polygon fill="#191970" stroke="#191970" points="644.0696,-259.402 651.354,-267.0953 650.4572,-256.5385 644.0696,-259.402"/>
</g>
<!-- Node60&#45;&gt;Node55 -->
<g id="edge30" class="edge">
<title>Node60&#45;&gt;Node55</title>
<path fill="none" stroke="#191970" d="M578.4888,-276.3409C512.8193,-265.4825 418.8926,-248.9833 337.3975,-231 328.4203,-229.019 319.0655,-226.8048 309.7742,-224.5098"/>
<polygon fill="#191970" stroke="#191970" points="577.9376,-279.7971 588.3733,-277.9679 579.0746,-272.8901 577.9376,-279.7971"/>
</g>
<!-- Node61 -->
<g id="node23" class="node">
<title>Node61</title>
<g id="a_node23"><a xlink:href="Planet_2CInterface_8h.html" target="_top" xlink:title="Declare C&#45;style functions for working with LockedPlanet instances. ">
<polygon fill="#ffffff" stroke="#000000" points="1099.6895,-180.5 1099.6895,-224.5 1245.1055,-224.5 1245.1055,-180.5 1099.6895,-180.5"/>
<text text-anchor="start" x="1107.6895" y="-210.9" font-family="Helvetica,sans-Serif" font-size="12.00" fill="#000000">/Users/kpenev/projects</text>
<text text-anchor="start" x="1107.6895" y="-198.9" font-family="Helvetica,sans-Serif" font-size="12.00" fill="#000000">/git/poet/poet_src/Planet</text>
<text text-anchor="middle" x="1172.3975" y="-186.9" font-family="Helvetica,sans-Serif" font-size="12.00" fill="#000000">/CInterface.h</text>
</a>
</g>
</g>
<!-- Node60&#45;&gt;Node61 -->
<g id="edge26" class="edge">
<title>Node60&#45;&gt;Node61</title>
<path fill="none" stroke="#191970" d="M744.4089,-283.1115C831.492,-275.2663 971.9117,-259.3701 1090.3975,-231 1097.8726,-229.2102 1105.6238,-227.0024 1113.2444,-224.6141"/>
<polygon fill="#191970" stroke="#191970" points="743.9724,-279.6363 734.3205,-284.0057 744.5905,-286.609 743.9724,-279.6363"/>
</g>
<!-- Node62 -->
<g id="node24" class="node">
<title>Node62</title>
<g id="a_node24"><a xlink:href="testTidalTorquePower_8h.html" target="_top" xlink:title="Declare a unit tests class that check the calculations of tidal torque and power. ...">
<polygon fill="#ffffff" stroke="#000000" points="733.5742,-174.5 733.5742,-230.5 925.2207,-230.5 925.2207,-174.5 733.5742,-174.5"/>
<text text-anchor="start" x="741.5742" y="-216.9" font-family="Helvetica,sans-Serif" font-size="12.00" fill="#000000">/Users/kpenev/projects</text>
<text text-anchor="start" x="741.5742" y="-204.9" font-family="Helvetica,sans-Serif" font-size="12.00" fill="#000000">/git/poet/poet_src/unit</text>
<text text-anchor="start" x="741.5742" y="-192.9" font-family="Helvetica,sans-Serif" font-size="12.00" fill="#000000">_tests/testEvolve/testTidalTorque</text>
<text text-anchor="middle" x="829.3975" y="-180.9" font-family="Helvetica,sans-Serif" font-size="12.00" fill="#000000">Power.h</text>
</a>
</g>
</g>
<!-- Node60&#45;&gt;Node62 -->
<g id="edge31" class="edge">
<title>Node60&#45;&gt;Node62</title>
<path fill="none" stroke="#191970" d="M713.3266,-262.6081C732.962,-252.4398 755.3485,-240.8468 775.1879,-230.5728"/>
<polygon fill="#191970" stroke="#191970" points="711.4961,-259.6145 704.2256,-267.3211 714.7151,-265.8305 711.4961,-259.6145"/>
</g>
<!-- Node61&#45;&gt;Node46 -->
<g id="edge27" class="edge">
<title>Node61&#45;&gt;Node46</title>
<path fill="none" stroke="#191970" d="M1155.3325,-171.3816C1148.2035,-158.3816 1140.0832,-143.574 1133.5737,-131.7038"/>
<polygon fill="#191970" stroke="#191970" points="1152.4339,-173.3751 1160.3112,-180.4603 1158.5716,-170.0092 1152.4339,-173.3751"/>
</g>
<!-- Node61&#45;&gt;Node48 -->
<g id="edge28" class="edge">
<title>Node61&#45;&gt;Node48</title>
<path fill="none" stroke="#191970" d="M1191.6844,-171.7774C1214.3396,-135.6896 1251.3706,-76.7021 1271.4281,-44.7521"/>
<polygon fill="#191970" stroke="#191970" points="1188.6061,-170.0981 1186.2535,-180.4285 1194.5347,-173.82 1188.6061,-170.0981"/>
</g>
<!-- Node62&#45;&gt;Node54 -->
<g id="edge32" class="edge">
<title>Node62&#45;&gt;Node54</title>
<path fill="none" stroke="#191970" d="M723.3515,-173.8332C639.3275,-154.9511 615.5834,-156.6975 535.3975,-138 526.905,-136.0197 518.059,-133.806 509.2757,-131.5112"/>
<polygon fill="#191970" stroke="#191970" points="722.8138,-177.3003 733.3416,-176.1106 724.3697,-170.4754 722.8138,-177.3003"/>
</g>
<!-- Node63 -->
<g id="node25" class="node">
<title>Node63</title>
<g id="a_node25"><a xlink:href="testTidalTorquePower_8cpp.html" target="_top" xlink:title="Define the non&#45;inline methods of test_TidalTorquePower and actually run the tests if compiled in stan...">
<polygon fill="#ffffff" stroke="#000000" points="748.5742,-81.5 748.5742,-137.5 940.2207,-137.5 940.2207,-81.5 748.5742,-81.5"/>
<text text-anchor="start" x="756.5742" y="-123.9" font-family="Helvetica,sans-Serif" font-size="12.00" fill="#000000">/Users/kpenev/projects</text>
<text text-anchor="start" x="756.5742" y="-111.9" font-family="Helvetica,sans-Serif" font-size="12.00" fill="#000000">/git/poet/poet_src/unit</text>
<text text-anchor="start" x="756.5742" y="-99.9" font-family="Helvetica,sans-Serif" font-size="12.00" fill="#000000">_tests/testEvolve/testTidalTorque</text>
<text text-anchor="middle" x="844.3975" y="-87.9" font-family="Helvetica,sans-Serif" font-size="12.00" fill="#000000">Power.cpp</text>
</a>
</g>
</g>
<!-- Node62&#45;&gt;Node63 -->
<g id="edge33" class="edge">
<title>Node62&#45;&gt;Node63</title>
<path fill="none" stroke="#191970" d="M835.5348,-164.4485C836.9857,-155.4526 838.5071,-146.0203 839.8717,-137.5597"/>
<polygon fill="#191970" stroke="#191970" points="832.0757,-163.9148 833.9387,-174.3446 838.9864,-165.0295 832.0757,-163.9148"/>
</g>
</g>
</svg>
        <g id="navigator" transform="translate(0 0)" fill="#404254">
                <rect fill="#f2f5e9" fill-opacity="0.5" stroke="#606060" stroke-width=".5" x="0" y="0" width="60" height="60"/>
                <use id="zoomplus" xlink:href="#zoomPlus" x="17" y="9" onmousedown="handleZoom(evt,'in')"/>
                <use id="zoomminus" xlink:href="#zoomMin" x="42" y="9" onmousedown="handleZoom(evt,'out')"/>
                <use id="reset" xlink:href="#resetDef" x="30" y="36" onmousedown="handleReset()"/>
                <g id="arrowUp" xlink:href="#dirArrow" transform="translate(30 24)" onmousedown="handlePan(0,-1)">
                  <use xlink:href="#rim" fill="#404040">
                        <set attributeName="fill" to="#808080" begin="arrowUp.mouseover" end="arrowUp.mouseout"/>
                  </use>
                  <path fill="none" stroke="white" stroke-width="1.5" d="M0,-3.0v7 M-2.5,-0.5L0,-3.0L2.5,-0.5"/>
                </g>
                <g id="arrowRight" xlink:href="#dirArrow" transform="rotate(90) translate(36 -43)" onmousedown="handlePan(1,0)">
                  <use xlink:href="#rim" fill="#404040">
                        <set attributeName="fill" to="#808080" begin="arrowRight.mouseover" end="arrowRight.mouseout"/>
                  </use>
                  <path fill="none" stroke="white" stroke-width="1.5" d="M0,-3.0v7 M-2.5,-0.5L0,-3.0L2.5,-0.5"/>
                </g>
                <g id="arrowDown" xlink:href="#dirArrow" transform="rotate(180) translate(-30 -48)" onmousedown="handlePan(0,1)">
                  <use xlink:href="#rim" fill="#404040">
                        <set attributeName="fill" to="#808080" begin="arrowDown.mouseover" end="arrowDown.mouseout"/>
                  </use>
                  <path fill="none" stroke="white" stroke-width="1.5" d="M0,-3.0v7 M-2.5,-0.5L0,-3.0L2.5,-0.5"/>
                </g>
                <g id="arrowLeft" xlink:href="#dirArrow" transform="rotate(270) translate(-36 17)" onmousedown="handlePan(-1,0)">
                  <use xlink:href="#rim" fill="#404040">
                        <set attributeName="fill" to="#808080" begin="arrowLeft.mouseover" end="arrowLeft.mouseout"/>
                  </use>
                  <path fill="none" stroke="white" stroke-width="1.5" d="M0,-3.0v7 M-2.5,-0.5L0,-3.0L2.5,-0.5"/>
                </g>
        </g>
        <svg viewBox="0 0 15 15" width="100%" height="30px" preserveAspectRatio="xMaxYMin meet">
         <g id="arrow_out" transform="scale(0.3 0.3)">
          <a xlink:href="LagSpinBreakCondition_8h__dep__incl_org.svg" target="_base">
           <rect id="button" ry="5" rx="5" y="6" x="6" height="38" width="38"
                fill="#f2f5e9" fill-opacity="0.5" stroke="#606060" stroke-width="1.0"/>
           <path id="arrow"
             d="M 11.500037,31.436501 C 11.940474,20.09759 22.043105,11.32322 32.158766,21.979434 L 37.068811,17.246167 C 37.068811,17.246167 37.088388,32 37.088388,32 L 22.160133,31.978069 C 22.160133,31.978069 26.997745,27.140456 26.997745,27.140456 C 18.528582,18.264221 13.291696,25.230495 11.500037,31.436501 z"
             style="fill:#404040;"/>
          </a>
         </g>
        </svg>
</svg>
