<?xml version="1.0" encoding="UTF-8" standalone="no"?>
<!DOCTYPE svg PUBLIC "-//W3C//DTD SVG 1.1//EN"
 "http://www.w3.org/Graphics/SVG/1.1/DTD/svg11.dtd">
<!-- Generated by graphviz version 2.40.1 (20161225.0304)
 -->
<!-- Title: /Users/kpenev/projects/git/poet/poet_src/Core/LogDerivatives.cpp Pages: 1 -->
<!--zoomable 362 -->
<svg id="main" version="1.1" xmlns="http://www.w3.org/2000/svg" xmlns:xlink="http://www.w3.org/1999/xlink" xml:space="preserve" onload="init(evt)">
<style type="text/css"><![CDATA[
.edge:hover path { stroke: red; }
.edge:hover polygon { stroke: red; fill: red; }
]]></style>
<script type="text/javascript"><![CDATA[
var edges = document.getElementsByTagName('g');
if (edges && edges.length) {
  for (var i=0;i<edges.length;i++) {
    if (edges[i].id.substr(0,4)=='edge') {
      edges[i].setAttribute('class','edge');
    }
  }
}
]]></script>
        <defs>
                <circle id="rim" cx="0" cy="0" r="7"/>
                <circle id="rim2" cx="0" cy="0" r="3.5"/>
                <g id="zoomPlus">
                        <use xlink:href="#rim" fill="#404040">
                                <set attributeName="fill" to="#808080" begin="zoomplus.mouseover" end="zoomplus.mouseout"/>
                        </use>
                        <path d="M-4,0h8M0,-4v8" fill="none" stroke="white" stroke-width="1.5" pointer-events="none"/>
                </g>
                <g id="zoomMin">
                        <use xlink:href="#rim" fill="#404040">
                                <set attributeName="fill" to="#808080" begin="zoomminus.mouseover" end="zoomminus.mouseout"/>
                        </use>
                        <path d="M-4,0h8" fill="none" stroke="white" stroke-width="1.5" pointer-events="none"/>
                </g>
                <g id="dirArrow">
                        <path fill="none" stroke="white" stroke-width="1.5" d="M0,-3.0v7 M-2.5,-0.5L0,-3.0L2.5,-0.5"/>
                </g>
               <g id="resetDef">
                       <use xlink:href="#rim2" fill="#404040">
                               <set attributeName="fill" to="#808080" begin="reset.mouseover" end="reset.mouseout"/>
                       </use>
               </g>
        </defs>

<script type="text/javascript">
var viewWidth = 1527;
var viewHeight = 362;
var sectionId = 'dynsection-0';
</script>
<script xlink:href="svgpan.js"/>
<svg id="graph" class="graph">
<g id="viewport">
<title>/Users/kpenev/projects/git/poet/poet_src/Core/LogDerivatives.cpp</title>
<polygon fill="#ffffff" stroke="transparent" points="-4,4 -4,-358 1523.3857,-358 1523.3857,4 -4,4"/>
<!-- Node0 -->
<g id="node1" class="node">
<title>Node0</title>
<polygon fill="#bfbfbf" stroke="#000000" points="1136.6758,-309.5 1136.6758,-353.5 1274.7266,-353.5 1274.7266,-309.5 1136.6758,-309.5"/>
<text text-anchor="start" x="1144.6758" y="-339.9" font-family="Helvetica,sans-Serif" font-size="12.00" fill="#000000">/Users/kpenev/projects</text>
<text text-anchor="start" x="1144.6758" y="-327.9" font-family="Helvetica,sans-Serif" font-size="12.00" fill="#000000">/git/poet/poet_src/Core</text>
<text text-anchor="middle" x="1205.7012" y="-315.9" font-family="Helvetica,sans-Serif" font-size="12.00" fill="#000000">/LogDerivatives.cpp</text>
</g>
<!-- Node1 -->
<g id="node2" class="node">
<title>Node1</title>
<g id="a_node2"><a xlink:href="LogDerivatives_8h.html" target="_top" xlink:title="Declares a class for differentiating functions of log(arg) w.r.t. arg. ">
<polygon fill="#ffffff" stroke="#000000" points="1153.0117,-252.5 1153.0117,-272.5 1258.3906,-272.5 1258.3906,-252.5 1153.0117,-252.5"/>
<text text-anchor="middle" x="1205.7012" y="-258.9" font-family="Helvetica,sans-Serif" font-size="12.00" fill="#000000">LogDerivatives.h</text>
</a>
</g>
</g>
<!-- Node0&#45;&gt;Node1 -->
<g id="edge1" class="edge">
<title>Node0&#45;&gt;Node1</title>
<path fill="none" stroke="#191970" d="M1205.7012,-309.2882C1205.7012,-300.8377 1205.7012,-291.2557 1205.7012,-282.9736"/>
<polygon fill="#191970" stroke="#191970" points="1209.2013,-282.7136 1205.7012,-272.7137 1202.2013,-282.7137 1209.2013,-282.7136"/>
</g>
<!-- Node2 -->
<g id="node3" class="node">
<title>Node2</title>
<g id="a_node3"><a xlink:href="SharedLibraryExportMacros_8h_source.html" target="_top" xlink:title="../Core/SharedLibraryExport\lMacros.h">
<polygon fill="#ffffff" stroke="#000000" points="0,-.5 0,-32.5 165.4023,-32.5 165.4023,-.5 0,-.5"/>
<text text-anchor="start" x="8" y="-18.9" font-family="Helvetica,sans-Serif" font-size="12.00" fill="#000000">../Core/SharedLibraryExport</text>
<text text-anchor="middle" x="82.7012" y="-6.9" font-family="Helvetica,sans-Serif" font-size="12.00" fill="#000000">Macros.h</text>
</a>
</g>
</g>
<!-- Node1&#45;&gt;Node2 -->
<g id="edge2" class="edge">
<title>Node1&#45;&gt;Node2</title>
<path fill="none" stroke="#191970" d="M1152.9865,-260.6571C938.8028,-252.7851 140.6649,-219.587 46.7012,-159 10.063,-135.376 -12.431,-107.667 7.7012,-69 14.3163,-56.2945 25.5692,-46.0282 37.3746,-38.0583"/>
<polygon fill="#191970" stroke="#191970" points="39.3866,-40.9281 46.0099,-32.6587 35.6753,-34.9929 39.3866,-40.9281"/>
</g>
<!-- Node3 -->
<g id="node4" class="node">
<title>Node3</title>
<g id="a_node4"><a xlink:href="Functions_8h.html" target="_top" xlink:title="A hierarchy of classes representing functions. ">
<polygon fill="#ffffff" stroke="#000000" points="874.6846,-195.5 874.6846,-215.5 952.7178,-215.5 952.7178,-195.5 874.6846,-195.5"/>
<text text-anchor="middle" x="913.7012" y="-201.9" font-family="Helvetica,sans-Serif" font-size="12.00" fill="#000000">Functions.h</text>
</a>
</g>
</g>
<!-- Node1&#45;&gt;Node3 -->
<g id="edge3" class="edge">
<title>Node1&#45;&gt;Node3</title>
<path fill="none" stroke="#191970" d="M1154.1696,-252.4408C1100.1815,-241.902 1015.9912,-225.4676 962.8951,-215.1029"/>
<polygon fill="#191970" stroke="#191970" points="963.5183,-211.6586 953.033,-213.1778 962.1772,-218.5289 963.5183,-211.6586"/>
</g>
<!-- Node17 -->
<g id="node18" class="node">
<title>Node17</title>
<g id="a_node18"><a xlink:href="Error_8h.html" target="_top" xlink:title="Defines the exception hierarchy used by this code. ">
<polygon fill="#ffffff" stroke="#000000" points="1385.6924,-69.5 1385.6924,-89.5 1437.71,-89.5 1437.71,-69.5 1385.6924,-69.5"/>
<text text-anchor="middle" x="1411.7012" y="-75.9" font-family="Helvetica,sans-Serif" font-size="12.00" fill="#000000">Error.h</text>
</a>
</g>
</g>
<!-- Node1&#45;&gt;Node17 -->
<g id="edge38" class="edge">
<title>Node1&#45;&gt;Node17</title>
<path fill="none" stroke="#191970" d="M1245.3619,-252.3819C1289.8331,-238.8647 1360.571,-210.4255 1397.7012,-159 1410.1511,-141.7568 1412.7601,-117.0196 1412.8206,-99.733"/>
<polygon fill="#191970" stroke="#191970" points="1416.3163,-99.5131 1412.5701,-89.6027 1409.3185,-99.6862 1416.3163,-99.5131"/>
</g>
<!-- Node28 -->
<g id="node29" class="node">
<title>Node28</title>
<polygon fill="#ffffff" stroke="#bfbfbf" points="1461.3623,-195.5 1461.3623,-215.5 1510.04,-215.5 1510.04,-195.5 1461.3623,-195.5"/>
<text text-anchor="middle" x="1485.7012" y="-201.9" font-family="Helvetica,sans-Serif" font-size="12.00" fill="#000000">vector</text>
</g>
<!-- Node1&#45;&gt;Node28 -->
<g id="edge39" class="edge">
<title>Node1&#45;&gt;Node28</title>
<path fill="none" stroke="#191970" d="M1258.8315,-253.5481C1308.0353,-244.9608 1383.1303,-231.0992 1447.7012,-216 1448.9383,-215.7107 1450.1958,-215.4082 1451.4642,-215.0958"/>
<polygon fill="#191970" stroke="#191970" points="1452.4399,-218.4587 1461.245,-212.5664 1450.6872,-211.6817 1452.4399,-218.4587"/>
</g>
<!-- Node3&#45;&gt;Node2 -->
<g id="edge4" class="edge">
<title>Node3&#45;&gt;Node2</title>
<path fill="none" stroke="#191970" d="M874.6172,-204.585C743.9057,-201.2752 322.8123,-188.5286 190.7012,-159 109.1092,-140.7631 62.7434,-159.1148 15.7012,-90 2.8075,-71.0565 21.2891,-52.0007 42.0803,-38.0402"/>
<polygon fill="#191970" stroke="#191970" points="44.1463,-40.8749 50.7295,-32.5736 40.4064,-34.9577 44.1463,-40.8749"/>
</g>
<!-- Node4 -->
<g id="node5" class="node">
<title>Node4</title>
<g id="a_node5"><a xlink:href="Core_2Common_8h.html" target="_top" xlink:title="Declaration of some general purpose utilities. ">
<polygon fill="#ffffff" stroke="#000000" points="597.3574,-132.5 597.3574,-152.5 672.0449,-152.5 672.0449,-132.5 597.3574,-132.5"/>
<text text-anchor="middle" x="634.7012" y="-138.9" font-family="Helvetica,sans-Serif" font-size="12.00" fill="#000000">Common.h</text>
</a>
</g>
</g>
<!-- Node3&#45;&gt;Node4 -->
<g id="edge5" class="edge">
<title>Node3&#45;&gt;Node4</title>
<path fill="none" stroke="#191970" d="M874.6677,-198.91C829.0195,-190.8879 751.3403,-176.2539 685.7012,-159 681.8128,-157.9779 677.7843,-156.8308 673.7737,-155.6301"/>
<polygon fill="#191970" stroke="#191970" points="674.5196,-152.197 663.9315,-152.5755 672.4447,-158.8824 674.5196,-152.197"/>
</g>
<!-- Node5 -->
<g id="node6" class="node">
<title>Node5</title>
<polygon fill="#ffffff" stroke="#bfbfbf" points="1222.3682,-69.5 1222.3682,-89.5 1253.0342,-89.5 1253.0342,-69.5 1222.3682,-69.5"/>
<text text-anchor="middle" x="1237.7012" y="-75.9" font-family="Helvetica,sans-Serif" font-size="12.00" fill="#000000">list</text>
</g>
<!-- Node3&#45;&gt;Node5 -->
<g id="edge31" class="edge">
<title>Node3&#45;&gt;Node5</title>
<path fill="none" stroke="#191970" d="M874.5456,-202.7441C804.8459,-196.4788 670.8571,-177.4882 718.7012,-126 755.8619,-86.009 1155.3134,-101.3994 1208.7012,-90 1209.9678,-89.7296 1211.2539,-89.4165 1212.5446,-89.0713"/>
<polygon fill="#191970" stroke="#191970" points="1213.8133,-92.3404 1222.2783,-85.9691 1211.6877,-85.671 1213.8133,-92.3404"/>
</g>
<!-- Node6 -->
<g id="node7" class="node">
<title>Node6</title>
<polygon fill="#ffffff" stroke="#bfbfbf" points="1271.3613,-69.5 1271.3613,-89.5 1330.041,-89.5 1330.041,-69.5 1271.3613,-69.5"/>
<text text-anchor="middle" x="1300.7012" y="-75.9" font-family="Helvetica,sans-Serif" font-size="12.00" fill="#000000">valarray</text>
</g>
<!-- Node3&#45;&gt;Node6 -->
<g id="edge30" class="edge">
<title>Node3&#45;&gt;Node6</title>
<path fill="none" stroke="#191970" d="M952.9712,-203.6847C1046.7852,-198.947 1277.8554,-184.7551 1300.7012,-159 1314.9515,-142.9349 1311.8799,-117.0313 1307.2781,-99.1827"/>
<polygon fill="#191970" stroke="#191970" points="1310.6116,-98.1123 1304.4339,-89.5049 1303.8956,-100.0861 1310.6116,-98.1123"/>
</g>
<!-- Node7 -->
<g id="node8" class="node">
<title>Node7</title>
<polygon fill="#ffffff" stroke="#bfbfbf" points="25.0371,-69.5 25.0371,-89.5 68.3652,-89.5 68.3652,-69.5 25.0371,-69.5"/>
<text text-anchor="middle" x="46.7012" y="-75.9" font-family="Helvetica,sans-Serif" font-size="12.00" fill="#000000">limits</text>
</g>
<!-- Node3&#45;&gt;Node7 -->
<g id="edge29" class="edge">
<title>Node3&#45;&gt;Node7</title>
<path fill="none" stroke="#191970" d="M874.5725,-204.6558C781.5515,-202.1422 540.1294,-192.6365 341.7012,-159 224.8721,-139.1958 194.6947,-126.1664 78.2422,-90.3533"/>
<polygon fill="#191970" stroke="#191970" points="79.1747,-86.9784 68.5879,-87.393 77.1225,-93.6709 79.1747,-86.9784"/>
</g>
<!-- Node9 -->
<g id="node10" class="node">
<title>Node9</title>
<polygon fill="#ffffff" stroke="#bfbfbf" points="1308.6943,-6.5 1308.6943,-26.5 1370.708,-26.5 1370.708,-6.5 1308.6943,-6.5"/>
<text text-anchor="middle" x="1339.7012" y="-12.9" font-family="Helvetica,sans-Serif" font-size="12.00" fill="#000000">iostream</text>
</g>
<!-- Node3&#45;&gt;Node9 -->
<g id="edge33" class="edge">
<title>Node3&#45;&gt;Node9</title>
<path fill="none" stroke="#191970" d="M953.0377,-203.4756C1049.5362,-198.1641 1292.1485,-182.5898 1319.7012,-159 1354.6706,-129.0603 1349.6595,-68.3882 1344.1064,-36.7401"/>
<polygon fill="#191970" stroke="#191970" points="1347.5285,-36.0022 1342.1842,-26.8541 1340.6572,-37.3383 1347.5285,-36.0022"/>
</g>
<!-- Node10 -->
<g id="node11" class="node">
<title>Node10</title>
<polygon fill="#ffffff" stroke="#bfbfbf" points="86.0273,-69.5 86.0273,-89.5 139.375,-89.5 139.375,-69.5 86.0273,-69.5"/>
<text text-anchor="middle" x="112.7012" y="-75.9" font-family="Helvetica,sans-Serif" font-size="12.00" fill="#000000">iterator</text>
</g>
<!-- Node3&#45;&gt;Node10 -->
<g id="edge32" class="edge">
<title>Node3&#45;&gt;Node10</title>
<path fill="none" stroke="#191970" d="M874.6552,-200.0861C813.6065,-191.5825 691.8548,-174.4669 588.7012,-159 396.1938,-130.1353 343.6248,-133.0276 149.6763,-90.0058"/>
<polygon fill="#191970" stroke="#191970" points="150.2536,-86.5487 139.7314,-87.7874 148.7294,-93.3807 150.2536,-86.5487"/>
</g>
<!-- Node3&#45;&gt;Node17 -->
<g id="edge27" class="edge">
<title>Node3&#45;&gt;Node17</title>
<path fill="none" stroke="#191970" d="M952.7337,-203.6756C1057.1875,-198.4962 1337.51,-182.5378 1371.7012,-159 1391.8081,-145.1581 1402.3321,-118.1212 1407.4431,-99.4483"/>
<polygon fill="#191970" stroke="#191970" points="1410.8798,-100.129 1409.8584,-89.5835 1404.0806,-98.4642 1410.8798,-100.129"/>
</g>
<!-- Node23 -->
<g id="node24" class="node">
<title>Node23</title>
<polygon fill="#ffffff" stroke="#bfbfbf" points="727.3623,-132.5 727.3623,-152.5 776.04,-152.5 776.04,-132.5 727.3623,-132.5"/>
<text text-anchor="middle" x="751.7012" y="-138.9" font-family="Helvetica,sans-Serif" font-size="12.00" fill="#000000">cmath</text>
</g>
<!-- Node3&#45;&gt;Node23 -->
<g id="edge28" class="edge">
<title>Node3&#45;&gt;Node23</title>
<path fill="none" stroke="#191970" d="M882.5489,-195.4188C856.1718,-186.6112 817.5247,-173.0639 784.7012,-159 783.3028,-158.4009 781.8799,-157.7709 780.4491,-157.1209"/>
<polygon fill="#191970" stroke="#191970" points="781.5999,-153.7926 771.0661,-152.6572 778.5927,-160.1137 781.5999,-153.7926"/>
</g>
<!-- Node24 -->
<g id="node25" class="node">
<title>Node24</title>
<polygon fill="#ffffff" stroke="#bfbfbf" points="793.6748,-126.5 793.6748,-158.5 905.7275,-158.5 905.7275,-126.5 793.6748,-126.5"/>
<text text-anchor="start" x="801.6748" y="-144.9" font-family="Helvetica,sans-Serif" font-size="12.00" fill="#000000">boost/serialization</text>
<text text-anchor="middle" x="849.7012" y="-132.9" font-family="Helvetica,sans-Serif" font-size="12.00" fill="#000000">/base_object.hpp</text>
</g>
<!-- Node3&#45;&gt;Node24 -->
<g id="edge34" class="edge">
<title>Node3&#45;&gt;Node24</title>
<path fill="none" stroke="#191970" d="M903.4185,-195.378C895.3434,-187.4291 883.7749,-176.0414 873.4404,-165.8683"/>
<polygon fill="#191970" stroke="#191970" points="875.7828,-163.2629 866.201,-158.742 870.8722,-168.2515 875.7828,-163.2629"/>
</g>
<!-- Node25 -->
<g id="node26" class="node">
<title>Node25</title>
<polygon fill="#ffffff" stroke="#bfbfbf" points="923.6768,-126.5 923.6768,-158.5 1033.7256,-158.5 1033.7256,-126.5 923.6768,-126.5"/>
<text text-anchor="start" x="931.6768" y="-144.9" font-family="Helvetica,sans-Serif" font-size="12.00" fill="#000000">boost/archive/text</text>
<text text-anchor="middle" x="978.7012" y="-132.9" font-family="Helvetica,sans-Serif" font-size="12.00" fill="#000000">_oarchive.hpp</text>
</g>
<!-- Node3&#45;&gt;Node25 -->
<g id="edge35" class="edge">
<title>Node3&#45;&gt;Node25</title>
<path fill="none" stroke="#191970" d="M924.1445,-195.378C932.3458,-187.4291 944.095,-176.0414 954.591,-165.8683"/>
<polygon fill="#191970" stroke="#191970" points="957.1988,-168.215 961.9436,-158.742 952.327,-163.1885 957.1988,-168.215"/>
</g>
<!-- Node26 -->
<g id="node27" class="node">
<title>Node26</title>
<polygon fill="#ffffff" stroke="#bfbfbf" points="1051.6768,-126.5 1051.6768,-158.5 1161.7256,-158.5 1161.7256,-126.5 1051.6768,-126.5"/>
<text text-anchor="start" x="1059.6768" y="-144.9" font-family="Helvetica,sans-Serif" font-size="12.00" fill="#000000">boost/archive/text</text>
<text text-anchor="middle" x="1106.7012" y="-132.9" font-family="Helvetica,sans-Serif" font-size="12.00" fill="#000000">_iarchive.hpp</text>
</g>
<!-- Node3&#45;&gt;Node26 -->
<g id="edge36" class="edge">
<title>Node3&#45;&gt;Node26</title>
<path fill="none" stroke="#191970" d="M944.71,-195.378C972.35,-186.3556 1013.5624,-172.9028 1047.5004,-161.8246"/>
<polygon fill="#191970" stroke="#191970" points="1048.8977,-165.0503 1057.318,-158.6199 1046.7255,-158.3959 1048.8977,-165.0503"/>
</g>
<!-- Node27 -->
<g id="node28" class="node">
<title>Node27</title>
<polygon fill="#ffffff" stroke="#bfbfbf" points="1179.6748,-126.5 1179.6748,-158.5 1291.7275,-158.5 1291.7275,-126.5 1179.6748,-126.5"/>
<text text-anchor="start" x="1187.6748" y="-144.9" font-family="Helvetica,sans-Serif" font-size="12.00" fill="#000000">boost/serialization</text>
<text text-anchor="middle" x="1235.7012" y="-132.9" font-family="Helvetica,sans-Serif" font-size="12.00" fill="#000000">/export.hpp</text>
</g>
<!-- Node3&#45;&gt;Node27 -->
<g id="edge37" class="edge">
<title>Node3&#45;&gt;Node27</title>
<path fill="none" stroke="#191970" d="M953.0554,-199.2541C1001.6519,-191.3491 1087.0415,-176.8342 1169.366,-159.2141"/>
<polygon fill="#191970" stroke="#191970" points="1170.3517,-162.582 1179.3877,-157.0502 1168.8742,-155.7397 1170.3517,-162.582"/>
</g>
<!-- Node4&#45;&gt;Node2 -->
<g id="edge18" class="edge">
<title>Node4&#45;&gt;Node2</title>
<path fill="none" stroke="#191970" d="M597.0261,-140.4793C503.2551,-135.0697 261.5628,-118.6871 186.7012,-90 170.6565,-83.8516 135.7575,-58.0751 110.8134,-38.7712"/>
<polygon fill="#191970" stroke="#191970" points="112.8169,-35.8953 102.7773,-32.5105 108.5149,-41.4173 112.8169,-35.8953"/>
</g>
<!-- Node4&#45;&gt;Node5 -->
<g id="edge6" class="edge">
<title>Node4&#45;&gt;Node5</title>
<path fill="none" stroke="#191970" d="M661.641,-132.4293C669.3154,-129.933 677.7519,-127.5355 685.7012,-126 914.4669,-81.8109 980.7314,-138.1268 1208.7012,-90 1209.9684,-89.7325 1211.255,-89.4218 1212.5461,-89.0784"/>
<polygon fill="#191970" stroke="#191970" points="1213.812,-92.3487 1222.2812,-85.9829 1211.6908,-85.6778 1213.812,-92.3487"/>
</g>
<!-- Node4&#45;&gt;Node6 -->
<g id="edge7" class="edge">
<title>Node4&#45;&gt;Node6</title>
<path fill="none" stroke="#191970" d="M672.1663,-134.0773C686.6384,-131.104 703.3753,-128.0049 718.7012,-126 955.2421,-95.0559 1021.3082,-128.686 1260.9566,-89.7954"/>
<polygon fill="#191970" stroke="#191970" points="1261.7256,-93.216 1271.0232,-88.136 1260.587,-86.3092 1261.7256,-93.216"/>
</g>
<!-- Node4&#45;&gt;Node7 -->
<g id="edge8" class="edge">
<title>Node4&#45;&gt;Node7</title>
<path fill="none" stroke="#191970" d="M597.1818,-140.1624C491.9732,-133.4242 194.7466,-113.0874 78.4996,-89.9156"/>
<polygon fill="#191970" stroke="#191970" points="78.985,-86.4412 68.479,-87.8101 77.5456,-93.2917 78.985,-86.4412"/>
</g>
<!-- Node8 -->
<g id="node9" class="node">
<title>Node8</title>
<polygon fill="#ffffff" stroke="#bfbfbf" points="363.3643,-69.5 363.3643,-89.5 422.0381,-89.5 422.0381,-69.5 363.3643,-69.5"/>
<text text-anchor="middle" x="392.7012" y="-75.9" font-family="Helvetica,sans-Serif" font-size="12.00" fill="#000000">sstream</text>
</g>
<!-- Node4&#45;&gt;Node8 -->
<g id="edge9" class="edge">
<title>Node4&#45;&gt;Node8</title>
<path fill="none" stroke="#191970" d="M597.2576,-132.9348C558.4915,-123.0055 495.9126,-106.9038 431.9402,-90.0448"/>
<polygon fill="#191970" stroke="#191970" points="432.6423,-86.6103 422.0802,-87.4432 430.8563,-93.3787 432.6423,-86.6103"/>
</g>
<!-- Node4&#45;&gt;Node9 -->
<g id="edge10" class="edge">
<title>Node4&#45;&gt;Node9</title>
<path fill="none" stroke="#191970" d="M672.0871,-132.4185C682.2764,-129.9841 693.358,-127.6206 703.7012,-126 911.5523,-93.4325 974.1287,-150.2599 1175.7012,-90 1194.189,-84.4731 1196.3245,-77.3902 1213.7012,-69 1243.4679,-54.6274 1278.2032,-40.3311 1303.6558,-30.2948"/>
<polygon fill="#191970" stroke="#191970" points="1305.2311,-33.4368 1313.2677,-26.533 1302.6799,-26.9183 1305.2311,-33.4368"/>
</g>
<!-- Node4&#45;&gt;Node10 -->
<g id="edge11" class="edge">
<title>Node4&#45;&gt;Node10</title>
<path fill="none" stroke="#191970" d="M597.327,-140.2349C516.0913,-134.9156 317.5548,-119.7678 153.7012,-90 152.2553,-89.7373 150.7851,-89.4516 149.3032,-89.148"/>
<polygon fill="#191970" stroke="#191970" points="150.0114,-85.72 139.4871,-86.9409 148.4757,-92.5495 150.0114,-85.72"/>
</g>
<!-- Node11 -->
<g id="node12" class="node">
<title>Node11</title>
<polygon fill="#ffffff" stroke="#bfbfbf" points="440.3428,-69.5 440.3428,-89.5 539.0596,-89.5 539.0596,-69.5 440.3428,-69.5"/>
<text text-anchor="middle" x="489.7012" y="-75.9" font-family="Helvetica,sans-Serif" font-size="12.00" fill="#000000">gsl/gsl_vector.h</text>
</g>
<!-- Node4&#45;&gt;Node11 -->
<g id="edge12" class="edge">
<title>Node4&#45;&gt;Node11</title>
<path fill="none" stroke="#191970" d="M611.4044,-132.378C587.3054,-121.9073 549.4732,-105.4699 522.3875,-93.7016"/>
<polygon fill="#191970" stroke="#191970" points="523.5066,-90.3718 512.9401,-89.5969 520.7171,-96.792 523.5066,-90.3718"/>
</g>
<!-- Node12 -->
<g id="node13" class="node">
<title>Node12</title>
<polygon fill="#ffffff" stroke="#bfbfbf" points="557.0205,-69.5 557.0205,-89.5 656.3818,-89.5 656.3818,-69.5 557.0205,-69.5"/>
<text text-anchor="middle" x="606.7012" y="-75.9" font-family="Helvetica,sans-Serif" font-size="12.00" fill="#000000">gsl/gsl_matrix.h</text>
</g>
<!-- Node4&#45;&gt;Node12 -->
<g id="edge13" class="edge">
<title>Node4&#45;&gt;Node12</title>
<path fill="none" stroke="#191970" d="M630.2025,-132.378C626.2257,-123.4302 620.3123,-110.125 615.4122,-99.0999"/>
<polygon fill="#191970" stroke="#191970" points="618.5415,-97.5228 611.2817,-89.8062 612.1448,-100.3658 618.5415,-97.5228"/>
</g>
<!-- Node13 -->
<g id="node14" class="node">
<title>Node13</title>
<polygon fill="#ffffff" stroke="#bfbfbf" points="787.3438,-69.5 787.3438,-89.5 882.0586,-89.5 882.0586,-69.5 787.3438,-69.5"/>
<text text-anchor="middle" x="834.7012" y="-75.9" font-family="Helvetica,sans-Serif" font-size="12.00" fill="#000000">gsl/gsl_linalg.h</text>
</g>
<!-- Node4&#45;&gt;Node13 -->
<g id="edge14" class="edge">
<title>Node4&#45;&gt;Node13</title>
<path fill="none" stroke="#191970" d="M665.7,-132.414C672.2979,-130.2833 679.2268,-128.0575 685.7012,-126 721.6655,-114.5707 762.5929,-101.8161 792.4417,-92.5601"/>
<polygon fill="#191970" stroke="#191970" points="793.6004,-95.8653 802.1164,-89.5623 791.5285,-89.179 793.6004,-95.8653"/>
</g>
<!-- Node14 -->
<g id="node15" class="node">
<title>Node14</title>
<polygon fill="#ffffff" stroke="#bfbfbf" points="900.3467,-69.5 900.3467,-89.5 989.0557,-89.5 989.0557,-69.5 900.3467,-69.5"/>
<text text-anchor="middle" x="944.7012" y="-75.9" font-family="Helvetica,sans-Serif" font-size="12.00" fill="#000000">gsl/gsl_blas.h</text>
</g>
<!-- Node4&#45;&gt;Node14 -->
<g id="edge15" class="edge">
<title>Node4&#45;&gt;Node14</title>
<path fill="none" stroke="#191970" d="M663.3589,-132.4567C670.5934,-130.1353 678.3854,-127.8164 685.7012,-126 772.4119,-104.4705 798.0046,-106.6453 890.1752,-90.0506"/>
<polygon fill="#191970" stroke="#191970" points="891.0083,-93.4564 900.2166,-88.2163 889.7504,-86.5703 891.0083,-93.4564"/>
</g>
<!-- Node15 -->
<g id="node16" class="node">
<title>Node15</title>
<polygon fill="#ffffff" stroke="#bfbfbf" points="1006.7891,-69.5 1006.7891,-89.5 1094.6133,-89.5 1094.6133,-69.5 1006.7891,-69.5"/>
<text text-anchor="middle" x="1050.7012" y="-75.9" font-family="Helvetica,sans-Serif" font-size="12.00" fill="#000000">gsl/gsl_poly.h</text>
</g>
<!-- Node4&#45;&gt;Node15 -->
<g id="edge16" class="edge">
<title>Node4&#45;&gt;Node15</title>
<path fill="none" stroke="#191970" d="M662.2206,-132.4966C669.7521,-130.0621 677.9713,-127.679 685.7012,-126 818.9101,-97.0655 857.9721,-110.8926 996.3637,-90.0921"/>
<polygon fill="#191970" stroke="#191970" points="997.1502,-93.5124 1006.5022,-88.5335 996.0865,-86.5936 997.1502,-93.5124"/>
</g>
<!-- Node16 -->
<g id="node17" class="node">
<title>Node16</title>
<polygon fill="#ffffff" stroke="#bfbfbf" points="1112.3623,-69.5 1112.3623,-89.5 1167.04,-89.5 1167.04,-69.5 1112.3623,-69.5"/>
<text text-anchor="middle" x="1139.7012" y="-75.9" font-family="Helvetica,sans-Serif" font-size="12.00" fill="#000000">cassert</text>
</g>
<!-- Node4&#45;&gt;Node16 -->
<g id="edge17" class="edge">
<title>Node4&#45;&gt;Node16</title>
<path fill="none" stroke="#191970" d="M661.9236,-132.4325C669.527,-129.9676 677.8566,-127.5853 685.7012,-126 865.259,-89.7127 918.546,-123.0572 1102.3273,-89.9354"/>
<polygon fill="#191970" stroke="#191970" points="1103.1197,-93.3484 1112.3191,-88.0928 1101.8502,-86.4644 1103.1197,-93.3484"/>
</g>
<!-- Node4&#45;&gt;Node17 -->
<g id="edge19" class="edge">
<title>Node4&#45;&gt;Node17</title>
<path fill="none" stroke="#191970" d="M672.1577,-134.0108C686.6288,-131.0293 703.3672,-127.9421 718.7012,-126 992.5334,-91.3191 1064.0722,-117.6734 1338.7012,-90 1350.7221,-88.7887 1363.7992,-87.0438 1375.5206,-85.3233"/>
<polygon fill="#191970" stroke="#191970" points="1376.0455,-88.7838 1385.4117,-83.8316 1375.0016,-81.8621 1376.0455,-88.7838"/>
</g>
<!-- Node20 -->
<g id="node21" class="node">
<title>Node20</title>
<g id="a_node21"><a xlink:href="AstronomicalConstants_8h.html" target="_top" xlink:title="Defines various astronomical constants. ">
<polygon fill="#ffffff" stroke="#000000" points="196.0039,-69.5 196.0039,-89.5 345.3984,-89.5 345.3984,-69.5 196.0039,-69.5"/>
<text text-anchor="middle" x="270.7012" y="-75.9" font-family="Helvetica,sans-Serif" font-size="12.00" fill="#000000">AstronomicalConstants.h</text>
</a>
</g>
</g>
<!-- Node4&#45;&gt;Node20 -->
<g id="edge24" class="edge">
<title>Node4&#45;&gt;Node20</title>
<path fill="none" stroke="#191970" d="M597.1178,-135.9952C536.1874,-125.4495 414.9875,-104.4726 338.6429,-91.2591"/>
<polygon fill="#191970" stroke="#191970" points="339.0909,-87.7847 328.6405,-89.528 337.8971,-94.6822 339.0909,-87.7847"/>
</g>
<!-- Node21 -->
<g id="node22" class="node">
<title>Node21</title>
<g id="a_node22"><a xlink:href="IncludeEigen_8h_source.html" target="_top" xlink:title="IncludeEigen.h">
<polygon fill="#ffffff" stroke="#000000" points="674.0039,-69.5 674.0039,-89.5 769.3984,-89.5 769.3984,-69.5 674.0039,-69.5"/>
<text text-anchor="middle" x="721.7012" y="-75.9" font-family="Helvetica,sans-Serif" font-size="12.00" fill="#000000">IncludeEigen.h</text>
</a>
</g>
</g>
<!-- Node4&#45;&gt;Node21 -->
<g id="edge25" class="edge">
<title>Node4&#45;&gt;Node21</title>
<path fill="none" stroke="#191970" d="M648.6792,-132.378C662.3776,-122.4584 683.4714,-107.1837 699.4719,-95.597"/>
<polygon fill="#191970" stroke="#191970" points="701.7112,-98.2969 707.7578,-89.5969 697.6056,-92.6273 701.7112,-98.2969"/>
</g>
<!-- Node17&#45;&gt;Node2 -->
<g id="edge20" class="edge">
<title>Node17&#45;&gt;Node2</title>
<path fill="none" stroke="#191970" d="M1385.4218,-75.0648C1371.5639,-72.8922 1354.2556,-70.44 1338.7012,-69 1112.9685,-48.102 426.475,-26.5483 175.6946,-19.1653"/>
<polygon fill="#191970" stroke="#191970" points="175.6181,-15.6616 165.5197,-18.8665 175.4126,-22.6586 175.6181,-15.6616"/>
</g>
<!-- Node17&#45;&gt;Node9 -->
<g id="edge21" class="edge">
<title>Node17&#45;&gt;Node9</title>
<path fill="none" stroke="#191970" d="M1400.1331,-69.378C1389.0723,-59.6997 1372.1853,-44.9236 1359.0715,-33.449"/>
<polygon fill="#191970" stroke="#191970" points="1361.3103,-30.7573 1351.4797,-26.8062 1356.7007,-36.0253 1361.3103,-30.7573"/>
</g>
<!-- Node18 -->
<g id="node19" class="node">
<title>Node18</title>
<polygon fill="#ffffff" stroke="#bfbfbf" points="1452.0166,-6.5 1452.0166,-26.5 1519.3857,-26.5 1519.3857,-6.5 1452.0166,-6.5"/>
<text text-anchor="middle" x="1485.7012" y="-12.9" font-family="Helvetica,sans-Serif" font-size="12.00" fill="#000000">exception</text>
</g>
<!-- Node17&#45;&gt;Node18 -->
<g id="edge22" class="edge">
<title>Node17&#45;&gt;Node18</title>
<path fill="none" stroke="#191970" d="M1423.5906,-69.378C1434.9586,-59.6997 1452.3147,-44.9236 1465.7928,-33.449"/>
<polygon fill="#191970" stroke="#191970" points="1468.25,-35.9537 1473.5955,-26.8062 1463.7123,-30.6237 1468.25,-35.9537"/>
</g>
<!-- Node19 -->
<g id="node20" class="node">
<title>Node19</title>
<polygon fill="#ffffff" stroke="#bfbfbf" points="1389.0293,-6.5 1389.0293,-26.5 1434.373,-26.5 1434.373,-6.5 1389.0293,-6.5"/>
<text text-anchor="middle" x="1411.7012" y="-12.9" font-family="Helvetica,sans-Serif" font-size="12.00" fill="#000000">string</text>
</g>
<!-- Node17&#45;&gt;Node19 -->
<g id="edge23" class="edge">
<title>Node17&#45;&gt;Node19</title>
<path fill="none" stroke="#191970" d="M1411.7012,-69.378C1411.7012,-60.7041 1411.7012,-47.9355 1411.7012,-37.1186"/>
<polygon fill="#191970" stroke="#191970" points="1415.2013,-36.8062 1411.7012,-26.8062 1408.2013,-36.8062 1415.2013,-36.8062"/>
</g>
<!-- Node22 -->
<g id="node23" class="node">
<title>Node22</title>
<polygon fill="#ffffff" stroke="#bfbfbf" points="679.3447,-6.5 679.3447,-26.5 764.0576,-26.5 764.0576,-6.5 679.3447,-6.5"/>
<text text-anchor="middle" x="721.7012" y="-12.9" font-family="Helvetica,sans-Serif" font-size="12.00" fill="#000000">Eigen/Dense</text>
</g>
<!-- Node21&#45;&gt;Node22 -->
<g id="edge26" class="edge">
<title>Node21&#45;&gt;Node22</title>
<path fill="none" stroke="#191970" d="M721.7012,-69.378C721.7012,-60.7041 721.7012,-47.9355 721.7012,-37.1186"/>
<polygon fill="#191970" stroke="#191970" points="725.2013,-36.8062 721.7012,-26.8062 718.2013,-36.8062 725.2013,-36.8062"/>
</g>
</g>
</svg>
        <g id="navigator" transform="translate(0 0)" fill="#404254">
                <rect fill="#f2f5e9" fill-opacity="0.5" stroke="#606060" stroke-width=".5" x="0" y="0" width="60" height="60"/>
                <use id="zoomplus" xlink:href="#zoomPlus" x="17" y="9" onmousedown="handleZoom(evt,'in')"/>
                <use id="zoomminus" xlink:href="#zoomMin" x="42" y="9" onmousedown="handleZoom(evt,'out')"/>
                <use id="reset" xlink:href="#resetDef" x="30" y="36" onmousedown="handleReset()"/>
                <g id="arrowUp" xlink:href="#dirArrow" transform="translate(30 24)" onmousedown="handlePan(0,-1)">
                  <use xlink:href="#rim" fill="#404040">
                        <set attributeName="fill" to="#808080" begin="arrowUp.mouseover" end="arrowUp.mouseout"/>
                  </use>
                  <path fill="none" stroke="white" stroke-width="1.5" d="M0,-3.0v7 M-2.5,-0.5L0,-3.0L2.5,-0.5"/>
                </g>
                <g id="arrowRight" xlink:href="#dirArrow" transform="rotate(90) translate(36 -43)" onmousedown="handlePan(1,0)">
                  <use xlink:href="#rim" fill="#404040">
                        <set attributeName="fill" to="#808080" begin="arrowRight.mouseover" end="arrowRight.mouseout"/>
                  </use>
                  <path fill="none" stroke="white" stroke-width="1.5" d="M0,-3.0v7 M-2.5,-0.5L0,-3.0L2.5,-0.5"/>
                </g>
                <g id="arrowDown" xlink:href="#dirArrow" transform="rotate(180) translate(-30 -48)" onmousedown="handlePan(0,1)">
                  <use xlink:href="#rim" fill="#404040">
                        <set attributeName="fill" to="#808080" begin="arrowDown.mouseover" end="arrowDown.mouseout"/>
                  </use>
                  <path fill="none" stroke="white" stroke-width="1.5" d="M0,-3.0v7 M-2.5,-0.5L0,-3.0L2.5,-0.5"/>
                </g>
                <g id="arrowLeft" xlink:href="#dirArrow" transform="rotate(270) translate(-36 17)" onmousedown="handlePan(-1,0)">
                  <use xlink:href="#rim" fill="#404040">
                        <set attributeName="fill" to="#808080" begin="arrowLeft.mouseover" end="arrowLeft.mouseout"/>
                  </use>
                  <path fill="none" stroke="white" stroke-width="1.5" d="M0,-3.0v7 M-2.5,-0.5L0,-3.0L2.5,-0.5"/>
                </g>
        </g>
        <svg viewBox="0 0 15 15" width="100%" height="30px" preserveAspectRatio="xMaxYMin meet">
         <g id="arrow_out" transform="scale(0.3 0.3)">
          <a xlink:href="LogDerivatives_8cpp__incl_org.svg" target="_base">
           <rect id="button" ry="5" rx="5" y="6" x="6" height="38" width="38"
                fill="#f2f5e9" fill-opacity="0.5" stroke="#606060" stroke-width="1.0"/>
           <path id="arrow"
             d="M 11.500037,31.436501 C 11.940474,20.09759 22.043105,11.32322 32.158766,21.979434 L 37.068811,17.246167 C 37.068811,17.246167 37.088388,32 37.088388,32 L 22.160133,31.978069 C 22.160133,31.978069 26.997745,27.140456 26.997745,27.140456 C 18.528582,18.264221 13.291696,25.230495 11.500037,31.436501 z"
             style="fill:#404040;"/>
          </a>
         </g>
        </svg>
</svg>
