<?xml version="1.0" encoding="UTF-8" standalone="no"?>
<!DOCTYPE svg PUBLIC "-//W3C//DTD SVG 1.1//EN"
 "http://www.w3.org/Graphics/SVG/1.1/DTD/svg11.dtd">
<!-- Generated by graphviz version 2.40.1 (20161225.0304)
 -->
<!-- Title: /Users/kpenev/projects/git/poet/poet_src/unit_tests/shared/MakeStar.h Pages: 1 -->
<svg width="3836pt" height="626pt"
 viewBox="0.00 0.00 3836.05 626.00" xmlns="http://www.w3.org/2000/svg" xmlns:xlink="http://www.w3.org/1999/xlink">
<g id="graph0" class="graph" transform="scale(1 1) rotate(0) translate(4 622)">
<title>/Users/kpenev/projects/git/poet/poet_src/unit_tests/shared/MakeStar.h</title>
<polygon fill="#ffffff" stroke="transparent" points="-4,4 -4,-622 3832.0498,-622 3832.0498,4 -4,4"/>
<!-- Node0 -->
<g id="node1" class="node">
<title>Node0</title>
<polygon fill="#bfbfbf" stroke="#000000" points="1548.0107,-573.5 1548.0107,-617.5 1700.0889,-617.5 1700.0889,-573.5 1548.0107,-573.5"/>
<text text-anchor="start" x="1556.0107" y="-603.9" font-family="Helvetica,sans-Serif" font-size="12.00" fill="#000000">/Users/kpenev/projects</text>
<text text-anchor="start" x="1556.0107" y="-591.9" font-family="Helvetica,sans-Serif" font-size="12.00" fill="#000000">/git/poet/poet_src/unit</text>
<text text-anchor="middle" x="1624.0498" y="-579.9" font-family="Helvetica,sans-Serif" font-size="12.00" fill="#000000">_tests/shared/MakeStar.h</text>
</g>
<!-- Node1 -->
<g id="node2" class="node">
<title>Node1</title>
<g id="a_node2"><a xlink:href="EvolvingStar_8h.html" target="_top" xlink:title="Declares the class for stars that user pre&#45;tabulated stellar evolution tracks. ">
<polygon fill="#ffffff" stroke="#000000" points="1555.0186,-516.5 1555.0186,-536.5 1693.0811,-536.5 1693.0811,-516.5 1555.0186,-516.5"/>
<text text-anchor="middle" x="1624.0498" y="-522.9" font-family="Helvetica,sans-Serif" font-size="12.00" fill="#000000">../../Star/EvolvingStar.h</text>
</a>
</g>
</g>
<!-- Node0&#45;&gt;Node1 -->
<g id="edge1" class="edge">
<title>Node0&#45;&gt;Node1</title>
<path fill="none" stroke="#191970" d="M1624.0498,-573.2882C1624.0498,-564.8377 1624.0498,-555.2557 1624.0498,-546.9736"/>
<polygon fill="#191970" stroke="#191970" points="1627.5499,-546.7136 1624.0498,-536.7137 1620.5499,-546.7137 1627.5499,-546.7136"/>
</g>
<!-- Node2 -->
<g id="node3" class="node">
<title>Node2</title>
<g id="a_node3"><a xlink:href="SharedLibraryExportMacros_8h_source.html" target="_top" xlink:title="../Core/SharedLibraryExport\lMacros.h">
<polygon fill="#ffffff" stroke="#000000" points="1406.3486,-.5 1406.3486,-32.5 1571.751,-32.5 1571.751,-.5 1406.3486,-.5"/>
<text text-anchor="start" x="1414.3486" y="-18.9" font-family="Helvetica,sans-Serif" font-size="12.00" fill="#000000">../Core/SharedLibraryExport</text>
<text text-anchor="middle" x="1489.0498" y="-6.9" font-family="Helvetica,sans-Serif" font-size="12.00" fill="#000000">Macros.h</text>
</a>
</g>
</g>
<!-- Node1&#45;&gt;Node2 -->
<g id="edge2" class="edge">
<title>Node1&#45;&gt;Node2</title>
<path fill="none" stroke="#191970" d="M1574.2128,-516.4472C1491.7835,-498.3749 1336.0498,-457.4844 1336.0498,-406.5 1336.0498,-406.5 1336.0498,-406.5 1336.0498,-268.5 1336.0498,-178.155 1319.2207,-140.0305 1375.0498,-69 1386.1368,-54.8941 1401.8854,-44.4311 1418.1498,-36.7267"/>
<polygon fill="#191970" stroke="#191970" points="1420.0095,-39.7324 1427.7543,-32.5026 1417.1914,-33.3247 1420.0095,-39.7324"/>
</g>
<!-- Node3 -->
<g id="node4" class="node">
<title>Node3</title>
<g id="a_node4"><a xlink:href="SaturatingSkumanichWindBody_8h.html" target="_top" xlink:title="Decrales a body subject to angular momentum loss . ">
<polygon fill="#ffffff" stroke="#000000" points="960.1104,-459.5 960.1104,-479.5 1153.9893,-479.5 1153.9893,-459.5 960.1104,-459.5"/>
<text text-anchor="middle" x="1057.0498" y="-465.9" font-family="Helvetica,sans-Serif" font-size="12.00" fill="#000000">SaturatingSkumanichWindBody.h</text>
</a>
</g>
</g>
<!-- Node1&#45;&gt;Node3 -->
<g id="edge3" class="edge">
<title>Node1&#45;&gt;Node3</title>
<path fill="none" stroke="#191970" d="M1554.8081,-519.5392C1457.3789,-509.7447 1278.9406,-491.8065 1164.2787,-480.2796"/>
<polygon fill="#191970" stroke="#191970" points="1164.3751,-476.7718 1154.0751,-479.2539 1163.6749,-483.7367 1164.3751,-476.7718"/>
</g>
<!-- Node46 -->
<g id="node27" class="node">
<title>Node46</title>
<g id="a_node27"><a xlink:href="ExponentialDecayDiffRotBody_8h.html" target="_top" xlink:title="Declares a DissipatingBody with exponentially decaying differential rotation coupling. ">
<polygon fill="#ffffff" stroke="#000000" points="1046.2178,-396.5 1046.2178,-416.5 1231.8818,-416.5 1231.8818,-396.5 1046.2178,-396.5"/>
<text text-anchor="middle" x="1139.0498" y="-402.9" font-family="Helvetica,sans-Serif" font-size="12.00" fill="#000000">ExponentialDecayDiffRotBody.h</text>
</a>
</g>
</g>
<!-- Node1&#45;&gt;Node46 -->
<g id="edge58" class="edge">
<title>Node1&#45;&gt;Node46</title>
<path fill="none" stroke="#191970" d="M1554.742,-520.3877C1492.9136,-513.8631 1400.3306,-501.4414 1322.0498,-480 1266.3611,-464.7467 1204.6269,-437.693 1168.9798,-421.0059"/>
<polygon fill="#191970" stroke="#191970" points="1170.1805,-417.7022 1159.6439,-416.5926 1167.1888,-424.0307 1170.1805,-417.7022"/>
</g>
<!-- Node47 -->
<g id="node28" class="node">
<title>Node47</title>
<g id="a_node28"><a xlink:href="Interpolator_8h.html" target="_top" xlink:title="Defines the StellarEvolution class needed for interpolating among stellar evolution tracks...">
<polygon fill="#ffffff" stroke="#000000" points="2999.3594,-390.5 2999.3594,-422.5 3108.7402,-422.5 3108.7402,-390.5 2999.3594,-390.5"/>
<text text-anchor="start" x="3007.3594" y="-408.9" font-family="Helvetica,sans-Serif" font-size="12.00" fill="#000000">../StellarEvolution</text>
<text text-anchor="middle" x="3054.0498" y="-396.9" font-family="Helvetica,sans-Serif" font-size="12.00" fill="#000000">/Interpolator.h</text>
</a>
</g>
</g>
<!-- Node1&#45;&gt;Node47 -->
<g id="edge62" class="edge">
<title>Node1&#45;&gt;Node47</title>
<path fill="none" stroke="#191970" d="M1693.3615,-521.3767C1805.0946,-513.0619 2031.947,-495.9493 2224.0498,-480 2509.2084,-456.3248 2849.2161,-425.3559 2989.0747,-412.4983"/>
<polygon fill="#191970" stroke="#191970" points="2989.5573,-415.9688 2999.1946,-411.5675 2988.916,-408.9982 2989.5573,-415.9688"/>
</g>
<!-- Node71 -->
<g id="node48" class="node">
<title>Node71</title>
<g id="a_node48"><a xlink:href="EvolvingStellarCore_8h.html" target="_top" xlink:title="Declaration of the class representing stellar cores. ">
<polygon fill="#ffffff" stroke="#000000" points="1910.3555,-459.5 1910.3555,-479.5 2041.7441,-479.5 2041.7441,-459.5 1910.3555,-459.5"/>
<text text-anchor="middle" x="1976.0498" y="-465.9" font-family="Helvetica,sans-Serif" font-size="12.00" fill="#000000">EvolvingStellarCore.h</text>
</a>
</g>
</g>
<!-- Node1&#45;&gt;Node71 -->
<g id="edge126" class="edge">
<title>Node1&#45;&gt;Node71</title>
<path fill="none" stroke="#191970" d="M1686.1701,-516.4408C1747.1509,-506.566 1840.0961,-491.5152 1904.2205,-481.1315"/>
<polygon fill="#191970" stroke="#191970" points="1904.9434,-484.5601 1914.2553,-479.5065 1903.8244,-477.6501 1904.9434,-484.5601"/>
</g>
<!-- Node77 -->
<g id="node50" class="node">
<title>Node77</title>
<g id="a_node50"><a xlink:href="EvolvingStellarEnvelope_8h.html" target="_top" xlink:title="Declares a class representing convective zones in low mass evolving stars or the whole star for high ...">
<polygon fill="#ffffff" stroke="#000000" points="2059.3408,-459.5 2059.3408,-479.5 2214.7588,-479.5 2214.7588,-459.5 2059.3408,-459.5"/>
<text text-anchor="middle" x="2137.0498" y="-465.9" font-family="Helvetica,sans-Serif" font-size="12.00" fill="#000000">EvolvingStellarEnvelope.h</text>
</a>
</g>
</g>
<!-- Node1&#45;&gt;Node77 -->
<g id="edge134" class="edge">
<title>Node1&#45;&gt;Node77</title>
<path fill="none" stroke="#191970" d="M1693.2306,-519.2461C1775.5637,-510.5501 1917.4966,-495.3613 2048.9853,-480.2286"/>
<polygon fill="#191970" stroke="#191970" points="2049.7063,-483.6688 2059.2395,-479.0461 2048.9043,-476.7148 2049.7063,-483.6688"/>
</g>
<!-- Node3&#45;&gt;Node2 -->
<g id="edge4" class="edge">
<title>Node3&#45;&gt;Node2</title>
<path fill="none" stroke="#191970" d="M1127.7064,-459.4472C1172.5981,-451.6332 1225.1503,-439.3652 1241.0498,-423 1268.1752,-395.0801 1260.0498,-376.427 1260.0498,-337.5 1260.0498,-337.5 1260.0498,-337.5 1260.0498,-268.5 1260.0498,-161.1906 1053.7794,-150.101 1124.0498,-69 1141.6986,-48.6311 1294.0571,-32.3432 1396.2694,-23.5807"/>
<polygon fill="#191970" stroke="#191970" points="1396.6378,-27.0621 1406.3067,-22.7304 1396.0469,-20.0871 1396.6378,-27.0621"/>
</g>
<!-- Node4 -->
<g id="node5" class="node">
<title>Node4</title>
<g id="a_node5"><a xlink:href="DissipatingBody_8h.html" target="_top" xlink:title="Declares the DissipatingBody class. ">
<polygon fill="#ffffff" stroke="#000000" points="945.7891,-327.5 945.7891,-347.5 1106.3105,-347.5 1106.3105,-327.5 945.7891,-327.5"/>
<text text-anchor="middle" x="1026.0498" y="-333.9" font-family="Helvetica,sans-Serif" font-size="12.00" fill="#000000">../Evolve/DissipatingBody.h</text>
</a>
</g>
</g>
<!-- Node3&#45;&gt;Node4 -->
<g id="edge5" class="edge">
<title>Node3&#45;&gt;Node4</title>
<path fill="none" stroke="#191970" d="M1051.7558,-459.4535C1047.1335,-450.2295 1040.6214,-436.0537 1037.0498,-423 1031.0883,-401.2114 1028.3327,-375.3937 1027.075,-357.8724"/>
<polygon fill="#191970" stroke="#191970" points="1030.5555,-357.4475 1026.4461,-347.6821 1023.5688,-357.8787 1030.5555,-357.4475"/>
</g>
<!-- Node41 -->
<g id="node22" class="node">
<title>Node41</title>
<g id="a_node22"><a xlink:href="BinarySystem_8h.html" target="_top" xlink:title="Defines the BinarySystem class. ">
<polygon fill="#ffffff" stroke="#000000" points="766.3584,-396.5 766.3584,-416.5 915.7412,-416.5 915.7412,-396.5 766.3584,-396.5"/>
<text text-anchor="middle" x="841.0498" y="-402.9" font-family="Helvetica,sans-Serif" font-size="12.00" fill="#000000">../Evolve/BinarySystem.h</text>
</a>
</g>
</g>
<!-- Node3&#45;&gt;Node41 -->
<g id="edge42" class="edge">
<title>Node3&#45;&gt;Node41</title>
<path fill="none" stroke="#191970" d="M1022.3457,-459.378C985.1081,-448.517 925.8591,-431.236 885.2972,-419.4055"/>
<polygon fill="#191970" stroke="#191970" points="886.2478,-416.037 875.6678,-416.5969 884.2878,-422.757 886.2478,-416.037"/>
</g>
<!-- Node4&#45;&gt;Node2 -->
<g id="edge6" class="edge">
<title>Node4&#45;&gt;Node2</title>
<path fill="none" stroke="#191970" d="M952.1814,-327.4671C914.9604,-319.9498 870.3593,-307.017 835.0498,-285 780.5059,-250.9895 769.6245,-223.0365 764.0498,-159 762.7778,-144.3886 758.6207,-139.6248 764.0498,-126 776.9674,-93.5822 786.5555,-84.0294 818.0498,-69 868.9082,-44.7298 1224.1313,-27.226 1396.136,-20.0723"/>
<polygon fill="#191970" stroke="#191970" points="1396.3461,-23.5667 1406.1932,-19.6571 1396.0573,-16.5726 1396.3461,-23.5667"/>
</g>
<!-- Node5 -->
<g id="node6" class="node">
<title>Node5</title>
<g id="a_node6"><a xlink:href="DissipatingZone_8h.html" target="_top" xlink:title="Declares a class representing one zone of a body dissipative to tidal distortions. ">
<polygon fill="#ffffff" stroke="#ff0000" points="930.0234,-258.5 930.0234,-278.5 1042.0762,-278.5 1042.0762,-258.5 930.0234,-258.5"/>
<text text-anchor="middle" x="986.0498" y="-264.9" font-family="Helvetica,sans-Serif" font-size="12.00" fill="#000000">DissipatingZone.h</text>
</a>
</g>
</g>
<!-- Node4&#45;&gt;Node5 -->
<g id="edge7" class="edge">
<title>Node4&#45;&gt;Node5</title>
<path fill="none" stroke="#191970" d="M1020.1477,-327.3188C1014.1212,-316.9231 1004.62,-300.5336 997.176,-287.6927"/>
<polygon fill="#191970" stroke="#191970" points="1000.0195,-285.619 991.9762,-278.723 993.9635,-289.1297 1000.0195,-285.619"/>
</g>
<!-- Node9 -->
<g id="node9" class="node">
<title>Node9</title>
<polygon fill="#ffffff" stroke="#bfbfbf" points="984.7109,-69.5 984.7109,-89.5 1039.3887,-89.5 1039.3887,-69.5 984.7109,-69.5"/>
<text text-anchor="middle" x="1012.0498" y="-75.9" font-family="Helvetica,sans-Serif" font-size="12.00" fill="#000000">cassert</text>
</g>
<!-- Node4&#45;&gt;Node9 -->
<g id="edge41" class="edge">
<title>Node4&#45;&gt;Node9</title>
<path fill="none" stroke="#191970" d="M995.8598,-327.4816C915.8598,-299.4004 709.4286,-216.0729 783.0498,-126 806.785,-96.9609 915.6941,-85.6122 974.3601,-81.5483"/>
<polygon fill="#191970" stroke="#191970" points="974.6051,-85.0398 984.3546,-80.8928 974.147,-78.0548 974.6051,-85.0398"/>
</g>
<!-- Node10 -->
<g id="node10" class="node">
<title>Node10</title>
<g id="a_node10"><a xlink:href="Core_2Common_8h.html" target="_top" xlink:title="Declaration of some general purpose utilities. ">
<polygon fill="#ffffff" stroke="#ff0000" points="1176.0332,-132.5 1176.0332,-152.5 1290.0664,-152.5 1290.0664,-132.5 1176.0332,-132.5"/>
<text text-anchor="middle" x="1233.0498" y="-138.9" font-family="Helvetica,sans-Serif" font-size="12.00" fill="#000000">../Core/Common.h</text>
</a>
</g>
</g>
<!-- Node4&#45;&gt;Node10 -->
<g id="edge39" class="edge">
<title>Node4&#45;&gt;Node10</title>
<path fill="none" stroke="#191970" d="M1032.9139,-327.4001C1044.48,-310.7446 1069.0476,-276.8864 1094.0498,-252 1131.1822,-215.0397 1180.5288,-178.7279 1209.3365,-158.6036"/>
<polygon fill="#191970" stroke="#191970" points="1211.6958,-161.2273 1217.9265,-152.6582 1207.712,-155.4715 1211.6958,-161.2273"/>
</g>
<!-- Node12 -->
<g id="node12" class="node">
<title>Node12</title>
<polygon fill="#ffffff" stroke="#bfbfbf" points="1894.71,-69.5 1894.71,-89.5 1953.3896,-89.5 1953.3896,-69.5 1894.71,-69.5"/>
<text text-anchor="middle" x="1924.0498" y="-75.9" font-family="Helvetica,sans-Serif" font-size="12.00" fill="#000000">valarray</text>
</g>
<!-- Node4&#45;&gt;Node12 -->
<g id="edge40" class="edge">
<title>Node4&#45;&gt;Node12</title>
<path fill="none" stroke="#191970" d="M1052.6,-327.3256C1120.758,-301.5673 1307.8757,-233.1216 1469.0498,-195 1571.0206,-170.8814 1600.4864,-184.7806 1702.0498,-159 1770.8893,-141.526 1848.3802,-111.2251 1891.1821,-93.5073"/>
<polygon fill="#191970" stroke="#191970" points="1892.6498,-96.6875 1900.5323,-89.608 1889.9555,-90.2267 1892.6498,-96.6875"/>
</g>
<!-- Node25 -->
<g id="node18" class="node">
<title>Node25</title>
<g id="a_node18"><a xlink:href="AstronomicalConstants_8h.html" target="_top" xlink:title="Defines various astronomical constants. ">
<polygon fill="#ffffff" stroke="#000000" points="529.3525,-69.5 529.3525,-89.5 678.7471,-89.5 678.7471,-69.5 529.3525,-69.5"/>
<text text-anchor="middle" x="604.0498" y="-75.9" font-family="Helvetica,sans-Serif" font-size="12.00" fill="#000000">AstronomicalConstants.h</text>
</a>
</g>
</g>
<!-- Node4&#45;&gt;Node25 -->
<g id="edge38" class="edge">
<title>Node4&#45;&gt;Node25</title>
<path fill="none" stroke="#191970" d="M951.9418,-327.4519C850.2419,-313.5205 679.2937,-289.5332 674.0498,-285 618.2066,-236.7255 652.5743,-194.8864 626.0498,-126 622.5363,-116.8752 618.0042,-107.0502 613.9673,-98.7929"/>
<polygon fill="#191970" stroke="#191970" points="616.997,-97.026 609.3907,-89.6507 610.7375,-100.1596 616.997,-97.026"/>
</g>
<!-- Node40 -->
<g id="node21" class="node">
<title>Node40</title>
<g id="a_node21"><a xlink:href="OrbitalExpressions_8h.html" target="_top" xlink:title="A collection of functions which calculate various quantities for two body orbits. ...">
<polygon fill="#ffffff" stroke="#ff0000" points="418.0205,-195.5 418.0205,-215.5 584.0791,-215.5 584.0791,-195.5 418.0205,-195.5"/>
<text text-anchor="middle" x="501.0498" y="-201.9" font-family="Helvetica,sans-Serif" font-size="12.00" fill="#000000">../Core/OrbitalExpressions.h</text>
</a>
</g>
</g>
<!-- Node4&#45;&gt;Node40 -->
<g id="edge35" class="edge">
<title>Node4&#45;&gt;Node40</title>
<path fill="none" stroke="#191970" d="M949.8991,-327.4392C837.4462,-312.556 639.7422,-286.2772 636.0498,-285 592.5909,-269.9679 547.6538,-240.1168 522.1455,-221.5764"/>
<polygon fill="#191970" stroke="#191970" points="524.0899,-218.6613 513.9674,-215.5329 519.9296,-224.291 524.0899,-218.6613"/>
</g>
<!-- Node5&#45;&gt;Node2 -->
<g id="edge28" class="edge">
<title>Node5&#45;&gt;Node2</title>
<path fill="none" stroke="#191970" d="M942.8747,-258.4813C871.059,-239.6547 739.0778,-194.6083 783.0498,-126 815.7792,-74.9334 848.4401,-84.6177 907.0498,-69 996.7103,-45.1083 1255.3893,-28.5549 1395.7679,-21.0512"/>
<polygon fill="#191970" stroke="#191970" points="1396.2793,-24.5291 1406.0801,-20.5049 1395.9089,-17.5389 1396.2793,-24.5291"/>
</g>
<!-- Node6 -->
<g id="node7" class="node">
<title>Node6</title>
<g id="a_node7"><a xlink:href="ZoneOrientation_8h.html" target="_top" xlink:title="Declares a class for orientations of zones of DissipatingBody objects. ">
<polygon fill="#ffffff" stroke="#000000" points="930.0205,-195.5 930.0205,-215.5 1042.0791,-215.5 1042.0791,-195.5 930.0205,-195.5"/>
<text text-anchor="middle" x="986.0498" y="-201.9" font-family="Helvetica,sans-Serif" font-size="12.00" fill="#000000">ZoneOrientation.h</text>
</a>
</g>
</g>
<!-- Node5&#45;&gt;Node6 -->
<g id="edge8" class="edge">
<title>Node5&#45;&gt;Node6</title>
<path fill="none" stroke="#191970" d="M986.0498,-258.378C986.0498,-249.7041 986.0498,-236.9355 986.0498,-226.1186"/>
<polygon fill="#191970" stroke="#191970" points="989.5499,-225.8062 986.0498,-215.8062 982.5499,-225.8062 989.5499,-225.8062"/>
</g>
<!-- Node7 -->
<g id="node8" class="node">
<title>Node7</title>
<g id="a_node8"><a xlink:href="DissipationQuantities_8h.html" target="_top" xlink:title="Declaration of enumerations of dissipation quantities and derivatives. ">
<polygon fill="#ffffff" stroke="#ff0000" points="791.6846,-132.5 791.6846,-152.5 930.415,-152.5 930.415,-132.5 791.6846,-132.5"/>
<text text-anchor="middle" x="861.0498" y="-138.9" font-family="Helvetica,sans-Serif" font-size="12.00" fill="#000000">DissipationQuantities.h</text>
</a>
</g>
</g>
<!-- Node5&#45;&gt;Node7 -->
<g id="edge30" class="edge">
<title>Node5&#45;&gt;Node7</title>
<path fill="none" stroke="#191970" d="M971.9098,-258.4159C958.2499,-248.374 937.2983,-232.1642 921.0498,-216 903.4782,-198.5196 885.8344,-176.1959 874.2737,-160.7613"/>
<polygon fill="#191970" stroke="#191970" points="876.9723,-158.5238 868.2164,-152.5585 871.3412,-162.682 876.9723,-158.5238"/>
</g>
<!-- Node5&#45;&gt;Node10 -->
<g id="edge33" class="edge">
<title>Node5&#45;&gt;Node10</title>
<path fill="none" stroke="#191970" d="M1005.8453,-258.4019C1049.2938,-236.2379 1153.1771,-183.2448 1204.0208,-157.3083"/>
<polygon fill="#191970" stroke="#191970" points="1205.8425,-160.3082 1213.16,-152.6462 1202.6616,-154.0726 1205.8425,-160.3082"/>
</g>
<!-- Node5&#45;&gt;Node12 -->
<g id="edge34" class="edge">
<title>Node5&#45;&gt;Node12</title>
<path fill="none" stroke="#191970" d="M1026.5324,-258.49C1083.8486,-244.3234 1191.9385,-217.6283 1284.0498,-195 1409.3547,-164.2173 1439.2107,-149.6796 1566.0498,-126 1680.9665,-104.5462 1818.4736,-89.67 1884.648,-83.1754"/>
<polygon fill="#191970" stroke="#191970" points="1885.0267,-86.6552 1894.6418,-82.2053 1884.3504,-79.6879 1885.0267,-86.6552"/>
</g>
<!-- Node22 -->
<g id="node16" class="node">
<title>Node22</title>
<g id="a_node16"><a xlink:href="Error_8h.html" target="_top" xlink:title="Defines the exception hierarchy used by this code. ">
<polygon fill="#ffffff" stroke="#ff0000" points="2594.041,-69.5 2594.041,-89.5 2646.0586,-89.5 2646.0586,-69.5 2594.041,-69.5"/>
<text text-anchor="middle" x="2620.0498" y="-75.9" font-family="Helvetica,sans-Serif" font-size="12.00" fill="#000000">Error.h</text>
</a>
</g>
</g>
<!-- Node5&#45;&gt;Node22 -->
<g id="edge29" class="edge">
<title>Node5&#45;&gt;Node22</title>
<path fill="none" stroke="#191970" d="M1042.1334,-267.5042C1233.3647,-263.8346 1858.9253,-249.503 2057.0498,-216 2196.8258,-192.3638 2225.1045,-158.6665 2363.0498,-126 2441.1091,-107.515 2534.0186,-92.3712 2583.9728,-84.7789"/>
<polygon fill="#191970" stroke="#191970" points="2584.5924,-88.2251 2593.9597,-83.2749 2583.5499,-81.3032 2584.5924,-88.2251"/>
</g>
<!-- Node36 -->
<g id="node20" class="node">
<title>Node36</title>
<g id="a_node20"><a xlink:href="CombinedStoppingCondition_8h.html" target="_top" xlink:title="Declares a class for a stopping condition that combines other stopping conditions. ">
<polygon fill="#ffffff" stroke="#ff0000" points="221.6602,-195.5 221.6602,-215.5 400.4395,-215.5 400.4395,-195.5 221.6602,-195.5"/>
<text text-anchor="middle" x="311.0498" y="-201.9" font-family="Helvetica,sans-Serif" font-size="12.00" fill="#000000">CombinedStoppingCondition.h</text>
</a>
</g>
</g>
<!-- Node5&#45;&gt;Node36 -->
<g id="edge31" class="edge">
<title>Node5&#45;&gt;Node36</title>
<path fill="none" stroke="#191970" d="M929.9161,-263.6929C828.4456,-254.9375 607.4804,-235.5708 410.4606,-216.1286"/>
<polygon fill="#191970" stroke="#191970" points="410.7996,-212.6452 400.5036,-215.144 410.1106,-219.6112 410.7996,-212.6452"/>
</g>
<!-- Node6&#45;&gt;Node2 -->
<g id="edge9" class="edge">
<title>Node6&#45;&gt;Node2</title>
<path fill="none" stroke="#191970" d="M980.9588,-195.3455C969.2032,-170.295 943.5656,-104.9783 976.0498,-69 1003.5964,-38.4905 1255.6402,-24.7362 1395.8961,-19.3989"/>
<polygon fill="#191970" stroke="#191970" points="1396.3481,-22.8846 1406.2105,-19.0139 1396.0869,-15.8894 1396.3481,-22.8846"/>
</g>
<!-- Node6&#45;&gt;Node7 -->
<g id="edge10" class="edge">
<title>Node6&#45;&gt;Node7</title>
<path fill="none" stroke="#191970" d="M965.9664,-195.378C945.4647,-185.0451 913.4336,-168.9015 890.1541,-157.1686"/>
<polygon fill="#191970" stroke="#191970" points="891.5886,-153.9722 881.0834,-152.5969 888.4381,-160.2231 891.5886,-153.9722"/>
</g>
<!-- Node6&#45;&gt;Node10 -->
<g id="edge13" class="edge">
<title>Node6&#45;&gt;Node10</title>
<path fill="none" stroke="#191970" d="M1025.4608,-195.4478C1068.4766,-184.4762 1137.4119,-166.8935 1183.9223,-155.0305"/>
<polygon fill="#191970" stroke="#191970" points="1184.9544,-158.3794 1193.7792,-152.5164 1183.2244,-151.5965 1184.9544,-158.3794"/>
</g>
<!-- Node26 -->
<g id="node19" class="node">
<title>Node26</title>
<g id="a_node19"><a xlink:href="IncludeEigen_8h_source.html" target="_top" xlink:title="IncludeEigen.h">
<polygon fill="#ffffff" stroke="#ff0000" points="1133.3525,-69.5 1133.3525,-89.5 1228.7471,-89.5 1228.7471,-69.5 1133.3525,-69.5"/>
<text text-anchor="middle" x="1181.0498" y="-75.9" font-family="Helvetica,sans-Serif" font-size="12.00" fill="#000000">IncludeEigen.h</text>
</a>
</g>
</g>
<!-- Node6&#45;&gt;Node26 -->
<g id="edge27" class="edge">
<title>Node6&#45;&gt;Node26</title>
<path fill="none" stroke="#191970" d="M1001.6778,-195.4019C1035.6227,-173.4683 1116.2925,-121.3432 1156.867,-95.1258"/>
<polygon fill="#191970" stroke="#191970" points="1158.8477,-98.0131 1165.3473,-89.6462 1155.0486,-92.1337 1158.8477,-98.0131"/>
</g>
<!-- Node7&#45;&gt;Node2 -->
<g id="edge11" class="edge">
<title>Node7&#45;&gt;Node2</title>
<path fill="none" stroke="#191970" d="M868.5744,-132.4892C881.647,-115.9591 910.3098,-83.3594 943.0498,-69 1021.9361,-34.4013 1262.0025,-22.4846 1396.0449,-18.4707"/>
<polygon fill="#191970" stroke="#191970" points="1396.4064,-21.9617 1406.3006,-18.1728 1396.2031,-14.9647 1396.4064,-21.9617"/>
</g>
<!-- Node7&#45;&gt;Node9 -->
<g id="edge12" class="edge">
<title>Node7&#45;&gt;Node9</title>
<path fill="none" stroke="#191970" d="M885.3106,-132.378C910.5169,-121.8614 950.1503,-105.3256 978.3814,-93.5471"/>
<polygon fill="#191970" stroke="#191970" points="979.968,-96.6776 987.8492,-89.5969 977.2726,-90.2173 979.968,-96.6776"/>
</g>
<!-- Node10&#45;&gt;Node2 -->
<g id="edge20" class="edge">
<title>Node10&#45;&gt;Node2</title>
<path fill="none" stroke="#191970" d="M1245.8152,-132.3248C1265.5266,-116.9857 1304.9797,-87.7442 1342.0498,-69 1367.9973,-55.8799 1398.0164,-44.5354 1424.1362,-35.7829"/>
<polygon fill="#191970" stroke="#191970" points="1425.5345,-39.0075 1433.9394,-32.557 1423.3464,-32.3582 1425.5345,-39.0075"/>
</g>
<!-- Node10&#45;&gt;Node9 -->
<g id="edge19" class="edge">
<title>Node10&#45;&gt;Node9</title>
<path fill="none" stroke="#191970" d="M1197.5423,-132.378C1156.8502,-120.7779 1090.4678,-101.8545 1049.1281,-90.0698"/>
<polygon fill="#191970" stroke="#191970" points="1050.018,-86.6841 1039.4415,-87.3085 1048.0989,-93.416 1050.018,-86.6841"/>
</g>
<!-- Node11 -->
<g id="node11" class="node">
<title>Node11</title>
<polygon fill="#ffffff" stroke="#bfbfbf" points="2288.7168,-69.5 2288.7168,-89.5 2319.3828,-89.5 2319.3828,-69.5 2288.7168,-69.5"/>
<text text-anchor="middle" x="2304.0498" y="-75.9" font-family="Helvetica,sans-Serif" font-size="12.00" fill="#000000">list</text>
</g>
<!-- Node10&#45;&gt;Node11 -->
<g id="edge14" class="edge">
<title>Node10&#45;&gt;Node11</title>
<path fill="none" stroke="#191970" d="M1290.2528,-139.1351C1488.4014,-127.4793 2140.8445,-89.1003 2278.434,-81.0068"/>
<polygon fill="#191970" stroke="#191970" points="2278.683,-84.4983 2288.4602,-80.417 2278.2719,-77.5104 2278.683,-84.4983"/>
</g>
<!-- Node10&#45;&gt;Node12 -->
<g id="edge15" class="edge">
<title>Node10&#45;&gt;Node12</title>
<path fill="none" stroke="#191970" d="M1271.5324,-132.4236C1282.017,-129.9892 1293.4165,-127.6245 1304.0498,-126 1521.5357,-92.7741 1785.7279,-82.9793 1884.3862,-80.3668"/>
<polygon fill="#191970" stroke="#191970" points="1884.5936,-83.8628 1894.5012,-80.1091 1884.4152,-76.8651 1884.5936,-83.8628"/>
</g>
<!-- Node13 -->
<g id="node13" class="node">
<title>Node13</title>
<polygon fill="#ffffff" stroke="#bfbfbf" points="1246.3857,-69.5 1246.3857,-89.5 1289.7139,-89.5 1289.7139,-69.5 1246.3857,-69.5"/>
<text text-anchor="middle" x="1268.0498" y="-75.9" font-family="Helvetica,sans-Serif" font-size="12.00" fill="#000000">limits</text>
</g>
<!-- Node10&#45;&gt;Node13 -->
<g id="edge16" class="edge">
<title>Node10&#45;&gt;Node13</title>
<path fill="none" stroke="#191970" d="M1238.6732,-132.378C1243.6949,-123.3389 1251.187,-109.853 1257.3481,-98.7631"/>
<polygon fill="#191970" stroke="#191970" points="1260.5272,-100.2476 1262.3241,-89.8062 1254.4081,-96.848 1260.5272,-100.2476"/>
</g>
<!-- Node14 -->
<g id="node14" class="node">
<title>Node14</title>
<polygon fill="#ffffff" stroke="#bfbfbf" points="1383.7129,-69.5 1383.7129,-89.5 1442.3867,-89.5 1442.3867,-69.5 1383.7129,-69.5"/>
<text text-anchor="middle" x="1413.0498" y="-75.9" font-family="Helvetica,sans-Serif" font-size="12.00" fill="#000000">sstream</text>
</g>
<!-- Node10&#45;&gt;Node14 -->
<g id="edge17" class="edge">
<title>Node10&#45;&gt;Node14</title>
<path fill="none" stroke="#191970" d="M1261.9699,-132.378C1292.542,-121.6777 1340.918,-104.7461 1374.6662,-92.9343"/>
<polygon fill="#191970" stroke="#191970" points="1375.9191,-96.204 1384.2015,-89.5969 1373.6066,-89.597 1375.9191,-96.204"/>
</g>
<!-- Node15 -->
<g id="node15" class="node">
<title>Node15</title>
<polygon fill="#ffffff" stroke="#bfbfbf" points="2635.043,-6.5 2635.043,-26.5 2697.0566,-26.5 2697.0566,-6.5 2635.043,-6.5"/>
<text text-anchor="middle" x="2666.0498" y="-12.9" font-family="Helvetica,sans-Serif" font-size="12.00" fill="#000000">iostream</text>
</g>
<!-- Node10&#45;&gt;Node15 -->
<g id="edge18" class="edge">
<title>Node10&#45;&gt;Node15</title>
<path fill="none" stroke="#191970" d="M1271.9285,-132.4996C1282.3106,-130.0943 1293.5606,-127.7249 1304.0498,-126 1819.9815,-41.1588 2457.1306,-21.2399 2624.3133,-17.3413"/>
<polygon fill="#191970" stroke="#191970" points="2624.7214,-20.8331 2634.6394,-17.1072 2624.5626,-13.8349 2624.7214,-20.8331"/>
</g>
<!-- Node10&#45;&gt;Node22 -->
<g id="edge21" class="edge">
<title>Node10&#45;&gt;Node22</title>
<path fill="none" stroke="#191970" d="M1290.2017,-139.5738C1356.5293,-136.1998 1469.2012,-130.5357 1566.0498,-126 1965.0819,-107.312 2449.195,-86.7168 2583.8127,-81.0274"/>
<polygon fill="#191970" stroke="#191970" points="2584.1286,-84.5173 2593.9719,-80.5983 2583.8331,-77.5235 2584.1286,-84.5173"/>
</g>
<!-- Node10&#45;&gt;Node25 -->
<g id="edge25" class="edge">
<title>Node10&#45;&gt;Node25</title>
<path fill="none" stroke="#191970" d="M1175.8421,-136.7701C1064.7545,-125.6437 819.3503,-101.0643 689.1078,-88.0193"/>
<polygon fill="#191970" stroke="#191970" points="689.0838,-84.4995 678.7848,-86.9854 688.3862,-91.4646 689.0838,-84.4995"/>
</g>
<!-- Node10&#45;&gt;Node26 -->
<g id="edge26" class="edge">
<title>Node10&#45;&gt;Node26</title>
<path fill="none" stroke="#191970" d="M1224.6951,-132.378C1217.0082,-123.0649 1205.4251,-109.0316 1196.123,-97.7617"/>
<polygon fill="#191970" stroke="#191970" points="1198.6215,-95.2905 1189.5565,-89.8062 1193.2229,-99.7465 1198.6215,-95.2905"/>
</g>
<!-- Node22&#45;&gt;Node2 -->
<g id="edge22" class="edge">
<title>Node22&#45;&gt;Node2</title>
<path fill="none" stroke="#191970" d="M2594.0307,-78.0507C2457.7007,-70.4567 1822.8618,-35.0943 1582.0281,-21.6792"/>
<polygon fill="#191970" stroke="#191970" points="1582.0761,-18.1765 1571.8969,-21.1148 1581.6867,-25.1657 1582.0761,-18.1765"/>
</g>
<!-- Node22&#45;&gt;Node15 -->
<g id="edge23" class="edge">
<title>Node22&#45;&gt;Node15</title>
<path fill="none" stroke="#191970" d="M2627.4405,-69.378C2634.1738,-60.1563 2644.2865,-46.3063 2652.4733,-35.094"/>
<polygon fill="#191970" stroke="#191970" points="2655.4543,-36.9464 2658.5246,-26.8062 2649.8009,-32.8185 2655.4543,-36.9464"/>
</g>
<!-- Node24 -->
<g id="node17" class="node">
<title>Node24</title>
<polygon fill="#ffffff" stroke="#bfbfbf" points="3237.3779,-6.5 3237.3779,-26.5 3282.7217,-26.5 3282.7217,-6.5 3237.3779,-6.5"/>
<text text-anchor="middle" x="3260.0498" y="-12.9" font-family="Helvetica,sans-Serif" font-size="12.00" fill="#000000">string</text>
</g>
<!-- Node22&#45;&gt;Node24 -->
<g id="edge24" class="edge">
<title>Node22&#45;&gt;Node24</title>
<path fill="none" stroke="#191970" d="M2646.3317,-76.9129C2747.9604,-66.9088 3115.1068,-30.7678 3227.2732,-19.7265"/>
<polygon fill="#191970" stroke="#191970" points="3227.7055,-23.2009 3237.3145,-18.738 3227.0197,-16.2346 3227.7055,-23.2009"/>
</g>
<!-- Node36&#45;&gt;Node2 -->
<g id="edge32" class="edge">
<title>Node36&#45;&gt;Node2</title>
<path fill="none" stroke="#191970" d="M320.5501,-195.4763C346.4595,-168.9206 421.7323,-96.8823 501.0498,-69 583.9811,-39.8474 1166.0273,-23.7483 1395.9402,-18.4673"/>
<polygon fill="#191970" stroke="#191970" points="1396.0402,-21.966 1405.9578,-18.2389 1395.8806,-14.9678 1396.0402,-21.966"/>
</g>
<!-- Node40&#45;&gt;Node2 -->
<g id="edge36" class="edge">
<title>Node40&#45;&gt;Node2</title>
<path fill="none" stroke="#191970" d="M498.712,-195.3583C493.4778,-169.756 483.9382,-102.1929 520.0498,-69 551.9799,-39.6506 1159.6119,-23.5467 1396.0392,-18.3707"/>
<polygon fill="#191970" stroke="#191970" points="1396.4127,-21.8635 1406.3343,-18.1471 1396.2606,-14.8652 1396.4127,-21.8635"/>
</g>
<!-- Node40&#45;&gt;Node25 -->
<g id="edge37" class="edge">
<title>Node40&#45;&gt;Node25</title>
<path fill="none" stroke="#191970" d="M509.4787,-195.1889C526.9936,-173.7629 567.5101,-124.199 589.3945,-97.4279"/>
<polygon fill="#191970" stroke="#191970" points="592.173,-99.5589 595.7923,-89.6014 586.7534,-95.1286 592.173,-99.5589"/>
</g>
<!-- Node41&#45;&gt;Node2 -->
<g id="edge43" class="edge">
<title>Node41&#45;&gt;Node2</title>
<path fill="none" stroke="#191970" d="M766.2967,-401.5496C684.3732,-395.0308 549.4959,-381.0734 436.0498,-354 325.0946,-327.521 194.0498,-382.571 194.0498,-268.5 194.0498,-268.5 194.0498,-268.5 194.0498,-142.5 194.0498,-23.271 334.4217,-88.4728 452.0498,-69 632.1489,-39.1854 1176.3583,-23.6857 1395.8159,-18.5119"/>
<polygon fill="#191970" stroke="#191970" points="1396.1027,-22.0063 1406.0181,-18.2734 1395.9389,-15.0082 1396.1027,-22.0063"/>
</g>
<!-- Node41&#45;&gt;Node4 -->
<g id="edge44" class="edge">
<title>Node41&#45;&gt;Node4</title>
<path fill="none" stroke="#191970" d="M867.9504,-396.4668C900.0109,-384.5091 953.733,-364.4722 989.5288,-351.1214"/>
<polygon fill="#191970" stroke="#191970" points="990.9703,-354.3193 999.1167,-347.5453 988.5241,-347.7606 990.9703,-354.3193"/>
</g>
<!-- Node41&#45;&gt;Node10 -->
<g id="edge49" class="edge">
<title>Node41&#45;&gt;Node10</title>
<path fill="none" stroke="#191970" d="M915.8096,-399.3115C985.6986,-391.3397 1083.8367,-376.5484 1115.0498,-354 1182.4617,-305.3016 1216.1437,-205.6075 1227.9768,-162.7832"/>
<polygon fill="#191970" stroke="#191970" points="1231.4005,-163.5266 1230.5781,-152.9637 1224.6339,-161.734 1231.4005,-163.5266"/>
</g>
<!-- Node41&#45;&gt;Node13 -->
<g id="edge56" class="edge">
<title>Node41&#45;&gt;Node13</title>
<path fill="none" stroke="#191970" d="M857.4801,-396.3995C871.0079,-387.1387 889.4647,-372.131 899.0498,-354 932.3918,-290.931 875.4078,-249.8287 921.0498,-195 1013.8714,-83.4957 1093.888,-135.3792 1236.2002,-90.4784"/>
<polygon fill="#191970" stroke="#191970" points="1237.6991,-93.6702 1246.1095,-87.2269 1235.5167,-87.0191 1237.6991,-93.6702"/>
</g>
<!-- Node41&#45;&gt;Node15 -->
<g id="edge57" class="edge">
<title>Node41&#45;&gt;Node15</title>
<path fill="none" stroke="#191970" d="M915.8944,-399.0314C952.4,-395.6869 996.9778,-392.0433 1037.0498,-390 1092.8196,-387.1562 3007.9185,-393.8384 3047.0498,-354 3071.7239,-328.8801 3106.3812,-245.4997 2993.0498,-126 2953.08,-83.8547 2785.8381,-42.6901 2707.2216,-25.2322"/>
<polygon fill="#191970" stroke="#191970" points="2707.7063,-21.7552 2697.1879,-23.0262 2706.2031,-28.5919 2707.7063,-21.7552"/>
</g>
<!-- Node41&#45;&gt;Node22 -->
<g id="edge51" class="edge">
<title>Node41&#45;&gt;Node22</title>
<path fill="none" stroke="#191970" d="M915.908,-399.2811C952.4168,-395.9946 996.9933,-392.3277 1037.0498,-390 1534.6894,-361.0823 1661.9092,-402.227 2158.0498,-354 2347.641,-335.5709 2398.6433,-339.8847 2581.0498,-285 2711.7265,-245.6804 2786.9538,-273.5958 2861.0498,-159 2869.0134,-146.6836 2870.504,-137.2129 2861.0498,-126 2832.3773,-91.9939 2712.7448,-100.3742 2656.4103,-90.8097"/>
<polygon fill="#191970" stroke="#191970" points="2656.851,-87.3266 2646.3483,-88.7206 2655.428,-94.1804 2656.851,-87.3266"/>
</g>
<!-- Node41&#45;&gt;Node24 -->
<g id="edge55" class="edge">
<title>Node41&#45;&gt;Node24</title>
<path fill="none" stroke="#191970" d="M915.8942,-399.0278C952.3998,-395.6825 996.9776,-392.0393 1037.0498,-390 1149.866,-384.2588 2963.5752,-391.7307 3070.0498,-354 3120.5606,-336.1008 3260.0498,-259.0884 3260.0498,-205.5 3260.0498,-205.5 3260.0498,-205.5 3260.0498,-142.5 3260.0498,-105.1296 3260.0498,-61.5247 3260.0498,-36.6482"/>
<polygon fill="#191970" stroke="#191970" points="3263.5499,-36.626 3260.0498,-26.626 3256.5499,-36.6261 3263.5499,-36.626"/>
</g>
<!-- Node41&#45;&gt;Node25 -->
<g id="edge48" class="edge">
<title>Node41&#45;&gt;Node25</title>
<path fill="none" stroke="#191970" d="M766.0294,-403.5087C689.3969,-398.6908 577.9451,-386.2014 551.0498,-354 527.9964,-326.3984 575.4947,-290.821 593.0498,-216 602.5536,-175.4942 604.2042,-126.5809 604.2973,-99.6831"/>
<polygon fill="#191970" stroke="#191970" points="607.7971,-99.5791 604.2602,-89.5921 600.7971,-99.6049 607.7971,-99.5791"/>
</g>
<!-- Node41&#45;&gt;Node36 -->
<g id="edge45" class="edge">
<title>Node41&#45;&gt;Node36</title>
<path fill="none" stroke="#191970" d="M765.9874,-399.6769C679.4668,-391.0125 543.1337,-374.6716 496.0498,-354 424.0453,-322.3873 356.5359,-255.3219 326.8718,-223.2745"/>
<polygon fill="#191970" stroke="#191970" points="329.1734,-220.604 319.8497,-215.5722 324.0005,-225.3201 329.1734,-220.604"/>
</g>
<!-- Node41&#45;&gt;Node40 -->
<g id="edge50" class="edge">
<title>Node41&#45;&gt;Node40</title>
<path fill="none" stroke="#191970" d="M766.165,-399.0874C676.1463,-389.4532 534.9855,-371.7536 518.0498,-354 485.0436,-319.3997 490.746,-257.6678 496.5324,-225.7916"/>
<polygon fill="#191970" stroke="#191970" points="499.9905,-226.3473 498.5194,-215.8551 493.1264,-224.9747 499.9905,-226.3473"/>
</g>
<!-- Node42 -->
<g id="node23" class="node">
<title>Node42</title>
<g id="a_node23"><a xlink:href="SecondaryDeathCondition_8h.html" target="_top" xlink:title="Declares a stopping condition class monitoring for the death of the secondary object. ">
<polygon fill="#ffffff" stroke="#ff0000" points="0,-132.5 0,-152.5 166.0996,-152.5 166.0996,-132.5 0,-132.5"/>
<text text-anchor="middle" x="83.0498" y="-138.9" font-family="Helvetica,sans-Serif" font-size="12.00" fill="#000000">SecondaryDeathCondition.h</text>
</a>
</g>
</g>
<!-- Node41&#45;&gt;Node42 -->
<g id="edge46" class="edge">
<title>Node41&#45;&gt;Node42</title>
<path fill="none" stroke="#191970" d="M766.1599,-404.7799C603.1906,-400.4362 227.1683,-386.9337 180.0498,-354 114.2588,-308.0151 92.1609,-205.995 85.5648,-162.6312"/>
<polygon fill="#191970" stroke="#191970" points="89.0294,-162.1337 84.1761,-152.7159 82.0971,-163.1047 89.0294,-162.1337"/>
</g>
<!-- Node43 -->
<g id="node24" class="node">
<title>Node43</title>
<polygon fill="#ffffff" stroke="#bfbfbf" points="559.6953,-327.5 559.6953,-347.5 654.4043,-347.5 654.4043,-327.5 559.6953,-327.5"/>
<text text-anchor="middle" x="607.0498" y="-333.9" font-family="Helvetica,sans-Serif" font-size="12.00" fill="#000000">gsl/gsl_errno.h</text>
</g>
<!-- Node41&#45;&gt;Node43 -->
<g id="edge52" class="edge">
<title>Node41&#45;&gt;Node43</title>
<path fill="none" stroke="#191970" d="M807.0242,-396.4668C765.7788,-384.3047 696.1897,-363.7848 650.9422,-350.4426"/>
<polygon fill="#191970" stroke="#191970" points="651.6981,-347.0166 641.1165,-347.5453 649.7182,-353.7308 651.6981,-347.0166"/>
</g>
<!-- Node44 -->
<g id="node25" class="node">
<title>Node44</title>
<polygon fill="#ffffff" stroke="#bfbfbf" points="672.0215,-327.5 672.0215,-347.5 774.0781,-347.5 774.0781,-327.5 672.0215,-327.5"/>
<text text-anchor="middle" x="723.0498" y="-333.9" font-family="Helvetica,sans-Serif" font-size="12.00" fill="#000000">gsl/gsl_odeiv2.h</text>
</g>
<!-- Node41&#45;&gt;Node44 -->
<g id="edge53" class="edge">
<title>Node41&#45;&gt;Node44</title>
<path fill="none" stroke="#191970" d="M823.8916,-396.4668C804.2287,-384.969 771.7916,-366.0016 749.0281,-352.6907"/>
<polygon fill="#191970" stroke="#191970" points="750.628,-349.5718 740.2287,-347.5453 747.0945,-355.6145 750.628,-349.5718"/>
</g>
<!-- Node45 -->
<g id="node26" class="node">
<title>Node45</title>
<polygon fill="#ffffff" stroke="#bfbfbf" points="791.6973,-327.5 791.6973,-347.5 890.4023,-347.5 890.4023,-327.5 791.6973,-327.5"/>
<text text-anchor="middle" x="841.0498" y="-333.9" font-family="Helvetica,sans-Serif" font-size="12.00" fill="#000000">gsl/gsl_siman.h</text>
</g>
<!-- Node41&#45;&gt;Node45 -->
<g id="edge54" class="edge">
<title>Node41&#45;&gt;Node45</title>
<path fill="none" stroke="#191970" d="M841.0498,-396.3188C841.0498,-386.2289 841.0498,-370.4925 841.0498,-357.8347"/>
<polygon fill="#191970" stroke="#191970" points="844.5499,-357.7229 841.0498,-347.723 837.5499,-357.723 844.5499,-357.7229"/>
</g>
<!-- Node42&#45;&gt;Node2 -->
<g id="edge47" class="edge">
<title>Node42&#45;&gt;Node2</title>
<path fill="none" stroke="#191970" d="M92.2857,-132.2659C108.243,-115.4068 142.8573,-82.3348 180.0498,-69 293.4567,-28.3396 1115.8363,-19.0216 1395.9218,-17.0175"/>
<polygon fill="#191970" stroke="#191970" points="1396.0796,-20.5166 1406.0548,-16.9465 1396.0305,-13.5167 1396.0796,-20.5166"/>
</g>
<!-- Node46&#45;&gt;Node2 -->
<g id="edge59" class="edge">
<title>Node46&#45;&gt;Node2</title>
<path fill="none" stroke="#191970" d="M1139.0391,-396.4585C1138.919,-380.4435 1138.2548,-348.1539 1135.0498,-321 1121.7231,-208.0893 1016.0967,-154.4895 1091.0498,-69 1110.8494,-46.4171 1284.4213,-30.444 1395.7145,-22.4177"/>
<polygon fill="#191970" stroke="#191970" points="1396.2229,-25.8905 1405.9491,-21.6893 1395.7258,-18.9081 1396.2229,-25.8905"/>
</g>
<!-- Node46&#45;&gt;Node4 -->
<g id="edge60" class="edge">
<title>Node46&#45;&gt;Node4</title>
<path fill="none" stroke="#191970" d="M1122.3763,-396.3188C1103.6823,-384.9039 1073.1533,-366.2623 1051.4785,-353.0273"/>
<polygon fill="#191970" stroke="#191970" points="1053.1505,-349.9473 1042.7918,-347.723 1049.5024,-355.9216 1053.1505,-349.9473"/>
</g>
<!-- Node46&#45;&gt;Node6 -->
<g id="edge61" class="edge">
<title>Node46&#45;&gt;Node6</title>
<path fill="none" stroke="#191970" d="M1137.7921,-396.4294C1135.3852,-379.816 1129.0675,-346.0169 1115.0498,-321 1090.2804,-276.7951 1042.2014,-240.728 1012.2479,-221.2473"/>
<polygon fill="#191970" stroke="#191970" points="1013.8979,-218.1491 1003.5798,-215.7434 1010.1456,-224.0585 1013.8979,-218.1491"/>
</g>
<!-- Node47&#45;&gt;Node2 -->
<g id="edge63" class="edge">
<title>Node47&#45;&gt;Node2</title>
<path fill="none" stroke="#191970" d="M3064.5552,-390.2216C3070.3789,-380.2117 3077.0365,-366.8745 3080.0498,-354 3083.3923,-339.7193 3083.1047,-335.345 3080.0498,-321 3060.2829,-228.1803 3064.1772,-188.8261 2993.0498,-126 2927.9294,-68.4798 2891.715,-83.5159 2806.0498,-69 2570.3329,-29.0581 1841.9647,-19.3425 1582.2395,-17.1206"/>
<polygon fill="#191970" stroke="#191970" points="1582.1121,-13.6195 1572.0831,-17.0355 1582.0534,-20.6193 1582.1121,-13.6195"/>
</g>
<!-- Node47&#45;&gt;Node11 -->
<g id="edge116" class="edge">
<title>Node47&#45;&gt;Node11</title>
<path fill="none" stroke="#191970" d="M2999.0735,-396.2056C2955.5476,-386.8747 2899.7168,-371.8713 2885.0498,-354 2820.4084,-275.2364 2933.8726,-197.2675 2861.0498,-126 2841.7924,-107.1539 2436.5601,-86.0021 2329.6962,-80.7362"/>
<polygon fill="#191970" stroke="#191970" points="2329.6611,-77.2304 2319.502,-80.2377 2329.3191,-84.2221 2329.6611,-77.2304"/>
</g>
<!-- Node47&#45;&gt;Node12 -->
<g id="edge115" class="edge">
<title>Node47&#45;&gt;Node12</title>
<path fill="none" stroke="#191970" d="M2999.0995,-405.3195C2823.0914,-400.6205 2276.3251,-378.6384 2131.0498,-285 2091.4516,-259.4767 2103.1945,-232.7801 2075.0498,-195 2050.5964,-162.1749 2046.3389,-151.1569 2014.0498,-126 1997.3105,-112.9581 1976.3578,-101.8806 1958.8818,-93.8127"/>
<polygon fill="#191970" stroke="#191970" points="1960.1366,-90.5398 1949.5795,-89.6469 1957.2756,-96.9284 1960.1366,-90.5398"/>
</g>
<!-- Node47&#45;&gt;Node15 -->
<g id="edge118" class="edge">
<title>Node47&#45;&gt;Node15</title>
<path fill="none" stroke="#191970" d="M3109.0001,-404.1276C3263.4726,-397.1949 3691.6783,-376.0616 3712.0498,-354 3866.427,-186.8149 3222.0498,-433.0591 3222.0498,-205.5 3222.0498,-205.5 3222.0498,-205.5 3222.0498,-142.5 3222.0498,-99.7634 3197.7985,-89.0365 3160.0498,-69 3081.8875,-27.5125 2811.6264,-18.8033 2707.4496,-16.9805"/>
<polygon fill="#191970" stroke="#191970" points="2707.3739,-13.4789 2697.3184,-16.816 2707.2602,-20.4779 2707.3739,-13.4789"/>
</g>
<!-- Node47&#45;&gt;Node22 -->
<g id="edge114" class="edge">
<title>Node47&#45;&gt;Node22</title>
<path fill="none" stroke="#191970" d="M3108.9355,-404.0102C3260.5529,-396.8692 3675.283,-375.452 3695.0498,-354 3704.9884,-343.2141 3705.0311,-331.7464 3695.0498,-321 3658.1244,-281.2442 3259.3566,-302.653 3208.0498,-285 3087.7595,-243.6121 3089.0828,-170.8761 2970.0498,-126 2913.1466,-104.5472 2734.1953,-88.4152 2656.5707,-82.2434"/>
<polygon fill="#191970" stroke="#191970" points="2656.5563,-78.7316 2646.3132,-81.4391 2656.009,-85.7102 2656.5563,-78.7316"/>
</g>
<!-- Node47&#45;&gt;Node24 -->
<g id="edge117" class="edge">
<title>Node47&#45;&gt;Node24</title>
<path fill="none" stroke="#191970" d="M3108.7979,-405.5939C3268.6621,-402.5294 3727.0619,-390.61 3783.0498,-354 3818.9901,-330.499 3828.0498,-311.4418 3828.0498,-268.5 3828.0498,-268.5 3828.0498,-268.5 3828.0498,-142.5 3828.0498,-87.3474 3414.6157,-34.59 3293.1959,-20.2851"/>
<polygon fill="#191970" stroke="#191970" points="3293.3582,-16.7803 3283.0196,-19.096 3292.5457,-23.733 3293.3582,-16.7803"/>
</g>
<!-- Node48 -->
<g id="node29" class="node">
<title>Node48</title>
<g id="a_node29"><a xlink:href="EvolvingStellarQuantity_8h.html" target="_top" xlink:title="Declares a class implementing the intepolation of a single stellar quantity from stellar evolution tr...">
<polygon fill="#ffffff" stroke="#000000" points="1999.458,-327.5 1999.458,-347.5 2148.6416,-347.5 2148.6416,-327.5 1999.458,-327.5"/>
<text text-anchor="middle" x="2074.0498" y="-333.9" font-family="Helvetica,sans-Serif" font-size="12.00" fill="#000000">EvolvingStellarQuantity.h</text>
</a>
</g>
</g>
<!-- Node47&#45;&gt;Node48 -->
<g id="edge64" class="edge">
<title>Node47&#45;&gt;Node48</title>
<path fill="none" stroke="#191970" d="M2999.2608,-402.6424C2836.5209,-391.1842 2355.1477,-357.2916 2158.8386,-343.4698"/>
<polygon fill="#191970" stroke="#191970" points="2159.0818,-339.9784 2148.8606,-342.7673 2158.5901,-346.9611 2159.0818,-339.9784"/>
</g>
<!-- Node53 -->
<g id="node34" class="node">
<title>Node53</title>
<polygon fill="#ffffff" stroke="#bfbfbf" points="2740.0234,-126.5 2740.0234,-158.5 2852.0762,-158.5 2852.0762,-126.5 2740.0234,-126.5"/>
<text text-anchor="start" x="2748.0234" y="-144.9" font-family="Helvetica,sans-Serif" font-size="12.00" fill="#000000">boost/serialization</text>
<text text-anchor="middle" x="2796.0498" y="-132.9" font-family="Helvetica,sans-Serif" font-size="12.00" fill="#000000">/base_object.hpp</text>
</g>
<!-- Node47&#45;&gt;Node53 -->
<g id="edge122" class="edge">
<title>Node47&#45;&gt;Node53</title>
<path fill="none" stroke="#191970" d="M2999.2937,-398.5973C2946.8257,-389.9419 2872.658,-374.5145 2852.0498,-354 2825.9042,-327.9734 2807.1944,-219.6738 2799.6893,-168.9397"/>
<polygon fill="#191970" stroke="#191970" points="2803.1123,-168.1544 2798.2197,-158.7569 2796.184,-169.1543 2803.1123,-168.1544"/>
</g>
<!-- Node54 -->
<g id="node35" class="node">
<title>Node54</title>
<polygon fill="#ffffff" stroke="#bfbfbf" points="2408.0254,-126.5 2408.0254,-158.5 2518.0742,-158.5 2518.0742,-126.5 2408.0254,-126.5"/>
<text text-anchor="start" x="2416.0254" y="-144.9" font-family="Helvetica,sans-Serif" font-size="12.00" fill="#000000">boost/archive/text</text>
<text text-anchor="middle" x="2463.0498" y="-132.9" font-family="Helvetica,sans-Serif" font-size="12.00" fill="#000000">_oarchive.hpp</text>
</g>
<!-- Node47&#45;&gt;Node54 -->
<g id="edge120" class="edge">
<title>Node47&#45;&gt;Node54</title>
<path fill="none" stroke="#191970" d="M2999.2394,-401.131C2946.0436,-394.5853 2863.789,-380.8892 2797.0498,-354 2733.2522,-328.296 2564.6212,-213.1983 2494.415,-164.4389"/>
<polygon fill="#191970" stroke="#191970" points="2496.1707,-161.3967 2485.9629,-158.5589 2492.173,-167.1429 2496.1707,-161.3967"/>
</g>
<!-- Node55 -->
<g id="node36" class="node">
<title>Node55</title>
<polygon fill="#ffffff" stroke="#bfbfbf" points="2536.0254,-126.5 2536.0254,-158.5 2646.0742,-158.5 2646.0742,-126.5 2536.0254,-126.5"/>
<text text-anchor="start" x="2544.0254" y="-144.9" font-family="Helvetica,sans-Serif" font-size="12.00" fill="#000000">boost/archive/text</text>
<text text-anchor="middle" x="2591.0498" y="-132.9" font-family="Helvetica,sans-Serif" font-size="12.00" fill="#000000">_iarchive.hpp</text>
</g>
<!-- Node47&#45;&gt;Node55 -->
<g id="edge121" class="edge">
<title>Node47&#45;&gt;Node55</title>
<path fill="none" stroke="#191970" d="M2999.1555,-398.6379C2941.621,-389.5437 2855.918,-373.3183 2829.0498,-354 2785.7882,-322.8947 2803.617,-289.7864 2766.0498,-252 2727.8471,-213.5744 2673.7311,-182.3438 2635.8221,-163.212"/>
<polygon fill="#191970" stroke="#191970" points="2637.0665,-159.9222 2626.553,-158.6116 2633.9545,-166.1925 2637.0665,-159.9222"/>
</g>
<!-- Node32 -->
<g id="node41" class="node">
<title>Node32</title>
<polygon fill="#ffffff" stroke="#bfbfbf" points="2516.0459,-258.5 2516.0459,-278.5 2572.0537,-278.5 2572.0537,-258.5 2516.0459,-258.5"/>
<text text-anchor="middle" x="2544.0498" y="-264.9" font-family="Helvetica,sans-Serif" font-size="12.00" fill="#000000">fstream</text>
</g>
<!-- Node47&#45;&gt;Node32 -->
<g id="edge119" class="edge">
<title>Node47&#45;&gt;Node32</title>
<path fill="none" stroke="#191970" d="M2999.155,-401.5912C2935.3713,-394.9272 2827.4487,-380.6654 2738.0498,-354 2705.6974,-344.3501 2620.0891,-304.6242 2574.1657,-282.8831"/>
<polygon fill="#191970" stroke="#191970" points="2575.5368,-279.6597 2565.0019,-278.534 2572.5355,-285.9836 2575.5368,-279.6597"/>
</g>
<!-- Node64 -->
<g id="node42" class="node">
<title>Node64</title>
<g id="a_node42"><a xlink:href="InterpolationQuantities_8h.html" target="_top" xlink:title="Defines constant to serve as identifier of the various quantities handled by the stellar evolution in...">
<polygon fill="#ffffff" stroke="#ff0000" points="3288.0078,-258.5 3288.0078,-278.5 3434.0918,-278.5 3434.0918,-258.5 3288.0078,-258.5"/>
<text text-anchor="middle" x="3361.0498" y="-264.9" font-family="Helvetica,sans-Serif" font-size="12.00" fill="#000000">InterpolationQuantities.h</text>
</a>
</g>
</g>
<!-- Node47&#45;&gt;Node64 -->
<g id="edge106" class="edge">
<title>Node47&#45;&gt;Node64</title>
<path fill="none" stroke="#191970" d="M3108.8014,-404.4798C3271.7561,-398.2046 3743.7341,-378.0218 3766.0498,-354 3776.0321,-343.2545 3775.7312,-332.0174 3766.0498,-321 3745.2014,-297.2746 3557.1625,-281.142 3444.7776,-273.5267"/>
<polygon fill="#191970" stroke="#191970" points="3444.6919,-270.0133 3434.4807,-272.8385 3444.225,-276.9977 3444.6919,-270.0133"/>
</g>
<!-- Node65 -->
<g id="node43" class="node">
<title>Node65</title>
<g id="a_node43"><a xlink:href="ThreadedInterpolation_8h.html" target="_top" xlink:title="Declaration of a class that handles multithreaded stellar evolution interpolation. ">
<polygon fill="#ffffff" stroke="#ff0000" points="2894.3379,-327.5 2894.3379,-347.5 3037.7617,-347.5 3037.7617,-327.5 2894.3379,-327.5"/>
<text text-anchor="middle" x="2966.0498" y="-333.9" font-family="Helvetica,sans-Serif" font-size="12.00" fill="#000000">ThreadedInterpolation.h</text>
</a>
</g>
</g>
<!-- Node47&#45;&gt;Node65 -->
<g id="edge108" class="edge">
<title>Node47&#45;&gt;Node65</title>
<path fill="none" stroke="#191970" d="M3033.6396,-390.4966C3019.6801,-379.551 3001.2228,-365.0789 2987.1236,-354.0238"/>
<polygon fill="#191970" stroke="#191970" points="2989.0163,-351.0602 2978.9872,-347.6441 2984.697,-356.5688 2989.0163,-351.0602"/>
</g>
<!-- Node67 -->
<g id="node44" class="node">
<title>Node67</title>
<g id="a_node44"><a xlink:href="StellarZone_8h.html" target="_top" xlink:title="Defines tags for the stellar zone. ">
<polygon fill="#ffffff" stroke="#000000" points="3169.6904,-327.5 3169.6904,-347.5 3296.4092,-347.5 3296.4092,-327.5 3169.6904,-327.5"/>
<text text-anchor="middle" x="3233.0498" y="-333.9" font-family="Helvetica,sans-Serif" font-size="12.00" fill="#000000">../Core/StellarZone.h</text>
</a>
</g>
</g>
<!-- Node47&#45;&gt;Node67 -->
<g id="edge113" class="edge">
<title>Node47&#45;&gt;Node67</title>
<path fill="none" stroke="#191970" d="M3095.5659,-390.4966C3126.4646,-378.5859 3168.1965,-362.4993 3197.5508,-351.184"/>
<polygon fill="#191970" stroke="#191970" points="3198.9259,-354.405 3206.9977,-347.5424 3196.4081,-347.8735 3198.9259,-354.405"/>
</g>
<!-- Node68 -->
<g id="node45" class="node">
<title>Node68</title>
<polygon fill="#ffffff" stroke="#bfbfbf" points="3314.0234,-321.5 3314.0234,-353.5 3426.0762,-353.5 3426.0762,-321.5 3314.0234,-321.5"/>
<text text-anchor="start" x="3322.0234" y="-339.9" font-family="Helvetica,sans-Serif" font-size="12.00" fill="#000000">boost/serialization</text>
<text text-anchor="middle" x="3370.0498" y="-327.9" font-family="Helvetica,sans-Serif" font-size="12.00" fill="#000000">/list.hpp</text>
</g>
<!-- Node47&#45;&gt;Node68 -->
<g id="edge123" class="edge">
<title>Node47&#45;&gt;Node68</title>
<path fill="none" stroke="#191970" d="M3109.0363,-395.6968C3157.7982,-385.9583 3231.1819,-370.9177 3303.9235,-354.2153"/>
<polygon fill="#191970" stroke="#191970" points="3304.7582,-357.6147 3313.7152,-351.9558 3303.1842,-350.794 3304.7582,-357.6147"/>
</g>
<!-- Node69 -->
<g id="node46" class="node">
<title>Node69</title>
<polygon fill="#ffffff" stroke="#bfbfbf" points="3444.0234,-321.5 3444.0234,-353.5 3556.0762,-353.5 3556.0762,-321.5 3444.0234,-321.5"/>
<text text-anchor="start" x="3452.0234" y="-339.9" font-family="Helvetica,sans-Serif" font-size="12.00" fill="#000000">boost/serialization</text>
<text text-anchor="middle" x="3500.0498" y="-327.9" font-family="Helvetica,sans-Serif" font-size="12.00" fill="#000000">/valarray.hpp</text>
</g>
<!-- Node47&#45;&gt;Node69 -->
<g id="edge124" class="edge">
<title>Node47&#45;&gt;Node69</title>
<path fill="none" stroke="#191970" d="M3108.9423,-400.8848C3181.3091,-393.0507 3312.7131,-377.3378 3433.9412,-354.101"/>
<polygon fill="#191970" stroke="#191970" points="3434.6152,-357.5356 3443.7665,-352.1966 3433.2832,-350.6635 3434.6152,-357.5356"/>
</g>
<!-- Node70 -->
<g id="node47" class="node">
<title>Node70</title>
<polygon fill="#ffffff" stroke="#bfbfbf" points="3574.0234,-321.5 3574.0234,-353.5 3686.0762,-353.5 3686.0762,-321.5 3574.0234,-321.5"/>
<text text-anchor="start" x="3582.0234" y="-339.9" font-family="Helvetica,sans-Serif" font-size="12.00" fill="#000000">boost/serialization</text>
<text text-anchor="middle" x="3630.0498" y="-327.9" font-family="Helvetica,sans-Serif" font-size="12.00" fill="#000000">/vector.hpp</text>
</g>
<!-- Node47&#45;&gt;Node70 -->
<g id="edge125" class="edge">
<title>Node47&#45;&gt;Node70</title>
<path fill="none" stroke="#191970" d="M3108.8645,-403.5056C3201.0262,-397.8955 3392.9136,-383.7467 3563.8581,-354.0637"/>
<polygon fill="#191970" stroke="#191970" points="3564.5463,-357.4964 3573.789,-352.3174 3563.3339,-350.6022 3564.5463,-357.4964"/>
</g>
<!-- Node48&#45;&gt;Node2 -->
<g id="edge65" class="edge">
<title>Node48&#45;&gt;Node2</title>
<path fill="none" stroke="#191970" d="M1999.3317,-333.8735C1880.028,-327.3719 1652.2005,-311.8426 1576.0498,-285 1522.6822,-266.1883 1496.13,-265.6854 1469.0498,-216 1464.5832,-207.8049 1468.3882,-204.3099 1469.0498,-195 1469.4675,-189.1223 1483.4328,-95.8602 1484.0498,-90 1485.6879,-74.4433 1486.902,-56.975 1487.7234,-42.9723"/>
<polygon fill="#191970" stroke="#191970" points="1491.24,-42.7664 1488.2985,-32.5882 1484.2508,-42.3793 1491.24,-42.7664"/>
</g>
<!-- Node48&#45;&gt;Node11 -->
<g id="edge101" class="edge">
<title>Node48&#45;&gt;Node11</title>
<path fill="none" stroke="#191970" d="M2148.7906,-331.4885C2212.2096,-324.6523 2296.1443,-310.9044 2317.0498,-285 2326.2608,-273.5865 2321.3,-266.0373 2317.0498,-252 2311.4774,-233.5955 2298.6222,-234.4045 2293.0498,-216 2280.9393,-176.0017 2290.6463,-126.5754 2297.919,-99.527"/>
<polygon fill="#191970" stroke="#191970" points="2301.3434,-100.2812 2300.7229,-89.7045 2294.6123,-98.3596 2301.3434,-100.2812"/>
</g>
<!-- Node48&#45;&gt;Node12 -->
<g id="edge100" class="edge">
<title>Node48&#45;&gt;Node12</title>
<path fill="none" stroke="#191970" d="M2075.2103,-327.4523C2077.544,-303.1093 2080.7288,-239.6921 2057.0498,-195 2050.2567,-182.1785 1980.4393,-124.8889 1944.7769,-96.1106"/>
<polygon fill="#191970" stroke="#191970" points="1946.893,-93.3208 1936.9085,-89.7765 1942.5035,-98.7736 1946.893,-93.3208"/>
</g>
<!-- Node48&#45;&gt;Node14 -->
<g id="edge105" class="edge">
<title>Node48&#45;&gt;Node14</title>
<path fill="none" stroke="#191970" d="M1999.4473,-336.5847C1839.6906,-333.8897 1475.7412,-323.543 1436.0498,-285 1385.4556,-235.8696 1398.9663,-141.1327 1407.9905,-99.7133"/>
<polygon fill="#191970" stroke="#191970" points="1411.4033,-100.4895 1410.2534,-89.9573 1404.5843,-98.9078 1411.4033,-100.4895"/>
</g>
<!-- Node48&#45;&gt;Node15 -->
<g id="edge103" class="edge">
<title>Node48&#45;&gt;Node15</title>
<path fill="none" stroke="#191970" d="M2148.7173,-332.0088C2220.7935,-325.3948 2332.4609,-311.6693 2426.0498,-285 2444.669,-279.6942 2569.0495,-225.2638 2586.0498,-216 2625.9904,-194.2357 2649.6414,-199.1325 2671.0498,-159 2692.0224,-119.6845 2681.0296,-65.2047 2672.6547,-36.3237"/>
<polygon fill="#191970" stroke="#191970" points="2675.9438,-35.1125 2669.6453,-26.5932 2669.2563,-37.1809 2675.9438,-35.1125"/>
</g>
<!-- Node48&#45;&gt;Node22 -->
<g id="edge99" class="edge">
<title>Node48&#45;&gt;Node22</title>
<path fill="none" stroke="#191970" d="M2148.9001,-329.1116C2209.013,-321.1934 2295.1285,-307.1742 2368.0498,-285 2401.3701,-274.8678 2636.0061,-188.1588 2655.0498,-159 2668.0182,-139.1434 2651.8446,-113.681 2637.4398,-96.994"/>
<polygon fill="#191970" stroke="#191970" points="2639.9791,-94.5844 2630.6459,-89.5701 2634.8151,-99.3102 2639.9791,-94.5844"/>
</g>
<!-- Node48&#45;&gt;Node24 -->
<g id="edge102" class="edge">
<title>Node48&#45;&gt;Node24</title>
<path fill="none" stroke="#191970" d="M2149.1104,-332.2563C2269.6904,-323.4069 2501.1091,-304.5521 2581.0498,-285 2843.5782,-220.7901 3139.7827,-77.2985 3231.4785,-31.1182"/>
<polygon fill="#191970" stroke="#191970" points="3233.0905,-34.2252 3240.4347,-26.5888 3229.9314,-27.9786 3233.0905,-34.2252"/>
</g>
<!-- Node49 -->
<g id="node30" class="node">
<title>Node49</title>
<g id="a_node30"><a xlink:href="AllowedGridGrowth_8h.html" target="_top" xlink:title="Declares &amp; defines a class describing how the mass&#45;[Fe/H] interpolation grid is allowed to grow...">
<polygon fill="#ffffff" stroke="#000000" points="1478.3604,-195.5 1478.3604,-215.5 1607.7393,-215.5 1607.7393,-195.5 1478.3604,-195.5"/>
<text text-anchor="middle" x="1543.0498" y="-201.9" font-family="Helvetica,sans-Serif" font-size="12.00" fill="#000000">AllowedGridGrowth.h</text>
</a>
</g>
</g>
<!-- Node48&#45;&gt;Node49 -->
<g id="edge66" class="edge">
<title>Node48&#45;&gt;Node49</title>
<path fill="none" stroke="#191970" d="M1999.2476,-334.769C1888.4439,-329.7277 1686.806,-316.4481 1622.0498,-285 1593.6211,-271.1939 1569.4655,-242.9047 1555.6045,-224.0679"/>
<polygon fill="#191970" stroke="#191970" points="1558.2961,-221.813 1549.6533,-215.6848 1552.5881,-225.8651 1558.2961,-221.813"/>
</g>
<!-- Node50 -->
<g id="node31" class="node">
<title>Node50</title>
<g id="a_node31"><a xlink:href="RemoveLogDeriv_8h.html" target="_top" xlink:title="Declares a class to switch from logarithmic to linear derivative. ">
<polygon fill="#ffffff" stroke="#ff0000" points="1575.1348,-132.5 1575.1348,-152.5 1692.9648,-152.5 1692.9648,-132.5 1575.1348,-132.5"/>
<text text-anchor="middle" x="1634.0498" y="-138.9" font-family="Helvetica,sans-Serif" font-size="12.00" fill="#000000">RemoveLogDeriv.h</text>
</a>
</g>
</g>
<!-- Node48&#45;&gt;Node50 -->
<g id="edge68" class="edge">
<title>Node48&#45;&gt;Node50</title>
<path fill="none" stroke="#191970" d="M1999.0939,-333.3884C1906.7107,-327.1915 1756.0516,-313.0694 1708.0498,-285 1663.2754,-258.8178 1644.4953,-195.4191 1637.5758,-162.7329"/>
<polygon fill="#191970" stroke="#191970" points="1640.9431,-161.7124 1635.5998,-152.5637 1634.0716,-163.0477 1640.9431,-161.7124"/>
</g>
<!-- Node57 -->
<g id="node32" class="node">
<title>Node57</title>
<g id="a_node32"><a xlink:href="SumDerivatives_8h.html" target="_top" xlink:title="Declares &amp; defines a class for the derivative of a quantity which is the sum of two other quantities...">
<polygon fill="#ffffff" stroke="#000000" points="1936.0342,-258.5 1936.0342,-278.5 2046.0654,-278.5 2046.0654,-258.5 1936.0342,-258.5"/>
<text text-anchor="middle" x="1991.0498" y="-264.9" font-family="Helvetica,sans-Serif" font-size="12.00" fill="#000000">SumDerivatives.h</text>
</a>
</g>
</g>
<!-- Node48&#45;&gt;Node57 -->
<g id="edge70" class="edge">
<title>Node48&#45;&gt;Node57</title>
<path fill="none" stroke="#191970" d="M2061.8029,-327.3188C2048.5623,-316.3116 2027.2386,-298.5846 2011.4575,-285.4654"/>
<polygon fill="#191970" stroke="#191970" points="2013.2743,-282.4243 2003.347,-278.723 2008.7993,-287.8072 2013.2743,-282.4243"/>
</g>
<!-- Node52 -->
<g id="node33" class="node">
<title>Node52</title>
<g id="a_node33"><a xlink:href="Functions_8h.html" target="_top" xlink:title="A hierarchy of classes representing functions. ">
<polygon fill="#ffffff" stroke="#ff0000" points="2302.0332,-195.5 2302.0332,-215.5 2380.0664,-215.5 2380.0664,-195.5 2302.0332,-195.5"/>
<text text-anchor="middle" x="2341.0498" y="-201.9" font-family="Helvetica,sans-Serif" font-size="12.00" fill="#000000">Functions.h</text>
</a>
</g>
</g>
<!-- Node48&#45;&gt;Node52 -->
<g id="edge90" class="edge">
<title>Node48&#45;&gt;Node52</title>
<path fill="none" stroke="#191970" d="M2148.8446,-333.7232C2221.6653,-328.2945 2324.936,-315.3412 2350.0498,-285 2363.8207,-268.3627 2357.5438,-242.6086 2350.4917,-224.9493"/>
<polygon fill="#191970" stroke="#191970" points="2353.6197,-223.3674 2346.3956,-215.6173 2347.21,-226.1808 2353.6197,-223.3674"/>
</g>
<!-- Node58 -->
<g id="node37" class="node">
<title>Node58</title>
<g id="a_node37"><a xlink:href="InterpolatedDerivatives_8h_source.html" target="_top" xlink:title="InterpolatedDerivatives.h">
<polygon fill="#ffffff" stroke="#ff0000" points="1731.6807,-258.5 1731.6807,-278.5 1880.4189,-278.5 1880.4189,-258.5 1731.6807,-258.5"/>
<text text-anchor="middle" x="1806.0498" y="-264.9" font-family="Helvetica,sans-Serif" font-size="12.00" fill="#000000">InterpolatedDerivatives.h</text>
</a>
</g>
</g>
<!-- Node48&#45;&gt;Node58 -->
<g id="edge83" class="edge">
<title>Node48&#45;&gt;Node58</title>
<path fill="none" stroke="#191970" d="M2035.0803,-327.4668C1987.445,-315.2025 1906.7999,-294.4394 1855.0193,-281.1078"/>
<polygon fill="#191970" stroke="#191970" points="1855.6232,-277.6492 1845.0663,-278.5453 1853.8778,-284.4282 1855.6232,-277.6492"/>
</g>
<!-- Node59 -->
<g id="node38" class="node">
<title>Node59</title>
<g id="a_node38"><a xlink:href="mass__feh__interp_8h.html" target="_top" xlink:title="Define a single function performing mass&#45;[Fe/H] interpolations. ">
<polygon fill="#ffffff" stroke="#ff0000" points="1663.6875,-195.5 1663.6875,-215.5 1778.4121,-215.5 1778.4121,-195.5 1663.6875,-195.5"/>
<text text-anchor="middle" x="1721.0498" y="-201.9" font-family="Helvetica,sans-Serif" font-size="12.00" fill="#000000">mass_feh_interp.h</text>
</a>
</g>
</g>
<!-- Node48&#45;&gt;Node59 -->
<g id="edge89" class="edge">
<title>Node48&#45;&gt;Node59</title>
<path fill="none" stroke="#191970" d="M1999.1466,-331.3867C1901.5316,-322.6579 1741.0788,-305.4016 1723.0498,-285 1708.9011,-268.9893 1711.1279,-243.2832 1715.1021,-225.4549"/>
<polygon fill="#191970" stroke="#191970" points="1718.4928,-226.3226 1717.6023,-215.7653 1711.7148,-224.5736 1718.4928,-226.3226"/>
</g>
<!-- Node61 -->
<g id="node39" class="node">
<title>Node61</title>
<g id="a_node39"><a xlink:href="InterpSolutionIterator_8h_source.html" target="_top" xlink:title="../Core/InterpSolutionIterator.h">
<polygon fill="#ffffff" stroke="#ff0000" points="1871.668,-195.5 1871.668,-215.5 2048.4316,-215.5 2048.4316,-195.5 1871.668,-195.5"/>
<text text-anchor="middle" x="1960.0498" y="-201.9" font-family="Helvetica,sans-Serif" font-size="12.00" fill="#000000">../Core/InterpSolutionIterator.h</text>
</a>
</g>
</g>
<!-- Node48&#45;&gt;Node61 -->
<g id="edge91" class="edge">
<title>Node48&#45;&gt;Node61</title>
<path fill="none" stroke="#191970" d="M2029.1102,-327.4491C1990.4852,-317.7923 1939.1481,-302.1675 1927.0498,-285 1913.5117,-265.7894 1929.0608,-240.1793 1943.0686,-223.2823"/>
<polygon fill="#191970" stroke="#191970" points="1945.7133,-225.5749 1949.6871,-215.7535 1940.456,-220.9532 1945.7133,-225.5749"/>
</g>
<!-- Node63 -->
<g id="node40" class="node">
<title>Node63</title>
<g id="a_node40"><a xlink:href="InterpolatingFunctionALGLIB_8h_source.html" target="_top" xlink:title="../Core/InterpolatingFunction\lALGLIB.h">
<polygon fill="#ffffff" stroke="#ff0000" points="2140.3408,-252.5 2140.3408,-284.5 2307.7588,-284.5 2307.7588,-252.5 2140.3408,-252.5"/>
<text text-anchor="start" x="2148.3408" y="-270.9" font-family="Helvetica,sans-Serif" font-size="12.00" fill="#000000">../Core/InterpolatingFunction</text>
<text text-anchor="middle" x="2224.0498" y="-258.9" font-family="Helvetica,sans-Serif" font-size="12.00" fill="#000000">ALGLIB.h</text>
</a>
</g>
</g>
<!-- Node48&#45;&gt;Node63 -->
<g id="edge95" class="edge">
<title>Node48&#45;&gt;Node63</title>
<path fill="none" stroke="#191970" d="M2095.8611,-327.4668C2117.8346,-317.359 2152.3578,-301.4783 2180.0435,-288.7429"/>
<polygon fill="#191970" stroke="#191970" points="2181.5202,-291.9162 2189.1424,-284.5574 2178.5948,-285.5568 2181.5202,-291.9162"/>
</g>
<!-- Node48&#45;&gt;Node32 -->
<g id="edge104" class="edge">
<title>Node48&#45;&gt;Node32</title>
<path fill="none" stroke="#191970" d="M2148.9418,-334.0355C2235.214,-328.7345 2380.6789,-315.7577 2502.0498,-285 2505.2393,-284.1917 2508.5128,-283.2045 2511.7568,-282.1189"/>
<polygon fill="#191970" stroke="#191970" points="2513.0891,-285.3586 2521.287,-278.6471 2510.693,-278.7815 2513.0891,-285.3586"/>
</g>
<!-- Node49&#45;&gt;Node2 -->
<g id="edge67" class="edge">
<title>Node49&#45;&gt;Node2</title>
<path fill="none" stroke="#191970" d="M1542.8799,-195.2126C1542.197,-171.9705 1538.8036,-113.9315 1522.0498,-69 1518.4208,-59.2674 1512.8397,-49.4136 1507.2934,-40.9124"/>
<polygon fill="#191970" stroke="#191970" points="1510.1449,-38.8817 1501.6096,-32.6047 1504.3676,-42.8343 1510.1449,-38.8817"/>
</g>
<!-- Node50&#45;&gt;Node2 -->
<g id="edge69" class="edge">
<title>Node50&#45;&gt;Node2</title>
<path fill="none" stroke="#191970" d="M1624.438,-132.0348C1610.729,-117.3273 1584.5062,-89.9937 1560.0498,-69 1547.7632,-58.4531 1533.5287,-47.672 1521.0452,-38.6454"/>
<polygon fill="#191970" stroke="#191970" points="1522.8989,-35.6683 1512.728,-32.701 1518.8286,-41.3633 1522.8989,-35.6683"/>
</g>
<!-- Node57&#45;&gt;Node2 -->
<g id="edge71" class="edge">
<title>Node57&#45;&gt;Node2</title>
<path fill="none" stroke="#191970" d="M1957.3496,-258.4335C1930.5487,-249.5657 1892.7526,-235.0885 1863.0498,-216 1778.7373,-161.8165 1782.2301,-112.726 1692.0498,-69 1657.7681,-52.3777 1617.5875,-40.5719 1582.0611,-32.4225"/>
<polygon fill="#191970" stroke="#191970" points="1582.6948,-28.978 1572.1731,-30.22 1581.1728,-35.8105 1582.6948,-28.978"/>
</g>
<!-- Node57&#45;&gt;Node52 -->
<g id="edge72" class="edge">
<title>Node57&#45;&gt;Node52</title>
<path fill="none" stroke="#191970" d="M2046.1223,-258.5869C2113.7338,-246.4169 2227.3629,-225.9636 2292.0634,-214.3176"/>
<polygon fill="#191970" stroke="#191970" points="2292.791,-217.7429 2302.0128,-212.5267 2291.5509,-210.8536 2292.791,-217.7429"/>
</g>
<!-- Node52&#45;&gt;Node2 -->
<g id="edge73" class="edge">
<title>Node52&#45;&gt;Node2</title>
<path fill="none" stroke="#191970" d="M2334.6128,-195.2012C2317.3361,-168.6111 2266.9637,-97.7344 2204.0498,-69 2148.8391,-43.7839 1762.6463,-26.5144 1581.9175,-19.7217"/>
<polygon fill="#191970" stroke="#191970" points="1582.0147,-16.223 1571.8912,-19.3477 1581.7537,-23.2181 1582.0147,-16.223"/>
</g>
<!-- Node52&#45;&gt;Node10 -->
<g id="edge74" class="edge">
<title>Node52&#45;&gt;Node10</title>
<path fill="none" stroke="#191970" d="M2301.941,-203.2763C2138.5051,-193.9835 1508.9958,-158.1901 1300.5318,-146.337"/>
<polygon fill="#191970" stroke="#191970" points="1300.5209,-142.8308 1290.3383,-145.7574 1300.1235,-149.8195 1300.5209,-142.8308"/>
</g>
<!-- Node52&#45;&gt;Node11 -->
<g id="edge78" class="edge">
<title>Node52&#45;&gt;Node11</title>
<path fill="none" stroke="#191970" d="M2338.0219,-195.1889C2331.8664,-174.2266 2317.8019,-126.3315 2309.8341,-99.1978"/>
<polygon fill="#191970" stroke="#191970" points="2313.1919,-98.2101 2307.0161,-89.6014 2306.4755,-100.1825 2313.1919,-98.2101"/>
</g>
<!-- Node52&#45;&gt;Node12 -->
<g id="edge77" class="edge">
<title>Node52&#45;&gt;Node12</title>
<path fill="none" stroke="#191970" d="M2307.6298,-195.4019C2231.3626,-172.3571 2044.7951,-115.9842 1963.2609,-91.348"/>
<polygon fill="#191970" stroke="#191970" points="1963.9775,-87.9082 1953.3925,-88.3661 1961.9527,-94.609 1963.9775,-87.9082"/>
</g>
<!-- Node52&#45;&gt;Node13 -->
<g id="edge76" class="edge">
<title>Node52&#45;&gt;Node13</title>
<path fill="none" stroke="#191970" d="M2301.8125,-200.3821C2201.8498,-187.3948 1929.4269,-152.3233 1702.0498,-126 1551.6895,-108.5929 1371.7485,-90.0405 1299.9277,-82.7276"/>
<polygon fill="#191970" stroke="#191970" points="1300.0432,-79.2214 1289.7404,-81.6919 1299.3351,-86.1855 1300.0432,-79.2214"/>
</g>
<!-- Node52&#45;&gt;Node15 -->
<g id="edge79" class="edge">
<title>Node52&#45;&gt;Node15</title>
<path fill="none" stroke="#191970" d="M2341.0255,-195.3023C2341.5388,-178.6558 2344.9519,-145.5443 2363.0498,-126 2433.0686,-50.3855 2559.2466,-26.893 2624.4808,-19.664"/>
<polygon fill="#191970" stroke="#191970" points="2625.2003,-23.1085 2634.7888,-18.6017 2624.4826,-16.1454 2625.2003,-23.1085"/>
</g>
<!-- Node52&#45;&gt;Node22 -->
<g id="edge75" class="edge">
<title>Node52&#45;&gt;Node22</title>
<path fill="none" stroke="#191970" d="M2345.4433,-195.3435C2353.4407,-178.1395 2372.077,-143.4392 2399.0498,-126 2429.2086,-106.5009 2529.3743,-91.0971 2583.9094,-83.9125"/>
<polygon fill="#191970" stroke="#191970" points="2584.3853,-87.3802 2593.854,-82.6269 2583.4878,-80.438 2584.3853,-87.3802"/>
</g>
<!-- Node52&#45;&gt;Node53 -->
<g id="edge80" class="edge">
<title>Node52&#45;&gt;Node53</title>
<path fill="none" stroke="#191970" d="M2380.2367,-200.0741C2458.2045,-189.2786 2633.5298,-165.0028 2729.7463,-151.6805"/>
<polygon fill="#191970" stroke="#191970" points="2730.2309,-155.1469 2739.6564,-150.3083 2729.2708,-148.213 2730.2309,-155.1469"/>
</g>
<!-- Node52&#45;&gt;Node54 -->
<g id="edge81" class="edge">
<title>Node52&#45;&gt;Node54</title>
<path fill="none" stroke="#191970" d="M2360.6512,-195.378C2377.3146,-186.7731 2401.7817,-174.1384 2422.621,-163.3772"/>
<polygon fill="#191970" stroke="#191970" points="2424.3177,-166.4402 2431.5971,-158.742 2421.1059,-160.2205 2424.3177,-166.4402"/>
</g>
<!-- Node52&#45;&gt;Node55 -->
<g id="edge82" class="edge">
<title>Node52&#45;&gt;Node55</title>
<path fill="none" stroke="#191970" d="M2380.2603,-195.7861C2415.8578,-186.9474 2470.0646,-173.439 2526.1491,-159.2202"/>
<polygon fill="#191970" stroke="#191970" points="2527.0666,-162.5984 2535.8984,-156.7461 2525.3447,-155.8135 2527.0666,-162.5984"/>
</g>
<!-- Node58&#45;&gt;Node2 -->
<g id="edge84" class="edge">
<title>Node58&#45;&gt;Node2</title>
<path fill="none" stroke="#191970" d="M1805.0298,-258.4161C1803.2012,-243.6962 1798.4318,-215.8151 1787.0498,-195 1749.2044,-125.7892 1730.3846,-108.4053 1662.0498,-69 1636.511,-54.273 1606.4243,-43.2854 1578.5647,-35.2757"/>
<polygon fill="#191970" stroke="#191970" points="1579.3865,-31.8715 1568.8144,-32.5655 1577.5118,-38.6158 1579.3865,-31.8715"/>
</g>
<!-- Node58&#45;&gt;Node52 -->
<g id="edge88" class="edge">
<title>Node58&#45;&gt;Node52</title>
<path fill="none" stroke="#191970" d="M1877.3531,-258.491C1893.6738,-256.2795 1910.9547,-254.001 1927.0498,-252 2058.7635,-235.6249 2214.3794,-218.832 2291.9473,-210.6348"/>
<polygon fill="#191970" stroke="#191970" points="2292.3364,-214.1133 2301.914,-209.5835 2291.602,-207.1519 2292.3364,-214.1133"/>
</g>
<!-- Node58&#45;&gt;Node59 -->
<g id="edge85" class="edge">
<title>Node58&#45;&gt;Node59</title>
<path fill="none" stroke="#191970" d="M1792.3931,-258.378C1779.0096,-248.4584 1758.4008,-233.1837 1742.768,-221.597"/>
<polygon fill="#191970" stroke="#191970" points="1744.7907,-218.7396 1734.6726,-215.5969 1740.6224,-224.3634 1744.7907,-218.7396"/>
</g>
<!-- Node59&#45;&gt;Node2 -->
<g id="edge86" class="edge">
<title>Node59&#45;&gt;Node2</title>
<path fill="none" stroke="#191970" d="M1721.2155,-195.3129C1720.961,-178.9743 1718.255,-146.6545 1702.0498,-126 1666.3926,-80.5527 1606.7058,-52.1838 1559.5722,-35.7417"/>
<polygon fill="#191970" stroke="#191970" points="1560.6156,-32.3998 1550.0213,-32.5115 1558.3729,-39.0309 1560.6156,-32.3998"/>
</g>
<!-- Node59&#45;&gt;Node9 -->
<g id="edge87" class="edge">
<title>Node59&#45;&gt;Node9</title>
<path fill="none" stroke="#191970" d="M1663.5816,-199.4823C1648.4522,-197.9571 1632.1412,-196.3653 1617.0498,-195 1417.2269,-176.9218 1360.0474,-213.8446 1167.0498,-159 1117.4371,-144.9014 1065.1376,-114.3052 1035.7493,-95.4492"/>
<polygon fill="#191970" stroke="#191970" points="1037.3338,-92.3041 1027.0452,-89.7754 1033.5113,-98.1683 1037.3338,-92.3041"/>
</g>
<!-- Node61&#45;&gt;Node2 -->
<g id="edge92" class="edge">
<title>Node61&#45;&gt;Node2</title>
<path fill="none" stroke="#191970" d="M1953.5389,-195.4939C1936.0964,-169.6102 1885.4479,-100.2919 1824.0498,-69 1782.8465,-48.0005 1666.0381,-33.0023 1581.9453,-24.5487"/>
<polygon fill="#191970" stroke="#191970" points="1582.1557,-21.0525 1571.8596,-23.5503 1581.4661,-28.0185 1582.1557,-21.0525"/>
</g>
<!-- Node61&#45;&gt;Node10 -->
<g id="edge93" class="edge">
<title>Node61&#45;&gt;Node10</title>
<path fill="none" stroke="#191970" d="M1871.6322,-197.8379C1724.4428,-185.0829 1432.339,-159.7699 1300.4532,-148.341"/>
<polygon fill="#191970" stroke="#191970" points="1300.3617,-144.8201 1290.0969,-147.4436 1299.7573,-151.7939 1300.3617,-144.8201"/>
</g>
<!-- Node61&#45;&gt;Node12 -->
<g id="edge94" class="edge">
<title>Node61&#45;&gt;Node12</title>
<path fill="none" stroke="#191970" d="M1957.1038,-195.1889C1951.1411,-174.3194 1937.5512,-126.7548 1929.781,-99.5592"/>
<polygon fill="#191970" stroke="#191970" points="1933.0485,-98.2551 1926.9359,-89.6014 1926.3179,-100.1782 1933.0485,-98.2551"/>
</g>
<!-- Node63&#45;&gt;Node2 -->
<g id="edge96" class="edge">
<title>Node63&#45;&gt;Node2</title>
<path fill="none" stroke="#191970" d="M2209.9002,-252.2281C2173.6247,-211.8851 2072.3679,-107.7204 1962.0498,-69 1894.0625,-45.1372 1699.1551,-29.4206 1581.8315,-21.8268"/>
<polygon fill="#191970" stroke="#191970" points="1581.979,-18.3292 1571.7759,-21.1835 1581.532,-25.3149 1581.979,-18.3292"/>
</g>
<!-- Node63&#45;&gt;Node52 -->
<g id="edge97" class="edge">
<title>Node63&#45;&gt;Node52</title>
<path fill="none" stroke="#191970" d="M2253.8766,-252.4394C2272.2105,-242.5673 2295.5362,-230.0073 2313.4448,-220.3643"/>
<polygon fill="#191970" stroke="#191970" points="2315.1155,-223.4398 2322.2609,-215.6171 2311.7968,-217.2765 2315.1155,-223.4398"/>
</g>
<!-- Node63&#45;&gt;Node61 -->
<g id="edge98" class="edge">
<title>Node63&#45;&gt;Node61</title>
<path fill="none" stroke="#191970" d="M2156.7484,-252.4394C2111.7278,-241.6959 2053.3673,-227.7689 2011.9388,-217.8826"/>
<polygon fill="#191970" stroke="#191970" points="2012.5928,-214.4405 2002.0535,-215.5236 2010.9679,-221.2493 2012.5928,-214.4405"/>
</g>
<!-- Node64&#45;&gt;Node24 -->
<g id="edge107" class="edge">
<title>Node64&#45;&gt;Node24</title>
<path fill="none" stroke="#191970" d="M3356.9654,-258.3092C3341.7365,-220.3123 3288.1025,-86.4929 3267.861,-35.9894"/>
<polygon fill="#191970" stroke="#191970" points="3271.0435,-34.5216 3264.0744,-26.5415 3264.5459,-37.1259 3271.0435,-34.5216"/>
</g>
<!-- Node65&#45;&gt;Node2 -->
<g id="edge109" class="edge">
<title>Node65&#45;&gt;Node2</title>
<path fill="none" stroke="#191970" d="M2970.5017,-327.0785C2984.1758,-293.2546 3021.619,-185.3072 2970.0498,-126 2876.6953,-18.6375 2796.4319,-84.9021 2655.0498,-69 2447.8502,-45.695 1820.2773,-25.932 1582.0912,-19.0767"/>
<polygon fill="#191970" stroke="#191970" points="1582.1673,-15.5775 1572.071,-18.7893 1581.9665,-22.5746 1582.1673,-15.5775"/>
</g>
<!-- Node65&#45;&gt;Node11 -->
<g id="edge112" class="edge">
<title>Node65&#45;&gt;Node11</title>
<path fill="none" stroke="#191970" d="M2966.1709,-327.3884C2965.9805,-292.6362 2960.2031,-177.4123 2894.0498,-126 2871.4263,-108.4177 2440.1833,-86.1668 2329.6752,-80.7362"/>
<polygon fill="#191970" stroke="#191970" points="2329.6128,-77.2291 2319.4539,-80.2371 2329.2713,-84.2208 2329.6128,-77.2291"/>
</g>
<!-- Node65&#45;&gt;Node63 -->
<g id="edge111" class="edge">
<title>Node65&#45;&gt;Node63</title>
<path fill="none" stroke="#191970" d="M2894.2295,-330.8213C2759.395,-318.2828 2468.449,-291.2271 2318.1612,-277.2516"/>
<polygon fill="#191970" stroke="#191970" points="2318.3092,-273.7503 2308.0281,-276.3093 2317.661,-280.7203 2318.3092,-273.7503"/>
</g>
<!-- Node65&#45;&gt;Node64 -->
<g id="edge110" class="edge">
<title>Node65&#45;&gt;Node64</title>
<path fill="none" stroke="#191970" d="M3023.4862,-327.4668C3095.1576,-314.947 3217.5299,-293.5706 3293.5884,-280.2844"/>
<polygon fill="#191970" stroke="#191970" points="3294.2956,-283.714 3303.5441,-278.5453 3293.091,-276.8184 3294.2956,-283.714"/>
</g>
<!-- Node71&#45;&gt;Node2 -->
<g id="edge127" class="edge">
<title>Node71&#45;&gt;Node2</title>
<path fill="none" stroke="#191970" d="M1910.1915,-461.9559C1753.9869,-443.1746 1374.0498,-391.9012 1374.0498,-337.5 1374.0498,-337.5 1374.0498,-337.5 1374.0498,-268.5 1374.0498,-244.1285 1446.1587,-100.3418 1476.177,-41.5406"/>
<polygon fill="#191970" stroke="#191970" points="1479.3401,-43.0423 1480.7793,-32.5457 1473.1085,-39.8538 1479.3401,-43.0423"/>
</g>
<!-- Node71&#45;&gt;Node48 -->
<g id="edge133" class="edge">
<title>Node71&#45;&gt;Node48</title>
<path fill="none" stroke="#191970" d="M1983.7397,-459.1422C2000.2703,-436.8765 2039.3819,-384.1955 2060.2963,-356.0251"/>
<polygon fill="#191970" stroke="#191970" points="2063.2448,-357.9252 2066.3956,-347.8097 2057.6244,-353.7525 2063.2448,-357.9252"/>
</g>
<!-- Node71&#45;&gt;Node52 -->
<g id="edge132" class="edge">
<title>Node71&#45;&gt;Node52</title>
<path fill="none" stroke="#191970" d="M2029.0846,-459.4455C2076.9662,-450.2741 2149.3183,-436.1819 2212.0498,-423 2390.3456,-385.5342 2523.7486,-451.3503 2598.0498,-285 2604.0312,-271.6084 2607.4523,-263.2563 2598.0498,-252 2572.1479,-220.991 2457.759,-210.6208 2390.6373,-207.1817"/>
<polygon fill="#191970" stroke="#191970" points="2390.4471,-203.6687 2380.2914,-206.6871 2390.1128,-210.6607 2390.4471,-203.6687"/>
</g>
<!-- Node72 -->
<g id="node49" class="node">
<title>Node72</title>
<g id="a_node49"><a xlink:href="EvolvingStellarZone_8h.html" target="_top" xlink:title="Declares a base class for all stellar zones. ">
<polygon fill="#ffffff" stroke="#ff0000" points="2070.6846,-396.5 2070.6846,-416.5 2203.415,-416.5 2203.415,-396.5 2070.6846,-396.5"/>
<text text-anchor="middle" x="2137.0498" y="-402.9" font-family="Helvetica,sans-Serif" font-size="12.00" fill="#000000">EvolvingStellarZone.h</text>
</a>
</g>
</g>
<!-- Node71&#45;&gt;Node72 -->
<g id="edge128" class="edge">
<title>Node71&#45;&gt;Node72</title>
<path fill="none" stroke="#191970" d="M2001.9172,-459.378C2028.9102,-448.8155 2071.4203,-432.1811 2101.5454,-420.393"/>
<polygon fill="#191970" stroke="#191970" points="2103.2095,-423.5003 2111.2466,-416.5969 2100.6587,-416.9816 2103.2095,-423.5003"/>
</g>
<!-- Node72&#45;&gt;Node2 -->
<g id="edge129" class="edge">
<title>Node72&#45;&gt;Node2</title>
<path fill="none" stroke="#191970" d="M2169.1408,-396.4099C2230.9275,-375.1602 2356.9365,-321.938 2317.0498,-252 2276.5623,-181.0086 2076.1711,-93.0015 1998.0498,-69 1922.7313,-45.8597 1707.4005,-29.5808 1582.2563,-21.7651"/>
<polygon fill="#191970" stroke="#191970" points="1582.1178,-18.25 1571.9209,-21.1261 1581.6858,-25.2366 1582.1178,-18.25"/>
</g>
<!-- Node72&#45;&gt;Node48 -->
<g id="edge131" class="edge">
<title>Node72&#45;&gt;Node48</title>
<path fill="none" stroke="#191970" d="M2127.7539,-396.3188C2117.89,-385.5154 2102.1157,-368.2389 2090.2097,-355.1989"/>
<polygon fill="#191970" stroke="#191970" points="2092.7112,-352.7479 2083.3838,-347.723 2087.5418,-357.4678 2092.7112,-352.7479"/>
</g>
<!-- Node72&#45;&gt;Node52 -->
<g id="edge130" class="edge">
<title>Node72&#45;&gt;Node52</title>
<path fill="none" stroke="#191970" d="M2203.6882,-403.0757C2271.0758,-397.9483 2377.3706,-385.2498 2464.0498,-354 2520.841,-333.5255 2551.1072,-337.4203 2581.0498,-285 2588.3243,-272.2645 2590.3824,-263.3143 2581.0498,-252 2557.3865,-223.3119 2453.6553,-212.1104 2390.5654,-207.8981"/>
<polygon fill="#191970" stroke="#191970" points="2390.6282,-204.3951 2380.4275,-207.2577 2390.1869,-211.3812 2390.6282,-204.3951"/>
</g>
<!-- Node77&#45;&gt;Node72 -->
<g id="edge135" class="edge">
<title>Node77&#45;&gt;Node72</title>
<path fill="none" stroke="#191970" d="M2137.0498,-459.378C2137.0498,-450.7041 2137.0498,-437.9355 2137.0498,-427.1186"/>
<polygon fill="#191970" stroke="#191970" points="2140.5499,-426.8062 2137.0498,-416.8062 2133.5499,-426.8062 2140.5499,-426.8062"/>
</g>
</g>
</svg>
