<?xml version="1.0" encoding="UTF-8" standalone="no"?>
<!DOCTYPE svg PUBLIC "-//W3C//DTD SVG 1.1//EN"
 "http://www.w3.org/Graphics/SVG/1.1/DTD/svg11.dtd">
<!-- Generated by graphviz version 2.40.1 (20161225.0304)
 -->
<!-- Title: /Users/kpenev/projects/git/poet/poet_src/unit_tests/testEvolve/Oblique20LinearQuantity.h Pages: 1 -->
<svg width="538pt" height="239pt"
 viewBox="0.00 0.00 537.77 239.00" xmlns="http://www.w3.org/2000/svg" xmlns:xlink="http://www.w3.org/1999/xlink">
<g id="graph0" class="graph" transform="scale(1 1) rotate(0) translate(4 235)">
<title>/Users/kpenev/projects/git/poet/poet_src/unit_tests/testEvolve/Oblique20LinearQuantity.h</title>
<polygon fill="#ffffff" stroke="transparent" points="-4,4 -4,-235 533.7686,-235 533.7686,4 -4,4"/>
<!-- Node30 -->
<g id="node1" class="node">
<title>Node30</title>
<polygon fill="#bfbfbf" stroke="#000000" points="108,-174.5 108,-230.5 306.1094,-230.5 306.1094,-174.5 108,-174.5"/>
<text text-anchor="start" x="116" y="-216.9" font-family="Helvetica,sans-Serif" font-size="12.00" fill="#000000">/Users/kpenev/projects</text>
<text text-anchor="start" x="116" y="-204.9" font-family="Helvetica,sans-Serif" font-size="12.00" fill="#000000">/git/poet/poet_src/unit</text>
<text text-anchor="start" x="116" y="-192.9" font-family="Helvetica,sans-Serif" font-size="12.00" fill="#000000">_tests/testEvolve/Oblique20Linear</text>
<text text-anchor="middle" x="207.0547" y="-180.9" font-family="Helvetica,sans-Serif" font-size="12.00" fill="#000000">Quantity.h</text>
</g>
<!-- Node31 -->
<g id="node2" class="node">
<title>Node31</title>
<g id="a_node2"><a xlink:href="Oblique20LinearQuantity_8cpp.html" target="_top" xlink:title="Implements some methods of the Oblique20LinearQuantity class. ">
<polygon fill="#ffffff" stroke="#000000" points="0,-81.5 0,-137.5 198.1094,-137.5 198.1094,-81.5 0,-81.5"/>
<text text-anchor="start" x="8" y="-123.9" font-family="Helvetica,sans-Serif" font-size="12.00" fill="#000000">/Users/kpenev/projects</text>
<text text-anchor="start" x="8" y="-111.9" font-family="Helvetica,sans-Serif" font-size="12.00" fill="#000000">/git/poet/poet_src/unit</text>
<text text-anchor="start" x="8" y="-99.9" font-family="Helvetica,sans-Serif" font-size="12.00" fill="#000000">_tests/testEvolve/Oblique20Linear</text>
<text text-anchor="middle" x="99.0547" y="-87.9" font-family="Helvetica,sans-Serif" font-size="12.00" fill="#000000">Quantity.cpp</text>
</a>
</g>
</g>
<!-- Node30&#45;&gt;Node31 -->
<g id="edge1" class="edge">
<title>Node30&#45;&gt;Node31</title>
<path fill="none" stroke="#191970" d="M166.5488,-167.6199C155.026,-157.6976 142.6274,-147.021 131.6402,-137.5597"/>
<polygon fill="#191970" stroke="#191970" points="164.4965,-170.4715 174.358,-174.3446 169.0642,-165.1671 164.4965,-170.4715"/>
</g>
<!-- Node32 -->
<g id="node3" class="node">
<title>Node32</title>
<g id="a_node3"><a xlink:href="testOrbitSolver_8h.html" target="_top" xlink:title="Declares the test suite that exercises the OrbitSolver class and some other clasess necessary to acco...">
<polygon fill="#ffffff" stroke="#000000" points="215.6777,-87.5 215.6777,-131.5 414.4316,-131.5 414.4316,-87.5 215.6777,-87.5"/>
<text text-anchor="start" x="223.6777" y="-117.9" font-family="Helvetica,sans-Serif" font-size="12.00" fill="#000000">/Users/kpenev/projects</text>
<text text-anchor="start" x="223.6777" y="-105.9" font-family="Helvetica,sans-Serif" font-size="12.00" fill="#000000">/git/poet/poet_src/unit</text>
<text text-anchor="middle" x="315.0547" y="-93.9" font-family="Helvetica,sans-Serif" font-size="12.00" fill="#000000">_tests/testEvolve/testOrbitSolver.h</text>
</a>
</g>
</g>
<!-- Node30&#45;&gt;Node32 -->
<g id="edge2" class="edge">
<title>Node30&#45;&gt;Node32</title>
<path fill="none" stroke="#191970" d="M247.3899,-167.7669C261.431,-155.676 276.7915,-142.4489 289.3232,-131.6577"/>
<polygon fill="#191970" stroke="#191970" points="245.0452,-165.1671 239.7513,-174.3446 249.6129,-170.4715 245.0452,-165.1671"/>
</g>
<!-- Node33 -->
<g id="node4" class="node">
<title>Node33</title>
<g id="a_node4"><a xlink:href="testEvolve_8cpp_source.html" target="_top" xlink:title="/Users/kpenev/projects\l/git/poet/poet_src/unit\l_tests/testEvolve/testEvolve.cpp">
<polygon fill="#ffffff" stroke="#000000" points="112.0127,-.5 112.0127,-44.5 300.0967,-44.5 300.0967,-.5 112.0127,-.5"/>
<text text-anchor="start" x="120.0127" y="-30.9" font-family="Helvetica,sans-Serif" font-size="12.00" fill="#000000">/Users/kpenev/projects</text>
<text text-anchor="start" x="120.0127" y="-18.9" font-family="Helvetica,sans-Serif" font-size="12.00" fill="#000000">/git/poet/poet_src/unit</text>
<text text-anchor="middle" x="206.0547" y="-6.9" font-family="Helvetica,sans-Serif" font-size="12.00" fill="#000000">_tests/testEvolve/testEvolve.cpp</text>
</a>
</g>
</g>
<!-- Node32&#45;&gt;Node33 -->
<g id="edge3" class="edge">
<title>Node32&#45;&gt;Node33</title>
<path fill="none" stroke="#191970" d="M279.2989,-80.961C264.5085,-69.1558 247.6207,-55.6765 233.7913,-44.6384"/>
<polygon fill="#191970" stroke="#191970" points="277.2683,-83.8184 287.2674,-87.3211 281.635,-78.3474 277.2683,-83.8184"/>
</g>
<!-- Node34 -->
<g id="node5" class="node">
<title>Node34</title>
<g id="a_node5"><a xlink:href="testOrbitSolver_8cpp.html" target="_top" xlink:title="Defines some of the methods of the test suite that exercises the OrbitSolver class and the other clas...">
<polygon fill="#ffffff" stroke="#000000" points="318.3408,-.5 318.3408,-44.5 529.7686,-44.5 529.7686,-.5 318.3408,-.5"/>
<text text-anchor="start" x="326.3408" y="-30.9" font-family="Helvetica,sans-Serif" font-size="12.00" fill="#000000">/Users/kpenev/projects</text>
<text text-anchor="start" x="326.3408" y="-18.9" font-family="Helvetica,sans-Serif" font-size="12.00" fill="#000000">/git/poet/poet_src/unit</text>
<text text-anchor="middle" x="424.0547" y="-6.9" font-family="Helvetica,sans-Serif" font-size="12.00" fill="#000000">_tests/testEvolve/testOrbitSolver.cpp</text>
</a>
</g>
</g>
<!-- Node32&#45;&gt;Node34 -->
<g id="edge4" class="edge">
<title>Node32&#45;&gt;Node34</title>
<path fill="none" stroke="#191970" d="M350.8104,-80.961C365.6009,-69.1558 382.4887,-55.6765 396.3181,-44.6384"/>
<polygon fill="#191970" stroke="#191970" points="348.4743,-78.3474 342.842,-87.3211 352.8411,-83.8184 348.4743,-78.3474"/>
</g>
</g>
</svg>
