<?xml version="1.0" encoding="UTF-8" standalone="no"?>
<!DOCTYPE svg PUBLIC "-//W3C//DTD SVG 1.1//EN"
 "http://www.w3.org/Graphics/SVG/1.1/DTD/svg11.dtd">
<!-- Generated by graphviz version 2.40.1 (20161225.0304)
 -->
<!-- Title: /home/kpenev/projects/git/poet/poet_src/Evolve/OrbitSolver.cpp Pages: 1 -->
<svg width="2688pt" height="604pt"
 viewBox="0.00 0.00 2688.00 604.00" xmlns="http://www.w3.org/2000/svg" xmlns:xlink="http://www.w3.org/1999/xlink">
<g id="graph0" class="graph" transform="scale(1 1) rotate(0) translate(4 600)">
<title>/home/kpenev/projects/git/poet/poet_src/Evolve/OrbitSolver.cpp</title>
<polygon fill="#ffffff" stroke="transparent" points="-4,4 -4,-600 2684,-600 2684,4 -4,4"/>
<!-- Node0 -->
<g id="node1" class="node">
<title>Node0</title>
<polygon fill="#bfbfbf" stroke="#000000" points="2492.5,-548.5 2492.5,-595.5 2639.5,-595.5 2639.5,-548.5 2492.5,-548.5"/>
<text text-anchor="start" x="2500.5" y="-581.9" font-family="Helvetica,sans-Serif" font-size="12.00" fill="#000000">/home/kpenev/projects</text>
<text text-anchor="start" x="2500.5" y="-568.9" font-family="Helvetica,sans-Serif" font-size="12.00" fill="#000000">/git/poet/poet_src/Evolve</text>
<text text-anchor="middle" x="2566" y="-555.9" font-family="Helvetica,sans-Serif" font-size="12.00" fill="#000000">/OrbitSolver.cpp</text>
</g>
<!-- Node1 -->
<g id="node2" class="node">
<title>Node1</title>
<g id="a_node2"><a xlink:href="OrbitSolver_8h.html" target="_top" xlink:title="Defines the OrbitSolver class, the various stopping conditions and a number of other classes used whi...">
<polygon fill="#ffffff" stroke="#000000" points="1589,-490.5 1589,-511.5 1675,-511.5 1675,-490.5 1589,-490.5"/>
<text text-anchor="middle" x="1632" y="-497.9" font-family="Helvetica,sans-Serif" font-size="12.00" fill="#000000">OrbitSolver.h</text>
</a>
</g>
</g>
<!-- Node0&#45;&gt;Node1 -->
<g id="edge1" class="edge">
<title>Node0&#45;&gt;Node1</title>
<path fill="none" stroke="#191970" d="M2492.3207,-566.3991C2310.5191,-552.5791 1843.8507,-517.1043 1685.4942,-505.0665"/>
<polygon fill="#191970" stroke="#191970" points="1685.3105,-501.5425 1675.074,-504.2744 1684.7799,-508.5224 1685.3105,-501.5425"/>
</g>
<!-- Node9 -->
<g id="node10" class="node">
<title>Node9</title>
<polygon fill="#ffffff" stroke="#bfbfbf" points="2392,-7 2392,-28 2454,-28 2454,-7 2392,-7"/>
<text text-anchor="middle" x="2423" y="-14.4" font-family="Helvetica,sans-Serif" font-size="12.00" fill="#000000">iostream</text>
</g>
<!-- Node0&#45;&gt;Node9 -->
<g id="edge118" class="edge">
<title>Node0&#45;&gt;Node9</title>
<path fill="none" stroke="#191970" d="M2606.5131,-548.3638C2639.28,-525.875 2680,-488.7284 2680,-443 2680,-443 2680,-443 2680,-140 2680,-101.5999 2659.9054,-92.3685 2628,-71 2577.9214,-37.4601 2507.9606,-24.9375 2464.0885,-20.2681"/>
<polygon fill="#191970" stroke="#191970" points="2464.3564,-16.7777 2454.0637,-19.2898 2463.6764,-23.7446 2464.3564,-16.7777"/>
</g>
<!-- Node34 -->
<g id="node43" class="node">
<title>Node34</title>
<polygon fill="#ffffff" stroke="#bfbfbf" points="2498.5,-71.5 2498.5,-92.5 2557.5,-92.5 2557.5,-71.5 2498.5,-71.5"/>
<text text-anchor="middle" x="2528" y="-78.9" font-family="Helvetica,sans-Serif" font-size="12.00" fill="#000000">iomanip</text>
</g>
<!-- Node0&#45;&gt;Node34 -->
<g id="edge119" class="edge">
<title>Node0&#45;&gt;Node34</title>
<path fill="none" stroke="#191970" d="M2566,-548.2242C2566,-522.3407 2566,-479.7292 2566,-443 2566,-443 2566,-443 2566,-198 2566,-162.7411 2549.9491,-124.3154 2538.7108,-101.7323"/>
<polygon fill="#191970" stroke="#191970" points="2541.8019,-100.0901 2534.1054,-92.809 2535.5815,-103.3005 2541.8019,-100.0901"/>
</g>
<!-- Node2 -->
<g id="node3" class="node">
<title>Node2</title>
<g id="a_node3"><a xlink:href="SharedLibraryExportMacros_8h_source.html" target="_top" xlink:title="../Core/SharedLibraryExport\lMacros.h">
<polygon fill="#ffffff" stroke="#000000" points="706.5,-.5 706.5,-34.5 871.5,-34.5 871.5,-.5 706.5,-.5"/>
<text text-anchor="start" x="714.5" y="-20.9" font-family="Helvetica,sans-Serif" font-size="12.00" fill="#000000">../Core/SharedLibraryExport</text>
<text text-anchor="middle" x="789" y="-7.9" font-family="Helvetica,sans-Serif" font-size="12.00" fill="#000000">Macros.h</text>
</a>
</g>
</g>
<!-- Node1&#45;&gt;Node2 -->
<g id="edge2" class="edge">
<title>Node1&#45;&gt;Node2</title>
<path fill="none" stroke="#191970" d="M1588.6836,-500.7342C1342.2444,-499.0937 125.4287,-489.2286 55,-454 19.9261,-436.4559 0,-424.217 0,-385 0,-385 0,-385 0,-140 0,-78.8634 60.6406,-89.2171 119,-71 224.1128,-38.1886 538.3924,-24.6786 696.3003,-19.8441"/>
<polygon fill="#191970" stroke="#191970" points="696.5812,-23.3374 706.4714,-19.5381 696.3706,-16.3405 696.5812,-23.3374"/>
</g>
<!-- Node3 -->
<g id="node4" class="node">
<title>Node3</title>
<g id="a_node4"><a xlink:href="AstronomicalConstants_8h.html" target="_top" xlink:title="Defines various astronomical constants. ">
<polygon fill="#ffffff" stroke="#000000" points="1938,-71.5 1938,-92.5 2126,-92.5 2126,-71.5 1938,-71.5"/>
<text text-anchor="middle" x="2032" y="-78.9" font-family="Helvetica,sans-Serif" font-size="12.00" fill="#000000">../Core/AstronomicalConstants.h</text>
</a>
</g>
</g>
<!-- Node1&#45;&gt;Node3 -->
<g id="edge3" class="edge">
<title>Node1&#45;&gt;Node3</title>
<path fill="none" stroke="#191970" d="M1675.0759,-498.6878C1834.3899,-489.6959 2383.6059,-454.6213 2433,-396 2552.2474,-254.4761 2208.4739,-134.48 2079.0744,-95.4078"/>
<polygon fill="#191970" stroke="#191970" points="2079.993,-92.0294 2069.4095,-92.5199 2077.9888,-98.7364 2079.993,-92.0294"/>
</g>
<!-- Node4 -->
<g id="node5" class="node">
<title>Node4</title>
<g id="a_node5"><a xlink:href="Core_2Common_8h.html" target="_top" xlink:title="Declaration of some general purpose utilities. ">
<polygon fill="#ffffff" stroke="#000000" points="1211.5,-129.5 1211.5,-150.5 1324.5,-150.5 1324.5,-129.5 1211.5,-129.5"/>
<text text-anchor="middle" x="1268" y="-136.9" font-family="Helvetica,sans-Serif" font-size="12.00" fill="#000000">../Core/Common.h</text>
</a>
</g>
</g>
<!-- Node1&#45;&gt;Node4 -->
<g id="edge4" class="edge">
<title>Node1&#45;&gt;Node4</title>
<path fill="none" stroke="#191970" d="M1588.7858,-499.5819C1431.1804,-494.2857 887.4963,-474.8952 715,-454 553.7032,-434.4614 356,-547.4759 356,-385 356,-385 356,-385 356,-327 356,-289.59 348.6347,-271.5401 375,-245 453.2528,-166.2282 508.2674,-203.9484 618,-187 829.1106,-154.3936 1082.3758,-144.318 1200.7905,-141.2751"/>
<polygon fill="#191970" stroke="#191970" points="1201.2287,-144.7654 1211.1388,-141.0184 1201.055,-137.7676 1201.2287,-144.7654"/>
</g>
<!-- Node5 -->
<g id="node6" class="node">
<title>Node5</title>
<polygon fill="#ffffff" stroke="#bfbfbf" points="2407,-71.5 2407,-92.5 2439,-92.5 2439,-71.5 2407,-71.5"/>
<text text-anchor="middle" x="2423" y="-78.9" font-family="Helvetica,sans-Serif" font-size="12.00" fill="#000000">list</text>
</g>
<!-- Node1&#45;&gt;Node5 -->
<g id="edge107" class="edge">
<title>Node1&#45;&gt;Node5</title>
<path fill="none" stroke="#191970" d="M1675.0296,-499.7557C1843.6586,-494.7358 2451.9765,-475.2225 2487,-454 2517.5081,-435.5136 2528,-420.672 2528,-385 2528,-385 2528,-385 2528,-327 2528,-236.1753 2466.284,-140.6104 2437.4827,-100.9577"/>
<polygon fill="#191970" stroke="#191970" points="2440.0044,-98.4819 2431.2392,-92.5303 2434.3798,-102.649 2440.0044,-98.4819"/>
</g>
<!-- Node7 -->
<g id="node8" class="node">
<title>Node7</title>
<polygon fill="#ffffff" stroke="#bfbfbf" points="145,-71.5 145,-92.5 189,-92.5 189,-71.5 145,-71.5"/>
<text text-anchor="middle" x="167" y="-78.9" font-family="Helvetica,sans-Serif" font-size="12.00" fill="#000000">limits</text>
</g>
<!-- Node1&#45;&gt;Node7 -->
<g id="edge116" class="edge">
<title>Node1&#45;&gt;Node7</title>
<path fill="none" stroke="#191970" d="M1588.6418,-500.6694C1346.0042,-498.6947 164.9142,-487.3908 96,-454 59.9474,-436.5315 38,-425.0617 38,-385 38,-385 38,-385 38,-327 38,-232.3067 114.3819,-138.2772 149.5962,-99.9586"/>
<polygon fill="#191970" stroke="#191970" points="152.1624,-102.3387 156.4434,-92.6472 147.0531,-97.5537 152.1624,-102.3387"/>
</g>
<!-- Node8 -->
<g id="node9" class="node">
<title>Node8</title>
<polygon fill="#ffffff" stroke="#bfbfbf" points="759.5,-71.5 759.5,-92.5 818.5,-92.5 818.5,-71.5 759.5,-71.5"/>
<text text-anchor="middle" x="789" y="-78.9" font-family="Helvetica,sans-Serif" font-size="12.00" fill="#000000">sstream</text>
</g>
<!-- Node1&#45;&gt;Node8 -->
<g id="edge115" class="edge">
<title>Node1&#45;&gt;Node8</title>
<path fill="none" stroke="#191970" d="M1588.758,-498.2672C1435.8135,-488.1618 927.1133,-450.6458 881,-396 827.7891,-332.9432 1010,-345.0079 1010,-262.5 1010,-262.5 1010,-262.5 1010,-198 1010,-157.4852 892.0827,-114.2655 828.5144,-93.9097"/>
<polygon fill="#191970" stroke="#191970" points="829.3949,-90.5175 818.805,-90.843 827.2865,-97.1924 829.3949,-90.5175"/>
</g>
<!-- Node1&#45;&gt;Node9 -->
<g id="edge111" class="edge">
<title>Node1&#45;&gt;Node9</title>
<path fill="none" stroke="#191970" d="M1675.1679,-499.81C1841.1313,-495.0833 2432.8961,-476.7803 2514,-454 2576.2203,-436.5237 2642,-449.6281 2642,-385 2642,-385 2642,-385 2642,-140 2642,-59.5287 2527.9811,-31.4078 2464.4839,-21.9866"/>
<polygon fill="#191970" stroke="#191970" points="2464.7641,-18.492 2454.3774,-20.5812 2463.8,-25.4252 2464.7641,-18.492"/>
</g>
<!-- Node15 -->
<g id="node16" class="node">
<title>Node15</title>
<polygon fill="#ffffff" stroke="#bfbfbf" points="207,-71.5 207,-92.5 297,-92.5 297,-71.5 207,-71.5"/>
<text text-anchor="middle" x="252" y="-78.9" font-family="Helvetica,sans-Serif" font-size="12.00" fill="#000000">gsl/gsl_poly.h</text>
</g>
<!-- Node1&#45;&gt;Node15 -->
<g id="edge114" class="edge">
<title>Node1&#45;&gt;Node15</title>
<path fill="none" stroke="#191970" d="M1588.9827,-500.4969C1368.6362,-497.7931 371.5219,-483.9808 237,-454 161.0141,-437.0651 76,-462.8501 76,-385 76,-385 76,-385 76,-327 76,-289.59 77.1577,-277.881 95,-245 129.205,-181.9648 194.4496,-125.9523 229.0811,-98.9942"/>
<polygon fill="#191970" stroke="#191970" points="231.3811,-101.6412 237.1887,-92.7799 227.1227,-96.0855 231.3811,-101.6412"/>
</g>
<!-- Node22 -->
<g id="node23" class="node">
<title>Node22</title>
<g id="a_node23"><a xlink:href="OrbitalExpressions_8h.html" target="_top" xlink:title="A collection of functions which calculate various quantities for two body orbits. ...">
<polygon fill="#ffffff" stroke="#000000" points="1882,-316.5 1882,-337.5 2048,-337.5 2048,-316.5 1882,-316.5"/>
<text text-anchor="middle" x="1965" y="-323.9" font-family="Helvetica,sans-Serif" font-size="12.00" fill="#000000">../Core/OrbitalExpressions.h</text>
</a>
</g>
</g>
<!-- Node1&#45;&gt;Node22 -->
<g id="edge26" class="edge">
<title>Node1&#45;&gt;Node22</title>
<path fill="none" stroke="#191970" d="M1626.396,-490.2782C1619.4907,-475.4052 1610.2532,-448.4865 1624,-432 1680.9995,-363.6404 1736.3407,-423.4733 1821,-396 1863.6423,-382.1619 1909.8741,-358.2719 1938.1434,-342.5522"/>
<polygon fill="#191970" stroke="#191970" points="1940.0133,-345.516 1947.0106,-337.5607 1936.5795,-339.4161 1940.0133,-345.516"/>
</g>
<!-- Node24 -->
<g id="node25" class="node">
<title>Node24</title>
<g id="a_node25"><a xlink:href="BinarySystem_8h.html" target="_top" xlink:title="Defines the BinarySystem class. ">
<polygon fill="#ffffff" stroke="#000000" points="1914.5,-432.5 1914.5,-453.5 2015.5,-453.5 2015.5,-432.5 1914.5,-432.5"/>
<text text-anchor="middle" x="1965" y="-439.9" font-family="Helvetica,sans-Serif" font-size="12.00" fill="#000000">BinarySystem.h</text>
</a>
</g>
</g>
<!-- Node1&#45;&gt;Node24 -->
<g id="edge30" class="edge">
<title>Node1&#45;&gt;Node24</title>
<path fill="none" stroke="#191970" d="M1675.2191,-493.7848C1727.2369,-485.0567 1817.5069,-469.7707 1904.4439,-454.2626"/>
<polygon fill="#191970" stroke="#191970" points="1905.2502,-457.674 1914.4783,-452.4689 1904.0184,-450.7832 1905.2502,-457.674"/>
</g>
<!-- Node38 -->
<g id="node33" class="node">
<title>Node38</title>
<g id="a_node33"><a xlink:href="CombinedStoppingCondition_8h.html" target="_top" xlink:title="Declares a class for a stopping condition that combines other stopping conditions. ">
<polygon fill="#ffffff" stroke="#000000" points="384,-252 384,-273 566,-273 566,-252 384,-252"/>
<text text-anchor="middle" x="475" y="-259.4" font-family="Helvetica,sans-Serif" font-size="12.00" fill="#000000">CombinedStoppingCondition.h</text>
</a>
</g>
</g>
<!-- Node1&#45;&gt;Node38 -->
<g id="edge90" class="edge">
<title>Node1&#45;&gt;Node38</title>
<path fill="none" stroke="#191970" d="M1588.8591,-500.3118C1440.6267,-497.6742 952.8889,-486.6636 800,-454 729.2891,-438.8932 711.0742,-431.3538 648,-396 587.1983,-361.9199 524.5625,-307.9957 494.0422,-280.2644"/>
<polygon fill="#191970" stroke="#191970" points="496.0491,-277.3558 486.3137,-273.1756 491.3174,-282.5144 496.0491,-277.3558"/>
</g>
<!-- Node32 -->
<g id="node35" class="node">
<title>Node32</title>
<polygon fill="#ffffff" stroke="#bfbfbf" points="247.5,-187.5 247.5,-208.5 296.5,-208.5 296.5,-187.5 247.5,-187.5"/>
<text text-anchor="middle" x="272" y="-194.9" font-family="Helvetica,sans-Serif" font-size="12.00" fill="#000000">vector</text>
</g>
<!-- Node1&#45;&gt;Node32 -->
<g id="edge108" class="edge">
<title>Node1&#45;&gt;Node32</title>
<path fill="none" stroke="#191970" d="M1588.6667,-500.3701C1370.4064,-497.0777 399.63,-480.9623 342,-454 304.6568,-436.5289 280,-426.2281 280,-385 280,-385 280,-385 280,-327 280,-288.6892 276.4416,-244.1009 274.0713,-218.6489"/>
<polygon fill="#191970" stroke="#191970" points="277.5547,-218.3077 273.1124,-208.6892 270.5869,-218.9786 277.5547,-218.3077"/>
</g>
<!-- Node44 -->
<g id="node40" class="node">
<title>Node44</title>
<polygon fill="#ffffff" stroke="#bfbfbf" points="889.5,-374.5 889.5,-395.5 984.5,-395.5 984.5,-374.5 889.5,-374.5"/>
<text text-anchor="middle" x="937" y="-381.9" font-family="Helvetica,sans-Serif" font-size="12.00" fill="#000000">gsl/gsl_errno.h</text>
</g>
<!-- Node1&#45;&gt;Node44 -->
<g id="edge113" class="edge">
<title>Node1&#45;&gt;Node44</title>
<path fill="none" stroke="#191970" d="M1588.9909,-494.0365C1486.6815,-477.4345 1220.7797,-434.0668 999,-396 997.5522,-395.7515 996.0855,-395.4988 994.606,-395.243"/>
<polygon fill="#191970" stroke="#191970" points="995.1701,-391.7886 984.718,-393.5217 993.9696,-398.6849 995.1701,-391.7886"/>
</g>
<!-- Node45 -->
<g id="node41" class="node">
<title>Node45</title>
<polygon fill="#ffffff" stroke="#bfbfbf" points="2320,-374.5 2320,-395.5 2424,-395.5 2424,-374.5 2320,-374.5"/>
<text text-anchor="middle" x="2372" y="-381.9" font-family="Helvetica,sans-Serif" font-size="12.00" fill="#000000">gsl/gsl_odeiv2.h</text>
</g>
<!-- Node1&#45;&gt;Node45 -->
<g id="edge112" class="edge">
<title>Node1&#45;&gt;Node45</title>
<path fill="none" stroke="#191970" d="M1675.1844,-496.9376C1747.7004,-489.8695 1898.4353,-474.1208 2025,-454 2127.7039,-437.6725 2246.3365,-412.7612 2314.9059,-397.7618"/>
<polygon fill="#191970" stroke="#191970" points="2316.0441,-401.0953 2325.0612,-395.5326 2314.5433,-394.2581 2316.0441,-401.0953"/>
</g>
<!-- Node47 -->
<g id="node44" class="node">
<title>Node47</title>
<g id="a_node44"><a xlink:href="ExternalStoppingConditions_8h.html" target="_top" xlink:title="Users can define any stopping condition they wish the evolution to search for in this file...">
<polygon fill="#ffffff" stroke="#000000" points="657,-374.5 657,-395.5 833,-395.5 833,-374.5 657,-374.5"/>
<text text-anchor="middle" x="745" y="-381.9" font-family="Helvetica,sans-Serif" font-size="12.00" fill="#000000">ExternalStoppingConditions.h</text>
</a>
</g>
</g>
<!-- Node1&#45;&gt;Node47 -->
<g id="edge91" class="edge">
<title>Node1&#45;&gt;Node47</title>
<path fill="none" stroke="#191970" d="M1588.8462,-499.75C1434.7854,-495.1045 917.297,-477.865 847,-454 814.7278,-443.044 783.0966,-418.9777 763.8217,-402.3768"/>
<polygon fill="#191970" stroke="#191970" points="765.9249,-399.5646 756.1144,-395.564 761.2889,-404.8093 765.9249,-399.5646"/>
</g>
<!-- Node48 -->
<g id="node45" class="node">
<title>Node48</title>
<g id="a_node45"><a xlink:href="StopInformation_8h.html" target="_top" xlink:title="Declares the StopInformation class. ">
<polygon fill="#ffffff" stroke="#000000" points="104,-252 104,-273 214,-273 214,-252 104,-252"/>
<text text-anchor="middle" x="159" y="-259.4" font-family="Helvetica,sans-Serif" font-size="12.00" fill="#000000">StopInformation.h</text>
</a>
</g>
</g>
<!-- Node1&#45;&gt;Node48 -->
<g id="edge95" class="edge">
<title>Node1&#45;&gt;Node48</title>
<path fill="none" stroke="#191970" d="M1588.9944,-500.7032C1363.2965,-498.9968 323.7633,-489.2426 266,-454 202.5674,-415.2985 173.6716,-324.3518 163.5145,-283.2785"/>
<polygon fill="#191970" stroke="#191970" points="166.8698,-282.2557 161.1812,-273.3176 160.0543,-283.8523 166.8698,-282.2557"/>
</g>
<!-- Node49 -->
<g id="node46" class="node">
<title>Node49</title>
<g id="a_node46"><a xlink:href="StopHistoryInterval_8h.html" target="_top" xlink:title="Declares the StopHistoryInterval class. ">
<polygon fill="#ffffff" stroke="#000000" points="2296,-129.5 2296,-150.5 2424,-150.5 2424,-129.5 2296,-129.5"/>
<text text-anchor="middle" x="2360" y="-136.9" font-family="Helvetica,sans-Serif" font-size="12.00" fill="#000000">StopHistoryInterval.h</text>
</a>
</g>
</g>
<!-- Node1&#45;&gt;Node49 -->
<g id="edge98" class="edge">
<title>Node1&#45;&gt;Node49</title>
<path fill="none" stroke="#191970" d="M1675.2142,-500.1925C1842.3649,-496.862 2438.6048,-482.9825 2466,-454 2549.0983,-366.0869 2424.1999,-210.7774 2376.9066,-158.0763"/>
<polygon fill="#191970" stroke="#191970" points="2379.3486,-155.5597 2370.0264,-150.5251 2374.1743,-160.2742 2379.3486,-155.5597"/>
</g>
<!-- Node50 -->
<g id="node47" class="node">
<title>Node50</title>
<polygon fill="#ffffff" stroke="#bfbfbf" points="1632.5,-432.5 1632.5,-453.5 1685.5,-453.5 1685.5,-432.5 1632.5,-432.5"/>
<text text-anchor="middle" x="1659" y="-439.9" font-family="Helvetica,sans-Serif" font-size="12.00" fill="#000000">math.h</text>
</g>
<!-- Node1&#45;&gt;Node50 -->
<g id="edge106" class="edge">
<title>Node1&#45;&gt;Node50</title>
<path fill="none" stroke="#191970" d="M1636.9522,-490.3619C1640.5298,-482.6766 1645.4681,-472.0686 1649.7642,-462.8399"/>
<polygon fill="#191970" stroke="#191970" points="1653.0319,-464.1136 1654.0792,-453.5707 1646.6858,-461.1594 1653.0319,-464.1136"/>
</g>
<!-- Node51 -->
<g id="node48" class="node">
<title>Node51</title>
<polygon fill="#ffffff" stroke="#bfbfbf" points="1703.5,-432.5 1703.5,-453.5 1758.5,-453.5 1758.5,-432.5 1703.5,-432.5"/>
<text text-anchor="middle" x="1731" y="-439.9" font-family="Helvetica,sans-Serif" font-size="12.00" fill="#000000">stdlib.h</text>
</g>
<!-- Node1&#45;&gt;Node51 -->
<g id="edge109" class="edge">
<title>Node1&#45;&gt;Node51</title>
<path fill="none" stroke="#191970" d="M1650.1581,-490.3619C1665.2299,-481.532 1686.8871,-468.844 1703.9928,-458.8224"/>
<polygon fill="#191970" stroke="#191970" points="1706.0979,-461.6456 1712.957,-453.5707 1702.5594,-455.6058 1706.0979,-461.6456"/>
</g>
<!-- Node33 -->
<g id="node49" class="node">
<title>Node33</title>
<polygon fill="#ffffff" stroke="#bfbfbf" points="1777,-432.5 1777,-453.5 1833,-453.5 1833,-432.5 1777,-432.5"/>
<text text-anchor="middle" x="1805" y="-439.9" font-family="Helvetica,sans-Serif" font-size="12.00" fill="#000000">fstream</text>
</g>
<!-- Node1&#45;&gt;Node33 -->
<g id="edge110" class="edge">
<title>Node1&#45;&gt;Node33</title>
<path fill="none" stroke="#191970" d="M1663.329,-490.4966C1692.4992,-480.717 1736.0358,-466.121 1767.1402,-455.6929"/>
<polygon fill="#191970" stroke="#191970" points="1768.3995,-458.9622 1776.7682,-452.465 1766.1743,-452.3253 1768.3995,-458.9622"/>
</g>
<!-- Node52 -->
<g id="node50" class="node">
<title>Node52</title>
<polygon fill="#ffffff" stroke="#bfbfbf" points="1851.5,-432.5 1851.5,-453.5 1896.5,-453.5 1896.5,-432.5 1851.5,-432.5"/>
<text text-anchor="middle" x="1874" y="-439.9" font-family="Helvetica,sans-Serif" font-size="12.00" fill="#000000">ctime</text>
</g>
<!-- Node1&#45;&gt;Node52 -->
<g id="edge117" class="edge">
<title>Node1&#45;&gt;Node52</title>
<path fill="none" stroke="#191970" d="M1675.3852,-492.7537C1716.0108,-484.706 1778.5415,-471.4871 1841.6516,-453.8728"/>
<polygon fill="#191970" stroke="#191970" points="1842.7014,-457.2133 1851.3725,-451.1255 1840.7976,-450.4772 1842.7014,-457.2133"/>
</g>
<!-- Node4&#45;&gt;Node2 -->
<g id="edge17" class="edge">
<title>Node4&#45;&gt;Node2</title>
<path fill="none" stroke="#191970" d="M1211.3555,-137.8784C1115.4643,-133.5465 925.7491,-121.5661 866,-93 842.1944,-81.6186 821.2626,-59.8856 807.2555,-42.6484"/>
<polygon fill="#191970" stroke="#191970" points="809.8786,-40.3215 800.9533,-34.6128 804.3705,-44.6414 809.8786,-40.3215"/>
</g>
<!-- Node4&#45;&gt;Node3 -->
<g id="edge23" class="edge">
<title>Node4&#45;&gt;Node3</title>
<path fill="none" stroke="#191970" d="M1324.8,-135.688C1452.5844,-125.987 1764.2751,-102.3247 1927.8618,-89.9058"/>
<polygon fill="#191970" stroke="#191970" points="1928.2328,-93.3878 1937.9391,-89.1407 1927.7029,-86.4079 1928.2328,-93.3878"/>
</g>
<!-- Node4&#45;&gt;Node5 -->
<g id="edge5" class="edge">
<title>Node4&#45;&gt;Node5</title>
<path fill="none" stroke="#191970" d="M1324.6333,-138.7481C1482.6404,-134.9804 1941.669,-122.161 2322,-93 2347.4919,-91.0455 2376.4961,-87.7778 2396.8627,-85.3106"/>
<polygon fill="#191970" stroke="#191970" points="2397.439,-88.7661 2406.9363,-84.0702 2396.5835,-81.8186 2397.439,-88.7661"/>
</g>
<!-- Node6 -->
<g id="node7" class="node">
<title>Node6</title>
<polygon fill="#ffffff" stroke="#bfbfbf" points="1598.5,-71.5 1598.5,-92.5 1657.5,-92.5 1657.5,-71.5 1598.5,-71.5"/>
<text text-anchor="middle" x="1628" y="-78.9" font-family="Helvetica,sans-Serif" font-size="12.00" fill="#000000">valarray</text>
</g>
<!-- Node4&#45;&gt;Node6 -->
<g id="edge6" class="edge">
<title>Node4&#45;&gt;Node6</title>
<path fill="none" stroke="#191970" d="M1324.5514,-134.1188C1387.0391,-127.091 1490.7576,-113.8631 1588.2111,-93.192"/>
<polygon fill="#191970" stroke="#191970" points="1589.1881,-96.562 1598.2276,-91.0359 1587.715,-89.7187 1589.1881,-96.562"/>
</g>
<!-- Node4&#45;&gt;Node7 -->
<g id="edge7" class="edge">
<title>Node4&#45;&gt;Node7</title>
<path fill="none" stroke="#191970" d="M1211.2331,-139.7226C1022.1732,-138.4576 414.1764,-131.5607 199.0726,-92.6195"/>
<polygon fill="#191970" stroke="#191970" points="199.6057,-89.1584 189.1298,-90.7409 198.306,-96.0367 199.6057,-89.1584"/>
</g>
<!-- Node4&#45;&gt;Node8 -->
<g id="edge8" class="edge">
<title>Node4&#45;&gt;Node8</title>
<path fill="none" stroke="#191970" d="M1211.3389,-136.3732C1127.9816,-130.4748 967.6092,-116.9811 833,-93 831.5465,-92.7411 830.0699,-92.461 828.5814,-92.1644"/>
<polygon fill="#191970" stroke="#191970" points="829.2185,-88.7212 818.7027,-90.0133 827.7291,-95.5609 829.2185,-88.7212"/>
</g>
<!-- Node4&#45;&gt;Node9 -->
<g id="edge9" class="edge">
<title>Node4&#45;&gt;Node9</title>
<path fill="none" stroke="#191970" d="M1296.2595,-129.4785C1344.2484,-111.7984 1439.8795,-77.4247 1475,-71 1867.4747,.7962 1979.8449,-108.5218 2372,-35 2377.046,-34.054 2382.2706,-32.7101 2387.3658,-31.1823"/>
<polygon fill="#191970" stroke="#191970" points="2388.4962,-34.4951 2396.9233,-28.0737 2386.3311,-27.8384 2388.4962,-34.4951"/>
</g>
<!-- Node10 -->
<g id="node11" class="node">
<title>Node10</title>
<polygon fill="#ffffff" stroke="#bfbfbf" points="983.5,-71.5 983.5,-92.5 1036.5,-92.5 1036.5,-71.5 983.5,-71.5"/>
<text text-anchor="middle" x="1010" y="-78.9" font-family="Helvetica,sans-Serif" font-size="12.00" fill="#000000">iterator</text>
</g>
<!-- Node4&#45;&gt;Node10 -->
<g id="edge10" class="edge">
<title>Node4&#45;&gt;Node10</title>
<path fill="none" stroke="#191970" d="M1211.5698,-129.476C1168.7973,-121.175 1108.3968,-108.7634 1046.5913,-92.9922"/>
<polygon fill="#191970" stroke="#191970" points="1047.2195,-89.5398 1036.6623,-90.4323 1045.4718,-96.3181 1047.2195,-89.5398"/>
</g>
<!-- Node11 -->
<g id="node12" class="node">
<title>Node11</title>
<polygon fill="#ffffff" stroke="#bfbfbf" points="1055,-71.5 1055,-92.5 1155,-92.5 1155,-71.5 1055,-71.5"/>
<text text-anchor="middle" x="1105" y="-78.9" font-family="Helvetica,sans-Serif" font-size="12.00" fill="#000000">gsl/gsl_vector.h</text>
</g>
<!-- Node4&#45;&gt;Node11 -->
<g id="edge11" class="edge">
<title>Node4&#45;&gt;Node11</title>
<path fill="none" stroke="#191970" d="M1238.4819,-129.4966C1212.0236,-120.082 1173.0206,-106.2036 1144,-95.8773"/>
<polygon fill="#191970" stroke="#191970" points="1145.1681,-92.578 1134.5734,-92.5231 1142.8214,-99.173 1145.1681,-92.578"/>
</g>
<!-- Node12 -->
<g id="node13" class="node">
<title>Node12</title>
<polygon fill="#ffffff" stroke="#bfbfbf" points="1173,-71.5 1173,-92.5 1273,-92.5 1273,-71.5 1173,-71.5"/>
<text text-anchor="middle" x="1223" y="-78.9" font-family="Helvetica,sans-Serif" font-size="12.00" fill="#000000">gsl/gsl_matrix.h</text>
</g>
<!-- Node4&#45;&gt;Node12 -->
<g id="edge12" class="edge">
<title>Node4&#45;&gt;Node12</title>
<path fill="none" stroke="#191970" d="M1259.7463,-129.3619C1253.5299,-121.3496 1244.8487,-110.1605 1237.485,-100.6696"/>
<polygon fill="#191970" stroke="#191970" points="1240.0967,-98.326 1231.2014,-92.5707 1234.5661,-102.617 1240.0967,-98.326"/>
</g>
<!-- Node13 -->
<g id="node14" class="node">
<title>Node13</title>
<polygon fill="#ffffff" stroke="#bfbfbf" points="1291.5,-71.5 1291.5,-92.5 1388.5,-92.5 1388.5,-71.5 1291.5,-71.5"/>
<text text-anchor="middle" x="1340" y="-78.9" font-family="Helvetica,sans-Serif" font-size="12.00" fill="#000000">gsl/gsl_linalg.h</text>
</g>
<!-- Node4&#45;&gt;Node13 -->
<g id="edge13" class="edge">
<title>Node4&#45;&gt;Node13</title>
<path fill="none" stroke="#191970" d="M1281.2059,-129.3619C1291.7612,-120.859 1306.7577,-108.7785 1318.9629,-98.9466"/>
<polygon fill="#191970" stroke="#191970" points="1321.2859,-101.5696 1326.8778,-92.5707 1316.8946,-96.1183 1321.2859,-101.5696"/>
</g>
<!-- Node14 -->
<g id="node15" class="node">
<title>Node14</title>
<polygon fill="#ffffff" stroke="#bfbfbf" points="875,-71.5 875,-92.5 965,-92.5 965,-71.5 875,-71.5"/>
<text text-anchor="middle" x="920" y="-78.9" font-family="Helvetica,sans-Serif" font-size="12.00" fill="#000000">gsl/gsl_blas.h</text>
</g>
<!-- Node4&#45;&gt;Node14 -->
<g id="edge14" class="edge">
<title>Node4&#45;&gt;Node14</title>
<path fill="none" stroke="#191970" d="M1211.4476,-131.5863C1154.4925,-122.9643 1063.8539,-108.8399 975.2488,-92.9913"/>
<polygon fill="#191970" stroke="#191970" points="975.7561,-89.5265 965.2946,-91.2019 974.5175,-96.4161 975.7561,-89.5265"/>
</g>
<!-- Node4&#45;&gt;Node15 -->
<g id="edge15" class="edge">
<title>Node4&#45;&gt;Node15</title>
<path fill="none" stroke="#191970" d="M1211.1984,-136.7574C1032.5535,-126.5592 483.5551,-95.2187 307.1769,-85.1499"/>
<polygon fill="#191970" stroke="#191970" points="307.2691,-81.6495 297.0858,-84.5738 306.8701,-88.6381 307.2691,-81.6495"/>
</g>
<!-- Node16 -->
<g id="node17" class="node">
<title>Node16</title>
<polygon fill="#ffffff" stroke="#bfbfbf" points="1714.5,-71.5 1714.5,-92.5 1769.5,-92.5 1769.5,-71.5 1714.5,-71.5"/>
<text text-anchor="middle" x="1742" y="-78.9" font-family="Helvetica,sans-Serif" font-size="12.00" fill="#000000">cassert</text>
</g>
<!-- Node4&#45;&gt;Node16 -->
<g id="edge16" class="edge">
<title>Node4&#45;&gt;Node16</title>
<path fill="none" stroke="#191970" d="M1324.5573,-133.8491C1401.9411,-125.3166 1545.1265,-109.1121 1667,-93 1679.1089,-91.3992 1692.2958,-89.5132 1704.1874,-87.7593"/>
<polygon fill="#191970" stroke="#191970" points="1704.8687,-91.1966 1714.2445,-86.2625 1703.8382,-84.2728 1704.8687,-91.1966"/>
</g>
<!-- Node17 -->
<g id="node18" class="node">
<title>Node17</title>
<g id="a_node18"><a xlink:href="Error_8h.html" target="_top" xlink:title="Defines the exception hierarchy used by this code. ">
<polygon fill="#ffffff" stroke="#000000" points="2182.5,-71.5 2182.5,-92.5 2235.5,-92.5 2235.5,-71.5 2182.5,-71.5"/>
<text text-anchor="middle" x="2209" y="-78.9" font-family="Helvetica,sans-Serif" font-size="12.00" fill="#000000">Error.h</text>
</a>
</g>
</g>
<!-- Node4&#45;&gt;Node17 -->
<g id="edge18" class="edge">
<title>Node4&#45;&gt;Node17</title>
<path fill="none" stroke="#191970" d="M1324.6926,-138.759C1463.3175,-135.3259 1830.3618,-123.8312 2135,-93 2147.1935,-91.7659 2160.4517,-89.9472 2172.3332,-88.1424"/>
<polygon fill="#191970" stroke="#191970" points="2173.0195,-91.5777 2182.3588,-86.575 2171.9382,-84.6617 2173.0195,-91.5777"/>
</g>
<!-- Node20 -->
<g id="node21" class="node">
<title>Node20</title>
<g id="a_node21"><a xlink:href="IncludeEigen_8h_source.html" target="_top" xlink:title="IncludeEigen.h">
<polygon fill="#ffffff" stroke="#000000" points="1483.5,-71.5 1483.5,-92.5 1580.5,-92.5 1580.5,-71.5 1483.5,-71.5"/>
<text text-anchor="middle" x="1532" y="-78.9" font-family="Helvetica,sans-Serif" font-size="12.00" fill="#000000">IncludeEigen.h</text>
</a>
</g>
</g>
<!-- Node4&#45;&gt;Node20 -->
<g id="edge24" class="edge">
<title>Node4&#45;&gt;Node20</title>
<path fill="none" stroke="#191970" d="M1315.8084,-129.4966C1360.3381,-119.7136 1426.8066,-105.1107 1474.2757,-94.6819"/>
<polygon fill="#191970" stroke="#191970" points="1475.0859,-98.0874 1484.1019,-92.5231 1473.5838,-91.2505 1475.0859,-98.0874"/>
</g>
<!-- Node17&#45;&gt;Node2 -->
<g id="edge19" class="edge">
<title>Node17&#45;&gt;Node2</title>
<path fill="none" stroke="#191970" d="M2182.2757,-73.9117C2177.5576,-72.7479 2172.6634,-71.7069 2168,-71 2041.8015,-51.8691 1170.1734,-27.517 881.5734,-19.8921"/>
<polygon fill="#191970" stroke="#191970" points="881.644,-16.3929 871.5552,-19.628 881.4594,-23.3905 881.644,-16.3929"/>
</g>
<!-- Node17&#45;&gt;Node9 -->
<g id="edge20" class="edge">
<title>Node17&#45;&gt;Node9</title>
<path fill="none" stroke="#191970" d="M2235.7182,-73.7701C2238.8445,-72.8267 2241.9908,-71.8861 2245,-71 2301.2789,-54.4272 2316.011,-52.5272 2372,-35 2375.7618,-33.8224 2379.666,-32.5587 2383.5638,-31.2691"/>
<polygon fill="#191970" stroke="#191970" points="2384.7921,-34.5487 2393.1554,-28.0444 2382.5614,-27.9136 2384.7921,-34.5487"/>
</g>
<!-- Node18 -->
<g id="node19" class="node">
<title>Node18</title>
<polygon fill="#ffffff" stroke="#bfbfbf" points="2175,-7 2175,-28 2243,-28 2243,-7 2175,-7"/>
<text text-anchor="middle" x="2209" y="-14.4" font-family="Helvetica,sans-Serif" font-size="12.00" fill="#000000">exception</text>
</g>
<!-- Node17&#45;&gt;Node18 -->
<g id="edge21" class="edge">
<title>Node17&#45;&gt;Node18</title>
<path fill="none" stroke="#191970" d="M2209,-71.3491C2209,-62.4397 2209,-49.4599 2209,-38.4761"/>
<polygon fill="#191970" stroke="#191970" points="2212.5001,-38.3822 2209,-28.3823 2205.5001,-38.3823 2212.5001,-38.3822"/>
</g>
<!-- Node19 -->
<g id="node20" class="node">
<title>Node19</title>
<polygon fill="#ffffff" stroke="#bfbfbf" points="2317,-7 2317,-28 2363,-28 2363,-7 2317,-7"/>
<text text-anchor="middle" x="2340" y="-14.4" font-family="Helvetica,sans-Serif" font-size="12.00" fill="#000000">string</text>
</g>
<!-- Node17&#45;&gt;Node19 -->
<g id="edge22" class="edge">
<title>Node17&#45;&gt;Node19</title>
<path fill="none" stroke="#191970" d="M2230.339,-71.4934C2251.8445,-60.9048 2285.2386,-44.4627 2309.5278,-32.5035"/>
<polygon fill="#191970" stroke="#191970" points="2311.2447,-35.5594 2318.6702,-28.0021 2308.1526,-29.2794 2311.2447,-35.5594"/>
</g>
<!-- Node21 -->
<g id="node22" class="node">
<title>Node21</title>
<polygon fill="#ffffff" stroke="#bfbfbf" points="1489,-7 1489,-28 1575,-28 1575,-7 1489,-7"/>
<text text-anchor="middle" x="1532" y="-14.4" font-family="Helvetica,sans-Serif" font-size="12.00" fill="#000000">Eigen/Dense</text>
</g>
<!-- Node20&#45;&gt;Node21 -->
<g id="edge25" class="edge">
<title>Node20&#45;&gt;Node21</title>
<path fill="none" stroke="#191970" d="M1532,-71.3491C1532,-62.4397 1532,-49.4599 1532,-38.4761"/>
<polygon fill="#191970" stroke="#191970" points="1535.5001,-38.3822 1532,-28.3823 1528.5001,-38.3823 1535.5001,-38.3822"/>
</g>
<!-- Node22&#45;&gt;Node2 -->
<g id="edge27" class="edge">
<title>Node22&#45;&gt;Node2</title>
<path fill="none" stroke="#191970" d="M1966.7318,-316.5C1973.0104,-277.797 1993.6605,-144.5517 1983,-129 1962.7935,-99.5224 1867.9527,-78.4528 1833,-71 1652.9248,-32.6033 1102.4552,-21.4636 881.8611,-18.4944"/>
<polygon fill="#191970" stroke="#191970" points="881.6541,-14.9915 871.6087,-18.3592 881.5616,-21.9909 881.6541,-14.9915"/>
</g>
<!-- Node22&#45;&gt;Node3 -->
<g id="edge29" class="edge">
<title>Node22&#45;&gt;Node3</title>
<path fill="none" stroke="#191970" d="M1968.3075,-316.3417C1976.743,-289.0046 1999.5526,-214.1076 2016,-151 2020.209,-134.8501 2024.4522,-116.4308 2027.5103,-102.6875"/>
<polygon fill="#191970" stroke="#191970" points="2030.9549,-103.3193 2029.6855,-92.8008 2024.1184,-101.8151 2030.9549,-103.3193"/>
</g>
<!-- Node23 -->
<g id="node24" class="node">
<title>Node23</title>
<polygon fill="#ffffff" stroke="#bfbfbf" points="1618.5,-187.5 1618.5,-208.5 1667.5,-208.5 1667.5,-187.5 1618.5,-187.5"/>
<text text-anchor="middle" x="1643" y="-194.9" font-family="Helvetica,sans-Serif" font-size="12.00" fill="#000000">cmath</text>
</g>
<!-- Node22&#45;&gt;Node23 -->
<g id="edge28" class="edge">
<title>Node22&#45;&gt;Node23</title>
<path fill="none" stroke="#191970" d="M1938.6494,-316.4434C1880.6453,-293.2057 1741.9476,-237.6405 1677.2807,-211.7336"/>
<polygon fill="#191970" stroke="#191970" points="1678.5123,-208.4566 1667.9279,-207.9866 1675.909,-214.9546 1678.5123,-208.4566"/>
</g>
<!-- Node24&#45;&gt;Node2 -->
<g id="edge31" class="edge">
<title>Node24&#45;&gt;Node2</title>
<path fill="none" stroke="#191970" d="M1994.8787,-432.4093C2015.0841,-424.3538 2041.684,-411.9416 2062,-396 2118.6889,-351.5173 2154,-334.5579 2154,-262.5 2154,-262.5 2154,-262.5 2154,-140 2154,-108.1919 2159.9139,-90.775 2135,-71 2110.4549,-51.5177 1182.9708,-27.1439 882.1525,-19.7362"/>
<polygon fill="#191970" stroke="#191970" points="881.8013,-16.2266 871.7183,-19.4798 881.6293,-23.2245 881.8013,-16.2266"/>
</g>
<!-- Node24&#45;&gt;Node3 -->
<g id="edge79" class="edge">
<title>Node24&#45;&gt;Node3</title>
<path fill="none" stroke="#191970" d="M1983.8189,-432.4153C2024.2972,-408.0966 2116,-344.0083 2116,-262.5 2116,-262.5 2116,-262.5 2116,-198 2116,-156.2255 2079.8209,-119.3209 2054.9499,-98.8866"/>
<polygon fill="#191970" stroke="#191970" points="2057.03,-96.0693 2047.0175,-92.6049 2052.6842,-101.557 2057.03,-96.0693"/>
</g>
<!-- Node24&#45;&gt;Node4 -->
<g id="edge80" class="edge">
<title>Node24&#45;&gt;Node4</title>
<path fill="none" stroke="#191970" d="M1914.1929,-433.2697C1911.4249,-432.8202 1908.6804,-432.3933 1906,-432 1757.8403,-410.2609 1719.0145,-418.707 1571,-396 1441.0786,-376.0687 1408.9491,-368.0978 1281,-338 1185.0758,-315.4355 1126.8766,-358.265 1067,-280 1020.1993,-218.8265 1140.2307,-174.1362 1214.4551,-153.2257"/>
<polygon fill="#191970" stroke="#191970" points="1215.4448,-156.5835 1224.1564,-150.5537 1213.5859,-149.8348 1215.4448,-156.5835"/>
</g>
<!-- Node24&#45;&gt;Node7 -->
<g id="edge87" class="edge">
<title>Node24&#45;&gt;Node7</title>
<path fill="none" stroke="#191970" d="M1914.2252,-433.0145C1911.4489,-432.6308 1908.6937,-432.2879 1906,-432 1349.8271,-372.5613 1201.5706,-476.13 648,-396 449.785,-367.3081 373.5302,-356.4583 238,-209 207.9699,-176.327 185.7195,-128.6885 174.7135,-102.0116"/>
<polygon fill="#191970" stroke="#191970" points="177.9024,-100.5601 170.933,-92.5802 171.4049,-103.1645 177.9024,-100.5601"/>
</g>
<!-- Node24&#45;&gt;Node9 -->
<g id="edge88" class="edge">
<title>Node24&#45;&gt;Node9</title>
<path fill="none" stroke="#191970" d="M2015.4215,-432.4774C2075.5396,-419.8261 2168.8611,-399.8109 2176,-396 2315.2147,-321.6847 2353.061,-287.0635 2433,-151 2451.3248,-119.8095 2455.844,-106.3145 2448,-71 2445.3657,-59.1401 2439.8135,-46.7966 2434.6092,-36.9583"/>
<polygon fill="#191970" stroke="#191970" points="2437.5742,-35.0892 2429.6418,-28.0659 2431.463,-38.503 2437.5742,-35.0892"/>
</g>
<!-- Node24&#45;&gt;Node17 -->
<g id="edge82" class="edge">
<title>Node24&#45;&gt;Node17</title>
<path fill="none" stroke="#191970" d="M2012.4649,-432.485C2066.7721,-420.2635 2148.9221,-401.113 2154,-396 2234.9977,-314.4427 2220.7703,-158.545 2212.5165,-102.6117"/>
<polygon fill="#191970" stroke="#191970" points="2215.9422,-101.8653 2210.9287,-92.5317 2209.0274,-102.9546 2215.9422,-101.8653"/>
</g>
<!-- Node24&#45;&gt;Node19 -->
<g id="edge86" class="edge">
<title>Node24&#45;&gt;Node19</title>
<path fill="none" stroke="#191970" d="M2015.6501,-432.9349C2017.4545,-432.6133 2019.2421,-432.3006 2021,-432 2130.3507,-413.303 2162.3104,-429.7176 2268,-396 2288.4516,-389.4754 2291.3834,-382.7194 2311,-374 2438.3214,-317.4064 2604,-401.8326 2604,-262.5 2604,-262.5 2604,-262.5 2604,-140 2604,-105.2025 2594.9959,-91.6662 2567,-71 2499.9592,-21.5113 2462.8522,-58.8166 2383,-35 2379.6547,-34.0022 2376.2105,-32.8412 2372.7966,-31.6006"/>
<polygon fill="#191970" stroke="#191970" points="2373.9528,-28.2953 2363.3631,-27.9635 2371.4346,-34.8266 2373.9528,-28.2953"/>
</g>
<!-- Node24&#45;&gt;Node22 -->
<g id="edge81" class="edge">
<title>Node24&#45;&gt;Node22</title>
<path fill="none" stroke="#191970" d="M1965,-432.2949C1965,-413.1314 1965,-372.654 1965,-347.8434"/>
<polygon fill="#191970" stroke="#191970" points="1968.5001,-347.6792 1965,-337.6792 1961.5001,-347.6792 1968.5001,-347.6792"/>
</g>
<!-- Node25 -->
<g id="node26" class="node">
<title>Node25</title>
<g id="a_node26"><a xlink:href="DissipatingBody_8h.html" target="_top" xlink:title="Declares the DissipatingBody class. ">
<polygon fill="#ffffff" stroke="#000000" points="1698,-374.5 1698,-395.5 1812,-395.5 1812,-374.5 1698,-374.5"/>
<text text-anchor="middle" x="1755" y="-381.9" font-family="Helvetica,sans-Serif" font-size="12.00" fill="#000000">DissipatingBody.h</text>
</a>
</g>
</g>
<!-- Node24&#45;&gt;Node25 -->
<g id="edge32" class="edge">
<title>Node24&#45;&gt;Node25</title>
<path fill="none" stroke="#191970" d="M1926.9706,-432.4966C1892.1421,-422.8773 1840.4415,-408.5981 1802.8255,-398.209"/>
<polygon fill="#191970" stroke="#191970" points="1803.6717,-394.8117 1793.1007,-395.5231 1801.808,-401.5591 1803.6717,-394.8117"/>
</g>
<!-- Node24&#45;&gt;Node38 -->
<g id="edge75" class="edge">
<title>Node24&#45;&gt;Node38</title>
<path fill="none" stroke="#191970" d="M1914.2208,-433.0548C1911.4456,-432.6607 1908.6919,-432.3045 1906,-432 1711.9627,-410.0484 1214.1069,-455.1317 1028,-396 1010.8464,-390.5498 1010.6268,-380.8922 994,-374 913.7801,-340.7471 670.4185,-296.0296 547.5772,-274.7465"/>
<polygon fill="#191970" stroke="#191970" points="547.959,-271.2607 537.5092,-273.0078 546.7677,-278.1586 547.959,-271.2607"/>
</g>
<!-- Node43 -->
<g id="node39" class="node">
<title>Node43</title>
<g id="a_node39"><a xlink:href="SecondaryDeathCondition_8h.html" target="_top" xlink:title="Declares a stopping condition class monitoring for the death of the secondary object. ">
<polygon fill="#ffffff" stroke="#000000" points="814,-252 814,-273 982,-273 982,-252 814,-252"/>
<text text-anchor="middle" x="898" y="-259.4" font-family="Helvetica,sans-Serif" font-size="12.00" fill="#000000">SecondaryDeathCondition.h</text>
</a>
</g>
</g>
<!-- Node24&#45;&gt;Node43 -->
<g id="edge76" class="edge">
<title>Node24&#45;&gt;Node43</title>
<path fill="none" stroke="#191970" d="M1914.2199,-433.0624C1911.445,-432.6663 1908.6916,-432.3077 1906,-432 1722.3559,-411.0089 1248.9638,-458.4689 1075,-396 1006.8305,-371.5209 943.2389,-310.8925 914.331,-280.4884"/>
<polygon fill="#191970" stroke="#191970" points="916.819,-278.0247 907.4336,-273.109 911.7051,-282.8046 916.819,-278.0247"/>
</g>
<!-- Node24&#45;&gt;Node44 -->
<g id="edge83" class="edge">
<title>Node24&#45;&gt;Node44</title>
<path fill="none" stroke="#191970" d="M1914.2213,-433.0505C1911.446,-432.6575 1908.6921,-432.3028 1906,-432 1505.099,-386.9114 1400.094,-439.3378 999,-396 997.5395,-395.8422 996.0615,-395.6707 994.5719,-395.4872"/>
<polygon fill="#191970" stroke="#191970" points="995.0166,-392.0155 984.6338,-394.1245 994.0655,-398.9506 995.0166,-392.0155"/>
</g>
<!-- Node24&#45;&gt;Node45 -->
<g id="edge84" class="edge">
<title>Node24&#45;&gt;Node45</title>
<path fill="none" stroke="#191970" d="M2015.6175,-436.4765C2082.2636,-427.7835 2203.0522,-411.6704 2306,-396 2307.2597,-395.8083 2308.5325,-395.6128 2309.8152,-395.4142"/>
<polygon fill="#191970" stroke="#191970" points="2310.4502,-398.8574 2319.7829,-393.8423 2309.3598,-391.9428 2310.4502,-398.8574"/>
</g>
<!-- Node46 -->
<g id="node42" class="node">
<title>Node46</title>
<polygon fill="#ffffff" stroke="#bfbfbf" points="1580,-374.5 1580,-395.5 1680,-395.5 1680,-374.5 1580,-374.5"/>
<text text-anchor="middle" x="1630" y="-381.9" font-family="Helvetica,sans-Serif" font-size="12.00" fill="#000000">gsl/gsl_siman.h</text>
</g>
<!-- Node24&#45;&gt;Node46 -->
<g id="edge85" class="edge">
<title>Node24&#45;&gt;Node46</title>
<path fill="none" stroke="#191970" d="M1914.4815,-433.5129C1911.6131,-432.9955 1908.7706,-432.488 1906,-432 1812.8225,-415.5866 1786.9301,-413.1095 1690.1127,-396.1709"/>
<polygon fill="#191970" stroke="#191970" points="1690.6545,-392.7126 1680.1997,-394.4296 1689.4433,-399.607 1690.6545,-392.7126"/>
</g>
<!-- Node24&#45;&gt;Node34 -->
<g id="edge89" class="edge">
<title>Node24&#45;&gt;Node34</title>
<path fill="none" stroke="#191970" d="M2015.6606,-432.9937C2017.462,-432.6555 2019.2461,-432.3233 2021,-432 2113.6955,-414.9151 2139.9577,-423.87 2230,-396 2252.418,-389.0611 2256.5265,-383.4659 2278,-374 2315.5407,-357.4513 2331.6068,-364.4126 2363,-338 2444.8143,-269.1656 2500.326,-149.3543 2520.0428,-102.042"/>
<polygon fill="#191970" stroke="#191970" points="2523.3563,-103.1858 2523.898,-92.6048 2516.8761,-100.5385 2523.3563,-103.1858"/>
</g>
<!-- Node25&#45;&gt;Node2 -->
<g id="edge33" class="edge">
<title>Node25&#45;&gt;Node2</title>
<path fill="none" stroke="#191970" d="M1749.3183,-374.3459C1744.4109,-364.9307 1737.2954,-350.7525 1732,-338 1721.5431,-312.8175 1720.0189,-306.0615 1712,-280 1694.5295,-223.2209 1688.4904,-209.2843 1677,-151 1670.0693,-115.8444 1693.1287,-95.5202 1667,-71 1638.7049,-44.4468 1101.7703,-26.3306 881.7931,-19.9944"/>
<polygon fill="#191970" stroke="#191970" points="881.657,-16.4892 871.5609,-19.7016 881.4567,-23.4863 881.657,-16.4892"/>
</g>
<!-- Node25&#45;&gt;Node3 -->
<g id="edge71" class="edge">
<title>Node25&#45;&gt;Node3</title>
<path fill="none" stroke="#191970" d="M1812.1961,-383.3101C1889.4924,-379.848 2021.7133,-369.3854 2057,-338 2083.0247,-314.8526 2078,-297.3294 2078,-262.5 2078,-262.5 2078,-262.5 2078,-198 2078,-161.7931 2058.3953,-123.4223 2044.783,-101.1439"/>
<polygon fill="#191970" stroke="#191970" points="2047.6998,-99.2078 2039.3907,-92.6344 2041.787,-102.9547 2047.6998,-99.2078"/>
</g>
<!-- Node25&#45;&gt;Node4 -->
<g id="edge72" class="edge">
<title>Node25&#45;&gt;Node4</title>
<path fill="none" stroke="#191970" d="M1726.7147,-374.4626C1636.1871,-340.6023 1357.466,-235.2553 1323,-209 1305.0369,-195.3162 1289.525,-174.5137 1279.5971,-159.3274"/>
<polygon fill="#191970" stroke="#191970" points="1282.459,-157.304 1274.1652,-150.7114 1276.5376,-161.0372 1282.459,-157.304"/>
</g>
<!-- Node25&#45;&gt;Node6 -->
<g id="edge73" class="edge">
<title>Node25&#45;&gt;Node6</title>
<path fill="none" stroke="#191970" d="M1752.3936,-374.2379C1746.4855,-350.4632 1731.0926,-291.8577 1712,-245 1690.1041,-191.2624 1656.8043,-131.4145 1639.44,-101.3999"/>
<polygon fill="#191970" stroke="#191970" points="1642.4568,-99.6253 1634.3968,-92.7488 1636.4093,-103.1507 1642.4568,-99.6253"/>
</g>
<!-- Node25&#45;&gt;Node16 -->
<g id="edge74" class="edge">
<title>Node25&#45;&gt;Node16</title>
<path fill="none" stroke="#191970" d="M1783.058,-374.3535C1798.7377,-366.7841 1816.9046,-354.9285 1826,-338 1845.5628,-301.5893 1844.5609,-281.9315 1826,-245 1806.6007,-206.4003 1784.1529,-210.6483 1748,-187 1721.0119,-169.3466 1701.1867,-178.8925 1685,-151 1673.5188,-131.2159 1694.0918,-111.3681 1713.6496,-98.0723"/>
<polygon fill="#191970" stroke="#191970" points="1715.6259,-100.9629 1722.1584,-92.6215 1711.85,-95.0686 1715.6259,-100.9629"/>
</g>
<!-- Node25&#45;&gt;Node22 -->
<g id="edge70" class="edge">
<title>Node25&#45;&gt;Node22</title>
<path fill="none" stroke="#191970" d="M1793.0294,-374.4966C1827.8579,-364.8773 1879.5585,-350.5981 1917.1745,-340.209"/>
<polygon fill="#191970" stroke="#191970" points="1918.192,-343.5591 1926.8993,-337.5231 1916.3283,-336.8117 1918.192,-343.5591"/>
</g>
<!-- Node26 -->
<g id="node27" class="node">
<title>Node26</title>
<g id="a_node27"><a xlink:href="DissipatingZone_8h.html" target="_top" xlink:title="Declares a class representing one zone of a body dissipative to tidal distortions. ">
<polygon fill="#ffffff" stroke="#000000" points="1290,-316.5 1290,-337.5 1404,-337.5 1404,-316.5 1290,-316.5"/>
<text text-anchor="middle" x="1347" y="-323.9" font-family="Helvetica,sans-Serif" font-size="12.00" fill="#000000">DissipatingZone.h</text>
</a>
</g>
</g>
<!-- Node25&#45;&gt;Node26 -->
<g id="edge34" class="edge">
<title>Node25&#45;&gt;Node26</title>
<path fill="none" stroke="#191970" d="M1697.7809,-375.3445C1694.8126,-374.8809 1691.8721,-374.43 1689,-374 1568.8367,-356.0101 1538.2643,-355.3022 1418,-338 1416.8888,-337.8401 1415.768,-337.6779 1414.6397,-337.5137"/>
<polygon fill="#191970" stroke="#191970" points="1414.7393,-333.9905 1404.3352,-335.9918 1413.7165,-340.9154 1414.7393,-333.9905"/>
</g>
<!-- Node26&#45;&gt;Node2 -->
<g id="edge43" class="edge">
<title>Node26&#45;&gt;Node2</title>
<path fill="none" stroke="#191970" d="M1289.7952,-325.4C1121.3674,-320.4191 637.5493,-304.0684 614,-280 548.4152,-212.9694 575.8225,-136.4344 643,-71 657.9566,-56.4314 677.2025,-45.7825 696.7806,-38.0145"/>
<polygon fill="#191970" stroke="#191970" points="698.2535,-41.2008 706.401,-34.428 695.8083,-34.6417 698.2535,-41.2008"/>
</g>
<!-- Node26&#45;&gt;Node4 -->
<g id="edge67" class="edge">
<title>Node26&#45;&gt;Node4</title>
<path fill="none" stroke="#191970" d="M1356.2165,-316.4138C1369.3062,-300.028 1390.1044,-268.0153 1375,-245 1352.9383,-211.3835 1319.3536,-238.4715 1292,-209 1279.6416,-195.6847 1273.5993,-175.669 1270.674,-160.6191"/>
<polygon fill="#191970" stroke="#191970" points="1274.1205,-160.0071 1269.0491,-150.7049 1267.2127,-161.1394 1274.1205,-160.0071"/>
</g>
<!-- Node26&#45;&gt;Node6 -->
<g id="edge68" class="edge">
<title>Node26&#45;&gt;Node6</title>
<path fill="none" stroke="#191970" d="M1404.0089,-321.844C1485.1383,-313.9227 1625.8225,-297.7966 1641,-280 1651.094,-268.1642 1646.4136,-259.5832 1641,-245 1633.6518,-225.2053 1622.278,-226.1778 1610,-209 1592.6247,-184.6907 1583.8291,-179.8365 1576,-151 1573.4381,-141.5638 1572.0315,-137.9362 1576,-129 1581.402,-116.8358 1591.6801,-106.4865 1601.6816,-98.6217"/>
<polygon fill="#191970" stroke="#191970" points="1603.8946,-101.3395 1609.9047,-92.6143 1599.7652,-95.6872 1603.8946,-101.3395"/>
</g>
<!-- Node26&#45;&gt;Node17 -->
<g id="edge44" class="edge">
<title>Node26&#45;&gt;Node17</title>
<path fill="none" stroke="#191970" d="M1404.227,-322.4886C1500.2007,-314.5719 1689.4325,-297.3638 1754,-280 1923.6374,-234.3803 2111.7078,-135.8146 2181.2212,-97.5912"/>
<polygon fill="#191970" stroke="#191970" points="2183.1715,-100.5123 2190.2287,-92.61 2179.7839,-94.3866 2183.1715,-100.5123"/>
</g>
<!-- Node27 -->
<g id="node28" class="node">
<title>Node27</title>
<g id="a_node28"><a xlink:href="ZoneOrientation_8h.html" target="_top" xlink:title="Declares a class for orientations of zones of DissipatingBody objects. ">
<polygon fill="#ffffff" stroke="#000000" points="1372.5,-187.5 1372.5,-208.5 1485.5,-208.5 1485.5,-187.5 1372.5,-187.5"/>
<text text-anchor="middle" x="1429" y="-194.9" font-family="Helvetica,sans-Serif" font-size="12.00" fill="#000000">ZoneOrientation.h</text>
</a>
</g>
</g>
<!-- Node26&#45;&gt;Node27 -->
<g id="edge35" class="edge">
<title>Node26&#45;&gt;Node27</title>
<path fill="none" stroke="#191970" d="M1366.8812,-316.4227C1380.4254,-308.2212 1397.7035,-295.6302 1408,-280 1420.136,-261.5776 1425.26,-236.5643 1427.4226,-219.0246"/>
<polygon fill="#191970" stroke="#191970" points="1430.9405,-219.0225 1428.46,-208.7222 1423.9757,-218.3211 1430.9405,-219.0225"/>
</g>
<!-- Node28 -->
<g id="node29" class="node">
<title>Node28</title>
<g id="a_node29"><a xlink:href="DissipationQuantities_8h.html" target="_top" xlink:title="Declaration of enumerations of dissipation quantities and derivatives. ">
<polygon fill="#ffffff" stroke="#000000" points="1694,-129.5 1694,-150.5 1834,-150.5 1834,-129.5 1694,-129.5"/>
<text text-anchor="middle" x="1764" y="-136.9" font-family="Helvetica,sans-Serif" font-size="12.00" fill="#000000">DissipationQuantities.h</text>
</a>
</g>
</g>
<!-- Node26&#45;&gt;Node28 -->
<g id="edge49" class="edge">
<title>Node26&#45;&gt;Node28</title>
<path fill="none" stroke="#191970" d="M1404.1867,-324.4485C1485.7504,-319.8696 1630.4523,-307.9807 1674,-280 1718.7726,-251.2323 1745.7067,-191.393 1757.2954,-160.0816"/>
<polygon fill="#191970" stroke="#191970" points="1760.599,-161.2375 1760.6408,-150.6427 1754.0012,-158.899 1760.599,-161.2375"/>
</g>
<!-- Node30 -->
<g id="node31" class="node">
<title>Node30</title>
<g id="a_node31"><a xlink:href="TidalPotentialTerms_8h.html" target="_top" xlink:title="Declare an interface for evaluating the expansion of the tidal potential. ">
<polygon fill="#ffffff" stroke="#ff0000" points="1498,-252 1498,-273 1632,-273 1632,-252 1498,-252"/>
<text text-anchor="middle" x="1565" y="-259.4" font-family="Helvetica,sans-Serif" font-size="12.00" fill="#000000">TidalPotentialTerms.h</text>
</a>
</g>
</g>
<!-- Node26&#45;&gt;Node30 -->
<g id="edge45" class="edge">
<title>Node26&#45;&gt;Node30</title>
<path fill="none" stroke="#191970" d="M1382.5107,-316.4934C1419.9612,-305.4129 1479.0767,-287.9223 1519.8228,-275.8666"/>
<polygon fill="#191970" stroke="#191970" points="1520.9085,-279.1955 1529.5045,-273.0021 1518.9224,-272.4831 1520.9085,-279.1955"/>
</g>
<!-- Node37 -->
<g id="node32" class="node">
<title>Node37</title>
<g id="a_node32"><a xlink:href="SpinOrbitLockInfo_8h.html" target="_top" xlink:title="Defines the SpinOrbitLockInfo class. ">
<polygon fill="#ffffff" stroke="#000000" points="1852,-129.5 1852,-150.5 1974,-150.5 1974,-129.5 1852,-129.5"/>
<text text-anchor="middle" x="1913" y="-136.9" font-family="Helvetica,sans-Serif" font-size="12.00" fill="#000000">SpinOrbitLockInfo.h</text>
</a>
</g>
</g>
<!-- Node26&#45;&gt;Node37 -->
<g id="edge50" class="edge">
<title>Node26&#45;&gt;Node37</title>
<path fill="none" stroke="#191970" d="M1404.0958,-322.7462C1491.0025,-315.7299 1652.0739,-300.4471 1706,-280 1782.9898,-250.8079 1859.5937,-187.9552 1894.0705,-157.3943"/>
<polygon fill="#191970" stroke="#191970" points="1896.4241,-159.9849 1901.5287,-150.7008 1891.7486,-154.7753 1896.4241,-159.9849"/>
</g>
<!-- Node26&#45;&gt;Node38 -->
<g id="edge53" class="edge">
<title>Node26&#45;&gt;Node38</title>
<path fill="none" stroke="#191970" d="M1289.5733,-325.5207C1161.7343,-321.7813 844.1179,-310.0198 580,-280 567.5394,-278.5837 554.307,-276.6886 541.5874,-274.6681"/>
<polygon fill="#191970" stroke="#191970" points="541.9539,-271.1817 531.5211,-273.0276 540.8279,-278.0906 541.9539,-271.1817"/>
</g>
<!-- Node40 -->
<g id="node36" class="node">
<title>Node40</title>
<g id="a_node36"><a xlink:href="BreakLockCondition_8h.html" target="_top" xlink:title="Declares a class for a stopping condition monitoring when a locked zone loses the lock...">
<polygon fill="#ffffff" stroke="#000000" points="622.5,-252 622.5,-273 757.5,-273 757.5,-252 622.5,-252"/>
<text text-anchor="middle" x="690" y="-259.4" font-family="Helvetica,sans-Serif" font-size="12.00" fill="#000000">BreakLockCondition.h</text>
</a>
</g>
</g>
<!-- Node26&#45;&gt;Node40 -->
<g id="edge60" class="edge">
<title>Node26&#45;&gt;Node40</title>
<path fill="none" stroke="#191970" d="M1289.9116,-323.2663C1190.9721,-316.5238 981.316,-301.0378 805,-280 791.8967,-278.4365 777.9901,-276.531 764.544,-274.56"/>
<polygon fill="#191970" stroke="#191970" points="764.7791,-271.0565 754.3724,-273.0445 763.7475,-277.98 764.7791,-271.0565"/>
</g>
<!-- Node41 -->
<g id="node37" class="node">
<title>Node41</title>
<g id="a_node37"><a xlink:href="SynchronizedCondition_8h.html" target="_top" xlink:title="Declares a stopping condition monitoring spin&#45;orbit synchronization. ">
<polygon fill="#ffffff" stroke="#000000" points="1214,-252 1214,-273 1366,-273 1366,-252 1214,-252"/>
<text text-anchor="middle" x="1290" y="-259.4" font-family="Helvetica,sans-Serif" font-size="12.00" fill="#000000">SynchronizedCondition.h</text>
</a>
</g>
</g>
<!-- Node26&#45;&gt;Node41 -->
<g id="edge63" class="edge">
<title>Node26&#45;&gt;Node41</title>
<path fill="none" stroke="#191970" d="M1337.5876,-316.3491C1329.14,-306.7901 1316.5518,-292.5454 1306.4439,-281.1076"/>
<polygon fill="#191970" stroke="#191970" points="1308.8616,-278.5579 1299.6169,-273.3823 1303.6162,-283.1933 1308.8616,-278.5579"/>
</g>
<!-- Node42 -->
<g id="node38" class="node">
<title>Node42</title>
<polygon fill="#ffffff" stroke="#bfbfbf" points="1076,-245.5 1076,-279.5 1196,-279.5 1196,-245.5 1076,-245.5"/>
<text text-anchor="start" x="1084" y="-265.9" font-family="Helvetica,sans-Serif" font-size="12.00" fill="#000000">boost/math/special</text>
<text text-anchor="middle" x="1136" y="-252.9" font-family="Helvetica,sans-Serif" font-size="12.00" fill="#000000">_functions/sign.hpp</text>
</g>
<!-- Node26&#45;&gt;Node42 -->
<g id="edge69" class="edge">
<title>Node26&#45;&gt;Node42</title>
<path fill="none" stroke="#191970" d="M1312.6296,-316.4934C1282.6145,-307.3182 1238.2215,-293.7478 1201.4508,-282.5075"/>
<polygon fill="#191970" stroke="#191970" points="1202.3778,-279.131 1191.7915,-279.5547 1200.3314,-285.8253 1202.3778,-279.131"/>
</g>
<!-- Node27&#45;&gt;Node2 -->
<g id="edge36" class="edge">
<title>Node27&#45;&gt;Node2</title>
<path fill="none" stroke="#191970" d="M1430.0868,-187.4182C1431.9751,-162.6727 1432.7826,-100.8666 1398,-71 1359.7602,-38.1648 1042.9672,-24.6017 882.0531,-19.7889"/>
<polygon fill="#191970" stroke="#191970" points="881.7824,-16.2796 871.6839,-19.4845 881.5769,-23.2766 881.7824,-16.2796"/>
</g>
<!-- Node27&#45;&gt;Node4 -->
<g id="edge41" class="edge">
<title>Node27&#45;&gt;Node4</title>
<path fill="none" stroke="#191970" d="M1399.8441,-187.4966C1373.824,-178.1229 1335.5207,-164.3242 1306.8959,-154.0122"/>
<polygon fill="#191970" stroke="#191970" points="1307.805,-150.6195 1297.2106,-150.5231 1305.4324,-157.2052 1307.805,-150.6195"/>
</g>
<!-- Node27&#45;&gt;Node20 -->
<g id="edge42" class="edge">
<title>Node27&#45;&gt;Node20</title>
<path fill="none" stroke="#191970" d="M1438.5054,-187.2949C1456.1344,-167.4408 1494.0774,-124.709 1515.8184,-100.2239"/>
<polygon fill="#191970" stroke="#191970" points="1518.4951,-102.4808 1522.5176,-92.6792 1513.2607,-97.833 1518.4951,-102.4808"/>
</g>
<!-- Node27&#45;&gt;Node28 -->
<g id="edge37" class="edge">
<title>Node27&#45;&gt;Node28</title>
<path fill="none" stroke="#191970" d="M1485.8282,-188.1611C1543.0326,-178.257 1631.4087,-162.9561 1693.1511,-152.2664"/>
<polygon fill="#191970" stroke="#191970" points="1693.9488,-155.6804 1703.2051,-150.5257 1692.7546,-148.783 1693.9488,-155.6804"/>
</g>
<!-- Node28&#45;&gt;Node2 -->
<g id="edge38" class="edge">
<title>Node28&#45;&gt;Node2</title>
<path fill="none" stroke="#191970" d="M1771.3509,-129.3514C1780.7452,-114.3172 1794.092,-86.9296 1779,-71 1748.4195,-38.7223 1122.0711,-23.6935 881.7532,-19.0991"/>
<polygon fill="#191970" stroke="#191970" points="881.7041,-15.5976 871.6396,-18.9076 881.5715,-22.5964 881.7041,-15.5976"/>
</g>
<!-- Node28&#45;&gt;Node16 -->
<g id="edge40" class="edge">
<title>Node28&#45;&gt;Node16</title>
<path fill="none" stroke="#191970" d="M1759.9649,-129.3619C1757.0808,-121.7584 1753.1115,-111.294 1749.6374,-102.1349"/>
<polygon fill="#191970" stroke="#191970" points="1752.8287,-100.6793 1746.0096,-92.5707 1746.2837,-103.1619 1752.8287,-100.6793"/>
</g>
<!-- Node29 -->
<g id="node30" class="node">
<title>Node29</title>
<polygon fill="#ffffff" stroke="#bfbfbf" points="2253.5,-71.5 2253.5,-92.5 2312.5,-92.5 2312.5,-71.5 2253.5,-71.5"/>
<text text-anchor="middle" x="2283" y="-78.9" font-family="Helvetica,sans-Serif" font-size="12.00" fill="#000000">ostream</text>
</g>
<!-- Node28&#45;&gt;Node29 -->
<g id="edge39" class="edge">
<title>Node28&#45;&gt;Node29</title>
<path fill="none" stroke="#191970" d="M1834.1886,-130.0449C1837.1641,-129.6804 1840.1108,-129.3303 1843,-129 2018.0009,-108.9927 2066.9391,-125.4736 2243.3894,-93.0365"/>
<polygon fill="#191970" stroke="#191970" points="2244.071,-96.4698 2253.26,-91.1958 2242.7878,-89.5884 2244.071,-96.4698"/>
</g>
<!-- Node30&#45;&gt;Node4 -->
<g id="edge48" class="edge">
<title>Node30&#45;&gt;Node4</title>
<path fill="none" stroke="#191970" d="M1502.2732,-251.908C1461.5578,-243.5763 1408.0716,-229.8379 1364,-209 1335.197,-195.3813 1306.0278,-172.9093 1287.5263,-157.3275"/>
<polygon fill="#191970" stroke="#191970" points="1289.6837,-154.5668 1279.8159,-150.7097 1285.1247,-159.8786 1289.6837,-154.5668"/>
</g>
<!-- Node30&#45;&gt;Node6 -->
<g id="edge47" class="edge">
<title>Node30&#45;&gt;Node6</title>
<path fill="none" stroke="#191970" d="M1558.171,-251.9366C1543.7573,-228.1775 1513.4921,-169.447 1538,-129 1544.2345,-118.7108 1569.408,-106.0317 1591.5513,-96.4366"/>
<polygon fill="#191970" stroke="#191970" points="1592.9445,-99.6476 1600.7917,-92.5292 1590.2182,-93.2003 1592.9445,-99.6476"/>
</g>
<!-- Node30&#45;&gt;Node23 -->
<g id="edge46" class="edge">
<title>Node30&#45;&gt;Node23</title>
<path fill="none" stroke="#191970" d="M1577.8801,-251.8491C1589.9612,-241.859 1608.2311,-226.7512 1622.3474,-215.0781"/>
<polygon fill="#191970" stroke="#191970" points="1624.6247,-217.7366 1630.1008,-208.6667 1620.1638,-212.3421 1624.6247,-217.7366"/>
</g>
<!-- Node37&#45;&gt;Node2 -->
<g id="edge51" class="edge">
<title>Node37&#45;&gt;Node2</title>
<path fill="none" stroke="#191970" d="M1899.9633,-129.408C1879.3501,-113.3667 1837.3159,-83.4625 1796,-71 1709.9628,-45.0477 1114.1629,-26.3101 881.6472,-19.9085"/>
<polygon fill="#191970" stroke="#191970" points="881.6132,-16.4064 871.5211,-19.6312 881.4215,-23.4038 881.6132,-16.4064"/>
</g>
<!-- Node37&#45;&gt;Node9 -->
<g id="edge52" class="edge">
<title>Node37&#45;&gt;Node9</title>
<path fill="none" stroke="#191970" d="M1974.1606,-136.8844C2072.3088,-131.2324 2260.2255,-117.5421 2322,-93 2354.9344,-79.9157 2386.6016,-53.1909 2405.4358,-35.3077"/>
<polygon fill="#191970" stroke="#191970" points="2407.9624,-37.7328 2412.6883,-28.2503 2403.0805,-32.716 2407.9624,-37.7328"/>
</g>
<!-- Node38&#45;&gt;Node2 -->
<g id="edge54" class="edge">
<title>Node38&#45;&gt;Node2</title>
<path fill="none" stroke="#191970" d="M473.2114,-251.9885C468.3973,-219.8424 458.714,-121.9482 509,-71 534.8045,-44.8557 624.8349,-31.0426 695.9276,-24.0507"/>
<polygon fill="#191970" stroke="#191970" points="696.6454,-27.4984 706.2694,-23.068 695.9831,-20.5297 696.6454,-27.4984"/>
</g>
<!-- Node39 -->
<g id="node34" class="node">
<title>Node39</title>
<g id="a_node34"><a xlink:href="StoppingCondition_8h.html" target="_top" xlink:title="Defines the various stopping conditions needed by OrbitSolver. ">
<polygon fill="#ffffff" stroke="#000000" points="627,-187.5 627,-208.5 753,-208.5 753,-187.5 627,-187.5"/>
<text text-anchor="middle" x="690" y="-194.9" font-family="Helvetica,sans-Serif" font-size="12.00" fill="#000000">StoppingCondition.h</text>
</a>
</g>
</g>
<!-- Node38&#45;&gt;Node39 -->
<g id="edge55" class="edge">
<title>Node38&#45;&gt;Node39</title>
<path fill="none" stroke="#191970" d="M510.022,-251.9934C546.8791,-240.9363 605.0127,-223.4962 645.1894,-211.4432"/>
<polygon fill="#191970" stroke="#191970" points="646.4205,-214.728 654.993,-208.5021 644.409,-208.0232 646.4205,-214.728"/>
</g>
<!-- Node38&#45;&gt;Node32 -->
<g id="edge59" class="edge">
<title>Node38&#45;&gt;Node32</title>
<path fill="none" stroke="#191970" d="M441.9327,-251.9934C404.5988,-240.1311 344.1437,-220.9225 306.3069,-208.9005"/>
<polygon fill="#191970" stroke="#191970" points="307.3283,-205.5526 296.7379,-205.8601 305.2085,-212.224 307.3283,-205.5526"/>
</g>
<!-- Node39&#45;&gt;Node2 -->
<g id="edge56" class="edge">
<title>Node39&#45;&gt;Node2</title>
<path fill="none" stroke="#191970" d="M685.1327,-187.4682C675.2449,-164.3676 655.6412,-108.336 679,-71 687.6746,-57.1348 701.0855,-46.77 715.5978,-39.0544"/>
<polygon fill="#191970" stroke="#191970" points="717.2957,-42.1203 724.7436,-34.5851 714.2223,-35.8311 717.2957,-42.1203"/>
</g>
<!-- Node39&#45;&gt;Node4 -->
<g id="edge57" class="edge">
<title>Node39&#45;&gt;Node4</title>
<path fill="none" stroke="#191970" d="M753.2327,-191.6548C863.1625,-180.6238 1088.5017,-158.0119 1201.0051,-146.7227"/>
<polygon fill="#191970" stroke="#191970" points="1201.6042,-150.1802 1211.2048,-145.6992 1200.9053,-143.2152 1201.6042,-150.1802"/>
</g>
<!-- Node39&#45;&gt;Node16 -->
<g id="edge58" class="edge">
<title>Node39&#45;&gt;Node16</title>
<path fill="none" stroke="#191970" d="M753.2649,-195.3729C868.8958,-190.1291 1121.9846,-176.606 1334,-151 1471.3149,-134.4159 1632.8593,-103.7492 1704.5208,-89.5625"/>
<polygon fill="#191970" stroke="#191970" points="1705.3026,-92.9756 1714.428,-87.5926 1703.9374,-86.11 1705.3026,-92.9756"/>
</g>
<!-- Node40&#45;&gt;Node2 -->
<g id="edge61" class="edge">
<title>Node40&#45;&gt;Node2</title>
<path fill="none" stroke="#191970" d="M665.7923,-251.8748C649,-243.0569 627.9337,-228.7571 618,-209 613.6078,-200.2643 616.0942,-196.5902 618,-187 628.8753,-132.2751 626.9023,-110.8053 666,-71 679.8262,-56.9236 697.9743,-46.3044 716.0688,-38.3959"/>
<polygon fill="#191970" stroke="#191970" points="717.5938,-41.553 725.503,-34.5034 714.9239,-35.0821 717.5938,-41.553"/>
</g>
<!-- Node40&#45;&gt;Node39 -->
<g id="edge62" class="edge">
<title>Node40&#45;&gt;Node39</title>
<path fill="none" stroke="#191970" d="M690,-251.8491C690,-242.9397 690,-229.9599 690,-218.9761"/>
<polygon fill="#191970" stroke="#191970" points="693.5001,-218.8822 690,-208.8823 686.5001,-218.8823 693.5001,-218.8822"/>
</g>
<!-- Node41&#45;&gt;Node2 -->
<g id="edge64" class="edge">
<title>Node41&#45;&gt;Node2</title>
<path fill="none" stroke="#191970" d="M1246.5585,-251.9626C1123.8326,-221.7718 781.4315,-134.4706 751,-93 739.4672,-77.2837 750.1362,-57.5478 763.0706,-42.1962"/>
<polygon fill="#191970" stroke="#191970" points="765.8193,-44.375 769.9354,-34.6124 760.6296,-39.6774 765.8193,-44.375"/>
</g>
<!-- Node41&#45;&gt;Node37 -->
<g id="edge66" class="edge">
<title>Node41&#45;&gt;Node37</title>
<path fill="none" stroke="#191970" d="M1330.1924,-251.9458C1390.6153,-236.3233 1508.5919,-206.7655 1610,-187 1709.7353,-167.5605 1737.7837,-167.1409 1841.9366,-151.1521"/>
<polygon fill="#191970" stroke="#191970" points="1842.5707,-154.5957 1851.9181,-149.6081 1841.5005,-147.678 1842.5707,-154.5957"/>
</g>
<!-- Node41&#45;&gt;Node39 -->
<g id="edge65" class="edge">
<title>Node41&#45;&gt;Node39</title>
<path fill="none" stroke="#191970" d="M1243.4049,-251.9162C1230.9759,-249.365 1217.5204,-246.8462 1205,-245 1028.4132,-218.9611 982.7322,-225.4981 805,-209 791.5012,-207.747 777.1134,-206.3888 763.2472,-205.0683"/>
<polygon fill="#191970" stroke="#191970" points="763.5501,-201.5813 753.2628,-204.1154 762.885,-208.5497 763.5501,-201.5813"/>
</g>
<!-- Node43&#45;&gt;Node2 -->
<g id="edge77" class="edge">
<title>Node43&#45;&gt;Node2</title>
<path fill="none" stroke="#191970" d="M873.7578,-251.8861C853.9177,-242.4552 825.8304,-227.3405 805,-209 756.431,-166.2366 737.6323,-154.3348 717,-93 713.8825,-83.7325 712.6078,-79.7357 717,-71 723.1878,-58.6931 733.6952,-48.5038 744.7985,-40.4379"/>
<polygon fill="#191970" stroke="#191970" points="747.0038,-43.1724 753.3437,-34.6838 743.094,-37.3661 747.0038,-43.1724"/>
</g>
<!-- Node43&#45;&gt;Node39 -->
<g id="edge78" class="edge">
<title>Node43&#45;&gt;Node39</title>
<path fill="none" stroke="#191970" d="M864.1183,-251.9934C828.6123,-240.9831 772.6965,-223.6439 733.8467,-211.5967"/>
<polygon fill="#191970" stroke="#191970" points="734.4552,-208.121 723.8672,-208.5021 732.3819,-214.8069 734.4552,-208.121"/>
</g>
<!-- Node47&#45;&gt;Node2 -->
<g id="edge92" class="edge">
<title>Node47&#45;&gt;Node2</title>
<path fill="none" stroke="#191970" d="M669.9788,-374.4469C572.4839,-359.0195 410.4771,-326.9459 375,-280 365.6214,-267.5896 370.5518,-259.906 375,-245 401.4373,-156.4075 411.8513,-121.9473 489,-71 522.4307,-48.9232 621.304,-34.2431 696.4874,-25.9347"/>
<polygon fill="#191970" stroke="#191970" points="696.898,-29.4107 706.4628,-24.854 696.144,-22.4515 696.898,-29.4107"/>
</g>
<!-- Node47&#45;&gt;Node26 -->
<g id="edge94" class="edge">
<title>Node47&#45;&gt;Node26</title>
<path fill="none" stroke="#191970" d="M833.1807,-376.5042C954.5119,-364.8145 1170.299,-344.0243 1279.5813,-333.4955"/>
<polygon fill="#191970" stroke="#191970" points="1280.1996,-336.9522 1289.8178,-332.5092 1279.5282,-329.9845 1280.1996,-336.9522"/>
</g>
<!-- Node47&#45;&gt;Node39 -->
<g id="edge93" class="edge">
<title>Node47&#45;&gt;Node39</title>
<path fill="none" stroke="#191970" d="M750.9614,-374.3623C763.8369,-349.8369 791.202,-288.1269 767,-245 759.0151,-230.7712 744.7771,-220.3396 730.6979,-212.9711"/>
<polygon fill="#191970" stroke="#191970" points="732.0648,-209.7447 721.5361,-208.5621 729.0293,-216.0523 732.0648,-209.7447"/>
</g>
<!-- Node48&#45;&gt;Node2 -->
<g id="edge96" class="edge">
<title>Node48&#45;&gt;Node2</title>
<path fill="none" stroke="#191970" d="M152.6798,-251.6453C134.793,-219.3601 88.1231,-122.9599 136,-71 154.7017,-50.7034 520.461,-30.4279 696.2271,-21.8103"/>
<polygon fill="#191970" stroke="#191970" points="696.4271,-25.3049 706.2447,-21.3217 696.086,-18.3132 696.4271,-25.3049"/>
</g>
<!-- Node48&#45;&gt;Node39 -->
<g id="edge97" class="edge">
<title>Node48&#45;&gt;Node39</title>
<path fill="none" stroke="#191970" d="M214.3236,-255.7799C310.5645,-244.0896 508.7954,-220.0107 616.4783,-206.9306"/>
<polygon fill="#191970" stroke="#191970" points="617.1051,-210.3803 626.6101,-205.6999 616.261,-203.4314 617.1051,-210.3803"/>
</g>
<!-- Node49&#45;&gt;Node2 -->
<g id="edge99" class="edge">
<title>Node49&#45;&gt;Node2</title>
<path fill="none" stroke="#191970" d="M2357.6254,-129.304C2353.4651,-113.4099 2343.2042,-84.0337 2322,-71 2306.5874,-61.5263 1211.9012,-29.5633 882.0449,-20.1374"/>
<polygon fill="#191970" stroke="#191970" points="881.6681,-16.6253 871.5722,-19.8383 881.4682,-23.6224 881.6681,-16.6253"/>
</g>
<!-- Node49&#45;&gt;Node5 -->
<g id="edge102" class="edge">
<title>Node49&#45;&gt;Node5</title>
<path fill="none" stroke="#191970" d="M2371.5552,-129.3619C2380.6134,-121.0226 2393.4097,-109.2418 2403.9737,-99.5162"/>
<polygon fill="#191970" stroke="#191970" points="2406.5317,-101.9187 2411.5181,-92.5707 2401.7905,-96.7688 2406.5317,-101.9187"/>
</g>
<!-- Node49&#45;&gt;Node6 -->
<g id="edge101" class="edge">
<title>Node49&#45;&gt;Node6</title>
<path fill="none" stroke="#191970" d="M2295.8179,-136.8467C2178.4961,-130.7581 1921.6393,-115.9267 1706,-93 1693.4634,-91.6671 1679.841,-89.8677 1667.5406,-88.1107"/>
<polygon fill="#191970" stroke="#191970" points="1667.9726,-84.6367 1657.5719,-86.6559 1666.9617,-91.5634 1667.9726,-84.6367"/>
</g>
<!-- Node49&#45;&gt;Node16 -->
<g id="edge104" class="edge">
<title>Node49&#45;&gt;Node16</title>
<path fill="none" stroke="#191970" d="M2295.9017,-133.9843C2167.5182,-121.9354 1882.3654,-95.1735 1779.7281,-85.5408"/>
<polygon fill="#191970" stroke="#191970" points="1779.8154,-82.0337 1769.5321,-84.5839 1779.1612,-89.0031 1779.8154,-82.0337"/>
</g>
<!-- Node49&#45;&gt;Node17 -->
<g id="edge100" class="edge">
<title>Node49&#45;&gt;Node17</title>
<path fill="none" stroke="#191970" d="M2332.655,-129.4966C2308.1306,-120.0766 2271.9718,-106.1878 2245.0829,-95.8597"/>
<polygon fill="#191970" stroke="#191970" points="2246.2247,-92.549 2235.6346,-92.2305 2243.7147,-99.0835 2246.2247,-92.549"/>
</g>
<!-- Node49&#45;&gt;Node29 -->
<g id="edge103" class="edge">
<title>Node49&#45;&gt;Node29</title>
<path fill="none" stroke="#191970" d="M2345.877,-129.3619C2334.4802,-120.7773 2318.2419,-108.5459 2305.1223,-98.6636"/>
<polygon fill="#191970" stroke="#191970" points="2307.1268,-95.7916 2297.0335,-92.5707 2302.9152,-101.3829 2307.1268,-95.7916"/>
</g>
<!-- Node49&#45;&gt;Node34 -->
<g id="edge105" class="edge">
<title>Node49&#45;&gt;Node34</title>
<path fill="none" stroke="#191970" d="M2390.4235,-129.4966C2417.9484,-119.994 2458.6454,-105.9438 2488.6396,-95.5887"/>
<polygon fill="#191970" stroke="#191970" points="2490.0564,-98.8024 2498.3668,-92.2305 2487.772,-92.1856 2490.0564,-98.8024"/>
</g>
</g>
</svg>
