<?xml version="1.0" encoding="UTF-8" standalone="no"?>
<!DOCTYPE svg PUBLIC "-//W3C//DTD SVG 1.1//EN"
 "http://www.w3.org/Graphics/SVG/1.1/DTD/svg11.dtd">
<!-- Generated by graphviz version 2.40.1 (20161225.0304)
 -->
<!-- Title: /home/kpenev/projects/git/poet/poet_src/Planet/CInterface.h Pages: 1 -->
<!--zoomable 746 -->
<svg id="main" version="1.1" xmlns="http://www.w3.org/2000/svg" xmlns:xlink="http://www.w3.org/1999/xlink" xml:space="preserve" onload="init(evt)">
<style type="text/css"><![CDATA[
.edge:hover path { stroke: red; }
.edge:hover polygon { stroke: red; fill: red; }
]]></style>
<script type="text/javascript"><![CDATA[
var edges = document.getElementsByTagName('g');
if (edges && edges.length) {
  for (var i=0;i<edges.length;i++) {
    if (edges[i].id.substr(0,4)=='edge') {
      edges[i].setAttribute('class','edge');
    }
  }
}
]]></script>
        <defs>
                <circle id="rim" cx="0" cy="0" r="7"/>
                <circle id="rim2" cx="0" cy="0" r="3.5"/>
                <g id="zoomPlus">
                        <use xlink:href="#rim" fill="#404040">
                                <set attributeName="fill" to="#808080" begin="zoomplus.mouseover" end="zoomplus.mouseout"/>
                        </use>
                        <path d="M-4,0h8M0,-4v8" fill="none" stroke="white" stroke-width="1.5" pointer-events="none"/>
                </g>
                <g id="zoomMin">
                        <use xlink:href="#rim" fill="#404040">
                                <set attributeName="fill" to="#808080" begin="zoomminus.mouseover" end="zoomminus.mouseout"/>
                        </use>
                        <path d="M-4,0h8" fill="none" stroke="white" stroke-width="1.5" pointer-events="none"/>
                </g>
                <g id="dirArrow">
                        <path fill="none" stroke="white" stroke-width="1.5" d="M0,-3.0v7 M-2.5,-0.5L0,-3.0L2.5,-0.5"/>
                </g>
               <g id="resetDef">
                       <use xlink:href="#rim2" fill="#404040">
                               <set attributeName="fill" to="#808080" begin="reset.mouseover" end="reset.mouseout"/>
                       </use>
               </g>
        </defs>

<script type="text/javascript">
var viewWidth = 2483;
var viewHeight = 746;
var sectionId = 'dynsection-0';
</script>
<script xlink:href="svgpan.js"/>
<svg id="graph" class="graph">
<g id="viewport">
<title>/home/kpenev/projects/git/poet/poet_src/Planet/CInterface.h</title>
<polygon fill="#ffffff" stroke="transparent" points="-4,4 -4,-742 2479.4636,-742 2479.4636,4 -4,4"/>
<!-- Node0 -->
<g id="node1" class="node">
<title>Node0</title>
<polygon fill="#bfbfbf" stroke="#000000" points="1684.9636,-690.5 1684.9636,-737.5 1829.9636,-737.5 1829.9636,-690.5 1684.9636,-690.5"/>
<text text-anchor="start" x="1692.9636" y="-723.9" font-family="Helvetica,sans-Serif" font-size="12.00" fill="#000000">/home/kpenev/projects</text>
<text text-anchor="start" x="1692.9636" y="-710.9" font-family="Helvetica,sans-Serif" font-size="12.00" fill="#000000">/git/poet/poet_src/Planet</text>
<text text-anchor="middle" x="1757.4636" y="-697.9" font-family="Helvetica,sans-Serif" font-size="12.00" fill="#000000">/CInterface.h</text>
</g>
<!-- Node1 -->
<g id="node2" class="node">
<title>Node1</title>
<g id="a_node2"><a xlink:href="SharedLibraryExportMacros_8h_source.html" target="_top" xlink:title="../Core/SharedLibraryExport\lMacros.h">
<polygon fill="#ffffff" stroke="#000000" points="1550.9636,-.5 1550.9636,-34.5 1715.9636,-34.5 1715.9636,-.5 1550.9636,-.5"/>
<text text-anchor="start" x="1558.9636" y="-20.9" font-family="Helvetica,sans-Serif" font-size="12.00" fill="#000000">../Core/SharedLibraryExport</text>
<text text-anchor="middle" x="1633.4636" y="-7.9" font-family="Helvetica,sans-Serif" font-size="12.00" fill="#000000">Macros.h</text>
</a>
</g>
</g>
<!-- Node0&#45;&gt;Node1 -->
<g id="edge1" class="edge">
<title>Node0&#45;&gt;Node1</title>
<path fill="none" stroke="#191970" d="M1830.2606,-708.5167C2012.797,-693.7958 2475.4636,-650.0658 2475.4636,-585 2475.4636,-585 2475.4636,-585 2475.4636,-262.5 2475.4636,-165.8589 2455.1675,-120.9958 2372.4636,-71 2324.9867,-42.2995 1929.7963,-39.0089 1874.4636,-35 1825.4511,-31.449 1770.8323,-27.4835 1726.0002,-24.2265"/>
<polygon fill="#191970" stroke="#191970" points="1726.2302,-20.7341 1716.0028,-23.5001 1725.7229,-27.7157 1726.2302,-20.7341"/>
</g>
<!-- Node2 -->
<g id="node3" class="node">
<title>Node2</title>
<g id="a_node3"><a xlink:href="Planet_8h.html" target="_top" xlink:title="Declares a class for planets that are always locked to the orbit. ">
<polygon fill="#ffffff" stroke="#000000" points="1062.9636,-632.5 1062.9636,-653.5 1123.9636,-653.5 1123.9636,-632.5 1062.9636,-632.5"/>
<text text-anchor="middle" x="1093.4636" y="-639.9" font-family="Helvetica,sans-Serif" font-size="12.00" fill="#000000">Planet.h</text>
</a>
</g>
</g>
<!-- Node0&#45;&gt;Node2 -->
<g id="edge2" class="edge">
<title>Node0&#45;&gt;Node2</title>
<path fill="none" stroke="#191970" d="M1684.8226,-706.2327C1545.1349,-691.2962 1243.2342,-659.0146 1133.9736,-647.3316"/>
<polygon fill="#191970" stroke="#191970" points="1134.3287,-643.8497 1124.0132,-646.2666 1133.5844,-650.8101 1134.3287,-643.8497"/>
</g>
<!-- Node2&#45;&gt;Node1 -->
<g id="edge3" class="edge">
<title>Node2&#45;&gt;Node1</title>
<path fill="none" stroke="#191970" d="M1062.8019,-642.8692C885.6015,-641.7194 .4636,-630.4724 .4636,-520.5 .4636,-520.5 .4636,-520.5 .4636,-327 .4636,-205.1703 -6.9542,-132.0701 98.4636,-71 160.9662,-34.7913 1217.6261,-21.5475 1540.5047,-18.3351"/>
<polygon fill="#191970" stroke="#191970" points="1540.7962,-21.8325 1550.7612,-18.234 1540.7271,-14.8328 1540.7962,-21.8325"/>
</g>
<!-- Node3 -->
<g id="node4" class="node">
<title>Node3</title>
<g id="a_node4"><a xlink:href="PlanetZone_8h.html" target="_top" xlink:title="Declares a class for the single zone of LockedPlanet objects. ">
<polygon fill="#ffffff" stroke="#000000" points="994.9636,-574.5 994.9636,-595.5 1083.9636,-595.5 1083.9636,-574.5 994.9636,-574.5"/>
<text text-anchor="middle" x="1039.4636" y="-581.9" font-family="Helvetica,sans-Serif" font-size="12.00" fill="#000000">PlanetZone.h</text>
</a>
</g>
</g>
<!-- Node2&#45;&gt;Node3 -->
<g id="edge4" class="edge">
<title>Node2&#45;&gt;Node3</title>
<path fill="none" stroke="#191970" d="M1083.5592,-632.3619C1075.9472,-624.1861 1065.2556,-612.7025 1056.3066,-603.0907"/>
<polygon fill="#191970" stroke="#191970" points="1058.6811,-600.5046 1049.3053,-595.5707 1053.5578,-605.2746 1058.6811,-600.5046"/>
</g>
<!-- Node42 -->
<g id="node42" class="node">
<title>Node42</title>
<g id="a_node42"><a xlink:href="DissipatingBody_8h.html" target="_top" xlink:title="Declares the DissipatingBody class. ">
<polygon fill="#ffffff" stroke="#000000" points="1089.4636,-374.5 1089.4636,-395.5 1203.4636,-395.5 1203.4636,-374.5 1089.4636,-374.5"/>
<text text-anchor="middle" x="1146.4636" y="-381.9" font-family="Helvetica,sans-Serif" font-size="12.00" fill="#000000">DissipatingBody.h</text>
</a>
</g>
</g>
<!-- Node2&#45;&gt;Node42 -->
<g id="edge121" class="edge">
<title>Node2&#45;&gt;Node42</title>
<path fill="none" stroke="#191970" d="M1097.462,-632.4349C1104.4021,-613.6906 1118.6794,-573.2657 1126.4636,-538 1136.7547,-491.377 1142.4105,-435.5121 1144.897,-405.8727"/>
<polygon fill="#191970" stroke="#191970" points="1148.3884,-406.1186 1145.6979,-395.8711 1141.4108,-405.5598 1148.3884,-406.1186"/>
</g>
<!-- Node3&#45;&gt;Node1 -->
<g id="edge5" class="edge">
<title>Node3&#45;&gt;Node1</title>
<path fill="none" stroke="#191970" d="M994.9475,-583.4945C805.5547,-576.5107 76.4636,-543.5197 76.4636,-449.5 76.4636,-449.5 76.4636,-449.5 76.4636,-140 76.4636,-73.0126 145.6686,-87.9976 210.4636,-71 338.2293,-37.4834 1244.4115,-22.6418 1540.2787,-18.6534"/>
<polygon fill="#191970" stroke="#191970" points="1540.5916,-22.1496 1550.5439,-18.5161 1540.4979,-15.1502 1540.5916,-22.1496"/>
</g>
<!-- Node4 -->
<g id="node5" class="node">
<title>Node4</title>
<g id="a_node5"><a xlink:href="DissipatingZone_8h.html" target="_top" xlink:title="Declares a class representing one zone of a body dissipative to tidal distortions. ">
<polygon fill="#ffffff" stroke="#000000" points="916.9636,-316.5 916.9636,-337.5 1079.9636,-337.5 1079.9636,-316.5 916.9636,-316.5"/>
<text text-anchor="middle" x="998.4636" y="-323.9" font-family="Helvetica,sans-Serif" font-size="12.00" fill="#000000">../Evolve/DissipatingZone.h</text>
</a>
</g>
</g>
<!-- Node3&#45;&gt;Node4 -->
<g id="edge6" class="edge">
<title>Node3&#45;&gt;Node4</title>
<path fill="none" stroke="#191970" d="M994.9515,-584.3629C857.3659,-581.3633 443.2663,-564.2694 361.4636,-467 351.5971,-455.2679 358.0554,-382.3099 366.4636,-374 385.3723,-355.3125 736.0604,-338.0492 906.7054,-330.714"/>
<polygon fill="#191970" stroke="#191970" points="907.0922,-334.2007 916.9337,-330.2769 906.7933,-327.2071 907.0922,-334.2007"/>
</g>
<!-- Node24 -->
<g id="node25" class="node">
<title>Node24</title>
<g id="a_node25"><a xlink:href="AstronomicalConstants_8h.html" target="_top" xlink:title="Defines various astronomical constants. ">
<polygon fill="#ffffff" stroke="#000000" points="2145.4636,-71.5 2145.4636,-92.5 2295.4636,-92.5 2295.4636,-71.5 2145.4636,-71.5"/>
<text text-anchor="middle" x="2220.4636" y="-78.9" font-family="Helvetica,sans-Serif" font-size="12.00" fill="#000000">AstronomicalConstants.h</text>
</a>
</g>
</g>
<!-- Node3&#45;&gt;Node24 -->
<g id="edge75" class="edge">
<title>Node3&#45;&gt;Node24</title>
<path fill="none" stroke="#191970" d="M1084.0023,-583.0737C1322.4641,-572.4741 2437.4636,-519.1865 2437.4636,-449.5 2437.4636,-449.5 2437.4636,-449.5 2437.4636,-385 2437.4636,-253.5666 2300.8355,-139.9391 2244.4047,-98.6134"/>
<polygon fill="#191970" stroke="#191970" points="2246.2296,-95.6145 2236.0697,-92.6101 2242.1385,-101.2946 2246.2296,-95.6145"/>
</g>
<!-- Node41 -->
<g id="node41" class="node">
<title>Node41</title>
<g id="a_node41"><a xlink:href="BrokenPowerlawPhaseLagZone_8h.html" target="_top" xlink:title="Declares the class that provides the phase lag function to DissipatingZone objects. ">
<polygon fill="#ffffff" stroke="#000000" points="960.9636,-503.5 960.9636,-537.5 1117.9636,-537.5 1117.9636,-503.5 960.9636,-503.5"/>
<text text-anchor="start" x="968.9636" y="-523.9" font-family="Helvetica,sans-Serif" font-size="12.00" fill="#000000">../Evolve/BrokenPowerlaw</text>
<text text-anchor="middle" x="1039.4636" y="-510.9" font-family="Helvetica,sans-Serif" font-size="12.00" fill="#000000">PhaseLagZone.h</text>
</a>
</g>
</g>
<!-- Node3&#45;&gt;Node41 -->
<g id="edge76" class="edge">
<title>Node3&#45;&gt;Node41</title>
<path fill="none" stroke="#191970" d="M1039.4636,-574.3491C1039.4636,-567.122 1039.4636,-557.2164 1039.4636,-547.8706"/>
<polygon fill="#191970" stroke="#191970" points="1042.9637,-547.7292 1039.4636,-537.7292 1035.9637,-547.7292 1042.9637,-547.7292"/>
</g>
<!-- Node4&#45;&gt;Node1 -->
<g id="edge36" class="edge">
<title>Node4&#45;&gt;Node1</title>
<path fill="none" stroke="#191970" d="M1080.042,-324.4223C1215.7119,-319.4484 1481.68,-306.5865 1571.4636,-280 1602.924,-270.684 1605.2423,-255.0881 1636.4636,-245 1752.9191,-207.3714 1797.471,-258.3501 1909.4636,-209 1946.1238,-192.8455 1955.527,-183.8459 1978.4636,-151 1999.51,-120.861 2023.5038,-98.8097 1999.4636,-71 1981.7586,-50.5188 1828.5632,-33.8058 1726.0629,-24.7838"/>
<polygon fill="#191970" stroke="#191970" points="1726.2644,-21.2882 1715.9987,-23.9083 1725.6577,-28.2619 1726.2644,-21.2882"/>
</g>
<!-- Node5 -->
<g id="node6" class="node">
<title>Node5</title>
<g id="a_node6"><a xlink:href="ZoneOrientation_8h.html" target="_top" xlink:title="Declares a class for orientations of zones of DissipatingBody objects. ">
<polygon fill="#ffffff" stroke="#000000" points="1770.9636,-187.5 1770.9636,-208.5 1883.9636,-208.5 1883.9636,-187.5 1770.9636,-187.5"/>
<text text-anchor="middle" x="1827.4636" y="-194.9" font-family="Helvetica,sans-Serif" font-size="12.00" fill="#000000">ZoneOrientation.h</text>
</a>
</g>
</g>
<!-- Node4&#45;&gt;Node5 -->
<g id="edge7" class="edge">
<title>Node4&#45;&gt;Node5</title>
<path fill="none" stroke="#191970" d="M1072.9158,-316.4802C1120.3557,-308.7566 1182.7718,-296.6924 1236.4636,-280 1273.9126,-268.3574 1279.4646,-254.698 1317.4636,-245 1399.6092,-224.035 1642.3558,-208.2248 1760.8633,-201.5225"/>
<polygon fill="#191970" stroke="#191970" points="1761.1132,-205.0141 1770.9016,-200.9598 1760.7214,-198.025 1761.1132,-205.0141"/>
</g>
<!-- Node6 -->
<g id="node7" class="node">
<title>Node6</title>
<g id="a_node7"><a xlink:href="DissipationQuantities_8h.html" target="_top" xlink:title="Declaration of enumerations of dissipation quantities and derivatives. ">
<polygon fill="#ffffff" stroke="#000000" points="1759.4636,-129.5 1759.4636,-150.5 1899.4636,-150.5 1899.4636,-129.5 1759.4636,-129.5"/>
<text text-anchor="middle" x="1829.4636" y="-136.9" font-family="Helvetica,sans-Serif" font-size="12.00" fill="#000000">DissipationQuantities.h</text>
</a>
</g>
</g>
<!-- Node4&#45;&gt;Node6 -->
<g id="edge54" class="edge">
<title>Node4&#45;&gt;Node6</title>
<path fill="none" stroke="#191970" d="M1080.1526,-322.7644C1204.9211,-315.76 1436.9618,-300.4775 1517.4636,-280 1555.4703,-270.3321 1560.612,-255.2581 1598.4636,-245 1662.2062,-227.7253 1849.6846,-258.4463 1893.4636,-209 1909.9825,-190.3427 1884.1028,-169.4256 1860.4806,-155.5634"/>
<polygon fill="#191970" stroke="#191970" points="1862.0672,-152.4406 1851.6307,-150.6155 1858.6511,-158.5505 1862.0672,-152.4406"/>
</g>
<!-- Node9 -->
<g id="node10" class="node">
<title>Node9</title>
<g id="a_node10"><a xlink:href="Core_2Common_8h.html" target="_top" xlink:title="Declaration of some general purpose utilities. ">
<polygon fill="#ffffff" stroke="#000000" points="1223.9636,-129.5 1223.9636,-150.5 1336.9636,-150.5 1336.9636,-129.5 1223.9636,-129.5"/>
<text text-anchor="middle" x="1280.4636" y="-136.9" font-family="Helvetica,sans-Serif" font-size="12.00" fill="#000000">../Core/Common.h</text>
</a>
</g>
</g>
<!-- Node4&#45;&gt;Node9 -->
<g id="edge72" class="edge">
<title>Node4&#45;&gt;Node9</title>
<path fill="none" stroke="#191970" d="M1058.5221,-316.4371C1119.0994,-302.5415 1210.7115,-272.0614 1261.4636,-209 1272.5135,-195.2701 1277.1514,-175.572 1279.0905,-160.7344"/>
<polygon fill="#191970" stroke="#191970" points="1282.6,-160.8126 1280.1088,-150.5148 1275.6345,-160.1185 1282.6,-160.8126"/>
</g>
<!-- Node11 -->
<g id="node12" class="node">
<title>Node11</title>
<polygon fill="#ffffff" stroke="#bfbfbf" points="552.9636,-71.5 552.9636,-92.5 611.9636,-92.5 611.9636,-71.5 552.9636,-71.5"/>
<text text-anchor="middle" x="582.4636" y="-78.9" font-family="Helvetica,sans-Serif" font-size="12.00" fill="#000000">valarray</text>
</g>
<!-- Node4&#45;&gt;Node11 -->
<g id="edge73" class="edge">
<title>Node4&#45;&gt;Node11</title>
<path fill="none" stroke="#191970" d="M928.2854,-316.4873C894.5285,-309.4463 854.353,-298.0503 821.4636,-280 801.3347,-268.9529 802.5637,-257.7435 783.4636,-245 751.7029,-223.8095 736.6068,-231.0881 705.4636,-209 693.4617,-200.4877 630.4318,-133.4757 599.5497,-100.3749"/>
<polygon fill="#191970" stroke="#191970" points="601.8194,-97.6766 592.4416,-92.7464 596.698,-102.4486 601.8194,-97.6766"/>
</g>
<!-- Node21 -->
<g id="node22" class="node">
<title>Node21</title>
<g id="a_node22"><a xlink:href="Error_8h.html" target="_top" xlink:title="Defines the exception hierarchy used by this code. ">
<polygon fill="#ffffff" stroke="#000000" points="404.9636,-71.5 404.9636,-92.5 457.9636,-92.5 457.9636,-71.5 404.9636,-71.5"/>
<text text-anchor="middle" x="431.4636" y="-78.9" font-family="Helvetica,sans-Serif" font-size="12.00" fill="#000000">Error.h</text>
</a>
</g>
</g>
<!-- Node4&#45;&gt;Node21 -->
<g id="edge37" class="edge">
<title>Node4&#45;&gt;Node21</title>
<path fill="none" stroke="#191970" d="M916.8025,-323.3049C776.0637,-316.4319 499.0265,-300.5002 459.4636,-280 395.5349,-246.8743 382.0527,-219.9948 361.4636,-151 358.6676,-141.6305 356.8641,-137.6284 361.4636,-129 368.9046,-115.0412 382.5365,-104.4923 395.8069,-96.9618"/>
<polygon fill="#191970" stroke="#191970" points="397.619,-99.9638 404.8558,-92.2257 394.3729,-93.7619 397.619,-99.9638"/>
</g>
<!-- Node27 -->
<g id="node28" class="node">
<title>Node27</title>
<g id="a_node28"><a xlink:href="TidalPotentialTerms_8h.html" target="_top" xlink:title="Declare an interface for evaluating the expansion of the tidal potential. ">
<polygon fill="#ffffff" stroke="#000000" points="830.4636,-252 830.4636,-273 964.4636,-273 964.4636,-252 830.4636,-252"/>
<text text-anchor="middle" x="897.4636" y="-259.4" font-family="Helvetica,sans-Serif" font-size="12.00" fill="#000000">TidalPotentialTerms.h</text>
</a>
</g>
</g>
<!-- Node4&#45;&gt;Node27 -->
<g id="edge38" class="edge">
<title>Node4&#45;&gt;Node27</title>
<path fill="none" stroke="#191970" d="M981.7855,-316.3491C965.7035,-306.0789 941.1521,-290.4 922.6816,-278.6045"/>
<polygon fill="#191970" stroke="#191970" points="924.4783,-275.5992 914.1665,-273.1667 920.7107,-281.4988 924.4783,-275.5992"/>
</g>
<!-- Node35 -->
<g id="node35" class="node">
<title>Node35</title>
<g id="a_node35"><a xlink:href="SpinOrbitLockInfo_8h.html" target="_top" xlink:title="Defines the SpinOrbitLockInfo class. ">
<polygon fill="#ffffff" stroke="#000000" points="408.4636,-187.5 408.4636,-208.5 530.4636,-208.5 530.4636,-187.5 408.4636,-187.5"/>
<text text-anchor="middle" x="469.4636" y="-194.9" font-family="Helvetica,sans-Serif" font-size="12.00" fill="#000000">SpinOrbitLockInfo.h</text>
</a>
</g>
</g>
<!-- Node4&#45;&gt;Node35 -->
<g id="edge55" class="edge">
<title>Node4&#45;&gt;Node35</title>
<path fill="none" stroke="#191970" d="M916.7801,-325.3594C777.4151,-321.7362 505.7287,-310.7712 475.4636,-280 459.817,-264.0917 461.0417,-237.0366 464.3676,-218.3794"/>
<polygon fill="#191970" stroke="#191970" points="467.8093,-219.0206 466.457,-208.5124 460.9612,-217.5704 467.8093,-219.0206"/>
</g>
<!-- Node36 -->
<g id="node36" class="node">
<title>Node36</title>
<g id="a_node36"><a xlink:href="CombinedStoppingCondition_8h.html" target="_top" xlink:title="Declares a class for a stopping condition that combines other stopping conditions. ">
<polygon fill="#ffffff" stroke="#000000" points="1326.4636,-252 1326.4636,-273 1508.4636,-273 1508.4636,-252 1326.4636,-252"/>
<text text-anchor="middle" x="1417.4636" y="-259.4" font-family="Helvetica,sans-Serif" font-size="12.00" fill="#000000">CombinedStoppingCondition.h</text>
</a>
</g>
</g>
<!-- Node4&#45;&gt;Node36 -->
<g id="edge58" class="edge">
<title>Node4&#45;&gt;Node36</title>
<path fill="none" stroke="#191970" d="M1071.1656,-316.4665C1134.8406,-307.1576 1229.8442,-293.0673 1312.4636,-280 1323.085,-278.3201 1334.3026,-276.4997 1345.2967,-274.6896"/>
<polygon fill="#191970" stroke="#191970" points="1346.0119,-278.119 1355.3069,-273.0344 1344.8699,-271.2127 1346.0119,-278.119"/>
</g>
<!-- Node38 -->
<g id="node38" class="node">
<title>Node38</title>
<g id="a_node38"><a xlink:href="BreakLockCondition_8h.html" target="_top" xlink:title="Declares a class for a stopping condition monitoring when a locked zone loses the lock...">
<polygon fill="#ffffff" stroke="#000000" points="982.9636,-252 982.9636,-273 1117.9636,-273 1117.9636,-252 982.9636,-252"/>
<text text-anchor="middle" x="1050.4636" y="-259.4" font-family="Helvetica,sans-Serif" font-size="12.00" fill="#000000">BreakLockCondition.h</text>
</a>
</g>
</g>
<!-- Node4&#45;&gt;Node38 -->
<g id="edge65" class="edge">
<title>Node4&#45;&gt;Node38</title>
<path fill="none" stroke="#191970" d="M1007.0504,-316.3491C1014.6821,-306.8829 1026.0183,-292.8216 1035.1929,-281.4415"/>
<polygon fill="#191970" stroke="#191970" points="1038.1387,-283.3641 1041.6903,-273.3823 1032.6891,-278.9706 1038.1387,-283.3641"/>
</g>
<!-- Node39 -->
<g id="node39" class="node">
<title>Node39</title>
<g id="a_node39"><a xlink:href="SynchronizedCondition_8h.html" target="_top" xlink:title="Declares a stopping condition monitoring spin&#45;orbit synchronization. ">
<polygon fill="#ffffff" stroke="#000000" points="484.4636,-252 484.4636,-273 636.4636,-273 636.4636,-252 484.4636,-252"/>
<text text-anchor="middle" x="560.4636" y="-259.4" font-family="Helvetica,sans-Serif" font-size="12.00" fill="#000000">SynchronizedCondition.h</text>
</a>
</g>
</g>
<!-- Node4&#45;&gt;Node39 -->
<g id="edge68" class="edge">
<title>Node4&#45;&gt;Node39</title>
<path fill="none" stroke="#191970" d="M916.8983,-317.7985C845.1932,-309.3145 738.12,-295.6863 645.4636,-280 636.8291,-278.5382 627.7336,-276.8381 618.8316,-275.0832"/>
<polygon fill="#191970" stroke="#191970" points="619.3914,-271.6258 608.898,-273.0883 618.0132,-278.4888 619.3914,-271.6258"/>
</g>
<!-- Node40 -->
<g id="node40" class="node">
<title>Node40</title>
<polygon fill="#ffffff" stroke="#bfbfbf" points="654.4636,-245.5 654.4636,-279.5 774.4636,-279.5 774.4636,-245.5 654.4636,-245.5"/>
<text text-anchor="start" x="662.4636" y="-265.9" font-family="Helvetica,sans-Serif" font-size="12.00" fill="#000000">boost/math/special</text>
<text text-anchor="middle" x="714.4636" y="-252.9" font-family="Helvetica,sans-Serif" font-size="12.00" fill="#000000">_functions/sign.hpp</text>
</g>
<!-- Node4&#45;&gt;Node40 -->
<g id="edge74" class="edge">
<title>Node4&#45;&gt;Node40</title>
<path fill="none" stroke="#191970" d="M950.4687,-316.4306C907.8803,-307.0108 843.9867,-292.778 788.4636,-280 787.1972,-279.7085 785.9187,-279.4136 784.6311,-279.116"/>
<polygon fill="#191970" stroke="#191970" points="785.1576,-275.6451 774.6249,-276.7912 783.5734,-282.4635 785.1576,-275.6451"/>
</g>
<!-- Node5&#45;&gt;Node1 -->
<g id="edge8" class="edge">
<title>Node5&#45;&gt;Node1</title>
<path fill="none" stroke="#191970" d="M1802.2182,-187.4054C1785.7112,-179.4202 1764.657,-167.0912 1750.4636,-151 1724.672,-121.7598 1739.7293,-100.6959 1714.4636,-71 1704.0717,-58.7859 1690.2139,-48.2601 1676.9027,-39.855"/>
<polygon fill="#191970" stroke="#191970" points="1678.6449,-36.8185 1668.2761,-34.6415 1675.0242,-42.8094 1678.6449,-36.8185"/>
</g>
<!-- Node5&#45;&gt;Node6 -->
<g id="edge9" class="edge">
<title>Node5&#45;&gt;Node6</title>
<path fill="none" stroke="#191970" d="M1827.8304,-187.3619C1828.087,-179.9219 1828.438,-169.7427 1828.7489,-160.7276"/>
<polygon fill="#191970" stroke="#191970" points="1832.2523,-160.6854 1829.0991,-150.5707 1825.2565,-160.4441 1832.2523,-160.6854"/>
</g>
<!-- Node5&#45;&gt;Node9 -->
<g id="edge13" class="edge">
<title>Node5&#45;&gt;Node9</title>
<path fill="none" stroke="#191970" d="M1770.7294,-191.9843C1668.9296,-181.1902 1455.7679,-158.588 1347.1572,-147.0717"/>
<polygon fill="#191970" stroke="#191970" points="1347.2935,-143.5666 1336.9802,-145.9926 1346.5553,-150.5276 1347.2935,-143.5666"/>
</g>
<!-- Node25 -->
<g id="node26" class="node">
<title>Node25</title>
<g id="a_node26"><a xlink:href="IncludeEigen_8h_source.html" target="_top" xlink:title="IncludeEigen.h">
<polygon fill="#ffffff" stroke="#000000" points="1877.9636,-71.5 1877.9636,-92.5 1974.9636,-92.5 1974.9636,-71.5 1877.9636,-71.5"/>
<text text-anchor="middle" x="1926.4636" y="-78.9" font-family="Helvetica,sans-Serif" font-size="12.00" fill="#000000">IncludeEigen.h</text>
</a>
</g>
</g>
<!-- Node5&#45;&gt;Node25 -->
<g id="edge35" class="edge">
<title>Node5&#45;&gt;Node25</title>
<path fill="none" stroke="#191970" d="M1857.3194,-187.4525C1874.6641,-179.8639 1895.5723,-167.954 1908.4636,-151 1918.9729,-137.1787 1923.3697,-117.7917 1925.1972,-103.0857"/>
<polygon fill="#191970" stroke="#191970" points="1928.7012,-103.2057 1926.1525,-92.922 1921.732,-102.5506 1928.7012,-103.2057"/>
</g>
<!-- Node6&#45;&gt;Node1 -->
<g id="edge10" class="edge">
<title>Node6&#45;&gt;Node1</title>
<path fill="none" stroke="#191970" d="M1833.2931,-129.4046C1837.8736,-114.6817 1843.4169,-87.9403 1830.4636,-71 1817.1296,-53.5619 1770.5694,-40.4727 1726.0622,-31.6069"/>
<polygon fill="#191970" stroke="#191970" points="1726.4965,-28.1263 1716.0144,-29.6678 1725.17,-34.9994 1726.4965,-28.1263"/>
</g>
<!-- Node7 -->
<g id="node8" class="node">
<title>Node7</title>
<polygon fill="#ffffff" stroke="#bfbfbf" points="1761.9636,-71.5 1761.9636,-92.5 1820.9636,-92.5 1820.9636,-71.5 1761.9636,-71.5"/>
<text text-anchor="middle" x="1791.4636" y="-78.9" font-family="Helvetica,sans-Serif" font-size="12.00" fill="#000000">ostream</text>
</g>
<!-- Node6&#45;&gt;Node7 -->
<g id="edge11" class="edge">
<title>Node6&#45;&gt;Node7</title>
<path fill="none" stroke="#191970" d="M1822.4938,-129.3619C1817.2979,-121.4313 1810.063,-110.3885 1803.8861,-100.9606"/>
<polygon fill="#191970" stroke="#191970" points="1806.7971,-99.0172 1798.3892,-92.5707 1800.9419,-102.8534 1806.7971,-99.0172"/>
</g>
<!-- Node8 -->
<g id="node9" class="node">
<title>Node8</title>
<polygon fill="#ffffff" stroke="#bfbfbf" points="745.9636,-71.5 745.9636,-92.5 800.9636,-92.5 800.9636,-71.5 745.9636,-71.5"/>
<text text-anchor="middle" x="773.4636" y="-78.9" font-family="Helvetica,sans-Serif" font-size="12.00" fill="#000000">cassert</text>
</g>
<!-- Node6&#45;&gt;Node8 -->
<g id="edge12" class="edge">
<title>Node6&#45;&gt;Node8</title>
<path fill="none" stroke="#191970" d="M1759.2892,-132.8248C1743.8741,-131.41 1727.6274,-130.0426 1712.4636,-129 1345.8695,-103.7942 1253.0157,-118.8103 886.4636,-93 861.4559,-91.2391 833.4046,-88.5127 811.5069,-86.2149"/>
<polygon fill="#191970" stroke="#191970" points="811.6061,-82.7057 801.2917,-85.1274 810.865,-89.6664 811.6061,-82.7057"/>
</g>
<!-- Node9&#45;&gt;Node1 -->
<g id="edge26" class="edge">
<title>Node9&#45;&gt;Node1</title>
<path fill="none" stroke="#191970" d="M1336.9826,-136.0567C1411.3112,-130.0238 1537.0974,-116.6399 1576.4636,-93 1595.828,-81.3714 1610.8373,-60.4467 1620.582,-43.5704"/>
<polygon fill="#191970" stroke="#191970" points="1623.709,-45.147 1625.4483,-34.6959 1617.5712,-41.7814 1623.709,-45.147"/>
</g>
<!-- Node9&#45;&gt;Node8 -->
<g id="edge25" class="edge">
<title>Node9&#45;&gt;Node8</title>
<path fill="none" stroke="#191970" d="M1223.8404,-135.3868C1117.6844,-126.5541 892.5209,-106.8981 815.4636,-93 814.1701,-92.7667 812.858,-92.5142 811.5357,-92.2461"/>
<polygon fill="#191970" stroke="#191970" points="811.8678,-88.7331 801.3428,-89.9478 810.3281,-95.5617 811.8678,-88.7331"/>
</g>
<!-- Node10 -->
<g id="node11" class="node">
<title>Node10</title>
<polygon fill="#ffffff" stroke="#bfbfbf" points="1345.4636,-71.5 1345.4636,-92.5 1377.4636,-92.5 1377.4636,-71.5 1345.4636,-71.5"/>
<text text-anchor="middle" x="1361.4636" y="-78.9" font-family="Helvetica,sans-Serif" font-size="12.00" fill="#000000">list</text>
</g>
<!-- Node9&#45;&gt;Node10 -->
<g id="edge14" class="edge">
<title>Node9&#45;&gt;Node10</title>
<path fill="none" stroke="#191970" d="M1295.3203,-129.3619C1307.3091,-120.7773 1324.3909,-108.5459 1338.1921,-98.6636"/>
<polygon fill="#191970" stroke="#191970" points="1340.6083,-101.2383 1346.7011,-92.5707 1336.5329,-95.5469 1340.6083,-101.2383"/>
</g>
<!-- Node9&#45;&gt;Node11 -->
<g id="edge15" class="edge">
<title>Node9&#45;&gt;Node11</title>
<path fill="none" stroke="#191970" d="M1223.8363,-136.9755C1114.5242,-130.8577 866.9048,-115.642 659.4636,-93 647.3159,-91.6741 634.135,-89.9111 622.1692,-88.1857"/>
<polygon fill="#191970" stroke="#191970" points="622.4264,-84.6859 612.0231,-86.691 621.4062,-91.6111 622.4264,-84.6859"/>
</g>
<!-- Node12 -->
<g id="node13" class="node">
<title>Node12</title>
<polygon fill="#ffffff" stroke="#bfbfbf" points="1661.4636,-71.5 1661.4636,-92.5 1705.4636,-92.5 1705.4636,-71.5 1661.4636,-71.5"/>
<text text-anchor="middle" x="1683.4636" y="-78.9" font-family="Helvetica,sans-Serif" font-size="12.00" fill="#000000">limits</text>
</g>
<!-- Node9&#45;&gt;Node12 -->
<g id="edge16" class="edge">
<title>Node9&#45;&gt;Node12</title>
<path fill="none" stroke="#191970" d="M1337.2413,-131.9886C1402.8279,-122.711 1513.9727,-106.918 1609.4636,-93 1623.256,-90.9897 1638.4885,-88.7319 1651.53,-86.7873"/>
<polygon fill="#191970" stroke="#191970" points="1652.0768,-90.2446 1661.45,-85.3057 1651.0426,-83.3214 1652.0768,-90.2446"/>
</g>
<!-- Node13 -->
<g id="node14" class="node">
<title>Node13</title>
<polygon fill="#ffffff" stroke="#bfbfbf" points="668.9636,-71.5 668.9636,-92.5 727.9636,-92.5 727.9636,-71.5 668.9636,-71.5"/>
<text text-anchor="middle" x="698.4636" y="-78.9" font-family="Helvetica,sans-Serif" font-size="12.00" fill="#000000">sstream</text>
</g>
<!-- Node9&#45;&gt;Node13 -->
<g id="edge17" class="edge">
<title>Node9&#45;&gt;Node13</title>
<path fill="none" stroke="#191970" d="M1223.5531,-136.4994C1107.4404,-129.1329 845.7621,-111.3283 738.1273,-92.9817"/>
<polygon fill="#191970" stroke="#191970" points="738.6623,-89.5219 728.202,-91.2049 737.4287,-96.4124 738.6623,-89.5219"/>
</g>
<!-- Node14 -->
<g id="node15" class="node">
<title>Node14</title>
<polygon fill="#ffffff" stroke="#bfbfbf" points="331.4636,-7 331.4636,-28 393.4636,-28 393.4636,-7 331.4636,-7"/>
<text text-anchor="middle" x="362.4636" y="-14.4" font-family="Helvetica,sans-Serif" font-size="12.00" fill="#000000">iostream</text>
</g>
<!-- Node9&#45;&gt;Node14 -->
<g id="edge18" class="edge">
<title>Node9&#45;&gt;Node14</title>
<path fill="none" stroke="#191970" d="M1223.9044,-136.1042C1146.9785,-130.1589 1005.3249,-116.9105 886.4636,-93 851.571,-85.9809 844.4593,-77.4861 809.4636,-71 630.9094,-37.9066 578.3992,-79.983 402.4636,-35 399.2324,-34.1738 395.9302,-33.1147 392.677,-31.9271"/>
<polygon fill="#191970" stroke="#191970" points="393.7666,-28.5923 383.184,-28.0833 391.1394,-35.0806 393.7666,-28.5923"/>
</g>
<!-- Node15 -->
<g id="node16" class="node">
<title>Node15</title>
<polygon fill="#ffffff" stroke="#bfbfbf" points="1395.9636,-71.5 1395.9636,-92.5 1448.9636,-92.5 1448.9636,-71.5 1395.9636,-71.5"/>
<text text-anchor="middle" x="1422.4636" y="-78.9" font-family="Helvetica,sans-Serif" font-size="12.00" fill="#000000">iterator</text>
</g>
<!-- Node9&#45;&gt;Node15 -->
<g id="edge19" class="edge">
<title>Node9&#45;&gt;Node15</title>
<path fill="none" stroke="#191970" d="M1306.1787,-129.4966C1328.7569,-120.2746 1361.8211,-106.7695 1386.9262,-96.5153"/>
<polygon fill="#191970" stroke="#191970" points="1388.5258,-99.6427 1396.4599,-92.6212 1385.8789,-93.1624 1388.5258,-99.6427"/>
</g>
<!-- Node16 -->
<g id="node17" class="node">
<title>Node16</title>
<polygon fill="#ffffff" stroke="#bfbfbf" points="1467.4636,-71.5 1467.4636,-92.5 1567.4636,-92.5 1567.4636,-71.5 1467.4636,-71.5"/>
<text text-anchor="middle" x="1517.4636" y="-78.9" font-family="Helvetica,sans-Serif" font-size="12.00" fill="#000000">gsl/gsl_vector.h</text>
</g>
<!-- Node9&#45;&gt;Node16 -->
<g id="edge20" class="edge">
<title>Node9&#45;&gt;Node16</title>
<path fill="none" stroke="#191970" d="M1323.3825,-129.4966C1363.0235,-119.7955 1422.0313,-105.3547 1464.5695,-94.9445"/>
<polygon fill="#191970" stroke="#191970" points="1465.5829,-98.2999 1474.4642,-92.5231 1463.9188,-91.5006 1465.5829,-98.2999"/>
</g>
<!-- Node17 -->
<g id="node18" class="node">
<title>Node17</title>
<polygon fill="#ffffff" stroke="#bfbfbf" points="895.4636,-71.5 895.4636,-92.5 995.4636,-92.5 995.4636,-71.5 895.4636,-71.5"/>
<text text-anchor="middle" x="945.4636" y="-78.9" font-family="Helvetica,sans-Serif" font-size="12.00" fill="#000000">gsl/gsl_matrix.h</text>
</g>
<!-- Node9&#45;&gt;Node17 -->
<g id="edge21" class="edge">
<title>Node9&#45;&gt;Node17</title>
<path fill="none" stroke="#191970" d="M1223.8589,-130.6269C1170.2168,-121.6842 1087.1131,-107.6745 1005.5969,-93.1842"/>
<polygon fill="#191970" stroke="#191970" points="1006.1248,-89.7232 995.6659,-91.415 1004.897,-96.6147 1006.1248,-89.7232"/>
</g>
<!-- Node18 -->
<g id="node19" class="node">
<title>Node18</title>
<polygon fill="#ffffff" stroke="#bfbfbf" points="1013.9636,-71.5 1013.9636,-92.5 1110.9636,-92.5 1110.9636,-71.5 1013.9636,-71.5"/>
<text text-anchor="middle" x="1062.4636" y="-78.9" font-family="Helvetica,sans-Serif" font-size="12.00" fill="#000000">gsl/gsl_linalg.h</text>
</g>
<!-- Node9&#45;&gt;Node18 -->
<g id="edge22" class="edge">
<title>Node9&#45;&gt;Node18</title>
<path fill="none" stroke="#191970" d="M1240.9855,-129.4966C1204.8302,-119.8773 1151.16,-105.5981 1112.111,-95.209"/>
<polygon fill="#191970" stroke="#191970" points="1112.5795,-91.7119 1102.0158,-92.5231 1110.7797,-98.4766 1112.5795,-91.7119"/>
</g>
<!-- Node19 -->
<g id="node20" class="node">
<title>Node19</title>
<polygon fill="#ffffff" stroke="#bfbfbf" points="1129.4636,-71.5 1129.4636,-92.5 1219.4636,-92.5 1219.4636,-71.5 1129.4636,-71.5"/>
<text text-anchor="middle" x="1174.4636" y="-78.9" font-family="Helvetica,sans-Serif" font-size="12.00" fill="#000000">gsl/gsl_blas.h</text>
</g>
<!-- Node9&#45;&gt;Node19 -->
<g id="edge23" class="edge">
<title>Node9&#45;&gt;Node19</title>
<path fill="none" stroke="#191970" d="M1261.0216,-129.3619C1244.66,-120.4094 1221.0502,-107.4908 1202.6201,-97.4064"/>
<polygon fill="#191970" stroke="#191970" points="1204.2351,-94.3004 1193.7824,-92.5707 1200.875,-100.4412 1204.2351,-94.3004"/>
</g>
<!-- Node20 -->
<g id="node21" class="node">
<title>Node20</title>
<polygon fill="#ffffff" stroke="#bfbfbf" points="1237.4636,-71.5 1237.4636,-92.5 1327.4636,-92.5 1327.4636,-71.5 1237.4636,-71.5"/>
<text text-anchor="middle" x="1282.4636" y="-78.9" font-family="Helvetica,sans-Serif" font-size="12.00" fill="#000000">gsl/gsl_poly.h</text>
</g>
<!-- Node9&#45;&gt;Node20 -->
<g id="edge24" class="edge">
<title>Node9&#45;&gt;Node20</title>
<path fill="none" stroke="#191970" d="M1280.8304,-129.3619C1281.087,-121.9219 1281.438,-111.7427 1281.7489,-102.7276"/>
<polygon fill="#191970" stroke="#191970" points="1285.2523,-102.6854 1282.0991,-92.5707 1278.2565,-102.4441 1285.2523,-102.6854"/>
</g>
<!-- Node9&#45;&gt;Node21 -->
<g id="edge27" class="edge">
<title>Node9&#45;&gt;Node21</title>
<path fill="none" stroke="#191970" d="M1223.5475,-137.0355C1099.7594,-130.4418 796.8134,-113.5136 543.4636,-93 518.3601,-90.9674 490.1399,-88.1927 468.3069,-85.9386"/>
<polygon fill="#191970" stroke="#191970" points="468.4525,-82.4349 458.1436,-84.8795 467.7269,-89.3972 468.4525,-82.4349"/>
</g>
<!-- Node9&#45;&gt;Node24 -->
<g id="edge32" class="edge">
<title>Node9&#45;&gt;Node24</title>
<path fill="none" stroke="#191970" d="M1337.1479,-136.5025C1495.9754,-126.7025 1946.0544,-98.9316 2135.14,-87.2646"/>
<polygon fill="#191970" stroke="#191970" points="2135.5429,-90.7465 2145.3083,-86.6372 2135.1117,-83.7598 2135.5429,-90.7465"/>
</g>
<!-- Node9&#45;&gt;Node25 -->
<g id="edge33" class="edge">
<title>Node9&#45;&gt;Node25</title>
<path fill="none" stroke="#191970" d="M1337.1245,-135.7C1436.9089,-128.0063 1650.4744,-110.9986 1830.4636,-93 1842.4613,-91.8003 1855.2894,-90.4071 1867.5359,-89.0237"/>
<polygon fill="#191970" stroke="#191970" points="1868.1168,-92.4802 1877.6552,-87.8684 1867.3227,-85.5254 1868.1168,-92.4802"/>
</g>
<!-- Node21&#45;&gt;Node1 -->
<g id="edge28" class="edge">
<title>Node21&#45;&gt;Node1</title>
<path fill="none" stroke="#191970" d="M458.1923,-73.9403C462.9099,-72.7733 467.8028,-71.7239 472.4636,-71 677.5241,-39.151 1302.5863,-23.9434 1540.3355,-19.1963"/>
<polygon fill="#191970" stroke="#191970" points="1540.7506,-22.6889 1550.6793,-18.9915 1540.612,-15.6903 1540.7506,-22.6889"/>
</g>
<!-- Node21&#45;&gt;Node14 -->
<g id="edge29" class="edge">
<title>Node21&#45;&gt;Node14</title>
<path fill="none" stroke="#191970" d="M420.0697,-71.3491C409.6451,-61.6044 394.0116,-46.9905 381.6601,-35.4445"/>
<polygon fill="#191970" stroke="#191970" points="383.8005,-32.6543 374.1051,-28.3823 379.0203,-37.768 383.8005,-32.6543"/>
</g>
<!-- Node22 -->
<g id="node23" class="node">
<title>Node22</title>
<polygon fill="#ffffff" stroke="#bfbfbf" points="411.4636,-7 411.4636,-28 479.4636,-28 479.4636,-7 411.4636,-7"/>
<text text-anchor="middle" x="445.4636" y="-14.4" font-family="Helvetica,sans-Serif" font-size="12.00" fill="#000000">exception</text>
</g>
<!-- Node21&#45;&gt;Node22 -->
<g id="edge30" class="edge">
<title>Node21&#45;&gt;Node22</title>
<path fill="none" stroke="#191970" d="M433.7754,-71.3491C435.7093,-62.4397 438.5266,-49.4599 440.9107,-38.4761"/>
<polygon fill="#191970" stroke="#191970" points="444.4007,-38.8972 443.1016,-28.3823 437.56,-37.4123 444.4007,-38.8972"/>
</g>
<!-- Node23 -->
<g id="node24" class="node">
<title>Node23</title>
<polygon fill="#ffffff" stroke="#bfbfbf" points="2219.4636,-7 2219.4636,-28 2265.4636,-28 2265.4636,-7 2219.4636,-7"/>
<text text-anchor="middle" x="2242.4636" y="-14.4" font-family="Helvetica,sans-Serif" font-size="12.00" fill="#000000">string</text>
</g>
<!-- Node21&#45;&gt;Node23 -->
<g id="edge31" class="edge">
<title>Node21&#45;&gt;Node23</title>
<path fill="none" stroke="#191970" d="M458.1229,-78.8303C480.7875,-76.268 514.212,-72.801 543.4636,-71 1180.2363,-31.7947 1341.1494,-64.105 1978.4636,-35 2061.3974,-31.2126 2158.8176,-24.0502 2208.9309,-20.1662"/>
<polygon fill="#191970" stroke="#191970" points="2209.4764,-23.6344 2219.1737,-19.3668 2208.9316,-16.6556 2209.4764,-23.6344"/>
</g>
<!-- Node26 -->
<g id="node27" class="node">
<title>Node26</title>
<polygon fill="#ffffff" stroke="#bfbfbf" points="1883.4636,-7 1883.4636,-28 1969.4636,-28 1969.4636,-7 1883.4636,-7"/>
<text text-anchor="middle" x="1926.4636" y="-14.4" font-family="Helvetica,sans-Serif" font-size="12.00" fill="#000000">Eigen/Dense</text>
</g>
<!-- Node25&#45;&gt;Node26 -->
<g id="edge34" class="edge">
<title>Node25&#45;&gt;Node26</title>
<path fill="none" stroke="#191970" d="M1926.4636,-71.3491C1926.4636,-62.4397 1926.4636,-49.4599 1926.4636,-38.4761"/>
<polygon fill="#191970" stroke="#191970" points="1929.9637,-38.3822 1926.4636,-28.3823 1922.9637,-38.3823 1929.9637,-38.3822"/>
</g>
<!-- Node27&#45;&gt;Node9 -->
<g id="edge53" class="edge">
<title>Node27&#45;&gt;Node9</title>
<path fill="none" stroke="#191970" d="M926.8441,-251.8949C968.8848,-236.8394 1048.7245,-208.6904 1117.4636,-187 1155.7709,-174.9123 1199.5273,-162.3637 1232.0531,-153.2764"/>
<polygon fill="#191970" stroke="#191970" points="1233.0733,-156.6256 1241.7682,-150.5717 1231.1959,-149.882 1233.0733,-156.6256"/>
</g>
<!-- Node27&#45;&gt;Node11 -->
<g id="edge40" class="edge">
<title>Node27&#45;&gt;Node11</title>
<path fill="none" stroke="#191970" d="M857.0851,-251.9811C815.4984,-240.6835 753.9563,-222.5333 733.4636,-209 694.0396,-182.9645 699.9352,-159.032 663.4636,-129 648.4966,-116.6757 629.8974,-105.6347 614.2976,-97.3558"/>
<polygon fill="#191970" stroke="#191970" points="615.5226,-94.0493 605.0314,-92.5711 612.3109,-100.269 615.5226,-94.0493"/>
</g>
<!-- Node28 -->
<g id="node29" class="node">
<title>Node28</title>
<polygon fill="#ffffff" stroke="#bfbfbf" points="949.9636,-129.5 949.9636,-150.5 998.9636,-150.5 998.9636,-129.5 949.9636,-129.5"/>
<text text-anchor="middle" x="974.4636" y="-136.9" font-family="Helvetica,sans-Serif" font-size="12.00" fill="#000000">cmath</text>
</g>
<!-- Node27&#45;&gt;Node28 -->
<g id="edge39" class="edge">
<title>Node27&#45;&gt;Node28</title>
<path fill="none" stroke="#191970" d="M915.2288,-251.8166C929.4098,-242.3444 948.6367,-227.208 959.4636,-209 968.1648,-194.3669 971.8398,-175.3045 973.3813,-160.9247"/>
<polygon fill="#191970" stroke="#191970" points="976.901,-160.8191 974.2153,-150.5703 969.9236,-160.257 976.901,-160.8191"/>
</g>
<!-- Node29 -->
<g id="node30" class="node">
<title>Node29</title>
<g id="a_node30"><a xlink:href="EccentricityExpansionCoefficients_8h.html" target="_top" xlink:title="Declares a class which provides the [ &#160;coefficients]{InclinationEccentricity_pms1}. ">
<polygon fill="#ffffff" stroke="#ff0000" points="742.4636,-187.5 742.4636,-208.5 950.4636,-208.5 950.4636,-187.5 742.4636,-187.5"/>
<text text-anchor="middle" x="846.4636" y="-194.9" font-family="Helvetica,sans-Serif" font-size="12.00" fill="#000000">EccentricityExpansionCoefficients.h</text>
</a>
</g>
</g>
<!-- Node27&#45;&gt;Node29 -->
<g id="edge41" class="edge">
<title>Node27&#45;&gt;Node29</title>
<path fill="none" stroke="#191970" d="M889.042,-251.8491C881.557,-242.3829 870.4388,-228.3216 861.4406,-216.9415"/>
<polygon fill="#191970" stroke="#191970" points="864.0161,-214.5556 855.0682,-208.8823 858.5251,-218.8973 864.0161,-214.5556"/>
</g>
<!-- Node29&#45;&gt;Node1 -->
<g id="edge42" class="edge">
<title>Node29&#45;&gt;Node1</title>
<path fill="none" stroke="#191970" d="M950.6452,-192.0853C1051.9338,-185.4183 1209.9053,-172.5895 1345.4636,-151 1461.1011,-132.5832 1513.0235,-168.5756 1602.4636,-93 1616.8464,-80.8467 1624.6504,-60.9662 1628.8301,-44.6558"/>
<polygon fill="#191970" stroke="#191970" points="1632.3187,-45.0931 1631.086,-34.5702 1625.4875,-43.565 1632.3187,-45.0931"/>
</g>
<!-- Node29&#45;&gt;Node8 -->
<g id="edge51" class="edge">
<title>Node29&#45;&gt;Node8</title>
<path fill="none" stroke="#191970" d="M865.8885,-187.379C887.5236,-174.1391 917.5921,-150.6132 902.4636,-129 896.9351,-121.1016 846.8706,-104.4144 810.7708,-93.2019"/>
<polygon fill="#191970" stroke="#191970" points="811.5949,-89.7935 801.0078,-90.1964 809.5354,-96.4837 811.5949,-89.7935"/>
</g>
<!-- Node29&#45;&gt;Node9 -->
<g id="edge44" class="edge">
<title>Node29&#45;&gt;Node9</title>
<path fill="none" stroke="#191970" d="M925.0577,-187.4966C1007.5804,-176.4683 1135.9357,-159.3148 1213.7122,-148.9207"/>
<polygon fill="#191970" stroke="#191970" points="1214.4253,-152.3566 1223.8736,-147.5627 1213.498,-145.4183 1214.4253,-152.3566"/>
</g>
<!-- Node29&#45;&gt;Node13 -->
<g id="edge50" class="edge">
<title>Node29&#45;&gt;Node13</title>
<path fill="none" stroke="#191970" d="M811.6234,-187.3721C790.5344,-179.6966 764.0271,-167.7234 744.4636,-151 728.4842,-137.3403 715.7682,-116.8154 707.7915,-101.7006"/>
<polygon fill="#191970" stroke="#191970" points="710.8707,-100.0334 703.2473,-92.6758 704.6186,-103.1815 710.8707,-100.0334"/>
</g>
<!-- Node29&#45;&gt;Node14 -->
<g id="edge49" class="edge">
<title>Node29&#45;&gt;Node14</title>
<path fill="none" stroke="#191970" d="M758.9368,-187.4884C643.5657,-172.0088 448.9466,-139.768 395.4636,-93 379.2981,-78.8641 370.744,-55.3453 366.4334,-38.3085"/>
<polygon fill="#191970" stroke="#191970" points="369.7738,-37.208 364.1761,-28.2127 362.9425,-38.7355 369.7738,-37.208"/>
</g>
<!-- Node29&#45;&gt;Node21 -->
<g id="edge43" class="edge">
<title>Node29&#45;&gt;Node21</title>
<path fill="none" stroke="#191970" d="M808.535,-187.3983C729.0645,-165.1848 545.9888,-114.0118 467.8654,-92.1749"/>
<polygon fill="#191970" stroke="#191970" points="468.5693,-88.7376 457.9962,-89.4163 466.6848,-95.4792 468.5693,-88.7376"/>
</g>
<!-- Node29&#45;&gt;Node28 -->
<g id="edge48" class="edge">
<title>Node29&#45;&gt;Node28</title>
<path fill="none" stroke="#191970" d="M869.6434,-187.4966C889.8155,-178.3562 919.2732,-165.0082 941.8274,-154.7883"/>
<polygon fill="#191970" stroke="#191970" points="943.3597,-157.9366 951.0237,-150.6212 940.4706,-151.5606 943.3597,-157.9366"/>
</g>
<!-- Node30 -->
<g id="node31" class="node">
<title>Node30</title>
<polygon fill="#ffffff" stroke="#bfbfbf" points="370.9636,-129.5 370.9636,-150.5 419.9636,-150.5 419.9636,-129.5 370.9636,-129.5"/>
<text text-anchor="middle" x="395.4636" y="-136.9" font-family="Helvetica,sans-Serif" font-size="12.00" fill="#000000">vector</text>
</g>
<!-- Node29&#45;&gt;Node30 -->
<g id="edge45" class="edge">
<title>Node29&#45;&gt;Node30</title>
<path fill="none" stroke="#191970" d="M742.0404,-190.7687C658.3257,-183.8503 538.1245,-171.3931 434.4636,-151 432.9968,-150.7114 431.5048,-150.395 430.0018,-150.0573"/>
<polygon fill="#191970" stroke="#191970" points="430.6251,-146.6057 420.0761,-147.5899 428.9364,-153.399 430.6251,-146.6057"/>
</g>
<!-- Node31 -->
<g id="node32" class="node">
<title>Node31</title>
<polygon fill="#ffffff" stroke="#bfbfbf" points="753.4636,-129.5 753.4636,-150.5 809.4636,-150.5 809.4636,-129.5 753.4636,-129.5"/>
<text text-anchor="middle" x="781.4636" y="-136.9" font-family="Helvetica,sans-Serif" font-size="12.00" fill="#000000">fstream</text>
</g>
<!-- Node29&#45;&gt;Node31 -->
<g id="edge46" class="edge">
<title>Node29&#45;&gt;Node31</title>
<path fill="none" stroke="#191970" d="M834.5416,-187.3619C825.1042,-178.9408 811.734,-167.0105 800.774,-157.2308"/>
<polygon fill="#191970" stroke="#191970" points="803.1017,-154.6171 793.31,-150.5707 798.4412,-159.8401 803.1017,-154.6171"/>
</g>
<!-- Node32 -->
<g id="node33" class="node">
<title>Node32</title>
<polygon fill="#ffffff" stroke="#bfbfbf" points="1643.9636,-129.5 1643.9636,-150.5 1702.9636,-150.5 1702.9636,-129.5 1643.9636,-129.5"/>
<text text-anchor="middle" x="1673.4636" y="-136.9" font-family="Helvetica,sans-Serif" font-size="12.00" fill="#000000">iomanip</text>
</g>
<!-- Node29&#45;&gt;Node32 -->
<g id="edge47" class="edge">
<title>Node29&#45;&gt;Node32</title>
<path fill="none" stroke="#191970" d="M950.5106,-192.8301C1148.1815,-182.85 1564.1814,-161.0312 1629.4636,-151 1630.9229,-150.7758 1632.4044,-150.5254 1633.8971,-150.2539"/>
<polygon fill="#191970" stroke="#191970" points="1634.7086,-153.6602 1643.7933,-148.2087 1633.2919,-146.8051 1634.7086,-153.6602"/>
</g>
<!-- Node33 -->
<g id="node34" class="node">
<title>Node33</title>
<polygon fill="#ffffff" stroke="#bfbfbf" points="827.4636,-129.5 827.4636,-150.5 893.4636,-150.5 893.4636,-129.5 827.4636,-129.5"/>
<text text-anchor="middle" x="860.4636" y="-136.9" font-family="Helvetica,sans-Serif" font-size="12.00" fill="#000000">algorithm</text>
</g>
<!-- Node29&#45;&gt;Node33 -->
<g id="edge52" class="edge">
<title>Node29&#45;&gt;Node33</title>
<path fill="none" stroke="#191970" d="M849.0314,-187.3619C850.847,-179.8401 853.3384,-169.5187 855.532,-160.4308"/>
<polygon fill="#191970" stroke="#191970" points="858.9679,-161.1127 857.9121,-150.5707 852.1633,-159.4702 858.9679,-161.1127"/>
</g>
<!-- Node35&#45;&gt;Node1 -->
<g id="edge56" class="edge">
<title>Node35&#45;&gt;Node1</title>
<path fill="none" stroke="#191970" d="M469.2051,-187.2275C469.2547,-162.0699 473.2926,-99.4377 510.4636,-71 551.0985,-39.9123 1278.6749,-23.8571 1540.5323,-19.0664"/>
<polygon fill="#191970" stroke="#191970" points="1540.8404,-22.5615 1550.7752,-18.8804 1540.7133,-15.5626 1540.8404,-22.5615"/>
</g>
<!-- Node35&#45;&gt;Node14 -->
<g id="edge57" class="edge">
<title>Node35&#45;&gt;Node14</title>
<path fill="none" stroke="#191970" d="M414.7658,-187.4622C394.4874,-180.6175 373.5134,-169.3853 361.4636,-151 339.0311,-116.773 348.0175,-66.2549 355.7546,-38.1988"/>
<polygon fill="#191970" stroke="#191970" points="359.2013,-38.8867 358.6932,-28.304 352.491,-36.8937 359.2013,-38.8867"/>
</g>
<!-- Node36&#45;&gt;Node1 -->
<g id="edge59" class="edge">
<title>Node36&#45;&gt;Node1</title>
<path fill="none" stroke="#191970" d="M1508.6447,-253.1467C1644.5062,-239.0848 1885.1399,-213.6424 1893.4636,-209 1950.6913,-177.0825 1963.0689,-154.9354 1984.4636,-93 1987.6561,-83.7581 1990.8354,-78.4166 1984.4636,-71 1967.7401,-51.5344 1824.2436,-34.7546 1725.9853,-25.4036"/>
<polygon fill="#191970" stroke="#191970" points="1726.3127,-21.919 1716.0287,-24.4666 1725.6568,-28.8882 1726.3127,-21.919"/>
</g>
<!-- Node36&#45;&gt;Node30 -->
<g id="edge64" class="edge">
<title>Node36&#45;&gt;Node30</title>
<path fill="none" stroke="#191970" d="M1326.2461,-256.6575C1167.2086,-246.2549 845.4462,-224.1906 733.4636,-209 599.3262,-190.804 566.1638,-182.2893 434.4636,-151 433.0092,-150.6545 431.5274,-150.2905 430.033,-149.9135"/>
<polygon fill="#191970" stroke="#191970" points="430.7028,-146.4703 420.1401,-147.2949 428.9116,-153.2373 430.7028,-146.4703"/>
</g>
<!-- Node37 -->
<g id="node37" class="node">
<title>Node37</title>
<g id="a_node37"><a xlink:href="StoppingCondition_8h.html" target="_top" xlink:title="Defines the various stopping conditions needed by OrbitSolver. ">
<polygon fill="#ffffff" stroke="#000000" points="1126.4636,-187.5 1126.4636,-208.5 1252.4636,-208.5 1252.4636,-187.5 1126.4636,-187.5"/>
<text text-anchor="middle" x="1189.4636" y="-194.9" font-family="Helvetica,sans-Serif" font-size="12.00" fill="#000000">StoppingCondition.h</text>
</a>
</g>
</g>
<!-- Node36&#45;&gt;Node37 -->
<g id="edge60" class="edge">
<title>Node36&#45;&gt;Node37</title>
<path fill="none" stroke="#191970" d="M1380.324,-251.9934C1341.0727,-240.8894 1279.0668,-223.3483 1236.4431,-211.2903"/>
<polygon fill="#191970" stroke="#191970" points="1237.1624,-207.8565 1226.5873,-208.5021 1235.2569,-214.5921 1237.1624,-207.8565"/>
</g>
<!-- Node37&#45;&gt;Node1 -->
<g id="edge61" class="edge">
<title>Node37&#45;&gt;Node1</title>
<path fill="none" stroke="#191970" d="M1183.6679,-187.2566C1174.587,-171.5787 1155.4317,-142.8002 1130.4636,-129 1032.9073,-75.0792 810.5126,-152.5851 886.4636,-71 908.4401,-47.3932 1345.2341,-28.2366 1540.5128,-20.8166"/>
<polygon fill="#191970" stroke="#191970" points="1540.8985,-24.3046 1550.7592,-20.4296 1540.6342,-17.3096 1540.8985,-24.3046"/>
</g>
<!-- Node37&#45;&gt;Node8 -->
<g id="edge63" class="edge">
<title>Node37&#45;&gt;Node8</title>
<path fill="none" stroke="#191970" d="M1179.1517,-187.4634C1163.0908,-171.7775 1130.4044,-142.6695 1096.4636,-129 979.6703,-81.9622 939.0647,-116.9999 815.4636,-93 814.03,-92.7216 812.5728,-92.4224 811.1038,-92.107"/>
<polygon fill="#191970" stroke="#191970" points="811.8955,-88.6978 801.3626,-89.8422 810.3102,-95.516 811.8955,-88.6978"/>
</g>
<!-- Node37&#45;&gt;Node9 -->
<g id="edge62" class="edge">
<title>Node37&#45;&gt;Node9</title>
<path fill="none" stroke="#191970" d="M1206.1544,-187.3619C1219.8799,-178.6138 1239.5472,-166.0786 1255.201,-156.1015"/>
<polygon fill="#191970" stroke="#191970" points="1257.327,-158.8969 1263.8786,-150.5707 1253.5646,-152.994 1257.327,-158.8969"/>
</g>
<!-- Node38&#45;&gt;Node1 -->
<g id="edge66" class="edge">
<title>Node38&#45;&gt;Node1</title>
<path fill="none" stroke="#191970" d="M1050.6353,-251.7053C1050.402,-225.8324 1045.8636,-160.1248 1007.4636,-129 885.6523,-30.2667 551.6725,-184.8743 659.4636,-71 689.4686,-39.3016 1302.9596,-23.959 1540.5825,-19.1882"/>
<polygon fill="#191970" stroke="#191970" points="1540.9994,-22.6807 1550.9278,-18.9824 1540.8601,-15.6821 1540.9994,-22.6807"/>
</g>
<!-- Node38&#45;&gt;Node37 -->
<g id="edge67" class="edge">
<title>Node38&#45;&gt;Node37</title>
<path fill="none" stroke="#191970" d="M1073.1057,-251.9934C1096.0256,-241.3579 1131.6718,-224.8171 1157.4721,-212.845"/>
<polygon fill="#191970" stroke="#191970" points="1159.2334,-215.8862 1166.8312,-208.5021 1156.287,-209.5365 1159.2334,-215.8862"/>
</g>
<!-- Node39&#45;&gt;Node1 -->
<g id="edge69" class="edge">
<title>Node39&#45;&gt;Node1</title>
<path fill="none" stroke="#191970" d="M557.5276,-251.8473C547.7984,-215.4899 518.6069,-97.1067 543.4636,-71 577.6082,-35.1384 1283.0535,-22.1683 1540.4868,-18.6187"/>
<polygon fill="#191970" stroke="#191970" points="1540.6106,-22.1174 1550.562,-18.4814 1540.5152,-15.1181 1540.6106,-22.1174"/>
</g>
<!-- Node39&#45;&gt;Node35 -->
<g id="edge71" class="edge">
<title>Node39&#45;&gt;Node35</title>
<path fill="none" stroke="#191970" d="M545.4368,-251.8491C531.2105,-241.7656 509.6283,-226.4684 493.0978,-214.7517"/>
<polygon fill="#191970" stroke="#191970" points="494.6952,-211.5939 484.5127,-208.6667 490.6473,-217.3049 494.6952,-211.5939"/>
</g>
<!-- Node39&#45;&gt;Node37 -->
<g id="edge70" class="edge">
<title>Node39&#45;&gt;Node37</title>
<path fill="none" stroke="#191970" d="M606.6109,-251.977C619.1627,-249.3948 632.7908,-246.8456 645.4636,-245 812.9595,-220.6074 1011.4484,-207.3771 1116.214,-201.6045"/>
<polygon fill="#191970" stroke="#191970" points="1116.5685,-205.0905 1126.3636,-201.0525 1116.1882,-198.1009 1116.5685,-205.0905"/>
</g>
<!-- Node41&#45;&gt;Node1 -->
<g id="edge77" class="edge">
<title>Node41&#45;&gt;Node1</title>
<path fill="none" stroke="#191970" d="M1117.9767,-518.4125C1267.4439,-513.799 1602.9933,-500.3707 1883.4636,-467 2064.9287,-445.4091 2130.4677,-487.8316 2288.4636,-396 2317.3926,-379.1857 2322.7405,-368.5169 2336.4636,-338 2385.1736,-229.6809 2440.3837,-144.9698 2347.4636,-71 2345.9586,-69.8019 1919.3151,-38.4278 1726.3387,-24.2925"/>
<polygon fill="#191970" stroke="#191970" points="1726.4373,-20.7904 1716.2083,-23.5505 1725.9259,-27.7717 1726.4373,-20.7904"/>
</g>
<!-- Node41&#45;&gt;Node4 -->
<g id="edge78" class="edge">
<title>Node41&#45;&gt;Node4</title>
<path fill="none" stroke="#191970" d="M1035.8251,-503.3282C1028.2978,-467.8027 1011.0387,-386.3484 1002.8848,-347.8659"/>
<polygon fill="#191970" stroke="#191970" points="1006.2513,-346.8688 1000.7544,-337.8115 999.4034,-348.3198 1006.2513,-346.8688"/>
</g>
<!-- Node41&#45;&gt;Node42 -->
<g id="edge79" class="edge">
<title>Node41&#45;&gt;Node42</title>
<path fill="none" stroke="#191970" d="M1053.0152,-503.3388C1073.1236,-477.8746 1110.7247,-430.2581 1131.577,-403.8518"/>
<polygon fill="#191970" stroke="#191970" points="1134.5065,-405.7895 1137.957,-395.7723 1129.0128,-401.4513 1134.5065,-405.7895"/>
</g>
<!-- Node44 -->
<g id="node44" class="node">
<title>Node44</title>
<g id="a_node44"><a xlink:href="BinarySystem_8h.html" target="_top" xlink:title="Defines the BinarySystem class. ">
<polygon fill="#ffffff" stroke="#000000" points="1772.9636,-439 1772.9636,-460 1873.9636,-460 1873.9636,-439 1772.9636,-439"/>
<text text-anchor="middle" x="1823.4636" y="-446.4" font-family="Helvetica,sans-Serif" font-size="12.00" fill="#000000">BinarySystem.h</text>
</a>
</g>
</g>
<!-- Node41&#45;&gt;Node44 -->
<g id="edge90" class="edge">
<title>Node41&#45;&gt;Node44</title>
<path fill="none" stroke="#191970" d="M1118.2261,-513.3672C1274.6804,-499.1985 1621.6359,-467.7778 1762.3738,-455.0324"/>
<polygon fill="#191970" stroke="#191970" points="1762.9025,-458.4989 1772.546,-454.1112 1762.2711,-451.5274 1762.9025,-458.4989"/>
</g>
<!-- Node49 -->
<g id="node49" class="node">
<title>Node49</title>
<g id="a_node49"><a xlink:href="LagForcingFrequencyBreakCondition_8h.html" target="_top" xlink:title="Declares a stopping condition satisfied when a forcing frequency reaches a critical value...">
<polygon fill="#ffffff" stroke="#000000" points="845.4636,-432.5 845.4636,-466.5 1011.4636,-466.5 1011.4636,-432.5 845.4636,-432.5"/>
<text text-anchor="start" x="853.4636" y="-452.9" font-family="Helvetica,sans-Serif" font-size="12.00" fill="#000000">LagForcingFrequencyBreak</text>
<text text-anchor="middle" x="928.4636" y="-439.9" font-family="Helvetica,sans-Serif" font-size="12.00" fill="#000000">Condition.h</text>
</a>
</g>
</g>
<!-- Node41&#45;&gt;Node49 -->
<g id="edge108" class="edge">
<title>Node41&#45;&gt;Node49</title>
<path fill="none" stroke="#191970" d="M1012.8763,-503.4937C998.1568,-494.0785 979.6728,-482.2554 963.7566,-472.0748"/>
<polygon fill="#191970" stroke="#191970" points="965.5287,-469.0536 955.2186,-466.6136 961.7568,-474.9504 965.5287,-469.0536"/>
</g>
<!-- Node50 -->
<g id="node50" class="node">
<title>Node50</title>
<g id="a_node50"><a xlink:href="LagSpinBreakCondition_8h.html" target="_top" xlink:title="Declares a stopping condition monitoring for critical spin frequencies. ">
<polygon fill="#ffffff" stroke="#000000" points="370.9636,-439 370.9636,-460 525.9636,-460 525.9636,-439 370.9636,-439"/>
<text text-anchor="middle" x="448.4636" y="-446.4" font-family="Helvetica,sans-Serif" font-size="12.00" fill="#000000">LagSpinBreakCondition.h</text>
</a>
</g>
</g>
<!-- Node41&#45;&gt;Node50 -->
<g id="edge115" class="edge">
<title>Node41&#45;&gt;Node50</title>
<path fill="none" stroke="#191970" d="M960.6779,-511.035C850.5523,-497.8051 651.2334,-473.8598 536.3992,-460.0642"/>
<polygon fill="#191970" stroke="#191970" points="536.5835,-456.5612 526.2374,-458.8434 535.7485,-463.5113 536.5835,-456.5612"/>
</g>
<!-- Node42&#45;&gt;Node1 -->
<g id="edge80" class="edge">
<title>Node42&#45;&gt;Node1</title>
<path fill="none" stroke="#191970" d="M1203.6766,-378.7859C1263.8936,-371.5865 1361.177,-358.0801 1443.4636,-338 1522.6563,-318.6749 1540.7869,-307.6699 1617.4636,-280 1657.8337,-265.4319 1666.0039,-256.0936 1707.4636,-245 1809.5356,-217.688 1848.4044,-257.1405 1942.4636,-209 1974.6369,-192.5334 1980.9184,-182.0217 1999.4636,-151 2018.1638,-119.719 2041.3897,-98.4907 2017.4636,-71 1998.6008,-49.327 1834.0818,-32.7653 1726.5917,-24.1378"/>
<polygon fill="#191970" stroke="#191970" points="1726.6196,-20.6291 1716.3743,-23.3277 1726.0663,-27.6072 1726.6196,-20.6291"/>
</g>
<!-- Node42&#45;&gt;Node4 -->
<g id="edge81" class="edge">
<title>Node42&#45;&gt;Node4</title>
<path fill="none" stroke="#191970" d="M1119.6619,-374.4966C1096.0256,-365.2337 1061.3633,-351.6499 1035.1557,-341.3793"/>
<polygon fill="#191970" stroke="#191970" points="1036.1537,-338.0113 1025.566,-337.6212 1033.5995,-344.5287 1036.1537,-338.0113"/>
</g>
<!-- Node42&#45;&gt;Node8 -->
<g id="edge89" class="edge">
<title>Node42&#45;&gt;Node8</title>
<path fill="none" stroke="#191970" d="M1146.8472,-374.2868C1147.3138,-350.1172 1146.2193,-289.9553 1126.4636,-245 1099.6537,-183.9925 1089.2513,-162.1854 1031.4636,-129 946.1043,-79.9812 906.7206,-115.1862 811.0505,-94.178"/>
<polygon fill="#191970" stroke="#191970" points="811.8376,-90.7677 801.3021,-91.8871 810.2362,-97.582 811.8376,-90.7677"/>
</g>
<!-- Node42&#45;&gt;Node9 -->
<g id="edge87" class="edge">
<title>Node42&#45;&gt;Node9</title>
<path fill="none" stroke="#191970" d="M1203.8062,-377.2211C1298.186,-363.1131 1479.6098,-330.0539 1517.4636,-280 1568.8813,-212.0105 1433.5816,-170.7981 1346.8028,-152.0564"/>
<polygon fill="#191970" stroke="#191970" points="1347.5062,-148.6279 1336.9992,-149.9894 1346.062,-155.4773 1347.5062,-148.6279"/>
</g>
<!-- Node42&#45;&gt;Node11 -->
<g id="edge88" class="edge">
<title>Node42&#45;&gt;Node11</title>
<path fill="none" stroke="#191970" d="M1089.3037,-380.2718C934.3826,-366.8829 515.3747,-326.6422 475.4636,-280 465.3501,-268.1808 467.6105,-258.4277 475.4636,-245 491.9396,-216.8286 518.6285,-234.1194 539.4636,-209 565.456,-177.6627 576.0033,-129.8645 580.0773,-102.7256"/>
<polygon fill="#191970" stroke="#191970" points="583.5504,-103.1594 581.416,-92.7818 576.613,-102.2253 583.5504,-103.1594"/>
</g>
<!-- Node42&#45;&gt;Node24 -->
<g id="edge86" class="edge">
<title>Node42&#45;&gt;Node24</title>
<path fill="none" stroke="#191970" d="M1203.5619,-381.4691C1329.769,-372.6928 1641.2588,-345.6733 1893.4636,-280 1990.4389,-254.7479 2023.7528,-264.0851 2107.4636,-209 2151.9851,-179.7031 2189.9242,-128.5428 2208.4133,-100.9429"/>
<polygon fill="#191970" stroke="#191970" points="2211.3594,-102.8328 2213.9192,-92.5518 2205.5068,-98.9925 2211.3594,-102.8328"/>
</g>
<!-- Node43 -->
<g id="node43" class="node">
<title>Node43</title>
<g id="a_node43"><a xlink:href="OrbitalExpressions_8h.html" target="_top" xlink:title="A collection of functions which calculate various quantities for two body orbits. ...">
<polygon fill="#ffffff" stroke="#000000" points="1794.4636,-316.5 1794.4636,-337.5 1960.4636,-337.5 1960.4636,-316.5 1794.4636,-316.5"/>
<text text-anchor="middle" x="1877.4636" y="-323.9" font-family="Helvetica,sans-Serif" font-size="12.00" fill="#000000">../Core/OrbitalExpressions.h</text>
</a>
</g>
</g>
<!-- Node42&#45;&gt;Node43 -->
<g id="edge82" class="edge">
<title>Node42&#45;&gt;Node43</title>
<path fill="none" stroke="#191970" d="M1203.5195,-380.473C1329.0762,-370.5109 1630.328,-346.6086 1783.9508,-334.4196"/>
<polygon fill="#191970" stroke="#191970" points="1784.6106,-337.8784 1794.3024,-333.5983 1784.0569,-330.9003 1784.6106,-337.8784"/>
</g>
<!-- Node43&#45;&gt;Node1 -->
<g id="edge83" class="edge">
<title>Node43&#45;&gt;Node1</title>
<path fill="none" stroke="#191970" d="M1960.4861,-319.7053C2005.1391,-313.4011 2060.175,-301.6939 2105.4636,-280 2221.1378,-224.5903 2391.4787,-165.2291 2304.4636,-71 2302.035,-68.3701 1909.8228,-38.3934 1726.2404,-24.4964"/>
<polygon fill="#191970" stroke="#191970" points="1726.2916,-20.9903 1716.056,-23.7257 1725.7633,-27.9704 1726.2916,-20.9903"/>
</g>
<!-- Node43&#45;&gt;Node24 -->
<g id="edge85" class="edge">
<title>Node43&#45;&gt;Node24</title>
<path fill="none" stroke="#191970" d="M1940.7505,-316.4459C2005.9658,-302.4885 2106.7053,-271.8953 2169.4636,-209 2198.9641,-179.4351 2211.9974,-130.5932 2217.2688,-102.8865"/>
<polygon fill="#191970" stroke="#191970" points="2220.7676,-103.1949 2219.0284,-92.7438 2213.8706,-101.9983 2220.7676,-103.1949"/>
</g>
<!-- Node43&#45;&gt;Node28 -->
<g id="edge84" class="edge">
<title>Node43&#45;&gt;Node28</title>
<path fill="none" stroke="#191970" d="M1884.4271,-316.4753C1894.8399,-299.296 1911.4249,-265.1304 1893.4636,-245 1863.3212,-211.2175 1172.9256,-155.4574 1009.1019,-142.6697"/>
<polygon fill="#191970" stroke="#191970" points="1009.3266,-139.1767 999.0852,-141.8902 1008.7835,-146.1556 1009.3266,-139.1767"/>
</g>
<!-- Node44&#45;&gt;Node1 -->
<g id="edge91" class="edge">
<title>Node44&#45;&gt;Node1</title>
<path fill="none" stroke="#191970" d="M1874.0709,-447.2099C1972.6614,-442.098 2186.5773,-427.6312 2252.4636,-396 2292.1313,-376.9561 2323.4636,-371.0022 2323.4636,-327 2323.4636,-327 2323.4636,-327 2323.4636,-262.5 2323.4636,-177.3842 2389.3435,-127.2499 2325.4636,-71 2322.6799,-68.5488 1914.3913,-38.1885 1726.345,-24.3246"/>
<polygon fill="#191970" stroke="#191970" points="1726.4233,-20.8209 1716.1931,-23.5764 1725.9088,-27.802 1726.4233,-20.8209"/>
</g>
<!-- Node44&#45;&gt;Node9 -->
<g id="edge98" class="edge">
<title>Node44&#45;&gt;Node9</title>
<path fill="none" stroke="#191970" d="M1814.0399,-438.9275C1777.7328,-398.9053 1641.7735,-255.4998 1498.4636,-187 1450.663,-164.1521 1391.676,-152.301 1347.1196,-146.2186"/>
<polygon fill="#191970" stroke="#191970" points="1347.3503,-142.7192 1336.9823,-144.8998 1346.4472,-149.6607 1347.3503,-142.7192"/>
</g>
<!-- Node44&#45;&gt;Node12 -->
<g id="edge105" class="edge">
<title>Node44&#45;&gt;Node12</title>
<path fill="none" stroke="#191970" d="M1826.0913,-438.7782C1830.6639,-422.3872 1841.6494,-391.195 1862.4636,-374 1906.0482,-337.994 1950.6146,-383.2802 1984.4636,-338 1990.318,-330.1686 1986.3392,-325.5962 1984.4636,-316 1967.2552,-227.9531 1977.3478,-186.4748 1908.4636,-129 1893.7525,-116.7255 1774.4891,-96.4168 1715.8192,-87.036"/>
<polygon fill="#191970" stroke="#191970" points="1716.0332,-83.5262 1705.6083,-85.4159 1714.9363,-90.4397 1716.0332,-83.5262"/>
</g>
<!-- Node44&#45;&gt;Node14 -->
<g id="edge106" class="edge">
<title>Node44&#45;&gt;Node14</title>
<path fill="none" stroke="#191970" d="M1772.7868,-448.5656C1626.5681,-445.4821 1191.4687,-433.581 832.4636,-396 666.0421,-378.5788 623.9349,-373.7314 460.4636,-338 269.5306,-296.266 200.0244,-289.8314 62.4636,-151 34.7581,-123.0386 -1.102,-100.9305 24.4636,-71 43.5632,-48.6395 235.2964,-28.8651 321.2068,-21.0517"/>
<polygon fill="#191970" stroke="#191970" points="321.7375,-24.5182 331.3841,-20.1371 321.1109,-17.5463 321.7375,-24.5182"/>
</g>
<!-- Node44&#45;&gt;Node21 -->
<g id="edge100" class="edge">
<title>Node44&#45;&gt;Node21</title>
<path fill="none" stroke="#191970" d="M1772.8784,-446.6984C1569.8784,-435.1876 814.0923,-389.6946 580.4636,-338 500.4604,-320.2978 467.5606,-333.4588 405.4636,-280 351.8876,-233.8769 321.0465,-190.751 355.4636,-129 364.1575,-113.4015 380.3988,-102.328 395.6425,-94.8641"/>
<polygon fill="#191970" stroke="#191970" points="397.2524,-97.9775 404.9286,-90.6749 394.3739,-91.5968 397.2524,-97.9775"/>
</g>
<!-- Node44&#45;&gt;Node23 -->
<g id="edge104" class="edge">
<title>Node44&#45;&gt;Node23</title>
<path fill="none" stroke="#191970" d="M1874.1618,-448.3895C1979.4633,-445.329 2217.9262,-434.2609 2288.4636,-396 2424.4998,-322.2113 2505.1128,-195.7038 2413.4636,-71 2397.0143,-48.6181 2320.296,-31.4275 2275.4029,-23.0776"/>
<polygon fill="#191970" stroke="#191970" points="2275.9988,-19.6287 2265.5349,-21.289 2274.7503,-26.5164 2275.9988,-19.6287"/>
</g>
<!-- Node44&#45;&gt;Node24 -->
<g id="edge97" class="edge">
<title>Node44&#45;&gt;Node24</title>
<path fill="none" stroke="#191970" d="M1873.9983,-446.5492C1977.9944,-439.9603 2208.1994,-422.5139 2231.4636,-396 2306.3259,-310.6803 2252.2171,-156.5981 2229.3417,-101.9127"/>
<polygon fill="#191970" stroke="#191970" points="2232.5139,-100.4296 2225.3509,-92.623 2226.0823,-103.1926 2232.5139,-100.4296"/>
</g>
<!-- Node44&#45;&gt;Node32 -->
<g id="edge107" class="edge">
<title>Node44&#45;&gt;Node32</title>
<path fill="none" stroke="#191970" d="M1820.6446,-438.8303C1817.1013,-422.7896 1813.1812,-392.3861 1828.4636,-374 1871.7775,-321.8894 1992.4871,-379.7301 1969.4636,-316 1955.5231,-277.4122 1945.2684,-266.7253 1910.4636,-245 1853.0372,-209.1542 1823.4481,-238.3872 1762.4636,-209 1735.2188,-195.8712 1708.4039,-173.4155 1691.4469,-157.698"/>
<polygon fill="#191970" stroke="#191970" points="1693.6202,-154.9354 1683.9558,-150.5938 1688.8034,-160.0146 1693.6202,-154.9354"/>
</g>
<!-- Node44&#45;&gt;Node36 -->
<g id="edge93" class="edge">
<title>Node44&#45;&gt;Node36</title>
<path fill="none" stroke="#191970" d="M1790.883,-438.9687C1760.7829,-428.9286 1715.0286,-412.8756 1676.4636,-396 1589.7492,-358.0547 1491.4331,-304.2607 1444.7982,-278.0561"/>
<polygon fill="#191970" stroke="#191970" points="1446.3459,-274.9108 1435.9162,-273.0472 1442.9074,-281.0081 1446.3459,-274.9108"/>
</g>
<!-- Node44&#45;&gt;Node42 -->
<g id="edge92" class="edge">
<title>Node44&#45;&gt;Node42</title>
<path fill="none" stroke="#191970" d="M1772.8554,-444.6784C1652.5852,-433.2199 1349.5898,-404.3525 1213.9452,-391.4292"/>
<polygon fill="#191970" stroke="#191970" points="1213.9776,-387.9165 1203.6907,-390.4522 1213.3136,-394.885 1213.9776,-387.9165"/>
</g>
<!-- Node44&#45;&gt;Node43 -->
<g id="edge99" class="edge">
<title>Node44&#45;&gt;Node43</title>
<path fill="none" stroke="#191970" d="M1874.3224,-446.2397C1975.3064,-439.2467 2193.3325,-421.3567 2215.4636,-396 2221.8931,-388.6334 2221.8838,-381.3747 2215.4636,-374 2199.512,-355.6767 2065.2463,-341.5392 1970.8266,-333.7456"/>
<polygon fill="#191970" stroke="#191970" points="1970.9227,-330.242 1960.6717,-332.9191 1970.3548,-337.2189 1970.9227,-330.242"/>
</g>
<!-- Node45 -->
<g id="node45" class="node">
<title>Node45</title>
<g id="a_node45"><a xlink:href="SecondaryDeathCondition_8h.html" target="_top" xlink:title="Declares a stopping condition class monitoring for the death of the secondary object. ">
<polygon fill="#ffffff" stroke="#000000" points="1716.4636,-252 1716.4636,-273 1884.4636,-273 1884.4636,-252 1716.4636,-252"/>
<text text-anchor="middle" x="1800.4636" y="-259.4" font-family="Helvetica,sans-Serif" font-size="12.00" fill="#000000">SecondaryDeathCondition.h</text>
</a>
</g>
</g>
<!-- Node44&#45;&gt;Node45 -->
<g id="edge94" class="edge">
<title>Node44&#45;&gt;Node45</title>
<path fill="none" stroke="#191970" d="M1814.7379,-438.7864C1806.8933,-428.4944 1795.8083,-412.1636 1790.4636,-396 1779.2793,-362.1762 1780.6096,-351.2927 1785.4636,-316 1786.9887,-304.9116 1790.2128,-292.8841 1793.2824,-283.0467"/>
<polygon fill="#191970" stroke="#191970" points="1796.6623,-283.9728 1796.465,-273.3798 1790.0134,-281.7837 1796.6623,-283.9728"/>
</g>
<!-- Node46 -->
<g id="node46" class="node">
<title>Node46</title>
<polygon fill="#ffffff" stroke="#bfbfbf" points="1870.9636,-374.5 1870.9636,-395.5 1965.9636,-395.5 1965.9636,-374.5 1870.9636,-374.5"/>
<text text-anchor="middle" x="1918.4636" y="-381.9" font-family="Helvetica,sans-Serif" font-size="12.00" fill="#000000">gsl/gsl_errno.h</text>
</g>
<!-- Node44&#45;&gt;Node46 -->
<g id="edge101" class="edge">
<title>Node44&#45;&gt;Node46</title>
<path fill="none" stroke="#191970" d="M1839.1509,-438.8491C1854.1401,-428.6723 1876.9513,-413.1847 1894.2685,-401.4272"/>
<polygon fill="#191970" stroke="#191970" points="1896.4457,-404.1795 1902.753,-395.6667 1892.5136,-398.3882 1896.4457,-404.1795"/>
</g>
<!-- Node47 -->
<g id="node47" class="node">
<title>Node47</title>
<polygon fill="#ffffff" stroke="#bfbfbf" points="1984.4636,-374.5 1984.4636,-395.5 2088.4636,-395.5 2088.4636,-374.5 1984.4636,-374.5"/>
<text text-anchor="middle" x="2036.4636" y="-381.9" font-family="Helvetica,sans-Serif" font-size="12.00" fill="#000000">gsl/gsl_odeiv2.h</text>
</g>
<!-- Node44&#45;&gt;Node47 -->
<g id="edge102" class="edge">
<title>Node44&#45;&gt;Node47</title>
<path fill="none" stroke="#191970" d="M1858.1598,-438.9934C1894.674,-427.9363 1952.2669,-410.4962 1992.0698,-398.4432"/>
<polygon fill="#191970" stroke="#191970" points="1993.2259,-401.7502 2001.7823,-395.5021 1991.1971,-395.0506 1993.2259,-401.7502"/>
</g>
<!-- Node48 -->
<g id="node48" class="node">
<title>Node48</title>
<polygon fill="#ffffff" stroke="#bfbfbf" points="2106.4636,-374.5 2106.4636,-395.5 2206.4636,-395.5 2206.4636,-374.5 2106.4636,-374.5"/>
<text text-anchor="middle" x="2156.4636" y="-381.9" font-family="Helvetica,sans-Serif" font-size="12.00" fill="#000000">gsl/gsl_siman.h</text>
</g>
<!-- Node44&#45;&gt;Node48 -->
<g id="edge103" class="edge">
<title>Node44&#45;&gt;Node48</title>
<path fill="none" stroke="#191970" d="M1874.0391,-439.7038C1933.7089,-428.1462 2032.8126,-408.9504 2096.3507,-396.6435"/>
<polygon fill="#191970" stroke="#191970" points="2097.0793,-400.0675 2106.2313,-394.7297 2095.7481,-393.1952 2097.0793,-400.0675"/>
</g>
<!-- Node45&#45;&gt;Node1 -->
<g id="edge95" class="edge">
<title>Node45&#45;&gt;Node1</title>
<path fill="none" stroke="#191970" d="M1859.0101,-251.9456C1941.8432,-236.9523 2083.4995,-211.0617 2085.4636,-209 2127.8396,-164.5175 2134.3193,-116.8828 2093.4636,-71 2081.3809,-57.4306 1856.9464,-36.3446 1726.1165,-25.1262"/>
<polygon fill="#191970" stroke="#191970" points="1726.3489,-21.6334 1716.0874,-24.2698 1725.7533,-28.608 1726.3489,-21.6334"/>
</g>
<!-- Node45&#45;&gt;Node37 -->
<g id="edge96" class="edge">
<title>Node45&#45;&gt;Node37</title>
<path fill="none" stroke="#191970" d="M1716.1482,-253.5993C1595.71,-240.8853 1376.42,-217.736 1262.5212,-205.7123"/>
<polygon fill="#191970" stroke="#191970" points="1262.8143,-202.2239 1252.5021,-204.6546 1262.0794,-209.1852 1262.8143,-202.2239"/>
</g>
<!-- Node49&#45;&gt;Node1 -->
<g id="edge109" class="edge">
<title>Node49&#45;&gt;Node1</title>
<path fill="none" stroke="#191970" d="M845.2402,-444.3007C652.2344,-431.1307 190.4636,-392.7508 190.4636,-327 190.4636,-327 190.4636,-327 190.4636,-262.5 190.4636,-199.7432 192.4879,-173.7723 236.4636,-129 289.1737,-75.3351 321.6895,-85.6849 395.4636,-71 506.5206,-48.8938 1272.2811,-26.9622 1540.7278,-19.8705"/>
<polygon fill="#191970" stroke="#191970" points="1540.9299,-23.3665 1550.8342,-19.6043 1540.7455,-16.3689 1540.9299,-23.3665"/>
</g>
<!-- Node49&#45;&gt;Node21 -->
<g id="edge113" class="edge">
<title>Node49&#45;&gt;Node21</title>
<path fill="none" stroke="#191970" d="M845.2683,-442.3456C741.9228,-432.8476 571.8503,-415.043 511.4636,-396 405.6689,-362.6376 369.2188,-358.123 290.4636,-280 241.3325,-231.2633 210.1973,-183.7969 252.4636,-129 269.7038,-106.6487 347.6055,-92.838 394.7741,-86.3737"/>
<polygon fill="#191970" stroke="#191970" points="395.4549,-89.8142 404.9093,-85.0326 394.5366,-82.8747 395.4549,-89.8142"/>
</g>
<!-- Node49&#45;&gt;Node30 -->
<g id="edge114" class="edge">
<title>Node49&#45;&gt;Node30</title>
<path fill="none" stroke="#191970" d="M845.2388,-440.2744C722.4261,-425.0663 500.8614,-391.0323 442.4636,-338 391.5414,-291.7565 390.8898,-201.3281 393.4979,-160.6699"/>
<polygon fill="#191970" stroke="#191970" points="396.9951,-160.8414 394.2809,-150.6001 390.0161,-160.2987 396.9951,-160.8414"/>
</g>
<!-- Node49&#45;&gt;Node37 -->
<g id="edge110" class="edge">
<title>Node49&#45;&gt;Node37</title>
<path fill="none" stroke="#191970" d="M965.1675,-432.454C1033.3449,-399.9006 1174.7784,-327.8702 1198.4636,-280 1208.036,-260.6533 1203.2174,-235.6642 1197.6351,-218.3826"/>
<polygon fill="#191970" stroke="#191970" points="1200.8481,-216.973 1194.1824,-208.7377 1194.2576,-219.3323 1200.8481,-216.973"/>
</g>
<!-- Node49&#45;&gt;Node42 -->
<g id="edge111" class="edge">
<title>Node49&#45;&gt;Node42</title>
<path fill="none" stroke="#191970" d="M986.0257,-432.469C1021.9223,-421.8482 1067.4762,-408.3701 1100.8642,-398.4916"/>
<polygon fill="#191970" stroke="#191970" points="1102.2152,-401.7419 1110.8113,-395.5485 1100.2292,-395.0295 1102.2152,-401.7419"/>
</g>
<!-- Node49&#45;&gt;Node43 -->
<g id="edge112" class="edge">
<title>Node49&#45;&gt;Node43</title>
<path fill="none" stroke="#191970" d="M1011.8493,-438.7363C1189.0535,-415.8622 1601.9257,-362.5673 1786.0278,-338.8028"/>
<polygon fill="#191970" stroke="#191970" points="1786.4848,-342.273 1795.9544,-337.5215 1785.5886,-335.3306 1786.4848,-342.273"/>
</g>
<!-- Node50&#45;&gt;Node1 -->
<g id="edge116" class="edge">
<title>Node50&#45;&gt;Node1</title>
<path fill="none" stroke="#191970" d="M370.784,-442.61C296.0518,-434.7051 189.5325,-419.6912 155.4636,-396 126.1767,-375.6341 114.4636,-362.672 114.4636,-327 114.4636,-327 114.4636,-327 114.4636,-198 114.4636,-104.3993 194.329,-102.518 282.4636,-71 399.9506,-28.9853 1254.2306,-19.8562 1540.3619,-17.9687"/>
<polygon fill="#191970" stroke="#191970" points="1540.7299,-21.4665 1550.7071,-17.902 1540.6847,-14.4667 1540.7299,-21.4665"/>
</g>
<!-- Node50&#45;&gt;Node21 -->
<g id="edge119" class="edge">
<title>Node50&#45;&gt;Node21</title>
<path fill="none" stroke="#191970" d="M370.6889,-442.7997C300.828,-435.2824 204.9874,-420.7729 176.4636,-396 151.9495,-374.7096 152.4636,-359.4688 152.4636,-327 152.4636,-327 152.4636,-327 152.4636,-262.5 152.4636,-197.0802 163.3758,-169.8631 214.4636,-129 241.8949,-107.0588 340.2529,-92.5371 394.6447,-85.9914"/>
<polygon fill="#191970" stroke="#191970" points="395.0586,-89.4669 404.5825,-84.8253 394.2428,-82.5146 395.0586,-89.4669"/>
</g>
<!-- Node50&#45;&gt;Node30 -->
<g id="edge120" class="edge">
<title>Node50&#45;&gt;Node30</title>
<path fill="none" stroke="#191970" d="M435.754,-438.7702C414.5816,-420.2605 371.9986,-380.2323 347.4636,-338 333.8374,-314.5452 332.7393,-306.7866 328.4636,-280 321.9485,-239.1834 309.3938,-223.6713 328.4636,-187 335.5849,-173.3058 348.7271,-162.7705 361.498,-155.179"/>
<polygon fill="#191970" stroke="#191970" points="363.553,-158.044 370.6401,-150.1685 360.1886,-151.9055 363.553,-158.044"/>
</g>
<!-- Node50&#45;&gt;Node37 -->
<g id="edge117" class="edge">
<title>Node50&#45;&gt;Node37</title>
<path fill="none" stroke="#191970" d="M526.0021,-443.3104C675.1795,-430.2306 995.6046,-396.1093 1088.4636,-338 1135.2562,-308.7181 1166.9975,-249.1045 1181.1245,-217.9602"/>
<polygon fill="#191970" stroke="#191970" points="1184.4293,-219.1387 1185.2364,-208.5746 1178.0176,-216.3296 1184.4293,-219.1387"/>
</g>
<!-- Node50&#45;&gt;Node42 -->
<g id="edge118" class="edge">
<title>Node50&#45;&gt;Node42</title>
<path fill="none" stroke="#191970" d="M526.1647,-442.3199C664.0364,-429.5796 949.1619,-403.232 1079.19,-391.2165"/>
<polygon fill="#191970" stroke="#191970" points="1079.7712,-394.6778 1089.4067,-390.2725 1079.127,-387.7075 1079.7712,-394.6778"/>
</g>
</g>
</svg>
        <g id="navigator" transform="translate(0 0)" fill="#404254">
                <rect fill="#f2f5e9" fill-opacity="0.5" stroke="#606060" stroke-width=".5" x="0" y="0" width="60" height="60"/>
                <use id="zoomplus" xlink:href="#zoomPlus" x="17" y="9" onmousedown="handleZoom(evt,'in')"/>
                <use id="zoomminus" xlink:href="#zoomMin" x="42" y="9" onmousedown="handleZoom(evt,'out')"/>
                <use id="reset" xlink:href="#resetDef" x="30" y="36" onmousedown="handleReset()"/>
                <g id="arrowUp" xlink:href="#dirArrow" transform="translate(30 24)" onmousedown="handlePan(0,-1)">
                  <use xlink:href="#rim" fill="#404040">
                        <set attributeName="fill" to="#808080" begin="arrowUp.mouseover" end="arrowUp.mouseout"/>
                  </use>
                  <path fill="none" stroke="white" stroke-width="1.5" d="M0,-3.0v7 M-2.5,-0.5L0,-3.0L2.5,-0.5"/>
                </g>
                <g id="arrowRight" xlink:href="#dirArrow" transform="rotate(90) translate(36 -43)" onmousedown="handlePan(1,0)">
                  <use xlink:href="#rim" fill="#404040">
                        <set attributeName="fill" to="#808080" begin="arrowRight.mouseover" end="arrowRight.mouseout"/>
                  </use>
                  <path fill="none" stroke="white" stroke-width="1.5" d="M0,-3.0v7 M-2.5,-0.5L0,-3.0L2.5,-0.5"/>
                </g>
                <g id="arrowDown" xlink:href="#dirArrow" transform="rotate(180) translate(-30 -48)" onmousedown="handlePan(0,1)">
                  <use xlink:href="#rim" fill="#404040">
                        <set attributeName="fill" to="#808080" begin="arrowDown.mouseover" end="arrowDown.mouseout"/>
                  </use>
                  <path fill="none" stroke="white" stroke-width="1.5" d="M0,-3.0v7 M-2.5,-0.5L0,-3.0L2.5,-0.5"/>
                </g>
                <g id="arrowLeft" xlink:href="#dirArrow" transform="rotate(270) translate(-36 17)" onmousedown="handlePan(-1,0)">
                  <use xlink:href="#rim" fill="#404040">
                        <set attributeName="fill" to="#808080" begin="arrowLeft.mouseover" end="arrowLeft.mouseout"/>
                  </use>
                  <path fill="none" stroke="white" stroke-width="1.5" d="M0,-3.0v7 M-2.5,-0.5L0,-3.0L2.5,-0.5"/>
                </g>
        </g>
        <svg viewBox="0 0 15 15" width="100%" height="30px" preserveAspectRatio="xMaxYMin meet">
         <g id="arrow_out" transform="scale(0.3 0.3)">
          <a xlink:href="Planet_2CInterface_8h__incl_org.svg" target="_base">
           <rect id="button" ry="5" rx="5" y="6" x="6" height="38" width="38"
                fill="#f2f5e9" fill-opacity="0.5" stroke="#606060" stroke-width="1.0"/>
           <path id="arrow"
             d="M 11.500037,31.436501 C 11.940474,20.09759 22.043105,11.32322 32.158766,21.979434 L 37.068811,17.246167 C 37.068811,17.246167 37.088388,32 37.088388,32 L 22.160133,31.978069 C 22.160133,31.978069 26.997745,27.140456 26.997745,27.140456 C 18.528582,18.264221 13.291696,25.230495 11.500037,31.436501 z"
             style="fill:#404040;"/>
          </a>
         </g>
        </svg>
</svg>
