<?xml version="1.0" encoding="UTF-8" standalone="no"?>
<!DOCTYPE svg PUBLIC "-//W3C//DTD SVG 1.1//EN"
 "http://www.w3.org/Graphics/SVG/1.1/DTD/svg11.dtd">
<!-- Generated by graphviz version 2.40.1 (20161225.0304)
 -->
<!-- Title: /home/kpenev/projects/git/poet/poet_src/unit_tests/testEvolve/PolynomialEvolutionZone.h Pages: 1 -->
<svg width="660pt" height="457pt"
 viewBox="0.00 0.00 659.50 457.00" xmlns="http://www.w3.org/2000/svg" xmlns:xlink="http://www.w3.org/1999/xlink">
<g id="graph0" class="graph" transform="scale(1 1) rotate(0) translate(4 453)">
<title>/home/kpenev/projects/git/poet/poet_src/unit_tests/testEvolve/PolynomialEvolutionZone.h</title>
<polygon fill="#ffffff" stroke="transparent" points="-4,4 -4,-453 655.5,-453 655.5,4 -4,4"/>
<!-- Node39 -->
<g id="node1" class="node">
<title>Node39</title>
<polygon fill="#bfbfbf" stroke="#000000" points="214,-388.5 214,-448.5 434,-448.5 434,-388.5 214,-388.5"/>
<text text-anchor="start" x="222" y="-434.9" font-family="Helvetica,sans-Serif" font-size="12.00" fill="#000000">/home/kpenev/projects</text>
<text text-anchor="start" x="222" y="-421.9" font-family="Helvetica,sans-Serif" font-size="12.00" fill="#000000">/git/poet/poet_src/unit</text>
<text text-anchor="start" x="222" y="-408.9" font-family="Helvetica,sans-Serif" font-size="12.00" fill="#000000">_tests/testEvolve/PolynomialEvolution</text>
<text text-anchor="middle" x="324" y="-395.9" font-family="Helvetica,sans-Serif" font-size="12.00" fill="#000000">Zone.h</text>
</g>
<!-- Node40 -->
<g id="node2" class="node">
<title>Node40</title>
<g id="a_node2"><a xlink:href="ConstPhaseLagZone_8h.html" target="_top" xlink:title="Declare a dissipative zone class with polynomial evolution with a constant phase lag. ">
<polygon fill="#ffffff" stroke="#000000" points="0,-291.5 0,-351.5 196,-351.5 196,-291.5 0,-291.5"/>
<text text-anchor="start" x="8" y="-337.9" font-family="Helvetica,sans-Serif" font-size="12.00" fill="#000000">/home/kpenev/projects</text>
<text text-anchor="start" x="8" y="-324.9" font-family="Helvetica,sans-Serif" font-size="12.00" fill="#000000">/git/poet/poet_src/unit</text>
<text text-anchor="start" x="8" y="-311.9" font-family="Helvetica,sans-Serif" font-size="12.00" fill="#000000">_tests/testEvolve/ConstPhaseLag</text>
<text text-anchor="middle" x="98" y="-298.9" font-family="Helvetica,sans-Serif" font-size="12.00" fill="#000000">Zone.h</text>
</a>
</g>
</g>
<!-- Node39&#45;&gt;Node40 -->
<g id="edge1" class="edge">
<title>Node39&#45;&gt;Node40</title>
<path fill="none" stroke="#191970" d="M244.6033,-384.4226C219.6438,-373.71 192.2783,-361.9646 168.0186,-351.5522"/>
<polygon fill="#191970" stroke="#191970" points="243.4701,-387.745 254.0399,-388.4729 246.231,-381.3125 243.4701,-387.745"/>
</g>
<!-- Node44 -->
<g id="node6" class="node">
<title>Node44</title>
<g id="a_node6"><a xlink:href="PolynomialEvolutionZone_8cpp.html" target="_top" xlink:title="Define the non&#45;inlnine methods of PolynomialEvolutionZone. ">
<polygon fill="#ffffff" stroke="#000000" points="214,-291.5 214,-351.5 434,-351.5 434,-291.5 214,-291.5"/>
<text text-anchor="start" x="222" y="-337.9" font-family="Helvetica,sans-Serif" font-size="12.00" fill="#000000">/home/kpenev/projects</text>
<text text-anchor="start" x="222" y="-324.9" font-family="Helvetica,sans-Serif" font-size="12.00" fill="#000000">/git/poet/poet_src/unit</text>
<text text-anchor="start" x="222" y="-311.9" font-family="Helvetica,sans-Serif" font-size="12.00" fill="#000000">_tests/testEvolve/PolynomialEvolution</text>
<text text-anchor="middle" x="324" y="-298.9" font-family="Helvetica,sans-Serif" font-size="12.00" fill="#000000">Zone.cpp</text>
</a>
</g>
</g>
<!-- Node39&#45;&gt;Node44 -->
<g id="edge5" class="edge">
<title>Node39&#45;&gt;Node44</title>
<path fill="none" stroke="#191970" d="M324,-378.1653C324,-369.2876 324,-360.0341 324,-351.641"/>
<polygon fill="#191970" stroke="#191970" points="320.5001,-378.3403 324,-388.3403 327.5001,-378.3403 320.5001,-378.3403"/>
</g>
<!-- Node45 -->
<g id="node7" class="node">
<title>Node45</title>
<g id="a_node7"><a xlink:href="SingleTidalTermZone_8h.html" target="_top" xlink:title="Declare a dissipative zone class with polynomial evolution with only a single tidel term having non&#45;z...">
<polygon fill="#ffffff" stroke="#000000" points="452.5,-291.5 452.5,-351.5 651.5,-351.5 651.5,-291.5 452.5,-291.5"/>
<text text-anchor="start" x="460.5" y="-337.9" font-family="Helvetica,sans-Serif" font-size="12.00" fill="#000000">/home/kpenev/projects</text>
<text text-anchor="start" x="460.5" y="-324.9" font-family="Helvetica,sans-Serif" font-size="12.00" fill="#000000">/git/poet/poet_src/unit</text>
<text text-anchor="start" x="460.5" y="-311.9" font-family="Helvetica,sans-Serif" font-size="12.00" fill="#000000">_tests/testEvolve/SingleTidalTerm</text>
<text text-anchor="middle" x="552" y="-298.9" font-family="Helvetica,sans-Serif" font-size="12.00" fill="#000000">Zone.h</text>
</a>
</g>
</g>
<!-- Node39&#45;&gt;Node45 -->
<g id="edge6" class="edge">
<title>Node39&#45;&gt;Node45</title>
<path fill="none" stroke="#191970" d="M404.0994,-384.4226C429.2797,-373.71 456.8874,-361.9646 481.3618,-351.5522"/>
<polygon fill="#191970" stroke="#191970" points="402.4109,-381.3373 394.5792,-388.4729 405.1513,-387.7787 402.4109,-381.3373"/>
</g>
<!-- Node41 -->
<g id="node3" class="node">
<title>Node41</title>
<g id="a_node3"><a xlink:href="testTidalTorquePower_8h.html" target="_top" xlink:title="Declare a unit tests class that check the calculations of tidal torque and power. ...">
<polygon fill="#ffffff" stroke="#000000" points="61,-194.5 61,-254.5 255,-254.5 255,-194.5 61,-194.5"/>
<text text-anchor="start" x="69" y="-240.9" font-family="Helvetica,sans-Serif" font-size="12.00" fill="#000000">/home/kpenev/projects</text>
<text text-anchor="start" x="69" y="-227.9" font-family="Helvetica,sans-Serif" font-size="12.00" fill="#000000">/git/poet/poet_src/unit</text>
<text text-anchor="start" x="69" y="-214.9" font-family="Helvetica,sans-Serif" font-size="12.00" fill="#000000">_tests/testEvolve/testTidalTorque</text>
<text text-anchor="middle" x="158" y="-201.9" font-family="Helvetica,sans-Serif" font-size="12.00" fill="#000000">Power.h</text>
</a>
</g>
</g>
<!-- Node40&#45;&gt;Node41 -->
<g id="edge2" class="edge">
<title>Node40&#45;&gt;Node41</title>
<path fill="none" stroke="#191970" d="M122.0561,-282.6093C127.8169,-273.296 133.8823,-263.4902 139.3561,-254.641"/>
<polygon fill="#191970" stroke="#191970" points="118.9395,-280.9946 116.6555,-291.3403 124.8926,-284.677 118.9395,-280.9946"/>
</g>
<!-- Node42 -->
<g id="node4" class="node">
<title>Node42</title>
<g id="a_node4"><a xlink:href="testEvolve_8cpp_source.html" target="_top" xlink:title="/home/kpenev/projects\l/git/poet/poet_src/unit\l_tests/testEvolve/testEvolve.cpp">
<polygon fill="#ffffff" stroke="#000000" points="143,-7 143,-54 331,-54 331,-7 143,-7"/>
<text text-anchor="start" x="151" y="-40.4" font-family="Helvetica,sans-Serif" font-size="12.00" fill="#000000">/home/kpenev/projects</text>
<text text-anchor="start" x="151" y="-27.4" font-family="Helvetica,sans-Serif" font-size="12.00" fill="#000000">/git/poet/poet_src/unit</text>
<text text-anchor="middle" x="237" y="-14.4" font-family="Helvetica,sans-Serif" font-size="12.00" fill="#000000">_tests/testEvolve/testEvolve.cpp</text>
</a>
</g>
</g>
<!-- Node41&#45;&gt;Node42 -->
<g id="edge3" class="edge">
<title>Node41&#45;&gt;Node42</title>
<path fill="none" stroke="#191970" d="M158.0812,-184.2352C159.5315,-158.2405 164.1124,-124.3045 177,-97 184.6329,-80.8285 197.5159,-65.7666 209.3919,-54.0807"/>
<polygon fill="#191970" stroke="#191970" points="154.5733,-184.35 157.6466,-194.4893 161.567,-184.6465 154.5733,-184.35"/>
</g>
<!-- Node43 -->
<g id="node5" class="node">
<title>Node43</title>
<g id="a_node5"><a xlink:href="testTidalTorquePower_8cpp.html" target="_top" xlink:title="Define the non&#45;inline methods of test_TidalTorquePower and actually run the tests if compiled in stan...">
<polygon fill="#ffffff" stroke="#000000" points="186,-97.5 186,-157.5 380,-157.5 380,-97.5 186,-97.5"/>
<text text-anchor="start" x="194" y="-143.9" font-family="Helvetica,sans-Serif" font-size="12.00" fill="#000000">/home/kpenev/projects</text>
<text text-anchor="start" x="194" y="-130.9" font-family="Helvetica,sans-Serif" font-size="12.00" fill="#000000">/git/poet/poet_src/unit</text>
<text text-anchor="start" x="194" y="-117.9" font-family="Helvetica,sans-Serif" font-size="12.00" fill="#000000">_tests/testEvolve/testTidalTorque</text>
<text text-anchor="middle" x="283" y="-104.9" font-family="Helvetica,sans-Serif" font-size="12.00" fill="#000000">Power.cpp</text>
</a>
</g>
</g>
<!-- Node41&#45;&gt;Node43 -->
<g id="edge4" class="edge">
<title>Node41&#45;&gt;Node43</title>
<path fill="none" stroke="#191970" d="M204.7941,-188.1878C217.7631,-178.1238 231.6968,-167.3113 244.1585,-157.641"/>
<polygon fill="#191970" stroke="#191970" points="202.6202,-185.4445 196.8656,-194.3403 206.9117,-190.9747 202.6202,-185.4445"/>
</g>
<!-- Node46 -->
<g id="node8" class="node">
<title>Node46</title>
<g id="a_node8"><a xlink:href="SingleTidalTermBody_8h.html" target="_top" xlink:title="Declare a dissipative body class with a single SingleTidalTermZone. ">
<polygon fill="#ffffff" stroke="#000000" points="436.5,-194.5 436.5,-254.5 635.5,-254.5 635.5,-194.5 436.5,-194.5"/>
<text text-anchor="start" x="444.5" y="-240.9" font-family="Helvetica,sans-Serif" font-size="12.00" fill="#000000">/home/kpenev/projects</text>
<text text-anchor="start" x="444.5" y="-227.9" font-family="Helvetica,sans-Serif" font-size="12.00" fill="#000000">/git/poet/poet_src/unit</text>
<text text-anchor="start" x="444.5" y="-214.9" font-family="Helvetica,sans-Serif" font-size="12.00" fill="#000000">_tests/testEvolve/SingleTidalTerm</text>
<text text-anchor="middle" x="536" y="-201.9" font-family="Helvetica,sans-Serif" font-size="12.00" fill="#000000">Body.h</text>
</a>
</g>
</g>
<!-- Node45&#45;&gt;Node46 -->
<g id="edge7" class="edge">
<title>Node45&#45;&gt;Node46</title>
<path fill="none" stroke="#191970" d="M545.3946,-281.4547C543.9157,-272.4889 542.3712,-263.1253 540.9717,-254.641"/>
<polygon fill="#191970" stroke="#191970" points="541.9443,-282.0433 547.0252,-291.3403 548.851,-280.904 541.9443,-282.0433"/>
</g>
<!-- Node47 -->
<g id="node9" class="node">
<title>Node47</title>
<g id="a_node9"><a xlink:href="testDifferentialEquations_8h.html" target="_top" xlink:title="Unit tests that check the differential equations for eccentricity and semimajor against analytic expr...">
<polygon fill="#ffffff" stroke="#000000" points="428,-97.5 428,-157.5 614,-157.5 614,-97.5 428,-97.5"/>
<text text-anchor="start" x="436" y="-143.9" font-family="Helvetica,sans-Serif" font-size="12.00" fill="#000000">/home/kpenev/projects</text>
<text text-anchor="start" x="436" y="-130.9" font-family="Helvetica,sans-Serif" font-size="12.00" fill="#000000">/git/poet/poet_src/unit</text>
<text text-anchor="start" x="436" y="-117.9" font-family="Helvetica,sans-Serif" font-size="12.00" fill="#000000">_tests/testEvolve/testDifferential</text>
<text text-anchor="middle" x="521" y="-104.9" font-family="Helvetica,sans-Serif" font-size="12.00" fill="#000000">Equations.h</text>
</a>
</g>
</g>
<!-- Node46&#45;&gt;Node47 -->
<g id="edge8" class="edge">
<title>Node46&#45;&gt;Node47</title>
<path fill="none" stroke="#191970" d="M529.8074,-184.4547C528.421,-175.4889 526.973,-166.1253 525.661,-157.641"/>
<polygon fill="#191970" stroke="#191970" points="526.3489,-184.9927 531.3361,-194.3403 533.2667,-183.9229 526.3489,-184.9927"/>
</g>
<!-- Node47&#45;&gt;Node42 -->
<g id="edge10" class="edge">
<title>Node47&#45;&gt;Node42</title>
<path fill="none" stroke="#191970" d="M423.3813,-94.1584C384.7672,-80.9698 341.2853,-66.1186 306.0381,-54.0799"/>
<polygon fill="#191970" stroke="#191970" points="422.491,-97.5528 433.0856,-97.4729 424.7536,-90.9285 422.491,-97.5528"/>
</g>
<!-- Node48 -->
<g id="node10" class="node">
<title>Node48</title>
<g id="a_node10"><a xlink:href="testDifferentialEquations_8cpp.html" target="_top" xlink:title="Implement the non&#45;inline methods of test_DifferentialEquations. ">
<polygon fill="#ffffff" stroke="#000000" points="428,-.5 428,-60.5 614,-60.5 614,-.5 428,-.5"/>
<text text-anchor="start" x="436" y="-46.9" font-family="Helvetica,sans-Serif" font-size="12.00" fill="#000000">/home/kpenev/projects</text>
<text text-anchor="start" x="436" y="-33.9" font-family="Helvetica,sans-Serif" font-size="12.00" fill="#000000">/git/poet/poet_src/unit</text>
<text text-anchor="start" x="436" y="-20.9" font-family="Helvetica,sans-Serif" font-size="12.00" fill="#000000">_tests/testEvolve/testDifferential</text>
<text text-anchor="middle" x="521" y="-7.9" font-family="Helvetica,sans-Serif" font-size="12.00" fill="#000000">Equations.cpp</text>
</a>
</g>
</g>
<!-- Node47&#45;&gt;Node48 -->
<g id="edge9" class="edge">
<title>Node47&#45;&gt;Node48</title>
<path fill="none" stroke="#191970" d="M521,-87.1653C521,-78.2876 521,-69.0341 521,-60.641"/>
<polygon fill="#191970" stroke="#191970" points="517.5001,-87.3403 521,-97.3403 524.5001,-87.3403 517.5001,-87.3403"/>
</g>
</g>
</svg>
