<?xml version="1.0" encoding="UTF-8" standalone="no"?>
<!DOCTYPE svg PUBLIC "-//W3C//DTD SVG 1.1//EN"
 "http://www.w3.org/Graphics/SVG/1.1/DTD/svg11.dtd">
<!-- Generated by graphviz version 2.40.1 (20161225.0304)
 -->
<!-- Title: /Users/kpenev/projects/git/poet/poet_src/unit_tests/testEvolve/PolynomialEvolutionZone.h Pages: 1 -->
<svg width="654pt" height="437pt"
 viewBox="0.00 0.00 653.54 437.00" xmlns="http://www.w3.org/2000/svg" xmlns:xlink="http://www.w3.org/1999/xlink">
<g id="graph0" class="graph" transform="scale(1 1) rotate(0) translate(4 433)">
<title>/Users/kpenev/projects/git/poet/poet_src/unit_tests/testEvolve/PolynomialEvolutionZone.h</title>
<polygon fill="#ffffff" stroke="transparent" points="-4,4 -4,-433 649.5371,-433 649.5371,4 -4,4"/>
<!-- Node37 -->
<g id="node1" class="node">
<title>Node37</title>
<polygon fill="#bfbfbf" stroke="#000000" points="213.668,-372.5 213.668,-428.5 431.7695,-428.5 431.7695,-372.5 213.668,-372.5"/>
<text text-anchor="start" x="221.668" y="-414.9" font-family="Helvetica,sans-Serif" font-size="12.00" fill="#000000">/Users/kpenev/projects</text>
<text text-anchor="start" x="221.668" y="-402.9" font-family="Helvetica,sans-Serif" font-size="12.00" fill="#000000">/git/poet/poet_src/unit</text>
<text text-anchor="start" x="221.668" y="-390.9" font-family="Helvetica,sans-Serif" font-size="12.00" fill="#000000">_tests/testEvolve/PolynomialEvolution</text>
<text text-anchor="middle" x="322.7188" y="-378.9" font-family="Helvetica,sans-Serif" font-size="12.00" fill="#000000">Zone.h</text>
</g>
<!-- Node38 -->
<g id="node2" class="node">
<title>Node38</title>
<g id="a_node2"><a xlink:href="ConstPhaseLagZone_8h.html" target="_top" xlink:title="Declare a dissipative zone class with polynomial evolution with a constant phase lag. ">
<polygon fill="#ffffff" stroke="#000000" points="0,-279.5 0,-335.5 195.4375,-335.5 195.4375,-279.5 0,-279.5"/>
<text text-anchor="start" x="8" y="-321.9" font-family="Helvetica,sans-Serif" font-size="12.00" fill="#000000">/Users/kpenev/projects</text>
<text text-anchor="start" x="8" y="-309.9" font-family="Helvetica,sans-Serif" font-size="12.00" fill="#000000">/git/poet/poet_src/unit</text>
<text text-anchor="start" x="8" y="-297.9" font-family="Helvetica,sans-Serif" font-size="12.00" fill="#000000">_tests/testEvolve/ConstPhaseLag</text>
<text text-anchor="middle" x="97.7188" y="-285.9" font-family="Helvetica,sans-Serif" font-size="12.00" fill="#000000">Zone.h</text>
</a>
</g>
</g>
<!-- Node37&#45;&gt;Node38 -->
<g id="edge1" class="edge">
<title>Node37&#45;&gt;Node38</title>
<path fill="none" stroke="#191970" d="M245.5016,-368.5836C219.6021,-357.8784 190.9267,-346.0259 165.7807,-335.6323"/>
<polygon fill="#191970" stroke="#191970" points="244.3275,-371.8855 254.9062,-372.4708 247.0015,-365.4163 244.3275,-371.8855"/>
</g>
<!-- Node42 -->
<g id="node6" class="node">
<title>Node42</title>
<g id="a_node6"><a xlink:href="PolynomialEvolutionZone_8cpp.html" target="_top" xlink:title="Define the non&#45;inlnine methods of PolynomialEvolutionZone. ">
<polygon fill="#ffffff" stroke="#000000" points="213.668,-279.5 213.668,-335.5 431.7695,-335.5 431.7695,-279.5 213.668,-279.5"/>
<text text-anchor="start" x="221.668" y="-321.9" font-family="Helvetica,sans-Serif" font-size="12.00" fill="#000000">/Users/kpenev/projects</text>
<text text-anchor="start" x="221.668" y="-309.9" font-family="Helvetica,sans-Serif" font-size="12.00" fill="#000000">/git/poet/poet_src/unit</text>
<text text-anchor="start" x="221.668" y="-297.9" font-family="Helvetica,sans-Serif" font-size="12.00" fill="#000000">_tests/testEvolve/PolynomialEvolution</text>
<text text-anchor="middle" x="322.7188" y="-285.9" font-family="Helvetica,sans-Serif" font-size="12.00" fill="#000000">Zone.cpp</text>
</a>
</g>
</g>
<!-- Node37&#45;&gt;Node42 -->
<g id="edge5" class="edge">
<title>Node37&#45;&gt;Node42</title>
<path fill="none" stroke="#191970" d="M322.7188,-362.1582C322.7188,-353.2499 322.7188,-343.9293 322.7188,-335.5597"/>
<polygon fill="#191970" stroke="#191970" points="319.2188,-362.3445 322.7188,-372.3446 326.2188,-362.3446 319.2188,-362.3445"/>
</g>
<!-- Node43 -->
<g id="node7" class="node">
<title>Node43</title>
<g id="a_node7"><a xlink:href="SingleTidalTermZone_8h.html" target="_top" xlink:title="Declare a dissipative zone class with polynomial evolution with only a single tidel term having non&#45;z...">
<polygon fill="#ffffff" stroke="#000000" points="449.9004,-279.5 449.9004,-335.5 645.5371,-335.5 645.5371,-279.5 449.9004,-279.5"/>
<text text-anchor="start" x="457.9004" y="-321.9" font-family="Helvetica,sans-Serif" font-size="12.00" fill="#000000">/Users/kpenev/projects</text>
<text text-anchor="start" x="457.9004" y="-309.9" font-family="Helvetica,sans-Serif" font-size="12.00" fill="#000000">/git/poet/poet_src/unit</text>
<text text-anchor="start" x="457.9004" y="-297.9" font-family="Helvetica,sans-Serif" font-size="12.00" fill="#000000">_tests/testEvolve/SingleTidalTerm</text>
<text text-anchor="middle" x="547.7188" y="-285.9" font-family="Helvetica,sans-Serif" font-size="12.00" fill="#000000">Zone.h</text>
</a>
</g>
</g>
<!-- Node37&#45;&gt;Node43 -->
<g id="edge6" class="edge">
<title>Node37&#45;&gt;Node43</title>
<path fill="none" stroke="#191970" d="M399.9359,-368.5836C425.8354,-357.8784 454.5108,-346.0259 479.6568,-335.6323"/>
<polygon fill="#191970" stroke="#191970" points="398.436,-365.4163 390.5313,-372.4708 401.11,-371.8855 398.436,-365.4163"/>
</g>
<!-- Node39 -->
<g id="node3" class="node">
<title>Node39</title>
<g id="a_node3"><a xlink:href="testTidalTorquePower_8h.html" target="_top" xlink:title="Declare a unit tests class that check the calculations of tidal torque and power. ...">
<polygon fill="#ffffff" stroke="#000000" points="60.8955,-186.5 60.8955,-242.5 252.542,-242.5 252.542,-186.5 60.8955,-186.5"/>
<text text-anchor="start" x="68.8955" y="-228.9" font-family="Helvetica,sans-Serif" font-size="12.00" fill="#000000">/Users/kpenev/projects</text>
<text text-anchor="start" x="68.8955" y="-216.9" font-family="Helvetica,sans-Serif" font-size="12.00" fill="#000000">/git/poet/poet_src/unit</text>
<text text-anchor="start" x="68.8955" y="-204.9" font-family="Helvetica,sans-Serif" font-size="12.00" fill="#000000">_tests/testEvolve/testTidalTorque</text>
<text text-anchor="middle" x="156.7188" y="-192.9" font-family="Helvetica,sans-Serif" font-size="12.00" fill="#000000">Power.h</text>
</a>
</g>
</g>
<!-- Node38&#45;&gt;Node39 -->
<g id="edge2" class="edge">
<title>Node38&#45;&gt;Node39</title>
<path fill="none" stroke="#191970" d="M120.941,-270.8954C126.9208,-261.4697 133.2614,-251.4751 138.9174,-242.5597"/>
<polygon fill="#191970" stroke="#191970" points="117.9824,-269.0255 115.5808,-279.3446 123.8933,-272.7754 117.9824,-269.0255"/>
</g>
<!-- Node40 -->
<g id="node4" class="node">
<title>Node40</title>
<g id="a_node4"><a xlink:href="testEvolve_8cpp_source.html" target="_top" xlink:title="/Users/kpenev/projects\l/git/poet/poet_src/unit\l_tests/testEvolve/testEvolve.cpp">
<polygon fill="#ffffff" stroke="#000000" points="140.6768,-6.5 140.6768,-50.5 328.7607,-50.5 328.7607,-6.5 140.6768,-6.5"/>
<text text-anchor="start" x="148.6768" y="-36.9" font-family="Helvetica,sans-Serif" font-size="12.00" fill="#000000">/Users/kpenev/projects</text>
<text text-anchor="start" x="148.6768" y="-24.9" font-family="Helvetica,sans-Serif" font-size="12.00" fill="#000000">/git/poet/poet_src/unit</text>
<text text-anchor="middle" x="234.7188" y="-12.9" font-family="Helvetica,sans-Serif" font-size="12.00" fill="#000000">_tests/testEvolve/testEvolve.cpp</text>
</a>
</g>
</g>
<!-- Node39&#45;&gt;Node40 -->
<g id="edge3" class="edge">
<title>Node39&#45;&gt;Node40</title>
<path fill="none" stroke="#191970" d="M157.0812,-176.0015C158.6497,-151.2258 163.2567,-118.9301 175.7188,-93 183.4101,-76.9963 196.3949,-62.1484 208.228,-50.7426"/>
<polygon fill="#191970" stroke="#191970" points="153.5792,-175.9581 156.581,-186.1188 160.5707,-176.3039 153.5792,-175.9581"/>
</g>
<!-- Node41 -->
<g id="node5" class="node">
<title>Node41</title>
<g id="a_node5"><a xlink:href="testTidalTorquePower_8cpp.html" target="_top" xlink:title="Define the non&#45;inline methods of test_TidalTorquePower and actually run the tests if compiled in stan...">
<polygon fill="#ffffff" stroke="#000000" points="184.8955,-93.5 184.8955,-149.5 376.542,-149.5 376.542,-93.5 184.8955,-93.5"/>
<text text-anchor="start" x="192.8955" y="-135.9" font-family="Helvetica,sans-Serif" font-size="12.00" fill="#000000">/Users/kpenev/projects</text>
<text text-anchor="start" x="192.8955" y="-123.9" font-family="Helvetica,sans-Serif" font-size="12.00" fill="#000000">/git/poet/poet_src/unit</text>
<text text-anchor="start" x="192.8955" y="-111.9" font-family="Helvetica,sans-Serif" font-size="12.00" fill="#000000">_tests/testEvolve/testTidalTorque</text>
<text text-anchor="middle" x="280.7188" y="-99.9" font-family="Helvetica,sans-Serif" font-size="12.00" fill="#000000">Power.cpp</text>
</a>
</g>
</g>
<!-- Node39&#45;&gt;Node41 -->
<g id="edge4" class="edge">
<title>Node39&#45;&gt;Node41</title>
<path fill="none" stroke="#191970" d="M202.4634,-180.1915C215.9072,-170.1086 230.4482,-159.2029 243.3058,-149.5597"/>
<polygon fill="#191970" stroke="#191970" points="200.1594,-177.5445 194.2593,-186.3446 204.3594,-183.1445 200.1594,-177.5445"/>
</g>
<!-- Node44 -->
<g id="node8" class="node">
<title>Node44</title>
<g id="a_node8"><a xlink:href="SingleTidalTermBody_8h.html" target="_top" xlink:title="Declare a dissipative body class with a single SingleTidalTermZone. ">
<polygon fill="#ffffff" stroke="#000000" points="434.9004,-186.5 434.9004,-242.5 630.5371,-242.5 630.5371,-186.5 434.9004,-186.5"/>
<text text-anchor="start" x="442.9004" y="-228.9" font-family="Helvetica,sans-Serif" font-size="12.00" fill="#000000">/Users/kpenev/projects</text>
<text text-anchor="start" x="442.9004" y="-216.9" font-family="Helvetica,sans-Serif" font-size="12.00" fill="#000000">/git/poet/poet_src/unit</text>
<text text-anchor="start" x="442.9004" y="-204.9" font-family="Helvetica,sans-Serif" font-size="12.00" fill="#000000">_tests/testEvolve/SingleTidalTerm</text>
<text text-anchor="middle" x="532.7188" y="-192.9" font-family="Helvetica,sans-Serif" font-size="12.00" fill="#000000">Body.h</text>
</a>
</g>
</g>
<!-- Node43&#45;&gt;Node44 -->
<g id="edge7" class="edge">
<title>Node43&#45;&gt;Node44</title>
<path fill="none" stroke="#191970" d="M541.5814,-269.4485C540.1305,-260.4526 538.6091,-251.0203 537.2445,-242.5597"/>
<polygon fill="#191970" stroke="#191970" points="538.1298,-270.0295 543.1775,-279.3446 545.0405,-268.9148 538.1298,-270.0295"/>
</g>
<!-- Node45 -->
<g id="node9" class="node">
<title>Node45</title>
<g id="a_node9"><a xlink:href="testDifferentialEquations_8h.html" target="_top" xlink:title="Unit tests that check the differential equations for eccentricity and semimajor against analytic expr...">
<polygon fill="#ffffff" stroke="#000000" points="424.4531,-93.5 424.4531,-149.5 610.9844,-149.5 610.9844,-93.5 424.4531,-93.5"/>
<text text-anchor="start" x="432.4531" y="-135.9" font-family="Helvetica,sans-Serif" font-size="12.00" fill="#000000">/Users/kpenev/projects</text>
<text text-anchor="start" x="432.4531" y="-123.9" font-family="Helvetica,sans-Serif" font-size="12.00" fill="#000000">/git/poet/poet_src/unit</text>
<text text-anchor="start" x="432.4531" y="-111.9" font-family="Helvetica,sans-Serif" font-size="12.00" fill="#000000">_tests/testEvolve/testDifferential</text>
<text text-anchor="middle" x="517.7188" y="-99.9" font-family="Helvetica,sans-Serif" font-size="12.00" fill="#000000">Equations.h</text>
</a>
</g>
</g>
<!-- Node44&#45;&gt;Node45 -->
<g id="edge8" class="edge">
<title>Node44&#45;&gt;Node45</title>
<path fill="none" stroke="#191970" d="M526.5814,-176.4485C525.1305,-167.4526 523.6091,-158.0203 522.2445,-149.5597"/>
<polygon fill="#191970" stroke="#191970" points="523.1298,-177.0295 528.1775,-186.3446 530.0405,-175.9148 523.1298,-177.0295"/>
</g>
<!-- Node45&#45;&gt;Node40 -->
<g id="edge10" class="edge">
<title>Node45&#45;&gt;Node40</title>
<path fill="none" stroke="#191970" d="M422.7396,-90.2878C383.0967,-77.2602 337.9721,-62.4313 301.8678,-50.5666"/>
<polygon fill="#191970" stroke="#191970" points="421.8328,-93.6738 432.4256,-93.4708 424.0182,-87.0237 421.8328,-93.6738"/>
</g>
<!-- Node46 -->
<g id="node10" class="node">
<title>Node46</title>
<g id="a_node10"><a xlink:href="testDifferentialEquations_8cpp.html" target="_top" xlink:title="Implement the non&#45;inline methods of test_DifferentialEquations. ">
<polygon fill="#ffffff" stroke="#000000" points="424.4531,-.5 424.4531,-56.5 610.9844,-56.5 610.9844,-.5 424.4531,-.5"/>
<text text-anchor="start" x="432.4531" y="-42.9" font-family="Helvetica,sans-Serif" font-size="12.00" fill="#000000">/Users/kpenev/projects</text>
<text text-anchor="start" x="432.4531" y="-30.9" font-family="Helvetica,sans-Serif" font-size="12.00" fill="#000000">/git/poet/poet_src/unit</text>
<text text-anchor="start" x="432.4531" y="-18.9" font-family="Helvetica,sans-Serif" font-size="12.00" fill="#000000">_tests/testEvolve/testDifferential</text>
<text text-anchor="middle" x="517.7188" y="-6.9" font-family="Helvetica,sans-Serif" font-size="12.00" fill="#000000">Equations.cpp</text>
</a>
</g>
</g>
<!-- Node45&#45;&gt;Node46 -->
<g id="edge9" class="edge">
<title>Node45&#45;&gt;Node46</title>
<path fill="none" stroke="#191970" d="M517.7188,-83.1582C517.7188,-74.2499 517.7188,-64.9293 517.7188,-56.5597"/>
<polygon fill="#191970" stroke="#191970" points="514.2188,-83.3445 517.7188,-93.3446 521.2188,-83.3446 514.2188,-83.3445"/>
</g>
</g>
</svg>
