<?xml version="1.0" encoding="UTF-8" standalone="no"?>
<!DOCTYPE svg PUBLIC "-//W3C//DTD SVG 1.1//EN"
 "http://www.w3.org/Graphics/SVG/1.1/DTD/svg11.dtd">
<!-- Generated by graphviz version 2.40.1 (20161225.0304)
 -->
<!-- Title: /Users/kpenev/projects/git/poet/poet_src/unit_tests/testEvolve/RealEvolutionQuantity.h Pages: 1 -->
<svg width="572pt" height="308pt"
 viewBox="0.00 0.00 571.88 308.00" xmlns="http://www.w3.org/2000/svg" xmlns:xlink="http://www.w3.org/1999/xlink">
<g id="graph0" class="graph" transform="scale(1 1) rotate(0) translate(4 304)">
<title>/Users/kpenev/projects/git/poet/poet_src/unit_tests/testEvolve/RealEvolutionQuantity.h</title>
<polygon fill="#ffffff" stroke="transparent" points="-4,4 -4,-304 567.8779,-304 567.8779,4 -4,4"/>
<!-- Node1 -->
<g id="node1" class="node">
<title>Node1</title>
<polygon fill="#bfbfbf" stroke="#000000" points="181.998,-243.5 181.998,-299.5 366.0859,-299.5 366.0859,-243.5 181.998,-243.5"/>
<text text-anchor="start" x="189.998" y="-285.9" font-family="Helvetica,sans-Serif" font-size="12.00" fill="#000000">/Users/kpenev/projects</text>
<text text-anchor="start" x="189.998" y="-273.9" font-family="Helvetica,sans-Serif" font-size="12.00" fill="#000000">/git/poet/poet_src/unit</text>
<text text-anchor="start" x="189.998" y="-261.9" font-family="Helvetica,sans-Serif" font-size="12.00" fill="#000000">_tests/testEvolve/RealEvolution</text>
<text text-anchor="middle" x="274.042" y="-249.9" font-family="Helvetica,sans-Serif" font-size="12.00" fill="#000000">Quantity.h</text>
</g>
<!-- Node2 -->
<g id="node2" class="node">
<title>Node2</title>
<g id="a_node2"><a xlink:href="TransformedSolution_8h.html" target="_top" xlink:title="Declare a class that transforms an orbital solution before checking. ">
<polygon fill="#ffffff" stroke="#000000" points="230.543,-162.5 230.543,-206.5 461.541,-206.5 461.541,-162.5 230.543,-162.5"/>
<text text-anchor="start" x="238.543" y="-192.9" font-family="Helvetica,sans-Serif" font-size="12.00" fill="#000000">/Users/kpenev/projects</text>
<text text-anchor="start" x="238.543" y="-180.9" font-family="Helvetica,sans-Serif" font-size="12.00" fill="#000000">/git/poet/poet_src/unit</text>
<text text-anchor="middle" x="346.042" y="-168.9" font-family="Helvetica,sans-Serif" font-size="12.00" fill="#000000">_tests/testEvolve/TransformedSolution.h</text>
</a>
</g>
</g>
<!-- Node1&#45;&gt;Node2 -->
<g id="edge1" class="edge">
<title>Node1&#45;&gt;Node2</title>
<path fill="none" stroke="#191970" d="M303.627,-235.7515C311.7793,-225.9008 320.3851,-215.5021 327.6987,-206.6648"/>
<polygon fill="#191970" stroke="#191970" points="300.8989,-233.5583 297.2196,-243.4938 306.2917,-238.0213 300.8989,-233.5583"/>
</g>
<!-- Node3 -->
<g id="node3" class="node">
<title>Node3</title>
<g id="a_node3"><a xlink:href="testOrbitSolver_8h.html" target="_top" xlink:title="Declares the test suite that exercises the OrbitSolver class and some other clasess necessary to acco...">
<polygon fill="#ffffff" stroke="#000000" points="103.665,-81.5 103.665,-125.5 302.4189,-125.5 302.4189,-81.5 103.665,-81.5"/>
<text text-anchor="start" x="111.665" y="-111.9" font-family="Helvetica,sans-Serif" font-size="12.00" fill="#000000">/Users/kpenev/projects</text>
<text text-anchor="start" x="111.665" y="-99.9" font-family="Helvetica,sans-Serif" font-size="12.00" fill="#000000">/git/poet/poet_src/unit</text>
<text text-anchor="middle" x="203.042" y="-87.9" font-family="Helvetica,sans-Serif" font-size="12.00" fill="#000000">_tests/testEvolve/testOrbitSolver.h</text>
</a>
</g>
</g>
<!-- Node1&#45;&gt;Node3 -->
<g id="edge6" class="edge">
<title>Node1&#45;&gt;Node3</title>
<path fill="none" stroke="#191970" d="M239.9802,-235.6103C233.1292,-226.8016 226.6331,-217.0099 222.042,-207 210.0082,-180.7631 205.5911,-147.4871 203.9728,-125.8551"/>
<polygon fill="#191970" stroke="#191970" points="237.2977,-237.8591 246.3271,-243.4016 242.7248,-233.4379 237.2977,-237.8591"/>
</g>
<!-- Node2&#45;&gt;Node3 -->
<g id="edge2" class="edge">
<title>Node2&#45;&gt;Node3</title>
<path fill="none" stroke="#191970" d="M298.2193,-157.4116C279.9715,-147.0754 259.4043,-135.4255 242.0701,-125.6068"/>
<polygon fill="#191970" stroke="#191970" points="296.5405,-160.4831 306.9666,-162.3664 299.9905,-154.3924 296.5405,-160.4831"/>
</g>
<!-- Node6 -->
<g id="node6" class="node">
<title>Node6</title>
<g id="a_node6"><a xlink:href="TransformedSolution_8cpp_source.html" target="_top" xlink:title="/Users/kpenev/projects\l/git/poet/poet_src/unit\l_tests/testEvolve/TransformedSolution.cpp">
<polygon fill="#ffffff" stroke="#000000" points="320.2061,-81.5 320.2061,-125.5 563.8779,-125.5 563.8779,-81.5 320.2061,-81.5"/>
<text text-anchor="start" x="328.2061" y="-111.9" font-family="Helvetica,sans-Serif" font-size="12.00" fill="#000000">/Users/kpenev/projects</text>
<text text-anchor="start" x="328.2061" y="-99.9" font-family="Helvetica,sans-Serif" font-size="12.00" fill="#000000">/git/poet/poet_src/unit</text>
<text text-anchor="middle" x="442.042" y="-87.9" font-family="Helvetica,sans-Serif" font-size="12.00" fill="#000000">_tests/testEvolve/TransformedSolution.cpp</text>
</a>
</g>
</g>
<!-- Node2&#45;&gt;Node6 -->
<g id="edge5" class="edge">
<title>Node2&#45;&gt;Node6</title>
<path fill="none" stroke="#191970" d="M380.1646,-155.709C391.8968,-145.81 404.8391,-134.8899 415.8413,-125.6068"/>
<polygon fill="#191970" stroke="#191970" points="377.6603,-153.2426 372.2744,-162.3664 382.1744,-158.5927 377.6603,-153.2426"/>
</g>
<!-- Node4 -->
<g id="node4" class="node">
<title>Node4</title>
<g id="a_node4"><a xlink:href="testEvolve_8cpp_source.html" target="_top" xlink:title="/Users/kpenev/projects\l/git/poet/poet_src/unit\l_tests/testEvolve/testEvolve.cpp">
<polygon fill="#ffffff" stroke="#000000" points="0,-.5 0,-44.5 188.084,-44.5 188.084,-.5 0,-.5"/>
<text text-anchor="start" x="8" y="-30.9" font-family="Helvetica,sans-Serif" font-size="12.00" fill="#000000">/Users/kpenev/projects</text>
<text text-anchor="start" x="8" y="-18.9" font-family="Helvetica,sans-Serif" font-size="12.00" fill="#000000">/git/poet/poet_src/unit</text>
<text text-anchor="middle" x="94.042" y="-6.9" font-family="Helvetica,sans-Serif" font-size="12.00" fill="#000000">_tests/testEvolve/testEvolve.cpp</text>
</a>
</g>
</g>
<!-- Node3&#45;&gt;Node4 -->
<g id="edge3" class="edge">
<title>Node3&#45;&gt;Node4</title>
<path fill="none" stroke="#191970" d="M165.0655,-75.279C151.5437,-65.2306 136.523,-54.0685 123.7907,-44.6068"/>
<polygon fill="#191970" stroke="#191970" points="163.1432,-78.211 173.2573,-81.3664 167.3184,-72.5925 163.1432,-78.211"/>
</g>
<!-- Node5 -->
<g id="node5" class="node">
<title>Node5</title>
<g id="a_node5"><a xlink:href="testOrbitSolver_8cpp.html" target="_top" xlink:title="Defines some of the methods of the test suite that exercises the OrbitSolver class and the other clas...">
<polygon fill="#ffffff" stroke="#000000" points="206.3281,-.5 206.3281,-44.5 417.7559,-44.5 417.7559,-.5 206.3281,-.5"/>
<text text-anchor="start" x="214.3281" y="-30.9" font-family="Helvetica,sans-Serif" font-size="12.00" fill="#000000">/Users/kpenev/projects</text>
<text text-anchor="start" x="214.3281" y="-18.9" font-family="Helvetica,sans-Serif" font-size="12.00" fill="#000000">/git/poet/poet_src/unit</text>
<text text-anchor="middle" x="312.042" y="-6.9" font-family="Helvetica,sans-Serif" font-size="12.00" fill="#000000">_tests/testEvolve/testOrbitSolver.cpp</text>
</a>
</g>
</g>
<!-- Node3&#45;&gt;Node5 -->
<g id="edge4" class="edge">
<title>Node3&#45;&gt;Node5</title>
<path fill="none" stroke="#191970" d="M241.0185,-75.279C254.5403,-65.2306 269.561,-54.0685 282.2933,-44.6068"/>
<polygon fill="#191970" stroke="#191970" points="238.7655,-72.5925 232.8267,-81.3664 242.9408,-78.211 238.7655,-72.5925"/>
</g>
</g>
</svg>
