<?xml version="1.0" encoding="UTF-8" standalone="no"?>
<!DOCTYPE svg PUBLIC "-//W3C//DTD SVG 1.1//EN"
 "http://www.w3.org/Graphics/SVG/1.1/DTD/svg11.dtd">
<!-- Generated by graphviz version 2.40.1 (20161225.0304)
 -->
<!-- Title: /Users/kpenev/projects/git/poet/poet_src/unit_tests/testEvolve/SingleTidalTermZone.h Pages: 1 -->
<svg width="400pt" height="344pt"
 viewBox="0.00 0.00 400.31 344.00" xmlns="http://www.w3.org/2000/svg" xmlns:xlink="http://www.w3.org/1999/xlink">
<g id="graph0" class="graph" transform="scale(1 1) rotate(0) translate(4 340)">
<title>/Users/kpenev/projects/git/poet/poet_src/unit_tests/testEvolve/SingleTidalTermZone.h</title>
<polygon fill="#ffffff" stroke="transparent" points="-4,4 -4,-340 396.3076,-340 396.3076,4 -4,4"/>
<!-- Node38 -->
<g id="node1" class="node">
<title>Node38</title>
<polygon fill="#bfbfbf" stroke="#000000" points="97.4473,-279.5 97.4473,-335.5 293.084,-335.5 293.084,-279.5 97.4473,-279.5"/>
<text text-anchor="start" x="105.4473" y="-321.9" font-family="Helvetica,sans-Serif" font-size="12.00" fill="#000000">/Users/kpenev/projects</text>
<text text-anchor="start" x="105.4473" y="-309.9" font-family="Helvetica,sans-Serif" font-size="12.00" fill="#000000">/git/poet/poet_src/unit</text>
<text text-anchor="start" x="105.4473" y="-297.9" font-family="Helvetica,sans-Serif" font-size="12.00" fill="#000000">_tests/testEvolve/SingleTidalTerm</text>
<text text-anchor="middle" x="195.2656" y="-285.9" font-family="Helvetica,sans-Serif" font-size="12.00" fill="#000000">Zone.h</text>
</g>
<!-- Node39 -->
<g id="node2" class="node">
<title>Node39</title>
<g id="a_node2"><a xlink:href="SingleTidalTermBody_8h.html" target="_top" xlink:title="Declare a dissipative body class with a single SingleTidalTermZone. ">
<polygon fill="#ffffff" stroke="#000000" points="97.4473,-186.5 97.4473,-242.5 293.084,-242.5 293.084,-186.5 97.4473,-186.5"/>
<text text-anchor="start" x="105.4473" y="-228.9" font-family="Helvetica,sans-Serif" font-size="12.00" fill="#000000">/Users/kpenev/projects</text>
<text text-anchor="start" x="105.4473" y="-216.9" font-family="Helvetica,sans-Serif" font-size="12.00" fill="#000000">/git/poet/poet_src/unit</text>
<text text-anchor="start" x="105.4473" y="-204.9" font-family="Helvetica,sans-Serif" font-size="12.00" fill="#000000">_tests/testEvolve/SingleTidalTerm</text>
<text text-anchor="middle" x="195.2656" y="-192.9" font-family="Helvetica,sans-Serif" font-size="12.00" fill="#000000">Body.h</text>
</a>
</g>
</g>
<!-- Node38&#45;&gt;Node39 -->
<g id="edge1" class="edge">
<title>Node38&#45;&gt;Node39</title>
<path fill="none" stroke="#191970" d="M195.2656,-269.1582C195.2656,-260.2499 195.2656,-250.9293 195.2656,-242.5597"/>
<polygon fill="#191970" stroke="#191970" points="191.7657,-269.3445 195.2656,-279.3446 198.7657,-269.3446 191.7657,-269.3445"/>
</g>
<!-- Node40 -->
<g id="node3" class="node">
<title>Node40</title>
<g id="a_node3"><a xlink:href="testDifferentialEquations_8h.html" target="_top" xlink:title="Unit tests that check the differential equations for eccentricity and semimajor against analytic expr...">
<polygon fill="#ffffff" stroke="#000000" points="102,-93.5 102,-149.5 288.5313,-149.5 288.5313,-93.5 102,-93.5"/>
<text text-anchor="start" x="110" y="-135.9" font-family="Helvetica,sans-Serif" font-size="12.00" fill="#000000">/Users/kpenev/projects</text>
<text text-anchor="start" x="110" y="-123.9" font-family="Helvetica,sans-Serif" font-size="12.00" fill="#000000">/git/poet/poet_src/unit</text>
<text text-anchor="start" x="110" y="-111.9" font-family="Helvetica,sans-Serif" font-size="12.00" fill="#000000">_tests/testEvolve/testDifferential</text>
<text text-anchor="middle" x="195.2656" y="-99.9" font-family="Helvetica,sans-Serif" font-size="12.00" fill="#000000">Equations.h</text>
</a>
</g>
</g>
<!-- Node39&#45;&gt;Node40 -->
<g id="edge2" class="edge">
<title>Node39&#45;&gt;Node40</title>
<path fill="none" stroke="#191970" d="M195.2656,-176.1582C195.2656,-167.2499 195.2656,-157.9293 195.2656,-149.5597"/>
<polygon fill="#191970" stroke="#191970" points="191.7657,-176.3445 195.2656,-186.3446 198.7657,-176.3446 191.7657,-176.3445"/>
</g>
<!-- Node41 -->
<g id="node4" class="node">
<title>Node41</title>
<g id="a_node4"><a xlink:href="testDifferentialEquations_8cpp.html" target="_top" xlink:title="Implement the non&#45;inline methods of test_DifferentialEquations. ">
<polygon fill="#ffffff" stroke="#000000" points="0,-.5 0,-56.5 186.5313,-56.5 186.5313,-.5 0,-.5"/>
<text text-anchor="start" x="8" y="-42.9" font-family="Helvetica,sans-Serif" font-size="12.00" fill="#000000">/Users/kpenev/projects</text>
<text text-anchor="start" x="8" y="-30.9" font-family="Helvetica,sans-Serif" font-size="12.00" fill="#000000">/git/poet/poet_src/unit</text>
<text text-anchor="start" x="8" y="-18.9" font-family="Helvetica,sans-Serif" font-size="12.00" fill="#000000">_tests/testEvolve/testDifferential</text>
<text text-anchor="middle" x="93.2656" y="-6.9" font-family="Helvetica,sans-Serif" font-size="12.00" fill="#000000">Equations.cpp</text>
</a>
</g>
</g>
<!-- Node40&#45;&gt;Node41 -->
<g id="edge3" class="edge">
<title>Node40&#45;&gt;Node41</title>
<path fill="none" stroke="#191970" d="M156.6959,-86.3335C145.9024,-76.4923 134.3179,-65.93 124.0408,-56.5597"/>
<polygon fill="#191970" stroke="#191970" points="154.6377,-89.1933 164.3855,-93.3446 159.354,-84.0206 154.6377,-89.1933"/>
</g>
<!-- Node42 -->
<g id="node5" class="node">
<title>Node42</title>
<g id="a_node5"><a xlink:href="testEvolve_8cpp_source.html" target="_top" xlink:title="/Users/kpenev/projects\l/git/poet/poet_src/unit\l_tests/testEvolve/testEvolve.cpp">
<polygon fill="#ffffff" stroke="#000000" points="204.2236,-6.5 204.2236,-50.5 392.3076,-50.5 392.3076,-6.5 204.2236,-6.5"/>
<text text-anchor="start" x="212.2236" y="-36.9" font-family="Helvetica,sans-Serif" font-size="12.00" fill="#000000">/Users/kpenev/projects</text>
<text text-anchor="start" x="212.2236" y="-24.9" font-family="Helvetica,sans-Serif" font-size="12.00" fill="#000000">/git/poet/poet_src/unit</text>
<text text-anchor="middle" x="298.2656" y="-12.9" font-family="Helvetica,sans-Serif" font-size="12.00" fill="#000000">_tests/testEvolve/testEvolve.cpp</text>
</a>
</g>
</g>
<!-- Node40&#45;&gt;Node42 -->
<g id="edge4" class="edge">
<title>Node40&#45;&gt;Node42</title>
<path fill="none" stroke="#191970" d="M234.1057,-86.4308C247.3956,-74.4312 261.8845,-61.349 273.7254,-50.6577"/>
<polygon fill="#191970" stroke="#191970" points="231.5252,-84.0452 226.4485,-93.3446 236.2163,-89.2407 231.5252,-84.0452"/>
</g>
</g>
</svg>
