<?xml version="1.0" encoding="UTF-8" standalone="no"?>
<!DOCTYPE svg PUBLIC "-//W3C//DTD SVG 1.1//EN"
 "http://www.w3.org/Graphics/SVG/1.1/DTD/svg11.dtd">
<!-- Generated by graphviz version 2.40.1 (20161225.0304)
 -->
<!-- Title: /home/kpenev/projects/git/poet/poet_src/Star/CInterface.h Pages: 1 -->
<svg width="473pt" height="224pt"
 viewBox="0.00 0.00 473.00 224.00" xmlns="http://www.w3.org/2000/svg" xmlns:xlink="http://www.w3.org/1999/xlink">
<g id="graph0" class="graph" transform="scale(1 1) rotate(0) translate(4 220)">
<title>/home/kpenev/projects/git/poet/poet_src/Star/CInterface.h</title>
<polygon fill="#ffffff" stroke="transparent" points="-4,4 -4,-220 469,-220 469,4 -4,4"/>
<!-- Node84 -->
<g id="node1" class="node">
<title>Node84</title>
<polygon fill="#bfbfbf" stroke="#000000" points="248,-168.5 248,-215.5 385,-215.5 385,-168.5 248,-168.5"/>
<text text-anchor="start" x="256" y="-201.9" font-family="Helvetica,sans-Serif" font-size="12.00" fill="#000000">/home/kpenev/projects</text>
<text text-anchor="start" x="256" y="-188.9" font-family="Helvetica,sans-Serif" font-size="12.00" fill="#000000">/git/poet/poet_src/Star</text>
<text text-anchor="middle" x="316.5" y="-175.9" font-family="Helvetica,sans-Serif" font-size="12.00" fill="#000000">/CInterface.h</text>
</g>
<!-- Node85 -->
<g id="node2" class="node">
<title>Node85</title>
<g id="a_node2"><a xlink:href="Evolve_2CInterface_8h.html" target="_top" xlink:title="Declare C&#45;style functions for accessing the functionality of the Evolve library. ">
<polygon fill="#ffffff" stroke="#000000" points="192,-84.5 192,-131.5 339,-131.5 339,-84.5 192,-84.5"/>
<text text-anchor="start" x="200" y="-117.9" font-family="Helvetica,sans-Serif" font-size="12.00" fill="#000000">/home/kpenev/projects</text>
<text text-anchor="start" x="200" y="-104.9" font-family="Helvetica,sans-Serif" font-size="12.00" fill="#000000">/git/poet/poet_src/Evolve</text>
<text text-anchor="middle" x="265.5" y="-91.9" font-family="Helvetica,sans-Serif" font-size="12.00" fill="#000000">/CInterface.h</text>
</a>
</g>
</g>
<!-- Node84&#45;&gt;Node85 -->
<g id="edge1" class="edge">
<title>Node84&#45;&gt;Node85</title>
<path fill="none" stroke="#191970" d="M296.773,-159.5084C291.1308,-150.2154 285.0907,-140.267 279.8378,-131.6152"/>
<polygon fill="#191970" stroke="#191970" points="293.8403,-161.4222 302.0219,-168.1537 299.8238,-157.7893 293.8403,-161.4222"/>
</g>
<!-- Node88 -->
<g id="node5" class="node">
<title>Node88</title>
<g id="a_node5"><a xlink:href="Star_2CInterface_8cpp.html" target="_top" xlink:title="The definitions of the functions declared in CInterface.h. ">
<polygon fill="#ffffff" stroke="#000000" points="328,-.5 328,-47.5 465,-47.5 465,-.5 328,-.5"/>
<text text-anchor="start" x="336" y="-33.9" font-family="Helvetica,sans-Serif" font-size="12.00" fill="#000000">/home/kpenev/projects</text>
<text text-anchor="start" x="336" y="-20.9" font-family="Helvetica,sans-Serif" font-size="12.00" fill="#000000">/git/poet/poet_src/Star</text>
<text text-anchor="middle" x="396.5" y="-7.9" font-family="Helvetica,sans-Serif" font-size="12.00" fill="#000000">/CInterface.cpp</text>
</a>
</g>
</g>
<!-- Node84&#45;&gt;Node88 -->
<g id="edge5" class="edge">
<title>Node84&#45;&gt;Node88</title>
<path fill="none" stroke="#191970" d="M334.4325,-159.4C339.1378,-150.5733 344.1185,-140.9764 348.5,-132 362.4505,-103.4194 377.1043,-69.8561 386.4955,-47.8213"/>
<polygon fill="#191970" stroke="#191970" points="331.3208,-157.7966 329.6655,-168.2614 337.4854,-161.113 331.3208,-157.7966"/>
</g>
<!-- Node86 -->
<g id="node3" class="node">
<title>Node86</title>
<g id="a_node3"><a xlink:href="Evolve_2CInterface_8cpp.html" target="_top" xlink:title="The definitions of the functions declared in CInterface.h. ">
<polygon fill="#ffffff" stroke="#000000" points="0,-.5 0,-47.5 147,-47.5 147,-.5 0,-.5"/>
<text text-anchor="start" x="8" y="-33.9" font-family="Helvetica,sans-Serif" font-size="12.00" fill="#000000">/home/kpenev/projects</text>
<text text-anchor="start" x="8" y="-20.9" font-family="Helvetica,sans-Serif" font-size="12.00" fill="#000000">/git/poet/poet_src/Evolve</text>
<text text-anchor="middle" x="73.5" y="-7.9" font-family="Helvetica,sans-Serif" font-size="12.00" fill="#000000">/CInterface.cpp</text>
</a>
</g>
</g>
<!-- Node85&#45;&gt;Node86 -->
<g id="edge2" class="edge">
<title>Node85&#45;&gt;Node86</title>
<path fill="none" stroke="#191970" d="M202.5993,-80.481C178.2378,-69.8228 150.6358,-57.7469 127.225,-47.5047"/>
<polygon fill="#191970" stroke="#191970" points="201.1975,-83.6879 211.762,-84.4896 204.0033,-77.2748 201.1975,-83.6879"/>
</g>
<!-- Node87 -->
<g id="node4" class="node">
<title>Node87</title>
<g id="a_node4"><a xlink:href="Planet_2CInterface_8cpp.html" target="_top" xlink:title="The definitions of the functions declared in CInterface.h. ">
<polygon fill="#ffffff" stroke="#000000" points="165,-.5 165,-47.5 310,-47.5 310,-.5 165,-.5"/>
<text text-anchor="start" x="173" y="-33.9" font-family="Helvetica,sans-Serif" font-size="12.00" fill="#000000">/home/kpenev/projects</text>
<text text-anchor="start" x="173" y="-20.9" font-family="Helvetica,sans-Serif" font-size="12.00" fill="#000000">/git/poet/poet_src/Planet</text>
<text text-anchor="middle" x="237.5" y="-7.9" font-family="Helvetica,sans-Serif" font-size="12.00" fill="#000000">/CInterface.cpp</text>
</a>
</g>
</g>
<!-- Node85&#45;&gt;Node87 -->
<g id="edge3" class="edge">
<title>Node85&#45;&gt;Node87</title>
<path fill="none" stroke="#191970" d="M254.3815,-74.6444C251.3671,-65.6013 248.1665,-55.9994 245.3717,-47.6152"/>
<polygon fill="#191970" stroke="#191970" points="251.0685,-75.7736 257.5512,-84.1537 257.7093,-73.56 251.0685,-75.7736"/>
</g>
<!-- Node85&#45;&gt;Node88 -->
<g id="edge4" class="edge">
<title>Node85&#45;&gt;Node88</title>
<path fill="none" stroke="#191970" d="M310.9436,-78.8606C326.8011,-68.6924 344.3944,-57.4113 359.4832,-47.736"/>
<polygon fill="#191970" stroke="#191970" points="308.8682,-76.0336 302.3394,-84.3778 312.6467,-81.9262 308.8682,-76.0336"/>
</g>
</g>
</svg>
