<?xml version="1.0" encoding="UTF-8" standalone="no"?>
<!DOCTYPE svg PUBLIC "-//W3C//DTD SVG 1.1//EN"
 "http://www.w3.org/Graphics/SVG/1.1/DTD/svg11.dtd">
<!-- Generated by graphviz version 2.40.1 (20161225.0304)
 -->
<!-- Title: /home/kpenev/projects/git/poet/poet_src/Star/CInterface.cpp Pages: 1 -->
<svg width="3514pt" height="617pt"
 viewBox="0.00 0.00 3514.34 617.00" xmlns="http://www.w3.org/2000/svg" xmlns:xlink="http://www.w3.org/1999/xlink">
<g id="graph0" class="graph" transform="scale(1 1) rotate(0) translate(4 613)">
<title>/home/kpenev/projects/git/poet/poet_src/Star/CInterface.cpp</title>
<polygon fill="#ffffff" stroke="transparent" points="-4,4 -4,-613 3510.3411,-613 3510.3411,4 -4,4"/>
<!-- Node0 -->
<g id="node1" class="node">
<title>Node0</title>
<polygon fill="#bfbfbf" stroke="#000000" points="2025.4259,-561.5 2025.4259,-608.5 2162.4259,-608.5 2162.4259,-561.5 2025.4259,-561.5"/>
<text text-anchor="start" x="2033.4259" y="-594.9" font-family="Helvetica,sans-Serif" font-size="12.00" fill="#000000">/home/kpenev/projects</text>
<text text-anchor="start" x="2033.4259" y="-581.9" font-family="Helvetica,sans-Serif" font-size="12.00" fill="#000000">/git/poet/poet_src/Star</text>
<text text-anchor="middle" x="2093.9259" y="-568.9" font-family="Helvetica,sans-Serif" font-size="12.00" fill="#000000">/CInterface.cpp</text>
</g>
<!-- Node1 -->
<g id="node2" class="node">
<title>Node1</title>
<g id="a_node2"><a xlink:href="Star_2CInterface_8h.html" target="_top" xlink:title="Declare C&#45;style functions for accessing the functionality of the Star library. ">
<polygon fill="#ffffff" stroke="#000000" points="1697.4259,-445.5 1697.4259,-466.5 1778.4259,-466.5 1778.4259,-445.5 1697.4259,-445.5"/>
<text text-anchor="middle" x="1737.9259" y="-452.9" font-family="Helvetica,sans-Serif" font-size="12.00" fill="#000000">CInterface.h</text>
</a>
</g>
</g>
<!-- Node0&#45;&gt;Node1 -->
<g id="edge1" class="edge">
<title>Node0&#45;&gt;Node1</title>
<path fill="none" stroke="#191970" d="M2029.044,-561.4894C1955.3333,-534.7796 1837.4335,-492.0575 1776.7705,-470.0757"/>
<polygon fill="#191970" stroke="#191970" points="1777.7831,-466.72 1767.1889,-466.6037 1775.3982,-473.3012 1777.7831,-466.72"/>
</g>
<!-- Node85 -->
<g id="node40" class="node">
<title>Node85</title>
<g id="a_node40"><a xlink:href="Evolve_2CInterface_8h.html" target="_top" xlink:title="Declare C&#45;style functions for accessing the functionality of the Evolve library. ">
<polygon fill="#ffffff" stroke="#000000" points="2230.9259,-503.5 2230.9259,-524.5 2360.9259,-524.5 2360.9259,-503.5 2230.9259,-503.5"/>
<text text-anchor="middle" x="2295.9259" y="-510.9" font-family="Helvetica,sans-Serif" font-size="12.00" fill="#000000">../Evolve/CInterface.h</text>
</a>
</g>
</g>
<!-- Node0&#45;&gt;Node85 -->
<g id="edge97" class="edge">
<title>Node0&#45;&gt;Node85</title>
<path fill="none" stroke="#191970" d="M2160.9084,-561.4566C2192.514,-550.3478 2229.1514,-537.4702 2256.2802,-527.9349"/>
<polygon fill="#191970" stroke="#191970" points="2257.5443,-531.2005 2265.8179,-524.5825 2255.2231,-524.5966 2257.5443,-531.2005"/>
</g>
<!-- Node2 -->
<g id="node3" class="node">
<title>Node2</title>
<g id="a_node3"><a xlink:href="StellarEvolution_2CInterface_8h.html" target="_top" xlink:title="Declare C&#45;style functions for accessing the functionality of the StellarEvolution library...">
<polygon fill="#ffffff" stroke="#000000" points="893.9259,-316.5 893.9259,-350.5 1003.9259,-350.5 1003.9259,-316.5 893.9259,-316.5"/>
<text text-anchor="start" x="901.9259" y="-336.9" font-family="Helvetica,sans-Serif" font-size="12.00" fill="#000000">../StellarEvolution</text>
<text text-anchor="middle" x="948.9259" y="-323.9" font-family="Helvetica,sans-Serif" font-size="12.00" fill="#000000">/CInterface.h</text>
</a>
</g>
</g>
<!-- Node1&#45;&gt;Node2 -->
<g id="edge2" class="edge">
<title>Node1&#45;&gt;Node2</title>
<path fill="none" stroke="#191970" d="M1697.1518,-455.1085C1553.9255,-451.7351 1079.1833,-438.4222 1017.9259,-409 995.4356,-398.1978 976.8474,-376.5093 964.6529,-359.1387"/>
<polygon fill="#191970" stroke="#191970" points="967.3523,-356.8802 958.872,-350.5291 961.5408,-360.7823 967.3523,-356.8802"/>
</g>
<!-- Node3 -->
<g id="node4" class="node">
<title>Node3</title>
<g id="a_node4"><a xlink:href="SharedLibraryExportMacros_8h_source.html" target="_top" xlink:title="../Core/SharedLibraryExport\lMacros.h">
<polygon fill="#ffffff" stroke="#000000" points="1935.4259,-.5 1935.4259,-34.5 2100.4259,-34.5 2100.4259,-.5 1935.4259,-.5"/>
<text text-anchor="start" x="1943.4259" y="-20.9" font-family="Helvetica,sans-Serif" font-size="12.00" fill="#000000">../Core/SharedLibraryExport</text>
<text text-anchor="middle" x="2017.9259" y="-7.9" font-family="Helvetica,sans-Serif" font-size="12.00" fill="#000000">Macros.h</text>
</a>
</g>
</g>
<!-- Node1&#45;&gt;Node3 -->
<g id="edge52" class="edge">
<title>Node1&#45;&gt;Node3</title>
<path fill="none" stroke="#191970" d="M1697.0656,-455.259C1575.2855,-452.1004 1218.914,-435.6571 1148.9259,-351 1105.713,-298.73 1093.5113,-259.0167 1126.9259,-200 1142.2481,-172.9382 1161.5958,-182.0415 1186.9259,-164 1239.3481,-126.6619 1238.296,-95.2175 1297.9259,-71 1354.6298,-47.9708 1743.8868,-28.941 1925.2694,-21.2122"/>
<polygon fill="#191970" stroke="#191970" points="1925.4874,-24.7062 1935.3303,-20.786 1925.1911,-17.7124 1925.4874,-24.7062"/>
</g>
<!-- Node54 -->
<g id="node26" class="node">
<title>Node54</title>
<g id="a_node26"><a xlink:href="EvolvingStar_8h.html" target="_top" xlink:title="Declares the class for stars that user pre&#45;tabulated stellar evolution tracks. ">
<polygon fill="#ffffff" stroke="#000000" points="1312.4259,-387.5 1312.4259,-408.5 1407.4259,-408.5 1407.4259,-387.5 1312.4259,-387.5"/>
<text text-anchor="middle" x="1359.9259" y="-394.9" font-family="Helvetica,sans-Serif" font-size="12.00" fill="#000000">EvolvingStar.h</text>
</a>
</g>
</g>
<!-- Node1&#45;&gt;Node54 -->
<g id="edge53" class="edge">
<title>Node1&#45;&gt;Node54</title>
<path fill="none" stroke="#191970" d="M1697.1141,-449.7379C1629.6977,-439.3936 1494.868,-418.7054 1417.6921,-406.8636"/>
<polygon fill="#191970" stroke="#191970" points="1418.0721,-403.381 1407.657,-405.3238 1417.0104,-410.3 1418.0721,-403.381"/>
</g>
<!-- Node59 -->
<g id="node36" class="node">
<title>Node59</title>
<g id="a_node36"><a xlink:href="DissipationQuantities_8h.html" target="_top" xlink:title="Declaration of enumerations of dissipation quantities and derivatives. ">
<polygon fill="#ffffff" stroke="#000000" points="1869.9259,-136 1869.9259,-157 2009.9259,-157 2009.9259,-136 1869.9259,-136"/>
<text text-anchor="middle" x="1939.9259" y="-143.4" font-family="Helvetica,sans-Serif" font-size="12.00" fill="#000000">DissipationQuantities.h</text>
</a>
</g>
</g>
<!-- Node1&#45;&gt;Node59 -->
<g id="edge96" class="edge">
<title>Node1&#45;&gt;Node59</title>
<path fill="none" stroke="#191970" d="M1761.4034,-445.4046C1808.1385,-422.8345 1911.7619,-365.0347 1951.9259,-280 1969.3857,-243.0343 1957.2307,-193.9338 1947.8847,-166.762"/>
<polygon fill="#191970" stroke="#191970" points="1951.104,-165.3739 1944.3872,-157.1803 1944.5283,-167.7742 1951.104,-165.3739"/>
</g>
<!-- Node2&#45;&gt;Node3 -->
<g id="edge3" class="edge">
<title>Node2&#45;&gt;Node3</title>
<path fill="none" stroke="#191970" d="M958.4681,-316.2179C974.8575,-288.0373 1010.9725,-232.1163 1055.9259,-200 1094.3613,-172.5404 1116.2512,-189.6363 1155.9259,-164 1204.237,-132.7832 1193.7755,-95.2647 1245.9259,-71 1306.0967,-43.0036 1733.286,-26.3529 1925.0933,-20.2122"/>
<polygon fill="#191970" stroke="#191970" points="1925.2757,-23.7082 1935.1596,-19.8926 1925.0536,-16.7117 1925.2757,-23.7082"/>
</g>
<!-- Node4 -->
<g id="node5" class="node">
<title>Node4</title>
<g id="a_node5"><a xlink:href="MESAIO_8h.html" target="_top" xlink:title="Defines the classes for generating stellar evolution interpolators from the MESA tracks. ">
<polygon fill="#ffffff" stroke="#000000" points="689.4259,-258.5 689.4259,-279.5 762.4259,-279.5 762.4259,-258.5 689.4259,-258.5"/>
<text text-anchor="middle" x="725.9259" y="-265.9" font-family="Helvetica,sans-Serif" font-size="12.00" fill="#000000">MESAIO.h</text>
</a>
</g>
</g>
<!-- Node2&#45;&gt;Node4 -->
<g id="edge4" class="edge">
<title>Node2&#45;&gt;Node4</title>
<path fill="none" stroke="#191970" d="M893.8023,-317.5562C856.4723,-306.7589 807.7012,-292.6525 772.3531,-282.4285"/>
<polygon fill="#191970" stroke="#191970" points="772.8803,-278.9376 762.3016,-279.5212 770.9353,-285.662 772.8803,-278.9376"/>
</g>
<!-- Node4&#45;&gt;Node3 -->
<g id="edge5" class="edge">
<title>Node4&#45;&gt;Node3</title>
<path fill="none" stroke="#191970" d="M762.4439,-258.7706C811.719,-245.0386 902.2777,-220.0513 979.9259,-200 1045.0535,-183.182 1078.5979,-210.7852 1126.9259,-164 1157.7619,-134.1484 1119.5533,-97.986 1152.9259,-71 1182.5817,-47.0196 1707.9959,-27.4613 1925.1665,-20.3659"/>
<polygon fill="#191970" stroke="#191970" points="1925.3907,-23.8606 1935.2717,-20.0375 1925.1633,-16.8642 1925.3907,-23.8606"/>
</g>
<!-- Node5 -->
<g id="node6" class="node">
<title>Node5</title>
<g id="a_node6"><a xlink:href="Interpolator_8h.html" target="_top" xlink:title="Defines the StellarEvolution class needed for interpolating among stellar evolution tracks...">
<polygon fill="#ffffff" stroke="#ff0000" points="580.9259,-200.5 580.9259,-221.5 666.9259,-221.5 666.9259,-200.5 580.9259,-200.5"/>
<text text-anchor="middle" x="623.9259" y="-207.9" font-family="Helvetica,sans-Serif" font-size="12.00" fill="#000000">Interpolator.h</text>
</a>
</g>
</g>
<!-- Node4&#45;&gt;Node5 -->
<g id="edge6" class="edge">
<title>Node4&#45;&gt;Node5</title>
<path fill="none" stroke="#191970" d="M707.2175,-258.3619C691.5453,-249.4502 668.9618,-236.6087 651.2632,-226.5447"/>
<polygon fill="#191970" stroke="#191970" points="652.9387,-223.4712 642.5157,-221.5707 649.4785,-229.5562 652.9387,-223.4712"/>
</g>
<!-- Node24 -->
<g id="node8" class="node">
<title>Node24</title>
<g id="a_node8"><a xlink:href="Error_8h.html" target="_top" xlink:title="Defines the exception hierarchy used by this code. ">
<polygon fill="#ffffff" stroke="#ff0000" points="912.4259,-71.5 912.4259,-92.5 965.4259,-92.5 965.4259,-71.5 912.4259,-71.5"/>
<text text-anchor="middle" x="938.9259" y="-78.9" font-family="Helvetica,sans-Serif" font-size="12.00" fill="#000000">Error.h</text>
</a>
</g>
</g>
<!-- Node4&#45;&gt;Node24 -->
<g id="edge41" class="edge">
<title>Node4&#45;&gt;Node24</title>
<path fill="none" stroke="#191970" d="M727.1252,-258.4779C730.646,-232.5404 743.3336,-165.0346 782.9259,-129 800.4377,-113.0618 861.769,-97.8679 902.113,-89.2619"/>
<polygon fill="#191970" stroke="#191970" points="903.0566,-92.6404 912.1288,-87.1681 901.6242,-85.7885 903.0566,-92.6404"/>
</g>
<!-- Node16 -->
<g id="node9" class="node">
<title>Node16</title>
<polygon fill="#ffffff" stroke="#bfbfbf" points="957.9259,-7 957.9259,-28 1019.9259,-28 1019.9259,-7 957.9259,-7"/>
<text text-anchor="middle" x="988.9259" y="-14.4" font-family="Helvetica,sans-Serif" font-size="12.00" fill="#000000">iostream</text>
</g>
<!-- Node4&#45;&gt;Node16 -->
<g id="edge43" class="edge">
<title>Node4&#45;&gt;Node16</title>
<path fill="none" stroke="#191970" d="M689.0845,-267.6641C571.1609,-263.15 207.9954,-247.3159 161.9259,-222 121.8519,-199.9787 87.7152,-163.3246 117.9259,-129 173.5495,-65.802 781.7078,-28.6492 947.431,-19.6493"/>
<polygon fill="#191970" stroke="#191970" points="947.8989,-23.1293 957.6965,-19.0972 947.523,-16.1394 947.8989,-23.1293"/>
</g>
<!-- Node26 -->
<g id="node10" class="node">
<title>Node26</title>
<polygon fill="#ffffff" stroke="#bfbfbf" points="512.9259,-7 512.9259,-28 558.9259,-28 558.9259,-7 512.9259,-7"/>
<text text-anchor="middle" x="535.9259" y="-14.4" font-family="Helvetica,sans-Serif" font-size="12.00" fill="#000000">string</text>
</g>
<!-- Node4&#45;&gt;Node26 -->
<g id="edge46" class="edge">
<title>Node4&#45;&gt;Node26</title>
<path fill="none" stroke="#191970" d="M689.3375,-267.9365C547.8161,-263.6484 43.0059,-246.6675 19.9259,-222 -31.4057,-167.1374 26.3341,-99.3163 95.9259,-71 169.8981,-40.9014 413.1664,-24.4402 502.5753,-19.2885"/>
<polygon fill="#191970" stroke="#191970" points="502.9081,-22.7754 512.6944,-18.7162 502.5127,-15.7866 502.9081,-22.7754"/>
</g>
<!-- Node43 -->
<g id="node12" class="node">
<title>Node43</title>
<polygon fill="#ffffff" stroke="#bfbfbf" points="601.9259,-71.5 601.9259,-92.5 657.9259,-92.5 657.9259,-71.5 601.9259,-71.5"/>
<text text-anchor="middle" x="629.9259" y="-78.9" font-family="Helvetica,sans-Serif" font-size="12.00" fill="#000000">fstream</text>
</g>
<!-- Node4&#45;&gt;Node43 -->
<g id="edge45" class="edge">
<title>Node4&#45;&gt;Node43</title>
<path fill="none" stroke="#191970" d="M689.3301,-267.1548C591.9951,-261.972 328.4734,-246.072 244.9259,-222 189.5382,-206.0415 159.2295,-213.0322 128.9259,-164 120.7479,-150.7677 118.4528,-140.5017 128.9259,-129 159.9444,-94.9354 480.0153,-85.0974 591.7162,-82.6896"/>
<polygon fill="#191970" stroke="#191970" points="591.9336,-86.1859 601.8588,-82.4792 591.7883,-79.1874 591.9336,-86.1859"/>
</g>
<!-- Node32 -->
<g id="node14" class="node">
<title>Node32</title>
<polygon fill="#ffffff" stroke="#bfbfbf" points="137.9259,-129.5 137.9259,-163.5 247.9259,-163.5 247.9259,-129.5 137.9259,-129.5"/>
<text text-anchor="start" x="145.9259" y="-149.9" font-family="Helvetica,sans-Serif" font-size="12.00" fill="#000000">boost/archive/text</text>
<text text-anchor="middle" x="192.9259" y="-136.9" font-family="Helvetica,sans-Serif" font-size="12.00" fill="#000000">_oarchive.hpp</text>
</g>
<!-- Node4&#45;&gt;Node32 -->
<g id="edge49" class="edge">
<title>Node4&#45;&gt;Node32</title>
<path fill="none" stroke="#191970" d="M689.304,-267.8206C596.9802,-264.4183 356.8918,-252.7854 283.9259,-222 257.0271,-210.651 231.9301,-188.6104 214.9346,-171.26"/>
<polygon fill="#191970" stroke="#191970" points="217.1466,-168.5071 207.7186,-163.6735 212.0746,-173.3315 217.1466,-168.5071"/>
</g>
<!-- Node33 -->
<g id="node15" class="node">
<title>Node33</title>
<polygon fill="#ffffff" stroke="#bfbfbf" points="265.9259,-129.5 265.9259,-163.5 375.9259,-163.5 375.9259,-129.5 265.9259,-129.5"/>
<text text-anchor="start" x="273.9259" y="-149.9" font-family="Helvetica,sans-Serif" font-size="12.00" fill="#000000">boost/archive/text</text>
<text text-anchor="middle" x="320.9259" y="-136.9" font-family="Helvetica,sans-Serif" font-size="12.00" fill="#000000">_iarchive.hpp</text>
</g>
<!-- Node4&#45;&gt;Node33 -->
<g id="edge50" class="edge">
<title>Node4&#45;&gt;Node33</title>
<path fill="none" stroke="#191970" d="M689.2659,-267.7493C589.8983,-263.9849 321.0906,-251.173 294.9259,-222 282.5083,-208.1546 290.2458,-188.0862 300.4241,-172.1195"/>
<polygon fill="#191970" stroke="#191970" points="303.4114,-173.9531 306.2174,-163.7366 297.6527,-169.9734 303.4114,-173.9531"/>
</g>
<!-- Node31 -->
<g id="node16" class="node">
<title>Node31</title>
<polygon fill="#ffffff" stroke="#bfbfbf" points="394.4259,-129.5 394.4259,-163.5 507.4259,-163.5 507.4259,-129.5 394.4259,-129.5"/>
<text text-anchor="start" x="402.4259" y="-149.9" font-family="Helvetica,sans-Serif" font-size="12.00" fill="#000000">boost/serialization</text>
<text text-anchor="middle" x="450.9259" y="-136.9" font-family="Helvetica,sans-Serif" font-size="12.00" fill="#000000">/base_object.hpp</text>
</g>
<!-- Node4&#45;&gt;Node31 -->
<g id="edge51" class="edge">
<title>Node4&#45;&gt;Node31</title>
<path fill="none" stroke="#191970" d="M689.1617,-260.6671C657.33,-252.7804 610.4724,-239.5401 571.9259,-222 540.011,-207.4775 506.3798,-185.9195 482.6966,-169.5532"/>
<polygon fill="#191970" stroke="#191970" points="484.6437,-166.6439 474.4429,-163.7811 480.6319,-172.3804 484.6437,-166.6439"/>
</g>
<!-- Node51 -->
<g id="node17" class="node">
<title>Node51</title>
<g id="a_node17"><a xlink:href="IOUtil_8h_source.html" target="_top" xlink:title="../IO/IOUtil.h">
<polygon fill="#ffffff" stroke="#ff0000" points="791.9259,-136 791.9259,-157 871.9259,-157 871.9259,-136 791.9259,-136"/>
<text text-anchor="middle" x="831.9259" y="-143.4" font-family="Helvetica,sans-Serif" font-size="12.00" fill="#000000">../IO/IOUtil.h</text>
</a>
</g>
</g>
<!-- Node4&#45;&gt;Node51 -->
<g id="edge27" class="edge">
<title>Node4&#45;&gt;Node51</title>
<path fill="none" stroke="#191970" d="M735.3327,-258.1289C753.5294,-237.0998 793.723,-190.6496 816.1021,-164.787"/>
<polygon fill="#191970" stroke="#191970" points="818.7948,-167.024 822.6916,-157.1718 813.5014,-162.4436 818.7948,-167.024"/>
</g>
<!-- Node11 -->
<g id="node18" class="node">
<title>Node11</title>
<g id="a_node18"><a xlink:href="Core_2Common_8h.html" target="_top" xlink:title="Declaration of some general purpose utilities. ">
<polygon fill="#ffffff" stroke="#ff0000" points="1776.4259,-136 1776.4259,-157 1851.4259,-157 1851.4259,-136 1776.4259,-136"/>
<text text-anchor="middle" x="1813.9259" y="-143.4" font-family="Helvetica,sans-Serif" font-size="12.00" fill="#000000">Common.h</text>
</a>
</g>
</g>
<!-- Node4&#45;&gt;Node11 -->
<g id="edge30" class="edge">
<title>Node4&#45;&gt;Node11</title>
<path fill="none" stroke="#191970" d="M762.5726,-267.049C858.9479,-261.7429 1127.3996,-245.8319 1349.9259,-222 1535.9794,-202.0742 1585.5021,-209.8075 1766.9259,-164 1770.804,-163.0208 1774.8037,-161.8296 1778.7564,-160.5339"/>
<polygon fill="#191970" stroke="#191970" points="1780.109,-163.7687 1788.3894,-157.1593 1777.7946,-157.1623 1780.109,-163.7687"/>
</g>
<!-- Node23 -->
<g id="node21" class="node">
<title>Node23</title>
<polygon fill="#ffffff" stroke="#bfbfbf" points="1819.4259,-71.5 1819.4259,-92.5 1874.4259,-92.5 1874.4259,-71.5 1819.4259,-71.5"/>
<text text-anchor="middle" x="1846.9259" y="-78.9" font-family="Helvetica,sans-Serif" font-size="12.00" fill="#000000">cassert</text>
</g>
<!-- Node4&#45;&gt;Node23 -->
<g id="edge47" class="edge">
<title>Node4&#45;&gt;Node23</title>
<path fill="none" stroke="#191970" d="M762.6904,-266.9135C869.6492,-260.6789 1179.39,-241.4145 1278.9259,-222 1311.3506,-215.6755 1318.1618,-209.0774 1349.9259,-200 1469.6429,-165.7879 1499.7133,-157.4627 1620.9259,-129 1686.9818,-113.489 1764.5182,-97.9366 1809.4555,-89.1824"/>
<polygon fill="#191970" stroke="#191970" points="1810.1924,-92.6047 1819.3424,-87.2636 1808.8587,-85.733 1810.1924,-92.6047"/>
</g>
<!-- Node27 -->
<g id="node22" class="node">
<title>Node27</title>
<g id="a_node22"><a xlink:href="AstronomicalConstants_8h.html" target="_top" xlink:title="Defines various astronomical constants. ">
<polygon fill="#ffffff" stroke="#000000" points="2266.9259,-71.5 2266.9259,-92.5 2416.9259,-92.5 2416.9259,-71.5 2266.9259,-71.5"/>
<text text-anchor="middle" x="2341.9259" y="-78.9" font-family="Helvetica,sans-Serif" font-size="12.00" fill="#000000">AstronomicalConstants.h</text>
</a>
</g>
</g>
<!-- Node4&#45;&gt;Node27 -->
<g id="edge40" class="edge">
<title>Node4&#45;&gt;Node27</title>
<path fill="none" stroke="#191970" d="M762.663,-268.2519C953.7725,-264.2716 1830.0625,-244.8986 1948.9259,-222 2088.6205,-195.0884 2245.3033,-127.0579 2310.6706,-96.848"/>
<polygon fill="#191970" stroke="#191970" points="2312.4117,-99.8982 2320.0008,-92.5052 2309.4578,-93.552 2312.4117,-99.8982"/>
</g>
<!-- Node52 -->
<g id="node23" class="node">
<title>Node52</title>
<polygon fill="#ffffff" stroke="#bfbfbf" points="303.9259,-200.5 303.9259,-221.5 405.9259,-221.5 405.9259,-200.5 303.9259,-200.5"/>
<text text-anchor="middle" x="354.9259" y="-207.9" font-family="Helvetica,sans-Serif" font-size="12.00" fill="#000000">dirent_hacked.h</text>
</g>
<!-- Node4&#45;&gt;Node52 -->
<g id="edge42" class="edge">
<title>Node4&#45;&gt;Node52</title>
<path fill="none" stroke="#191970" d="M689.1575,-263.5375C631.671,-254.9554 517.0281,-237.6726 419.9259,-222 418.6548,-221.7948 417.3698,-221.5865 416.0748,-221.3756"/>
<polygon fill="#191970" stroke="#191970" points="416.4438,-217.8893 406.0084,-219.7203 415.308,-224.7966 416.4438,-217.8893"/>
</g>
<!-- Node53 -->
<g id="node24" class="node">
<title>Node53</title>
<polygon fill="#ffffff" stroke="#bfbfbf" points="2046.4259,-71.5 2046.4259,-92.5 2105.4259,-92.5 2105.4259,-71.5 2046.4259,-71.5"/>
<text text-anchor="middle" x="2075.9259" y="-78.9" font-family="Helvetica,sans-Serif" font-size="12.00" fill="#000000">iomanip</text>
</g>
<!-- Node4&#45;&gt;Node53 -->
<g id="edge44" class="edge">
<title>Node4&#45;&gt;Node53</title>
<path fill="none" stroke="#191970" d="M762.5971,-268.4884C950.4318,-265.7421 1800.362,-251.7518 1913.9259,-222 1934.6923,-216.5596 1937.5133,-209.1646 1956.9259,-200 1993.2869,-182.8341 2011.4305,-192.3691 2039.9259,-164 2056.8858,-147.1153 2066.4657,-120.8898 2071.4089,-102.6606"/>
<polygon fill="#191970" stroke="#191970" points="2074.859,-103.2882 2073.8583,-92.7407 2068.0631,-101.6101 2074.859,-103.2882"/>
</g>
<!-- Node35 -->
<g id="node25" class="node">
<title>Node35</title>
<polygon fill="#ffffff" stroke="#bfbfbf" points="2713.4259,-136 2713.4259,-157 2762.4259,-157 2762.4259,-136 2713.4259,-136"/>
<text text-anchor="middle" x="2737.9259" y="-143.4" font-family="Helvetica,sans-Serif" font-size="12.00" fill="#000000">vector</text>
</g>
<!-- Node4&#45;&gt;Node35 -->
<g id="edge48" class="edge">
<title>Node4&#45;&gt;Node35</title>
<path fill="none" stroke="#191970" d="M762.6663,-268.5695C968.1156,-266.0594 1976.4898,-252.3638 2285.9259,-222 2442.8421,-206.6024 2627.6867,-169.7984 2703.1813,-153.9584"/>
<polygon fill="#191970" stroke="#191970" points="2704.0319,-157.3561 2713.0939,-151.8669 2702.5867,-150.5069 2704.0319,-157.3561"/>
</g>
<!-- Node5&#45;&gt;Node3 -->
<g id="edge7" class="edge">
<title>Node5&#45;&gt;Node3</title>
<path fill="none" stroke="#191970" d="M626.0455,-200.3843C630.1373,-182.7571 640.8391,-147.5565 663.9259,-129 749.4588,-60.2512 795.3018,-86.5906 903.9259,-71 1100.0981,-42.8438 1694.8488,-25.5082 1925.3067,-19.6917"/>
<polygon fill="#191970" stroke="#191970" points="1925.4317,-23.1897 1935.3408,-19.4399 1925.2561,-16.1919 1925.4317,-23.1897"/>
</g>
<!-- Node6 -->
<g id="node7" class="node">
<title>Node6</title>
<g id="a_node7"><a xlink:href="EvolvingStellarQuantity_8h.html" target="_top" xlink:title="Declares a class implementing the intepolation of a single stellar quantity from stellar evolution tr...">
<polygon fill="#ffffff" stroke="#ff0000" points="965.9259,-136 965.9259,-157 1117.9259,-157 1117.9259,-136 965.9259,-136"/>
<text text-anchor="middle" x="1041.9259" y="-143.4" font-family="Helvetica,sans-Serif" font-size="12.00" fill="#000000">EvolvingStellarQuantity.h</text>
</a>
</g>
</g>
<!-- Node5&#45;&gt;Node6 -->
<g id="edge8" class="edge">
<title>Node5&#45;&gt;Node6</title>
<path fill="none" stroke="#191970" d="M667.0849,-204.3403C736.9806,-193.555 875.9412,-172.1125 963.6276,-158.5819"/>
<polygon fill="#191970" stroke="#191970" points="964.1812,-162.038 973.5304,-157.0539 963.1136,-155.1199 964.1812,-162.038"/>
</g>
<!-- Node5&#45;&gt;Node24 -->
<g id="edge19" class="edge">
<title>Node5&#45;&gt;Node24</title>
<path fill="none" stroke="#191970" d="M632.0984,-200.2485C646.2711,-182.4212 677.2372,-146.9335 711.9259,-129 744.6723,-112.0707 846.7947,-95.3027 902.2335,-87.1344"/>
<polygon fill="#191970" stroke="#191970" points="902.9476,-90.5674 912.3397,-85.6645 901.94,-83.6403 902.9476,-90.5674"/>
</g>
<!-- Node5&#45;&gt;Node16 -->
<g id="edge22" class="edge">
<title>Node5&#45;&gt;Node16</title>
<path fill="none" stroke="#191970" d="M616.2137,-200.3754C598.6487,-174.7874 559.67,-109.0509 592.9259,-71 616.0789,-44.5087 851.1956,-26.4078 947.8111,-20.0344"/>
<polygon fill="#191970" stroke="#191970" points="948.0519,-23.5262 957.8036,-19.3846 947.5976,-16.541 948.0519,-23.5262"/>
</g>
<!-- Node5&#45;&gt;Node26 -->
<g id="edge21" class="edge">
<title>Node5&#45;&gt;Node26</title>
<path fill="none" stroke="#191970" d="M601.6931,-200.4124C587.4305,-192.4303 569.7954,-180.102 559.9259,-164 535.6821,-124.4462 533.6661,-68.0856 534.6057,-38.109"/>
<polygon fill="#191970" stroke="#191970" points="538.1073,-38.1522 535.0704,-28.002 531.1147,-37.8307 538.1073,-38.1522"/>
</g>
<!-- Node12 -->
<g id="node11" class="node">
<title>Node12</title>
<polygon fill="#ffffff" stroke="#bfbfbf" points="1161.9259,-71.5 1161.9259,-92.5 1193.9259,-92.5 1193.9259,-71.5 1161.9259,-71.5"/>
<text text-anchor="middle" x="1177.9259" y="-78.9" font-family="Helvetica,sans-Serif" font-size="12.00" fill="#000000">list</text>
</g>
<!-- Node5&#45;&gt;Node12 -->
<g id="edge20" class="edge">
<title>Node5&#45;&gt;Node12</title>
<path fill="none" stroke="#191970" d="M667.08,-209.1548C781.799,-203.9447 1088.228,-187.9276 1126.9259,-164 1149.6494,-149.9496 1163.8449,-121.6166 1171.3243,-102.2274"/>
<polygon fill="#191970" stroke="#191970" points="1174.6331,-103.3693 1174.7167,-92.7748 1168.0445,-101.0047 1174.6331,-103.3693"/>
</g>
<!-- Node5&#45;&gt;Node43 -->
<g id="edge23" class="edge">
<title>Node5&#45;&gt;Node43</title>
<path fill="none" stroke="#191970" d="M624.4169,-200.4434C625.4058,-179.1828 627.6533,-130.8614 628.9514,-102.9518"/>
<polygon fill="#191970" stroke="#191970" points="632.4596,-102.8543 629.4281,-92.7025 625.4672,-102.529 632.4596,-102.8543"/>
</g>
<!-- Node5&#45;&gt;Node32 -->
<g id="edge24" class="edge">
<title>Node5&#45;&gt;Node32</title>
<path fill="none" stroke="#191970" d="M580.6692,-207.4316C513.5329,-201.464 380.1055,-187.8911 257.8721,-164.0354"/>
<polygon fill="#191970" stroke="#191970" points="258.4569,-160.5833 247.9676,-162.0746 257.0975,-167.4501 258.4569,-160.5833"/>
</g>
<!-- Node5&#45;&gt;Node33 -->
<g id="edge25" class="edge">
<title>Node5&#45;&gt;Node33</title>
<path fill="none" stroke="#191970" d="M580.7421,-203.3852C532.9121,-194.7392 453.6057,-179.7742 385.9259,-164 385.8263,-163.9768 385.7267,-163.9535 385.6269,-163.9302"/>
<polygon fill="#191970" stroke="#191970" points="386.7218,-160.5941 376.1798,-161.6503 385.0795,-167.3987 386.7218,-160.5941"/>
</g>
<!-- Node5&#45;&gt;Node31 -->
<g id="edge26" class="edge">
<title>Node5&#45;&gt;Node31</title>
<path fill="none" stroke="#191970" d="M595.7454,-200.4934C571.5548,-191.4744 535.9736,-178.2085 506.1342,-167.0835"/>
<polygon fill="#191970" stroke="#191970" points="507.2623,-163.7687 496.6696,-163.5547 504.8169,-170.3277 507.2623,-163.7687"/>
</g>
<!-- Node6&#45;&gt;Node3 -->
<g id="edge9" class="edge">
<title>Node6&#45;&gt;Node3</title>
<path fill="none" stroke="#191970" d="M1049.0347,-135.8174C1061.2018,-118.5731 1087.8374,-85.1114 1119.9259,-71 1192.147,-39.2397 1709.8335,-24.2856 1924.761,-19.3942"/>
<polygon fill="#191970" stroke="#191970" points="1925.1552,-22.8864 1935.0738,-19.162 1924.9975,-15.8881 1925.1552,-22.8864"/>
</g>
<!-- Node6&#45;&gt;Node24 -->
<g id="edge10" class="edge">
<title>Node6&#45;&gt;Node24</title>
<path fill="none" stroke="#191970" d="M1024.9176,-135.8491C1008.517,-125.5789 983.4795,-109.9 964.6432,-98.1045"/>
<polygon fill="#191970" stroke="#191970" points="966.2925,-95.0077 955.9595,-92.6667 962.5773,-100.9405 966.2925,-95.0077"/>
</g>
<!-- Node6&#45;&gt;Node16 -->
<g id="edge16" class="edge">
<title>Node6&#45;&gt;Node16</title>
<path fill="none" stroke="#191970" d="M1037.5887,-135.9434C1028.7761,-114.4938 1008.6469,-65.5002 997.2303,-37.7125"/>
<polygon fill="#191970" stroke="#191970" points="1000.3608,-36.1221 993.3231,-28.2025 993.886,-38.7824 1000.3608,-36.1221"/>
</g>
<!-- Node6&#45;&gt;Node26 -->
<g id="edge15" class="edge">
<title>Node6&#45;&gt;Node26</title>
<path fill="none" stroke="#191970" d="M1035.9488,-135.7745C1025.8405,-118.7826 1003.6359,-86.0609 974.9259,-71 904.2817,-33.9409 659.0663,-21.7943 569.2367,-18.5342"/>
<polygon fill="#191970" stroke="#191970" points="569.1903,-15.0306 559.0743,-18.1796 568.9461,-22.0263 569.1903,-15.0306"/>
</g>
<!-- Node6&#45;&gt;Node12 -->
<g id="edge14" class="edge">
<title>Node6&#45;&gt;Node12</title>
<path fill="none" stroke="#191970" d="M1064.0794,-135.9934C1088.2662,-124.5224 1126.9382,-106.1817 1152.3853,-94.113"/>
<polygon fill="#191970" stroke="#191970" points="1154.2196,-97.1168 1161.7551,-89.6692 1151.22,-90.7921 1154.2196,-97.1168"/>
</g>
<!-- Node6&#45;&gt;Node43 -->
<g id="edge17" class="edge">
<title>Node6&#45;&gt;Node43</title>
<path fill="none" stroke="#191970" d="M974.814,-135.9934C887.6267,-122.3439 738.3084,-98.9676 668.2879,-88.0057"/>
<polygon fill="#191970" stroke="#191970" points="668.5716,-84.5076 658.1506,-86.4187 667.4888,-91.4233 668.5716,-84.5076"/>
</g>
<!-- Node15 -->
<g id="node13" class="node">
<title>Node15</title>
<polygon fill="#ffffff" stroke="#bfbfbf" points="1391.4259,-71.5 1391.4259,-92.5 1450.4259,-92.5 1450.4259,-71.5 1391.4259,-71.5"/>
<text text-anchor="middle" x="1420.9259" y="-78.9" font-family="Helvetica,sans-Serif" font-size="12.00" fill="#000000">sstream</text>
</g>
<!-- Node6&#45;&gt;Node15 -->
<g id="edge18" class="edge">
<title>Node6&#45;&gt;Node15</title>
<path fill="none" stroke="#191970" d="M1103.6623,-135.9934C1182.1087,-122.643 1315.2321,-99.9875 1381.2985,-88.744"/>
<polygon fill="#191970" stroke="#191970" points="1382.0363,-92.1688 1391.3073,-87.0406 1380.8618,-85.268 1382.0363,-92.1688"/>
</g>
<!-- Node24&#45;&gt;Node3 -->
<g id="edge11" class="edge">
<title>Node24&#45;&gt;Node3</title>
<path fill="none" stroke="#191970" d="M965.5509,-79.6354C992.7694,-77.264 1036.2738,-73.6005 1073.9259,-71 1385.6648,-49.4691 1755.7607,-30.3767 1925.0527,-22.0015"/>
<polygon fill="#191970" stroke="#191970" points="1925.3591,-25.4907 1935.1743,-21.5017 1925.0138,-18.4992 1925.3591,-25.4907"/>
</g>
<!-- Node24&#45;&gt;Node16 -->
<g id="edge12" class="edge">
<title>Node24&#45;&gt;Node16</title>
<path fill="none" stroke="#191970" d="M947.1824,-71.3491C954.5206,-61.8829 965.4208,-47.8216 974.2426,-36.4415"/>
<polygon fill="#191970" stroke="#191970" points="977.1295,-38.4301 980.49,-28.3823 971.5971,-34.1414 977.1295,-38.4301"/>
</g>
<!-- Node24&#45;&gt;Node26 -->
<g id="edge13" class="edge">
<title>Node24&#45;&gt;Node26</title>
<path fill="none" stroke="#191970" d="M912.1719,-77.718C841.15,-66.351 647.9531,-35.4299 569.6069,-22.8906"/>
<polygon fill="#191970" stroke="#191970" points="569.7663,-19.3717 559.3388,-21.2472 568.66,-26.2837 569.7663,-19.3717"/>
</g>
<!-- Node51&#45;&gt;Node16 -->
<g id="edge28" class="edge">
<title>Node51&#45;&gt;Node16</title>
<path fill="none" stroke="#191970" d="M840.522,-135.9451C853.3447,-120.5798 878.6872,-91.6379 903.9259,-71 921.4654,-56.6579 943.0981,-43.092 960.1502,-33.2093"/>
<polygon fill="#191970" stroke="#191970" points="962.1381,-36.1051 969.0973,-28.1162 958.6752,-30.0216 962.1381,-36.1051"/>
</g>
<!-- Node51&#45;&gt;Node12 -->
<g id="edge29" class="edge">
<title>Node51&#45;&gt;Node12</title>
<path fill="none" stroke="#191970" d="M871.9545,-139.038C943.4614,-125.708 1091.2896,-98.1504 1151.519,-86.9227"/>
<polygon fill="#191970" stroke="#191970" points="1152.5183,-90.2968 1161.7076,-85.0234 1151.2355,-83.4153 1152.5183,-90.2968"/>
</g>
<!-- Node11&#45;&gt;Node3 -->
<g id="edge37" class="edge">
<title>Node11&#45;&gt;Node3</title>
<path fill="none" stroke="#191970" d="M1809.6545,-135.9532C1803.9912,-120.073 1796.308,-89.8764 1810.9259,-71 1825.4904,-52.1927 1877.3585,-38.8072 1925.5264,-30.1287"/>
<polygon fill="#191970" stroke="#191970" points="1926.1668,-33.5699 1935.4156,-28.4018 1924.9626,-26.6743 1926.1668,-33.5699"/>
</g>
<!-- Node11&#45;&gt;Node24 -->
<g id="edge38" class="edge">
<title>Node11&#45;&gt;Node24</title>
<path fill="none" stroke="#191970" d="M1789.9432,-135.9954C1782.6816,-133.2473 1774.5956,-130.6073 1766.9259,-129 1747.2958,-124.8863 1134.2386,-92.3105 975.9335,-83.95"/>
<polygon fill="#191970" stroke="#191970" points="975.9249,-80.4448 965.7543,-83.4127 975.5559,-87.4351 975.9249,-80.4448"/>
</g>
<!-- Node11&#45;&gt;Node16 -->
<g id="edge34" class="edge">
<title>Node11&#45;&gt;Node16</title>
<path fill="none" stroke="#191970" d="M1787.9037,-135.9791C1744.9651,-119.1224 1656.2244,-86.3972 1577.9259,-71 1375.2128,-31.1371 1127.3006,-20.8867 1030.4637,-18.325"/>
<polygon fill="#191970" stroke="#191970" points="1030.3051,-14.8201 1020.2205,-18.0682 1030.1296,-21.8179 1030.3051,-14.8201"/>
</g>
<!-- Node11&#45;&gt;Node12 -->
<g id="edge31" class="edge">
<title>Node11&#45;&gt;Node12</title>
<path fill="none" stroke="#191970" d="M1789.4339,-135.9233C1782.2981,-133.2432 1774.4067,-130.6574 1766.9259,-129 1711.4875,-116.7174 1311.3441,-90.5228 1204.237,-83.6692"/>
<polygon fill="#191970" stroke="#191970" points="1204.1975,-80.1597 1193.9949,-83.0157 1203.7517,-87.1455 1204.1975,-80.1597"/>
</g>
<!-- Node11&#45;&gt;Node15 -->
<g id="edge33" class="edge">
<title>Node11&#45;&gt;Node15</title>
<path fill="none" stroke="#191970" d="M1788.3933,-135.8254C1781.519,-133.2749 1774.0201,-130.7792 1766.9259,-129 1658.0337,-101.6907 1525.6223,-89.297 1460.7034,-84.5302"/>
<polygon fill="#191970" stroke="#191970" points="1460.7279,-81.0232 1450.5045,-83.8038 1460.2305,-88.0055 1460.7279,-81.0232"/>
</g>
<!-- Node14 -->
<g id="node19" class="node">
<title>Node14</title>
<polygon fill="#ffffff" stroke="#bfbfbf" points="2629.9259,-71.5 2629.9259,-92.5 2673.9259,-92.5 2673.9259,-71.5 2629.9259,-71.5"/>
<text text-anchor="middle" x="2651.9259" y="-78.9" font-family="Helvetica,sans-Serif" font-size="12.00" fill="#000000">limits</text>
</g>
<!-- Node11&#45;&gt;Node14 -->
<g id="edge32" class="edge">
<title>Node11&#45;&gt;Node14</title>
<path fill="none" stroke="#191970" d="M1837.9054,-135.9796C1845.1669,-133.2311 1853.2536,-130.5947 1860.9259,-129 2154.1963,-68.0417 2235.1892,-114.9056 2533.9259,-93 2562.931,-90.8731 2595.8807,-87.7414 2619.5761,-85.3628"/>
<polygon fill="#191970" stroke="#191970" points="2620.1688,-88.8208 2629.7645,-84.3293 2619.4623,-81.8565 2620.1688,-88.8208"/>
</g>
<!-- Node22 -->
<g id="node20" class="node">
<title>Node22</title>
<polygon fill="#ffffff" stroke="#bfbfbf" points="2434.9259,-71.5 2434.9259,-92.5 2524.9259,-92.5 2524.9259,-71.5 2434.9259,-71.5"/>
<text text-anchor="middle" x="2479.9259" y="-78.9" font-family="Helvetica,sans-Serif" font-size="12.00" fill="#000000">gsl/gsl_poly.h</text>
</g>
<!-- Node11&#45;&gt;Node22 -->
<g id="edge35" class="edge">
<title>Node11&#45;&gt;Node22</title>
<path fill="none" stroke="#191970" d="M1838.4011,-135.8459C1845.5366,-133.1646 1853.4322,-130.5975 1860.9259,-129 2103.7722,-77.2305 2174.6413,-124.8991 2424.8,-92.9712"/>
<polygon fill="#191970" stroke="#191970" points="2425.4607,-96.4147 2434.9229,-91.6485 2424.5537,-89.4737 2425.4607,-96.4147"/>
</g>
<!-- Node11&#45;&gt;Node23 -->
<g id="edge36" class="edge">
<title>Node11&#45;&gt;Node23</title>
<path fill="none" stroke="#191970" d="M1819.3752,-135.8491C1824.076,-126.6613 1830.9914,-113.1447 1836.7177,-101.9524"/>
<polygon fill="#191970" stroke="#191970" points="1839.9193,-103.3789 1841.3582,-92.8823 1833.6876,-100.1906 1839.9193,-103.3789"/>
</g>
<!-- Node11&#45;&gt;Node27 -->
<g id="edge39" class="edge">
<title>Node11&#45;&gt;Node27</title>
<path fill="none" stroke="#191970" d="M1838.925,-135.8266C1845.9317,-133.2124 1853.6299,-130.6846 1860.9259,-129 1933.9099,-112.1482 2139.0623,-95.9406 2256.5209,-87.6758"/>
<polygon fill="#191970" stroke="#191970" points="2256.8307,-91.1628 2266.5622,-86.9736 2256.3423,-84.1799 2256.8307,-91.1628"/>
</g>
<!-- Node54&#45;&gt;Node3 -->
<g id="edge54" class="edge">
<title>Node54&#45;&gt;Node3</title>
<path fill="none" stroke="#191970" d="M1358.939,-387.4669C1354.4168,-336.5814 1337.7678,-116.7871 1382.9259,-71 1420.1828,-33.2241 1758.1631,-22.0214 1925.2582,-18.7787"/>
<polygon fill="#191970" stroke="#191970" points="1925.3485,-22.2777 1935.2808,-18.5898 1925.2165,-15.279 1925.3485,-22.2777"/>
</g>
<!-- Node54&#45;&gt;Node5 -->
<g id="edge91" class="edge">
<title>Node54&#45;&gt;Node5</title>
<path fill="none" stroke="#191970" d="M1312.1502,-396.9916C1225.8607,-394.351 1038.6901,-384.8646 884.9259,-351 791.1717,-330.3518 759.7426,-334.8099 680.9259,-280 662.0162,-266.85 645.8941,-245.7939 635.6714,-230.3966"/>
<polygon fill="#191970" stroke="#191970" points="638.4271,-228.2086 630.0966,-221.6622 632.5265,-231.9747 638.4271,-228.2086"/>
</g>
<!-- Node55 -->
<g id="node27" class="node">
<title>Node55</title>
<g id="a_node27"><a xlink:href="SaturatingSkumanichWindBody_8h.html" target="_top" xlink:title="Decrales a body subject to angular momentum loss . ">
<polygon fill="#ffffff" stroke="#000000" points="2170.4259,-323 2170.4259,-344 2367.4259,-344 2367.4259,-323 2170.4259,-323"/>
<text text-anchor="middle" x="2268.9259" y="-330.4" font-family="Helvetica,sans-Serif" font-size="12.00" fill="#000000">SaturatingSkumanichWindBody.h</text>
</a>
</g>
</g>
<!-- Node54&#45;&gt;Node55 -->
<g id="edge55" class="edge">
<title>Node54&#45;&gt;Node55</title>
<path fill="none" stroke="#191970" d="M1407.5745,-396.2396C1528.9396,-391.5099 1859.5235,-377.086 2133.9259,-351 2150.2923,-349.4441 2167.7321,-347.4417 2184.4536,-345.3502"/>
<polygon fill="#191970" stroke="#191970" points="2185.2779,-348.7737 2194.7563,-344.0397 2184.3945,-341.8296 2185.2779,-348.7737"/>
</g>
<!-- Node77 -->
<g id="node34" class="node">
<title>Node77</title>
<g id="a_node34"><a xlink:href="ExponentialDecayDiffRotBody_8h.html" target="_top" xlink:title="Declares a DissipatingBody with exponentially decaying differential rotation coupling. ">
<polygon fill="#ffffff" stroke="#000000" points="1753.4259,-258.5 1753.4259,-279.5 1942.4259,-279.5 1942.4259,-258.5 1753.4259,-258.5"/>
<text text-anchor="middle" x="1847.9259" y="-265.9" font-family="Helvetica,sans-Serif" font-size="12.00" fill="#000000">ExponentialDecayDiffRotBody.h</text>
</a>
</g>
</g>
<!-- Node54&#45;&gt;Node77 -->
<g id="edge81" class="edge">
<title>Node54&#45;&gt;Node77</title>
<path fill="none" stroke="#191970" d="M1399.861,-387.4434C1488.462,-364.0222 1701.2957,-307.7609 1798.2735,-282.1253"/>
<polygon fill="#191970" stroke="#191970" points="1799.35,-285.4611 1808.1234,-279.5216 1797.561,-278.6935 1799.35,-285.4611"/>
</g>
<!-- Node78 -->
<g id="node38" class="node">
<title>Node78</title>
<g id="a_node38"><a xlink:href="EvolvingStellarCore_8h.html" target="_top" xlink:title="Declaration of the class representing stellar cores. ">
<polygon fill="#ffffff" stroke="#ff0000" points="1135.9259,-200.5 1135.9259,-221.5 1269.9259,-221.5 1269.9259,-200.5 1135.9259,-200.5"/>
<text text-anchor="middle" x="1202.9259" y="-207.9" font-family="Helvetica,sans-Serif" font-size="12.00" fill="#000000">EvolvingStellarCore.h</text>
</a>
</g>
</g>
<!-- Node54&#45;&gt;Node78 -->
<g id="edge92" class="edge">
<title>Node54&#45;&gt;Node78</title>
<path fill="none" stroke="#191970" d="M1312.1312,-393.1907C1260.4184,-386.8842 1182.9175,-373.8433 1164.9259,-351 1136.5222,-314.9369 1167.8299,-259.2548 1188.2186,-230.1736"/>
<polygon fill="#191970" stroke="#191970" points="1191.3123,-231.8705 1194.3651,-221.725 1185.6518,-227.7524 1191.3123,-231.8705"/>
</g>
<!-- Node84 -->
<g id="node39" class="node">
<title>Node84</title>
<g id="a_node39"><a xlink:href="EvolvingStellarEnvelope_8h.html" target="_top" xlink:title="Declares a class representing convective zones in low mass evolving stars or the whole star for high ...">
<polygon fill="#ffffff" stroke="#ff0000" points="1173.9259,-323 1173.9259,-344 1331.9259,-344 1331.9259,-323 1173.9259,-323"/>
<text text-anchor="middle" x="1252.9259" y="-330.4" font-family="Helvetica,sans-Serif" font-size="12.00" fill="#000000">EvolvingStellarEnvelope.h</text>
</a>
</g>
</g>
<!-- Node54&#45;&gt;Node84 -->
<g id="edge95" class="edge">
<title>Node54&#45;&gt;Node84</title>
<path fill="none" stroke="#191970" d="M1342.257,-387.3491C1325.1422,-377.0322 1298.9731,-361.2574 1279.3755,-349.4439"/>
<polygon fill="#191970" stroke="#191970" points="1280.9923,-346.3318 1270.621,-344.1667 1277.3784,-352.3269 1280.9923,-346.3318"/>
</g>
<!-- Node55&#45;&gt;Node3 -->
<g id="edge56" class="edge">
<title>Node55&#45;&gt;Node3</title>
<path fill="none" stroke="#191970" d="M2329.4008,-322.948C2419.3712,-307.4584 2593.8819,-278.2167 2742.9259,-258 2814.0551,-248.3519 3016.0814,-275.5102 3063.9259,-222 3070.4432,-214.711 3069.4639,-208.0583 3063.9259,-200 2973.3267,-68.1693 2884.0003,-106.0476 2727.9259,-71 2612.9645,-45.1846 2275.507,-28.1498 2110.6712,-21.1336"/>
<polygon fill="#191970" stroke="#191970" points="2110.6871,-17.6313 2100.5482,-20.7061 2110.3916,-24.625 2110.6871,-17.6313"/>
</g>
<!-- Node56 -->
<g id="node28" class="node">
<title>Node56</title>
<g id="a_node28"><a xlink:href="DissipatingBody_8h.html" target="_top" xlink:title="Declares the DissipatingBody class. ">
<polygon fill="#ffffff" stroke="#ff0000" points="2113.4259,-200.5 2113.4259,-221.5 2276.4259,-221.5 2276.4259,-200.5 2113.4259,-200.5"/>
<text text-anchor="middle" x="2194.9259" y="-207.9" font-family="Helvetica,sans-Serif" font-size="12.00" fill="#000000">../Evolve/DissipatingBody.h</text>
</a>
</g>
</g>
<!-- Node55&#45;&gt;Node56 -->
<g id="edge57" class="edge">
<title>Node55&#45;&gt;Node56</title>
<path fill="none" stroke="#191970" d="M2255.9405,-322.8529C2244.4999,-312.8542 2228.1135,-296.9333 2217.9259,-280 2208.9,-264.9975 2202.9042,-246.0047 2199.3039,-231.7453"/>
<polygon fill="#191970" stroke="#191970" points="2202.6892,-230.8505 2197.0072,-221.9081 2195.8725,-232.442 2202.6892,-230.8505"/>
</g>
<!-- Node72 -->
<g id="node30" class="node">
<title>Node72</title>
<g id="a_node30"><a xlink:href="BinarySystem_8h.html" target="_top" xlink:title="Defines the BinarySystem class. ">
<polygon fill="#ffffff" stroke="#ff0000" points="2226.4259,-258.5 2226.4259,-279.5 2375.4259,-279.5 2375.4259,-258.5 2226.4259,-258.5"/>
<text text-anchor="middle" x="2300.9259" y="-265.9" font-family="Helvetica,sans-Serif" font-size="12.00" fill="#000000">../Evolve/BinarySystem.h</text>
</a>
</g>
</g>
<!-- Node55&#45;&gt;Node72 -->
<g id="edge65" class="edge">
<title>Node55&#45;&gt;Node72</title>
<path fill="none" stroke="#191970" d="M2274.2101,-322.8491C2278.7684,-313.6613 2285.4743,-300.1447 2291.027,-288.9524"/>
<polygon fill="#191970" stroke="#191970" points="2294.2179,-290.3959 2295.527,-279.8823 2287.9472,-287.2849 2294.2179,-290.3959"/>
</g>
<!-- Node56&#45;&gt;Node3 -->
<g id="edge58" class="edge">
<title>Node56&#45;&gt;Node3</title>
<path fill="none" stroke="#191970" d="M2199.1945,-200.4642C2205.0214,-184.4174 2213.6891,-153.1678 2203.9259,-129 2185.3089,-82.9154 2136.4296,-54.7097 2093.4505,-38.1986"/>
<polygon fill="#191970" stroke="#191970" points="2094.4093,-34.8219 2083.8159,-34.6503 2091.9902,-41.3906 2094.4093,-34.8219"/>
</g>
<!-- Node56&#45;&gt;Node11 -->
<g id="edge63" class="edge">
<title>Node56&#45;&gt;Node11</title>
<path fill="none" stroke="#191970" d="M2113.325,-204.4944C2045.1075,-197.875 1945.6464,-185.463 1860.9259,-164 1857.0486,-163.0177 1853.0495,-161.8245 1849.097,-160.5276"/>
<polygon fill="#191970" stroke="#191970" points="1850.0592,-157.1562 1839.4644,-157.1516 1847.7439,-163.7622 1850.0592,-157.1562"/>
</g>
<!-- Node56&#45;&gt;Node23 -->
<g id="edge64" class="edge">
<title>Node56&#45;&gt;Node23</title>
<path fill="none" stroke="#191970" d="M2175.3481,-200.488C2143.3531,-183.6292 2077.5433,-150.2844 2018.9259,-129 1963.4079,-108.841 1945.4388,-109.7054 1884.5147,-93.0778"/>
<polygon fill="#191970" stroke="#191970" points="1885.3537,-89.6783 1874.7817,-90.3735 1883.4797,-96.4229 1885.3537,-89.6783"/>
</g>
<!-- Node56&#45;&gt;Node27 -->
<g id="edge62" class="edge">
<title>Node56&#45;&gt;Node27</title>
<path fill="none" stroke="#191970" d="M2220.0977,-200.4966C2237.9999,-192.2508 2261.9609,-179.5747 2279.9259,-164 2300.8617,-145.8498 2319.2067,-119.5562 2330.4037,-101.6714"/>
<polygon fill="#191970" stroke="#191970" points="2333.6511,-103.0677 2335.8599,-92.7057 2327.6713,-99.4287 2333.6511,-103.0677"/>
</g>
<!-- Node71 -->
<g id="node29" class="node">
<title>Node71</title>
<g id="a_node29"><a xlink:href="OrbitalExpressions_8h.html" target="_top" xlink:title="A collection of functions which calculate various quantities for two body orbits. ...">
<polygon fill="#ffffff" stroke="#ff0000" points="2369.9259,-136 2369.9259,-157 2535.9259,-157 2535.9259,-136 2369.9259,-136"/>
<text text-anchor="middle" x="2452.9259" y="-143.4" font-family="Helvetica,sans-Serif" font-size="12.00" fill="#000000">../Core/OrbitalExpressions.h</text>
</a>
</g>
</g>
<!-- Node56&#45;&gt;Node71 -->
<g id="edge59" class="edge">
<title>Node56&#45;&gt;Node71</title>
<path fill="none" stroke="#191970" d="M2236.9523,-200.4934C2281.743,-189.2957 2352.7189,-171.5518 2400.9812,-159.4862"/>
<polygon fill="#191970" stroke="#191970" points="2402.065,-162.823 2410.9175,-157.0021 2400.3672,-156.032 2402.065,-162.823"/>
</g>
<!-- Node71&#45;&gt;Node3 -->
<g id="edge60" class="edge">
<title>Node71&#45;&gt;Node3</title>
<path fill="none" stroke="#191970" d="M2479.1578,-135.9911C2510.5939,-121.9429 2556.3901,-95.9137 2533.9259,-71 2506.1797,-40.2283 2251.6989,-26.0515 2110.7866,-20.5121"/>
<polygon fill="#191970" stroke="#191970" points="2110.5538,-17.0006 2100.4263,-20.1123 2110.2839,-23.9954 2110.5538,-17.0006"/>
</g>
<!-- Node71&#45;&gt;Node27 -->
<g id="edge61" class="edge">
<title>Node71&#45;&gt;Node27</title>
<path fill="none" stroke="#191970" d="M2434.5965,-135.8491C2416.7615,-125.4855 2389.4486,-109.6145 2369.0888,-97.7838"/>
<polygon fill="#191970" stroke="#191970" points="2370.6873,-94.6647 2360.2825,-92.6667 2367.1703,-100.7171 2370.6873,-94.6647"/>
</g>
<!-- Node72&#45;&gt;Node3 -->
<g id="edge66" class="edge">
<title>Node72&#45;&gt;Node3</title>
<path fill="none" stroke="#191970" d="M2320.1607,-258.4267C2351.1119,-241.5016 2410.7415,-209.2836 2432.9259,-200 2481.1589,-179.8157 2512.6602,-205.1431 2544.9259,-164 2570.4696,-131.4285 2577.6923,-101.6987 2549.9259,-71 2521.0798,-39.1075 2255.2561,-25.3541 2110.6356,-20.1901"/>
<polygon fill="#191970" stroke="#191970" points="2110.5538,-16.6852 2100.4374,-19.833 2110.3087,-23.6809 2110.5538,-16.6852"/>
</g>
<!-- Node72&#45;&gt;Node24 -->
<g id="edge74" class="edge">
<title>Node72&#45;&gt;Node24</title>
<path fill="none" stroke="#191970" d="M2226.1293,-266.5997C1975.9392,-258.4931 1180.9422,-232.0752 1126.9259,-222 1107.3063,-218.3405 970.2211,-178.8849 956.9259,-164 941.9706,-147.2564 938.4956,-120.9756 938.1001,-102.6959"/>
<polygon fill="#191970" stroke="#191970" points="941.6013,-102.531 938.1766,-92.5049 934.6015,-102.4783 941.6013,-102.531"/>
</g>
<!-- Node72&#45;&gt;Node16 -->
<g id="edge79" class="edge">
<title>Node72&#45;&gt;Node16</title>
<path fill="none" stroke="#191970" d="M2226.1555,-264.9251C2101.4211,-257.6968 1856.247,-241.5363 1771.9259,-222 1701.8896,-205.7733 1683.4909,-199.4121 1620.9259,-164 1562.5097,-130.9361 1564.1709,-96.1245 1501.9259,-71 1416.4285,-36.4899 1136.5345,-22.8819 1030.3137,-18.8788"/>
<polygon fill="#191970" stroke="#191970" points="1030.121,-15.3695 1019.9992,-18.4999 1029.864,-22.3648 1030.121,-15.3695"/>
</g>
<!-- Node72&#45;&gt;Node26 -->
<g id="edge77" class="edge">
<title>Node72&#45;&gt;Node26</title>
<path fill="none" stroke="#191970" d="M2226.3816,-266.5333C2155.7224,-264.223 2046.606,-260.727 1951.9259,-258 1338.6383,-240.3357 1183.3735,-272.6521 571.9259,-222 501.7069,-216.1831 484.7705,-209.2889 414.9259,-200 351.4279,-191.5551 171.2984,-212.0404 128.9259,-164 21.2499,-41.9207 387.7004,-21.5445 502.5767,-18.1661"/>
<polygon fill="#191970" stroke="#191970" points="502.9816,-21.6566 512.8841,-17.8894 502.7937,-14.6591 502.9816,-21.6566"/>
</g>
<!-- Node72&#45;&gt;Node11 -->
<g id="edge72" class="edge">
<title>Node72&#45;&gt;Node11</title>
<path fill="none" stroke="#191970" d="M2226.281,-264.8631C2086.4365,-256.7507 1797.6653,-238.1372 1782.9259,-222 1768.1157,-205.7851 1782.6,-181.5313 1796.3368,-164.9153"/>
<polygon fill="#191970" stroke="#191970" points="1799.3173,-166.8261 1803.293,-157.0054 1794.0608,-162.2033 1799.3173,-166.8261"/>
</g>
<!-- Node72&#45;&gt;Node14 -->
<g id="edge78" class="edge">
<title>Node72&#45;&gt;Node14</title>
<path fill="none" stroke="#191970" d="M2333.8989,-258.4993C2360.8625,-249.618 2399.8056,-236.1147 2432.9259,-222 2453.0394,-213.4284 2456.4524,-207.6721 2476.9259,-200 2536.684,-177.6067 2567.3338,-205.3679 2615.9259,-164 2634.432,-148.2452 2643.7606,-121.1561 2648.2195,-102.4492"/>
<polygon fill="#191970" stroke="#191970" points="2651.6676,-103.0605 2650.3147,-92.5524 2644.8193,-101.6107 2651.6676,-103.0605"/>
</g>
<!-- Node72&#45;&gt;Node27 -->
<g id="edge71" class="edge">
<title>Node72&#45;&gt;Node27</title>
<path fill="none" stroke="#191970" d="M2303.2477,-258.4103C2309.813,-228.466 2328.6011,-142.7743 2337.3458,-102.8898"/>
<polygon fill="#191970" stroke="#191970" points="2340.8045,-103.457 2339.5274,-92.9394 2333.9669,-101.9577 2340.8045,-103.457"/>
</g>
<!-- Node72&#45;&gt;Node53 -->
<g id="edge80" class="edge">
<title>Node72&#45;&gt;Node53</title>
<path fill="none" stroke="#191970" d="M2226.4079,-259.7777C2178.2305,-252.2453 2121.5213,-239.8971 2104.9259,-222 2076.4586,-191.2998 2099.2549,-169.8149 2089.9259,-129 2087.9209,-120.228 2085.1853,-110.6882 2082.664,-102.5098"/>
<polygon fill="#191970" stroke="#191970" points="2085.9176,-101.1914 2079.5525,-92.7217 2079.2465,-103.3121 2085.9176,-101.1914"/>
</g>
<!-- Node72&#45;&gt;Node56 -->
<g id="edge67" class="edge">
<title>Node72&#45;&gt;Node56</title>
<path fill="none" stroke="#191970" d="M2281.4839,-258.3619C2265.1223,-249.4094 2241.5125,-236.4908 2223.0824,-226.4064"/>
<polygon fill="#191970" stroke="#191970" points="2224.6974,-223.3004 2214.2447,-221.5707 2221.3373,-229.4412 2224.6974,-223.3004"/>
</g>
<!-- Node72&#45;&gt;Node71 -->
<g id="edge73" class="edge">
<title>Node72&#45;&gt;Node71</title>
<path fill="none" stroke="#191970" d="M2314.149,-258.3432C2340.5376,-237.0761 2399.9297,-189.2107 2431.7874,-163.536"/>
<polygon fill="#191970" stroke="#191970" points="2434.0352,-166.2196 2439.6251,-157.2194 2429.6427,-160.7693 2434.0352,-166.2196"/>
</g>
<!-- Node66 -->
<g id="node31" class="node">
<title>Node66</title>
<g id="a_node31"><a xlink:href="CombinedStoppingCondition_8h.html" target="_top" xlink:title="Declares a class for a stopping condition that combines other stopping conditions. ">
<polygon fill="#ffffff" stroke="#ff0000" points="2872.9259,-200.5 2872.9259,-221.5 3054.9259,-221.5 3054.9259,-200.5 2872.9259,-200.5"/>
<text text-anchor="middle" x="2963.9259" y="-207.9" font-family="Helvetica,sans-Serif" font-size="12.00" fill="#000000">CombinedStoppingCondition.h</text>
</a>
</g>
</g>
<!-- Node72&#45;&gt;Node66 -->
<g id="edge68" class="edge">
<title>Node72&#45;&gt;Node66</title>
<path fill="none" stroke="#191970" d="M2375.6591,-263.3893C2481.5973,-255.2956 2681.7748,-239.4871 2862.9385,-222.0761"/>
<polygon fill="#191970" stroke="#191970" points="2863.3003,-225.5575 2872.918,-221.1135 2862.6282,-218.5899 2863.3003,-225.5575"/>
</g>
<!-- Node74 -->
<g id="node32" class="node">
<title>Node74</title>
<polygon fill="#ffffff" stroke="#bfbfbf" points="2485.4259,-200.5 2485.4259,-221.5 2580.4259,-221.5 2580.4259,-200.5 2485.4259,-200.5"/>
<text text-anchor="middle" x="2532.9259" y="-207.9" font-family="Helvetica,sans-Serif" font-size="12.00" fill="#000000">gsl/gsl_errno.h</text>
</g>
<!-- Node72&#45;&gt;Node74 -->
<g id="edge75" class="edge">
<title>Node72&#45;&gt;Node74</title>
<path fill="none" stroke="#191970" d="M2342.9394,-258.4966C2381.6622,-248.8159 2439.2633,-234.4156 2480.884,-224.0105"/>
<polygon fill="#191970" stroke="#191970" points="2481.9811,-227.344 2490.8337,-221.5231 2480.2833,-220.553 2481.9811,-227.344"/>
</g>
<!-- Node75 -->
<g id="node33" class="node">
<title>Node75</title>
<polygon fill="#ffffff" stroke="#bfbfbf" points="2750.9259,-200.5 2750.9259,-221.5 2854.9259,-221.5 2854.9259,-200.5 2750.9259,-200.5"/>
<text text-anchor="middle" x="2802.9259" y="-207.9" font-family="Helvetica,sans-Serif" font-size="12.00" fill="#000000">gsl/gsl_odeiv2.h</text>
</g>
<!-- Node72&#45;&gt;Node75 -->
<g id="edge76" class="edge">
<title>Node72&#45;&gt;Node75</title>
<path fill="none" stroke="#191970" d="M2375.5383,-260.3794C2474.6555,-248.9277 2647.9749,-228.9027 2740.5167,-218.2106"/>
<polygon fill="#191970" stroke="#191970" points="2741.0433,-221.6732 2750.5755,-217.0485 2740.2398,-214.7194 2741.0433,-221.6732"/>
</g>
<!-- Node66&#45;&gt;Node3 -->
<g id="edge69" class="edge">
<title>Node66&#45;&gt;Node3</title>
<path fill="none" stroke="#191970" d="M2948.0334,-200.3091C2906.5716,-173.0536 2790.8367,-101.0105 2682.9259,-71 2577.8286,-41.7719 2267.362,-26.5909 2110.6463,-20.6094"/>
<polygon fill="#191970" stroke="#191970" points="2110.6746,-17.1081 2100.5498,-20.2287 2110.4108,-24.1031 2110.6746,-17.1081"/>
</g>
<!-- Node66&#45;&gt;Node35 -->
<g id="edge70" class="edge">
<title>Node66&#45;&gt;Node35</title>
<path fill="none" stroke="#191970" d="M2927.1121,-200.4934C2884.243,-188.2586 2813.991,-168.2088 2772.2274,-156.2896"/>
<polygon fill="#191970" stroke="#191970" points="2773.0858,-152.8949 2762.5092,-153.516 2771.1647,-159.6261 2773.0858,-152.8949"/>
</g>
<!-- Node77&#45;&gt;Node3 -->
<g id="edge82" class="edge">
<title>Node77&#45;&gt;Node3</title>
<path fill="none" stroke="#191970" d="M1791.3273,-258.4986C1709.8607,-240.7119 1574.1892,-199.5389 1620.9259,-129 1654.5394,-78.2678 1818.6067,-45.7423 1925.0274,-29.6164"/>
<polygon fill="#191970" stroke="#191970" points="1925.7662,-33.045 1935.1399,-28.107 1924.7327,-26.1217 1925.7662,-33.045"/>
</g>
<!-- Node77&#45;&gt;Node56 -->
<g id="edge83" class="edge">
<title>Node77&#45;&gt;Node56</title>
<path fill="none" stroke="#191970" d="M1910.765,-258.4966C1970.1517,-248.5703 2059.2254,-233.6819 2121.7783,-223.2264"/>
<polygon fill="#191970" stroke="#191970" points="2122.6829,-226.6239 2131.969,-221.5231 2121.5288,-219.7196 2122.6829,-226.6239"/>
</g>
<!-- Node58 -->
<g id="node35" class="node">
<title>Node58</title>
<g id="a_node35"><a xlink:href="ZoneOrientation_8h.html" target="_top" xlink:title="Declares a class for orientations of zones of DissipatingBody objects. ">
<polygon fill="#ffffff" stroke="#ff0000" points="1791.4259,-200.5 1791.4259,-221.5 1904.4259,-221.5 1904.4259,-200.5 1791.4259,-200.5"/>
<text text-anchor="middle" x="1847.9259" y="-207.9" font-family="Helvetica,sans-Serif" font-size="12.00" fill="#000000">ZoneOrientation.h</text>
</a>
</g>
</g>
<!-- Node77&#45;&gt;Node58 -->
<g id="edge84" class="edge">
<title>Node77&#45;&gt;Node58</title>
<path fill="none" stroke="#191970" d="M1847.9259,-258.3619C1847.9259,-250.9219 1847.9259,-240.7427 1847.9259,-231.7276"/>
<polygon fill="#191970" stroke="#191970" points="1851.426,-231.5706 1847.9259,-221.5707 1844.426,-231.5707 1851.426,-231.5706"/>
</g>
<!-- Node58&#45;&gt;Node3 -->
<g id="edge85" class="edge">
<title>Node58&#45;&gt;Node3</title>
<path fill="none" stroke="#191970" d="M1897.9904,-200.4583C1945.7159,-189.9044 2011.4136,-173.8557 2018.9259,-164 2045.0822,-129.6845 2036.134,-76.5174 2027.1202,-44.5515"/>
<polygon fill="#191970" stroke="#191970" points="2030.4696,-43.5355 2024.2358,-34.9687 2023.7667,-45.5531 2030.4696,-43.5355"/>
</g>
<!-- Node58&#45;&gt;Node11 -->
<g id="edge90" class="edge">
<title>Node58&#45;&gt;Node11</title>
<path fill="none" stroke="#191970" d="M1842.3115,-200.3491C1837.4683,-191.1613 1830.3433,-177.6447 1824.4435,-166.4524"/>
<polygon fill="#191970" stroke="#191970" points="1827.4217,-164.5964 1819.6623,-157.3823 1821.2293,-167.8606 1827.4217,-164.5964"/>
</g>
<!-- Node58&#45;&gt;Node59 -->
<g id="edge86" class="edge">
<title>Node58&#45;&gt;Node59</title>
<path fill="none" stroke="#191970" d="M1863.1178,-200.3491C1877.6337,-190.1723 1899.7245,-174.6847 1916.4949,-162.9272"/>
<polygon fill="#191970" stroke="#191970" points="1918.5325,-165.7732 1924.7114,-157.1667 1914.514,-160.0415 1918.5325,-165.7732"/>
</g>
<!-- Node59&#45;&gt;Node3 -->
<g id="edge87" class="edge">
<title>Node59&#45;&gt;Node3</title>
<path fill="none" stroke="#191970" d="M1946.309,-135.9434C1958.4565,-115.8533 1985.2141,-71.6003 2002.3625,-43.2395"/>
<polygon fill="#191970" stroke="#191970" points="2005.3827,-45.0089 2007.5618,-34.6406 1999.3925,-41.387 2005.3827,-45.0089"/>
</g>
<!-- Node59&#45;&gt;Node23 -->
<g id="edge89" class="edge">
<title>Node59&#45;&gt;Node23</title>
<path fill="none" stroke="#191970" d="M1924.5689,-135.8491C1909.8952,-125.6723 1887.5643,-110.1847 1870.6116,-98.4272"/>
<polygon fill="#191970" stroke="#191970" points="1872.5176,-95.4897 1862.3058,-92.6667 1868.5283,-101.2417 1872.5176,-95.4897"/>
</g>
<!-- Node60 -->
<g id="node37" class="node">
<title>Node60</title>
<polygon fill="#ffffff" stroke="#bfbfbf" points="1892.4259,-71.5 1892.4259,-92.5 1951.4259,-92.5 1951.4259,-71.5 1892.4259,-71.5"/>
<text text-anchor="middle" x="1921.9259" y="-78.9" font-family="Helvetica,sans-Serif" font-size="12.00" fill="#000000">ostream</text>
</g>
<!-- Node59&#45;&gt;Node60 -->
<g id="edge88" class="edge">
<title>Node59&#45;&gt;Node60</title>
<path fill="none" stroke="#191970" d="M1936.9536,-135.8491C1934.4413,-126.8469 1930.7694,-113.6891 1927.6841,-102.6335"/>
<polygon fill="#191970" stroke="#191970" points="1931.0221,-101.5734 1924.9628,-92.8823 1924.2797,-103.4551 1931.0221,-101.5734"/>
</g>
<!-- Node78&#45;&gt;Node3 -->
<g id="edge93" class="edge">
<title>Node78&#45;&gt;Node3</title>
<path fill="none" stroke="#191970" d="M1224.6097,-200.46C1239.8818,-192.1966 1260.0066,-179.5143 1273.9259,-164 1304.9883,-129.378 1283.16,-96.7053 1321.9259,-71 1371.0319,-38.4382 1747.1868,-24.4741 1925.1554,-19.6428"/>
<polygon fill="#191970" stroke="#191970" points="1925.3892,-23.1379 1935.292,-19.3717 1925.202,-16.1404 1925.3892,-23.1379"/>
</g>
<!-- Node78&#45;&gt;Node6 -->
<g id="edge94" class="edge">
<title>Node78&#45;&gt;Node6</title>
<path fill="none" stroke="#191970" d="M1176.7002,-200.4934C1149.8019,-189.7174 1107.7708,-172.8788 1077.802,-160.8727"/>
<polygon fill="#191970" stroke="#191970" points="1078.7249,-157.4721 1068.1404,-157.0021 1076.1216,-163.97 1078.7249,-157.4721"/>
</g>
<!-- Node85&#45;&gt;Node1 -->
<g id="edge134" class="edge">
<title>Node85&#45;&gt;Node1</title>
<path fill="none" stroke="#191970" d="M2230.8242,-507.2332C2118.3961,-495.5471 1890.1572,-471.8233 1788.6125,-461.2685"/>
<polygon fill="#191970" stroke="#191970" points="1788.9167,-457.7813 1778.6084,-460.2286 1788.1929,-464.7438 1788.9167,-457.7813"/>
</g>
<!-- Node85&#45;&gt;Node3 -->
<g id="edge98" class="edge">
<title>Node85&#45;&gt;Node3</title>
<path fill="none" stroke="#191970" d="M2360.927,-511.2034C2612.0487,-499.9776 3504.9259,-455.9864 3504.9259,-398 3504.9259,-398 3504.9259,-398 3504.9259,-146.5 3504.9259,-122.9597 3527.5696,-113.299 3375.9259,-71 3255.1187,-37.3024 2398.205,-22.6747 2111.2764,-18.6851"/>
<polygon fill="#191970" stroke="#191970" points="2110.9499,-15.1804 2100.9025,-18.5421 2110.8533,-22.1797 2110.9499,-15.1804"/>
</g>
<!-- Node86 -->
<g id="node41" class="node">
<title>Node86</title>
<g id="a_node41"><a xlink:href="DiskBinarySystem_8h.html" target="_top" xlink:title="Declares a class of binary systems which start with a disk&#45;locked star which is then released and at ...">
<polygon fill="#ffffff" stroke="#000000" points="1999.4259,-323 1999.4259,-344 2124.4259,-344 2124.4259,-323 1999.4259,-323"/>
<text text-anchor="middle" x="2061.9259" y="-330.4" font-family="Helvetica,sans-Serif" font-size="12.00" fill="#000000">DiskBinarySystem.h</text>
</a>
</g>
</g>
<!-- Node85&#45;&gt;Node86 -->
<g id="edge99" class="edge">
<title>Node85&#45;&gt;Node86</title>
<path fill="none" stroke="#191970" d="M2281.9889,-503.2495C2242.8084,-473.0269 2131.4546,-387.1322 2083.8959,-350.447"/>
<polygon fill="#191970" stroke="#191970" points="2085.8457,-347.5307 2075.7899,-344.1942 2081.5702,-353.0733 2085.8457,-347.5307"/>
</g>
<!-- Node87 -->
<g id="node42" class="node">
<title>Node87</title>
<g id="a_node42"><a xlink:href="OrbitSolver_8h.html" target="_top" xlink:title="Defines the OrbitSolver class, the various stopping conditions and a number of other classes used whi...">
<polygon fill="#ffffff" stroke="#000000" points="2622.9259,-323 2622.9259,-344 2708.9259,-344 2708.9259,-323 2622.9259,-323"/>
<text text-anchor="middle" x="2665.9259" y="-330.4" font-family="Helvetica,sans-Serif" font-size="12.00" fill="#000000">OrbitSolver.h</text>
</a>
</g>
</g>
<!-- Node85&#45;&gt;Node87 -->
<g id="edge104" class="edge">
<title>Node85&#45;&gt;Node87</title>
<path fill="none" stroke="#191970" d="M2317.6898,-503.3828C2380.3993,-472.7907 2561.6477,-384.3709 2634.7805,-348.6939"/>
<polygon fill="#191970" stroke="#191970" points="2636.5037,-351.7476 2643.9567,-344.2174 2633.4345,-345.4563 2636.5037,-351.7476"/>
</g>
<!-- Node94 -->
<g id="node49" class="node">
<title>Node94</title>
<g id="a_node49"><a xlink:href="Planet_2CInterface_8h.html" target="_top" xlink:title="Declare C&#45;style functions for working with LockedPlanet instances. ">
<polygon fill="#ffffff" stroke="#000000" points="3340.9259,-323 3340.9259,-344 3468.9259,-344 3468.9259,-323 3340.9259,-323"/>
<text text-anchor="middle" x="3404.9259" y="-330.4" font-family="Helvetica,sans-Serif" font-size="12.00" fill="#000000">../Planet/CInterface.h</text>
</a>
</g>
</g>
<!-- Node85&#45;&gt;Node94 -->
<g id="edge135" class="edge">
<title>Node85&#45;&gt;Node94</title>
<path fill="none" stroke="#191970" d="M2360.7507,-503.4492C2554.0389,-471.9897 3125.6466,-378.9553 3330.6793,-345.5843"/>
<polygon fill="#191970" stroke="#191970" points="3331.4385,-349.0069 3340.7463,-343.9458 3330.3139,-342.0978 3331.4385,-349.0069"/>
</g>
<!-- Node86&#45;&gt;Node3 -->
<g id="edge100" class="edge">
<title>Node86&#45;&gt;Node3</title>
<path fill="none" stroke="#191970" d="M2064.9103,-322.9636C2077.8824,-276.76 2128.1343,-93.3692 2114.9259,-71 2106.9446,-57.4832 2094.1923,-47.1471 2080.5226,-39.3375"/>
<polygon fill="#191970" stroke="#191970" points="2081.9275,-36.1218 2071.448,-34.5623 2078.6677,-42.3165 2081.9275,-36.1218"/>
</g>
<!-- Node86&#45;&gt;Node24 -->
<g id="edge102" class="edge">
<title>Node86&#45;&gt;Node24</title>
<path fill="none" stroke="#191970" d="M1999.2446,-330.9673C1876.2407,-325.5018 1594.7648,-310.5492 1359.9259,-280 1219.1953,-261.693 1179.9144,-268.7689 1045.9259,-222 994.1156,-203.9155 965.1817,-211.0422 936.9259,-164 925.8139,-145.4999 928.5589,-120.1671 932.6489,-102.5744"/>
<polygon fill="#191970" stroke="#191970" points="936.0737,-103.3143 935.2575,-92.751 929.3082,-101.5177 936.0737,-103.3143"/>
</g>
<!-- Node86&#45;&gt;Node15 -->
<g id="edge103" class="edge">
<title>Node86&#45;&gt;Node15</title>
<path fill="none" stroke="#191970" d="M1999.2243,-332.6572C1848.4281,-330.0042 1475.0236,-319.4765 1435.9259,-280 1388.8168,-232.4344 1404.5478,-143.0965 1414.8892,-102.7322"/>
<polygon fill="#191970" stroke="#191970" points="1418.3068,-103.5023 1417.5452,-92.9348 1411.5506,-101.6707 1418.3068,-103.5023"/>
</g>
<!-- Node86&#45;&gt;Node72 -->
<g id="edge101" class="edge">
<title>Node86&#45;&gt;Node72</title>
<path fill="none" stroke="#191970" d="M2100.8573,-322.9934C2142.1759,-311.8426 2207.5487,-294.2001 2252.2443,-282.1379"/>
<polygon fill="#191970" stroke="#191970" points="2253.2685,-285.4868 2262.0112,-279.5021 2251.4446,-278.7286 2253.2685,-285.4868"/>
</g>
<!-- Node87&#45;&gt;Node3 -->
<g id="edge105" class="edge">
<title>Node87&#45;&gt;Node3</title>
<path fill="none" stroke="#191970" d="M2709.2443,-331.9678C2829.5454,-326.5449 3158.9259,-303.2719 3158.9259,-211 3158.9259,-211 3158.9259,-211 3158.9259,-146.5 3158.9259,-41.262 2382.6285,-21.8665 2110.6805,-18.3006"/>
<polygon fill="#191970" stroke="#191970" points="2110.4864,-14.798 2100.4428,-18.1708 2110.3976,-21.7974 2110.4864,-14.798"/>
</g>
<!-- Node87&#45;&gt;Node16 -->
<g id="edge127" class="edge">
<title>Node87&#45;&gt;Node16</title>
<path fill="none" stroke="#191970" d="M2622.8426,-330.8251C2566.3727,-327.3343 2464.2407,-321.0727 2376.9259,-316 2233.1682,-307.6481 1867.5145,-322.4904 1729.9259,-280 1584.9317,-235.2226 1598.8614,-132.0351 1459.9259,-71 1383.1522,-37.2729 1130.1409,-23.34 1030.1298,-19.0597"/>
<polygon fill="#191970" stroke="#191970" points="1030.2386,-15.5613 1020.1013,-18.6411 1029.9466,-22.5552 1030.2386,-15.5613"/>
</g>
<!-- Node87&#45;&gt;Node12 -->
<g id="edge123" class="edge">
<title>Node87&#45;&gt;Node12</title>
<path fill="none" stroke="#191970" d="M2622.8538,-330.619C2566.396,-326.9052 2464.277,-320.403 2376.9259,-316 2277.6381,-310.9953 1577.6608,-310.1398 1482.9259,-280 1361.4449,-241.351 1241.8407,-140.479 1196.7378,-99.5938"/>
<polygon fill="#191970" stroke="#191970" points="1198.9369,-96.8617 1189.1995,-92.6863 1194.2077,-102.0227 1198.9369,-96.8617"/>
</g>
<!-- Node87&#45;&gt;Node43 -->
<g id="edge126" class="edge">
<title>Node87&#45;&gt;Node43</title>
<path fill="none" stroke="#191970" d="M2622.8555,-330.5845C2566.3996,-326.8334 2464.2826,-320.2908 2376.9259,-316 1952.6915,-295.1622 1844.75,-320.3595 1421.9259,-280 1253.1661,-263.8915 1211.5521,-253.2264 1044.9259,-222 927.703,-200.032 894.7561,-205.4465 782.9259,-164 735.4979,-146.4222 684.4954,-116.6472 654.991,-98.2236"/>
<polygon fill="#191970" stroke="#191970" points="656.5227,-95.0514 646.1988,-92.6706 652.7847,-100.9698 656.5227,-95.0514"/>
</g>
<!-- Node87&#45;&gt;Node15 -->
<g id="edge131" class="edge">
<title>Node87&#45;&gt;Node15</title>
<path fill="none" stroke="#191970" d="M2622.8529,-330.6371C2566.3941,-326.943 2464.274,-320.4619 2376.9259,-316 2328.8914,-313.5463 1551.8706,-306.7911 1511.9259,-280 1450.3357,-238.6912 1429.7113,-144.549 1423.4281,-102.707"/>
<polygon fill="#191970" stroke="#191970" points="1426.868,-102.0295 1422.0411,-92.5982 1419.933,-102.9812 1426.868,-102.0295"/>
</g>
<!-- Node87&#45;&gt;Node11 -->
<g id="edge107" class="edge">
<title>Node87&#45;&gt;Node11</title>
<path fill="none" stroke="#191970" d="M2622.8416,-330.8428C2566.3706,-327.3711 2464.2373,-321.1302 2376.9259,-316 2341.8184,-313.9372 1769.076,-305.5649 1744.9259,-280 1711.8688,-245.0063 1762.3075,-191.1055 1793.0554,-163.7306"/>
<polygon fill="#191970" stroke="#191970" points="1795.4882,-166.2538 1800.7532,-157.0597 1790.9038,-160.9638 1795.4882,-166.2538"/>
</g>
<!-- Node87&#45;&gt;Node14 -->
<g id="edge132" class="edge">
<title>Node87&#45;&gt;Node14</title>
<path fill="none" stroke="#191970" d="M2708.9525,-328.7317C2783.8656,-320.0219 2934.9418,-300.5368 2983.9259,-280 3030.2984,-260.5582 3094.1933,-240.1532 3063.9259,-200 3017.1769,-137.9821 2772.6887,-98.6418 2684.056,-86.2354"/>
<polygon fill="#191970" stroke="#191970" points="2684.4276,-82.7536 2674.0435,-84.8562 2683.4723,-89.6881 2684.4276,-82.7536"/>
</g>
<!-- Node87&#45;&gt;Node22 -->
<g id="edge130" class="edge">
<title>Node87&#45;&gt;Node22</title>
<path fill="none" stroke="#191970" d="M2668.2803,-322.7723C2672.8927,-299.1736 2681.0141,-241.5539 2660.9259,-200 2634.536,-145.4105 2569.3119,-112.7138 2524.8147,-96.0268"/>
<polygon fill="#191970" stroke="#191970" points="2525.9722,-92.7236 2515.378,-92.6099 2523.589,-99.3055 2525.9722,-92.7236"/>
</g>
<!-- Node87&#45;&gt;Node27 -->
<g id="edge106" class="edge">
<title>Node87&#45;&gt;Node27</title>
<path fill="none" stroke="#191970" d="M2663.5412,-322.8188C2654.9649,-287.2898 2622.0167,-172.858 2544.9259,-129 2522.7901,-116.4066 2463.5963,-103.4485 2414.8043,-94.3363"/>
<polygon fill="#191970" stroke="#191970" points="2415.3522,-90.8784 2404.8836,-92.5091 2414.0842,-97.7626 2415.3522,-90.8784"/>
</g>
<!-- Node87&#45;&gt;Node35 -->
<g id="edge124" class="edge">
<title>Node87&#45;&gt;Node35</title>
<path fill="none" stroke="#191970" d="M2673.651,-322.9085C2680.9911,-312.4415 2691.9193,-295.7548 2698.9259,-280 2715.9248,-241.7769 2727.7775,-194.1462 2733.6639,-167.3475"/>
<polygon fill="#191970" stroke="#191970" points="2737.1597,-167.7355 2735.819,-157.2259 2730.3131,-166.2777 2737.1597,-167.7355"/>
</g>
<!-- Node87&#45;&gt;Node71 -->
<g id="edge108" class="edge">
<title>Node87&#45;&gt;Node71</title>
<path fill="none" stroke="#191970" d="M2659.1635,-322.9541C2652.357,-312.2438 2641.6465,-295.1272 2632.9259,-280 2612.7656,-245.0287 2620.1414,-226.7668 2589.9259,-200 2568.3174,-180.8578 2539.0749,-168.1887 2513.1557,-160.0086"/>
<polygon fill="#191970" stroke="#191970" points="2513.9912,-156.6053 2503.4074,-157.0892 2511.9829,-163.3111 2513.9912,-156.6053"/>
</g>
<!-- Node87&#45;&gt;Node72 -->
<g id="edge109" class="edge">
<title>Node87&#45;&gt;Node72</title>
<path fill="none" stroke="#191970" d="M2622.6223,-325.8477C2560.4,-314.8523 2445.0289,-294.4648 2370.6882,-281.3278"/>
<polygon fill="#191970" stroke="#191970" points="2370.937,-277.8177 2360.4805,-279.524 2369.7188,-284.7109 2370.937,-277.8177"/>
</g>
<!-- Node87&#45;&gt;Node66 -->
<g id="edge110" class="edge">
<title>Node87&#45;&gt;Node66</title>
<path fill="none" stroke="#191970" d="M2709.0303,-332.349C2784.0346,-329.3385 2933.657,-318.5326 2965.9259,-280 2976.9469,-266.8397 2975.0091,-246.8056 2971.1635,-231.7093"/>
<polygon fill="#191970" stroke="#191970" points="2974.4054,-230.3345 2968.1842,-221.7586 2967.6996,-232.3423 2974.4054,-230.3345"/>
</g>
<!-- Node87&#45;&gt;Node74 -->
<g id="edge129" class="edge">
<title>Node87&#45;&gt;Node74</title>
<path fill="none" stroke="#191970" d="M2627.7505,-322.9476C2604.4206,-314.715 2575.58,-301.0713 2556.9259,-280 2545.001,-266.5299 2538.9227,-246.8036 2535.873,-231.8893"/>
<polygon fill="#191970" stroke="#191970" points="2539.2463,-230.858 2534.0846,-221.6056 2532.3498,-232.0574 2539.2463,-230.858"/>
</g>
<!-- Node87&#45;&gt;Node75 -->
<g id="edge128" class="edge">
<title>Node87&#45;&gt;Node75</title>
<path fill="none" stroke="#191970" d="M2709.0228,-331.8656C2780.77,-328.1398 2919.8217,-316.3047 2949.9259,-280 2956.1672,-272.4733 2955.6917,-265.8969 2949.9259,-258 2939.4194,-243.6103 2900.1546,-231.4868 2864.8481,-223.1586"/>
<polygon fill="#191970" stroke="#191970" points="2865.5506,-219.7289 2855.0219,-220.9115 2863.99,-226.5528 2865.5506,-219.7289"/>
</g>
<!-- Node88 -->
<g id="node43" class="node">
<title>Node88</title>
<g id="a_node43"><a xlink:href="ExternalStoppingConditions_8h.html" target="_top" xlink:title="Users can define any stopping condition they wish the evolution to search for in this file...">
<polygon fill="#ffffff" stroke="#ff0000" points="3186.9259,-200.5 3186.9259,-221.5 3362.9259,-221.5 3362.9259,-200.5 3186.9259,-200.5"/>
<text text-anchor="middle" x="3274.9259" y="-207.9" font-family="Helvetica,sans-Serif" font-size="12.00" fill="#000000">ExternalStoppingConditions.h</text>
</a>
</g>
</g>
<!-- Node87&#45;&gt;Node88 -->
<g id="edge111" class="edge">
<title>Node87&#45;&gt;Node88</title>
<path fill="none" stroke="#191970" d="M2709.2943,-331.6244C2815.8568,-326.5855 3088.014,-310.9901 3172.9259,-280 3204.7665,-268.3792 3236.2893,-244.6886 3255.6762,-228.3346"/>
<polygon fill="#191970" stroke="#191970" points="3258.1695,-230.8058 3263.4474,-221.6191 3253.5926,-225.5093 3258.1695,-230.8058"/>
</g>
<!-- Node89 -->
<g id="node44" class="node">
<title>Node89</title>
<g id="a_node44"><a xlink:href="StopInformation_8h.html" target="_top" xlink:title="Declares the StopInformation class. ">
<polygon fill="#ffffff" stroke="#ff0000" points="3239.9259,-258.5 3239.9259,-279.5 3349.9259,-279.5 3349.9259,-258.5 3239.9259,-258.5"/>
<text text-anchor="middle" x="3294.9259" y="-265.9" font-family="Helvetica,sans-Serif" font-size="12.00" fill="#000000">StopInformation.h</text>
</a>
</g>
</g>
<!-- Node87&#45;&gt;Node89 -->
<g id="edge113" class="edge">
<title>Node87&#45;&gt;Node89</title>
<path fill="none" stroke="#191970" d="M2708.9679,-329.8533C2801.492,-321.8923 3026.1679,-301.9063 3213.9259,-280 3218.9939,-279.4087 3224.2359,-278.7665 3229.5033,-278.0994"/>
<polygon fill="#191970" stroke="#191970" points="3230.1552,-281.5444 3239.6247,-276.7927 3229.2588,-274.602 3230.1552,-281.5444"/>
</g>
<!-- Node90 -->
<g id="node45" class="node">
<title>Node90</title>
<g id="a_node45"><a xlink:href="StopHistoryInterval_8h.html" target="_top" xlink:title="Declares the StopHistoryInterval class. ">
<polygon fill="#ffffff" stroke="#ff0000" points="1629.9259,-136 1629.9259,-157 1757.9259,-157 1757.9259,-136 1629.9259,-136"/>
<text text-anchor="middle" x="1693.9259" y="-143.4" font-family="Helvetica,sans-Serif" font-size="12.00" fill="#000000">StopHistoryInterval.h</text>
</a>
</g>
</g>
<!-- Node87&#45;&gt;Node90 -->
<g id="edge115" class="edge">
<title>Node87&#45;&gt;Node90</title>
<path fill="none" stroke="#191970" d="M2622.8402,-328.9012C2449.548,-310.3052 1810.8696,-240.7743 1771.9259,-222 1744.9358,-208.9884 1721.386,-183.0191 1707.413,-165.2047"/>
<polygon fill="#191970" stroke="#191970" points="1710.1803,-163.0614 1701.3497,-157.2071 1704.6021,-167.2904 1710.1803,-163.0614"/>
</g>
<!-- Node91 -->
<g id="node46" class="node">
<title>Node91</title>
<polygon fill="#ffffff" stroke="#bfbfbf" points="2751.4259,-258.5 2751.4259,-279.5 2804.4259,-279.5 2804.4259,-258.5 2751.4259,-258.5"/>
<text text-anchor="middle" x="2777.9259" y="-265.9" font-family="Helvetica,sans-Serif" font-size="12.00" fill="#000000">math.h</text>
</g>
<!-- Node87&#45;&gt;Node91 -->
<g id="edge122" class="edge">
<title>Node87&#45;&gt;Node91</title>
<path fill="none" stroke="#191970" d="M2684.4204,-322.8491C2702.4161,-312.4855 2729.9751,-296.6145 2750.5184,-284.7838"/>
<polygon fill="#191970" stroke="#191970" points="2752.4849,-287.6903 2759.4039,-279.6667 2748.9915,-281.6243 2752.4849,-287.6903"/>
</g>
<!-- Node92 -->
<g id="node47" class="node">
<title>Node92</title>
<polygon fill="#ffffff" stroke="#bfbfbf" points="2822.4259,-258.5 2822.4259,-279.5 2877.4259,-279.5 2877.4259,-258.5 2822.4259,-258.5"/>
<text text-anchor="middle" x="2849.9259" y="-265.9" font-family="Helvetica,sans-Serif" font-size="12.00" fill="#000000">stdlib.h</text>
</g>
<!-- Node87&#45;&gt;Node92 -->
<g id="edge125" class="edge">
<title>Node87&#45;&gt;Node92</title>
<path fill="none" stroke="#191970" d="M2695.8982,-322.9934C2727.7815,-311.8169 2778.2689,-294.1189 2812.6845,-282.0547"/>
<polygon fill="#191970" stroke="#191970" points="2814.0939,-285.2696 2822.373,-278.6585 2811.7782,-278.6637 2814.0939,-285.2696"/>
</g>
<!-- Node93 -->
<g id="node48" class="node">
<title>Node93</title>
<polygon fill="#ffffff" stroke="#bfbfbf" points="2895.4259,-258.5 2895.4259,-279.5 2940.4259,-279.5 2940.4259,-258.5 2895.4259,-258.5"/>
<text text-anchor="middle" x="2917.9259" y="-265.9" font-family="Helvetica,sans-Serif" font-size="12.00" fill="#000000">ctime</text>
</g>
<!-- Node87&#45;&gt;Node93 -->
<g id="edge133" class="edge">
<title>Node87&#45;&gt;Node93</title>
<path fill="none" stroke="#191970" d="M2709.0568,-324.4454C2751.7582,-315.1734 2819.1333,-299.7196 2885.5403,-280.2278"/>
<polygon fill="#191970" stroke="#191970" points="2886.7371,-283.5236 2895.328,-277.323 2884.7454,-276.8129 2886.7371,-283.5236"/>
</g>
<!-- Node88&#45;&gt;Node3 -->
<g id="edge112" class="edge">
<title>Node88&#45;&gt;Node3</title>
<path fill="none" stroke="#191970" d="M3271.0157,-200.4242C3260.2821,-173.121 3227.4767,-100.3579 3172.9259,-71 3126.4602,-45.9933 2376.9289,-25.9687 2110.7798,-19.6157"/>
<polygon fill="#191970" stroke="#191970" points="2110.8356,-16.1161 2100.7552,-19.3774 2110.6692,-23.1141 2110.8356,-16.1161"/>
</g>
<!-- Node89&#45;&gt;Node3 -->
<g id="edge114" class="edge">
<title>Node89&#45;&gt;Node3</title>
<path fill="none" stroke="#191970" d="M3323.6922,-258.4503C3350.6146,-246.745 3384.8941,-226.0274 3371.9259,-200 3329.4703,-114.7907 3290.4926,-103.2634 3200.9259,-71 3099.6427,-34.516 2372.1887,-21.9192 2110.9929,-18.5445"/>
<polygon fill="#191970" stroke="#191970" points="2110.8206,-15.0421 2100.7767,-18.4141 2110.7312,-22.0415 2110.8206,-15.0421"/>
</g>
<!-- Node90&#45;&gt;Node3 -->
<g id="edge116" class="edge">
<title>Node90&#45;&gt;Node3</title>
<path fill="none" stroke="#191970" d="M1705.5662,-135.7756C1723.9856,-119.381 1761.604,-88.1843 1798.9259,-71 1838.5825,-52.7408 1885.2594,-40.2362 1925.3095,-31.938"/>
<polygon fill="#191970" stroke="#191970" points="1926.2284,-35.3233 1935.3406,-29.918 1924.8465,-28.461 1926.2284,-35.3233"/>
</g>
<!-- Node90&#45;&gt;Node24 -->
<g id="edge117" class="edge">
<title>Node90&#45;&gt;Node24</title>
<path fill="none" stroke="#191970" d="M1629.8807,-141.0286C1477.2873,-127.9925 1096.0381,-95.4222 975.835,-85.1532"/>
<polygon fill="#191970" stroke="#191970" points="975.9399,-81.6495 965.6782,-84.2855 975.344,-88.6241 975.9399,-81.6495"/>
</g>
<!-- Node90&#45;&gt;Node12 -->
<g id="edge118" class="edge">
<title>Node90&#45;&gt;Node12</title>
<path fill="none" stroke="#191970" d="M1629.8773,-138.4939C1515.9396,-124.2517 1282.648,-95.0903 1204.2724,-85.2933"/>
<polygon fill="#191970" stroke="#191970" points="1204.6268,-81.8105 1194.2699,-84.043 1203.7585,-88.7564 1204.6268,-81.8105"/>
</g>
<!-- Node90&#45;&gt;Node23 -->
<g id="edge120" class="edge">
<title>Node90&#45;&gt;Node23</title>
<path fill="none" stroke="#191970" d="M1718.8485,-135.9934C1744.2991,-125.2642 1784.0058,-108.5251 1812.4603,-96.5296"/>
<polygon fill="#191970" stroke="#191970" points="1814.1589,-99.6119 1822.014,-92.5021 1811.4397,-93.1616 1814.1589,-99.6119"/>
</g>
<!-- Node90&#45;&gt;Node53 -->
<g id="edge121" class="edge">
<title>Node90&#45;&gt;Node53</title>
<path fill="none" stroke="#191970" d="M1736.062,-135.9139C1746.444,-133.4776 1757.5584,-131.0135 1767.9259,-129 1863.6007,-110.4187 1977.175,-94.7107 2036.0566,-87.0362"/>
<polygon fill="#191970" stroke="#191970" points="2036.5875,-90.4968 2046.0554,-85.7419 2035.6888,-83.5547 2036.5875,-90.4968"/>
</g>
<!-- Node90&#45;&gt;Node60 -->
<g id="edge119" class="edge">
<title>Node90&#45;&gt;Node60</title>
<path fill="none" stroke="#191970" d="M1731.8005,-135.923C1768.1417,-125.7547 1824.8282,-109.8431 1882.435,-93.4149"/>
<polygon fill="#191970" stroke="#191970" points="1883.4058,-96.7777 1892.0611,-90.6674 1881.4845,-90.0465 1883.4058,-96.7777"/>
</g>
<!-- Node94&#45;&gt;Node3 -->
<g id="edge136" class="edge">
<title>Node94&#45;&gt;Node3</title>
<path fill="none" stroke="#191970" d="M3414.6134,-322.9404C3432.0509,-302.789 3466.9259,-256.7654 3466.9259,-211 3466.9259,-211 3466.9259,-211 3466.9259,-146.5 3466.9259,-59.7476 3371.5941,-89.9019 3286.9259,-71 3173.3828,-45.6519 2384.6653,-25.7387 2111.1087,-19.5256"/>
<polygon fill="#191970" stroke="#191970" points="2110.8908,-16.0199 2100.8141,-19.2928 2110.7324,-23.0181 2110.8908,-16.0199"/>
</g>
<!-- Node95 -->
<g id="node50" class="node">
<title>Node95</title>
<g id="a_node50"><a xlink:href="Planet_8h.html" target="_top" xlink:title="Declares a class for planets that are always locked to the orbit. ">
<polygon fill="#ffffff" stroke="#ff0000" points="3374.4259,-258.5 3374.4259,-279.5 3435.4259,-279.5 3435.4259,-258.5 3374.4259,-258.5"/>
<text text-anchor="middle" x="3404.9259" y="-265.9" font-family="Helvetica,sans-Serif" font-size="12.00" fill="#000000">Planet.h</text>
</a>
</g>
</g>
<!-- Node94&#45;&gt;Node95 -->
<g id="edge137" class="edge">
<title>Node94&#45;&gt;Node95</title>
<path fill="none" stroke="#191970" d="M3404.9259,-322.8491C3404.9259,-313.9397 3404.9259,-300.9599 3404.9259,-289.9761"/>
<polygon fill="#191970" stroke="#191970" points="3408.426,-289.8822 3404.9259,-279.8823 3401.426,-289.8823 3408.426,-289.8822"/>
</g>
<!-- Node95&#45;&gt;Node3 -->
<g id="edge138" class="edge">
<title>Node95&#45;&gt;Node3</title>
<path fill="none" stroke="#191970" d="M3403.6103,-258.3418C3399.9037,-232.679 3387.1034,-166.7892 3349.9259,-129 3311.9899,-90.4399 3295.0563,-85.4379 3242.9259,-71 3135.0686,-41.1281 2377.7715,-24.2315 2110.8062,-19.1505"/>
<polygon fill="#191970" stroke="#191970" points="2110.818,-15.6502 2100.7535,-18.9603 2110.6855,-22.6489 2110.818,-15.6502"/>
</g>
<!-- Node95&#45;&gt;Node56 -->
<g id="edge139" class="edge">
<title>Node95&#45;&gt;Node56</title>
<path fill="none" stroke="#191970" d="M3374.4015,-260.8256C3369.2672,-259.7031 3363.9688,-258.698 3358.9259,-258 3345.6829,-256.167 2559.5996,-225.2737 2286.8968,-214.5961"/>
<polygon fill="#191970" stroke="#191970" points="2286.7638,-211.0883 2276.6345,-214.1943 2286.4899,-218.0829 2286.7638,-211.0883"/>
</g>
</g>
</svg>
