<?xml version="1.0" encoding="UTF-8" standalone="no"?>
<!DOCTYPE svg PUBLIC "-//W3C//DTD SVG 1.1//EN"
 "http://www.w3.org/Graphics/SVG/1.1/DTD/svg11.dtd">
<!-- Generated by graphviz version 2.40.1 (20161225.0304)
 -->
<!-- Title: /Users/kpenev/projects/git/poet/poet_src/Star/CInterface.h Pages: 1 -->
<svg width="475pt" height="215pt"
 viewBox="0.00 0.00 474.73 215.00" xmlns="http://www.w3.org/2000/svg" xmlns:xlink="http://www.w3.org/1999/xlink">
<g id="graph0" class="graph" transform="scale(1 1) rotate(0) translate(4 211)">
<title>/Users/kpenev/projects/git/poet/poet_src/Star/CInterface.h</title>
<polygon fill="#ffffff" stroke="transparent" points="-4,4 -4,-211 470.7295,-211 470.7295,4 -4,4"/>
<!-- Node82 -->
<g id="node1" class="node">
<title>Node82</title>
<polygon fill="#bfbfbf" stroke="#000000" points="248.6787,-162.5 248.6787,-206.5 386.7295,-206.5 386.7295,-162.5 248.6787,-162.5"/>
<text text-anchor="start" x="256.6787" y="-192.9" font-family="Helvetica,sans-Serif" font-size="12.00" fill="#000000">/Users/kpenev/projects</text>
<text text-anchor="start" x="256.6787" y="-180.9" font-family="Helvetica,sans-Serif" font-size="12.00" fill="#000000">/git/poet/poet_src/Star</text>
<text text-anchor="middle" x="317.7041" y="-168.9" font-family="Helvetica,sans-Serif" font-size="12.00" fill="#000000">/CInterface.h</text>
</g>
<!-- Node83 -->
<g id="node2" class="node">
<title>Node83</title>
<g id="a_node2"><a xlink:href="Evolve_2CInterface_8h.html" target="_top" xlink:title="Declare C&#45;style functions for accessing the functionality of the Evolve library. ">
<polygon fill="#ffffff" stroke="#000000" points="193,-81.5 193,-125.5 340.4082,-125.5 340.4082,-81.5 193,-81.5"/>
<text text-anchor="start" x="201" y="-111.9" font-family="Helvetica,sans-Serif" font-size="12.00" fill="#000000">/Users/kpenev/projects</text>
<text text-anchor="start" x="201" y="-99.9" font-family="Helvetica,sans-Serif" font-size="12.00" fill="#000000">/git/poet/poet_src/Evolve</text>
<text text-anchor="middle" x="266.7041" y="-87.9" font-family="Helvetica,sans-Serif" font-size="12.00" fill="#000000">/CInterface.h</text>
</a>
</g>
</g>
<!-- Node82&#45;&gt;Node83 -->
<g id="edge1" class="edge">
<title>Node82&#45;&gt;Node83</title>
<path fill="none" stroke="#191970" d="M298.3097,-153.6971C292.4228,-144.3474 286.0747,-134.2651 280.6232,-125.6068"/>
<polygon fill="#191970" stroke="#191970" points="295.4781,-155.7689 303.7681,-162.3664 301.4018,-152.0392 295.4781,-155.7689"/>
</g>
<!-- Node86 -->
<g id="node5" class="node">
<title>Node86</title>
<g id="a_node5"><a xlink:href="Star_2CInterface_8cpp.html" target="_top" xlink:title="The definitions of the functions declared in CInterface.h. ">
<polygon fill="#ffffff" stroke="#000000" points="328.6787,-.5 328.6787,-44.5 466.7295,-44.5 466.7295,-.5 328.6787,-.5"/>
<text text-anchor="start" x="336.6787" y="-30.9" font-family="Helvetica,sans-Serif" font-size="12.00" fill="#000000">/Users/kpenev/projects</text>
<text text-anchor="start" x="336.6787" y="-18.9" font-family="Helvetica,sans-Serif" font-size="12.00" fill="#000000">/git/poet/poet_src/Star</text>
<text text-anchor="middle" x="397.7041" y="-6.9" font-family="Helvetica,sans-Serif" font-size="12.00" fill="#000000">/CInterface.cpp</text>
</a>
</g>
</g>
<!-- Node82&#45;&gt;Node86 -->
<g id="edge5" class="edge">
<title>Node82&#45;&gt;Node86</title>
<path fill="none" stroke="#191970" d="M335.0998,-153.6077C339.9485,-144.7558 345.1361,-135.051 349.7041,-126 363.7153,-98.2382 378.5943,-65.6002 388.007,-44.5085"/>
<polygon fill="#191970" stroke="#191970" points="331.9813,-152.0148 330.2098,-162.4605 338.1086,-155.3994 331.9813,-152.0148"/>
</g>
<!-- Node84 -->
<g id="node3" class="node">
<title>Node84</title>
<g id="a_node3"><a xlink:href="Evolve_2CInterface_8cpp.html" target="_top" xlink:title="The definitions of the functions declared in CInterface.h. ">
<polygon fill="#ffffff" stroke="#000000" points="0,-.5 0,-44.5 147.4082,-44.5 147.4082,-.5 0,-.5"/>
<text text-anchor="start" x="8" y="-30.9" font-family="Helvetica,sans-Serif" font-size="12.00" fill="#000000">/Users/kpenev/projects</text>
<text text-anchor="start" x="8" y="-18.9" font-family="Helvetica,sans-Serif" font-size="12.00" fill="#000000">/git/poet/poet_src/Evolve</text>
<text text-anchor="middle" x="73.7041" y="-6.9" font-family="Helvetica,sans-Serif" font-size="12.00" fill="#000000">/CInterface.cpp</text>
</a>
</g>
</g>
<!-- Node83&#45;&gt;Node84 -->
<g id="edge2" class="edge">
<title>Node83&#45;&gt;Node84</title>
<path fill="none" stroke="#191970" d="M204.7134,-77.4832C179.3944,-66.8571 150.4252,-54.699 126.1768,-44.5222"/>
<polygon fill="#191970" stroke="#191970" points="203.6456,-80.8307 214.2209,-81.4734 206.3546,-74.3761 203.6456,-80.8307"/>
</g>
<!-- Node85 -->
<g id="node4" class="node">
<title>Node85</title>
<g id="a_node4"><a xlink:href="Planet_2CInterface_8cpp.html" target="_top" xlink:title="The definitions of the functions declared in CInterface.h. ">
<polygon fill="#ffffff" stroke="#000000" points="164.9961,-.5 164.9961,-44.5 310.4121,-44.5 310.4121,-.5 164.9961,-.5"/>
<text text-anchor="start" x="172.9961" y="-30.9" font-family="Helvetica,sans-Serif" font-size="12.00" fill="#000000">/Users/kpenev/projects</text>
<text text-anchor="start" x="172.9961" y="-18.9" font-family="Helvetica,sans-Serif" font-size="12.00" fill="#000000">/git/poet/poet_src/Planet</text>
<text text-anchor="middle" x="237.7041" y="-6.9" font-family="Helvetica,sans-Serif" font-size="12.00" fill="#000000">/CInterface.cpp</text>
</a>
</g>
</g>
<!-- Node83&#45;&gt;Node85 -->
<g id="edge3" class="edge">
<title>Node83&#45;&gt;Node85</title>
<path fill="none" stroke="#191970" d="M255.3646,-71.8276C252.1057,-62.7251 248.6229,-52.9973 245.6189,-44.6068"/>
<polygon fill="#191970" stroke="#191970" points="252.1138,-73.1314 258.7797,-81.3664 258.7041,-70.7718 252.1138,-73.1314"/>
</g>
<!-- Node83&#45;&gt;Node86 -->
<g id="edge4" class="edge">
<title>Node83&#45;&gt;Node86</title>
<path fill="none" stroke="#191970" d="M311.4276,-75.8465C327.9144,-65.6524 346.3602,-54.247 361.9511,-44.6068"/>
<polygon fill="#191970" stroke="#191970" points="309.1652,-73.1304 302.5004,-81.3664 312.8466,-79.0842 309.1652,-73.1304"/>
</g>
</g>
</svg>
