<?xml version="1.0" encoding="UTF-8" standalone="no"?>
<!DOCTYPE svg PUBLIC "-//W3C//DTD SVG 1.1//EN"
 "http://www.w3.org/Graphics/SVG/1.1/DTD/svg11.dtd">
<!-- Generated by graphviz version 2.40.1 (20161225.0304)
 -->
<!-- Title: /Users/kpenev/projects/git/poet/poet_src/Star/CInterface.cpp Pages: 1 -->
<!--zoomable 602 -->
<svg id="main" version="1.1" xmlns="http://www.w3.org/2000/svg" xmlns:xlink="http://www.w3.org/1999/xlink" xml:space="preserve" onload="init(evt)">
<style type="text/css"><![CDATA[
.edge:hover path { stroke: red; }
.edge:hover polygon { stroke: red; fill: red; }
]]></style>
<script type="text/javascript"><![CDATA[
var edges = document.getElementsByTagName('g');
if (edges && edges.length) {
  for (var i=0;i<edges.length;i++) {
    if (edges[i].id.substr(0,4)=='edge') {
      edges[i].setAttribute('class','edge');
    }
  }
}
]]></script>
        <defs>
                <circle id="rim" cx="0" cy="0" r="7"/>
                <circle id="rim2" cx="0" cy="0" r="3.5"/>
                <g id="zoomPlus">
                        <use xlink:href="#rim" fill="#404040">
                                <set attributeName="fill" to="#808080" begin="zoomplus.mouseover" end="zoomplus.mouseout"/>
                        </use>
                        <path d="M-4,0h8M0,-4v8" fill="none" stroke="white" stroke-width="1.5" pointer-events="none"/>
                </g>
                <g id="zoomMin">
                        <use xlink:href="#rim" fill="#404040">
                                <set attributeName="fill" to="#808080" begin="zoomminus.mouseover" end="zoomminus.mouseout"/>
                        </use>
                        <path d="M-4,0h8" fill="none" stroke="white" stroke-width="1.5" pointer-events="none"/>
                </g>
                <g id="dirArrow">
                        <path fill="none" stroke="white" stroke-width="1.5" d="M0,-3.0v7 M-2.5,-0.5L0,-3.0L2.5,-0.5"/>
                </g>
               <g id="resetDef">
                       <use xlink:href="#rim2" fill="#404040">
                               <set attributeName="fill" to="#808080" begin="reset.mouseover" end="reset.mouseout"/>
                       </use>
               </g>
        </defs>

<script type="text/javascript">
var viewWidth = 3750;
var viewHeight = 602;
var sectionId = 'dynsection-0';
</script>
<script xlink:href="svgpan.js"/>
<svg id="graph" class="graph">
<g id="viewport">
<title>/Users/kpenev/projects/git/poet/poet_src/Star/CInterface.cpp</title>
<polygon fill="#ffffff" stroke="transparent" points="-4,4 -4,-598 3746.3434,-598 3746.3434,4 -4,4"/>
<!-- Node0 -->
<g id="node1" class="node">
<title>Node0</title>
<polygon fill="#bfbfbf" stroke="#000000" points="2733.318,-549.5 2733.318,-593.5 2871.3687,-593.5 2871.3687,-549.5 2733.318,-549.5"/>
<text text-anchor="start" x="2741.318" y="-579.9" font-family="Helvetica,sans-Serif" font-size="12.00" fill="#000000">/Users/kpenev/projects</text>
<text text-anchor="start" x="2741.318" y="-567.9" font-family="Helvetica,sans-Serif" font-size="12.00" fill="#000000">/git/poet/poet_src/Star</text>
<text text-anchor="middle" x="2802.3434" y="-555.9" font-family="Helvetica,sans-Serif" font-size="12.00" fill="#000000">/CInterface.cpp</text>
</g>
<!-- Node1 -->
<g id="node2" class="node">
<title>Node1</title>
<g id="a_node2"><a xlink:href="Star_2CInterface_8h.html" target="_top" xlink:title="Declare C&#45;style functions for accessing the functionality of the Star library. ">
<polygon fill="#ffffff" stroke="#000000" points="2689.6598,-435.5 2689.6598,-455.5 2771.0269,-455.5 2771.0269,-435.5 2689.6598,-435.5"/>
<text text-anchor="middle" x="2730.3434" y="-441.9" font-family="Helvetica,sans-Serif" font-size="12.00" fill="#000000">CInterface.h</text>
</a>
</g>
</g>
<!-- Node0&#45;&gt;Node1 -->
<g id="edge1" class="edge">
<title>Node0&#45;&gt;Node1</title>
<path fill="none" stroke="#191970" d="M2789.6369,-549.2638C2775.8605,-525.1549 2754.1083,-487.0886 2741.132,-464.3801"/>
<polygon fill="#191970" stroke="#191970" points="2744.1571,-462.6196 2736.1568,-455.6736 2738.0794,-466.0926 2744.1571,-462.6196"/>
</g>
<!-- Node83 -->
<g id="node41" class="node">
<title>Node83</title>
<g id="a_node41"><a xlink:href="Evolve_2CInterface_8h.html" target="_top" xlink:title="Declare C&#45;style functions for accessing the functionality of the Evolve library. ">
<polygon fill="#ffffff" stroke="#000000" points="2796.983,-492.5 2796.983,-512.5 2927.7037,-512.5 2927.7037,-492.5 2796.983,-492.5"/>
<text text-anchor="middle" x="2862.3434" y="-498.9" font-family="Helvetica,sans-Serif" font-size="12.00" fill="#000000">../Evolve/CInterface.h</text>
</a>
</g>
</g>
<!-- Node0&#45;&gt;Node83 -->
<g id="edge99" class="edge">
<title>Node0&#45;&gt;Node83</title>
<path fill="none" stroke="#191970" d="M2821.658,-549.2882C2829.7578,-539.9734 2839.053,-529.2839 2846.7122,-520.4758"/>
<polygon fill="#191970" stroke="#191970" points="2849.5412,-522.5564 2853.4619,-512.7137 2844.259,-517.9631 2849.5412,-522.5564"/>
</g>
<!-- Node2 -->
<g id="node3" class="node">
<title>Node2</title>
<g id="a_node3"><a xlink:href="StellarEvolution_2CInterface_8h.html" target="_top" xlink:title="Declare C&#45;style functions for accessing the functionality of the StellarEvolution library...">
<polygon fill="#ffffff" stroke="#000000" points="1440.6529,-309.5 1440.6529,-341.5 1550.0338,-341.5 1550.0338,-309.5 1440.6529,-309.5"/>
<text text-anchor="start" x="1448.6529" y="-327.9" font-family="Helvetica,sans-Serif" font-size="12.00" fill="#000000">../StellarEvolution</text>
<text text-anchor="middle" x="1495.3434" y="-315.9" font-family="Helvetica,sans-Serif" font-size="12.00" fill="#000000">/CInterface.h</text>
</a>
</g>
</g>
<!-- Node1&#45;&gt;Node2 -->
<g id="edge2" class="edge">
<title>Node1&#45;&gt;Node2</title>
<path fill="none" stroke="#191970" d="M2689.5404,-444.7391C2489.1248,-440.8924 1616.5183,-422.8284 1564.3434,-399 1541.7027,-388.66 1522.9234,-367.1264 1510.7022,-350.0264"/>
<polygon fill="#191970" stroke="#191970" points="1513.4556,-347.8521 1504.9233,-341.5711 1507.6764,-351.802 1513.4556,-347.8521"/>
</g>
<!-- Node3 -->
<g id="node4" class="node">
<title>Node3</title>
<g id="a_node4"><a xlink:href="SharedLibraryExportMacros_8h_source.html" target="_top" xlink:title="../Core/SharedLibraryExport\lMacros.h">
<polygon fill="#ffffff" stroke="#000000" points="2164.6422,-.5 2164.6422,-32.5 2330.0445,-32.5 2330.0445,-.5 2164.6422,-.5"/>
<text text-anchor="start" x="2172.6422" y="-18.9" font-family="Helvetica,sans-Serif" font-size="12.00" fill="#000000">../Core/SharedLibraryExport</text>
<text text-anchor="middle" x="2247.3434" y="-6.9" font-family="Helvetica,sans-Serif" font-size="12.00" fill="#000000">Macros.h</text>
</a>
</g>
</g>
<!-- Node1&#45;&gt;Node3 -->
<g id="edge55" class="edge">
<title>Node1&#45;&gt;Node3</title>
<path fill="none" stroke="#191970" d="M2771.1627,-442.6254C2922.6991,-431.1479 3450.359,-383.7555 3569.3434,-273 3592.1556,-251.7654 3588.3434,-236.6658 3588.3434,-205.5 3588.3434,-205.5 3588.3434,-205.5 3588.3434,-142.5 3588.3434,-41.0943 3471.9753,-87.8834 3372.3434,-69 3175.4807,-31.6882 2572.7567,-20.4697 2340.2157,-17.4792"/>
<polygon fill="#191970" stroke="#191970" points="2340.1361,-13.978 2330.0926,-17.3512 2340.0476,-20.9775 2340.1361,-13.978"/>
</g>
<!-- Node54 -->
<g id="node27" class="node">
<title>Node54</title>
<g id="a_node27"><a xlink:href="EvolvingStar_8h.html" target="_top" xlink:title="Declares the class for stars that user pre&#45;tabulated stellar evolution tracks. ">
<polygon fill="#ffffff" stroke="#000000" points="1908.985,-378.5 1908.985,-398.5 2001.7018,-398.5 2001.7018,-378.5 1908.985,-378.5"/>
<text text-anchor="middle" x="1955.3434" y="-384.9" font-family="Helvetica,sans-Serif" font-size="12.00" fill="#000000">EvolvingStar.h</text>
</a>
</g>
</g>
<!-- Node1&#45;&gt;Node54 -->
<g id="edge56" class="edge">
<title>Node1&#45;&gt;Node54</title>
<path fill="none" stroke="#191970" d="M2689.4956,-442.4957C2560.3811,-432.9996 2160.8348,-403.6136 2011.9904,-392.6663"/>
<polygon fill="#191970" stroke="#191970" points="2011.9439,-389.1535 2001.714,-391.9105 2011.4303,-396.1347 2011.9439,-389.1535"/>
</g>
<!-- Node59 -->
<g id="node37" class="node">
<title>Node59</title>
<g id="a_node37"><a xlink:href="DissipationQuantities_8h.html" target="_top" xlink:title="Declaration of enumerations of dissipation quantities and derivatives. ">
<polygon fill="#ffffff" stroke="#000000" points="1798.9781,-132.5 1798.9781,-152.5 1937.7086,-152.5 1937.7086,-132.5 1798.9781,-132.5"/>
<text text-anchor="middle" x="1868.3434" y="-138.9" font-family="Helvetica,sans-Serif" font-size="12.00" fill="#000000">DissipationQuantities.h</text>
</a>
</g>
</g>
<!-- Node1&#45;&gt;Node59 -->
<g id="edge98" class="edge">
<title>Node1&#45;&gt;Node59</title>
<path fill="none" stroke="#191970" d="M2689.5565,-445.0182C2544.3668,-443.0229 2053.2036,-433.7982 1900.3434,-399 1835.6395,-384.2703 1799.2382,-397.1573 1762.3434,-342 1739.8369,-308.3532 1751.1148,-251.1744 1790.3434,-195 1801.6716,-178.7782 1819.7587,-166.1482 1835.6648,-157.3453"/>
<polygon fill="#191970" stroke="#191970" points="1837.4767,-160.3474 1844.7104,-152.6064 1834.2281,-154.1468 1837.4767,-160.3474"/>
</g>
<!-- Node2&#45;&gt;Node3 -->
<g id="edge3" class="edge">
<title>Node2&#45;&gt;Node3</title>
<path fill="none" stroke="#191970" d="M1496.905,-309.246C1501.3124,-271.994 1517.0767,-179.5463 1568.3434,-126 1613.9512,-78.3643 1641.3707,-85.023 1705.3434,-69 1787.9049,-48.3211 2022.4586,-30.7592 2154.3514,-22.1596"/>
<polygon fill="#191970" stroke="#191970" points="2154.6933,-25.6449 2164.4461,-21.5059 2154.2408,-18.6596 2154.6933,-25.6449"/>
</g>
<!-- Node4 -->
<g id="node5" class="node">
<title>Node4</title>
<g id="a_node5"><a xlink:href="MESAIO_8h.html" target="_top" xlink:title="Defines the classes for generating stellar evolution interpolators from the MESA tracks. ">
<polygon fill="#ffffff" stroke="#000000" points="701.0016,-252.5 701.0016,-272.5 773.6852,-272.5 773.6852,-252.5 701.0016,-252.5"/>
<text text-anchor="middle" x="737.3434" y="-258.9" font-family="Helvetica,sans-Serif" font-size="12.00" fill="#000000">MESAIO.h</text>
</a>
</g>
</g>
<!-- Node2&#45;&gt;Node4 -->
<g id="edge4" class="edge">
<title>Node2&#45;&gt;Node4</title>
<path fill="none" stroke="#191970" d="M1440.6413,-321.0047C1330.8241,-311.9724 1075.687,-290.9497 861.3434,-273 835.6501,-270.8484 806.9647,-268.421 783.6603,-266.4425"/>
<polygon fill="#191970" stroke="#191970" points="783.9554,-262.9551 773.695,-265.596 783.3629,-269.93 783.9554,-262.9551"/>
</g>
<!-- Node4&#45;&gt;Node3 -->
<g id="edge5" class="edge">
<title>Node4&#45;&gt;Node3</title>
<path fill="none" stroke="#191970" d="M773.8013,-260.0398C865.2742,-252.9767 1110.8783,-228.4836 1302.3434,-159 1378.6744,-131.2991 1383.5525,-92.2887 1461.3434,-69 1588.5803,-30.9084 1975.1981,-20.3966 2154.365,-17.5416"/>
<polygon fill="#191970" stroke="#191970" points="2154.6168,-21.0382 2164.5614,-17.3838 2154.5084,-14.039 2154.6168,-21.0382"/>
</g>
<!-- Node5 -->
<g id="node6" class="node">
<title>Node5</title>
<g id="a_node6"><a xlink:href="Interpolator_8h.html" target="_top" xlink:title="Defines the StellarEvolution class needed for interpolating among stellar evolution tracks...">
<polygon fill="#ffffff" stroke="#ff0000" points="618.316,-195.5 618.316,-215.5 704.3707,-215.5 704.3707,-195.5 618.316,-195.5"/>
<text text-anchor="middle" x="661.3434" y="-201.9" font-family="Helvetica,sans-Serif" font-size="12.00" fill="#000000">Interpolator.h</text>
</a>
</g>
</g>
<!-- Node4&#45;&gt;Node5 -->
<g id="edge6" class="edge">
<title>Node4&#45;&gt;Node5</title>
<path fill="none" stroke="#191970" d="M723.7561,-252.3095C712.4083,-243.7987 696.0236,-231.5102 682.8892,-221.6594"/>
<polygon fill="#191970" stroke="#191970" points="684.913,-218.8023 674.813,-215.6022 680.713,-224.4023 684.913,-218.8023"/>
</g>
<!-- Node24 -->
<g id="node8" class="node">
<title>Node24</title>
<g id="a_node8"><a xlink:href="Error_8h.html" target="_top" xlink:title="Defines the exception hierarchy used by this code. ">
<polygon fill="#ffffff" stroke="#ff0000" points="888.3346,-69.5 888.3346,-89.5 940.3521,-89.5 940.3521,-69.5 888.3346,-69.5"/>
<text text-anchor="middle" x="914.3434" y="-75.9" font-family="Helvetica,sans-Serif" font-size="12.00" fill="#000000">Error.h</text>
</a>
</g>
</g>
<!-- Node4&#45;&gt;Node24 -->
<g id="edge44" class="edge">
<title>Node4&#45;&gt;Node24</title>
<path fill="none" stroke="#191970" d="M735.4319,-252.4682C731.3313,-227.6978 724.4742,-162.9697 756.3434,-126 772.2206,-107.5817 836.7453,-93.1113 878.2664,-85.4732"/>
<polygon fill="#191970" stroke="#191970" points="879.0565,-88.8875 888.2833,-83.6802 877.8231,-81.997 879.0565,-88.8875"/>
</g>
<!-- Node16 -->
<g id="node9" class="node">
<title>Node16</title>
<polygon fill="#ffffff" stroke="#bfbfbf" points="933.3365,-6.5 933.3365,-26.5 995.3502,-26.5 995.3502,-6.5 933.3365,-6.5"/>
<text text-anchor="middle" x="964.3434" y="-12.9" font-family="Helvetica,sans-Serif" font-size="12.00" fill="#000000">iostream</text>
</g>
<!-- Node4&#45;&gt;Node16 -->
<g id="edge46" class="edge">
<title>Node4&#45;&gt;Node16</title>
<path fill="none" stroke="#191970" d="M700.6007,-261.0641C583.8661,-256.2777 226.4074,-239.8117 180.3434,-216 140.0723,-195.1828 102.4523,-160.0828 132.3434,-126 185.1648,-65.7712 761.3747,-28.2063 922.6278,-18.8201"/>
<polygon fill="#191970" stroke="#191970" points="923.2926,-22.2876 933.0746,-18.2177 922.8897,-15.2992 923.2926,-22.2876"/>
</g>
<!-- Node26 -->
<g id="node10" class="node">
<title>Node26</title>
<polygon fill="#ffffff" stroke="#bfbfbf" points="638.6715,-6.5 638.6715,-26.5 684.0152,-26.5 684.0152,-6.5 638.6715,-6.5"/>
<text text-anchor="middle" x="661.3434" y="-12.9" font-family="Helvetica,sans-Serif" font-size="12.00" fill="#000000">string</text>
</g>
<!-- Node4&#45;&gt;Node26 -->
<g id="edge49" class="edge">
<title>Node4&#45;&gt;Node26</title>
<path fill="none" stroke="#191970" d="M700.859,-261.4588C559.7396,-257.2576 56.3635,-240.5908 33.3434,-216 -11.306,-168.3043 -10.8881,-117.0835 33.3434,-69 73.8773,-24.936 504.2345,-17.8426 628.1409,-16.712"/>
<polygon fill="#191970" stroke="#191970" points="628.5329,-20.2089 638.5032,-16.625 628.4741,-13.2091 628.5329,-20.2089"/>
</g>
<!-- Node43 -->
<g id="node12" class="node">
<title>Node43</title>
<polygon fill="#ffffff" stroke="#bfbfbf" points="642.3394,-69.5 642.3394,-89.5 698.3473,-89.5 698.3473,-69.5 642.3394,-69.5"/>
<text text-anchor="middle" x="670.3434" y="-75.9" font-family="Helvetica,sans-Serif" font-size="12.00" fill="#000000">fstream</text>
</g>
<!-- Node4&#45;&gt;Node43 -->
<g id="edge48" class="edge">
<title>Node4&#45;&gt;Node43</title>
<path fill="none" stroke="#191970" d="M700.9732,-260.7793C628.4493,-256.8304 460.9735,-245.1144 323.3434,-216 240.8303,-198.5451 192.2257,-227.0062 142.3434,-159 133.6688,-147.1737 132.4378,-136.8162 142.3434,-126 175.3023,-90.0108 516.1741,-81.7369 632.0407,-79.958"/>
<polygon fill="#191970" stroke="#191970" points="632.2703,-83.4551 642.2182,-79.8097 632.1682,-76.4559 632.2703,-83.4551"/>
</g>
<!-- Node35 -->
<g id="node15" class="node">
<title>Node35</title>
<polygon fill="#ffffff" stroke="#bfbfbf" points="2311.0045,-69.5 2311.0045,-89.5 2359.6822,-89.5 2359.6822,-69.5 2311.0045,-69.5"/>
<text text-anchor="middle" x="2335.3434" y="-75.9" font-family="Helvetica,sans-Serif" font-size="12.00" fill="#000000">vector</text>
</g>
<!-- Node4&#45;&gt;Node35 -->
<g id="edge51" class="edge">
<title>Node4&#45;&gt;Node35</title>
<path fill="none" stroke="#191970" d="M773.8351,-262.2124C952.2542,-260.6409 1733.8782,-251.7994 1974.3434,-216 2072.5474,-201.3798 2098.1309,-195.8055 2190.3434,-159 2234.9007,-141.2155 2283.0725,-112.7737 2311.1536,-95.1662"/>
<polygon fill="#191970" stroke="#191970" points="2313.2988,-97.9505 2319.8723,-89.6414 2309.552,-92.0376 2313.2988,-97.9505"/>
</g>
<!-- Node32 -->
<g id="node16" class="node">
<title>Node32</title>
<polygon fill="#ffffff" stroke="#bfbfbf" points="151.3189,-126.5 151.3189,-158.5 261.3678,-158.5 261.3678,-126.5 151.3189,-126.5"/>
<text text-anchor="start" x="159.3189" y="-144.9" font-family="Helvetica,sans-Serif" font-size="12.00" fill="#000000">boost/archive/text</text>
<text text-anchor="middle" x="206.3434" y="-132.9" font-family="Helvetica,sans-Serif" font-size="12.00" fill="#000000">_oarchive.hpp</text>
</g>
<!-- Node4&#45;&gt;Node32 -->
<g id="edge52" class="edge">
<title>Node4&#45;&gt;Node32</title>
<path fill="none" stroke="#191970" d="M700.8389,-260.6567C636.6745,-256.7525 499.8954,-245.4529 388.3434,-216 338.7419,-202.9038 284.5379,-179.7921 248.2983,-162.9737"/>
<polygon fill="#191970" stroke="#191970" points="249.5695,-159.7041 239.0295,-158.6273 246.5975,-166.0419 249.5695,-159.7041"/>
</g>
<!-- Node33 -->
<g id="node17" class="node">
<title>Node33</title>
<polygon fill="#ffffff" stroke="#bfbfbf" points="279.3189,-126.5 279.3189,-158.5 389.3678,-158.5 389.3678,-126.5 279.3189,-126.5"/>
<text text-anchor="start" x="287.3189" y="-144.9" font-family="Helvetica,sans-Serif" font-size="12.00" fill="#000000">boost/archive/text</text>
<text text-anchor="middle" x="334.3434" y="-132.9" font-family="Helvetica,sans-Serif" font-size="12.00" fill="#000000">_iarchive.hpp</text>
</g>
<!-- Node4&#45;&gt;Node33 -->
<g id="edge53" class="edge">
<title>Node4&#45;&gt;Node33</title>
<path fill="none" stroke="#191970" d="M700.8216,-259.4377C629.645,-253.0798 475.0712,-237.251 426.3434,-216 399.5304,-204.3065 373.9496,-182.7231 356.5999,-165.9584"/>
<polygon fill="#191970" stroke="#191970" points="358.7964,-163.2072 349.2328,-158.6476 353.8656,-168.1759 358.7964,-163.2072"/>
</g>
<!-- Node31 -->
<g id="node18" class="node">
<title>Node31</title>
<polygon fill="#ffffff" stroke="#bfbfbf" points="407.317,-126.5 407.317,-158.5 519.3697,-158.5 519.3697,-126.5 407.317,-126.5"/>
<text text-anchor="start" x="415.317" y="-144.9" font-family="Helvetica,sans-Serif" font-size="12.00" fill="#000000">boost/serialization</text>
<text text-anchor="middle" x="463.3434" y="-132.9" font-family="Helvetica,sans-Serif" font-size="12.00" fill="#000000">/base_object.hpp</text>
</g>
<!-- Node4&#45;&gt;Node31 -->
<g id="edge54" class="edge">
<title>Node4&#45;&gt;Node31</title>
<path fill="none" stroke="#191970" d="M700.9056,-259.506C624.5543,-252.8632 453.4014,-235.8956 436.3434,-216 424.3981,-202.0677 432.5598,-182.3899 442.9438,-166.9007"/>
<polygon fill="#191970" stroke="#191970" points="445.7889,-168.9394 448.8277,-158.7897 440.1227,-164.829 445.7889,-168.9394"/>
</g>
<!-- Node51 -->
<g id="node19" class="node">
<title>Node51</title>
<g id="a_node19"><a xlink:href="IOUtil_8h_source.html" target="_top" xlink:title="../IO/IOUtil.h">
<polygon fill="#ffffff" stroke="#ff0000" points="765.3375,-132.5 765.3375,-152.5 847.3492,-152.5 847.3492,-132.5 765.3375,-132.5"/>
<text text-anchor="middle" x="806.3434" y="-138.9" font-family="Helvetica,sans-Serif" font-size="12.00" fill="#000000">../IO/IOUtil.h</text>
</a>
</g>
</g>
<!-- Node4&#45;&gt;Node51 -->
<g id="edge30" class="edge">
<title>Node4&#45;&gt;Node51</title>
<path fill="none" stroke="#191970" d="M743.2263,-252.2689C754.7856,-232.1657 780.6194,-187.2372 795.4032,-161.5264"/>
<polygon fill="#191970" stroke="#191970" points="798.5248,-163.119 800.4753,-152.7052 792.4564,-159.6296 798.5248,-163.119"/>
</g>
<!-- Node11 -->
<g id="node20" class="node">
<title>Node11</title>
<g id="a_node20"><a xlink:href="Core_2Common_8h.html" target="_top" xlink:title="Declaration of some general purpose utilities. ">
<polygon fill="#ffffff" stroke="#ff0000" points="2106.9996,-132.5 2106.9996,-152.5 2181.6871,-152.5 2181.6871,-132.5 2106.9996,-132.5"/>
<text text-anchor="middle" x="2144.3434" y="-138.9" font-family="Helvetica,sans-Serif" font-size="12.00" fill="#000000">Common.h</text>
</a>
</g>
</g>
<!-- Node4&#45;&gt;Node11 -->
<g id="edge33" class="edge">
<title>Node4&#45;&gt;Node11</title>
<path fill="none" stroke="#191970" d="M773.7871,-261.6697C960.4669,-257.3359 1805.2928,-236.7184 1920.3434,-216 1990.4122,-203.382 2068.6816,-173.9759 2111.6557,-156.4224"/>
<polygon fill="#191970" stroke="#191970" points="2113.1277,-159.6013 2121.035,-152.5497 2110.4561,-153.1312 2113.1277,-159.6013"/>
</g>
<!-- Node23 -->
<g id="node23" class="node">
<title>Node23</title>
<polygon fill="#ffffff" stroke="#bfbfbf" points="1841.0045,-69.5 1841.0045,-89.5 1895.6822,-89.5 1895.6822,-69.5 1841.0045,-69.5"/>
<text text-anchor="middle" x="1868.3434" y="-75.9" font-family="Helvetica,sans-Serif" font-size="12.00" fill="#000000">cassert</text>
</g>
<!-- Node4&#45;&gt;Node23 -->
<g id="edge50" class="edge">
<title>Node4&#45;&gt;Node23</title>
<path fill="none" stroke="#191970" d="M774.0175,-261.0386C903.5568,-255.7449 1339.2317,-236.7873 1477.3434,-216 1584.4736,-199.8757 1612.8102,-196.7876 1714.3434,-159 1761.6712,-141.386 1813.1347,-112.6969 1842.9685,-95.0254"/>
<polygon fill="#191970" stroke="#191970" points="1845.0786,-97.8415 1851.8621,-89.703 1841.484,-91.835 1845.0786,-97.8415"/>
</g>
<!-- Node27 -->
<g id="node24" class="node">
<title>Node27</title>
<g id="a_node24"><a xlink:href="AstronomicalConstants_8h.html" target="_top" xlink:title="Defines various astronomical constants. ">
<polygon fill="#ffffff" stroke="#000000" points="2427.6461,-69.5 2427.6461,-89.5 2577.0406,-89.5 2577.0406,-69.5 2427.6461,-69.5"/>
<text text-anchor="middle" x="2502.3434" y="-75.9" font-family="Helvetica,sans-Serif" font-size="12.00" fill="#000000">AstronomicalConstants.h</text>
</a>
</g>
</g>
<!-- Node4&#45;&gt;Node27 -->
<g id="edge43" class="edge">
<title>Node4&#45;&gt;Node27</title>
<path fill="none" stroke="#191970" d="M773.9356,-261.7475C972.4679,-257.5915 1916.1141,-236.8736 2044.3434,-216 2206.5764,-189.5912 2391.9916,-122.3132 2467.5579,-93.2339"/>
<polygon fill="#191970" stroke="#191970" points="2468.9979,-96.4296 2477.0598,-89.5553 2466.4707,-89.9018 2468.9979,-96.4296"/>
</g>
<!-- Node52 -->
<g id="node25" class="node">
<title>Node52</title>
<polygon fill="#ffffff" stroke="#bfbfbf" points="445.6461,-195.5 445.6461,-215.5 547.0406,-215.5 547.0406,-195.5 445.6461,-195.5"/>
<text text-anchor="middle" x="496.3434" y="-201.9" font-family="Helvetica,sans-Serif" font-size="12.00" fill="#000000">dirent_hacked.h</text>
</g>
<!-- Node4&#45;&gt;Node52 -->
<g id="edge45" class="edge">
<title>Node4&#45;&gt;Node52</title>
<path fill="none" stroke="#191970" d="M700.7406,-253.8429C660.2575,-244.2681 594.6936,-228.7612 548.7663,-217.8988"/>
<polygon fill="#191970" stroke="#191970" points="549.5285,-214.4826 538.9914,-215.5869 547.9173,-221.2946 549.5285,-214.4826"/>
</g>
<!-- Node53 -->
<g id="node26" class="node">
<title>Node53</title>
<polygon fill="#ffffff" stroke="#bfbfbf" points="1544.3316,-69.5 1544.3316,-89.5 1602.3551,-89.5 1602.3551,-69.5 1544.3316,-69.5"/>
<text text-anchor="middle" x="1573.3434" y="-75.9" font-family="Helvetica,sans-Serif" font-size="12.00" fill="#000000">iomanip</text>
</g>
<!-- Node4&#45;&gt;Node53 -->
<g id="edge47" class="edge">
<title>Node4&#45;&gt;Node53</title>
<path fill="none" stroke="#191970" d="M773.9279,-262.2694C912.1669,-261.1096 1397.717,-254.3196 1454.3434,-216 1491.0579,-191.1549 1467.6579,-158.9243 1497.3434,-126 1509.2389,-112.8066 1525.7565,-102.0924 1540.3552,-94.2883"/>
<polygon fill="#191970" stroke="#191970" points="1542.2778,-97.2371 1549.6037,-89.5832 1539.1038,-90.9981 1542.2778,-97.2371"/>
</g>
<!-- Node5&#45;&gt;Node3 -->
<g id="edge7" class="edge">
<title>Node5&#45;&gt;Node3</title>
<path fill="none" stroke="#191970" d="M704.7228,-204.1998C801.0802,-200.7845 1029.9753,-189.6101 1100.3434,-159 1120.8551,-150.0774 1118.4191,-136.167 1138.3434,-126 1188.134,-100.5927 1328.0285,-77.0569 1383.3434,-69 1529.8934,-47.6542 1962.9344,-28.0569 2154.4482,-20.1689"/>
<polygon fill="#191970" stroke="#191970" points="2154.6452,-23.6638 2164.4933,-19.7568 2154.3582,-16.6697 2154.6452,-23.6638"/>
</g>
<!-- Node6 -->
<g id="node7" class="node">
<title>Node6</title>
<g id="a_node7"><a xlink:href="EvolvingStellarQuantity_8h.html" target="_top" xlink:title="Declares a class implementing the intepolation of a single stellar quantity from stellar evolution tr...">
<polygon fill="#ffffff" stroke="#ff0000" points="941.7516,-132.5 941.7516,-152.5 1090.9352,-152.5 1090.9352,-132.5 941.7516,-132.5"/>
<text text-anchor="middle" x="1016.3434" y="-138.9" font-family="Helvetica,sans-Serif" font-size="12.00" fill="#000000">EvolvingStellarQuantity.h</text>
</a>
</g>
</g>
<!-- Node5&#45;&gt;Node6 -->
<g id="edge8" class="edge">
<title>Node5&#45;&gt;Node6</title>
<path fill="none" stroke="#191970" d="M704.5184,-197.8379C765.669,-186.9859 878.0426,-167.0435 949.8753,-154.2957"/>
<polygon fill="#191970" stroke="#191970" points="950.4981,-157.74 959.7326,-152.5464 949.2749,-150.8477 950.4981,-157.74"/>
</g>
<!-- Node5&#45;&gt;Node24 -->
<g id="edge22" class="edge">
<title>Node5&#45;&gt;Node24</title>
<path fill="none" stroke="#191970" d="M666.2926,-195.432C675.2232,-178.3617 695.7045,-143.8575 723.3434,-126 748.7141,-109.608 830.3178,-93.6526 878.2597,-85.3672"/>
<polygon fill="#191970" stroke="#191970" points="878.9626,-88.798 888.2338,-83.6701 877.7883,-81.8972 878.9626,-88.798"/>
</g>
<!-- Node5&#45;&gt;Node16 -->
<g id="edge25" class="edge">
<title>Node5&#45;&gt;Node16</title>
<path fill="none" stroke="#191970" d="M654.1394,-195.1727C637.7456,-170.2946 601.4541,-106.3459 633.3434,-69 651.9769,-47.1781 838.4453,-27.8126 923.0187,-20.0758"/>
<polygon fill="#191970" stroke="#191970" points="923.4055,-23.5552 933.0498,-19.1691 922.7753,-16.5837 923.4055,-23.5552"/>
</g>
<!-- Node5&#45;&gt;Node26 -->
<g id="edge24" class="edge">
<title>Node5&#45;&gt;Node26</title>
<path fill="none" stroke="#191970" d="M621.4235,-195.3353C602.7811,-188.3697 582.3196,-177.0258 571.3434,-159 550.5399,-124.8355 551.4209,-103.6857 571.3434,-69 583.654,-47.5668 608.4632,-34.0568 628.9215,-26.1181"/>
<polygon fill="#191970" stroke="#191970" points="630.316,-29.3361 638.5413,-22.6582 627.9469,-22.7492 630.316,-29.3361"/>
</g>
<!-- Node12 -->
<g id="node11" class="node">
<title>Node12</title>
<polygon fill="#ffffff" stroke="#bfbfbf" points="1494.0103,-69.5 1494.0103,-89.5 1524.6764,-89.5 1524.6764,-69.5 1494.0103,-69.5"/>
<text text-anchor="middle" x="1509.3434" y="-75.9" font-family="Helvetica,sans-Serif" font-size="12.00" fill="#000000">list</text>
</g>
<!-- Node5&#45;&gt;Node12 -->
<g id="edge23" class="edge">
<title>Node5&#45;&gt;Node12</title>
<path fill="none" stroke="#191970" d="M704.4736,-204.0232C829.0612,-199.4957 1187.8635,-184.5461 1302.3434,-159 1370.8071,-143.7224 1446.6818,-109.9159 1484.7313,-91.6978"/>
<polygon fill="#191970" stroke="#191970" points="1486.5192,-94.7208 1493.9933,-87.2116 1483.4677,-88.4209 1486.5192,-94.7208"/>
</g>
<!-- Node5&#45;&gt;Node43 -->
<g id="edge26" class="edge">
<title>Node5&#45;&gt;Node43</title>
<path fill="none" stroke="#191970" d="M656.9556,-195.3876C650.9582,-180.2142 641.5686,-150.7001 647.3434,-126 649.5834,-116.4188 654.1003,-106.5466 658.5428,-98.3768"/>
<polygon fill="#191970" stroke="#191970" points="661.593,-100.0938 663.5829,-89.6875 655.5379,-96.5816 661.593,-100.0938"/>
</g>
<!-- Node44 -->
<g id="node14" class="node">
<title>Node44</title>
<g id="a_node14"><a xlink:href="InterpolationQuantities_8h.html" target="_top" xlink:title="Defines constant to serve as identifier of the various quantities handled by the stellar evolution in...">
<polygon fill="#ffffff" stroke="#000000" points="1147.3014,-132.5 1147.3014,-152.5 1293.3853,-152.5 1293.3853,-132.5 1147.3014,-132.5"/>
<text text-anchor="middle" x="1220.3434" y="-138.9" font-family="Helvetica,sans-Serif" font-size="12.00" fill="#000000">InterpolationQuantities.h</text>
</a>
</g>
</g>
<!-- Node5&#45;&gt;Node44 -->
<g id="edge19" class="edge">
<title>Node5&#45;&gt;Node44</title>
<path fill="none" stroke="#191970" d="M704.4506,-202.5472C787.6492,-196.5621 976.0428,-181.6188 1133.3434,-159 1142.5068,-157.6824 1152.1732,-156.0716 1161.5988,-154.3786"/>
<polygon fill="#191970" stroke="#191970" points="1162.4962,-157.7723 1171.697,-152.5191 1161.2285,-150.888 1162.4962,-157.7723"/>
</g>
<!-- Node5&#45;&gt;Node32 -->
<g id="edge27" class="edge">
<title>Node5&#45;&gt;Node32</title>
<path fill="none" stroke="#191970" d="M617.9707,-198.9425C608.5412,-197.5819 598.614,-196.1988 589.3434,-195 451.0219,-177.1139 412.3788,-184.5193 271.283,-159.0241"/>
<polygon fill="#191970" stroke="#191970" points="271.8591,-155.5715 261.3924,-157.2139 270.5988,-162.4572 271.8591,-155.5715"/>
</g>
<!-- Node5&#45;&gt;Node33 -->
<g id="edge28" class="edge">
<title>Node5&#45;&gt;Node33</title>
<path fill="none" stroke="#191970" d="M617.8617,-198.8688C567.5366,-190.9599 481.9801,-176.7961 399.2482,-159.1094"/>
<polygon fill="#191970" stroke="#191970" points="399.9502,-155.6804 389.4369,-156.9922 398.4735,-162.5229 399.9502,-155.6804"/>
</g>
<!-- Node5&#45;&gt;Node31 -->
<g id="edge29" class="edge">
<title>Node5&#45;&gt;Node31</title>
<path fill="none" stroke="#191970" d="M629.5312,-195.378C601.0534,-186.3168 558.5319,-172.7873 523.63,-161.6821"/>
<polygon fill="#191970" stroke="#191970" points="524.5964,-158.3168 514.0059,-158.6199 522.4739,-164.9873 524.5964,-158.3168"/>
</g>
<!-- Node6&#45;&gt;Node3 -->
<g id="edge9" class="edge">
<title>Node6&#45;&gt;Node3</title>
<path fill="none" stroke="#191970" d="M1045.6843,-132.3895C1095.0766,-115.8666 1198.2703,-83.4716 1288.3434,-69 1453.1757,-42.5172 1946.9018,-25.3425 2154.1451,-19.1176"/>
<polygon fill="#191970" stroke="#191970" points="2154.5021,-22.6086 2164.3932,-18.8117 2154.2932,-15.6117 2154.5021,-22.6086"/>
</g>
<!-- Node6&#45;&gt;Node24 -->
<g id="edge10" class="edge">
<title>Node6&#45;&gt;Node24</title>
<path fill="none" stroke="#191970" d="M999.9553,-132.378C983.5977,-122.2747 958.2456,-106.6161 939.3693,-94.9572"/>
<polygon fill="#191970" stroke="#191970" points="941.038,-91.8741 930.6908,-89.5969 937.3595,-97.8297 941.038,-91.8741"/>
</g>
<!-- Node6&#45;&gt;Node16 -->
<g id="edge16" class="edge">
<title>Node6&#45;&gt;Node16</title>
<path fill="none" stroke="#191970" d="M1012.088,-132.1889C1003.4369,-111.2266 983.6706,-63.3315 972.4726,-36.1978"/>
<polygon fill="#191970" stroke="#191970" points="975.5624,-34.51 968.5122,-26.6014 969.0918,-37.1804 975.5624,-34.51"/>
</g>
<!-- Node6&#45;&gt;Node26 -->
<g id="edge15" class="edge">
<title>Node6&#45;&gt;Node26</title>
<path fill="none" stroke="#191970" d="M987.8923,-132.4019C922.6555,-109.2474 762.6223,-52.4469 693.7397,-27.9984"/>
<polygon fill="#191970" stroke="#191970" points="694.8549,-24.6804 684.2602,-24.6338 692.5134,-31.2772 694.8549,-24.6804"/>
</g>
<!-- Node6&#45;&gt;Node12 -->
<g id="edge14" class="edge">
<title>Node6&#45;&gt;Node12</title>
<path fill="none" stroke="#191970" d="M1089.5499,-132.4811C1105.6218,-130.3145 1122.5536,-128.0572 1138.3434,-126 1268.023,-109.1043 1423.3588,-90.0035 1483.6594,-82.6317"/>
<polygon fill="#191970" stroke="#191970" points="1484.2834,-86.0816 1493.7853,-81.3949 1483.4347,-79.1332 1484.2834,-86.0816"/>
</g>
<!-- Node6&#45;&gt;Node43 -->
<g id="edge17" class="edge">
<title>Node6&#45;&gt;Node43</title>
<path fill="none" stroke="#191970" d="M961.136,-132.4478C890.4359,-119.5747 769.7515,-97.6003 708.4698,-86.4421"/>
<polygon fill="#191970" stroke="#191970" points="708.917,-82.9661 698.4518,-84.618 707.663,-89.8528 708.917,-82.9661"/>
</g>
<!-- Node15 -->
<g id="node13" class="node">
<title>Node15</title>
<polygon fill="#ffffff" stroke="#bfbfbf" points="2039.0064,-69.5 2039.0064,-89.5 2097.6803,-89.5 2097.6803,-69.5 2039.0064,-69.5"/>
<text text-anchor="middle" x="2068.3434" y="-75.9" font-family="Helvetica,sans-Serif" font-size="12.00" fill="#000000">sstream</text>
</g>
<!-- Node6&#45;&gt;Node15 -->
<g id="edge18" class="edge">
<title>Node6&#45;&gt;Node15</title>
<path fill="none" stroke="#191970" d="M1082.3896,-132.4947C1100.493,-130.0452 1120.1442,-127.6551 1138.3434,-126 1477.7628,-95.1312 1564.047,-108.8888 1904.3434,-90 1946.7562,-87.6458 1995.3077,-84.4784 2028.5114,-82.2399"/>
<polygon fill="#191970" stroke="#191970" points="2028.9848,-85.716 2038.7254,-81.548 2028.5117,-78.732 2028.9848,-85.716"/>
</g>
<!-- Node24&#45;&gt;Node3 -->
<g id="edge11" class="edge">
<title>Node24&#45;&gt;Node3</title>
<path fill="none" stroke="#191970" d="M940.5427,-77.9112C976.2249,-75.7688 1042.1038,-71.8894 1098.3434,-69 1490.6707,-48.8434 1958.5583,-28.6624 2154.1823,-20.398"/>
<polygon fill="#191970" stroke="#191970" points="2154.5761,-23.8846 2164.4195,-19.9659 2154.2808,-16.8909 2154.5761,-23.8846"/>
</g>
<!-- Node24&#45;&gt;Node16 -->
<g id="edge12" class="edge">
<title>Node24&#45;&gt;Node16</title>
<path fill="none" stroke="#191970" d="M922.3767,-69.378C929.768,-60.0649 940.9056,-46.0316 949.8499,-34.7617"/>
<polygon fill="#191970" stroke="#191970" points="952.6887,-36.8149 956.1638,-26.8062 947.2057,-32.4633 952.6887,-36.8149"/>
</g>
<!-- Node24&#45;&gt;Node26 -->
<g id="edge13" class="edge">
<title>Node24&#45;&gt;Node26</title>
<path fill="none" stroke="#191970" d="M888.2208,-72.9952C841.8017,-61.4363 745.0551,-37.3452 694.1991,-24.6815"/>
<polygon fill="#191970" stroke="#191970" points="694.9225,-21.2548 684.3731,-22.2347 693.231,-28.0474 694.9225,-21.2548"/>
</g>
<!-- Node44&#45;&gt;Node26 -->
<g id="edge21" class="edge">
<title>Node44&#45;&gt;Node26</title>
<path fill="none" stroke="#191970" d="M1186.7737,-132.4111C1135.7906,-117.3132 1035.6389,-88.5312 949.3434,-69 857.561,-48.227 747.8879,-30.0393 694.2163,-21.5639"/>
<polygon fill="#191970" stroke="#191970" points="694.6722,-18.0927 684.2505,-20.0004 693.5872,-25.0081 694.6722,-18.0927"/>
</g>
<!-- Node44&#45;&gt;Node35 -->
<g id="edge20" class="edge">
<title>Node44&#45;&gt;Node35</title>
<path fill="none" stroke="#191970" d="M1293.5016,-138.3664C1510.4328,-126.1093 2144.7269,-90.2703 2300.4945,-81.469"/>
<polygon fill="#191970" stroke="#191970" points="2301.0839,-84.9414 2310.8705,-80.8828 2300.689,-77.9526 2301.0839,-84.9414"/>
</g>
<!-- Node51&#45;&gt;Node16 -->
<g id="edge31" class="edge">
<title>Node51&#45;&gt;Node16</title>
<path fill="none" stroke="#191970" d="M815.1213,-132.2349C828.1999,-117.2892 853.9903,-89.1295 879.3434,-69 897.2232,-54.804 919.1875,-41.3271 936.3094,-31.5827"/>
<polygon fill="#191970" stroke="#191970" points="938.2479,-34.5087 945.2667,-26.5723 934.8306,-28.3996 938.2479,-34.5087"/>
</g>
<!-- Node51&#45;&gt;Node12 -->
<g id="edge32" class="edge">
<title>Node51&#45;&gt;Node12</title>
<path fill="none" stroke="#191970" d="M847.4237,-136.595C872.022,-133.1903 903.9317,-129.0032 932.3434,-126 1144.7241,-103.5504 1402.0999,-86.3301 1483.4269,-81.1267"/>
<polygon fill="#191970" stroke="#191970" points="1483.9533,-84.6004 1493.7111,-80.4729 1483.5091,-77.6145 1483.9533,-84.6004"/>
</g>
<!-- Node11&#45;&gt;Node3 -->
<g id="edge40" class="edge">
<title>Node11&#45;&gt;Node3</title>
<path fill="none" stroke="#191970" d="M2150.7395,-132.1084C2159.9165,-117.4884 2177.6689,-90.2581 2195.3434,-69 2203.6731,-58.9813 2213.578,-48.6488 2222.4972,-39.8285"/>
<polygon fill="#191970" stroke="#191970" points="2224.9775,-42.2986 2229.7013,-32.8151 2220.0946,-37.2829 2224.9775,-42.2986"/>
</g>
<!-- Node11&#45;&gt;Node24 -->
<g id="edge41" class="edge">
<title>Node11&#45;&gt;Node24</title>
<path fill="none" stroke="#191970" d="M2106.7852,-138.9412C2066.9839,-135.2704 2002.2813,-129.5897 1946.3434,-126 1556.8698,-101.0066 1083.8549,-84.9049 950.736,-80.6375"/>
<polygon fill="#191970" stroke="#191970" points="950.7836,-77.1373 940.6772,-80.3169 950.5606,-84.1337 950.7836,-77.1373"/>
</g>
<!-- Node11&#45;&gt;Node16 -->
<g id="edge37" class="edge">
<title>Node11&#45;&gt;Node16</title>
<path fill="none" stroke="#191970" d="M2142.4199,-132.252C2138.7067,-115.6825 2128.841,-83.4135 2106.3434,-69 2059.116,-38.7429 1204.6482,-20.9822 1005.5604,-17.2439"/>
<polygon fill="#191970" stroke="#191970" points="1005.5751,-13.7436 995.5116,-17.0567 1005.4447,-20.7424 1005.5751,-13.7436"/>
</g>
<!-- Node11&#45;&gt;Node12 -->
<g id="edge34" class="edge">
<title>Node11&#45;&gt;Node12</title>
<path fill="none" stroke="#191970" d="M2106.735,-139.3325C1975.0551,-128.2327 1542.3421,-91.675 1535.3434,-90 1535.0149,-89.9214 1534.6852,-89.8393 1534.3544,-89.7541"/>
<polygon fill="#191970" stroke="#191970" points="1535.3625,-86.4013 1524.7696,-86.6038 1533.1768,-93.0513 1535.3625,-86.4013"/>
</g>
<!-- Node11&#45;&gt;Node15 -->
<g id="edge36" class="edge">
<title>Node11&#45;&gt;Node15</title>
<path fill="none" stroke="#191970" d="M2132.1326,-132.378C2120.4573,-122.6997 2102.6322,-107.9236 2088.7898,-96.449"/>
<polygon fill="#191970" stroke="#191970" points="2090.7087,-93.4936 2080.7762,-89.8062 2086.2414,-98.8827 2090.7087,-93.4936"/>
</g>
<!-- Node14 -->
<g id="node21" class="node">
<title>Node14</title>
<polygon fill="#ffffff" stroke="#bfbfbf" points="2751.6793,-69.5 2751.6793,-89.5 2795.0074,-89.5 2795.0074,-69.5 2751.6793,-69.5"/>
<text text-anchor="middle" x="2773.3434" y="-75.9" font-family="Helvetica,sans-Serif" font-size="12.00" fill="#000000">limits</text>
</g>
<!-- Node11&#45;&gt;Node14 -->
<g id="edge35" class="edge">
<title>Node11&#45;&gt;Node14</title>
<path fill="none" stroke="#191970" d="M2181.9272,-139.3351C2270.7826,-131.7577 2500.7345,-111.5913 2692.3434,-90 2708.4445,-88.1857 2726.3097,-85.8991 2741.1563,-83.9233"/>
<polygon fill="#191970" stroke="#191970" points="2741.9206,-87.3521 2751.3651,-82.5507 2740.9878,-80.4145 2741.9206,-87.3521"/>
</g>
<!-- Node22 -->
<g id="node22" class="node">
<title>Node22</title>
<polygon fill="#ffffff" stroke="#bfbfbf" points="2595.4312,-69.5 2595.4312,-89.5 2683.2555,-89.5 2683.2555,-69.5 2595.4312,-69.5"/>
<text text-anchor="middle" x="2639.3434" y="-75.9" font-family="Helvetica,sans-Serif" font-size="12.00" fill="#000000">gsl/gsl_poly.h</text>
</g>
<!-- Node11&#45;&gt;Node22 -->
<g id="edge38" class="edge">
<title>Node11&#45;&gt;Node22</title>
<path fill="none" stroke="#191970" d="M2181.7318,-139.0448C2256.403,-131.9318 2429.478,-114.3824 2585.1997,-90.0819"/>
<polygon fill="#191970" stroke="#191970" points="2586.0963,-93.4839 2595.4305,-88.4715 2585.0079,-86.569 2586.0963,-93.4839"/>
</g>
<!-- Node11&#45;&gt;Node23 -->
<g id="edge39" class="edge">
<title>Node11&#45;&gt;Node23</title>
<path fill="none" stroke="#191970" d="M2106.8335,-133.938C2054.0496,-121.8895 1958.4256,-100.0622 1905.716,-88.0307"/>
<polygon fill="#191970" stroke="#191970" points="1906.2998,-84.574 1895.7717,-85.7608 1904.742,-91.3985 1906.2998,-84.574"/>
</g>
<!-- Node11&#45;&gt;Node27 -->
<g id="edge42" class="edge">
<title>Node11&#45;&gt;Node27</title>
<path fill="none" stroke="#191970" d="M2181.979,-135.877C2241.989,-125.3165 2360.198,-104.5144 2435.0316,-91.3454"/>
<polygon fill="#191970" stroke="#191970" points="2436.0505,-94.7199 2445.2925,-89.5397 2434.8372,-87.8259 2436.0505,-94.7199"/>
</g>
<!-- Node54&#45;&gt;Node3 -->
<g id="edge57" class="edge">
<title>Node54&#45;&gt;Node3</title>
<path fill="none" stroke="#191970" d="M1969.219,-378.3683C2008.8547,-348.7903 2123.9863,-258.3483 2190.3434,-159 2215.2319,-121.7375 2232.0189,-71.9368 2240.608,-42.1516"/>
<polygon fill="#191970" stroke="#191970" points="2243.9833,-43.0773 2243.304,-32.5043 2237.2416,-41.1933 2243.9833,-43.0773"/>
</g>
<!-- Node54&#45;&gt;Node5 -->
<g id="edge93" class="edge">
<title>Node54&#45;&gt;Node5</title>
<path fill="none" stroke="#191970" d="M1908.7205,-384.435C1817.1928,-376.4388 1607.5657,-358.0458 1431.3434,-342 1102.8294,-312.0873 961.4539,-463.7766 692.3434,-273 676.7012,-261.911 668.7717,-240.9327 664.8725,-225.2935"/>
<polygon fill="#191970" stroke="#191970" points="668.2925,-224.5492 662.7716,-215.5065 661.4484,-226.0184 668.2925,-224.5492"/>
</g>
<!-- Node55 -->
<g id="node28" class="node">
<title>Node55</title>
<g id="a_node28"><a xlink:href="SaturatingSkumanichWindBody_8h.html" target="_top" xlink:title="Decrales a body subject to angular momentum loss . ">
<polygon fill="#ffffff" stroke="#000000" points="2223.4039,-315.5 2223.4039,-335.5 2417.2828,-335.5 2417.2828,-315.5 2223.4039,-315.5"/>
<text text-anchor="middle" x="2320.3434" y="-321.9" font-family="Helvetica,sans-Serif" font-size="12.00" fill="#000000">SaturatingSkumanichWindBody.h</text>
</a>
</g>
</g>
<!-- Node54&#45;&gt;Node55 -->
<g id="edge58" class="edge">
<title>Node54&#45;&gt;Node55</title>
<path fill="none" stroke="#191970" d="M2001.9416,-380.457C2065.3592,-369.511 2179.2868,-349.8467 2252.2762,-337.2486"/>
<polygon fill="#191970" stroke="#191970" points="2253.0352,-340.6694 2262.2941,-335.5195 2251.8445,-333.7714 2253.0352,-340.6694"/>
</g>
<!-- Node75 -->
<g id="node35" class="node">
<title>Node75</title>
<g id="a_node35"><a xlink:href="ExponentialDecayDiffRotBody_8h.html" target="_top" xlink:title="Declares a DissipatingBody with exponentially decaying differential rotation coupling. ">
<polygon fill="#ffffff" stroke="#000000" points="1801.5113,-252.5 1801.5113,-272.5 1987.1754,-272.5 1987.1754,-252.5 1801.5113,-252.5"/>
<text text-anchor="middle" x="1894.3434" y="-258.9" font-family="Helvetica,sans-Serif" font-size="12.00" fill="#000000">ExponentialDecayDiffRotBody.h</text>
</a>
</g>
</g>
<!-- Node54&#45;&gt;Node75 -->
<g id="edge83" class="edge">
<title>Node54&#45;&gt;Node75</title>
<path fill="none" stroke="#191970" d="M1954.5407,-378.3989C1952.9519,-362.7299 1948.4411,-331.9792 1936.3434,-309 1930.7182,-298.3152 1922.075,-288.154 1914.0884,-280.071"/>
<polygon fill="#191970" stroke="#191970" points="1916.0928,-277.1431 1906.4569,-272.7385 1911.2429,-282.1907 1916.0928,-277.1431"/>
</g>
<!-- Node76 -->
<g id="node39" class="node">
<title>Node76</title>
<g id="a_node39"><a xlink:href="EvolvingStellarCore_8h.html" target="_top" xlink:title="Declaration of the class representing stellar cores. ">
<polygon fill="#ffffff" stroke="#ff0000" points="1313.649,-195.5 1313.649,-215.5 1445.0377,-215.5 1445.0377,-195.5 1313.649,-195.5"/>
<text text-anchor="middle" x="1379.3434" y="-201.9" font-family="Helvetica,sans-Serif" font-size="12.00" fill="#000000">EvolvingStellarCore.h</text>
</a>
</g>
</g>
<!-- Node54&#45;&gt;Node76 -->
<g id="edge94" class="edge">
<title>Node54&#45;&gt;Node76</title>
<path fill="none" stroke="#191970" d="M1908.9624,-378.7734C1869.6373,-370.1821 1811.8922,-356.7533 1762.3434,-342 1632.0326,-303.1995 1480.9975,-245.5136 1414.1918,-219.3255"/>
<polygon fill="#191970" stroke="#191970" points="1415.1708,-215.9496 1404.5836,-215.5482 1412.6097,-222.4643 1415.1708,-215.9496"/>
</g>
<!-- Node82 -->
<g id="node40" class="node">
<title>Node82</title>
<g id="a_node40"><a xlink:href="EvolvingStellarEnvelope_8h.html" target="_top" xlink:title="Declares a class representing convective zones in low mass evolving stars or the whole star for high ...">
<polygon fill="#ffffff" stroke="#ff0000" points="1771.6344,-315.5 1771.6344,-335.5 1927.0523,-335.5 1927.0523,-315.5 1771.6344,-315.5"/>
<text text-anchor="middle" x="1849.3434" y="-321.9" font-family="Helvetica,sans-Serif" font-size="12.00" fill="#000000">EvolvingStellarEnvelope.h</text>
</a>
</g>
</g>
<!-- Node54&#45;&gt;Node82 -->
<g id="edge97" class="edge">
<title>Node54&#45;&gt;Node82</title>
<path fill="none" stroke="#191970" d="M1938.3126,-378.378C1921.2363,-368.2288 1894.7275,-352.4736 1875.0836,-340.7985"/>
<polygon fill="#191970" stroke="#191970" points="1876.7164,-337.6974 1866.3318,-335.5969 1873.1399,-343.7148 1876.7164,-337.6974"/>
</g>
<!-- Node55&#45;&gt;Node3 -->
<g id="edge59" class="edge">
<title>Node55&#45;&gt;Node3</title>
<path fill="none" stroke="#191970" d="M2317.9145,-315.219C2307.7907,-272.366 2268.7684,-107.1895 2253.5093,-42.5999"/>
<polygon fill="#191970" stroke="#191970" points="2256.8964,-41.7138 2251.191,-32.7864 2250.084,-43.3232 2256.8964,-41.7138"/>
</g>
<!-- Node56 -->
<g id="node29" class="node">
<title>Node56</title>
<g id="a_node29"><a xlink:href="DissipatingBody_8h.html" target="_top" xlink:title="Declares the DissipatingBody class. ">
<polygon fill="#ffffff" stroke="#ff0000" points="2347.0826,-195.5 2347.0826,-215.5 2507.6041,-215.5 2507.6041,-195.5 2347.0826,-195.5"/>
<text text-anchor="middle" x="2427.3434" y="-201.9" font-family="Helvetica,sans-Serif" font-size="12.00" fill="#000000">../Evolve/DissipatingBody.h</text>
</a>
</g>
</g>
<!-- Node55&#45;&gt;Node56 -->
<g id="edge60" class="edge">
<title>Node55&#45;&gt;Node56</title>
<path fill="none" stroke="#191970" d="M2329.4661,-315.2689C2347.7073,-294.8115 2388.8714,-248.6462 2411.5739,-223.1854"/>
<polygon fill="#191970" stroke="#191970" points="2414.2008,-225.4984 2418.2437,-215.7052 2408.9761,-220.8397 2414.2008,-225.4984"/>
</g>
<!-- Node70 -->
<g id="node31" class="node">
<title>Node70</title>
<g id="a_node31"><a xlink:href="BinarySystem_8h.html" target="_top" xlink:title="Defines the BinarySystem class. ">
<polygon fill="#ffffff" stroke="#ff0000" points="2460.6519,-252.5 2460.6519,-272.5 2610.0348,-272.5 2610.0348,-252.5 2460.6519,-252.5"/>
<text text-anchor="middle" x="2535.3434" y="-258.9" font-family="Helvetica,sans-Serif" font-size="12.00" fill="#000000">../Evolve/BinarySystem.h</text>
</a>
</g>
</g>
<!-- Node55&#45;&gt;Node70 -->
<g id="edge68" class="edge">
<title>Node55&#45;&gt;Node70</title>
<path fill="none" stroke="#191970" d="M2354.8868,-315.378C2391.8737,-304.54 2450.6775,-287.3091 2491.0445,-275.4806"/>
<polygon fill="#191970" stroke="#191970" points="2492.2733,-278.7678 2500.8856,-272.5969 2490.3049,-272.0502 2492.2733,-278.7678"/>
</g>
<!-- Node56&#45;&gt;Node3 -->
<g id="edge61" class="edge">
<title>Node56&#45;&gt;Node3</title>
<path fill="none" stroke="#191970" d="M2425.5657,-195.139C2420.7763,-170.1862 2405.3758,-106.084 2368.3434,-69 2354.1551,-54.792 2335.4906,-44.1578 2317.0808,-36.316"/>
<polygon fill="#191970" stroke="#191970" points="2318.378,-33.0653 2307.7944,-32.5767 2315.7633,-39.5586 2318.378,-33.0653"/>
</g>
<!-- Node56&#45;&gt;Node11 -->
<g id="edge66" class="edge">
<title>Node56&#45;&gt;Node11</title>
<path fill="none" stroke="#191970" d="M2382.1882,-195.4478C2330.144,-183.862 2244.9846,-164.9042 2191.9331,-153.0942"/>
<polygon fill="#191970" stroke="#191970" points="2192.6149,-149.6604 2182.0933,-150.9037 2191.0938,-156.4931 2192.6149,-149.6604"/>
</g>
<!-- Node56&#45;&gt;Node23 -->
<g id="edge67" class="edge">
<title>Node56&#45;&gt;Node23</title>
<path fill="none" stroke="#191970" d="M2402.1797,-195.3801C2359.3636,-178.544 2269.2966,-144.7809 2190.3434,-126 2089.0019,-101.8936 1966.5584,-88.387 1906.0137,-82.7189"/>
<polygon fill="#191970" stroke="#191970" points="1906.0734,-79.2097 1895.7956,-81.7821 1905.4342,-86.1805 1906.0734,-79.2097"/>
</g>
<!-- Node56&#45;&gt;Node27 -->
<g id="edge65" class="edge">
<title>Node56&#45;&gt;Node27</title>
<path fill="none" stroke="#191970" d="M2433.4809,-195.1889C2446.0689,-174.0411 2474.9733,-125.4817 2491.0443,-98.4824"/>
<polygon fill="#191970" stroke="#191970" points="2494.2232,-99.9846 2496.3306,-89.6014 2488.2082,-96.4042 2494.2232,-99.9846"/>
</g>
<!-- Node69 -->
<g id="node30" class="node">
<title>Node69</title>
<g id="a_node30"><a xlink:href="OrbitalExpressions_8h.html" target="_top" xlink:title="A collection of functions which calculate various quantities for two body orbits. ...">
<polygon fill="#ffffff" stroke="#ff0000" points="2579.3141,-132.5 2579.3141,-152.5 2745.3727,-152.5 2745.3727,-132.5 2579.3141,-132.5"/>
<text text-anchor="middle" x="2662.3434" y="-138.9" font-family="Helvetica,sans-Serif" font-size="12.00" fill="#000000">../Core/OrbitalExpressions.h</text>
</a>
</g>
</g>
<!-- Node56&#45;&gt;Node69 -->
<g id="edge62" class="edge">
<title>Node56&#45;&gt;Node69</title>
<path fill="none" stroke="#191970" d="M2464.8397,-195.4478C2505.594,-184.5222 2570.8023,-167.0408 2615.0449,-155.18"/>
<polygon fill="#191970" stroke="#191970" points="2616.228,-158.4865 2624.9806,-152.5164 2614.4154,-151.7253 2616.228,-158.4865"/>
</g>
<!-- Node69&#45;&gt;Node3 -->
<g id="edge63" class="edge">
<title>Node69&#45;&gt;Node3</title>
<path fill="none" stroke="#191970" d="M2672.5919,-132.3256C2686.8152,-116.9876 2709.009,-87.7474 2692.3434,-69 2669.3912,-43.1808 2464.0415,-27.9155 2340.4661,-20.9888"/>
<polygon fill="#191970" stroke="#191970" points="2340.4216,-17.4811 2330.2438,-20.4244 2340.0356,-24.4705 2340.4216,-17.4811"/>
</g>
<!-- Node69&#45;&gt;Node27 -->
<g id="edge64" class="edge">
<title>Node69&#45;&gt;Node27</title>
<path fill="none" stroke="#191970" d="M2636.6366,-132.378C2609.8113,-121.8155 2567.5652,-105.1811 2537.6273,-93.393"/>
<polygon fill="#191970" stroke="#191970" points="2538.5733,-90.0041 2527.9863,-89.5969 2536.0087,-96.5173 2538.5733,-90.0041"/>
</g>
<!-- Node70&#45;&gt;Node3 -->
<g id="edge69" class="edge">
<title>Node70&#45;&gt;Node3</title>
<path fill="none" stroke="#191970" d="M2610.3716,-259.1713C2721.1787,-253.4753 2917.8783,-240.0774 2939.3434,-216 2945.5543,-209.0332 2942.6795,-203.7167 2939.3434,-195 2912.4559,-124.748 2893.5752,-102.7365 2826.3434,-69 2784.069,-47.787 2493.2898,-29.4922 2340.5801,-21.2148"/>
<polygon fill="#191970" stroke="#191970" points="2340.4507,-17.7029 2330.277,-20.6602 2340.0744,-24.6928 2340.4507,-17.7029"/>
</g>
<!-- Node70&#45;&gt;Node24 -->
<g id="edge77" class="edge">
<title>Node70&#45;&gt;Node24</title>
<path fill="none" stroke="#191970" d="M2460.3874,-260.7936C2229.4156,-255.3574 1530.5553,-237.5321 1304.3434,-216 1137.833,-200.1506 1054.7176,-273.0238 932.3434,-159 916.2241,-143.9807 913.0535,-117.8263 913.0437,-99.6354"/>
<polygon fill="#191970" stroke="#191970" points="916.546,-99.6129 913.3586,-89.5089 909.5494,-99.3952 916.546,-99.6129"/>
</g>
<!-- Node70&#45;&gt;Node16 -->
<g id="edge82" class="edge">
<title>Node70&#45;&gt;Node16</title>
<path fill="none" stroke="#191970" d="M2460.6512,-261.1521C2283.6627,-257.4881 1849.1367,-245.565 1790.3434,-216 1743.5702,-192.4795 1754.8046,-159.2239 1714.3434,-126 1673.9084,-92.7977 1661.4304,-84.1217 1611.3434,-69 1497.2091,-34.5418 1129.7741,-21.1802 1005.7078,-17.5809"/>
<polygon fill="#191970" stroke="#191970" points="1005.5876,-14.0762 995.4923,-17.2908 1005.3889,-21.0734 1005.5876,-14.0762"/>
</g>
<!-- Node70&#45;&gt;Node26 -->
<g id="edge80" class="edge">
<title>Node70&#45;&gt;Node26</title>
<path fill="none" stroke="#191970" d="M2460.6506,-261.0548C2111.5255,-254.2551 655.4857,-225.3868 609.3434,-216 584.5147,-210.949 581.0018,-200.8255 556.3434,-195 511.4068,-184.3838 173.5468,-193.0345 142.3434,-159 132.4318,-148.1892 133.1047,-137.3912 142.3434,-126 204.2498,-49.6695 523.7226,-24.5016 628.2211,-18.2437"/>
<polygon fill="#191970" stroke="#191970" points="628.7061,-21.7215 638.4869,-17.6489 628.3011,-14.7332 628.7061,-21.7215"/>
</g>
<!-- Node70&#45;&gt;Node11 -->
<g id="edge75" class="edge">
<title>Node70&#45;&gt;Node11</title>
<path fill="none" stroke="#191970" d="M2484.658,-252.438C2444.5801,-244.0269 2387.4037,-231.0138 2338.3434,-216 2280.8041,-198.3914 2215.7405,-172.4618 2177.4802,-156.5717"/>
<polygon fill="#191970" stroke="#191970" points="2178.4662,-153.1905 2167.8898,-152.5654 2175.7679,-159.6496 2178.4662,-153.1905"/>
</g>
<!-- Node70&#45;&gt;Node14 -->
<g id="edge81" class="edge">
<title>Node70&#45;&gt;Node14</title>
<path fill="none" stroke="#191970" d="M2548.2665,-252.494C2570.0122,-235.7993 2613.2195,-203.275 2630.3434,-195 2682.0132,-170.0307 2714.7495,-200.5399 2754.3434,-159 2769.434,-143.1677 2773.2407,-117.5821 2773.8807,-99.7265"/>
<polygon fill="#191970" stroke="#191970" points="2777.3816,-99.5457 2773.9368,-89.5266 2770.3817,-99.5072 2777.3816,-99.5457"/>
</g>
<!-- Node70&#45;&gt;Node27 -->
<g id="edge74" class="edge">
<title>Node70&#45;&gt;Node27</title>
<path fill="none" stroke="#191970" d="M2533.5221,-252.4005C2528.272,-223.2859 2513.0336,-138.7823 2505.991,-99.7276"/>
<polygon fill="#191970" stroke="#191970" points="2509.4188,-99.014 2504.1996,-89.7939 2502.5299,-100.2563 2509.4188,-99.014"/>
</g>
<!-- Node70&#45;&gt;Node56 -->
<g id="edge70" class="edge">
<title>Node70&#45;&gt;Node56</title>
<path fill="none" stroke="#191970" d="M2516.2837,-252.4408C2499.4227,-243.5419 2474.5969,-230.4394 2455.4558,-220.3371"/>
<polygon fill="#191970" stroke="#191970" points="2457.0533,-217.2227 2446.5757,-215.6504 2453.7859,-223.4134 2457.0533,-217.2227"/>
</g>
<!-- Node70&#45;&gt;Node69 -->
<g id="edge76" class="edge">
<title>Node70&#45;&gt;Node69</title>
<path fill="none" stroke="#191970" d="M2543.7404,-252.4588C2555.2752,-238.8815 2576.9218,-214.1636 2597.3434,-195 2611.0086,-182.1766 2627.4347,-168.9259 2640.3553,-158.9448"/>
<polygon fill="#191970" stroke="#191970" points="2642.8383,-161.4525 2648.6632,-152.6026 2638.5908,-155.8885 2642.8383,-161.4525"/>
</g>
<!-- Node65 -->
<g id="node32" class="node">
<title>Node65</title>
<g id="a_node32"><a xlink:href="CombinedStoppingCondition_8h.html" target="_top" xlink:title="Declares a class for a stopping condition that combines other stopping conditions. ">
<polygon fill="#ffffff" stroke="#ff0000" points="2751.9537,-195.5 2751.9537,-215.5 2930.733,-215.5 2930.733,-195.5 2751.9537,-195.5"/>
<text text-anchor="middle" x="2841.3434" y="-201.9" font-family="Helvetica,sans-Serif" font-size="12.00" fill="#000000">CombinedStoppingCondition.h</text>
</a>
</g>
</g>
<!-- Node70&#45;&gt;Node65 -->
<g id="edge71" class="edge">
<title>Node70&#45;&gt;Node65</title>
<path fill="none" stroke="#191970" d="M2589.3456,-252.4408C2641.921,-242.6473 2721.8282,-227.7626 2777.5194,-217.3888"/>
<polygon fill="#191970" stroke="#191970" points="2778.4343,-220.7786 2787.6243,-215.5065 2777.1524,-213.897 2778.4343,-220.7786"/>
</g>
<!-- Node72 -->
<g id="node33" class="node">
<title>Node72</title>
<polygon fill="#ffffff" stroke="#bfbfbf" points="2638.9889,-195.5 2638.9889,-215.5 2733.6978,-215.5 2733.6978,-195.5 2638.9889,-195.5"/>
<text text-anchor="middle" x="2686.3434" y="-201.9" font-family="Helvetica,sans-Serif" font-size="12.00" fill="#000000">gsl/gsl_errno.h</text>
</g>
<!-- Node70&#45;&gt;Node72 -->
<g id="edge78" class="edge">
<title>Node70&#45;&gt;Node72</title>
<path fill="none" stroke="#191970" d="M2561.9915,-252.4408C2586.4984,-243.1898 2623.0397,-229.3961 2650.1758,-219.1527"/>
<polygon fill="#191970" stroke="#191970" points="2651.5885,-222.3605 2659.708,-215.5544 2649.1163,-215.8116 2651.5885,-222.3605"/>
</g>
<!-- Node73 -->
<g id="node34" class="node">
<title>Node73</title>
<polygon fill="#ffffff" stroke="#bfbfbf" points="2986.315,-195.5 2986.315,-215.5 3088.3717,-215.5 3088.3717,-195.5 2986.315,-195.5"/>
<text text-anchor="middle" x="3037.3434" y="-201.9" font-family="Helvetica,sans-Serif" font-size="12.00" fill="#000000">gsl/gsl_odeiv2.h</text>
</g>
<!-- Node70&#45;&gt;Node73 -->
<g id="edge79" class="edge">
<title>Node70&#45;&gt;Node73</title>
<path fill="none" stroke="#191970" d="M2610.1084,-255.7866C2697.242,-247.675 2845.4879,-232.9825 2972.3434,-216 2973.618,-215.8294 2974.9061,-215.6534 2976.2041,-215.473"/>
<polygon fill="#191970" stroke="#191970" points="2976.891,-218.9102 2986.2873,-214.0153 2975.8894,-211.9822 2976.891,-218.9102"/>
</g>
<!-- Node65&#45;&gt;Node3 -->
<g id="edge72" class="edge">
<title>Node65&#45;&gt;Node3</title>
<path fill="none" stroke="#191970" d="M2842.1066,-195.2672C2843.408,-169.451 2842.8396,-101.4273 2804.3434,-69 2769.6908,-39.8104 2489.6542,-25.2812 2340.3426,-19.5482"/>
<polygon fill="#191970" stroke="#191970" points="2340.3872,-16.0474 2330.262,-19.1668 2340.1225,-23.0424 2340.3872,-16.0474"/>
</g>
<!-- Node65&#45;&gt;Node35 -->
<g id="edge73" class="edge">
<title>Node65&#45;&gt;Node35</title>
<path fill="none" stroke="#191970" d="M2763.8676,-195.4911C2709.3002,-187.6451 2634.7811,-175.3214 2570.3434,-159 2497.4107,-140.527 2414.5922,-110.2485 2369.3371,-92.8767"/>
<polygon fill="#191970" stroke="#191970" points="2370.5902,-89.6088 2360.0007,-89.271 2368.0682,-96.1387 2370.5902,-89.6088"/>
</g>
<!-- Node75&#45;&gt;Node3 -->
<g id="edge84" class="edge">
<title>Node75&#45;&gt;Node3</title>
<path fill="none" stroke="#191970" d="M1901.7553,-252.2591C1915.1491,-233.7252 1944.2329,-193.3526 1968.3434,-159 1996.2474,-119.2423 1990.3224,-96.5252 2030.3434,-69 2050.8097,-54.9239 2105.1767,-41.7827 2154.3684,-32.1686"/>
<polygon fill="#191970" stroke="#191970" points="2155.2886,-35.556 2164.449,-30.2327 2153.9683,-28.6816 2155.2886,-35.556"/>
</g>
<!-- Node75&#45;&gt;Node56 -->
<g id="edge85" class="edge">
<title>Node75&#45;&gt;Node56</title>
<path fill="none" stroke="#191970" d="M1987.1849,-252.5714C2085.4145,-242.0665 2239.3969,-225.5993 2336.7612,-215.187"/>
<polygon fill="#191970" stroke="#191970" points="2337.3094,-218.6484 2346.8805,-214.1048 2336.565,-211.6881 2337.3094,-218.6484"/>
</g>
<!-- Node58 -->
<g id="node36" class="node">
<title>Node58</title>
<g id="a_node36"><a xlink:href="ZoneOrientation_8h.html" target="_top" xlink:title="Declares a class for orientations of zones of DissipatingBody objects. ">
<polygon fill="#ffffff" stroke="#ff0000" points="1799.3141,-195.5 1799.3141,-215.5 1911.3727,-215.5 1911.3727,-195.5 1799.3141,-195.5"/>
<text text-anchor="middle" x="1855.3434" y="-201.9" font-family="Helvetica,sans-Serif" font-size="12.00" fill="#000000">ZoneOrientation.h</text>
</a>
</g>
</g>
<!-- Node75&#45;&gt;Node58 -->
<g id="edge86" class="edge">
<title>Node75&#45;&gt;Node58</title>
<path fill="none" stroke="#191970" d="M1887.3709,-252.3095C1881.9914,-244.4472 1874.406,-233.3608 1867.9675,-223.9507"/>
<polygon fill="#191970" stroke="#191970" points="1870.7909,-221.8789 1862.2554,-215.6022 1865.0137,-225.8317 1870.7909,-221.8789"/>
</g>
<!-- Node58&#45;&gt;Node3 -->
<g id="edge87" class="edge">
<title>Node58&#45;&gt;Node3</title>
<path fill="none" stroke="#191970" d="M1886.3466,-195.4891C1905.6031,-187.9754 1929.7585,-176.0335 1946.3434,-159 1977.269,-127.2378 1954.4016,-96.2821 1989.3434,-69 2014.907,-49.0403 2091.4077,-35.0768 2154.5184,-26.5951"/>
<polygon fill="#191970" stroke="#191970" points="2155.0636,-30.0536 2164.5225,-25.2808 2154.1518,-23.1132 2155.0636,-30.0536"/>
</g>
<!-- Node58&#45;&gt;Node11 -->
<g id="edge92" class="edge">
<title>Node58&#45;&gt;Node11</title>
<path fill="none" stroke="#191970" d="M1901.4558,-195.4478C1954.9029,-183.7967 2042.5494,-164.6904 2096.6572,-152.8953"/>
<polygon fill="#191970" stroke="#191970" points="2097.6577,-156.2594 2106.6827,-150.7098 2096.1667,-149.4201 2097.6577,-156.2594"/>
</g>
<!-- Node58&#45;&gt;Node59 -->
<g id="edge88" class="edge">
<title>Node58&#45;&gt;Node59</title>
<path fill="none" stroke="#191970" d="M1857.432,-195.378C1859.2407,-186.6128 1861.9122,-173.6662 1864.1591,-162.7777"/>
<polygon fill="#191970" stroke="#191970" points="1867.6235,-163.3072 1866.2167,-152.8062 1860.7679,-161.8925 1867.6235,-163.3072"/>
</g>
<!-- Node59&#45;&gt;Node3 -->
<g id="edge89" class="edge">
<title>Node59&#45;&gt;Node3</title>
<path fill="none" stroke="#191970" d="M1876.5567,-132.2504C1890.2144,-115.9779 1919.2827,-84.4932 1951.3434,-69 1986.4625,-52.0288 2081.4782,-36.9782 2154.4752,-27.3909"/>
<polygon fill="#191970" stroke="#191970" points="2155.1541,-30.8323 2164.6207,-26.0747 2154.2535,-23.8904 2155.1541,-30.8323"/>
</g>
<!-- Node59&#45;&gt;Node23 -->
<g id="edge91" class="edge">
<title>Node59&#45;&gt;Node23</title>
<path fill="none" stroke="#191970" d="M1868.3434,-132.378C1868.3434,-123.7041 1868.3434,-110.9355 1868.3434,-100.1186"/>
<polygon fill="#191970" stroke="#191970" points="1871.8435,-99.8062 1868.3434,-89.8062 1864.8435,-99.8062 1871.8435,-99.8062"/>
</g>
<!-- Node60 -->
<g id="node38" class="node">
<title>Node60</title>
<polygon fill="#ffffff" stroke="#bfbfbf" points="1761.6695,-69.5 1761.6695,-89.5 1821.0172,-89.5 1821.0172,-69.5 1761.6695,-69.5"/>
<text text-anchor="middle" x="1791.3434" y="-75.9" font-family="Helvetica,sans-Serif" font-size="12.00" fill="#000000">ostream</text>
</g>
<!-- Node59&#45;&gt;Node60 -->
<g id="edge90" class="edge">
<title>Node59&#45;&gt;Node60</title>
<path fill="none" stroke="#191970" d="M1855.972,-132.378C1844.0726,-122.6421 1825.8681,-107.7475 1811.8088,-96.2445"/>
<polygon fill="#191970" stroke="#191970" points="1813.64,-93.2205 1803.684,-89.5969 1809.2073,-98.6382 1813.64,-93.2205"/>
</g>
<!-- Node76&#45;&gt;Node3 -->
<g id="edge95" class="edge">
<title>Node76&#45;&gt;Node3</title>
<path fill="none" stroke="#191970" d="M1386.4173,-195.4519C1407.8254,-165.1814 1471.3097,-76.4791 1485.3434,-69 1543.0136,-38.2652 1963.6746,-23.7345 2154.1178,-18.6764"/>
<polygon fill="#191970" stroke="#191970" points="2154.4873,-22.168 2164.3921,-18.4068 2154.3037,-15.1704 2154.4873,-22.168"/>
</g>
<!-- Node76&#45;&gt;Node6 -->
<g id="edge96" class="edge">
<title>Node76&#45;&gt;Node6</title>
<path fill="none" stroke="#191970" d="M1321.4235,-195.4478C1256.8807,-184.2461 1152.6317,-166.1534 1084.288,-154.292"/>
<polygon fill="#191970" stroke="#191970" points="1084.5081,-150.778 1074.0569,-152.5164 1083.3111,-157.6749 1084.5081,-150.778"/>
</g>
<!-- Node83&#45;&gt;Node1 -->
<g id="edge135" class="edge">
<title>Node83&#45;&gt;Node1</title>
<path fill="none" stroke="#191970" d="M2839.0483,-492.4408C2817.9719,-483.3396 2786.7135,-469.8416 2763.1189,-459.6531"/>
<polygon fill="#191970" stroke="#191970" points="2764.4178,-456.4016 2753.8496,-455.6504 2761.6427,-462.8281 2764.4178,-456.4016"/>
</g>
<!-- Node83&#45;&gt;Node3 -->
<g id="edge100" class="edge">
<title>Node83&#45;&gt;Node3</title>
<path fill="none" stroke="#191970" d="M2927.7674,-500.8956C3131.7096,-495.0351 3742.3434,-470.6303 3742.3434,-388.5 3742.3434,-388.5 3742.3434,-388.5 3742.3434,-142.5 3742.3434,-94.2164 3706.9998,-87.3605 3662.3434,-69 3601.2763,-43.8923 2645.8574,-23.9464 2340.4453,-18.1856"/>
<polygon fill="#191970" stroke="#191970" points="2340.3565,-14.6834 2330.2925,-17.9948 2340.225,-21.6822 2340.3565,-14.6834"/>
</g>
<!-- Node84 -->
<g id="node42" class="node">
<title>Node84</title>
<g id="a_node42"><a xlink:href="DiskBinarySystem_8h.html" target="_top" xlink:title="Declares a class of binary systems which start with a disk&#45;locked star which is then released and at ...">
<polygon fill="#ffffff" stroke="#000000" points="2081.6627,-315.5 2081.6627,-335.5 2205.024,-335.5 2205.024,-315.5 2081.6627,-315.5"/>
<text text-anchor="middle" x="2143.3434" y="-321.9" font-family="Helvetica,sans-Serif" font-size="12.00" fill="#000000">DiskBinarySystem.h</text>
</a>
</g>
</g>
<!-- Node83&#45;&gt;Node84 -->
<g id="edge101" class="edge">
<title>Node83&#45;&gt;Node84</title>
<path fill="none" stroke="#191970" d="M2853.4106,-492.3149C2839.4578,-477.1301 2810.906,-448.861 2780.3434,-435 2548.1758,-329.7057 2464.411,-391.5463 2214.3434,-342 2207.9892,-340.741 2201.3374,-339.3259 2194.7611,-337.8673"/>
<polygon fill="#191970" stroke="#191970" points="2195.0686,-334.3484 2184.5428,-335.5557 2193.524,-341.1759 2195.0686,-334.3484"/>
</g>
<!-- Node85 -->
<g id="node43" class="node">
<title>Node85</title>
<g id="a_node43"><a xlink:href="OrbitSolver_8h.html" target="_top" xlink:title="Defines the OrbitSolver class, the various stopping conditions and a number of other classes used whi...">
<polygon fill="#ffffff" stroke="#000000" points="2855.6588,-315.5 2855.6588,-335.5 2941.0279,-335.5 2941.0279,-315.5 2855.6588,-315.5"/>
<text text-anchor="middle" x="2898.3434" y="-321.9" font-family="Helvetica,sans-Serif" font-size="12.00" fill="#000000">OrbitSolver.h</text>
</a>
</g>
</g>
<!-- Node83&#45;&gt;Node85 -->
<g id="edge106" class="edge">
<title>Node83&#45;&gt;Node85</title>
<path fill="none" stroke="#191970" d="M2864.382,-492.4766C2870.1221,-464.2547 2886.5027,-383.7167 2894.2229,-345.759"/>
<polygon fill="#191970" stroke="#191970" points="2897.674,-346.3514 2896.2374,-335.8544 2890.8144,-344.9561 2897.674,-346.3514"/>
</g>
<!-- Node91 -->
<g id="node49" class="node">
<title>Node91</title>
<g id="a_node49"><a xlink:href="Planet_2CInterface_8h.html" target="_top" xlink:title="Declare C&#45;style functions for working with LockedPlanet instances. ">
<polygon fill="#ffffff" stroke="#000000" points="3583.9791,-315.5 3583.9791,-335.5 3712.7076,-335.5 3712.7076,-315.5 3583.9791,-315.5"/>
<text text-anchor="middle" x="3648.3434" y="-321.9" font-family="Helvetica,sans-Serif" font-size="12.00" fill="#000000">../Planet/CInterface.h</text>
</a>
</g>
</g>
<!-- Node83&#45;&gt;Node91 -->
<g id="edge136" class="edge">
<title>Node83&#45;&gt;Node91</title>
<path fill="none" stroke="#191970" d="M2906.8542,-492.4766C3041.7978,-462.0885 3446.0942,-371.0447 3593.6609,-337.814"/>
<polygon fill="#191970" stroke="#191970" points="3594.848,-341.1344 3603.8348,-335.5229 3593.3101,-334.3054 3594.848,-341.1344"/>
</g>
<!-- Node84&#45;&gt;Node3 -->
<g id="edge102" class="edge">
<title>Node84&#45;&gt;Node3</title>
<path fill="none" stroke="#191970" d="M2182.2117,-315.4358C2192.5939,-313.031 2203.8465,-310.6778 2214.3434,-309 2263.0519,-301.2145 3064.594,-252.8866 3097.3434,-216 3147.4003,-159.6193 3338.8993,-210.0212 2858.3434,-69 2763.8784,-41.2788 2487.0331,-26.2113 2340.6124,-19.9822"/>
<polygon fill="#191970" stroke="#191970" points="2340.438,-16.4718 2330.2998,-19.5489 2340.1441,-23.4657 2340.438,-16.4718"/>
</g>
<!-- Node84&#45;&gt;Node24 -->
<g id="edge104" class="edge">
<title>Node84&#45;&gt;Node24</title>
<path fill="none" stroke="#191970" d="M2081.4269,-320.1876C1844.0512,-299.757 1004.0494,-226.8478 978.3434,-216 942.3233,-200.7997 927.7455,-194.4889 911.3434,-159 902.6447,-140.1789 905.1793,-116.0942 908.764,-99.3908"/>
<polygon fill="#191970" stroke="#191970" points="912.1801,-100.1557 911.1639,-89.6097 905.3817,-98.4876 912.1801,-100.1557"/>
</g>
<!-- Node84&#45;&gt;Node15 -->
<g id="edge105" class="edge">
<title>Node84&#45;&gt;Node15</title>
<path fill="none" stroke="#191970" d="M2135.5247,-315.2435C2121.6631,-296.5521 2092.789,-255.2434 2077.3434,-216 2067.8619,-191.9101 2068.0244,-184.7494 2065.3434,-159 2063.26,-138.9913 2064.5183,-116.0166 2065.9903,-99.9275"/>
<polygon fill="#191970" stroke="#191970" points="2069.514,-99.8754 2067.0551,-89.5699 2062.5507,-99.1595 2069.514,-99.8754"/>
</g>
<!-- Node84&#45;&gt;Node70 -->
<g id="edge103" class="edge">
<title>Node84&#45;&gt;Node70</title>
<path fill="none" stroke="#191970" d="M2183.7686,-315.483C2193.7298,-313.187 2204.3943,-310.8732 2214.3434,-309 2293.9239,-294.0167 2385.3903,-281.1936 2450.2768,-272.8318"/>
<polygon fill="#191970" stroke="#191970" points="2450.9821,-276.2701 2460.4566,-271.5284 2450.0931,-269.3268 2450.9821,-276.2701"/>
</g>
<!-- Node85&#45;&gt;Node3 -->
<g id="edge107" class="edge">
<title>Node85&#45;&gt;Node3</title>
<path fill="none" stroke="#191970" d="M2941.1169,-321.4597C3014.3083,-314.0096 3160.0621,-296.6781 3205.3434,-273 3243.161,-253.2247 3284.2276,-231.0215 3261.3434,-195 3222.642,-134.0813 3182.1216,-150.7992 3114.3434,-126 3022.7156,-92.4745 2998.4835,-85.6337 2902.3434,-69 2703.9725,-34.6789 2467.8425,-22.7281 2340.2749,-18.6152"/>
<polygon fill="#191970" stroke="#191970" points="2340.2573,-15.1131 2330.1525,-18.298 2340.038,-22.1096 2340.2573,-15.1131"/>
</g>
<!-- Node85&#45;&gt;Node16 -->
<g id="edge129" class="edge">
<title>Node85&#45;&gt;Node16</title>
<path fill="none" stroke="#191970" d="M2855.549,-324.0222C2647.4074,-316.786 1748.4948,-284.9572 1690.3434,-273 1509.7164,-235.8593 1476.3323,-187.1014 1302.3434,-126 1196.0001,-88.6544 1069.2666,-48.8346 1005.4288,-29.0989"/>
<polygon fill="#191970" stroke="#191970" points="1006.3234,-25.7122 995.736,-26.1073 1004.259,-32.4008 1006.3234,-25.7122"/>
</g>
<!-- Node85&#45;&gt;Node12 -->
<g id="edge125" class="edge">
<title>Node85&#45;&gt;Node12</title>
<path fill="none" stroke="#191970" d="M2855.5106,-323.8388C2650.3844,-315.8467 1777.229,-281.3946 1750.3434,-273 1659.2343,-244.5526 1638.4427,-223.7781 1568.3434,-159 1548.7458,-140.8901 1531.2192,-115.5073 1520.4591,-98.3333"/>
<polygon fill="#191970" stroke="#191970" points="1523.4068,-96.4446 1515.2073,-89.735 1517.433,-100.0934 1523.4068,-96.4446"/>
</g>
<!-- Node85&#45;&gt;Node43 -->
<g id="edge128" class="edge">
<title>Node85&#45;&gt;Node43</title>
<path fill="none" stroke="#191970" d="M2855.4365,-324.0547C2660.2005,-317.4335 1854.4257,-289.6085 1602.3434,-273 1324.4579,-254.6914 1252.7596,-263.4475 978.3434,-216 877.9657,-198.6444 845.8018,-207.7246 756.3434,-159 727.6483,-143.3709 701.09,-116.0358 685.2936,-97.8504"/>
<polygon fill="#191970" stroke="#191970" points="687.5716,-95.124 678.4412,-89.7494 682.2272,-99.6447 687.5716,-95.124"/>
</g>
<!-- Node85&#45;&gt;Node15 -->
<g id="edge133" class="edge">
<title>Node85&#45;&gt;Node15</title>
<path fill="none" stroke="#191970" d="M2855.5399,-324.8706C2731.0836,-322.5865 2371.2021,-312.6382 2261.3434,-273 2178.1864,-242.9961 2152.5915,-228.8029 2098.3434,-159 2084.6798,-141.4187 2076.6995,-116.9328 2072.4505,-99.796"/>
<polygon fill="#191970" stroke="#191970" points="2075.7963,-98.723 2070.175,-89.7424 2068.969,-100.2683 2075.7963,-98.723"/>
</g>
<!-- Node85&#45;&gt;Node35 -->
<g id="edge126" class="edge">
<title>Node85&#45;&gt;Node35</title>
<path fill="none" stroke="#191970" d="M2855.3642,-322.3748C2758.6409,-315.0312 2526.4529,-295.5812 2451.3434,-273 2397.4753,-256.8049 2368.3556,-263.5743 2338.3434,-216 2315.79,-180.2492 2323.202,-128.0703 2329.7758,-99.6985"/>
<polygon fill="#191970" stroke="#191970" points="2333.2324,-100.3044 2332.2774,-89.7527 2326.4438,-98.5969 2333.2324,-100.3044"/>
</g>
<!-- Node85&#45;&gt;Node11 -->
<g id="edge109" class="edge">
<title>Node85&#45;&gt;Node11</title>
<path fill="none" stroke="#191970" d="M2855.4156,-324.9324C2736.5547,-322.8537 2405.3336,-313.4862 2305.3434,-273 2243.1178,-247.8048 2186.0732,-190.0141 2159.7117,-160.5252"/>
<polygon fill="#191970" stroke="#191970" points="2162.0529,-157.8866 2152.8266,-152.6783 2156.7912,-162.5034 2162.0529,-157.8866"/>
</g>
<!-- Node85&#45;&gt;Node14 -->
<g id="edge134" class="edge">
<title>Node85&#45;&gt;Node14</title>
<path fill="none" stroke="#191970" d="M2941.2734,-323.0925C2996.0779,-318.7102 3092.836,-306.5182 3168.3434,-273 3212.5821,-253.3621 3270.5574,-235.6883 3244.3434,-195 3195.8872,-119.7884 2903.2553,-89.8516 2805.278,-81.8538"/>
<polygon fill="#191970" stroke="#191970" points="2805.3488,-78.3485 2795.103,-81.0456 2804.7944,-85.3265 2805.3488,-78.3485"/>
</g>
<!-- Node85&#45;&gt;Node22 -->
<g id="edge132" class="edge">
<title>Node85&#45;&gt;Node22</title>
<path fill="none" stroke="#191970" d="M2941.2357,-322.0582C3030.1932,-313.0898 3222.1749,-283.2181 3168.3434,-195 3150.1204,-165.1366 3127.9978,-177.5611 3098.3434,-159 3077.623,-146.0309 3077.0663,-135.0111 3054.3434,-126 3046.0312,-122.7037 2803.9326,-96.8581 2693.4186,-85.1865"/>
<polygon fill="#191970" stroke="#191970" points="2693.7763,-81.7049 2683.4641,-84.136 2693.0415,-88.6662 2693.7763,-81.7049"/>
</g>
<!-- Node85&#45;&gt;Node27 -->
<g id="edge108" class="edge">
<title>Node85&#45;&gt;Node27</title>
<path fill="none" stroke="#191970" d="M2903.2973,-315.4515C2911.713,-299.4614 2930.3507,-268.3647 2955.3434,-252 3012.2378,-214.7466 3140.4288,-247.6159 3097.3434,-195 3080.7595,-174.7478 2730.4021,-116.186 2575.221,-91.1141"/>
<polygon fill="#191970" stroke="#191970" points="2575.7171,-87.6489 2565.2873,-89.5118 2574.6024,-94.5596 2575.7171,-87.6489"/>
</g>
<!-- Node85&#45;&gt;Node69 -->
<g id="edge110" class="edge">
<title>Node85&#45;&gt;Node69</title>
<path fill="none" stroke="#191970" d="M2941.1304,-320.3074C2993.7454,-312.9407 3078.4266,-297.5546 3097.3434,-273 3118.5001,-245.5378 3120.341,-220.9401 3097.3434,-195 3075.0716,-169.8787 2876.6547,-154.4385 2755.6226,-147.2735"/>
<polygon fill="#191970" stroke="#191970" points="2755.7911,-143.7775 2745.6041,-146.6888 2755.3832,-150.7656 2755.7911,-143.7775"/>
</g>
<!-- Node85&#45;&gt;Node70 -->
<g id="edge111" class="edge">
<title>Node85&#45;&gt;Node70</title>
<path fill="none" stroke="#191970" d="M2855.6352,-318.0878C2793.4343,-307.2927 2677.2894,-287.1353 2603.2722,-274.2893"/>
<polygon fill="#191970" stroke="#191970" points="2603.5689,-270.7885 2593.1176,-272.5269 2602.3718,-277.6854 2603.5689,-270.7885"/>
</g>
<!-- Node85&#45;&gt;Node65 -->
<g id="edge112" class="edge">
<title>Node85&#45;&gt;Node65</title>
<path fill="none" stroke="#191970" d="M2893.4836,-315.2689C2883.9766,-295.2543 2862.7813,-250.6326 2850.5428,-224.8673"/>
<polygon fill="#191970" stroke="#191970" points="2853.6429,-223.2363 2846.1908,-215.7052 2847.32,-226.2397 2853.6429,-223.2363"/>
</g>
<!-- Node85&#45;&gt;Node72 -->
<g id="edge131" class="edge">
<title>Node85&#45;&gt;Node72</title>
<path fill="none" stroke="#191970" d="M2880.633,-315.4753C2843.4551,-294.4312 2757.0903,-245.5455 2713.1123,-220.6522"/>
<polygon fill="#191970" stroke="#191970" points="2714.5791,-217.4607 2704.1524,-215.5806 2711.1309,-223.5525 2714.5791,-217.4607"/>
</g>
<!-- Node85&#45;&gt;Node73 -->
<g id="edge130" class="edge">
<title>Node85&#45;&gt;Node73</title>
<path fill="none" stroke="#191970" d="M2898.9956,-315.3589C2900.5187,-299.799 2905.5795,-269.9558 2922.3434,-252 2937.0571,-236.24 2957.8511,-225.695 2977.7191,-218.6964"/>
<polygon fill="#191970" stroke="#191970" points="2978.9523,-221.9755 2987.3674,-215.5383 2976.7747,-215.3228 2978.9523,-221.9755"/>
</g>
<!-- Node86 -->
<g id="node44" class="node">
<title>Node86</title>
<g id="a_node44"><a xlink:href="ExternalStoppingConditions_8h.html" target="_top" xlink:title="Users can define any stopping condition they wish the evolution to search for in this file...">
<polygon fill="#ffffff" stroke="#ff0000" points="3258.2916,-252.5 3258.2916,-272.5 3432.3951,-272.5 3432.3951,-252.5 3258.2916,-252.5"/>
<text text-anchor="middle" x="3345.3434" y="-258.9" font-family="Helvetica,sans-Serif" font-size="12.00" fill="#000000">ExternalStoppingConditions.h</text>
</a>
</g>
</g>
<!-- Node85&#45;&gt;Node86 -->
<g id="edge113" class="edge">
<title>Node85&#45;&gt;Node86</title>
<path fill="none" stroke="#191970" d="M2941.2036,-319.4593C3015.4173,-308.9996 3168.9989,-287.3539 3263.9996,-273.9646"/>
<polygon fill="#191970" stroke="#191970" points="3264.7306,-277.3962 3274.1443,-272.5348 3263.7537,-270.4647 3264.7306,-277.3962"/>
</g>
<!-- Node87 -->
<g id="node45" class="node">
<title>Node87</title>
<g id="a_node45"><a xlink:href="StopInformation_8h.html" target="_top" xlink:title="Declares the StopInformation class. ">
<polygon fill="#ffffff" stroke="#ff0000" points="3449.982,-252.5 3449.982,-272.5 3560.7047,-272.5 3560.7047,-252.5 3449.982,-252.5"/>
<text text-anchor="middle" x="3505.3434" y="-258.9" font-family="Helvetica,sans-Serif" font-size="12.00" fill="#000000">StopInformation.h</text>
</a>
</g>
</g>
<!-- Node85&#45;&gt;Node87 -->
<g id="edge115" class="edge">
<title>Node85&#45;&gt;Node87</title>
<path fill="none" stroke="#191970" d="M2941.0428,-322.3392C3031.2512,-315.4529 3248.0447,-297.8032 3439.8901,-273.1248"/>
<polygon fill="#191970" stroke="#191970" points="3440.4062,-276.5873 3449.8735,-271.8312 3439.5067,-269.6453 3440.4062,-276.5873"/>
</g>
<!-- Node88 -->
<g id="node46" class="node">
<title>Node88</title>
<g id="a_node46"><a xlink:href="StopHistoryInterval_8h.html" target="_top" xlink:title="Declares the StopHistoryInterval class. ">
<polygon fill="#ffffff" stroke="#ff0000" points="1577.6529,-132.5 1577.6529,-152.5 1705.0338,-152.5 1705.0338,-132.5 1577.6529,-132.5"/>
<text text-anchor="middle" x="1641.3434" y="-138.9" font-family="Helvetica,sans-Serif" font-size="12.00" fill="#000000">StopHistoryInterval.h</text>
</a>
</g>
</g>
<!-- Node85&#45;&gt;Node88 -->
<g id="edge117" class="edge">
<title>Node85&#45;&gt;Node88</title>
<path fill="none" stroke="#191970" d="M2855.3921,-323.8441C2654.639,-316.0571 1817.4746,-283.0397 1792.3434,-273 1732.3081,-249.0164 1679.5731,-190.6712 1655.3878,-160.7924"/>
<polygon fill="#191970" stroke="#191970" points="1658.0358,-158.4986 1649.0806,-152.8368 1652.5504,-162.8474 1658.0358,-158.4986"/>
</g>
<!-- Node89 -->
<g id="node47" class="node">
<title>Node89</title>
<polygon fill="#ffffff" stroke="#bfbfbf" points="2964.0006,-252.5 2964.0006,-272.5 3016.6861,-272.5 3016.6861,-252.5 2964.0006,-252.5"/>
<text text-anchor="middle" x="2990.3434" y="-258.9" font-family="Helvetica,sans-Serif" font-size="12.00" fill="#000000">math.h</text>
</g>
<!-- Node85&#45;&gt;Node89 -->
<g id="edge124" class="edge">
<title>Node85&#45;&gt;Node89</title>
<path fill="none" stroke="#191970" d="M2913.1247,-315.378C2927.7445,-305.3666 2950.3302,-289.9003 2967.3052,-278.2762"/>
<polygon fill="#191970" stroke="#191970" points="2969.3253,-281.1348 2975.5986,-272.5969 2965.3702,-275.3592 2969.3253,-281.1348"/>
</g>
<!-- Node90 -->
<g id="node48" class="node">
<title>Node90</title>
<polygon fill="#ffffff" stroke="#bfbfbf" points="3034.3326,-252.5 3034.3326,-272.5 3088.3541,-272.5 3088.3541,-252.5 3034.3326,-252.5"/>
<text text-anchor="middle" x="3061.3434" y="-258.9" font-family="Helvetica,sans-Serif" font-size="12.00" fill="#000000">stdlib.h</text>
</g>
<!-- Node85&#45;&gt;Node90 -->
<g id="edge127" class="edge">
<title>Node85&#45;&gt;Node90</title>
<path fill="none" stroke="#191970" d="M2924.5321,-315.378C2951.9792,-304.7696 2995.2732,-288.0363 3025.795,-276.2396"/>
<polygon fill="#191970" stroke="#191970" points="3027.1538,-279.4668 3035.2196,-272.5969 3024.6302,-272.9375 3027.1538,-279.4668"/>
</g>
<!-- Node86&#45;&gt;Node3 -->
<g id="edge114" class="edge">
<title>Node86&#45;&gt;Node3</title>
<path fill="none" stroke="#191970" d="M3347.9508,-252.099C3355.4572,-219.3986 3373.3502,-117.947 3320.3434,-69 3284.613,-36.0062 2594.6168,-21.9229 2340.3723,-17.8393"/>
<polygon fill="#191970" stroke="#191970" points="2340.1083,-14.3348 2330.0538,-17.6753 2339.9969,-21.3339 2340.1083,-14.3348"/>
</g>
<!-- Node87&#45;&gt;Node3 -->
<g id="edge116" class="edge">
<title>Node87&#45;&gt;Node3</title>
<path fill="none" stroke="#191970" d="M3500.6535,-252.4217C3484.4275,-218.8938 3426.9925,-110.8683 3342.3434,-69 3297.7841,-46.9605 2596.4195,-25.9219 2340.1637,-18.9341"/>
<polygon fill="#191970" stroke="#191970" points="2340.2255,-15.4346 2330.1341,-18.6616 2340.0353,-22.432 2340.2255,-15.4346"/>
</g>
<!-- Node88&#45;&gt;Node3 -->
<g id="edge118" class="edge">
<title>Node88&#45;&gt;Node3</title>
<path fill="none" stroke="#191970" d="M1652.6288,-132.2826C1671.6248,-115.7571 1711.891,-83.5499 1752.3434,-69 1824.0239,-43.218 2031.7261,-28.048 2154.1143,-21.101"/>
<polygon fill="#191970" stroke="#191970" points="2154.4404,-24.5883 2164.229,-20.5345 2154.0489,-17.5992 2154.4404,-24.5883"/>
</g>
<!-- Node88&#45;&gt;Node24 -->
<g id="edge119" class="edge">
<title>Node88&#45;&gt;Node24</title>
<path fill="none" stroke="#191970" d="M1577.4641,-136.9644C1429.4571,-124.1385 1066.8404,-92.715 950.7369,-82.6538"/>
<polygon fill="#191970" stroke="#191970" points="950.8628,-79.1517 940.5979,-81.7752 950.2584,-86.1255 950.8628,-79.1517"/>
</g>
<!-- Node88&#45;&gt;Node12 -->
<g id="edge120" class="edge">
<title>Node88&#45;&gt;Node12</title>
<path fill="none" stroke="#191970" d="M1620.1353,-132.378C1596.5878,-121.1394 1558.6375,-103.0267 1533.8406,-91.1919"/>
<polygon fill="#191970" stroke="#191970" points="1535.2579,-87.9902 1524.7255,-86.8415 1532.2428,-94.3075 1535.2579,-87.9902"/>
</g>
<!-- Node88&#45;&gt;Node23 -->
<g id="edge122" class="edge">
<title>Node88&#45;&gt;Node23</title>
<path fill="none" stroke="#191970" d="M1677.5632,-132.4478C1719.6285,-120.7733 1788.6643,-101.6136 1831.1433,-89.8243"/>
<polygon fill="#191970" stroke="#191970" points="1832.1203,-93.1855 1840.8201,-87.1386 1830.2483,-86.4404 1832.1203,-93.1855"/>
</g>
<!-- Node88&#45;&gt;Node53 -->
<g id="edge123" class="edge">
<title>Node88&#45;&gt;Node53</title>
<path fill="none" stroke="#191970" d="M1630.418,-132.378C1620.0702,-122.791 1604.3233,-108.202 1591.989,-96.7747"/>
<polygon fill="#191970" stroke="#191970" points="1594.1819,-94.035 1584.4675,-89.8062 1589.4245,-99.1699 1594.1819,-94.035"/>
</g>
<!-- Node88&#45;&gt;Node60 -->
<g id="edge121" class="edge">
<title>Node88&#45;&gt;Node60</title>
<path fill="none" stroke="#191970" d="M1665.4435,-132.378C1690.4828,-121.8614 1729.8538,-105.3256 1757.8979,-93.5471"/>
<polygon fill="#191970" stroke="#191970" points="1759.4386,-96.6962 1767.3031,-89.5969 1756.7279,-90.2424 1759.4386,-96.6962"/>
</g>
<!-- Node91&#45;&gt;Node3 -->
<g id="edge137" class="edge">
<title>Node91&#45;&gt;Node3</title>
<path fill="none" stroke="#191970" d="M3657.1304,-315.3036C3665.4533,-305.1785 3677.773,-288.9088 3685.3434,-273 3698.735,-244.858 3704.3434,-236.6658 3704.3434,-205.5 3704.3434,-205.5 3704.3434,-205.5 3704.3434,-142.5 3704.3434,-94.2164 3668.9904,-87.3834 3624.3434,-69 3565.1096,-44.6106 2640.8794,-24.2787 2340.7109,-18.2905"/>
<polygon fill="#191970" stroke="#191970" points="2340.3663,-14.7831 2330.2987,-18.0836 2340.2272,-21.7817 2340.3663,-14.7831"/>
</g>
<!-- Node92 -->
<g id="node50" class="node">
<title>Node92</title>
<g id="a_node50"><a xlink:href="Planet_8h.html" target="_top" xlink:title="Declares a class for planets that are always locked to the orbit. ">
<polygon fill="#ffffff" stroke="#ff0000" points="3616.3268,-252.5 3616.3268,-272.5 3676.36,-272.5 3676.36,-252.5 3616.3268,-252.5"/>
<text text-anchor="middle" x="3646.3434" y="-258.9" font-family="Helvetica,sans-Serif" font-size="12.00" fill="#000000">Planet.h</text>
</a>
</g>
</g>
<!-- Node91&#45;&gt;Node92 -->
<g id="edge138" class="edge">
<title>Node91&#45;&gt;Node92</title>
<path fill="none" stroke="#191970" d="M3648.022,-315.378C3647.7467,-306.7041 3647.3413,-293.9355 3646.9979,-283.1186"/>
<polygon fill="#191970" stroke="#191970" points="3650.4862,-282.6901 3646.6705,-272.8062 3643.4897,-282.9123 3650.4862,-282.6901"/>
</g>
<!-- Node92&#45;&gt;Node3 -->
<g id="edge139" class="edge">
<title>Node92&#45;&gt;Node3</title>
<path fill="none" stroke="#191970" d="M3647.7592,-252.3871C3651.7018,-219.6701 3659.0646,-116.0977 3602.3434,-69 3553.8739,-28.7541 2638.8446,-19.1053 2340.5177,-17.0246"/>
<polygon fill="#191970" stroke="#191970" points="2340.1917,-13.5224 2330.1679,-16.9538 2340.1437,-20.5222 2340.1917,-13.5224"/>
</g>
<!-- Node92&#45;&gt;Node56 -->
<g id="edge140" class="edge">
<title>Node92&#45;&gt;Node56</title>
<path fill="none" stroke="#191970" d="M3616.0654,-257.6788C3601.9086,-255.6026 3584.8003,-253.347 3569.3434,-252 3153.2802,-215.7428 3047.5605,-234.787 2630.3434,-216 2593.6037,-214.3456 2553.1359,-212.2982 2518.0636,-210.4518"/>
<polygon fill="#191970" stroke="#191970" points="2518.0147,-206.9445 2507.8438,-209.9115 2517.6451,-213.9347 2518.0147,-206.9445"/>
</g>
</g>
</svg>
        <g id="navigator" transform="translate(0 0)" fill="#404254">
                <rect fill="#f2f5e9" fill-opacity="0.5" stroke="#606060" stroke-width=".5" x="0" y="0" width="60" height="60"/>
                <use id="zoomplus" xlink:href="#zoomPlus" x="17" y="9" onmousedown="handleZoom(evt,'in')"/>
                <use id="zoomminus" xlink:href="#zoomMin" x="42" y="9" onmousedown="handleZoom(evt,'out')"/>
                <use id="reset" xlink:href="#resetDef" x="30" y="36" onmousedown="handleReset()"/>
                <g id="arrowUp" xlink:href="#dirArrow" transform="translate(30 24)" onmousedown="handlePan(0,-1)">
                  <use xlink:href="#rim" fill="#404040">
                        <set attributeName="fill" to="#808080" begin="arrowUp.mouseover" end="arrowUp.mouseout"/>
                  </use>
                  <path fill="none" stroke="white" stroke-width="1.5" d="M0,-3.0v7 M-2.5,-0.5L0,-3.0L2.5,-0.5"/>
                </g>
                <g id="arrowRight" xlink:href="#dirArrow" transform="rotate(90) translate(36 -43)" onmousedown="handlePan(1,0)">
                  <use xlink:href="#rim" fill="#404040">
                        <set attributeName="fill" to="#808080" begin="arrowRight.mouseover" end="arrowRight.mouseout"/>
                  </use>
                  <path fill="none" stroke="white" stroke-width="1.5" d="M0,-3.0v7 M-2.5,-0.5L0,-3.0L2.5,-0.5"/>
                </g>
                <g id="arrowDown" xlink:href="#dirArrow" transform="rotate(180) translate(-30 -48)" onmousedown="handlePan(0,1)">
                  <use xlink:href="#rim" fill="#404040">
                        <set attributeName="fill" to="#808080" begin="arrowDown.mouseover" end="arrowDown.mouseout"/>
                  </use>
                  <path fill="none" stroke="white" stroke-width="1.5" d="M0,-3.0v7 M-2.5,-0.5L0,-3.0L2.5,-0.5"/>
                </g>
                <g id="arrowLeft" xlink:href="#dirArrow" transform="rotate(270) translate(-36 17)" onmousedown="handlePan(-1,0)">
                  <use xlink:href="#rim" fill="#404040">
                        <set attributeName="fill" to="#808080" begin="arrowLeft.mouseover" end="arrowLeft.mouseout"/>
                  </use>
                  <path fill="none" stroke="white" stroke-width="1.5" d="M0,-3.0v7 M-2.5,-0.5L0,-3.0L2.5,-0.5"/>
                </g>
        </g>
        <svg viewBox="0 0 15 15" width="100%" height="30px" preserveAspectRatio="xMaxYMin meet">
         <g id="arrow_out" transform="scale(0.3 0.3)">
          <a xlink:href="Star_2CInterface_8cpp__incl_org.svg" target="_base">
           <rect id="button" ry="5" rx="5" y="6" x="6" height="38" width="38"
                fill="#f2f5e9" fill-opacity="0.5" stroke="#606060" stroke-width="1.0"/>
           <path id="arrow"
             d="M 11.500037,31.436501 C 11.940474,20.09759 22.043105,11.32322 32.158766,21.979434 L 37.068811,17.246167 C 37.068811,17.246167 37.088388,32 37.088388,32 L 22.160133,31.978069 C 22.160133,31.978069 26.997745,27.140456 26.997745,27.140456 C 18.528582,18.264221 13.291696,25.230495 11.500037,31.436501 z"
             style="fill:#404040;"/>
          </a>
         </g>
        </svg>
</svg>
