<?xml version="1.0" encoding="UTF-8" standalone="no"?>
<!DOCTYPE svg PUBLIC "-//W3C//DTD SVG 1.1//EN"
 "http://www.w3.org/Graphics/SVG/1.1/DTD/svg11.dtd">
<!-- Generated by graphviz version 2.40.1 (20161225.0304)
 -->
<!-- Title: /home/kpenev/projects/git/poet/poet_src/Evolve/StopHistoryInterval.h Pages: 1 -->
<svg width="1122pt" height="308pt"
 viewBox="0.00 0.00 1121.50 308.00" xmlns="http://www.w3.org/2000/svg" xmlns:xlink="http://www.w3.org/1999/xlink">
<g id="graph0" class="graph" transform="scale(1 1) rotate(0) translate(4 304)">
<title>/home/kpenev/projects/git/poet/poet_src/Evolve/StopHistoryInterval.h</title>
<polygon fill="#ffffff" stroke="transparent" points="-4,4 -4,-304 1117.5,-304 1117.5,4 -4,4"/>
<!-- Node11 -->
<g id="node1" class="node">
<title>Node11</title>
<polygon fill="#bfbfbf" stroke="#000000" points="528.5,-252.5 528.5,-299.5 675.5,-299.5 675.5,-252.5 528.5,-252.5"/>
<text text-anchor="start" x="536.5" y="-285.9" font-family="Helvetica,sans-Serif" font-size="12.00" fill="#000000">/home/kpenev/projects</text>
<text text-anchor="start" x="536.5" y="-272.9" font-family="Helvetica,sans-Serif" font-size="12.00" fill="#000000">/git/poet/poet_src/Evolve</text>
<text text-anchor="middle" x="602" y="-259.9" font-family="Helvetica,sans-Serif" font-size="12.00" fill="#000000">/StopHistoryInterval.h</text>
</g>
<!-- Node12 -->
<g id="node2" class="node">
<title>Node12</title>
<g id="a_node2"><a xlink:href="OrbitSolver_8h.html" target="_top" xlink:title="Defines the OrbitSolver class, the various stopping conditions and a number of other classes used whi...">
<polygon fill="#ffffff" stroke="#000000" points="446.5,-168.5 446.5,-215.5 593.5,-215.5 593.5,-168.5 446.5,-168.5"/>
<text text-anchor="start" x="454.5" y="-201.9" font-family="Helvetica,sans-Serif" font-size="12.00" fill="#000000">/home/kpenev/projects</text>
<text text-anchor="start" x="454.5" y="-188.9" font-family="Helvetica,sans-Serif" font-size="12.00" fill="#000000">/git/poet/poet_src/Evolve</text>
<text text-anchor="middle" x="520" y="-175.9" font-family="Helvetica,sans-Serif" font-size="12.00" fill="#000000">/OrbitSolver.h</text>
</a>
</g>
</g>
<!-- Node11&#45;&gt;Node12 -->
<g id="edge1" class="edge">
<title>Node11&#45;&gt;Node12</title>
<path fill="none" stroke="#191970" d="M571.6795,-244.94C562.2149,-235.2445 551.9341,-224.7129 543.053,-215.6152"/>
<polygon fill="#191970" stroke="#191970" points="569.2315,-247.4428 578.7214,-252.1537 574.2406,-242.553 569.2315,-247.4428"/>
</g>
<!-- Node23 -->
<g id="node13" class="node">
<title>Node23</title>
<g id="a_node13"><a xlink:href="StopHistoryInterval_8cpp.html" target="_top" xlink:title="Declares some of the methods of the StopHistoryInterval class. ">
<polygon fill="#ffffff" stroke="#000000" points="611.5,-168.5 611.5,-215.5 758.5,-215.5 758.5,-168.5 611.5,-168.5"/>
<text text-anchor="start" x="619.5" y="-201.9" font-family="Helvetica,sans-Serif" font-size="12.00" fill="#000000">/home/kpenev/projects</text>
<text text-anchor="start" x="619.5" y="-188.9" font-family="Helvetica,sans-Serif" font-size="12.00" fill="#000000">/git/poet/poet_src/Evolve</text>
<text text-anchor="middle" x="685" y="-175.9" font-family="Helvetica,sans-Serif" font-size="12.00" fill="#000000">/StopHistoryInterval.cpp</text>
</a>
</g>
</g>
<!-- Node11&#45;&gt;Node23 -->
<g id="edge12" class="edge">
<title>Node11&#45;&gt;Node23</title>
<path fill="none" stroke="#191970" d="M632.6902,-244.94C642.2703,-235.2445 652.6765,-224.7129 661.6659,-215.6152"/>
<polygon fill="#191970" stroke="#191970" points="630.1014,-242.5803 625.5625,-252.1537 635.0807,-247.5004 630.1014,-242.5803"/>
</g>
<!-- Node13 -->
<g id="node3" class="node">
<title>Node13</title>
<g id="a_node3"><a xlink:href="ConstSolutionIterator_8h.html" target="_top" xlink:title="Defines the SolutionIterator class. ">
<polygon fill="#ffffff" stroke="#000000" points="86,-84.5 86,-131.5 272,-131.5 272,-84.5 86,-84.5"/>
<text text-anchor="start" x="94" y="-117.9" font-family="Helvetica,sans-Serif" font-size="12.00" fill="#000000">/home/kpenev/projects</text>
<text text-anchor="start" x="94" y="-104.9" font-family="Helvetica,sans-Serif" font-size="12.00" fill="#000000">/git/poet/poet_src/ConstSolution</text>
<text text-anchor="middle" x="179" y="-91.9" font-family="Helvetica,sans-Serif" font-size="12.00" fill="#000000">Iterator.h</text>
</a>
</g>
</g>
<!-- Node12&#45;&gt;Node13 -->
<g id="edge2" class="edge">
<title>Node12&#45;&gt;Node13</title>
<path fill="none" stroke="#191970" d="M436.6692,-171.4728C386.9358,-159.2217 323.6665,-143.6363 272.2691,-130.9754"/>
<polygon fill="#191970" stroke="#191970" points="435.881,-174.8832 446.4279,-173.8767 437.5553,-168.0863 435.881,-174.8832"/>
</g>
<!-- Node15 -->
<g id="node5" class="node">
<title>Node15</title>
<g id="a_node5"><a xlink:href="Evolve_2CInterface_8h.html" target="_top" xlink:title="Declare C&#45;style functions for accessing the functionality of the Evolve library. ">
<polygon fill="#ffffff" stroke="#000000" points="364.5,-84.5 364.5,-131.5 511.5,-131.5 511.5,-84.5 364.5,-84.5"/>
<text text-anchor="start" x="372.5" y="-117.9" font-family="Helvetica,sans-Serif" font-size="12.00" fill="#000000">/home/kpenev/projects</text>
<text text-anchor="start" x="372.5" y="-104.9" font-family="Helvetica,sans-Serif" font-size="12.00" fill="#000000">/git/poet/poet_src/Evolve</text>
<text text-anchor="middle" x="438" y="-91.9" font-family="Helvetica,sans-Serif" font-size="12.00" fill="#000000">/CInterface.h</text>
</a>
</g>
</g>
<!-- Node12&#45;&gt;Node15 -->
<g id="edge4" class="edge">
<title>Node12&#45;&gt;Node15</title>
<path fill="none" stroke="#191970" d="M489.6795,-160.94C480.2149,-151.2445 469.9341,-140.7129 461.053,-131.6152"/>
<polygon fill="#191970" stroke="#191970" points="487.2315,-163.4428 496.7214,-168.1537 492.2406,-158.553 487.2315,-163.4428"/>
</g>
<!-- Node19 -->
<g id="node9" class="node">
<title>Node19</title>
<g id="a_node9"><a xlink:href="OrbitSolver_8cpp.html" target="_top" xlink:title="Implements some of the members of the OrbitSolver class, the various stopping conditions and a number...">
<polygon fill="#ffffff" stroke="#000000" points="529.5,-84.5 529.5,-131.5 676.5,-131.5 676.5,-84.5 529.5,-84.5"/>
<text text-anchor="start" x="537.5" y="-117.9" font-family="Helvetica,sans-Serif" font-size="12.00" fill="#000000">/home/kpenev/projects</text>
<text text-anchor="start" x="537.5" y="-104.9" font-family="Helvetica,sans-Serif" font-size="12.00" fill="#000000">/git/poet/poet_src/Evolve</text>
<text text-anchor="middle" x="603" y="-91.9" font-family="Helvetica,sans-Serif" font-size="12.00" fill="#000000">/OrbitSolver.cpp</text>
</a>
</g>
</g>
<!-- Node12&#45;&gt;Node19 -->
<g id="edge8" class="edge">
<title>Node12&#45;&gt;Node19</title>
<path fill="none" stroke="#191970" d="M550.6902,-160.94C560.2703,-151.2445 570.6765,-140.7129 579.6659,-131.6152"/>
<polygon fill="#191970" stroke="#191970" points="548.1014,-158.5803 543.5625,-168.1537 553.0807,-163.5004 548.1014,-158.5803"/>
</g>
<!-- Node20 -->
<g id="node10" class="node">
<title>Node20</title>
<g id="a_node10"><a xlink:href="testOrbitSolver_8h.html" target="_top" xlink:title="Declares the test suite that exercises the OrbitSolver class and some other clasess necessary to acco...">
<polygon fill="#ffffff" stroke="#000000" points="695,-84.5 695,-131.5 893,-131.5 893,-84.5 695,-84.5"/>
<text text-anchor="start" x="703" y="-117.9" font-family="Helvetica,sans-Serif" font-size="12.00" fill="#000000">/home/kpenev/projects</text>
<text text-anchor="start" x="703" y="-104.9" font-family="Helvetica,sans-Serif" font-size="12.00" fill="#000000">/git/poet/poet_src/unit</text>
<text text-anchor="middle" x="794" y="-91.9" font-family="Helvetica,sans-Serif" font-size="12.00" fill="#000000">_tests/testEvolve/testOrbitSolver.h</text>
</a>
</g>
</g>
<!-- Node12&#45;&gt;Node20 -->
<g id="edge9" class="edge">
<title>Node12&#45;&gt;Node20</title>
<path fill="none" stroke="#191970" d="M603.3486,-166.4479C639.5785,-155.3409 681.7534,-142.4114 717.211,-131.5412"/>
<polygon fill="#191970" stroke="#191970" points="602.3223,-163.1016 593.7874,-169.379 604.3741,-169.7942 602.3223,-163.1016"/>
</g>
<!-- Node14 -->
<g id="node4" class="node">
<title>Node14</title>
<g id="a_node4"><a xlink:href="ConstSolutionIterator_8cpp_source.html" target="_top" xlink:title="/home/kpenev/projects\l/git/poet/poet_src/ConstSolution\lIterator.cpp">
<polygon fill="#ffffff" stroke="#000000" points="0,-.5 0,-47.5 186,-47.5 186,-.5 0,-.5"/>
<text text-anchor="start" x="8" y="-33.9" font-family="Helvetica,sans-Serif" font-size="12.00" fill="#000000">/home/kpenev/projects</text>
<text text-anchor="start" x="8" y="-20.9" font-family="Helvetica,sans-Serif" font-size="12.00" fill="#000000">/git/poet/poet_src/ConstSolution</text>
<text text-anchor="middle" x="93" y="-7.9" font-family="Helvetica,sans-Serif" font-size="12.00" fill="#000000">Iterator.cpp</text>
</a>
</g>
</g>
<!-- Node13&#45;&gt;Node14 -->
<g id="edge3" class="edge">
<title>Node13&#45;&gt;Node14</title>
<path fill="none" stroke="#191970" d="M147.2005,-76.94C137.2741,-67.2445 126.4918,-56.7129 117.1775,-47.6152"/>
<polygon fill="#191970" stroke="#191970" points="144.9865,-79.6701 154.5859,-84.1537 149.8777,-74.6624 144.9865,-79.6701"/>
</g>
<!-- Node16 -->
<g id="node6" class="node">
<title>Node16</title>
<g id="a_node6"><a xlink:href="Evolve_2CInterface_8cpp.html" target="_top" xlink:title="The definitions of the functions declared in CInterface.h. ">
<polygon fill="#ffffff" stroke="#000000" points="204.5,-.5 204.5,-47.5 351.5,-47.5 351.5,-.5 204.5,-.5"/>
<text text-anchor="start" x="212.5" y="-33.9" font-family="Helvetica,sans-Serif" font-size="12.00" fill="#000000">/home/kpenev/projects</text>
<text text-anchor="start" x="212.5" y="-20.9" font-family="Helvetica,sans-Serif" font-size="12.00" fill="#000000">/git/poet/poet_src/Evolve</text>
<text text-anchor="middle" x="278" y="-7.9" font-family="Helvetica,sans-Serif" font-size="12.00" fill="#000000">/CInterface.cpp</text>
</a>
</g>
</g>
<!-- Node15&#45;&gt;Node16 -->
<g id="edge5" class="edge">
<title>Node15&#45;&gt;Node16</title>
<path fill="none" stroke="#191970" d="M384.0668,-79.6851C364.1992,-69.2546 341.9234,-57.5598 322.9339,-47.5903"/>
<polygon fill="#191970" stroke="#191970" points="382.5244,-82.8283 393.0053,-84.3778 385.7782,-76.6305 382.5244,-82.8283"/>
</g>
<!-- Node17 -->
<g id="node7" class="node">
<title>Node17</title>
<g id="a_node7"><a xlink:href="Planet_2CInterface_8cpp.html" target="_top" xlink:title="The definitions of the functions declared in CInterface.h. ">
<polygon fill="#ffffff" stroke="#000000" points="369.5,-.5 369.5,-47.5 514.5,-47.5 514.5,-.5 369.5,-.5"/>
<text text-anchor="start" x="377.5" y="-33.9" font-family="Helvetica,sans-Serif" font-size="12.00" fill="#000000">/home/kpenev/projects</text>
<text text-anchor="start" x="377.5" y="-20.9" font-family="Helvetica,sans-Serif" font-size="12.00" fill="#000000">/git/poet/poet_src/Planet</text>
<text text-anchor="middle" x="442" y="-7.9" font-family="Helvetica,sans-Serif" font-size="12.00" fill="#000000">/CInterface.cpp</text>
</a>
</g>
</g>
<!-- Node15&#45;&gt;Node17 -->
<g id="edge6" class="edge">
<title>Node15&#45;&gt;Node17</title>
<path fill="none" stroke="#191970" d="M439.6159,-74.0664C440.0384,-65.1933 440.4847,-55.821 440.8755,-47.6152"/>
<polygon fill="#191970" stroke="#191970" points="436.1152,-73.9985 439.1355,-84.1537 443.1073,-74.3315 436.1152,-73.9985"/>
</g>
<!-- Node18 -->
<g id="node8" class="node">
<title>Node18</title>
<g id="a_node8"><a xlink:href="Star_2CInterface_8cpp.html" target="_top" xlink:title="The definitions of the functions declared in CInterface.h. ">
<polygon fill="#ffffff" stroke="#000000" points="532.5,-.5 532.5,-47.5 669.5,-47.5 669.5,-.5 532.5,-.5"/>
<text text-anchor="start" x="540.5" y="-33.9" font-family="Helvetica,sans-Serif" font-size="12.00" fill="#000000">/home/kpenev/projects</text>
<text text-anchor="start" x="540.5" y="-20.9" font-family="Helvetica,sans-Serif" font-size="12.00" fill="#000000">/git/poet/poet_src/Star</text>
<text text-anchor="middle" x="601" y="-7.9" font-family="Helvetica,sans-Serif" font-size="12.00" fill="#000000">/CInterface.cpp</text>
</a>
</g>
</g>
<!-- Node15&#45;&gt;Node18 -->
<g id="edge7" class="edge">
<title>Node15&#45;&gt;Node18</title>
<path fill="none" stroke="#191970" d="M492.9444,-79.6851C513.1846,-69.2546 535.878,-57.5598 555.2236,-47.5903"/>
<polygon fill="#191970" stroke="#191970" points="491.1241,-76.6857 483.8384,-84.3778 494.3308,-82.908 491.1241,-76.6857"/>
</g>
<!-- Node21 -->
<g id="node11" class="node">
<title>Node21</title>
<g id="a_node11"><a xlink:href="testEvolve_8cpp_source.html" target="_top" xlink:title="/home/kpenev/projects\l/git/poet/poet_src/unit\l_tests/testEvolve/testEvolve.cpp">
<polygon fill="#ffffff" stroke="#000000" points="696,-.5 696,-47.5 884,-47.5 884,-.5 696,-.5"/>
<text text-anchor="start" x="704" y="-33.9" font-family="Helvetica,sans-Serif" font-size="12.00" fill="#000000">/home/kpenev/projects</text>
<text text-anchor="start" x="704" y="-20.9" font-family="Helvetica,sans-Serif" font-size="12.00" fill="#000000">/git/poet/poet_src/unit</text>
<text text-anchor="middle" x="790" y="-7.9" font-family="Helvetica,sans-Serif" font-size="12.00" fill="#000000">_tests/testEvolve/testEvolve.cpp</text>
</a>
</g>
</g>
<!-- Node20&#45;&gt;Node21 -->
<g id="edge10" class="edge">
<title>Node20&#45;&gt;Node21</title>
<path fill="none" stroke="#191970" d="M792.3841,-74.0664C791.9616,-65.1933 791.5153,-55.821 791.1245,-47.6152"/>
<polygon fill="#191970" stroke="#191970" points="788.8927,-74.3315 792.8645,-84.1537 795.8848,-73.9985 788.8927,-74.3315"/>
</g>
<!-- Node22 -->
<g id="node12" class="node">
<title>Node22</title>
<g id="a_node12"><a xlink:href="testOrbitSolver_8cpp.html" target="_top" xlink:title="Defines some of the methods of the test suite that exercises the OrbitSolver class and the other clas...">
<polygon fill="#ffffff" stroke="#000000" points="902.5,-.5 902.5,-47.5 1113.5,-47.5 1113.5,-.5 902.5,-.5"/>
<text text-anchor="start" x="910.5" y="-33.9" font-family="Helvetica,sans-Serif" font-size="12.00" fill="#000000">/home/kpenev/projects</text>
<text text-anchor="start" x="910.5" y="-20.9" font-family="Helvetica,sans-Serif" font-size="12.00" fill="#000000">/git/poet/poet_src/unit</text>
<text text-anchor="middle" x="1008" y="-7.9" font-family="Helvetica,sans-Serif" font-size="12.00" fill="#000000">_tests/testEvolve/testOrbitSolver.cpp</text>
</a>
</g>
</g>
<!-- Node20&#45;&gt;Node22 -->
<g id="edge11" class="edge">
<title>Node20&#45;&gt;Node22</title>
<path fill="none" stroke="#191970" d="M863.3912,-80.7623C890.7185,-70.0357 921.7958,-57.8371 948.119,-47.5047"/>
<polygon fill="#191970" stroke="#191970" points="861.9252,-77.5777 853.8955,-84.4896 864.4829,-84.0937 861.9252,-77.5777"/>
</g>
</g>
</svg>
