<?xml version="1.0" encoding="UTF-8" standalone="no"?>
<!DOCTYPE svg PUBLIC "-//W3C//DTD SVG 1.1//EN"
 "http://www.w3.org/Graphics/SVG/1.1/DTD/svg11.dtd">
<!-- Generated by graphviz version 2.40.1 (20161225.0304)
 -->
<!-- Title: /home/kpenev/projects/git/poet/poet_src/Evolve/StopHistoryInterval.cpp Pages: 1 -->
<!--zoomable 243 -->
<svg id="main" version="1.1" xmlns="http://www.w3.org/2000/svg" xmlns:xlink="http://www.w3.org/1999/xlink" xml:space="preserve" onload="init(evt)">
<style type="text/css"><![CDATA[
.edge:hover path { stroke: red; }
.edge:hover polygon { stroke: red; fill: red; }
]]></style>
<script type="text/javascript"><![CDATA[
var edges = document.getElementsByTagName('g');
if (edges && edges.length) {
  for (var i=0;i<edges.length;i++) {
    if (edges[i].id.substr(0,4)=='edge') {
      edges[i].setAttribute('class','edge');
    }
  }
}
]]></script>
        <defs>
                <circle id="rim" cx="0" cy="0" r="7"/>
                <circle id="rim2" cx="0" cy="0" r="3.5"/>
                <g id="zoomPlus">
                        <use xlink:href="#rim" fill="#404040">
                                <set attributeName="fill" to="#808080" begin="zoomplus.mouseover" end="zoomplus.mouseout"/>
                        </use>
                        <path d="M-4,0h8M0,-4v8" fill="none" stroke="white" stroke-width="1.5" pointer-events="none"/>
                </g>
                <g id="zoomMin">
                        <use xlink:href="#rim" fill="#404040">
                                <set attributeName="fill" to="#808080" begin="zoomminus.mouseover" end="zoomminus.mouseout"/>
                        </use>
                        <path d="M-4,0h8" fill="none" stroke="white" stroke-width="1.5" pointer-events="none"/>
                </g>
                <g id="dirArrow">
                        <path fill="none" stroke="white" stroke-width="1.5" d="M0,-3.0v7 M-2.5,-0.5L0,-3.0L2.5,-0.5"/>
                </g>
               <g id="resetDef">
                       <use xlink:href="#rim2" fill="#404040">
                               <set attributeName="fill" to="#808080" begin="reset.mouseover" end="reset.mouseout"/>
                       </use>
               </g>
        </defs>

<script type="text/javascript">
var viewWidth = 623;
var viewHeight = 243;
var sectionId = 'dynsection-0';
</script>
<script xlink:href="svgpan.js"/>
<svg id="graph" class="graph">
<g id="viewport">
<title>/home/kpenev/projects/git/poet/poet_src/Evolve/StopHistoryInterval.cpp</title>
<polygon fill="#ffffff" stroke="transparent" points="-4,4 -4,-239 619,-239 619,4 -4,4"/>
<!-- Node0 -->
<g id="node1" class="node">
<title>Node0</title>
<polygon fill="#bfbfbf" stroke="#000000" points="298,-187.5 298,-234.5 445,-234.5 445,-187.5 298,-187.5"/>
<text text-anchor="start" x="306" y="-220.9" font-family="Helvetica,sans-Serif" font-size="12.00" fill="#000000">/home/kpenev/projects</text>
<text text-anchor="start" x="306" y="-207.9" font-family="Helvetica,sans-Serif" font-size="12.00" fill="#000000">/git/poet/poet_src/Evolve</text>
<text text-anchor="middle" x="371.5" y="-194.9" font-family="Helvetica,sans-Serif" font-size="12.00" fill="#000000">/StopHistoryInterval.cpp</text>
</g>
<!-- Node1 -->
<g id="node2" class="node">
<title>Node1</title>
<g id="a_node2"><a xlink:href="StopHistoryInterval_8h.html" target="_top" xlink:title="Declares the StopHistoryInterval class. ">
<polygon fill="#ffffff" stroke="#000000" points="307.5,-129.5 307.5,-150.5 435.5,-150.5 435.5,-129.5 307.5,-129.5"/>
<text text-anchor="middle" x="371.5" y="-136.9" font-family="Helvetica,sans-Serif" font-size="12.00" fill="#000000">StopHistoryInterval.h</text>
</a>
</g>
</g>
<!-- Node0&#45;&gt;Node1 -->
<g id="edge1" class="edge">
<title>Node0&#45;&gt;Node1</title>
<path fill="none" stroke="#191970" d="M371.5,-187.358C371.5,-178.719 371.5,-169.0215 371.5,-160.6624"/>
<polygon fill="#191970" stroke="#191970" points="375.0001,-160.6462 371.5,-150.6462 368.0001,-160.6463 375.0001,-160.6462"/>
</g>
<!-- Node2 -->
<g id="node3" class="node">
<title>Node2</title>
<g id="a_node3"><a xlink:href="SharedLibraryExportMacros_8h_source.html" target="_top" xlink:title="../Core/SharedLibraryExport\lMacros.h">
<polygon fill="#ffffff" stroke="#000000" points="0,-.5 0,-34.5 165,-34.5 165,-.5 0,-.5"/>
<text text-anchor="start" x="8" y="-20.9" font-family="Helvetica,sans-Serif" font-size="12.00" fill="#000000">../Core/SharedLibraryExport</text>
<text text-anchor="middle" x="82.5" y="-7.9" font-family="Helvetica,sans-Serif" font-size="12.00" fill="#000000">Macros.h</text>
</a>
</g>
</g>
<!-- Node1&#45;&gt;Node2 -->
<g id="edge2" class="edge">
<title>Node1&#45;&gt;Node2</title>
<path fill="none" stroke="#191970" d="M307.0471,-135.0548C263.2659,-129.5191 205.2341,-117.7989 159.5,-93 136.5871,-80.5757 115.8231,-59.336 101.647,-42.5433"/>
<polygon fill="#191970" stroke="#191970" points="104.2802,-40.2345 95.2366,-34.715 98.8643,-44.6694 104.2802,-40.2345"/>
</g>
<!-- Node3 -->
<g id="node4" class="node">
<title>Node3</title>
<g id="a_node4"><a xlink:href="Error_8h.html" target="_top" xlink:title="Defines the exception hierarchy used by this code. ">
<polygon fill="#ffffff" stroke="#000000" points="169,-71.5 169,-92.5 260,-92.5 260,-71.5 169,-71.5"/>
<text text-anchor="middle" x="214.5" y="-78.9" font-family="Helvetica,sans-Serif" font-size="12.00" fill="#000000">../Core/Error.h</text>
</a>
</g>
</g>
<!-- Node1&#45;&gt;Node3 -->
<g id="edge3" class="edge">
<title>Node1&#45;&gt;Node3</title>
<path fill="none" stroke="#191970" d="M343.0685,-129.4966C317.6948,-120.1229 280.3432,-106.3242 252.4295,-96.0122"/>
<polygon fill="#191970" stroke="#191970" points="253.5781,-92.7054 242.9848,-92.5231 251.1523,-99.2716 253.5781,-92.7054"/>
</g>
<!-- Node7 -->
<g id="node8" class="node">
<title>Node7</title>
<polygon fill="#ffffff" stroke="#bfbfbf" points="278,-71.5 278,-92.5 337,-92.5 337,-71.5 278,-71.5"/>
<text text-anchor="middle" x="307.5" y="-78.9" font-family="Helvetica,sans-Serif" font-size="12.00" fill="#000000">valarray</text>
</g>
<!-- Node1&#45;&gt;Node7 -->
<g id="edge8" class="edge">
<title>Node1&#45;&gt;Node7</title>
<path fill="none" stroke="#191970" d="M359.7614,-129.3619C350.5594,-121.0226 337.5599,-109.2418 326.8283,-99.5162"/>
<polygon fill="#191970" stroke="#191970" points="328.9244,-96.6924 319.1642,-92.5707 324.2237,-101.8793 328.9244,-96.6924"/>
</g>
<!-- Node8 -->
<g id="node9" class="node">
<title>Node8</title>
<polygon fill="#ffffff" stroke="#bfbfbf" points="355.5,-71.5 355.5,-92.5 387.5,-92.5 387.5,-71.5 355.5,-71.5"/>
<text text-anchor="middle" x="371.5" y="-78.9" font-family="Helvetica,sans-Serif" font-size="12.00" fill="#000000">list</text>
</g>
<!-- Node1&#45;&gt;Node8 -->
<g id="edge9" class="edge">
<title>Node1&#45;&gt;Node8</title>
<path fill="none" stroke="#191970" d="M371.5,-129.3619C371.5,-121.9219 371.5,-111.7427 371.5,-102.7276"/>
<polygon fill="#191970" stroke="#191970" points="375.0001,-102.5706 371.5,-92.5707 368.0001,-102.5707 375.0001,-102.5706"/>
</g>
<!-- Node9 -->
<g id="node10" class="node">
<title>Node9</title>
<polygon fill="#ffffff" stroke="#bfbfbf" points="406,-71.5 406,-92.5 465,-92.5 465,-71.5 406,-71.5"/>
<text text-anchor="middle" x="435.5" y="-78.9" font-family="Helvetica,sans-Serif" font-size="12.00" fill="#000000">ostream</text>
</g>
<!-- Node1&#45;&gt;Node9 -->
<g id="edge10" class="edge">
<title>Node1&#45;&gt;Node9</title>
<path fill="none" stroke="#191970" d="M383.2386,-129.3619C392.4406,-121.0226 405.4401,-109.2418 416.1717,-99.5162"/>
<polygon fill="#191970" stroke="#191970" points="418.7763,-101.8793 423.8358,-92.5707 414.0756,-96.6924 418.7763,-101.8793"/>
</g>
<!-- Node10 -->
<g id="node11" class="node">
<title>Node10</title>
<polygon fill="#ffffff" stroke="#bfbfbf" points="483,-71.5 483,-92.5 538,-92.5 538,-71.5 483,-71.5"/>
<text text-anchor="middle" x="510.5" y="-78.9" font-family="Helvetica,sans-Serif" font-size="12.00" fill="#000000">cassert</text>
</g>
<!-- Node1&#45;&gt;Node10 -->
<g id="edge11" class="edge">
<title>Node1&#45;&gt;Node10</title>
<path fill="none" stroke="#191970" d="M396.6719,-129.4966C418.7731,-120.2746 451.1387,-106.7695 475.7134,-96.5153"/>
<polygon fill="#191970" stroke="#191970" points="477.1647,-99.7022 485.0457,-92.6212 474.4691,-93.2421 477.1647,-99.7022"/>
</g>
<!-- Node11 -->
<g id="node12" class="node">
<title>Node11</title>
<polygon fill="#ffffff" stroke="#bfbfbf" points="556,-71.5 556,-92.5 615,-92.5 615,-71.5 556,-71.5"/>
<text text-anchor="middle" x="585.5" y="-78.9" font-family="Helvetica,sans-Serif" font-size="12.00" fill="#000000">iomanip</text>
</g>
<!-- Node1&#45;&gt;Node11 -->
<g id="edge12" class="edge">
<title>Node1&#45;&gt;Node11</title>
<path fill="none" stroke="#191970" d="M412.1098,-129.4117C445.6616,-120.6063 494.7899,-107.5818 545.7697,-93.4507"/>
<polygon fill="#191970" stroke="#191970" points="546.9486,-96.7558 555.6459,-90.7055 545.0739,-90.0115 546.9486,-96.7558"/>
</g>
<!-- Node3&#45;&gt;Node2 -->
<g id="edge4" class="edge">
<title>Node3&#45;&gt;Node2</title>
<path fill="none" stroke="#191970" d="M192.9981,-71.4934C175.02,-62.7086 148.7963,-49.8948 126.407,-38.9546"/>
<polygon fill="#191970" stroke="#191970" points="127.9241,-35.8004 117.4027,-34.5547 124.8509,-42.0897 127.9241,-35.8004"/>
</g>
<!-- Node4 -->
<g id="node5" class="node">
<title>Node4</title>
<polygon fill="#ffffff" stroke="#bfbfbf" points="183.5,-7 183.5,-28 245.5,-28 245.5,-7 183.5,-7"/>
<text text-anchor="middle" x="214.5" y="-14.4" font-family="Helvetica,sans-Serif" font-size="12.00" fill="#000000">iostream</text>
</g>
<!-- Node3&#45;&gt;Node4 -->
<g id="edge5" class="edge">
<title>Node3&#45;&gt;Node4</title>
<path fill="none" stroke="#191970" d="M214.5,-71.3491C214.5,-62.4397 214.5,-49.4599 214.5,-38.4761"/>
<polygon fill="#191970" stroke="#191970" points="218.0001,-38.3822 214.5,-28.3823 211.0001,-38.3823 218.0001,-38.3822"/>
</g>
<!-- Node5 -->
<g id="node6" class="node">
<title>Node5</title>
<polygon fill="#ffffff" stroke="#bfbfbf" points="263.5,-7 263.5,-28 331.5,-28 331.5,-7 263.5,-7"/>
<text text-anchor="middle" x="297.5" y="-14.4" font-family="Helvetica,sans-Serif" font-size="12.00" fill="#000000">exception</text>
</g>
<!-- Node3&#45;&gt;Node5 -->
<g id="edge6" class="edge">
<title>Node3&#45;&gt;Node5</title>
<path fill="none" stroke="#191970" d="M228.2058,-71.3491C241.0613,-61.359 260.5023,-46.2512 275.5235,-34.5781"/>
<polygon fill="#191970" stroke="#191970" points="278.0254,-37.0665 283.7739,-28.1667 273.7301,-31.5392 278.0254,-37.0665"/>
</g>
<!-- Node6 -->
<g id="node7" class="node">
<title>Node6</title>
<polygon fill="#ffffff" stroke="#bfbfbf" points="349.5,-7 349.5,-28 395.5,-28 395.5,-7 349.5,-7"/>
<text text-anchor="middle" x="372.5" y="-14.4" font-family="Helvetica,sans-Serif" font-size="12.00" fill="#000000">string</text>
</g>
<!-- Node3&#45;&gt;Node6 -->
<g id="edge7" class="edge">
<title>Node3&#45;&gt;Node6</title>
<path fill="none" stroke="#191970" d="M246.5992,-71.4538C272.3735,-62.6471 309.2857,-49.2678 340.5,-35 342.0441,-34.2942 343.6158,-33.5443 345.1924,-32.7672"/>
<polygon fill="#191970" stroke="#191970" points="346.8515,-35.8495 354.1169,-28.1382 343.6284,-29.6356 346.8515,-35.8495"/>
</g>
</g>
</svg>
        <g id="navigator" transform="translate(0 0)" fill="#404254">
                <rect fill="#f2f5e9" fill-opacity="0.5" stroke="#606060" stroke-width=".5" x="0" y="0" width="60" height="60"/>
                <use id="zoomplus" xlink:href="#zoomPlus" x="17" y="9" onmousedown="handleZoom(evt,'in')"/>
                <use id="zoomminus" xlink:href="#zoomMin" x="42" y="9" onmousedown="handleZoom(evt,'out')"/>
                <use id="reset" xlink:href="#resetDef" x="30" y="36" onmousedown="handleReset()"/>
                <g id="arrowUp" xlink:href="#dirArrow" transform="translate(30 24)" onmousedown="handlePan(0,-1)">
                  <use xlink:href="#rim" fill="#404040">
                        <set attributeName="fill" to="#808080" begin="arrowUp.mouseover" end="arrowUp.mouseout"/>
                  </use>
                  <path fill="none" stroke="white" stroke-width="1.5" d="M0,-3.0v7 M-2.5,-0.5L0,-3.0L2.5,-0.5"/>
                </g>
                <g id="arrowRight" xlink:href="#dirArrow" transform="rotate(90) translate(36 -43)" onmousedown="handlePan(1,0)">
                  <use xlink:href="#rim" fill="#404040">
                        <set attributeName="fill" to="#808080" begin="arrowRight.mouseover" end="arrowRight.mouseout"/>
                  </use>
                  <path fill="none" stroke="white" stroke-width="1.5" d="M0,-3.0v7 M-2.5,-0.5L0,-3.0L2.5,-0.5"/>
                </g>
                <g id="arrowDown" xlink:href="#dirArrow" transform="rotate(180) translate(-30 -48)" onmousedown="handlePan(0,1)">
                  <use xlink:href="#rim" fill="#404040">
                        <set attributeName="fill" to="#808080" begin="arrowDown.mouseover" end="arrowDown.mouseout"/>
                  </use>
                  <path fill="none" stroke="white" stroke-width="1.5" d="M0,-3.0v7 M-2.5,-0.5L0,-3.0L2.5,-0.5"/>
                </g>
                <g id="arrowLeft" xlink:href="#dirArrow" transform="rotate(270) translate(-36 17)" onmousedown="handlePan(-1,0)">
                  <use xlink:href="#rim" fill="#404040">
                        <set attributeName="fill" to="#808080" begin="arrowLeft.mouseover" end="arrowLeft.mouseout"/>
                  </use>
                  <path fill="none" stroke="white" stroke-width="1.5" d="M0,-3.0v7 M-2.5,-0.5L0,-3.0L2.5,-0.5"/>
                </g>
        </g>
        <svg viewBox="0 0 15 15" width="100%" height="30px" preserveAspectRatio="xMaxYMin meet">
         <g id="arrow_out" transform="scale(0.3 0.3)">
          <a xlink:href="StopHistoryInterval_8cpp__incl_org.svg" target="_base">
           <rect id="button" ry="5" rx="5" y="6" x="6" height="38" width="38"
                fill="#f2f5e9" fill-opacity="0.5" stroke="#606060" stroke-width="1.0"/>
           <path id="arrow"
             d="M 11.500037,31.436501 C 11.940474,20.09759 22.043105,11.32322 32.158766,21.979434 L 37.068811,17.246167 C 37.068811,17.246167 37.088388,32 37.088388,32 L 22.160133,31.978069 C 22.160133,31.978069 26.997745,27.140456 26.997745,27.140456 C 18.528582,18.264221 13.291696,25.230495 11.500037,31.436501 z"
             style="fill:#404040;"/>
          </a>
         </g>
        </svg>
</svg>
