<?xml version="1.0" encoding="UTF-8" standalone="no"?>
<!DOCTYPE svg PUBLIC "-//W3C//DTD SVG 1.1//EN"
 "http://www.w3.org/Graphics/SVG/1.1/DTD/svg11.dtd">
<!-- Generated by graphviz version 2.40.1 (20161225.0304)
 -->
<!-- Title: /Users/kpenev/projects/git/poet/poet_src/Evolve/StoppingCondition.cpp Pages: 1 -->
<svg width="1494pt" height="293pt"
 viewBox="0.00 0.00 1494.04 293.00" xmlns="http://www.w3.org/2000/svg" xmlns:xlink="http://www.w3.org/1999/xlink">
<g id="graph0" class="graph" transform="scale(1 1) rotate(0) translate(4 289)">
<title>/Users/kpenev/projects/git/poet/poet_src/Evolve/StoppingCondition.cpp</title>
<polygon fill="#ffffff" stroke="transparent" points="-4,4 -4,-289 1490.04,-289 1490.04,4 -4,4"/>
<!-- Node0 -->
<g id="node1" class="node">
<title>Node0</title>
<polygon fill="#bfbfbf" stroke="#000000" points="519.9971,-240.5 519.9971,-284.5 667.4053,-284.5 667.4053,-240.5 519.9971,-240.5"/>
<text text-anchor="start" x="527.9971" y="-270.9" font-family="Helvetica,sans-Serif" font-size="12.00" fill="#000000">/Users/kpenev/projects</text>
<text text-anchor="start" x="527.9971" y="-258.9" font-family="Helvetica,sans-Serif" font-size="12.00" fill="#000000">/git/poet/poet_src/Evolve</text>
<text text-anchor="middle" x="593.7012" y="-246.9" font-family="Helvetica,sans-Serif" font-size="12.00" fill="#000000">/StoppingCondition.cpp</text>
</g>
<!-- Node1 -->
<g id="node2" class="node">
<title>Node1</title>
<g id="a_node2"><a xlink:href="StoppingCondition_8h.html" target="_top" xlink:title="Defines the various stopping conditions needed by OrbitSolver. ">
<polygon fill="#ffffff" stroke="#000000" points="531.6602,-183.5 531.6602,-203.5 655.7422,-203.5 655.7422,-183.5 531.6602,-183.5"/>
<text text-anchor="middle" x="593.7012" y="-189.9" font-family="Helvetica,sans-Serif" font-size="12.00" fill="#000000">StoppingCondition.h</text>
</a>
</g>
</g>
<!-- Node0&#45;&gt;Node1 -->
<g id="edge1" class="edge">
<title>Node0&#45;&gt;Node1</title>
<path fill="none" stroke="#191970" d="M593.7012,-240.2882C593.7012,-231.8377 593.7012,-222.2557 593.7012,-213.9736"/>
<polygon fill="#191970" stroke="#191970" points="597.2013,-213.7136 593.7012,-203.7137 590.2013,-213.7137 597.2013,-213.7136"/>
</g>
<!-- Node2 -->
<g id="node3" class="node">
<title>Node2</title>
<g id="a_node3"><a xlink:href="SharedLibraryExportMacros_8h_source.html" target="_top" xlink:title="../Core/SharedLibraryExport\lMacros.h">
<polygon fill="#ffffff" stroke="#000000" points="0,-.5 0,-32.5 165.4023,-32.5 165.4023,-.5 0,-.5"/>
<text text-anchor="start" x="8" y="-18.9" font-family="Helvetica,sans-Serif" font-size="12.00" fill="#000000">../Core/SharedLibraryExport</text>
<text text-anchor="middle" x="82.7012" y="-6.9" font-family="Helvetica,sans-Serif" font-size="12.00" fill="#000000">Macros.h</text>
</a>
</g>
</g>
<!-- Node1&#45;&gt;Node2 -->
<g id="edge2" class="edge">
<title>Node1&#45;&gt;Node2</title>
<path fill="none" stroke="#191970" d="M531.4928,-187.4368C416.0374,-175.0337 174.6163,-143.3436 111.7012,-90 97.625,-78.0653 90.3345,-58.3763 86.5851,-42.3788"/>
<polygon fill="#191970" stroke="#191970" points="90.0044,-41.6288 84.5968,-32.5179 83.1425,-43.0124 90.0044,-41.6288"/>
</g>
<!-- Node3 -->
<g id="node4" class="node">
<title>Node3</title>
<g id="a_node4"><a xlink:href="Core_2Common_8h.html" target="_top" xlink:title="Declaration of some general purpose utilities. ">
<polygon fill="#ffffff" stroke="#000000" points="536.6846,-126.5 536.6846,-146.5 650.7178,-146.5 650.7178,-126.5 536.6846,-126.5"/>
<text text-anchor="middle" x="593.7012" y="-132.9" font-family="Helvetica,sans-Serif" font-size="12.00" fill="#000000">../Core/Common.h</text>
</a>
</g>
</g>
<!-- Node1&#45;&gt;Node3 -->
<g id="edge3" class="edge">
<title>Node1&#45;&gt;Node3</title>
<path fill="none" stroke="#191970" d="M593.7012,-183.3095C593.7012,-175.9335 593.7012,-165.72 593.7012,-156.715"/>
<polygon fill="#191970" stroke="#191970" points="597.2013,-156.6022 593.7012,-146.6022 590.2013,-156.6023 597.2013,-156.6022"/>
</g>
<!-- Node15 -->
<g id="node16" class="node">
<title>Node15</title>
<polygon fill="#ffffff" stroke="#bfbfbf" points="1431.3623,-69.5 1431.3623,-89.5 1486.04,-89.5 1486.04,-69.5 1431.3623,-69.5"/>
<text text-anchor="middle" x="1458.7012" y="-75.9" font-family="Helvetica,sans-Serif" font-size="12.00" fill="#000000">cassert</text>
</g>
<!-- Node1&#45;&gt;Node15 -->
<g id="edge25" class="edge">
<title>Node1&#45;&gt;Node15</title>
<path fill="none" stroke="#191970" d="M655.8723,-189.1474C793.0456,-178.8109 1131.8009,-149.2574 1421.4473,-90.0124"/>
<polygon fill="#191970" stroke="#191970" points="1422.2098,-93.4288 1431.2973,-87.9821 1420.7966,-86.573 1422.2098,-93.4288"/>
</g>
<!-- Node3&#45;&gt;Node2 -->
<g id="edge16" class="edge">
<title>Node3&#45;&gt;Node2</title>
<path fill="none" stroke="#191970" d="M536.6059,-133.1657C422.3735,-126.1318 173.6915,-108.8621 139.7012,-90 119.9249,-79.0256 104.7262,-58.0584 95.016,-41.3179"/>
<polygon fill="#191970" stroke="#191970" points="98.0765,-39.6198 90.1919,-32.5428 91.9424,-42.9921 98.0765,-39.6198"/>
</g>
<!-- Node4 -->
<g id="node5" class="node">
<title>Node4</title>
<polygon fill="#ffffff" stroke="#bfbfbf" points="218.3682,-69.5 218.3682,-89.5 249.0342,-89.5 249.0342,-69.5 218.3682,-69.5"/>
<text text-anchor="middle" x="233.7012" y="-75.9" font-family="Helvetica,sans-Serif" font-size="12.00" fill="#000000">list</text>
</g>
<!-- Node3&#45;&gt;Node4 -->
<g id="edge4" class="edge">
<title>Node3&#45;&gt;Node4</title>
<path fill="none" stroke="#191970" d="M536.4851,-133.0912C469.0572,-128.0403 354.1139,-116.178 258.7012,-90 258.6019,-89.9728 258.5024,-89.9452 258.4029,-89.9174"/>
<polygon fill="#191970" stroke="#191970" points="259.6779,-86.655 249.0831,-86.6933 257.3893,-93.2703 259.6779,-86.655"/>
</g>
<!-- Node5 -->
<g id="node6" class="node">
<title>Node5</title>
<polygon fill="#ffffff" stroke="#bfbfbf" points="267.3613,-69.5 267.3613,-89.5 326.041,-89.5 326.041,-69.5 267.3613,-69.5"/>
<text text-anchor="middle" x="296.7012" y="-75.9" font-family="Helvetica,sans-Serif" font-size="12.00" fill="#000000">valarray</text>
</g>
<!-- Node3&#45;&gt;Node5 -->
<g id="edge5" class="edge">
<title>Node3&#45;&gt;Node5</title>
<path fill="none" stroke="#191970" d="M536.5557,-127.7893C486.1359,-119.7535 410.4816,-106.8463 336.1006,-90.1765"/>
<polygon fill="#191970" stroke="#191970" points="336.6182,-86.7051 326.092,-87.9085 335.0712,-93.532 336.6182,-86.7051"/>
</g>
<!-- Node6 -->
<g id="node7" class="node">
<title>Node6</title>
<polygon fill="#ffffff" stroke="#bfbfbf" points="344.0371,-69.5 344.0371,-89.5 387.3652,-89.5 387.3652,-69.5 344.0371,-69.5"/>
<text text-anchor="middle" x="365.7012" y="-75.9" font-family="Helvetica,sans-Serif" font-size="12.00" fill="#000000">limits</text>
</g>
<!-- Node3&#45;&gt;Node6 -->
<g id="edge6" class="edge">
<title>Node3&#45;&gt;Node6</title>
<path fill="none" stroke="#191970" d="M545.6031,-126.4827C507.7047,-118.2884 453.3752,-105.8792 397.3696,-90.0056"/>
<polygon fill="#191970" stroke="#191970" points="398.2129,-86.6065 387.6356,-87.2161 396.2844,-93.3356 398.2129,-86.6065"/>
</g>
<!-- Node7 -->
<g id="node8" class="node">
<title>Node7</title>
<polygon fill="#ffffff" stroke="#bfbfbf" points="405.3643,-69.5 405.3643,-89.5 464.0381,-89.5 464.0381,-69.5 405.3643,-69.5"/>
<text text-anchor="middle" x="434.7012" y="-75.9" font-family="Helvetica,sans-Serif" font-size="12.00" fill="#000000">sstream</text>
</g>
<!-- Node3&#45;&gt;Node7 -->
<g id="edge7" class="edge">
<title>Node3&#45;&gt;Node7</title>
<path fill="none" stroke="#191970" d="M565.6412,-126.4408C539.7227,-117.1492 501.0209,-103.275 472.4095,-93.0181"/>
<polygon fill="#191970" stroke="#191970" points="473.3422,-89.6344 462.7476,-89.5544 470.9799,-96.2238 473.3422,-89.6344"/>
</g>
<!-- Node8 -->
<g id="node9" class="node">
<title>Node8</title>
<polygon fill="#ffffff" stroke="#bfbfbf" points="396.6943,-6.5 396.6943,-26.5 458.708,-26.5 458.708,-6.5 396.6943,-6.5"/>
<text text-anchor="middle" x="427.7012" y="-12.9" font-family="Helvetica,sans-Serif" font-size="12.00" fill="#000000">iostream</text>
</g>
<!-- Node3&#45;&gt;Node8 -->
<g id="edge8" class="edge">
<title>Node3&#45;&gt;Node8</title>
<path fill="none" stroke="#191970" d="M572.837,-126.3907C555.5892,-117.6676 530.7636,-104.2538 510.7012,-90 486.4297,-72.7558 461.1856,-49.5151 445.0062,-33.8209"/>
<polygon fill="#191970" stroke="#191970" points="447.4239,-31.2896 437.8357,-26.7819 442.5201,-36.2849 447.4239,-31.2896"/>
</g>
<!-- Node9 -->
<g id="node10" class="node">
<title>Node9</title>
<polygon fill="#ffffff" stroke="#bfbfbf" points="520.0273,-69.5 520.0273,-89.5 573.375,-89.5 573.375,-69.5 520.0273,-69.5"/>
<text text-anchor="middle" x="546.7012" y="-75.9" font-family="Helvetica,sans-Serif" font-size="12.00" fill="#000000">iterator</text>
</g>
<!-- Node3&#45;&gt;Node9 -->
<g id="edge9" class="edge">
<title>Node3&#45;&gt;Node9</title>
<path fill="none" stroke="#191970" d="M585.2985,-126.3095C578.6818,-118.2851 569.296,-106.9022 561.4368,-97.3708"/>
<polygon fill="#191970" stroke="#191970" points="564.0933,-95.091 555.0311,-89.6022 558.6925,-99.5443 564.0933,-95.091"/>
</g>
<!-- Node10 -->
<g id="node11" class="node">
<title>Node10</title>
<polygon fill="#ffffff" stroke="#bfbfbf" points="591.3428,-69.5 591.3428,-89.5 690.0596,-89.5 690.0596,-69.5 591.3428,-69.5"/>
<text text-anchor="middle" x="640.7012" y="-75.9" font-family="Helvetica,sans-Serif" font-size="12.00" fill="#000000">gsl/gsl_vector.h</text>
</g>
<!-- Node3&#45;&gt;Node10 -->
<g id="edge10" class="edge">
<title>Node3&#45;&gt;Node10</title>
<path fill="none" stroke="#191970" d="M602.1038,-126.3095C608.7205,-118.2851 618.1063,-106.9022 625.9656,-97.3708"/>
<polygon fill="#191970" stroke="#191970" points="628.7098,-99.5443 632.3713,-89.6022 623.309,-95.091 628.7098,-99.5443"/>
</g>
<!-- Node11 -->
<g id="node12" class="node">
<title>Node11</title>
<polygon fill="#ffffff" stroke="#bfbfbf" points="708.0205,-69.5 708.0205,-89.5 807.3818,-89.5 807.3818,-69.5 708.0205,-69.5"/>
<text text-anchor="middle" x="757.7012" y="-75.9" font-family="Helvetica,sans-Serif" font-size="12.00" fill="#000000">gsl/gsl_matrix.h</text>
</g>
<!-- Node3&#45;&gt;Node11 -->
<g id="edge11" class="edge">
<title>Node3&#45;&gt;Node11</title>
<path fill="none" stroke="#191970" d="M622.6436,-126.4408C649.4938,-117.1087 689.6448,-103.1537 719.193,-92.8839"/>
<polygon fill="#191970" stroke="#191970" points="720.4761,-96.1434 728.7728,-89.5544 718.1779,-89.5314 720.4761,-96.1434"/>
</g>
<!-- Node12 -->
<g id="node13" class="node">
<title>Node12</title>
<polygon fill="#ffffff" stroke="#bfbfbf" points="825.3438,-69.5 825.3438,-89.5 920.0586,-89.5 920.0586,-69.5 825.3438,-69.5"/>
<text text-anchor="middle" x="872.7012" y="-75.9" font-family="Helvetica,sans-Serif" font-size="12.00" fill="#000000">gsl/gsl_linalg.h</text>
</g>
<!-- Node3&#45;&gt;Node12 -->
<g id="edge12" class="edge">
<title>Node3&#45;&gt;Node12</title>
<path fill="none" stroke="#191970" d="M642.9385,-126.4408C691.0427,-116.613 764.2417,-101.6584 815.0409,-91.28"/>
<polygon fill="#191970" stroke="#191970" points="815.791,-94.6992 824.8881,-89.2683 814.3898,-87.8408 815.791,-94.6992"/>
</g>
<!-- Node13 -->
<g id="node14" class="node">
<title>Node13</title>
<polygon fill="#ffffff" stroke="#bfbfbf" points="938.3467,-69.5 938.3467,-89.5 1027.0557,-89.5 1027.0557,-69.5 938.3467,-69.5"/>
<text text-anchor="middle" x="982.7012" y="-75.9" font-family="Helvetica,sans-Serif" font-size="12.00" fill="#000000">gsl/gsl_blas.h</text>
</g>
<!-- Node3&#45;&gt;Node13 -->
<g id="edge13" class="edge">
<title>Node3&#45;&gt;Node13</title>
<path fill="none" stroke="#191970" d="M650.7473,-129.5369C715.4441,-121.426 824.325,-107.1301 928.2034,-90.0088"/>
<polygon fill="#191970" stroke="#191970" points="928.9469,-93.4334 938.2389,-88.3432 927.8007,-86.5278 928.9469,-93.4334"/>
</g>
<!-- Node14 -->
<g id="node15" class="node">
<title>Node14</title>
<polygon fill="#ffffff" stroke="#bfbfbf" points="1044.7891,-69.5 1044.7891,-89.5 1132.6133,-89.5 1132.6133,-69.5 1044.7891,-69.5"/>
<text text-anchor="middle" x="1088.7012" y="-75.9" font-family="Helvetica,sans-Serif" font-size="12.00" fill="#000000">gsl/gsl_poly.h</text>
</g>
<!-- Node3&#45;&gt;Node14 -->
<g id="edge14" class="edge">
<title>Node3&#45;&gt;Node14</title>
<path fill="none" stroke="#191970" d="M650.7774,-132.1618C733.2166,-125.5281 890.5898,-111.4894 1034.193,-90.1184"/>
<polygon fill="#191970" stroke="#191970" points="1035.1392,-93.5155 1044.5074,-88.567 1034.098,-86.5934 1035.1392,-93.5155"/>
</g>
<!-- Node3&#45;&gt;Node15 -->
<g id="edge15" class="edge">
<title>Node3&#45;&gt;Node15</title>
<path fill="none" stroke="#191970" d="M650.7985,-134.9902C809.5716,-130.5285 1255.0117,-116.1546 1421.2644,-89.8476"/>
<polygon fill="#191970" stroke="#191970" points="1422.0411,-93.2667 1431.3347,-88.1795 1420.8971,-86.3608 1422.0411,-93.2667"/>
</g>
<!-- Node16 -->
<g id="node17" class="node">
<title>Node16</title>
<g id="a_node17"><a xlink:href="Error_8h.html" target="_top" xlink:title="Defines the exception hierarchy used by this code. ">
<polygon fill="#ffffff" stroke="#000000" points="148.6924,-69.5 148.6924,-89.5 200.71,-89.5 200.71,-69.5 148.6924,-69.5"/>
<text text-anchor="middle" x="174.7012" y="-75.9" font-family="Helvetica,sans-Serif" font-size="12.00" fill="#000000">Error.h</text>
</a>
</g>
</g>
<!-- Node3&#45;&gt;Node16 -->
<g id="edge17" class="edge">
<title>Node3&#45;&gt;Node16</title>
<path fill="none" stroke="#191970" d="M536.6009,-132.6495C463.1453,-127.0184 331.5759,-114.6425 210.7425,-89.9345"/>
<polygon fill="#191970" stroke="#191970" points="211.4535,-86.5075 200.9505,-87.8999 210.0293,-93.3612 211.4535,-86.5075"/>
</g>
<!-- Node19 -->
<g id="node20" class="node">
<title>Node19</title>
<g id="a_node20"><a xlink:href="AstronomicalConstants_8h.html" target="_top" xlink:title="Defines various astronomical constants. ">
<polygon fill="#ffffff" stroke="#000000" points="1151.0039,-69.5 1151.0039,-89.5 1300.3984,-89.5 1300.3984,-69.5 1151.0039,-69.5"/>
<text text-anchor="middle" x="1225.7012" y="-75.9" font-family="Helvetica,sans-Serif" font-size="12.00" fill="#000000">AstronomicalConstants.h</text>
</a>
</g>
</g>
<!-- Node3&#45;&gt;Node19 -->
<g id="edge22" class="edge">
<title>Node3&#45;&gt;Node19</title>
<path fill="none" stroke="#191970" d="M650.969,-132.393C748.9536,-125.2009 955.3091,-109.3362 1140.4174,-90.1011"/>
<polygon fill="#191970" stroke="#191970" points="1141.0302,-93.5562 1150.6124,-89.036 1140.3028,-86.5941 1141.0302,-93.5562"/>
</g>
<!-- Node20 -->
<g id="node21" class="node">
<title>Node20</title>
<g id="a_node21"><a xlink:href="IncludeEigen_8h_source.html" target="_top" xlink:title="IncludeEigen.h">
<polygon fill="#ffffff" stroke="#000000" points="1318.0039,-69.5 1318.0039,-89.5 1413.3984,-89.5 1413.3984,-69.5 1318.0039,-69.5"/>
<text text-anchor="middle" x="1365.7012" y="-75.9" font-family="Helvetica,sans-Serif" font-size="12.00" fill="#000000">IncludeEigen.h</text>
</a>
</g>
</g>
<!-- Node3&#45;&gt;Node20 -->
<g id="edge23" class="edge">
<title>Node3&#45;&gt;Node20</title>
<path fill="none" stroke="#191970" d="M651.0025,-135.1211C771.1245,-131.7233 1058.2115,-120.9475 1307.8163,-90.1206"/>
<polygon fill="#191970" stroke="#191970" points="1308.3103,-93.5861 1317.7997,-88.8743 1307.4432,-86.6401 1308.3103,-93.5861"/>
</g>
<!-- Node16&#45;&gt;Node2 -->
<g id="edge18" class="edge">
<title>Node16&#45;&gt;Node2</title>
<path fill="none" stroke="#191970" d="M159.9198,-69.378C147.7484,-61.0432 130.0559,-48.9277 114.6762,-38.3959"/>
<polygon fill="#191970" stroke="#191970" points="116.648,-35.5043 106.4196,-32.742 112.693,-41.2799 116.648,-35.5043"/>
</g>
<!-- Node16&#45;&gt;Node8 -->
<g id="edge19" class="edge">
<title>Node16&#45;&gt;Node8</title>
<path fill="none" stroke="#191970" d="M201.0299,-71.4319C203.9492,-70.5878 206.884,-69.7612 209.7012,-69 270.9357,-52.4549 342.5336,-35.7031 386.4967,-25.7102"/>
<polygon fill="#191970" stroke="#191970" points="387.5378,-29.0631 396.5177,-23.4407 385.9916,-22.236 387.5378,-29.0631"/>
</g>
<!-- Node17 -->
<g id="node18" class="node">
<title>Node17</title>
<polygon fill="#ffffff" stroke="#bfbfbf" points="183.0166,-6.5 183.0166,-26.5 250.3857,-26.5 250.3857,-6.5 183.0166,-6.5"/>
<text text-anchor="middle" x="216.7012" y="-12.9" font-family="Helvetica,sans-Serif" font-size="12.00" fill="#000000">exception</text>
</g>
<!-- Node16&#45;&gt;Node17 -->
<g id="edge20" class="edge">
<title>Node16&#45;&gt;Node17</title>
<path fill="none" stroke="#191970" d="M181.4492,-69.378C187.5361,-60.2476 196.6478,-46.5801 204.0827,-35.4278"/>
<polygon fill="#191970" stroke="#191970" points="207.1955,-37.0682 209.8304,-26.8062 201.3711,-33.1853 207.1955,-37.0682"/>
</g>
<!-- Node18 -->
<g id="node19" class="node">
<title>Node18</title>
<polygon fill="#ffffff" stroke="#bfbfbf" points="268.0293,-6.5 268.0293,-26.5 313.373,-26.5 313.373,-6.5 268.0293,-6.5"/>
<text text-anchor="middle" x="290.7012" y="-12.9" font-family="Helvetica,sans-Serif" font-size="12.00" fill="#000000">string</text>
</g>
<!-- Node16&#45;&gt;Node18 -->
<g id="edge21" class="edge">
<title>Node16&#45;&gt;Node18</title>
<path fill="none" stroke="#191970" d="M193.3386,-69.378C212.195,-59.137 241.5614,-43.188 263.1143,-31.4825"/>
<polygon fill="#191970" stroke="#191970" points="264.9928,-34.4452 272.11,-26.5969 261.652,-28.2939 264.9928,-34.4452"/>
</g>
<!-- Node21 -->
<g id="node22" class="node">
<title>Node21</title>
<polygon fill="#ffffff" stroke="#bfbfbf" points="1323.3447,-6.5 1323.3447,-26.5 1408.0576,-26.5 1408.0576,-6.5 1323.3447,-6.5"/>
<text text-anchor="middle" x="1365.7012" y="-12.9" font-family="Helvetica,sans-Serif" font-size="12.00" fill="#000000">Eigen/Dense</text>
</g>
<!-- Node20&#45;&gt;Node21 -->
<g id="edge24" class="edge">
<title>Node20&#45;&gt;Node21</title>
<path fill="none" stroke="#191970" d="M1365.7012,-69.378C1365.7012,-60.7041 1365.7012,-47.9355 1365.7012,-37.1186"/>
<polygon fill="#191970" stroke="#191970" points="1369.2013,-36.8062 1365.7012,-26.8062 1362.2013,-36.8062 1369.2013,-36.8062"/>
</g>
</g>
</svg>
