<?xml version="1.0" encoding="UTF-8" standalone="no"?>
<!DOCTYPE svg PUBLIC "-//W3C//DTD SVG 1.1//EN"
 "http://www.w3.org/Graphics/SVG/1.1/DTD/svg11.dtd">
<!-- Generated by graphviz version 2.40.1 (20161225.0304)
 -->
<!-- Title: /home/kpenev/projects/git/poet/poet_src/StellarEvolution/SumDerivatives.h Pages: 1 -->
<svg width="1524pt" height="670pt"
 viewBox="0.00 0.00 1524.00 670.00" xmlns="http://www.w3.org/2000/svg" xmlns:xlink="http://www.w3.org/1999/xlink">
<g id="graph0" class="graph" transform="scale(1 1) rotate(0) translate(4 666)">
<title>/home/kpenev/projects/git/poet/poet_src/StellarEvolution/SumDerivatives.h</title>
<polygon fill="#ffffff" stroke="transparent" points="-4,4 -4,-666 1520,-666 1520,4 -4,4"/>
<!-- Node27 -->
<g id="node1" class="node">
<title>Node27</title>
<polygon fill="#bfbfbf" stroke="#000000" points="934,-614.5 934,-661.5 1129,-661.5 1129,-614.5 934,-614.5"/>
<text text-anchor="start" x="942" y="-647.9" font-family="Helvetica,sans-Serif" font-size="12.00" fill="#000000">/home/kpenev/projects</text>
<text text-anchor="start" x="942" y="-634.9" font-family="Helvetica,sans-Serif" font-size="12.00" fill="#000000">/git/poet/poet_src/StellarEvolution</text>
<text text-anchor="middle" x="1031.5" y="-621.9" font-family="Helvetica,sans-Serif" font-size="12.00" fill="#000000">/SumDerivatives.h</text>
</g>
<!-- Node28 -->
<g id="node2" class="node">
<title>Node28</title>
<g id="a_node2"><a xlink:href="EvolvingStellarQuantity_8h.html" target="_top" xlink:title="Declares a class implementing the intepolation of a single stellar quantity from stellar evolution tr...">
<polygon fill="#ffffff" stroke="#000000" points="934,-530.5 934,-577.5 1129,-577.5 1129,-530.5 934,-530.5"/>
<text text-anchor="start" x="942" y="-563.9" font-family="Helvetica,sans-Serif" font-size="12.00" fill="#000000">/home/kpenev/projects</text>
<text text-anchor="start" x="942" y="-550.9" font-family="Helvetica,sans-Serif" font-size="12.00" fill="#000000">/git/poet/poet_src/StellarEvolution</text>
<text text-anchor="middle" x="1031.5" y="-537.9" font-family="Helvetica,sans-Serif" font-size="12.00" fill="#000000">/EvolvingStellarQuantity.h</text>
</a>
</g>
</g>
<!-- Node27&#45;&gt;Node28 -->
<g id="edge1" class="edge">
<title>Node27&#45;&gt;Node28</title>
<path fill="none" stroke="#191970" d="M1031.5,-604.0664C1031.5,-595.1933 1031.5,-585.821 1031.5,-577.6152"/>
<polygon fill="#191970" stroke="#191970" points="1028.0001,-604.1536 1031.5,-614.1537 1035.0001,-604.1537 1028.0001,-604.1536"/>
</g>
<!-- Node29 -->
<g id="node3" class="node">
<title>Node29</title>
<g id="a_node3"><a xlink:href="Interpolator_8h.html" target="_top" xlink:title="Defines the StellarEvolution class needed for interpolating among stellar evolution tracks...">
<polygon fill="#ffffff" stroke="#000000" points="452,-446.5 452,-493.5 647,-493.5 647,-446.5 452,-446.5"/>
<text text-anchor="start" x="460" y="-479.9" font-family="Helvetica,sans-Serif" font-size="12.00" fill="#000000">/home/kpenev/projects</text>
<text text-anchor="start" x="460" y="-466.9" font-family="Helvetica,sans-Serif" font-size="12.00" fill="#000000">/git/poet/poet_src/StellarEvolution</text>
<text text-anchor="middle" x="549.5" y="-453.9" font-family="Helvetica,sans-Serif" font-size="12.00" fill="#000000">/Interpolator.h</text>
</a>
</g>
</g>
<!-- Node28&#45;&gt;Node29 -->
<g id="edge2" class="edge">
<title>Node28&#45;&gt;Node29</title>
<path fill="none" stroke="#191970" d="M923.8308,-536.0408C854.1111,-524.3145 761.3841,-508.5366 679.5,-494 668.9922,-492.1346 658.0125,-490.155 647.0791,-488.1643"/>
<polygon fill="#191970" stroke="#191970" points="923.5045,-539.535 933.9463,-537.7409 924.6647,-532.6318 923.5045,-539.535"/>
</g>
<!-- Node48 -->
<g id="node22" class="node">
<title>Node48</title>
<g id="a_node22"><a xlink:href="EvolvingStellarZone_8h.html" target="_top" xlink:title="Declares a base class for all stellar zones. ">
<polygon fill="#ffffff" stroke="#000000" points="914.5,-446.5 914.5,-493.5 1052.5,-493.5 1052.5,-446.5 914.5,-446.5"/>
<text text-anchor="start" x="922.5" y="-479.9" font-family="Helvetica,sans-Serif" font-size="12.00" fill="#000000">/home/kpenev/projects</text>
<text text-anchor="start" x="922.5" y="-466.9" font-family="Helvetica,sans-Serif" font-size="12.00" fill="#000000">/git/poet/poet_src/Star</text>
<text text-anchor="middle" x="983.5" y="-453.9" font-family="Helvetica,sans-Serif" font-size="12.00" fill="#000000">/EvolvingStellarZone.h</text>
</a>
</g>
</g>
<!-- Node28&#45;&gt;Node48 -->
<g id="edge25" class="edge">
<title>Node28&#45;&gt;Node48</title>
<path fill="none" stroke="#191970" d="M1012.769,-521.2208C1007.506,-512.0105 1001.8873,-502.1778 996.9944,-493.6152"/>
<polygon fill="#191970" stroke="#191970" points="1009.8732,-523.2077 1017.8735,-530.1537 1015.9509,-519.7347 1009.8732,-523.2077"/>
</g>
<!-- Node49 -->
<g id="node23" class="node">
<title>Node49</title>
<g id="a_node23"><a xlink:href="EvolvingStellarCore_8h.html" target="_top" xlink:title="Declaration of the class representing stellar cores. ">
<polygon fill="#ffffff" stroke="#000000" points="1090,-362.5 1090,-409.5 1227,-409.5 1227,-362.5 1090,-362.5"/>
<text text-anchor="start" x="1098" y="-395.9" font-family="Helvetica,sans-Serif" font-size="12.00" fill="#000000">/home/kpenev/projects</text>
<text text-anchor="start" x="1098" y="-382.9" font-family="Helvetica,sans-Serif" font-size="12.00" fill="#000000">/git/poet/poet_src/Star</text>
<text text-anchor="middle" x="1158.5" y="-369.9" font-family="Helvetica,sans-Serif" font-size="12.00" fill="#000000">/EvolvingStellarCore.h</text>
</a>
</g>
</g>
<!-- Node28&#45;&gt;Node49 -->
<g id="edge32" class="edge">
<title>Node28&#45;&gt;Node49</title>
<path fill="none" stroke="#191970" d="M1049.4327,-521.5923C1062.2508,-499.4823 1080.5269,-469.9749 1099.5,-446 1109.5631,-433.284 1121.9918,-420.3149 1132.8428,-409.7029"/>
<polygon fill="#191970" stroke="#191970" points="1046.3919,-519.8592 1044.4578,-530.276 1052.4658,-523.3389 1046.3919,-519.8592"/>
</g>
<!-- Node53 -->
<g id="node27" class="node">
<title>Node53</title>
<g id="a_node27"><a xlink:href="EvolvingStellarQuantity_8cpp.html" target="_top" xlink:title="Defines some of the methods of the EvolvingStellarQuantity class used for interpolating among stellar...">
<polygon fill="#ffffff" stroke="#000000" points="1108,-446.5 1108,-493.5 1303,-493.5 1303,-446.5 1108,-446.5"/>
<text text-anchor="start" x="1116" y="-479.9" font-family="Helvetica,sans-Serif" font-size="12.00" fill="#000000">/home/kpenev/projects</text>
<text text-anchor="start" x="1116" y="-466.9" font-family="Helvetica,sans-Serif" font-size="12.00" fill="#000000">/git/poet/poet_src/StellarEvolution</text>
<text text-anchor="middle" x="1205.5" y="-453.9" font-family="Helvetica,sans-Serif" font-size="12.00" fill="#000000">/EvolvingStellarQuantity.cpp</text>
</a>
</g>
</g>
<!-- Node28&#45;&gt;Node53 -->
<g id="edge33" class="edge">
<title>Node28&#45;&gt;Node53</title>
<path fill="none" stroke="#191970" d="M1089.569,-525.9667C1111.3216,-515.4654 1135.7973,-503.6496 1156.6343,-493.5903"/>
<polygon fill="#191970" stroke="#191970" points="1087.9156,-522.8783 1080.4317,-530.3778 1090.9589,-529.1822 1087.9156,-522.8783"/>
</g>
<!-- Node54 -->
<g id="node28" class="node">
<title>Node54</title>
<g id="a_node28"><a xlink:href="SumQuantity_8h.html" target="_top" xlink:title="Declare a class for a stellar evolution quantity which is the sum of two other quantities. ">
<polygon fill="#ffffff" stroke="#000000" points="689,-446.5 689,-493.5 884,-493.5 884,-446.5 689,-446.5"/>
<text text-anchor="start" x="697" y="-479.9" font-family="Helvetica,sans-Serif" font-size="12.00" fill="#000000">/home/kpenev/projects</text>
<text text-anchor="start" x="697" y="-466.9" font-family="Helvetica,sans-Serif" font-size="12.00" fill="#000000">/git/poet/poet_src/StellarEvolution</text>
<text text-anchor="middle" x="786.5" y="-453.9" font-family="Helvetica,sans-Serif" font-size="12.00" fill="#000000">/SumQuantity.h</text>
</a>
</g>
</g>
<!-- Node28&#45;&gt;Node54 -->
<g id="edge34" class="edge">
<title>Node28&#45;&gt;Node54</title>
<path fill="none" stroke="#191970" d="M953.2842,-527.1831C921.704,-516.3556 885.5865,-503.9725 855.0554,-493.5047"/>
<polygon fill="#191970" stroke="#191970" points="952.3334,-530.5571 962.9281,-530.4896 954.6038,-523.9355 952.3334,-530.5571"/>
</g>
<!-- Node55 -->
<g id="node29" class="node">
<title>Node55</title>
<g id="a_node29"><a xlink:href="ZeroQuantity_8h.html" target="_top" xlink:title="Declare a class for an identically zero stellar evolution quantity. ">
<polygon fill="#ffffff" stroke="#000000" points="1321,-446.5 1321,-493.5 1516,-493.5 1516,-446.5 1321,-446.5"/>
<text text-anchor="start" x="1329" y="-479.9" font-family="Helvetica,sans-Serif" font-size="12.00" fill="#000000">/home/kpenev/projects</text>
<text text-anchor="start" x="1329" y="-466.9" font-family="Helvetica,sans-Serif" font-size="12.00" fill="#000000">/git/poet/poet_src/StellarEvolution</text>
<text text-anchor="middle" x="1418.5" y="-453.9" font-family="Helvetica,sans-Serif" font-size="12.00" fill="#000000">/ZeroQuantity.h</text>
</a>
</g>
</g>
<!-- Node28&#45;&gt;Node55 -->
<g id="edge36" class="edge">
<title>Node28&#45;&gt;Node55</title>
<path fill="none" stroke="#191970" d="M1139.0736,-531.3543C1191.4354,-520.2488 1255.2876,-506.5845 1312.5,-494 1315.2642,-493.392 1318.0684,-492.7728 1320.8984,-492.1459"/>
<polygon fill="#191970" stroke="#191970" points="1138.1547,-527.9712 1129.0977,-533.4686 1139.6061,-534.8191 1138.1547,-527.9712"/>
</g>
<!-- Node30 -->
<g id="node4" class="node">
<title>Node30</title>
<g id="a_node4"><a xlink:href="MESAIO_8h.html" target="_top" xlink:title="Defines the classes for generating stellar evolution interpolators from the MESA tracks. ">
<polygon fill="#ffffff" stroke="#000000" points="279,-362.5 279,-409.5 474,-409.5 474,-362.5 279,-362.5"/>
<text text-anchor="start" x="287" y="-395.9" font-family="Helvetica,sans-Serif" font-size="12.00" fill="#000000">/home/kpenev/projects</text>
<text text-anchor="start" x="287" y="-382.9" font-family="Helvetica,sans-Serif" font-size="12.00" fill="#000000">/git/poet/poet_src/StellarEvolution</text>
<text text-anchor="middle" x="376.5" y="-369.9" font-family="Helvetica,sans-Serif" font-size="12.00" fill="#000000">/MESAIO.h</text>
</a>
</g>
</g>
<!-- Node29&#45;&gt;Node30 -->
<g id="edge3" class="edge">
<title>Node29&#45;&gt;Node30</title>
<path fill="none" stroke="#191970" d="M491.7647,-441.9667C470.1371,-431.4654 445.8022,-419.6496 425.0848,-409.5903"/>
<polygon fill="#191970" stroke="#191970" points="490.325,-445.1584 500.8495,-446.3778 493.3826,-438.8614 490.325,-445.1584"/>
</g>
<!-- Node39 -->
<g id="node13" class="node">
<title>Node39</title>
<g id="a_node13"><a xlink:href="EvolvingStar_8h.html" target="_top" xlink:title="Declares the class for stars that user pre&#45;tabulated stellar evolution tracks. ">
<polygon fill="#ffffff" stroke="#000000" points="754,-278.5 754,-325.5 891,-325.5 891,-278.5 754,-278.5"/>
<text text-anchor="start" x="762" y="-311.9" font-family="Helvetica,sans-Serif" font-size="12.00" fill="#000000">/home/kpenev/projects</text>
<text text-anchor="start" x="762" y="-298.9" font-family="Helvetica,sans-Serif" font-size="12.00" fill="#000000">/git/poet/poet_src/Star</text>
<text text-anchor="middle" x="822.5" y="-285.9" font-family="Helvetica,sans-Serif" font-size="12.00" fill="#000000">/EvolvingStar.h</text>
</a>
</g>
</g>
<!-- Node29&#45;&gt;Node39 -->
<g id="edge13" class="edge">
<title>Node29&#45;&gt;Node39</title>
<path fill="none" stroke="#191970" d="M526.5544,-437.5925C513.1302,-414.3047 501.9442,-383.3731 519.5,-362 548.5595,-326.6218 673.6523,-311.7449 753.7435,-305.7598"/>
<polygon fill="#191970" stroke="#191970" points="523.7521,-439.7187 531.9566,-446.4222 529.7231,-436.0654 523.7521,-439.7187"/>
</g>
<!-- Node47 -->
<g id="node21" class="node">
<title>Node47</title>
<g id="a_node21"><a xlink:href="Interpolator_8cpp.html" target="_top" xlink:title="Defines some of the methods of the StellarEvolution class. ">
<polygon fill="#ffffff" stroke="#000000" points="529,-362.5 529,-409.5 724,-409.5 724,-362.5 529,-362.5"/>
<text text-anchor="start" x="537" y="-395.9" font-family="Helvetica,sans-Serif" font-size="12.00" fill="#000000">/home/kpenev/projects</text>
<text text-anchor="start" x="537" y="-382.9" font-family="Helvetica,sans-Serif" font-size="12.00" fill="#000000">/git/poet/poet_src/StellarEvolution</text>
<text text-anchor="middle" x="626.5" y="-369.9" font-family="Helvetica,sans-Serif" font-size="12.00" fill="#000000">/Interpolator.cpp</text>
</a>
</g>
</g>
<!-- Node29&#45;&gt;Node47 -->
<g id="edge24" class="edge">
<title>Node29&#45;&gt;Node47</title>
<path fill="none" stroke="#191970" d="M578.2333,-438.6546C587.0484,-429.0381 596.5949,-418.6237 604.8527,-409.6152"/>
<polygon fill="#191970" stroke="#191970" points="575.5364,-436.417 571.3591,-446.1537 580.6965,-441.1471 575.5364,-436.417"/>
</g>
<!-- Node31 -->
<g id="node5" class="node">
<title>Node31</title>
<g id="a_node5"><a xlink:href="StellarEvolution_2CInterface_8h.html" target="_top" xlink:title="Declare C&#45;style functions for accessing the functionality of the StellarEvolution library...">
<polygon fill="#ffffff" stroke="#000000" points="125,-278.5 125,-325.5 320,-325.5 320,-278.5 125,-278.5"/>
<text text-anchor="start" x="133" y="-311.9" font-family="Helvetica,sans-Serif" font-size="12.00" fill="#000000">/home/kpenev/projects</text>
<text text-anchor="start" x="133" y="-298.9" font-family="Helvetica,sans-Serif" font-size="12.00" fill="#000000">/git/poet/poet_src/StellarEvolution</text>
<text text-anchor="middle" x="222.5" y="-285.9" font-family="Helvetica,sans-Serif" font-size="12.00" fill="#000000">/CInterface.h</text>
</a>
</g>
</g>
<!-- Node30&#45;&gt;Node31 -->
<g id="edge4" class="edge">
<title>Node30&#45;&gt;Node31</title>
<path fill="none" stroke="#191970" d="M324.3308,-357.544C305.2736,-347.1492 283.9439,-335.5149 265.7489,-325.5903"/>
<polygon fill="#191970" stroke="#191970" points="322.7376,-360.6618 333.1926,-362.3778 326.0896,-354.5166 322.7376,-360.6618"/>
</g>
<!-- Node38 -->
<g id="node12" class="node">
<title>Node38</title>
<g id="a_node12"><a xlink:href="MESAIO_8cpp_source.html" target="_top" xlink:title="/home/kpenev/projects\l/git/poet/poet_src/StellarEvolution\l/MESAIO.cpp">
<polygon fill="#ffffff" stroke="#000000" points="338,-278.5 338,-325.5 533,-325.5 533,-278.5 338,-278.5"/>
<text text-anchor="start" x="346" y="-311.9" font-family="Helvetica,sans-Serif" font-size="12.00" fill="#000000">/home/kpenev/projects</text>
<text text-anchor="start" x="346" y="-298.9" font-family="Helvetica,sans-Serif" font-size="12.00" fill="#000000">/git/poet/poet_src/StellarEvolution</text>
<text text-anchor="middle" x="435.5" y="-285.9" font-family="Helvetica,sans-Serif" font-size="12.00" fill="#000000">/MESAIO.cpp</text>
</a>
</g>
</g>
<!-- Node30&#45;&gt;Node38 -->
<g id="edge12" class="edge">
<title>Node30&#45;&gt;Node38</title>
<path fill="none" stroke="#191970" d="M399.1197,-353.7956C405.7045,-344.4207 412.7736,-334.3562 418.9131,-325.6152"/>
<polygon fill="#191970" stroke="#191970" points="396.1328,-351.9588 393.2492,-362.1537 401.8611,-355.9822 396.1328,-351.9588"/>
</g>
<!-- Node32 -->
<g id="node6" class="node">
<title>Node32</title>
<g id="a_node6"><a xlink:href="Star_2CInterface_8h.html" target="_top" xlink:title="Declare C&#45;style functions for accessing the functionality of the Star library. ">
<polygon fill="#ffffff" stroke="#000000" points="213,-194.5 213,-241.5 350,-241.5 350,-194.5 213,-194.5"/>
<text text-anchor="start" x="221" y="-227.9" font-family="Helvetica,sans-Serif" font-size="12.00" fill="#000000">/home/kpenev/projects</text>
<text text-anchor="start" x="221" y="-214.9" font-family="Helvetica,sans-Serif" font-size="12.00" fill="#000000">/git/poet/poet_src/Star</text>
<text text-anchor="middle" x="281.5" y="-201.9" font-family="Helvetica,sans-Serif" font-size="12.00" fill="#000000">/CInterface.h</text>
</a>
</g>
</g>
<!-- Node31&#45;&gt;Node32 -->
<g id="edge5" class="edge">
<title>Node31&#45;&gt;Node32</title>
<path fill="none" stroke="#191970" d="M245.1197,-269.7956C251.7045,-260.4207 258.7736,-250.3562 264.9131,-241.6152"/>
<polygon fill="#191970" stroke="#191970" points="242.1328,-267.9588 239.2492,-278.1537 247.8611,-271.9822 242.1328,-267.9588"/>
</g>
<!-- Node37 -->
<g id="node11" class="node">
<title>Node37</title>
<g id="a_node11"><a xlink:href="StellarEvolution_2CInterface_8cpp.html" target="_top" xlink:title="The definitions of the functions declared in CInterface.h. ">
<polygon fill="#ffffff" stroke="#000000" points="0,-194.5 0,-241.5 195,-241.5 195,-194.5 0,-194.5"/>
<text text-anchor="start" x="8" y="-227.9" font-family="Helvetica,sans-Serif" font-size="12.00" fill="#000000">/home/kpenev/projects</text>
<text text-anchor="start" x="8" y="-214.9" font-family="Helvetica,sans-Serif" font-size="12.00" fill="#000000">/git/poet/poet_src/StellarEvolution</text>
<text text-anchor="middle" x="97.5" y="-201.9" font-family="Helvetica,sans-Serif" font-size="12.00" fill="#000000">/CInterface.cpp</text>
</a>
</g>
</g>
<!-- Node31&#45;&gt;Node37 -->
<g id="edge11" class="edge">
<title>Node31&#45;&gt;Node37</title>
<path fill="none" stroke="#191970" d="M178.717,-272.5779C163.6959,-262.4837 147.0858,-251.3217 132.8214,-241.736"/>
<polygon fill="#191970" stroke="#191970" points="177.0957,-275.7051 187.3479,-278.3778 181,-269.8951 177.0957,-275.7051"/>
</g>
<!-- Node33 -->
<g id="node7" class="node">
<title>Node33</title>
<g id="a_node7"><a xlink:href="Evolve_2CInterface_8h.html" target="_top" xlink:title="Declare C&#45;style functions for accessing the functionality of the Evolve library. ">
<polygon fill="#ffffff" stroke="#000000" points="208,-104 208,-151 355,-151 355,-104 208,-104"/>
<text text-anchor="start" x="216" y="-137.4" font-family="Helvetica,sans-Serif" font-size="12.00" fill="#000000">/home/kpenev/projects</text>
<text text-anchor="start" x="216" y="-124.4" font-family="Helvetica,sans-Serif" font-size="12.00" fill="#000000">/git/poet/poet_src/Evolve</text>
<text text-anchor="middle" x="281.5" y="-111.4" font-family="Helvetica,sans-Serif" font-size="12.00" fill="#000000">/CInterface.h</text>
</a>
</g>
</g>
<!-- Node32&#45;&gt;Node33 -->
<g id="edge6" class="edge">
<title>Node32&#45;&gt;Node33</title>
<path fill="none" stroke="#191970" d="M281.5,-184.0822C281.5,-173.1065 281.5,-161.1799 281.5,-151.119"/>
<polygon fill="#191970" stroke="#191970" points="278.0001,-184.2222 281.5,-194.2222 285.0001,-184.2222 278.0001,-184.2222"/>
</g>
<!-- Node36 -->
<g id="node10" class="node">
<title>Node36</title>
<g id="a_node10"><a xlink:href="Star_2CInterface_8cpp.html" target="_top" xlink:title="The definitions of the functions declared in CInterface.h. ">
<polygon fill="#ffffff" stroke="#000000" points="53,-7 53,-54 190,-54 190,-7 53,-7"/>
<text text-anchor="start" x="61" y="-40.4" font-family="Helvetica,sans-Serif" font-size="12.00" fill="#000000">/home/kpenev/projects</text>
<text text-anchor="start" x="61" y="-27.4" font-family="Helvetica,sans-Serif" font-size="12.00" fill="#000000">/git/poet/poet_src/Star</text>
<text text-anchor="middle" x="121.5" y="-14.4" font-family="Helvetica,sans-Serif" font-size="12.00" fill="#000000">/CInterface.cpp</text>
</a>
</g>
</g>
<!-- Node32&#45;&gt;Node36 -->
<g id="edge10" class="edge">
<title>Node32&#45;&gt;Node36</title>
<path fill="none" stroke="#191970" d="M233.7115,-188.4326C221.418,-179.5452 208.774,-169.16 198.5,-158 169.0762,-126.0387 145.11,-81.1169 132.1101,-54.0099"/>
<polygon fill="#191970" stroke="#191970" points="231.9356,-191.4621 242.1329,-194.3373 235.9543,-185.7306 231.9356,-191.4621"/>
</g>
<!-- Node34 -->
<g id="node8" class="node">
<title>Node34</title>
<g id="a_node8"><a xlink:href="Evolve_2CInterface_8cpp.html" target="_top" xlink:title="The definitions of the functions declared in CInterface.h. ">
<polygon fill="#ffffff" stroke="#000000" points="208,-7 208,-54 355,-54 355,-7 208,-7"/>
<text text-anchor="start" x="216" y="-40.4" font-family="Helvetica,sans-Serif" font-size="12.00" fill="#000000">/home/kpenev/projects</text>
<text text-anchor="start" x="216" y="-27.4" font-family="Helvetica,sans-Serif" font-size="12.00" fill="#000000">/git/poet/poet_src/Evolve</text>
<text text-anchor="middle" x="281.5" y="-14.4" font-family="Helvetica,sans-Serif" font-size="12.00" fill="#000000">/CInterface.cpp</text>
</a>
</g>
</g>
<!-- Node33&#45;&gt;Node34 -->
<g id="edge7" class="edge">
<title>Node33&#45;&gt;Node34</title>
<path fill="none" stroke="#191970" d="M281.5,-93.5189C281.5,-80.536 281.5,-66.0241 281.5,-54.2017"/>
<polygon fill="#191970" stroke="#191970" points="278.0001,-93.5224 281.5,-103.5225 285.0001,-93.5225 278.0001,-93.5224"/>
</g>
<!-- Node35 -->
<g id="node9" class="node">
<title>Node35</title>
<g id="a_node9"><a xlink:href="Planet_2CInterface_8cpp.html" target="_top" xlink:title="The definitions of the functions declared in CInterface.h. ">
<polygon fill="#ffffff" stroke="#000000" points="373,-7 373,-54 518,-54 518,-7 373,-7"/>
<text text-anchor="start" x="381" y="-40.4" font-family="Helvetica,sans-Serif" font-size="12.00" fill="#000000">/home/kpenev/projects</text>
<text text-anchor="start" x="381" y="-27.4" font-family="Helvetica,sans-Serif" font-size="12.00" fill="#000000">/git/poet/poet_src/Planet</text>
<text text-anchor="middle" x="445.5" y="-14.4" font-family="Helvetica,sans-Serif" font-size="12.00" fill="#000000">/CInterface.cpp</text>
</a>
</g>
</g>
<!-- Node33&#45;&gt;Node35 -->
<g id="edge8" class="edge">
<title>Node33&#45;&gt;Node35</title>
<path fill="none" stroke="#191970" d="M330.2349,-98.6751C354.2359,-84.4794 382.8151,-67.5758 405.5114,-54.1518"/>
<polygon fill="#191970" stroke="#191970" points="328.4443,-95.6677 321.6189,-103.7711 332.0079,-101.6928 328.4443,-95.6677"/>
</g>
<!-- Node33&#45;&gt;Node36 -->
<g id="edge9" class="edge">
<title>Node33&#45;&gt;Node36</title>
<path fill="none" stroke="#191970" d="M233.6454,-98.4882C210.2937,-84.3312 182.5589,-67.5169 160.5133,-54.1518"/>
<polygon fill="#191970" stroke="#191970" points="231.9938,-101.5798 242.3596,-103.7711 235.6228,-95.5939 231.9938,-101.5798"/>
</g>
<!-- Node39&#45;&gt;Node32 -->
<g id="edge14" class="edge">
<title>Node39&#45;&gt;Node32</title>
<path fill="none" stroke="#191970" d="M743.9883,-289.8096C638.0465,-273.3603 451.0198,-244.321 350.314,-228.6846"/>
<polygon fill="#191970" stroke="#191970" points="743.5633,-293.2855 753.982,-291.3613 744.6374,-286.3684 743.5633,-293.2855"/>
</g>
<!-- Node40 -->
<g id="node14" class="node">
<title>Node40</title>
<g id="a_node14"><a xlink:href="MakeStar_8h.html" target="_top" xlink:title="Declares functions for creating stars used by unit tests. ">
<polygon fill="#ffffff" stroke="#000000" points="746.5,-194.5 746.5,-241.5 898.5,-241.5 898.5,-194.5 746.5,-194.5"/>
<text text-anchor="start" x="754.5" y="-227.9" font-family="Helvetica,sans-Serif" font-size="12.00" fill="#000000">/home/kpenev/projects</text>
<text text-anchor="start" x="754.5" y="-214.9" font-family="Helvetica,sans-Serif" font-size="12.00" fill="#000000">/git/poet/poet_src/unit</text>
<text text-anchor="middle" x="822.5" y="-201.9" font-family="Helvetica,sans-Serif" font-size="12.00" fill="#000000">_tests/shared/MakeStar.h</text>
</a>
</g>
</g>
<!-- Node39&#45;&gt;Node40 -->
<g id="edge15" class="edge">
<title>Node39&#45;&gt;Node40</title>
<path fill="none" stroke="#191970" d="M822.5,-268.0664C822.5,-259.1933 822.5,-249.821 822.5,-241.6152"/>
<polygon fill="#191970" stroke="#191970" points="819.0001,-268.1536 822.5,-278.1537 826.0001,-268.1537 819.0001,-268.1536"/>
</g>
<!-- Node45 -->
<g id="node19" class="node">
<title>Node45</title>
<g id="a_node19"><a xlink:href="testOrbitSolver_8h.html" target="_top" xlink:title="Declares the test suite that exercises the OrbitSolver class and some other clasess necessary to acco...">
<polygon fill="#ffffff" stroke="#000000" points="922.5,-104 922.5,-151 1120.5,-151 1120.5,-104 922.5,-104"/>
<text text-anchor="start" x="930.5" y="-137.4" font-family="Helvetica,sans-Serif" font-size="12.00" fill="#000000">/home/kpenev/projects</text>
<text text-anchor="start" x="930.5" y="-124.4" font-family="Helvetica,sans-Serif" font-size="12.00" fill="#000000">/git/poet/poet_src/unit</text>
<text text-anchor="middle" x="1021.5" y="-111.4" font-family="Helvetica,sans-Serif" font-size="12.00" fill="#000000">_tests/testEvolve/testOrbitSolver.h</text>
</a>
</g>
</g>
<!-- Node39&#45;&gt;Node45 -->
<g id="edge23" class="edge">
<title>Node39&#45;&gt;Node45</title>
<path fill="none" stroke="#191970" d="M867.5974,-272.3336C880.8105,-263.0708 895.0456,-252.5142 907.5,-242 942.0093,-212.8668 978.202,-175.0903 1000.3115,-151.065"/>
<polygon fill="#191970" stroke="#191970" points="865.3223,-269.6516 859.0911,-278.2203 869.3058,-275.4077 865.3223,-269.6516"/>
</g>
<!-- Node41 -->
<g id="node15" class="node">
<title>Node41</title>
<g id="a_node15"><a xlink:href="MakeStar_8cpp.html" target="_top" xlink:title="Implement the functions defined in MakeStar.h. ">
<polygon fill="#ffffff" stroke="#000000" points="740.5,-104 740.5,-151 904.5,-151 904.5,-104 740.5,-104"/>
<text text-anchor="start" x="748.5" y="-137.4" font-family="Helvetica,sans-Serif" font-size="12.00" fill="#000000">/home/kpenev/projects</text>
<text text-anchor="start" x="748.5" y="-124.4" font-family="Helvetica,sans-Serif" font-size="12.00" fill="#000000">/git/poet/poet_src/unit</text>
<text text-anchor="middle" x="822.5" y="-111.4" font-family="Helvetica,sans-Serif" font-size="12.00" fill="#000000">_tests/shared/MakeStar.cpp</text>
</a>
</g>
</g>
<!-- Node40&#45;&gt;Node41 -->
<g id="edge16" class="edge">
<title>Node40&#45;&gt;Node41</title>
<path fill="none" stroke="#191970" d="M822.5,-184.0822C822.5,-173.1065 822.5,-161.1799 822.5,-151.119"/>
<polygon fill="#191970" stroke="#191970" points="819.0001,-184.2222 822.5,-194.2222 826.0001,-184.2222 819.0001,-184.2222"/>
</g>
<!-- Node42 -->
<g id="node16" class="node">
<title>Node42</title>
<g id="a_node16"><a xlink:href="testDifferentialEquations_8h.html" target="_top" xlink:title="Unit tests that check the differential equations for eccentricity and semimajor against analytic expr...">
<polygon fill="#ffffff" stroke="#000000" points="536.5,-97.5 536.5,-157.5 722.5,-157.5 722.5,-97.5 536.5,-97.5"/>
<text text-anchor="start" x="544.5" y="-143.9" font-family="Helvetica,sans-Serif" font-size="12.00" fill="#000000">/home/kpenev/projects</text>
<text text-anchor="start" x="544.5" y="-130.9" font-family="Helvetica,sans-Serif" font-size="12.00" fill="#000000">/git/poet/poet_src/unit</text>
<text text-anchor="start" x="544.5" y="-117.9" font-family="Helvetica,sans-Serif" font-size="12.00" fill="#000000">_tests/testEvolve/testDifferential</text>
<text text-anchor="middle" x="629.5" y="-104.9" font-family="Helvetica,sans-Serif" font-size="12.00" fill="#000000">Equations.h</text>
</a>
</g>
</g>
<!-- Node40&#45;&gt;Node42 -->
<g id="edge17" class="edge">
<title>Node40&#45;&gt;Node42</title>
<path fill="none" stroke="#191970" d="M763.0719,-190.1335C741.0793,-179.8209 716.0573,-168.0877 693.6625,-157.5866"/>
<polygon fill="#191970" stroke="#191970" points="761.7554,-193.3818 772.2953,-194.4584 764.7273,-187.0439 761.7554,-193.3818"/>
</g>
<!-- Node40&#45;&gt;Node45 -->
<g id="edge20" class="edge">
<title>Node40&#45;&gt;Node45</title>
<path fill="none" stroke="#191970" d="M883.4227,-190.2939C910.9986,-177.7532 943.252,-163.0852 969.6484,-151.0807"/>
<polygon fill="#191970" stroke="#191970" points="881.9194,-187.1326 874.2654,-194.4584 884.8172,-193.5046 881.9194,-187.1326"/>
</g>
<!-- Node43 -->
<g id="node17" class="node">
<title>Node43</title>
<g id="a_node17"><a xlink:href="testDifferentialEquations_8cpp.html" target="_top" xlink:title="Implement the non&#45;inline methods of test_DifferentialEquations. ">
<polygon fill="#ffffff" stroke="#000000" points="536.5,-.5 536.5,-60.5 722.5,-60.5 722.5,-.5 536.5,-.5"/>
<text text-anchor="start" x="544.5" y="-46.9" font-family="Helvetica,sans-Serif" font-size="12.00" fill="#000000">/home/kpenev/projects</text>
<text text-anchor="start" x="544.5" y="-33.9" font-family="Helvetica,sans-Serif" font-size="12.00" fill="#000000">/git/poet/poet_src/unit</text>
<text text-anchor="start" x="544.5" y="-20.9" font-family="Helvetica,sans-Serif" font-size="12.00" fill="#000000">_tests/testEvolve/testDifferential</text>
<text text-anchor="middle" x="629.5" y="-7.9" font-family="Helvetica,sans-Serif" font-size="12.00" fill="#000000">Equations.cpp</text>
</a>
</g>
</g>
<!-- Node42&#45;&gt;Node43 -->
<g id="edge18" class="edge">
<title>Node42&#45;&gt;Node43</title>
<path fill="none" stroke="#191970" d="M629.5,-87.1653C629.5,-78.2876 629.5,-69.0341 629.5,-60.641"/>
<polygon fill="#191970" stroke="#191970" points="626.0001,-87.3403 629.5,-97.3403 633.0001,-87.3403 626.0001,-87.3403"/>
</g>
<!-- Node44 -->
<g id="node18" class="node">
<title>Node44</title>
<g id="a_node18"><a xlink:href="testEvolve_8cpp_source.html" target="_top" xlink:title="/home/kpenev/projects\l/git/poet/poet_src/unit\l_tests/testEvolve/testEvolve.cpp">
<polygon fill="#ffffff" stroke="#000000" points="740.5,-7 740.5,-54 928.5,-54 928.5,-7 740.5,-7"/>
<text text-anchor="start" x="748.5" y="-40.4" font-family="Helvetica,sans-Serif" font-size="12.00" fill="#000000">/home/kpenev/projects</text>
<text text-anchor="start" x="748.5" y="-27.4" font-family="Helvetica,sans-Serif" font-size="12.00" fill="#000000">/git/poet/poet_src/unit</text>
<text text-anchor="middle" x="834.5" y="-14.4" font-family="Helvetica,sans-Serif" font-size="12.00" fill="#000000">_tests/testEvolve/testEvolve.cpp</text>
</a>
</g>
</g>
<!-- Node42&#45;&gt;Node44 -->
<g id="edge19" class="edge">
<title>Node42&#45;&gt;Node44</title>
<path fill="none" stroke="#191970" d="M702.0968,-93.1493C729.4292,-80.2164 759.8705,-65.8125 784.6662,-54.0799"/>
<polygon fill="#191970" stroke="#191970" points="700.5016,-90.032 692.9594,-97.4729 703.4955,-96.3595 700.5016,-90.032"/>
</g>
<!-- Node45&#45;&gt;Node44 -->
<g id="edge21" class="edge">
<title>Node45&#45;&gt;Node44</title>
<path fill="none" stroke="#191970" d="M966.6493,-99.0481C939.1356,-84.7762 906.2031,-67.6936 880.0968,-54.1518"/>
<polygon fill="#191970" stroke="#191970" points="965.2662,-102.2734 975.7547,-103.7711 968.4894,-96.0596 965.2662,-102.2734"/>
</g>
<!-- Node46 -->
<g id="node20" class="node">
<title>Node46</title>
<g id="a_node20"><a xlink:href="testOrbitSolver_8cpp.html" target="_top" xlink:title="Defines some of the methods of the test suite that exercises the OrbitSolver class and the other clas...">
<polygon fill="#ffffff" stroke="#000000" points="947,-7 947,-54 1158,-54 1158,-7 947,-7"/>
<text text-anchor="start" x="955" y="-40.4" font-family="Helvetica,sans-Serif" font-size="12.00" fill="#000000">/home/kpenev/projects</text>
<text text-anchor="start" x="955" y="-27.4" font-family="Helvetica,sans-Serif" font-size="12.00" fill="#000000">/git/poet/poet_src/unit</text>
<text text-anchor="middle" x="1052.5" y="-14.4" font-family="Helvetica,sans-Serif" font-size="12.00" fill="#000000">_tests/testEvolve/testOrbitSolver.cpp</text>
</a>
</g>
</g>
<!-- Node45&#45;&gt;Node46 -->
<g id="edge22" class="edge">
<title>Node45&#45;&gt;Node46</title>
<path fill="none" stroke="#191970" d="M1032.2369,-93.904C1036.4172,-80.8236 1041.1095,-66.1412 1044.9252,-54.2017"/>
<polygon fill="#191970" stroke="#191970" points="1028.8733,-92.9316 1029.1629,-103.5225 1035.5411,-95.0626 1028.8733,-92.9316"/>
</g>
<!-- Node48&#45;&gt;Node49 -->
<g id="edge26" class="edge">
<title>Node48&#45;&gt;Node49</title>
<path fill="none" stroke="#191970" d="M1041.9028,-441.9667C1063.7804,-431.4654 1088.3967,-419.6496 1109.3535,-409.5903"/>
<polygon fill="#191970" stroke="#191970" points="1040.2136,-438.8951 1032.713,-446.3778 1043.2428,-445.2057 1040.2136,-438.8951"/>
</g>
<!-- Node51 -->
<g id="node25" class="node">
<title>Node51</title>
<g id="a_node25"><a xlink:href="EvolvingStellarEnvelope_8h.html" target="_top" xlink:title="Declares a class representing convective zones in low mass evolving stars or the whole star for high ...">
<polygon fill="#ffffff" stroke="#000000" points="742,-362.5 742,-409.5 903,-409.5 903,-362.5 742,-362.5"/>
<text text-anchor="start" x="750" y="-395.9" font-family="Helvetica,sans-Serif" font-size="12.00" fill="#000000">/home/kpenev/projects</text>
<text text-anchor="start" x="750" y="-382.9" font-family="Helvetica,sans-Serif" font-size="12.00" fill="#000000">/git/poet/poet_src/Star</text>
<text text-anchor="middle" x="822.5" y="-369.9" font-family="Helvetica,sans-Serif" font-size="12.00" fill="#000000">/EvolvingStellarEnvelope.h</text>
</a>
</g>
</g>
<!-- Node48&#45;&gt;Node51 -->
<g id="edge29" class="edge">
<title>Node48&#45;&gt;Node51</title>
<path fill="none" stroke="#191970" d="M929.2297,-441.6851C909.2379,-431.2546 886.8229,-419.5598 867.7148,-409.5903"/>
<polygon fill="#191970" stroke="#191970" points="927.7392,-444.8551 938.2241,-446.3778 930.9772,-438.649 927.7392,-444.8551"/>
</g>
<!-- Node52 -->
<g id="node26" class="node">
<title>Node52</title>
<g id="a_node26"><a xlink:href="EvolvingStellarZone_8cpp.html" target="_top" xlink:title="Definitions of some of the methods of EvolvingStellarZone. ">
<polygon fill="#ffffff" stroke="#000000" points="921,-362.5 921,-409.5 1072,-409.5 1072,-362.5 921,-362.5"/>
<text text-anchor="start" x="929" y="-395.9" font-family="Helvetica,sans-Serif" font-size="12.00" fill="#000000">/home/kpenev/projects</text>
<text text-anchor="start" x="929" y="-382.9" font-family="Helvetica,sans-Serif" font-size="12.00" fill="#000000">/git/poet/poet_src/Star</text>
<text text-anchor="middle" x="996.5" y="-369.9" font-family="Helvetica,sans-Serif" font-size="12.00" fill="#000000">/EvolvingStellarZone.cpp</text>
</a>
</g>
</g>
<!-- Node48&#45;&gt;Node52 -->
<g id="edge31" class="edge">
<title>Node48&#45;&gt;Node52</title>
<path fill="none" stroke="#191970" d="M988.7516,-436.0664C990.1249,-427.1933 991.5753,-417.821 992.8453,-409.6152"/>
<polygon fill="#191970" stroke="#191970" points="985.2612,-435.736 987.1905,-446.1537 992.1788,-436.8066 985.2612,-435.736"/>
</g>
<!-- Node49&#45;&gt;Node39 -->
<g id="edge27" class="edge">
<title>Node49&#45;&gt;Node39</title>
<path fill="none" stroke="#191970" d="M1079.9666,-361.6504C1010.7547,-343.0998 941.0682,-327.2787 891.0111,-316.4123"/>
<polygon fill="#191970" stroke="#191970" points="1079.1608,-365.0581 1089.7274,-364.2859 1080.9855,-358.3001 1079.1608,-365.0581"/>
</g>
<!-- Node50 -->
<g id="node24" class="node">
<title>Node50</title>
<g id="a_node24"><a xlink:href="EvolvingStellarCore_8cpp_source.html" target="_top" xlink:title="/home/kpenev/projects\l/git/poet/poet_src/Star\l/EvolvingStellarCore.cpp">
<polygon fill="#ffffff" stroke="#000000" points="1084,-278.5 1084,-325.5 1233,-325.5 1233,-278.5 1084,-278.5"/>
<text text-anchor="start" x="1092" y="-311.9" font-family="Helvetica,sans-Serif" font-size="12.00" fill="#000000">/home/kpenev/projects</text>
<text text-anchor="start" x="1092" y="-298.9" font-family="Helvetica,sans-Serif" font-size="12.00" fill="#000000">/git/poet/poet_src/Star</text>
<text text-anchor="middle" x="1158.5" y="-285.9" font-family="Helvetica,sans-Serif" font-size="12.00" fill="#000000">/EvolvingStellarCore.cpp</text>
</a>
</g>
</g>
<!-- Node49&#45;&gt;Node50 -->
<g id="edge28" class="edge">
<title>Node49&#45;&gt;Node50</title>
<path fill="none" stroke="#191970" d="M1158.5,-352.0664C1158.5,-343.1933 1158.5,-333.821 1158.5,-325.6152"/>
<polygon fill="#191970" stroke="#191970" points="1155.0001,-352.1536 1158.5,-362.1537 1162.0001,-352.1537 1155.0001,-352.1536"/>
</g>
<!-- Node51&#45;&gt;Node39 -->
<g id="edge30" class="edge">
<title>Node51&#45;&gt;Node39</title>
<path fill="none" stroke="#191970" d="M822.5,-352.0664C822.5,-343.1933 822.5,-333.821 822.5,-325.6152"/>
<polygon fill="#191970" stroke="#191970" points="819.0001,-352.1536 822.5,-362.1537 826.0001,-352.1537 819.0001,-352.1536"/>
</g>
<!-- Node54&#45;&gt;Node47 -->
<g id="edge35" class="edge">
<title>Node54&#45;&gt;Node47</title>
<path fill="none" stroke="#191970" d="M732.5668,-441.6851C712.6992,-431.2546 690.4234,-419.5598 671.4339,-409.5903"/>
<polygon fill="#191970" stroke="#191970" points="731.0244,-444.8283 741.5053,-446.3778 734.2782,-438.6305 731.0244,-444.8283"/>
</g>
</g>
</svg>
