<?xml version="1.0" encoding="UTF-8" standalone="no"?>
<!DOCTYPE svg PUBLIC "-//W3C//DTD SVG 1.1//EN"
 "http://www.w3.org/Graphics/SVG/1.1/DTD/svg11.dtd">
<!-- Generated by graphviz version 2.40.1 (20161225.0304)
 -->
<!-- Title: /home/kpenev/projects/git/poet/poet_src/Evolve/SynchronizedCondition.h Pages: 1 -->
<!--zoomable 301 -->
<svg id="main" version="1.1" xmlns="http://www.w3.org/2000/svg" xmlns:xlink="http://www.w3.org/1999/xlink" xml:space="preserve" onload="init(evt)">
<style type="text/css"><![CDATA[
.edge:hover path { stroke: red; }
.edge:hover polygon { stroke: red; fill: red; }
]]></style>
<script type="text/javascript"><![CDATA[
var edges = document.getElementsByTagName('g');
if (edges && edges.length) {
  for (var i=0;i<edges.length;i++) {
    if (edges[i].id.substr(0,4)=='edge') {
      edges[i].setAttribute('class','edge');
    }
  }
}
]]></script>
        <defs>
                <circle id="rim" cx="0" cy="0" r="7"/>
                <circle id="rim2" cx="0" cy="0" r="3.5"/>
                <g id="zoomPlus">
                        <use xlink:href="#rim" fill="#404040">
                                <set attributeName="fill" to="#808080" begin="zoomplus.mouseover" end="zoomplus.mouseout"/>
                        </use>
                        <path d="M-4,0h8M0,-4v8" fill="none" stroke="white" stroke-width="1.5" pointer-events="none"/>
                </g>
                <g id="zoomMin">
                        <use xlink:href="#rim" fill="#404040">
                                <set attributeName="fill" to="#808080" begin="zoomminus.mouseover" end="zoomminus.mouseout"/>
                        </use>
                        <path d="M-4,0h8" fill="none" stroke="white" stroke-width="1.5" pointer-events="none"/>
                </g>
                <g id="dirArrow">
                        <path fill="none" stroke="white" stroke-width="1.5" d="M0,-3.0v7 M-2.5,-0.5L0,-3.0L2.5,-0.5"/>
                </g>
               <g id="resetDef">
                       <use xlink:href="#rim2" fill="#404040">
                               <set attributeName="fill" to="#808080" begin="reset.mouseover" end="reset.mouseout"/>
                       </use>
               </g>
        </defs>

<script type="text/javascript">
var viewWidth = 1602;
var viewHeight = 301;
var sectionId = 'dynsection-0';
</script>
<script xlink:href="svgpan.js"/>
<svg id="graph" class="graph">
<g id="viewport">
<title>/home/kpenev/projects/git/poet/poet_src/Evolve/SynchronizedCondition.h</title>
<polygon fill="#ffffff" stroke="transparent" points="-4,4 -4,-297 1597.9089,-297 1597.9089,4 -4,4"/>
<!-- Node0 -->
<g id="node1" class="node">
<title>Node0</title>
<polygon fill="#bfbfbf" stroke="#000000" points="10.9089,-245.5 10.9089,-292.5 165.9089,-292.5 165.9089,-245.5 10.9089,-245.5"/>
<text text-anchor="start" x="18.9089" y="-278.9" font-family="Helvetica,sans-Serif" font-size="12.00" fill="#000000">/home/kpenev/projects</text>
<text text-anchor="start" x="18.9089" y="-265.9" font-family="Helvetica,sans-Serif" font-size="12.00" fill="#000000">/git/poet/poet_src/Evolve</text>
<text text-anchor="middle" x="88.4089" y="-252.9" font-family="Helvetica,sans-Serif" font-size="12.00" fill="#000000">/SynchronizedCondition.h</text>
</g>
<!-- Node1 -->
<g id="node2" class="node">
<title>Node1</title>
<g id="a_node2"><a xlink:href="SharedLibraryExportMacros_8h_source.html" target="_top" xlink:title="../Core/SharedLibraryExport\lMacros.h">
<polygon fill="#ffffff" stroke="#000000" points="61.9089,-.5 61.9089,-34.5 226.9089,-34.5 226.9089,-.5 61.9089,-.5"/>
<text text-anchor="start" x="69.9089" y="-20.9" font-family="Helvetica,sans-Serif" font-size="12.00" fill="#000000">../Core/SharedLibraryExport</text>
<text text-anchor="middle" x="144.4089" y="-7.9" font-family="Helvetica,sans-Serif" font-size="12.00" fill="#000000">Macros.h</text>
</a>
</g>
</g>
<!-- Node0&#45;&gt;Node1 -->
<g id="edge1" class="edge">
<title>Node0&#45;&gt;Node1</title>
<path fill="none" stroke="#191970" d="M48.0933,-245.4392C35.5571,-235.8659 23.2414,-223.5878 16.4089,-209 -1.0719,-171.6779 -17.4852,-148.1501 41.4089,-71 51.7367,-57.4708 66.4628,-47.045 81.5602,-39.1477"/>
<polygon fill="#191970" stroke="#191970" points="83.5221,-42.0848 90.9726,-34.5521 80.4508,-35.7945 83.5221,-42.0848"/>
</g>
<!-- Node2 -->
<g id="node3" class="node">
<title>Node2</title>
<g id="a_node3"><a xlink:href="StoppingCondition_8h.html" target="_top" xlink:title="Defines the various stopping conditions needed by OrbitSolver. ">
<polygon fill="#ffffff" stroke="#000000" points="25.4089,-187.5 25.4089,-208.5 151.4089,-208.5 151.4089,-187.5 25.4089,-187.5"/>
<text text-anchor="middle" x="88.4089" y="-194.9" font-family="Helvetica,sans-Serif" font-size="12.00" fill="#000000">StoppingCondition.h</text>
</a>
</g>
</g>
<!-- Node0&#45;&gt;Node2 -->
<g id="edge2" class="edge">
<title>Node0&#45;&gt;Node2</title>
<path fill="none" stroke="#191970" d="M88.4089,-245.358C88.4089,-236.719 88.4089,-227.0215 88.4089,-218.6624"/>
<polygon fill="#191970" stroke="#191970" points="91.909,-218.6462 88.4089,-208.6462 84.909,-218.6463 91.909,-218.6462"/>
</g>
<!-- Node22 -->
<g id="node23" class="node">
<title>Node22</title>
<g id="a_node23"><a xlink:href="SpinOrbitLockInfo_8h.html" target="_top" xlink:title="Defines the SpinOrbitLockInfo class. ">
<polygon fill="#ffffff" stroke="#000000" points="1356.4089,-71.5 1356.4089,-92.5 1478.4089,-92.5 1478.4089,-71.5 1356.4089,-71.5"/>
<text text-anchor="middle" x="1417.4089" y="-78.9" font-family="Helvetica,sans-Serif" font-size="12.00" fill="#000000">SpinOrbitLockInfo.h</text>
</a>
</g>
</g>
<!-- Node0&#45;&gt;Node22 -->
<g id="edge27" class="edge">
<title>Node0&#45;&gt;Node22</title>
<path fill="none" stroke="#191970" d="M166.1993,-258.593C362.2818,-232.2598 892.8462,-160.3813 1346.3103,-93.1473"/>
<polygon fill="#191970" stroke="#191970" points="1346.9568,-96.5897 1356.3348,-91.6598 1345.9294,-89.6656 1346.9568,-96.5897"/>
</g>
<!-- Node2&#45;&gt;Node1 -->
<g id="edge3" class="edge">
<title>Node2&#45;&gt;Node1</title>
<path fill="none" stroke="#191970" d="M80.0659,-187.4583C63.2265,-164.8078 28.6425,-110.3615 51.4089,-71 59.1356,-57.641 71.602,-47.3253 84.9309,-39.4822"/>
<polygon fill="#191970" stroke="#191970" points="86.6573,-42.5276 93.7733,-34.6782 83.3155,-36.3767 86.6573,-42.5276"/>
</g>
<!-- Node3 -->
<g id="node4" class="node">
<title>Node3</title>
<g id="a_node4"><a xlink:href="Core_2Common_8h.html" target="_top" xlink:title="Declaration of some general purpose utilities. ">
<polygon fill="#ffffff" stroke="#000000" points="611.9089,-129.5 611.9089,-150.5 724.9089,-150.5 724.9089,-129.5 611.9089,-129.5"/>
<text text-anchor="middle" x="668.4089" y="-136.9" font-family="Helvetica,sans-Serif" font-size="12.00" fill="#000000">../Core/Common.h</text>
</a>
</g>
</g>
<!-- Node2&#45;&gt;Node3 -->
<g id="edge4" class="edge">
<title>Node2&#45;&gt;Node3</title>
<path fill="none" stroke="#191970" d="M151.5831,-191.6826C261.909,-180.65 488.6785,-157.973 601.5437,-146.6865"/>
<polygon fill="#191970" stroke="#191970" points="602.1721,-150.1412 611.7742,-145.6635 601.4755,-143.176 602.1721,-150.1412"/>
</g>
<!-- Node15 -->
<g id="node16" class="node">
<title>Node15</title>
<polygon fill="#ffffff" stroke="#bfbfbf" points="60.9089,-71.5 60.9089,-92.5 115.9089,-92.5 115.9089,-71.5 60.9089,-71.5"/>
<text text-anchor="middle" x="88.4089" y="-78.9" font-family="Helvetica,sans-Serif" font-size="12.00" fill="#000000">cassert</text>
</g>
<!-- Node2&#45;&gt;Node15 -->
<g id="edge26" class="edge">
<title>Node2&#45;&gt;Node15</title>
<path fill="none" stroke="#191970" d="M88.4089,-187.2949C88.4089,-168.1314 88.4089,-127.654 88.4089,-102.8434"/>
<polygon fill="#191970" stroke="#191970" points="91.909,-102.6792 88.4089,-92.6792 84.909,-102.6792 91.909,-102.6792"/>
</g>
<!-- Node3&#45;&gt;Node1 -->
<g id="edge17" class="edge">
<title>Node3&#45;&gt;Node1</title>
<path fill="none" stroke="#191970" d="M611.7531,-138.365C486.986,-134.2517 196.8806,-121.6845 163.4089,-93 149.77,-81.3118 145.1712,-61.4135 143.9023,-44.9785"/>
<polygon fill="#191970" stroke="#191970" points="147.3919,-44.6488 143.4877,-34.7995 140.3977,-44.9337 147.3919,-44.6488"/>
</g>
<!-- Node4 -->
<g id="node5" class="node">
<title>Node4</title>
<polygon fill="#ffffff" stroke="#bfbfbf" points="1228.4089,-71.5 1228.4089,-92.5 1260.4089,-92.5 1260.4089,-71.5 1228.4089,-71.5"/>
<text text-anchor="middle" x="1244.4089" y="-78.9" font-family="Helvetica,sans-Serif" font-size="12.00" fill="#000000">list</text>
</g>
<!-- Node3&#45;&gt;Node4 -->
<g id="edge5" class="edge">
<title>Node3&#45;&gt;Node4</title>
<path fill="none" stroke="#191970" d="M725.1739,-137.0269C845.4265,-130.4166 1122.3447,-113.4575 1214.4089,-93 1215.6882,-92.7157 1216.987,-92.3902 1218.2906,-92.0335"/>
<polygon fill="#191970" stroke="#191970" points="1219.6975,-95.2573 1228.1394,-88.8554 1217.5478,-88.5956 1219.6975,-95.2573"/>
</g>
<!-- Node5 -->
<g id="node6" class="node">
<title>Node5</title>
<polygon fill="#ffffff" stroke="#bfbfbf" points="1278.9089,-71.5 1278.9089,-92.5 1337.9089,-92.5 1337.9089,-71.5 1278.9089,-71.5"/>
<text text-anchor="middle" x="1308.4089" y="-78.9" font-family="Helvetica,sans-Serif" font-size="12.00" fill="#000000">valarray</text>
</g>
<!-- Node3&#45;&gt;Node5 -->
<g id="edge6" class="edge">
<title>Node3&#45;&gt;Node5</title>
<path fill="none" stroke="#191970" d="M725.3728,-136.981C850.7621,-130.109 1148.3663,-112.5015 1268.6793,-92.751"/>
<polygon fill="#191970" stroke="#191970" points="1269.4776,-96.1651 1278.7386,-91.0188 1268.2897,-89.2666 1269.4776,-96.1651"/>
</g>
<!-- Node6 -->
<g id="node7" class="node">
<title>Node6</title>
<polygon fill="#ffffff" stroke="#bfbfbf" points="172.4089,-71.5 172.4089,-92.5 216.4089,-92.5 216.4089,-71.5 172.4089,-71.5"/>
<text text-anchor="middle" x="194.4089" y="-78.9" font-family="Helvetica,sans-Serif" font-size="12.00" fill="#000000">limits</text>
</g>
<!-- Node3&#45;&gt;Node6 -->
<g id="edge7" class="edge">
<title>Node3&#45;&gt;Node6</title>
<path fill="none" stroke="#191970" d="M611.7695,-138.2452C528.7559,-134.7427 369.2884,-124.4807 226.397,-92.7885"/>
<polygon fill="#191970" stroke="#191970" points="227.1001,-89.3592 216.5747,-90.5698 225.5578,-96.1872 227.1001,-89.3592"/>
</g>
<!-- Node7 -->
<g id="node8" class="node">
<title>Node7</title>
<polygon fill="#ffffff" stroke="#bfbfbf" points="234.9089,-71.5 234.9089,-92.5 293.9089,-92.5 293.9089,-71.5 234.9089,-71.5"/>
<text text-anchor="middle" x="264.4089" y="-78.9" font-family="Helvetica,sans-Serif" font-size="12.00" fill="#000000">sstream</text>
</g>
<!-- Node3&#45;&gt;Node7 -->
<g id="edge8" class="edge">
<title>Node3&#45;&gt;Node7</title>
<path fill="none" stroke="#191970" d="M611.8439,-135.4602C541.5937,-129.2183 418.0158,-116.2619 304.1046,-93.1336"/>
<polygon fill="#191970" stroke="#191970" points="304.6716,-89.6769 294.1708,-91.0853 303.2579,-96.5327 304.6716,-89.6769"/>
</g>
<!-- Node8 -->
<g id="node9" class="node">
<title>Node8</title>
<polygon fill="#ffffff" stroke="#bfbfbf" points="1197.4089,-7 1197.4089,-28 1259.4089,-28 1259.4089,-7 1197.4089,-7"/>
<text text-anchor="middle" x="1228.4089" y="-14.4" font-family="Helvetica,sans-Serif" font-size="12.00" fill="#000000">iostream</text>
</g>
<!-- Node3&#45;&gt;Node8 -->
<g id="edge9" class="edge">
<title>Node3&#45;&gt;Node8</title>
<path fill="none" stroke="#191970" d="M725.2514,-137.5963C850.514,-131.8986 1142.2658,-116.2818 1180.4089,-93 1200.9118,-80.4854 1214.16,-55.5385 1221.4364,-37.7469"/>
<polygon fill="#191970" stroke="#191970" points="1224.7659,-38.8376 1225.0402,-28.2463 1218.221,-36.3549 1224.7659,-38.8376"/>
</g>
<!-- Node9 -->
<g id="node10" class="node">
<title>Node9</title>
<polygon fill="#ffffff" stroke="#bfbfbf" points="311.9089,-71.5 311.9089,-92.5 364.9089,-92.5 364.9089,-71.5 311.9089,-71.5"/>
<text text-anchor="middle" x="338.4089" y="-78.9" font-family="Helvetica,sans-Serif" font-size="12.00" fill="#000000">iterator</text>
</g>
<!-- Node3&#45;&gt;Node9 -->
<g id="edge10" class="edge">
<title>Node3&#45;&gt;Node9</title>
<path fill="none" stroke="#191970" d="M611.8742,-133.3184C554.4987,-126.0095 463.0204,-112.9087 374.9253,-92.8667"/>
<polygon fill="#191970" stroke="#191970" points="375.5652,-89.4225 365.0342,-90.5835 373.9906,-96.2431 375.5652,-89.4225"/>
</g>
<!-- Node10 -->
<g id="node11" class="node">
<title>Node10</title>
<polygon fill="#ffffff" stroke="#bfbfbf" points="383.4089,-71.5 383.4089,-92.5 483.4089,-92.5 483.4089,-71.5 383.4089,-71.5"/>
<text text-anchor="middle" x="433.4089" y="-78.9" font-family="Helvetica,sans-Serif" font-size="12.00" fill="#000000">gsl/gsl_vector.h</text>
</g>
<!-- Node3&#45;&gt;Node10 -->
<g id="edge11" class="edge">
<title>Node3&#45;&gt;Node10</title>
<path fill="none" stroke="#191970" d="M625.8521,-129.4966C586.5457,-119.7955 528.0358,-105.3547 485.8566,-94.9445"/>
<polygon fill="#191970" stroke="#191970" points="486.5928,-91.5213 476.0454,-92.5231 484.9154,-98.3174 486.5928,-91.5213"/>
</g>
<!-- Node11 -->
<g id="node12" class="node">
<title>Node11</title>
<polygon fill="#ffffff" stroke="#bfbfbf" points="501.4089,-71.5 501.4089,-92.5 601.4089,-92.5 601.4089,-71.5 501.4089,-71.5"/>
<text text-anchor="middle" x="551.4089" y="-78.9" font-family="Helvetica,sans-Serif" font-size="12.00" fill="#000000">gsl/gsl_matrix.h</text>
</g>
<!-- Node3&#45;&gt;Node11 -->
<g id="edge12" class="edge">
<title>Node3&#45;&gt;Node11</title>
<path fill="none" stroke="#191970" d="M647.2211,-129.4966C628.9471,-120.4378 602.3365,-107.2462 581.7941,-97.0628"/>
<polygon fill="#191970" stroke="#191970" points="583.3485,-93.9269 572.8344,-92.6212 580.2394,-100.1986 583.3485,-93.9269"/>
</g>
<!-- Node12 -->
<g id="node13" class="node">
<title>Node12</title>
<polygon fill="#ffffff" stroke="#bfbfbf" points="619.9089,-71.5 619.9089,-92.5 716.9089,-92.5 716.9089,-71.5 619.9089,-71.5"/>
<text text-anchor="middle" x="668.4089" y="-78.9" font-family="Helvetica,sans-Serif" font-size="12.00" fill="#000000">gsl/gsl_linalg.h</text>
</g>
<!-- Node3&#45;&gt;Node12 -->
<g id="edge13" class="edge">
<title>Node3&#45;&gt;Node12</title>
<path fill="none" stroke="#191970" d="M668.4089,-129.3619C668.4089,-121.9219 668.4089,-111.7427 668.4089,-102.7276"/>
<polygon fill="#191970" stroke="#191970" points="671.909,-102.5706 668.4089,-92.5707 664.909,-102.5707 671.909,-102.5706"/>
</g>
<!-- Node13 -->
<g id="node14" class="node">
<title>Node13</title>
<polygon fill="#ffffff" stroke="#bfbfbf" points="735.4089,-71.5 735.4089,-92.5 825.4089,-92.5 825.4089,-71.5 735.4089,-71.5"/>
<text text-anchor="middle" x="780.4089" y="-78.9" font-family="Helvetica,sans-Serif" font-size="12.00" fill="#000000">gsl/gsl_blas.h</text>
</g>
<!-- Node3&#45;&gt;Node13 -->
<g id="edge14" class="edge">
<title>Node3&#45;&gt;Node13</title>
<path fill="none" stroke="#191970" d="M688.6912,-129.4966C706.0266,-120.5194 731.1993,-107.4835 750.7893,-97.3387"/>
<polygon fill="#191970" stroke="#191970" points="752.6285,-100.3278 759.8989,-92.6212 749.4095,-94.1118 752.6285,-100.3278"/>
</g>
<!-- Node14 -->
<g id="node15" class="node">
<title>Node14</title>
<polygon fill="#ffffff" stroke="#bfbfbf" points="843.4089,-71.5 843.4089,-92.5 933.4089,-92.5 933.4089,-71.5 843.4089,-71.5"/>
<text text-anchor="middle" x="888.4089" y="-78.9" font-family="Helvetica,sans-Serif" font-size="12.00" fill="#000000">gsl/gsl_poly.h</text>
</g>
<!-- Node3&#45;&gt;Node14 -->
<g id="edge15" class="edge">
<title>Node3&#45;&gt;Node14</title>
<path fill="none" stroke="#191970" d="M708.2492,-129.4966C744.8915,-119.8364 799.36,-105.4765 838.8082,-95.0765"/>
<polygon fill="#191970" stroke="#191970" points="839.7165,-98.4568 848.4938,-92.5231 837.9319,-91.688 839.7165,-98.4568"/>
</g>
<!-- Node3&#45;&gt;Node15 -->
<g id="edge16" class="edge">
<title>Node3&#45;&gt;Node15</title>
<path fill="none" stroke="#191970" d="M611.8513,-138.2012C513.3763,-134.3715 304.3156,-123.1469 130.4089,-93 129.1138,-92.7755 127.8003,-92.5305 126.4769,-92.269"/>
<polygon fill="#191970" stroke="#191970" points="126.7998,-88.7554 116.2786,-90.0017 125.2807,-95.5886 126.7998,-88.7554"/>
</g>
<!-- Node16 -->
<g id="node17" class="node">
<title>Node16</title>
<g id="a_node17"><a xlink:href="Error_8h.html" target="_top" xlink:title="Defines the exception hierarchy used by this code. ">
<polygon fill="#ffffff" stroke="#000000" points="1118.9089,-71.5 1118.9089,-92.5 1171.9089,-92.5 1171.9089,-71.5 1118.9089,-71.5"/>
<text text-anchor="middle" x="1145.4089" y="-78.9" font-family="Helvetica,sans-Serif" font-size="12.00" fill="#000000">Error.h</text>
</a>
</g>
</g>
<!-- Node3&#45;&gt;Node16 -->
<g id="edge18" class="edge">
<title>Node3&#45;&gt;Node16</title>
<path fill="none" stroke="#191970" d="M725.1318,-137.5725C807.8849,-133.2402 966.5233,-121.9472 1109.0054,-92.9863"/>
<polygon fill="#191970" stroke="#191970" points="1109.7156,-96.4135 1118.8002,-90.9618 1108.2987,-89.5584 1109.7156,-96.4135"/>
</g>
<!-- Node19 -->
<g id="node20" class="node">
<title>Node19</title>
<g id="a_node20"><a xlink:href="AstronomicalConstants_8h.html" target="_top" xlink:title="Defines various astronomical constants. ">
<polygon fill="#ffffff" stroke="#000000" points="951.4089,-71.5 951.4089,-92.5 1101.4089,-92.5 1101.4089,-71.5 951.4089,-71.5"/>
<text text-anchor="middle" x="1026.4089" y="-78.9" font-family="Helvetica,sans-Serif" font-size="12.00" fill="#000000">AstronomicalConstants.h</text>
</a>
</g>
</g>
<!-- Node3&#45;&gt;Node19 -->
<g id="edge23" class="edge">
<title>Node3&#45;&gt;Node19</title>
<path fill="none" stroke="#191970" d="M725.135,-130.8097C786.271,-120.905 883.8587,-105.0947 951.3219,-94.1649"/>
<polygon fill="#191970" stroke="#191970" points="952.1528,-97.576 961.4643,-92.5217 951.0332,-90.6661 952.1528,-97.576"/>
</g>
<!-- Node20 -->
<g id="node21" class="node">
<title>Node20</title>
<g id="a_node21"><a xlink:href="IncludeEigen_8h_source.html" target="_top" xlink:title="IncludeEigen.h">
<polygon fill="#ffffff" stroke="#000000" points="1496.9089,-71.5 1496.9089,-92.5 1593.9089,-92.5 1593.9089,-71.5 1496.9089,-71.5"/>
<text text-anchor="middle" x="1545.4089" y="-78.9" font-family="Helvetica,sans-Serif" font-size="12.00" fill="#000000">IncludeEigen.h</text>
</a>
</g>
</g>
<!-- Node3&#45;&gt;Node20 -->
<g id="edge24" class="edge">
<title>Node3&#45;&gt;Node20</title>
<path fill="none" stroke="#191970" d="M725.2335,-139.2797C857.2289,-137.0596 1194.8793,-128.2333 1486.8173,-92.9183"/>
<polygon fill="#191970" stroke="#191970" points="1487.2453,-96.3921 1496.7468,-91.7047 1486.396,-89.4438 1487.2453,-96.3921"/>
</g>
<!-- Node16&#45;&gt;Node1 -->
<g id="edge19" class="edge">
<title>Node16&#45;&gt;Node1</title>
<path fill="none" stroke="#191970" d="M1118.8281,-72.895C1116.0096,-72.1556 1113.1662,-71.5015 1110.4089,-71 944.6481,-40.8505 445.4617,-25.0997 237.2185,-19.6954"/>
<polygon fill="#191970" stroke="#191970" points="237.0104,-16.189 226.9237,-19.4306 236.8303,-23.1867 237.0104,-16.189"/>
</g>
<!-- Node16&#45;&gt;Node8 -->
<g id="edge20" class="edge">
<title>Node16&#45;&gt;Node8</title>
<path fill="none" stroke="#191970" d="M1159.1146,-71.3491C1171.9702,-61.359 1191.4112,-46.2512 1206.4324,-34.5781"/>
<polygon fill="#191970" stroke="#191970" points="1208.9343,-37.0665 1214.6827,-28.1667 1204.639,-31.5392 1208.9343,-37.0665"/>
</g>
<!-- Node17 -->
<g id="node18" class="node">
<title>Node17</title>
<polygon fill="#ffffff" stroke="#bfbfbf" points="1111.4089,-7 1111.4089,-28 1179.4089,-28 1179.4089,-7 1111.4089,-7"/>
<text text-anchor="middle" x="1145.4089" y="-14.4" font-family="Helvetica,sans-Serif" font-size="12.00" fill="#000000">exception</text>
</g>
<!-- Node16&#45;&gt;Node17 -->
<g id="edge21" class="edge">
<title>Node16&#45;&gt;Node17</title>
<path fill="none" stroke="#191970" d="M1145.4089,-71.3491C1145.4089,-62.4397 1145.4089,-49.4599 1145.4089,-38.4761"/>
<polygon fill="#191970" stroke="#191970" points="1148.909,-38.3822 1145.4089,-28.3823 1141.909,-38.3823 1148.909,-38.3822"/>
</g>
<!-- Node18 -->
<g id="node19" class="node">
<title>Node18</title>
<polygon fill="#ffffff" stroke="#bfbfbf" points="1047.4089,-7 1047.4089,-28 1093.4089,-28 1093.4089,-7 1047.4089,-7"/>
<text text-anchor="middle" x="1070.4089" y="-14.4" font-family="Helvetica,sans-Serif" font-size="12.00" fill="#000000">string</text>
</g>
<!-- Node16&#45;&gt;Node18 -->
<g id="edge22" class="edge">
<title>Node16&#45;&gt;Node18</title>
<path fill="none" stroke="#191970" d="M1133.0241,-71.3491C1121.5163,-61.4524 1104.1684,-46.5332 1090.6487,-34.9063"/>
<polygon fill="#191970" stroke="#191970" points="1092.676,-32.0335 1082.812,-28.1667 1088.1117,-37.3408 1092.676,-32.0335"/>
</g>
<!-- Node21 -->
<g id="node22" class="node">
<title>Node21</title>
<polygon fill="#ffffff" stroke="#bfbfbf" points="1502.4089,-7 1502.4089,-28 1588.4089,-28 1588.4089,-7 1502.4089,-7"/>
<text text-anchor="middle" x="1545.4089" y="-14.4" font-family="Helvetica,sans-Serif" font-size="12.00" fill="#000000">Eigen/Dense</text>
</g>
<!-- Node20&#45;&gt;Node21 -->
<g id="edge25" class="edge">
<title>Node20&#45;&gt;Node21</title>
<path fill="none" stroke="#191970" d="M1545.4089,-71.3491C1545.4089,-62.4397 1545.4089,-49.4599 1545.4089,-38.4761"/>
<polygon fill="#191970" stroke="#191970" points="1548.909,-38.3822 1545.4089,-28.3823 1541.909,-38.3823 1548.909,-38.3822"/>
</g>
<!-- Node22&#45;&gt;Node1 -->
<g id="edge28" class="edge">
<title>Node22&#45;&gt;Node1</title>
<path fill="none" stroke="#191970" d="M1356.3772,-71.9993C1353.3486,-71.6317 1350.3465,-71.2952 1347.4089,-71 1132.4726,-49.4007 480.6089,-27.8099 237.3041,-20.2893"/>
<polygon fill="#191970" stroke="#191970" points="237.1785,-16.7838 227.0753,-19.9739 236.9627,-23.7805 237.1785,-16.7838"/>
</g>
<!-- Node22&#45;&gt;Node8 -->
<g id="edge29" class="edge">
<title>Node22&#45;&gt;Node8</title>
<path fill="none" stroke="#191970" d="M1386.6221,-71.4934C1354.4967,-60.53 1303.9834,-43.2913 1268.7018,-31.2508"/>
<polygon fill="#191970" stroke="#191970" points="1269.777,-27.9195 1259.1825,-28.0021 1267.5161,-34.5444 1269.777,-27.9195"/>
</g>
</g>
</svg>
        <g id="navigator" transform="translate(0 0)" fill="#404254">
                <rect fill="#f2f5e9" fill-opacity="0.5" stroke="#606060" stroke-width=".5" x="0" y="0" width="60" height="60"/>
                <use id="zoomplus" xlink:href="#zoomPlus" x="17" y="9" onmousedown="handleZoom(evt,'in')"/>
                <use id="zoomminus" xlink:href="#zoomMin" x="42" y="9" onmousedown="handleZoom(evt,'out')"/>
                <use id="reset" xlink:href="#resetDef" x="30" y="36" onmousedown="handleReset()"/>
                <g id="arrowUp" xlink:href="#dirArrow" transform="translate(30 24)" onmousedown="handlePan(0,-1)">
                  <use xlink:href="#rim" fill="#404040">
                        <set attributeName="fill" to="#808080" begin="arrowUp.mouseover" end="arrowUp.mouseout"/>
                  </use>
                  <path fill="none" stroke="white" stroke-width="1.5" d="M0,-3.0v7 M-2.5,-0.5L0,-3.0L2.5,-0.5"/>
                </g>
                <g id="arrowRight" xlink:href="#dirArrow" transform="rotate(90) translate(36 -43)" onmousedown="handlePan(1,0)">
                  <use xlink:href="#rim" fill="#404040">
                        <set attributeName="fill" to="#808080" begin="arrowRight.mouseover" end="arrowRight.mouseout"/>
                  </use>
                  <path fill="none" stroke="white" stroke-width="1.5" d="M0,-3.0v7 M-2.5,-0.5L0,-3.0L2.5,-0.5"/>
                </g>
                <g id="arrowDown" xlink:href="#dirArrow" transform="rotate(180) translate(-30 -48)" onmousedown="handlePan(0,1)">
                  <use xlink:href="#rim" fill="#404040">
                        <set attributeName="fill" to="#808080" begin="arrowDown.mouseover" end="arrowDown.mouseout"/>
                  </use>
                  <path fill="none" stroke="white" stroke-width="1.5" d="M0,-3.0v7 M-2.5,-0.5L0,-3.0L2.5,-0.5"/>
                </g>
                <g id="arrowLeft" xlink:href="#dirArrow" transform="rotate(270) translate(-36 17)" onmousedown="handlePan(-1,0)">
                  <use xlink:href="#rim" fill="#404040">
                        <set attributeName="fill" to="#808080" begin="arrowLeft.mouseover" end="arrowLeft.mouseout"/>
                  </use>
                  <path fill="none" stroke="white" stroke-width="1.5" d="M0,-3.0v7 M-2.5,-0.5L0,-3.0L2.5,-0.5"/>
                </g>
        </g>
        <svg viewBox="0 0 15 15" width="100%" height="30px" preserveAspectRatio="xMaxYMin meet">
         <g id="arrow_out" transform="scale(0.3 0.3)">
          <a xlink:href="SynchronizedCondition_8h__incl_org.svg" target="_base">
           <rect id="button" ry="5" rx="5" y="6" x="6" height="38" width="38"
                fill="#f2f5e9" fill-opacity="0.5" stroke="#606060" stroke-width="1.0"/>
           <path id="arrow"
             d="M 11.500037,31.436501 C 11.940474,20.09759 22.043105,11.32322 32.158766,21.979434 L 37.068811,17.246167 C 37.068811,17.246167 37.088388,32 37.088388,32 L 22.160133,31.978069 C 22.160133,31.978069 26.997745,27.140456 26.997745,27.140456 C 18.528582,18.264221 13.291696,25.230495 11.500037,31.436501 z"
             style="fill:#404040;"/>
          </a>
         </g>
        </svg>
</svg>
