<?xml version="1.0" encoding="UTF-8" standalone="no"?>
<!DOCTYPE svg PUBLIC "-//W3C//DTD SVG 1.1//EN"
 "http://www.w3.org/Graphics/SVG/1.1/DTD/svg11.dtd">
<!-- Generated by graphviz version 2.40.1 (20161225.0304)
 -->
<!-- Title: /Users/kpenev/projects/git/poet/poet_src/Evolve/SynchronizedCondition.h Pages: 1 -->
<!--zoomable 293 -->
<svg id="main" version="1.1" xmlns="http://www.w3.org/2000/svg" xmlns:xlink="http://www.w3.org/1999/xlink" xml:space="preserve" onload="init(evt)">
<style type="text/css"><![CDATA[
.edge:hover path { stroke: red; }
.edge:hover polygon { stroke: red; fill: red; }
]]></style>
<script type="text/javascript"><![CDATA[
var edges = document.getElementsByTagName('g');
if (edges && edges.length) {
  for (var i=0;i<edges.length;i++) {
    if (edges[i].id.substr(0,4)=='edge') {
      edges[i].setAttribute('class','edge');
    }
  }
}
]]></script>
        <defs>
                <circle id="rim" cx="0" cy="0" r="7"/>
                <circle id="rim2" cx="0" cy="0" r="3.5"/>
                <g id="zoomPlus">
                        <use xlink:href="#rim" fill="#404040">
                                <set attributeName="fill" to="#808080" begin="zoomplus.mouseover" end="zoomplus.mouseout"/>
                        </use>
                        <path d="M-4,0h8M0,-4v8" fill="none" stroke="white" stroke-width="1.5" pointer-events="none"/>
                </g>
                <g id="zoomMin">
                        <use xlink:href="#rim" fill="#404040">
                                <set attributeName="fill" to="#808080" begin="zoomminus.mouseover" end="zoomminus.mouseout"/>
                        </use>
                        <path d="M-4,0h8" fill="none" stroke="white" stroke-width="1.5" pointer-events="none"/>
                </g>
                <g id="dirArrow">
                        <path fill="none" stroke="white" stroke-width="1.5" d="M0,-3.0v7 M-2.5,-0.5L0,-3.0L2.5,-0.5"/>
                </g>
               <g id="resetDef">
                       <use xlink:href="#rim2" fill="#404040">
                               <set attributeName="fill" to="#808080" begin="reset.mouseover" end="reset.mouseout"/>
                       </use>
               </g>
        </defs>

<script type="text/javascript">
var viewWidth = 1513;
var viewHeight = 293;
var sectionId = 'dynsection-0';
</script>
<script xlink:href="svgpan.js"/>
<svg id="graph" class="graph">
<g id="viewport">
<title>/Users/kpenev/projects/git/poet/poet_src/Evolve/SynchronizedCondition.h</title>
<polygon fill="#ffffff" stroke="transparent" points="-4,4 -4,-289 1509.04,-289 1509.04,4 -4,4"/>
<!-- Node0 -->
<g id="node1" class="node">
<title>Node0</title>
<polygon fill="#bfbfbf" stroke="#000000" points="32.3252,-240.5 32.3252,-284.5 185.0771,-284.5 185.0771,-240.5 32.3252,-240.5"/>
<text text-anchor="start" x="40.3252" y="-270.9" font-family="Helvetica,sans-Serif" font-size="12.00" fill="#000000">/Users/kpenev/projects</text>
<text text-anchor="start" x="40.3252" y="-258.9" font-family="Helvetica,sans-Serif" font-size="12.00" fill="#000000">/git/poet/poet_src/Evolve</text>
<text text-anchor="middle" x="108.7012" y="-246.9" font-family="Helvetica,sans-Serif" font-size="12.00" fill="#000000">/SynchronizedCondition.h</text>
</g>
<!-- Node1 -->
<g id="node2" class="node">
<title>Node1</title>
<g id="a_node2"><a xlink:href="SharedLibraryExportMacros_8h_source.html" target="_top" xlink:title="../Core/SharedLibraryExport\lMacros.h">
<polygon fill="#ffffff" stroke="#000000" points="0,-.5 0,-32.5 165.4023,-32.5 165.4023,-.5 0,-.5"/>
<text text-anchor="start" x="8" y="-18.9" font-family="Helvetica,sans-Serif" font-size="12.00" fill="#000000">../Core/SharedLibraryExport</text>
<text text-anchor="middle" x="82.7012" y="-6.9" font-family="Helvetica,sans-Serif" font-size="12.00" fill="#000000">Macros.h</text>
</a>
</g>
</g>
<!-- Node0&#45;&gt;Node1 -->
<g id="edge1" class="edge">
<title>Node0&#45;&gt;Node1</title>
<path fill="none" stroke="#191970" d="M106.348,-240.2353C101.5368,-194.7136 90.596,-91.1972 85.4602,-42.6049"/>
<polygon fill="#191970" stroke="#191970" points="88.9315,-42.1477 84.3997,-32.571 81.9703,-42.8835 88.9315,-42.1477"/>
</g>
<!-- Node2 -->
<g id="node3" class="node">
<title>Node2</title>
<g id="a_node3"><a xlink:href="StoppingCondition_8h.html" target="_top" xlink:title="Defines the various stopping conditions needed by OrbitSolver. ">
<polygon fill="#ffffff" stroke="#000000" points="297.6602,-183.5 297.6602,-203.5 421.7422,-203.5 421.7422,-183.5 297.6602,-183.5"/>
<text text-anchor="middle" x="359.7012" y="-189.9" font-family="Helvetica,sans-Serif" font-size="12.00" fill="#000000">StoppingCondition.h</text>
</a>
</g>
</g>
<!-- Node0&#45;&gt;Node2 -->
<g id="edge2" class="edge">
<title>Node0&#45;&gt;Node2</title>
<path fill="none" stroke="#191970" d="M185.3733,-241.4228C227.1474,-229.9391 277.4726,-216.1047 313.2908,-206.2582"/>
<polygon fill="#191970" stroke="#191970" points="314.2749,-209.6176 322.9895,-203.5921 312.4194,-202.868 314.2749,-209.6176"/>
</g>
<!-- Node2&#45;&gt;Node1 -->
<g id="edge3" class="edge">
<title>Node2&#45;&gt;Node1</title>
<path fill="none" stroke="#191970" d="M317.0219,-183.4796C266.164,-169.7211 181.0104,-140.7234 124.7012,-90 110.1899,-76.9282 99.4266,-57.6217 92.4305,-42.0758"/>
<polygon fill="#191970" stroke="#191970" points="95.4998,-40.3483 88.3755,-32.5064 89.0546,-43.0794 95.4998,-40.3483"/>
</g>
<!-- Node3 -->
<g id="node4" class="node">
<title>Node3</title>
<g id="a_node4"><a xlink:href="Core_2Common_8h.html" target="_top" xlink:title="Declaration of some general purpose utilities. ">
<polygon fill="#ffffff" stroke="#000000" points="508.6846,-126.5 508.6846,-146.5 622.7178,-146.5 622.7178,-126.5 508.6846,-126.5"/>
<text text-anchor="middle" x="565.7012" y="-132.9" font-family="Helvetica,sans-Serif" font-size="12.00" fill="#000000">../Core/Common.h</text>
</a>
</g>
</g>
<!-- Node2&#45;&gt;Node3 -->
<g id="edge4" class="edge">
<title>Node2&#45;&gt;Node3</title>
<path fill="none" stroke="#191970" d="M396.0556,-183.4408C430.3687,-173.9464 481.975,-159.6669 519.2554,-149.3515"/>
<polygon fill="#191970" stroke="#191970" points="520.6598,-152.5945 529.3643,-146.5544 518.793,-145.848 520.6598,-152.5945"/>
</g>
<!-- Node15 -->
<g id="node16" class="node">
<title>Node15</title>
<polygon fill="#ffffff" stroke="#bfbfbf" points="1450.3623,-69.5 1450.3623,-89.5 1505.04,-89.5 1505.04,-69.5 1450.3623,-69.5"/>
<text text-anchor="middle" x="1477.7012" y="-75.9" font-family="Helvetica,sans-Serif" font-size="12.00" fill="#000000">cassert</text>
</g>
<!-- Node2&#45;&gt;Node15 -->
<g id="edge26" class="edge">
<title>Node2&#45;&gt;Node15</title>
<path fill="none" stroke="#191970" d="M421.8878,-191.6453C587.1219,-185.8461 1050.5343,-163.9013 1440.2541,-89.9881"/>
<polygon fill="#191970" stroke="#191970" points="1441.1488,-93.3806 1450.314,-88.0655 1439.8347,-86.505 1441.1488,-93.3806"/>
</g>
<!-- Node3&#45;&gt;Node1 -->
<g id="edge17" class="edge">
<title>Node3&#45;&gt;Node1</title>
<path fill="none" stroke="#191970" d="M508.3769,-134.4765C411.3308,-130.3063 219.3119,-118.6245 158.7012,-90 135.0237,-78.8179 114.1346,-57.2744 100.2788,-40.3897"/>
<polygon fill="#191970" stroke="#191970" points="103.0138,-38.2056 94.0605,-32.5409 97.5271,-42.5525 103.0138,-38.2056"/>
</g>
<!-- Node4 -->
<g id="node5" class="node">
<title>Node4</title>
<polygon fill="#ffffff" stroke="#bfbfbf" points="237.3682,-69.5 237.3682,-89.5 268.0342,-89.5 268.0342,-69.5 237.3682,-69.5"/>
<text text-anchor="middle" x="252.7012" y="-75.9" font-family="Helvetica,sans-Serif" font-size="12.00" fill="#000000">list</text>
</g>
<!-- Node3&#45;&gt;Node4 -->
<g id="edge5" class="edge">
<title>Node3&#45;&gt;Node4</title>
<path fill="none" stroke="#191970" d="M508.5414,-131.3147C449.7939,-125.0501 356.0939,-112.4448 277.7012,-90 277.6022,-89.9717 277.503,-89.943 277.4038,-89.9141"/>
<polygon fill="#191970" stroke="#191970" points="278.6935,-86.6577 268.0987,-86.6377 276.3686,-93.2603 278.6935,-86.6577"/>
</g>
<!-- Node5 -->
<g id="node6" class="node">
<title>Node5</title>
<polygon fill="#ffffff" stroke="#bfbfbf" points="286.3613,-69.5 286.3613,-89.5 345.041,-89.5 345.041,-69.5 286.3613,-69.5"/>
<text text-anchor="middle" x="315.7012" y="-75.9" font-family="Helvetica,sans-Serif" font-size="12.00" fill="#000000">valarray</text>
</g>
<!-- Node3&#45;&gt;Node5 -->
<g id="edge6" class="edge">
<title>Node3&#45;&gt;Node5</title>
<path fill="none" stroke="#191970" d="M516.2646,-126.4405C475.3749,-117.9429 415.5667,-105.1079 354.8657,-90.2054"/>
<polygon fill="#191970" stroke="#191970" points="355.6663,-86.7981 345.1186,-87.7963 353.9866,-93.5936 355.6663,-86.7981"/>
</g>
<!-- Node6 -->
<g id="node7" class="node">
<title>Node6</title>
<polygon fill="#ffffff" stroke="#bfbfbf" points="363.0371,-69.5 363.0371,-89.5 406.3652,-89.5 406.3652,-69.5 363.0371,-69.5"/>
<text text-anchor="middle" x="384.7012" y="-75.9" font-family="Helvetica,sans-Serif" font-size="12.00" fill="#000000">limits</text>
</g>
<!-- Node3&#45;&gt;Node6 -->
<g id="edge7" class="edge">
<title>Node3&#45;&gt;Node6</title>
<path fill="none" stroke="#191970" d="M532.5559,-126.4951C504.1311,-117.8553 461.8545,-104.8643 416.4302,-90.1846"/>
<polygon fill="#191970" stroke="#191970" points="417.2852,-86.7825 406.6932,-87.0275 415.1261,-93.4413 417.2852,-86.7825"/>
</g>
<!-- Node7 -->
<g id="node8" class="node">
<title>Node7</title>
<polygon fill="#ffffff" stroke="#bfbfbf" points="424.3643,-69.5 424.3643,-89.5 483.0381,-89.5 483.0381,-69.5 424.3643,-69.5"/>
<text text-anchor="middle" x="453.7012" y="-75.9" font-family="Helvetica,sans-Serif" font-size="12.00" fill="#000000">sstream</text>
</g>
<!-- Node3&#45;&gt;Node7 -->
<g id="edge8" class="edge">
<title>Node3&#45;&gt;Node7</title>
<path fill="none" stroke="#191970" d="M545.9356,-126.4408C528.3706,-117.5014 502.4707,-104.3202 482.5845,-94.1996"/>
<polygon fill="#191970" stroke="#191970" points="484.1456,-91.0669 473.6458,-89.6504 480.9706,-97.3054 484.1456,-91.0669"/>
</g>
<!-- Node8 -->
<g id="node9" class="node">
<title>Node8</title>
<polygon fill="#ffffff" stroke="#bfbfbf" points="405.6943,-6.5 405.6943,-26.5 467.708,-26.5 467.708,-6.5 405.6943,-6.5"/>
<text text-anchor="middle" x="436.7012" y="-12.9" font-family="Helvetica,sans-Serif" font-size="12.00" fill="#000000">iostream</text>
</g>
<!-- Node3&#45;&gt;Node8 -->
<g id="edge9" class="edge">
<title>Node3&#45;&gt;Node8</title>
<path fill="none" stroke="#191970" d="M554.7027,-126.2689C532.5206,-105.6344 482.2219,-58.8448 455.0071,-33.5287"/>
<polygon fill="#191970" stroke="#191970" points="457.3776,-30.9536 447.6718,-26.7052 452.6098,-36.079 457.3776,-30.9536"/>
</g>
<!-- Node9 -->
<g id="node10" class="node">
<title>Node9</title>
<polygon fill="#ffffff" stroke="#bfbfbf" points="539.0273,-69.5 539.0273,-89.5 592.375,-89.5 592.375,-69.5 539.0273,-69.5"/>
<text text-anchor="middle" x="565.7012" y="-75.9" font-family="Helvetica,sans-Serif" font-size="12.00" fill="#000000">iterator</text>
</g>
<!-- Node3&#45;&gt;Node9 -->
<g id="edge10" class="edge">
<title>Node3&#45;&gt;Node9</title>
<path fill="none" stroke="#191970" d="M565.7012,-126.3095C565.7012,-118.9335 565.7012,-108.72 565.7012,-99.715"/>
<polygon fill="#191970" stroke="#191970" points="569.2013,-99.6022 565.7012,-89.6022 562.2013,-99.6023 569.2013,-99.6022"/>
</g>
<!-- Node10 -->
<g id="node11" class="node">
<title>Node10</title>
<polygon fill="#ffffff" stroke="#bfbfbf" points="610.3428,-69.5 610.3428,-89.5 709.0596,-89.5 709.0596,-69.5 610.3428,-69.5"/>
<text text-anchor="middle" x="659.7012" y="-75.9" font-family="Helvetica,sans-Serif" font-size="12.00" fill="#000000">gsl/gsl_vector.h</text>
</g>
<!-- Node3&#45;&gt;Node10 -->
<g id="edge11" class="edge">
<title>Node3&#45;&gt;Node10</title>
<path fill="none" stroke="#191970" d="M582.5065,-126.3095C596.9429,-117.5556 617.9703,-104.8049 634.4347,-94.8211"/>
<polygon fill="#191970" stroke="#191970" points="636.3054,-97.7801 643.0413,-89.6022 632.6758,-91.7945 636.3054,-97.7801"/>
</g>
<!-- Node11 -->
<g id="node12" class="node">
<title>Node11</title>
<polygon fill="#ffffff" stroke="#bfbfbf" points="727.0205,-69.5 727.0205,-89.5 826.3818,-89.5 826.3818,-69.5 727.0205,-69.5"/>
<text text-anchor="middle" x="776.7012" y="-75.9" font-family="Helvetica,sans-Serif" font-size="12.00" fill="#000000">gsl/gsl_matrix.h</text>
</g>
<!-- Node3&#45;&gt;Node11 -->
<g id="edge12" class="edge">
<title>Node3&#45;&gt;Node11</title>
<path fill="none" stroke="#191970" d="M602.938,-126.4408C638.2342,-116.9058 691.3949,-102.5448 729.6169,-92.2195"/>
<polygon fill="#191970" stroke="#191970" points="730.7411,-95.5413 739.4823,-89.5544 728.9155,-88.7835 730.7411,-95.5413"/>
</g>
<!-- Node12 -->
<g id="node13" class="node">
<title>Node12</title>
<polygon fill="#ffffff" stroke="#bfbfbf" points="844.3438,-69.5 844.3438,-89.5 939.0586,-89.5 939.0586,-69.5 844.3438,-69.5"/>
<text text-anchor="middle" x="891.7012" y="-75.9" font-family="Helvetica,sans-Serif" font-size="12.00" fill="#000000">gsl/gsl_linalg.h</text>
</g>
<!-- Node3&#45;&gt;Node12 -->
<g id="edge13" class="edge">
<title>Node3&#45;&gt;Node12</title>
<path fill="none" stroke="#191970" d="M622.8935,-126.9026C675.3319,-118.0458 755.419,-104.3758 833.9814,-90.2929"/>
<polygon fill="#191970" stroke="#191970" points="834.8275,-93.697 844.0511,-88.484 833.5898,-86.8073 834.8275,-93.697"/>
</g>
<!-- Node13 -->
<g id="node14" class="node">
<title>Node13</title>
<polygon fill="#ffffff" stroke="#bfbfbf" points="957.3467,-69.5 957.3467,-89.5 1046.0557,-89.5 1046.0557,-69.5 957.3467,-69.5"/>
<text text-anchor="middle" x="1001.7012" y="-75.9" font-family="Helvetica,sans-Serif" font-size="12.00" fill="#000000">gsl/gsl_blas.h</text>
</g>
<!-- Node3&#45;&gt;Node13 -->
<g id="edge14" class="edge">
<title>Node3&#45;&gt;Node13</title>
<path fill="none" stroke="#191970" d="M622.8294,-130.8237C695.6204,-123.307 825.5267,-108.942 947.0232,-90.0101"/>
<polygon fill="#191970" stroke="#191970" points="947.9134,-93.4132 957.2485,-88.4027 946.8263,-86.4982 947.9134,-93.4132"/>
</g>
<!-- Node14 -->
<g id="node15" class="node">
<title>Node14</title>
<polygon fill="#ffffff" stroke="#bfbfbf" points="1063.7891,-69.5 1063.7891,-89.5 1151.6133,-89.5 1151.6133,-69.5 1063.7891,-69.5"/>
<text text-anchor="middle" x="1107.7012" y="-75.9" font-family="Helvetica,sans-Serif" font-size="12.00" fill="#000000">gsl/gsl_poly.h</text>
</g>
<!-- Node3&#45;&gt;Node14 -->
<g id="edge15" class="edge">
<title>Node3&#45;&gt;Node14</title>
<path fill="none" stroke="#191970" d="M622.768,-132.9468C712.3702,-126.956 891.6804,-113.3085 1053.3799,-90.0725"/>
<polygon fill="#191970" stroke="#191970" points="1054.1195,-93.5019 1063.5124,-88.6004 1053.113,-86.5746 1054.1195,-93.5019"/>
</g>
<!-- Node3&#45;&gt;Node15 -->
<g id="edge16" class="edge">
<title>Node3&#45;&gt;Node15</title>
<path fill="none" stroke="#191970" d="M623.0039,-135.1839C788.2893,-131.1195 1264.7774,-117.4502 1440.4499,-89.8135"/>
<polygon fill="#191970" stroke="#191970" points="1441.0364,-93.2642 1450.3362,-88.1882 1439.9008,-86.3569 1441.0364,-93.2642"/>
</g>
<!-- Node16 -->
<g id="node17" class="node">
<title>Node16</title>
<g id="a_node17"><a xlink:href="Error_8h.html" target="_top" xlink:title="Defines the exception hierarchy used by this code. ">
<polygon fill="#ffffff" stroke="#000000" points="167.6924,-69.5 167.6924,-89.5 219.71,-89.5 219.71,-69.5 167.6924,-69.5"/>
<text text-anchor="middle" x="193.7012" y="-75.9" font-family="Helvetica,sans-Serif" font-size="12.00" fill="#000000">Error.h</text>
</a>
</g>
</g>
<!-- Node3&#45;&gt;Node16 -->
<g id="edge18" class="edge">
<title>Node3&#45;&gt;Node16</title>
<path fill="none" stroke="#191970" d="M508.5851,-131.3334C443.2808,-124.8219 333.0985,-111.9966 229.9219,-90.0086"/>
<polygon fill="#191970" stroke="#191970" points="230.4749,-86.5473 219.9607,-87.852 228.9937,-93.3888 230.4749,-86.5473"/>
</g>
<!-- Node19 -->
<g id="node20" class="node">
<title>Node19</title>
<g id="a_node20"><a xlink:href="AstronomicalConstants_8h.html" target="_top" xlink:title="Defines various astronomical constants. ">
<polygon fill="#ffffff" stroke="#000000" points="1170.0039,-69.5 1170.0039,-89.5 1319.3984,-89.5 1319.3984,-69.5 1170.0039,-69.5"/>
<text text-anchor="middle" x="1244.7012" y="-75.9" font-family="Helvetica,sans-Serif" font-size="12.00" fill="#000000">AstronomicalConstants.h</text>
</a>
</g>
</g>
<!-- Node3&#45;&gt;Node19 -->
<g id="edge23" class="edge">
<title>Node3&#45;&gt;Node19</title>
<path fill="none" stroke="#191970" d="M622.802,-132.9217C727.1848,-126.1871 956.0246,-110.5298 1159.6323,-90.0699"/>
<polygon fill="#191970" stroke="#191970" points="1160.0176,-93.5489 1169.6149,-89.0608 1159.3136,-86.5844 1160.0176,-93.5489"/>
</g>
<!-- Node20 -->
<g id="node21" class="node">
<title>Node20</title>
<g id="a_node21"><a xlink:href="IncludeEigen_8h_source.html" target="_top" xlink:title="IncludeEigen.h">
<polygon fill="#ffffff" stroke="#000000" points="1337.0039,-69.5 1337.0039,-89.5 1432.3984,-89.5 1432.3984,-69.5 1337.0039,-69.5"/>
<text text-anchor="middle" x="1384.7012" y="-75.9" font-family="Helvetica,sans-Serif" font-size="12.00" fill="#000000">IncludeEigen.h</text>
</a>
</g>
</g>
<!-- Node3&#45;&gt;Node20 -->
<g id="edge24" class="edge">
<title>Node3&#45;&gt;Node20</title>
<path fill="none" stroke="#191970" d="M622.8748,-135.4449C748.5868,-132.6003 1058.5857,-122.7163 1326.8744,-90.1064"/>
<polygon fill="#191970" stroke="#191970" points="1327.3027,-93.5802 1336.8013,-88.887 1326.4491,-86.6324 1327.3027,-93.5802"/>
</g>
<!-- Node16&#45;&gt;Node1 -->
<g id="edge19" class="edge">
<title>Node16&#45;&gt;Node1</title>
<path fill="none" stroke="#191970" d="M175.8671,-69.378C160.9101,-60.8889 139.0427,-48.4776 120.2518,-37.8125"/>
<polygon fill="#191970" stroke="#191970" points="121.7425,-34.6342 111.318,-32.742 118.2872,-40.722 121.7425,-34.6342"/>
</g>
<!-- Node16&#45;&gt;Node8 -->
<g id="edge20" class="edge">
<title>Node16&#45;&gt;Node8</title>
<path fill="none" stroke="#191970" d="M220.0384,-71.4629C222.956,-70.613 225.8882,-69.7765 228.7012,-69 286.4103,-53.069 353.6562,-36.4451 395.7089,-26.2797"/>
<polygon fill="#191970" stroke="#191970" points="396.6762,-29.6468 405.5777,-23.9009 395.0359,-22.8417 396.6762,-29.6468"/>
</g>
<!-- Node17 -->
<g id="node18" class="node">
<title>Node17</title>
<polygon fill="#ffffff" stroke="#bfbfbf" points="183.0166,-6.5 183.0166,-26.5 250.3857,-26.5 250.3857,-6.5 183.0166,-6.5"/>
<text text-anchor="middle" x="216.7012" y="-12.9" font-family="Helvetica,sans-Serif" font-size="12.00" fill="#000000">exception</text>
</g>
<!-- Node16&#45;&gt;Node17 -->
<g id="edge21" class="edge">
<title>Node16&#45;&gt;Node17</title>
<path fill="none" stroke="#191970" d="M197.3965,-69.378C200.6298,-60.5215 205.4217,-47.396 209.4222,-36.4381"/>
<polygon fill="#191970" stroke="#191970" points="212.7969,-37.4001 212.9386,-26.8062 206.2214,-34.9995 212.7969,-37.4001"/>
</g>
<!-- Node18 -->
<g id="node19" class="node">
<title>Node18</title>
<polygon fill="#ffffff" stroke="#bfbfbf" points="268.0293,-6.5 268.0293,-26.5 313.373,-26.5 313.373,-6.5 268.0293,-6.5"/>
<text text-anchor="middle" x="290.7012" y="-12.9" font-family="Helvetica,sans-Serif" font-size="12.00" fill="#000000">string</text>
</g>
<!-- Node16&#45;&gt;Node18 -->
<g id="edge22" class="edge">
<title>Node16&#45;&gt;Node18</title>
<path fill="none" stroke="#191970" d="M209.2859,-69.378C224.7002,-59.3666 248.5134,-43.9003 266.4109,-32.2762"/>
<polygon fill="#191970" stroke="#191970" points="268.6751,-34.9791 275.1551,-26.5969 264.8623,-29.1086 268.6751,-34.9791"/>
</g>
<!-- Node21 -->
<g id="node22" class="node">
<title>Node21</title>
<polygon fill="#ffffff" stroke="#bfbfbf" points="1342.3447,-6.5 1342.3447,-26.5 1427.0576,-26.5 1427.0576,-6.5 1342.3447,-6.5"/>
<text text-anchor="middle" x="1384.7012" y="-12.9" font-family="Helvetica,sans-Serif" font-size="12.00" fill="#000000">Eigen/Dense</text>
</g>
<!-- Node20&#45;&gt;Node21 -->
<g id="edge25" class="edge">
<title>Node20&#45;&gt;Node21</title>
<path fill="none" stroke="#191970" d="M1384.7012,-69.378C1384.7012,-60.7041 1384.7012,-47.9355 1384.7012,-37.1186"/>
<polygon fill="#191970" stroke="#191970" points="1388.2013,-36.8062 1384.7012,-26.8062 1381.2013,-36.8062 1388.2013,-36.8062"/>
</g>
</g>
</svg>
        <g id="navigator" transform="translate(0 0)" fill="#404254">
                <rect fill="#f2f5e9" fill-opacity="0.5" stroke="#606060" stroke-width=".5" x="0" y="0" width="60" height="60"/>
                <use id="zoomplus" xlink:href="#zoomPlus" x="17" y="9" onmousedown="handleZoom(evt,'in')"/>
                <use id="zoomminus" xlink:href="#zoomMin" x="42" y="9" onmousedown="handleZoom(evt,'out')"/>
                <use id="reset" xlink:href="#resetDef" x="30" y="36" onmousedown="handleReset()"/>
                <g id="arrowUp" xlink:href="#dirArrow" transform="translate(30 24)" onmousedown="handlePan(0,-1)">
                  <use xlink:href="#rim" fill="#404040">
                        <set attributeName="fill" to="#808080" begin="arrowUp.mouseover" end="arrowUp.mouseout"/>
                  </use>
                  <path fill="none" stroke="white" stroke-width="1.5" d="M0,-3.0v7 M-2.5,-0.5L0,-3.0L2.5,-0.5"/>
                </g>
                <g id="arrowRight" xlink:href="#dirArrow" transform="rotate(90) translate(36 -43)" onmousedown="handlePan(1,0)">
                  <use xlink:href="#rim" fill="#404040">
                        <set attributeName="fill" to="#808080" begin="arrowRight.mouseover" end="arrowRight.mouseout"/>
                  </use>
                  <path fill="none" stroke="white" stroke-width="1.5" d="M0,-3.0v7 M-2.5,-0.5L0,-3.0L2.5,-0.5"/>
                </g>
                <g id="arrowDown" xlink:href="#dirArrow" transform="rotate(180) translate(-30 -48)" onmousedown="handlePan(0,1)">
                  <use xlink:href="#rim" fill="#404040">
                        <set attributeName="fill" to="#808080" begin="arrowDown.mouseover" end="arrowDown.mouseout"/>
                  </use>
                  <path fill="none" stroke="white" stroke-width="1.5" d="M0,-3.0v7 M-2.5,-0.5L0,-3.0L2.5,-0.5"/>
                </g>
                <g id="arrowLeft" xlink:href="#dirArrow" transform="rotate(270) translate(-36 17)" onmousedown="handlePan(-1,0)">
                  <use xlink:href="#rim" fill="#404040">
                        <set attributeName="fill" to="#808080" begin="arrowLeft.mouseover" end="arrowLeft.mouseout"/>
                  </use>
                  <path fill="none" stroke="white" stroke-width="1.5" d="M0,-3.0v7 M-2.5,-0.5L0,-3.0L2.5,-0.5"/>
                </g>
        </g>
        <svg viewBox="0 0 15 15" width="100%" height="30px" preserveAspectRatio="xMaxYMin meet">
         <g id="arrow_out" transform="scale(0.3 0.3)">
          <a xlink:href="SynchronizedCondition_8h__incl_org.svg" target="_base">
           <rect id="button" ry="5" rx="5" y="6" x="6" height="38" width="38"
                fill="#f2f5e9" fill-opacity="0.5" stroke="#606060" stroke-width="1.0"/>
           <path id="arrow"
             d="M 11.500037,31.436501 C 11.940474,20.09759 22.043105,11.32322 32.158766,21.979434 L 37.068811,17.246167 C 37.068811,17.246167 37.088388,32 37.088388,32 L 22.160133,31.978069 C 22.160133,31.978069 26.997745,27.140456 26.997745,27.140456 C 18.528582,18.264221 13.291696,25.230495 11.500037,31.436501 z"
             style="fill:#404040;"/>
          </a>
         </g>
        </svg>
</svg>
