<?xml version="1.0" encoding="UTF-8" standalone="no"?>
<!DOCTYPE svg PUBLIC "-//W3C//DTD SVG 1.1//EN"
 "http://www.w3.org/Graphics/SVG/1.1/DTD/svg11.dtd">
<!-- Generated by graphviz version 2.40.1 (20161225.0304)
 -->
<!-- Title: /home/kpenev/projects/git/poet/poet_src/unit_tests/testEvolve/TidalPotential.h Pages: 1 -->
<svg width="529pt" height="250pt"
 viewBox="0.00 0.00 529.00 250.00" xmlns="http://www.w3.org/2000/svg" xmlns:xlink="http://www.w3.org/1999/xlink">
<g id="graph0" class="graph" transform="scale(1 1) rotate(0) translate(4 246)">
<title>/home/kpenev/projects/git/poet/poet_src/unit_tests/testEvolve/TidalPotential.h</title>
<polygon fill="#ffffff" stroke="transparent" points="-4,4 -4,-246 525,-246 525,4 -4,4"/>
<!-- Node26 -->
<g id="node1" class="node">
<title>Node26</title>
<polygon fill="#bfbfbf" stroke="#000000" points="211,-194.5 211,-241.5 405,-241.5 405,-194.5 211,-194.5"/>
<text text-anchor="start" x="219" y="-227.9" font-family="Helvetica,sans-Serif" font-size="12.00" fill="#000000">/home/kpenev/projects</text>
<text text-anchor="start" x="219" y="-214.9" font-family="Helvetica,sans-Serif" font-size="12.00" fill="#000000">/git/poet/poet_src/unit</text>
<text text-anchor="middle" x="308" y="-201.9" font-family="Helvetica,sans-Serif" font-size="12.00" fill="#000000">_tests/testEvolve/TidalPotential.h</text>
</g>
<!-- Node27 -->
<g id="node2" class="node">
<title>Node27</title>
<g id="a_node2"><a xlink:href="testGravitationalPotential_8h.html" target="_top" xlink:title="Unit tests that check the expansion of the gravitational potential vs. analytic expressions. ">
<polygon fill="#ffffff" stroke="#000000" points="101,-97.5 101,-157.5 297,-157.5 297,-97.5 101,-97.5"/>
<text text-anchor="start" x="109" y="-143.9" font-family="Helvetica,sans-Serif" font-size="12.00" fill="#000000">/home/kpenev/projects</text>
<text text-anchor="start" x="109" y="-130.9" font-family="Helvetica,sans-Serif" font-size="12.00" fill="#000000">/git/poet/poet_src/unit</text>
<text text-anchor="start" x="109" y="-117.9" font-family="Helvetica,sans-Serif" font-size="12.00" fill="#000000">_tests/testEvolve/testGravitational</text>
<text text-anchor="middle" x="199" y="-104.9" font-family="Helvetica,sans-Serif" font-size="12.00" fill="#000000">Potential.h</text>
</a>
</g>
</g>
<!-- Node26&#45;&gt;Node27 -->
<g id="edge1" class="edge">
<title>Node26&#45;&gt;Node27</title>
<path fill="none" stroke="#191970" d="M271.7882,-187.9342C260.1002,-178.23 247.1429,-167.4719 235.4387,-157.7541"/>
<polygon fill="#191970" stroke="#191970" points="269.7165,-190.7633 279.6461,-194.4584 274.1881,-185.3776 269.7165,-190.7633"/>
</g>
<!-- Node30 -->
<g id="node5" class="node">
<title>Node30</title>
<g id="a_node5"><a xlink:href="TidalPotential_8cpp_source.html" target="_top" xlink:title="/home/kpenev/projects\l/git/poet/poet_src/unit\l_tests/testEvolve/TidalPotential.cpp">
<polygon fill="#ffffff" stroke="#000000" points="315,-104 315,-151 521,-151 521,-104 315,-104"/>
<text text-anchor="start" x="323" y="-137.4" font-family="Helvetica,sans-Serif" font-size="12.00" fill="#000000">/home/kpenev/projects</text>
<text text-anchor="start" x="323" y="-124.4" font-family="Helvetica,sans-Serif" font-size="12.00" fill="#000000">/git/poet/poet_src/unit</text>
<text text-anchor="middle" x="418" y="-111.4" font-family="Helvetica,sans-Serif" font-size="12.00" fill="#000000">_tests/testEvolve/TidalPotential.cpp</text>
</a>
</g>
</g>
<!-- Node26&#45;&gt;Node30 -->
<g id="edge4" class="edge">
<title>Node26&#45;&gt;Node30</title>
<path fill="none" stroke="#191970" d="M344.455,-188.0075C358.9854,-176.0529 375.4716,-162.4893 389.1471,-151.2381"/>
<polygon fill="#191970" stroke="#191970" points="342.1127,-185.4022 336.6141,-194.4584 346.5601,-190.8079 342.1127,-185.4022"/>
</g>
<!-- Node28 -->
<g id="node3" class="node">
<title>Node28</title>
<g id="a_node3"><a xlink:href="testEvolve_8cpp_source.html" target="_top" xlink:title="/home/kpenev/projects\l/git/poet/poet_src/unit\l_tests/testEvolve/testEvolve.cpp">
<polygon fill="#ffffff" stroke="#000000" points="0,-7 0,-54 188,-54 188,-7 0,-7"/>
<text text-anchor="start" x="8" y="-40.4" font-family="Helvetica,sans-Serif" font-size="12.00" fill="#000000">/home/kpenev/projects</text>
<text text-anchor="start" x="8" y="-27.4" font-family="Helvetica,sans-Serif" font-size="12.00" fill="#000000">/git/poet/poet_src/unit</text>
<text text-anchor="middle" x="94" y="-14.4" font-family="Helvetica,sans-Serif" font-size="12.00" fill="#000000">_tests/testEvolve/testEvolve.cpp</text>
</a>
</g>
</g>
<!-- Node27&#45;&gt;Node28 -->
<g id="edge2" class="edge">
<title>Node27&#45;&gt;Node28</title>
<path fill="none" stroke="#191970" d="M158.7661,-90.3315C145.6216,-78.1885 131.3905,-65.0417 119.625,-54.1726"/>
<polygon fill="#191970" stroke="#191970" points="156.6325,-93.1255 166.3529,-97.3403 161.3825,-87.9837 156.6325,-93.1255"/>
</g>
<!-- Node29 -->
<g id="node4" class="node">
<title>Node29</title>
<g id="a_node4"><a xlink:href="testGravitationalPotential_8cpp.html" target="_top" xlink:title="Implement the non&#45;inline methods of test_GravitationalPotential. ">
<polygon fill="#ffffff" stroke="#000000" points="206,-.5 206,-60.5 402,-60.5 402,-.5 206,-.5"/>
<text text-anchor="start" x="214" y="-46.9" font-family="Helvetica,sans-Serif" font-size="12.00" fill="#000000">/home/kpenev/projects</text>
<text text-anchor="start" x="214" y="-33.9" font-family="Helvetica,sans-Serif" font-size="12.00" fill="#000000">/git/poet/poet_src/unit</text>
<text text-anchor="start" x="214" y="-20.9" font-family="Helvetica,sans-Serif" font-size="12.00" fill="#000000">_tests/testEvolve/testGravitational</text>
<text text-anchor="middle" x="304" y="-7.9" font-family="Helvetica,sans-Serif" font-size="12.00" fill="#000000">Potential.cpp</text>
</a>
</g>
</g>
<!-- Node27&#45;&gt;Node29 -->
<g id="edge3" class="edge">
<title>Node27&#45;&gt;Node29</title>
<path fill="none" stroke="#191970" d="M239.2339,-90.3315C249.8625,-80.5127 261.2016,-70.0376 271.3731,-60.641"/>
<polygon fill="#191970" stroke="#191970" points="236.6175,-87.9837 231.6471,-97.3403 241.3675,-93.1255 236.6175,-87.9837"/>
</g>
</g>
</svg>
