<?xml version="1.0" encoding="UTF-8" standalone="no"?>
<!DOCTYPE svg PUBLIC "-//W3C//DTD SVG 1.1//EN"
 "http://www.w3.org/Graphics/SVG/1.1/DTD/svg11.dtd">
<!-- Generated by graphviz version 2.40.1 (20161225.0304)
 -->
<!-- Title: /Users/kpenev/projects/git/poet/poet_src/unit_tests/testEvolve/TidalPotentialExpansion.cpp Pages: 1 -->
<svg width="2014pt" height="386pt"
 viewBox="0.00 0.00 2014.03 386.00" xmlns="http://www.w3.org/2000/svg" xmlns:xlink="http://www.w3.org/1999/xlink">
<g id="graph0" class="graph" transform="scale(1 1) rotate(0) translate(4 382)">
<title>/Users/kpenev/projects/git/poet/poet_src/unit_tests/testEvolve/TidalPotentialExpansion.cpp</title>
<polygon fill="#ffffff" stroke="transparent" points="-4,4 -4,-382 2010.0254,-382 2010.0254,4 -4,4"/>
<!-- Node0 -->
<g id="node1" class="node">
<title>Node0</title>
<polygon fill="#bfbfbf" stroke="#000000" points="1378.5303,-321.5 1378.5303,-377.5 1560.8428,-377.5 1560.8428,-321.5 1378.5303,-321.5"/>
<text text-anchor="start" x="1386.5303" y="-363.9" font-family="Helvetica,sans-Serif" font-size="12.00" fill="#000000">/Users/kpenev/projects</text>
<text text-anchor="start" x="1386.5303" y="-351.9" font-family="Helvetica,sans-Serif" font-size="12.00" fill="#000000">/git/poet/poet_src/unit</text>
<text text-anchor="start" x="1386.5303" y="-339.9" font-family="Helvetica,sans-Serif" font-size="12.00" fill="#000000">_tests/testEvolve/TidalPotential</text>
<text text-anchor="middle" x="1469.6865" y="-327.9" font-family="Helvetica,sans-Serif" font-size="12.00" fill="#000000">Expansion.cpp</text>
</g>
<!-- Node1 -->
<g id="node2" class="node">
<title>Node1</title>
<g id="a_node2"><a xlink:href="TidalPotentialExpansion_8h.html" target="_top" xlink:title="Declare an interface for evaluating the expansion of the tidal potential. ">
<polygon fill="#ffffff" stroke="#000000" points="1392.5283,-264.5 1392.5283,-284.5 1546.8447,-284.5 1546.8447,-264.5 1392.5283,-264.5"/>
<text text-anchor="middle" x="1469.6865" y="-270.9" font-family="Helvetica,sans-Serif" font-size="12.00" fill="#000000">TidalPotentialExpansion.h</text>
</a>
</g>
</g>
<!-- Node0&#45;&gt;Node1 -->
<g id="edge1" class="edge">
<title>Node0&#45;&gt;Node1</title>
<path fill="none" stroke="#191970" d="M1469.6865,-321.1457C1469.6865,-312.3619 1469.6865,-302.8652 1469.6865,-294.7476"/>
<polygon fill="#191970" stroke="#191970" points="1473.1866,-294.7295 1469.6865,-284.7296 1466.1866,-294.7296 1473.1866,-294.7295"/>
</g>
<!-- Node2 -->
<g id="node3" class="node">
<title>Node2</title>
<g id="a_node3"><a xlink:href="EccentricOrbit_8h.html" target="_top" xlink:title="Declare an interface for working with eccentric orbits. ">
<polygon fill="#ffffff" stroke="#000000" points="250.0068,-195.5 250.0068,-215.5 351.3662,-215.5 351.3662,-195.5 250.0068,-195.5"/>
<text text-anchor="middle" x="300.6865" y="-201.9" font-family="Helvetica,sans-Serif" font-size="12.00" fill="#000000">EccentricOrbit.h</text>
</a>
</g>
</g>
<!-- Node1&#45;&gt;Node2 -->
<g id="edge2" class="edge">
<title>Node1&#45;&gt;Node2</title>
<path fill="none" stroke="#191970" d="M1392.0798,-269.9193C1173.9032,-257.0414 558.2552,-220.7029 361.7665,-209.1052"/>
<polygon fill="#191970" stroke="#191970" points="361.8156,-205.6021 351.6267,-208.5067 361.4031,-212.59 361.8156,-205.6021"/>
</g>
<!-- Node15 -->
<g id="node16" class="node">
<title>Node15</title>
<polygon fill="#ffffff" stroke="#bfbfbf" points="1401.3477,-69.5 1401.3477,-89.5 1456.0254,-89.5 1456.0254,-69.5 1401.3477,-69.5"/>
<text text-anchor="middle" x="1428.6865" y="-75.9" font-family="Helvetica,sans-Serif" font-size="12.00" fill="#000000">cassert</text>
</g>
<!-- Node1&#45;&gt;Node15 -->
<g id="edge47" class="edge">
<title>Node1&#45;&gt;Node15</title>
<path fill="none" stroke="#191970" d="M1460.2326,-264.3338C1452.6363,-255.4744 1442.4726,-241.8987 1437.6865,-228 1422.6157,-184.2346 1424.2348,-128.9706 1426.5621,-99.7547"/>
<polygon fill="#191970" stroke="#191970" points="1430.0668,-99.8613 1427.4889,-89.5848 1423.0957,-99.2259 1430.0668,-99.8613"/>
</g>
<!-- Node26 -->
<g id="node27" class="node">
<title>Node26</title>
<g id="a_node27"><a xlink:href="TidalPotentialTerms_8h.html" target="_top" xlink:title="Declare an interface for evaluating the expansion of the tidal potential. ">
<polygon fill="#ffffff" stroke="#000000" points="1446.874,-189.5 1446.874,-221.5 1594.499,-221.5 1594.499,-189.5 1446.874,-189.5"/>
<text text-anchor="start" x="1454.874" y="-207.9" font-family="Helvetica,sans-Serif" font-size="12.00" fill="#000000">../../Evolve/TidalPotential</text>
<text text-anchor="middle" x="1520.6865" y="-195.9" font-family="Helvetica,sans-Serif" font-size="12.00" fill="#000000">Terms.h</text>
</a>
</g>
</g>
<!-- Node1&#45;&gt;Node26 -->
<g id="edge31" class="edge">
<title>Node1&#45;&gt;Node26</title>
<path fill="none" stroke="#191970" d="M1477.2117,-264.3188C1483.9006,-255.2691 1493.9468,-241.6773 1502.6973,-229.8383"/>
<polygon fill="#191970" stroke="#191970" points="1505.6442,-231.7397 1508.7736,-221.6175 1500.015,-227.5789 1505.6442,-231.7397"/>
</g>
<!-- Node32 -->
<g id="node33" class="node">
<title>Node32</title>
<polygon fill="#ffffff" stroke="#bfbfbf" points="1612.6563,-183.5 1612.6563,-227.5 1734.7168,-227.5 1734.7168,-183.5 1612.6563,-183.5"/>
<text text-anchor="start" x="1620.6563" y="-213.9" font-family="Helvetica,sans-Serif" font-size="12.00" fill="#000000">boost/math/special</text>
<text text-anchor="start" x="1620.6563" y="-201.9" font-family="Helvetica,sans-Serif" font-size="12.00" fill="#000000">_functions/spherical</text>
<text text-anchor="middle" x="1673.6865" y="-189.9" font-family="Helvetica,sans-Serif" font-size="12.00" fill="#000000">_harmonic.hpp</text>
</g>
<!-- Node1&#45;&gt;Node32 -->
<g id="edge46" class="edge">
<title>Node1&#45;&gt;Node32</title>
<path fill="none" stroke="#191970" d="M1499.3499,-264.4668C1526.3193,-255.3448 1567.1894,-241.5211 1602.5803,-229.5506"/>
<polygon fill="#191970" stroke="#191970" points="1604.0496,-232.7485 1612.4009,-226.2289 1601.8067,-226.1176 1604.0496,-232.7485"/>
</g>
<!-- Node3 -->
<g id="node4" class="node">
<title>Node3</title>
<g id="a_node4"><a xlink:href="Core_2Common_8h.html" target="_top" xlink:title="Declaration of some general purpose utilities. ">
<polygon fill="#ffffff" stroke="#000000" points="960.6689,-126.5 960.6689,-146.5 1084.7041,-146.5 1084.7041,-126.5 960.6689,-126.5"/>
<text text-anchor="middle" x="1022.6865" y="-132.9" font-family="Helvetica,sans-Serif" font-size="12.00" fill="#000000">../../Core/Common.h</text>
</a>
</g>
</g>
<!-- Node2&#45;&gt;Node3 -->
<g id="edge3" class="edge">
<title>Node2&#45;&gt;Node3</title>
<path fill="none" stroke="#191970" d="M351.4562,-200.6481C477.3881,-188.613 804.4561,-157.3558 950.4634,-143.4022"/>
<polygon fill="#191970" stroke="#191970" points="951.0361,-146.8635 960.6577,-142.428 950.3701,-139.8953 951.0361,-146.8635"/>
</g>
<!-- Node8 -->
<g id="node9" class="node">
<title>Node8</title>
<polygon fill="#ffffff" stroke="#bfbfbf" points="521.6797,-6.5 521.6797,-26.5 583.6934,-26.5 583.6934,-6.5 521.6797,-6.5"/>
<text text-anchor="middle" x="552.6865" y="-12.9" font-family="Helvetica,sans-Serif" font-size="12.00" fill="#000000">iostream</text>
</g>
<!-- Node2&#45;&gt;Node8 -->
<g id="edge29" class="edge">
<title>Node2&#45;&gt;Node8</title>
<path fill="none" stroke="#191970" d="M279.4023,-195.4807C234.4134,-173.019 137.0828,-116.8517 178.6865,-69 189.5583,-56.4955 416.513,-30.9985 511.4754,-20.8288"/>
<polygon fill="#191970" stroke="#191970" points="512.0078,-24.292 521.5802,-19.7512 511.2655,-17.3315 512.0078,-24.292"/>
</g>
<!-- Node20 -->
<g id="node21" class="node">
<title>Node20</title>
<g id="a_node21"><a xlink:href="AstronomicalConstants_8h.html" target="_top" xlink:title="Defines various astronomical constants. ">
<polygon fill="#ffffff" stroke="#000000" points="187.9893,-69.5 187.9893,-89.5 337.3838,-89.5 337.3838,-69.5 187.9893,-69.5"/>
<text text-anchor="middle" x="262.6865" y="-75.9" font-family="Helvetica,sans-Serif" font-size="12.00" fill="#000000">AstronomicalConstants.h</text>
</a>
</g>
</g>
<!-- Node2&#45;&gt;Node20 -->
<g id="edge25" class="edge">
<title>Node2&#45;&gt;Node20</title>
<path fill="none" stroke="#191970" d="M297.1987,-195.183C293.2898,-183.5258 286.8269,-163.9646 281.6865,-147 276.8395,-131.0035 271.7265,-112.75 268.027,-99.2616"/>
<polygon fill="#191970" stroke="#191970" points="271.4004,-98.3284 265.3952,-89.5999 264.6465,-100.1682 271.4004,-98.3284"/>
</g>
<!-- Node22 -->
<g id="node23" class="node">
<title>Node22</title>
<polygon fill="#ffffff" stroke="#bfbfbf" points="286.3301,-6.5 286.3301,-26.5 371.043,-26.5 371.043,-6.5 286.3301,-6.5"/>
<text text-anchor="middle" x="328.6865" y="-12.9" font-family="Helvetica,sans-Serif" font-size="12.00" fill="#000000">Eigen/Dense</text>
</g>
<!-- Node2&#45;&gt;Node22 -->
<g id="edge26" class="edge">
<title>Node2&#45;&gt;Node22</title>
<path fill="none" stroke="#191970" d="M259.0796,-195.4818C217.8488,-184.6124 158.9773,-166.2221 145.6865,-147 125.9708,-118.4857 124.8254,-96.6874 145.6865,-69 161.4701,-48.0517 228.0203,-32.8991 276.3236,-24.4076"/>
<polygon fill="#191970" stroke="#191970" points="277.0621,-27.8322 286.3292,-22.697 275.8824,-20.9323 277.0621,-27.8322"/>
</g>
<!-- Node23 -->
<g id="node24" class="node">
<title>Node23</title>
<polygon fill="#ffffff" stroke="#bfbfbf" points="290.332,-126.5 290.332,-146.5 385.041,-146.5 385.041,-126.5 290.332,-126.5"/>
<text text-anchor="middle" x="337.6865" y="-132.9" font-family="Helvetica,sans-Serif" font-size="12.00" fill="#000000">gsl/gsl_errno.h</text>
</g>
<!-- Node2&#45;&gt;Node23 -->
<g id="edge27" class="edge">
<title>Node2&#45;&gt;Node23</title>
<path fill="none" stroke="#191970" d="M306.146,-195.3188C311.7205,-184.9231 320.5091,-168.5336 327.3948,-155.6927"/>
<polygon fill="#191970" stroke="#191970" points="330.5634,-157.1899 332.2046,-146.723 324.3943,-153.8818 330.5634,-157.1899"/>
</g>
<!-- Node24 -->
<g id="node25" class="node">
<title>Node24</title>
<polygon fill="#ffffff" stroke="#bfbfbf" points="0,-126.5 0,-146.5 93.373,-146.5 93.373,-126.5 0,-126.5"/>
<text text-anchor="middle" x="46.6865" y="-132.9" font-family="Helvetica,sans-Serif" font-size="12.00" fill="#000000">gsl/gsl_roots.h</text>
</g>
<!-- Node2&#45;&gt;Node24 -->
<g id="edge28" class="edge">
<title>Node2&#45;&gt;Node24</title>
<path fill="none" stroke="#191970" d="M263.7527,-195.4668C218.6999,-183.2281 142.4918,-162.5259 93.405,-149.1912"/>
<polygon fill="#191970" stroke="#191970" points="94.2327,-145.7893 83.6649,-146.5453 92.3976,-152.5445 94.2327,-145.7893"/>
</g>
<!-- Node25 -->
<g id="node26" class="node">
<title>Node25</title>
<polygon fill="#ffffff" stroke="#bfbfbf" points="1473.6748,-69.5 1473.6748,-89.5 1531.6982,-89.5 1531.6982,-69.5 1473.6748,-69.5"/>
<text text-anchor="middle" x="1502.6865" y="-75.9" font-family="Helvetica,sans-Serif" font-size="12.00" fill="#000000">iomanip</text>
</g>
<!-- Node2&#45;&gt;Node25 -->
<g id="edge30" class="edge">
<title>Node2&#45;&gt;Node25</title>
<path fill="none" stroke="#191970" d="M351.378,-203.149C477.2739,-197.0085 814.2095,-178.7279 1093.6865,-147 1256.2079,-128.5496 1299.8709,-125.0746 1463.3951,-90.11"/>
<polygon fill="#191970" stroke="#191970" points="1464.2687,-93.5023 1473.3121,-87.9826 1462.8004,-86.658 1464.2687,-93.5023"/>
</g>
<!-- Node4 -->
<g id="node5" class="node">
<title>Node4</title>
<polygon fill="#ffffff" stroke="#bfbfbf" points="1137.3535,-69.5 1137.3535,-89.5 1168.0195,-89.5 1168.0195,-69.5 1137.3535,-69.5"/>
<text text-anchor="middle" x="1152.6865" y="-75.9" font-family="Helvetica,sans-Serif" font-size="12.00" fill="#000000">list</text>
</g>
<!-- Node3&#45;&gt;Node4 -->
<g id="edge4" class="edge">
<title>Node3&#45;&gt;Node4</title>
<path fill="none" stroke="#191970" d="M1045.6287,-126.4408C1068.717,-116.3174 1104.2124,-100.754 1127.9269,-90.3562"/>
<polygon fill="#191970" stroke="#191970" points="1129.5456,-93.4681 1137.2984,-86.2471 1126.7346,-87.0573 1129.5456,-93.4681"/>
</g>
<!-- Node5 -->
<g id="node6" class="node">
<title>Node5</title>
<polygon fill="#ffffff" stroke="#bfbfbf" points="1247.3467,-69.5 1247.3467,-89.5 1306.0264,-89.5 1306.0264,-69.5 1247.3467,-69.5"/>
<text text-anchor="middle" x="1276.6865" y="-75.9" font-family="Helvetica,sans-Serif" font-size="12.00" fill="#000000">valarray</text>
</g>
<!-- Node3&#45;&gt;Node5 -->
<g id="edge5" class="edge">
<title>Node3&#45;&gt;Node5</title>
<path fill="none" stroke="#191970" d="M1073.5015,-126.4209C1115.1646,-117.9625 1175.8844,-105.1928 1237.3957,-90.2279"/>
<polygon fill="#191970" stroke="#191970" points="1238.3924,-93.5873 1247.2719,-87.8076 1236.7262,-86.7885 1238.3924,-93.5873"/>
</g>
<!-- Node6 -->
<g id="node7" class="node">
<title>Node6</title>
<polygon fill="#ffffff" stroke="#bfbfbf" points="1186.0225,-69.5 1186.0225,-89.5 1229.3506,-89.5 1229.3506,-69.5 1186.0225,-69.5"/>
<text text-anchor="middle" x="1207.6865" y="-75.9" font-family="Helvetica,sans-Serif" font-size="12.00" fill="#000000">limits</text>
</g>
<!-- Node3&#45;&gt;Node6 -->
<g id="edge6" class="edge">
<title>Node3&#45;&gt;Node6</title>
<path fill="none" stroke="#191970" d="M1057.0404,-126.4836C1086.301,-117.873 1129.6816,-104.922 1176.0734,-90.1302"/>
<polygon fill="#191970" stroke="#191970" points="1177.2445,-93.4303 1185.701,-87.0476 1175.1099,-86.7637 1177.2445,-93.4303"/>
</g>
<!-- Node7 -->
<g id="node8" class="node">
<title>Node7</title>
<polygon fill="#ffffff" stroke="#bfbfbf" points="1324.3496,-69.5 1324.3496,-89.5 1383.0234,-89.5 1383.0234,-69.5 1324.3496,-69.5"/>
<text text-anchor="middle" x="1353.6865" y="-75.9" font-family="Helvetica,sans-Serif" font-size="12.00" fill="#000000">sstream</text>
</g>
<!-- Node3&#45;&gt;Node7 -->
<g id="edge7" class="edge">
<title>Node3&#45;&gt;Node7</title>
<path fill="none" stroke="#191970" d="M1084.8414,-128.5314C1141.9931,-120.767 1229.2284,-107.8157 1314.1481,-89.9389"/>
<polygon fill="#191970" stroke="#191970" points="1314.9029,-93.3567 1323.9542,-87.85 1313.4445,-86.5103 1314.9029,-93.3567"/>
</g>
<!-- Node3&#45;&gt;Node8 -->
<g id="edge8" class="edge">
<title>Node3&#45;&gt;Node8</title>
<path fill="none" stroke="#191970" d="M960.517,-135.6001C828.2351,-133.0396 528.4038,-123.5582 497.6865,-90 480.6818,-71.4225 505.6272,-47.7741 527.2123,-32.3937"/>
<polygon fill="#191970" stroke="#191970" points="529.2263,-35.2567 535.5245,-26.737 525.2881,-29.4696 529.2263,-35.2567"/>
</g>
<!-- Node9 -->
<g id="node10" class="node">
<title>Node9</title>
<polygon fill="#ffffff" stroke="#bfbfbf" points="507.0127,-69.5 507.0127,-89.5 560.3604,-89.5 560.3604,-69.5 507.0127,-69.5"/>
<text text-anchor="middle" x="533.6865" y="-75.9" font-family="Helvetica,sans-Serif" font-size="12.00" fill="#000000">iterator</text>
</g>
<!-- Node3&#45;&gt;Node9 -->
<g id="edge9" class="edge">
<title>Node3&#45;&gt;Node9</title>
<path fill="none" stroke="#191970" d="M960.6156,-133.699C874.8264,-129.0395 715.1734,-117.53 570.6228,-89.8768"/>
<polygon fill="#191970" stroke="#191970" points="571.1679,-86.4173 560.6838,-87.9449 569.8322,-93.2887 571.1679,-86.4173"/>
</g>
<!-- Node10 -->
<g id="node11" class="node">
<title>Node10</title>
<polygon fill="#ffffff" stroke="#bfbfbf" points="578.3281,-69.5 578.3281,-89.5 677.0449,-89.5 677.0449,-69.5 578.3281,-69.5"/>
<text text-anchor="middle" x="627.6865" y="-75.9" font-family="Helvetica,sans-Serif" font-size="12.00" fill="#000000">gsl/gsl_vector.h</text>
</g>
<!-- Node3&#45;&gt;Node10 -->
<g id="edge10" class="edge">
<title>Node3&#45;&gt;Node10</title>
<path fill="none" stroke="#191970" d="M960.4588,-128.7088C894.9239,-120.3241 788.4738,-106.1976 687.4134,-90.231"/>
<polygon fill="#191970" stroke="#191970" points="687.7626,-86.7426 677.3372,-88.63 686.6641,-93.6559 687.7626,-86.7426"/>
</g>
<!-- Node11 -->
<g id="node12" class="node">
<title>Node11</title>
<polygon fill="#ffffff" stroke="#bfbfbf" points="695.0059,-69.5 695.0059,-89.5 794.3672,-89.5 794.3672,-69.5 695.0059,-69.5"/>
<text text-anchor="middle" x="744.6865" y="-75.9" font-family="Helvetica,sans-Serif" font-size="12.00" fill="#000000">gsl/gsl_matrix.h</text>
</g>
<!-- Node3&#45;&gt;Node11 -->
<g id="edge11" class="edge">
<title>Node3&#45;&gt;Node11</title>
<path fill="none" stroke="#191970" d="M973.6256,-126.4408C926.1323,-116.7029 854.0894,-101.9315 803.5345,-91.566"/>
<polygon fill="#191970" stroke="#191970" points="804.223,-88.1344 793.7237,-89.5544 802.8169,-94.9917 804.223,-88.1344"/>
</g>
<!-- Node12 -->
<g id="node13" class="node">
<title>Node12</title>
<polygon fill="#ffffff" stroke="#bfbfbf" points="812.3291,-69.5 812.3291,-89.5 907.0439,-89.5 907.0439,-69.5 812.3291,-69.5"/>
<text text-anchor="middle" x="859.6865" y="-75.9" font-family="Helvetica,sans-Serif" font-size="12.00" fill="#000000">gsl/gsl_linalg.h</text>
</g>
<!-- Node3&#45;&gt;Node12 -->
<g id="edge12" class="edge">
<title>Node3&#45;&gt;Node12</title>
<path fill="none" stroke="#191970" d="M993.9206,-126.4408C967.2341,-117.1087 927.3279,-103.1537 897.9598,-92.8839"/>
<polygon fill="#191970" stroke="#191970" points="899.0334,-89.5516 888.4385,-89.5544 896.7227,-96.1592 899.0334,-89.5516"/>
</g>
<!-- Node13 -->
<g id="node14" class="node">
<title>Node13</title>
<polygon fill="#ffffff" stroke="#bfbfbf" points="925.332,-69.5 925.332,-89.5 1014.041,-89.5 1014.041,-69.5 925.332,-69.5"/>
<text text-anchor="middle" x="969.6865" y="-75.9" font-family="Helvetica,sans-Serif" font-size="12.00" fill="#000000">gsl/gsl_blas.h</text>
</g>
<!-- Node3&#45;&gt;Node13 -->
<g id="edge13" class="edge">
<title>Node3&#45;&gt;Node13</title>
<path fill="none" stroke="#191970" d="M1013.2112,-126.3095C1005.6744,-118.204 994.9517,-106.672 986.0352,-97.0826"/>
<polygon fill="#191970" stroke="#191970" points="988.4525,-94.5423 979.0798,-89.6022 983.3261,-99.3089 988.4525,-94.5423"/>
</g>
<!-- Node14 -->
<g id="node15" class="node">
<title>Node14</title>
<polygon fill="#ffffff" stroke="#bfbfbf" points="1031.7744,-69.5 1031.7744,-89.5 1119.5986,-89.5 1119.5986,-69.5 1031.7744,-69.5"/>
<text text-anchor="middle" x="1075.6865" y="-75.9" font-family="Helvetica,sans-Serif" font-size="12.00" fill="#000000">gsl/gsl_poly.h</text>
</g>
<!-- Node3&#45;&gt;Node14 -->
<g id="edge14" class="edge">
<title>Node3&#45;&gt;Node14</title>
<path fill="none" stroke="#191970" d="M1032.1619,-126.3095C1039.6986,-118.204 1050.4214,-106.672 1059.3378,-97.0826"/>
<polygon fill="#191970" stroke="#191970" points="1062.0469,-99.3089 1066.2932,-89.6022 1056.9206,-94.5423 1062.0469,-99.3089"/>
</g>
<!-- Node3&#45;&gt;Node15 -->
<g id="edge15" class="edge">
<title>Node3&#45;&gt;Node15</title>
<path fill="none" stroke="#191970" d="M1084.8511,-131.5559C1156.4841,-125.2135 1277.8042,-112.4938 1391.4088,-89.7761"/>
<polygon fill="#191970" stroke="#191970" points="1392.217,-93.1835 1401.3209,-87.7641 1390.8245,-86.3234 1392.217,-93.1835"/>
</g>
<!-- Node16 -->
<g id="node17" class="node">
<title>Node16</title>
<g id="a_node17"><a xlink:href="SharedLibraryExportMacros_8h_source.html" target="_top" xlink:title="../Core/SharedLibraryExport\lMacros.h">
<polygon fill="#ffffff" stroke="#000000" points="1622.9854,-.5 1622.9854,-32.5 1788.3877,-32.5 1788.3877,-.5 1622.9854,-.5"/>
<text text-anchor="start" x="1630.9854" y="-18.9" font-family="Helvetica,sans-Serif" font-size="12.00" fill="#000000">../Core/SharedLibraryExport</text>
<text text-anchor="middle" x="1705.6865" y="-6.9" font-family="Helvetica,sans-Serif" font-size="12.00" fill="#000000">Macros.h</text>
</a>
</g>
</g>
<!-- Node3&#45;&gt;Node16 -->
<g id="edge16" class="edge">
<title>Node3&#45;&gt;Node16</title>
<path fill="none" stroke="#191970" d="M1084.7077,-134.7438C1233.0804,-130.1389 1599.8363,-116.223 1648.6865,-90 1668.6141,-79.3028 1683.7985,-58.3094 1693.4648,-41.4885"/>
<polygon fill="#191970" stroke="#191970" points="1696.5605,-43.1219 1698.2623,-32.6646 1690.4107,-39.7782 1696.5605,-43.1219"/>
</g>
<!-- Node17 -->
<g id="node18" class="node">
<title>Node17</title>
<g id="a_node18"><a xlink:href="Error_8h.html" target="_top" xlink:title="Defines the exception hierarchy used by this code. ">
<polygon fill="#ffffff" stroke="#000000" points="1587.6777,-69.5 1587.6777,-89.5 1639.6953,-89.5 1639.6953,-69.5 1587.6777,-69.5"/>
<text text-anchor="middle" x="1613.6865" y="-75.9" font-family="Helvetica,sans-Serif" font-size="12.00" fill="#000000">Error.h</text>
</a>
</g>
</g>
<!-- Node3&#45;&gt;Node17 -->
<g id="edge17" class="edge">
<title>Node3&#45;&gt;Node17</title>
<path fill="none" stroke="#191970" d="M1084.9907,-131.986C1182.3877,-124.6864 1376.566,-109.1558 1540.6865,-90 1552.6869,-88.5993 1565.7585,-86.8047 1577.4814,-85.0968"/>
<polygon fill="#191970" stroke="#191970" points="1577.9965,-88.5588 1587.3752,-83.6303 1576.9701,-81.6344 1577.9965,-88.5588"/>
</g>
<!-- Node3&#45;&gt;Node20 -->
<g id="edge22" class="edge">
<title>Node3&#45;&gt;Node20</title>
<path fill="none" stroke="#191970" d="M960.5173,-133.4231C842.8507,-127.3389 579.2976,-112.4683 347.7244,-90.1595"/>
<polygon fill="#191970" stroke="#191970" points="348.0573,-86.6755 337.7661,-89.1936 347.3815,-93.6428 348.0573,-86.6755"/>
</g>
<!-- Node21 -->
<g id="node22" class="node">
<title>Node21</title>
<g id="a_node22"><a xlink:href="IncludeEigen_8h_source.html" target="_top" xlink:title="IncludeEigen.h">
<polygon fill="#ffffff" stroke="#000000" points="354.9893,-69.5 354.9893,-89.5 450.3838,-89.5 450.3838,-69.5 354.9893,-69.5"/>
<text text-anchor="middle" x="402.6865" y="-75.9" font-family="Helvetica,sans-Serif" font-size="12.00" fill="#000000">IncludeEigen.h</text>
</a>
</g>
</g>
<!-- Node3&#45;&gt;Node21 -->
<g id="edge23" class="edge">
<title>Node3&#45;&gt;Node21</title>
<path fill="none" stroke="#191970" d="M960.5789,-133.0458C857.3554,-126.9194 644.0776,-112.6238 464.6865,-90 463.4071,-89.8386 462.1137,-89.6698 460.8104,-89.4946"/>
<polygon fill="#191970" stroke="#191970" points="461.0867,-85.9984 450.6909,-88.0421 460.0922,-92.9274 461.0867,-85.9984"/>
</g>
<!-- Node17&#45;&gt;Node8 -->
<g id="edge19" class="edge">
<title>Node17&#45;&gt;Node8</title>
<path fill="none" stroke="#191970" d="M1587.5988,-71.8304C1582.9974,-70.7138 1578.2271,-69.705 1573.6865,-69 1379.969,-38.9211 760.3496,-21.6614 594.0796,-17.4938"/>
<polygon fill="#191970" stroke="#191970" points="593.8766,-13.9878 583.7927,-17.2383 593.7026,-20.9857 593.8766,-13.9878"/>
</g>
<!-- Node17&#45;&gt;Node16 -->
<g id="edge18" class="edge">
<title>Node17&#45;&gt;Node16</title>
<path fill="none" stroke="#191970" d="M1628.4679,-69.378C1640.6393,-61.0432 1658.3318,-48.9277 1673.7115,-38.3959"/>
<polygon fill="#191970" stroke="#191970" points="1675.6947,-41.2799 1681.9681,-32.742 1671.7397,-35.5043 1675.6947,-41.2799"/>
</g>
<!-- Node18 -->
<g id="node19" class="node">
<title>Node18</title>
<polygon fill="#ffffff" stroke="#bfbfbf" points="1538.002,-6.5 1538.002,-26.5 1605.3711,-26.5 1605.3711,-6.5 1538.002,-6.5"/>
<text text-anchor="middle" x="1571.6865" y="-12.9" font-family="Helvetica,sans-Serif" font-size="12.00" fill="#000000">exception</text>
</g>
<!-- Node17&#45;&gt;Node18 -->
<g id="edge20" class="edge">
<title>Node17&#45;&gt;Node18</title>
<path fill="none" stroke="#191970" d="M1606.9385,-69.378C1600.8516,-60.2476 1591.7399,-46.5801 1584.305,-35.4278"/>
<polygon fill="#191970" stroke="#191970" points="1587.0166,-33.1853 1578.5573,-26.8062 1581.1922,-37.0682 1587.0166,-33.1853"/>
</g>
<!-- Node19 -->
<g id="node20" class="node">
<title>Node19</title>
<polygon fill="#ffffff" stroke="#bfbfbf" points="1475.0146,-6.5 1475.0146,-26.5 1520.3584,-26.5 1520.3584,-6.5 1475.0146,-6.5"/>
<text text-anchor="middle" x="1497.6865" y="-12.9" font-family="Helvetica,sans-Serif" font-size="12.00" fill="#000000">string</text>
</g>
<!-- Node17&#45;&gt;Node19 -->
<g id="edge21" class="edge">
<title>Node17&#45;&gt;Node19</title>
<path fill="none" stroke="#191970" d="M1595.0491,-69.378C1576.1927,-59.137 1546.8263,-43.188 1525.2734,-31.4825"/>
<polygon fill="#191970" stroke="#191970" points="1526.7357,-28.2939 1516.2777,-26.5969 1523.3949,-34.4452 1526.7357,-28.2939"/>
</g>
<!-- Node21&#45;&gt;Node22 -->
<g id="edge24" class="edge">
<title>Node21&#45;&gt;Node22</title>
<path fill="none" stroke="#191970" d="M390.7971,-69.378C379.4291,-59.6997 362.073,-44.9236 348.5949,-33.449"/>
<polygon fill="#191970" stroke="#191970" points="350.6754,-30.6237 340.7922,-26.8062 346.1377,-35.9537 350.6754,-30.6237"/>
</g>
<!-- Node26&#45;&gt;Node3 -->
<g id="edge45" class="edge">
<title>Node26&#45;&gt;Node3</title>
<path fill="none" stroke="#191970" d="M1446.6686,-195.2445C1351.9016,-182.1141 1188.7578,-159.5099 1094.8788,-146.5025"/>
<polygon fill="#191970" stroke="#191970" points="1095.285,-143.0255 1084.8992,-145.1198 1094.3242,-149.9592 1095.285,-143.0255"/>
</g>
<!-- Node26&#45;&gt;Node5 -->
<g id="edge33" class="edge">
<title>Node26&#45;&gt;Node5</title>
<path fill="none" stroke="#191970" d="M1489.2873,-189.2857C1441.5819,-164.6509 1351.535,-118.1513 1305.4477,-94.3521"/>
<polygon fill="#191970" stroke="#191970" points="1306.8026,-91.1127 1296.3114,-89.6342 1303.5908,-97.3324 1306.8026,-91.1127"/>
</g>
<!-- Node27 -->
<g id="node28" class="node">
<title>Node27</title>
<polygon fill="#ffffff" stroke="#bfbfbf" points="1957.3477,-69.5 1957.3477,-89.5 2006.0254,-89.5 2006.0254,-69.5 1957.3477,-69.5"/>
<text text-anchor="middle" x="1981.6865" y="-75.9" font-family="Helvetica,sans-Serif" font-size="12.00" fill="#000000">cmath</text>
</g>
<!-- Node26&#45;&gt;Node27 -->
<g id="edge32" class="edge">
<title>Node26&#45;&gt;Node27</title>
<path fill="none" stroke="#191970" d="M1580.0775,-189.3891C1588.0146,-187.2392 1596.0479,-185.0649 1603.6865,-183 1753.8466,-142.408 1794.6553,-135.0469 1947.4679,-90.282"/>
<polygon fill="#191970" stroke="#191970" points="1948.6064,-93.5955 1957.2156,-87.4204 1946.6346,-86.8789 1948.6064,-93.5955"/>
</g>
<!-- Node28 -->
<g id="node29" class="node">
<title>Node28</title>
<g id="a_node29"><a xlink:href="EccentricityExpansionCoefficients_8h.html" target="_top" xlink:title="Declares a class which provides the [ &#160;coefficients]{InclinationEccentricity_pms1}. ">
<polygon fill="#ffffff" stroke="#000000" points="1510.6416,-126.5 1510.6416,-146.5 1716.7314,-146.5 1716.7314,-126.5 1510.6416,-126.5"/>
<text text-anchor="middle" x="1613.6865" y="-132.9" font-family="Helvetica,sans-Serif" font-size="12.00" fill="#000000">EccentricityExpansionCoefficients.h</text>
</a>
</g>
</g>
<!-- Node26&#45;&gt;Node28 -->
<g id="edge34" class="edge">
<title>Node26&#45;&gt;Node28</title>
<path fill="none" stroke="#191970" d="M1542.2563,-189.4966C1557.1483,-178.4477 1576.8835,-163.8055 1591.8358,-152.7118"/>
<polygon fill="#191970" stroke="#191970" points="1594.0685,-155.4135 1600.014,-146.6441 1589.8975,-149.7918 1594.0685,-155.4135"/>
</g>
<!-- Node28&#45;&gt;Node7 -->
<g id="edge42" class="edge">
<title>Node28&#45;&gt;Node7</title>
<path fill="none" stroke="#191970" d="M1561.7061,-126.4119C1518.9974,-117.9306 1456.7078,-105.1226 1392.8703,-89.9436"/>
<polygon fill="#191970" stroke="#191970" points="1393.5694,-86.5121 1383.0292,-87.5874 1391.9395,-93.3197 1393.5694,-86.5121"/>
</g>
<!-- Node28&#45;&gt;Node8 -->
<g id="edge41" class="edge">
<title>Node28&#45;&gt;Node8</title>
<path fill="none" stroke="#191970" d="M1606.5543,-126.4181C1594.8557,-110.8224 1569.944,-81.3588 1540.6865,-69 1452.5907,-31.7869 770.0816,-19.5886 594.0161,-17.0449"/>
<polygon fill="#191970" stroke="#191970" points="593.9179,-13.5432 583.8693,-16.9009 593.8186,-20.5425 593.9179,-13.5432"/>
</g>
<!-- Node28&#45;&gt;Node15 -->
<g id="edge43" class="edge">
<title>Node28&#45;&gt;Node15</title>
<path fill="none" stroke="#191970" d="M1581.0381,-126.4408C1548.8882,-116.5351 1499.8336,-101.421 1466.1218,-91.0341"/>
<polygon fill="#191970" stroke="#191970" points="1466.7751,-87.5731 1456.1878,-87.9734 1464.7139,-94.2628 1466.7751,-87.5731"/>
</g>
<!-- Node28&#45;&gt;Node16 -->
<g id="edge35" class="edge">
<title>Node28&#45;&gt;Node16</title>
<path fill="none" stroke="#191970" d="M1635.5212,-126.378C1650.4651,-118.4253 1669.676,-106.0203 1681.6865,-90 1692.0535,-76.1719 1698.0633,-57.6619 1701.4764,-42.6771"/>
<polygon fill="#191970" stroke="#191970" points="1704.9815,-43.0008 1703.5279,-32.5062 1698.1197,-41.6167 1704.9815,-43.0008"/>
</g>
<!-- Node28&#45;&gt;Node17 -->
<g id="edge36" class="edge">
<title>Node28&#45;&gt;Node17</title>
<path fill="none" stroke="#191970" d="M1613.6865,-126.3095C1613.6865,-118.9335 1613.6865,-108.72 1613.6865,-99.715"/>
<polygon fill="#191970" stroke="#191970" points="1617.1866,-99.6022 1613.6865,-89.6022 1610.1866,-99.6023 1617.1866,-99.6022"/>
</g>
<!-- Node28&#45;&gt;Node25 -->
<g id="edge39" class="edge">
<title>Node28&#45;&gt;Node25</title>
<path fill="none" stroke="#191970" d="M1594.0975,-126.4408C1576.768,-117.5419 1551.2527,-104.4394 1531.5799,-94.3371"/>
<polygon fill="#191970" stroke="#191970" points="1532.9476,-91.105 1522.4531,-89.6504 1529.75,-97.332 1532.9476,-91.105"/>
</g>
<!-- Node28&#45;&gt;Node27 -->
<g id="edge40" class="edge">
<title>Node28&#45;&gt;Node27</title>
<path fill="none" stroke="#191970" d="M1716.7641,-126.7802C1780.8963,-119.6515 1865.11,-108.3351 1947.5261,-89.9806"/>
<polygon fill="#191970" stroke="#191970" points="1948.3251,-93.3883 1957.3058,-87.7671 1946.7798,-86.561 1948.3251,-93.3883"/>
</g>
<!-- Node29 -->
<g id="node30" class="node">
<title>Node29</title>
<polygon fill="#ffffff" stroke="#bfbfbf" points="1733.3477,-69.5 1733.3477,-89.5 1782.0254,-89.5 1782.0254,-69.5 1733.3477,-69.5"/>
<text text-anchor="middle" x="1757.6865" y="-75.9" font-family="Helvetica,sans-Serif" font-size="12.00" fill="#000000">vector</text>
</g>
<!-- Node28&#45;&gt;Node29 -->
<g id="edge37" class="edge">
<title>Node28&#45;&gt;Node29</title>
<path fill="none" stroke="#191970" d="M1639.0994,-126.4408C1662.5825,-117.1454 1697.6526,-103.2634 1723.568,-93.0053"/>
<polygon fill="#191970" stroke="#191970" points="1724.9989,-96.2031 1733.0088,-89.2683 1722.4225,-89.6945 1724.9989,-96.2031"/>
</g>
<!-- Node30 -->
<g id="node31" class="node">
<title>Node30</title>
<polygon fill="#ffffff" stroke="#bfbfbf" points="1799.6826,-69.5 1799.6826,-89.5 1855.6904,-89.5 1855.6904,-69.5 1799.6826,-69.5"/>
<text text-anchor="middle" x="1827.6865" y="-75.9" font-family="Helvetica,sans-Serif" font-size="12.00" fill="#000000">fstream</text>
</g>
<!-- Node28&#45;&gt;Node30 -->
<g id="edge38" class="edge">
<title>Node28&#45;&gt;Node30</title>
<path fill="none" stroke="#191970" d="M1652.7646,-126.4684C1686.5652,-117.7391 1736.9928,-104.5913 1789.5799,-90.2699"/>
<polygon fill="#191970" stroke="#191970" points="1790.6958,-93.5935 1799.4207,-87.583 1788.8519,-86.8407 1790.6958,-93.5935"/>
</g>
<!-- Node31 -->
<g id="node32" class="node">
<title>Node31</title>
<polygon fill="#ffffff" stroke="#bfbfbf" points="1874.0098,-69.5 1874.0098,-89.5 1939.3633,-89.5 1939.3633,-69.5 1874.0098,-69.5"/>
<text text-anchor="middle" x="1906.6865" y="-75.9" font-family="Helvetica,sans-Serif" font-size="12.00" fill="#000000">algorithm</text>
</g>
<!-- Node28&#45;&gt;Node31 -->
<g id="edge44" class="edge">
<title>Node28&#45;&gt;Node31</title>
<path fill="none" stroke="#191970" d="M1673.4836,-126.4931C1722.1777,-118.0999 1792.9159,-105.355 1863.7267,-90.1139"/>
<polygon fill="#191970" stroke="#191970" points="1864.6859,-93.4873 1873.7166,-87.9469 1863.2019,-86.6464 1864.6859,-93.4873"/>
</g>
</g>
</svg>
