<?xml version="1.0" encoding="UTF-8" standalone="no"?>
<!DOCTYPE svg PUBLIC "-//W3C//DTD SVG 1.1//EN"
 "http://www.w3.org/Graphics/SVG/1.1/DTD/svg11.dtd">
<!-- Generated by graphviz version 2.40.1 (20161225.0304)
 -->
<!-- Title: /Users/kpenev/projects/git/poet/poet_src/Evolve/TidalPotentialTerms.cpp Pages: 1 -->
<svg width="1867pt" height="293pt"
 viewBox="0.00 0.00 1866.69 293.00" xmlns="http://www.w3.org/2000/svg" xmlns:xlink="http://www.w3.org/1999/xlink">
<g id="graph0" class="graph" transform="scale(1 1) rotate(0) translate(4 289)">
<title>/Users/kpenev/projects/git/poet/poet_src/Evolve/TidalPotentialTerms.cpp</title>
<polygon fill="#ffffff" stroke="transparent" points="-4,4 -4,-289 1862.6934,-289 1862.6934,4 -4,4"/>
<!-- Node0 -->
<g id="node1" class="node">
<title>Node0</title>
<polygon fill="#bfbfbf" stroke="#000000" points="480.6348,-240.5 480.6348,-284.5 628.043,-284.5 628.043,-240.5 480.6348,-240.5"/>
<text text-anchor="start" x="488.6348" y="-270.9" font-family="Helvetica,sans-Serif" font-size="12.00" fill="#000000">/Users/kpenev/projects</text>
<text text-anchor="start" x="488.6348" y="-258.9" font-family="Helvetica,sans-Serif" font-size="12.00" fill="#000000">/git/poet/poet_src/Evolve</text>
<text text-anchor="middle" x="554.3389" y="-246.9" font-family="Helvetica,sans-Serif" font-size="12.00" fill="#000000">/TidalPotentialTerms.cpp</text>
</g>
<!-- Node1 -->
<g id="node2" class="node">
<title>Node1</title>
<g id="a_node2"><a xlink:href="TidalPotentialTerms_8h.html" target="_top" xlink:title="Declare an interface for evaluating the expansion of the tidal potential. ">
<polygon fill="#ffffff" stroke="#000000" points="488.8672,-183.5 488.8672,-203.5 619.8105,-203.5 619.8105,-183.5 488.8672,-183.5"/>
<text text-anchor="middle" x="554.3389" y="-189.9" font-family="Helvetica,sans-Serif" font-size="12.00" fill="#000000">TidalPotentialTerms.h</text>
</a>
</g>
</g>
<!-- Node0&#45;&gt;Node1 -->
<g id="edge1" class="edge">
<title>Node0&#45;&gt;Node1</title>
<path fill="none" stroke="#191970" d="M554.3389,-240.2882C554.3389,-231.8377 554.3389,-222.2557 554.3389,-213.9736"/>
<polygon fill="#191970" stroke="#191970" points="557.839,-213.7136 554.3389,-203.7137 550.839,-213.7137 557.839,-213.7136"/>
</g>
<!-- Node2 -->
<g id="node3" class="node">
<title>Node2</title>
<polygon fill="#ffffff" stroke="#bfbfbf" points="0,-69.5 0,-89.5 48.6777,-89.5 48.6777,-69.5 0,-69.5"/>
<text text-anchor="middle" x="24.3389" y="-75.9" font-family="Helvetica,sans-Serif" font-size="12.00" fill="#000000">cmath</text>
</g>
<!-- Node1&#45;&gt;Node2 -->
<g id="edge2" class="edge">
<title>Node1&#45;&gt;Node2</title>
<path fill="none" stroke="#191970" d="M488.8205,-185.038C429.9946,-176.9477 341.4404,-163.5484 265.3389,-147 175.1898,-127.397 151.4871,-117.4222 58.6418,-90.0443"/>
<polygon fill="#191970" stroke="#191970" points="59.4068,-86.6212 48.8258,-87.1609 57.4339,-93.3374 59.4068,-86.6212"/>
</g>
<!-- Node3 -->
<g id="node4" class="node">
<title>Node3</title>
<polygon fill="#ffffff" stroke="#bfbfbf" points="702.999,-69.5 702.999,-89.5 761.6787,-89.5 761.6787,-69.5 702.999,-69.5"/>
<text text-anchor="middle" x="732.3389" y="-75.9" font-family="Helvetica,sans-Serif" font-size="12.00" fill="#000000">valarray</text>
</g>
<!-- Node1&#45;&gt;Node3 -->
<g id="edge3" class="edge">
<title>Node1&#45;&gt;Node3</title>
<path fill="none" stroke="#191970" d="M570.1352,-183.3833C601.2748,-163.4399 670.7757,-118.9281 707.8845,-95.1618"/>
<polygon fill="#191970" stroke="#191970" points="710.0446,-97.9347 716.578,-89.5941 706.2693,-92.04 710.0446,-97.9347"/>
</g>
<!-- Node4 -->
<g id="node5" class="node">
<title>Node4</title>
<g id="a_node5"><a xlink:href="EccentricityExpansionCoefficients_8h.html" target="_top" xlink:title="Declares a class which provides the [ &#160;coefficients]{InclinationEccentricity_pms1}. ">
<polygon fill="#ffffff" stroke="#000000" points="274.2939,-126.5 274.2939,-146.5 480.3838,-146.5 480.3838,-126.5 274.2939,-126.5"/>
<text text-anchor="middle" x="377.3389" y="-132.9" font-family="Helvetica,sans-Serif" font-size="12.00" fill="#000000">EccentricityExpansionCoefficients.h</text>
</a>
</g>
</g>
<!-- Node1&#45;&gt;Node4 -->
<g id="edge4" class="edge">
<title>Node1&#45;&gt;Node4</title>
<path fill="none" stroke="#191970" d="M523.1023,-183.4408C493.9976,-174.0681 450.4129,-160.0323 418.4842,-149.7502"/>
<polygon fill="#191970" stroke="#191970" points="419.1519,-146.2883 408.5604,-146.5544 417.0061,-152.9513 419.1519,-146.2883"/>
</g>
<!-- Node16 -->
<g id="node17" class="node">
<title>Node16</title>
<g id="a_node17"><a xlink:href="Core_2Common_8h.html" target="_top" xlink:title="Declaration of some general purpose utilities. ">
<polygon fill="#ffffff" stroke="#000000" points="979.3223,-126.5 979.3223,-146.5 1093.3555,-146.5 1093.3555,-126.5 979.3223,-126.5"/>
<text text-anchor="middle" x="1036.3389" y="-132.9" font-family="Helvetica,sans-Serif" font-size="12.00" fill="#000000">../Core/Common.h</text>
</a>
</g>
</g>
<!-- Node1&#45;&gt;Node16 -->
<g id="edge19" class="edge">
<title>Node1&#45;&gt;Node16</title>
<path fill="none" stroke="#191970" d="M619.8452,-185.7534C711.3931,-174.9272 876.7326,-155.3746 969.1663,-144.4436"/>
<polygon fill="#191970" stroke="#191970" points="969.7267,-147.9019 979.2464,-143.2516 968.9046,-140.9503 969.7267,-147.9019"/>
</g>
<!-- Node4&#45;&gt;Node2 -->
<g id="edge14" class="edge">
<title>Node4&#45;&gt;Node2</title>
<path fill="none" stroke="#191970" d="M281.7134,-126.481C220.4638,-119.1433 139.2221,-107.7062 58.563,-89.7502"/>
<polygon fill="#191970" stroke="#191970" points="59.2564,-86.3187 48.7308,-87.528 57.7131,-93.1465 59.2564,-86.3187"/>
</g>
<!-- Node5 -->
<g id="node6" class="node">
<title>Node5</title>
<g id="a_node6"><a xlink:href="SharedLibraryExportMacros_8h_source.html" target="_top" xlink:title="../Core/SharedLibraryExport\lMacros.h">
<polygon fill="#ffffff" stroke="#000000" points="269.6377,-.5 269.6377,-32.5 435.04,-32.5 435.04,-.5 269.6377,-.5"/>
<text text-anchor="start" x="277.6377" y="-18.9" font-family="Helvetica,sans-Serif" font-size="12.00" fill="#000000">../Core/SharedLibraryExport</text>
<text text-anchor="middle" x="352.3389" y="-6.9" font-family="Helvetica,sans-Serif" font-size="12.00" fill="#000000">Macros.h</text>
</a>
</g>
</g>
<!-- Node4&#45;&gt;Node5 -->
<g id="edge5" class="edge">
<title>Node4&#45;&gt;Node5</title>
<path fill="none" stroke="#191970" d="M375.2074,-126.2689C371.3882,-107.9369 363.2683,-68.9614 357.8055,-42.7396"/>
<polygon fill="#191970" stroke="#191970" points="361.183,-41.7909 355.717,-32.7149 354.3302,-43.2186 361.183,-41.7909"/>
</g>
<!-- Node6 -->
<g id="node7" class="node">
<title>Node6</title>
<g id="a_node7"><a xlink:href="Error_8h.html" target="_top" xlink:title="Defines the exception hierarchy used by this code. ">
<polygon fill="#ffffff" stroke="#000000" points="405.6572,-69.5 405.6572,-89.5 497.0205,-89.5 497.0205,-69.5 405.6572,-69.5"/>
<text text-anchor="middle" x="451.3389" y="-75.9" font-family="Helvetica,sans-Serif" font-size="12.00" fill="#000000">../Core/Error.h</text>
</a>
</g>
</g>
<!-- Node4&#45;&gt;Node6 -->
<g id="edge6" class="edge">
<title>Node4&#45;&gt;Node6</title>
<path fill="none" stroke="#191970" d="M390.5686,-126.3095C401.5125,-117.8798 417.2678,-105.7439 429.9938,-95.9415"/>
<polygon fill="#191970" stroke="#191970" points="432.4372,-98.4773 438.2237,-89.6022 428.1656,-92.9318 432.4372,-98.4773"/>
</g>
<!-- Node7 -->
<g id="node8" class="node">
<title>Node7</title>
<polygon fill="#ffffff" stroke="#bfbfbf" points="601.332,-6.5 601.332,-26.5 663.3457,-26.5 663.3457,-6.5 601.332,-6.5"/>
<text text-anchor="middle" x="632.3389" y="-12.9" font-family="Helvetica,sans-Serif" font-size="12.00" fill="#000000">iostream</text>
</g>
<!-- Node4&#45;&gt;Node7 -->
<g id="edge15" class="edge">
<title>Node4&#45;&gt;Node7</title>
<path fill="none" stroke="#191970" d="M410.3389,-126.4443C436.804,-117.9453 474.6324,-104.8115 506.3389,-90 516.4583,-85.2728 572.466,-52.1569 606.3116,-32.0235"/>
<polygon fill="#191970" stroke="#191970" points="608.4117,-34.8465 615.2136,-26.7234 604.8307,-28.8319 608.4117,-34.8465"/>
</g>
<!-- Node10 -->
<g id="node11" class="node">
<title>Node10</title>
<polygon fill="#ffffff" stroke="#bfbfbf" points="67,-69.5 67,-89.5 115.6777,-89.5 115.6777,-69.5 67,-69.5"/>
<text text-anchor="middle" x="91.3389" y="-75.9" font-family="Helvetica,sans-Serif" font-size="12.00" fill="#000000">vector</text>
</g>
<!-- Node4&#45;&gt;Node10 -->
<g id="edge11" class="edge">
<title>Node4&#45;&gt;Node10</title>
<path fill="none" stroke="#191970" d="M309.9926,-126.4978C261.1333,-118.6961 193.3354,-106.7509 125.721,-90.1313"/>
<polygon fill="#191970" stroke="#191970" points="126.2984,-86.6682 115.7487,-87.6452 124.6051,-93.4603 126.2984,-86.6682"/>
</g>
<!-- Node11 -->
<g id="node12" class="node">
<title>Node11</title>
<polygon fill="#ffffff" stroke="#bfbfbf" points="133.335,-69.5 133.335,-89.5 189.3428,-89.5 189.3428,-69.5 133.335,-69.5"/>
<text text-anchor="middle" x="161.3389" y="-75.9" font-family="Helvetica,sans-Serif" font-size="12.00" fill="#000000">fstream</text>
</g>
<!-- Node4&#45;&gt;Node11 -->
<g id="edge12" class="edge">
<title>Node4&#45;&gt;Node11</title>
<path fill="none" stroke="#191970" d="M337.4583,-126.4119C303.2665,-117.702 252.4453,-104.6128 199.5081,-90.2808"/>
<polygon fill="#191970" stroke="#191970" points="200.1703,-86.8339 189.6025,-87.591 198.3359,-93.5893 200.1703,-86.8339"/>
</g>
<!-- Node12 -->
<g id="node13" class="node">
<title>Node12</title>
<polygon fill="#ffffff" stroke="#bfbfbf" points="207.3271,-69.5 207.3271,-89.5 265.3506,-89.5 265.3506,-69.5 207.3271,-69.5"/>
<text text-anchor="middle" x="236.3389" y="-75.9" font-family="Helvetica,sans-Serif" font-size="12.00" fill="#000000">iomanip</text>
</g>
<!-- Node4&#45;&gt;Node12 -->
<g id="edge13" class="edge">
<title>Node4&#45;&gt;Node12</title>
<path fill="none" stroke="#191970" d="M352.4555,-126.4408C329.8421,-117.2992 296.2554,-103.7216 271.0135,-93.5174"/>
<polygon fill="#191970" stroke="#191970" points="272.0307,-90.1535 261.4478,-89.6504 269.4071,-96.6433 272.0307,-90.1535"/>
</g>
<!-- Node13 -->
<g id="node14" class="node">
<title>Node13</title>
<polygon fill="#ffffff" stroke="#bfbfbf" points="553.002,-69.5 553.002,-89.5 611.6758,-89.5 611.6758,-69.5 553.002,-69.5"/>
<text text-anchor="middle" x="582.3389" y="-75.9" font-family="Helvetica,sans-Serif" font-size="12.00" fill="#000000">sstream</text>
</g>
<!-- Node4&#45;&gt;Node13 -->
<g id="edge16" class="edge">
<title>Node4&#45;&gt;Node13</title>
<path fill="none" stroke="#191970" d="M413.5169,-126.4408C449.7647,-116.3621 505.405,-100.8914 542.7984,-90.4942"/>
<polygon fill="#191970" stroke="#191970" points="544.1332,-93.7559 552.8301,-87.7049 542.258,-87.0117 544.1332,-93.7559"/>
</g>
<!-- Node14 -->
<g id="node15" class="node">
<title>Node14</title>
<polygon fill="#ffffff" stroke="#bfbfbf" points="630,-69.5 630,-89.5 684.6777,-89.5 684.6777,-69.5 630,-69.5"/>
<text text-anchor="middle" x="657.3389" y="-75.9" font-family="Helvetica,sans-Serif" font-size="12.00" fill="#000000">cassert</text>
</g>
<!-- Node4&#45;&gt;Node14 -->
<g id="edge17" class="edge">
<title>Node4&#45;&gt;Node14</title>
<path fill="none" stroke="#191970" d="M437.5671,-126.4853C484.6167,-118.3173 551.8239,-105.8974 619.8842,-89.9457"/>
<polygon fill="#191970" stroke="#191970" points="621.0055,-93.277 629.9298,-87.5666 619.3923,-86.4655 621.0055,-93.277"/>
</g>
<!-- Node15 -->
<g id="node16" class="node">
<title>Node15</title>
<polygon fill="#ffffff" stroke="#bfbfbf" points="283.6621,-69.5 283.6621,-89.5 349.0156,-89.5 349.0156,-69.5 283.6621,-69.5"/>
<text text-anchor="middle" x="316.3389" y="-75.9" font-family="Helvetica,sans-Serif" font-size="12.00" fill="#000000">algorithm</text>
</g>
<!-- Node4&#45;&gt;Node15 -->
<g id="edge18" class="edge">
<title>Node4&#45;&gt;Node15</title>
<path fill="none" stroke="#191970" d="M366.4333,-126.3095C357.5854,-118.0419 344.9225,-106.2093 334.5421,-96.5096"/>
<polygon fill="#191970" stroke="#191970" points="336.8462,-93.8724 327.15,-89.6022 332.067,-98.987 336.8462,-93.8724"/>
</g>
<!-- Node6&#45;&gt;Node5 -->
<g id="edge7" class="edge">
<title>Node6&#45;&gt;Node5</title>
<path fill="none" stroke="#191970" d="M435.4328,-69.378C422.3353,-61.0432 403.2966,-48.9277 386.7468,-38.3959"/>
<polygon fill="#191970" stroke="#191970" points="388.1777,-35.158 377.862,-32.742 384.4195,-41.0636 388.1777,-35.158"/>
</g>
<!-- Node6&#45;&gt;Node7 -->
<g id="edge8" class="edge">
<title>Node6&#45;&gt;Node7</title>
<path fill="none" stroke="#191970" d="M484.0535,-69.4532C512.7813,-60.4549 555.6009,-46.6146 592.3389,-33 594.5973,-32.163 596.9175,-31.2769 599.2485,-30.3671"/>
<polygon fill="#191970" stroke="#191970" points="600.779,-33.5245 608.7617,-26.5584 598.1772,-27.0259 600.779,-33.5245"/>
</g>
<!-- Node8 -->
<g id="node9" class="node">
<title>Node8</title>
<polygon fill="#ffffff" stroke="#bfbfbf" points="515.6543,-6.5 515.6543,-26.5 583.0234,-26.5 583.0234,-6.5 515.6543,-6.5"/>
<text text-anchor="middle" x="549.3389" y="-12.9" font-family="Helvetica,sans-Serif" font-size="12.00" fill="#000000">exception</text>
</g>
<!-- Node6&#45;&gt;Node8 -->
<g id="edge9" class="edge">
<title>Node6&#45;&gt;Node8</title>
<path fill="none" stroke="#191970" d="M467.0843,-69.378C482.6575,-59.3666 506.7161,-43.9003 524.7982,-32.2762"/>
<polygon fill="#191970" stroke="#191970" points="527.1134,-34.9487 533.6325,-26.5969 523.3281,-29.0604 527.1134,-34.9487"/>
</g>
<!-- Node9 -->
<g id="node10" class="node">
<title>Node9</title>
<polygon fill="#ffffff" stroke="#bfbfbf" points="452.667,-6.5 452.667,-26.5 498.0107,-26.5 498.0107,-6.5 452.667,-6.5"/>
<text text-anchor="middle" x="475.3389" y="-12.9" font-family="Helvetica,sans-Serif" font-size="12.00" fill="#000000">string</text>
</g>
<!-- Node6&#45;&gt;Node9 -->
<g id="edge10" class="edge">
<title>Node6&#45;&gt;Node9</title>
<path fill="none" stroke="#191970" d="M455.1949,-69.378C458.5688,-60.5215 463.569,-47.396 467.7434,-36.4381"/>
<polygon fill="#191970" stroke="#191970" points="471.1234,-37.3971 471.4127,-26.8062 464.582,-34.9051 471.1234,-37.3971"/>
</g>
<!-- Node16&#45;&gt;Node3 -->
<g id="edge21" class="edge">
<title>Node16&#45;&gt;Node3</title>
<path fill="none" stroke="#191970" d="M979.1135,-127.3736C926.0992,-118.6658 845.1429,-104.7254 775.3389,-90 774.2486,-89.77 773.1439,-89.5324 772.0298,-89.2887"/>
<polygon fill="#191970" stroke="#191970" points="772.4188,-85.7876 761.8909,-86.9763 770.8622,-92.6124 772.4188,-85.7876"/>
</g>
<!-- Node16&#45;&gt;Node5 -->
<g id="edge32" class="edge">
<title>Node16&#45;&gt;Node5</title>
<path fill="none" stroke="#191970" d="M979.2699,-129.7599C932.335,-123.0662 864.6306,-110.7412 808.3389,-90 790.2326,-83.3286 788.7314,-74.836 770.3389,-69 634.1052,-25.7725 590.0042,-52.7775 445.2643,-33.189"/>
<polygon fill="#191970" stroke="#191970" points="445.5154,-29.69 435.1255,-31.7636 444.5408,-36.6218 445.5154,-29.69"/>
</g>
<!-- Node16&#45;&gt;Node6 -->
<g id="edge33" class="edge">
<title>Node16&#45;&gt;Node6</title>
<path fill="none" stroke="#191970" d="M979.1132,-131.4319C887.3375,-123.2273 701.5772,-106.3055 544.3389,-90 532.3438,-88.7561 519.4871,-87.3509 507.2765,-85.9825"/>
<polygon fill="#191970" stroke="#191970" points="507.5341,-82.4895 497.2047,-84.8461 506.7492,-89.4453 507.5341,-82.4895"/>
</g>
<!-- Node16&#45;&gt;Node7 -->
<g id="edge24" class="edge">
<title>Node16&#45;&gt;Node7</title>
<path fill="none" stroke="#191970" d="M1018.1358,-126.4167C984.2085,-107.6247 914.6833,-69.1237 914.3389,-69 831.9987,-39.4362 729.8676,-25.7245 673.8844,-20.0306"/>
<polygon fill="#191970" stroke="#191970" points="673.9468,-16.52 663.6529,-19.0275 673.2637,-23.4866 673.9468,-16.52"/>
</g>
<!-- Node16&#45;&gt;Node13 -->
<g id="edge23" class="edge">
<title>Node16&#45;&gt;Node13</title>
<path fill="none" stroke="#191970" d="M979.2102,-132.8479C900.777,-127.227 755.2774,-114.6295 622.022,-89.8755"/>
<polygon fill="#191970" stroke="#191970" points="622.5174,-86.4073 612.0421,-87.9942 621.2206,-93.2862 622.5174,-86.4073"/>
</g>
<!-- Node16&#45;&gt;Node14 -->
<g id="edge31" class="edge">
<title>Node16&#45;&gt;Node14</title>
<path fill="none" stroke="#191970" d="M979.0357,-131.2098C912.8286,-124.5403 800.5252,-111.5158 694.61,-89.7936"/>
<polygon fill="#191970" stroke="#191970" points="695.2141,-86.3444 684.7107,-87.7337 693.788,-93.1976 695.2141,-86.3444"/>
</g>
<!-- Node17 -->
<g id="node18" class="node">
<title>Node17</title>
<polygon fill="#ffffff" stroke="#bfbfbf" points="1242.0059,-69.5 1242.0059,-89.5 1272.6719,-89.5 1272.6719,-69.5 1242.0059,-69.5"/>
<text text-anchor="middle" x="1257.3389" y="-75.9" font-family="Helvetica,sans-Serif" font-size="12.00" fill="#000000">list</text>
</g>
<!-- Node16&#45;&gt;Node17 -->
<g id="edge20" class="edge">
<title>Node16&#45;&gt;Node17</title>
<path fill="none" stroke="#191970" d="M1090.5835,-126.4468C1128.2263,-118.8489 1179.5613,-107.2553 1231.9556,-90.0773"/>
<polygon fill="#191970" stroke="#191970" points="1233.3732,-93.2939 1241.7481,-86.8045 1231.1543,-86.6549 1233.3732,-93.2939"/>
</g>
<!-- Node18 -->
<g id="node19" class="node">
<title>Node18</title>
<polygon fill="#ffffff" stroke="#bfbfbf" points="1290.6748,-69.5 1290.6748,-89.5 1334.0029,-89.5 1334.0029,-69.5 1290.6748,-69.5"/>
<text text-anchor="middle" x="1312.3389" y="-75.9" font-family="Helvetica,sans-Serif" font-size="12.00" fill="#000000">limits</text>
</g>
<!-- Node16&#45;&gt;Node18 -->
<g id="edge22" class="edge">
<title>Node16&#45;&gt;Node18</title>
<path fill="none" stroke="#191970" d="M1093.772,-127.9173C1141.5004,-120.2603 1211.2899,-107.854 1280.6554,-89.9075"/>
<polygon fill="#191970" stroke="#191970" points="1281.6551,-93.2637 1290.438,-87.3383 1279.8769,-86.4933 1281.6551,-93.2637"/>
</g>
<!-- Node19 -->
<g id="node20" class="node">
<title>Node19</title>
<polygon fill="#ffffff" stroke="#bfbfbf" points="1351.665,-69.5 1351.665,-89.5 1405.0127,-89.5 1405.0127,-69.5 1351.665,-69.5"/>
<text text-anchor="middle" x="1378.3389" y="-75.9" font-family="Helvetica,sans-Serif" font-size="12.00" fill="#000000">iterator</text>
</g>
<!-- Node16&#45;&gt;Node19 -->
<g id="edge25" class="edge">
<title>Node16&#45;&gt;Node19</title>
<path fill="none" stroke="#191970" d="M1093.3675,-130.3048C1153.1685,-123.2622 1249.9762,-110.3207 1341.3423,-90.2441"/>
<polygon fill="#191970" stroke="#191970" points="1342.3081,-93.6148 1351.306,-88.0211 1340.7837,-86.7828 1342.3081,-93.6148"/>
</g>
<!-- Node20 -->
<g id="node21" class="node">
<title>Node20</title>
<polygon fill="#ffffff" stroke="#bfbfbf" points="1422.9805,-69.5 1422.9805,-89.5 1521.6973,-89.5 1521.6973,-69.5 1422.9805,-69.5"/>
<text text-anchor="middle" x="1472.3389" y="-75.9" font-family="Helvetica,sans-Serif" font-size="12.00" fill="#000000">gsl/gsl_vector.h</text>
</g>
<!-- Node16&#45;&gt;Node20 -->
<g id="edge26" class="edge">
<title>Node16&#45;&gt;Node20</title>
<path fill="none" stroke="#191970" d="M1093.4714,-130.4925C1165.5865,-122.6821 1293.6762,-108.0558 1412.682,-90.1923"/>
<polygon fill="#191970" stroke="#191970" points="1413.3314,-93.634 1422.6957,-88.6782 1412.2848,-86.7127 1413.3314,-93.634"/>
</g>
<!-- Node21 -->
<g id="node22" class="node">
<title>Node21</title>
<polygon fill="#ffffff" stroke="#bfbfbf" points="1539.6582,-69.5 1539.6582,-89.5 1639.0195,-89.5 1639.0195,-69.5 1539.6582,-69.5"/>
<text text-anchor="middle" x="1589.3389" y="-75.9" font-family="Helvetica,sans-Serif" font-size="12.00" fill="#000000">gsl/gsl_matrix.h</text>
</g>
<!-- Node16&#45;&gt;Node21 -->
<g id="edge27" class="edge">
<title>Node16&#45;&gt;Node21</title>
<path fill="none" stroke="#191970" d="M1093.5639,-132.6497C1183.8859,-126.2348 1365.2178,-111.989 1529.2138,-90.0563"/>
<polygon fill="#191970" stroke="#191970" points="1530.0492,-93.4753 1539.4909,-88.6685 1529.1124,-86.5383 1530.0492,-93.4753"/>
</g>
<!-- Node22 -->
<g id="node23" class="node">
<title>Node22</title>
<polygon fill="#ffffff" stroke="#bfbfbf" points="1656.9814,-69.5 1656.9814,-89.5 1751.6963,-89.5 1751.6963,-69.5 1656.9814,-69.5"/>
<text text-anchor="middle" x="1704.3389" y="-75.9" font-family="Helvetica,sans-Serif" font-size="12.00" fill="#000000">gsl/gsl_linalg.h</text>
</g>
<!-- Node16&#45;&gt;Node22 -->
<g id="edge28" class="edge">
<title>Node16&#45;&gt;Node22</title>
<path fill="none" stroke="#191970" d="M1093.5062,-134.2482C1200.3377,-129.5845 1437.6618,-117.0753 1646.7997,-90.0884"/>
<polygon fill="#191970" stroke="#191970" points="1647.2734,-93.5564 1656.7368,-88.7924 1646.3681,-86.6152 1647.2734,-93.5564"/>
</g>
<!-- Node23 -->
<g id="node24" class="node">
<title>Node23</title>
<polygon fill="#ffffff" stroke="#bfbfbf" points="1769.9844,-69.5 1769.9844,-89.5 1858.6934,-89.5 1858.6934,-69.5 1769.9844,-69.5"/>
<text text-anchor="middle" x="1814.3389" y="-75.9" font-family="Helvetica,sans-Serif" font-size="12.00" fill="#000000">gsl/gsl_blas.h</text>
</g>
<!-- Node16&#45;&gt;Node23 -->
<g id="edge29" class="edge">
<title>Node16&#45;&gt;Node23</title>
<path fill="none" stroke="#191970" d="M1093.3642,-135.3151C1214.2964,-132.2665 1505.4955,-122.0905 1759.7454,-89.9068"/>
<polygon fill="#191970" stroke="#191970" points="1760.4406,-93.3464 1769.9152,-88.6051 1759.5518,-86.4031 1760.4406,-93.3464"/>
</g>
<!-- Node24 -->
<g id="node25" class="node">
<title>Node24</title>
<polygon fill="#ffffff" stroke="#bfbfbf" points="817.4268,-69.5 817.4268,-89.5 905.251,-89.5 905.251,-69.5 817.4268,-69.5"/>
<text text-anchor="middle" x="861.3389" y="-75.9" font-family="Helvetica,sans-Serif" font-size="12.00" fill="#000000">gsl/gsl_poly.h</text>
</g>
<!-- Node16&#45;&gt;Node24 -->
<g id="edge30" class="edge">
<title>Node16&#45;&gt;Node24</title>
<path fill="none" stroke="#191970" d="M1005.4552,-126.4408C976.6795,-117.0681 933.5872,-103.0323 902.0192,-92.7502"/>
<polygon fill="#191970" stroke="#191970" points="902.7999,-89.3235 892.2076,-89.5544 900.632,-95.9794 902.7999,-89.3235"/>
</g>
<!-- Node25 -->
<g id="node26" class="node">
<title>Node25</title>
<g id="a_node26"><a xlink:href="AstronomicalConstants_8h.html" target="_top" xlink:title="Defines various astronomical constants. ">
<polygon fill="#ffffff" stroke="#000000" points="961.6416,-69.5 961.6416,-89.5 1111.0361,-89.5 1111.0361,-69.5 961.6416,-69.5"/>
<text text-anchor="middle" x="1036.3389" y="-75.9" font-family="Helvetica,sans-Serif" font-size="12.00" fill="#000000">AstronomicalConstants.h</text>
</a>
</g>
</g>
<!-- Node16&#45;&gt;Node25 -->
<g id="edge34" class="edge">
<title>Node16&#45;&gt;Node25</title>
<path fill="none" stroke="#191970" d="M1036.3389,-126.3095C1036.3389,-118.9335 1036.3389,-108.72 1036.3389,-99.715"/>
<polygon fill="#191970" stroke="#191970" points="1039.839,-99.6022 1036.3389,-89.6022 1032.839,-99.6023 1039.839,-99.6022"/>
</g>
<!-- Node26 -->
<g id="node27" class="node">
<title>Node26</title>
<g id="a_node27"><a xlink:href="IncludeEigen_8h_source.html" target="_top" xlink:title="IncludeEigen.h">
<polygon fill="#ffffff" stroke="#000000" points="1128.6416,-69.5 1128.6416,-89.5 1224.0361,-89.5 1224.0361,-69.5 1128.6416,-69.5"/>
<text text-anchor="middle" x="1176.3389" y="-75.9" font-family="Helvetica,sans-Serif" font-size="12.00" fill="#000000">IncludeEigen.h</text>
</a>
</g>
</g>
<!-- Node16&#45;&gt;Node26 -->
<g id="edge35" class="edge">
<title>Node16&#45;&gt;Node26</title>
<path fill="none" stroke="#191970" d="M1061.0458,-126.4408C1083.4988,-117.2992 1116.8473,-103.7216 1141.9101,-93.5174"/>
<polygon fill="#191970" stroke="#191970" points="1143.4661,-96.663 1151.408,-89.6504 1140.8264,-90.1797 1143.4661,-96.663"/>
</g>
<!-- Node27 -->
<g id="node28" class="node">
<title>Node27</title>
<polygon fill="#ffffff" stroke="#bfbfbf" points="1133.9824,-6.5 1133.9824,-26.5 1218.6953,-26.5 1218.6953,-6.5 1133.9824,-6.5"/>
<text text-anchor="middle" x="1176.3389" y="-12.9" font-family="Helvetica,sans-Serif" font-size="12.00" fill="#000000">Eigen/Dense</text>
</g>
<!-- Node26&#45;&gt;Node27 -->
<g id="edge36" class="edge">
<title>Node26&#45;&gt;Node27</title>
<path fill="none" stroke="#191970" d="M1176.3389,-69.378C1176.3389,-60.7041 1176.3389,-47.9355 1176.3389,-37.1186"/>
<polygon fill="#191970" stroke="#191970" points="1179.839,-36.8062 1176.3389,-26.8062 1172.839,-36.8062 1179.839,-36.8062"/>
</g>
</g>
</svg>
