<?xml version="1.0" encoding="UTF-8" standalone="no"?>
<!DOCTYPE svg PUBLIC "-//W3C//DTD SVG 1.1//EN"
 "http://www.w3.org/Graphics/SVG/1.1/DTD/svg11.dtd">
<!-- Generated by graphviz version 2.40.1 (20161225.0304)
 -->
<!-- Title: /home/kpenev/projects/git/poet/poet_src/unit_tests/testEvolve/TransformedSolution.h Pages: 1 -->
<!--zoomable 314 -->
<svg id="main" version="1.1" xmlns="http://www.w3.org/2000/svg" xmlns:xlink="http://www.w3.org/1999/xlink" xml:space="preserve" onload="init(evt)">
<style type="text/css"><![CDATA[
.edge:hover path { stroke: red; }
.edge:hover polygon { stroke: red; fill: red; }
]]></style>
<script type="text/javascript"><![CDATA[
var edges = document.getElementsByTagName('g');
if (edges && edges.length) {
  for (var i=0;i<edges.length;i++) {
    if (edges[i].id.substr(0,4)=='edge') {
      edges[i].setAttribute('class','edge');
    }
  }
}
]]></script>
        <defs>
                <circle id="rim" cx="0" cy="0" r="7"/>
                <circle id="rim2" cx="0" cy="0" r="3.5"/>
                <g id="zoomPlus">
                        <use xlink:href="#rim" fill="#404040">
                                <set attributeName="fill" to="#808080" begin="zoomplus.mouseover" end="zoomplus.mouseout"/>
                        </use>
                        <path d="M-4,0h8M0,-4v8" fill="none" stroke="white" stroke-width="1.5" pointer-events="none"/>
                </g>
                <g id="zoomMin">
                        <use xlink:href="#rim" fill="#404040">
                                <set attributeName="fill" to="#808080" begin="zoomminus.mouseover" end="zoomminus.mouseout"/>
                        </use>
                        <path d="M-4,0h8" fill="none" stroke="white" stroke-width="1.5" pointer-events="none"/>
                </g>
                <g id="dirArrow">
                        <path fill="none" stroke="white" stroke-width="1.5" d="M0,-3.0v7 M-2.5,-0.5L0,-3.0L2.5,-0.5"/>
                </g>
               <g id="resetDef">
                       <use xlink:href="#rim2" fill="#404040">
                               <set attributeName="fill" to="#808080" begin="reset.mouseover" end="reset.mouseout"/>
                       </use>
               </g>
        </defs>

<script type="text/javascript">
var viewWidth = 1586;
var viewHeight = 314;
var sectionId = 'dynsection-0';
</script>
<script xlink:href="svgpan.js"/>
<svg id="graph" class="graph">
<g id="viewport">
<title>/home/kpenev/projects/git/poet/poet_src/unit_tests/testEvolve/TransformedSolution.h</title>
<polygon fill="#ffffff" stroke="transparent" points="-4,4 -4,-310 1582,-310 1582,4 -4,4"/>
<!-- Node0 -->
<g id="node1" class="node">
<title>Node0</title>
<polygon fill="#bfbfbf" stroke="#000000" points="532.5,-258.5 532.5,-305.5 763.5,-305.5 763.5,-258.5 532.5,-258.5"/>
<text text-anchor="start" x="540.5" y="-291.9" font-family="Helvetica,sans-Serif" font-size="12.00" fill="#000000">/home/kpenev/projects</text>
<text text-anchor="start" x="540.5" y="-278.9" font-family="Helvetica,sans-Serif" font-size="12.00" fill="#000000">/git/poet/poet_src/unit</text>
<text text-anchor="middle" x="648" y="-265.9" font-family="Helvetica,sans-Serif" font-size="12.00" fill="#000000">_tests/testEvolve/TransformedSolution.h</text>
</g>
<!-- Node1 -->
<g id="node2" class="node">
<title>Node1</title>
<g id="a_node2"><a xlink:href="RealEvolutionQuantity_8h.html" target="_top" xlink:title="Declare an inumeration for the various quantities tracked by the evolution and checked. ">
<polygon fill="#ffffff" stroke="#000000" points="295,-200.5 295,-221.5 441,-221.5 441,-200.5 295,-200.5"/>
<text text-anchor="middle" x="368" y="-207.9" font-family="Helvetica,sans-Serif" font-size="12.00" fill="#000000">RealEvolutionQuantity.h</text>
</a>
</g>
</g>
<!-- Node0&#45;&gt;Node1 -->
<g id="edge1" class="edge">
<title>Node0&#45;&gt;Node1</title>
<path fill="none" stroke="#191970" d="M555.153,-258.4566C509.9983,-247.0067 457.4337,-233.6778 419.5287,-224.0662"/>
<polygon fill="#191970" stroke="#191970" points="420.2874,-220.6479 409.7339,-221.5825 418.5668,-227.4332 420.2874,-220.6479"/>
</g>
<!-- Node2 -->
<g id="node3" class="node">
<title>Node2</title>
<g id="a_node3"><a xlink:href="Functions_8h.html" target="_top" xlink:title="A hierarchy of classes representing functions. ">
<polygon fill="#ffffff" stroke="#000000" points="765,-200.5 765,-221.5 891,-221.5 891,-200.5 765,-200.5"/>
<text text-anchor="middle" x="828" y="-207.9" font-family="Helvetica,sans-Serif" font-size="12.00" fill="#000000">../../Core/Functions.h</text>
</a>
</g>
</g>
<!-- Node0&#45;&gt;Node2 -->
<g id="edge2" class="edge">
<title>Node0&#45;&gt;Node2</title>
<path fill="none" stroke="#191970" d="M707.9374,-258.358C735.6221,-247.4379 767.5946,-234.8266 791.5817,-225.365"/>
<polygon fill="#191970" stroke="#191970" points="792.9914,-228.5715 801.0096,-221.6462 790.4228,-222.0597 792.9914,-228.5715"/>
</g>
<!-- Node5 -->
<g id="node6" class="node">
<title>Node5</title>
<polygon fill="#ffffff" stroke="#bfbfbf" points="0,-71.5 0,-92.5 32,-92.5 32,-71.5 0,-71.5"/>
<text text-anchor="middle" x="16" y="-78.9" font-family="Helvetica,sans-Serif" font-size="12.00" fill="#000000">list</text>
</g>
<!-- Node0&#45;&gt;Node5 -->
<g id="edge38" class="edge">
<title>Node0&#45;&gt;Node5</title>
<path fill="none" stroke="#191970" d="M596.6275,-258.4493C557.0853,-240.8815 500.785,-217.07 450,-200 275.027,-141.1877 220.3563,-154.3156 41.9541,-92.9623"/>
<polygon fill="#191970" stroke="#191970" points="42.8524,-89.5693 32.2576,-89.5966 40.5569,-96.1823 42.8524,-89.5693"/>
</g>
<!-- Node28 -->
<g id="node29" class="node">
<title>Node28</title>
<polygon fill="#ffffff" stroke="#bfbfbf" points="909.5,-200.5 909.5,-221.5 958.5,-221.5 958.5,-200.5 909.5,-200.5"/>
<text text-anchor="middle" x="934" y="-207.9" font-family="Helvetica,sans-Serif" font-size="12.00" fill="#000000">vector</text>
</g>
<!-- Node0&#45;&gt;Node28 -->
<g id="edge37" class="edge">
<title>Node0&#45;&gt;Node28</title>
<path fill="none" stroke="#191970" d="M755.1584,-258.4584C797.474,-248.6822 846.6509,-236.7286 899.3136,-222.0509"/>
<polygon fill="#191970" stroke="#191970" points="900.5052,-225.3518 909.1865,-219.2785 898.6126,-218.6124 900.5052,-225.3518"/>
</g>
<!-- Node3 -->
<g id="node4" class="node">
<title>Node3</title>
<g id="a_node4"><a xlink:href="SharedLibraryExportMacros_8h_source.html" target="_top" xlink:title="../Core/SharedLibraryExport\lMacros.h">
<polygon fill="#ffffff" stroke="#000000" points="1348.5,-.5 1348.5,-34.5 1513.5,-34.5 1513.5,-.5 1348.5,-.5"/>
<text text-anchor="start" x="1356.5" y="-20.9" font-family="Helvetica,sans-Serif" font-size="12.00" fill="#000000">../Core/SharedLibraryExport</text>
<text text-anchor="middle" x="1431" y="-7.9" font-family="Helvetica,sans-Serif" font-size="12.00" fill="#000000">Macros.h</text>
</a>
</g>
</g>
<!-- Node2&#45;&gt;Node3 -->
<g id="edge3" class="edge">
<title>Node2&#45;&gt;Node3</title>
<path fill="none" stroke="#191970" d="M891.2693,-201.1653C894.5572,-200.7485 897.8157,-200.3566 901,-200 1009.2839,-187.8735 1295.1918,-217.7014 1390,-164 1423.5821,-144.9784 1428.3447,-129.7931 1440,-93 1444.94,-77.4055 1442.9885,-59.2172 1439.6598,-44.6005"/>
<polygon fill="#191970" stroke="#191970" points="1442.982,-43.4695 1437.0715,-34.6766 1436.2086,-45.2362 1442.982,-43.4695"/>
</g>
<!-- Node4 -->
<g id="node5" class="node">
<title>Node4</title>
<g id="a_node5"><a xlink:href="Core_2Common_8h.html" target="_top" xlink:title="Declaration of some general purpose utilities. ">
<polygon fill="#ffffff" stroke="#000000" points="611.5,-136 611.5,-157 686.5,-157 686.5,-136 611.5,-136"/>
<text text-anchor="middle" x="649" y="-143.4" font-family="Helvetica,sans-Serif" font-size="12.00" fill="#000000">Common.h</text>
</a>
</g>
</g>
<!-- Node2&#45;&gt;Node4 -->
<g id="edge4" class="edge">
<title>Node2&#45;&gt;Node4</title>
<path fill="none" stroke="#191970" d="M798.0739,-200.4824C771.2909,-191.0366 730.9719,-176.736 696,-164 692.9729,-162.8976 689.839,-161.7483 686.6925,-160.5887"/>
<polygon fill="#191970" stroke="#191970" points="687.902,-157.3044 677.3089,-157.1155 685.4722,-163.8691 687.902,-157.3044"/>
</g>
<!-- Node2&#45;&gt;Node5 -->
<g id="edge30" class="edge">
<title>Node2&#45;&gt;Node5</title>
<path fill="none" stroke="#191970" d="M764.7003,-205.6922C687.7338,-198.4846 562.9138,-184.1496 521,-164 500.306,-154.0516 504.0324,-138.2114 483,-129 305.4578,-51.2435 234.4379,-138.3699 41.9811,-92.4648"/>
<polygon fill="#191970" stroke="#191970" points="42.6773,-89.0315 32.1291,-90.0247 40.9944,-95.8262 42.6773,-89.0315"/>
</g>
<!-- Node6 -->
<g id="node7" class="node">
<title>Node6</title>
<polygon fill="#ffffff" stroke="#bfbfbf" points="1261.5,-71.5 1261.5,-92.5 1320.5,-92.5 1320.5,-71.5 1261.5,-71.5"/>
<text text-anchor="middle" x="1291" y="-78.9" font-family="Helvetica,sans-Serif" font-size="12.00" fill="#000000">valarray</text>
</g>
<!-- Node2&#45;&gt;Node6 -->
<g id="edge29" class="edge">
<title>Node2&#45;&gt;Node6</title>
<path fill="none" stroke="#191970" d="M891.2787,-201.2458C894.5642,-200.808 897.8196,-200.3896 901,-200 943.2064,-194.8301 1251.7062,-193.8395 1282,-164 1297.9496,-148.2896 1297.7765,-121.1907 1295.2235,-102.4694"/>
<polygon fill="#191970" stroke="#191970" points="1298.667,-101.8408 1293.5493,-92.564 1291.7649,-103.0075 1298.667,-101.8408"/>
</g>
<!-- Node7 -->
<g id="node8" class="node">
<title>Node7</title>
<polygon fill="#ffffff" stroke="#bfbfbf" points="50,-71.5 50,-92.5 94,-92.5 94,-71.5 50,-71.5"/>
<text text-anchor="middle" x="72" y="-78.9" font-family="Helvetica,sans-Serif" font-size="12.00" fill="#000000">limits</text>
</g>
<!-- Node2&#45;&gt;Node7 -->
<g id="edge28" class="edge">
<title>Node2&#45;&gt;Node7</title>
<path fill="none" stroke="#191970" d="M764.7173,-204.1171C696.9149,-196.0116 594.2826,-181.4215 559,-164 538.412,-153.8343 542.01,-138.2623 521,-129 350.7842,-53.9598 285.9898,-131.5248 104,-93 103.8994,-92.9787 103.7987,-92.9572 103.6979,-92.9355"/>
<polygon fill="#191970" stroke="#191970" points="104.7467,-89.5928 94.183,-90.4037 102.9467,-96.3574 104.7467,-89.5928"/>
</g>
<!-- Node9 -->
<g id="node10" class="node">
<title>Node9</title>
<polygon fill="#ffffff" stroke="#bfbfbf" points="1182,-7 1182,-28 1244,-28 1244,-7 1182,-7"/>
<text text-anchor="middle" x="1213" y="-14.4" font-family="Helvetica,sans-Serif" font-size="12.00" fill="#000000">iostream</text>
</g>
<!-- Node2&#45;&gt;Node9 -->
<g id="edge32" class="edge">
<title>Node2&#45;&gt;Node9</title>
<path fill="none" stroke="#191970" d="M891.2764,-201.2268C894.5625,-200.7939 897.8187,-200.3818 901,-200 990.0519,-189.3131 1231.5096,-218.1624 1303,-164 1337.3062,-138.009 1353.2605,-107.2132 1330,-71 1328.7518,-69.0568 1280.2501,-47.2801 1246.0933,-32.1172"/>
<polygon fill="#191970" stroke="#191970" points="1247.4513,-28.8908 1236.8909,-28.0378 1244.6145,-35.2902 1247.4513,-28.8908"/>
</g>
<!-- Node10 -->
<g id="node11" class="node">
<title>Node10</title>
<polygon fill="#ffffff" stroke="#bfbfbf" points="112.5,-71.5 112.5,-92.5 165.5,-92.5 165.5,-71.5 112.5,-71.5"/>
<text text-anchor="middle" x="139" y="-78.9" font-family="Helvetica,sans-Serif" font-size="12.00" fill="#000000">iterator</text>
</g>
<!-- Node2&#45;&gt;Node10 -->
<g id="edge31" class="edge">
<title>Node2&#45;&gt;Node10</title>
<path fill="none" stroke="#191970" d="M764.8892,-205.7274C718.3596,-199.9922 654.4747,-188.167 603,-164 580.3809,-153.3805 582.1812,-138.3288 559,-129 402.6043,-66.0617 344.6819,-124.6332 175.5769,-92.9467"/>
<polygon fill="#191970" stroke="#191970" points="176.087,-89.4802 165.6014,-90.9977 174.7447,-96.3503 176.087,-89.4802"/>
</g>
<!-- Node17 -->
<g id="node18" class="node">
<title>Node17</title>
<g id="a_node18"><a xlink:href="Error_8h.html" target="_top" xlink:title="Defines the exception hierarchy used by this code. ">
<polygon fill="#ffffff" stroke="#000000" points="1377.5,-71.5 1377.5,-92.5 1430.5,-92.5 1430.5,-71.5 1377.5,-71.5"/>
<text text-anchor="middle" x="1404" y="-78.9" font-family="Helvetica,sans-Serif" font-size="12.00" fill="#000000">Error.h</text>
</a>
</g>
</g>
<!-- Node2&#45;&gt;Node17 -->
<g id="edge26" class="edge">
<title>Node2&#45;&gt;Node17</title>
<path fill="none" stroke="#191970" d="M891.2712,-201.1819C894.5586,-200.7607 897.8165,-200.3634 901,-200 1003.3134,-188.3205 1277.5725,-221.5029 1363,-164 1383.8476,-149.9671 1394.5754,-122.0518 1399.7361,-102.7164"/>
<polygon fill="#191970" stroke="#191970" points="1403.1984,-103.2856 1402.1127,-92.7465 1396.3892,-101.6623 1403.1984,-103.2856"/>
</g>
<!-- Node23 -->
<g id="node24" class="node">
<title>Node23</title>
<polygon fill="#ffffff" stroke="#bfbfbf" points="704.5,-136 704.5,-157 753.5,-157 753.5,-136 704.5,-136"/>
<text text-anchor="middle" x="729" y="-143.4" font-family="Helvetica,sans-Serif" font-size="12.00" fill="#000000">cmath</text>
</g>
<!-- Node2&#45;&gt;Node23 -->
<g id="edge27" class="edge">
<title>Node2&#45;&gt;Node23</title>
<path fill="none" stroke="#191970" d="M811.6522,-200.3491C796.0319,-190.1723 772.2602,-174.6847 754.2138,-162.9272"/>
<polygon fill="#191970" stroke="#191970" points="755.6614,-159.693 745.3721,-157.1667 751.8402,-165.5581 755.6614,-159.693"/>
</g>
<!-- Node24 -->
<g id="node25" class="node">
<title>Node24</title>
<polygon fill="#ffffff" stroke="#bfbfbf" points="771.5,-129.5 771.5,-163.5 884.5,-163.5 884.5,-129.5 771.5,-129.5"/>
<text text-anchor="start" x="779.5" y="-149.9" font-family="Helvetica,sans-Serif" font-size="12.00" fill="#000000">boost/serialization</text>
<text text-anchor="middle" x="828" y="-136.9" font-family="Helvetica,sans-Serif" font-size="12.00" fill="#000000">/base_object.hpp</text>
</g>
<!-- Node2&#45;&gt;Node24 -->
<g id="edge33" class="edge">
<title>Node2&#45;&gt;Node24</title>
<path fill="none" stroke="#191970" d="M828,-200.3491C828,-193.122 828,-183.2164 828,-173.8706"/>
<polygon fill="#191970" stroke="#191970" points="831.5001,-173.7292 828,-163.7292 824.5001,-173.7292 831.5001,-173.7292"/>
</g>
<!-- Node25 -->
<g id="node26" class="node">
<title>Node25</title>
<polygon fill="#ffffff" stroke="#bfbfbf" points="903,-129.5 903,-163.5 1013,-163.5 1013,-129.5 903,-129.5"/>
<text text-anchor="start" x="911" y="-149.9" font-family="Helvetica,sans-Serif" font-size="12.00" fill="#000000">boost/archive/text</text>
<text text-anchor="middle" x="958" y="-136.9" font-family="Helvetica,sans-Serif" font-size="12.00" fill="#000000">_oarchive.hpp</text>
</g>
<!-- Node2&#45;&gt;Node25 -->
<g id="edge34" class="edge">
<title>Node2&#45;&gt;Node25</title>
<path fill="none" stroke="#191970" d="M849.1761,-200.4934C866.8032,-191.7477 892.4788,-179.0086 914.464,-168.1005"/>
<polygon fill="#191970" stroke="#191970" points="916.2237,-171.1347 923.6261,-163.5547 913.1125,-164.864 916.2237,-171.1347"/>
</g>
<!-- Node26 -->
<g id="node27" class="node">
<title>Node26</title>
<polygon fill="#ffffff" stroke="#bfbfbf" points="1031,-129.5 1031,-163.5 1141,-163.5 1141,-129.5 1031,-129.5"/>
<text text-anchor="start" x="1039" y="-149.9" font-family="Helvetica,sans-Serif" font-size="12.00" fill="#000000">boost/archive/text</text>
<text text-anchor="middle" x="1086" y="-136.9" font-family="Helvetica,sans-Serif" font-size="12.00" fill="#000000">_iarchive.hpp</text>
</g>
<!-- Node2&#45;&gt;Node26 -->
<g id="edge35" class="edge">
<title>Node2&#45;&gt;Node26</title>
<path fill="none" stroke="#191970" d="M873.1729,-200.4506C910.3971,-191.6686 964.8071,-178.6292 1021.086,-164.202"/>
<polygon fill="#191970" stroke="#191970" points="1022.0569,-167.5662 1030.8692,-161.6847 1020.3125,-160.7871 1022.0569,-167.5662"/>
</g>
<!-- Node27 -->
<g id="node28" class="node">
<title>Node27</title>
<polygon fill="#ffffff" stroke="#bfbfbf" points="1159.5,-129.5 1159.5,-163.5 1272.5,-163.5 1272.5,-129.5 1159.5,-129.5"/>
<text text-anchor="start" x="1167.5" y="-149.9" font-family="Helvetica,sans-Serif" font-size="12.00" fill="#000000">boost/serialization</text>
<text text-anchor="middle" x="1216" y="-136.9" font-family="Helvetica,sans-Serif" font-size="12.00" fill="#000000">/export.hpp</text>
</g>
<!-- Node2&#45;&gt;Node27 -->
<g id="edge36" class="edge">
<title>Node2&#45;&gt;Node27</title>
<path fill="none" stroke="#191970" d="M891.3046,-201.4373C894.5833,-200.9494 897.8302,-200.468 901,-200 1008.4856,-184.1319 1038.7443,-186.229 1149.3381,-164.0082"/>
<polygon fill="#191970" stroke="#191970" points="1150.1133,-167.4223 1159.2168,-162.0022 1148.7203,-160.5623 1150.1133,-167.4223"/>
</g>
<!-- Node4&#45;&gt;Node3 -->
<g id="edge17" class="edge">
<title>Node4&#45;&gt;Node3</title>
<path fill="none" stroke="#191970" d="M673.4811,-135.8738C680.6168,-133.1929 688.5109,-130.6191 696,-129 921.5665,-80.2351 992.9578,-159.3222 1214,-93 1233.0615,-87.2807 1234.6917,-78.8009 1253,-71 1284.3408,-57.6462 1320.1048,-46.2076 1351.3135,-37.3758"/>
<polygon fill="#191970" stroke="#191970" points="1352.5808,-40.6561 1361.2747,-34.6008 1350.7022,-33.9129 1352.5808,-40.6561"/>
</g>
<!-- Node4&#45;&gt;Node5 -->
<g id="edge5" class="edge">
<title>Node4&#45;&gt;Node5</title>
<path fill="none" stroke="#191970" d="M611.2679,-140.7252C585.815,-136.9815 551.4457,-132.2199 521,-129 311.4743,-106.8406 250.4025,-143.6787 41.8468,-92.4649"/>
<polygon fill="#191970" stroke="#191970" points="42.6749,-89.0643 32.1251,-90.0406 40.9811,-95.8563 42.6749,-89.0643"/>
</g>
<!-- Node4&#45;&gt;Node6 -->
<g id="edge6" class="edge">
<title>Node4&#45;&gt;Node6</title>
<path fill="none" stroke="#191970" d="M673.4768,-135.8537C680.6124,-133.1725 688.5075,-130.6035 696,-129 935.9765,-77.64 1004.5353,-130.9135 1247,-93 1248.4586,-92.7719 1249.9397,-92.5182 1251.4319,-92.2439"/>
<polygon fill="#191970" stroke="#191970" points="1252.2481,-95.6492 1261.3263,-90.187 1250.8232,-88.7957 1252.2481,-95.6492"/>
</g>
<!-- Node4&#45;&gt;Node7 -->
<g id="edge7" class="edge">
<title>Node4&#45;&gt;Node7</title>
<path fill="none" stroke="#191970" d="M611.4989,-138.2245C595.4054,-134.929 576.3489,-131.3653 559,-129 358.0052,-101.5968 302.6056,-134.2997 104,-93 103.8993,-92.9791 103.7986,-92.9579 103.6977,-92.9365"/>
<polygon fill="#191970" stroke="#191970" points="104.7406,-89.592 94.1785,-90.4248 102.9546,-96.3603 104.7406,-89.592"/>
</g>
<!-- Node8 -->
<g id="node9" class="node">
<title>Node8</title>
<polygon fill="#ffffff" stroke="#bfbfbf" points="465.5,-71.5 465.5,-92.5 524.5,-92.5 524.5,-71.5 465.5,-71.5"/>
<text text-anchor="middle" x="495" y="-78.9" font-family="Helvetica,sans-Serif" font-size="12.00" fill="#000000">sstream</text>
</g>
<!-- Node4&#45;&gt;Node8 -->
<g id="edge8" class="edge">
<title>Node4&#45;&gt;Node8</title>
<path fill="none" stroke="#191970" d="M623.9145,-135.9934C598.1857,-125.2174 557.982,-108.3788 529.3163,-96.3727"/>
<polygon fill="#191970" stroke="#191970" points="530.6506,-93.137 520.0748,-92.5021 527.9463,-99.5936 530.6506,-93.137"/>
</g>
<!-- Node4&#45;&gt;Node9 -->
<g id="edge9" class="edge">
<title>Node4&#45;&gt;Node9</title>
<path fill="none" stroke="#191970" d="M674.8299,-135.9396C699.5602,-125.6279 737.7673,-109.1691 770,-93 787.7883,-84.0767 790.1258,-77.3099 809,-71 875.8042,-48.6664 1083.0957,-28.709 1171.9186,-20.9425"/>
<polygon fill="#191970" stroke="#191970" points="1172.2354,-24.4283 1181.8959,-20.078 1171.631,-17.4544 1172.2354,-24.4283"/>
</g>
<!-- Node4&#45;&gt;Node10 -->
<g id="edge10" class="edge">
<title>Node4&#45;&gt;Node10</title>
<path fill="none" stroke="#191970" d="M621.8128,-135.9841C613.9164,-133.305 605.2071,-130.7044 597,-129 415.5095,-91.3085 361.0236,-128.1627 175.6731,-92.9798"/>
<polygon fill="#191970" stroke="#191970" points="176.0808,-89.4937 165.5967,-91.0213 174.7451,-96.3651 176.0808,-89.4937"/>
</g>
<!-- Node11 -->
<g id="node12" class="node">
<title>Node11</title>
<polygon fill="#ffffff" stroke="#bfbfbf" points="543,-71.5 543,-92.5 643,-92.5 643,-71.5 543,-71.5"/>
<text text-anchor="middle" x="593" y="-78.9" font-family="Helvetica,sans-Serif" font-size="12.00" fill="#000000">gsl/gsl_vector.h</text>
</g>
<!-- Node4&#45;&gt;Node11 -->
<g id="edge11" class="edge">
<title>Node4&#45;&gt;Node11</title>
<path fill="none" stroke="#191970" d="M639.7527,-135.8491C631.4534,-126.2901 619.086,-112.0454 609.1554,-100.6076"/>
<polygon fill="#191970" stroke="#191970" points="611.6471,-98.1388 602.4482,-92.8823 606.3613,-102.728 611.6471,-98.1388"/>
</g>
<!-- Node12 -->
<g id="node13" class="node">
<title>Node12</title>
<polygon fill="#ffffff" stroke="#bfbfbf" points="661,-71.5 661,-92.5 761,-92.5 761,-71.5 661,-71.5"/>
<text text-anchor="middle" x="711" y="-78.9" font-family="Helvetica,sans-Serif" font-size="12.00" fill="#000000">gsl/gsl_matrix.h</text>
</g>
<!-- Node4&#45;&gt;Node12 -->
<g id="edge12" class="edge">
<title>Node4&#45;&gt;Node12</title>
<path fill="none" stroke="#191970" d="M659.238,-135.8491C668.5158,-126.1972 682.3854,-111.7684 693.4331,-100.2753"/>
<polygon fill="#191970" stroke="#191970" points="696.1328,-102.5172 700.5395,-92.8823 691.0862,-97.6662 696.1328,-102.5172"/>
</g>
<!-- Node13 -->
<g id="node14" class="node">
<title>Node13</title>
<polygon fill="#ffffff" stroke="#bfbfbf" points="817.5,-71.5 817.5,-92.5 914.5,-92.5 914.5,-71.5 817.5,-71.5"/>
<text text-anchor="middle" x="866" y="-78.9" font-family="Helvetica,sans-Serif" font-size="12.00" fill="#000000">gsl/gsl_linalg.h</text>
</g>
<!-- Node4&#45;&gt;Node13 -->
<g id="edge13" class="edge">
<title>Node4&#45;&gt;Node13</title>
<path fill="none" stroke="#191970" d="M676.1978,-135.9176C682.6515,-133.5334 689.5387,-131.0917 696,-129 735.2424,-116.296 780.2552,-103.9484 814.1008,-95.0995"/>
<polygon fill="#191970" stroke="#191970" points="814.9826,-98.4867 823.781,-92.5843 813.2222,-91.7116 814.9826,-98.4867"/>
</g>
<!-- Node14 -->
<g id="node15" class="node">
<title>Node14</title>
<polygon fill="#ffffff" stroke="#bfbfbf" points="933,-71.5 933,-92.5 1023,-92.5 1023,-71.5 933,-71.5"/>
<text text-anchor="middle" x="978" y="-78.9" font-family="Helvetica,sans-Serif" font-size="12.00" fill="#000000">gsl/gsl_blas.h</text>
</g>
<!-- Node4&#45;&gt;Node14 -->
<g id="edge14" class="edge">
<title>Node4&#45;&gt;Node14</title>
<path fill="none" stroke="#191970" d="M674.5592,-135.929C681.4333,-133.3777 688.9254,-130.8556 696,-129 792.1309,-103.785 821.2382,-110.7596 922.8801,-93.1188"/>
<polygon fill="#191970" stroke="#191970" points="923.7126,-96.5259 932.9475,-91.3329 922.4899,-89.6335 923.7126,-96.5259"/>
</g>
<!-- Node15 -->
<g id="node16" class="node">
<title>Node15</title>
<polygon fill="#ffffff" stroke="#bfbfbf" points="1041,-71.5 1041,-92.5 1131,-92.5 1131,-71.5 1041,-71.5"/>
<text text-anchor="middle" x="1086" y="-78.9" font-family="Helvetica,sans-Serif" font-size="12.00" fill="#000000">gsl/gsl_poly.h</text>
</g>
<!-- Node4&#45;&gt;Node15 -->
<g id="edge15" class="edge">
<title>Node4&#45;&gt;Node15</title>
<path fill="none" stroke="#191970" d="M674.0096,-135.8716C681.0163,-133.2575 688.7119,-130.7187 696,-129 839.038,-95.2692 881.7582,-115.1172 1030.99,-93.0191"/>
<polygon fill="#191970" stroke="#191970" points="1031.6152,-96.4644 1040.9759,-91.5019 1030.5636,-89.5438 1031.6152,-96.4644"/>
</g>
<!-- Node16 -->
<g id="node17" class="node">
<title>Node16</title>
<polygon fill="#ffffff" stroke="#bfbfbf" points="1149.5,-71.5 1149.5,-92.5 1204.5,-92.5 1204.5,-71.5 1149.5,-71.5"/>
<text text-anchor="middle" x="1177" y="-78.9" font-family="Helvetica,sans-Serif" font-size="12.00" fill="#000000">cassert</text>
</g>
<!-- Node4&#45;&gt;Node16 -->
<g id="edge16" class="edge">
<title>Node4&#45;&gt;Node16</title>
<path fill="none" stroke="#191970" d="M673.4933,-135.9295C680.6292,-133.2495 688.5203,-130.6622 696,-129 886.0578,-86.7646 943.4937,-127.9905 1139.2385,-92.7678"/>
<polygon fill="#191970" stroke="#191970" points="1140.0721,-96.1732 1149.2716,-90.9178 1138.8027,-89.2892 1140.0721,-96.1732"/>
</g>
<!-- Node4&#45;&gt;Node17 -->
<g id="edge18" class="edge">
<title>Node4&#45;&gt;Node17</title>
<path fill="none" stroke="#191970" d="M672.9828,-135.9955C680.2444,-133.2474 688.3303,-130.6073 696,-129 972.2309,-71.1106 1049.2394,-121.7784 1330,-93 1342.1919,-91.7503 1355.4497,-89.9274 1367.3313,-88.1237"/>
<polygon fill="#191970" stroke="#191970" points="1368.0167,-91.5591 1377.3571,-86.5583 1366.9369,-84.6429 1368.0167,-91.5591"/>
</g>
<!-- Node20 -->
<g id="node21" class="node">
<title>Node20</title>
<g id="a_node21"><a xlink:href="AstronomicalConstants_8h.html" target="_top" xlink:title="Defines various astronomical constants. ">
<polygon fill="#ffffff" stroke="#000000" points="183,-71.5 183,-92.5 333,-92.5 333,-71.5 183,-71.5"/>
<text text-anchor="middle" x="258" y="-78.9" font-family="Helvetica,sans-Serif" font-size="12.00" fill="#000000">AstronomicalConstants.h</text>
</a>
</g>
</g>
<!-- Node4&#45;&gt;Node20 -->
<g id="edge23" class="edge">
<title>Node4&#45;&gt;Node20</title>
<path fill="none" stroke="#191970" d="M620.9405,-135.99C613.2614,-133.4078 604.8811,-130.8553 597,-129 584.7284,-126.1112 439.6903,-106.3899 343.3447,-93.428"/>
<polygon fill="#191970" stroke="#191970" points="343.6841,-89.9422 333.3069,-92.0783 342.7512,-96.8798 343.6841,-89.9422"/>
</g>
<!-- Node21 -->
<g id="node22" class="node">
<title>Node21</title>
<g id="a_node22"><a xlink:href="IncludeEigen_8h_source.html" target="_top" xlink:title="IncludeEigen.h">
<polygon fill="#ffffff" stroke="#000000" points="350.5,-71.5 350.5,-92.5 447.5,-92.5 447.5,-71.5 350.5,-71.5"/>
<text text-anchor="middle" x="399" y="-78.9" font-family="Helvetica,sans-Serif" font-size="12.00" fill="#000000">IncludeEigen.h</text>
</a>
</g>
</g>
<!-- Node4&#45;&gt;Node21 -->
<g id="edge24" class="edge">
<title>Node4&#45;&gt;Node21</title>
<path fill="none" stroke="#191970" d="M619.1746,-135.9414C611.9557,-133.5306 604.2343,-131.0712 597,-129 550.6003,-115.7155 497.3388,-103.2253 457.7516,-94.4646"/>
<polygon fill="#191970" stroke="#191970" points="458.2561,-90.992 447.7379,-92.2635 456.7533,-97.8288 458.2561,-90.992"/>
</g>
<!-- Node17&#45;&gt;Node3 -->
<g id="edge19" class="edge">
<title>Node17&#45;&gt;Node3</title>
<path fill="none" stroke="#191970" d="M1408.4585,-71.3491C1411.5814,-63.8888 1415.899,-53.5746 1419.9204,-43.968"/>
<polygon fill="#191970" stroke="#191970" points="1423.1549,-45.3051 1423.7878,-34.7292 1416.6978,-42.6021 1423.1549,-45.3051"/>
</g>
<!-- Node17&#45;&gt;Node9 -->
<g id="edge20" class="edge">
<title>Node17&#45;&gt;Node9</title>
<path fill="none" stroke="#191970" d="M1377.2413,-74.642C1346.822,-66.0541 1295.8303,-50.9789 1253,-35 1250.4899,-34.0636 1247.9105,-33.0521 1245.3288,-32.0043"/>
<polygon fill="#191970" stroke="#191970" points="1246.6633,-28.7686 1236.0884,-28.1188 1243.95,-35.2214 1246.6633,-28.7686"/>
</g>
<!-- Node18 -->
<g id="node19" class="node">
<title>Node18</title>
<polygon fill="#ffffff" stroke="#bfbfbf" points="1262,-7 1262,-28 1330,-28 1330,-7 1262,-7"/>
<text text-anchor="middle" x="1296" y="-14.4" font-family="Helvetica,sans-Serif" font-size="12.00" fill="#000000">exception</text>
</g>
<!-- Node17&#45;&gt;Node18 -->
<g id="edge21" class="edge">
<title>Node17&#45;&gt;Node18</title>
<path fill="none" stroke="#191970" d="M1386.166,-71.3491C1368.8912,-61.0322 1342.4775,-45.2574 1322.6968,-33.4439"/>
<polygon fill="#191970" stroke="#191970" points="1324.2406,-30.2892 1313.8605,-28.1667 1320.6513,-36.2991 1324.2406,-30.2892"/>
</g>
<!-- Node19 -->
<g id="node20" class="node">
<title>Node19</title>
<polygon fill="#ffffff" stroke="#bfbfbf" points="1532,-7 1532,-28 1578,-28 1578,-7 1532,-7"/>
<text text-anchor="middle" x="1555" y="-14.4" font-family="Helvetica,sans-Serif" font-size="12.00" fill="#000000">string</text>
</g>
<!-- Node17&#45;&gt;Node19 -->
<g id="edge22" class="edge">
<title>Node17&#45;&gt;Node19</title>
<path fill="none" stroke="#191970" d="M1430.8688,-72.4758C1455.2541,-63.577 1492.0258,-49.5176 1523,-35 1524.5373,-34.2795 1526.1036,-33.5179 1527.676,-32.7318"/>
<polygon fill="#191970" stroke="#191970" points="1529.3453,-35.8086 1536.5881,-28.076 1526.1041,-29.6042 1529.3453,-35.8086"/>
</g>
<!-- Node22 -->
<g id="node23" class="node">
<title>Node22</title>
<polygon fill="#ffffff" stroke="#bfbfbf" points="356,-7 356,-28 442,-28 442,-7 356,-7"/>
<text text-anchor="middle" x="399" y="-14.4" font-family="Helvetica,sans-Serif" font-size="12.00" fill="#000000">Eigen/Dense</text>
</g>
<!-- Node21&#45;&gt;Node22 -->
<g id="edge25" class="edge">
<title>Node21&#45;&gt;Node22</title>
<path fill="none" stroke="#191970" d="M399,-71.3491C399,-62.4397 399,-49.4599 399,-38.4761"/>
<polygon fill="#191970" stroke="#191970" points="402.5001,-38.3822 399,-28.3823 395.5001,-38.3823 402.5001,-38.3822"/>
</g>
</g>
</svg>
        <g id="navigator" transform="translate(0 0)" fill="#404254">
                <rect fill="#f2f5e9" fill-opacity="0.5" stroke="#606060" stroke-width=".5" x="0" y="0" width="60" height="60"/>
                <use id="zoomplus" xlink:href="#zoomPlus" x="17" y="9" onmousedown="handleZoom(evt,'in')"/>
                <use id="zoomminus" xlink:href="#zoomMin" x="42" y="9" onmousedown="handleZoom(evt,'out')"/>
                <use id="reset" xlink:href="#resetDef" x="30" y="36" onmousedown="handleReset()"/>
                <g id="arrowUp" xlink:href="#dirArrow" transform="translate(30 24)" onmousedown="handlePan(0,-1)">
                  <use xlink:href="#rim" fill="#404040">
                        <set attributeName="fill" to="#808080" begin="arrowUp.mouseover" end="arrowUp.mouseout"/>
                  </use>
                  <path fill="none" stroke="white" stroke-width="1.5" d="M0,-3.0v7 M-2.5,-0.5L0,-3.0L2.5,-0.5"/>
                </g>
                <g id="arrowRight" xlink:href="#dirArrow" transform="rotate(90) translate(36 -43)" onmousedown="handlePan(1,0)">
                  <use xlink:href="#rim" fill="#404040">
                        <set attributeName="fill" to="#808080" begin="arrowRight.mouseover" end="arrowRight.mouseout"/>
                  </use>
                  <path fill="none" stroke="white" stroke-width="1.5" d="M0,-3.0v7 M-2.5,-0.5L0,-3.0L2.5,-0.5"/>
                </g>
                <g id="arrowDown" xlink:href="#dirArrow" transform="rotate(180) translate(-30 -48)" onmousedown="handlePan(0,1)">
                  <use xlink:href="#rim" fill="#404040">
                        <set attributeName="fill" to="#808080" begin="arrowDown.mouseover" end="arrowDown.mouseout"/>
                  </use>
                  <path fill="none" stroke="white" stroke-width="1.5" d="M0,-3.0v7 M-2.5,-0.5L0,-3.0L2.5,-0.5"/>
                </g>
                <g id="arrowLeft" xlink:href="#dirArrow" transform="rotate(270) translate(-36 17)" onmousedown="handlePan(-1,0)">
                  <use xlink:href="#rim" fill="#404040">
                        <set attributeName="fill" to="#808080" begin="arrowLeft.mouseover" end="arrowLeft.mouseout"/>
                  </use>
                  <path fill="none" stroke="white" stroke-width="1.5" d="M0,-3.0v7 M-2.5,-0.5L0,-3.0L2.5,-0.5"/>
                </g>
        </g>
        <svg viewBox="0 0 15 15" width="100%" height="30px" preserveAspectRatio="xMaxYMin meet">
         <g id="arrow_out" transform="scale(0.3 0.3)">
          <a xlink:href="TransformedSolution_8h__incl_org.svg" target="_base">
           <rect id="button" ry="5" rx="5" y="6" x="6" height="38" width="38"
                fill="#f2f5e9" fill-opacity="0.5" stroke="#606060" stroke-width="1.0"/>
           <path id="arrow"
             d="M 11.500037,31.436501 C 11.940474,20.09759 22.043105,11.32322 32.158766,21.979434 L 37.068811,17.246167 C 37.068811,17.246167 37.088388,32 37.088388,32 L 22.160133,31.978069 C 22.160133,31.978069 26.997745,27.140456 26.997745,27.140456 C 18.528582,18.264221 13.291696,25.230495 11.500037,31.436501 z"
             style="fill:#404040;"/>
          </a>
         </g>
        </svg>
</svg>
