<?xml version="1.0" encoding="UTF-8" standalone="no"?>
<!DOCTYPE svg PUBLIC "-//W3C//DTD SVG 1.1//EN"
 "http://www.w3.org/Graphics/SVG/1.1/DTD/svg11.dtd">
<!-- Generated by graphviz version 2.40.1 (20161225.0304)
 -->
<!-- Title: /home/kpenev/projects/git/poet/poet_src/unit_tests/testEvolve/TransformedSolution.h Pages: 1 -->
<svg width="572pt" height="224pt"
 viewBox="0.00 0.00 572.00 224.00" xmlns="http://www.w3.org/2000/svg" xmlns:xlink="http://www.w3.org/1999/xlink">
<g id="graph0" class="graph" transform="scale(1 1) rotate(0) translate(4 220)">
<title>/home/kpenev/projects/git/poet/poet_src/unit_tests/testEvolve/TransformedSolution.h</title>
<polygon fill="#ffffff" stroke="transparent" points="-4,4 -4,-220 568,-220 568,4 -4,4"/>
<!-- Node29 -->
<g id="node1" class="node">
<title>Node29</title>
<polygon fill="#bfbfbf" stroke="#000000" points="206.5,-168.5 206.5,-215.5 437.5,-215.5 437.5,-168.5 206.5,-168.5"/>
<text text-anchor="start" x="214.5" y="-201.9" font-family="Helvetica,sans-Serif" font-size="12.00" fill="#000000">/home/kpenev/projects</text>
<text text-anchor="start" x="214.5" y="-188.9" font-family="Helvetica,sans-Serif" font-size="12.00" fill="#000000">/git/poet/poet_src/unit</text>
<text text-anchor="middle" x="322" y="-175.9" font-family="Helvetica,sans-Serif" font-size="12.00" fill="#000000">_tests/testEvolve/TransformedSolution.h</text>
</g>
<!-- Node30 -->
<g id="node2" class="node">
<title>Node30</title>
<g id="a_node2"><a xlink:href="testOrbitSolver_8h.html" target="_top" xlink:title="Declares the test suite that exercises the OrbitSolver class and some other clasess necessary to acco...">
<polygon fill="#ffffff" stroke="#000000" points="104,-84.5 104,-131.5 302,-131.5 302,-84.5 104,-84.5"/>
<text text-anchor="start" x="112" y="-117.9" font-family="Helvetica,sans-Serif" font-size="12.00" fill="#000000">/home/kpenev/projects</text>
<text text-anchor="start" x="112" y="-104.9" font-family="Helvetica,sans-Serif" font-size="12.00" fill="#000000">/git/poet/poet_src/unit</text>
<text text-anchor="middle" x="203" y="-91.9" font-family="Helvetica,sans-Serif" font-size="12.00" fill="#000000">_tests/testEvolve/testOrbitSolver.h</text>
</a>
</g>
</g>
<!-- Node29&#45;&gt;Node30 -->
<g id="edge1" class="edge">
<title>Node29&#45;&gt;Node30</title>
<path fill="none" stroke="#191970" d="M280.3186,-162.5779C266.0185,-152.4837 250.2057,-141.3217 236.6259,-131.736"/>
<polygon fill="#191970" stroke="#191970" points="278.3471,-165.4703 288.5352,-168.3778 282.3839,-159.7515 278.3471,-165.4703"/>
</g>
<!-- Node33 -->
<g id="node5" class="node">
<title>Node33</title>
<g id="a_node5"><a xlink:href="TransformedSolution_8cpp_source.html" target="_top" xlink:title="/home/kpenev/projects\l/git/poet/poet_src/unit\l_tests/testEvolve/TransformedSolution.cpp">
<polygon fill="#ffffff" stroke="#000000" points="320,-84.5 320,-131.5 564,-131.5 564,-84.5 320,-84.5"/>
<text text-anchor="start" x="328" y="-117.9" font-family="Helvetica,sans-Serif" font-size="12.00" fill="#000000">/home/kpenev/projects</text>
<text text-anchor="start" x="328" y="-104.9" font-family="Helvetica,sans-Serif" font-size="12.00" fill="#000000">/git/poet/poet_src/unit</text>
<text text-anchor="middle" x="442" y="-91.9" font-family="Helvetica,sans-Serif" font-size="12.00" fill="#000000">_tests/testEvolve/TransformedSolution.cpp</text>
</a>
</g>
</g>
<!-- Node29&#45;&gt;Node33 -->
<g id="edge4" class="edge">
<title>Node29&#45;&gt;Node33</title>
<path fill="none" stroke="#191970" d="M364.0316,-162.5779C378.4519,-152.4837 394.3976,-141.3217 408.0915,-131.736"/>
<polygon fill="#191970" stroke="#191970" points="361.9312,-159.7758 355.746,-168.3778 365.9455,-165.5104 361.9312,-159.7758"/>
</g>
<!-- Node31 -->
<g id="node3" class="node">
<title>Node31</title>
<g id="a_node3"><a xlink:href="testEvolve_8cpp_source.html" target="_top" xlink:title="/home/kpenev/projects\l/git/poet/poet_src/unit\l_tests/testEvolve/testEvolve.cpp">
<polygon fill="#ffffff" stroke="#000000" points="0,-.5 0,-47.5 188,-47.5 188,-.5 0,-.5"/>
<text text-anchor="start" x="8" y="-33.9" font-family="Helvetica,sans-Serif" font-size="12.00" fill="#000000">/home/kpenev/projects</text>
<text text-anchor="start" x="8" y="-20.9" font-family="Helvetica,sans-Serif" font-size="12.00" fill="#000000">/git/poet/poet_src/unit</text>
<text text-anchor="middle" x="94" y="-7.9" font-family="Helvetica,sans-Serif" font-size="12.00" fill="#000000">_tests/testEvolve/testEvolve.cpp</text>
</a>
</g>
</g>
<!-- Node30&#45;&gt;Node31 -->
<g id="edge2" class="edge">
<title>Node30&#45;&gt;Node31</title>
<path fill="none" stroke="#191970" d="M164.0853,-78.0107C151.1821,-68.067 137.0063,-57.1425 124.8002,-47.736"/>
<polygon fill="#191970" stroke="#191970" points="162.29,-81.0459 172.3474,-84.3778 166.563,-75.5013 162.29,-81.0459"/>
</g>
<!-- Node32 -->
<g id="node4" class="node">
<title>Node32</title>
<g id="a_node4"><a xlink:href="testOrbitSolver_8cpp.html" target="_top" xlink:title="Defines some of the methods of the test suite that exercises the OrbitSolver class and the other clas...">
<polygon fill="#ffffff" stroke="#000000" points="206.5,-.5 206.5,-47.5 417.5,-47.5 417.5,-.5 206.5,-.5"/>
<text text-anchor="start" x="214.5" y="-33.9" font-family="Helvetica,sans-Serif" font-size="12.00" fill="#000000">/home/kpenev/projects</text>
<text text-anchor="start" x="214.5" y="-20.9" font-family="Helvetica,sans-Serif" font-size="12.00" fill="#000000">/git/poet/poet_src/unit</text>
<text text-anchor="middle" x="312" y="-7.9" font-family="Helvetica,sans-Serif" font-size="12.00" fill="#000000">_tests/testEvolve/testOrbitSolver.cpp</text>
</a>
</g>
</g>
<!-- Node30&#45;&gt;Node32 -->
<g id="edge3" class="edge">
<title>Node30&#45;&gt;Node32</title>
<path fill="none" stroke="#191970" d="M241.9147,-78.0107C254.8179,-68.067 268.9937,-57.1425 281.1998,-47.736"/>
<polygon fill="#191970" stroke="#191970" points="239.437,-75.5013 233.6526,-84.3778 243.71,-81.0459 239.437,-75.5013"/>
</g>
</g>
</svg>
