<?xml version="1.0" encoding="UTF-8" standalone="no"?>
<!DOCTYPE svg PUBLIC "-//W3C//DTD SVG 1.1//EN"
 "http://www.w3.org/Graphics/SVG/1.1/DTD/svg11.dtd">
<!-- Generated by graphviz version 2.40.1 (20161225.0304)
 -->
<!-- Title: /home/kpenev/projects/git/poet/poet_src/Star/WindSaturationCondition.h Pages: 1 -->
<svg width="2323pt" height="604pt"
 viewBox="0.00 0.00 2323.00 604.00" xmlns="http://www.w3.org/2000/svg" xmlns:xlink="http://www.w3.org/1999/xlink">
<g id="graph0" class="graph" transform="scale(1 1) rotate(0) translate(4 600)">
<title>/home/kpenev/projects/git/poet/poet_src/Star/WindSaturationCondition.h</title>
<polygon fill="#ffffff" stroke="transparent" points="-4,4 -4,-600 2319,-600 2319,4 -4,4"/>
<!-- Node0 -->
<g id="node1" class="node">
<title>Node0</title>
<polygon fill="#bfbfbf" stroke="#000000" points="0,-548.5 0,-595.5 164,-595.5 164,-548.5 0,-548.5"/>
<text text-anchor="start" x="8" y="-581.9" font-family="Helvetica,sans-Serif" font-size="12.00" fill="#000000">/home/kpenev/projects</text>
<text text-anchor="start" x="8" y="-568.9" font-family="Helvetica,sans-Serif" font-size="12.00" fill="#000000">/git/poet/poet_src/Star</text>
<text text-anchor="middle" x="82" y="-555.9" font-family="Helvetica,sans-Serif" font-size="12.00" fill="#000000">/WindSaturationCondition.h</text>
</g>
<!-- Node1 -->
<g id="node2" class="node">
<title>Node1</title>
<g id="a_node2"><a xlink:href="SharedLibraryExportMacros_8h_source.html" target="_top" xlink:title="../Core/SharedLibraryExport\lMacros.h">
<polygon fill="#ffffff" stroke="#000000" points="1299.5,-.5 1299.5,-34.5 1464.5,-34.5 1464.5,-.5 1299.5,-.5"/>
<text text-anchor="start" x="1307.5" y="-20.9" font-family="Helvetica,sans-Serif" font-size="12.00" fill="#000000">../Core/SharedLibraryExport</text>
<text text-anchor="middle" x="1382" y="-7.9" font-family="Helvetica,sans-Serif" font-size="12.00" fill="#000000">Macros.h</text>
</a>
</g>
</g>
<!-- Node0&#45;&gt;Node1 -->
<g id="edge1" class="edge">
<title>Node0&#45;&gt;Node1</title>
<path fill="none" stroke="#191970" d="M57.5348,-548.2747C35.3176,-524.083 6,-484.3298 6,-443 6,-443 6,-443 6,-140 6,-98.7719 30.6942,-88.5509 68,-71 123.0945,-45.0802 998.9614,-25.2056 1289.3061,-19.3021"/>
<polygon fill="#191970" stroke="#191970" points="1289.4582,-22.7999 1299.3853,-19.098 1289.3164,-15.8013 1289.4582,-22.7999"/>
</g>
<!-- Node2 -->
<g id="node3" class="node">
<title>Node2</title>
<g id="a_node3"><a xlink:href="StoppingCondition_8h.html" target="_top" xlink:title="Defines the various stopping conditions needed by OrbitSolver. ">
<polygon fill="#ffffff" stroke="#000000" points="731.5,-187.5 731.5,-208.5 906.5,-208.5 906.5,-187.5 731.5,-187.5"/>
<text text-anchor="middle" x="819" y="-194.9" font-family="Helvetica,sans-Serif" font-size="12.00" fill="#000000">../Evolve/StoppingCondition.h</text>
</a>
</g>
</g>
<!-- Node0&#45;&gt;Node2 -->
<g id="edge2" class="edge">
<title>Node0&#45;&gt;Node2</title>
<path fill="none" stroke="#191970" d="M119.4037,-548.4958C146.4969,-531.7055 184.1568,-508.8466 218,-490 426.5656,-373.8542 477.9567,-342.1933 696,-245 723.3433,-232.8116 754.8988,-220.7941 779.2017,-211.962"/>
<polygon fill="#191970" stroke="#191970" points="780.5833,-215.1845 788.8039,-208.5007 778.2095,-208.5993 780.5833,-215.1845"/>
</g>
<!-- Node22 -->
<g id="node23" class="node">
<title>Node22</title>
<g id="a_node23"><a xlink:href="SaturatingSkumanichWindBody_8h.html" target="_top" xlink:title="Decrales a body subject to angular momentum loss . ">
<polygon fill="#ffffff" stroke="#000000" points="226.5,-490.5 226.5,-511.5 423.5,-511.5 423.5,-490.5 226.5,-490.5"/>
<text text-anchor="middle" x="325" y="-497.9" font-family="Helvetica,sans-Serif" font-size="12.00" fill="#000000">SaturatingSkumanichWindBody.h</text>
</a>
</g>
</g>
<!-- Node0&#45;&gt;Node22 -->
<g id="edge27" class="edge">
<title>Node0&#45;&gt;Node22</title>
<path fill="none" stroke="#191970" d="M162.578,-548.4566C201.2655,-537.1529 246.2206,-524.0178 279.0144,-514.4361"/>
<polygon fill="#191970" stroke="#191970" points="280.1639,-517.7467 288.7809,-511.5825 278.2006,-511.0276 280.1639,-517.7467"/>
</g>
<!-- Node2&#45;&gt;Node1 -->
<g id="edge3" class="edge">
<title>Node2&#45;&gt;Node1</title>
<path fill="none" stroke="#191970" d="M754.7443,-187.4904C636.788,-166.8725 401.7247,-118.94 447,-71 475.6178,-40.6979 1058.401,-24.6121 1289.124,-19.4116"/>
<polygon fill="#191970" stroke="#191970" points="1289.2582,-22.9095 1299.1775,-19.1868 1289.1017,-15.9113 1289.2582,-22.9095"/>
</g>
<!-- Node3 -->
<g id="node4" class="node">
<title>Node3</title>
<g id="a_node4"><a xlink:href="Core_2Common_8h.html" target="_top" xlink:title="Declaration of some general purpose utilities. ">
<polygon fill="#ffffff" stroke="#000000" points="755.5,-129.5 755.5,-150.5 868.5,-150.5 868.5,-129.5 755.5,-129.5"/>
<text text-anchor="middle" x="812" y="-136.9" font-family="Helvetica,sans-Serif" font-size="12.00" fill="#000000">../Core/Common.h</text>
</a>
</g>
</g>
<!-- Node2&#45;&gt;Node3 -->
<g id="edge4" class="edge">
<title>Node2&#45;&gt;Node3</title>
<path fill="none" stroke="#191970" d="M817.7161,-187.3619C816.8182,-179.9219 815.5896,-169.7427 814.5016,-160.7276"/>
<polygon fill="#191970" stroke="#191970" points="817.9488,-160.0792 813.2758,-150.5707 810.9993,-160.918 817.9488,-160.0792"/>
</g>
<!-- Node15 -->
<g id="node16" class="node">
<title>Node15</title>
<polygon fill="#ffffff" stroke="#bfbfbf" points="1298.5,-71.5 1298.5,-92.5 1353.5,-92.5 1353.5,-71.5 1298.5,-71.5"/>
<text text-anchor="middle" x="1326" y="-78.9" font-family="Helvetica,sans-Serif" font-size="12.00" fill="#000000">cassert</text>
</g>
<!-- Node2&#45;&gt;Node15 -->
<g id="edge26" class="edge">
<title>Node2&#45;&gt;Node15</title>
<path fill="none" stroke="#191970" d="M835.4609,-187.4904C860.8633,-171.8397 911.6465,-142.7771 959,-129 1097.8957,-88.5894 1143.0192,-121.2149 1288.0668,-93.0886"/>
<polygon fill="#191970" stroke="#191970" points="1289.1088,-96.4494 1298.2257,-91.052 1287.7328,-89.586 1289.1088,-96.4494"/>
</g>
<!-- Node3&#45;&gt;Node1 -->
<g id="edge17" class="edge">
<title>Node3&#45;&gt;Node1</title>
<path fill="none" stroke="#191970" d="M868.5588,-132.8217C954.6083,-121.7455 1111.0884,-100.9382 1136,-93 1156.4538,-86.4823 1158.9493,-78.6686 1179,-71 1214.9392,-57.2546 1255.7606,-45.7475 1291.3252,-36.9702"/>
<polygon fill="#191970" stroke="#191970" points="1292.3183,-40.3308 1301.2084,-34.5674 1290.6646,-33.529 1292.3183,-40.3308"/>
</g>
<!-- Node4 -->
<g id="node5" class="node">
<title>Node4</title>
<polygon fill="#ffffff" stroke="#bfbfbf" points="1095,-71.5 1095,-92.5 1127,-92.5 1127,-71.5 1095,-71.5"/>
<text text-anchor="middle" x="1111" y="-78.9" font-family="Helvetica,sans-Serif" font-size="12.00" fill="#000000">list</text>
</g>
<!-- Node3&#45;&gt;Node4 -->
<g id="edge5" class="edge">
<title>Node3&#45;&gt;Node4</title>
<path fill="none" stroke="#191970" d="M868.6461,-131.0424C936.2292,-120.2482 1044.3615,-102.6067 1085.0299,-92.5038"/>
<polygon fill="#191970" stroke="#191970" points="1086.101,-95.8391 1094.8104,-89.8061 1084.2397,-89.0911 1086.101,-95.8391"/>
</g>
<!-- Node5 -->
<g id="node6" class="node">
<title>Node5</title>
<polygon fill="#ffffff" stroke="#bfbfbf" points="186.5,-71.5 186.5,-92.5 245.5,-92.5 245.5,-71.5 186.5,-71.5"/>
<text text-anchor="middle" x="216" y="-78.9" font-family="Helvetica,sans-Serif" font-size="12.00" fill="#000000">valarray</text>
</g>
<!-- Node3&#45;&gt;Node5 -->
<g id="edge6" class="edge">
<title>Node3&#45;&gt;Node5</title>
<path fill="none" stroke="#191970" d="M755.4001,-138.7815C655.9913,-135.8678 443.5815,-126.1899 255.7327,-92.814"/>
<polygon fill="#191970" stroke="#191970" points="256.1362,-89.3304 245.6737,-90.9996 254.8936,-96.2192 256.1362,-89.3304"/>
</g>
<!-- Node6 -->
<g id="node7" class="node">
<title>Node6</title>
<polygon fill="#ffffff" stroke="#bfbfbf" points="1774,-71.5 1774,-92.5 1818,-92.5 1818,-71.5 1774,-71.5"/>
<text text-anchor="middle" x="1796" y="-78.9" font-family="Helvetica,sans-Serif" font-size="12.00" fill="#000000">limits</text>
</g>
<!-- Node3&#45;&gt;Node6 -->
<g id="edge7" class="edge">
<title>Node3&#45;&gt;Node6</title>
<path fill="none" stroke="#191970" d="M868.7462,-136.4937C904.1794,-134.3138 950.7467,-131.4663 992,-129 1291.9001,-111.0707 1654.7739,-90.1279 1763.6327,-83.8613"/>
<polygon fill="#191970" stroke="#191970" points="1764.1544,-87.3372 1773.9368,-83.2683 1763.7522,-80.3487 1764.1544,-87.3372"/>
</g>
<!-- Node7 -->
<g id="node8" class="node">
<title>Node7</title>
<polygon fill="#ffffff" stroke="#bfbfbf" points="1221.5,-71.5 1221.5,-92.5 1280.5,-92.5 1280.5,-71.5 1221.5,-71.5"/>
<text text-anchor="middle" x="1251" y="-78.9" font-family="Helvetica,sans-Serif" font-size="12.00" fill="#000000">sstream</text>
</g>
<!-- Node3&#45;&gt;Node7 -->
<g id="edge8" class="edge">
<title>Node3&#45;&gt;Node7</title>
<path fill="none" stroke="#191970" d="M868.5496,-131.0142C873.4334,-130.3063 878.3014,-129.6247 883,-129 1026.6223,-109.9043 1064.3984,-118.6278 1207,-93 1208.4531,-92.7389 1209.9294,-92.457 1211.4176,-92.1587"/>
<polygon fill="#191970" stroke="#191970" points="1212.2725,-95.5546 1221.2951,-90.0009 1210.7785,-88.7159 1212.2725,-95.5546"/>
</g>
<!-- Node8 -->
<g id="node9" class="node">
<title>Node8</title>
<polygon fill="#ffffff" stroke="#bfbfbf" points="1853,-7 1853,-28 1915,-28 1915,-7 1853,-7"/>
<text text-anchor="middle" x="1884" y="-14.4" font-family="Helvetica,sans-Serif" font-size="12.00" fill="#000000">iostream</text>
</g>
<!-- Node3&#45;&gt;Node8 -->
<g id="edge9" class="edge">
<title>Node3&#45;&gt;Node8</title>
<path fill="none" stroke="#191970" d="M868.686,-132.8369C968.0411,-120.2464 1163.855,-95.26 1171,-93 1191.0914,-86.645 1192.7542,-76.8445 1213,-71 1332.3096,-36.5578 1715.9724,-22.43 1842.8408,-18.6248"/>
<polygon fill="#191970" stroke="#191970" points="1843.0275,-22.1209 1852.9201,-18.3282 1842.8215,-15.124 1843.0275,-22.1209"/>
</g>
<!-- Node9 -->
<g id="node10" class="node">
<title>Node9</title>
<polygon fill="#ffffff" stroke="#bfbfbf" points="455.5,-71.5 455.5,-92.5 508.5,-92.5 508.5,-71.5 455.5,-71.5"/>
<text text-anchor="middle" x="482" y="-78.9" font-family="Helvetica,sans-Serif" font-size="12.00" fill="#000000">iterator</text>
</g>
<!-- Node3&#45;&gt;Node9 -->
<g id="edge10" class="edge">
<title>Node3&#45;&gt;Node9</title>
<path fill="none" stroke="#191970" d="M755.4654,-133.3184C698.0899,-126.0095 606.6115,-112.9087 518.5164,-92.8667"/>
<polygon fill="#191970" stroke="#191970" points="519.1563,-89.4225 508.6253,-90.5835 517.5818,-96.2431 519.1563,-89.4225"/>
</g>
<!-- Node10 -->
<g id="node11" class="node">
<title>Node10</title>
<polygon fill="#ffffff" stroke="#bfbfbf" points="527,-71.5 527,-92.5 627,-92.5 627,-71.5 527,-71.5"/>
<text text-anchor="middle" x="577" y="-78.9" font-family="Helvetica,sans-Serif" font-size="12.00" fill="#000000">gsl/gsl_vector.h</text>
</g>
<!-- Node3&#45;&gt;Node10 -->
<g id="edge11" class="edge">
<title>Node3&#45;&gt;Node10</title>
<path fill="none" stroke="#191970" d="M769.4433,-129.4966C730.1368,-119.7955 671.6269,-105.3547 629.4477,-94.9445"/>
<polygon fill="#191970" stroke="#191970" points="630.1839,-91.5213 619.6365,-92.5231 628.5065,-98.3174 630.1839,-91.5213"/>
</g>
<!-- Node11 -->
<g id="node12" class="node">
<title>Node11</title>
<polygon fill="#ffffff" stroke="#bfbfbf" points="645,-71.5 645,-92.5 745,-92.5 745,-71.5 645,-71.5"/>
<text text-anchor="middle" x="695" y="-78.9" font-family="Helvetica,sans-Serif" font-size="12.00" fill="#000000">gsl/gsl_matrix.h</text>
</g>
<!-- Node3&#45;&gt;Node11 -->
<g id="edge12" class="edge">
<title>Node3&#45;&gt;Node11</title>
<path fill="none" stroke="#191970" d="M790.8122,-129.4966C772.5383,-120.4378 745.9276,-107.2462 725.3852,-97.0628"/>
<polygon fill="#191970" stroke="#191970" points="726.9396,-93.9269 716.4256,-92.6212 723.8306,-100.1986 726.9396,-93.9269"/>
</g>
<!-- Node12 -->
<g id="node13" class="node">
<title>Node12</title>
<polygon fill="#ffffff" stroke="#bfbfbf" points="763.5,-71.5 763.5,-92.5 860.5,-92.5 860.5,-71.5 763.5,-71.5"/>
<text text-anchor="middle" x="812" y="-78.9" font-family="Helvetica,sans-Serif" font-size="12.00" fill="#000000">gsl/gsl_linalg.h</text>
</g>
<!-- Node3&#45;&gt;Node12 -->
<g id="edge13" class="edge">
<title>Node3&#45;&gt;Node12</title>
<path fill="none" stroke="#191970" d="M812,-129.3619C812,-121.9219 812,-111.7427 812,-102.7276"/>
<polygon fill="#191970" stroke="#191970" points="815.5001,-102.5706 812,-92.5707 808.5001,-102.5707 815.5001,-102.5706"/>
</g>
<!-- Node13 -->
<g id="node14" class="node">
<title>Node13</title>
<polygon fill="#ffffff" stroke="#bfbfbf" points="879,-71.5 879,-92.5 969,-92.5 969,-71.5 879,-71.5"/>
<text text-anchor="middle" x="924" y="-78.9" font-family="Helvetica,sans-Serif" font-size="12.00" fill="#000000">gsl/gsl_blas.h</text>
</g>
<!-- Node3&#45;&gt;Node13 -->
<g id="edge14" class="edge">
<title>Node3&#45;&gt;Node13</title>
<path fill="none" stroke="#191970" d="M832.2824,-129.4966C849.6177,-120.5194 874.7904,-107.4835 894.3804,-97.3387"/>
<polygon fill="#191970" stroke="#191970" points="896.2196,-100.3278 903.4901,-92.6212 893.0006,-94.1118 896.2196,-100.3278"/>
</g>
<!-- Node14 -->
<g id="node15" class="node">
<title>Node14</title>
<polygon fill="#ffffff" stroke="#bfbfbf" points="987,-71.5 987,-92.5 1077,-92.5 1077,-71.5 987,-71.5"/>
<text text-anchor="middle" x="1032" y="-78.9" font-family="Helvetica,sans-Serif" font-size="12.00" fill="#000000">gsl/gsl_poly.h</text>
</g>
<!-- Node3&#45;&gt;Node14 -->
<g id="edge15" class="edge">
<title>Node3&#45;&gt;Node14</title>
<path fill="none" stroke="#191970" d="M851.8403,-129.4966C888.4826,-119.8364 942.9512,-105.4765 982.3994,-95.0765"/>
<polygon fill="#191970" stroke="#191970" points="983.3076,-98.4568 992.0849,-92.5231 981.5231,-91.688 983.3076,-98.4568"/>
</g>
<!-- Node3&#45;&gt;Node15 -->
<g id="edge16" class="edge">
<title>Node3&#45;&gt;Node15</title>
<path fill="none" stroke="#191970" d="M868.535,-130.8995C873.4219,-130.2165 878.2947,-129.572 883,-129 1060.0114,-107.4828 1109.9601,-126.9892 1288.2634,-93.0376"/>
<polygon fill="#191970" stroke="#191970" points="1289.0835,-96.4439 1298.237,-91.1087 1287.7543,-89.5713 1289.0835,-96.4439"/>
</g>
<!-- Node16 -->
<g id="node17" class="node">
<title>Node16</title>
<g id="a_node17"><a xlink:href="Error_8h.html" target="_top" xlink:title="Defines the exception hierarchy used by this code. ">
<polygon fill="#ffffff" stroke="#000000" points="2167.5,-71.5 2167.5,-92.5 2220.5,-92.5 2220.5,-71.5 2167.5,-71.5"/>
<text text-anchor="middle" x="2194" y="-78.9" font-family="Helvetica,sans-Serif" font-size="12.00" fill="#000000">Error.h</text>
</a>
</g>
</g>
<!-- Node3&#45;&gt;Node16 -->
<g id="edge18" class="edge">
<title>Node3&#45;&gt;Node16</title>
<path fill="none" stroke="#191970" d="M868.726,-136.1135C904.1516,-133.7906 950.718,-130.9262 992,-129 1488.1624,-105.8488 1613.9046,-132.9202 2109,-93 2124.9072,-91.7174 2142.4047,-89.5788 2157.368,-87.5266"/>
<polygon fill="#191970" stroke="#191970" points="2157.8579,-90.9922 2167.2717,-86.1312 2156.8812,-84.0607 2157.8579,-90.9922"/>
</g>
<!-- Node19 -->
<g id="node20" class="node">
<title>Node19</title>
<g id="a_node20"><a xlink:href="AstronomicalConstants_8h.html" target="_top" xlink:title="Defines various astronomical constants. ">
<polygon fill="#ffffff" stroke="#000000" points="1950,-71.5 1950,-92.5 2100,-92.5 2100,-71.5 1950,-71.5"/>
<text text-anchor="middle" x="2025" y="-78.9" font-family="Helvetica,sans-Serif" font-size="12.00" fill="#000000">AstronomicalConstants.h</text>
</a>
</g>
</g>
<!-- Node3&#45;&gt;Node19 -->
<g id="edge23" class="edge">
<title>Node3&#45;&gt;Node19</title>
<path fill="none" stroke="#191970" d="M868.7338,-136.2714C904.1623,-134.0079 950.729,-131.1506 992,-129 1362.9526,-109.6703 1455.9953,-111.3027 1827,-93 1863.9302,-91.1781 1904.7224,-88.9489 1939.6364,-86.9747"/>
<polygon fill="#191970" stroke="#191970" points="1940.0089,-90.4593 1949.7945,-86.3982 1939.6122,-83.4706 1940.0089,-90.4593"/>
</g>
<!-- Node20 -->
<g id="node21" class="node">
<title>Node20</title>
<g id="a_node21"><a xlink:href="IncludeEigen_8h_source.html" target="_top" xlink:title="IncludeEigen.h">
<polygon fill="#ffffff" stroke="#000000" points="263.5,-71.5 263.5,-92.5 360.5,-92.5 360.5,-71.5 263.5,-71.5"/>
<text text-anchor="middle" x="312" y="-78.9" font-family="Helvetica,sans-Serif" font-size="12.00" fill="#000000">IncludeEigen.h</text>
</a>
</g>
</g>
<!-- Node3&#45;&gt;Node20 -->
<g id="edge24" class="edge">
<title>Node3&#45;&gt;Node20</title>
<path fill="none" stroke="#191970" d="M755.1304,-133.4031C659.5578,-122.3167 467.7021,-100.0614 370.8303,-88.8243"/>
<polygon fill="#191970" stroke="#191970" points="370.9654,-85.3166 360.6287,-87.6409 370.1587,-92.27 370.9654,-85.3166"/>
</g>
<!-- Node16&#45;&gt;Node1 -->
<g id="edge19" class="edge">
<title>Node16&#45;&gt;Node1</title>
<path fill="none" stroke="#191970" d="M2167.2566,-74.0316C2162.5406,-72.8545 2157.6521,-71.778 2153,-71 2024.9669,-49.5886 1650.0156,-29.9804 1474.5486,-21.6815"/>
<polygon fill="#191970" stroke="#191970" points="1474.7121,-18.1854 1464.5585,-21.2111 1474.3828,-25.1777 1474.7121,-18.1854"/>
</g>
<!-- Node16&#45;&gt;Node8 -->
<g id="edge20" class="edge">
<title>Node16&#45;&gt;Node8</title>
<path fill="none" stroke="#191970" d="M2167.1574,-74.5273C2162.4524,-73.2951 2157.5933,-72.0717 2153,-71 2072.7933,-52.286 1978.1688,-34.437 1925.2251,-24.8273"/>
<polygon fill="#191970" stroke="#191970" points="1925.6717,-21.3514 1915.2087,-23.0175 1924.427,-28.2399 1925.6717,-21.3514"/>
</g>
<!-- Node17 -->
<g id="node18" class="node">
<title>Node17</title>
<polygon fill="#ffffff" stroke="#bfbfbf" points="2160,-7 2160,-28 2228,-28 2228,-7 2160,-7"/>
<text text-anchor="middle" x="2194" y="-14.4" font-family="Helvetica,sans-Serif" font-size="12.00" fill="#000000">exception</text>
</g>
<!-- Node16&#45;&gt;Node17 -->
<g id="edge21" class="edge">
<title>Node16&#45;&gt;Node17</title>
<path fill="none" stroke="#191970" d="M2194,-71.3491C2194,-62.4397 2194,-49.4599 2194,-38.4761"/>
<polygon fill="#191970" stroke="#191970" points="2197.5001,-38.3822 2194,-28.3823 2190.5001,-38.3823 2197.5001,-38.3822"/>
</g>
<!-- Node18 -->
<g id="node19" class="node">
<title>Node18</title>
<polygon fill="#ffffff" stroke="#bfbfbf" points="2269,-7 2269,-28 2315,-28 2315,-7 2269,-7"/>
<text text-anchor="middle" x="2292" y="-14.4" font-family="Helvetica,sans-Serif" font-size="12.00" fill="#000000">string</text>
</g>
<!-- Node16&#45;&gt;Node18 -->
<g id="edge22" class="edge">
<title>Node16&#45;&gt;Node18</title>
<path fill="none" stroke="#191970" d="M2210.1827,-71.3491C2225.6452,-61.1723 2249.1768,-45.6847 2267.0409,-33.9272"/>
<polygon fill="#191970" stroke="#191970" points="2269.3643,-36.5881 2275.7933,-28.1667 2265.5159,-30.7409 2269.3643,-36.5881"/>
</g>
<!-- Node21 -->
<g id="node22" class="node">
<title>Node21</title>
<polygon fill="#ffffff" stroke="#bfbfbf" points="269,-7 269,-28 355,-28 355,-7 269,-7"/>
<text text-anchor="middle" x="312" y="-14.4" font-family="Helvetica,sans-Serif" font-size="12.00" fill="#000000">Eigen/Dense</text>
</g>
<!-- Node20&#45;&gt;Node21 -->
<g id="edge25" class="edge">
<title>Node20&#45;&gt;Node21</title>
<path fill="none" stroke="#191970" d="M312,-71.3491C312,-62.4397 312,-49.4599 312,-38.4761"/>
<polygon fill="#191970" stroke="#191970" points="315.5001,-38.3822 312,-28.3823 308.5001,-38.3823 315.5001,-38.3822"/>
</g>
<!-- Node22&#45;&gt;Node1 -->
<g id="edge28" class="edge">
<title>Node22&#45;&gt;Node1</title>
<path fill="none" stroke="#191970" d="M260.8851,-490.4573C177.9508,-472.7376 44,-428.4196 44,-327 44,-327 44,-327 44,-140 44,-90.9961 84.1276,-88.2367 130,-71 237.3846,-30.6498 1017.6533,-20.4724 1289.1661,-18.1391"/>
<polygon fill="#191970" stroke="#191970" points="1289.4149,-21.6372 1299.385,-18.053 1289.3558,-14.6375 1289.4149,-21.6372"/>
</g>
<!-- Node23 -->
<g id="node24" class="node">
<title>Node23</title>
<g id="a_node24"><a xlink:href="DissipatingBody_8h.html" target="_top" xlink:title="Declares the DissipatingBody class. ">
<polygon fill="#ffffff" stroke="#000000" points="589.5,-374.5 589.5,-395.5 752.5,-395.5 752.5,-374.5 589.5,-374.5"/>
<text text-anchor="middle" x="671" y="-381.9" font-family="Helvetica,sans-Serif" font-size="12.00" fill="#000000">../Evolve/DissipatingBody.h</text>
</a>
</g>
</g>
<!-- Node22&#45;&gt;Node23 -->
<g id="edge29" class="edge">
<title>Node22&#45;&gt;Node23</title>
<path fill="none" stroke="#191970" d="M356.6224,-490.3983C419.4292,-469.3416 559.8527,-422.2632 629.7871,-398.817"/>
<polygon fill="#191970" stroke="#191970" points="631.2074,-402.0324 639.5762,-395.5352 628.9823,-395.3955 631.2074,-402.0324"/>
</g>
<!-- Node42 -->
<g id="node43" class="node">
<title>Node42</title>
<g id="a_node43"><a xlink:href="BinarySystem_8h.html" target="_top" xlink:title="Defines the BinarySystem class. ">
<polygon fill="#ffffff" stroke="#000000" points="1834.5,-432.5 1834.5,-453.5 1983.5,-453.5 1983.5,-432.5 1834.5,-432.5"/>
<text text-anchor="middle" x="1909" y="-439.9" font-family="Helvetica,sans-Serif" font-size="12.00" fill="#000000">../Evolve/BinarySystem.h</text>
</a>
</g>
</g>
<!-- Node22&#45;&gt;Node42 -->
<g id="edge85" class="edge">
<title>Node22&#45;&gt;Node42</title>
<path fill="none" stroke="#191970" d="M423.7869,-497.3828C712.869,-486.7977 1553.7317,-456.0086 1824.1637,-446.1064"/>
<polygon fill="#191970" stroke="#191970" points="1824.4452,-449.5985 1834.3104,-445.7348 1824.189,-442.6032 1824.4452,-449.5985"/>
</g>
<!-- Node23&#45;&gt;Node1 -->
<g id="edge30" class="edge">
<title>Node23&#45;&gt;Node1</title>
<path fill="none" stroke="#191970" d="M589.3608,-378.9515C502.6712,-371.6356 371.9403,-357.7903 326,-338 195.6923,-281.8656 52.8749,-173.4823 151,-71 190.2055,-30.0536 1008.7244,-20.2347 1288.9,-18.0692"/>
<polygon fill="#191970" stroke="#191970" points="1289.0649,-21.5681 1299.038,-17.9924 1289.0117,-14.5683 1289.0649,-21.5681"/>
</g>
<!-- Node23&#45;&gt;Node3 -->
<g id="edge82" class="edge">
<title>Node23&#45;&gt;Node3</title>
<path fill="none" stroke="#191970" d="M606.694,-374.4561C517.3872,-358.3517 363.0245,-324.7235 330,-280 320.7597,-267.4863 322.0419,-258.3658 330,-245 372.1368,-174.2304 623.0495,-150.5311 745.2285,-143.1208"/>
<polygon fill="#191970" stroke="#191970" points="745.4426,-146.6144 755.22,-142.5338 745.0319,-139.6264 745.4426,-146.6144"/>
</g>
<!-- Node23&#45;&gt;Node5 -->
<g id="edge83" class="edge">
<title>Node23&#45;&gt;Node5</title>
<path fill="none" stroke="#191970" d="M589.446,-380.0028C530.5966,-374.4224 450.0374,-362.67 383,-338 336.2181,-320.7841 321.1197,-316.3426 287,-280 243.4605,-233.624 241.8652,-212.335 225,-151 220.6961,-135.3476 218.4307,-117.1161 217.2497,-103.3257"/>
<polygon fill="#191970" stroke="#191970" points="220.7104,-102.659 216.4917,-92.9403 213.729,-103.1686 220.7104,-102.659"/>
</g>
<!-- Node23&#45;&gt;Node15 -->
<g id="edge84" class="edge">
<title>Node23&#45;&gt;Node15</title>
<path fill="none" stroke="#191970" d="M671.9753,-374.2186C674.9848,-347.6894 686.5979,-278.9397 728,-245 793.7925,-191.066 841.3456,-249.7952 916,-209 959.0358,-185.4829 948.1789,-151.0192 992,-129 1108.2945,-70.5645 1157.0793,-118.1511 1288.2165,-93.0429"/>
<polygon fill="#191970" stroke="#191970" points="1289.1117,-96.4327 1298.2187,-91.0185 1287.7231,-89.5718 1289.1117,-96.4327"/>
</g>
<!-- Node23&#45;&gt;Node19 -->
<g id="edge81" class="edge">
<title>Node23&#45;&gt;Node19</title>
<path fill="none" stroke="#191970" d="M752.6311,-383.3571C902.638,-379.6851 1232.0695,-368.584 1508,-338 1664.2815,-320.6778 1707.4576,-328.5904 1857,-280 1924.1068,-258.1952 1956.0432,-264.9775 1999,-209 2022.8577,-177.9107 2026.2892,-130.3586 2026.0438,-103.1221"/>
<polygon fill="#191970" stroke="#191970" points="2029.5337,-102.7011 2025.7623,-92.8003 2022.5363,-102.892 2029.5337,-102.7011"/>
</g>
<!-- Node24 -->
<g id="node25" class="node">
<title>Node24</title>
<g id="a_node25"><a xlink:href="DissipatingZone_8h.html" target="_top" xlink:title="Declares a class representing one zone of a body dissipative to tidal distortions. ">
<polygon fill="#ffffff" stroke="#000000" points="860,-316.5 860,-337.5 974,-337.5 974,-316.5 860,-316.5"/>
<text text-anchor="middle" x="917" y="-323.9" font-family="Helvetica,sans-Serif" font-size="12.00" fill="#000000">DissipatingZone.h</text>
</a>
</g>
</g>
<!-- Node23&#45;&gt;Node24 -->
<g id="edge31" class="edge">
<title>Node23&#45;&gt;Node24</title>
<path fill="none" stroke="#191970" d="M715.5487,-374.4966C756.7819,-364.775 818.2022,-350.2938 862.3765,-339.8787"/>
<polygon fill="#191970" stroke="#191970" points="863.4378,-343.2245 872.3677,-337.5231 861.8314,-336.4113 863.4378,-343.2245"/>
</g>
<!-- Node41 -->
<g id="node42" class="node">
<title>Node41</title>
<g id="a_node42"><a xlink:href="OrbitalExpressions_8h.html" target="_top" xlink:title="A collection of functions which calculate various quantities for two body orbits. ...">
<polygon fill="#ffffff" stroke="#000000" points="1824,-187.5 1824,-208.5 1990,-208.5 1990,-187.5 1824,-187.5"/>
<text text-anchor="middle" x="1907" y="-194.9" font-family="Helvetica,sans-Serif" font-size="12.00" fill="#000000">../Core/OrbitalExpressions.h</text>
</a>
</g>
</g>
<!-- Node23&#45;&gt;Node41 -->
<g id="edge77" class="edge">
<title>Node23&#45;&gt;Node41</title>
<path fill="none" stroke="#191970" d="M752.5826,-380.6271C998.7557,-367.0046 1723.2134,-323.6264 1820,-280 1851.0134,-266.0208 1877.9761,-236.3302 1893.3627,-216.7759"/>
<polygon fill="#191970" stroke="#191970" points="1896.3166,-218.6739 1899.5906,-208.5976 1890.7476,-214.433 1896.3166,-218.6739"/>
</g>
<!-- Node24&#45;&gt;Node1 -->
<g id="edge40" class="edge">
<title>Node24&#45;&gt;Node1</title>
<path fill="none" stroke="#191970" d="M974.212,-324.7301C1055.7785,-320.5062 1200.3524,-309.0599 1243,-280 1306.824,-236.5105 1266.7171,-174.6693 1329,-129 1390.2303,-84.1025 1448.3025,-152.0753 1496,-93 1514.7304,-69.8016 1487.6395,-51.1926 1455.1811,-38.254"/>
<polygon fill="#191970" stroke="#191970" points="1456.0429,-34.8386 1445.451,-34.5891 1453.5755,-41.3893 1456.0429,-34.8386"/>
</g>
<!-- Node24&#45;&gt;Node3 -->
<g id="edge74" class="edge">
<title>Node24&#45;&gt;Node3</title>
<path fill="none" stroke="#191970" d="M859.8275,-320.1946C810.5855,-313.0618 744.8548,-300.0643 728,-280 701.3755,-248.3058 701.6309,-222.4506 723,-187 731.8896,-172.2524 747.1237,-161.8942 762.5003,-154.7314"/>
<polygon fill="#191970" stroke="#191970" points="764.2058,-157.8095 772.0373,-150.6738 761.4653,-151.3682 764.2058,-157.8095"/>
</g>
<!-- Node24&#45;&gt;Node5 -->
<g id="edge75" class="edge">
<title>Node24&#45;&gt;Node5</title>
<path fill="none" stroke="#191970" d="M859.8898,-325.4288C721.0753,-321.1876 374.0879,-307.8962 330,-280 264.1532,-238.3361 232.2347,-144.0231 220.9475,-102.3967"/>
<polygon fill="#191970" stroke="#191970" points="224.2996,-101.3793 218.4064,-92.5747 217.5227,-103.1326 224.2996,-101.3793"/>
</g>
<!-- Node24&#45;&gt;Node16 -->
<g id="edge41" class="edge">
<title>Node24&#45;&gt;Node16</title>
<path fill="none" stroke="#191970" d="M974.0565,-326.4483C1146.0531,-324.4039 1657.614,-315.4283 1820,-280 1903.6183,-261.7567 1931.6342,-261.7891 1999,-209 2033.3636,-182.072 2020.9824,-155.0718 2056,-129 2086.1453,-106.5558 2127.75,-94.3356 2157.3776,-88.0301"/>
<polygon fill="#191970" stroke="#191970" points="2158.2011,-91.4347 2167.3193,-86.0393 2156.8267,-84.571 2158.2011,-91.4347"/>
</g>
<!-- Node25 -->
<g id="node26" class="node">
<title>Node25</title>
<g id="a_node26"><a xlink:href="ZoneOrientation_8h.html" target="_top" xlink:title="Declares a class for orientations of zones of DissipatingBody objects. ">
<polygon fill="#ffffff" stroke="#000000" points="445.5,-187.5 445.5,-208.5 558.5,-208.5 558.5,-187.5 445.5,-187.5"/>
<text text-anchor="middle" x="502" y="-194.9" font-family="Helvetica,sans-Serif" font-size="12.00" fill="#000000">ZoneOrientation.h</text>
</a>
</g>
</g>
<!-- Node24&#45;&gt;Node25 -->
<g id="edge32" class="edge">
<title>Node24&#45;&gt;Node25</title>
<path fill="none" stroke="#191970" d="M859.6464,-317.9973C814.3523,-310.1397 749.8601,-297.283 695,-280 635.8719,-261.3723 570.0113,-231.2449 532.536,-213.1581"/>
<polygon fill="#191970" stroke="#191970" points="533.7181,-209.841 523.1945,-208.6145 530.6563,-216.1359 533.7181,-209.841"/>
</g>
<!-- Node26 -->
<g id="node27" class="node">
<title>Node26</title>
<g id="a_node27"><a xlink:href="DissipationQuantities_8h.html" target="_top" xlink:title="Declaration of enumerations of dissipation quantities and derivatives. ">
<polygon fill="#ffffff" stroke="#000000" points="1001,-129.5 1001,-150.5 1141,-150.5 1141,-129.5 1001,-129.5"/>
<text text-anchor="middle" x="1071" y="-136.9" font-family="Helvetica,sans-Serif" font-size="12.00" fill="#000000">DissipationQuantities.h</text>
</a>
</g>
</g>
<!-- Node24&#45;&gt;Node26 -->
<g id="edge59" class="edge">
<title>Node24&#45;&gt;Node26</title>
<path fill="none" stroke="#191970" d="M917.2405,-316.2961C918.0772,-299.7529 921.5978,-267.5328 936,-245 961.9401,-204.4157 1009.2125,-173.1042 1040.3662,-155.6098"/>
<polygon fill="#191970" stroke="#191970" points="1042.3806,-158.4974 1049.4757,-150.6291 1039.0224,-152.3555 1042.3806,-158.4974"/>
</g>
<!-- Node28 -->
<g id="node29" class="node">
<title>Node28</title>
<g id="a_node29"><a xlink:href="TidalPotentialTerms_8h.html" target="_top" xlink:title="Declare an interface for evaluating the expansion of the tidal potential. ">
<polygon fill="#ffffff" stroke="#000000" points="1083,-252 1083,-273 1217,-273 1217,-252 1083,-252"/>
<text text-anchor="middle" x="1150" y="-259.4" font-family="Helvetica,sans-Serif" font-size="12.00" fill="#000000">TidalPotentialTerms.h</text>
</a>
</g>
</g>
<!-- Node24&#45;&gt;Node28 -->
<g id="edge42" class="edge">
<title>Node24&#45;&gt;Node28</title>
<path fill="none" stroke="#191970" d="M954.954,-316.4934C995.1507,-305.366 1058.6993,-287.7742 1102.2656,-275.714"/>
<polygon fill="#191970" stroke="#191970" points="1103.3584,-279.0432 1112.0622,-273.0021 1101.4909,-272.2969 1103.3584,-279.0432"/>
</g>
<!-- Node36 -->
<g id="node37" class="node">
<title>Node36</title>
<g id="a_node37"><a xlink:href="SpinOrbitLockInfo_8h.html" target="_top" xlink:title="Defines the SpinOrbitLockInfo class. ">
<polygon fill="#ffffff" stroke="#000000" points="1120,-187.5 1120,-208.5 1242,-208.5 1242,-187.5 1120,-187.5"/>
<text text-anchor="middle" x="1181" y="-194.9" font-family="Helvetica,sans-Serif" font-size="12.00" fill="#000000">SpinOrbitLockInfo.h</text>
</a>
</g>
</g>
<!-- Node24&#45;&gt;Node36 -->
<g id="edge60" class="edge">
<title>Node24&#45;&gt;Node36</title>
<path fill="none" stroke="#191970" d="M974.1013,-322.3072C1058.8726,-314.7548 1209.8195,-298.8277 1226,-280 1242.9479,-260.2794 1221.0887,-233.1475 1202.3387,-215.591"/>
<polygon fill="#191970" stroke="#191970" points="1204.4081,-212.7469 1194.6155,-208.7026 1199.7487,-217.9709 1204.4081,-212.7469"/>
</g>
<!-- Node37 -->
<g id="node38" class="node">
<title>Node37</title>
<g id="a_node38"><a xlink:href="CombinedStoppingCondition_8h.html" target="_top" xlink:title="Declares a class for a stopping condition that combines other stopping conditions. ">
<polygon fill="#ffffff" stroke="#000000" points="1629,-252 1629,-273 1811,-273 1811,-252 1629,-252"/>
<text text-anchor="middle" x="1720" y="-259.4" font-family="Helvetica,sans-Serif" font-size="12.00" fill="#000000">CombinedStoppingCondition.h</text>
</a>
</g>
</g>
<!-- Node24&#45;&gt;Node37 -->
<g id="edge63" class="edge">
<title>Node24&#45;&gt;Node37</title>
<path fill="none" stroke="#191970" d="M974.3625,-324.2644C1090.8017,-318.4326 1363.1712,-303.372 1591,-280 1606.4,-278.4202 1622.7941,-276.4329 1638.5479,-274.3694"/>
<polygon fill="#191970" stroke="#191970" points="1639.3404,-277.7949 1648.7911,-273.0059 1638.4167,-270.8561 1639.3404,-277.7949"/>
</g>
<!-- Node38 -->
<g id="node39" class="node">
<title>Node38</title>
<g id="a_node39"><a xlink:href="BreakLockCondition_8h.html" target="_top" xlink:title="Declares a class for a stopping condition monitoring when a locked zone loses the lock...">
<polygon fill="#ffffff" stroke="#000000" points="338.5,-252 338.5,-273 473.5,-273 473.5,-252 338.5,-252"/>
<text text-anchor="middle" x="406" y="-259.4" font-family="Helvetica,sans-Serif" font-size="12.00" fill="#000000">BreakLockCondition.h</text>
</a>
</g>
</g>
<!-- Node24&#45;&gt;Node38 -->
<g id="edge67" class="edge">
<title>Node24&#45;&gt;Node38</title>
<path fill="none" stroke="#191970" d="M859.8503,-322.5898C777.3933,-315.8076 620.409,-301.3261 488,-280 479.3333,-278.6041 470.1995,-276.8948 461.2996,-275.0971"/>
<polygon fill="#191970" stroke="#191970" points="461.8904,-271.6453 451.388,-273.042 460.4691,-278.4995 461.8904,-271.6453"/>
</g>
<!-- Node39 -->
<g id="node40" class="node">
<title>Node39</title>
<g id="a_node40"><a xlink:href="SynchronizedCondition_8h.html" target="_top" xlink:title="Declares a stopping condition monitoring spin&#45;orbit synchronization. ">
<polygon fill="#ffffff" stroke="#000000" points="737,-252 737,-273 889,-273 889,-252 737,-252"/>
<text text-anchor="middle" x="813" y="-259.4" font-family="Helvetica,sans-Serif" font-size="12.00" fill="#000000">SynchronizedCondition.h</text>
</a>
</g>
</g>
<!-- Node24&#45;&gt;Node39 -->
<g id="edge70" class="edge">
<title>Node24&#45;&gt;Node39</title>
<path fill="none" stroke="#191970" d="M899.8265,-316.3491C883.1915,-306.0322 857.7561,-290.2574 838.7081,-278.4439"/>
<polygon fill="#191970" stroke="#191970" points="840.542,-275.4629 830.199,-273.1667 836.8526,-281.4117 840.542,-275.4629"/>
</g>
<!-- Node40 -->
<g id="node41" class="node">
<title>Node40</title>
<polygon fill="#ffffff" stroke="#bfbfbf" points="945,-245.5 945,-279.5 1065,-279.5 1065,-245.5 945,-245.5"/>
<text text-anchor="start" x="953" y="-265.9" font-family="Helvetica,sans-Serif" font-size="12.00" fill="#000000">boost/math/special</text>
<text text-anchor="middle" x="1005" y="-252.9" font-family="Helvetica,sans-Serif" font-size="12.00" fill="#000000">_functions/sign.hpp</text>
</g>
<!-- Node24&#45;&gt;Node40 -->
<g id="edge76" class="edge">
<title>Node24&#45;&gt;Node40</title>
<path fill="none" stroke="#191970" d="M931.5314,-316.3491C942.8761,-308.034 959.0579,-296.1734 973.3487,-285.699"/>
<polygon fill="#191970" stroke="#191970" points="975.4971,-288.4638 981.4935,-279.7292 971.3589,-282.818 975.4971,-288.4638"/>
</g>
<!-- Node25&#45;&gt;Node1 -->
<g id="edge33" class="edge">
<title>Node25&#45;&gt;Node1</title>
<path fill="none" stroke="#191970" d="M488.7327,-187.2434C461.2016,-163.6945 403.1463,-106.8245 437,-71 465.9669,-40.3468 1056.3592,-24.4489 1288.9704,-19.3559"/>
<polygon fill="#191970" stroke="#191970" points="1289.1826,-22.8522 1299.1043,-19.1359 1289.0307,-15.8538 1289.1826,-22.8522"/>
</g>
<!-- Node25&#45;&gt;Node3 -->
<g id="edge38" class="edge">
<title>Node25&#45;&gt;Node3</title>
<path fill="none" stroke="#191970" d="M558.1387,-187.4966C610.8649,-177.6317 689.7855,-162.8659 745.6123,-152.4209"/>
<polygon fill="#191970" stroke="#191970" points="746.5703,-155.8025 755.7561,-150.5231 745.2829,-148.9219 746.5703,-155.8025"/>
</g>
<!-- Node25&#45;&gt;Node20 -->
<g id="edge39" class="edge">
<title>Node25&#45;&gt;Node20</title>
<path fill="none" stroke="#191970" d="M458.412,-187.457C432.705,-179.9243 400.3512,-168.071 375,-151 354.8668,-137.4427 336.7459,-116.1606 325.1632,-100.8157"/>
<polygon fill="#191970" stroke="#191970" points="327.8615,-98.5761 319.1333,-92.5703 322.2112,-102.7082 327.8615,-98.5761"/>
</g>
<!-- Node25&#45;&gt;Node26 -->
<g id="edge34" class="edge">
<title>Node25&#45;&gt;Node26</title>
<path fill="none" stroke="#191970" d="M558.6381,-192.2267C660.2793,-181.8661 873.8995,-160.0911 990.6403,-148.1913"/>
<polygon fill="#191970" stroke="#191970" points="991.3464,-151.6376 1000.9399,-147.1415 990.6364,-144.6737 991.3464,-151.6376"/>
</g>
<!-- Node26&#45;&gt;Node1 -->
<g id="edge35" class="edge">
<title>Node26&#45;&gt;Node1</title>
<path fill="none" stroke="#191970" d="M1141.3258,-130.6489C1225.0948,-119.2204 1354.8383,-100.4812 1363,-93 1376.241,-80.863 1380.855,-60.9818 1382.2306,-44.6671"/>
<polygon fill="#191970" stroke="#191970" points="1385.7312,-44.7376 1382.725,-34.5782 1378.7396,-44.3949 1385.7312,-44.7376"/>
</g>
<!-- Node26&#45;&gt;Node15 -->
<g id="edge37" class="edge">
<title>Node26&#45;&gt;Node15</title>
<path fill="none" stroke="#191970" d="M1126.6606,-129.4156C1168.7645,-121.0997 1228.1887,-108.7062 1288.1435,-93.3544"/>
<polygon fill="#191970" stroke="#191970" points="1289.3541,-96.6565 1298.1586,-90.7632 1287.6007,-89.8796 1289.3541,-96.6565"/>
</g>
<!-- Node27 -->
<g id="node28" class="node">
<title>Node27</title>
<polygon fill="#ffffff" stroke="#bfbfbf" points="1410.5,-71.5 1410.5,-92.5 1469.5,-92.5 1469.5,-71.5 1410.5,-71.5"/>
<text text-anchor="middle" x="1440" y="-78.9" font-family="Helvetica,sans-Serif" font-size="12.00" fill="#000000">ostream</text>
</g>
<!-- Node26&#45;&gt;Node27 -->
<g id="edge36" class="edge">
<title>Node26&#45;&gt;Node27</title>
<path fill="none" stroke="#191970" d="M1141.0033,-130.7235C1221.4867,-119.9086 1348.5927,-102.3289 1396,-93 1397.4486,-92.7149 1398.921,-92.4126 1400.406,-92.0971"/>
<polygon fill="#191970" stroke="#191970" points="1401.2881,-95.4861 1410.2697,-89.8664 1399.744,-88.6585 1401.2881,-95.4861"/>
</g>
<!-- Node28&#45;&gt;Node3 -->
<g id="edge58" class="edge">
<title>Node28&#45;&gt;Node3</title>
<path fill="none" stroke="#191970" d="M1120.8898,-251.9497C1059.9929,-229.8791 919.1449,-178.8321 850.713,-154.0306"/>
<polygon fill="#191970" stroke="#191970" points="851.7543,-150.6853 841.1601,-150.5684 849.369,-157.2664 851.7543,-150.6853"/>
</g>
<!-- Node28&#45;&gt;Node5 -->
<g id="edge44" class="edge">
<title>Node28&#45;&gt;Node5</title>
<path fill="none" stroke="#191970" d="M1110.0078,-251.9512C1098.4628,-249.2716 1085.7961,-246.679 1074,-245 933.6333,-225.0207 572.901,-249.4091 437,-209 357.2847,-185.2973 275.5073,-127.9521 237.6561,-99.1333"/>
<polygon fill="#191970" stroke="#191970" points="239.4794,-96.1196 229.4233,-92.7843 235.2046,-101.6627 239.4794,-96.1196"/>
</g>
<!-- Node29 -->
<g id="node30" class="node">
<title>Node29</title>
<polygon fill="#ffffff" stroke="#bfbfbf" points="1730.5,-129.5 1730.5,-150.5 1779.5,-150.5 1779.5,-129.5 1730.5,-129.5"/>
<text text-anchor="middle" x="1755" y="-136.9" font-family="Helvetica,sans-Serif" font-size="12.00" fill="#000000">cmath</text>
</g>
<!-- Node28&#45;&gt;Node29 -->
<g id="edge43" class="edge">
<title>Node28&#45;&gt;Node29</title>
<path fill="none" stroke="#191970" d="M1217.0655,-258.7294C1300.7069,-252.9415 1447.6062,-239.1913 1570,-209 1624.9109,-195.4549 1685.8851,-170.7091 1722.2993,-154.8261"/>
<polygon fill="#191970" stroke="#191970" points="1724.154,-157.8336 1731.8933,-150.598 1721.331,-151.4281 1724.154,-157.8336"/>
</g>
<!-- Node30 -->
<g id="node31" class="node">
<title>Node30</title>
<g id="a_node31"><a xlink:href="EccentricityExpansionCoefficients_8h.html" target="_top" xlink:title="Declares a class which provides the [ &#160;coefficients]{InclinationEccentricity_pms1}. ">
<polygon fill="#ffffff" stroke="#000000" points="1353,-187.5 1353,-208.5 1561,-208.5 1561,-187.5 1353,-187.5"/>
<text text-anchor="middle" x="1457" y="-194.9" font-family="Helvetica,sans-Serif" font-size="12.00" fill="#000000">EccentricityExpansionCoefficients.h</text>
</a>
</g>
</g>
<!-- Node28&#45;&gt;Node30 -->
<g id="edge45" class="edge">
<title>Node28&#45;&gt;Node30</title>
<path fill="none" stroke="#191970" d="M1200.0081,-251.9934C1253.8631,-240.6786 1339.5317,-222.6798 1396.9831,-210.6094"/>
<polygon fill="#191970" stroke="#191970" points="1397.9466,-213.9835 1407.0133,-208.5021 1396.5073,-207.133 1397.9466,-213.9835"/>
</g>
<!-- Node30&#45;&gt;Node1 -->
<g id="edge46" class="edge">
<title>Node30&#45;&gt;Node1</title>
<path fill="none" stroke="#191970" d="M1406.1336,-187.4089C1364.6094,-176.4697 1316.3625,-157.0344 1340,-129 1402.4158,-54.9738 1607.1432,-149.1681 1550,-71 1540.1351,-57.5054 1508.1086,-45.7874 1474.6259,-36.7864"/>
<polygon fill="#191970" stroke="#191970" points="1475.2469,-33.3315 1464.6878,-34.2011 1473.4846,-40.106 1475.2469,-33.3315"/>
</g>
<!-- Node30&#45;&gt;Node3 -->
<g id="edge48" class="edge">
<title>Node30&#45;&gt;Node3</title>
<path fill="none" stroke="#191970" d="M1352.9567,-189.2835C1244.936,-180.1383 1071.0788,-165.1521 921,-151 907.2864,-149.7068 892.6085,-148.265 878.6094,-146.8621"/>
<polygon fill="#191970" stroke="#191970" points="878.8597,-143.3697 868.5593,-145.8501 878.1583,-150.3345 878.8597,-143.3697"/>
</g>
<!-- Node30&#45;&gt;Node7 -->
<g id="edge54" class="edge">
<title>Node30&#45;&gt;Node7</title>
<path fill="none" stroke="#191970" d="M1352.9421,-190.9988C1219.573,-181.5156 1003.9795,-164.2514 992,-151 943.5259,-97.3794 874.8359,-162.2166 1207,-93 1208.4453,-92.6988 1209.915,-92.3828 1211.3976,-92.0556"/>
<polygon fill="#191970" stroke="#191970" points="1212.2977,-95.4399 1221.2514,-89.7757 1210.7197,-88.62 1212.2977,-95.4399"/>
</g>
<!-- Node30&#45;&gt;Node8 -->
<g id="edge53" class="edge">
<title>Node30&#45;&gt;Node8</title>
<path fill="none" stroke="#191970" d="M1489.6802,-187.4759C1514.5184,-178.9645 1549.2041,-165.9639 1578,-151 1593.6413,-142.8719 1594.608,-135.4822 1611,-129 1701.5046,-93.2102 1743.7571,-143.4244 1827,-93 1848.7242,-79.8406 1865.0025,-55.028 1874.4867,-37.4437"/>
<polygon fill="#191970" stroke="#191970" points="1877.8436,-38.566 1879.2756,-28.0684 1871.6098,-35.3817 1877.8436,-38.566"/>
</g>
<!-- Node30&#45;&gt;Node15 -->
<g id="edge55" class="edge">
<title>Node30&#45;&gt;Node15</title>
<path fill="none" stroke="#191970" d="M1400.2821,-187.4546C1362.7375,-179.1886 1318.3904,-166.5054 1307,-151 1296.3798,-136.543 1303.7815,-116.4466 1312.2555,-101.6698"/>
<polygon fill="#191970" stroke="#191970" points="1315.4461,-103.1702 1317.8003,-92.8402 1309.5181,-99.4474 1315.4461,-103.1702"/>
</g>
<!-- Node30&#45;&gt;Node16 -->
<g id="edge47" class="edge">
<title>Node30&#45;&gt;Node16</title>
<path fill="none" stroke="#191970" d="M1498.1719,-187.4553C1529.5636,-178.9332 1573.6173,-165.9281 1611,-151 1631.3047,-142.8917 1633.9364,-134.861 1655,-129 1850.0028,-74.7398 1907.6807,-113.9953 2109,-93 2124.7201,-91.3606 2142.0284,-89.1879 2156.9006,-87.2067"/>
<polygon fill="#191970" stroke="#191970" points="2157.8011,-90.6169 2167.2419,-85.8083 2156.863,-83.68 2157.8011,-90.6169"/>
</g>
<!-- Node30&#45;&gt;Node29 -->
<g id="edge52" class="edge">
<title>Node30&#45;&gt;Node29</title>
<path fill="none" stroke="#191970" d="M1533.3031,-187.4936C1584.0969,-179.7991 1652.402,-168.1132 1720.245,-151.2135"/>
<polygon fill="#191970" stroke="#191970" points="1721.4132,-154.5282 1730.2491,-148.6821 1719.696,-147.7421 1721.4132,-154.5282"/>
</g>
<!-- Node31 -->
<g id="node32" class="node">
<title>Node31</title>
<polygon fill="#ffffff" stroke="#bfbfbf" points="1663.5,-129.5 1663.5,-150.5 1712.5,-150.5 1712.5,-129.5 1663.5,-129.5"/>
<text text-anchor="middle" x="1688" y="-136.9" font-family="Helvetica,sans-Serif" font-size="12.00" fill="#000000">vector</text>
</g>
<!-- Node30&#45;&gt;Node31 -->
<g id="edge49" class="edge">
<title>Node30&#45;&gt;Node31</title>
<path fill="none" stroke="#191970" d="M1502.1132,-187.4257C1541.0935,-178.1769 1598.8889,-164.1961 1649,-151 1650.4457,-150.6193 1651.92,-150.226 1653.4084,-149.8249"/>
<polygon fill="#191970" stroke="#191970" points="1654.5627,-153.1375 1663.2779,-147.113 1652.7079,-146.3877 1654.5627,-153.1375"/>
</g>
<!-- Node32 -->
<g id="node33" class="node">
<title>Node32</title>
<polygon fill="#ffffff" stroke="#bfbfbf" points="1429,-129.5 1429,-150.5 1485,-150.5 1485,-129.5 1429,-129.5"/>
<text text-anchor="middle" x="1457" y="-136.9" font-family="Helvetica,sans-Serif" font-size="12.00" fill="#000000">fstream</text>
</g>
<!-- Node30&#45;&gt;Node32 -->
<g id="edge50" class="edge">
<title>Node30&#45;&gt;Node32</title>
<path fill="none" stroke="#191970" d="M1457,-187.3619C1457,-179.9219 1457,-169.7427 1457,-160.7276"/>
<polygon fill="#191970" stroke="#191970" points="1460.5001,-160.5706 1457,-150.5707 1453.5001,-160.5707 1460.5001,-160.5706"/>
</g>
<!-- Node33 -->
<g id="node34" class="node">
<title>Node33</title>
<polygon fill="#ffffff" stroke="#bfbfbf" points="2064.5,-129.5 2064.5,-150.5 2123.5,-150.5 2123.5,-129.5 2064.5,-129.5"/>
<text text-anchor="middle" x="2094" y="-136.9" font-family="Helvetica,sans-Serif" font-size="12.00" fill="#000000">iomanip</text>
</g>
<!-- Node30&#45;&gt;Node33 -->
<g id="edge51" class="edge">
<title>Node30&#45;&gt;Node33</title>
<path fill="none" stroke="#191970" d="M1561.1183,-188.5198C1704.746,-175.4423 1956.9359,-152.4799 2054.1899,-143.6248"/>
<polygon fill="#191970" stroke="#191970" points="2054.5496,-147.1066 2064.1911,-142.7142 2053.9148,-140.1354 2054.5496,-147.1066"/>
</g>
<!-- Node34 -->
<g id="node35" class="node">
<title>Node34</title>
<polygon fill="#ffffff" stroke="#bfbfbf" points="1503,-129.5 1503,-150.5 1569,-150.5 1569,-129.5 1503,-129.5"/>
<text text-anchor="middle" x="1536" y="-136.9" font-family="Helvetica,sans-Serif" font-size="12.00" fill="#000000">algorithm</text>
</g>
<!-- Node30&#45;&gt;Node34 -->
<g id="edge56" class="edge">
<title>Node30&#45;&gt;Node34</title>
<path fill="none" stroke="#191970" d="M1471.4898,-187.3619C1483.1827,-178.7773 1499.8427,-166.5459 1513.3031,-156.6636"/>
<polygon fill="#191970" stroke="#191970" points="1515.6126,-159.31 1521.602,-150.5707 1511.4699,-153.6675 1515.6126,-159.31"/>
</g>
<!-- Node35 -->
<g id="node36" class="node">
<title>Node35</title>
<polygon fill="#ffffff" stroke="#bfbfbf" points="1349,-129.5 1349,-150.5 1411,-150.5 1411,-129.5 1349,-129.5"/>
<text text-anchor="middle" x="1380" y="-136.9" font-family="Helvetica,sans-Serif" font-size="12.00" fill="#000000">sqlite3.h</text>
</g>
<!-- Node30&#45;&gt;Node35 -->
<g id="edge57" class="edge">
<title>Node30&#45;&gt;Node35</title>
<path fill="none" stroke="#191970" d="M1442.877,-187.3619C1431.4802,-178.7773 1415.2419,-166.5459 1402.1223,-156.6636"/>
<polygon fill="#191970" stroke="#191970" points="1404.1268,-153.7916 1394.0335,-150.5707 1399.9152,-159.3829 1404.1268,-153.7916"/>
</g>
<!-- Node36&#45;&gt;Node1 -->
<g id="edge61" class="edge">
<title>Node36&#45;&gt;Node1</title>
<path fill="none" stroke="#191970" d="M1179.358,-187.3615C1177.6653,-172.083 1177.165,-144.1081 1193,-129 1285.693,-40.5622 1394.2551,-189.0809 1479,-93 1497.6134,-71.8967 1471.3178,-52.5026 1441.4381,-38.6558"/>
<polygon fill="#191970" stroke="#191970" points="1442.6582,-35.3688 1432.0958,-34.5408 1439.8365,-41.7749 1442.6582,-35.3688"/>
</g>
<!-- Node36&#45;&gt;Node8 -->
<g id="edge62" class="edge">
<title>Node36&#45;&gt;Node8</title>
<path fill="none" stroke="#191970" d="M1201.5599,-187.4292C1231.3648,-172.4895 1288.6354,-145.216 1340,-129 1388.3021,-113.7509 1723.912,-48.3964 1842.5607,-25.479"/>
<polygon fill="#191970" stroke="#191970" points="1843.5414,-28.8543 1852.6968,-23.5224 1842.2147,-21.9812 1843.5414,-28.8543"/>
</g>
<!-- Node37&#45;&gt;Node1 -->
<g id="edge64" class="edge">
<title>Node37&#45;&gt;Node1</title>
<path fill="none" stroke="#191970" d="M1734.2633,-251.9683C1774.0703,-221.365 1880.0699,-130.8324 1827,-71 1804.0547,-45.1309 1598.4308,-29.3928 1474.8754,-22.1887"/>
<polygon fill="#191970" stroke="#191970" points="1474.8399,-18.681 1464.6556,-21.6014 1474.4382,-25.6695 1474.8399,-18.681"/>
</g>
<!-- Node37&#45;&gt;Node2 -->
<g id="edge65" class="edge">
<title>Node37&#45;&gt;Node2</title>
<path fill="none" stroke="#191970" d="M1649.476,-251.9725C1630.5205,-249.4057 1610.0065,-246.8652 1591,-245 1349.2451,-221.2756 1063.6472,-207.6108 916.9006,-201.6356"/>
<polygon fill="#191970" stroke="#191970" points="916.7105,-198.1251 906.5773,-201.2186 916.4279,-205.1194 916.7105,-198.1251"/>
</g>
<!-- Node37&#45;&gt;Node31 -->
<g id="edge66" class="edge">
<title>Node37&#45;&gt;Node31</title>
<path fill="none" stroke="#191970" d="M1717.1602,-251.6289C1711.8333,-231.237 1700.2622,-186.9414 1693.4057,-160.6936"/>
<polygon fill="#191970" stroke="#191970" points="1696.7016,-159.4625 1690.7877,-150.6718 1689.9289,-161.2317 1696.7016,-159.4625"/>
</g>
<!-- Node38&#45;&gt;Node1 -->
<g id="edge68" class="edge">
<title>Node38&#45;&gt;Node1</title>
<path fill="none" stroke="#191970" d="M372.3043,-251.9572C290.6243,-224.8333 94.119,-149.2565 169,-71 207.5754,-30.6857 1012.3005,-20.4596 1289.2934,-18.1292"/>
<polygon fill="#191970" stroke="#191970" points="1289.3476,-21.6289 1299.3183,-18.0463 1289.2897,-14.6292 1289.3476,-21.6289"/>
</g>
<!-- Node38&#45;&gt;Node2 -->
<g id="edge69" class="edge">
<title>Node38&#45;&gt;Node2</title>
<path fill="none" stroke="#191970" d="M473.2748,-251.9934C546.7747,-240.5146 664.3221,-222.1567 741.5968,-210.0884"/>
<polygon fill="#191970" stroke="#191970" points="742.4139,-213.5033 751.754,-208.5021 741.3337,-206.5871 742.4139,-213.5033"/>
</g>
<!-- Node39&#45;&gt;Node1 -->
<g id="edge71" class="edge">
<title>Node39&#45;&gt;Node1</title>
<path fill="none" stroke="#191970" d="M736.8437,-256.8766C630.1222,-248.362 441.8638,-230.8506 377,-209 326.001,-191.82 140.8013,-109.8884 178,-71 216.2419,-31.0211 1013.3216,-20.5831 1289.0904,-18.1631"/>
<polygon fill="#191970" stroke="#191970" points="1289.4977,-21.6599 1299.4671,-18.0737 1289.4373,-14.6601 1289.4977,-21.6599"/>
</g>
<!-- Node39&#45;&gt;Node2 -->
<g id="edge72" class="edge">
<title>Node39&#45;&gt;Node2</title>
<path fill="none" stroke="#191970" d="M813.9908,-251.8491C814.8196,-242.9397 816.027,-229.9599 817.0487,-218.9761"/>
<polygon fill="#191970" stroke="#191970" points="820.5463,-219.1635 817.9877,-208.8823 813.5764,-218.5151 820.5463,-219.1635"/>
</g>
<!-- Node39&#45;&gt;Node36 -->
<g id="edge73" class="edge">
<title>Node39&#45;&gt;Node36</title>
<path fill="none" stroke="#191970" d="M872.9446,-251.9934C938.1687,-240.5615 1042.3212,-222.3065 1111.1856,-210.2365"/>
<polygon fill="#191970" stroke="#191970" points="1111.8355,-213.676 1121.0811,-208.5021 1110.627,-206.7811 1111.8355,-213.676"/>
</g>
<!-- Node41&#45;&gt;Node1 -->
<g id="edge78" class="edge">
<title>Node41&#45;&gt;Node1</title>
<path fill="none" stroke="#191970" d="M1907.0188,-187.1371C1906.3889,-161.2055 1900.6589,-95.9913 1860,-71 1827.9868,-51.3229 1604.6754,-32.8671 1474.9063,-23.6432"/>
<polygon fill="#191970" stroke="#191970" points="1474.7964,-20.1268 1464.5749,-22.9143 1474.3037,-27.1095 1474.7964,-20.1268"/>
</g>
<!-- Node41&#45;&gt;Node19 -->
<g id="edge80" class="edge">
<title>Node41&#45;&gt;Node19</title>
<path fill="none" stroke="#191970" d="M1917.8896,-187.2949C1938.1739,-167.3545 1981.9331,-124.337 2006.7857,-99.9056"/>
<polygon fill="#191970" stroke="#191970" points="2009.459,-102.1856 2014.1367,-92.6792 2004.5518,-97.1937 2009.459,-102.1856"/>
</g>
<!-- Node41&#45;&gt;Node29 -->
<g id="edge79" class="edge">
<title>Node41&#45;&gt;Node29</title>
<path fill="none" stroke="#191970" d="M1879.4739,-187.4966C1854.1775,-177.8441 1816.5843,-163.4993 1789.3343,-153.1013"/>
<polygon fill="#191970" stroke="#191970" points="1790.3955,-149.7601 1779.8048,-149.465 1787.8999,-156.3001 1790.3955,-149.7601"/>
</g>
<!-- Node42&#45;&gt;Node1 -->
<g id="edge86" class="edge">
<title>Node42&#45;&gt;Node1</title>
<path fill="none" stroke="#191970" d="M1983.8059,-435.1938C2024.1168,-428.7349 2073.7042,-417.0433 2114,-396 2154.4399,-374.8814 2190,-372.6222 2190,-327 2190,-327 2190,-327 2190,-198 2190,-131.0524 2168.0005,-102.6373 2109,-71 2054.439,-41.7432 1658.5415,-25.9547 1474.9909,-20.1384"/>
<polygon fill="#191970" stroke="#191970" points="1474.9169,-16.6345 1464.812,-19.8192 1474.6974,-23.631 1474.9169,-16.6345"/>
</g>
<!-- Node42&#45;&gt;Node3 -->
<g id="edge93" class="edge">
<title>Node42&#45;&gt;Node3</title>
<path fill="none" stroke="#191970" d="M1834.0773,-441.44C1571.841,-435.8292 704.4816,-415.9486 581,-396 455.2829,-375.6903 370.6094,-396.4206 319,-280 299.3531,-235.6805 332.3627,-208.119 376,-187 439.5021,-156.2671 639.5636,-145.3996 745.1821,-141.7415"/>
<polygon fill="#191970" stroke="#191970" points="745.5332,-145.2318 755.4106,-141.3996 745.2992,-138.2357 745.5332,-145.2318"/>
</g>
<!-- Node42&#45;&gt;Node6 -->
<g id="edge100" class="edge">
<title>Node42&#45;&gt;Node6</title>
<path fill="none" stroke="#191970" d="M1906.9901,-432.0522C1904.3063,-418.2805 1899.0586,-394.0119 1892,-374 1865.0813,-297.6827 1837.4024,-286.7629 1815,-209 1805.0806,-174.5681 1810.5947,-164.3928 1805,-129 1803.6291,-120.3272 1801.8561,-110.8048 1800.2468,-102.6124"/>
<polygon fill="#191970" stroke="#191970" points="1803.675,-101.9066 1798.273,-92.7924 1796.8123,-103.286 1803.675,-101.9066"/>
</g>
<!-- Node42&#45;&gt;Node8 -->
<g id="edge101" class="edge">
<title>Node42&#45;&gt;Node8</title>
<path fill="none" stroke="#191970" d="M1983.6499,-439.47C2064.9606,-434.3373 2188.5802,-422.3714 2227,-396 2256.0428,-376.065 2266,-362.2263 2266,-327 2266,-327 2266,-327 2266,-140 2266,-105.4103 2258.1184,-91.1445 2230,-71 2181.8249,-36.4866 2006.2952,-23.5109 1925.3734,-19.2866"/>
<polygon fill="#191970" stroke="#191970" points="1925.2288,-15.775 1915.0659,-18.7694 1924.8779,-22.7662 1925.2288,-15.775"/>
</g>
<!-- Node42&#45;&gt;Node16 -->
<g id="edge95" class="edge">
<title>Node42&#45;&gt;Node16</title>
<path fill="none" stroke="#191970" d="M1983.6293,-439.7077C2059.8365,-434.8748 2171.4426,-423.2577 2204,-396 2228.8956,-375.157 2228,-359.4688 2228,-327 2228,-327 2228,-327 2228,-198 2228,-163.0581 2213.6177,-124.499 2203.5614,-101.8087"/>
<polygon fill="#191970" stroke="#191970" points="2206.6707,-100.1928 2199.3125,-92.57 2200.311,-103.1177 2206.6707,-100.1928"/>
</g>
<!-- Node42&#45;&gt;Node18 -->
<g id="edge99" class="edge">
<title>Node42&#45;&gt;Node18</title>
<path fill="none" stroke="#191970" d="M1983.6913,-439.5416C2070.8821,-434.3492 2208.795,-422.2005 2253,-396 2285.805,-376.5564 2304,-365.1343 2304,-327 2304,-327 2304,-327 2304,-140 2304,-104.2117 2298.8642,-62.8211 2295.3123,-38.4751"/>
<polygon fill="#191970" stroke="#191970" points="2298.7266,-37.6447 2293.7706,-28.2805 2291.8053,-38.6914 2298.7266,-37.6447"/>
</g>
<!-- Node42&#45;&gt;Node19 -->
<g id="edge92" class="edge">
<title>Node42&#45;&gt;Node19</title>
<path fill="none" stroke="#191970" d="M1974.4204,-432.4276C2006.9949,-425.3112 2046.1211,-413.8673 2078,-396 2117.2269,-374.0143 2152,-371.968 2152,-327 2152,-327 2152,-327 2152,-198 2152,-166.1919 2153.8423,-153.0281 2133,-129 2119.6502,-113.6097 2100.333,-103.0798 2081.7153,-95.9583"/>
<polygon fill="#191970" stroke="#191970" points="2082.6733,-92.5845 2072.0785,-92.5372 2080.3314,-99.1811 2082.6733,-92.5845"/>
</g>
<!-- Node42&#45;&gt;Node23 -->
<g id="edge87" class="edge">
<title>Node42&#45;&gt;Node23</title>
<path fill="none" stroke="#191970" d="M1834.3455,-439.5025C1619.1584,-429.421 998.0359,-400.3216 762.7832,-389.3"/>
<polygon fill="#191970" stroke="#191970" points="762.7026,-385.7925 752.5497,-388.8206 762.3749,-392.7848 762.7026,-385.7925"/>
</g>
<!-- Node42&#45;&gt;Node33 -->
<g id="edge102" class="edge">
<title>Node42&#45;&gt;Node33</title>
<path fill="none" stroke="#191970" d="M1965.2596,-432.4705C2019.6876,-418.646 2094,-388.5085 2094,-327 2094,-327 2094,-327 2094,-262.5 2094,-226.8822 2094,-185.439 2094,-161.0363"/>
<polygon fill="#191970" stroke="#191970" points="2097.5001,-160.8152 2094,-150.8152 2090.5001,-160.8153 2097.5001,-160.8152"/>
</g>
<!-- Node42&#45;&gt;Node37 -->
<g id="edge88" class="edge">
<title>Node42&#45;&gt;Node37</title>
<path fill="none" stroke="#191970" d="M1904.8313,-432.3022C1898.8698,-417.932 1886.8541,-392.11 1871,-374 1834.8571,-332.7144 1780.9348,-297.5025 1748.2569,-278.2351"/>
<polygon fill="#191970" stroke="#191970" points="1749.6448,-274.994 1739.2384,-273.0049 1746.133,-281.0494 1749.6448,-274.994"/>
</g>
<!-- Node42&#45;&gt;Node41 -->
<g id="edge94" class="edge">
<title>Node42&#45;&gt;Node41</title>
<path fill="none" stroke="#191970" d="M1919.2903,-432.4755C1927.219,-423.5803 1937.5538,-410.0701 1942,-396 1962.2219,-332.008 1963.1137,-308.7033 1942,-245 1938.5317,-234.5357 1931.7288,-224.5092 1925.0355,-216.4248"/>
<polygon fill="#191970" stroke="#191970" points="1927.4978,-213.9263 1918.2445,-208.7661 1922.2603,-218.5704 1927.4978,-213.9263"/>
</g>
<!-- Node43 -->
<g id="node44" class="node">
<title>Node43</title>
<g id="a_node44"><a xlink:href="SecondaryDeathCondition_8h.html" target="_top" xlink:title="Declares a stopping condition class monitoring for the death of the secondary object. ">
<polygon fill="#ffffff" stroke="#000000" points="1414,-252 1414,-273 1582,-273 1582,-252 1414,-252"/>
<text text-anchor="middle" x="1498" y="-259.4" font-family="Helvetica,sans-Serif" font-size="12.00" fill="#000000">SecondaryDeathCondition.h</text>
</a>
</g>
</g>
<!-- Node42&#45;&gt;Node43 -->
<g id="edge89" class="edge">
<title>Node42&#45;&gt;Node43</title>
<path fill="none" stroke="#191970" d="M1834.1427,-438.8397C1726.9762,-432.1656 1540.2226,-417.5857 1518,-396 1487.74,-366.6073 1490.1459,-312.5458 1494.2411,-283.0386"/>
<polygon fill="#191970" stroke="#191970" points="1497.718,-283.4596 1495.8287,-273.0346 1490.8045,-282.3624 1497.718,-283.4596"/>
</g>
<!-- Node44 -->
<g id="node45" class="node">
<title>Node44</title>
<polygon fill="#ffffff" stroke="#bfbfbf" points="1526.5,-374.5 1526.5,-395.5 1621.5,-395.5 1621.5,-374.5 1526.5,-374.5"/>
<text text-anchor="middle" x="1574" y="-381.9" font-family="Helvetica,sans-Serif" font-size="12.00" fill="#000000">gsl/gsl_errno.h</text>
</g>
<!-- Node42&#45;&gt;Node44 -->
<g id="edge96" class="edge">
<title>Node42&#45;&gt;Node44</title>
<path fill="none" stroke="#191970" d="M1844.0476,-432.4555C1789.9724,-423.5768 1710.6801,-410.3273 1631.7005,-396.0967"/>
<polygon fill="#191970" stroke="#191970" points="1632.0334,-392.6002 1621.5703,-394.2656 1630.7883,-399.4886 1632.0334,-392.6002"/>
</g>
<!-- Node45 -->
<g id="node46" class="node">
<title>Node45</title>
<polygon fill="#ffffff" stroke="#bfbfbf" points="1640,-374.5 1640,-395.5 1744,-395.5 1744,-374.5 1640,-374.5"/>
<text text-anchor="middle" x="1692" y="-381.9" font-family="Helvetica,sans-Serif" font-size="12.00" fill="#000000">gsl/gsl_odeiv2.h</text>
</g>
<!-- Node42&#45;&gt;Node45 -->
<g id="edge97" class="edge">
<title>Node42&#45;&gt;Node45</title>
<path fill="none" stroke="#191970" d="M1869.7029,-432.4966C1833.7135,-422.8773 1780.2895,-408.5981 1741.4197,-398.209"/>
<polygon fill="#191970" stroke="#191970" points="1741.9354,-394.724 1731.3708,-395.5231 1740.1279,-401.4866 1741.9354,-394.724"/>
</g>
<!-- Node46 -->
<g id="node47" class="node">
<title>Node46</title>
<polygon fill="#ffffff" stroke="#bfbfbf" points="1762,-374.5 1762,-395.5 1862,-395.5 1862,-374.5 1762,-374.5"/>
<text text-anchor="middle" x="1812" y="-381.9" font-family="Helvetica,sans-Serif" font-size="12.00" fill="#000000">gsl/gsl_siman.h</text>
</g>
<!-- Node42&#45;&gt;Node46 -->
<g id="edge98" class="edge">
<title>Node42&#45;&gt;Node46</title>
<path fill="none" stroke="#191970" d="M1891.2087,-432.3619C1876.4415,-423.532 1855.2218,-410.844 1838.4616,-400.8224"/>
<polygon fill="#191970" stroke="#191970" points="1840.0574,-397.6987 1829.6785,-395.5707 1836.4651,-403.7066 1840.0574,-397.6987"/>
</g>
<!-- Node43&#45;&gt;Node1 -->
<g id="edge90" class="edge">
<title>Node43&#45;&gt;Node1</title>
<path fill="none" stroke="#191970" d="M1542.5884,-251.9478C1616.7521,-233.3938 1760.1819,-192.9032 1789,-151 1794.5407,-142.9436 1794.9306,-136.7739 1789,-129 1751.0792,-79.2933 1582.8211,-46.3056 1474.8688,-29.8375"/>
<polygon fill="#191970" stroke="#191970" points="1475.3501,-26.3706 1464.9405,-28.3435 1474.3083,-33.2927 1475.3501,-26.3706"/>
</g>
<!-- Node43&#45;&gt;Node2 -->
<g id="edge91" class="edge">
<title>Node43&#45;&gt;Node2</title>
<path fill="none" stroke="#191970" d="M1413.7189,-254.4939C1287.636,-242.517 1050.4835,-219.9892 916.8989,-207.2997"/>
<polygon fill="#191970" stroke="#191970" points="916.9593,-203.7897 906.6731,-206.3283 916.2972,-210.7584 916.9593,-203.7897"/>
</g>
</g>
</svg>
