<?xml version="1.0" encoding="UTF-8" standalone="no"?>
<!DOCTYPE svg PUBLIC "-//W3C//DTD SVG 1.1//EN"
 "http://www.w3.org/Graphics/SVG/1.1/DTD/svg11.dtd">
<!-- Generated by graphviz version 2.40.1 (20161225.0304)
 -->
<!-- Title: /Users/kpenev/projects/git/poet/poet_src/Star/WindSaturationCondition.h Pages: 1 -->
<svg width="410pt" height="134pt"
 viewBox="0.00 0.00 410.32 134.00" xmlns="http://www.w3.org/2000/svg" xmlns:xlink="http://www.w3.org/1999/xlink">
<g id="graph0" class="graph" transform="scale(1 1) rotate(0) translate(4 130)">
<title>/Users/kpenev/projects/git/poet/poet_src/Star/WindSaturationCondition.h</title>
<polygon fill="#ffffff" stroke="transparent" points="-4,4 -4,-130 406.3232,-130 406.3232,4 -4,4"/>
<!-- Node45 -->
<g id="node1" class="node">
<title>Node45</title>
<polygon fill="#bfbfbf" stroke="#000000" points="128.9004,-81.5 128.9004,-125.5 290.9863,-125.5 290.9863,-81.5 128.9004,-81.5"/>
<text text-anchor="start" x="136.9004" y="-111.9" font-family="Helvetica,sans-Serif" font-size="12.00" fill="#000000">/Users/kpenev/projects</text>
<text text-anchor="start" x="136.9004" y="-99.9" font-family="Helvetica,sans-Serif" font-size="12.00" fill="#000000">/git/poet/poet_src/Star</text>
<text text-anchor="middle" x="209.9434" y="-87.9" font-family="Helvetica,sans-Serif" font-size="12.00" fill="#000000">/WindSaturationCondition.h</text>
</g>
<!-- Node46 -->
<g id="node2" class="node">
<title>Node46</title>
<g id="a_node2"><a xlink:href="SaturatingSkumanichWindBody_8cpp.html" target="_top" xlink:title="Definitions of some of the methods of StaturatingSkumanichWindBody. ">
<polygon fill="#ffffff" stroke="#000000" points="0,-.5 0,-44.5 209.8867,-44.5 209.8867,-.5 0,-.5"/>
<text text-anchor="start" x="8" y="-30.9" font-family="Helvetica,sans-Serif" font-size="12.00" fill="#000000">/Users/kpenev/projects</text>
<text text-anchor="start" x="8" y="-18.9" font-family="Helvetica,sans-Serif" font-size="12.00" fill="#000000">/git/poet/poet_src/Star</text>
<text text-anchor="middle" x="104.9434" y="-6.9" font-family="Helvetica,sans-Serif" font-size="12.00" fill="#000000">/SaturatingSkumanichWindBody.cpp</text>
</a>
</g>
</g>
<!-- Node45&#45;&gt;Node46 -->
<g id="edge1" class="edge">
<title>Node45&#45;&gt;Node46</title>
<path fill="none" stroke="#191970" d="M172.9915,-74.9943C160.0621,-65.0201 145.7497,-53.9792 133.6004,-44.6068"/>
<polygon fill="#191970" stroke="#191970" points="171.196,-78.0296 181.2516,-81.3664 175.4716,-72.4871 171.196,-78.0296"/>
</g>
<!-- Node47 -->
<g id="node3" class="node">
<title>Node47</title>
<g id="a_node3"><a xlink:href="WindSaturationCondition_8cpp.html" target="_top" xlink:title="Definitions of some of the methods of WindSaturationCondition. ">
<polygon fill="#ffffff" stroke="#000000" points="227.5635,-.5 227.5635,-44.5 402.3232,-44.5 402.3232,-.5 227.5635,-.5"/>
<text text-anchor="start" x="235.5635" y="-30.9" font-family="Helvetica,sans-Serif" font-size="12.00" fill="#000000">/Users/kpenev/projects</text>
<text text-anchor="start" x="235.5635" y="-18.9" font-family="Helvetica,sans-Serif" font-size="12.00" fill="#000000">/git/poet/poet_src/Star</text>
<text text-anchor="middle" x="314.9434" y="-6.9" font-family="Helvetica,sans-Serif" font-size="12.00" fill="#000000">/WindSaturationCondition.cpp</text>
</a>
</g>
</g>
<!-- Node45&#45;&gt;Node47 -->
<g id="edge2" class="edge">
<title>Node45&#45;&gt;Node47</title>
<path fill="none" stroke="#191970" d="M246.8952,-74.9943C259.8247,-65.0201 274.137,-53.9792 286.2863,-44.6068"/>
<polygon fill="#191970" stroke="#191970" points="244.4151,-72.4871 238.6351,-81.3664 248.6907,-78.0296 244.4151,-72.4871"/>
</g>
</g>
</svg>
