<?xml version="1.0" encoding="UTF-8" standalone="no"?>
<!DOCTYPE svg PUBLIC "-//W3C//DTD SVG 1.1//EN"
 "http://www.w3.org/Graphics/SVG/1.1/DTD/svg11.dtd">
<!-- Generated by graphviz version 2.40.1 (20161225.0304)
 -->
<!-- Title: /home/kpenev/projects/git/poet/poet_src/Star/WindSaturationCondition.h Pages: 1 -->
<svg width="414pt" height="140pt"
 viewBox="0.00 0.00 414.00 140.00" xmlns="http://www.w3.org/2000/svg" xmlns:xlink="http://www.w3.org/1999/xlink">
<g id="graph0" class="graph" transform="scale(1 1) rotate(0) translate(4 136)">
<title>/home/kpenev/projects/git/poet/poet_src/Star/WindSaturationCondition.h</title>
<polygon fill="#ffffff" stroke="transparent" points="-4,4 -4,-136 410,-136 410,4 -4,4"/>
<!-- Node47 -->
<g id="node1" class="node">
<title>Node47</title>
<polygon fill="#bfbfbf" stroke="#000000" points="130,-84.5 130,-131.5 294,-131.5 294,-84.5 130,-84.5"/>
<text text-anchor="start" x="138" y="-117.9" font-family="Helvetica,sans-Serif" font-size="12.00" fill="#000000">/home/kpenev/projects</text>
<text text-anchor="start" x="138" y="-104.9" font-family="Helvetica,sans-Serif" font-size="12.00" fill="#000000">/git/poet/poet_src/Star</text>
<text text-anchor="middle" x="212" y="-91.9" font-family="Helvetica,sans-Serif" font-size="12.00" fill="#000000">/WindSaturationCondition.h</text>
</g>
<!-- Node48 -->
<g id="node2" class="node">
<title>Node48</title>
<g id="a_node2"><a xlink:href="SaturatingSkumanichWindBody_8cpp.html" target="_top" xlink:title="Definitions of some of the methods of StaturatingSkumanichWindBody. ">
<polygon fill="#ffffff" stroke="#000000" points="0,-.5 0,-47.5 212,-47.5 212,-.5 0,-.5"/>
<text text-anchor="start" x="8" y="-33.9" font-family="Helvetica,sans-Serif" font-size="12.00" fill="#000000">/home/kpenev/projects</text>
<text text-anchor="start" x="8" y="-20.9" font-family="Helvetica,sans-Serif" font-size="12.00" fill="#000000">/git/poet/poet_src/Star</text>
<text text-anchor="middle" x="106" y="-7.9" font-family="Helvetica,sans-Serif" font-size="12.00" fill="#000000">/SaturatingSkumanichWindBody.cpp</text>
</a>
</g>
</g>
<!-- Node47&#45;&gt;Node48 -->
<g id="edge1" class="edge">
<title>Node47&#45;&gt;Node48</title>
<path fill="none" stroke="#191970" d="M174.1564,-78.0107C161.6083,-68.067 147.8227,-57.1425 135.9525,-47.736"/>
<polygon fill="#191970" stroke="#191970" points="172.1797,-80.91 182.191,-84.3778 176.5273,-75.4238 172.1797,-80.91"/>
</g>
<!-- Node49 -->
<g id="node3" class="node">
<title>Node49</title>
<g id="a_node3"><a xlink:href="WindSaturationCondition_8cpp.html" target="_top" xlink:title="Definitions of some of the methods of WindSaturationCondition. ">
<polygon fill="#ffffff" stroke="#000000" points="230,-.5 230,-47.5 406,-47.5 406,-.5 230,-.5"/>
<text text-anchor="start" x="238" y="-33.9" font-family="Helvetica,sans-Serif" font-size="12.00" fill="#000000">/home/kpenev/projects</text>
<text text-anchor="start" x="238" y="-20.9" font-family="Helvetica,sans-Serif" font-size="12.00" fill="#000000">/git/poet/poet_src/Star</text>
<text text-anchor="middle" x="318" y="-7.9" font-family="Helvetica,sans-Serif" font-size="12.00" fill="#000000">/WindSaturationCondition.cpp</text>
</a>
</g>
</g>
<!-- Node47&#45;&gt;Node49 -->
<g id="edge2" class="edge">
<title>Node47&#45;&gt;Node49</title>
<path fill="none" stroke="#191970" d="M249.8436,-78.0107C262.3917,-68.067 276.1773,-57.1425 288.0475,-47.736"/>
<polygon fill="#191970" stroke="#191970" points="247.4727,-75.4238 241.809,-84.3778 251.8203,-80.91 247.4727,-75.4238"/>
</g>
</g>
</svg>
