<?xml version="1.0" encoding="UTF-8" standalone="no"?>
<!DOCTYPE svg PUBLIC "-//W3C//DTD SVG 1.1//EN"
 "http://www.w3.org/Graphics/SVG/1.1/DTD/svg11.dtd">
<!-- Generated by graphviz version 2.40.1 (20161225.0304)
 -->
<!-- Title: /home/kpenev/projects/git/poet/poet_src/StellarEvolution/YRECIO.cpp Pages: 1 -->
<!--zoomable 256 -->
<svg id="main" version="1.1" xmlns="http://www.w3.org/2000/svg" xmlns:xlink="http://www.w3.org/1999/xlink" xml:space="preserve" onload="init(evt)">
<style type="text/css"><![CDATA[
.edge:hover path { stroke: red; }
.edge:hover polygon { stroke: red; fill: red; }
]]></style>
<script type="text/javascript"><![CDATA[
var edges = document.getElementsByTagName('g');
if (edges && edges.length) {
  for (var i=0;i<edges.length;i++) {
    if (edges[i].id.substr(0,4)=='edge') {
      edges[i].setAttribute('class','edge');
    }
  }
}
]]></script>
        <defs>
                <circle id="rim" cx="0" cy="0" r="7"/>
                <circle id="rim2" cx="0" cy="0" r="3.5"/>
                <g id="zoomPlus">
                        <use xlink:href="#rim" fill="#404040">
                                <set attributeName="fill" to="#808080" begin="zoomplus.mouseover" end="zoomplus.mouseout"/>
                        </use>
                        <path d="M-4,0h8M0,-4v8" fill="none" stroke="white" stroke-width="1.5" pointer-events="none"/>
                </g>
                <g id="zoomMin">
                        <use xlink:href="#rim" fill="#404040">
                                <set attributeName="fill" to="#808080" begin="zoomminus.mouseover" end="zoomminus.mouseout"/>
                        </use>
                        <path d="M-4,0h8" fill="none" stroke="white" stroke-width="1.5" pointer-events="none"/>
                </g>
                <g id="dirArrow">
                        <path fill="none" stroke="white" stroke-width="1.5" d="M0,-3.0v7 M-2.5,-0.5L0,-3.0L2.5,-0.5"/>
                </g>
               <g id="resetDef">
                       <use xlink:href="#rim2" fill="#404040">
                               <set attributeName="fill" to="#808080" begin="reset.mouseover" end="reset.mouseout"/>
                       </use>
               </g>
        </defs>

<script type="text/javascript">
var viewWidth = 1364;
var viewHeight = 256;
var sectionId = 'dynsection-0';
</script>
<script xlink:href="svgpan.js"/>
<svg id="graph" class="graph">
<g id="viewport">
<title>/home/kpenev/projects/git/poet/poet_src/StellarEvolution/YRECIO.cpp</title>
<polygon fill="#ffffff" stroke="transparent" points="-4,4 -4,-252 1360.1985,-252 1360.1985,4 -4,4"/>
<!-- Node0 -->
<g id="node1" class="node">
<title>Node0</title>
<polygon fill="#bfbfbf" stroke="#000000" points="1115.6985,-200.5 1115.6985,-247.5 1310.6985,-247.5 1310.6985,-200.5 1115.6985,-200.5"/>
<text text-anchor="start" x="1123.6985" y="-233.9" font-family="Helvetica,sans-Serif" font-size="12.00" fill="#000000">/home/kpenev/projects</text>
<text text-anchor="start" x="1123.6985" y="-220.9" font-family="Helvetica,sans-Serif" font-size="12.00" fill="#000000">/git/poet/poet_src/StellarEvolution</text>
<text text-anchor="middle" x="1213.1985" y="-207.9" font-family="Helvetica,sans-Serif" font-size="12.00" fill="#000000">/YRECIO.cpp</text>
</g>
<!-- Node1 -->
<g id="node2" class="node">
<title>Node1</title>
<g id="a_node2"><a xlink:href="YRECIO_8h.html" target="_top" xlink:title="Defines the classes for generating stellar evolution interpolators from the YREC tracks. ">
<polygon fill="#ffffff" stroke="#000000" points="573.6985,-142.5 573.6985,-163.5 646.6985,-163.5 646.6985,-142.5 573.6985,-142.5"/>
<text text-anchor="middle" x="610.1985" y="-149.9" font-family="Helvetica,sans-Serif" font-size="12.00" fill="#000000">YRECIO.h</text>
</a>
</g>
</g>
<!-- Node0&#45;&gt;Node1 -->
<g id="edge1" class="edge">
<title>Node0&#45;&gt;Node1</title>
<path fill="none" stroke="#191970" d="M1115.6459,-212.5137C984.1091,-197.026 755.0753,-170.0585 656.9741,-158.5076"/>
<polygon fill="#191970" stroke="#191970" points="657.1237,-155.0011 646.783,-157.3076 656.3051,-161.9531 657.1237,-155.0011"/>
</g>
<!-- Node10 -->
<g id="node11" class="node">
<title>Node10</title>
<polygon fill="#ffffff" stroke="#bfbfbf" points="607.1985,-7 607.1985,-28 653.1985,-28 653.1985,-7 607.1985,-7"/>
<text text-anchor="middle" x="630.1985" y="-14.4" font-family="Helvetica,sans-Serif" font-size="12.00" fill="#000000">string</text>
</g>
<!-- Node0&#45;&gt;Node10 -->
<g id="edge18" class="edge">
<title>Node0&#45;&gt;Node10</title>
<path fill="none" stroke="#191970" d="M1209.0166,-200.228C1201.6925,-161.4966 1185.3853,-87.4325 1165.1985,-71 1126.2278,-39.2771 774.3026,-23.0691 663.4663,-18.7199"/>
<polygon fill="#191970" stroke="#191970" points="663.3438,-15.2126 653.2164,-18.3247 663.0741,-22.2074 663.3438,-15.2126"/>
</g>
<!-- Node16 -->
<g id="node17" class="node">
<title>Node16</title>
<polygon fill="#ffffff" stroke="#bfbfbf" points="1212.6985,-142.5 1212.6985,-163.5 1271.6985,-163.5 1271.6985,-142.5 1212.6985,-142.5"/>
<text text-anchor="middle" x="1242.1985" y="-149.9" font-family="Helvetica,sans-Serif" font-size="12.00" fill="#000000">sstream</text>
</g>
<!-- Node0&#45;&gt;Node16 -->
<g id="edge19" class="edge">
<title>Node0&#45;&gt;Node16</title>
<path fill="none" stroke="#191970" d="M1222.855,-200.358C1226.4629,-191.5249 1230.5228,-181.5851 1233.9882,-173.101"/>
<polygon fill="#191970" stroke="#191970" points="1237.3088,-174.2272 1237.85,-163.6462 1230.8285,-171.5803 1237.3088,-174.2272"/>
</g>
<!-- Node17 -->
<g id="node18" class="node">
<title>Node17</title>
<polygon fill="#ffffff" stroke="#bfbfbf" points="1290.1985,-142.5 1290.1985,-163.5 1356.1985,-163.5 1356.1985,-142.5 1290.1985,-142.5"/>
<text text-anchor="middle" x="1323.1985" y="-149.9" font-family="Helvetica,sans-Serif" font-size="12.00" fill="#000000">algorithm</text>
</g>
<!-- Node0&#45;&gt;Node17 -->
<g id="edge20" class="edge">
<title>Node0&#45;&gt;Node17</title>
<path fill="none" stroke="#191970" d="M1249.8269,-200.358C1265.6174,-190.1659 1283.6905,-178.5006 1297.9483,-169.2979"/>
<polygon fill="#191970" stroke="#191970" points="1300.2005,-172.0099 1306.7043,-163.6462 1296.4044,-166.1286 1300.2005,-172.0099"/>
</g>
<!-- Node2 -->
<g id="node3" class="node">
<title>Node2</title>
<g id="a_node3"><a xlink:href="SharedLibraryExportMacros_8h_source.html" target="_top" xlink:title="../Core/SharedLibraryExport\lMacros.h">
<polygon fill="#ffffff" stroke="#000000" points="82.6985,-.5 82.6985,-34.5 247.6985,-34.5 247.6985,-.5 82.6985,-.5"/>
<text text-anchor="start" x="90.6985" y="-20.9" font-family="Helvetica,sans-Serif" font-size="12.00" fill="#000000">../Core/SharedLibraryExport</text>
<text text-anchor="middle" x="165.1985" y="-7.9" font-family="Helvetica,sans-Serif" font-size="12.00" fill="#000000">Macros.h</text>
</a>
</g>
</g>
<!-- Node1&#45;&gt;Node2 -->
<g id="edge2" class="edge">
<title>Node1&#45;&gt;Node2</title>
<path fill="none" stroke="#191970" d="M573.505,-151.4924C445.939,-146.0763 28.4517,-126.8177 9.1985,-106 -19.3931,-75.0853 25.7559,-52.1359 74.7159,-37.3633"/>
<polygon fill="#191970" stroke="#191970" points="75.9068,-40.6623 84.538,-34.5179 73.959,-33.9388 75.9068,-40.6623"/>
</g>
<!-- Node3 -->
<g id="node4" class="node">
<title>Node3</title>
<polygon fill="#ffffff" stroke="#bfbfbf" points="18.6985,-78 18.6985,-99 129.6985,-99 129.6985,-78 18.6985,-78"/>
<text text-anchor="middle" x="74.1985" y="-85.4" font-family="Helvetica,sans-Serif" font-size="12.00" fill="#000000">StellarEvolution.h</text>
</g>
<!-- Node1&#45;&gt;Node3 -->
<g id="edge3" class="edge">
<title>Node1&#45;&gt;Node3</title>
<path fill="none" stroke="#191970" d="M573.4842,-151.4414C493.6915,-147.5968 298.7283,-135.7228 138.1985,-106 131.8061,-104.8164 125.1217,-103.3042 118.5847,-101.6657"/>
<polygon fill="#191970" stroke="#191970" points="119.0579,-98.1713 108.4968,-99.0161 117.2796,-104.9417 119.0579,-98.1713"/>
</g>
<!-- Node4 -->
<g id="node5" class="node">
<title>Node4</title>
<polygon fill="#ffffff" stroke="#bfbfbf" points="147.6985,-78 147.6985,-99 222.6985,-99 222.6985,-78 147.6985,-78"/>
<text text-anchor="middle" x="185.1985" y="-85.4" font-family="Helvetica,sans-Serif" font-size="12.00" fill="#000000">Common.h</text>
</g>
<!-- Node1&#45;&gt;Node4 -->
<g id="edge4" class="edge">
<title>Node1&#45;&gt;Node4</title>
<path fill="none" stroke="#191970" d="M573.612,-151.3815C505.3711,-147.7229 354.4238,-136.6068 231.1985,-106 227.2984,-105.0313 223.2787,-103.8279 219.3151,-102.5087"/>
<polygon fill="#191970" stroke="#191970" points="220.2724,-99.1339 209.6779,-99.0587 217.9131,-105.7244 220.2724,-99.1339"/>
</g>
<!-- Node5 -->
<g id="node6" class="node">
<title>Node5</title>
<g id="a_node6"><a xlink:href="AstronomicalConstants_8h.html" target="_top" xlink:title="Defines various astronomical constants. ">
<polygon fill="#ffffff" stroke="#000000" points="240.1985,-78 240.1985,-99 390.1985,-99 390.1985,-78 240.1985,-78"/>
<text text-anchor="middle" x="315.1985" y="-85.4" font-family="Helvetica,sans-Serif" font-size="12.00" fill="#000000">AstronomicalConstants.h</text>
</a>
</g>
</g>
<!-- Node1&#45;&gt;Node5 -->
<g id="edge5" class="edge">
<title>Node1&#45;&gt;Node5</title>
<path fill="none" stroke="#191970" d="M573.433,-144.9614C523.2798,-133.9957 432.8745,-114.2292 373.4463,-101.2355"/>
<polygon fill="#191970" stroke="#191970" points="373.9739,-97.7683 363.4571,-99.0515 372.4787,-104.6067 373.9739,-97.7683"/>
</g>
<!-- Node6 -->
<g id="node7" class="node">
<title>Node6</title>
<polygon fill="#ffffff" stroke="#bfbfbf" points="408.1985,-78 408.1985,-99 510.1985,-99 510.1985,-78 408.1985,-78"/>
<text text-anchor="middle" x="459.1985" y="-85.4" font-family="Helvetica,sans-Serif" font-size="12.00" fill="#000000">dirent_hacked.h</text>
</g>
<!-- Node1&#45;&gt;Node6 -->
<g id="edge6" class="edge">
<title>Node1&#45;&gt;Node6</title>
<path fill="none" stroke="#191970" d="M585.6016,-142.4934C560.4837,-131.7642 521.2961,-115.0251 493.2135,-103.0296"/>
<polygon fill="#191970" stroke="#191970" points="494.3558,-99.7117 483.7848,-99.0021 491.6061,-106.149 494.3558,-99.7117"/>
</g>
<!-- Node7 -->
<g id="node8" class="node">
<title>Node7</title>
<g id="a_node8"><a xlink:href="Error_8h.html" target="_top" xlink:title="Defines the exception hierarchy used by this code. ">
<polygon fill="#ffffff" stroke="#000000" points="528.6985,-78 528.6985,-99 581.6985,-99 581.6985,-78 528.6985,-78"/>
<text text-anchor="middle" x="555.1985" y="-85.4" font-family="Helvetica,sans-Serif" font-size="12.00" fill="#000000">Error.h</text>
</a>
</g>
</g>
<!-- Node1&#45;&gt;Node7 -->
<g id="edge7" class="edge">
<title>Node1&#45;&gt;Node7</title>
<path fill="none" stroke="#191970" d="M601.1163,-142.3491C592.9652,-132.7901 580.8186,-118.5454 571.0654,-107.1076"/>
<polygon fill="#191970" stroke="#191970" points="573.6296,-104.7205 564.4779,-99.3823 568.3032,-109.2625 573.6296,-104.7205"/>
</g>
<!-- Node1&#45;&gt;Node10 -->
<g id="edge13" class="edge">
<title>Node1&#45;&gt;Node10</title>
<path fill="none" stroke="#191970" d="M611.7678,-142.3675C615.083,-119.9072 622.8483,-67.2971 627.1666,-38.0408"/>
<polygon fill="#191970" stroke="#191970" points="630.6386,-38.487 628.6364,-28.0831 623.7136,-37.4648 630.6386,-38.487"/>
</g>
<!-- Node11 -->
<g id="node12" class="node">
<title>Node11</title>
<polygon fill="#ffffff" stroke="#bfbfbf" points="638.1985,-78 638.1985,-99 694.1985,-99 694.1985,-78 638.1985,-78"/>
<text text-anchor="middle" x="666.1985" y="-85.4" font-family="Helvetica,sans-Serif" font-size="12.00" fill="#000000">fstream</text>
</g>
<!-- Node1&#45;&gt;Node11 -->
<g id="edge12" class="edge">
<title>Node1&#45;&gt;Node11</title>
<path fill="none" stroke="#191970" d="M619.4457,-142.3491C627.7451,-132.7901 640.1125,-118.5454 650.043,-107.1076"/>
<polygon fill="#191970" stroke="#191970" points="652.8372,-109.228 656.7503,-99.3823 647.5514,-104.6388 652.8372,-109.228"/>
</g>
<!-- Node12 -->
<g id="node13" class="node">
<title>Node12</title>
<polygon fill="#ffffff" stroke="#bfbfbf" points="712.6985,-78 712.6985,-99 767.6985,-99 767.6985,-78 712.6985,-78"/>
<text text-anchor="middle" x="740.1985" y="-85.4" font-family="Helvetica,sans-Serif" font-size="12.00" fill="#000000">cassert</text>
</g>
<!-- Node1&#45;&gt;Node12 -->
<g id="edge14" class="edge">
<title>Node1&#45;&gt;Node12</title>
<path fill="none" stroke="#191970" d="M631.3745,-142.4934C652.7159,-131.9048 685.855,-115.4627 709.9589,-103.5035"/>
<polygon fill="#191970" stroke="#191970" points="711.629,-106.582 719.0314,-99.0021 708.5178,-100.3114 711.629,-106.582"/>
</g>
<!-- Node13 -->
<g id="node14" class="node">
<title>Node13</title>
<polygon fill="#ffffff" stroke="#bfbfbf" points="786.1985,-71.5 786.1985,-105.5 896.1985,-105.5 896.1985,-71.5 786.1985,-71.5"/>
<text text-anchor="start" x="794.1985" y="-91.9" font-family="Helvetica,sans-Serif" font-size="12.00" fill="#000000">boost/archive/text</text>
<text text-anchor="middle" x="841.1985" y="-78.9" font-family="Helvetica,sans-Serif" font-size="12.00" fill="#000000">_oarchive.hpp</text>
</g>
<!-- Node1&#45;&gt;Node13 -->
<g id="edge15" class="edge">
<title>Node1&#45;&gt;Node13</title>
<path fill="none" stroke="#191970" d="M646.8011,-142.7798C681.4273,-133.1114 734.1755,-118.383 775.993,-106.7067"/>
<polygon fill="#191970" stroke="#191970" points="777.1343,-110.022 785.8246,-103.9615 775.2517,-103.2799 777.1343,-110.022"/>
</g>
<!-- Node14 -->
<g id="node15" class="node">
<title>Node14</title>
<polygon fill="#ffffff" stroke="#bfbfbf" points="914.1985,-71.5 914.1985,-105.5 1024.1985,-105.5 1024.1985,-71.5 914.1985,-71.5"/>
<text text-anchor="start" x="922.1985" y="-91.9" font-family="Helvetica,sans-Serif" font-size="12.00" fill="#000000">boost/archive/text</text>
<text text-anchor="middle" x="969.1985" y="-78.9" font-family="Helvetica,sans-Serif" font-size="12.00" fill="#000000">_iarchive.hpp</text>
</g>
<!-- Node1&#45;&gt;Node14 -->
<g id="edge16" class="edge">
<title>Node1&#45;&gt;Node14</title>
<path fill="none" stroke="#191970" d="M646.7678,-148.4778C700.9509,-141.494 805.8882,-126.8839 904.3243,-106.0662"/>
<polygon fill="#191970" stroke="#191970" points="905.0886,-109.4819 914.1342,-103.9659 903.6231,-102.637 905.0886,-109.4819"/>
</g>
<!-- Node15 -->
<g id="node16" class="node">
<title>Node15</title>
<polygon fill="#ffffff" stroke="#bfbfbf" points="1042.6985,-71.5 1042.6985,-105.5 1155.6985,-105.5 1155.6985,-71.5 1042.6985,-71.5"/>
<text text-anchor="start" x="1050.6985" y="-91.9" font-family="Helvetica,sans-Serif" font-size="12.00" fill="#000000">boost/serialization</text>
<text text-anchor="middle" x="1099.1985" y="-78.9" font-family="Helvetica,sans-Serif" font-size="12.00" fill="#000000">/base_object.hpp</text>
</g>
<!-- Node1&#45;&gt;Node15 -->
<g id="edge17" class="edge">
<title>Node1&#45;&gt;Node15</title>
<path fill="none" stroke="#191970" d="M646.9636,-150.7598C719.0555,-145.9712 884.1178,-133.0566 1032.2557,-106.0096"/>
<polygon fill="#191970" stroke="#191970" points="1033.2439,-109.3862 1042.4388,-104.1228 1031.9685,-102.5033 1033.2439,-109.3862"/>
</g>
<!-- Node7&#45;&gt;Node2 -->
<g id="edge8" class="edge">
<title>Node7&#45;&gt;Node2</title>
<path fill="none" stroke="#191970" d="M536.2074,-77.9438C530.8412,-75.33 524.9058,-72.7732 519.1985,-71 432.8865,-44.1838 330.4137,-30.5703 257.9863,-23.8129"/>
<polygon fill="#191970" stroke="#191970" points="258.2461,-20.3222 247.9708,-22.9042 257.6136,-27.2935 258.2461,-20.3222"/>
</g>
<!-- Node8 -->
<g id="node9" class="node">
<title>Node8</title>
<polygon fill="#ffffff" stroke="#bfbfbf" points="441.1985,-7 441.1985,-28 503.1985,-28 503.1985,-7 441.1985,-7"/>
<text text-anchor="middle" x="472.1985" y="-14.4" font-family="Helvetica,sans-Serif" font-size="12.00" fill="#000000">iostream</text>
</g>
<!-- Node7&#45;&gt;Node8 -->
<g id="edge9" class="edge">
<title>Node7&#45;&gt;Node8</title>
<path fill="none" stroke="#191970" d="M542.5925,-77.7166C529.2307,-66.2866 507.9354,-48.0702 492.2626,-34.6633"/>
<polygon fill="#191970" stroke="#191970" points="494.5252,-31.993 484.651,-28.1522 489.975,-37.3123 494.5252,-31.993"/>
</g>
<!-- Node9 -->
<g id="node10" class="node">
<title>Node9</title>
<polygon fill="#ffffff" stroke="#bfbfbf" points="521.1985,-7 521.1985,-28 589.1985,-28 589.1985,-7 521.1985,-7"/>
<text text-anchor="middle" x="555.1985" y="-14.4" font-family="Helvetica,sans-Serif" font-size="12.00" fill="#000000">exception</text>
</g>
<!-- Node7&#45;&gt;Node9 -->
<g id="edge10" class="edge">
<title>Node7&#45;&gt;Node9</title>
<path fill="none" stroke="#191970" d="M555.1985,-77.7166C555.1985,-67.3953 555.1985,-51.5401 555.1985,-38.6896"/>
<polygon fill="#191970" stroke="#191970" points="558.6986,-38.3848 555.1985,-28.3849 551.6986,-38.3849 558.6986,-38.3848"/>
</g>
<!-- Node7&#45;&gt;Node10 -->
<g id="edge11" class="edge">
<title>Node7&#45;&gt;Node10</title>
<path fill="none" stroke="#191970" d="M566.5893,-77.7166C578.4834,-66.457 597.3341,-48.6116 611.4317,-35.2658"/>
<polygon fill="#191970" stroke="#191970" points="613.8445,-37.8014 618.7004,-28.3849 609.0321,-32.7179 613.8445,-37.8014"/>
</g>
</g>
</svg>
        <g id="navigator" transform="translate(0 0)" fill="#404254">
                <rect fill="#f2f5e9" fill-opacity="0.5" stroke="#606060" stroke-width=".5" x="0" y="0" width="60" height="60"/>
                <use id="zoomplus" xlink:href="#zoomPlus" x="17" y="9" onmousedown="handleZoom(evt,'in')"/>
                <use id="zoomminus" xlink:href="#zoomMin" x="42" y="9" onmousedown="handleZoom(evt,'out')"/>
                <use id="reset" xlink:href="#resetDef" x="30" y="36" onmousedown="handleReset()"/>
                <g id="arrowUp" xlink:href="#dirArrow" transform="translate(30 24)" onmousedown="handlePan(0,-1)">
                  <use xlink:href="#rim" fill="#404040">
                        <set attributeName="fill" to="#808080" begin="arrowUp.mouseover" end="arrowUp.mouseout"/>
                  </use>
                  <path fill="none" stroke="white" stroke-width="1.5" d="M0,-3.0v7 M-2.5,-0.5L0,-3.0L2.5,-0.5"/>
                </g>
                <g id="arrowRight" xlink:href="#dirArrow" transform="rotate(90) translate(36 -43)" onmousedown="handlePan(1,0)">
                  <use xlink:href="#rim" fill="#404040">
                        <set attributeName="fill" to="#808080" begin="arrowRight.mouseover" end="arrowRight.mouseout"/>
                  </use>
                  <path fill="none" stroke="white" stroke-width="1.5" d="M0,-3.0v7 M-2.5,-0.5L0,-3.0L2.5,-0.5"/>
                </g>
                <g id="arrowDown" xlink:href="#dirArrow" transform="rotate(180) translate(-30 -48)" onmousedown="handlePan(0,1)">
                  <use xlink:href="#rim" fill="#404040">
                        <set attributeName="fill" to="#808080" begin="arrowDown.mouseover" end="arrowDown.mouseout"/>
                  </use>
                  <path fill="none" stroke="white" stroke-width="1.5" d="M0,-3.0v7 M-2.5,-0.5L0,-3.0L2.5,-0.5"/>
                </g>
                <g id="arrowLeft" xlink:href="#dirArrow" transform="rotate(270) translate(-36 17)" onmousedown="handlePan(-1,0)">
                  <use xlink:href="#rim" fill="#404040">
                        <set attributeName="fill" to="#808080" begin="arrowLeft.mouseover" end="arrowLeft.mouseout"/>
                  </use>
                  <path fill="none" stroke="white" stroke-width="1.5" d="M0,-3.0v7 M-2.5,-0.5L0,-3.0L2.5,-0.5"/>
                </g>
        </g>
        <svg viewBox="0 0 15 15" width="100%" height="30px" preserveAspectRatio="xMaxYMin meet">
         <g id="arrow_out" transform="scale(0.3 0.3)">
          <a xlink:href="YRECIO_8cpp__incl_org.svg" target="_base">
           <rect id="button" ry="5" rx="5" y="6" x="6" height="38" width="38"
                fill="#f2f5e9" fill-opacity="0.5" stroke="#606060" stroke-width="1.0"/>
           <path id="arrow"
             d="M 11.500037,31.436501 C 11.940474,20.09759 22.043105,11.32322 32.158766,21.979434 L 37.068811,17.246167 C 37.068811,17.246167 37.088388,32 37.088388,32 L 22.160133,31.978069 C 22.160133,31.978069 26.997745,27.140456 26.997745,27.140456 C 18.528582,18.264221 13.291696,25.230495 11.500037,31.436501 z"
             style="fill:#404040;"/>
          </a>
         </g>
        </svg>
</svg>
