<?xml version="1.0" encoding="UTF-8" standalone="no"?>
<!DOCTYPE svg PUBLIC "-//W3C//DTD SVG 1.1//EN"
 "http://www.w3.org/Graphics/SVG/1.1/DTD/svg11.dtd">
<!-- Generated by graphviz version 2.40.1 (20161225.0304)
 -->
<!-- Title: /Users/kpenev/projects/git/poet/poet_src/StellarEvolution/YRECIO.cpp Pages: 1 -->
<svg width="1353pt" height="248pt"
 viewBox="0.00 0.00 1352.69 248.00" xmlns="http://www.w3.org/2000/svg" xmlns:xlink="http://www.w3.org/1999/xlink">
<g id="graph0" class="graph" transform="scale(1 1) rotate(0) translate(4 244)">
<title>/Users/kpenev/projects/git/poet/poet_src/StellarEvolution/YRECIO.cpp</title>
<polygon fill="#ffffff" stroke="transparent" points="-4,4 -4,-244 1348.6877,-244 1348.6877,4 -4,4"/>
<!-- Node0 -->
<g id="node1" class="node">
<title>Node0</title>
<polygon fill="#bfbfbf" stroke="#000000" points="1105.6262,-195.5 1105.6262,-239.5 1300.3957,-239.5 1300.3957,-195.5 1105.6262,-195.5"/>
<text text-anchor="start" x="1113.6262" y="-225.9" font-family="Helvetica,sans-Serif" font-size="12.00" fill="#000000">/Users/kpenev/projects</text>
<text text-anchor="start" x="1113.6262" y="-213.9" font-family="Helvetica,sans-Serif" font-size="12.00" fill="#000000">/git/poet/poet_src/StellarEvolution</text>
<text text-anchor="middle" x="1203.0109" y="-201.9" font-family="Helvetica,sans-Serif" font-size="12.00" fill="#000000">/YRECIO.cpp</text>
</g>
<!-- Node1 -->
<g id="node2" class="node">
<title>Node1</title>
<g id="a_node2"><a xlink:href="YRECIO_8h.html" target="_top" xlink:title="Defines the classes for generating stellar evolution interpolators from the YREC tracks. ">
<polygon fill="#ffffff" stroke="#000000" points="569.0031,-138.5 569.0031,-158.5 641.0187,-158.5 641.0187,-138.5 569.0031,-138.5"/>
<text text-anchor="middle" x="605.0109" y="-144.9" font-family="Helvetica,sans-Serif" font-size="12.00" fill="#000000">YRECIO.h</text>
</a>
</g>
</g>
<!-- Node0&#45;&gt;Node1 -->
<g id="edge1" class="edge">
<title>Node0&#45;&gt;Node1</title>
<path fill="none" stroke="#191970" d="M1105.601,-206.2604C974.9981,-191.1908 748.3441,-165.0384 651.285,-153.8393"/>
<polygon fill="#191970" stroke="#191970" points="651.5377,-150.3453 641.2024,-152.6759 650.7353,-157.2992 651.5377,-150.3453"/>
</g>
<!-- Node10 -->
<g id="node11" class="node">
<title>Node10</title>
<polygon fill="#ffffff" stroke="#bfbfbf" points="602.3391,-6.5 602.3391,-26.5 647.6828,-26.5 647.6828,-6.5 602.3391,-6.5"/>
<text text-anchor="middle" x="625.0109" y="-12.9" font-family="Helvetica,sans-Serif" font-size="12.00" fill="#000000">string</text>
</g>
<!-- Node0&#45;&gt;Node10 -->
<g id="edge18" class="edge">
<title>Node0&#45;&gt;Node10</title>
<path fill="none" stroke="#191970" d="M1199.06,-195.3203C1191.9322,-157.9795 1175.8061,-85.0539 1156.0109,-69 1117.2787,-37.5882 768.0208,-21.8755 658.0261,-17.6757"/>
<polygon fill="#191970" stroke="#191970" points="657.9781,-14.1716 647.8539,-17.2943 657.7157,-21.1667 657.9781,-14.1716"/>
</g>
<!-- Node16 -->
<g id="node17" class="node">
<title>Node16</title>
<polygon fill="#ffffff" stroke="#bfbfbf" points="1202.674,-138.5 1202.674,-158.5 1261.3478,-158.5 1261.3478,-138.5 1202.674,-138.5"/>
<text text-anchor="middle" x="1232.0109" y="-144.9" font-family="Helvetica,sans-Serif" font-size="12.00" fill="#000000">sstream</text>
</g>
<!-- Node0&#45;&gt;Node16 -->
<g id="edge19" class="edge">
<title>Node0&#45;&gt;Node16</title>
<path fill="none" stroke="#191970" d="M1212.3463,-195.2882C1216.0191,-186.5496 1220.2003,-176.6011 1223.7602,-168.1311"/>
<polygon fill="#191970" stroke="#191970" points="1227.0702,-169.2887 1227.7182,-158.7137 1220.617,-166.5764 1227.0702,-169.2887"/>
</g>
<!-- Node17 -->
<g id="node18" class="node">
<title>Node17</title>
<polygon fill="#ffffff" stroke="#bfbfbf" points="1279.3342,-138.5 1279.3342,-158.5 1344.6877,-158.5 1344.6877,-138.5 1279.3342,-138.5"/>
<text text-anchor="middle" x="1312.0109" y="-144.9" font-family="Helvetica,sans-Serif" font-size="12.00" fill="#000000">algorithm</text>
</g>
<!-- Node0&#45;&gt;Node17 -->
<g id="edge20" class="edge">
<title>Node0&#45;&gt;Node17</title>
<path fill="none" stroke="#191970" d="M1237.7989,-195.4783C1253.9999,-185.2226 1272.8867,-173.2667 1287.5524,-163.9829"/>
<polygon fill="#191970" stroke="#191970" points="1289.4993,-166.8929 1296.0766,-158.5869 1285.7552,-160.9783 1289.4993,-166.8929"/>
</g>
<!-- Node2 -->
<g id="node3" class="node">
<title>Node2</title>
<g id="a_node3"><a xlink:href="SharedLibraryExportMacros_8h_source.html" target="_top" xlink:title="../Core/SharedLibraryExport\lMacros.h">
<polygon fill="#ffffff" stroke="#000000" points="80.3098,-.5 80.3098,-32.5 245.7121,-32.5 245.7121,-.5 80.3098,-.5"/>
<text text-anchor="start" x="88.3098" y="-18.9" font-family="Helvetica,sans-Serif" font-size="12.00" fill="#000000">../Core/SharedLibraryExport</text>
<text text-anchor="middle" x="163.0109" y="-6.9" font-family="Helvetica,sans-Serif" font-size="12.00" fill="#000000">Macros.h</text>
</a>
</g>
</g>
<!-- Node1&#45;&gt;Node2 -->
<g id="edge2" class="edge">
<title>Node1&#45;&gt;Node2</title>
<path fill="none" stroke="#191970" d="M568.6229,-147.0117C442.1186,-141.6641 28.1056,-122.6425 9.0109,-102 -19.1199,-71.5889 25.6455,-49.4212 74.0348,-35.2883"/>
<polygon fill="#191970" stroke="#191970" points="75.0557,-38.6371 83.7405,-32.5688 73.167,-31.8967 75.0557,-38.6371"/>
</g>
<!-- Node3 -->
<g id="node4" class="node">
<title>Node3</title>
<polygon fill="#ffffff" stroke="#bfbfbf" points="18.3176,-75.5 18.3176,-95.5 127.7043,-95.5 127.7043,-75.5 18.3176,-75.5"/>
<text text-anchor="middle" x="73.0109" y="-81.9" font-family="Helvetica,sans-Serif" font-size="12.00" fill="#000000">StellarEvolution.h</text>
</g>
<!-- Node1&#45;&gt;Node3 -->
<g id="edge3" class="edge">
<title>Node1&#45;&gt;Node3</title>
<path fill="none" stroke="#191970" d="M568.9385,-146.8033C490.0736,-142.682 296.5918,-130.3265 137.0109,-102 130.783,-100.8945 124.2697,-99.5 117.8826,-97.9923"/>
<polygon fill="#191970" stroke="#191970" points="118.5564,-94.5536 108.009,-95.555 116.8788,-101.3496 118.5564,-94.5536"/>
</g>
<!-- Node4 -->
<g id="node5" class="node">
<title>Node4</title>
<polygon fill="#ffffff" stroke="#bfbfbf" points="145.6672,-75.5 145.6672,-95.5 220.3547,-95.5 220.3547,-75.5 145.6672,-75.5"/>
<text text-anchor="middle" x="183.0109" y="-81.9" font-family="Helvetica,sans-Serif" font-size="12.00" fill="#000000">Common.h</text>
</g>
<!-- Node1&#45;&gt;Node4 -->
<g id="edge4" class="edge">
<title>Node1&#45;&gt;Node4</title>
<path fill="none" stroke="#191970" d="M568.7682,-146.6875C501.1567,-142.7203 351.5455,-131.1723 229.0109,-102 225.3277,-101.1231 221.5309,-100.0506 217.7719,-98.8772"/>
<polygon fill="#191970" stroke="#191970" points="218.6081,-95.4661 208.0141,-95.6011 216.38,-102.102 218.6081,-95.4661"/>
</g>
<!-- Node5 -->
<g id="node6" class="node">
<title>Node5</title>
<g id="a_node6"><a xlink:href="AstronomicalConstants_8h.html" target="_top" xlink:title="Defines various astronomical constants. ">
<polygon fill="#ffffff" stroke="#000000" points="238.3137,-75.5 238.3137,-95.5 387.7082,-95.5 387.7082,-75.5 238.3137,-75.5"/>
<text text-anchor="middle" x="313.0109" y="-81.9" font-family="Helvetica,sans-Serif" font-size="12.00" fill="#000000">AstronomicalConstants.h</text>
</a>
</g>
</g>
<!-- Node1&#45;&gt;Node5 -->
<g id="edge5" class="edge">
<title>Node1&#45;&gt;Node5</title>
<path fill="none" stroke="#191970" d="M568.9131,-140.7118C518.933,-129.9284 428.1673,-110.3454 369.2567,-97.6352"/>
<polygon fill="#191970" stroke="#191970" points="369.8797,-94.1892 359.3665,-95.5014 368.4034,-101.0317 369.8797,-94.1892"/>
</g>
<!-- Node6 -->
<g id="node7" class="node">
<title>Node6</title>
<polygon fill="#ffffff" stroke="#bfbfbf" points="405.3137,-75.5 405.3137,-95.5 506.7082,-95.5 506.7082,-75.5 405.3137,-75.5"/>
<text text-anchor="middle" x="456.0109" y="-81.9" font-family="Helvetica,sans-Serif" font-size="12.00" fill="#000000">dirent_hacked.h</text>
</g>
<!-- Node1&#45;&gt;Node6 -->
<g id="edge6" class="edge">
<title>Node1&#45;&gt;Node6</title>
<path fill="none" stroke="#191970" d="M581.0715,-138.378C556.199,-127.8614 517.0906,-111.3256 489.2334,-99.5471"/>
<polygon fill="#191970" stroke="#191970" points="490.4645,-96.2677 479.8909,-95.5969 487.7384,-102.7151 490.4645,-96.2677"/>
</g>
<!-- Node7 -->
<g id="node8" class="node">
<title>Node7</title>
<g id="a_node8"><a xlink:href="Error_8h.html" target="_top" xlink:title="Defines the exception hierarchy used by this code. ">
<polygon fill="#ffffff" stroke="#000000" points="525.0021,-75.5 525.0021,-95.5 577.0197,-95.5 577.0197,-75.5 525.0021,-75.5"/>
<text text-anchor="middle" x="551.0109" y="-81.9" font-family="Helvetica,sans-Serif" font-size="12.00" fill="#000000">Error.h</text>
</a>
</g>
</g>
<!-- Node1&#45;&gt;Node7 -->
<g id="edge7" class="edge">
<title>Node1&#45;&gt;Node7</title>
<path fill="none" stroke="#191970" d="M596.3349,-138.378C588.2741,-128.9736 576.0874,-114.7559 566.3804,-103.431"/>
<polygon fill="#191970" stroke="#191970" points="569.0102,-101.121 559.8448,-95.8062 563.6954,-105.6766 569.0102,-101.121"/>
</g>
<!-- Node1&#45;&gt;Node10 -->
<g id="edge13" class="edge">
<title>Node1&#45;&gt;Node10</title>
<path fill="none" stroke="#191970" d="M606.5803,-138.1422C609.8809,-116.3584 617.5925,-65.4618 621.9218,-36.8882"/>
<polygon fill="#191970" stroke="#191970" points="625.4112,-37.2212 623.4489,-26.8097 618.4902,-36.1725 625.4112,-37.2212"/>
</g>
<!-- Node11 -->
<g id="node12" class="node">
<title>Node11</title>
<polygon fill="#ffffff" stroke="#bfbfbf" points="633.007,-75.5 633.007,-95.5 689.0148,-95.5 689.0148,-75.5 633.007,-75.5"/>
<text text-anchor="middle" x="661.0109" y="-81.9" font-family="Helvetica,sans-Serif" font-size="12.00" fill="#000000">fstream</text>
</g>
<!-- Node1&#45;&gt;Node11 -->
<g id="edge12" class="edge">
<title>Node1&#45;&gt;Node11</title>
<path fill="none" stroke="#191970" d="M614.0083,-138.378C622.3677,-128.9736 635.0057,-114.7559 645.0722,-103.431"/>
<polygon fill="#191970" stroke="#191970" points="647.8221,-105.6056 651.8499,-95.8062 642.5902,-100.955 647.8221,-105.6056"/>
</g>
<!-- Node12 -->
<g id="node13" class="node">
<title>Node12</title>
<polygon fill="#ffffff" stroke="#bfbfbf" points="706.6721,-75.5 706.6721,-95.5 761.3498,-95.5 761.3498,-75.5 706.6721,-75.5"/>
<text text-anchor="middle" x="734.0109" y="-81.9" font-family="Helvetica,sans-Serif" font-size="12.00" fill="#000000">cassert</text>
</g>
<!-- Node1&#45;&gt;Node12 -->
<g id="edge14" class="edge">
<title>Node1&#45;&gt;Node12</title>
<path fill="none" stroke="#191970" d="M625.737,-138.378C646.9888,-127.9992 680.2449,-111.7578 704.295,-100.0124"/>
<polygon fill="#191970" stroke="#191970" points="705.8865,-103.1303 713.3363,-95.5969 702.8147,-96.8403 705.8865,-103.1303"/>
</g>
<!-- Node13 -->
<g id="node14" class="node">
<title>Node13</title>
<polygon fill="#ffffff" stroke="#bfbfbf" points="778.9865,-69.5 778.9865,-101.5 889.0353,-101.5 889.0353,-69.5 778.9865,-69.5"/>
<text text-anchor="start" x="786.9865" y="-87.9" font-family="Helvetica,sans-Serif" font-size="12.00" fill="#000000">boost/archive/text</text>
<text text-anchor="middle" x="834.0109" y="-75.9" font-family="Helvetica,sans-Serif" font-size="12.00" fill="#000000">_oarchive.hpp</text>
</g>
<!-- Node1&#45;&gt;Node13 -->
<g id="edge15" class="edge">
<title>Node1&#45;&gt;Node13</title>
<path fill="none" stroke="#191970" d="M641.0441,-138.5869C675.2102,-129.1875 727.3364,-114.8471 768.8027,-103.4394"/>
<polygon fill="#191970" stroke="#191970" points="769.8419,-106.7836 778.5553,-100.7564 767.9851,-100.0343 769.8419,-106.7836"/>
</g>
<!-- Node14 -->
<g id="node15" class="node">
<title>Node14</title>
<polygon fill="#ffffff" stroke="#bfbfbf" points="906.9865,-69.5 906.9865,-101.5 1017.0353,-101.5 1017.0353,-69.5 906.9865,-69.5"/>
<text text-anchor="start" x="914.9865" y="-87.9" font-family="Helvetica,sans-Serif" font-size="12.00" fill="#000000">boost/archive/text</text>
<text text-anchor="middle" x="962.0109" y="-75.9" font-family="Helvetica,sans-Serif" font-size="12.00" fill="#000000">_iarchive.hpp</text>
</g>
<!-- Node1&#45;&gt;Node14 -->
<g id="edge16" class="edge">
<title>Node1&#45;&gt;Node14</title>
<path fill="none" stroke="#191970" d="M641.2976,-143.87C695.015,-136.7705 799.0287,-122.0863 896.8738,-102.1291"/>
<polygon fill="#191970" stroke="#191970" points="897.8441,-105.5027 906.9306,-100.0544 896.4297,-98.6471 897.8441,-105.5027"/>
</g>
<!-- Node15 -->
<g id="node16" class="node">
<title>Node15</title>
<polygon fill="#ffffff" stroke="#bfbfbf" points="1034.9846,-69.5 1034.9846,-101.5 1147.0373,-101.5 1147.0373,-69.5 1034.9846,-69.5"/>
<text text-anchor="start" x="1042.9846" y="-87.9" font-family="Helvetica,sans-Serif" font-size="12.00" fill="#000000">boost/serialization</text>
<text text-anchor="middle" x="1091.0109" y="-75.9" font-family="Helvetica,sans-Serif" font-size="12.00" fill="#000000">/base_object.hpp</text>
</g>
<!-- Node1&#45;&gt;Node15 -->
<g id="edge17" class="edge">
<title>Node1&#45;&gt;Node15</title>
<path fill="none" stroke="#191970" d="M641.2969,-146.1936C712.8559,-141.28 877.3105,-128.1792 1024.6196,-102.1084"/>
<polygon fill="#191970" stroke="#191970" points="1025.5211,-105.5026 1034.7453,-100.2907 1024.2842,-98.6127 1025.5211,-105.5026"/>
</g>
<!-- Node7&#45;&gt;Node2 -->
<g id="edge8" class="edge">
<title>Node7&#45;&gt;Node2</title>
<path fill="none" stroke="#191970" d="M532.1567,-75.3788C527.0364,-72.9744 521.4116,-70.6357 516.0109,-69 429.9258,-42.9275 327.9579,-29.5425 255.8037,-22.8397"/>
<polygon fill="#191970" stroke="#191970" points="256.0996,-19.3522 245.8251,-21.9376 255.4693,-26.3238 256.0996,-19.3522"/>
</g>
<!-- Node8 -->
<g id="node9" class="node">
<title>Node8</title>
<polygon fill="#ffffff" stroke="#bfbfbf" points="437.0041,-6.5 437.0041,-26.5 499.0178,-26.5 499.0178,-6.5 437.0041,-6.5"/>
<text text-anchor="middle" x="468.0109" y="-12.9" font-family="Helvetica,sans-Serif" font-size="12.00" fill="#000000">iostream</text>
</g>
<!-- Node7&#45;&gt;Node8 -->
<g id="edge9" class="edge">
<title>Node7&#45;&gt;Node8</title>
<path fill="none" stroke="#191970" d="M538.764,-75.3188C525.5234,-64.3116 504.1997,-46.5846 488.4186,-33.4654"/>
<polygon fill="#191970" stroke="#191970" points="490.2354,-30.4243 480.3081,-26.723 485.7605,-35.8072 490.2354,-30.4243"/>
</g>
<!-- Node9 -->
<g id="node10" class="node">
<title>Node9</title>
<polygon fill="#ffffff" stroke="#bfbfbf" points="517.3264,-6.5 517.3264,-26.5 584.6955,-26.5 584.6955,-6.5 517.3264,-6.5"/>
<text text-anchor="middle" x="551.0109" y="-12.9" font-family="Helvetica,sans-Serif" font-size="12.00" fill="#000000">exception</text>
</g>
<!-- Node7&#45;&gt;Node9 -->
<g id="edge10" class="edge">
<title>Node7&#45;&gt;Node9</title>
<path fill="none" stroke="#191970" d="M551.0109,-75.3188C551.0109,-65.2289 551.0109,-49.4925 551.0109,-36.8347"/>
<polygon fill="#191970" stroke="#191970" points="554.511,-36.7229 551.0109,-26.723 547.511,-36.723 554.511,-36.7229"/>
</g>
<!-- Node7&#45;&gt;Node10 -->
<g id="edge11" class="edge">
<title>Node7&#45;&gt;Node10</title>
<path fill="none" stroke="#191970" d="M561.9299,-75.3188C573.6254,-64.4135 592.3948,-46.9123 606.424,-33.831"/>
<polygon fill="#191970" stroke="#191970" points="609.1202,-36.1025 614.0472,-26.723 604.3464,-30.9828 609.1202,-36.1025"/>
</g>
</g>
</svg>
